ISO-10303-21;
HEADER;
FILE_DESCRIPTION (( 'STEP AP203' ),
    '1' );
FILE_NAME ('DummyBuckConverter_Default_sldprt.STEP',
    '2026-09-09T05:31:19',
    ( '' ),
    ( '' ),
    'SwSTEP 2.0',
    'SolidWorks 2020',
    '' );
FILE_SCHEMA (( 'CONFIG_CONTROL_DESIGN' ));
ENDSEC;

DATA;
#1 = DIRECTION ( 'NONE',  ( 1.000000000000000000, 0.000000000000000000, 0.000000000000000000 ) ) ;
#2 = SHAPE_DEFINITION_REPRESENTATION ( #136, #191 ) ;
#3 = AXIS2_PLACEMENT_3D ( 'NONE', #63, #183, #178 ) ;
#4 = CARTESIAN_POINT ( 'NONE',  ( -30.00000000000000000, 16.00000000000000000, -40.00000000000000000 ) ) ;
#5 = SECURITY_CLASSIFICATION_LEVEL ( 'unclassified' ) ;
#6 = CARTESIAN_POINT ( 'NONE',  ( -29.99999999999999645, -16.00000000000000000, -40.00000000000000000 ) ) ;
#7 = LINE ( 'NONE', #143, #161 ) ;
#8 = ORIENTED_EDGE ( 'NONE', *, *, #53, .F. ) ;
#9 = VECTOR ( 'NONE', #59, 1000.000000000000000 ) ;
#10 = ORIENTED_EDGE ( 'NONE', *, *, #134, .F. ) ;
#11 = CARTESIAN_POINT ( 'NONE',  ( 30.00000000000000711, -16.00000000000000000, 0.000000000000000000 ) ) ;
#12 = VERTEX_POINT ( 'NONE', #108 ) ;
#13 = AXIS2_PLACEMENT_3D ( 'NONE', #212, #103, #21 ) ;
#14 = EDGE_CURVE ( 'NONE', #72, #12, #230, .T. ) ;
#15 = DATE_AND_TIME ( #176, #30 ) ;
#16 = PLANE ( 'NONE',  #233 ) ;
#17 = APPLICATION_PROTOCOL_DEFINITION ( 'international standard', 'config_control_design', 1994, #211 ) ;
#18 = DIRECTION ( 'NONE',  ( -0.000000000000000000, 0.000000000000000000, 1.000000000000000000 ) ) ;
#19 = LOCAL_TIME ( 11, 1, 19.00000000000000000, #140 ) ;
#20 = CARTESIAN_POINT ( 'NONE',  ( -30.00000000000000000, 16.00000000000000000, -40.00000000000000000 ) ) ;
#21 = DIRECTION ( 'NONE',  ( 0.000000000000000000, -0.000000000000000000, 1.000000000000000000 ) ) ;
#22 = ORIENTED_EDGE ( 'NONE', *, *, #74, .T. ) ;
#23 = FACE_OUTER_BOUND ( 'NONE', #151, .T. ) ;
#24 = ORIENTED_EDGE ( 'NONE', *, *, #79, .T. ) ;
#25 = CARTESIAN_POINT ( 'NONE',  ( 30.00000000000000000, 16.00000000000000000, 0.000000000000000000 ) ) ;
#26 = DIRECTION ( 'NONE',  ( 0.000000000000000000, 0.000000000000000000, 1.000000000000000000 ) ) ;
#27 = EDGE_LOOP ( 'NONE', ( #98, #147, #163, #10 ) ) ;
#28 = DIRECTION ( 'NONE',  ( 1.084202172485504434E-16, -1.000000000000000000, 0.000000000000000000 ) ) ;
#29 = EDGE_LOOP ( 'NONE', ( #193, #40, #207, #162 ) ) ;
#30 = LOCAL_TIME ( 11, 1, 19.00000000000000000, #51 ) ;
#31 = CALENDAR_DATE ( 2026, 9, 9 ) ;
#32 = CC_DESIGN_DATE_AND_TIME_ASSIGNMENT ( #153, #110, ( #132 ) ) ;
#33 = PLANE ( 'NONE',  #118 ) ;
#34 = DATE_AND_TIME ( #116, #56 ) ;
#35 = VECTOR ( 'NONE', #160, 1000.000000000000000 ) ;
#36 = EDGE_CURVE ( 'NONE', #96, #12, #148, .T. ) ;
#37 = APPROVAL_ROLE ( '' ) ;
#38 = VECTOR ( 'NONE', #26, 1000.000000000000000 ) ;
#39 = ADVANCED_FACE ( 'NONE', ( #199 ), #75, .F. ) ;
#40 = ORIENTED_EDGE ( 'NONE', *, *, #237, .F. ) ;
#41 = DIRECTION ( 'NONE',  ( 0.000000000000000000, 0.000000000000000000, 1.000000000000000000 ) ) ;
#42 = APPROVAL_DATE_TIME ( #202, #101 ) ;
#43 = ADVANCED_FACE ( 'NONE', ( #221 ), #224, .T. ) ;
#44 = DIRECTION ( 'NONE',  ( 0.000000000000000000, -0.000000000000000000, -1.000000000000000000 ) ) ;
#45 = ORIENTED_EDGE ( 'NONE', *, *, #114, .F. ) ;
#46 = APPROVAL_PERSON_ORGANIZATION ( #195, #101, #222 ) ;
#47 = CALENDAR_DATE ( 2026, 9, 9 ) ;
#48 = PERSON_AND_ORGANIZATION_ROLE ( 'creator' ) ;
#49 = PRODUCT_RELATED_PRODUCT_CATEGORY ( 'detail', '', ( #172 ) ) ;
#50 = LINE ( 'NONE', #173, #67 ) ;
#51 = COORDINATED_UNIVERSAL_TIME_OFFSET ( 5, 30, .AHEAD. ) ;
#52 = VECTOR ( 'NONE', #61, 1000.000000000000000 ) ;
#53 = EDGE_CURVE ( 'NONE', #58, #96, #87, .T. ) ;
#54 = PERSON_AND_ORGANIZATION ( #155, #104 ) ;
#55 = DIRECTION ( 'NONE',  ( 1.000000000000000000, 0.000000000000000000, 0.000000000000000000 ) ) ;
#56 = LOCAL_TIME ( 11, 1, 19.00000000000000000, #174 ) ;
#57 = LINE ( 'NONE', #25, #9 ) ;
#58 = VERTEX_POINT ( 'NONE', #4 ) ;
#59 = DIRECTION ( 'NONE',  ( -2.168404344971008868E-16, 1.000000000000000000, -0.000000000000000000 ) ) ;
#60 = ORIENTED_EDGE ( 'NONE', *, *, #36, .T. ) ;
#61 = DIRECTION ( 'NONE',  ( 1.084202172485504434E-16, -1.000000000000000000, 0.000000000000000000 ) ) ;
#62 = APPLICATION_PROTOCOL_DEFINITION ( 'international standard', 'config_control_design', 1994, #188 ) ;
#63 = CARTESIAN_POINT ( 'NONE',  ( 30.00000000000000000, 16.00000000000000000, -40.00000000000000000 ) ) ;
#64 = ORIENTED_EDGE ( 'NONE', *, *, #114, .T. ) ;
#65 = CC_DESIGN_PERSON_AND_ORGANIZATION_ASSIGNMENT ( #54, #131, ( #132 ) ) ;
#66 = AXIS2_PLACEMENT_3D ( 'NONE', #81, #228, #77 ) ;
#67 = VECTOR ( 'NONE', #235, 1000.000000000000000 ) ;
#68 = DIRECTION ( 'NONE',  ( 1.084202172485504434E-16, -1.000000000000000000, 0.000000000000000000 ) ) ;
#69 = EDGE_CURVE ( 'NONE', #12, #198, #141, .T. ) ;
#70 = DIRECTION ( 'NONE',  ( -0.000000000000000000, 0.000000000000000000, 1.000000000000000000 ) ) ;
#71 = CC_DESIGN_APPROVAL ( #179, ( #132 ) ) ;
#72 = VERTEX_POINT ( 'NONE', #219 ) ;
#73 = ORIENTED_EDGE ( 'NONE', *, *, #14, .F. ) ;
#74 = EDGE_CURVE ( 'NONE', #198, #216, #57, .T. ) ;
#75 = PLANE ( 'NONE',  #80 ) ;
#76 = CARTESIAN_POINT ( 'NONE',  ( 30.00000000000000000, 16.00000000000000000, 0.000000000000000000 ) ) ;
#77 = DIRECTION ( 'NONE',  ( 1.000000000000000000, 0.000000000000000000, 0.000000000000000000 ) ) ;
#78 = LOCAL_TIME ( 11, 1, 19.00000000000000000, #208 ) ;
#79 = EDGE_CURVE ( 'NONE', #187, #130, #124, .T. ) ;
#80 = AXIS2_PLACEMENT_3D ( 'NONE', #180, #70, #181 ) ;
#81 = CARTESIAN_POINT ( 'NONE',  ( 0.000000000000000000, 0.000000000000000000, 0.000000000000000000 ) ) ;
#82 = FACE_OUTER_BOUND ( 'NONE', #29, .T. ) ;
#83 = CC_DESIGN_PERSON_AND_ORGANIZATION_ASSIGNMENT ( #217, #213, ( #154 ) ) ;
#84 = CC_DESIGN_APPROVAL ( #127, ( #111 ) ) ;
#85 = PERSON_AND_ORGANIZATION_ROLE ( 'design_owner' ) ;
#86 = CARTESIAN_POINT ( 'NONE',  ( 30.00000000000000000, 16.00000000000000000, -40.00000000000000000 ) ) ;
#87 = LINE ( 'NONE', #20, #205 ) ;
#88 = CARTESIAN_POINT ( 'NONE',  ( -29.99999999999999645, -16.00000000000000000, 0.000000000000000000 ) ) ;
#89 = ORIENTED_EDGE ( 'NONE', *, *, #237, .T. ) ;
#90 =( NAMED_UNIT ( * ) SI_UNIT ( $, .STERADIAN. ) SOLID_ANGLE_UNIT ( ) );
#91 = VECTOR ( 'NONE', #41, 1000.000000000000000 ) ;
#92 = DATE_AND_TIME ( #31, #19 ) ;
#93 = CC_DESIGN_PERSON_AND_ORGANIZATION_ASSIGNMENT ( #218, #122, ( #154 ) ) ;
#94 = CARTESIAN_POINT ( 'NONE',  ( -30.00000000000000000, 16.00000000000000000, -40.00000000000000000 ) ) ;
#95 = LOCAL_TIME ( 11, 1, 19.00000000000000000, #165 ) ;
#96 = VERTEX_POINT ( 'NONE', #120 ) ;
#97 = APPROVAL_PERSON_ORGANIZATION ( #171, #127, #157 ) ;
#98 = ORIENTED_EDGE ( 'NONE', *, *, #79, .F. ) ;
#99 = FACE_OUTER_BOUND ( 'NONE', #119, .T. ) ;
#100 = CARTESIAN_POINT ( 'NONE',  ( 30.00000000000000711, -16.00000000000000000, -40.00000000000000000 ) ) ;
#101 = APPROVAL ( #177, 'UNSPECIFIED' ) ;
#102 = LINE ( 'NONE', #201, #91 ) ;
#103 = DIRECTION ( 'NONE',  ( 0.000000000000000000, 1.000000000000000000, 0.000000000000000000 ) ) ;
#104 = ORGANIZATION ( 'UNSPECIFIED', 'UNSPECIFIED', '' ) ;
#105 = ORIENTED_EDGE ( 'NONE', *, *, #69, .F. ) ;
#106 =( NAMED_UNIT ( * ) PLANE_ANGLE_UNIT ( ) SI_UNIT ( $, .RADIAN. ) );
#107 = EDGE_LOOP ( 'NONE', ( #112, #8, #144, #204 ) ) ;
#108 = CARTESIAN_POINT ( 'NONE',  ( -29.99999999999999645, -16.00000000000000000, 0.000000000000000000 ) ) ;
#109 = CC_DESIGN_PERSON_AND_ORGANIZATION_ASSIGNMENT ( #128, #85, ( #172 ) ) ;
#110 = DATE_TIME_ROLE ( 'classification_date' ) ;
#111 = PRODUCT_DEFINITION ( 'UNKNOWN', '', #154, #138 ) ;
#112 = ORIENTED_EDGE ( 'NONE', *, *, #36, .F. ) ;
#113 = DATE_TIME_ROLE ( 'creation_date' ) ;
#114 = EDGE_CURVE ( 'NONE', #187, #198, #102, .T. ) ;
#115 = CARTESIAN_POINT ( 'NONE',  ( 0.000000000000000000, 0.000000000000000000, 0.000000000000000000 ) ) ;
#116 = CALENDAR_DATE ( 2026, 9, 9 ) ;
#117 = CARTESIAN_POINT ( 'NONE',  ( 30.00000000000000000, 16.00000000000000000, -40.00000000000000000 ) ) ;
#118 = AXIS2_PLACEMENT_3D ( 'NONE', #94, #170, #68 ) ;
#119 = EDGE_LOOP ( 'NONE', ( #22, #220, #60, #142 ) ) ;
#120 = CARTESIAN_POINT ( 'NONE',  ( -30.00000000000000000, 16.00000000000000000, 0.000000000000000000 ) ) ;
#121 = ADVANCED_FACE ( 'NONE', ( #99 ), #16, .T. ) ;
#122 = PERSON_AND_ORGANIZATION_ROLE ( 'design_supplier' ) ;
#123 = DIRECTION ( 'NONE',  ( -1.000000000000000000, -0.000000000000000000, -0.000000000000000000 ) ) ;
#124 = LINE ( 'NONE', #117, #35 ) ;
#125 = MECHANICAL_CONTEXT ( 'NONE', #188, 'mechanical' ) ;
#126 = PLANE ( 'NONE',  #167 ) ;
#127 = APPROVAL ( #156, 'UNSPECIFIED' ) ;
#128 = PERSON_AND_ORGANIZATION ( #155, #104 ) ;
#129 = VECTOR ( 'NONE', #145, 1000.000000000000000 ) ;
#130 = VERTEX_POINT ( 'NONE', #86 ) ;
#131 = PERSON_AND_ORGANIZATION_ROLE ( 'classification_officer' ) ;
#132 = SECURITY_CLASSIFICATION ( '', '', #5 ) ;
#133 = EDGE_CURVE ( 'NONE', #72, #187, #159, .T. ) ;
#134 = EDGE_CURVE ( 'NONE', #130, #58, #50, .T. ) ;
#135 = APPROVAL_STATUS ( 'not_yet_approved' ) ;
#136 = PRODUCT_DEFINITION_SHAPE ( 'NONE', 'NONE',  #111 ) ;
#137 = PLANE ( 'NONE',  #13 ) ;
#138 = DESIGN_CONTEXT ( 'detailed design', #211, 'design' ) ;
#139 = APPROVAL_PERSON_ORGANIZATION ( #231, #179, #37 ) ;
#140 = COORDINATED_UNIVERSAL_TIME_OFFSET ( 5, 30, .AHEAD. ) ;
#141 = LINE ( 'NONE', #88, #129 ) ;
#142 = ORIENTED_EDGE ( 'NONE', *, *, #69, .T. ) ;
#143 = CARTESIAN_POINT ( 'NONE',  ( -30.00000000000000000, 16.00000000000000000, 0.000000000000000000 ) ) ;
#144 = ORIENTED_EDGE ( 'NONE', *, *, #196, .T. ) ;
#145 = DIRECTION ( 'NONE',  ( 1.000000000000000000, 0.000000000000000000, 0.000000000000000000 ) ) ;
#146 = CLOSED_SHELL ( 'NONE', ( #43, #234, #149, #169, #39, #121 ) ) ;
#147 = ORIENTED_EDGE ( 'NONE', *, *, #133, .F. ) ;
#148 = LINE ( 'NONE', #164, #52 ) ;
#149 = ADVANCED_FACE ( 'NONE', ( #215 ), #33, .T. ) ;
#150 = DIRECTION ( 'NONE',  ( 0.000000000000000000, 0.000000000000000000, 1.000000000000000000 ) ) ;
#151 = EDGE_LOOP ( 'NONE', ( #105, #73, #182, #64 ) ) ;
#152 = APPROVAL_DATE_TIME ( #92, #127 ) ;
#153 = DATE_AND_TIME ( #47, #78 ) ;
#154 = PRODUCT_DEFINITION_FORMATION_WITH_SPECIFIED_SOURCE ( 'ANY', '', #172, .NOT_KNOWN. ) ;
#155 = PERSON ( 'UNSPECIFIED', 'UNSPECIFIED', 'UNSPECIFIED', ('UNSPECIFIED'), ('UNSPECIFIED'), ('UNSPECIFIED') ) ;
#156 = APPROVAL_STATUS ( 'not_yet_approved' ) ;
#157 = APPROVAL_ROLE ( '' ) ;
#158 = DIRECTION ( 'NONE',  ( 0.000000000000000000, 0.000000000000000000, 1.000000000000000000 ) ) ;
#159 = LINE ( 'NONE', #6, #184 ) ;
#160 = DIRECTION ( 'NONE',  ( -2.168404344971008868E-16, 1.000000000000000000, -0.000000000000000000 ) ) ;
#161 = VECTOR ( 'NONE', #123, 1000.000000000000000 ) ;
#162 = ORIENTED_EDGE ( 'NONE', *, *, #53, .T. ) ;
#163 = ORIENTED_EDGE ( 'NONE', *, *, #196, .F. ) ;
#164 = CARTESIAN_POINT ( 'NONE',  ( -30.00000000000000000, 16.00000000000000000, 0.000000000000000000 ) ) ;
#165 = COORDINATED_UNIVERSAL_TIME_OFFSET ( 5, 30, .AHEAD. ) ;
#166 = LINE ( 'NONE', #189, #38 ) ;
#167 = AXIS2_PLACEMENT_3D ( 'NONE', #206, #203, #44 ) ;
#168 = CC_DESIGN_APPROVAL ( #101, ( #154 ) ) ;
#169 = ADVANCED_FACE ( 'NONE', ( #82 ), #137, .T. ) ;
#170 = DIRECTION ( 'NONE',  ( -1.000000000000000000, -1.084202172485504434E-16, 0.000000000000000000 ) ) ;
#171 = PERSON_AND_ORGANIZATION ( #155, #104 ) ;
#172 = PRODUCT ( 'DummyBuckConverter_Default_sldprt', 'DummyBuckConverter_Default_sldprt', '', ( #125 ) ) ;
#173 = CARTESIAN_POINT ( 'NONE',  ( -30.00000000000000000, 16.00000000000000000, -40.00000000000000000 ) ) ;
#174 = COORDINATED_UNIVERSAL_TIME_OFFSET ( 5, 30, .AHEAD. ) ;
#175 = VECTOR ( 'NONE', #150, 1000.000000000000000 ) ;
#176 = CALENDAR_DATE ( 2026, 9, 9 ) ;
#177 = APPROVAL_STATUS ( 'not_yet_approved' ) ;
#178 = DIRECTION ( 'NONE',  ( -2.168404344971008868E-16, 1.000000000000000000, 0.000000000000000000 ) ) ;
#179 = APPROVAL ( #135, 'UNSPECIFIED' ) ;
#180 = CARTESIAN_POINT ( 'NONE',  ( 0.000000000000000000, 0.000000000000000000, -40.00000000000000000 ) ) ;
#181 = DIRECTION ( 'NONE',  ( 1.000000000000000000, 0.000000000000000000, 0.000000000000000000 ) ) ;
#182 = ORIENTED_EDGE ( 'NONE', *, *, #133, .T. ) ;
#183 = DIRECTION ( 'NONE',  ( 1.000000000000000000, 2.168404344971008868E-16, -0.000000000000000000 ) ) ;
#184 = VECTOR ( 'NONE', #55, 1000.000000000000000 ) ;
#185 =( LENGTH_UNIT ( ) NAMED_UNIT ( * ) SI_UNIT ( .MILLI., .METRE. ) );
#186 = LINE ( 'NONE', #223, #210 ) ;
#187 = VERTEX_POINT ( 'NONE', #100 ) ;
#188 = APPLICATION_CONTEXT ( 'configuration controlled 3d designs of mechanical parts and assemblies' ) ;
#189 = CARTESIAN_POINT ( 'NONE',  ( 30.00000000000000000, 16.00000000000000000, -40.00000000000000000 ) ) ;
#190 = CC_DESIGN_DATE_AND_TIME_ASSIGNMENT ( #15, #113, ( #111 ) ) ;
#191 = ADVANCED_BREP_SHAPE_REPRESENTATION ( 'DummyBuckConverter_Default_sldprt', ( #229, #66 ), #197 ) ;
#192 = APPROVAL_DATE_TIME ( #34, #179 ) ;
#193 = ORIENTED_EDGE ( 'NONE', *, *, #232, .F. ) ;
#194 = CC_DESIGN_SECURITY_CLASSIFICATION ( #132, ( #154 ) ) ;
#195 = PERSON_AND_ORGANIZATION ( #155, #104 ) ;
#196 = EDGE_CURVE ( 'NONE', #58, #72, #186, .T. ) ;
#197 =( GEOMETRIC_REPRESENTATION_CONTEXT ( 3 ) GLOBAL_UNCERTAINTY_ASSIGNED_CONTEXT ( ( #236 ) ) GLOBAL_UNIT_ASSIGNED_CONTEXT ( ( #185, #106, #90 ) ) REPRESENTATION_CONTEXT ( 'NONE', 'WORKASPACE' ) );
#198 = VERTEX_POINT ( 'NONE', #11 ) ;
#199 = FACE_OUTER_BOUND ( 'NONE', #27, .T. ) ;
#200 = ORIENTED_EDGE ( 'NONE', *, *, #74, .F. ) ;
#201 = CARTESIAN_POINT ( 'NONE',  ( 30.00000000000000711, -16.00000000000000000, -40.00000000000000000 ) ) ;
#202 = DATE_AND_TIME ( #227, #95 ) ;
#203 = DIRECTION ( 'NONE',  ( 0.000000000000000000, -1.000000000000000000, 0.000000000000000000 ) ) ;
#204 = ORIENTED_EDGE ( 'NONE', *, *, #14, .T. ) ;
#205 = VECTOR ( 'NONE', #158, 1000.000000000000000 ) ;
#206 = CARTESIAN_POINT ( 'NONE',  ( -29.99999999999999645, -16.00000000000000000, -40.00000000000000000 ) ) ;
#207 = ORIENTED_EDGE ( 'NONE', *, *, #134, .T. ) ;
#208 = COORDINATED_UNIVERSAL_TIME_OFFSET ( 5, 30, .AHEAD. ) ;
#209 = PERSON_AND_ORGANIZATION ( #155, #104 ) ;
#210 = VECTOR ( 'NONE', #28, 1000.000000000000000 ) ;
#211 = APPLICATION_CONTEXT ( 'configuration controlled 3d designs of mechanical parts and assemblies' ) ;
#212 = CARTESIAN_POINT ( 'NONE',  ( -30.00000000000000000, 16.00000000000000000, -40.00000000000000000 ) ) ;
#213 = PERSON_AND_ORGANIZATION_ROLE ( 'creator' ) ;
#214 = CC_DESIGN_PERSON_AND_ORGANIZATION_ASSIGNMENT ( #209, #48, ( #111 ) ) ;
#215 = FACE_OUTER_BOUND ( 'NONE', #107, .T. ) ;
#216 = VERTEX_POINT ( 'NONE', #76 ) ;
#217 = PERSON_AND_ORGANIZATION ( #155, #104 ) ;
#218 = PERSON_AND_ORGANIZATION ( #155, #104 ) ;
#219 = CARTESIAN_POINT ( 'NONE',  ( -29.99999999999999645, -16.00000000000000000, -40.00000000000000000 ) ) ;
#220 = ORIENTED_EDGE ( 'NONE', *, *, #232, .T. ) ;
#221 = FACE_OUTER_BOUND ( 'NONE', #225, .T. ) ;
#222 = APPROVAL_ROLE ( '' ) ;
#223 = CARTESIAN_POINT ( 'NONE',  ( -30.00000000000000000, 16.00000000000000000, -40.00000000000000000 ) ) ;
#224 = PLANE ( 'NONE',  #3 ) ;
#225 = EDGE_LOOP ( 'NONE', ( #200, #45, #24, #89 ) ) ;
#226 = CARTESIAN_POINT ( 'NONE',  ( -29.99999999999999645, -16.00000000000000000, -40.00000000000000000 ) ) ;
#227 = CALENDAR_DATE ( 2026, 9, 9 ) ;
#228 = DIRECTION ( 'NONE',  ( 0.000000000000000000, 0.000000000000000000, 1.000000000000000000 ) ) ;
#229 = MANIFOLD_SOLID_BREP ( 'Boss-Extrude1', #146 ) ;
#230 = LINE ( 'NONE', #226, #175 ) ;
#231 = PERSON_AND_ORGANIZATION ( #155, #104 ) ;
#232 = EDGE_CURVE ( 'NONE', #216, #96, #7, .T. ) ;
#233 = AXIS2_PLACEMENT_3D ( 'NONE', #115, #18, #1 ) ;
#234 = ADVANCED_FACE ( 'NONE', ( #23 ), #126, .T. ) ;
#235 = DIRECTION ( 'NONE',  ( -1.000000000000000000, -0.000000000000000000, -0.000000000000000000 ) ) ;
#236 = UNCERTAINTY_MEASURE_WITH_UNIT (LENGTH_MEASURE( 1.000000000000000082E-05 ), #185, 'distance_accuracy_value', 'NONE');
#237 = EDGE_CURVE ( 'NONE', #130, #216, #166, .T. ) ;
ENDSEC;
END-ISO-10303-21;
