ISO-10303-21;
HEADER;
FILE_DESCRIPTION (( 'STEP AP203' ),
    '1' );
FILE_NAME ('DummyBattery_Default_sldprt.STEP',
    '2026-09-09T05:31:10',
    ( '' ),
    ( '' ),
    'SwSTEP 2.0',
    'SolidWorks 2020',
    '' );
FILE_SCHEMA (( 'CONFIG_CONTROL_DESIGN' ));
ENDSEC;

DATA;
#1 = LINE ( 'NONE', #161, #159 ) ;
#2 = PLANE ( 'NONE',  #139 ) ;
#3 = COORDINATED_UNIVERSAL_TIME_OFFSET ( 5, 30, .AHEAD. ) ;
#4 = EDGE_CURVE ( 'NONE', #77, #133, #224, .T. ) ;
#5 = DIRECTION ( 'NONE',  ( 0.000000000000000000, 0.000000000000000000, 1.000000000000000000 ) ) ;
#6 = DIRECTION ( 'NONE',  ( 2.168404344971008868E-16, -1.000000000000000000, 0.000000000000000000 ) ) ;
#7 = PERSON_AND_ORGANIZATION ( #130, #233 ) ;
#8 =( GEOMETRIC_REPRESENTATION_CONTEXT ( 3 ) GLOBAL_UNCERTAINTY_ASSIGNED_CONTEXT ( ( #72 ) ) GLOBAL_UNIT_ASSIGNED_CONTEXT ( ( #203, #187, #190 ) ) REPRESENTATION_CONTEXT ( 'NONE', 'WORKASPACE' ) );
#9 = SHAPE_DEFINITION_REPRESENTATION ( #207, #192 ) ;
#10 = CARTESIAN_POINT ( 'NONE',  ( 35.99999999999998579, 15.99999999999999289, 0.000000000000000000 ) ) ;
#11 = EDGE_CURVE ( 'NONE', #132, #170, #99, .T. ) ;
#12 = EDGE_LOOP ( 'NONE', ( #235, #114, #50, #117 ) ) ;
#13 = ORIENTED_EDGE ( 'NONE', *, *, #11, .T. ) ;
#14 = PRODUCT_RELATED_PRODUCT_CATEGORY ( 'detail', '', ( #172 ) ) ;
#15 = VECTOR ( 'NONE', #86, 1000.000000000000000 ) ;
#16 = CC_DESIGN_SECURITY_CLASSIFICATION ( #148, ( #153 ) ) ;
#17 = EDGE_CURVE ( 'NONE', #195, #135, #182, .T. ) ;
#18 = APPLICATION_CONTEXT ( 'configuration controlled 3d designs of mechanical parts and assemblies' ) ;
#19 = PERSON_AND_ORGANIZATION_ROLE ( 'creator' ) ;
#20 = CARTESIAN_POINT ( 'NONE',  ( -36.00000000000000711, -16.00000000000000711, -40.00000000000000000 ) ) ;
#21 = DIRECTION ( 'NONE',  ( 0.000000000000000000, -1.000000000000000000, 0.000000000000000000 ) ) ;
#22 = DIRECTION ( 'NONE',  ( -1.000000000000000000, -0.000000000000000000, -0.000000000000000000 ) ) ;
#23 = EDGE_CURVE ( 'NONE', #154, #35, #60, .T. ) ;
#24 = LINE ( 'NONE', #74, #79 ) ;
#25 = CARTESIAN_POINT ( 'NONE',  ( 0.000000000000000000, 0.000000000000000000, -40.00000000000000000 ) ) ;
#26 = LINE ( 'NONE', #217, #136 ) ;
#27 = LINE ( 'NONE', #204, #63 ) ;
#28 = APPROVAL_PERSON_ORGANIZATION ( #220, #70, #41 ) ;
#29 = ADVANCED_FACE ( 'NONE', ( #164 ), #2, .T. ) ;
#30 = CARTESIAN_POINT ( 'NONE',  ( -36.00000000000001421, 15.99999999999999289, 0.000000000000000000 ) ) ;
#31 = CC_DESIGN_PERSON_AND_ORGANIZATION_ASSIGNMENT ( #128, #64, ( #148 ) ) ;
#32 = ORIENTED_EDGE ( 'NONE', *, *, #175, .T. ) ;
#33 = ORIENTED_EDGE ( 'NONE', *, *, #196, .F. ) ;
#34 = VECTOR ( 'NONE', #40, 1000.000000000000000 ) ;
#35 = VERTEX_POINT ( 'NONE', #180 ) ;
#36 = DIRECTION ( 'NONE',  ( 0.000000000000000000, -0.000000000000000000, -1.000000000000000000 ) ) ;
#37 = CC_DESIGN_PERSON_AND_ORGANIZATION_ASSIGNMENT ( #87, #205, ( #153 ) ) ;
#38 = LOCAL_TIME ( 11, 1, 10.00000000000000000, #3 ) ;
#39 = APPROVAL_PERSON_ORGANIZATION ( #165, #56, #229 ) ;
#40 = DIRECTION ( 'NONE',  ( -4.336808689942017736E-16, 1.000000000000000000, -0.000000000000000000 ) ) ;
#41 = APPROVAL_ROLE ( '' ) ;
#42 = CARTESIAN_POINT ( 'NONE',  ( -36.00000000000000711, -16.00000000000000711, -40.00000000000000000 ) ) ;
#43 = EDGE_LOOP ( 'NONE', ( #65, #208, #13, #157 ) ) ;
#44 = COORDINATED_UNIVERSAL_TIME_OFFSET ( 5, 30, .AHEAD. ) ;
#45 = LINE ( 'NONE', #42, #198 ) ;
#46 = EDGE_CURVE ( 'NONE', #170, #77, #85, .T. ) ;
#47 = SECURITY_CLASSIFICATION_LEVEL ( 'unclassified' ) ;
#48 = COORDINATED_UNIVERSAL_TIME_OFFSET ( 5, 30, .AHEAD. ) ;
#49 = ORIENTED_EDGE ( 'NONE', *, *, #97, .F. ) ;
#50 = ORIENTED_EDGE ( 'NONE', *, *, #97, .T. ) ;
#51 = CC_DESIGN_APPROVAL ( #125, ( #153 ) ) ;
#52 = EDGE_CURVE ( 'NONE', #154, #133, #26, .T. ) ;
#53 = CARTESIAN_POINT ( 'NONE',  ( -36.00000000000001421, 15.99999999999999289, -40.00000000000000000 ) ) ;
#54 = CALENDAR_DATE ( 2026, 9, 9 ) ;
#55 = LOCAL_TIME ( 11, 1, 10.00000000000000000, #168 ) ;
#56 = APPROVAL ( #167, 'UNSPECIFIED' ) ;
#57 = CALENDAR_DATE ( 2026, 9, 9 ) ;
#58 = PLANE ( 'NONE',  #96 ) ;
#59 = DIRECTION ( 'NONE',  ( 1.000000000000000000, 0.000000000000000000, 0.000000000000000000 ) ) ;
#60 = LINE ( 'NONE', #183, #181 ) ;
#61 = CARTESIAN_POINT ( 'NONE',  ( -36.00000000000001421, 15.99999999999999289, 0.000000000000000000 ) ) ;
#62 = DIRECTION ( 'NONE',  ( 2.168404344971008868E-16, -1.000000000000000000, 0.000000000000000000 ) ) ;
#63 = VECTOR ( 'NONE', #124, 1000.000000000000000 ) ;
#64 = PERSON_AND_ORGANIZATION_ROLE ( 'classification_officer' ) ;
#65 = ORIENTED_EDGE ( 'NONE', *, *, #4, .T. ) ;
#66 = ORIENTED_EDGE ( 'NONE', *, *, #46, .F. ) ;
#67 = ADVANCED_FACE ( 'NONE', ( #142 ), #199, .T. ) ;
#68 = AXIS2_PLACEMENT_3D ( 'NONE', #53, #177, #89 ) ;
#69 = FACE_OUTER_BOUND ( 'NONE', #169, .T. ) ;
#70 = APPROVAL ( #202, 'UNSPECIFIED' ) ;
#71 = CARTESIAN_POINT ( 'NONE',  ( -36.00000000000000711, -16.00000000000000711, -40.00000000000000000 ) ) ;
#72 = UNCERTAINTY_MEASURE_WITH_UNIT (LENGTH_MEASURE( 1.000000000000000082E-05 ), #203, 'distance_accuracy_value', 'NONE');
#73 = CARTESIAN_POINT ( 'NONE',  ( -36.00000000000001421, 15.99999999999999289, -40.00000000000000000 ) ) ;
#74 = CARTESIAN_POINT ( 'NONE',  ( -36.00000000000001421, 15.99999999999999289, -40.00000000000000000 ) ) ;
#75 = ORIENTED_EDGE ( 'NONE', *, *, #11, .F. ) ;
#76 = MECHANICAL_CONTEXT ( 'NONE', #18, 'mechanical' ) ;
#77 = VERTEX_POINT ( 'NONE', #219 ) ;
#78 = ORIENTED_EDGE ( 'NONE', *, *, #237, .F. ) ;
#79 = VECTOR ( 'NONE', #141, 1000.000000000000000 ) ;
#80 = ORIENTED_EDGE ( 'NONE', *, *, #237, .T. ) ;
#81 = EDGE_LOOP ( 'NONE', ( #66, #78, #231, #32 ) ) ;
#82 = LOCAL_TIME ( 11, 1, 10.00000000000000000, #178 ) ;
#83 = FACE_OUTER_BOUND ( 'NONE', #81, .T. ) ;
#84 = CARTESIAN_POINT ( 'NONE',  ( 35.99999999999998579, 15.99999999999999289, -40.00000000000000000 ) ) ;
#85 = LINE ( 'NONE', #140, #186 ) ;
#86 = DIRECTION ( 'NONE',  ( 2.168404344971008868E-16, -1.000000000000000000, 0.000000000000000000 ) ) ;
#87 = PERSON_AND_ORGANIZATION ( #130, #233 ) ;
#88 = CC_DESIGN_DATE_AND_TIME_ASSIGNMENT ( #215, #212, ( #200 ) ) ;
#89 = DIRECTION ( 'NONE',  ( 0.000000000000000000, -0.000000000000000000, 1.000000000000000000 ) ) ;
#90 = VECTOR ( 'NONE', #160, 1000.000000000000000 ) ;
#91 = ORIENTED_EDGE ( 'NONE', *, *, #23, .T. ) ;
#92 = APPLICATION_PROTOCOL_DEFINITION ( 'international standard', 'config_control_design', 1994, #18 ) ;
#93 = EDGE_LOOP ( 'NONE', ( #75, #110, #209, #80 ) ) ;
#94 = AXIS2_PLACEMENT_3D ( 'NONE', #20, #21, #36 ) ;
#95 = FACE_OUTER_BOUND ( 'NONE', #12, .T. ) ;
#96 = AXIS2_PLACEMENT_3D ( 'NONE', #176, #236, #211 ) ;
#97 = EDGE_CURVE ( 'NONE', #135, #154, #122, .T. ) ;
#98 = EDGE_CURVE ( 'NONE', #35, #195, #101, .T. ) ;
#99 = LINE ( 'NONE', #61, #15 ) ;
#100 = CARTESIAN_POINT ( 'NONE',  ( 36.00000000000000000, -16.00000000000000711, -40.00000000000000000 ) ) ;
#101 = LINE ( 'NONE', #185, #193 ) ;
#102 = FACE_OUTER_BOUND ( 'NONE', #171, .T. ) ;
#103 = DATE_AND_TIME ( #226, #131 ) ;
#104 = APPROVAL_DATE_TIME ( #103, #56 ) ;
#105 = MANIFOLD_SOLID_BREP ( 'Boss-Extrude1', #225 ) ;
#106 = CARTESIAN_POINT ( 'NONE',  ( 35.99999999999998579, 15.99999999999999289, 0.000000000000000000 ) ) ;
#107 = ADVANCED_FACE ( 'NONE', ( #102 ), #221, .F. ) ;
#108 = VECTOR ( 'NONE', #150, 1000.000000000000000 ) ;
#109 = CC_DESIGN_APPROVAL ( #70, ( #200 ) ) ;
#110 = ORIENTED_EDGE ( 'NONE', *, *, #134, .F. ) ;
#111 = APPROVAL_DATE_TIME ( #232, #125 ) ;
#112 = ORIENTED_EDGE ( 'NONE', *, *, #134, .T. ) ;
#113 = LOCAL_TIME ( 11, 1, 10.00000000000000000, #48 ) ;
#114 = ORIENTED_EDGE ( 'NONE', *, *, #175, .F. ) ;
#115 = PERSON_AND_ORGANIZATION ( #130, #233 ) ;
#116 = PLANE ( 'NONE',  #94 ) ;
#117 = ORIENTED_EDGE ( 'NONE', *, *, #52, .T. ) ;
#118 = DIRECTION ( 'NONE',  ( -0.000000000000000000, 0.000000000000000000, 1.000000000000000000 ) ) ;
#119 = DIRECTION ( 'NONE',  ( 1.000000000000000000, 0.000000000000000000, 0.000000000000000000 ) ) ;
#120 = PERSON_AND_ORGANIZATION ( #130, #233 ) ;
#121 = DIRECTION ( 'NONE',  ( -0.000000000000000000, 0.000000000000000000, 1.000000000000000000 ) ) ;
#122 = LINE ( 'NONE', #201, #34 ) ;
#123 = CARTESIAN_POINT ( 'NONE',  ( 0.000000000000000000, 0.000000000000000000, 0.000000000000000000 ) ) ;
#124 = DIRECTION ( 'NONE',  ( -1.000000000000000000, -0.000000000000000000, -0.000000000000000000 ) ) ;
#125 = APPROVAL ( #228, 'UNSPECIFIED' ) ;
#126 = DIRECTION ( 'NONE',  ( 1.000000000000000000, 0.000000000000000000, 0.000000000000000000 ) ) ;
#127 = CALENDAR_DATE ( 2026, 9, 9 ) ;
#128 = PERSON_AND_ORGANIZATION ( #130, #233 ) ;
#129 = DIRECTION ( 'NONE',  ( 0.000000000000000000, 0.000000000000000000, 1.000000000000000000 ) ) ;
#130 = PERSON ( 'UNSPECIFIED', 'UNSPECIFIED', 'UNSPECIFIED', ('UNSPECIFIED'), ('UNSPECIFIED'), ('UNSPECIFIED') ) ;
#131 = LOCAL_TIME ( 11, 1, 10.00000000000000000, #44 ) ;
#132 = VERTEX_POINT ( 'NONE', #30 ) ;
#133 = VERTEX_POINT ( 'NONE', #10 ) ;
#134 = EDGE_CURVE ( 'NONE', #35, #132, #24, .T. ) ;
#135 = VERTEX_POINT ( 'NONE', #100 ) ;
#136 = VECTOR ( 'NONE', #162, 1000.000000000000000 ) ;
#137 = PLANE ( 'NONE',  #68 ) ;
#138 = CC_DESIGN_DATE_AND_TIME_ASSIGNMENT ( #151, #144, ( #148 ) ) ;
#139 = AXIS2_PLACEMENT_3D ( 'NONE', #73, #223, #62 ) ;
#140 = CARTESIAN_POINT ( 'NONE',  ( -36.00000000000000711, -16.00000000000000711, 0.000000000000000000 ) ) ;
#141 = DIRECTION ( 'NONE',  ( 0.000000000000000000, 0.000000000000000000, 1.000000000000000000 ) ) ;
#142 = FACE_OUTER_BOUND ( 'NONE', #43, .T. ) ;
#143 = AXIS2_PLACEMENT_3D ( 'NONE', #25, #121, #188 ) ;
#144 = DATE_TIME_ROLE ( 'classification_date' ) ;
#145 = CARTESIAN_POINT ( 'NONE',  ( 0.000000000000000000, 0.000000000000000000, 0.000000000000000000 ) ) ;
#146 = DIRECTION ( 'NONE',  ( 0.000000000000000000, 0.000000000000000000, 1.000000000000000000 ) ) ;
#147 = PERSON_AND_ORGANIZATION_ROLE ( 'creator' ) ;
#148 = SECURITY_CLASSIFICATION ( '', '', #47 ) ;
#149 = CC_DESIGN_PERSON_AND_ORGANIZATION_ASSIGNMENT ( #7, #147, ( #153 ) ) ;
#150 = DIRECTION ( 'NONE',  ( -4.336808689942017736E-16, 1.000000000000000000, -0.000000000000000000 ) ) ;
#151 = DATE_AND_TIME ( #127, #113 ) ;
#152 = ORIENTED_EDGE ( 'NONE', *, *, #52, .F. ) ;
#153 = PRODUCT_DEFINITION_FORMATION_WITH_SPECIFIED_SOURCE ( 'ANY', '', #172, .NOT_KNOWN. ) ;
#154 = VERTEX_POINT ( 'NONE', #84 ) ;
#155 = CALENDAR_DATE ( 2026, 9, 9 ) ;
#156 = ADVANCED_FACE ( 'NONE', ( #83 ), #116, .T. ) ;
#157 = ORIENTED_EDGE ( 'NONE', *, *, #46, .T. ) ;
#158 = AXIS2_PLACEMENT_3D ( 'NONE', #123, #146, #126 ) ;
#159 = VECTOR ( 'NONE', #5, 1000.000000000000000 ) ;
#160 = DIRECTION ( 'NONE',  ( 1.000000000000000000, 0.000000000000000000, 0.000000000000000000 ) ) ;
#161 = CARTESIAN_POINT ( 'NONE',  ( 36.00000000000000000, -16.00000000000000711, -40.00000000000000000 ) ) ;
#162 = DIRECTION ( 'NONE',  ( 0.000000000000000000, 0.000000000000000000, 1.000000000000000000 ) ) ;
#163 = APPLICATION_CONTEXT ( 'configuration controlled 3d designs of mechanical parts and assemblies' ) ;
#164 = FACE_OUTER_BOUND ( 'NONE', #93, .T. ) ;
#165 = PERSON_AND_ORGANIZATION ( #130, #233 ) ;
#166 = PERSON_AND_ORGANIZATION ( #130, #233 ) ;
#167 = APPROVAL_STATUS ( 'not_yet_approved' ) ;
#168 = COORDINATED_UNIVERSAL_TIME_OFFSET ( 5, 30, .AHEAD. ) ;
#169 = EDGE_LOOP ( 'NONE', ( #33, #152, #91, #112 ) ) ;
#170 = VERTEX_POINT ( 'NONE', #213 ) ;
#171 = EDGE_LOOP ( 'NONE', ( #49, #210, #174, #234 ) ) ;
#172 = PRODUCT ( 'DummyBattery_Default_sldprt', 'DummyBattery_Default_sldprt', '', ( #76 ) ) ;
#173 = AXIS2_PLACEMENT_3D ( 'NONE', #145, #118, #59 ) ;
#174 = ORIENTED_EDGE ( 'NONE', *, *, #98, .F. ) ;
#175 = EDGE_CURVE ( 'NONE', #135, #77, #1, .T. ) ;
#176 = CARTESIAN_POINT ( 'NONE',  ( 35.99999999999998579, 15.99999999999999289, -40.00000000000000000 ) ) ;
#177 = DIRECTION ( 'NONE',  ( 0.000000000000000000, 1.000000000000000000, 0.000000000000000000 ) ) ;
#178 = COORDINATED_UNIVERSAL_TIME_OFFSET ( 5, 30, .AHEAD. ) ;
#179 = APPROVAL_DATE_TIME ( #197, #70 ) ;
#180 = CARTESIAN_POINT ( 'NONE',  ( -36.00000000000001421, 15.99999999999999289, -40.00000000000000000 ) ) ;
#181 = VECTOR ( 'NONE', #22, 1000.000000000000000 ) ;
#182 = LINE ( 'NONE', #71, #90 ) ;
#183 = CARTESIAN_POINT ( 'NONE',  ( -36.00000000000001421, 15.99999999999999289, -40.00000000000000000 ) ) ;
#184 = ADVANCED_FACE ( 'NONE', ( #95 ), #58, .T. ) ;
#185 = CARTESIAN_POINT ( 'NONE',  ( -36.00000000000001421, 15.99999999999999289, -40.00000000000000000 ) ) ;
#186 = VECTOR ( 'NONE', #119, 1000.000000000000000 ) ;
#187 =( NAMED_UNIT ( * ) PLANE_ANGLE_UNIT ( ) SI_UNIT ( $, .RADIAN. ) );
#188 = DIRECTION ( 'NONE',  ( 1.000000000000000000, 0.000000000000000000, 0.000000000000000000 ) ) ;
#189 = CC_DESIGN_PERSON_AND_ORGANIZATION_ASSIGNMENT ( #166, #227, ( #172 ) ) ;
#190 =( NAMED_UNIT ( * ) SI_UNIT ( $, .STERADIAN. ) SOLID_ANGLE_UNIT ( ) );
#191 = APPROVAL_ROLE ( '' ) ;
#192 = ADVANCED_BREP_SHAPE_REPRESENTATION ( 'DummyBattery_Default_sldprt', ( #105, #158 ), #8 ) ;
#193 = VECTOR ( 'NONE', #6, 1000.000000000000000 ) ;
#194 = ADVANCED_FACE ( 'NONE', ( #69 ), #137, .T. ) ;
#195 = VERTEX_POINT ( 'NONE', #206 ) ;
#196 = EDGE_CURVE ( 'NONE', #133, #132, #27, .T. ) ;
#197 = DATE_AND_TIME ( #54, #82 ) ;
#198 = VECTOR ( 'NONE', #129, 1000.000000000000000 ) ;
#199 = PLANE ( 'NONE',  #173 ) ;
#200 = PRODUCT_DEFINITION ( 'UNKNOWN', '', #153, #222 ) ;
#201 = CARTESIAN_POINT ( 'NONE',  ( 35.99999999999998579, 15.99999999999999289, -40.00000000000000000 ) ) ;
#202 = APPROVAL_STATUS ( 'not_yet_approved' ) ;
#203 =( LENGTH_UNIT ( ) NAMED_UNIT ( * ) SI_UNIT ( .MILLI., .METRE. ) );
#204 = CARTESIAN_POINT ( 'NONE',  ( -36.00000000000001421, 15.99999999999999289, 0.000000000000000000 ) ) ;
#205 = PERSON_AND_ORGANIZATION_ROLE ( 'design_supplier' ) ;
#206 = CARTESIAN_POINT ( 'NONE',  ( -36.00000000000000711, -16.00000000000000711, -40.00000000000000000 ) ) ;
#207 = PRODUCT_DEFINITION_SHAPE ( 'NONE', 'NONE',  #200 ) ;
#208 = ORIENTED_EDGE ( 'NONE', *, *, #196, .T. ) ;
#209 = ORIENTED_EDGE ( 'NONE', *, *, #98, .T. ) ;
#210 = ORIENTED_EDGE ( 'NONE', *, *, #17, .F. ) ;
#211 = DIRECTION ( 'NONE',  ( -4.336808689942017736E-16, 1.000000000000000000, 0.000000000000000000 ) ) ;
#212 = DATE_TIME_ROLE ( 'creation_date' ) ;
#213 = CARTESIAN_POINT ( 'NONE',  ( -36.00000000000000711, -16.00000000000000711, 0.000000000000000000 ) ) ;
#214 = APPLICATION_PROTOCOL_DEFINITION ( 'international standard', 'config_control_design', 1994, #163 ) ;
#215 = DATE_AND_TIME ( #57, #38 ) ;
#216 = APPROVAL_PERSON_ORGANIZATION ( #120, #125, #191 ) ;
#217 = CARTESIAN_POINT ( 'NONE',  ( 35.99999999999998579, 15.99999999999999289, -40.00000000000000000 ) ) ;
#218 = CC_DESIGN_APPROVAL ( #56, ( #148 ) ) ;
#219 = CARTESIAN_POINT ( 'NONE',  ( 36.00000000000000000, -16.00000000000000711, 0.000000000000000000 ) ) ;
#220 = PERSON_AND_ORGANIZATION ( #130, #233 ) ;
#221 = PLANE ( 'NONE',  #143 ) ;
#222 = DESIGN_CONTEXT ( 'detailed design', #163, 'design' ) ;
#223 = DIRECTION ( 'NONE',  ( -1.000000000000000000, -2.168404344971008868E-16, 0.000000000000000000 ) ) ;
#224 = LINE ( 'NONE', #106, #108 ) ;
#225 = CLOSED_SHELL ( 'NONE', ( #184, #156, #29, #194, #107, #67 ) ) ;
#226 = CALENDAR_DATE ( 2026, 9, 9 ) ;
#227 = PERSON_AND_ORGANIZATION_ROLE ( 'design_owner' ) ;
#228 = APPROVAL_STATUS ( 'not_yet_approved' ) ;
#229 = APPROVAL_ROLE ( '' ) ;
#230 = CC_DESIGN_PERSON_AND_ORGANIZATION_ASSIGNMENT ( #115, #19, ( #200 ) ) ;
#231 = ORIENTED_EDGE ( 'NONE', *, *, #17, .T. ) ;
#232 = DATE_AND_TIME ( #155, #55 ) ;
#233 = ORGANIZATION ( 'UNSPECIFIED', 'UNSPECIFIED', '' ) ;
#234 = ORIENTED_EDGE ( 'NONE', *, *, #23, .F. ) ;
#235 = ORIENTED_EDGE ( 'NONE', *, *, #4, .F. ) ;
#236 = DIRECTION ( 'NONE',  ( 1.000000000000000000, 4.336808689942017736E-16, -0.000000000000000000 ) ) ;
#237 = EDGE_CURVE ( 'NONE', #195, #170, #45, .T. ) ;
ENDSEC;
END-ISO-10303-21;
