ISO-10303-21;
HEADER;
FILE_DESCRIPTION (( 'STEP AP203' ),
    '1' );
FILE_NAME ('DummyBuckConverter_Default_sldprt.STEP',
    '2026-08-24T05:13:20',
    ( '' ),
    ( '' ),
    'SwSTEP 2.0',
    'SolidWorks 2020',
    '' );
FILE_SCHEMA (( 'CONFIG_CONTROL_DESIGN' ));
ENDSEC;

DATA;
#1 = VECTOR ( 'NONE', #118, 1000.000000000000000 ) ;
#2 = PLANE ( 'NONE',  #23 ) ;
#3 = PLANE ( 'NONE',  #27 ) ;
#4 = ADVANCED_FACE ( 'NONE', ( #196 ), #86, .T. ) ;
#5 =( LENGTH_UNIT ( ) NAMED_UNIT ( * ) SI_UNIT ( .MILLI., .METRE. ) );
#6 = LOCAL_TIME ( 10, 43, 20.00000000000000000, #147 ) ;
#7 = LINE ( 'NONE', #98, #165 ) ;
#8 = ADVANCED_FACE ( 'NONE', ( #142 ), #191, .T. ) ;
#9 = ORIENTED_EDGE ( 'NONE', *, *, #181, .F. ) ;
#10 = ORIENTED_EDGE ( 'NONE', *, *, #108, .F. ) ;
#11 = CARTESIAN_POINT ( 'NONE',  ( -29.99999999999999645, -16.00000000000000000, 0.000000000000000000 ) ) ;
#12 = PRODUCT_DEFINITION_SHAPE ( 'NONE', 'NONE',  #117 ) ;
#13 = LINE ( 'NONE', #11, #44 ) ;
#14 = COORDINATED_UNIVERSAL_TIME_OFFSET ( 5, 30, .AHEAD. ) ;
#15 = CARTESIAN_POINT ( 'NONE',  ( 30.00000000000000711, -16.00000000000000000, 0.000000000000000000 ) ) ;
#16 = VECTOR ( 'NONE', #151, 1000.000000000000000 ) ;
#17 = EDGE_CURVE ( 'NONE', #19, #46, #13, .T. ) ;
#18 = LOCAL_TIME ( 10, 43, 20.00000000000000000, #72 ) ;
#19 = VERTEX_POINT ( 'NONE', #107 ) ;
#20 = PRODUCT_RELATED_PRODUCT_CATEGORY ( 'detail', '', ( #228 ) ) ;
#21 = PERSON_AND_ORGANIZATION ( #65, #53 ) ;
#22 = EDGE_CURVE ( 'NONE', #30, #46, #229, .T. ) ;
#23 = AXIS2_PLACEMENT_3D ( 'NONE', #138, #167, #186 ) ;
#24 = DIRECTION ( 'NONE',  ( -2.168404344971008868E-16, 1.000000000000000000, -0.000000000000000000 ) ) ;
#25 = CARTESIAN_POINT ( 'NONE',  ( 30.00000000000000000, 16.00000000000000000, -40.00000000000000000 ) ) ;
#26 = PLANE ( 'NONE',  #95 ) ;
#27 = AXIS2_PLACEMENT_3D ( 'NONE', #208, #40, #55 ) ;
#28 = ORIENTED_EDGE ( 'NONE', *, *, #43, .F. ) ;
#29 = CARTESIAN_POINT ( 'NONE',  ( -30.00000000000000000, 16.00000000000000000, -40.00000000000000000 ) ) ;
#30 = VERTEX_POINT ( 'NONE', #87 ) ;
#31 = APPROVAL_STATUS ( 'not_yet_approved' ) ;
#32 = ORIENTED_EDGE ( 'NONE', *, *, #22, .T. ) ;
#33 = DATE_AND_TIME ( #232, #18 ) ;
#34 = ORIENTED_EDGE ( 'NONE', *, *, #22, .F. ) ;
#35 = VECTOR ( 'NONE', #49, 1000.000000000000000 ) ;
#36 = CALENDAR_DATE ( 2026, 24, 8 ) ;
#37 = EDGE_CURVE ( 'NONE', #214, #30, #158, .T. ) ;
#38 = DATE_TIME_ROLE ( 'classification_date' ) ;
#39 = ADVANCED_BREP_SHAPE_REPRESENTATION ( 'DummyBuckConverter_Default_sldprt', ( #75, #112 ), #155 ) ;
#40 = DIRECTION ( 'NONE',  ( -1.000000000000000000, -1.084202172485504434E-16, 0.000000000000000000 ) ) ;
#41 = EDGE_CURVE ( 'NONE', #82, #214, #162, .T. ) ;
#42 = DIRECTION ( 'NONE',  ( -2.168404344971008868E-16, 1.000000000000000000, -0.000000000000000000 ) ) ;
#43 = EDGE_CURVE ( 'NONE', #82, #120, #127, .T. ) ;
#44 = VECTOR ( 'NONE', #156, 1000.000000000000000 ) ;
#45 = UNCERTAINTY_MEASURE_WITH_UNIT (LENGTH_MEASURE( 1.000000000000000082E-05 ), #5, 'distance_accuracy_value', 'NONE');
#46 = VERTEX_POINT ( 'NONE', #15 ) ;
#47 = ORIENTED_EDGE ( 'NONE', *, *, #113, .F. ) ;
#48 = CALENDAR_DATE ( 2026, 24, 8 ) ;
#49 = DIRECTION ( 'NONE',  ( 1.084202172485504434E-16, -1.000000000000000000, 0.000000000000000000 ) ) ;
#50 = APPLICATION_PROTOCOL_DEFINITION ( 'international standard', 'config_control_design', 1994, #200 ) ;
#51 = ORIENTED_EDGE ( 'NONE', *, *, #148, .F. ) ;
#52 = DATE_AND_TIME ( #88, #119 ) ;
#53 = ORGANIZATION ( 'UNSPECIFIED', 'UNSPECIFIED', '' ) ;
#54 = VECTOR ( 'NONE', #223, 1000.000000000000000 ) ;
#55 = DIRECTION ( 'NONE',  ( 1.084202172485504434E-16, -1.000000000000000000, 0.000000000000000000 ) ) ;
#56 = ADVANCED_FACE ( 'NONE', ( #216 ), #154, .T. ) ;
#57 = DIRECTION ( 'NONE',  ( 1.000000000000000000, 0.000000000000000000, 0.000000000000000000 ) ) ;
#58 =( NAMED_UNIT ( * ) SI_UNIT ( $, .STERADIAN. ) SOLID_ANGLE_UNIT ( ) );
#59 = LINE ( 'NONE', #152, #140 ) ;
#60 = VECTOR ( 'NONE', #224, 1000.000000000000000 ) ;
#61 = ORIENTED_EDGE ( 'NONE', *, *, #41, .F. ) ;
#62 = CARTESIAN_POINT ( 'NONE',  ( 30.00000000000000711, -16.00000000000000000, -40.00000000000000000 ) ) ;
#63 = ORIENTED_EDGE ( 'NONE', *, *, #148, .T. ) ;
#64 = CARTESIAN_POINT ( 'NONE',  ( -29.99999999999999645, -16.00000000000000000, -40.00000000000000000 ) ) ;
#65 = PERSON ( 'UNSPECIFIED', 'UNSPECIFIED', 'UNSPECIFIED', ('UNSPECIFIED'), ('UNSPECIFIED'), ('UNSPECIFIED') ) ;
#66 = DATE_AND_TIME ( #230, #6 ) ;
#67 = DIRECTION ( 'NONE',  ( 1.000000000000000000, 0.000000000000000000, 0.000000000000000000 ) ) ;
#68 = LOCAL_TIME ( 10, 43, 20.00000000000000000, #128 ) ;
#69 = MECHANICAL_CONTEXT ( 'NONE', #182, 'mechanical' ) ;
#70 = DIRECTION ( 'NONE',  ( 0.000000000000000000, 0.000000000000000000, 1.000000000000000000 ) ) ;
#71 = APPROVAL ( #31, 'UNSPECIFIED' ) ;
#72 = COORDINATED_UNIVERSAL_TIME_OFFSET ( 5, 30, .AHEAD. ) ;
#73 = PERSON_AND_ORGANIZATION ( #65, #53 ) ;
#74 = PERSON_AND_ORGANIZATION ( #65, #53 ) ;
#75 = MANIFOLD_SOLID_BREP ( 'Boss-Extrude1', #161 ) ;
#76 = CC_DESIGN_SECURITY_CLASSIFICATION ( #220, ( #132 ) ) ;
#77 = VECTOR ( 'NONE', #70, 1000.000000000000000 ) ;
#78 = CC_DESIGN_PERSON_AND_ORGANIZATION_ASSIGNMENT ( #91, #236, ( #132 ) ) ;
#79 = FACE_OUTER_BOUND ( 'NONE', #106, .T. ) ;
#80 = DIRECTION ( 'NONE',  ( -1.000000000000000000, -0.000000000000000000, -0.000000000000000000 ) ) ;
#81 = CARTESIAN_POINT ( 'NONE',  ( 30.00000000000000000, 16.00000000000000000, 0.000000000000000000 ) ) ;
#82 = VERTEX_POINT ( 'NONE', #29 ) ;
#83 = DIRECTION ( 'NONE',  ( 0.000000000000000000, 0.000000000000000000, 1.000000000000000000 ) ) ;
#84 = ORIENTED_EDGE ( 'NONE', *, *, #102, .T. ) ;
#85 = CC_DESIGN_PERSON_AND_ORGANIZATION_ASSIGNMENT ( #21, #174, ( #220 ) ) ;
#86 = PLANE ( 'NONE',  #169 ) ;
#87 = CARTESIAN_POINT ( 'NONE',  ( 30.00000000000000711, -16.00000000000000000, -40.00000000000000000 ) ) ;
#88 = CALENDAR_DATE ( 2026, 24, 8 ) ;
#89 = DIRECTION ( 'NONE',  ( 0.000000000000000000, -0.000000000000000000, 1.000000000000000000 ) ) ;
#90 = APPROVAL_PERSON_ORGANIZATION ( #110, #219, #217 ) ;
#91 = PERSON_AND_ORGANIZATION ( #65, #53 ) ;
#92 = VERTEX_POINT ( 'NONE', #81 ) ;
#93 = SECURITY_CLASSIFICATION_LEVEL ( 'unclassified' ) ;
#94 = CARTESIAN_POINT ( 'NONE',  ( 0.000000000000000000, 0.000000000000000000, 0.000000000000000000 ) ) ;
#95 = AXIS2_PLACEMENT_3D ( 'NONE', #99, #168, #57 ) ;
#96 = VECTOR ( 'NONE', #83, 1000.000000000000000 ) ;
#97 =( NAMED_UNIT ( * ) PLANE_ANGLE_UNIT ( ) SI_UNIT ( $, .RADIAN. ) );
#98 = CARTESIAN_POINT ( 'NONE',  ( 30.00000000000000000, 16.00000000000000000, -40.00000000000000000 ) ) ;
#99 = CARTESIAN_POINT ( 'NONE',  ( 0.000000000000000000, 0.000000000000000000, -40.00000000000000000 ) ) ;
#100 = CARTESIAN_POINT ( 'NONE',  ( 30.00000000000000000, 16.00000000000000000, -40.00000000000000000 ) ) ;
#101 = CC_DESIGN_PERSON_AND_ORGANIZATION_ASSIGNMENT ( #215, #126, ( #228 ) ) ;
#102 = EDGE_CURVE ( 'NONE', #30, #170, #7, .T. ) ;
#103 = EDGE_LOOP ( 'NONE', ( #47, #28, #124, #211 ) ) ;
#104 = ORIENTED_EDGE ( 'NONE', *, *, #139, .T. ) ;
#105 = APPROVAL_ROLE ( '' ) ;
#106 = EDGE_LOOP ( 'NONE', ( #210, #172, #61, #234 ) ) ;
#107 = CARTESIAN_POINT ( 'NONE',  ( -29.99999999999999645, -16.00000000000000000, 0.000000000000000000 ) ) ;
#108 = EDGE_CURVE ( 'NONE', #214, #19, #221, .T. ) ;
#109 = APPROVAL_DATE_TIME ( #33, #219 ) ;
#110 = PERSON_AND_ORGANIZATION ( #65, #53 ) ;
#111 = DESIGN_CONTEXT ( 'detailed design', #200, 'design' ) ;
#112 = AXIS2_PLACEMENT_3D ( 'NONE', #94, #146, #159 ) ;
#113 = EDGE_CURVE ( 'NONE', #120, #19, #134, .T. ) ;
#114 = AXIS2_PLACEMENT_3D ( 'NONE', #141, #226, #89 ) ;
#115 = LINE ( 'NONE', #25, #16 ) ;
#116 = LINE ( 'NONE', #137, #54 ) ;
#117 = PRODUCT_DEFINITION ( 'UNKNOWN', '', #132, #111 ) ;
#118 = DIRECTION ( 'NONE',  ( 1.084202172485504434E-16, -1.000000000000000000, 0.000000000000000000 ) ) ;
#119 = LOCAL_TIME ( 10, 43, 20.00000000000000000, #14 ) ;
#120 = VERTEX_POINT ( 'NONE', #204 ) ;
#121 = ADVANCED_FACE ( 'NONE', ( #150 ), #3, .T. ) ;
#122 = ORIENTED_EDGE ( 'NONE', *, *, #43, .T. ) ;
#123 = ORIENTED_EDGE ( 'NONE', *, *, #201, .T. ) ;
#124 = ORIENTED_EDGE ( 'NONE', *, *, #41, .T. ) ;
#125 = CARTESIAN_POINT ( 'NONE',  ( 30.00000000000000000, 16.00000000000000000, -40.00000000000000000 ) ) ;
#126 = PERSON_AND_ORGANIZATION_ROLE ( 'design_owner' ) ;
#127 = LINE ( 'NONE', #171, #96 ) ;
#128 = COORDINATED_UNIVERSAL_TIME_OFFSET ( 5, 30, .AHEAD. ) ;
#129 = DIRECTION ( 'NONE',  ( 0.000000000000000000, -1.000000000000000000, 0.000000000000000000 ) ) ;
#130 = APPROVAL_DATE_TIME ( #66, #131 ) ;
#131 = APPROVAL ( #149, 'UNSPECIFIED' ) ;
#132 = PRODUCT_DEFINITION_FORMATION_WITH_SPECIFIED_SOURCE ( 'ANY', '', #228, .NOT_KNOWN. ) ;
#133 = LINE ( 'NONE', #185, #197 ) ;
#134 = LINE ( 'NONE', #184, #1 ) ;
#135 = ADVANCED_FACE ( 'NONE', ( #222 ), #2, .T. ) ;
#136 = CARTESIAN_POINT ( 'NONE',  ( -29.99999999999999645, -16.00000000000000000, -40.00000000000000000 ) ) ;
#137 = CARTESIAN_POINT ( 'NONE',  ( -30.00000000000000000, 16.00000000000000000, 0.000000000000000000 ) ) ;
#138 = CARTESIAN_POINT ( 'NONE',  ( 0.000000000000000000, 0.000000000000000000, 0.000000000000000000 ) ) ;
#139 = EDGE_CURVE ( 'NONE', #170, #92, #115, .T. ) ;
#140 = VECTOR ( 'NONE', #80, 1000.000000000000000 ) ;
#141 = CARTESIAN_POINT ( 'NONE',  ( -30.00000000000000000, 16.00000000000000000, -40.00000000000000000 ) ) ;
#142 = FACE_OUTER_BOUND ( 'NONE', #190, .T. ) ;
#143 = PERSON_AND_ORGANIZATION ( #65, #53 ) ;
#144 = CARTESIAN_POINT ( 'NONE',  ( -30.00000000000000000, 16.00000000000000000, -40.00000000000000000 ) ) ;
#145 = DIRECTION ( 'NONE',  ( 0.000000000000000000, -0.000000000000000000, -1.000000000000000000 ) ) ;
#146 = DIRECTION ( 'NONE',  ( 0.000000000000000000, 0.000000000000000000, 1.000000000000000000 ) ) ;
#147 = COORDINATED_UNIVERSAL_TIME_OFFSET ( 5, 30, .AHEAD. ) ;
#148 = EDGE_CURVE ( 'NONE', #46, #92, #133, .T. ) ;
#149 = APPROVAL_STATUS ( 'not_yet_approved' ) ;
#150 = FACE_OUTER_BOUND ( 'NONE', #103, .T. ) ;
#151 = DIRECTION ( 'NONE',  ( 0.000000000000000000, 0.000000000000000000, 1.000000000000000000 ) ) ;
#152 = CARTESIAN_POINT ( 'NONE',  ( -30.00000000000000000, 16.00000000000000000, -40.00000000000000000 ) ) ;
#153 = EDGE_LOOP ( 'NONE', ( #63, #175, #178, #225 ) ) ;
#154 = PLANE ( 'NONE',  #114 ) ;
#155 =( GEOMETRIC_REPRESENTATION_CONTEXT ( 3 ) GLOBAL_UNCERTAINTY_ASSIGNED_CONTEXT ( ( #45 ) ) GLOBAL_UNIT_ASSIGNED_CONTEXT ( ( #5, #97, #58 ) ) REPRESENTATION_CONTEXT ( 'NONE', 'WORKASPACE' ) );
#156 = DIRECTION ( 'NONE',  ( 1.000000000000000000, 0.000000000000000000, 0.000000000000000000 ) ) ;
#157 = APPLICATION_PROTOCOL_DEFINITION ( 'international standard', 'config_control_design', 1994, #182 ) ;
#158 = LINE ( 'NONE', #231, #183 ) ;
#159 = DIRECTION ( 'NONE',  ( 1.000000000000000000, 0.000000000000000000, 0.000000000000000000 ) ) ;
#160 = DIRECTION ( 'NONE',  ( 1.000000000000000000, 2.168404344971008868E-16, -0.000000000000000000 ) ) ;
#161 = CLOSED_SHELL ( 'NONE', ( #8, #4, #121, #56, #206, #135 ) ) ;
#162 = LINE ( 'NONE', #144, #35 ) ;
#163 = CC_DESIGN_DATE_AND_TIME_ASSIGNMENT ( #212, #193, ( #117 ) ) ;
#164 = COORDINATED_UNIVERSAL_TIME_OFFSET ( 5, 30, .AHEAD. ) ;
#165 = VECTOR ( 'NONE', #42, 1000.000000000000000 ) ;
#166 = CC_DESIGN_PERSON_AND_ORGANIZATION_ASSIGNMENT ( #74, #235, ( #132 ) ) ;
#167 = DIRECTION ( 'NONE',  ( -0.000000000000000000, 0.000000000000000000, 1.000000000000000000 ) ) ;
#168 = DIRECTION ( 'NONE',  ( -0.000000000000000000, 0.000000000000000000, 1.000000000000000000 ) ) ;
#169 = AXIS2_PLACEMENT_3D ( 'NONE', #64, #129, #145 ) ;
#170 = VERTEX_POINT ( 'NONE', #100 ) ;
#171 = CARTESIAN_POINT ( 'NONE',  ( -30.00000000000000000, 16.00000000000000000, -40.00000000000000000 ) ) ;
#172 = ORIENTED_EDGE ( 'NONE', *, *, #37, .F. ) ;
#173 = DIRECTION ( 'NONE',  ( -2.168404344971008868E-16, 1.000000000000000000, 0.000000000000000000 ) ) ;
#174 = PERSON_AND_ORGANIZATION_ROLE ( 'classification_officer' ) ;
#175 = ORIENTED_EDGE ( 'NONE', *, *, #181, .T. ) ;
#176 = CC_DESIGN_APPROVAL ( #219, ( #220 ) ) ;
#177 = PERSON_AND_ORGANIZATION ( #65, #53 ) ;
#178 = ORIENTED_EDGE ( 'NONE', *, *, #113, .T. ) ;
#179 = SHAPE_DEFINITION_REPRESENTATION ( #12, #39 ) ;
#180 = APPROVAL_STATUS ( 'not_yet_approved' ) ;
#181 = EDGE_CURVE ( 'NONE', #92, #120, #116, .T. ) ;
#182 = APPLICATION_CONTEXT ( 'configuration controlled 3d designs of mechanical parts and assemblies' ) ;
#183 = VECTOR ( 'NONE', #67, 1000.000000000000000 ) ;
#184 = CARTESIAN_POINT ( 'NONE',  ( -30.00000000000000000, 16.00000000000000000, 0.000000000000000000 ) ) ;
#185 = CARTESIAN_POINT ( 'NONE',  ( 30.00000000000000000, 16.00000000000000000, 0.000000000000000000 ) ) ;
#186 = DIRECTION ( 'NONE',  ( 1.000000000000000000, 0.000000000000000000, 0.000000000000000000 ) ) ;
#187 = CC_DESIGN_APPROVAL ( #131, ( #117 ) ) ;
#188 = AXIS2_PLACEMENT_3D ( 'NONE', #125, #160, #173 ) ;
#189 = ORIENTED_EDGE ( 'NONE', *, *, #17, .F. ) ;
#190 = EDGE_LOOP ( 'NONE', ( #51, #34, #84, #104 ) ) ;
#191 = PLANE ( 'NONE',  #188 ) ;
#192 = EDGE_LOOP ( 'NONE', ( #189, #10, #209, #32 ) ) ;
#193 = DATE_TIME_ROLE ( 'creation_date' ) ;
#194 = EDGE_LOOP ( 'NONE', ( #9, #227, #123, #122 ) ) ;
#195 = DATE_AND_TIME ( #36, #233 ) ;
#196 = FACE_OUTER_BOUND ( 'NONE', #192, .T. ) ;
#197 = VECTOR ( 'NONE', #24, 1000.000000000000000 ) ;
#198 = PERSON_AND_ORGANIZATION_ROLE ( 'creator' ) ;
#199 = APPROVAL_DATE_TIME ( #195, #71 ) ;
#200 = APPLICATION_CONTEXT ( 'configuration controlled 3d designs of mechanical parts and assemblies' ) ;
#201 = EDGE_CURVE ( 'NONE', #170, #82, #59, .T. ) ;
#202 = APPROVAL_PERSON_ORGANIZATION ( #177, #71, #105 ) ;
#203 = CC_DESIGN_DATE_AND_TIME_ASSIGNMENT ( #52, #38, ( #220 ) ) ;
#204 = CARTESIAN_POINT ( 'NONE',  ( -30.00000000000000000, 16.00000000000000000, 0.000000000000000000 ) ) ;
#205 = CARTESIAN_POINT ( 'NONE',  ( -29.99999999999999645, -16.00000000000000000, -40.00000000000000000 ) ) ;
#206 = ADVANCED_FACE ( 'NONE', ( #79 ), #26, .F. ) ;
#207 = CC_DESIGN_APPROVAL ( #71, ( #132 ) ) ;
#208 = CARTESIAN_POINT ( 'NONE',  ( -30.00000000000000000, 16.00000000000000000, -40.00000000000000000 ) ) ;
#209 = ORIENTED_EDGE ( 'NONE', *, *, #37, .T. ) ;
#210 = ORIENTED_EDGE ( 'NONE', *, *, #102, .F. ) ;
#211 = ORIENTED_EDGE ( 'NONE', *, *, #108, .T. ) ;
#212 = DATE_AND_TIME ( #48, #68 ) ;
#213 = APPROVAL_PERSON_ORGANIZATION ( #73, #131, #218 ) ;
#214 = VERTEX_POINT ( 'NONE', #205 ) ;
#215 = PERSON_AND_ORGANIZATION ( #65, #53 ) ;
#216 = FACE_OUTER_BOUND ( 'NONE', #194, .T. ) ;
#217 = APPROVAL_ROLE ( '' ) ;
#218 = APPROVAL_ROLE ( '' ) ;
#219 = APPROVAL ( #180, 'UNSPECIFIED' ) ;
#220 = SECURITY_CLASSIFICATION ( '', '', #93 ) ;
#221 = LINE ( 'NONE', #136, #60 ) ;
#222 = FACE_OUTER_BOUND ( 'NONE', #153, .T. ) ;
#223 = DIRECTION ( 'NONE',  ( -1.000000000000000000, -0.000000000000000000, -0.000000000000000000 ) ) ;
#224 = DIRECTION ( 'NONE',  ( 0.000000000000000000, 0.000000000000000000, 1.000000000000000000 ) ) ;
#225 = ORIENTED_EDGE ( 'NONE', *, *, #17, .T. ) ;
#226 = DIRECTION ( 'NONE',  ( 0.000000000000000000, 1.000000000000000000, 0.000000000000000000 ) ) ;
#227 = ORIENTED_EDGE ( 'NONE', *, *, #139, .F. ) ;
#228 = PRODUCT ( 'DummyBuckConverter_Default_sldprt', 'DummyBuckConverter_Default_sldprt', '', ( #69 ) ) ;
#229 = LINE ( 'NONE', #62, #77 ) ;
#230 = CALENDAR_DATE ( 2026, 24, 8 ) ;
#231 = CARTESIAN_POINT ( 'NONE',  ( -29.99999999999999645, -16.00000000000000000, -40.00000000000000000 ) ) ;
#232 = CALENDAR_DATE ( 2026, 24, 8 ) ;
#233 = LOCAL_TIME ( 10, 43, 20.00000000000000000, #164 ) ;
#234 = ORIENTED_EDGE ( 'NONE', *, *, #201, .F. ) ;
#235 = PERSON_AND_ORGANIZATION_ROLE ( 'design_supplier' ) ;
#236 = PERSON_AND_ORGANIZATION_ROLE ( 'creator' ) ;
#237 = CC_DESIGN_PERSON_AND_ORGANIZATION_ASSIGNMENT ( #143, #198, ( #117 ) ) ;
ENDSEC;
END-ISO-10303-21;
