ISO-10303-21;
HEADER;
FILE_DESCRIPTION (( 'STEP AP203' ),
    '1' );
FILE_NAME ('DummyBattery_Default_sldprt.STEP',
    '2026-08-24T05:13:18',
    ( '' ),
    ( '' ),
    'SwSTEP 2.0',
    'SolidWorks 2020',
    '' );
FILE_SCHEMA (( 'CONFIG_CONTROL_DESIGN' ));
ENDSEC;

DATA;
#1 = CARTESIAN_POINT ( 'NONE',  ( 35.99999999999998579, 15.99999999999999289, -40.00000000000000000 ) ) ;
#2 = VECTOR ( 'NONE', #125, 1000.000000000000000 ) ;
#3 = VECTOR ( 'NONE', #126, 1000.000000000000000 ) ;
#4 = PLANE ( 'NONE',  #224 ) ;
#5 = CC_DESIGN_PERSON_AND_ORGANIZATION_ASSIGNMENT ( #200, #41, ( #28 ) ) ;
#6 = CC_DESIGN_DATE_AND_TIME_ASSIGNMENT ( #66, #206, ( #61 ) ) ;
#7 = ADVANCED_FACE ( 'NONE', ( #30 ), #34, .F. ) ;
#8 = ADVANCED_FACE ( 'NONE', ( #88 ), #191, .T. ) ;
#9 = APPROVAL_STATUS ( 'not_yet_approved' ) ;
#10 = ORIENTED_EDGE ( 'NONE', *, *, #219, .F. ) ;
#11 = LOCAL_TIME ( 10, 43, 18.00000000000000000, #148 ) ;
#12 = PERSON_AND_ORGANIZATION_ROLE ( 'classification_officer' ) ;
#13 = EDGE_LOOP ( 'NONE', ( #118, #157, #155, #211 ) ) ;
#14 = ORIENTED_EDGE ( 'NONE', *, *, #26, .T. ) ;
#15 = CARTESIAN_POINT ( 'NONE',  ( -36.00000000000001421, 15.99999999999999289, -40.00000000000000000 ) ) ;
#16 = ORIENTED_EDGE ( 'NONE', *, *, #92, .T. ) ;
#17 = LINE ( 'NONE', #168, #179 ) ;
#18 = CARTESIAN_POINT ( 'NONE',  ( 35.99999999999998579, 15.99999999999999289, -40.00000000000000000 ) ) ;
#19 = APPLICATION_CONTEXT ( 'configuration controlled 3d designs of mechanical parts and assemblies' ) ;
#20 = APPLICATION_PROTOCOL_DEFINITION ( 'international standard', 'config_control_design', 1994, #19 ) ;
#21 = EDGE_LOOP ( 'NONE', ( #232, #85, #136, #31 ) ) ;
#22 =( NAMED_UNIT ( * ) PLANE_ANGLE_UNIT ( ) SI_UNIT ( $, .RADIAN. ) );
#23 = MECHANICAL_CONTEXT ( 'NONE', #19, 'mechanical' ) ;
#24 = CC_DESIGN_APPROVAL ( #42, ( #229 ) ) ;
#25 = CC_DESIGN_APPROVAL ( #145, ( #110 ) ) ;
#26 = EDGE_CURVE ( 'NONE', #72, #70, #17, .T. ) ;
#27 = PERSON_AND_ORGANIZATION_ROLE ( 'design_supplier' ) ;
#28 = PRODUCT ( 'DummyBattery_Default_sldprt', 'DummyBattery_Default_sldprt', '', ( #23 ) ) ;
#29 = CALENDAR_DATE ( 2026, 24, 8 ) ;
#30 = FACE_OUTER_BOUND ( 'NONE', #13, .T. ) ;
#31 = ORIENTED_EDGE ( 'NONE', *, *, #219, .T. ) ;
#32 = AXIS2_PLACEMENT_3D ( 'NONE', #91, #163, #162 ) ;
#33 = ORIENTED_EDGE ( 'NONE', *, *, #166, .T. ) ;
#34 = PLANE ( 'NONE',  #187 ) ;
#35 = ORIENTED_EDGE ( 'NONE', *, *, #47, .F. ) ;
#36 = ADVANCED_BREP_SHAPE_REPRESENTATION ( 'DummyBattery_Default_sldprt', ( #195, #44 ), #63 ) ;
#37 = LINE ( 'NONE', #132, #223 ) ;
#38 = LINE ( 'NONE', #39, #119 ) ;
#39 = CARTESIAN_POINT ( 'NONE',  ( -36.00000000000001421, 15.99999999999999289, -40.00000000000000000 ) ) ;
#40 = ORGANIZATION ( 'UNSPECIFIED', 'UNSPECIFIED', '' ) ;
#41 = PERSON_AND_ORGANIZATION_ROLE ( 'design_owner' ) ;
#42 = APPROVAL ( #9, 'UNSPECIFIED' ) ;
#43 = CARTESIAN_POINT ( 'NONE',  ( -36.00000000000000711, -16.00000000000000711, 0.000000000000000000 ) ) ;
#44 = AXIS2_PLACEMENT_3D ( 'NONE', #237, #77, #202 ) ;
#45 = PERSON_AND_ORGANIZATION ( #169, #40 ) ;
#46 = CALENDAR_DATE ( 2026, 24, 8 ) ;
#47 = EDGE_CURVE ( 'NONE', #213, #233, #37, .T. ) ;
#48 = DIRECTION ( 'NONE',  ( 2.168404344971008868E-16, -1.000000000000000000, 0.000000000000000000 ) ) ;
#49 = APPROVAL_DATE_TIME ( #209, #204 ) ;
#50 = DIRECTION ( 'NONE',  ( 0.000000000000000000, 0.000000000000000000, 1.000000000000000000 ) ) ;
#51 = EDGE_CURVE ( 'NONE', #173, #176, #135, .T. ) ;
#52 = VERTEX_POINT ( 'NONE', #153 ) ;
#53 = LINE ( 'NONE', #120, #218 ) ;
#54 = VECTOR ( 'NONE', #175, 1000.000000000000000 ) ;
#55 = ORIENTED_EDGE ( 'NONE', *, *, #201, .T. ) ;
#56 = LINE ( 'NONE', #139, #54 ) ;
#57 = EDGE_CURVE ( 'NONE', #70, #233, #177, .T. ) ;
#58 = FACE_OUTER_BOUND ( 'NONE', #192, .T. ) ;
#59 = DIRECTION ( 'NONE',  ( 1.000000000000000000, 0.000000000000000000, 0.000000000000000000 ) ) ;
#60 = CARTESIAN_POINT ( 'NONE',  ( -36.00000000000000711, -16.00000000000000711, -40.00000000000000000 ) ) ;
#61 = SECURITY_CLASSIFICATION ( '', '', #93 ) ;
#62 =( NAMED_UNIT ( * ) SI_UNIT ( $, .STERADIAN. ) SOLID_ANGLE_UNIT ( ) );
#63 =( GEOMETRIC_REPRESENTATION_CONTEXT ( 3 ) GLOBAL_UNCERTAINTY_ASSIGNED_CONTEXT ( ( #127 ) ) GLOBAL_UNIT_ASSIGNED_CONTEXT ( ( #142, #22, #62 ) ) REPRESENTATION_CONTEXT ( 'NONE', 'WORKASPACE' ) );
#64 = CALENDAR_DATE ( 2026, 24, 8 ) ;
#65 = COORDINATED_UNIVERSAL_TIME_OFFSET ( 5, 30, .AHEAD. ) ;
#66 = DATE_AND_TIME ( #165, #149 ) ;
#67 = ORIENTED_EDGE ( 'NONE', *, *, #57, .T. ) ;
#68 = PERSON_AND_ORGANIZATION ( #169, #40 ) ;
#69 = DESIGN_CONTEXT ( 'detailed design', #102, 'design' ) ;
#70 = VERTEX_POINT ( 'NONE', #83 ) ;
#71 = CARTESIAN_POINT ( 'NONE',  ( 0.000000000000000000, 0.000000000000000000, -40.00000000000000000 ) ) ;
#72 = VERTEX_POINT ( 'NONE', #154 ) ;
#73 = ORIENTED_EDGE ( 'NONE', *, *, #92, .F. ) ;
#74 = ORIENTED_EDGE ( 'NONE', *, *, #51, .F. ) ;
#75 = PLANE ( 'NONE',  #207 ) ;
#76 = CC_DESIGN_PERSON_AND_ORGANIZATION_ASSIGNMENT ( #184, #81, ( #229 ) ) ;
#77 = DIRECTION ( 'NONE',  ( 0.000000000000000000, 0.000000000000000000, 1.000000000000000000 ) ) ;
#78 = AXIS2_PLACEMENT_3D ( 'NONE', #96, #228, #98 ) ;
#79 = COORDINATED_UNIVERSAL_TIME_OFFSET ( 5, 30, .AHEAD. ) ;
#80 = PERSON_AND_ORGANIZATION ( #169, #40 ) ;
#81 = PERSON_AND_ORGANIZATION_ROLE ( 'creator' ) ;
#82 = VECTOR ( 'NONE', #122, 1000.000000000000000 ) ;
#83 = CARTESIAN_POINT ( 'NONE',  ( 35.99999999999998579, 15.99999999999999289, 0.000000000000000000 ) ) ;
#84 = ADVANCED_FACE ( 'NONE', ( #234 ), #75, .T. ) ;
#85 = ORIENTED_EDGE ( 'NONE', *, *, #201, .F. ) ;
#86 = DIRECTION ( 'NONE',  ( 0.000000000000000000, -0.000000000000000000, 1.000000000000000000 ) ) ;
#87 = EDGE_LOOP ( 'NONE', ( #103, #35, #33, #138 ) ) ;
#88 = FACE_OUTER_BOUND ( 'NONE', #87, .T. ) ;
#89 = DIRECTION ( 'NONE',  ( -1.000000000000000000, -0.000000000000000000, -0.000000000000000000 ) ) ;
#90 = EDGE_CURVE ( 'NONE', #173, #231, #53, .T. ) ;
#91 = CARTESIAN_POINT ( 'NONE',  ( 0.000000000000000000, 0.000000000000000000, 0.000000000000000000 ) ) ;
#92 = EDGE_CURVE ( 'NONE', #176, #72, #56, .T. ) ;
#93 = SECURITY_CLASSIFICATION_LEVEL ( 'unclassified' ) ;
#94 = APPROVAL_DATE_TIME ( #203, #42 ) ;
#95 = APPROVAL_STATUS ( 'not_yet_approved' ) ;
#96 = CARTESIAN_POINT ( 'NONE',  ( -36.00000000000001421, 15.99999999999999289, -40.00000000000000000 ) ) ;
#97 = APPROVAL_ROLE ( '' ) ;
#98 = DIRECTION ( 'NONE',  ( 2.168404344971008868E-16, -1.000000000000000000, 0.000000000000000000 ) ) ;
#99 = AXIS2_PLACEMENT_3D ( 'NONE', #15, #124, #86 ) ;
#100 = ORIENTED_EDGE ( 'NONE', *, *, #172, .T. ) ;
#101 = PLANE ( 'NONE',  #99 ) ;
#102 = APPLICATION_CONTEXT ( 'configuration controlled 3d designs of mechanical parts and assemblies' ) ;
#103 = ORIENTED_EDGE ( 'NONE', *, *, #133, .F. ) ;
#104 = DIRECTION ( 'NONE',  ( 1.000000000000000000, 0.000000000000000000, 0.000000000000000000 ) ) ;
#105 = DIRECTION ( 'NONE',  ( 2.168404344971008868E-16, -1.000000000000000000, 0.000000000000000000 ) ) ;
#106 = ADVANCED_FACE ( 'NONE', ( #194 ), #101, .T. ) ;
#107 = VECTOR ( 'NONE', #50, 1000.000000000000000 ) ;
#108 = CARTESIAN_POINT ( 'NONE',  ( -36.00000000000000711, -16.00000000000000711, -40.00000000000000000 ) ) ;
#109 = CARTESIAN_POINT ( 'NONE',  ( -36.00000000000001421, 15.99999999999999289, -40.00000000000000000 ) ) ;
#110 = PRODUCT_DEFINITION_FORMATION_WITH_SPECIFIED_SOURCE ( 'ANY', '', #28, .NOT_KNOWN. ) ;
#111 = LOCAL_TIME ( 10, 43, 18.00000000000000000, #65 ) ;
#112 = VECTOR ( 'NONE', #48, 1000.000000000000000 ) ;
#113 = COORDINATED_UNIVERSAL_TIME_OFFSET ( 5, 30, .AHEAD. ) ;
#114 = COORDINATED_UNIVERSAL_TIME_OFFSET ( 5, 30, .AHEAD. ) ;
#115 = ORIENTED_EDGE ( 'NONE', *, *, #133, .T. ) ;
#116 = SHAPE_DEFINITION_REPRESENTATION ( #150, #36 ) ;
#117 = ORIENTED_EDGE ( 'NONE', *, *, #57, .F. ) ;
#118 = ORIENTED_EDGE ( 'NONE', *, *, #222, .F. ) ;
#119 = VECTOR ( 'NONE', #105, 1000.000000000000000 ) ;
#120 = CARTESIAN_POINT ( 'NONE',  ( -36.00000000000000711, -16.00000000000000711, -40.00000000000000000 ) ) ;
#121 = EDGE_LOOP ( 'NONE', ( #117, #10, #100, #189 ) ) ;
#122 = DIRECTION ( 'NONE',  ( -1.000000000000000000, -0.000000000000000000, -0.000000000000000000 ) ) ;
#123 = LINE ( 'NONE', #1, #2 ) ;
#124 = DIRECTION ( 'NONE',  ( 0.000000000000000000, 1.000000000000000000, 0.000000000000000000 ) ) ;
#125 = DIRECTION ( 'NONE',  ( -4.336808689942017736E-16, 1.000000000000000000, -0.000000000000000000 ) ) ;
#126 = DIRECTION ( 'NONE',  ( 0.000000000000000000, 0.000000000000000000, 1.000000000000000000 ) ) ;
#127 = UNCERTAINTY_MEASURE_WITH_UNIT (LENGTH_MEASURE( 1.000000000000000082E-05 ), #142, 'distance_accuracy_value', 'NONE');
#128 = DIRECTION ( 'NONE',  ( 0.000000000000000000, -0.000000000000000000, -1.000000000000000000 ) ) ;
#129 = CC_DESIGN_SECURITY_CLASSIFICATION ( #61, ( #110 ) ) ;
#130 = APPROVAL_DATE_TIME ( #190, #145 ) ;
#131 = APPROVAL_PERSON_ORGANIZATION ( #80, #145, #225 ) ;
#132 = CARTESIAN_POINT ( 'NONE',  ( -36.00000000000001421, 15.99999999999999289, -40.00000000000000000 ) ) ;
#133 = EDGE_CURVE ( 'NONE', #233, #176, #156, .T. ) ;
#134 = APPROVAL_STATUS ( 'not_yet_approved' ) ;
#135 = LINE ( 'NONE', #214, #107 ) ;
#136 = ORIENTED_EDGE ( 'NONE', *, *, #222, .T. ) ;
#137 = DIRECTION ( 'NONE',  ( -4.336808689942017736E-16, 1.000000000000000000, -0.000000000000000000 ) ) ;
#138 = ORIENTED_EDGE ( 'NONE', *, *, #51, .T. ) ;
#139 = CARTESIAN_POINT ( 'NONE',  ( -36.00000000000000711, -16.00000000000000711, 0.000000000000000000 ) ) ;
#140 = CC_DESIGN_PERSON_AND_ORGANIZATION_ASSIGNMENT ( #151, #167, ( #110 ) ) ;
#141 = DIRECTION ( 'NONE',  ( -0.000000000000000000, 0.000000000000000000, 1.000000000000000000 ) ) ;
#142 =( LENGTH_UNIT ( ) NAMED_UNIT ( * ) SI_UNIT ( .MILLI., .METRE. ) );
#143 = CC_DESIGN_APPROVAL ( #204, ( #61 ) ) ;
#144 = LINE ( 'NONE', #161, #171 ) ;
#145 = APPROVAL ( #95, 'UNSPECIFIED' ) ;
#146 = APPLICATION_PROTOCOL_DEFINITION ( 'international standard', 'config_control_design', 1994, #102 ) ;
#147 = VECTOR ( 'NONE', #89, 1000.000000000000000 ) ;
#148 = COORDINATED_UNIVERSAL_TIME_OFFSET ( 5, 30, .AHEAD. ) ;
#149 = LOCAL_TIME ( 10, 43, 18.00000000000000000, #114 ) ;
#150 = PRODUCT_DEFINITION_SHAPE ( 'NONE', 'NONE',  #229 ) ;
#151 = PERSON_AND_ORGANIZATION ( #169, #40 ) ;
#152 = LOCAL_TIME ( 10, 43, 18.00000000000000000, #79 ) ;
#153 = CARTESIAN_POINT ( 'NONE',  ( 35.99999999999998579, 15.99999999999999289, -40.00000000000000000 ) ) ;
#154 = CARTESIAN_POINT ( 'NONE',  ( 36.00000000000000000, -16.00000000000000711, 0.000000000000000000 ) ) ;
#155 = ORIENTED_EDGE ( 'NONE', *, *, #166, .F. ) ;
#156 = LINE ( 'NONE', #208, #112 ) ;
#157 = ORIENTED_EDGE ( 'NONE', *, *, #90, .F. ) ;
#158 = CARTESIAN_POINT ( 'NONE',  ( -36.00000000000001421, 15.99999999999999289, 0.000000000000000000 ) ) ;
#159 = CLOSED_SHELL ( 'NONE', ( #84, #181, #8, #106, #7, #164 ) ) ;
#160 = LINE ( 'NONE', #18, #3 ) ;
#161 = CARTESIAN_POINT ( 'NONE',  ( 36.00000000000000000, -16.00000000000000711, -40.00000000000000000 ) ) ;
#162 = DIRECTION ( 'NONE',  ( 1.000000000000000000, 0.000000000000000000, 0.000000000000000000 ) ) ;
#163 = DIRECTION ( 'NONE',  ( -0.000000000000000000, 0.000000000000000000, 1.000000000000000000 ) ) ;
#164 = ADVANCED_FACE ( 'NONE', ( #197 ), #199, .T. ) ;
#165 = CALENDAR_DATE ( 2026, 24, 8 ) ;
#166 = EDGE_CURVE ( 'NONE', #213, #173, #38, .T. ) ;
#167 = PERSON_AND_ORGANIZATION_ROLE ( 'creator' ) ;
#168 = CARTESIAN_POINT ( 'NONE',  ( 35.99999999999998579, 15.99999999999999289, 0.000000000000000000 ) ) ;
#169 = PERSON ( 'UNSPECIFIED', 'UNSPECIFIED', 'UNSPECIFIED', ('UNSPECIFIED'), ('UNSPECIFIED'), ('UNSPECIFIED') ) ;
#170 = DATE_AND_TIME ( #185, #152 ) ;
#171 = VECTOR ( 'NONE', #217, 1000.000000000000000 ) ;
#172 = EDGE_CURVE ( 'NONE', #52, #213, #178, .T. ) ;
#173 = VERTEX_POINT ( 'NONE', #60 ) ;
#174 = ORIENTED_EDGE ( 'NONE', *, *, #90, .T. ) ;
#175 = DIRECTION ( 'NONE',  ( 1.000000000000000000, 0.000000000000000000, 0.000000000000000000 ) ) ;
#176 = VERTEX_POINT ( 'NONE', #43 ) ;
#177 = LINE ( 'NONE', #158, #82 ) ;
#178 = LINE ( 'NONE', #109, #147 ) ;
#179 = VECTOR ( 'NONE', #137, 1000.000000000000000 ) ;
#180 = CARTESIAN_POINT ( 'NONE',  ( -36.00000000000001421, 15.99999999999999289, 0.000000000000000000 ) ) ;
#181 = ADVANCED_FACE ( 'NONE', ( #58 ), #4, .T. ) ;
#182 = APPROVAL_PERSON_ORGANIZATION ( #227, #204, #188 ) ;
#183 = APPROVAL_PERSON_ORGANIZATION ( #68, #42, #97 ) ;
#184 = PERSON_AND_ORGANIZATION ( #169, #40 ) ;
#185 = CALENDAR_DATE ( 2026, 24, 8 ) ;
#186 = PRODUCT_RELATED_PRODUCT_CATEGORY ( 'detail', '', ( #28 ) ) ;
#187 = AXIS2_PLACEMENT_3D ( 'NONE', #71, #141, #104 ) ;
#188 = APPROVAL_ROLE ( '' ) ;
#189 = ORIENTED_EDGE ( 'NONE', *, *, #47, .T. ) ;
#190 = DATE_AND_TIME ( #64, #111 ) ;
#191 = PLANE ( 'NONE',  #78 ) ;
#192 = EDGE_LOOP ( 'NONE', ( #73, #74, #174, #55 ) ) ;
#193 = LOCAL_TIME ( 10, 43, 18.00000000000000000, #113 ) ;
#194 = FACE_OUTER_BOUND ( 'NONE', #121, .T. ) ;
#195 = MANIFOLD_SOLID_BREP ( 'Boss-Extrude1', #159 ) ;
#196 = EDGE_LOOP ( 'NONE', ( #14, #67, #115, #16 ) ) ;
#197 = FACE_OUTER_BOUND ( 'NONE', #196, .T. ) ;
#198 = DIRECTION ( 'NONE',  ( 0.000000000000000000, -1.000000000000000000, 0.000000000000000000 ) ) ;
#199 = PLANE ( 'NONE',  #32 ) ;
#200 = PERSON_AND_ORGANIZATION ( #169, #40 ) ;
#201 = EDGE_CURVE ( 'NONE', #231, #72, #144, .T. ) ;
#202 = DIRECTION ( 'NONE',  ( 1.000000000000000000, 0.000000000000000000, 0.000000000000000000 ) ) ;
#203 = DATE_AND_TIME ( #46, #193 ) ;
#204 = APPROVAL ( #134, 'UNSPECIFIED' ) ;
#205 = DATE_TIME_ROLE ( 'creation_date' ) ;
#206 = DATE_TIME_ROLE ( 'classification_date' ) ;
#207 = AXIS2_PLACEMENT_3D ( 'NONE', #230, #212, #215 ) ;
#208 = CARTESIAN_POINT ( 'NONE',  ( -36.00000000000001421, 15.99999999999999289, 0.000000000000000000 ) ) ;
#209 = DATE_AND_TIME ( #29, #11 ) ;
#210 = DIRECTION ( 'NONE',  ( 0.000000000000000000, 0.000000000000000000, 1.000000000000000000 ) ) ;
#211 = ORIENTED_EDGE ( 'NONE', *, *, #172, .F. ) ;
#212 = DIRECTION ( 'NONE',  ( 1.000000000000000000, 4.336808689942017736E-16, -0.000000000000000000 ) ) ;
#213 = VERTEX_POINT ( 'NONE', #220 ) ;
#214 = CARTESIAN_POINT ( 'NONE',  ( -36.00000000000000711, -16.00000000000000711, -40.00000000000000000 ) ) ;
#215 = DIRECTION ( 'NONE',  ( -4.336808689942017736E-16, 1.000000000000000000, 0.000000000000000000 ) ) ;
#216 = CC_DESIGN_PERSON_AND_ORGANIZATION_ASSIGNMENT ( #226, #12, ( #61 ) ) ;
#217 = DIRECTION ( 'NONE',  ( 0.000000000000000000, 0.000000000000000000, 1.000000000000000000 ) ) ;
#218 = VECTOR ( 'NONE', #59, 1000.000000000000000 ) ;
#219 = EDGE_CURVE ( 'NONE', #52, #70, #160, .T. ) ;
#220 = CARTESIAN_POINT ( 'NONE',  ( -36.00000000000001421, 15.99999999999999289, -40.00000000000000000 ) ) ;
#221 = CC_DESIGN_DATE_AND_TIME_ASSIGNMENT ( #170, #205, ( #229 ) ) ;
#222 = EDGE_CURVE ( 'NONE', #231, #52, #123, .T. ) ;
#223 = VECTOR ( 'NONE', #210, 1000.000000000000000 ) ;
#224 = AXIS2_PLACEMENT_3D ( 'NONE', #108, #198, #128 ) ;
#225 = APPROVAL_ROLE ( '' ) ;
#226 = PERSON_AND_ORGANIZATION ( #169, #40 ) ;
#227 = PERSON_AND_ORGANIZATION ( #169, #40 ) ;
#228 = DIRECTION ( 'NONE',  ( -1.000000000000000000, -2.168404344971008868E-16, 0.000000000000000000 ) ) ;
#229 = PRODUCT_DEFINITION ( 'UNKNOWN', '', #110, #69 ) ;
#230 = CARTESIAN_POINT ( 'NONE',  ( 35.99999999999998579, 15.99999999999999289, -40.00000000000000000 ) ) ;
#231 = VERTEX_POINT ( 'NONE', #236 ) ;
#232 = ORIENTED_EDGE ( 'NONE', *, *, #26, .F. ) ;
#233 = VERTEX_POINT ( 'NONE', #180 ) ;
#234 = FACE_OUTER_BOUND ( 'NONE', #21, .T. ) ;
#235 = CC_DESIGN_PERSON_AND_ORGANIZATION_ASSIGNMENT ( #45, #27, ( #110 ) ) ;
#236 = CARTESIAN_POINT ( 'NONE',  ( 36.00000000000000000, -16.00000000000000711, -40.00000000000000000 ) ) ;
#237 = CARTESIAN_POINT ( 'NONE',  ( 0.000000000000000000, 0.000000000000000000, 0.000000000000000000 ) ) ;
ENDSEC;
END-ISO-10303-21;
