ISO-10303-21;
HEADER;
FILE_DESCRIPTION (( 'STEP AP203' ),
    '1' );
FILE_NAME ('back_Default_sldprt.STEP',
    '2026-08-24T14:50:28',
    ( '' ),
    ( '' ),
    'SwSTEP 2.0',
    'SolidWorks 2020',
    '' );
FILE_SCHEMA (( 'CONFIG_CONTROL_DESIGN' ));
ENDSEC;

DATA;
#1 = CARTESIAN_POINT ( 'NONE',  ( 2.499999999999989786, 1.173523437775242009E-15, 8.000000000000000000 ) ) ;
#2 = FACE_OUTER_BOUND ( 'NONE', #167, .T. ) ;
#3 = DIRECTION ( 'NONE',  ( -1.000000000000000000, 0.000000000000000000, 0.000000000000000000 ) ) ;
#4 = DIRECTION ( 'NONE',  ( 1.000000000000000000, 0.000000000000000000, 0.000000000000000000 ) ) ;
#5 = CARTESIAN_POINT ( 'NONE',  ( -20.00000000000000711, -5.000000000000000000, 0.000000000000000000 ) ) ;
#6 = AXIS2_PLACEMENT_3D ( 'NONE', #74, #177, #181 ) ;
#7 = CARTESIAN_POINT ( 'NONE',  ( -2.500000000000010658, 8.673617379884035472E-16, 8.000000000000000000 ) ) ;
#8 = ORIENTED_EDGE ( 'NONE', *, *, #157, .T. ) ;
#9 = CARTESIAN_POINT ( 'NONE',  ( -1.040834085586084257E-14, 8.673617379884035472E-16, 8.000000000000000000 ) ) ;
#10 = EDGE_LOOP ( 'NONE', ( #140, #258 ) ) ;
#11 = SECURITY_CLASSIFICATION_LEVEL ( 'unclassified' ) ;
#12 = AXIS2_PLACEMENT_3D ( 'NONE', #268, #126, #29 ) ;
#13 = CALENDAR_DATE ( 2026, 24, 8 ) ;
#14 = VERTEX_POINT ( 'NONE', #88 ) ;
#15 = COORDINATED_UNIVERSAL_TIME_OFFSET ( 5, 30, .AHEAD. ) ;
#16 = EDGE_LOOP ( 'NONE', ( #59, #131, #8, #232 ) ) ;
#17 = CC_DESIGN_DATE_AND_TIME_ASSIGNMENT ( #190, #139, ( #129 ) ) ;
#18 = APPROVAL_STATUS ( 'not_yet_approved' ) ;
#19 = DIRECTION ( 'NONE',  ( -0.000000000000000000, -0.000000000000000000, -1.000000000000000000 ) ) ;
#20 = ORIENTED_EDGE ( 'NONE', *, *, #297, .T. ) ;
#21 = EDGE_CURVE ( 'NONE', #218, #299, #204, .T. ) ;
#22 = VECTOR ( 'NONE', #283, 1000.000000000000000 ) ;
#23 = ORIENTED_EDGE ( 'NONE', *, *, #61, .F. ) ;
#24 = CC_DESIGN_PERSON_AND_ORGANIZATION_ASSIGNMENT ( #141, #85, ( #201 ) ) ;
#25 = CARTESIAN_POINT ( 'NONE',  ( 2.499999999999989786, 1.173523437775242009E-15, 8.000000000000000000 ) ) ;
#26 = APPROVAL_PERSON_ORGANIZATION ( #231, #286, #58 ) ;
#27 = LINE ( 'NONE', #7, #292 ) ;
#28 = EDGE_CURVE ( 'NONE', #118, #218, #72, .T. ) ;
#29 = DIRECTION ( 'NONE',  ( -1.000000000000000000, 0.000000000000000000, 0.000000000000000000 ) ) ;
#30 = CYLINDRICAL_SURFACE ( 'NONE', #47, 2.500000000000000000 ) ;
#31 =( GEOMETRIC_REPRESENTATION_CONTEXT ( 3 ) GLOBAL_UNCERTAINTY_ASSIGNED_CONTEXT ( ( #169 ) ) GLOBAL_UNIT_ASSIGNED_CONTEXT ( ( #166, #195, #278 ) ) REPRESENTATION_CONTEXT ( 'NONE', 'WORKASPACE' ) );
#32 = CARTESIAN_POINT ( 'NONE',  ( 19.99999999999999645, 5.000000000000000000, 8.000000000000000000 ) ) ;
#33 = ORIENTED_EDGE ( 'NONE', *, *, #94, .T. ) ;
#34 = APPROVAL_DATE_TIME ( #168, #286 ) ;
#35 = ORIENTED_EDGE ( 'NONE', *, *, #192, .F. ) ;
#36 = ADVANCED_FACE ( 'NONE', ( #241 ), #222, .F. ) ;
#37 = DATE_AND_TIME ( #255, #39 ) ;
#38 = VERTEX_POINT ( 'NONE', #91 ) ;
#39 = LOCAL_TIME ( 20, 20, 28.00000000000000000, #186 ) ;
#40 = EDGE_CURVE ( 'NONE', #118, #49, #223, .T. ) ;
#41 = ORIENTED_EDGE ( 'NONE', *, *, #211, .F. ) ;
#42 = ORIENTED_EDGE ( 'NONE', *, *, #165, .F. ) ;
#43 = VECTOR ( 'NONE', #67, 1000.000000000000000 ) ;
#44 = APPROVAL ( #18, 'UNSPECIFIED' ) ;
#45 = CLOSED_SHELL ( 'NONE', ( #114, #155, #103, #146, #221, #57, #36, #202 ) ) ;
#46 = LINE ( 'NONE', #99, #109 ) ;
#47 = AXIS2_PLACEMENT_3D ( 'NONE', #230, #156, #3 ) ;
#48 = FACE_BOUND ( 'NONE', #10, .T. ) ;
#49 = VERTEX_POINT ( 'NONE', #64 ) ;
#50 = FACE_BOUND ( 'NONE', #152, .T. ) ;
#51 = EDGE_CURVE ( 'NONE', #209, #111, #197, .T. ) ;
#52 = CARTESIAN_POINT ( 'NONE',  ( 0.000000000000000000, 0.000000000000000000, 8.000000000000000000 ) ) ;
#53 = CARTESIAN_POINT ( 'NONE',  ( 2.499999999999989786, 1.173523437775242009E-15, 0.000000000000000000 ) ) ;
#54 = FACE_OUTER_BOUND ( 'NONE', #187, .T. ) ;
#55 = CIRCLE ( 'NONE', #6, 2.500000000000000000 ) ;
#56 = CARTESIAN_POINT ( 'NONE',  ( -2.500000000000010658, 8.673617379884035472E-16, 8.000000000000000000 ) ) ;
#57 = ADVANCED_FACE ( 'NONE', ( #2 ), #97, .F. ) ;
#58 = APPROVAL_ROLE ( '' ) ;
#59 = ORIENTED_EDGE ( 'NONE', *, *, #51, .F. ) ;
#60 = DIRECTION ( 'NONE',  ( 1.000000000000000000, 0.000000000000000000, 0.000000000000000000 ) ) ;
#61 = EDGE_CURVE ( 'NONE', #49, #299, #287, .T. ) ;
#62 = CALENDAR_DATE ( 2026, 24, 8 ) ;
#63 = DIRECTION ( 'NONE',  ( -0.000000000000000000, 0.000000000000000000, 1.000000000000000000 ) ) ;
#64 = CARTESIAN_POINT ( 'NONE',  ( -20.00000000000000711, -5.000000000000000000, 8.000000000000000000 ) ) ;
#65 = VECTOR ( 'NONE', #70, 1000.000000000000000 ) ;
#66 = MANIFOLD_SOLID_BREP ( 'Boss-Extrude1', #45 ) ;
#67 = DIRECTION ( 'NONE',  ( 1.000000000000000000, 0.000000000000000000, 0.000000000000000000 ) ) ;
#68 = APPROVAL_ROLE ( '' ) ;
#69 = CIRCLE ( 'NONE', #154, 2.500000000000000000 ) ;
#70 = DIRECTION ( 'NONE',  ( -1.000000000000000000, 2.168404344971008560E-17, -0.000000000000000000 ) ) ;
#71 = CC_DESIGN_PERSON_AND_ORGANIZATION_ASSIGNMENT ( #308, #215, ( #129 ) ) ;
#72 = LINE ( 'NONE', #122, #262 ) ;
#73 = EDGE_LOOP ( 'NONE', ( #254, #259, #41, #117 ) ) ;
#74 = CARTESIAN_POINT ( 'NONE',  ( -1.040834085586084257E-14, 8.673617379884035472E-16, 8.000000000000000000 ) ) ;
#75 = CC_DESIGN_DATE_AND_TIME_ASSIGNMENT ( #37, #233, ( #184 ) ) ;
#76 = DIRECTION ( 'NONE',  ( 3.469446951953614189E-16, 1.000000000000000000, -0.000000000000000000 ) ) ;
#77 = ORGANIZATION ( 'UNSPECIFIED', 'UNSPECIFIED', '' ) ;
#78 = DIRECTION ( 'NONE',  ( 1.000000000000000000, 0.000000000000000000, 0.000000000000000000 ) ) ;
#79 = ORIENTED_EDGE ( 'NONE', *, *, #40, .F. ) ;
#80 = DIRECTION ( 'NONE',  ( 1.000000000000000000, 0.000000000000000000, 0.000000000000000000 ) ) ;
#81 = CARTESIAN_POINT ( 'NONE',  ( -20.00000000000000711, 5.000000000000000888, 0.000000000000000000 ) ) ;
#82 = CIRCLE ( 'NONE', #161, 2.500000000000000000 ) ;
#83 = PERSON_AND_ORGANIZATION ( #164, #77 ) ;
#84 = ADVANCED_BREP_SHAPE_REPRESENTATION ( 'back_Default_sldprt', ( #66, #240 ), #31 ) ;
#85 = PERSON_AND_ORGANIZATION_ROLE ( 'design_owner' ) ;
#86 = EDGE_LOOP ( 'NONE', ( #236, #277, #137, #134 ) ) ;
#87 = CALENDAR_DATE ( 2026, 24, 8 ) ;
#88 = CARTESIAN_POINT ( 'NONE',  ( 19.99999999999999289, -5.000000000000000000, 8.000000000000000000 ) ) ;
#89 = CIRCLE ( 'NONE', #243, 2.500000000000000000 ) ;
#90 = DIRECTION ( 'NONE',  ( 1.000000000000000000, 0.000000000000000000, 0.000000000000000000 ) ) ;
#91 = CARTESIAN_POINT ( 'NONE',  ( 19.99999999999999645, 5.000000000000000000, 0.000000000000000000 ) ) ;
#92 = APPLICATION_PROTOCOL_DEFINITION ( 'international standard', 'config_control_design', 1994, #147 ) ;
#93 = ORIENTED_EDGE ( 'NONE', *, *, #144, .F. ) ;
#94 = EDGE_CURVE ( 'NONE', #176, #118, #309, .T. ) ;
#95 = COORDINATED_UNIVERSAL_TIME_OFFSET ( 5, 30, .AHEAD. ) ;
#96 = EDGE_CURVE ( 'NONE', #176, #38, #46, .T. ) ;
#97 = PLANE ( 'NONE',  #196 ) ;
#98 = APPROVAL_PERSON_ORGANIZATION ( #239, #44, #234 ) ;
#99 = CARTESIAN_POINT ( 'NONE',  ( 19.99999999999999645, 5.000000000000000000, 8.000000000000000000 ) ) ;
#100 = PRODUCT_DEFINITION_FORMATION_WITH_SPECIFIED_SOURCE ( 'ANY', '', #201, .NOT_KNOWN. ) ;
#101 = PLANE ( 'NONE',  #198 ) ;
#102 = DIRECTION ( 'NONE',  ( -0.000000000000000000, -0.000000000000000000, -1.000000000000000000 ) ) ;
#103 = ADVANCED_FACE ( 'NONE', ( #291, #48 ), #150, .F. ) ;
#104 = LINE ( 'NONE', #81, #151 ) ;
#105 = CARTESIAN_POINT ( 'NONE',  ( 19.99999999999999289, -5.000000000000000000, 0.000000000000000000 ) ) ;
#106 = EDGE_LOOP ( 'NONE', ( #42, #93, #304, #245 ) ) ;
#107 = EDGE_CURVE ( 'NONE', #38, #218, #104, .T. ) ;
#108 = DIRECTION ( 'NONE',  ( 0.000000000000000000, 0.000000000000000000, 1.000000000000000000 ) ) ;
#109 = VECTOR ( 'NONE', #200, 1000.000000000000000 ) ;
#110 = COORDINATED_UNIVERSAL_TIME_OFFSET ( 5, 30, .AHEAD. ) ;
#111 = VERTEX_POINT ( 'NONE', #53 ) ;
#112 = VECTOR ( 'NONE', #76, 1000.000000000000000 ) ;
#113 = PERSON_AND_ORGANIZATION ( #164, #77 ) ;
#114 = ADVANCED_FACE ( 'NONE', ( #54 ), #30, .F. ) ;
#115 = EDGE_LOOP ( 'NONE', ( #189, #266, #281, #159 ) ) ;
#116 = DATE_AND_TIME ( #13, #242 ) ;
#117 = ORIENTED_EDGE ( 'NONE', *, *, #174, .T. ) ;
#118 = VERTEX_POINT ( 'NONE', #128 ) ;
#119 = APPROVAL_DATE_TIME ( #116, #44 ) ;
#120 = DIRECTION ( 'NONE',  ( 1.000000000000000000, 0.000000000000000000, -0.000000000000000000 ) ) ;
#121 = CC_DESIGN_PERSON_AND_ORGANIZATION_ASSIGNMENT ( #83, #212, ( #184 ) ) ;
#122 = CARTESIAN_POINT ( 'NONE',  ( -20.00000000000000711, 5.000000000000000888, 8.000000000000000000 ) ) ;
#123 = VECTOR ( 'NONE', #19, 1000.000000000000000 ) ;
#124 = DIRECTION ( 'NONE',  ( 0.000000000000000000, -1.000000000000000000, 0.000000000000000000 ) ) ;
#125 = CARTESIAN_POINT ( 'NONE',  ( 19.99999999999999645, 5.000000000000000000, 0.000000000000000000 ) ) ;
#126 = DIRECTION ( 'NONE',  ( -0.000000000000000000, -0.000000000000000000, -1.000000000000000000 ) ) ;
#127 = DIRECTION ( 'NONE',  ( -3.469446951953614189E-16, -1.000000000000000000, 0.000000000000000000 ) ) ;
#128 = CARTESIAN_POINT ( 'NONE',  ( -20.00000000000000711, 5.000000000000000888, 8.000000000000000000 ) ) ;
#129 = PRODUCT_DEFINITION ( 'UNKNOWN', '', #100, #188 ) ;
#130 = VECTOR ( 'NONE', #225, 1000.000000000000000 ) ;
#131 = ORIENTED_EDGE ( 'NONE', *, *, #253, .T. ) ;
#132 = CARTESIAN_POINT ( 'NONE',  ( 19.99999999999999289, -5.000000000000000000, 8.000000000000000000 ) ) ;
#133 = PERSON_AND_ORGANIZATION_ROLE ( 'design_supplier' ) ;
#134 = ORIENTED_EDGE ( 'NONE', *, *, #96, .T. ) ;
#135 = CC_DESIGN_PERSON_AND_ORGANIZATION_ASSIGNMENT ( #276, #217, ( #100 ) ) ;
#136 = DIRECTION ( 'NONE',  ( 0.000000000000000000, 0.000000000000000000, 1.000000000000000000 ) ) ;
#137 = ORIENTED_EDGE ( 'NONE', *, *, #94, .F. ) ;
#138 = APPLICATION_PROTOCOL_DEFINITION ( 'international standard', 'config_control_design', 1994, #311 ) ;
#139 = DATE_TIME_ROLE ( 'creation_date' ) ;
#140 = ORIENTED_EDGE ( 'NONE', *, *, #235, .T. ) ;
#141 = PERSON_AND_ORGANIZATION ( #164, #77 ) ;
#142 = CC_DESIGN_APPROVAL ( #44, ( #129 ) ) ;
#143 = CARTESIAN_POINT ( 'NONE',  ( -20.00000000000000711, 5.000000000000000888, 0.000000000000000000 ) ) ;
#144 = EDGE_CURVE ( 'NONE', #299, #182, #248, .T. ) ;
#145 = LOCAL_TIME ( 20, 20, 28.00000000000000000, #110 ) ;
#146 = ADVANCED_FACE ( 'NONE', ( #160 ), #296, .F. ) ;
#147 = APPLICATION_CONTEXT ( 'configuration controlled 3d designs of mechanical parts and assemblies' ) ;
#148 = CC_DESIGN_SECURITY_CLASSIFICATION ( #184, ( #100 ) ) ;
#149 = DIRECTION ( 'NONE',  ( -0.000000000000000000, 0.000000000000000000, -1.000000000000000000 ) ) ;
#150 = PLANE ( 'NONE',  #284 ) ;
#151 = VECTOR ( 'NONE', #303, 1000.000000000000000 ) ;
#152 = EDGE_LOOP ( 'NONE', ( #35, #173 ) ) ;
#153 = CARTESIAN_POINT ( 'NONE',  ( -20.00000000000000711, 5.000000000000000888, 8.000000000000000000 ) ) ;
#154 = AXIS2_PLACEMENT_3D ( 'NONE', #9, #108, #78 ) ;
#155 = ADVANCED_FACE ( 'NONE', ( #229, #50 ), #226, .T. ) ;
#156 = DIRECTION ( 'NONE',  ( -0.000000000000000000, -0.000000000000000000, -1.000000000000000000 ) ) ;
#157 = EDGE_CURVE ( 'NONE', #162, #246, #27, .T. ) ;
#158 = LINE ( 'NONE', #250, #130 ) ;
#159 = ORIENTED_EDGE ( 'NONE', *, *, #61, .T. ) ;
#160 = FACE_OUTER_BOUND ( 'NONE', #73, .T. ) ;
#161 = AXIS2_PLACEMENT_3D ( 'NONE', #267, #269, #90 ) ;
#162 = VERTEX_POINT ( 'NONE', #56 ) ;
#163 = FACE_OUTER_BOUND ( 'NONE', #16, .T. ) ;
#164 = PERSON ( 'UNSPECIFIED', 'UNSPECIFIED', 'UNSPECIFIED', ('UNSPECIFIED'), ('UNSPECIFIED'), ('UNSPECIFIED') ) ;
#165 = EDGE_CURVE ( 'NONE', #182, #38, #185, .T. ) ;
#166 =( LENGTH_UNIT ( ) NAMED_UNIT ( * ) SI_UNIT ( .MILLI., .METRE. ) );
#167 = EDGE_LOOP ( 'NONE', ( #261, #23, #79, #244 ) ) ;
#168 = DATE_AND_TIME ( #62, #252 ) ;
#169 = UNCERTAINTY_MEASURE_WITH_UNIT (LENGTH_MEASURE( 1.000000000000000082E-05 ), #166, 'distance_accuracy_value', 'NONE');
#170 = CARTESIAN_POINT ( 'NONE',  ( -20.00000000000000711, 5.000000000000000888, 8.000000000000000000 ) ) ;
#171 = AXIS2_PLACEMENT_3D ( 'NONE', #238, #265, #307 ) ;
#172 = ORIENTED_EDGE ( 'NONE', *, *, #157, .F. ) ;
#173 = ORIENTED_EDGE ( 'NONE', *, *, #253, .F. ) ;
#174 = EDGE_CURVE ( 'NONE', #14, #182, #178, .T. ) ;
#175 = DIRECTION ( 'NONE',  ( -0.000000000000000000, -0.000000000000000000, -1.000000000000000000 ) ) ;
#176 = VERTEX_POINT ( 'NONE', #206 ) ;
#177 = DIRECTION ( 'NONE',  ( 0.000000000000000000, 0.000000000000000000, 1.000000000000000000 ) ) ;
#178 = LINE ( 'NONE', #132, #203 ) ;
#179 = CC_DESIGN_APPROVAL ( #286, ( #100 ) ) ;
#180 = PRODUCT_DEFINITION_SHAPE ( 'NONE', 'NONE',  #129 ) ;
#181 = DIRECTION ( 'NONE',  ( 1.000000000000000000, 0.000000000000000000, 0.000000000000000000 ) ) ;
#182 = VERTEX_POINT ( 'NONE', #105 ) ;
#183 = DIRECTION ( 'NONE',  ( 1.000000000000000000, 0.000000000000000000, 0.000000000000000000 ) ) ;
#184 = SECURITY_CLASSIFICATION ( '', '', #11 ) ;
#185 = LINE ( 'NONE', #125, #112 ) ;
#186 = COORDINATED_UNIVERSAL_TIME_OFFSET ( 5, 30, .AHEAD. ) ;
#187 = EDGE_LOOP ( 'NONE', ( #270, #216, #305, #172 ) ) ;
#188 = DESIGN_CONTEXT ( 'detailed design', #311, 'design' ) ;
#189 = ORIENTED_EDGE ( 'NONE', *, *, #144, .T. ) ;
#190 = DATE_AND_TIME ( #87, #145 ) ;
#191 = CARTESIAN_POINT ( 'NONE',  ( -20.00000000000000711, 5.000000000000000888, 8.000000000000000000 ) ) ;
#192 = EDGE_CURVE ( 'NONE', #162, #209, #69, .T. ) ;
#193 = CARTESIAN_POINT ( 'NONE',  ( -20.00000000000000711, -5.000000000000000000, 8.000000000000000000 ) ) ;
#194 = CARTESIAN_POINT ( 'NONE',  ( -20.00000000000000711, 5.000000000000000888, 8.000000000000000000 ) ) ;
#195 =( NAMED_UNIT ( * ) PLANE_ANGLE_UNIT ( ) SI_UNIT ( $, .RADIAN. ) );
#196 = AXIS2_PLACEMENT_3D ( 'NONE', #191, #120, #149 ) ;
#197 = LINE ( 'NONE', #1, #123 ) ;
#198 = AXIS2_PLACEMENT_3D ( 'NONE', #153, #208, #207 ) ;
#199 = DATE_AND_TIME ( #290, #275 ) ;
#200 = DIRECTION ( 'NONE',  ( -0.000000000000000000, -0.000000000000000000, -1.000000000000000000 ) ) ;
#201 = PRODUCT ( 'back_Default_sldprt', 'back_Default_sldprt', '', ( #260 ) ) ;
#202 = ADVANCED_FACE ( 'NONE', ( #163 ), #249, .F. ) ;
#203 = VECTOR ( 'NONE', #102, 1000.000000000000000 ) ;
#204 = LINE ( 'NONE', #143, #227 ) ;
#205 = DIRECTION ( 'NONE',  ( -1.000000000000000000, 3.469446951953614189E-16, 0.000000000000000000 ) ) ;
#206 = CARTESIAN_POINT ( 'NONE',  ( 19.99999999999999645, 5.000000000000000000, 8.000000000000000000 ) ) ;
#207 = DIRECTION ( 'NONE',  ( 1.000000000000000000, -2.168404344971008560E-17, 0.000000000000000000 ) ) ;
#208 = DIRECTION ( 'NONE',  ( -2.168404344971008560E-17, -1.000000000000000000, 0.000000000000000000 ) ) ;
#209 = VERTEX_POINT ( 'NONE', #25 ) ;
#210 = FACE_OUTER_BOUND ( 'NONE', #86, .T. ) ;
#211 = EDGE_CURVE ( 'NONE', #14, #176, #158, .T. ) ;
#212 = PERSON_AND_ORGANIZATION_ROLE ( 'classification_officer' ) ;
#213 = VECTOR ( 'NONE', #274, 1000.000000000000000 ) ;
#214 = CARTESIAN_POINT ( 'NONE',  ( -20.00000000000000711, -5.000000000000000000, 0.000000000000000000 ) ) ;
#215 = PERSON_AND_ORGANIZATION_ROLE ( 'creator' ) ;
#216 = ORIENTED_EDGE ( 'NONE', *, *, #51, .T. ) ;
#217 = PERSON_AND_ORGANIZATION_ROLE ( 'creator' ) ;
#218 = VERTEX_POINT ( 'NONE', #228 ) ;
#219 = CARTESIAN_POINT ( 'NONE',  ( -20.00000000000000711, -5.000000000000000000, 8.000000000000000000 ) ) ;
#220 = APPROVAL_STATUS ( 'not_yet_approved' ) ;
#221 = ADVANCED_FACE ( 'NONE', ( #210 ), #101, .F. ) ;
#222 = PLANE ( 'NONE',  #171 ) ;
#223 = LINE ( 'NONE', #194, #22 ) ;
#224 = CC_DESIGN_APPROVAL ( #295, ( #184 ) ) ;
#225 = DIRECTION ( 'NONE',  ( 3.469446951953614189E-16, 1.000000000000000000, -0.000000000000000000 ) ) ;
#226 = PLANE ( 'NONE',  #247 ) ;
#227 = VECTOR ( 'NONE', #124, 1000.000000000000000 ) ;
#228 = CARTESIAN_POINT ( 'NONE',  ( -20.00000000000000711, 5.000000000000000888, 0.000000000000000000 ) ) ;
#229 = FACE_OUTER_BOUND ( 'NONE', #279, .T. ) ;
#230 = CARTESIAN_POINT ( 'NONE',  ( -1.040834085586084257E-14, 8.673617379884035472E-16, 8.000000000000000000 ) ) ;
#231 = PERSON_AND_ORGANIZATION ( #164, #77 ) ;
#232 = ORIENTED_EDGE ( 'NONE', *, *, #263, .F. ) ;
#233 = DATE_TIME_ROLE ( 'classification_date' ) ;
#234 = APPROVAL_ROLE ( '' ) ;
#235 = EDGE_CURVE ( 'NONE', #246, #111, #89, .T. ) ;
#236 = ORIENTED_EDGE ( 'NONE', *, *, #107, .T. ) ;
#237 = CARTESIAN_POINT ( 'NONE',  ( 0.000000000000000000, 0.000000000000000000, 0.000000000000000000 ) ) ;
#238 = CARTESIAN_POINT ( 'NONE',  ( -20.00000000000000711, -5.000000000000000000, 8.000000000000000000 ) ) ;
#239 = PERSON_AND_ORGANIZATION ( #164, #77 ) ;
#240 = AXIS2_PLACEMENT_3D ( 'NONE', #237, #136, #60 ) ;
#241 = FACE_OUTER_BOUND ( 'NONE', #115, .T. ) ;
#242 = LOCAL_TIME ( 20, 20, 28.00000000000000000, #15 ) ;
#243 = AXIS2_PLACEMENT_3D ( 'NONE', #300, #298, #80 ) ;
#244 = ORIENTED_EDGE ( 'NONE', *, *, #28, .T. ) ;
#245 = ORIENTED_EDGE ( 'NONE', *, *, #107, .F. ) ;
#246 = VERTEX_POINT ( 'NONE', #294 ) ;
#247 = AXIS2_PLACEMENT_3D ( 'NONE', #52, #251, #4 ) ;
#248 = LINE ( 'NONE', #5, #213 ) ;
#249 = CYLINDRICAL_SURFACE ( 'NONE', #12, 2.500000000000000000 ) ;
#250 = CARTESIAN_POINT ( 'NONE',  ( 19.99999999999999645, 5.000000000000000000, 8.000000000000000000 ) ) ;
#251 = DIRECTION ( 'NONE',  ( -0.000000000000000000, 0.000000000000000000, 1.000000000000000000 ) ) ;
#252 = LOCAL_TIME ( 20, 20, 28.00000000000000000, #280 ) ;
#253 = EDGE_CURVE ( 'NONE', #209, #162, #55, .T. ) ;
#254 = ORIENTED_EDGE ( 'NONE', *, *, #165, .T. ) ;
#255 = CALENDAR_DATE ( 2026, 24, 8 ) ;
#256 = ORIENTED_EDGE ( 'NONE', *, *, #40, .T. ) ;
#257 = APPROVAL_PERSON_ORGANIZATION ( #113, #295, #68 ) ;
#258 = ORIENTED_EDGE ( 'NONE', *, *, #263, .T. ) ;
#259 = ORIENTED_EDGE ( 'NONE', *, *, #96, .F. ) ;
#260 = MECHANICAL_CONTEXT ( 'NONE', #147, 'mechanical' ) ;
#261 = ORIENTED_EDGE ( 'NONE', *, *, #21, .T. ) ;
#262 = VECTOR ( 'NONE', #264, 1000.000000000000000 ) ;
#263 = EDGE_CURVE ( 'NONE', #111, #246, #82, .T. ) ;
#264 = DIRECTION ( 'NONE',  ( -0.000000000000000000, -0.000000000000000000, -1.000000000000000000 ) ) ;
#265 = DIRECTION ( 'NONE',  ( 0.000000000000000000, 1.000000000000000000, 0.000000000000000000 ) ) ;
#266 = ORIENTED_EDGE ( 'NONE', *, *, #174, .F. ) ;
#267 = CARTESIAN_POINT ( 'NONE',  ( -1.040834085586084257E-14, 8.673617379884035472E-16, 0.000000000000000000 ) ) ;
#268 = CARTESIAN_POINT ( 'NONE',  ( -1.040834085586084257E-14, 8.673617379884035472E-16, 8.000000000000000000 ) ) ;
#269 = DIRECTION ( 'NONE',  ( 0.000000000000000000, 0.000000000000000000, 1.000000000000000000 ) ) ;
#270 = ORIENTED_EDGE ( 'NONE', *, *, #192, .T. ) ;
#271 = PRODUCT_RELATED_PRODUCT_CATEGORY ( 'detail', '', ( #201 ) ) ;
#272 = DIRECTION ( 'NONE',  ( -0.000000000000000000, -0.000000000000000000, -1.000000000000000000 ) ) ;
#273 = AXIS2_PLACEMENT_3D ( 'NONE', #32, #205, #127 ) ;
#274 = DIRECTION ( 'NONE',  ( 1.000000000000000000, 0.000000000000000000, 0.000000000000000000 ) ) ;
#275 = LOCAL_TIME ( 20, 20, 28.00000000000000000, #95 ) ;
#276 = PERSON_AND_ORGANIZATION ( #164, #77 ) ;
#277 = ORIENTED_EDGE ( 'NONE', *, *, #28, .F. ) ;
#278 =( NAMED_UNIT ( * ) SI_UNIT ( $, .STERADIAN. ) SOLID_ANGLE_UNIT ( ) );
#279 = EDGE_LOOP ( 'NONE', ( #302, #33, #256, #20 ) ) ;
#280 = COORDINATED_UNIVERSAL_TIME_OFFSET ( 5, 30, .AHEAD. ) ;
#281 = ORIENTED_EDGE ( 'NONE', *, *, #297, .F. ) ;
#282 = LINE ( 'NONE', #193, #43 ) ;
#283 = DIRECTION ( 'NONE',  ( 0.000000000000000000, -1.000000000000000000, 0.000000000000000000 ) ) ;
#284 = AXIS2_PLACEMENT_3D ( 'NONE', #293, #63, #183 ) ;
#285 = APPROVAL_STATUS ( 'not_yet_approved' ) ;
#286 = APPROVAL ( #285, 'UNSPECIFIED' ) ;
#287 = LINE ( 'NONE', #219, #301 ) ;
#288 = SHAPE_DEFINITION_REPRESENTATION ( #180, #84 ) ;
#289 = CC_DESIGN_PERSON_AND_ORGANIZATION_ASSIGNMENT ( #306, #133, ( #100 ) ) ;
#290 = CALENDAR_DATE ( 2026, 24, 8 ) ;
#291 = FACE_OUTER_BOUND ( 'NONE', #106, .T. ) ;
#292 = VECTOR ( 'NONE', #272, 1000.000000000000000 ) ;
#293 = CARTESIAN_POINT ( 'NONE',  ( 0.000000000000000000, 0.000000000000000000, 0.000000000000000000 ) ) ;
#294 = CARTESIAN_POINT ( 'NONE',  ( -2.500000000000010658, 8.673617379884035472E-16, 0.000000000000000000 ) ) ;
#295 = APPROVAL ( #220, 'UNSPECIFIED' ) ;
#296 = PLANE ( 'NONE',  #273 ) ;
#297 = EDGE_CURVE ( 'NONE', #49, #14, #282, .T. ) ;
#298 = DIRECTION ( 'NONE',  ( 0.000000000000000000, 0.000000000000000000, 1.000000000000000000 ) ) ;
#299 = VERTEX_POINT ( 'NONE', #214 ) ;
#300 = CARTESIAN_POINT ( 'NONE',  ( -1.040834085586084257E-14, 8.673617379884035472E-16, 0.000000000000000000 ) ) ;
#301 = VECTOR ( 'NONE', #175, 1000.000000000000000 ) ;
#302 = ORIENTED_EDGE ( 'NONE', *, *, #211, .T. ) ;
#303 = DIRECTION ( 'NONE',  ( -1.000000000000000000, 2.168404344971008560E-17, -0.000000000000000000 ) ) ;
#304 = ORIENTED_EDGE ( 'NONE', *, *, #21, .F. ) ;
#305 = ORIENTED_EDGE ( 'NONE', *, *, #235, .F. ) ;
#306 = PERSON_AND_ORGANIZATION ( #164, #77 ) ;
#307 = DIRECTION ( 'NONE',  ( 0.000000000000000000, -0.000000000000000000, 1.000000000000000000 ) ) ;
#308 = PERSON_AND_ORGANIZATION ( #164, #77 ) ;
#309 = LINE ( 'NONE', #170, #65 ) ;
#310 = APPROVAL_DATE_TIME ( #199, #295 ) ;
#311 = APPLICATION_CONTEXT ( 'configuration controlled 3d designs of mechanical parts and assemblies' ) ;
ENDSEC;
END-ISO-10303-21;
