ISO-10303-21;
HEADER;
FILE_DESCRIPTION (( 'STEP AP203' ),
    '1' );
FILE_NAME ('back_Front_sldprt.STEP',
    '2026-08-24T14:50:30',
    ( '' ),
    ( '' ),
    'SwSTEP 2.0',
    'SolidWorks 2020',
    '' );
FILE_SCHEMA (( 'CONFIG_CONTROL_DESIGN' ));
ENDSEC;

DATA;
#1 = PRODUCT_RELATED_PRODUCT_CATEGORY ( 'detail', '', ( #8 ) ) ;
#2 = CARTESIAN_POINT ( 'NONE',  ( -12.00000000000000355, -4.999999999999998224, 8.000000000000000000 ) ) ;
#3 = CLOSED_SHELL ( 'NONE', ( #262, #19, #217, #36, #104, #204, #23, #219 ) ) ;
#4 = ORIENTED_EDGE ( 'NONE', *, *, #230, .F. ) ;
#5 = LOCAL_TIME ( 20, 20, 30.00000000000000000, #183 ) ;
#6 = DIRECTION ( 'NONE',  ( 0.000000000000000000, -0.000000000000000000, -1.000000000000000000 ) ) ;
#7 = CARTESIAN_POINT ( 'NONE',  ( 2.499999999999989786, 1.173523437775242009E-15, 8.000000000000000000 ) ) ;
#8 = PRODUCT ( 'back_Front_sldprt', 'back_Front_sldprt', '', ( #306 ) ) ;
#9 = PLANE ( 'NONE',  #167 ) ;
#10 = LINE ( 'NONE', #298, #227 ) ;
#11 = ORIENTED_EDGE ( 'NONE', *, *, #284, .F. ) ;
#12 = DIRECTION ( 'NONE',  ( -0.000000000000000000, -0.000000000000000000, -1.000000000000000000 ) ) ;
#13 =( NAMED_UNIT ( * ) SI_UNIT ( $, .STERADIAN. ) SOLID_ANGLE_UNIT ( ) );
#14 = VERTEX_POINT ( 'NONE', #119 ) ;
#15 = PRODUCT_DEFINITION_FORMATION_WITH_SPECIFIED_SOURCE ( 'ANY', '', #8, .NOT_KNOWN. ) ;
#16 = EDGE_CURVE ( 'NONE', #207, #93, #90, .T. ) ;
#17 = DESIGN_CONTEXT ( 'detailed design', #123, 'design' ) ;
#18 = DATE_AND_TIME ( #234, #206 ) ;
#19 = ADVANCED_FACE ( 'NONE', ( #197, #100 ), #29, .T. ) ;
#20 = EDGE_LOOP ( 'NONE', ( #55, #278, #238, #240 ) ) ;
#21 = VECTOR ( 'NONE', #195, 1000.000000000000000 ) ;
#22 = VERTEX_POINT ( 'NONE', #146 ) ;
#23 = ADVANCED_FACE ( 'NONE', ( #73 ), #26, .F. ) ;
#24 = APPROVAL_PERSON_ORGANIZATION ( #51, #85, #70 ) ;
#25 = COORDINATED_UNIVERSAL_TIME_OFFSET ( 5, 30, .AHEAD. ) ;
#26 = PLANE ( 'NONE',  #165 ) ;
#27 = VECTOR ( 'NONE', #200, 1000.000000000000000 ) ;
#28 = ORIENTED_EDGE ( 'NONE', *, *, #16, .F. ) ;
#29 = PLANE ( 'NONE',  #152 ) ;
#30 = VECTOR ( 'NONE', #37, 1000.000000000000000 ) ;
#31 = CC_DESIGN_DATE_AND_TIME_ASSIGNMENT ( #66, #78, ( #212 ) ) ;
#32 = FACE_OUTER_BOUND ( 'NONE', #98, .T. ) ;
#33 = CC_DESIGN_APPROVAL ( #158, ( #105 ) ) ;
#34 = CARTESIAN_POINT ( 'NONE',  ( -2.500000000000010658, 8.673617379884035472E-16, 0.000000000000000000 ) ) ;
#35 = APPLICATION_CONTEXT ( 'configuration controlled 3d designs of mechanical parts and assemblies' ) ;
#36 = ADVANCED_FACE ( 'NONE', ( #164 ), #292, .F. ) ;
#37 = DIRECTION ( 'NONE',  ( -0.000000000000000000, -0.000000000000000000, -1.000000000000000000 ) ) ;
#38 = CARTESIAN_POINT ( 'NONE',  ( -12.00000000000000355, -4.999999999999998224, 8.000000000000000000 ) ) ;
#39 = VECTOR ( 'NONE', #268, 1000.000000000000000 ) ;
#40 = EDGE_LOOP ( 'NONE', ( #307, #192, #81, #47 ) ) ;
#41 = FACE_OUTER_BOUND ( 'NONE', #280, .T. ) ;
#42 = PERSON_AND_ORGANIZATION_ROLE ( 'classification_officer' ) ;
#43 = ORIENTED_EDGE ( 'NONE', *, *, #77, .T. ) ;
#44 = EDGE_CURVE ( 'NONE', #93, #207, #186, .T. ) ;
#45 = DIRECTION ( 'NONE',  ( 3.469446951953614189E-16, 1.000000000000000000, -0.000000000000000000 ) ) ;
#46 = DATE_AND_TIME ( #257, #92 ) ;
#47 = ORIENTED_EDGE ( 'NONE', *, *, #269, .T. ) ;
#48 = PERSON_AND_ORGANIZATION_ROLE ( 'creator' ) ;
#49 = CC_DESIGN_PERSON_AND_ORGANIZATION_ASSIGNMENT ( #94, #191, ( #15 ) ) ;
#50 = ORIENTED_EDGE ( 'NONE', *, *, #163, .F. ) ;
#51 = PERSON_AND_ORGANIZATION ( #168, #244 ) ;
#52 = VERTEX_POINT ( 'NONE', #2 ) ;
#53 = EDGE_CURVE ( 'NONE', #121, #22, #107, .T. ) ;
#54 = DIRECTION ( 'NONE',  ( 1.000000000000000000, 0.000000000000000000, 0.000000000000000000 ) ) ;
#55 = ORIENTED_EDGE ( 'NONE', *, *, #277, .T. ) ;
#56 = EDGE_CURVE ( 'NONE', #275, #93, #290, .T. ) ;
#57 = LINE ( 'NONE', #147, #173 ) ;
#58 = FACE_BOUND ( 'NONE', #242, .T. ) ;
#59 = CC_DESIGN_PERSON_AND_ORGANIZATION_ASSIGNMENT ( #253, #42, ( #212 ) ) ;
#60 = DIRECTION ( 'NONE',  ( 0.000000000000000000, -1.000000000000000000, 0.000000000000000000 ) ) ;
#61 = DIRECTION ( 'NONE',  ( 0.000000000000000000, -1.000000000000000000, 0.000000000000000000 ) ) ;
#62 = ORIENTED_EDGE ( 'NONE', *, *, #16, .T. ) ;
#63 = CARTESIAN_POINT ( 'NONE',  ( 11.99999999999999645, -4.999999999999998224, 8.000000000000000000 ) ) ;
#64 = LOCAL_TIME ( 20, 20, 30.00000000000000000, #216 ) ;
#65 = CARTESIAN_POINT ( 'NONE',  ( -12.00000000000000355, 5.000000000000001776, 8.000000000000000000 ) ) ;
#66 = DATE_AND_TIME ( #276, #5 ) ;
#67 = APPROVAL_STATUS ( 'not_yet_approved' ) ;
#68 = ORIENTED_EDGE ( 'NONE', *, *, #44, .F. ) ;
#69 = EDGE_CURVE ( 'NONE', #182, #52, #57, .T. ) ;
#70 = APPROVAL_ROLE ( '' ) ;
#71 = CARTESIAN_POINT ( 'NONE',  ( -12.00000000000000355, -4.999999999999998224, 8.000000000000000000 ) ) ;
#72 = DIRECTION ( 'NONE',  ( 0.000000000000000000, 0.000000000000000000, 1.000000000000000000 ) ) ;
#73 = FACE_OUTER_BOUND ( 'NONE', #266, .T. ) ;
#74 = PERSON_AND_ORGANIZATION_ROLE ( 'design_supplier' ) ;
#75 = AXIS2_PLACEMENT_3D ( 'NONE', #189, #255, #281 ) ;
#76 = APPROVAL_ROLE ( '' ) ;
#77 = EDGE_CURVE ( 'NONE', #215, #275, #84, .T. ) ;
#78 = DATE_TIME_ROLE ( 'classification_date' ) ;
#79 = VECTOR ( 'NONE', #228, 1000.000000000000000 ) ;
#80 = DIRECTION ( 'NONE',  ( 1.000000000000000000, 0.000000000000000000, 0.000000000000000000 ) ) ;
#81 = ORIENTED_EDGE ( 'NONE', *, *, #277, .F. ) ;
#82 = DIRECTION ( 'NONE',  ( -1.000000000000000000, 3.469446951953614189E-16, 0.000000000000000000 ) ) ;
#83 = LINE ( 'NONE', #65, #39 ) ;
#84 = CIRCLE ( 'NONE', #194, 2.500000000000000000 ) ;
#85 = APPROVAL ( #141, 'UNSPECIFIED' ) ;
#86 = LINE ( 'NONE', #175, #299 ) ;
#87 = CARTESIAN_POINT ( 'NONE',  ( 12.00000000000000000, 5.000000000000001776, 0.000000000000000000 ) ) ;
#88 = ORIENTED_EDGE ( 'NONE', *, *, #284, .T. ) ;
#89 = LINE ( 'NONE', #91, #30 ) ;
#90 = CIRCLE ( 'NONE', #263, 2.500000000000000000 ) ;
#91 = CARTESIAN_POINT ( 'NONE',  ( 12.00000000000000000, 5.000000000000001776, 8.000000000000000000 ) ) ;
#92 = LOCAL_TIME ( 20, 20, 30.00000000000000000, #135 ) ;
#93 = VERTEX_POINT ( 'NONE', #34 ) ;
#94 = PERSON_AND_ORGANIZATION ( #168, #244 ) ;
#95 = EDGE_CURVE ( 'NONE', #157, #14, #86, .T. ) ;
#96 = APPLICATION_PROTOCOL_DEFINITION ( 'international standard', 'config_control_design', 1994, #35 ) ;
#97 = ORIENTED_EDGE ( 'NONE', *, *, #110, .F. ) ;
#98 = EDGE_LOOP ( 'NONE', ( #4, #296, #97, #236 ) ) ;
#99 = CC_DESIGN_SECURITY_CLASSIFICATION ( #212, ( #15 ) ) ;
#100 = FACE_BOUND ( 'NONE', #190, .T. ) ;
#101 = APPROVAL_DATE_TIME ( #214, #85 ) ;
#102 = CARTESIAN_POINT ( 'NONE',  ( 0.000000000000000000, 0.000000000000000000, 8.000000000000000000 ) ) ;
#103 = VECTOR ( 'NONE', #267, 1000.000000000000000 ) ;
#104 = ADVANCED_FACE ( 'NONE', ( #109 ), #270, .F. ) ;
#105 = PRODUCT_DEFINITION ( 'UNKNOWN', '', #15, #17 ) ;
#106 = CARTESIAN_POINT ( 'NONE',  ( -12.00000000000000355, 5.000000000000001776, 0.000000000000000000 ) ) ;
#107 = LINE ( 'NONE', #106, #21 ) ;
#108 = CARTESIAN_POINT ( 'NONE',  ( 2.499999999999989786, 1.173523437775242009E-15, 8.000000000000000000 ) ) ;
#109 = FACE_OUTER_BOUND ( 'NONE', #221, .T. ) ;
#110 = EDGE_CURVE ( 'NONE', #22, #157, #247, .T. ) ;
#111 = DIRECTION ( 'NONE',  ( -0.000000000000000000, -0.000000000000000000, -1.000000000000000000 ) ) ;
#112 = CARTESIAN_POINT ( 'NONE',  ( -12.00000000000000355, 5.000000000000001776, 8.000000000000000000 ) ) ;
#113 = ORIENTED_EDGE ( 'NONE', *, *, #184, .T. ) ;
#114 = LINE ( 'NONE', #272, #305 ) ;
#115 = PERSON_AND_ORGANIZATION_ROLE ( 'design_owner' ) ;
#116 = VERTEX_POINT ( 'NONE', #63 ) ;
#117 = DIRECTION ( 'NONE',  ( 1.000000000000000000, 0.000000000000000000, 0.000000000000000000 ) ) ;
#118 = ORIENTED_EDGE ( 'NONE', *, *, #269, .F. ) ;
#119 = CARTESIAN_POINT ( 'NONE',  ( 11.99999999999999645, -4.999999999999998224, 0.000000000000000000 ) ) ;
#120 = PERSON_AND_ORGANIZATION ( #168, #244 ) ;
#121 = VERTEX_POINT ( 'NONE', #87 ) ;
#122 = CALENDAR_DATE ( 2026, 24, 8 ) ;
#123 = APPLICATION_CONTEXT ( 'configuration controlled 3d designs of mechanical parts and assemblies' ) ;
#124 = AXIS2_PLACEMENT_3D ( 'NONE', #273, #111, #149 ) ;
#125 = DIRECTION ( 'NONE',  ( 0.000000000000000000, 0.000000000000000000, 1.000000000000000000 ) ) ;
#126 = VECTOR ( 'NONE', #12, 1000.000000000000000 ) ;
#127 = DIRECTION ( 'NONE',  ( -3.469446951953614189E-16, -1.000000000000000000, 0.000000000000000000 ) ) ;
#128 = VECTOR ( 'NONE', #259, 1000.000000000000000 ) ;
#129 = CYLINDRICAL_SURFACE ( 'NONE', #124, 2.500000000000000000 ) ;
#130 = DIRECTION ( 'NONE',  ( -1.000000000000000000, -0.000000000000000000, -0.000000000000000000 ) ) ;
#131 = DIRECTION ( 'NONE',  ( -0.000000000000000000, 0.000000000000000000, -1.000000000000000000 ) ) ;
#132 = DIRECTION ( 'NONE',  ( 1.000000000000000000, 0.000000000000000000, -0.000000000000000000 ) ) ;
#133 = CARTESIAN_POINT ( 'NONE',  ( -1.040834085586084257E-14, 8.673617379884035472E-16, 8.000000000000000000 ) ) ;
#134 = ORIENTED_EDGE ( 'NONE', *, *, #110, .T. ) ;
#135 = COORDINATED_UNIVERSAL_TIME_OFFSET ( 5, 30, .AHEAD. ) ;
#136 = ORIENTED_EDGE ( 'NONE', *, *, #264, .F. ) ;
#137 = CC_DESIGN_PERSON_AND_ORGANIZATION_ASSIGNMENT ( #187, #48, ( #105 ) ) ;
#138 = LINE ( 'NONE', #233, #128 ) ;
#139 =( NAMED_UNIT ( * ) PLANE_ANGLE_UNIT ( ) SI_UNIT ( $, .RADIAN. ) );
#140 = CARTESIAN_POINT ( 'NONE',  ( -2.500000000000010658, 8.673617379884035472E-16, 8.000000000000000000 ) ) ;
#141 = APPROVAL_STATUS ( 'not_yet_approved' ) ;
#142 = DIRECTION ( 'NONE',  ( -0.000000000000000000, 0.000000000000000000, 1.000000000000000000 ) ) ;
#143 = CC_DESIGN_APPROVAL ( #250, ( #212 ) ) ;
#144 = CC_DESIGN_DATE_AND_TIME_ASSIGNMENT ( #18, #279, ( #105 ) ) ;
#145 = CARTESIAN_POINT ( 'NONE',  ( 12.00000000000000000, 5.000000000000001776, 8.000000000000000000 ) ) ;
#146 = CARTESIAN_POINT ( 'NONE',  ( -12.00000000000000355, 5.000000000000001776, 0.000000000000000000 ) ) ;
#147 = CARTESIAN_POINT ( 'NONE',  ( -12.00000000000000355, 5.000000000000001776, 8.000000000000000000 ) ) ;
#148 = CC_DESIGN_APPROVAL ( #85, ( #15 ) ) ;
#149 = DIRECTION ( 'NONE',  ( -1.000000000000000000, 0.000000000000000000, 0.000000000000000000 ) ) ;
#150 = CARTESIAN_POINT ( 'NONE',  ( -12.00000000000000355, 5.000000000000001776, 8.000000000000000000 ) ) ;
#151 = DIRECTION ( 'NONE',  ( -0.000000000000000000, -0.000000000000000000, -1.000000000000000000 ) ) ;
#152 = AXIS2_PLACEMENT_3D ( 'NONE', #102, #142, #80 ) ;
#153 = ORIENTED_EDGE ( 'NONE', *, *, #271, .F. ) ;
#154 = CARTESIAN_POINT ( 'NONE',  ( -12.00000000000000355, 5.000000000000001776, 8.000000000000000000 ) ) ;
#155 = CARTESIAN_POINT ( 'NONE',  ( 0.000000000000000000, 0.000000000000000000, 0.000000000000000000 ) ) ;
#156 = AXIS2_PLACEMENT_3D ( 'NONE', #133, #202, #198 ) ;
#157 = VERTEX_POINT ( 'NONE', #246 ) ;
#158 = APPROVAL ( #67, 'UNSPECIFIED' ) ;
#159 = APPROVAL_ROLE ( '' ) ;
#160 = VERTEX_POINT ( 'NONE', #199 ) ;
#161 = DIRECTION ( 'NONE',  ( 0.000000000000000000, 0.000000000000000000, 1.000000000000000000 ) ) ;
#162 = APPROVAL_DATE_TIME ( #46, #158 ) ;
#163 = EDGE_CURVE ( 'NONE', #160, #182, #295, .T. ) ;
#164 = FACE_OUTER_BOUND ( 'NONE', #40, .T. ) ;
#165 = AXIS2_PLACEMENT_3D ( 'NONE', #71, #218, #169 ) ;
#166 = APPROVAL_PERSON_ORGANIZATION ( #120, #158, #159 ) ;
#167 = AXIS2_PLACEMENT_3D ( 'NONE', #155, #249, #179 ) ;
#168 = PERSON ( 'UNSPECIFIED', 'UNSPECIFIED', 'UNSPECIFIED', ('UNSPECIFIED'), ('UNSPECIFIED'), ('UNSPECIFIED') ) ;
#169 = DIRECTION ( 'NONE',  ( 0.000000000000000000, -0.000000000000000000, 1.000000000000000000 ) ) ;
#170 =( GEOMETRIC_REPRESENTATION_CONTEXT ( 3 ) GLOBAL_UNCERTAINTY_ASSIGNED_CONTEXT ( ( #223 ) ) GLOBAL_UNIT_ASSIGNED_CONTEXT ( ( #256, #139, #13 ) ) REPRESENTATION_CONTEXT ( 'NONE', 'WORKASPACE' ) );
#171 = ORIENTED_EDGE ( 'NONE', *, *, #271, .T. ) ;
#172 = DIRECTION ( 'NONE',  ( 1.000000000000000000, 0.000000000000000000, 0.000000000000000000 ) ) ;
#173 = VECTOR ( 'NONE', #243, 1000.000000000000000 ) ;
#174 = CARTESIAN_POINT ( 'NONE',  ( -2.500000000000010658, 8.673617379884035472E-16, 8.000000000000000000 ) ) ;
#175 = CARTESIAN_POINT ( 'NONE',  ( -12.00000000000000355, -4.999999999999998224, 0.000000000000000000 ) ) ;
#176 = PRODUCT_DEFINITION_SHAPE ( 'NONE', 'NONE',  #105 ) ;
#177 = CARTESIAN_POINT ( 'NONE',  ( -12.00000000000000355, 5.000000000000001776, 0.000000000000000000 ) ) ;
#178 = ORIENTED_EDGE ( 'NONE', *, *, #56, .F. ) ;
#179 = DIRECTION ( 'NONE',  ( 1.000000000000000000, 0.000000000000000000, 0.000000000000000000 ) ) ;
#180 = AXIS2_PLACEMENT_3D ( 'NONE', #145, #82, #127 ) ;
#181 = CYLINDRICAL_SURFACE ( 'NONE', #156, 2.500000000000000000 ) ;
#182 = VERTEX_POINT ( 'NONE', #226 ) ;
#183 = COORDINATED_UNIVERSAL_TIME_OFFSET ( 5, 30, .AHEAD. ) ;
#184 = EDGE_CURVE ( 'NONE', #160, #121, #89, .T. ) ;
#185 = APPLICATION_PROTOCOL_DEFINITION ( 'international standard', 'config_control_design', 1994, #123 ) ;
#186 = CIRCLE ( 'NONE', #225, 2.500000000000000000 ) ;
#187 = PERSON_AND_ORGANIZATION ( #168, #244 ) ;
#188 = ORIENTED_EDGE ( 'NONE', *, *, #44, .T. ) ;
#189 = CARTESIAN_POINT ( 'NONE',  ( -1.040834085586084257E-14, 8.673617379884035472E-16, 8.000000000000000000 ) ) ;
#190 = EDGE_LOOP ( 'NONE', ( #11, #260 ) ) ;
#191 = PERSON_AND_ORGANIZATION_ROLE ( 'creator' ) ;
#192 = ORIENTED_EDGE ( 'NONE', *, *, #184, .F. ) ;
#193 = PERSON_AND_ORGANIZATION ( #168, #244 ) ;
#194 = AXIS2_PLACEMENT_3D ( 'NONE', #210, #161, #258 ) ;
#195 = DIRECTION ( 'NONE',  ( -1.000000000000000000, -0.000000000000000000, -0.000000000000000000 ) ) ;
#196 = APPROVAL_PERSON_ORGANIZATION ( #193, #250, #76 ) ;
#197 = FACE_OUTER_BOUND ( 'NONE', #20, .T. ) ;
#198 = DIRECTION ( 'NONE',  ( -1.000000000000000000, 0.000000000000000000, 0.000000000000000000 ) ) ;
#199 = CARTESIAN_POINT ( 'NONE',  ( 12.00000000000000000, 5.000000000000001776, 8.000000000000000000 ) ) ;
#200 = DIRECTION ( 'NONE',  ( 1.000000000000000000, 0.000000000000000000, 0.000000000000000000 ) ) ;
#201 = LINE ( 'NONE', #224, #79 ) ;
#202 = DIRECTION ( 'NONE',  ( -0.000000000000000000, -0.000000000000000000, -1.000000000000000000 ) ) ;
#203 = ORIENTED_EDGE ( 'NONE', *, *, #56, .T. ) ;
#204 = ADVANCED_FACE ( 'NONE', ( #274 ), #293, .F. ) ;
#205 = CALENDAR_DATE ( 2026, 24, 8 ) ;
#206 = LOCAL_TIME ( 20, 20, 30.00000000000000000, #231 ) ;
#207 = VERTEX_POINT ( 'NONE', #294 ) ;
#208 = ORIENTED_EDGE ( 'NONE', *, *, #308, .T. ) ;
#209 = PERSON_AND_ORGANIZATION ( #168, #244 ) ;
#210 = CARTESIAN_POINT ( 'NONE',  ( -1.040834085586084257E-14, 8.673617379884035472E-16, 8.000000000000000000 ) ) ;
#211 = CC_DESIGN_PERSON_AND_ORGANIZATION_ASSIGNMENT ( #209, #115, ( #8 ) ) ;
#212 = SECURITY_CLASSIFICATION ( '', '', #301 ) ;
#213 = ORIENTED_EDGE ( 'NONE', *, *, #69, .F. ) ;
#214 = DATE_AND_TIME ( #205, #288 ) ;
#215 = VERTEX_POINT ( 'NONE', #108 ) ;
#216 = COORDINATED_UNIVERSAL_TIME_OFFSET ( 5, 30, .AHEAD. ) ;
#217 = ADVANCED_FACE ( 'NONE', ( #32, #58 ), #9, .F. ) ;
#218 = DIRECTION ( 'NONE',  ( 0.000000000000000000, 1.000000000000000000, 0.000000000000000000 ) ) ;
#219 = ADVANCED_FACE ( 'NONE', ( #41 ), #129, .F. ) ;
#220 = VECTOR ( 'NONE', #61, 1000.000000000000000 ) ;
#221 = EDGE_LOOP ( 'NONE', ( #302, #153, #50, #113 ) ) ;
#222 = DIRECTION ( 'NONE',  ( 1.000000000000000000, 0.000000000000000000, 0.000000000000000000 ) ) ;
#223 = UNCERTAINTY_MEASURE_WITH_UNIT (LENGTH_MEASURE( 1.000000000000000082E-05 ), #256, 'distance_accuracy_value', 'NONE');
#224 = CARTESIAN_POINT ( 'NONE',  ( 12.00000000000000000, 5.000000000000001776, 0.000000000000000000 ) ) ;
#225 = AXIS2_PLACEMENT_3D ( 'NONE', #241, #125, #172 ) ;
#226 = CARTESIAN_POINT ( 'NONE',  ( -12.00000000000000355, 5.000000000000001776, 8.000000000000000000 ) ) ;
#227 = VECTOR ( 'NONE', #45, 1000.000000000000000 ) ;
#228 = DIRECTION ( 'NONE',  ( 3.469446951953614189E-16, 1.000000000000000000, -0.000000000000000000 ) ) ;
#229 = LINE ( 'NONE', #7, #126 ) ;
#230 = EDGE_CURVE ( 'NONE', #14, #121, #201, .T. ) ;
#231 = COORDINATED_UNIVERSAL_TIME_OFFSET ( 5, 30, .AHEAD. ) ;
#232 = EDGE_LOOP ( 'NONE', ( #134, #309, #213, #171 ) ) ;
#233 = CARTESIAN_POINT ( 'NONE',  ( -12.00000000000000355, -4.999999999999998224, 8.000000000000000000 ) ) ;
#234 = CALENDAR_DATE ( 2026, 24, 8 ) ;
#235 = EDGE_CURVE ( 'NONE', #52, #116, #300, .T. ) ;
#236 = ORIENTED_EDGE ( 'NONE', *, *, #53, .F. ) ;
#237 = VECTOR ( 'NONE', #130, 1000.000000000000000 ) ;
#238 = ORIENTED_EDGE ( 'NONE', *, *, #69, .T. ) ;
#239 = CARTESIAN_POINT ( 'NONE',  ( 0.000000000000000000, 0.000000000000000000, 0.000000000000000000 ) ) ;
#240 = ORIENTED_EDGE ( 'NONE', *, *, #235, .T. ) ;
#241 = CARTESIAN_POINT ( 'NONE',  ( -1.040834085586084257E-14, 8.673617379884035472E-16, 0.000000000000000000 ) ) ;
#242 = EDGE_LOOP ( 'NONE', ( #188, #62 ) ) ;
#243 = DIRECTION ( 'NONE',  ( 0.000000000000000000, -1.000000000000000000, 0.000000000000000000 ) ) ;
#244 = ORGANIZATION ( 'UNSPECIFIED', 'UNSPECIFIED', '' ) ;
#245 = FACE_OUTER_BOUND ( 'NONE', #252, .T. ) ;
#246 = CARTESIAN_POINT ( 'NONE',  ( -12.00000000000000355, -4.999999999999998224, 0.000000000000000000 ) ) ;
#247 = LINE ( 'NONE', #177, #220 ) ;
#248 = ORIENTED_EDGE ( 'NONE', *, *, #95, .T. ) ;
#249 = DIRECTION ( 'NONE',  ( -0.000000000000000000, 0.000000000000000000, 1.000000000000000000 ) ) ;
#250 = APPROVAL ( #311, 'UNSPECIFIED' ) ;
#251 = ADVANCED_BREP_SHAPE_REPRESENTATION ( 'back_Front_sldprt', ( #286, #291 ), #170 ) ;
#252 = EDGE_LOOP ( 'NONE', ( #88, #265, #68, #178 ) ) ;
#253 = PERSON_AND_ORGANIZATION ( #168, #244 ) ;
#254 = AXIS2_PLACEMENT_3D ( 'NONE', #150, #60, #6 ) ;
#255 = DIRECTION ( 'NONE',  ( 0.000000000000000000, 0.000000000000000000, 1.000000000000000000 ) ) ;
#256 =( LENGTH_UNIT ( ) NAMED_UNIT ( * ) SI_UNIT ( .MILLI., .METRE. ) );
#257 = CALENDAR_DATE ( 2026, 24, 8 ) ;
#258 = DIRECTION ( 'NONE',  ( 1.000000000000000000, 0.000000000000000000, 0.000000000000000000 ) ) ;
#259 = DIRECTION ( 'NONE',  ( -0.000000000000000000, -0.000000000000000000, -1.000000000000000000 ) ) ;
#260 = ORIENTED_EDGE ( 'NONE', *, *, #77, .F. ) ;
#261 = CIRCLE ( 'NONE', #75, 2.500000000000000000 ) ;
#262 = ADVANCED_FACE ( 'NONE', ( #245 ), #181, .F. ) ;
#263 = AXIS2_PLACEMENT_3D ( 'NONE', #285, #282, #54 ) ;
#264 = EDGE_CURVE ( 'NONE', #215, #207, #229, .T. ) ;
#265 = ORIENTED_EDGE ( 'NONE', *, *, #264, .T. ) ;
#266 = EDGE_LOOP ( 'NONE', ( #248, #118, #304, #208 ) ) ;
#267 = DIRECTION ( 'NONE',  ( -0.000000000000000000, -0.000000000000000000, -1.000000000000000000 ) ) ;
#268 = DIRECTION ( 'NONE',  ( -0.000000000000000000, -0.000000000000000000, -1.000000000000000000 ) ) ;
#269 = EDGE_CURVE ( 'NONE', #116, #14, #114, .T. ) ;
#270 = PLANE ( 'NONE',  #254 ) ;
#271 = EDGE_CURVE ( 'NONE', #182, #22, #83, .T. ) ;
#272 = CARTESIAN_POINT ( 'NONE',  ( 11.99999999999999645, -4.999999999999998224, 8.000000000000000000 ) ) ;
#273 = CARTESIAN_POINT ( 'NONE',  ( -1.040834085586084257E-14, 8.673617379884035472E-16, 8.000000000000000000 ) ) ;
#274 = FACE_OUTER_BOUND ( 'NONE', #232, .T. ) ;
#275 = VERTEX_POINT ( 'NONE', #174 ) ;
#276 = CALENDAR_DATE ( 2026, 24, 8 ) ;
#277 = EDGE_CURVE ( 'NONE', #116, #160, #10, .T. ) ;
#278 = ORIENTED_EDGE ( 'NONE', *, *, #163, .T. ) ;
#279 = DATE_TIME_ROLE ( 'creation_date' ) ;
#280 = EDGE_LOOP ( 'NONE', ( #136, #43, #203, #28 ) ) ;
#281 = DIRECTION ( 'NONE',  ( 1.000000000000000000, 0.000000000000000000, 0.000000000000000000 ) ) ;
#282 = DIRECTION ( 'NONE',  ( 0.000000000000000000, 0.000000000000000000, 1.000000000000000000 ) ) ;
#283 = PERSON_AND_ORGANIZATION ( #168, #244 ) ;
#284 = EDGE_CURVE ( 'NONE', #275, #215, #261, .T. ) ;
#285 = CARTESIAN_POINT ( 'NONE',  ( -1.040834085586084257E-14, 8.673617379884035472E-16, 0.000000000000000000 ) ) ;
#286 = MANIFOLD_SOLID_BREP ( 'Boss-Extrude1', #3 ) ;
#287 = DATE_AND_TIME ( #122, #64 ) ;
#288 = LOCAL_TIME ( 20, 20, 30.00000000000000000, #25 ) ;
#289 = APPROVAL_DATE_TIME ( #287, #250 ) ;
#290 = LINE ( 'NONE', #140, #103 ) ;
#291 = AXIS2_PLACEMENT_3D ( 'NONE', #239, #72, #117 ) ;
#292 = PLANE ( 'NONE',  #180 ) ;
#293 = PLANE ( 'NONE',  #303 ) ;
#294 = CARTESIAN_POINT ( 'NONE',  ( 2.499999999999989786, 1.173523437775242009E-15, 0.000000000000000000 ) ) ;
#295 = LINE ( 'NONE', #112, #237 ) ;
#296 = ORIENTED_EDGE ( 'NONE', *, *, #95, .F. ) ;
#297 = CC_DESIGN_PERSON_AND_ORGANIZATION_ASSIGNMENT ( #283, #74, ( #15 ) ) ;
#298 = CARTESIAN_POINT ( 'NONE',  ( 12.00000000000000000, 5.000000000000001776, 8.000000000000000000 ) ) ;
#299 = VECTOR ( 'NONE', #222, 1000.000000000000000 ) ;
#300 = LINE ( 'NONE', #38, #27 ) ;
#301 = SECURITY_CLASSIFICATION_LEVEL ( 'unclassified' ) ;
#302 = ORIENTED_EDGE ( 'NONE', *, *, #53, .T. ) ;
#303 = AXIS2_PLACEMENT_3D ( 'NONE', #154, #132, #131 ) ;
#304 = ORIENTED_EDGE ( 'NONE', *, *, #235, .F. ) ;
#305 = VECTOR ( 'NONE', #151, 1000.000000000000000 ) ;
#306 = MECHANICAL_CONTEXT ( 'NONE', #35, 'mechanical' ) ;
#307 = ORIENTED_EDGE ( 'NONE', *, *, #230, .T. ) ;
#308 = EDGE_CURVE ( 'NONE', #52, #157, #138, .T. ) ;
#309 = ORIENTED_EDGE ( 'NONE', *, *, #308, .F. ) ;
#310 = SHAPE_DEFINITION_REPRESENTATION ( #176, #251 ) ;
#311 = APPROVAL_STATUS ( 'not_yet_approved' ) ;
ENDSEC;
END-ISO-10303-21;
