ISO-10303-21;
HEADER;
FILE_DESCRIPTION (( 'STEP AP203' ),
    '1' );
FILE_NAME ('Cameraside1_Default_sldprt.STEP',
    '2026-08-24T14:50:17',
    ( '' ),
    ( '' ),
    'SwSTEP 2.0',
    'SolidWorks 2020',
    '' );
FILE_SCHEMA (( 'CONFIG_CONTROL_DESIGN' ));
ENDSEC;

DATA;
#1 = CALENDAR_DATE ( 2026, 24, 8 ) ;
#2 = PERSON_AND_ORGANIZATION ( #50, #209 ) ;
#3 = APPROVAL ( #188, 'UNSPECIFIED' ) ;
#4 = ORIENTED_EDGE ( 'NONE', *, *, #106, .T. ) ;
#5 = VERTEX_POINT ( 'NONE', #212 ) ;
#6 = PLANE ( 'NONE',  #189 ) ;
#7 = EDGE_CURVE ( 'NONE', #153, #195, #229, .T. ) ;
#8 = VERTEX_POINT ( 'NONE', #171 ) ;
#9 = ADVANCED_FACE ( 'NONE', ( #234 ), #6, .F. ) ;
#10 = DIRECTION ( 'NONE',  ( 0.000000000000000000, -1.000000000000000000, 0.000000000000000000 ) ) ;
#11 = CARTESIAN_POINT ( 'NONE',  ( -4.999999999999993783, 8.999999999999992895, 5.000000000000000000 ) ) ;
#12 = VECTOR ( 'NONE', #126, 1000.000000000000000 ) ;
#13 = DIRECTION ( 'NONE',  ( -0.000000000000000000, -0.000000000000000000, -1.000000000000000000 ) ) ;
#14 = LINE ( 'NONE', #157, #168 ) ;
#15 = LOCAL_TIME ( 20, 20, 17.00000000000000000, #118 ) ;
#16 = DATE_AND_TIME ( #94, #15 ) ;
#17 =( NAMED_UNIT ( * ) SI_UNIT ( $, .STERADIAN. ) SOLID_ANGLE_UNIT ( ) );
#18 = ADVANCED_FACE ( 'NONE', ( #67 ), #136, .F. ) ;
#19 = ORIENTED_EDGE ( 'NONE', *, *, #200, .T. ) ;
#20 = APPROVAL_ROLE ( '' ) ;
#21 = ORIENTED_EDGE ( 'NONE', *, *, #226, .F. ) ;
#22 = ORIENTED_EDGE ( 'NONE', *, *, #181, .F. ) ;
#23 = VECTOR ( 'NONE', #140, 1000.000000000000000 ) ;
#24 = CC_DESIGN_APPROVAL ( #175, ( #86 ) ) ;
#25 = DIRECTION ( 'NONE',  ( 0.000000000000000000, -0.000000000000000000, -1.000000000000000000 ) ) ;
#26 = DIRECTION ( 'NONE',  ( 0.000000000000000000, -0.000000000000000000, 1.000000000000000000 ) ) ;
#27 = LINE ( 'NONE', #75, #57 ) ;
#28 = AXIS2_PLACEMENT_3D ( 'NONE', #88, #30, #205 ) ;
#29 = EDGE_CURVE ( 'NONE', #87, #215, #103, .T. ) ;
#30 = DIRECTION ( 'NONE',  ( -0.000000000000000000, 0.000000000000000000, 1.000000000000000000 ) ) ;
#31 = PRODUCT ( 'Cameraside1_Default_sldprt', 'Cameraside1_Default_sldprt', '', ( #81 ) ) ;
#32 = PLANE ( 'NONE',  #52 ) ;
#33 = DATE_AND_TIME ( #187, #91 ) ;
#34 = CC_DESIGN_DATE_AND_TIME_ASSIGNMENT ( #33, #211, ( #86 ) ) ;
#35 = APPROVAL_DATE_TIME ( #147, #158 ) ;
#36 = DATE_TIME_ROLE ( 'classification_date' ) ;
#37 = APPROVAL_PERSON_ORGANIZATION ( #227, #3, #20 ) ;
#38 = ORIENTED_EDGE ( 'NONE', *, *, #200, .F. ) ;
#39 = DATE_AND_TIME ( #93, #120 ) ;
#40 = ORIENTED_EDGE ( 'NONE', *, *, #51, .F. ) ;
#41 = PERSON_AND_ORGANIZATION_ROLE ( 'design_owner' ) ;
#42 = CC_DESIGN_PERSON_AND_ORGANIZATION_ASSIGNMENT ( #61, #207, ( #95 ) ) ;
#43 = ORIENTED_EDGE ( 'NONE', *, *, #181, .T. ) ;
#44 = AXIS2_PLACEMENT_3D ( 'NONE', #142, #186, #26 ) ;
#45 = CARTESIAN_POINT ( 'NONE',  ( -4.999999999999993783, 8.999999999999992895, 5.000000000000000000 ) ) ;
#46 = EDGE_CURVE ( 'NONE', #8, #153, #127, .T. ) ;
#47 = LINE ( 'NONE', #55, #108 ) ;
#48 = DIRECTION ( 'NONE',  ( -1.000000000000000000, -0.000000000000000000, -0.000000000000000000 ) ) ;
#49 = LOCAL_TIME ( 20, 20, 17.00000000000000000, #228 ) ;
#50 = PERSON ( 'UNSPECIFIED', 'UNSPECIFIED', 'UNSPECIFIED', ('UNSPECIFIED'), ('UNSPECIFIED'), ('UNSPECIFIED') ) ;
#51 = EDGE_CURVE ( 'NONE', #215, #115, #92, .T. ) ;
#52 = AXIS2_PLACEMENT_3D ( 'NONE', #109, #159, #184 ) ;
#53 =( LENGTH_UNIT ( ) NAMED_UNIT ( * ) SI_UNIT ( .MILLI., .METRE. ) );
#54 = CARTESIAN_POINT ( 'NONE',  ( -4.999999999999993783, -9.000000000000005329, 0.000000000000000000 ) ) ;
#55 = CARTESIAN_POINT ( 'NONE',  ( -4.999999999999993783, -9.000000000000005329, 5.000000000000000000 ) ) ;
#56 = APPLICATION_PROTOCOL_DEFINITION ( 'international standard', 'config_control_design', 1994, #123 ) ;
#57 = VECTOR ( 'NONE', #144, 1000.000000000000000 ) ;
#58 = SHAPE_DEFINITION_REPRESENTATION ( #167, #182 ) ;
#59 = DIRECTION ( 'NONE',  ( 1.000000000000000000, 0.000000000000000000, 0.000000000000000000 ) ) ;
#60 = ORIENTED_EDGE ( 'NONE', *, *, #51, .T. ) ;
#61 = PERSON_AND_ORGANIZATION ( #50, #209 ) ;
#62 = ORIENTED_EDGE ( 'NONE', *, *, #139, .T. ) ;
#63 = PERSON_AND_ORGANIZATION_ROLE ( 'creator' ) ;
#64 = EDGE_LOOP ( 'NONE', ( #170, #82, #214, #60 ) ) ;
#65 = DIRECTION ( 'NONE',  ( 4.818676322157798854E-17, -1.000000000000000000, 0.000000000000000000 ) ) ;
#66 = APPLICATION_CONTEXT ( 'configuration controlled 3d designs of mechanical parts and assemblies' ) ;
#67 = FACE_OUTER_BOUND ( 'NONE', #174, .T. ) ;
#68 = ADVANCED_FACE ( 'NONE', ( #217 ), #71, .F. ) ;
#69 = VECTOR ( 'NONE', #48, 1000.000000000000000 ) ;
#70 = DESIGN_CONTEXT ( 'detailed design', #66, 'design' ) ;
#71 = PLANE ( 'NONE',  #44 ) ;
#72 = CARTESIAN_POINT ( 'NONE',  ( 5.000000000000000888, -9.000000000000005329, 5.000000000000000000 ) ) ;
#73 = CARTESIAN_POINT ( 'NONE',  ( -4.999999999999993783, -9.000000000000005329, 5.000000000000000000 ) ) ;
#74 = CLOSED_SHELL ( 'NONE', ( #9, #18, #220, #68, #97, #80 ) ) ;
#75 = CARTESIAN_POINT ( 'NONE',  ( -4.999999999999993783, 8.999999999999992895, 5.000000000000000000 ) ) ;
#76 = PLANE ( 'NONE',  #201 ) ;
#77 = EDGE_CURVE ( 'NONE', #208, #8, #89, .T. ) ;
#78 = CALENDAR_DATE ( 2026, 24, 8 ) ;
#79 = APPROVAL_DATE_TIME ( #113, #3 ) ;
#80 = ADVANCED_FACE ( 'NONE', ( #179 ), #32, .F. ) ;
#81 = MECHANICAL_CONTEXT ( 'NONE', #123, 'mechanical' ) ;
#82 = ORIENTED_EDGE ( 'NONE', *, *, #226, .T. ) ;
#83 = COORDINATED_UNIVERSAL_TIME_OFFSET ( 5, 30, .AHEAD. ) ;
#84 = ORIENTED_EDGE ( 'NONE', *, *, #137, .F. ) ;
#85 = ORIENTED_EDGE ( 'NONE', *, *, #77, .T. ) ;
#86 = PRODUCT_DEFINITION ( 'UNKNOWN', '', #180, #70 ) ;
#87 = VERTEX_POINT ( 'NONE', #236 ) ;
#88 = CARTESIAN_POINT ( 'NONE',  ( 0.000000000000000000, 0.000000000000000000, 5.000000000000000000 ) ) ;
#89 = LINE ( 'NONE', #128, #69 ) ;
#90 = CARTESIAN_POINT ( 'NONE',  ( 5.000000000000000000, 8.999999999999992895, 0.000000000000000000 ) ) ;
#91 = LOCAL_TIME ( 20, 20, 17.00000000000000000, #191 ) ;
#92 = LINE ( 'NONE', #73, #12 ) ;
#93 = CALENDAR_DATE ( 2026, 24, 8 ) ;
#94 = CALENDAR_DATE ( 2026, 24, 8 ) ;
#95 = SECURITY_CLASSIFICATION ( '', '', #151 ) ;
#96 = PERSON_AND_ORGANIZATION_ROLE ( 'creator' ) ;
#97 = ADVANCED_FACE ( 'NONE', ( #104 ), #183, .T. ) ;
#98 = ORIENTED_EDGE ( 'NONE', *, *, #137, .T. ) ;
#99 = APPROVAL_STATUS ( 'not_yet_approved' ) ;
#100 = CARTESIAN_POINT ( 'NONE',  ( -4.999999999999993783, -9.000000000000005329, 0.000000000000000000 ) ) ;
#101 = DIRECTION ( 'NONE',  ( 1.000000000000000000, 0.000000000000000000, 0.000000000000000000 ) ) ;
#102 = ORIENTED_EDGE ( 'NONE', *, *, #46, .T. ) ;
#103 = LINE ( 'NONE', #176, #161 ) ;
#104 = FACE_OUTER_BOUND ( 'NONE', #64, .T. ) ;
#105 = LINE ( 'NONE', #145, #152 ) ;
#106 = EDGE_CURVE ( 'NONE', #195, #208, #14, .T. ) ;
#107 = DIRECTION ( 'NONE',  ( -0.000000000000000000, 0.000000000000000000, -1.000000000000000000 ) ) ;
#108 = VECTOR ( 'NONE', #13, 1000.000000000000000 ) ;
#109 = CARTESIAN_POINT ( 'NONE',  ( 0.000000000000000000, 0.000000000000000000, 0.000000000000000000 ) ) ;
#110 = PERSON_AND_ORGANIZATION ( #50, #209 ) ;
#111 = CARTESIAN_POINT ( 'NONE',  ( 0.000000000000000000, 0.000000000000000000, 0.000000000000000000 ) ) ;
#112 = PRODUCT_RELATED_PRODUCT_CATEGORY ( 'detail', '', ( #31 ) ) ;
#113 = DATE_AND_TIME ( #1, #49 ) ;
#114 = APPROVAL_PERSON_ORGANIZATION ( #231, #175, #213 ) ;
#115 = VERTEX_POINT ( 'NONE', #72 ) ;
#116 = APPROVAL_DATE_TIME ( #16, #175 ) ;
#117 = EDGE_LOOP ( 'NONE', ( #4, #84, #119, #62 ) ) ;
#118 = COORDINATED_UNIVERSAL_TIME_OFFSET ( 5, 30, .AHEAD. ) ;
#119 = ORIENTED_EDGE ( 'NONE', *, *, #206, .F. ) ;
#120 = LOCAL_TIME ( 20, 20, 17.00000000000000000, #83 ) ;
#121 = ORIENTED_EDGE ( 'NONE', *, *, #46, .F. ) ;
#122 = LINE ( 'NONE', #222, #129 ) ;
#123 = APPLICATION_CONTEXT ( 'configuration controlled 3d designs of mechanical parts and assemblies' ) ;
#124 = CARTESIAN_POINT ( 'NONE',  ( 5.000000000000000888, -9.000000000000005329, 5.000000000000000000 ) ) ;
#125 = CC_DESIGN_PERSON_AND_ORGANIZATION_ASSIGNMENT ( #225, #41, ( #31 ) ) ;
#126 = DIRECTION ( 'NONE',  ( 1.000000000000000000, 0.000000000000000000, 0.000000000000000000 ) ) ;
#127 = LINE ( 'NONE', #198, #23 ) ;
#128 = CARTESIAN_POINT ( 'NONE',  ( -4.999999999999993783, 8.999999999999992895, 0.000000000000000000 ) ) ;
#129 = VECTOR ( 'NONE', #203, 1000.000000000000000 ) ;
#130 = PERSON_AND_ORGANIZATION_ROLE ( 'design_supplier' ) ;
#131 = ORIENTED_EDGE ( 'NONE', *, *, #29, .F. ) ;
#132 = LOCAL_TIME ( 20, 20, 17.00000000000000000, #166 ) ;
#133 = ORIENTED_EDGE ( 'NONE', *, *, #77, .F. ) ;
#134 = PERSON_AND_ORGANIZATION ( #50, #209 ) ;
#135 = ORIENTED_EDGE ( 'NONE', *, *, #7, .T. ) ;
#136 = PLANE ( 'NONE',  #162 ) ;
#137 = EDGE_CURVE ( 'NONE', #5, #208, #223, .T. ) ;
#138 = DIRECTION ( 'NONE',  ( -0.000000000000000000, -0.000000000000000000, -1.000000000000000000 ) ) ;
#139 = EDGE_CURVE ( 'NONE', #115, #195, #219, .T. ) ;
#140 = DIRECTION ( 'NONE',  ( 0.000000000000000000, -1.000000000000000000, 0.000000000000000000 ) ) ;
#141 = MANIFOLD_SOLID_BREP ( 'Boss-Extrude1', #74 ) ;
#142 = CARTESIAN_POINT ( 'NONE',  ( -4.999999999999993783, -9.000000000000005329, 5.000000000000000000 ) ) ;
#143 = CC_DESIGN_APPROVAL ( #158, ( #95 ) ) ;
#144 = DIRECTION ( 'NONE',  ( -0.000000000000000000, -0.000000000000000000, -1.000000000000000000 ) ) ;
#145 = CARTESIAN_POINT ( 'NONE',  ( -4.999999999999993783, 8.999999999999992895, 5.000000000000000000 ) ) ;
#146 = VECTOR ( 'NONE', #164, 1000.000000000000000 ) ;
#147 = DATE_AND_TIME ( #78, #132 ) ;
#148 = APPLICATION_PROTOCOL_DEFINITION ( 'international standard', 'config_control_design', 1994, #66 ) ;
#149 = PERSON_AND_ORGANIZATION ( #50, #209 ) ;
#150 = EDGE_LOOP ( 'NONE', ( #135, #173, #40, #43 ) ) ;
#151 = SECURITY_CLASSIFICATION_LEVEL ( 'unclassified' ) ;
#152 = VECTOR ( 'NONE', #237, 1000.000000000000000 ) ;
#153 = VERTEX_POINT ( 'NONE', #54 ) ;
#154 = CC_DESIGN_DATE_AND_TIME_ASSIGNMENT ( #39, #36, ( #95 ) ) ;
#155 = CARTESIAN_POINT ( 'NONE',  ( 5.000000000000000000, 8.999999999999992895, 5.000000000000000000 ) ) ;
#156 = ORIENTED_EDGE ( 'NONE', *, *, #106, .F. ) ;
#157 = CARTESIAN_POINT ( 'NONE',  ( 5.000000000000000000, 8.999999999999992895, 0.000000000000000000 ) ) ;
#158 = APPROVAL ( #99, 'UNSPECIFIED' ) ;
#159 = DIRECTION ( 'NONE',  ( -0.000000000000000000, 0.000000000000000000, 1.000000000000000000 ) ) ;
#160 = DIRECTION ( 'NONE',  ( 1.000000000000000000, 0.000000000000000000, -0.000000000000000000 ) ) ;
#161 = VECTOR ( 'NONE', #10, 1000.000000000000000 ) ;
#162 = AXIS2_PLACEMENT_3D ( 'NONE', #45, #197, #25 ) ;
#163 =( NAMED_UNIT ( * ) PLANE_ANGLE_UNIT ( ) SI_UNIT ( $, .RADIAN. ) );
#164 = DIRECTION ( 'NONE',  ( -0.000000000000000000, -0.000000000000000000, -1.000000000000000000 ) ) ;
#165 = APPROVAL_STATUS ( 'not_yet_approved' ) ;
#166 = COORDINATED_UNIVERSAL_TIME_OFFSET ( 5, 30, .AHEAD. ) ;
#167 = PRODUCT_DEFINITION_SHAPE ( 'NONE', 'NONE',  #86 ) ;
#168 = VECTOR ( 'NONE', #235, 1000.000000000000000 ) ;
#169 = DIRECTION ( 'NONE',  ( 0.000000000000000000, 0.000000000000000000, 1.000000000000000000 ) ) ;
#170 = ORIENTED_EDGE ( 'NONE', *, *, #206, .T. ) ;
#171 = CARTESIAN_POINT ( 'NONE',  ( -4.999999999999993783, 8.999999999999992895, 0.000000000000000000 ) ) ;
#172 = CC_DESIGN_PERSON_AND_ORGANIZATION_ASSIGNMENT ( #2, #96, ( #86 ) ) ;
#173 = ORIENTED_EDGE ( 'NONE', *, *, #139, .F. ) ;
#174 = EDGE_LOOP ( 'NONE', ( #85, #38, #21, #98 ) ) ;
#175 = APPROVAL ( #165, 'UNSPECIFIED' ) ;
#176 = CARTESIAN_POINT ( 'NONE',  ( -4.999999999999993783, 8.999999999999992895, 5.000000000000000000 ) ) ;
#177 = VECTOR ( 'NONE', #138, 1000.000000000000000 ) ;
#178 = CARTESIAN_POINT ( 'NONE',  ( 5.000000000000000000, 8.999999999999992895, 5.000000000000000000 ) ) ;
#179 = FACE_OUTER_BOUND ( 'NONE', #193, .T. ) ;
#180 = PRODUCT_DEFINITION_FORMATION_WITH_SPECIFIED_SOURCE ( 'ANY', '', #31, .NOT_KNOWN. ) ;
#181 = EDGE_CURVE ( 'NONE', #215, #153, #47, .T. ) ;
#182 = ADVANCED_BREP_SHAPE_REPRESENTATION ( 'Cameraside1_Default_sldprt', ( #141, #221 ), #194 ) ;
#183 = PLANE ( 'NONE',  #28 ) ;
#184 = DIRECTION ( 'NONE',  ( 1.000000000000000000, 0.000000000000000000, 0.000000000000000000 ) ) ;
#185 = APPROVAL_PERSON_ORGANIZATION ( #110, #158, #190 ) ;
#186 = DIRECTION ( 'NONE',  ( 0.000000000000000000, 1.000000000000000000, 0.000000000000000000 ) ) ;
#187 = CALENDAR_DATE ( 2026, 24, 8 ) ;
#188 = APPROVAL_STATUS ( 'not_yet_approved' ) ;
#189 = AXIS2_PLACEMENT_3D ( 'NONE', #155, #233, #65 ) ;
#190 = APPROVAL_ROLE ( '' ) ;
#191 = COORDINATED_UNIVERSAL_TIME_OFFSET ( 5, 30, .AHEAD. ) ;
#192 = ORIENTED_EDGE ( 'NONE', *, *, #7, .F. ) ;
#193 = EDGE_LOOP ( 'NONE', ( #156, #192, #121, #133 ) ) ;
#194 =( GEOMETRIC_REPRESENTATION_CONTEXT ( 3 ) GLOBAL_UNCERTAINTY_ASSIGNED_CONTEXT ( ( #196 ) ) GLOBAL_UNIT_ASSIGNED_CONTEXT ( ( #53, #163, #17 ) ) REPRESENTATION_CONTEXT ( 'NONE', 'WORKASPACE' ) );
#195 = VERTEX_POINT ( 'NONE', #216 ) ;
#196 = UNCERTAINTY_MEASURE_WITH_UNIT (LENGTH_MEASURE( 1.000000000000000082E-05 ), #53, 'distance_accuracy_value', 'NONE');
#197 = DIRECTION ( 'NONE',  ( 0.000000000000000000, -1.000000000000000000, 0.000000000000000000 ) ) ;
#198 = CARTESIAN_POINT ( 'NONE',  ( -4.999999999999993783, 8.999999999999992895, 0.000000000000000000 ) ) ;
#199 = CARTESIAN_POINT ( 'NONE',  ( -4.999999999999993783, -9.000000000000005329, 5.000000000000000000 ) ) ;
#200 = EDGE_CURVE ( 'NONE', #87, #8, #27, .T. ) ;
#201 = AXIS2_PLACEMENT_3D ( 'NONE', #11, #160, #107 ) ;
#202 = CC_DESIGN_PERSON_AND_ORGANIZATION_ASSIGNMENT ( #149, #130, ( #180 ) ) ;
#203 = DIRECTION ( 'NONE',  ( -4.818676322157798854E-17, 1.000000000000000000, -0.000000000000000000 ) ) ;
#204 = FACE_OUTER_BOUND ( 'NONE', #232, .T. ) ;
#205 = DIRECTION ( 'NONE',  ( 1.000000000000000000, 0.000000000000000000, 0.000000000000000000 ) ) ;
#206 = EDGE_CURVE ( 'NONE', #115, #5, #122, .T. ) ;
#207 = PERSON_AND_ORGANIZATION_ROLE ( 'classification_officer' ) ;
#208 = VERTEX_POINT ( 'NONE', #90 ) ;
#209 = ORGANIZATION ( 'UNSPECIFIED', 'UNSPECIFIED', '' ) ;
#210 = CC_DESIGN_PERSON_AND_ORGANIZATION_ASSIGNMENT ( #134, #63, ( #180 ) ) ;
#211 = DATE_TIME_ROLE ( 'creation_date' ) ;
#212 = CARTESIAN_POINT ( 'NONE',  ( 5.000000000000000000, 8.999999999999992895, 5.000000000000000000 ) ) ;
#213 = APPROVAL_ROLE ( '' ) ;
#214 = ORIENTED_EDGE ( 'NONE', *, *, #29, .T. ) ;
#215 = VERTEX_POINT ( 'NONE', #199 ) ;
#216 = CARTESIAN_POINT ( 'NONE',  ( 5.000000000000000888, -9.000000000000005329, 0.000000000000000000 ) ) ;
#217 = FACE_OUTER_BOUND ( 'NONE', #150, .T. ) ;
#218 = CC_DESIGN_SECURITY_CLASSIFICATION ( #95, ( #180 ) ) ;
#219 = LINE ( 'NONE', #124, #146 ) ;
#220 = ADVANCED_FACE ( 'NONE', ( #204 ), #76, .F. ) ;
#221 = AXIS2_PLACEMENT_3D ( 'NONE', #111, #169, #59 ) ;
#222 = CARTESIAN_POINT ( 'NONE',  ( 5.000000000000000000, 8.999999999999992895, 5.000000000000000000 ) ) ;
#223 = LINE ( 'NONE', #178, #177 ) ;
#224 = CC_DESIGN_APPROVAL ( #3, ( #180 ) ) ;
#225 = PERSON_AND_ORGANIZATION ( #50, #209 ) ;
#226 = EDGE_CURVE ( 'NONE', #5, #87, #105, .T. ) ;
#227 = PERSON_AND_ORGANIZATION ( #50, #209 ) ;
#228 = COORDINATED_UNIVERSAL_TIME_OFFSET ( 5, 30, .AHEAD. ) ;
#229 = LINE ( 'NONE', #100, #230 ) ;
#230 = VECTOR ( 'NONE', #101, 1000.000000000000000 ) ;
#231 = PERSON_AND_ORGANIZATION ( #50, #209 ) ;
#232 = EDGE_LOOP ( 'NONE', ( #102, #22, #131, #19 ) ) ;
#233 = DIRECTION ( 'NONE',  ( -1.000000000000000000, -4.818676322157798854E-17, 0.000000000000000000 ) ) ;
#234 = FACE_OUTER_BOUND ( 'NONE', #117, .T. ) ;
#235 = DIRECTION ( 'NONE',  ( -4.818676322157798854E-17, 1.000000000000000000, -0.000000000000000000 ) ) ;
#236 = CARTESIAN_POINT ( 'NONE',  ( -4.999999999999993783, 8.999999999999992895, 5.000000000000000000 ) ) ;
#237 = DIRECTION ( 'NONE',  ( -1.000000000000000000, -0.000000000000000000, -0.000000000000000000 ) ) ;
ENDSEC;
END-ISO-10303-21;
