ISO-10303-21;
HEADER;
FILE_DESCRIPTION (( 'STEP AP203' ),
    '1' );
FILE_NAME ('Cameraside2_Default_sldprt.STEP',
    '2026-08-24T14:50:19',
    ( '' ),
    ( '' ),
    'SwSTEP 2.0',
    'SolidWorks 2020',
    '' );
FILE_SCHEMA (( 'CONFIG_CONTROL_DESIGN' ));
ENDSEC;

DATA;
#1 = CARTESIAN_POINT ( 'NONE',  ( 17.49999999999999645, -14.99999999999999822, 2.000000000000000000 ) ) ;
#2 = ORIENTED_EDGE ( 'NONE', *, *, #309, .T. ) ;
#3 = CARTESIAN_POINT ( 'NONE',  ( -17.50000000000000711, -14.99999999999999822, 2.000000000000000000 ) ) ;
#4 = DIRECTION ( 'NONE',  ( 1.000000000000000000, 0.000000000000000000, 0.000000000000000000 ) ) ;
#5 = CARTESIAN_POINT ( 'NONE',  ( 17.49999999999999645, -14.99999999999999822, 2.000000000000000000 ) ) ;
#6 = CIRCLE ( 'NONE', #101, 1.230000000000000204 ) ;
#7 = CARTESIAN_POINT ( 'NONE',  ( -17.50000000000000711, -14.99999999999999822, 0.000000000000000000 ) ) ;
#8 = DIRECTION ( 'NONE',  ( 0.000000000000000000, -0.000000000000000000, 1.000000000000000000 ) ) ;
#9 = EDGE_LOOP ( 'NONE', ( #2, #271, #186, #69 ) ) ;
#10 = EDGE_CURVE ( 'NONE', #168, #249, #215, .T. ) ;
#11 = CALENDAR_DATE ( 2026, 24, 8 ) ;
#12 = VECTOR ( 'NONE', #310, 1000.000000000000000 ) ;
#13 = APPROVAL_PERSON_ORGANIZATION ( #15, #292, #179 ) ;
#14 = EDGE_CURVE ( 'NONE', #23, #199, #311, .T. ) ;
#15 = PERSON_AND_ORGANIZATION ( #185, #248 ) ;
#16 = CC_DESIGN_DATE_AND_TIME_ASSIGNMENT ( #253, #108, ( #95 ) ) ;
#17 = ORIENTED_EDGE ( 'NONE', *, *, #141, .F. ) ;
#18 = PERSON_AND_ORGANIZATION ( #185, #248 ) ;
#19 = LINE ( 'NONE', #287, #12 ) ;
#20 = PERSON_AND_ORGANIZATION_ROLE ( 'creator' ) ;
#21 = DIRECTION ( 'NONE',  ( -1.000000000000000000, 0.000000000000000000, 0.000000000000000000 ) ) ;
#22 = ORIENTED_EDGE ( 'NONE', *, *, #67, .T. ) ;
#23 = VERTEX_POINT ( 'NONE', #234 ) ;
#24 = ADVANCED_FACE ( 'NONE', ( #92 ), #192, .F. ) ;
#25 = DIRECTION ( 'NONE',  ( 1.000000000000000000, 0.000000000000000000, 0.000000000000000000 ) ) ;
#26 = VECTOR ( 'NONE', #25, 1000.000000000000000 ) ;
#27 = LOCAL_TIME ( 20, 20, 19.00000000000000000, #58 ) ;
#28 = DIRECTION ( 'NONE',  ( 0.000000000000000000, 1.000000000000000000, 0.000000000000000000 ) ) ;
#29 = PLANE ( 'NONE',  #197 ) ;
#30 = DIRECTION ( 'NONE',  ( 0.000000000000000000, -0.000000000000000000, -1.000000000000000000 ) ) ;
#31 = CARTESIAN_POINT ( 'NONE',  ( -17.50000000000000711, 15.00000000000000178, 0.000000000000000000 ) ) ;
#32 = UNCERTAINTY_MEASURE_WITH_UNIT (LENGTH_MEASURE( 1.000000000000000082E-05 ), #165, 'distance_accuracy_value', 'NONE');
#33 = APPLICATION_CONTEXT ( 'configuration controlled 3d designs of mechanical parts and assemblies' ) ;
#34 = ADVANCED_FACE ( 'NONE', ( #115 ), #65, .F. ) ;
#35 = SECURITY_CLASSIFICATION_LEVEL ( 'unclassified' ) ;
#36 = ORIENTED_EDGE ( 'NONE', *, *, #14, .F. ) ;
#37 = VECTOR ( 'NONE', #63, 1000.000000000000000 ) ;
#38 = VERTEX_POINT ( 'NONE', #217 ) ;
#39 =( NAMED_UNIT ( * ) SI_UNIT ( $, .STERADIAN. ) SOLID_ANGLE_UNIT ( ) );
#40 = CARTESIAN_POINT ( 'NONE',  ( 13.49999999999999467, -10.99999999999999822, 0.000000000000000000 ) ) ;
#41 = DIRECTION ( 'NONE',  ( -0.000000000000000000, -0.000000000000000000, -1.000000000000000000 ) ) ;
#42 = AXIS2_PLACEMENT_3D ( 'NONE', #242, #263, #209 ) ;
#43 = SECURITY_CLASSIFICATION ( '', '', #35 ) ;
#44 = DIRECTION ( 'NONE',  ( -0.000000000000000000, -0.000000000000000000, -1.000000000000000000 ) ) ;
#45 = VECTOR ( 'NONE', #100, 1000.000000000000000 ) ;
#46 = FACE_OUTER_BOUND ( 'NONE', #162, .T. ) ;
#47 = FACE_BOUND ( 'NONE', #277, .T. ) ;
#48 = LINE ( 'NONE', #196, #90 ) ;
#49 = CIRCLE ( 'NONE', #188, 1.230000000000000204 ) ;
#50 = CARTESIAN_POINT ( 'NONE',  ( -17.50000000000000711, 15.00000000000000178, 2.000000000000000000 ) ) ;
#51 = CARTESIAN_POINT ( 'NONE',  ( 14.72999999999999510, -10.99999999999999822, 2.000000000000000000 ) ) ;
#52 = ORIENTED_EDGE ( 'NONE', *, *, #76, .F. ) ;
#53 = DIRECTION ( 'NONE',  ( 1.000000000000000000, 0.000000000000000000, 0.000000000000000000 ) ) ;
#54 = APPROVAL ( #128, 'UNSPECIFIED' ) ;
#55 = VERTEX_POINT ( 'NONE', #89 ) ;
#56 = DIRECTION ( 'NONE',  ( -0.000000000000000000, -0.000000000000000000, -1.000000000000000000 ) ) ;
#57 = ADVANCED_FACE ( 'NONE', ( #46 ), #137, .F. ) ;
#58 = COORDINATED_UNIVERSAL_TIME_OFFSET ( 5, 30, .AHEAD. ) ;
#59 = ORIENTED_EDGE ( 'NONE', *, *, #252, .F. ) ;
#60 = CC_DESIGN_PERSON_AND_ORGANIZATION_ASSIGNMENT ( #211, #182, ( #70 ) ) ;
#61 = COORDINATED_UNIVERSAL_TIME_OFFSET ( 5, 30, .AHEAD. ) ;
#62 = VECTOR ( 'NONE', #171, 1000.000000000000000 ) ;
#63 = DIRECTION ( 'NONE',  ( 0.000000000000000000, 1.000000000000000000, 0.000000000000000000 ) ) ;
#64 = PERSON_AND_ORGANIZATION_ROLE ( 'creator' ) ;
#65 = CYLINDRICAL_SURFACE ( 'NONE', #42, 1.230000000000000204 ) ;
#66 = DATE_AND_TIME ( #214, #191 ) ;
#67 = EDGE_CURVE ( 'NONE', #105, #170, #219, .T. ) ;
#68 = DIRECTION ( 'NONE',  ( 0.000000000000000000, 0.000000000000000000, 1.000000000000000000 ) ) ;
#69 = ORIENTED_EDGE ( 'NONE', *, *, #274, .T. ) ;
#70 = PRODUCT ( 'Cameraside2_Default_sldprt', 'Cameraside2_Default_sldprt', '', ( #85 ) ) ;
#71 = LOCAL_TIME ( 20, 20, 19.00000000000000000, #150 ) ;
#72 = DIRECTION ( 'NONE',  ( 0.000000000000000000, 0.000000000000000000, 1.000000000000000000 ) ) ;
#73 = DIRECTION ( 'NONE',  ( -1.000000000000000000, 0.000000000000000000, -0.000000000000000000 ) ) ;
#74 = PRODUCT_RELATED_PRODUCT_CATEGORY ( 'detail', '', ( #70 ) ) ;
#75 = AXIS2_PLACEMENT_3D ( 'NONE', #87, #251, #284 ) ;
#76 = EDGE_CURVE ( 'NONE', #240, #176, #190, .T. ) ;
#77 = DIRECTION ( 'NONE',  ( 0.000000000000000000, 0.000000000000000000, 1.000000000000000000 ) ) ;
#78 = CARTESIAN_POINT ( 'NONE',  ( -17.50000000000000711, 15.00000000000000178, 0.000000000000000000 ) ) ;
#79 = EDGE_LOOP ( 'NONE', ( #178, #275, #146, #129 ) ) ;
#80 = FACE_OUTER_BOUND ( 'NONE', #155, .T. ) ;
#81 = ORIENTED_EDGE ( 'NONE', *, *, #282, .T. ) ;
#82 = CALENDAR_DATE ( 2026, 24, 8 ) ;
#83 = EDGE_CURVE ( 'NONE', #105, #199, #19, .T. ) ;
#84 = EDGE_LOOP ( 'NONE', ( #228, #36 ) ) ;
#85 = MECHANICAL_CONTEXT ( 'NONE', #262, 'mechanical' ) ;
#86 = ORIENTED_EDGE ( 'NONE', *, *, #193, .F. ) ;
#87 = CARTESIAN_POINT ( 'NONE',  ( 0.000000000000000000, 0.000000000000000000, 0.000000000000000000 ) ) ;
#88 = DESIGN_CONTEXT ( 'detailed design', #33, 'design' ) ;
#89 = CARTESIAN_POINT ( 'NONE',  ( -17.50000000000000711, -14.99999999999999822, 2.000000000000000000 ) ) ;
#90 = VECTOR ( 'NONE', #56, 1000.000000000000000 ) ;
#91 = COORDINATED_UNIVERSAL_TIME_OFFSET ( 5, 30, .AHEAD. ) ;
#92 = FACE_OUTER_BOUND ( 'NONE', #103, .T. ) ;
#93 = ADVANCED_FACE ( 'NONE', ( #47, #116 ), #94, .T. ) ;
#94 = PLANE ( 'NONE',  #216 ) ;
#95 = PRODUCT_DEFINITION ( 'UNKNOWN', '', #294, #88 ) ;
#96 = CARTESIAN_POINT ( 'NONE',  ( 13.49999999999999467, -10.99999999999999822, 0.000000000000000000 ) ) ;
#97 = CC_DESIGN_APPROVAL ( #54, ( #294 ) ) ;
#98 = ORIENTED_EDGE ( 'NONE', *, *, #136, .T. ) ;
#99 = FACE_OUTER_BOUND ( 'NONE', #9, .T. ) ;
#100 = DIRECTION ( 'NONE',  ( -0.000000000000000000, -0.000000000000000000, 1.000000000000000000 ) ) ;
#101 = AXIS2_PLACEMENT_3D ( 'NONE', #247, #77, #4 ) ;
#102 = DIRECTION ( 'NONE',  ( -0.000000000000000000, -0.000000000000000000, 1.000000000000000000 ) ) ;
#103 = EDGE_LOOP ( 'NONE', ( #297, #134, #86, #148 ) ) ;
#104 = CARTESIAN_POINT ( 'NONE',  ( 17.49999999999999645, 15.00000000000000178, 2.000000000000000000 ) ) ;
#105 = VERTEX_POINT ( 'NONE', #258 ) ;
#106 = APPROVAL_DATE_TIME ( #184, #307 ) ;
#107 = EDGE_LOOP ( 'NONE', ( #52, #257, #246, #110 ) ) ;
#108 = DATE_TIME_ROLE ( 'creation_date' ) ;
#109 = ORIENTED_EDGE ( 'NONE', *, *, #83, .F. ) ;
#110 = ORIENTED_EDGE ( 'NONE', *, *, #229, .F. ) ;
#111 = CALENDAR_DATE ( 2026, 24, 8 ) ;
#112 = DIRECTION ( 'NONE',  ( 0.000000000000000000, 0.000000000000000000, 1.000000000000000000 ) ) ;
#113 = DIRECTION ( 'NONE',  ( -0.000000000000000000, -1.000000000000000000, -0.000000000000000000 ) ) ;
#114 = AXIS2_PLACEMENT_3D ( 'NONE', #142, #102, #53 ) ;
#115 = FACE_OUTER_BOUND ( 'NONE', #208, .T. ) ;
#116 = FACE_OUTER_BOUND ( 'NONE', #107, .T. ) ;
#117 = CARTESIAN_POINT ( 'NONE',  ( -17.50000000000000711, 15.00000000000000178, 2.000000000000000000 ) ) ;
#118 = CARTESIAN_POINT ( 'NONE',  ( 12.26999999999999424, -10.99999999999999822, 0.000000000000000000 ) ) ;
#119 = PLANE ( 'NONE',  #293 ) ;
#120 = CC_DESIGN_PERSON_AND_ORGANIZATION_ASSIGNMENT ( #18, #64, ( #95 ) ) ;
#121 = CARTESIAN_POINT ( 'NONE',  ( 12.26999999999999424, -10.99999999999999822, 0.000000000000000000 ) ) ;
#122 = ORIENTED_EDGE ( 'NONE', *, *, #76, .T. ) ;
#123 = CARTESIAN_POINT ( 'NONE',  ( -17.50000000000000711, -14.99999999999999822, 2.000000000000000000 ) ) ;
#124 = APPROVAL_DATE_TIME ( #300, #54 ) ;
#125 = APPROVAL_STATUS ( 'not_yet_approved' ) ;
#126 = ORIENTED_EDGE ( 'NONE', *, *, #136, .F. ) ;
#127 = AXIS2_PLACEMENT_3D ( 'NONE', #285, #72, #135 ) ;
#128 = APPROVAL_STATUS ( 'not_yet_approved' ) ;
#129 = ORIENTED_EDGE ( 'NONE', *, *, #239, .T. ) ;
#130 = APPLICATION_PROTOCOL_DEFINITION ( 'international standard', 'config_control_design', 1994, #262 ) ;
#131 = ORIENTED_EDGE ( 'NONE', *, *, #279, .T. ) ;
#132 = APPROVAL_ROLE ( '' ) ;
#133 = LINE ( 'NONE', #238, #299 ) ;
#134 = ORIENTED_EDGE ( 'NONE', *, *, #279, .F. ) ;
#135 = DIRECTION ( 'NONE',  ( 1.000000000000000000, 0.000000000000000000, 0.000000000000000000 ) ) ;
#136 = EDGE_CURVE ( 'NONE', #170, #105, #49, .T. ) ;
#137 = PLANE ( 'NONE',  #139 ) ;
#138 = LINE ( 'NONE', #5, #212 ) ;
#139 = AXIS2_PLACEMENT_3D ( 'NONE', #1, #21, #68 ) ;
#140 = APPROVAL_PERSON_ORGANIZATION ( #304, #54, #132 ) ;
#141 = EDGE_CURVE ( 'NONE', #201, #176, #306, .T. ) ;
#142 = CARTESIAN_POINT ( 'NONE',  ( 13.49999999999999467, -10.99999999999999822, 0.000000000000000000 ) ) ;
#143 = PRODUCT_DEFINITION_SHAPE ( 'NONE', 'NONE',  #95 ) ;
#144 = CARTESIAN_POINT ( 'NONE',  ( 17.49999999999999645, 15.00000000000000178, 0.000000000000000000 ) ) ;
#145 = LINE ( 'NONE', #221, #159 ) ;
#146 = ORIENTED_EDGE ( 'NONE', *, *, #83, .T. ) ;
#147 = LINE ( 'NONE', #7, #161 ) ;
#148 = ORIENTED_EDGE ( 'NONE', *, *, #10, .T. ) ;
#149 = EDGE_CURVE ( 'NONE', #249, #160, #133, .T. ) ;
#150 = COORDINATED_UNIVERSAL_TIME_OFFSET ( 5, 30, .AHEAD. ) ;
#151 = ORIENTED_EDGE ( 'NONE', *, *, #14, .T. ) ;
#152 = EDGE_CURVE ( 'NONE', #38, #240, #145, .T. ) ;
#153 = DATE_TIME_ROLE ( 'classification_date' ) ;
#154 = AXIS2_PLACEMENT_3D ( 'NONE', #264, #241, #163 ) ;
#155 = EDGE_LOOP ( 'NONE', ( #173, #206, #59, #283 ) ) ;
#156 = DIRECTION ( 'NONE',  ( -1.000000000000000000, 0.000000000000000000, -0.000000000000000000 ) ) ;
#157 = PERSON_AND_ORGANIZATION ( #185, #248 ) ;
#158 = ORIENTED_EDGE ( 'NONE', *, *, #309, .F. ) ;
#159 = VECTOR ( 'NONE', #164, 1000.000000000000000 ) ;
#160 = VERTEX_POINT ( 'NONE', #268 ) ;
#161 = VECTOR ( 'NONE', #220, 1000.000000000000000 ) ;
#162 = EDGE_LOOP ( 'NONE', ( #122, #17, #158, #232 ) ) ;
#163 = DIRECTION ( 'NONE',  ( 0.000000000000000000, 0.000000000000000000, -1.000000000000000000 ) ) ;
#164 = DIRECTION ( 'NONE',  ( -0.000000000000000000, -0.000000000000000000, -1.000000000000000000 ) ) ;
#165 =( LENGTH_UNIT ( ) NAMED_UNIT ( * ) SI_UNIT ( .MILLI., .METRE. ) );
#166 = CC_DESIGN_APPROVAL ( #307, ( #43 ) ) ;
#167 = CARTESIAN_POINT ( 'NONE',  ( 0.000000000000000000, 0.000000000000000000, 2.000000000000000000 ) ) ;
#168 = VERTEX_POINT ( 'NONE', #50 ) ;
#169 = FACE_BOUND ( 'NONE', #84, .T. ) ;
#170 = VERTEX_POINT ( 'NONE', #118 ) ;
#171 = DIRECTION ( 'NONE',  ( -1.000000000000000000, -0.000000000000000000, -0.000000000000000000 ) ) ;
#172 = ADVANCED_BREP_SHAPE_REPRESENTATION ( 'Cameraside2_Default_sldprt', ( #175, #75 ), #256 ) ;
#173 = ORIENTED_EDGE ( 'NONE', *, *, #229, .T. ) ;
#174 = APPLICATION_PROTOCOL_DEFINITION ( 'international standard', 'config_control_design', 1994, #33 ) ;
#175 = MANIFOLD_SOLID_BREP ( 'Cut-Extrude1', #237 ) ;
#176 = VERTEX_POINT ( 'NONE', #144 ) ;
#177 = PERSON_AND_ORGANIZATION ( #185, #248 ) ;
#178 = ORIENTED_EDGE ( 'NONE', *, *, #250, .F. ) ;
#179 = APPROVAL_ROLE ( '' ) ;
#180 = DIRECTION ( 'NONE',  ( 1.000000000000000000, 0.000000000000000000, 0.000000000000000000 ) ) ;
#181 = CC_DESIGN_DATE_AND_TIME_ASSIGNMENT ( #66, #153, ( #43 ) ) ;
#182 = PERSON_AND_ORGANIZATION_ROLE ( 'design_owner' ) ;
#183 = CARTESIAN_POINT ( 'NONE',  ( 17.49999999999999645, 15.00000000000000178, 2.000000000000000000 ) ) ;
#184 = DATE_AND_TIME ( #11, #273 ) ;
#185 = PERSON ( 'UNSPECIFIED', 'UNSPECIFIED', 'UNSPECIFIED', ('UNSPECIFIED'), ('UNSPECIFIED'), ('UNSPECIFIED') ) ;
#186 = ORIENTED_EDGE ( 'NONE', *, *, #193, .T. ) ;
#187 = ADVANCED_FACE ( 'NONE', ( #243 ), #266, .F. ) ;
#188 = AXIS2_PLACEMENT_3D ( 'NONE', #40, #112, #213 ) ;
#189 = APPROVAL_PERSON_ORGANIZATION ( #259, #307, #254 ) ;
#190 = LINE ( 'NONE', #280, #37 ) ;
#191 = LOCAL_TIME ( 20, 20, 19.00000000000000000, #61 ) ;
#192 = PLANE ( 'NONE',  #154 ) ;
#193 = EDGE_CURVE ( 'NONE', #168, #55, #226, .T. ) ;
#194 = LINE ( 'NONE', #121, #45 ) ;
#195 = ADVANCED_FACE ( 'NONE', ( #200 ), #119, .F. ) ;
#196 = CARTESIAN_POINT ( 'NONE',  ( -17.50000000000000711, -14.99999999999999822, 2.000000000000000000 ) ) ;
#197 = AXIS2_PLACEMENT_3D ( 'NONE', #202, #298, #30 ) ;
#198 = LINE ( 'NONE', #117, #224 ) ;
#199 = VERTEX_POINT ( 'NONE', #51 ) ;
#200 = FACE_OUTER_BOUND ( 'NONE', #295, .T. ) ;
#201 = VERTEX_POINT ( 'NONE', #104 ) ;
#202 = CARTESIAN_POINT ( 'NONE',  ( -17.50000000000000711, 15.00000000000000178, 2.000000000000000000 ) ) ;
#203 = SHAPE_DEFINITION_REPRESENTATION ( #143, #172 ) ;
#204 = AXIS2_PLACEMENT_3D ( 'NONE', #167, #270, #73 ) ;
#205 = CC_DESIGN_SECURITY_CLASSIFICATION ( #43, ( #294 ) ) ;
#206 = ORIENTED_EDGE ( 'NONE', *, *, #10, .F. ) ;
#207 = APPROVAL_STATUS ( 'not_yet_approved' ) ;
#208 = EDGE_LOOP ( 'NONE', ( #126, #230, #151, #109 ) ) ;
#209 = DIRECTION ( 'NONE',  ( 1.000000000000000000, 0.000000000000000000, 0.000000000000000000 ) ) ;
#210 = CC_DESIGN_PERSON_AND_ORGANIZATION_ASSIGNMENT ( #308, #278, ( #294 ) ) ;
#211 = PERSON_AND_ORGANIZATION ( #185, #248 ) ;
#212 = VECTOR ( 'NONE', #28, 1000.000000000000000 ) ;
#213 = DIRECTION ( 'NONE',  ( 1.000000000000000000, 0.000000000000000000, 0.000000000000000000 ) ) ;
#214 = CALENDAR_DATE ( 2026, 24, 8 ) ;
#215 = LINE ( 'NONE', #265, #286 ) ;
#216 = AXIS2_PLACEMENT_3D ( 'NONE', #218, #290, #156 ) ;
#217 = CARTESIAN_POINT ( 'NONE',  ( 17.49999999999999645, -14.99999999999999822, 2.000000000000000000 ) ) ;
#218 = CARTESIAN_POINT ( 'NONE',  ( 0.000000000000000000, 0.000000000000000000, 0.000000000000000000 ) ) ;
#219 = CIRCLE ( 'NONE', #267, 1.230000000000000204 ) ;
#220 = DIRECTION ( 'NONE',  ( 1.000000000000000000, 0.000000000000000000, 0.000000000000000000 ) ) ;
#221 = CARTESIAN_POINT ( 'NONE',  ( 17.49999999999999645, -14.99999999999999822, 2.000000000000000000 ) ) ;
#222 = CARTESIAN_POINT ( 'NONE',  ( -17.50000000000000711, -14.99999999999999822, 2.000000000000000000 ) ) ;
#223 = ADVANCED_FACE ( 'NONE', ( #80 ), #29, .F. ) ;
#224 = VECTOR ( 'NONE', #272, 1000.000000000000000 ) ;
#225 = LINE ( 'NONE', #3, #26 ) ;
#226 = LINE ( 'NONE', #222, #255 ) ;
#227 = PERSON_AND_ORGANIZATION_ROLE ( 'classification_officer' ) ;
#228 = ORIENTED_EDGE ( 'NONE', *, *, #239, .F. ) ;
#229 = EDGE_CURVE ( 'NONE', #176, #249, #244, .T. ) ;
#230 = ORIENTED_EDGE ( 'NONE', *, *, #250, .T. ) ;
#231 = COORDINATED_UNIVERSAL_TIME_OFFSET ( 5, 30, .AHEAD. ) ;
#232 = ORIENTED_EDGE ( 'NONE', *, *, #152, .T. ) ;
#233 = APPROVAL_DATE_TIME ( #281, #292 ) ;
#234 = CARTESIAN_POINT ( 'NONE',  ( 12.26999999999999424, -10.99999999999999822, 2.000000000000000000 ) ) ;
#235 = CALENDAR_DATE ( 2026, 24, 8 ) ;
#236 = CC_DESIGN_APPROVAL ( #292, ( #95 ) ) ;
#237 = CLOSED_SHELL ( 'NONE', ( #34, #57, #223, #24, #195, #303, #93, #187 ) ) ;
#238 = CARTESIAN_POINT ( 'NONE',  ( -17.50000000000000711, -14.99999999999999822, 0.000000000000000000 ) ) ;
#239 = EDGE_CURVE ( 'NONE', #199, #23, #6, .T. ) ;
#240 = VERTEX_POINT ( 'NONE', #245 ) ;
#241 = DIRECTION ( 'NONE',  ( 1.000000000000000000, 0.000000000000000000, 0.000000000000000000 ) ) ;
#242 = CARTESIAN_POINT ( 'NONE',  ( 13.49999999999999467, -10.99999999999999822, 0.000000000000000000 ) ) ;
#243 = FACE_OUTER_BOUND ( 'NONE', #79, .T. ) ;
#244 = LINE ( 'NONE', #78, #62 ) ;
#245 = CARTESIAN_POINT ( 'NONE',  ( 17.49999999999999645, -14.99999999999999822, 0.000000000000000000 ) ) ;
#246 = ORIENTED_EDGE ( 'NONE', *, *, #149, .F. ) ;
#247 = CARTESIAN_POINT ( 'NONE',  ( 13.49999999999999467, -10.99999999999999822, 2.000000000000000000 ) ) ;
#248 = ORGANIZATION ( 'UNSPECIFIED', 'UNSPECIFIED', '' ) ;
#249 = VERTEX_POINT ( 'NONE', #31 ) ;
#250 = EDGE_CURVE ( 'NONE', #170, #23, #194, .T. ) ;
#251 = DIRECTION ( 'NONE',  ( 0.000000000000000000, 0.000000000000000000, 1.000000000000000000 ) ) ;
#252 = EDGE_CURVE ( 'NONE', #201, #168, #198, .T. ) ;
#253 = DATE_AND_TIME ( #111, #71 ) ;
#254 = APPROVAL_ROLE ( '' ) ;
#255 = VECTOR ( 'NONE', #296, 1000.000000000000000 ) ;
#256 =( GEOMETRIC_REPRESENTATION_CONTEXT ( 3 ) GLOBAL_UNCERTAINTY_ASSIGNED_CONTEXT ( ( #32 ) ) GLOBAL_UNIT_ASSIGNED_CONTEXT ( ( #165, #276, #39 ) ) REPRESENTATION_CONTEXT ( 'NONE', 'WORKASPACE' ) );
#257 = ORIENTED_EDGE ( 'NONE', *, *, #282, .F. ) ;
#258 = CARTESIAN_POINT ( 'NONE',  ( 14.72999999999999510, -10.99999999999999822, 0.000000000000000000 ) ) ;
#259 = PERSON_AND_ORGANIZATION ( #185, #248 ) ;
#260 = ORIENTED_EDGE ( 'NONE', *, *, #274, .F. ) ;
#261 = CC_DESIGN_PERSON_AND_ORGANIZATION_ASSIGNMENT ( #177, #227, ( #43 ) ) ;
#262 = APPLICATION_CONTEXT ( 'configuration controlled 3d designs of mechanical parts and assemblies' ) ;
#263 = DIRECTION ( 'NONE',  ( -0.000000000000000000, -0.000000000000000000, 1.000000000000000000 ) ) ;
#264 = CARTESIAN_POINT ( 'NONE',  ( -17.50000000000000711, -14.99999999999999822, 2.000000000000000000 ) ) ;
#265 = CARTESIAN_POINT ( 'NONE',  ( -17.50000000000000711, 15.00000000000000178, 2.000000000000000000 ) ) ;
#266 = CYLINDRICAL_SURFACE ( 'NONE', #114, 1.230000000000000204 ) ;
#267 = AXIS2_PLACEMENT_3D ( 'NONE', #96, #302, #180 ) ;
#268 = CARTESIAN_POINT ( 'NONE',  ( -17.50000000000000711, -14.99999999999999822, 0.000000000000000000 ) ) ;
#269 = DIRECTION ( 'NONE',  ( 0.000000000000000000, 1.000000000000000000, 0.000000000000000000 ) ) ;
#270 = DIRECTION ( 'NONE',  ( 0.000000000000000000, 0.000000000000000000, -1.000000000000000000 ) ) ;
#271 = ORIENTED_EDGE ( 'NONE', *, *, #252, .T. ) ;
#272 = DIRECTION ( 'NONE',  ( -1.000000000000000000, -0.000000000000000000, -0.000000000000000000 ) ) ;
#273 = LOCAL_TIME ( 20, 20, 19.00000000000000000, #231 ) ;
#274 = EDGE_CURVE ( 'NONE', #55, #38, #225, .T. ) ;
#275 = ORIENTED_EDGE ( 'NONE', *, *, #67, .F. ) ;
#276 =( NAMED_UNIT ( * ) PLANE_ANGLE_UNIT ( ) SI_UNIT ( $, .RADIAN. ) );
#277 = EDGE_LOOP ( 'NONE', ( #22, #98 ) ) ;
#278 = PERSON_AND_ORGANIZATION_ROLE ( 'design_supplier' ) ;
#279 = EDGE_CURVE ( 'NONE', #55, #160, #48, .T. ) ;
#280 = CARTESIAN_POINT ( 'NONE',  ( 17.49999999999999645, -14.99999999999999822, 0.000000000000000000 ) ) ;
#281 = DATE_AND_TIME ( #82, #27 ) ;
#282 = EDGE_CURVE ( 'NONE', #160, #240, #147, .T. ) ;
#283 = ORIENTED_EDGE ( 'NONE', *, *, #141, .T. ) ;
#284 = DIRECTION ( 'NONE',  ( 1.000000000000000000, 0.000000000000000000, 0.000000000000000000 ) ) ;
#285 = CARTESIAN_POINT ( 'NONE',  ( 13.49999999999999467, -10.99999999999999822, 2.000000000000000000 ) ) ;
#286 = VECTOR ( 'NONE', #44, 1000.000000000000000 ) ;
#287 = CARTESIAN_POINT ( 'NONE',  ( 14.72999999999999510, -10.99999999999999822, 0.000000000000000000 ) ) ;
#288 = LOCAL_TIME ( 20, 20, 19.00000000000000000, #91 ) ;
#289 = CC_DESIGN_PERSON_AND_ORGANIZATION_ASSIGNMENT ( #157, #20, ( #294 ) ) ;
#290 = DIRECTION ( 'NONE',  ( 0.000000000000000000, 0.000000000000000000, -1.000000000000000000 ) ) ;
#291 = PLANE ( 'NONE',  #204 ) ;
#292 = APPROVAL ( #207, 'UNSPECIFIED' ) ;
#293 = AXIS2_PLACEMENT_3D ( 'NONE', #123, #269, #8 ) ;
#294 = PRODUCT_DEFINITION_FORMATION_WITH_SPECIFIED_SOURCE ( 'ANY', '', #70, .NOT_KNOWN. ) ;
#295 = EDGE_LOOP ( 'NONE', ( #81, #301, #260, #131 ) ) ;
#296 = DIRECTION ( 'NONE',  ( -0.000000000000000000, -1.000000000000000000, -0.000000000000000000 ) ) ;
#297 = ORIENTED_EDGE ( 'NONE', *, *, #149, .T. ) ;
#298 = DIRECTION ( 'NONE',  ( 0.000000000000000000, -1.000000000000000000, 0.000000000000000000 ) ) ;
#299 = VECTOR ( 'NONE', #113, 1000.000000000000000 ) ;
#300 = DATE_AND_TIME ( #235, #288 ) ;
#301 = ORIENTED_EDGE ( 'NONE', *, *, #152, .F. ) ;
#302 = DIRECTION ( 'NONE',  ( 0.000000000000000000, 0.000000000000000000, 1.000000000000000000 ) ) ;
#303 = ADVANCED_FACE ( 'NONE', ( #169, #99 ), #291, .F. ) ;
#304 = PERSON_AND_ORGANIZATION ( #185, #248 ) ;
#305 = VECTOR ( 'NONE', #41, 1000.000000000000000 ) ;
#306 = LINE ( 'NONE', #183, #305 ) ;
#307 = APPROVAL ( #125, 'UNSPECIFIED' ) ;
#308 = PERSON_AND_ORGANIZATION ( #185, #248 ) ;
#309 = EDGE_CURVE ( 'NONE', #38, #201, #138, .T. ) ;
#310 = DIRECTION ( 'NONE',  ( -0.000000000000000000, -0.000000000000000000, 1.000000000000000000 ) ) ;
#311 = CIRCLE ( 'NONE', #127, 1.230000000000000204 ) ;
ENDSEC;
END-ISO-10303-21;
