ISO-10303-21;
HEADER;
FILE_DESCRIPTION (( 'STEP AP203' ),
    '1' );
FILE_NAME ('Lid_Default_sldprt.STEP',
    '2026-08-24T14:50:21',
    ( '' ),
    ( '' ),
    'SwSTEP 2.0',
    'SolidWorks 2020',
    '' );
FILE_SCHEMA (( 'CONFIG_CONTROL_DESIGN' ));
ENDSEC;

DATA;
#1 = CARTESIAN_POINT ( 'NONE',  ( -25.00000000000000711, 20.00000000000001066, 8.000000000000000000 ) ) ;
#2 = CARTESIAN_POINT ( 'NONE',  ( -25.00000000000000711, 20.00000000000001066, 8.000000000000000000 ) ) ;
#3 = APPROVAL_ROLE ( '' ) ;
#4 = SECURITY_CLASSIFICATION_LEVEL ( 'unclassified' ) ;
#5 = AXIS2_PLACEMENT_3D ( 'NONE', #2, #33, #181 ) ;
#6 = COORDINATED_UNIVERSAL_TIME_OFFSET ( 5, 30, .AHEAD. ) ;
#7 = APPLICATION_CONTEXT ( 'configuration controlled 3d designs of mechanical parts and assemblies' ) ;
#8 = APPROVAL_ROLE ( '' ) ;
#9 = DIRECTION ( 'NONE',  ( 8.673617379884035472E-17, -1.000000000000000000, 0.000000000000000000 ) ) ;
#10 = COORDINATED_UNIVERSAL_TIME_OFFSET ( 5, 30, .AHEAD. ) ;
#11 = LINE ( 'NONE', #79, #237 ) ;
#12 = EDGE_LOOP ( 'NONE', ( #25, #228, #47, #230 ) ) ;
#13 = VERTEX_POINT ( 'NONE', #197 ) ;
#14 = ORIENTED_EDGE ( 'NONE', *, *, #38, .T. ) ;
#15 = DIRECTION ( 'NONE',  ( 0.000000000000000000, 0.000000000000000000, 1.000000000000000000 ) ) ;
#16 = CC_DESIGN_PERSON_AND_ORGANIZATION_ASSIGNMENT ( #130, #211, ( #144 ) ) ;
#17 = LINE ( 'NONE', #1, #18 ) ;
#18 = VECTOR ( 'NONE', #20, 1000.000000000000000 ) ;
#19 = CARTESIAN_POINT ( 'NONE',  ( -25.00000000000000355, -19.99999999999998934, 8.000000000000000000 ) ) ;
#20 = DIRECTION ( 'NONE',  ( -0.000000000000000000, -0.000000000000000000, -1.000000000000000000 ) ) ;
#21 = CC_DESIGN_APPROVAL ( #107, ( #84 ) ) ;
#22 = DATE_AND_TIME ( #192, #122 ) ;
#23 = PERSON_AND_ORGANIZATION ( #152, #75 ) ;
#24 = LOCAL_TIME ( 20, 20, 21.00000000000000000, #78 ) ;
#25 = ORIENTED_EDGE ( 'NONE', *, *, #163, .T. ) ;
#26 = COORDINATED_UNIVERSAL_TIME_OFFSET ( 5, 30, .AHEAD. ) ;
#27 = ORIENTED_EDGE ( 'NONE', *, *, #80, .F. ) ;
#28 = EDGE_LOOP ( 'NONE', ( #131, #216, #135, #94 ) ) ;
#29 = CC_DESIGN_PERSON_AND_ORGANIZATION_ASSIGNMENT ( #109, #170, ( #84 ) ) ;
#30 = EDGE_LOOP ( 'NONE', ( #14, #118, #195, #81 ) ) ;
#31 =( LENGTH_UNIT ( ) NAMED_UNIT ( * ) SI_UNIT ( .MILLI., .METRE. ) );
#32 = AXIS2_PLACEMENT_3D ( 'NONE', #235, #99, #143 ) ;
#33 = DIRECTION ( 'NONE',  ( 0.000000000000000000, -1.000000000000000000, 0.000000000000000000 ) ) ;
#34 = CARTESIAN_POINT ( 'NONE',  ( 24.99999999999999289, 20.00000000000001066, 8.000000000000000000 ) ) ;
#35 = CC_DESIGN_DATE_AND_TIME_ASSIGNMENT ( #22, #89, ( #149 ) ) ;
#36 = DIRECTION ( 'NONE',  ( 0.000000000000000000, 1.000000000000000000, 0.000000000000000000 ) ) ;
#37 = CC_DESIGN_SECURITY_CLASSIFICATION ( #191, ( #84 ) ) ;
#38 = EDGE_CURVE ( 'NONE', #157, #198, #96, .T. ) ;
#39 = CALENDAR_DATE ( 2026, 24, 8 ) ;
#40 = PERSON_AND_ORGANIZATION_ROLE ( 'creator' ) ;
#41 = APPROVAL_PERSON_ORGANIZATION ( #45, #178, #3 ) ;
#42 = ORIENTED_EDGE ( 'NONE', *, *, #182, .T. ) ;
#43 = DATE_AND_TIME ( #39, #24 ) ;
#44 = LINE ( 'NONE', #114, #205 ) ;
#45 = PERSON_AND_ORGANIZATION ( #152, #75 ) ;
#46 = ADVANCED_FACE ( 'NONE', ( #77 ), #61, .F. ) ;
#47 = ORIENTED_EDGE ( 'NONE', *, *, #219, .T. ) ;
#48 = EDGE_LOOP ( 'NONE', ( #42, #132, #171, #175 ) ) ;
#49 = CARTESIAN_POINT ( 'NONE',  ( 0.000000000000000000, 0.000000000000000000, 8.000000000000000000 ) ) ;
#50 = DIRECTION ( 'NONE',  ( -1.000000000000000000, -0.000000000000000000, -0.000000000000000000 ) ) ;
#51 = CC_DESIGN_APPROVAL ( #178, ( #191 ) ) ;
#52 = EDGE_CURVE ( 'NONE', #117, #157, #44, .T. ) ;
#53 = LINE ( 'NONE', #160, #209 ) ;
#54 = MANIFOLD_SOLID_BREP ( 'Boss-Extrude1', #196 ) ;
#55 = CARTESIAN_POINT ( 'NONE',  ( 24.99999999999999289, 20.00000000000001066, 8.000000000000000000 ) ) ;
#56 = DIRECTION ( 'NONE',  ( 0.000000000000000000, 0.000000000000000000, 1.000000000000000000 ) ) ;
#57 = VECTOR ( 'NONE', #83, 1000.000000000000000 ) ;
#58 = APPROVAL_DATE_TIME ( #43, #107 ) ;
#59 = DIRECTION ( 'NONE',  ( 1.000000000000000000, 0.000000000000000000, 0.000000000000000000 ) ) ;
#60 = VECTOR ( 'NONE', #185, 1000.000000000000000 ) ;
#61 = PLANE ( 'NONE',  #180 ) ;
#62 = LINE ( 'NONE', #134, #162 ) ;
#63 = EDGE_LOOP ( 'NONE', ( #208, #112, #232, #64 ) ) ;
#64 = ORIENTED_EDGE ( 'NONE', *, *, #98, .T. ) ;
#65 = PRODUCT_RELATED_PRODUCT_CATEGORY ( 'detail', '', ( #144 ) ) ;
#66 = AXIS2_PLACEMENT_3D ( 'NONE', #55, #104, #15 ) ;
#67 = UNCERTAINTY_MEASURE_WITH_UNIT (LENGTH_MEASURE( 1.000000000000000082E-05 ), #31, 'distance_accuracy_value', 'NONE');
#68 = LINE ( 'NONE', #218, #201 ) ;
#69 = FACE_OUTER_BOUND ( 'NONE', #63, .T. ) ;
#70 = DIRECTION ( 'NONE',  ( 0.000000000000000000, -0.000000000000000000, 1.000000000000000000 ) ) ;
#71 = PLANE ( 'NONE',  #91 ) ;
#72 = LINE ( 'NONE', #19, #57 ) ;
#73 = DATE_AND_TIME ( #74, #154 ) ;
#74 = CALENDAR_DATE ( 2026, 24, 8 ) ;
#75 = ORGANIZATION ( 'UNSPECIFIED', 'UNSPECIFIED', '' ) ;
#76 = APPLICATION_CONTEXT ( 'configuration controlled 3d designs of mechanical parts and assemblies' ) ;
#77 = FACE_OUTER_BOUND ( 'NONE', #97, .T. ) ;
#78 = COORDINATED_UNIVERSAL_TIME_OFFSET ( 5, 30, .AHEAD. ) ;
#79 = CARTESIAN_POINT ( 'NONE',  ( -25.00000000000000355, -19.99999999999998934, 0.000000000000000000 ) ) ;
#80 = EDGE_CURVE ( 'NONE', #198, #151, #11, .T. ) ;
#81 = ORIENTED_EDGE ( 'NONE', *, *, #159, .T. ) ;
#82 = CC_DESIGN_PERSON_AND_ORGANIZATION_ASSIGNMENT ( #23, #113, ( #191 ) ) ;
#83 = DIRECTION ( 'NONE',  ( -0.000000000000000000, -0.000000000000000000, -1.000000000000000000 ) ) ;
#84 = PRODUCT_DEFINITION_FORMATION_WITH_SPECIFIED_SOURCE ( 'ANY', '', #144, .NOT_KNOWN. ) ;
#85 =( NAMED_UNIT ( * ) PLANE_ANGLE_UNIT ( ) SI_UNIT ( $, .RADIAN. ) );
#86 = CARTESIAN_POINT ( 'NONE',  ( 24.99999999999999289, -19.99999999999998934, 8.000000000000000000 ) ) ;
#87 = PLANE ( 'NONE',  #32 ) ;
#88 = EDGE_CURVE ( 'NONE', #231, #226, #62, .T. ) ;
#89 = DATE_TIME_ROLE ( 'creation_date' ) ;
#90 = PERSON_AND_ORGANIZATION ( #152, #75 ) ;
#91 = AXIS2_PLACEMENT_3D ( 'NONE', #49, #120, #199 ) ;
#92 = DATE_AND_TIME ( #110, #142 ) ;
#93 = PRODUCT_DEFINITION_SHAPE ( 'NONE', 'NONE',  #149 ) ;
#94 = ORIENTED_EDGE ( 'NONE', *, *, #210, .T. ) ;
#95 = ORIENTED_EDGE ( 'NONE', *, *, #52, .F. ) ;
#96 = LINE ( 'NONE', #177, #166 ) ;
#97 = EDGE_LOOP ( 'NONE', ( #116, #27, #179, #95 ) ) ;
#98 = EDGE_CURVE ( 'NONE', #231, #198, #72, .T. ) ;
#99 = DIRECTION ( 'NONE',  ( 1.000000000000000000, 8.673617379884035472E-17, -0.000000000000000000 ) ) ;
#100 = ADVANCED_BREP_SHAPE_REPRESENTATION ( 'Lid_Default_sldprt', ( #54, #102 ), #184 ) ;
#101 = LINE ( 'NONE', #202, #128 ) ;
#102 = AXIS2_PLACEMENT_3D ( 'NONE', #148, #56, #59 ) ;
#103 = CC_DESIGN_PERSON_AND_ORGANIZATION_ASSIGNMENT ( #206, #40, ( #149 ) ) ;
#104 = DIRECTION ( 'NONE',  ( -1.000000000000000000, 0.000000000000000000, 0.000000000000000000 ) ) ;
#105 = FACE_OUTER_BOUND ( 'NONE', #12, .T. ) ;
#106 = CARTESIAN_POINT ( 'NONE',  ( 24.99999999999999289, 20.00000000000001066, 8.000000000000000000 ) ) ;
#107 = APPROVAL ( #224, 'UNSPECIFIED' ) ;
#108 = DATE_AND_TIME ( #153, #220 ) ;
#109 = PERSON_AND_ORGANIZATION ( #152, #75 ) ;
#110 = CALENDAR_DATE ( 2026, 24, 8 ) ;
#111 = VECTOR ( 'NONE', #167, 1000.000000000000000 ) ;
#112 = ORIENTED_EDGE ( 'NONE', *, *, #214, .F. ) ;
#113 = PERSON_AND_ORGANIZATION_ROLE ( 'classification_officer' ) ;
#114 = CARTESIAN_POINT ( 'NONE',  ( -25.00000000000000711, 20.00000000000001066, 0.000000000000000000 ) ) ;
#115 = MECHANICAL_CONTEXT ( 'NONE', #7, 'mechanical' ) ;
#116 = ORIENTED_EDGE ( 'NONE', *, *, #182, .F. ) ;
#117 = VERTEX_POINT ( 'NONE', #138 ) ;
#118 = ORIENTED_EDGE ( 'NONE', *, *, #98, .F. ) ;
#119 = DESIGN_CONTEXT ( 'detailed design', #76, 'design' ) ;
#120 = DIRECTION ( 'NONE',  ( -0.000000000000000000, 0.000000000000000000, 1.000000000000000000 ) ) ;
#121 = DIRECTION ( 'NONE',  ( -0.000000000000000000, -0.000000000000000000, -1.000000000000000000 ) ) ;
#122 = LOCAL_TIME ( 20, 20, 21.00000000000000000, #10 ) ;
#123 = ADVANCED_FACE ( 'NONE', ( #125 ), #87, .F. ) ;
#124 = APPROVAL_PERSON_ORGANIZATION ( #90, #107, #8 ) ;
#125 = FACE_OUTER_BOUND ( 'NONE', #30, .T. ) ;
#126 = CARTESIAN_POINT ( 'NONE',  ( -25.00000000000000355, -19.99999999999998934, 8.000000000000000000 ) ) ;
#127 = FACE_OUTER_BOUND ( 'NONE', #48, .T. ) ;
#128 = VECTOR ( 'NONE', #140, 1000.000000000000000 ) ;
#129 = PERSON_AND_ORGANIZATION ( #152, #75 ) ;
#130 = PERSON_AND_ORGANIZATION ( #152, #75 ) ;
#131 = ORIENTED_EDGE ( 'NONE', *, *, #52, .T. ) ;
#132 = ORIENTED_EDGE ( 'NONE', *, *, #210, .F. ) ;
#133 = PERSON_AND_ORGANIZATION ( #152, #75 ) ;
#134 = CARTESIAN_POINT ( 'NONE',  ( -25.00000000000000355, -19.99999999999998934, 8.000000000000000000 ) ) ;
#135 = ORIENTED_EDGE ( 'NONE', *, *, #145, .F. ) ;
#136 = AXIS2_PLACEMENT_3D ( 'NONE', #126, #36, #70 ) ;
#137 = CARTESIAN_POINT ( 'NONE',  ( 0.000000000000000000, 0.000000000000000000, 0.000000000000000000 ) ) ;
#138 = CARTESIAN_POINT ( 'NONE',  ( 24.99999999999999289, 20.00000000000001066, 0.000000000000000000 ) ) ;
#139 = ADVANCED_FACE ( 'NONE', ( #221 ), #146, .F. ) ;
#140 = DIRECTION ( 'NONE',  ( -0.000000000000000000, 1.000000000000000000, -0.000000000000000000 ) ) ;
#141 = CARTESIAN_POINT ( 'NONE',  ( -25.00000000000000355, -19.99999999999998934, 8.000000000000000000 ) ) ;
#142 = LOCAL_TIME ( 20, 20, 21.00000000000000000, #6 ) ;
#143 = DIRECTION ( 'NONE',  ( -8.673617379884035472E-17, 1.000000000000000000, 0.000000000000000000 ) ) ;
#144 = PRODUCT ( 'Lid_Default_sldprt', 'Lid_Default_sldprt', '', ( #115 ) ) ;
#145 = EDGE_CURVE ( 'NONE', #215, #13, #53, .T. ) ;
#146 = PLANE ( 'NONE',  #5 ) ;
#147 = SHAPE_DEFINITION_REPRESENTATION ( #93, #100 ) ;
#148 = CARTESIAN_POINT ( 'NONE',  ( 0.000000000000000000, 0.000000000000000000, 0.000000000000000000 ) ) ;
#149 = PRODUCT_DEFINITION ( 'UNKNOWN', '', #84, #119 ) ;
#150 =( NAMED_UNIT ( * ) SI_UNIT ( $, .STERADIAN. ) SOLID_ANGLE_UNIT ( ) );
#151 = VERTEX_POINT ( 'NONE', #188 ) ;
#152 = PERSON ( 'UNSPECIFIED', 'UNSPECIFIED', 'UNSPECIFIED', ('UNSPECIFIED'), ('UNSPECIFIED'), ('UNSPECIFIED') ) ;
#153 = CALENDAR_DATE ( 2026, 24, 8 ) ;
#154 = LOCAL_TIME ( 20, 20, 21.00000000000000000, #169 ) ;
#155 = DIRECTION ( 'NONE',  ( 1.000000000000000000, 0.000000000000000000, 0.000000000000000000 ) ) ;
#156 = APPROVAL ( #193, 'UNSPECIFIED' ) ;
#157 = VERTEX_POINT ( 'NONE', #204 ) ;
#158 = LINE ( 'NONE', #234, #229 ) ;
#159 = EDGE_CURVE ( 'NONE', #13, #157, #17, .T. ) ;
#160 = CARTESIAN_POINT ( 'NONE',  ( -25.00000000000000711, 20.00000000000001066, 8.000000000000000000 ) ) ;
#161 = LINE ( 'NONE', #236, #60 ) ;
#162 = VECTOR ( 'NONE', #186, 1000.000000000000000 ) ;
#163 = EDGE_CURVE ( 'NONE', #226, #215, #161, .T. ) ;
#164 = PLANE ( 'NONE',  #66 ) ;
#165 = CC_DESIGN_DATE_AND_TIME_ASSIGNMENT ( #108, #213, ( #191 ) ) ;
#166 = VECTOR ( 'NONE', #9, 1000.000000000000000 ) ;
#167 = DIRECTION ( 'NONE',  ( -0.000000000000000000, -0.000000000000000000, -1.000000000000000000 ) ) ;
#168 = PERSON_AND_ORGANIZATION_ROLE ( 'design_supplier' ) ;
#169 = COORDINATED_UNIVERSAL_TIME_OFFSET ( 5, 30, .AHEAD. ) ;
#170 = PERSON_AND_ORGANIZATION_ROLE ( 'creator' ) ;
#171 = ORIENTED_EDGE ( 'NONE', *, *, #163, .F. ) ;
#172 = APPROVAL_ROLE ( '' ) ;
#173 = DIRECTION ( 'NONE',  ( 1.000000000000000000, 0.000000000000000000, 0.000000000000000000 ) ) ;
#174 = ADVANCED_FACE ( 'NONE', ( #69 ), #223, .F. ) ;
#175 = ORIENTED_EDGE ( 'NONE', *, *, #214, .T. ) ;
#176 = ADVANCED_FACE ( 'NONE', ( #127 ), #164, .F. ) ;
#177 = CARTESIAN_POINT ( 'NONE',  ( -25.00000000000000711, 20.00000000000001066, 0.000000000000000000 ) ) ;
#178 = APPROVAL ( #207, 'UNSPECIFIED' ) ;
#179 = ORIENTED_EDGE ( 'NONE', *, *, #38, .F. ) ;
#180 = AXIS2_PLACEMENT_3D ( 'NONE', #137, #212, #173 ) ;
#181 = DIRECTION ( 'NONE',  ( 0.000000000000000000, -0.000000000000000000, -1.000000000000000000 ) ) ;
#182 = EDGE_CURVE ( 'NONE', #151, #117, #101, .T. ) ;
#183 = CC_DESIGN_PERSON_AND_ORGANIZATION_ASSIGNMENT ( #133, #168, ( #84 ) ) ;
#184 =( GEOMETRIC_REPRESENTATION_CONTEXT ( 3 ) GLOBAL_UNCERTAINTY_ASSIGNED_CONTEXT ( ( #67 ) ) GLOBAL_UNIT_ASSIGNED_CONTEXT ( ( #31, #85, #150 ) ) REPRESENTATION_CONTEXT ( 'NONE', 'WORKASPACE' ) );
#185 = DIRECTION ( 'NONE',  ( -0.000000000000000000, 1.000000000000000000, -0.000000000000000000 ) ) ;
#186 = DIRECTION ( 'NONE',  ( 1.000000000000000000, 0.000000000000000000, 0.000000000000000000 ) ) ;
#187 = APPROVAL_PERSON_ORGANIZATION ( #129, #156, #172 ) ;
#188 = CARTESIAN_POINT ( 'NONE',  ( 24.99999999999999289, -19.99999999999998934, 0.000000000000000000 ) ) ;
#189 = APPROVAL_DATE_TIME ( #73, #178 ) ;
#190 = APPLICATION_PROTOCOL_DEFINITION ( 'international standard', 'config_control_design', 1994, #76 ) ;
#191 = SECURITY_CLASSIFICATION ( '', '', #4 ) ;
#192 = CALENDAR_DATE ( 2026, 24, 8 ) ;
#193 = APPROVAL_STATUS ( 'not_yet_approved' ) ;
#194 = DIRECTION ( 'NONE',  ( -1.000000000000000000, -0.000000000000000000, -0.000000000000000000 ) ) ;
#195 = ORIENTED_EDGE ( 'NONE', *, *, #219, .F. ) ;
#196 = CLOSED_SHELL ( 'NONE', ( #176, #139, #123, #174, #222, #46 ) ) ;
#197 = CARTESIAN_POINT ( 'NONE',  ( -25.00000000000000711, 20.00000000000001066, 8.000000000000000000 ) ) ;
#198 = VERTEX_POINT ( 'NONE', #200 ) ;
#199 = DIRECTION ( 'NONE',  ( 1.000000000000000000, 0.000000000000000000, 0.000000000000000000 ) ) ;
#200 = CARTESIAN_POINT ( 'NONE',  ( -25.00000000000000355, -19.99999999999998934, 0.000000000000000000 ) ) ;
#201 = VECTOR ( 'NONE', #217, 1000.000000000000000 ) ;
#202 = CARTESIAN_POINT ( 'NONE',  ( 24.99999999999999289, 20.00000000000001066, 0.000000000000000000 ) ) ;
#203 = LINE ( 'NONE', #106, #111 ) ;
#204 = CARTESIAN_POINT ( 'NONE',  ( -25.00000000000000711, 20.00000000000001066, 0.000000000000000000 ) ) ;
#205 = VECTOR ( 'NONE', #194, 1000.000000000000000 ) ;
#206 = PERSON_AND_ORGANIZATION ( #152, #75 ) ;
#207 = APPROVAL_STATUS ( 'not_yet_approved' ) ;
#208 = ORIENTED_EDGE ( 'NONE', *, *, #80, .T. ) ;
#209 = VECTOR ( 'NONE', #50, 1000.000000000000000 ) ;
#210 = EDGE_CURVE ( 'NONE', #215, #117, #203, .T. ) ;
#211 = PERSON_AND_ORGANIZATION_ROLE ( 'design_owner' ) ;
#212 = DIRECTION ( 'NONE',  ( -0.000000000000000000, 0.000000000000000000, 1.000000000000000000 ) ) ;
#213 = DATE_TIME_ROLE ( 'classification_date' ) ;
#214 = EDGE_CURVE ( 'NONE', #226, #151, #158, .T. ) ;
#215 = VERTEX_POINT ( 'NONE', #34 ) ;
#216 = ORIENTED_EDGE ( 'NONE', *, *, #159, .F. ) ;
#217 = DIRECTION ( 'NONE',  ( 8.673617379884035472E-17, -1.000000000000000000, 0.000000000000000000 ) ) ;
#218 = CARTESIAN_POINT ( 'NONE',  ( -25.00000000000000711, 20.00000000000001066, 8.000000000000000000 ) ) ;
#219 = EDGE_CURVE ( 'NONE', #13, #231, #68, .T. ) ;
#220 = LOCAL_TIME ( 20, 20, 21.00000000000000000, #26 ) ;
#221 = FACE_OUTER_BOUND ( 'NONE', #28, .T. ) ;
#222 = ADVANCED_FACE ( 'NONE', ( #105 ), #71, .T. ) ;
#223 = PLANE ( 'NONE',  #136 ) ;
#224 = APPROVAL_STATUS ( 'not_yet_approved' ) ;
#225 = APPROVAL_DATE_TIME ( #92, #156 ) ;
#226 = VERTEX_POINT ( 'NONE', #86 ) ;
#227 = APPLICATION_PROTOCOL_DEFINITION ( 'international standard', 'config_control_design', 1994, #7 ) ;
#228 = ORIENTED_EDGE ( 'NONE', *, *, #145, .T. ) ;
#229 = VECTOR ( 'NONE', #121, 1000.000000000000000 ) ;
#230 = ORIENTED_EDGE ( 'NONE', *, *, #88, .T. ) ;
#231 = VERTEX_POINT ( 'NONE', #141 ) ;
#232 = ORIENTED_EDGE ( 'NONE', *, *, #88, .F. ) ;
#233 = CC_DESIGN_APPROVAL ( #156, ( #149 ) ) ;
#234 = CARTESIAN_POINT ( 'NONE',  ( 24.99999999999999289, -19.99999999999998934, 8.000000000000000000 ) ) ;
#235 = CARTESIAN_POINT ( 'NONE',  ( -25.00000000000000711, 20.00000000000001066, 8.000000000000000000 ) ) ;
#236 = CARTESIAN_POINT ( 'NONE',  ( 24.99999999999999289, 20.00000000000001066, 8.000000000000000000 ) ) ;
#237 = VECTOR ( 'NONE', #155, 1000.000000000000000 ) ;
ENDSEC;
END-ISO-10303-21;
