ISO-10303-21;
HEADER;
FILE_DESCRIPTION (( 'STEP AP203' ),
    '1' );
FILE_NAME ('Roller1_Default_sldprt.STEP',
    '2026-08-24T14:50:22',
    ( '' ),
    ( '' ),
    'SwSTEP 2.0',
    'SolidWorks 2020',
    '' );
FILE_SCHEMA (( 'CONFIG_CONTROL_DESIGN' ));
ENDSEC;

DATA;
#1 = CARTESIAN_POINT ( 'NONE',  ( 0.000000000000000000, 0.000000000000000000, 33.00000000000000000 ) ) ;
#2 = CARTESIAN_POINT ( 'NONE',  ( 0.000000000000000000, 0.000000000000000000, 33.00000000000000000 ) ) ;
#3 = DATE_AND_TIME ( #145, #219 ) ;
#4 = DIRECTION ( 'NONE',  ( 1.000000000000000000, 0.000000000000000000, 0.000000000000000000 ) ) ;
#5 = PERSON_AND_ORGANIZATION ( #203, #85 ) ;
#6 = CC_DESIGN_SECURITY_CLASSIFICATION ( #61, ( #193 ) ) ;
#7 = PRODUCT_DEFINITION_SHAPE ( 'NONE', 'NONE',  #135 ) ;
#8 = PERSON_AND_ORGANIZATION_ROLE ( 'creator' ) ;
#9 = ORIENTED_EDGE ( 'NONE', *, *, #137, .T. ) ;
#10 = COORDINATED_UNIVERSAL_TIME_OFFSET ( 5, 30, .AHEAD. ) ;
#11 = ORIENTED_EDGE ( 'NONE', *, *, #191, .T. ) ;
#12 = AXIS2_PLACEMENT_3D ( 'NONE', #15, #121, #230 ) ;
#13 = ORIENTED_EDGE ( 'NONE', *, *, #232, .F. ) ;
#14 = DIRECTION ( 'NONE',  ( -0.000000000000000000, -0.000000000000000000, -1.000000000000000000 ) ) ;
#15 = CARTESIAN_POINT ( 'NONE',  ( 0.000000000000000000, 0.000000000000000000, 0.000000000000000000 ) ) ;
#16 = EDGE_CURVE ( 'NONE', #186, #208, #72, .T. ) ;
#17 =( GEOMETRIC_REPRESENTATION_CONTEXT ( 3 ) GLOBAL_UNCERTAINTY_ASSIGNED_CONTEXT ( ( #95 ) ) GLOBAL_UNIT_ASSIGNED_CONTEXT ( ( #48, #104, #146 ) ) REPRESENTATION_CONTEXT ( 'NONE', 'WORKASPACE' ) );
#18 = LINE ( 'NONE', #140, #130 ) ;
#19 = CC_DESIGN_APPROVAL ( #78, ( #135 ) ) ;
#20 = DIRECTION ( 'NONE',  ( -1.000000000000000000, 0.000000000000000000, 0.000000000000000000 ) ) ;
#21 = EDGE_CURVE ( 'NONE', #183, #136, #151, .T. ) ;
#22 = CARTESIAN_POINT ( 'NONE',  ( -5.000000000000000000, 0.000000000000000000, 33.00000000000000000 ) ) ;
#23 = APPROVAL_ROLE ( '' ) ;
#24 = AXIS2_PLACEMENT_3D ( 'NONE', #138, #154, #20 ) ;
#25 = COORDINATED_UNIVERSAL_TIME_OFFSET ( 5, 30, .AHEAD. ) ;
#26 = DIRECTION ( 'NONE',  ( 0.000000000000000000, 0.000000000000000000, 1.000000000000000000 ) ) ;
#27 = APPLICATION_CONTEXT ( 'configuration controlled 3d designs of mechanical parts and assemblies' ) ;
#28 = COORDINATED_UNIVERSAL_TIME_OFFSET ( 5, 30, .AHEAD. ) ;
#29 = ORIENTED_EDGE ( 'NONE', *, *, #142, .F. ) ;
#30 = CIRCLE ( 'NONE', #37, 5.000000000000000000 ) ;
#31 = FACE_OUTER_BOUND ( 'NONE', #49, .T. ) ;
#32 = ADVANCED_FACE ( 'NONE', ( #31 ), #110, .T. ) ;
#33 = ORIENTED_EDGE ( 'NONE', *, *, #103, .T. ) ;
#34 = CC_DESIGN_PERSON_AND_ORGANIZATION_ASSIGNMENT ( #235, #8, ( #135 ) ) ;
#35 = VERTEX_POINT ( 'NONE', #46 ) ;
#36 = CLOSED_SHELL ( 'NONE', ( #115, #32, #106, #185, #234, #226 ) ) ;
#37 = AXIS2_PLACEMENT_3D ( 'NONE', #83, #39, #143 ) ;
#38 = ORIENTED_EDGE ( 'NONE', *, *, #236, .T. ) ;
#39 = DIRECTION ( 'NONE',  ( 0.000000000000000000, 0.000000000000000000, 1.000000000000000000 ) ) ;
#40 = CARTESIAN_POINT ( 'NONE',  ( 0.000000000000000000, 0.000000000000000000, 0.000000000000000000 ) ) ;
#41 = CIRCLE ( 'NONE', #177, 2.500000000000000000 ) ;
#42 = APPLICATION_CONTEXT ( 'configuration controlled 3d designs of mechanical parts and assemblies' ) ;
#43 = DIRECTION ( 'NONE',  ( -1.000000000000000000, 0.000000000000000000, 0.000000000000000000 ) ) ;
#44 = AXIS2_PLACEMENT_3D ( 'NONE', #74, #133, #204 ) ;
#45 = FACE_OUTER_BOUND ( 'NONE', #216, .T. ) ;
#46 = CARTESIAN_POINT ( 'NONE',  ( -2.500000000000000000, 0.000000000000000000, 33.00000000000000000 ) ) ;
#47 = DATE_TIME_ROLE ( 'classification_date' ) ;
#48 =( LENGTH_UNIT ( ) NAMED_UNIT ( * ) SI_UNIT ( .MILLI., .METRE. ) );
#49 = EDGE_LOOP ( 'NONE', ( #113, #114, #70, #222 ) ) ;
#50 = PERSON_AND_ORGANIZATION ( #203, #85 ) ;
#51 = AXIS2_PLACEMENT_3D ( 'NONE', #196, #227, #170 ) ;
#52 = VERTEX_POINT ( 'NONE', #98 ) ;
#53 = APPROVAL_PERSON_ORGANIZATION ( #125, #55, #164 ) ;
#54 = PERSON_AND_ORGANIZATION_ROLE ( 'design_owner' ) ;
#55 = APPROVAL ( #198, 'UNSPECIFIED' ) ;
#56 = ORIENTED_EDGE ( 'NONE', *, *, #232, .T. ) ;
#57 = DATE_AND_TIME ( #239, #217 ) ;
#58 = LOCAL_TIME ( 20, 20, 22.00000000000000000, #67 ) ;
#59 = FACE_OUTER_BOUND ( 'NONE', #241, .T. ) ;
#60 = DIRECTION ( 'NONE',  ( -1.000000000000000000, 0.000000000000000000, 0.000000000000000000 ) ) ;
#61 = SECURITY_CLASSIFICATION ( '', '', #89 ) ;
#62 = CC_DESIGN_PERSON_AND_ORGANIZATION_ASSIGNMENT ( #5, #180, ( #193 ) ) ;
#63 = CYLINDRICAL_SURFACE ( 'NONE', #24, 2.500000000000000000 ) ;
#64 = DIRECTION ( 'NONE',  ( -0.000000000000000000, -0.000000000000000000, -1.000000000000000000 ) ) ;
#65 = AXIS2_PLACEMENT_3D ( 'NONE', #175, #144, #43 ) ;
#66 = CARTESIAN_POINT ( 'NONE',  ( 0.000000000000000000, 0.000000000000000000, 33.00000000000000000 ) ) ;
#67 = COORDINATED_UNIVERSAL_TIME_OFFSET ( 5, 30, .AHEAD. ) ;
#68 = DATE_TIME_ROLE ( 'creation_date' ) ;
#69 = CIRCLE ( 'NONE', #51, 5.000000000000000000 ) ;
#70 = ORIENTED_EDGE ( 'NONE', *, *, #123, .T. ) ;
#71 = APPROVAL_STATUS ( 'not_yet_approved' ) ;
#72 = LINE ( 'NONE', #187, #174 ) ;
#73 = PERSON_AND_ORGANIZATION_ROLE ( 'classification_officer' ) ;
#74 = CARTESIAN_POINT ( 'NONE',  ( 0.000000000000000000, 0.000000000000000000, 33.00000000000000000 ) ) ;
#75 = CIRCLE ( 'NONE', #87, 5.000000000000000000 ) ;
#76 = EDGE_CURVE ( 'NONE', #136, #147, #237, .T. ) ;
#77 = ORIENTED_EDGE ( 'NONE', *, *, #21, .T. ) ;
#78 = APPROVAL ( #199, 'UNSPECIFIED' ) ;
#79 = FACE_OUTER_BOUND ( 'NONE', #134, .T. ) ;
#80 = AXIS2_PLACEMENT_3D ( 'NONE', #176, #84, #209 ) ;
#81 = LOCAL_TIME ( 20, 20, 22.00000000000000000, #28 ) ;
#82 = CARTESIAN_POINT ( 'NONE',  ( 5.000000000000000000, 6.123233995736766282E-16, 0.000000000000000000 ) ) ;
#83 = CARTESIAN_POINT ( 'NONE',  ( 0.000000000000000000, 0.000000000000000000, 0.000000000000000000 ) ) ;
#84 = DIRECTION ( 'NONE',  ( 0.000000000000000000, 0.000000000000000000, -1.000000000000000000 ) ) ;
#85 = ORGANIZATION ( 'UNSPECIFIED', 'UNSPECIFIED', '' ) ;
#86 = DIRECTION ( 'NONE',  ( 1.000000000000000000, 0.000000000000000000, -0.000000000000000000 ) ) ;
#87 = AXIS2_PLACEMENT_3D ( 'NONE', #249, #157, #132 ) ;
#88 = CALENDAR_DATE ( 2026, 24, 8 ) ;
#89 = SECURITY_CLASSIFICATION_LEVEL ( 'unclassified' ) ;
#90 = DATE_AND_TIME ( #178, #58 ) ;
#91 = EDGE_LOOP ( 'NONE', ( #11, #94 ) ) ;
#92 = PERSON_AND_ORGANIZATION_ROLE ( 'design_supplier' ) ;
#93 = ORIENTED_EDGE ( 'NONE', *, *, #123, .F. ) ;
#94 = ORIENTED_EDGE ( 'NONE', *, *, #142, .T. ) ;
#95 = UNCERTAINTY_MEASURE_WITH_UNIT (LENGTH_MEASURE( 1.000000000000000082E-05 ), #48, 'distance_accuracy_value', 'NONE');
#96 = DIRECTION ( 'NONE',  ( 0.000000000000000000, 0.000000000000000000, 1.000000000000000000 ) ) ;
#97 = CARTESIAN_POINT ( 'NONE',  ( 0.000000000000000000, 0.000000000000000000, 33.00000000000000000 ) ) ;
#98 = CARTESIAN_POINT ( 'NONE',  ( -5.000000000000000000, 0.000000000000000000, 0.000000000000000000 ) ) ;
#99 = EDGE_CURVE ( 'NONE', #147, #136, #126, .T. ) ;
#100 = CC_DESIGN_DATE_AND_TIME_ASSIGNMENT ( #90, #68, ( #135 ) ) ;
#101 = DIRECTION ( 'NONE',  ( 0.000000000000000000, 0.000000000000000000, 1.000000000000000000 ) ) ;
#102 = FACE_OUTER_BOUND ( 'NONE', #205, .T. ) ;
#103 = EDGE_CURVE ( 'NONE', #223, #52, #194, .T. ) ;
#104 =( NAMED_UNIT ( * ) PLANE_ANGLE_UNIT ( ) SI_UNIT ( $, .RADIAN. ) );
#105 = APPROVAL_ROLE ( '' ) ;
#106 = ADVANCED_FACE ( 'NONE', ( #59 ), #228, .T. ) ;
#107 = APPROVAL ( #71, 'UNSPECIFIED' ) ;
#108 = EDGE_LOOP ( 'NONE', ( #153, #245, #220, #128 ) ) ;
#109 = MECHANICAL_CONTEXT ( 'NONE', #27, 'mechanical' ) ;
#110 = CYLINDRICAL_SURFACE ( 'NONE', #44, 5.000000000000000000 ) ;
#111 = ORIENTED_EDGE ( 'NONE', *, *, #236, .F. ) ;
#112 = CC_DESIGN_PERSON_AND_ORGANIZATION_ASSIGNMENT ( #50, #92, ( #193 ) ) ;
#113 = ORIENTED_EDGE ( 'NONE', *, *, #137, .F. ) ;
#114 = ORIENTED_EDGE ( 'NONE', *, *, #16, .T. ) ;
#115 = ADVANCED_FACE ( 'NONE', ( #102 ), #63, .F. ) ;
#116 = DIRECTION ( 'NONE',  ( -1.000000000000000000, 0.000000000000000000, 0.000000000000000000 ) ) ;
#117 = CC_DESIGN_APPROVAL ( #55, ( #61 ) ) ;
#118 = CARTESIAN_POINT ( 'NONE',  ( -2.500000000000000000, 0.000000000000000000, 0.000000000000000000 ) ) ;
#119 = CC_DESIGN_APPROVAL ( #107, ( #193 ) ) ;
#120 = APPROVAL_PERSON_ORGANIZATION ( #165, #107, #105 ) ;
#121 = DIRECTION ( 'NONE',  ( 0.000000000000000000, 0.000000000000000000, -1.000000000000000000 ) ) ;
#122 = DIRECTION ( 'NONE',  ( 0.000000000000000000, 0.000000000000000000, -1.000000000000000000 ) ) ;
#123 = EDGE_CURVE ( 'NONE', #208, #52, #30, .T. ) ;
#124 = DIRECTION ( 'NONE',  ( -0.000000000000000000, -0.000000000000000000, -1.000000000000000000 ) ) ;
#125 = PERSON_AND_ORGANIZATION ( #203, #85 ) ;
#126 = CIRCLE ( 'NONE', #12, 2.500000000000000000 ) ;
#127 = APPLICATION_PROTOCOL_DEFINITION ( 'international standard', 'config_control_design', 1994, #42 ) ;
#128 = ORIENTED_EDGE ( 'NONE', *, *, #99, .T. ) ;
#129 = APPROVAL_DATE_TIME ( #181, #78 ) ;
#130 = VECTOR ( 'NONE', #171, 1000.000000000000000 ) ;
#131 = ORIENTED_EDGE ( 'NONE', *, *, #99, .F. ) ;
#132 = DIRECTION ( 'NONE',  ( 1.000000000000000000, 0.000000000000000000, 0.000000000000000000 ) ) ;
#133 = DIRECTION ( 'NONE',  ( -0.000000000000000000, -0.000000000000000000, -1.000000000000000000 ) ) ;
#134 = EDGE_LOOP ( 'NONE', ( #13, #93 ) ) ;
#135 = PRODUCT_DEFINITION ( 'UNKNOWN', '', #193, #152 ) ;
#136 = VERTEX_POINT ( 'NONE', #212 ) ;
#137 = EDGE_CURVE ( 'NONE', #186, #223, #231, .T. ) ;
#138 = CARTESIAN_POINT ( 'NONE',  ( 0.000000000000000000, 0.000000000000000000, 33.00000000000000000 ) ) ;
#139 = FACE_BOUND ( 'NONE', #169, .T. ) ;
#140 = CARTESIAN_POINT ( 'NONE',  ( -2.500000000000000000, 0.000000000000000000, 33.00000000000000000 ) ) ;
#141 = AXIS2_PLACEMENT_3D ( 'NONE', #97, #64, #116 ) ;
#142 = EDGE_CURVE ( 'NONE', #183, #35, #207, .T. ) ;
#143 = DIRECTION ( 'NONE',  ( 1.000000000000000000, 0.000000000000000000, 0.000000000000000000 ) ) ;
#144 = DIRECTION ( 'NONE',  ( 0.000000000000000000, 0.000000000000000000, -1.000000000000000000 ) ) ;
#145 = CALENDAR_DATE ( 2026, 24, 8 ) ;
#146 =( NAMED_UNIT ( * ) SI_UNIT ( $, .STERADIAN. ) SOLID_ANGLE_UNIT ( ) );
#147 = VERTEX_POINT ( 'NONE', #118 ) ;
#148 = CARTESIAN_POINT ( 'NONE',  ( 2.500000000000000000, 3.061616997868383141E-16, 33.00000000000000000 ) ) ;
#149 = MANIFOLD_SOLID_BREP ( 'Cut-Extrude1', #36 ) ;
#150 = COORDINATED_UNIVERSAL_TIME_OFFSET ( 5, 30, .AHEAD. ) ;
#151 = LINE ( 'NONE', #148, #206 ) ;
#152 = DESIGN_CONTEXT ( 'detailed design', #42, 'design' ) ;
#153 = ORIENTED_EDGE ( 'NONE', *, *, #21, .F. ) ;
#154 = DIRECTION ( 'NONE',  ( -0.000000000000000000, -0.000000000000000000, -1.000000000000000000 ) ) ;
#155 = VECTOR ( 'NONE', #211, 1000.000000000000000 ) ;
#156 = FACE_OUTER_BOUND ( 'NONE', #108, .T. ) ;
#157 = DIRECTION ( 'NONE',  ( 0.000000000000000000, 0.000000000000000000, 1.000000000000000000 ) ) ;
#158 = AXIS2_PLACEMENT_3D ( 'NONE', #66, #124, #60 ) ;
#159 = CARTESIAN_POINT ( 'NONE',  ( 5.000000000000000000, 6.123233995736766282E-16, 33.00000000000000000 ) ) ;
#160 = PRODUCT ( 'Roller1_Default_sldprt', 'Roller1_Default_sldprt', '', ( #109 ) ) ;
#161 = AXIS2_PLACEMENT_3D ( 'NONE', #40, #189, #172 ) ;
#162 = CYLINDRICAL_SURFACE ( 'NONE', #158, 2.500000000000000000 ) ;
#163 = CALENDAR_DATE ( 2026, 24, 8 ) ;
#164 = APPROVAL_ROLE ( '' ) ;
#165 = PERSON_AND_ORGANIZATION ( #203, #85 ) ;
#166 = CARTESIAN_POINT ( 'NONE',  ( 0.000000000000000000, 0.000000000000000000, 0.000000000000000000 ) ) ;
#167 = PRODUCT_RELATED_PRODUCT_CATEGORY ( 'detail', '', ( #160 ) ) ;
#168 = AXIS2_PLACEMENT_3D ( 'NONE', #166, #26, #4 ) ;
#169 = EDGE_LOOP ( 'NONE', ( #131, #200 ) ) ;
#170 = DIRECTION ( 'NONE',  ( 1.000000000000000000, 0.000000000000000000, 0.000000000000000000 ) ) ;
#171 = DIRECTION ( 'NONE',  ( -0.000000000000000000, -0.000000000000000000, -1.000000000000000000 ) ) ;
#172 = DIRECTION ( 'NONE',  ( 1.000000000000000000, 0.000000000000000000, -0.000000000000000000 ) ) ;
#173 = CC_DESIGN_PERSON_AND_ORGANIZATION_ASSIGNMENT ( #218, #54, ( #160 ) ) ;
#174 = VECTOR ( 'NONE', #14, 1000.000000000000000 ) ;
#175 = CARTESIAN_POINT ( 'NONE',  ( 0.000000000000000000, 0.000000000000000000, 33.00000000000000000 ) ) ;
#176 = CARTESIAN_POINT ( 'NONE',  ( 0.000000000000000000, 0.000000000000000000, 0.000000000000000000 ) ) ;
#177 = AXIS2_PLACEMENT_3D ( 'NONE', #225, #122, #213 ) ;
#178 = CALENDAR_DATE ( 2026, 24, 8 ) ;
#179 = PERSON_AND_ORGANIZATION ( #203, #85 ) ;
#180 = PERSON_AND_ORGANIZATION_ROLE ( 'creator' ) ;
#181 = DATE_AND_TIME ( #163, #81 ) ;
#182 = ORIENTED_EDGE ( 'NONE', *, *, #184, .F. ) ;
#183 = VERTEX_POINT ( 'NONE', #233 ) ;
#184 = EDGE_CURVE ( 'NONE', #35, #147, #18, .T. ) ;
#185 = ADVANCED_FACE ( 'NONE', ( #247, #45 ), #248, .T. ) ;
#186 = VERTEX_POINT ( 'NONE', #159 ) ;
#187 = CARTESIAN_POINT ( 'NONE',  ( 5.000000000000000000, 6.123233995736766282E-16, 33.00000000000000000 ) ) ;
#188 = DIRECTION ( 'NONE',  ( 1.000000000000000000, 0.000000000000000000, 0.000000000000000000 ) ) ;
#189 = DIRECTION ( 'NONE',  ( 0.000000000000000000, 0.000000000000000000, 1.000000000000000000 ) ) ;
#190 = AXIS2_PLACEMENT_3D ( 'NONE', #1, #96, #86 ) ;
#191 = EDGE_CURVE ( 'NONE', #35, #183, #41, .T. ) ;
#192 = CC_DESIGN_DATE_AND_TIME_ASSIGNMENT ( #214, #47, ( #61 ) ) ;
#193 = PRODUCT_DEFINITION_FORMATION_WITH_SPECIFIED_SOURCE ( 'ANY', '', #160, .NOT_KNOWN. ) ;
#194 = LINE ( 'NONE', #22, #155 ) ;
#195 = CARTESIAN_POINT ( 'NONE',  ( -5.000000000000000000, 0.000000000000000000, 33.00000000000000000 ) ) ;
#196 = CARTESIAN_POINT ( 'NONE',  ( 0.000000000000000000, 0.000000000000000000, 0.000000000000000000 ) ) ;
#197 = LOCAL_TIME ( 20, 20, 22.00000000000000000, #150 ) ;
#198 = APPROVAL_STATUS ( 'not_yet_approved' ) ;
#199 = APPROVAL_STATUS ( 'not_yet_approved' ) ;
#200 = ORIENTED_EDGE ( 'NONE', *, *, #76, .F. ) ;
#201 = APPLICATION_PROTOCOL_DEFINITION ( 'international standard', 'config_control_design', 1994, #27 ) ;
#202 = DIRECTION ( 'NONE',  ( -0.000000000000000000, -0.000000000000000000, -1.000000000000000000 ) ) ;
#203 = PERSON ( 'UNSPECIFIED', 'UNSPECIFIED', 'UNSPECIFIED', ('UNSPECIFIED'), ('UNSPECIFIED'), ('UNSPECIFIED') ) ;
#204 = DIRECTION ( 'NONE',  ( -1.000000000000000000, 0.000000000000000000, 0.000000000000000000 ) ) ;
#205 = EDGE_LOOP ( 'NONE', ( #29, #77, #246, #182 ) ) ;
#206 = VECTOR ( 'NONE', #202, 1000.000000000000000 ) ;
#207 = CIRCLE ( 'NONE', #65, 2.500000000000000000 ) ;
#208 = VERTEX_POINT ( 'NONE', #82 ) ;
#209 = DIRECTION ( 'NONE',  ( -1.000000000000000000, 0.000000000000000000, 0.000000000000000000 ) ) ;
#210 = PLANE ( 'NONE',  #161 ) ;
#211 = DIRECTION ( 'NONE',  ( -0.000000000000000000, -0.000000000000000000, -1.000000000000000000 ) ) ;
#212 = CARTESIAN_POINT ( 'NONE',  ( 2.500000000000000000, 3.061616997868383141E-16, 0.000000000000000000 ) ) ;
#213 = DIRECTION ( 'NONE',  ( -1.000000000000000000, 0.000000000000000000, 0.000000000000000000 ) ) ;
#214 = DATE_AND_TIME ( #88, #197 ) ;
#215 = APPROVAL_DATE_TIME ( #3, #107 ) ;
#216 = EDGE_LOOP ( 'NONE', ( #38, #9 ) ) ;
#217 = LOCAL_TIME ( 20, 20, 22.00000000000000000, #25 ) ;
#218 = PERSON_AND_ORGANIZATION ( #203, #85 ) ;
#219 = LOCAL_TIME ( 20, 20, 22.00000000000000000, #10 ) ;
#220 = ORIENTED_EDGE ( 'NONE', *, *, #184, .T. ) ;
#221 = APPROVAL_DATE_TIME ( #57, #55 ) ;
#222 = ORIENTED_EDGE ( 'NONE', *, *, #103, .F. ) ;
#223 = VERTEX_POINT ( 'NONE', #195 ) ;
#224 = AXIS2_PLACEMENT_3D ( 'NONE', #2, #101, #188 ) ;
#225 = CARTESIAN_POINT ( 'NONE',  ( 0.000000000000000000, 0.000000000000000000, 33.00000000000000000 ) ) ;
#226 = ADVANCED_FACE ( 'NONE', ( #156 ), #162, .F. ) ;
#227 = DIRECTION ( 'NONE',  ( 0.000000000000000000, 0.000000000000000000, 1.000000000000000000 ) ) ;
#228 = CYLINDRICAL_SURFACE ( 'NONE', #141, 5.000000000000000000 ) ;
#229 = CC_DESIGN_PERSON_AND_ORGANIZATION_ASSIGNMENT ( #242, #73, ( #61 ) ) ;
#230 = DIRECTION ( 'NONE',  ( -1.000000000000000000, 0.000000000000000000, 0.000000000000000000 ) ) ;
#231 = CIRCLE ( 'NONE', #224, 5.000000000000000000 ) ;
#232 = EDGE_CURVE ( 'NONE', #52, #208, #69, .T. ) ;
#233 = CARTESIAN_POINT ( 'NONE',  ( 2.500000000000000000, 3.061616997868383141E-16, 33.00000000000000000 ) ) ;
#234 = ADVANCED_FACE ( 'NONE', ( #139, #79 ), #210, .F. ) ;
#235 = PERSON_AND_ORGANIZATION ( #203, #85 ) ;
#236 = EDGE_CURVE ( 'NONE', #223, #186, #75, .T. ) ;
#237 = CIRCLE ( 'NONE', #80, 2.500000000000000000 ) ;
#238 = APPROVAL_PERSON_ORGANIZATION ( #179, #78, #23 ) ;
#239 = CALENDAR_DATE ( 2026, 24, 8 ) ;
#240 = ADVANCED_BREP_SHAPE_REPRESENTATION ( 'Roller1_Default_sldprt', ( #149, #168 ), #17 ) ;
#241 = EDGE_LOOP ( 'NONE', ( #243, #111, #33, #56 ) ) ;
#242 = PERSON_AND_ORGANIZATION ( #203, #85 ) ;
#243 = ORIENTED_EDGE ( 'NONE', *, *, #16, .F. ) ;
#244 = SHAPE_DEFINITION_REPRESENTATION ( #7, #240 ) ;
#245 = ORIENTED_EDGE ( 'NONE', *, *, #191, .F. ) ;
#246 = ORIENTED_EDGE ( 'NONE', *, *, #76, .T. ) ;
#247 = FACE_BOUND ( 'NONE', #91, .T. ) ;
#248 = PLANE ( 'NONE',  #190 ) ;
#249 = CARTESIAN_POINT ( 'NONE',  ( 0.000000000000000000, 0.000000000000000000, 33.00000000000000000 ) ) ;
ENDSEC;
END-ISO-10303-21;
