ISO-10303-21;
HEADER;
FILE_DESCRIPTION (( 'STEP AP203' ),
    '1' );
FILE_NAME ('SideSlider_Default_sldprt.STEP',
    '2026-08-24T14:50:24',
    ( '' ),
    ( '' ),
    'SwSTEP 2.0',
    'SolidWorks 2020',
    '' );
FILE_SCHEMA (( 'CONFIG_CONTROL_DESIGN' ));
ENDSEC;

DATA;
#1 = ADVANCED_FACE ( 'NONE', ( #180 ), #109, .F. ) ;
#2 = SECURITY_CLASSIFICATION ( '', '', #47 ) ;
#3 = DIRECTION ( 'NONE',  ( -1.000000000000000000, -0.000000000000000000, -0.000000000000000000 ) ) ;
#4 = DIRECTION ( 'NONE',  ( 0.000000000000000000, 0.000000000000000000, 1.000000000000000000 ) ) ;
#5 = CALENDAR_DATE ( 2026, 24, 8 ) ;
#6 = APPROVAL_ROLE ( '' ) ;
#7 = CLOSED_SHELL ( 'NONE', ( #80, #214, #1, #168, #33, #228 ) ) ;
#8 = APPROVAL_PERSON_ORGANIZATION ( #67, #161, #6 ) ;
#9 = APPROVAL_STATUS ( 'not_yet_approved' ) ;
#10 = ORIENTED_EDGE ( 'NONE', *, *, #71, .F. ) ;
#11 = DATE_TIME_ROLE ( 'creation_date' ) ;
#12 = PLANE ( 'NONE',  #167 ) ;
#13 = ORIENTED_EDGE ( 'NONE', *, *, #86, .F. ) ;
#14 = ORIENTED_EDGE ( 'NONE', *, *, #221, .T. ) ;
#15 = ORIENTED_EDGE ( 'NONE', *, *, #42, .F. ) ;
#16 = VECTOR ( 'NONE', #79, 1000.000000000000000 ) ;
#17 = DIRECTION ( 'NONE',  ( -0.000000000000000000, -0.000000000000000000, -1.000000000000000000 ) ) ;
#18 = CARTESIAN_POINT ( 'NONE',  ( -43.00000000000005684, 0.9999999999999991118, 0.000000000000000000 ) ) ;
#19 = AXIS2_PLACEMENT_3D ( 'NONE', #149, #234, #4 ) ;
#20 = VECTOR ( 'NONE', #3, 1000.000000000000000 ) ;
#21 = DIRECTION ( 'NONE',  ( 0.000000000000000000, -0.000000000000000000, 1.000000000000000000 ) ) ;
#22 = CARTESIAN_POINT ( 'NONE',  ( -43.00000000000005684, 0.9999999999999991118, 3.000000000000000000 ) ) ;
#23 = EDGE_CURVE ( 'NONE', #175, #92, #128, .T. ) ;
#24 = APPROVAL_ROLE ( '' ) ;
#25 =( NAMED_UNIT ( * ) PLANE_ANGLE_UNIT ( ) SI_UNIT ( $, .RADIAN. ) );
#26 = PRODUCT_DEFINITION ( 'UNKNOWN', '', #155, #75 ) ;
#27 = COORDINATED_UNIVERSAL_TIME_OFFSET ( 5, 30, .AHEAD. ) ;
#28 = VECTOR ( 'NONE', #235, 1000.000000000000000 ) ;
#29 = AXIS2_PLACEMENT_3D ( 'NONE', #124, #34, #53 ) ;
#30 = APPROVAL_DATE_TIME ( #206, #194 ) ;
#31 = ORIENTED_EDGE ( 'NONE', *, *, #178, .F. ) ;
#32 = CARTESIAN_POINT ( 'NONE',  ( 0.000000000000000000, 0.000000000000000000, 3.000000000000000000 ) ) ;
#33 = ADVANCED_FACE ( 'NONE', ( #158 ), #12, .T. ) ;
#34 = DIRECTION ( 'NONE',  ( 1.000000000000000000, 0.000000000000000000, -0.000000000000000000 ) ) ;
#35 = CC_DESIGN_PERSON_AND_ORGANIZATION_ASSIGNMENT ( #85, #122, ( #155 ) ) ;
#36 = LINE ( 'NONE', #18, #81 ) ;
#37 = LINE ( 'NONE', #201, #97 ) ;
#38 = APPROVAL_PERSON_ORGANIZATION ( #125, #194, #24 ) ;
#39 = PERSON ( 'UNSPECIFIED', 'UNSPECIFIED', 'UNSPECIFIED', ('UNSPECIFIED'), ('UNSPECIFIED'), ('UNSPECIFIED') ) ;
#40 = FACE_OUTER_BOUND ( 'NONE', #160, .T. ) ;
#41 = FACE_OUTER_BOUND ( 'NONE', #179, .T. ) ;
#42 = EDGE_CURVE ( 'NONE', #232, #159, #140, .T. ) ;
#43 = APPLICATION_CONTEXT ( 'configuration controlled 3d designs of mechanical parts and assemblies' ) ;
#44 = DATE_AND_TIME ( #120, #154 ) ;
#45 =( NAMED_UNIT ( * ) SI_UNIT ( $, .STERADIAN. ) SOLID_ANGLE_UNIT ( ) );
#46 = ORIENTED_EDGE ( 'NONE', *, *, #100, .F. ) ;
#47 = SECURITY_CLASSIFICATION_LEVEL ( 'unclassified' ) ;
#48 = EDGE_CURVE ( 'NONE', #129, #159, #36, .T. ) ;
#49 = ORIENTED_EDGE ( 'NONE', *, *, #78, .F. ) ;
#50 = DATE_TIME_ROLE ( 'classification_date' ) ;
#51 = APPROVAL ( #9, 'UNSPECIFIED' ) ;
#52 = VERTEX_POINT ( 'NONE', #135 ) ;
#53 = DIRECTION ( 'NONE',  ( -0.000000000000000000, 0.000000000000000000, -1.000000000000000000 ) ) ;
#54 = AXIS2_PLACEMENT_3D ( 'NONE', #118, #185, #216 ) ;
#55 = ORIENTED_EDGE ( 'NONE', *, *, #198, .T. ) ;
#56 = CARTESIAN_POINT ( 'NONE',  ( -43.00000000000005684, -1.000000000000000888, 0.000000000000000000 ) ) ;
#57 = DIRECTION ( 'NONE',  ( -0.000000000000000000, -0.000000000000000000, -1.000000000000000000 ) ) ;
#58 = CC_DESIGN_SECURITY_CLASSIFICATION ( #2, ( #155 ) ) ;
#59 = LINE ( 'NONE', #182, #197 ) ;
#60 = FACE_OUTER_BOUND ( 'NONE', #176, .T. ) ;
#61 = CC_DESIGN_APPROVAL ( #161, ( #155 ) ) ;
#62 = DATE_AND_TIME ( #226, #219 ) ;
#63 = VECTOR ( 'NONE', #181, 1000.000000000000000 ) ;
#64 = PERSON_AND_ORGANIZATION ( #39, #233 ) ;
#65 = DATE_AND_TIME ( #106, #113 ) ;
#66 = DIRECTION ( 'NONE',  ( -0.000000000000000000, 0.000000000000000000, 1.000000000000000000 ) ) ;
#67 = PERSON_AND_ORGANIZATION ( #39, #233 ) ;
#68 = ORIENTED_EDGE ( 'NONE', *, *, #86, .T. ) ;
#69 = CALENDAR_DATE ( 2026, 24, 8 ) ;
#70 = PRODUCT_DEFINITION_SHAPE ( 'NONE', 'NONE',  #26 ) ;
#71 = EDGE_CURVE ( 'NONE', #159, #88, #199, .T. ) ;
#72 = ORIENTED_EDGE ( 'NONE', *, *, #103, .F. ) ;
#73 = ORIENTED_EDGE ( 'NONE', *, *, #178, .T. ) ;
#74 = CC_DESIGN_DATE_AND_TIME_ASSIGNMENT ( #44, #11, ( #26 ) ) ;
#75 = DESIGN_CONTEXT ( 'detailed design', #98, 'design' ) ;
#76 =( LENGTH_UNIT ( ) NAMED_UNIT ( * ) SI_UNIT ( .MILLI., .METRE. ) );
#77 = PLANE ( 'NONE',  #19 ) ;
#78 = EDGE_CURVE ( 'NONE', #52, #129, #37, .T. ) ;
#79 = DIRECTION ( 'NONE',  ( 1.000000000000000000, 0.000000000000000000, 0.000000000000000000 ) ) ;
#80 = ADVANCED_FACE ( 'NONE', ( #117 ), #77, .F. ) ;
#81 = VECTOR ( 'NONE', #150, 1000.000000000000000 ) ;
#82 = LINE ( 'NONE', #152, #225 ) ;
#83 = PLANE ( 'NONE',  #99 ) ;
#84 = MECHANICAL_CONTEXT ( 'NONE', #43, 'mechanical' ) ;
#85 = PERSON_AND_ORGANIZATION ( #39, #233 ) ;
#86 = EDGE_CURVE ( 'NONE', #88, #91, #115, .T. ) ;
#87 = DATE_AND_TIME ( #69, #183 ) ;
#88 = VERTEX_POINT ( 'NONE', #56 ) ;
#89 = DIRECTION ( 'NONE',  ( 0.000000000000000000, 0.000000000000000000, 1.000000000000000000 ) ) ;
#90 = PRODUCT ( 'SideSlider_Default_sldprt', 'SideSlider_Default_sldprt', '', ( #84 ) ) ;
#91 = VERTEX_POINT ( 'NONE', #130 ) ;
#92 = VERTEX_POINT ( 'NONE', #133 ) ;
#93 = ORIENTED_EDGE ( 'NONE', *, *, #48, .F. ) ;
#94 = CARTESIAN_POINT ( 'NONE',  ( -43.00000000000005684, 0.9999999999999991118, 3.000000000000000000 ) ) ;
#95 = PLANE ( 'NONE',  #192 ) ;
#96 = LINE ( 'NONE', #114, #126 ) ;
#97 = VECTOR ( 'NONE', #57, 1000.000000000000000 ) ;
#98 = APPLICATION_CONTEXT ( 'configuration controlled 3d designs of mechanical parts and assemblies' ) ;
#99 = AXIS2_PLACEMENT_3D ( 'NONE', #119, #186, #222 ) ;
#100 = EDGE_CURVE ( 'NONE', #232, #175, #59, .T. ) ;
#101 = CARTESIAN_POINT ( 'NONE',  ( -43.00000000000005684, -1.000000000000000888, 3.000000000000000000 ) ) ;
#102 = DIRECTION ( 'NONE',  ( 0.000000000000000000, 1.000000000000000000, 0.000000000000000000 ) ) ;
#103 = EDGE_CURVE ( 'NONE', #92, #52, #202, .T. ) ;
#104 = COORDINATED_UNIVERSAL_TIME_OFFSET ( 5, 30, .AHEAD. ) ;
#105 = APPROVAL_DATE_TIME ( #62, #51 ) ;
#106 = CALENDAR_DATE ( 2026, 24, 8 ) ;
#107 = ORIENTED_EDGE ( 'NONE', *, *, #23, .F. ) ;
#108 = PERSON_AND_ORGANIZATION_ROLE ( 'creator' ) ;
#109 = PLANE ( 'NONE',  #29 ) ;
#110 = ORIENTED_EDGE ( 'NONE', *, *, #42, .T. ) ;
#111 = ORIENTED_EDGE ( 'NONE', *, *, #116, .F. ) ;
#112 = ORIENTED_EDGE ( 'NONE', *, *, #221, .F. ) ;
#113 = LOCAL_TIME ( 20, 20, 24.00000000000000000, #205 ) ;
#114 = CARTESIAN_POINT ( 'NONE',  ( 42.99999999999993605, -1.000000000000000888, 3.000000000000000000 ) ) ;
#115 = LINE ( 'NONE', #215, #16 ) ;
#116 = EDGE_CURVE ( 'NONE', #92, #91, #96, .T. ) ;
#117 = FACE_OUTER_BOUND ( 'NONE', #162, .T. ) ;
#118 = CARTESIAN_POINT ( 'NONE',  ( 0.000000000000000000, 0.000000000000000000, 0.000000000000000000 ) ) ;
#119 = CARTESIAN_POINT ( 'NONE',  ( -43.00000000000005684, 0.9999999999999991118, 3.000000000000000000 ) ) ;
#120 = CALENDAR_DATE ( 2026, 24, 8 ) ;
#121 = APPROVAL_DATE_TIME ( #87, #161 ) ;
#122 = PERSON_AND_ORGANIZATION_ROLE ( 'creator' ) ;
#123 = PERSON_AND_ORGANIZATION ( #39, #233 ) ;
#124 = CARTESIAN_POINT ( 'NONE',  ( -43.00000000000005684, 0.9999999999999991118, 3.000000000000000000 ) ) ;
#125 = PERSON_AND_ORGANIZATION ( #39, #233 ) ;
#126 = VECTOR ( 'NONE', #17, 1000.000000000000000 ) ;
#127 = APPROVAL_PERSON_ORGANIZATION ( #64, #51, #170 ) ;
#128 = LINE ( 'NONE', #193, #145 ) ;
#129 = VERTEX_POINT ( 'NONE', #184 ) ;
#130 = CARTESIAN_POINT ( 'NONE',  ( 42.99999999999993605, -1.000000000000000888, 0.000000000000000000 ) ) ;
#131 = DIRECTION ( 'NONE',  ( -0.000000000000000000, -0.000000000000000000, -1.000000000000000000 ) ) ;
#132 = CC_DESIGN_PERSON_AND_ORGANIZATION_ASSIGNMENT ( #123, #173, ( #90 ) ) ;
#133 = CARTESIAN_POINT ( 'NONE',  ( 42.99999999999993605, -1.000000000000000888, 3.000000000000000000 ) ) ;
#134 = PLANE ( 'NONE',  #54 ) ;
#135 = CARTESIAN_POINT ( 'NONE',  ( 42.99999999999993605, 0.9999999999999991118, 3.000000000000000000 ) ) ;
#136 = PERSON_AND_ORGANIZATION ( #39, #233 ) ;
#137 = COORDINATED_UNIVERSAL_TIME_OFFSET ( 5, 30, .AHEAD. ) ;
#138 = APPROVAL_STATUS ( 'not_yet_approved' ) ;
#139 = DIRECTION ( 'NONE',  ( 1.000000000000000000, 0.000000000000000000, 0.000000000000000000 ) ) ;
#140 = LINE ( 'NONE', #209, #146 ) ;
#141 = PERSON_AND_ORGANIZATION ( #39, #233 ) ;
#142 = ORIENTED_EDGE ( 'NONE', *, *, #103, .T. ) ;
#143 = MANIFOLD_SOLID_BREP ( 'Boss-Extrude1', #7 ) ;
#144 = ORIENTED_EDGE ( 'NONE', *, *, #100, .T. ) ;
#145 = VECTOR ( 'NONE', #195, 1000.000000000000000 ) ;
#146 = VECTOR ( 'NONE', #131, 1000.000000000000000 ) ;
#147 = UNCERTAINTY_MEASURE_WITH_UNIT (LENGTH_MEASURE( 1.000000000000000082E-05 ), #76, 'distance_accuracy_value', 'NONE');
#148 = ORIENTED_EDGE ( 'NONE', *, *, #116, .T. ) ;
#149 = CARTESIAN_POINT ( 'NONE',  ( 42.99999999999993605, 0.9999999999999991118, 3.000000000000000000 ) ) ;
#150 = DIRECTION ( 'NONE',  ( -1.000000000000000000, -0.000000000000000000, -0.000000000000000000 ) ) ;
#151 = CC_DESIGN_APPROVAL ( #51, ( #26 ) ) ;
#152 = CARTESIAN_POINT ( 'NONE',  ( 42.99999999999993605, 0.9999999999999991118, 0.000000000000000000 ) ) ;
#153 = CARTESIAN_POINT ( 'NONE',  ( -43.00000000000005684, -1.000000000000000888, 3.000000000000000000 ) ) ;
#154 = LOCAL_TIME ( 20, 20, 24.00000000000000000, #203 ) ;
#155 = PRODUCT_DEFINITION_FORMATION_WITH_SPECIFIED_SOURCE ( 'ANY', '', #90, .NOT_KNOWN. ) ;
#156 = PERSON_AND_ORGANIZATION_ROLE ( 'design_supplier' ) ;
#157 = PERSON_AND_ORGANIZATION ( #39, #233 ) ;
#158 = FACE_OUTER_BOUND ( 'NONE', #188, .T. ) ;
#159 = VERTEX_POINT ( 'NONE', #166 ) ;
#160 = EDGE_LOOP ( 'NONE', ( #68, #111, #107, #73 ) ) ;
#161 = APPROVAL ( #229, 'UNSPECIFIED' ) ;
#162 = EDGE_LOOP ( 'NONE', ( #14, #49, #72, #148 ) ) ;
#163 = VECTOR ( 'NONE', #237, 1000.000000000000000 ) ;
#164 = LINE ( 'NONE', #101, #28 ) ;
#165 = CARTESIAN_POINT ( 'NONE',  ( -43.00000000000005684, -1.000000000000000888, 3.000000000000000000 ) ) ;
#166 = CARTESIAN_POINT ( 'NONE',  ( -43.00000000000005684, 0.9999999999999991118, 0.000000000000000000 ) ) ;
#167 = AXIS2_PLACEMENT_3D ( 'NONE', #32, #66, #208 ) ;
#168 = ADVANCED_FACE ( 'NONE', ( #40 ), #95, .F. ) ;
#169 = LINE ( 'NONE', #94, #20 ) ;
#170 = APPROVAL_ROLE ( '' ) ;
#171 = APPLICATION_PROTOCOL_DEFINITION ( 'international standard', 'config_control_design', 1994, #98 ) ;
#172 = CC_DESIGN_APPROVAL ( #194, ( #2 ) ) ;
#173 = PERSON_AND_ORGANIZATION_ROLE ( 'design_owner' ) ;
#174 = SHAPE_DEFINITION_REPRESENTATION ( #70, #212 ) ;
#175 = VERTEX_POINT ( 'NONE', #153 ) ;
#176 = EDGE_LOOP ( 'NONE', ( #112, #13, #10, #93 ) ) ;
#177 = PRODUCT_RELATED_PRODUCT_CATEGORY ( 'detail', '', ( #90 ) ) ;
#178 = EDGE_CURVE ( 'NONE', #175, #88, #164, .T. ) ;
#179 = EDGE_LOOP ( 'NONE', ( #213, #15, #230, #190 ) ) ;
#180 = FACE_OUTER_BOUND ( 'NONE', #231, .T. ) ;
#181 = DIRECTION ( 'NONE',  ( -0.000000000000000000, 1.000000000000000000, -0.000000000000000000 ) ) ;
#182 = CARTESIAN_POINT ( 'NONE',  ( -43.00000000000005684, 0.9999999999999991118, 3.000000000000000000 ) ) ;
#183 = LOCAL_TIME ( 20, 20, 24.00000000000000000, #27 ) ;
#184 = CARTESIAN_POINT ( 'NONE',  ( 42.99999999999993605, 0.9999999999999991118, 0.000000000000000000 ) ) ;
#185 = DIRECTION ( 'NONE',  ( -0.000000000000000000, 0.000000000000000000, 1.000000000000000000 ) ) ;
#186 = DIRECTION ( 'NONE',  ( 0.000000000000000000, -1.000000000000000000, 0.000000000000000000 ) ) ;
#187 = PERSON_AND_ORGANIZATION_ROLE ( 'classification_officer' ) ;
#188 = EDGE_LOOP ( 'NONE', ( #142, #55, #144, #211 ) ) ;
#189 = ORIENTED_EDGE ( 'NONE', *, *, #71, .T. ) ;
#190 = ORIENTED_EDGE ( 'NONE', *, *, #78, .T. ) ;
#191 = AXIS2_PLACEMENT_3D ( 'NONE', #227, #89, #139 ) ;
#192 = AXIS2_PLACEMENT_3D ( 'NONE', #165, #102, #21 ) ;
#193 = CARTESIAN_POINT ( 'NONE',  ( -43.00000000000005684, -1.000000000000000888, 3.000000000000000000 ) ) ;
#194 = APPROVAL ( #138, 'UNSPECIFIED' ) ;
#195 = DIRECTION ( 'NONE',  ( 1.000000000000000000, 0.000000000000000000, 0.000000000000000000 ) ) ;
#196 = CARTESIAN_POINT ( 'NONE',  ( 42.99999999999993605, 0.9999999999999991118, 3.000000000000000000 ) ) ;
#197 = VECTOR ( 'NONE', #200, 1000.000000000000000 ) ;
#198 = EDGE_CURVE ( 'NONE', #52, #232, #169, .T. ) ;
#199 = LINE ( 'NONE', #218, #163 ) ;
#200 = DIRECTION ( 'NONE',  ( 0.000000000000000000, -1.000000000000000000, 0.000000000000000000 ) ) ;
#201 = CARTESIAN_POINT ( 'NONE',  ( 42.99999999999993605, 0.9999999999999991118, 3.000000000000000000 ) ) ;
#202 = LINE ( 'NONE', #196, #63 ) ;
#203 = COORDINATED_UNIVERSAL_TIME_OFFSET ( 5, 30, .AHEAD. ) ;
#204 = CC_DESIGN_DATE_AND_TIME_ASSIGNMENT ( #65, #50, ( #2 ) ) ;
#205 = COORDINATED_UNIVERSAL_TIME_OFFSET ( 5, 30, .AHEAD. ) ;
#206 = DATE_AND_TIME ( #5, #207 ) ;
#207 = LOCAL_TIME ( 20, 20, 24.00000000000000000, #104 ) ;
#208 = DIRECTION ( 'NONE',  ( 1.000000000000000000, 0.000000000000000000, 0.000000000000000000 ) ) ;
#209 = CARTESIAN_POINT ( 'NONE',  ( -43.00000000000005684, 0.9999999999999991118, 3.000000000000000000 ) ) ;
#210 = APPLICATION_PROTOCOL_DEFINITION ( 'international standard', 'config_control_design', 1994, #43 ) ;
#211 = ORIENTED_EDGE ( 'NONE', *, *, #23, .T. ) ;
#212 = ADVANCED_BREP_SHAPE_REPRESENTATION ( 'SideSlider_Default_sldprt', ( #143, #191 ), #223 ) ;
#213 = ORIENTED_EDGE ( 'NONE', *, *, #48, .T. ) ;
#214 = ADVANCED_FACE ( 'NONE', ( #41 ), #83, .F. ) ;
#215 = CARTESIAN_POINT ( 'NONE',  ( -43.00000000000005684, -1.000000000000000888, 0.000000000000000000 ) ) ;
#216 = DIRECTION ( 'NONE',  ( 1.000000000000000000, 0.000000000000000000, 0.000000000000000000 ) ) ;
#217 = CC_DESIGN_PERSON_AND_ORGANIZATION_ASSIGNMENT ( #141, #187, ( #2 ) ) ;
#218 = CARTESIAN_POINT ( 'NONE',  ( -43.00000000000005684, 0.9999999999999991118, 0.000000000000000000 ) ) ;
#219 = LOCAL_TIME ( 20, 20, 24.00000000000000000, #137 ) ;
#220 = DIRECTION ( 'NONE',  ( -0.000000000000000000, 1.000000000000000000, -0.000000000000000000 ) ) ;
#221 = EDGE_CURVE ( 'NONE', #91, #129, #82, .T. ) ;
#222 = DIRECTION ( 'NONE',  ( 0.000000000000000000, -0.000000000000000000, -1.000000000000000000 ) ) ;
#223 =( GEOMETRIC_REPRESENTATION_CONTEXT ( 3 ) GLOBAL_UNCERTAINTY_ASSIGNED_CONTEXT ( ( #147 ) ) GLOBAL_UNIT_ASSIGNED_CONTEXT ( ( #76, #25, #45 ) ) REPRESENTATION_CONTEXT ( 'NONE', 'WORKASPACE' ) );
#224 = CC_DESIGN_PERSON_AND_ORGANIZATION_ASSIGNMENT ( #157, #156, ( #155 ) ) ;
#225 = VECTOR ( 'NONE', #220, 1000.000000000000000 ) ;
#226 = CALENDAR_DATE ( 2026, 24, 8 ) ;
#227 = CARTESIAN_POINT ( 'NONE',  ( 0.000000000000000000, 0.000000000000000000, 0.000000000000000000 ) ) ;
#228 = ADVANCED_FACE ( 'NONE', ( #60 ), #134, .F. ) ;
#229 = APPROVAL_STATUS ( 'not_yet_approved' ) ;
#230 = ORIENTED_EDGE ( 'NONE', *, *, #198, .F. ) ;
#231 = EDGE_LOOP ( 'NONE', ( #189, #31, #46, #110 ) ) ;
#232 = VERTEX_POINT ( 'NONE', #22 ) ;
#233 = ORGANIZATION ( 'UNSPECIFIED', 'UNSPECIFIED', '' ) ;
#234 = DIRECTION ( 'NONE',  ( -1.000000000000000000, 0.000000000000000000, 0.000000000000000000 ) ) ;
#235 = DIRECTION ( 'NONE',  ( -0.000000000000000000, -0.000000000000000000, -1.000000000000000000 ) ) ;
#236 = CC_DESIGN_PERSON_AND_ORGANIZATION_ASSIGNMENT ( #136, #108, ( #26 ) ) ;
#237 = DIRECTION ( 'NONE',  ( 0.000000000000000000, -1.000000000000000000, 0.000000000000000000 ) ) ;
ENDSEC;
END-ISO-10303-21;
