ISO-10303-21;
HEADER;
FILE_DESCRIPTION (( 'STEP AP203' ),
    '1' );
FILE_NAME ('Teeth_Default_sldprt.STEP',
    '2026-08-24T14:50:26',
    ( '' ),
    ( '' ),
    'SwSTEP 2.0',
    'SolidWorks 2020',
    '' );
FILE_SCHEMA (( 'CONFIG_CONTROL_DESIGN' ));
ENDSEC;

DATA;
#1 = ADVANCED_FACE ( 'NONE', ( #304 ), #74, .F. ) ;
#2 = PERSON_AND_ORGANIZATION ( #27, #123 ) ;
#3 = ORIENTED_EDGE ( 'NONE', *, *, #73, .T. ) ;
#4 = CARTESIAN_POINT ( 'NONE',  ( 4.000000000000001776, -4.000000000000000000, 0.000000000000000000 ) ) ;
#5 = CARTESIAN_POINT ( 'NONE',  ( -3.999999999999998224, 4.000000000000000000, 30.00000000000000000 ) ) ;
#6 = CARTESIAN_POINT ( 'NONE',  ( -2.236730192915344251, -2.236730192915346027, 40.00000000000000000 ) ) ;
#7 = CARTESIAN_POINT ( 'NONE',  ( 2.236730192915347804, 4.000000000000000000, 40.00000000000000000 ) ) ;
#8 = EDGE_CURVE ( 'NONE', #233, #224, #209, .T. ) ;
#9 = VECTOR ( 'NONE', #186, 1000.000000000000000 ) ;
#10 = PLANE ( 'NONE',  #42 ) ;
#11 = CARTESIAN_POINT ( 'NONE',  ( -2.236730192915344251, 2.236730192915346027, 40.00000000000000000 ) ) ;
#12 = CALENDAR_DATE ( 2026, 24, 8 ) ;
#13 = EDGE_LOOP ( 'NONE', ( #41, #150, #283, #281 ) ) ;
#14 = CC_DESIGN_APPROVAL ( #269, ( #282 ) ) ;
#15 =( NAMED_UNIT ( * ) SI_UNIT ( $, .STERADIAN. ) SOLID_ANGLE_UNIT ( ) );
#16 = ORIENTED_EDGE ( 'NONE', *, *, #220, .F. ) ;
#17 = DIRECTION ( 'NONE',  ( 0.000000000000000000, -0.1736481776669307198, 0.9848077530122080203 ) ) ;
#18 = CARTESIAN_POINT ( 'NONE',  ( -3.999999999999998224, -4.000000000000000000, 30.00000000000000000 ) ) ;
#19 = DIRECTION ( 'NONE',  ( 0.000000000000000000, 1.000000000000000000, 0.000000000000000000 ) ) ;
#20 = ADVANCED_FACE ( 'NONE', ( #183 ), #109, .F. ) ;
#21 = CC_DESIGN_SECURITY_CLASSIFICATION ( #111, ( #282 ) ) ;
#22 = PERSON_AND_ORGANIZATION_ROLE ( 'creator' ) ;
#23 = VECTOR ( 'NONE', #49, 1000.000000000000000 ) ;
#24 = DIRECTION ( 'NONE',  ( 1.000000000000000000, 0.000000000000000000, 0.000000000000000000 ) ) ;
#25 = APPROVAL_DATE_TIME ( #177, #196 ) ;
#26 = DIRECTION ( 'NONE',  ( -1.000000000000000000, -0.000000000000000000, -0.000000000000000000 ) ) ;
#27 = PERSON ( 'UNSPECIFIED', 'UNSPECIFIED', 'UNSPECIFIED', ('UNSPECIFIED'), ('UNSPECIFIED'), ('UNSPECIFIED') ) ;
#28 = EDGE_LOOP ( 'NONE', ( #3, #47, #169, #172 ) ) ;
#29 = CC_DESIGN_PERSON_AND_ORGANIZATION_ASSIGNMENT ( #2, #333, ( #111 ) ) ;
#30 = CARTESIAN_POINT ( 'NONE',  ( 4.000000000000001776, -4.000000000000000000, 30.00000000000000000 ) ) ;
#31 = AXIS2_PLACEMENT_3D ( 'NONE', #229, #19, #313 ) ;
#32 = DIRECTION ( 'NONE',  ( -0.000000000000000000, -1.000000000000000000, -0.000000000000000000 ) ) ;
#33 = FACE_OUTER_BOUND ( 'NONE', #279, .T. ) ;
#34 = DIRECTION ( 'NONE',  ( -0.000000000000000000, 0.000000000000000000, 1.000000000000000000 ) ) ;
#35 = LOCAL_TIME ( 20, 20, 26.00000000000000000, #244 ) ;
#36 = VECTOR ( 'NONE', #81, 1000.000000000000000 ) ;
#37 = FACE_OUTER_BOUND ( 'NONE', #13, .T. ) ;
#38 = CALENDAR_DATE ( 2026, 24, 8 ) ;
#39 = ORIENTED_EDGE ( 'NONE', *, *, #46, .F. ) ;
#40 = CC_DESIGN_DATE_AND_TIME_ASSIGNMENT ( #171, #270, ( #234 ) ) ;
#41 = ORIENTED_EDGE ( 'NONE', *, *, #300, .T. ) ;
#42 = AXIS2_PLACEMENT_3D ( 'NONE', #211, #161, #114 ) ;
#43 = DATE_AND_TIME ( #12, #35 ) ;
#44 = ORIENTED_EDGE ( 'NONE', *, *, #220, .T. ) ;
#45 = DIRECTION ( 'NONE',  ( 1.000000000000000000, 0.000000000000000000, 0.000000000000000000 ) ) ;
#46 = EDGE_CURVE ( 'NONE', #90, #224, #235, .T. ) ;
#47 = ORIENTED_EDGE ( 'NONE', *, *, #231, .F. ) ;
#48 = DIRECTION ( 'NONE',  ( 0.000000000000000000, 0.000000000000000000, 1.000000000000000000 ) ) ;
#49 = DIRECTION ( 'NONE',  ( -0.000000000000000000, -1.000000000000000000, -0.000000000000000000 ) ) ;
#50 = APPROVAL_PERSON_ORGANIZATION ( #272, #175, #251 ) ;
#51 = SECURITY_CLASSIFICATION_LEVEL ( 'unclassified' ) ;
#52 = EDGE_CURVE ( 'NONE', #226, #143, #308, .T. ) ;
#53 = CALENDAR_DATE ( 2026, 24, 8 ) ;
#54 = LINE ( 'NONE', #101, #55 ) ;
#55 = VECTOR ( 'NONE', #26, 1000.000000000000000 ) ;
#56 = CARTESIAN_POINT ( 'NONE',  ( -3.999999999999998224, -4.000000000000000000, 0.000000000000000000 ) ) ;
#57 = ADVANCED_FACE ( 'NONE', ( #84 ), #176, .T. ) ;
#58 = ORIENTED_EDGE ( 'NONE', *, *, #162, .T. ) ;
#59 = DIRECTION ( 'NONE',  ( 0.1736481776669307198, 0.000000000000000000, 0.9848077530122080203 ) ) ;
#60 = LINE ( 'NONE', #30, #199 ) ;
#61 = CARTESIAN_POINT ( 'NONE',  ( 0.000000000000000000, 0.000000000000000000, 40.00000000000000000 ) ) ;
#62 = ORIENTED_EDGE ( 'NONE', *, *, #8, .F. ) ;
#63 = CARTESIAN_POINT ( 'NONE',  ( -3.999999999999998224, 4.000000000000000000, 0.000000000000000000 ) ) ;
#64 = LOCAL_TIME ( 20, 20, 26.00000000000000000, #202 ) ;
#65 = ORIENTED_EDGE ( 'NONE', *, *, #290, .T. ) ;
#66 = DIRECTION ( 'NONE',  ( 0.1710878697460358477, 0.1710878697460358477, -0.9702875252478136980 ) ) ;
#67 = EDGE_CURVE ( 'NONE', #143, #306, #128, .T. ) ;
#68 = ORIENTED_EDGE ( 'NONE', *, *, #227, .F. ) ;
#69 = VERTEX_POINT ( 'NONE', #181 ) ;
#70 = CALENDAR_DATE ( 2026, 24, 8 ) ;
#71 = APPLICATION_CONTEXT ( 'configuration controlled 3d designs of mechanical parts and assemblies' ) ;
#72 = ORIENTED_EDGE ( 'NONE', *, *, #73, .F. ) ;
#73 = EDGE_CURVE ( 'NONE', #233, #226, #54, .T. ) ;
#74 = PLANE ( 'NONE',  #31 ) ;
#75 = APPLICATION_PROTOCOL_DEFINITION ( 'international standard', 'config_control_design', 1994, #145 ) ;
#76 = DIRECTION ( 'NONE',  ( 0.000000000000000000, 1.000000000000000000, 0.000000000000000000 ) ) ;
#77 = APPLICATION_PROTOCOL_DEFINITION ( 'international standard', 'config_control_design', 1994, #71 ) ;
#78 = AXIS2_PLACEMENT_3D ( 'NONE', #147, #48, #96 ) ;
#79 = CLOSED_SHELL ( 'NONE', ( #108, #212, #20, #1, #154, #261, #57, #247, #280, #200 ) ) ;
#80 = PRODUCT_RELATED_PRODUCT_CATEGORY ( 'detail', '', ( #115 ) ) ;
#81 = DIRECTION ( 'NONE',  ( -0.000000000000000000, -0.000000000000000000, -1.000000000000000000 ) ) ;
#82 = EDGE_CURVE ( 'NONE', #224, #143, #156, .T. ) ;
#83 = ORIENTED_EDGE ( 'NONE', *, *, #274, .T. ) ;
#84 = FACE_OUTER_BOUND ( 'NONE', #191, .T. ) ;
#85 = FACE_OUTER_BOUND ( 'NONE', #166, .T. ) ;
#86 = EDGE_CURVE ( 'NONE', #69, #146, #134, .T. ) ;
#87 = DIRECTION ( 'NONE',  ( -0.000000000000000000, -0.000000000000000000, -1.000000000000000000 ) ) ;
#88 = AXIS2_PLACEMENT_3D ( 'NONE', #246, #223, #17 ) ;
#89 = CARTESIAN_POINT ( 'NONE',  ( -3.999999999999998224, 4.000000000000000000, 30.00000000000000000 ) ) ;
#90 = VERTEX_POINT ( 'NONE', #198 ) ;
#91 = FACE_OUTER_BOUND ( 'NONE', #189, .T. ) ;
#92 = ORIENTED_EDGE ( 'NONE', *, *, #82, .T. ) ;
#93 = DIRECTION ( 'NONE',  ( 0.000000000000000000, 0.000000000000000000, 1.000000000000000000 ) ) ;
#94 = VECTOR ( 'NONE', #102, 1000.000000000000000 ) ;
#95 = VECTOR ( 'NONE', #254, 1000.000000000000000 ) ;
#96 = DIRECTION ( 'NONE',  ( 1.000000000000000000, 0.000000000000000000, 0.000000000000000000 ) ) ;
#97 = CARTESIAN_POINT ( 'NONE',  ( 2.236730192915347804, -2.236730192915346027, 40.00000000000000000 ) ) ;
#98 = ORIENTED_EDGE ( 'NONE', *, *, #99, .F. ) ;
#99 = EDGE_CURVE ( 'NONE', #277, #233, #173, .T. ) ;
#100 = CARTESIAN_POINT ( 'NONE',  ( -3.999999999999998224, -4.000000000000000000, 30.00000000000000000 ) ) ;
#101 = CARTESIAN_POINT ( 'NONE',  ( -3.999999999999998224, 4.000000000000000000, 30.00000000000000000 ) ) ;
#102 = DIRECTION ( 'NONE',  ( 1.000000000000000000, 0.000000000000000000, 0.000000000000000000 ) ) ;
#103 = ORIENTED_EDGE ( 'NONE', *, *, #290, .F. ) ;
#104 = PERSON_AND_ORGANIZATION ( #27, #123 ) ;
#105 = ORIENTED_EDGE ( 'NONE', *, *, #159, .T. ) ;
#106 = COORDINATED_UNIVERSAL_TIME_OFFSET ( 5, 30, .AHEAD. ) ;
#107 = APPROVAL_ROLE ( '' ) ;
#108 = ADVANCED_FACE ( 'NONE', ( #33 ), #160, .F. ) ;
#109 = PLANE ( 'NONE',  #205 ) ;
#110 = AXIS2_PLACEMENT_3D ( 'NONE', #314, #238, #237 ) ;
#111 = SECURITY_CLASSIFICATION ( '', '', #51 ) ;
#112 = CARTESIAN_POINT ( 'NONE',  ( -3.999999999999998224, 4.000000000000000000, 30.00000000000000000 ) ) ;
#113 = VECTOR ( 'NONE', #240, 1000.000000000000114 ) ;
#114 = DIRECTION ( 'NONE',  ( 0.1736481776669307198, 0.000000000000000000, -0.9848077530122080203 ) ) ;
#115 = PRODUCT ( 'Teeth_Default_sldprt', 'Teeth_Default_sldprt', '', ( #195 ) ) ;
#116 = CARTESIAN_POINT ( 'NONE',  ( 3.765831526606108426, 3.765831526606107982, 31.32803540588641056 ) ) ;
#117 = PLANE ( 'NONE',  #293 ) ;
#118 = DIRECTION ( 'NONE',  ( 1.000000000000000000, 0.000000000000000000, 0.000000000000000000 ) ) ;
#119 = CC_DESIGN_PERSON_AND_ORGANIZATION_ASSIGNMENT ( #104, #22, ( #234 ) ) ;
#120 = DIRECTION ( 'NONE',  ( 1.000000000000000000, -0.000000000000000000, -0.000000000000000000 ) ) ;
#121 = EDGE_LOOP ( 'NONE', ( #126, #44, #58, #130 ) ) ;
#122 = CARTESIAN_POINT ( 'NONE',  ( -3.999999999999998224, -4.000000000000000000, 0.000000000000000000 ) ) ;
#123 = ORGANIZATION ( 'UNSPECIFIED', 'UNSPECIFIED', '' ) ;
#124 = COORDINATED_UNIVERSAL_TIME_OFFSET ( 5, 30, .AHEAD. ) ;
#125 = UNCERTAINTY_MEASURE_WITH_UNIT (LENGTH_MEASURE( 1.000000000000000082E-05 ), #325, 'distance_accuracy_value', 'NONE');
#126 = ORIENTED_EDGE ( 'NONE', *, *, #140, .T. ) ;
#127 = LINE ( 'NONE', #18, #219 ) ;
#128 = LINE ( 'NONE', #56, #23 ) ;
#129 =( NAMED_UNIT ( * ) PLANE_ANGLE_UNIT ( ) SI_UNIT ( $, .RADIAN. ) );
#130 = ORIENTED_EDGE ( 'NONE', *, *, #86, .T. ) ;
#131 = CARTESIAN_POINT ( 'NONE',  ( -3.999999999999998224, -4.000000000000000000, 30.00000000000000000 ) ) ;
#132 = ORIENTED_EDGE ( 'NONE', *, *, #162, .F. ) ;
#133 = VECTOR ( 'NONE', #245, 1000.000000000000114 ) ;
#134 = LINE ( 'NONE', #157, #259 ) ;
#135 = CARTESIAN_POINT ( 'NONE',  ( 4.000000000000001776, -4.000000000000000000, 30.00000000000000000 ) ) ;
#136 = LINE ( 'NONE', #116, #255 ) ;
#137 = DIRECTION ( 'NONE',  ( 0.000000000000000000, -0.000000000000000000, -1.000000000000000000 ) ) ;
#138 = FACE_OUTER_BOUND ( 'NONE', #324, .T. ) ;
#139 = CARTESIAN_POINT ( 'NONE',  ( -3.999999999999998224, 4.000000000000000000, 30.00000000000000000 ) ) ;
#140 = EDGE_CURVE ( 'NONE', #146, #168, #264, .T. ) ;
#141 = VECTOR ( 'NONE', #32, 1000.000000000000000 ) ;
#142 = FACE_OUTER_BOUND ( 'NONE', #28, .T. ) ;
#143 = VERTEX_POINT ( 'NONE', #63 ) ;
#144 = APPROVAL_STATUS ( 'not_yet_approved' ) ;
#145 = APPLICATION_CONTEXT ( 'configuration controlled 3d designs of mechanical parts and assemblies' ) ;
#146 = VERTEX_POINT ( 'NONE', #11 ) ;
#147 = CARTESIAN_POINT ( 'NONE',  ( 0.000000000000000000, 0.000000000000000000, 0.000000000000000000 ) ) ;
#148 = ORIENTED_EDGE ( 'NONE', *, *, #67, .T. ) ;
#149 = AXIS2_PLACEMENT_3D ( 'NONE', #210, #285, #137 ) ;
#150 = ORIENTED_EDGE ( 'NONE', *, *, #274, .F. ) ;
#151 = VECTOR ( 'NONE', #319, 1000.000000000000114 ) ;
#152 = DATE_AND_TIME ( #53, #267 ) ;
#153 = COORDINATED_UNIVERSAL_TIME_OFFSET ( 5, 30, .AHEAD. ) ;
#154 = ADVANCED_FACE ( 'NONE', ( #138 ), #164, .T. ) ;
#155 = VECTOR ( 'NONE', #260, 1000.000000000000000 ) ;
#156 = LINE ( 'NONE', #206, #155 ) ;
#157 = CARTESIAN_POINT ( 'NONE',  ( -3.999999999999998224, 2.236730192915346027, 40.00000000000000000 ) ) ;
#158 = DIRECTION ( 'NONE',  ( 0.000000000000000000, -0.1736481776669307198, -0.9848077530122080203 ) ) ;
#159 = EDGE_CURVE ( 'NONE', #297, #306, #320, .T. ) ;
#160 = PLANE ( 'NONE',  #252 ) ;
#161 = DIRECTION ( 'NONE',  ( 0.9848077530122080203, 0.000000000000000000, 0.1736481776669307198 ) ) ;
#162 = EDGE_CURVE ( 'NONE', #292, #69, #190, .T. ) ;
#163 = CARTESIAN_POINT ( 'NONE',  ( 4.000000000000001776, -4.000000000000000000, 30.00000000000000000 ) ) ;
#164 = PLANE ( 'NONE',  #110 ) ;
#165 = VECTOR ( 'NONE', #76, 1000.000000000000000 ) ;
#166 = EDGE_LOOP ( 'NONE', ( #92, #228, #72, #203 ) ) ;
#167 = PLANE ( 'NONE',  #149 ) ;
#168 = VERTEX_POINT ( 'NONE', #6 ) ;
#169 = ORIENTED_EDGE ( 'NONE', *, *, #86, .F. ) ;
#170 = CC_DESIGN_PERSON_AND_ORGANIZATION_ASSIGNMENT ( #258, #311, ( #282 ) ) ;
#171 = DATE_AND_TIME ( #38, #64 ) ;
#172 = ORIENTED_EDGE ( 'NONE', *, *, #227, .T. ) ;
#173 = LINE ( 'NONE', #135, #208 ) ;
#174 = APPROVAL_STATUS ( 'not_yet_approved' ) ;
#175 = APPROVAL ( #174, 'UNSPECIFIED' ) ;
#176 = PLANE ( 'NONE',  #303 ) ;
#177 = DATE_AND_TIME ( #309, #294 ) ;
#178 =( GEOMETRIC_REPRESENTATION_CONTEXT ( 3 ) GLOBAL_UNCERTAINTY_ASSIGNED_CONTEXT ( ( #125 ) ) GLOBAL_UNIT_ASSIGNED_CONTEXT ( ( #325, #129, #15 ) ) REPRESENTATION_CONTEXT ( 'NONE', 'WORKASPACE' ) );
#179 = APPROVAL_DATE_TIME ( #43, #269 ) ;
#180 = SHAPE_DEFINITION_REPRESENTATION ( #271, #289 ) ;
#181 = CARTESIAN_POINT ( 'NONE',  ( 2.236730192915347804, 2.236730192915346027, 40.00000000000000000 ) ) ;
#182 = CC_DESIGN_APPROVAL ( #175, ( #234 ) ) ;
#183 = FACE_OUTER_BOUND ( 'NONE', #273, .T. ) ;
#184 = DIRECTION ( 'NONE',  ( 0.000000000000000000, 0.000000000000000000, -1.000000000000000000 ) ) ;
#185 = PLANE ( 'NONE',  #296 ) ;
#186 = DIRECTION ( 'NONE',  ( -0.000000000000000000, 1.000000000000000000, -0.000000000000000000 ) ) ;
#187 = MANIFOLD_SOLID_BREP ( 'Boss-Extrude2', #79 ) ;
#188 = DIRECTION ( 'NONE',  ( -0.9848077530122080203, 0.000000000000000000, 0.1736481776669307198 ) ) ;
#189 = EDGE_LOOP ( 'NONE', ( #321, #68, #132, #65 ) ) ;
#190 = LINE ( 'NONE', #7, #9 ) ;
#191 = EDGE_LOOP ( 'NONE', ( #248, #103, #16, #83 ) ) ;
#192 = VECTOR ( 'NONE', #120, 1000.000000000000000 ) ;
#193 = CARTESIAN_POINT ( 'NONE',  ( -3.999999999999998224, -4.000000000000000000, 30.00000000000000000 ) ) ;
#194 = ORIENTED_EDGE ( 'NONE', *, *, #315, .T. ) ;
#195 = MECHANICAL_CONTEXT ( 'NONE', #71, 'mechanical' ) ;
#196 = APPROVAL ( #232, 'UNSPECIFIED' ) ;
#197 = DESIGN_CONTEXT ( 'detailed design', #145, 'design' ) ;
#198 = CARTESIAN_POINT ( 'NONE',  ( 4.000000000000001776, -4.000000000000000000, 0.000000000000000000 ) ) ;
#199 = VECTOR ( 'NONE', #215, 1000.000000000000000 ) ;
#200 = ADVANCED_FACE ( 'NONE', ( #266 ), #117, .T. ) ;
#201 = CARTESIAN_POINT ( 'NONE',  ( -3.999999999999998224, -4.000000000000000000, 30.00000000000000000 ) ) ;
#202 = COORDINATED_UNIVERSAL_TIME_OFFSET ( 5, 30, .AHEAD. ) ;
#203 = ORIENTED_EDGE ( 'NONE', *, *, #8, .T. ) ;
#204 = DATE_TIME_ROLE ( 'classification_date' ) ;
#205 = AXIS2_PLACEMENT_3D ( 'NONE', #201, #24, #184 ) ;
#206 = CARTESIAN_POINT ( 'NONE',  ( -3.999999999999998224, 4.000000000000000000, 0.000000000000000000 ) ) ;
#207 = CC_DESIGN_PERSON_AND_ORGANIZATION_ASSIGNMENT ( #332, #230, ( #282 ) ) ;
#208 = VECTOR ( 'NONE', #239, 1000.000000000000000 ) ;
#209 = LINE ( 'NONE', #312, #95 ) ;
#210 = CARTESIAN_POINT ( 'NONE',  ( -3.999999999999998224, 4.000000000000000000, 30.00000000000000000 ) ) ;
#211 = CARTESIAN_POINT ( 'NONE',  ( 4.000000000000001776, 4.000000000000000000, 30.00000000000000000 ) ) ;
#212 = ADVANCED_FACE ( 'NONE', ( #85 ), #167, .F. ) ;
#213 = LINE ( 'NONE', #295, #192 ) ;
#214 = EDGE_LOOP ( 'NONE', ( #194, #218, #288, #105 ) ) ;
#215 = DIRECTION ( 'NONE',  ( -0.000000000000000000, -0.000000000000000000, -1.000000000000000000 ) ) ;
#216 = ORIENTED_EDGE ( 'NONE', *, *, #300, .F. ) ;
#217 = CARTESIAN_POINT ( 'NONE',  ( 4.000000000000001776, -4.000000000000000000, 30.00000000000000000 ) ) ;
#218 = ORIENTED_EDGE ( 'NONE', *, *, #243, .F. ) ;
#219 = VECTOR ( 'NONE', #276, 1000.000000000000000 ) ;
#220 = EDGE_CURVE ( 'NONE', #168, #292, #213, .T. ) ;
#221 = APPROVAL_PERSON_ORGANIZATION ( #323, #269, #275 ) ;
#222 = VECTOR ( 'NONE', #87, 1000.000000000000000 ) ;
#223 = DIRECTION ( 'NONE',  ( 0.000000000000000000, 0.9848077530122080203, 0.1736481776669307198 ) ) ;
#224 = VERTEX_POINT ( 'NONE', #317 ) ;
#225 = PERSON_AND_ORGANIZATION ( #27, #123 ) ;
#226 = VERTEX_POINT ( 'NONE', #5 ) ;
#227 = EDGE_CURVE ( 'NONE', #69, #233, #136, .T. ) ;
#228 = ORIENTED_EDGE ( 'NONE', *, *, #52, .F. ) ;
#229 = CARTESIAN_POINT ( 'NONE',  ( -3.999999999999998224, -4.000000000000000000, 30.00000000000000000 ) ) ;
#230 = PERSON_AND_ORGANIZATION_ROLE ( 'creator' ) ;
#231 = EDGE_CURVE ( 'NONE', #146, #226, #286, .T. ) ;
#232 = APPROVAL_STATUS ( 'not_yet_approved' ) ;
#233 = VERTEX_POINT ( 'NONE', #268 ) ;
#234 = PRODUCT_DEFINITION ( 'UNKNOWN', '', #282, #197 ) ;
#235 = LINE ( 'NONE', #4, #165 ) ;
#236 = VECTOR ( 'NONE', #45, 1000.000000000000000 ) ;
#237 = DIRECTION ( 'NONE',  ( -1.000000000000000000, 0.000000000000000000, -0.000000000000000000 ) ) ;
#238 = DIRECTION ( 'NONE',  ( 0.000000000000000000, 0.000000000000000000, -1.000000000000000000 ) ) ;
#239 = DIRECTION ( 'NONE',  ( 0.000000000000000000, 1.000000000000000000, 0.000000000000000000 ) ) ;
#240 = DIRECTION ( 'NONE',  ( -0.1710878697460358477, 0.1710878697460358477, -0.9702875252478136980 ) ) ;
#241 = ORIENTED_EDGE ( 'NONE', *, *, #52, .T. ) ;
#242 = PLANE ( 'NONE',  #88 ) ;
#243 = EDGE_CURVE ( 'NONE', #277, #90, #60, .T. ) ;
#244 = COORDINATED_UNIVERSAL_TIME_OFFSET ( 5, 30, .AHEAD. ) ;
#245 = DIRECTION ( 'NONE',  ( 0.1710878697460358477, -0.1710878697460358477, -0.9702875252478136980 ) ) ;
#246 = CARTESIAN_POINT ( 'NONE',  ( -3.999999999999998224, 4.000000000000000000, 30.00000000000000000 ) ) ;
#247 = ADVANCED_FACE ( 'NONE', ( #91 ), #10, .T. ) ;
#248 = ORIENTED_EDGE ( 'NONE', *, *, #318, .T. ) ;
#249 = LINE ( 'NONE', #322, #133 ) ;
#250 = ORIENTED_EDGE ( 'NONE', *, *, #315, .F. ) ;
#251 = APPROVAL_ROLE ( '' ) ;
#252 = AXIS2_PLACEMENT_3D ( 'NONE', #163, #265, #93 ) ;
#253 = LOCAL_TIME ( 20, 20, 26.00000000000000000, #124 ) ;
#254 = DIRECTION ( 'NONE',  ( -0.000000000000000000, -0.000000000000000000, -1.000000000000000000 ) ) ;
#255 = VECTOR ( 'NONE', #66, 1000.000000000000114 ) ;
#256 = PERSON_AND_ORGANIZATION ( #27, #123 ) ;
#257 = CC_DESIGN_DATE_AND_TIME_ASSIGNMENT ( #152, #204, ( #111 ) ) ;
#258 = PERSON_AND_ORGANIZATION ( #27, #123 ) ;
#259 = VECTOR ( 'NONE', #262, 1000.000000000000000 ) ;
#260 = DIRECTION ( 'NONE',  ( -1.000000000000000000, -0.000000000000000000, -0.000000000000000000 ) ) ;
#261 = ADVANCED_FACE ( 'NONE', ( #37 ), #185, .T. ) ;
#262 = DIRECTION ( 'NONE',  ( -1.000000000000000000, 0.000000000000000000, -0.000000000000000000 ) ) ;
#263 = ORIENTED_EDGE ( 'NONE', *, *, #82, .F. ) ;
#264 = LINE ( 'NONE', #316, #141 ) ;
#265 = DIRECTION ( 'NONE',  ( -1.000000000000000000, 0.000000000000000000, 0.000000000000000000 ) ) ;
#266 = FACE_OUTER_BOUND ( 'NONE', #121, .T. ) ;
#267 = LOCAL_TIME ( 20, 20, 26.00000000000000000, #106 ) ;
#268 = CARTESIAN_POINT ( 'NONE',  ( 4.000000000000001776, 4.000000000000000000, 30.00000000000000000 ) ) ;
#269 = APPROVAL ( #144, 'UNSPECIFIED' ) ;
#270 = DATE_TIME_ROLE ( 'creation_date' ) ;
#271 = PRODUCT_DEFINITION_SHAPE ( 'NONE', 'NONE',  #234 ) ;
#272 = PERSON_AND_ORGANIZATION ( #27, #123 ) ;
#273 = EDGE_LOOP ( 'NONE', ( #148, #331, #216, #241 ) ) ;
#274 = EDGE_CURVE ( 'NONE', #168, #297, #287, .T. ) ;
#275 = APPROVAL_ROLE ( '' ) ;
#276 = DIRECTION ( 'NONE',  ( -0.000000000000000000, -1.000000000000000000, -0.000000000000000000 ) ) ;
#277 = VERTEX_POINT ( 'NONE', #217 ) ;
#278 = LINE ( 'NONE', #122, #236 ) ;
#279 = EDGE_LOOP ( 'NONE', ( #328, #62, #98, #299 ) ) ;
#280 = ADVANCED_FACE ( 'NONE', ( #142 ), #242, .T. ) ;
#281 = ORIENTED_EDGE ( 'NONE', *, *, #231, .T. ) ;
#282 = PRODUCT_DEFINITION_FORMATION_WITH_SPECIFIED_SOURCE ( 'ANY', '', #115, .NOT_KNOWN. ) ;
#283 = ORIENTED_EDGE ( 'NONE', *, *, #140, .F. ) ;
#284 = DIRECTION ( 'NONE',  ( 0.000000000000000000, -0.9848077530122080203, 0.1736481776669307198 ) ) ;
#285 = DIRECTION ( 'NONE',  ( 0.000000000000000000, -1.000000000000000000, 0.000000000000000000 ) ) ;
#286 = LINE ( 'NONE', #139, #113 ) ;
#287 = LINE ( 'NONE', #291, #151 ) ;
#288 = ORIENTED_EDGE ( 'NONE', *, *, #318, .F. ) ;
#289 = ADVANCED_BREP_SHAPE_REPRESENTATION ( 'Teeth_Default_sldprt', ( #187, #78 ), #178 ) ;
#290 = EDGE_CURVE ( 'NONE', #292, #277, #249, .T. ) ;
#291 = CARTESIAN_POINT ( 'NONE',  ( -3.999999999999998224, -4.000000000000000000, 30.00000000000000000 ) ) ;
#292 = VERTEX_POINT ( 'NONE', #97 ) ;
#293 = AXIS2_PLACEMENT_3D ( 'NONE', #61, #34, #118 ) ;
#294 = LOCAL_TIME ( 20, 20, 26.00000000000000000, #153 ) ;
#295 = CARTESIAN_POINT ( 'NONE',  ( -3.999999999999998224, -2.236730192915346027, 40.00000000000000000 ) ) ;
#296 = AXIS2_PLACEMENT_3D ( 'NONE', #89, #188, #59 ) ;
#297 = VERTEX_POINT ( 'NONE', #100 ) ;
#298 = DATE_AND_TIME ( #70, #253 ) ;
#299 = ORIENTED_EDGE ( 'NONE', *, *, #243, .T. ) ;
#300 = EDGE_CURVE ( 'NONE', #226, #297, #127, .T. ) ;
#301 = ORIENTED_EDGE ( 'NONE', *, *, #67, .F. ) ;
#302 = CARTESIAN_POINT ( 'NONE',  ( -3.999999999999998224, -4.000000000000000000, 0.000000000000000000 ) ) ;
#303 = AXIS2_PLACEMENT_3D ( 'NONE', #326, #284, #158 ) ;
#304 = FACE_OUTER_BOUND ( 'NONE', #214, .T. ) ;
#305 = PERSON_AND_ORGANIZATION_ROLE ( 'design_owner' ) ;
#306 = VERTEX_POINT ( 'NONE', #302 ) ;
#307 = LINE ( 'NONE', #131, #94 ) ;
#308 = LINE ( 'NONE', #112, #36 ) ;
#309 = CALENDAR_DATE ( 2026, 24, 8 ) ;
#310 = CC_DESIGN_APPROVAL ( #196, ( #111 ) ) ;
#311 = PERSON_AND_ORGANIZATION_ROLE ( 'design_supplier' ) ;
#312 = CARTESIAN_POINT ( 'NONE',  ( 4.000000000000001776, 4.000000000000000000, 30.00000000000000000 ) ) ;
#313 = DIRECTION ( 'NONE',  ( 0.000000000000000000, -0.000000000000000000, 1.000000000000000000 ) ) ;
#314 = CARTESIAN_POINT ( 'NONE',  ( 0.000000000000000000, 0.000000000000000000, 0.000000000000000000 ) ) ;
#315 = EDGE_CURVE ( 'NONE', #306, #90, #278, .T. ) ;
#316 = CARTESIAN_POINT ( 'NONE',  ( -2.236730192915344251, 4.000000000000000000, 40.00000000000000000 ) ) ;
#317 = CARTESIAN_POINT ( 'NONE',  ( 4.000000000000001776, 4.000000000000000000, 0.000000000000000000 ) ) ;
#318 = EDGE_CURVE ( 'NONE', #297, #277, #307, .T. ) ;
#319 = DIRECTION ( 'NONE',  ( -0.1710878697460358477, -0.1710878697460358477, -0.9702875252478136980 ) ) ;
#320 = LINE ( 'NONE', #193, #222 ) ;
#321 = ORIENTED_EDGE ( 'NONE', *, *, #99, .T. ) ;
#322 = CARTESIAN_POINT ( 'NONE',  ( 3.765831526606109758, -3.765831526606106650, 31.32803540588641056 ) ) ;
#323 = PERSON_AND_ORGANIZATION ( #27, #123 ) ;
#324 = EDGE_LOOP ( 'NONE', ( #39, #250, #301, #263 ) ) ;
#325 =( LENGTH_UNIT ( ) NAMED_UNIT ( * ) SI_UNIT ( .MILLI., .METRE. ) );
#326 = CARTESIAN_POINT ( 'NONE',  ( -3.999999999999998224, -4.000000000000000000, 30.00000000000000000 ) ) ;
#327 = APPROVAL_PERSON_ORGANIZATION ( #256, #196, #107 ) ;
#328 = ORIENTED_EDGE ( 'NONE', *, *, #46, .T. ) ;
#329 = CC_DESIGN_PERSON_AND_ORGANIZATION_ASSIGNMENT ( #225, #305, ( #115 ) ) ;
#330 = APPROVAL_DATE_TIME ( #298, #175 ) ;
#331 = ORIENTED_EDGE ( 'NONE', *, *, #159, .F. ) ;
#332 = PERSON_AND_ORGANIZATION ( #27, #123 ) ;
#333 = PERSON_AND_ORGANIZATION_ROLE ( 'classification_officer' ) ;
ENDSEC;
END-ISO-10303-21;
