ISO-10303-21;
HEADER;
FILE_DESCRIPTION (( 'STEP AP203' ),
    '1' );
FILE_NAME ('Base_v2_Default_sldprt.STEP',
    '2026-09-01T12:51:35',
    ( '' ),
    ( '' ),
    'SwSTEP 2.0',
    'SolidWorks 2020',
    '' );
FILE_SCHEMA (( 'CONFIG_CONTROL_DESIGN' ));
ENDSEC;

DATA;
#1 = CARTESIAN_POINT ( 'NONE',  ( 1.750000000000015543, 28.25000000000000711, 13.00100000000000122 ) ) ;
#2 = FACE_OUTER_BOUND ( 'NONE', #179, .T. ) ;
#3 = CARTESIAN_POINT ( 'NONE',  ( -16.74999999999997868, 7.122590923779331100E-15, 1.499999999999999556 ) ) ;
#4 = ORIENTED_EDGE ( 'NONE', *, *, #837, .F. ) ;
#5 = CC_DESIGN_PERSON_AND_ORGANIZATION_ASSIGNMENT ( #349, #917, ( #539 ) ) ;
#6 = LINE ( 'NONE', #1226, #653 ) ;
#7 = ADVANCED_FACE ( 'NONE', ( #548 ), #756, .F. ) ;
#8 = ORIENTED_EDGE ( 'NONE', *, *, #342, .F. ) ;
#9 = FACE_BOUND ( 'NONE', #144, .T. ) ;
#10 = DIRECTION ( 'NONE',  ( 1.000000000000000000, -2.086885384633752656E-16, -0.000000000000000000 ) ) ;
#11 = CARTESIAN_POINT ( 'NONE',  ( 33.25000000000001421, -33.24999999999999289, 3.000000000000000000 ) ) ;
#12 = ORIENTED_EDGE ( 'NONE', *, *, #922, .F. ) ;
#13 = ORIENTED_EDGE ( 'NONE', *, *, #646, .T. ) ;
#14 = DIRECTION ( 'NONE',  ( -0.000000000000000000, 0.000000000000000000, 1.000000000000000000 ) ) ;
#15 = APPLICATION_CONTEXT ( 'configuration controlled 3d designs of mechanical parts and assemblies' ) ;
#16 = CYLINDRICAL_SURFACE ( 'NONE', #374, 2.499999999999998668 ) ;
#17 = DIRECTION ( 'NONE',  ( 1.000000000000000000, 0.000000000000000000, 0.000000000000000000 ) ) ;
#18 = ORIENTED_EDGE ( 'NONE', *, *, #527, .T. ) ;
#19 = AXIS2_PLACEMENT_3D ( 'NONE', #695, #1157, #784 ) ;
#20 = DIRECTION ( 'NONE',  ( 1.000000000000000000, 0.000000000000000000, 0.000000000000000000 ) ) ;
#21 = EDGE_LOOP ( 'NONE', ( #1085, #1119, #90, #565 ) ) ;
#22 = AXIS2_PLACEMENT_3D ( 'NONE', #1202, #487, #379 ) ;
#23 = LINE ( 'NONE', #783, #800 ) ;
#24 = AXIS2_PLACEMENT_3D ( 'NONE', #691, #1161, #1066 ) ;
#25 = CARTESIAN_POINT ( 'NONE',  ( 30.25000000000001776, -33.24999999999999289, 3.000000000000000000 ) ) ;
#26 = DIRECTION ( 'NONE',  ( -2.086885384633752903E-16, 1.000000000000000000, -0.000000000000000000 ) ) ;
#27 = EDGE_LOOP ( 'NONE', ( #1179, #686 ) ) ;
#28 = EDGE_CURVE ( 'NONE', #802, #864, #258, .T. ) ;
#29 = CARTESIAN_POINT ( 'NONE',  ( 4.750000000000015099, -28.25000000000000711, 3.000000000000000888 ) ) ;
#30 = ORIENTED_EDGE ( 'NONE', *, *, #248, .T. ) ;
#31 = DIRECTION ( 'NONE',  ( 0.000000000000000000, -1.000000000000000000, 0.000000000000000000 ) ) ;
#32 = LINE ( 'NONE', #25, #254 ) ;
#33 = LINE ( 'NONE', #11, #66 ) ;
#34 = VERTEX_POINT ( 'NONE', #929 ) ;
#35 = EDGE_CURVE ( 'NONE', #195, #425, #561, .T. ) ;
#36 = LINE ( 'NONE', #1035, #272 ) ;
#37 = MANIFOLD_SOLID_BREP ( 'Cut-Extrude6', #1044 ) ;
#38 = VERTEX_POINT ( 'NONE', #1014 ) ;
#39 = CARTESIAN_POINT ( 'NONE',  ( 33.25000000000001421, -33.24999999999999289, 13.00000000000000178 ) ) ;
#40 = PERSON ( 'UNSPECIFIED', 'UNSPECIFIED', 'UNSPECIFIED', ('UNSPECIFIED'), ('UNSPECIFIED'), ('UNSPECIFIED') ) ;
#41 = DIRECTION ( 'NONE',  ( 1.000000000000000000, 2.086885384633752656E-16, -0.000000000000000000 ) ) ;
#42 = FACE_OUTER_BOUND ( 'NONE', #987, .T. ) ;
#43 = ORIENTED_EDGE ( 'NONE', *, *, #449, .T. ) ;
#44 = EDGE_LOOP ( 'NONE', ( #165, #794, #858, #222 ) ) ;
#45 = CARTESIAN_POINT ( 'NONE',  ( 1.750000000000014211, 18.25000000000001066, 0.000000000000000000 ) ) ;
#46 = CIRCLE ( 'NONE', #700, 2.499999999999998668 ) ;
#47 = ORIENTED_EDGE ( 'NONE', *, *, #100, .F. ) ;
#48 = DIRECTION ( 'NONE',  ( 1.000000000000000000, 0.000000000000000000, -0.000000000000000000 ) ) ;
#49 = ORIENTED_EDGE ( 'NONE', *, *, #1185, .T. ) ;
#50 = CC_DESIGN_PERSON_AND_ORGANIZATION_ASSIGNMENT ( #750, #73, ( #1151 ) ) ;
#51 = LINE ( 'NONE', #431, #215 ) ;
#52 = EDGE_CURVE ( 'NONE', #1042, #315, #847, .T. ) ;
#53 = ORIENTED_EDGE ( 'NONE', *, *, #1216, .T. ) ;
#54 = DIRECTION ( 'NONE',  ( -0.000000000000000000, 0.000000000000000000, -1.000000000000000000 ) ) ;
#55 = ORIENTED_EDGE ( 'NONE', *, *, #28, .F. ) ;
#56 = ADVANCED_FACE ( 'NONE', ( #1128 ), #842, .F. ) ;
#57 = DIRECTION ( 'NONE',  ( 1.000000000000000000, -2.086885384633752656E-16, -0.000000000000000000 ) ) ;
#58 = VERTEX_POINT ( 'NONE', #925 ) ;
#59 = CARTESIAN_POINT ( 'NONE',  ( 1.750000000000015543, 28.25000000000000711, 3.000000000000000888 ) ) ;
#60 = VECTOR ( 'NONE', #1003, 1000.000000000000000 ) ;
#61 = FACE_OUTER_BOUND ( 'NONE', #326, .T. ) ;
#62 = VECTOR ( 'NONE', #1121, 1000.000000000000000 ) ;
#63 = ORIENTED_EDGE ( 'NONE', *, *, #471, .F. ) ;
#64 = DIRECTION ( 'NONE',  ( -1.000000000000000000, 0.000000000000000000, 0.000000000000000000 ) ) ;
#65 = CIRCLE ( 'NONE', #755, 1.500000000000001332 ) ;
#66 = VECTOR ( 'NONE', #1152, 1000.000000000000000 ) ;
#67 = ADVANCED_FACE ( 'NONE', ( #660 ), #364, .F. ) ;
#68 = CARTESIAN_POINT ( 'NONE',  ( -33.25100000000000477, 25.75000000000001066, 8.000000000000000000 ) ) ;
#69 = VERTEX_POINT ( 'NONE', #262 ) ;
#70 = CARTESIAN_POINT ( 'NONE',  ( -18.24999999999998224, -5.000000000000000888, 3.000000000000000000 ) ) ;
#71 = EDGE_LOOP ( 'NONE', ( #18, #110, #330, #99 ) ) ;
#72 = DIRECTION ( 'NONE',  ( 0.000000000000000000, -1.000000000000000000, 0.000000000000000000 ) ) ;
#73 = PERSON_AND_ORGANIZATION_ROLE ( 'design_owner' ) ;
#74 = EDGE_CURVE ( 'NONE', #408, #266, #643, .T. ) ;
#75 = LINE ( 'NONE', #261, #757 ) ;
#76 = EDGE_CURVE ( 'NONE', #353, #613, #269, .T. ) ;
#77 = CARTESIAN_POINT ( 'NONE',  ( -33.25100000000000477, -28.25000000000000711, 8.000000000000000000 ) ) ;
#78 = DIRECTION ( 'NONE',  ( 0.000000000000000000, 0.000000000000000000, 1.000000000000000000 ) ) ;
#79 = VECTOR ( 'NONE', #85, 1000.000000000000000 ) ;
#80 = VECTOR ( 'NONE', #803, 1000.000000000000000 ) ;
#81 = VECTOR ( 'NONE', #1132, 1000.000000000000000 ) ;
#82 = APPROVAL ( #742, 'UNSPECIFIED' ) ;
#83 = DIRECTION ( 'NONE',  ( 0.000000000000000000, 0.000000000000000000, 1.000000000000000000 ) ) ;
#84 = EDGE_CURVE ( 'NONE', #371, #811, #174, .T. ) ;
#85 = DIRECTION ( 'NONE',  ( 1.000000000000000000, 2.086885384633752656E-16, -0.000000000000000000 ) ) ;
#86 = CARTESIAN_POINT ( 'NONE',  ( 33.25000000000000711, -9.999999999999994671, 8.000000000000000000 ) ) ;
#87 = CARTESIAN_POINT ( 'NONE',  ( -33.25100000000001188, -7.500000000000007994, 8.000000000000000000 ) ) ;
#88 = ADVANCED_FACE ( 'NONE', ( #2 ), #1135, .F. ) ;
#89 = LINE ( 'NONE', #927, #440 ) ;
#90 = ORIENTED_EDGE ( 'NONE', *, *, #133, .F. ) ;
#91 = DIRECTION ( 'NONE',  ( 0.000000000000000000, 1.000000000000000000, 0.000000000000000000 ) ) ;
#92 = PERSON_AND_ORGANIZATION ( #40, #993 ) ;
#93 = PLANE ( 'NONE',  #597 ) ;
#94 = FACE_BOUND ( 'NONE', #571, .T. ) ;
#95 = EDGE_LOOP ( 'NONE', ( #53, #989, #12, #606, #63, #418 ) ) ;
#96 = DIRECTION ( 'NONE',  ( -0.000000000000000000, -0.000000000000000000, -1.000000000000000000 ) ) ;
#97 = DIRECTION ( 'NONE',  ( 0.000000000000000000, 0.000000000000000000, 1.000000000000000000 ) ) ;
#98 = CARTESIAN_POINT ( 'NONE',  ( 33.25000000000001421, -25.74999999999999645, 8.000000000000000000 ) ) ;
#99 = ORIENTED_EDGE ( 'NONE', *, *, #400, .F. ) ;
#100 = EDGE_CURVE ( 'NONE', #1188, #323, #488, .T. ) ;
#101 = VECTOR ( 'NONE', #96, 1000.000000000000000 ) ;
#102 = AXIS2_PLACEMENT_3D ( 'NONE', #86, #372, #541 ) ;
#103 = CARTESIAN_POINT ( 'NONE',  ( -22.58012701892217322, -2.499999999999999556, 1.500000000000000000 ) ) ;
#104 = ORIENTED_EDGE ( 'NONE', *, *, #724, .F. ) ;
#105 = DIRECTION ( 'NONE',  ( -1.000000000000000000, 0.000000000000000000, 0.000000000000000000 ) ) ;
#106 = APPLICATION_CONTEXT ( 'configuration controlled 3d designs of mechanical parts and assemblies' ) ;
#107 = CARTESIAN_POINT ( 'NONE',  ( -18.24999999999998224, 5.000000000000000888, 3.000000000000000000 ) ) ;
#108 = DIRECTION ( 'NONE',  ( -1.000000000000000000, -2.086885384633752903E-16, 0.000000000000000000 ) ) ;
#109 = ORIENTED_EDGE ( 'NONE', *, *, #435, .F. ) ;
#110 = ORIENTED_EDGE ( 'NONE', *, *, #791, .T. ) ;
#111 = CARTESIAN_POINT ( 'NONE',  ( -22.58012701892217322, -2.499999999999999556, 3.000000000000000000 ) ) ;
#112 = LINE ( 'NONE', #1222, #551 ) ;
#113 = CARTESIAN_POINT ( 'NONE',  ( 4.750000000000015099, -18.25000000000001066, 0.000000000000000000 ) ) ;
#114 = ORIENTED_EDGE ( 'NONE', *, *, #893, .F. ) ;
#115 = VERTEX_POINT ( 'NONE', #467 ) ;
#116 = CARTESIAN_POINT ( 'NONE',  ( -33.25100000000000477, -25.75000000000001066, 8.000000000000000000 ) ) ;
#117 = EDGE_CURVE ( 'NONE', #323, #58, #112, .T. ) ;
#118 = PLANE ( 'NONE',  #22 ) ;
#119 = LINE ( 'NONE', #314, #456 ) ;
#120 = ORIENTED_EDGE ( 'NONE', *, *, #871, .T. ) ;
#121 = VECTOR ( 'NONE', #955, 1000.000000000000000 ) ;
#122 = CIRCLE ( 'NONE', #355, 2.499999999999998668 ) ;
#123 = CARTESIAN_POINT ( 'NONE',  ( 1.750000000000015543, 28.25000000000000711, 3.000000000000000888 ) ) ;
#124 = VECTOR ( 'NONE', #1098, 1000.000000000000000 ) ;
#125 = ORIENTED_EDGE ( 'NONE', *, *, #1185, .F. ) ;
#126 = AXIS2_PLACEMENT_3D ( 'NONE', #335, #720, #312 ) ;
#127 = DIRECTION ( 'NONE',  ( 0.000000000000000000, 1.000000000000000000, 0.000000000000000000 ) ) ;
#128 = AXIS2_PLACEMENT_3D ( 'NONE', #576, #283, #387 ) ;
#129 = ADVANCED_FACE ( 'NONE', ( #844 ), #93, .F. ) ;
#130 = FACE_OUTER_BOUND ( 'NONE', #726, .T. ) ;
#131 = CARTESIAN_POINT ( 'NONE',  ( 1.750000000000015543, 28.25000000000000711, 0.000000000000000000 ) ) ;
#132 = ORIENTED_EDGE ( 'NONE', *, *, #871, .F. ) ;
#133 = EDGE_CURVE ( 'NONE', #328, #942, #1050, .T. ) ;
#134 = DIRECTION ( 'NONE',  ( 0.000000000000000000, 0.000000000000000000, 1.000000000000000000 ) ) ;
#135 = ORIENTED_EDGE ( 'NONE', *, *, #875, .F. ) ;
#136 = DIRECTION ( 'NONE',  ( 0.000000000000000000, 1.000000000000000000, 0.000000000000000000 ) ) ;
#137 = DIRECTION ( 'NONE',  ( 2.086885384633752903E-16, -1.000000000000000000, 0.000000000000000000 ) ) ;
#138 = DIRECTION ( 'NONE',  ( 1.000000000000000000, 2.086885384633752903E-16, -0.000000000000000000 ) ) ;
#139 = VERTEX_POINT ( 'NONE', #289 ) ;
#140 = ORIENTED_EDGE ( 'NONE', *, *, #999, .T. ) ;
#141 = CARTESIAN_POINT ( 'NONE',  ( -22.58012701892217322, 2.500000000000001776, 1.500000000000000000 ) ) ;
#142 = CARTESIAN_POINT ( 'NONE',  ( -19.74999999999998224, 6.938893903907228378E-15, 1.499999999999999556 ) ) ;
#143 = PRODUCT_RELATED_PRODUCT_CATEGORY ( 'detail', '', ( #1151 ) ) ;
#144 = EDGE_LOOP ( 'NONE', ( #892, #1166 ) ) ;
#145 = EDGE_CURVE ( 'NONE', #1045, #58, #282, .T. ) ;
#146 = CARTESIAN_POINT ( 'NONE',  ( -13.91987298107778770, -2.499999999999999112, 3.000000000000000000 ) ) ;
#147 = AXIS2_PLACEMENT_3D ( 'NONE', #528, #998, #713 ) ;
#148 = VECTOR ( 'NONE', #1201, 1000.000000000000227 ) ;
#149 = ORIENTED_EDGE ( 'NONE', *, *, #76, .F. ) ;
#150 = DIRECTION ( 'NONE',  ( 1.000000000000000000, 0.000000000000000000, -0.000000000000000000 ) ) ;
#151 = ORIENTED_EDGE ( 'NONE', *, *, #867, .F. ) ;
#152 = DIRECTION ( 'NONE',  ( 1.301042606982605567E-16, 1.000000000000000000, 0.000000000000000000 ) ) ;
#153 = ORIENTED_EDGE ( 'NONE', *, *, #1034, .T. ) ;
#154 = CARTESIAN_POINT ( 'NONE',  ( 1.750000000000015543, -28.25000000000000711, 3.000000000000000888 ) ) ;
#155 = CARTESIAN_POINT ( 'NONE',  ( -13.91987298107778770, 2.500000000000000888, 1.500000000000000000 ) ) ;
#156 = EDGE_CURVE ( 'NONE', #384, #1113, #386, .T. ) ;
#157 = ORIENTED_EDGE ( 'NONE', *, *, #306, .T. ) ;
#158 = LINE ( 'NONE', #1221, #817 ) ;
#159 = CARTESIAN_POINT ( 'NONE',  ( -22.58012701892217322, -2.499999999999999556, 3.000000000000000000 ) ) ;
#160 = ORIENTED_EDGE ( 'NONE', *, *, #342, .T. ) ;
#161 = COORDINATED_UNIVERSAL_TIME_OFFSET ( 5, 30, .AHEAD. ) ;
#162 = VECTOR ( 'NONE', #621, 1000.000000000000000 ) ;
#163 = VECTOR ( 'NONE', #216, 1000.000000000000000 ) ;
#164 = CARTESIAN_POINT ( 'NONE',  ( -33.24999999999998579, -33.24999999999999289, 0.000000000000000000 ) ) ;
#165 = ORIENTED_EDGE ( 'NONE', *, *, #1086, .T. ) ;
#166 = ORIENTED_EDGE ( 'NONE', *, *, #209, .T. ) ;
#167 = DIRECTION ( 'NONE',  ( 1.000000000000000000, -2.086885384633752656E-16, -0.000000000000000000 ) ) ;
#168 = DIRECTION ( 'NONE',  ( -1.000000000000000000, 0.000000000000000000, -0.000000000000000000 ) ) ;
#169 = APPROVAL_DATE_TIME ( #826, #350 ) ;
#170 = EDGE_CURVE ( 'NONE', #58, #622, #645, .T. ) ;
#171 = ADVANCED_FACE ( 'NONE', ( #278 ), #763, .F. ) ;
#172 = PLANE ( 'NONE',  #1131 ) ;
#173 = ORIENTED_EDGE ( 'NONE', *, *, #737, .F. ) ;
#174 = LINE ( 'NONE', #557, #436 ) ;
#175 = CIRCLE ( 'NONE', #1046, 2.499999999999998668 ) ;
#176 = AXIS2_PLACEMENT_3D ( 'NONE', #914, #841, #453 ) ;
#177 = AXIS2_PLACEMENT_3D ( 'NONE', #859, #368, #1037 ) ;
#178 = PLANE ( 'NONE',  #176 ) ;
#179 = EDGE_LOOP ( 'NONE', ( #1067, #382, #711, #324 ) ) ;
#180 = ORIENTED_EDGE ( 'NONE', *, *, #292, .F. ) ;
#181 = DIRECTION ( 'NONE',  ( 0.000000000000000000, 1.000000000000000000, 0.000000000000000000 ) ) ;
#182 = CARTESIAN_POINT ( 'NONE',  ( 30.25000000000001421, -28.24999999999999289, 8.000000000000000000 ) ) ;
#183 = DIRECTION ( 'NONE',  ( 1.301042606982605567E-16, -1.000000000000000000, 0.000000000000000000 ) ) ;
#184 = ORIENTED_EDGE ( 'NONE', *, *, #849, .F. ) ;
#185 = LINE ( 'NONE', #566, #675 ) ;
#186 = CARTESIAN_POINT ( 'NONE',  ( -18.24999999999998224, 6.938893903907228378E-15, 1.499999999999999556 ) ) ;
#187 = ADVANCED_FACE ( 'NONE', ( #751 ), #270, .T. ) ;
#188 = FACE_OUTER_BOUND ( 'NONE', #1220, .T. ) ;
#189 = VERTEX_POINT ( 'NONE', #583 ) ;
#190 = LINE ( 'NONE', #570, #520 ) ;
#191 = EDGE_LOOP ( 'NONE', ( #249, #430, #524, #1146 ) ) ;
#192 = CARTESIAN_POINT ( 'NONE',  ( 1.750000000000015543, -28.25000000000000711, 0.000000000000000000 ) ) ;
#193 = CARTESIAN_POINT ( 'NONE',  ( -13.91987298107778770, 2.500000000000000888, 3.000000000000000000 ) ) ;
#194 = FACE_BOUND ( 'NONE', #27, .T. ) ;
#195 = VERTEX_POINT ( 'NONE', #1036 ) ;
#196 = AXIS2_PLACEMENT_3D ( 'NONE', #213, #138, #689 ) ;
#197 = EDGE_LOOP ( 'NONE', ( #1080, #470, #996, #809 ) ) ;
#198 = FACE_BOUND ( 'NONE', #870, .T. ) ;
#199 = CARTESIAN_POINT ( 'NONE',  ( 17.75000000000001421, 6.938893903907228378E-15, 3.000000000000000000 ) ) ;
#200 = DIRECTION ( 'NONE',  ( -0.5000000000000004441, 0.8660254037844384856, 0.000000000000000000 ) ) ;
#201 = ORIENTED_EDGE ( 'NONE', *, *, #748, .F. ) ;
#202 = EDGE_CURVE ( 'NONE', #328, #658, #758, .T. ) ;
#203 = VERTEX_POINT ( 'NONE', #654 ) ;
#204 = LINE ( 'NONE', #790, #101 ) ;
#205 = FACE_OUTER_BOUND ( 'NONE', #71, .T. ) ;
#206 = CARTESIAN_POINT ( 'NONE',  ( 33.25000000000001421, -28.24999999999999289, 8.000000000000000000 ) ) ;
#207 = ORIENTED_EDGE ( 'NONE', *, *, #837, .T. ) ;
#208 = DIRECTION ( 'NONE',  ( 0.000000000000000000, 0.000000000000000000, -1.000000000000000000 ) ) ;
#209 = EDGE_CURVE ( 'NONE', #195, #479, #928, .T. ) ;
#210 = ORIENTED_EDGE ( 'NONE', *, *, #145, .F. ) ;
#211 = CARTESIAN_POINT ( 'NONE',  ( 33.25000000000000711, -9.999999999999994671, 8.000000000000000000 ) ) ;
#212 = CYLINDRICAL_SURFACE ( 'NONE', #1022, 1.500000000000001332 ) ;
#213 = CARTESIAN_POINT ( 'NONE',  ( -33.25000000000000000, 33.25000000000000711, 3.000000000000000000 ) ) ;
#214 = ORIENTED_EDGE ( 'NONE', *, *, #346, .F. ) ;
#215 = VECTOR ( 'NONE', #895, 1000.000000000000000 ) ;
#216 = DIRECTION ( 'NONE',  ( 0.000000000000000000, 1.000000000000000000, 0.000000000000000000 ) ) ;
#217 = VECTOR ( 'NONE', #766, 1000.000000000000000 ) ;
#218 = EDGE_LOOP ( 'NONE', ( #669, #894, #966, #879 ) ) ;
#219 = CYLINDRICAL_SURFACE ( 'NONE', #1070, 2.499999999999998668 ) ;
#220 = DIRECTION ( 'NONE',  ( 0.000000000000000000, 0.000000000000000000, -1.000000000000000000 ) ) ;
#221 = LINE ( 'NONE', #682, #1072 ) ;
#222 = ORIENTED_EDGE ( 'NONE', *, *, #646, .F. ) ;
#223 = VERTEX_POINT ( 'NONE', #98 ) ;
#224 = DIRECTION ( 'NONE',  ( 1.000000000000000000, -2.086885384633752656E-16, -0.000000000000000000 ) ) ;
#225 = EDGE_CURVE ( 'NONE', #716, #1153, #1143, .T. ) ;
#226 = DIRECTION ( 'NONE',  ( 0.000000000000000000, 1.000000000000000000, 0.000000000000000000 ) ) ;
#227 = PLANE ( 'NONE',  #899 ) ;
#228 = ORIENTED_EDGE ( 'NONE', *, *, #35, .F. ) ;
#229 = ADVANCED_FACE ( 'NONE', ( #188 ), #568, .F. ) ;
#230 = ORIENTED_EDGE ( 'NONE', *, *, #801, .F. ) ;
#231 = FACE_OUTER_BOUND ( 'NONE', #309, .T. ) ;
#232 = ORIENTED_EDGE ( 'NONE', *, *, #461, .F. ) ;
#233 = CARTESIAN_POINT ( 'NONE',  ( 4.750000000000015099, 18.25000000000001066, 13.00100000000000122 ) ) ;
#234 = ORIENTED_EDGE ( 'NONE', *, *, #117, .T. ) ;
#235 = VECTOR ( 'NONE', #1016, 1000.000000000000000 ) ;
#236 = LINE ( 'NONE', #45, #912 ) ;
#237 = VECTOR ( 'NONE', #137, 1000.000000000000000 ) ;
#238 = AXIS2_PLACEMENT_3D ( 'NONE', #604, #770, #950 ) ;
#239 = EDGE_LOOP ( 'NONE', ( #952, #865, #977, #690 ) ) ;
#240 = DIRECTION ( 'NONE',  ( 0.000000000000000000, -0.000000000000000000, 1.000000000000000000 ) ) ;
#241 = ORIENTED_EDGE ( 'NONE', *, *, #935, .T. ) ;
#242 = EDGE_CURVE ( 'NONE', #903, #828, #619, .T. ) ;
#243 = CARTESIAN_POINT ( 'NONE',  ( 21.75000000000001421, 7.428752623566170548E-15, 3.000000000000000000 ) ) ;
#244 = ORIENTED_EDGE ( 'NONE', *, *, #74, .T. ) ;
#245 = CARTESIAN_POINT ( 'NONE',  ( -18.24999999999998224, 5.000000000000000888, 1.500000000000000000 ) ) ;
#246 = VECTOR ( 'NONE', #543, 1000.000000000000000 ) ;
#247 = CARTESIAN_POINT ( 'NONE',  ( 30.25000000000001776, -33.24999999999999289, 3.000000000000000000 ) ) ;
#248 = EDGE_CURVE ( 'NONE', #287, #1195, #519, .T. ) ;
#249 = ORIENTED_EDGE ( 'NONE', *, *, #787, .F. ) ;
#250 = CARTESIAN_POINT ( 'NONE',  ( -18.24999999999998224, 6.938893903907228378E-15, 13.00100000000000122 ) ) ;
#251 = DIRECTION ( 'NONE',  ( 1.000000000000000000, 0.000000000000000000, 0.000000000000000000 ) ) ;
#252 = EDGE_LOOP ( 'NONE', ( #454, #1184, #464, #104 ) ) ;
#253 = CARTESIAN_POINT ( 'NONE',  ( 1.750000000000015543, -28.25000000000000711, 13.00100000000000122 ) ) ;
#254 = VECTOR ( 'NONE', #404, 1000.000000000000000 ) ;
#255 = PERSON_AND_ORGANIZATION ( #40, #993 ) ;
#256 = FACE_OUTER_BOUND ( 'NONE', #191, .T. ) ;
#257 = ADVANCED_FACE ( 'NONE', ( #321 ), #588, .T. ) ;
#258 = LINE ( 'NONE', #553, #1204 ) ;
#259 = DIRECTION ( 'NONE',  ( 0.000000000000000000, -0.000000000000000000, 1.000000000000000000 ) ) ;
#260 = EDGE_CURVE ( 'NONE', #658, #771, #32, .T. ) ;
#261 = CARTESIAN_POINT ( 'NONE',  ( 4.750000000000015099, -18.25000000000001066, 13.00100000000000122 ) ) ;
#262 = CARTESIAN_POINT ( 'NONE',  ( 33.25000000000001421, 33.25000000000000711, 13.00000000000000178 ) ) ;
#263 = PERSON_AND_ORGANIZATION ( #40, #993 ) ;
#264 = DIRECTION ( 'NONE',  ( 0.000000000000000000, -1.000000000000000000, 0.000000000000000000 ) ) ;
#265 = CARTESIAN_POINT ( 'NONE',  ( 30.25000000000002132, 12.49999999999999467, 8.000000000000000000 ) ) ;
#266 = VERTEX_POINT ( 'NONE', #1150 ) ;
#267 = VERTEX_POINT ( 'NONE', #1164 ) ;
#268 =( NAMED_UNIT ( * ) PLANE_ANGLE_UNIT ( ) SI_UNIT ( $, .RADIAN. ) );
#269 = CIRCLE ( 'NONE', #774, 2.499999999999998668 ) ;
#270 = PLANE ( 'NONE',  #535 ) ;
#271 = VECTOR ( 'NONE', #152, 1000.000000000000000 ) ;
#272 = VECTOR ( 'NONE', #685, 1000.000000000000000 ) ;
#273 = CIRCLE ( 'NONE', #877, 4.000000000000000000 ) ;
#274 = CARTESIAN_POINT ( 'NONE',  ( 30.25000000000001421, 30.74999999999999289, 8.000000000000000000 ) ) ;
#275 = ADVANCED_FACE ( 'NONE', ( #890 ), #212, .F. ) ;
#276 = ORIENTED_EDGE ( 'NONE', *, *, #935, .F. ) ;
#277 = ORIENTED_EDGE ( 'NONE', *, *, #1187, .F. ) ;
#278 = FACE_OUTER_BOUND ( 'NONE', #252, .T. ) ;
#279 = PLANE ( 'NONE',  #1171 ) ;
#280 = ORIENTED_EDGE ( 'NONE', *, *, #35, .T. ) ;
#281 = CARTESIAN_POINT ( 'NONE',  ( -33.25000000000000000, 33.25000000000000711, 3.000000000000000000 ) ) ;
#282 = LINE ( 'NONE', #107, #1021 ) ;
#283 = DIRECTION ( 'NONE',  ( -1.000000000000000000, 2.086885384633752903E-16, -0.000000000000000000 ) ) ;
#284 = ORIENTED_EDGE ( 'NONE', *, *, #1130, .F. ) ;
#285 = ADVANCED_FACE ( 'NONE', ( #130 ), #16, .F. ) ;
#286 = LINE ( 'NONE', #478, #81 ) ;
#287 = VERTEX_POINT ( 'NONE', #416 ) ;
#288 = LINE ( 'NONE', #111, #1147 ) ;
#289 = CARTESIAN_POINT ( 'NONE',  ( -22.58012701892217322, 2.500000000000001776, 3.000000000000000000 ) ) ;
#290 = FACE_OUTER_BOUND ( 'NONE', #1140, .T. ) ;
#291 = ORIENTED_EDGE ( 'NONE', *, *, #594, .F. ) ;
#292 = EDGE_CURVE ( 'NONE', #1113, #1059, #410, .T. ) ;
#293 = AXIS2_PLACEMENT_3D ( 'NONE', #900, #908, #607 ) ;
#294 = CIRCLE ( 'NONE', #128, 2.500000000000000444 ) ;
#295 = VERTEX_POINT ( 'NONE', #504 ) ;
#296 = CARTESIAN_POINT ( 'NONE',  ( 4.750000000000015099, -18.25000000000001066, 3.000000000000000000 ) ) ;
#297 = UNCERTAINTY_MEASURE_WITH_UNIT (LENGTH_MEASURE( 1.000000000000000082E-05 ), #916, 'distance_accuracy_value', 'NONE');
#298 = CC_DESIGN_DATE_AND_TIME_ASSIGNMENT ( #843, #354, ( #389 ) ) ;
#299 = CARTESIAN_POINT ( 'NONE',  ( -13.91987298107778770, -2.499999999999999112, 1.500000000000000000 ) ) ;
#300 = CARTESIAN_POINT ( 'NONE',  ( 1.750000000000015543, 28.25000000000000711, 13.00100000000000122 ) ) ;
#301 = EDGE_LOOP ( 'NONE', ( #1027, #693, #705, #406 ) ) ;
#302 = EDGE_CURVE ( 'NONE', #716, #634, #1123, .T. ) ;
#303 = CARTESIAN_POINT ( 'NONE',  ( 30.25000000000002132, -9.999999999999994671, 8.000000000000000000 ) ) ;
#304 = ORIENTED_EDGE ( 'NONE', *, *, #780, .F. ) ;
#305 = DIRECTION ( 'NONE',  ( -0.000000000000000000, -0.000000000000000000, -1.000000000000000000 ) ) ;
#306 = EDGE_CURVE ( 'NONE', #846, #960, #985, .T. ) ;
#307 = DIRECTION ( 'NONE',  ( 0.000000000000000000, 1.000000000000000000, 0.000000000000000000 ) ) ;
#308 = FACE_OUTER_BOUND ( 'NONE', #363, .T. ) ;
#309 = EDGE_LOOP ( 'NONE', ( #605, #1218, #897, #1182 ) ) ;
#310 = LINE ( 'NONE', #508, #835 ) ;
#311 = ORIENTED_EDGE ( 'NONE', *, *, #959, .T. ) ;
#312 = DIRECTION ( 'NONE',  ( -1.000000000000000000, 0.000000000000000000, 0.000000000000000000 ) ) ;
#313 = DIRECTION ( 'NONE',  ( 0.000000000000000000, 0.000000000000000000, -1.000000000000000000 ) ) ;
#314 = CARTESIAN_POINT ( 'NONE',  ( 4.750000000000015099, -28.25000000000000711, 0.000000000000000000 ) ) ;
#315 = VERTEX_POINT ( 'NONE', #797 ) ;
#316 = AXIS2_PLACEMENT_3D ( 'NONE', #796, #1176, #1082 ) ;
#317 = VECTOR ( 'NONE', #97, 1000.000000000000000 ) ;
#318 = ORIENTED_EDGE ( 'NONE', *, *, #427, .T. ) ;
#319 = CARTESIAN_POINT ( 'NONE',  ( 33.25000000000000711, -12.49999999999999467, 8.000000000000000000 ) ) ;
#320 = ADVANCED_FACE ( 'NONE', ( #1170 ), #511, .F. ) ;
#321 = FACE_OUTER_BOUND ( 'NONE', #1052, .T. ) ;
#322 = DIRECTION ( 'NONE',  ( 0.000000000000000000, 1.000000000000000000, 0.000000000000000000 ) ) ;
#323 = VERTEX_POINT ( 'NONE', #681 ) ;
#324 = ORIENTED_EDGE ( 'NONE', *, *, #647, .F. ) ;
#325 = PLANE ( 'NONE',  #475 ) ;
#326 = EDGE_LOOP ( 'NONE', ( #502, #486, #149, #201 ) ) ;
#327 = CARTESIAN_POINT ( 'NONE',  ( -18.24999999999998224, -5.000000000000000888, 1.500000000000000000 ) ) ;
#328 = VERTEX_POINT ( 'NONE', #792 ) ;
#329 = DIRECTION ( 'NONE',  ( -0.000000000000000000, -0.000000000000000000, -1.000000000000000000 ) ) ;
#330 = ORIENTED_EDGE ( 'NONE', *, *, #945, .F. ) ;
#331 = DIRECTION ( 'NONE',  ( 1.000000000000000000, 0.000000000000000000, 0.000000000000000000 ) ) ;
#332 = ORIENTED_EDGE ( 'NONE', *, *, #260, .F. ) ;
#333 = ADVANCED_FACE ( 'NONE', ( #205 ), #118, .T. ) ;
#334 = VECTOR ( 'NONE', #481, 1000.000000000000000 ) ;
#335 = CARTESIAN_POINT ( 'NONE',  ( 17.75000000000001421, 6.938893903907228378E-15, 3.000000000000000000 ) ) ;
#336 = AXIS2_PLACEMENT_3D ( 'NONE', #211, #961, #883 ) ;
#337 = VECTOR ( 'NONE', #351, 1000.000000000000000 ) ;
#338 = CIRCLE ( 'NONE', #102, 2.500000000000000444 ) ;
#339 = EDGE_LOOP ( 'NONE', ( #957, #291 ) ) ;
#340 = FACE_BOUND ( 'NONE', #611, .T. ) ;
#341 = APPROVAL_PERSON_ORGANIZATION ( #255, #350, #655 ) ;
#342 = EDGE_CURVE ( 'NONE', #906, #802, #1062, .T. ) ;
#343 = CARTESIAN_POINT ( 'NONE',  ( -33.25100000000000477, 30.75000000000000711, 8.000000000000000000 ) ) ;
#344 = VERTEX_POINT ( 'NONE', #492 ) ;
#345 = DIRECTION ( 'NONE',  ( -0.000000000000000000, -0.000000000000000000, -1.000000000000000000 ) ) ;
#346 = EDGE_CURVE ( 'NONE', #408, #203, #1092, .T. ) ;
#347 = CARTESIAN_POINT ( 'NONE',  ( 4.750000000000015099, -28.25000000000000711, 0.000000000000000000 ) ) ;
#348 = ORIENTED_EDGE ( 'NONE', *, *, #516, .F. ) ;
#349 = PERSON_AND_ORGANIZATION ( #40, #993 ) ;
#350 = APPROVAL ( #744, 'UNSPECIFIED' ) ;
#351 = DIRECTION ( 'NONE',  ( -0.000000000000000000, -0.000000000000000000, -1.000000000000000000 ) ) ;
#352 = EDGE_CURVE ( 'NONE', #714, #139, #288, .T. ) ;
#353 = VERTEX_POINT ( 'NONE', #680 ) ;
#354 = DATE_TIME_ROLE ( 'creation_date' ) ;
#355 = AXIS2_PLACEMENT_3D ( 'NONE', #403, #1148, #31 ) ;
#356 = CC_DESIGN_SECURITY_CLASSIFICATION ( #539, ( #441 ) ) ;
#357 = CARTESIAN_POINT ( 'NONE',  ( -16.74999999999997868, 7.122590923779331100E-15, 13.00100000000000122 ) ) ;
#358 = ORIENTED_EDGE ( 'NONE', *, *, #1142, .F. ) ;
#359 = DATE_AND_TIME ( #1209, #656 ) ;
#360 = CARTESIAN_POINT ( 'NONE',  ( 30.25000000000001776, -33.24999999999999289, 13.00000000000000178 ) ) ;
#361 = CALENDAR_DATE ( 2026, 1, 9 ) ;
#362 = LINE ( 'NONE', #558, #1191 ) ;
#363 = EDGE_LOOP ( 'NONE', ( #311, #184, #151, #1091 ) ) ;
#364 = CYLINDRICAL_SURFACE ( 'NONE', #397, 2.499999999999998668 ) ;
#365 = CARTESIAN_POINT ( 'NONE',  ( 1.750000000000014211, 18.25000000000001066, 13.00100000000000122 ) ) ;
#366 = CALENDAR_DATE ( 2026, 1, 9 ) ;
#367 = EDGE_CURVE ( 'NONE', #613, #353, #122, .T. ) ;
#368 = DIRECTION ( 'NONE',  ( 1.000000000000000000, 0.000000000000000000, 0.000000000000000000 ) ) ;
#369 = ORIENTED_EDGE ( 'NONE', *, *, #787, .T. ) ;
#370 = ADVANCED_BREP_SHAPE_REPRESENTATION ( 'Base_v2_Default_sldprt', ( #37, #721 ), #948 ) ;
#371 = VERTEX_POINT ( 'NONE', #296 ) ;
#372 = DIRECTION ( 'NONE',  ( 1.000000000000000000, 2.086885384633752903E-16, 0.000000000000000000 ) ) ;
#373 = DIRECTION ( 'NONE',  ( 0.000000000000000000, -0.000000000000000000, 1.000000000000000000 ) ) ;
#374 = AXIS2_PLACEMENT_3D ( 'NONE', #595, #41, #226 ) ;
#375 = CIRCLE ( 'NONE', #238, 2.500000000000000444 ) ;
#376 = EDGE_CURVE ( 'NONE', #34, #944, #717, .T. ) ;
#377 = DIRECTION ( 'NONE',  ( 0.000000000000000000, 0.000000000000000000, -1.000000000000000000 ) ) ;
#378 = VERTEX_POINT ( 'NONE', #572 ) ;
#379 = DIRECTION ( 'NONE',  ( 0.000000000000000000, 0.000000000000000000, 1.000000000000000000 ) ) ;
#380 = CARTESIAN_POINT ( 'NONE',  ( -18.24999999999998224, 5.000000000000000888, 1.500000000000000000 ) ) ;
#381 = CARTESIAN_POINT ( 'NONE',  ( 4.750000000000015099, 28.25000000000000711, 3.000000000000000888 ) ) ;
#382 = ORIENTED_EDGE ( 'NONE', *, *, #542, .T. ) ;
#383 = CARTESIAN_POINT ( 'NONE',  ( 33.25000000000000000, 33.25000000000000711, 3.000000000000000000 ) ) ;
#384 = VERTEX_POINT ( 'NONE', #281 ) ;
#385 = FACE_OUTER_BOUND ( 'NONE', #1175, .T. ) ;
#386 = LINE ( 'NONE', #667, #495 ) ;
#387 = DIRECTION ( 'NONE',  ( 0.000000000000000000, -1.000000000000000000, 0.000000000000000000 ) ) ;
#388 = ORIENTED_EDGE ( 'NONE', *, *, #624, .T. ) ;
#389 = PRODUCT_DEFINITION ( 'UNKNOWN', '', #441, #954 ) ;
#390 = ORIENTED_EDGE ( 'NONE', *, *, #1069, .F. ) ;
#391 = FACE_OUTER_BOUND ( 'NONE', #754, .T. ) ;
#392 = VECTOR ( 'NONE', #463, 1000.000000000000000 ) ;
#393 = EDGE_CURVE ( 'NONE', #425, #223, #175, .T. ) ;
#394 = DIRECTION ( 'NONE',  ( 0.000000000000000000, -0.000000000000000000, -1.000000000000000000 ) ) ;
#395 = LINE ( 'NONE', #300, #1006 ) ;
#396 = ORIENTED_EDGE ( 'NONE', *, *, #1010, .F. ) ;
#397 = AXIS2_PLACEMENT_3D ( 'NONE', #77, #1208, #838 ) ;
#398 = VECTOR ( 'NONE', #687, 1000.000000000000000 ) ;
#399 = AXIS2_PLACEMENT_3D ( 'NONE', #997, #1079, #704 ) ;
#400 = EDGE_CURVE ( 'NONE', #882, #639, #204, .T. ) ;
#401 = DIRECTION ( 'NONE',  ( 0.000000000000000000, -0.000000000000000000, 1.000000000000000000 ) ) ;
#402 = EDGE_LOOP ( 'NONE', ( #630, #153, #8, #277 ) ) ;
#403 = CARTESIAN_POINT ( 'NONE',  ( 33.25000000000001421, 28.24999999999999289, 8.000000000000000000 ) ) ;
#404 = DIRECTION ( 'NONE',  ( -0.000000000000000000, -1.000000000000000000, -0.000000000000000000 ) ) ;
#405 = DIRECTION ( 'NONE',  ( 1.000000000000000000, -2.086885384633752656E-16, -0.000000000000000000 ) ) ;
#406 = ORIENTED_EDGE ( 'NONE', *, *, #225, .F. ) ;
#407 = DIRECTION ( 'NONE',  ( 0.8660254037844387076, 0.4999999999999998890, 0.000000000000000000 ) ) ;
#408 = VERTEX_POINT ( 'NONE', #1156 ) ;
#409 = DIRECTION ( 'NONE',  ( 1.000000000000000000, 2.086885384633752656E-16, -0.000000000000000000 ) ) ;
#410 = LINE ( 'NONE', #970, #237 ) ;
#411 = DIRECTION ( 'NONE',  ( 2.086885384633752903E-16, -1.000000000000000000, 0.000000000000000000 ) ) ;
#412 = ORIENTED_EDGE ( 'NONE', *, *, #346, .T. ) ;
#413 = ADVANCED_FACE ( 'NONE', ( #1134 ), #861, .F. ) ;
#414 = ORIENTED_EDGE ( 'NONE', *, *, #594, .T. ) ;
#415 = CYLINDRICAL_SURFACE ( 'NONE', #455, 2.499999999999998668 ) ;
#416 = CARTESIAN_POINT ( 'NONE',  ( -19.74999999999998224, 6.938893903907228378E-15, 0.000000000000000000 ) ) ;
#417 = LINE ( 'NONE', #821, #124 ) ;
#418 = ORIENTED_EDGE ( 'NONE', *, *, #849, .T. ) ;
#419 = VECTOR ( 'NONE', #409, 1000.000000000000000 ) ;
#420 = AXIS2_PLACEMENT_3D ( 'NONE', #976, #134, #20 ) ;
#421 = ORIENTED_EDGE ( 'NONE', *, *, #1056, .T. ) ;
#422 = CARTESIAN_POINT ( 'NONE',  ( -33.25100000000000477, 28.25000000000000711, 8.000000000000000000 ) ) ;
#423 = ORIENTED_EDGE ( 'NONE', *, *, #52, .T. ) ;
#424 = FACE_BOUND ( 'NONE', #778, .T. ) ;
#425 = VERTEX_POINT ( 'NONE', #665 ) ;
#426 = LINE ( 'NONE', #1180, #1224 ) ;
#427 = EDGE_CURVE ( 'NONE', #295, #1177, #23, .T. ) ;
#428 = ORIENTED_EDGE ( 'NONE', *, *, #684, .F. ) ;
#429 = LINE ( 'NONE', #154, #880 ) ;
#430 = ORIENTED_EDGE ( 'NONE', *, *, #698, .F. ) ;
#431 = CARTESIAN_POINT ( 'NONE',  ( 30.25000000000001776, -33.24999999999999289, 13.00000000000000178 ) ) ;
#432 = CC_DESIGN_PERSON_AND_ORGANIZATION_ASSIGNMENT ( #1120, #1029, ( #441 ) ) ;
#433 = ORIENTED_EDGE ( 'NONE', *, *, #468, .T. ) ;
#434 = LINE ( 'NONE', #233, #499 ) ;
#435 = EDGE_CURVE ( 'NONE', #1195, #287, #555, .T. ) ;
#436 = VECTOR ( 'NONE', #848, 1000.000000000000000 ) ;
#437 = CARTESIAN_POINT ( 'NONE',  ( 33.25000000000001421, 25.74999999999999645, 8.000000000000000000 ) ) ;
#438 = AXIS2_PLACEMENT_3D ( 'NONE', #1141, #866, #672 ) ;
#439 = VECTOR ( 'NONE', #1015, 1000.000000000000000 ) ;
#440 = VECTOR ( 'NONE', #1013, 1000.000000000000000 ) ;
#441 = PRODUCT_DEFINITION_FORMATION_WITH_SPECIFIED_SOURCE ( 'ANY', '', #1151, .NOT_KNOWN. ) ;
#442 = EDGE_LOOP ( 'NONE', ( #991, #1145 ) ) ;
#443 = AXIS2_PLACEMENT_3D ( 'NONE', #1103, #1100, #251 ) ;
#444 = FACE_BOUND ( 'NONE', #1155, .T. ) ;
#445 = CARTESIAN_POINT ( 'NONE',  ( -33.24999999999998579, -33.24999999999999289, 3.000000000000000000 ) ) ;
#446 = ORIENTED_EDGE ( 'NONE', *, *, #521, .T. ) ;
#447 = APPROVAL_DATE_TIME ( #562, #958 ) ;
#448 = COORDINATED_UNIVERSAL_TIME_OFFSET ( 5, 30, .AHEAD. ) ;
#449 = EDGE_CURVE ( 'NONE', #544, #266, #874, .T. ) ;
#450 = CARTESIAN_POINT ( 'NONE',  ( -13.91987298107778770, -2.499999999999999112, 1.500000000000000000 ) ) ;
#451 = EDGE_LOOP ( 'NONE', ( #390, #1032 ) ) ;
#452 = ORIENTED_EDGE ( 'NONE', *, *, #1116, .F. ) ;
#453 = DIRECTION ( 'NONE',  ( -0.8660254037844384856, 0.5000000000000003331, 0.000000000000000000 ) ) ;
#454 = ORIENTED_EDGE ( 'NONE', *, *, #1142, .T. ) ;
#455 = AXIS2_PLACEMENT_3D ( 'NONE', #978, #224, #136 ) ;
#456 = VECTOR ( 'NONE', #1073, 1000.000000000000000 ) ;
#457 = COORDINATED_UNIVERSAL_TIME_OFFSET ( 5, 30, .AHEAD. ) ;
#458 = CARTESIAN_POINT ( 'NONE',  ( -13.91987298107778770, -2.499999999999999112, 3.000000000000000000 ) ) ;
#459 = CARTESIAN_POINT ( 'NONE',  ( 1.750000000000014211, -18.25000000000001066, 0.000000000000000000 ) ) ;
#460 = CALENDAR_DATE ( 2026, 1, 9 ) ;
#461 = EDGE_CURVE ( 'NONE', #479, #223, #659, .T. ) ;
#462 = DIRECTION ( 'NONE',  ( -1.000000000000000000, 0.000000000000000000, 0.000000000000000000 ) ) ;
#463 = DIRECTION ( 'NONE',  ( -0.000000000000000000, -0.000000000000000000, -1.000000000000000000 ) ) ;
#464 = ORIENTED_EDGE ( 'NONE', *, *, #427, .F. ) ;
#465 = EDGE_LOOP ( 'NONE', ( #518, #414, #610, #30 ) ) ;
#466 = FACE_OUTER_BOUND ( 'NONE', #44, .T. ) ;
#467 = CARTESIAN_POINT ( 'NONE',  ( 1.750000000000015543, -28.25000000000000711, 0.000000000000000000 ) ) ;
#468 = EDGE_CURVE ( 'NONE', #115, #639, #1163, .T. ) ;
#469 = DIRECTION ( 'NONE',  ( 1.000000000000000000, 0.000000000000000000, 0.000000000000000000 ) ) ;
#470 = ORIENTED_EDGE ( 'NONE', *, *, #117, .F. ) ;
#471 = EDGE_CURVE ( 'NONE', #69, #328, #185, .T. ) ;
#472 = CARTESIAN_POINT ( 'NONE',  ( 30.25000000000001421, -25.74999999999999645, 8.000000000000000000 ) ) ;
#473 = LINE ( 'NONE', #854, #163 ) ;
#474 = CARTESIAN_POINT ( 'NONE',  ( -33.24999999999998579, -33.24999999999999289, 3.000000000000000000 ) ) ;
#475 = AXIS2_PLACEMENT_3D ( 'NONE', #904, #702, #1087 ) ;
#476 = ORIENTED_EDGE ( 'NONE', *, *, #28, .T. ) ;
#477 = VECTOR ( 'NONE', #1189, 1000.000000000000000 ) ;
#478 = CARTESIAN_POINT ( 'NONE',  ( 1.750000000000014211, -18.25000000000001066, 13.00100000000000122 ) ) ;
#479 = VERTEX_POINT ( 'NONE', #472 ) ;
#480 = DIRECTION ( 'NONE',  ( -1.000000000000000000, -0.000000000000000000, -0.000000000000000000 ) ) ;
#481 = DIRECTION ( 'NONE',  ( -0.000000000000000000, -1.000000000000000000, -0.000000000000000000 ) ) ;
#482 = CARTESIAN_POINT ( 'NONE',  ( -18.24999999999998224, -5.000000000000000888, 1.500000000000000000 ) ) ;
#483 = ORIENTED_EDGE ( 'NONE', *, *, #1053, .F. ) ;
#484 = ADVANCED_FACE ( 'NONE', ( #947, #9, #385, #768, #198 ), #582, .F. ) ;
#485 = ADVANCED_FACE ( 'NONE', ( #391 ), #325, .T. ) ;
#486 = ORIENTED_EDGE ( 'NONE', *, *, #731, .T. ) ;
#487 = DIRECTION ( 'NONE',  ( -1.000000000000000000, 0.000000000000000000, 0.000000000000000000 ) ) ;
#488 = LINE ( 'NONE', #380, #1122 ) ;
#489 = CARTESIAN_POINT ( 'NONE',  ( -33.24999999999998579, -33.24999999999999289, 3.000000000000000000 ) ) ;
#490 = ORIENTED_EDGE ( 'NONE', *, *, #780, .T. ) ;
#491 = EDGE_LOOP ( 'NONE', ( #428, #1083, #157, #747 ) ) ;
#492 = CARTESIAN_POINT ( 'NONE',  ( 4.750000000000015099, 18.25000000000001066, 3.000000000000000888 ) ) ;
#493 = DIRECTION ( 'NONE',  ( 0.000000000000000000, -1.000000000000000000, 0.000000000000000000 ) ) ;
#494 = LINE ( 'NONE', #878, #678 ) ;
#495 = VECTOR ( 'NONE', #949, 1000.000000000000000 ) ;
#496 = ORIENTED_EDGE ( 'NONE', *, *, #1034, .F. ) ;
#497 = AXIS2_PLACEMENT_3D ( 'NONE', #1, #587, #967 ) ;
#498 = VECTOR ( 'NONE', #1211, 1000.000000000000000 ) ;
#499 = VECTOR ( 'NONE', #798, 1000.000000000000000 ) ;
#500 = CARTESIAN_POINT ( 'NONE',  ( 13.75000000000001599, 6.938893903907228378E-15, 3.000000000000000000 ) ) ;
#501 = LOCAL_TIME ( 18, 21, 35.00000000000000000, #825 ) ;
#502 = ORIENTED_EDGE ( 'NONE', *, *, #242, .F. ) ;
#503 = CARTESIAN_POINT ( 'NONE',  ( 4.750000000000015099, 28.25000000000000711, 13.00100000000000122 ) ) ;
#504 = CARTESIAN_POINT ( 'NONE',  ( 1.750000000000014211, 18.25000000000001066, 3.000000000000000888 ) ) ;
#505 = CARTESIAN_POINT ( 'NONE',  ( 33.25000000000000000, 33.25000000000000711, 3.000000000000000000 ) ) ;
#506 = ORIENTED_EDGE ( 'NONE', *, *, #1197, .F. ) ;
#507 = EDGE_CURVE ( 'NONE', #378, #139, #1077, .T. ) ;
#508 = CARTESIAN_POINT ( 'NONE',  ( -22.58012701892217322, 2.500000000000001776, 3.000000000000000000 ) ) ;
#509 = VERTEX_POINT ( 'NONE', #39 ) ;
#510 = PLANE ( 'NONE',  #147 ) ;
#511 = PLANE ( 'NONE',  #599 ) ;
#512 = FACE_OUTER_BOUND ( 'NONE', #533, .T. ) ;
#513 = EDGE_LOOP ( 'NONE', ( #332, #888, #388, #919 ) ) ;
#514 = ORIENTED_EDGE ( 'NONE', *, *, #306, .F. ) ;
#515 = CARTESIAN_POINT ( 'NONE',  ( 1.750000000000015543, 28.25000000000000711, 3.000000000000000888 ) ) ;
#516 = EDGE_CURVE ( 'NONE', #1017, #1153, #816, .T. ) ;
#517 = CARTESIAN_POINT ( 'NONE',  ( 4.750000000000015099, 28.25000000000000711, 13.00100000000000122 ) ) ;
#518 = ORIENTED_EDGE ( 'NONE', *, *, #712, .F. ) ;
#519 = CIRCLE ( 'NONE', #699, 1.500000000000001332 ) ;
#520 = VECTOR ( 'NONE', #943, 1000.000000000000000 ) ;
#521 = EDGE_CURVE ( 'NONE', #295, #933, #522, .T. ) ;
#522 = LINE ( 'NONE', #515, #271 ) ;
#523 = APPROVAL_PERSON_ORGANIZATION ( #736, #82, #644 ) ;
#524 = ORIENTED_EDGE ( 'NONE', *, *, #1130, .T. ) ;
#525 = CARTESIAN_POINT ( 'NONE',  ( 1.750000000000014211, 18.25000000000001066, 0.000000000000000000 ) ) ;
#526 = ORIENTED_EDGE ( 'NONE', *, *, #133, .T. ) ;
#527 = EDGE_CURVE ( 'NONE', #882, #371, #426, .T. ) ;
#528 = CARTESIAN_POINT ( 'NONE',  ( 1.750000000000015543, 28.25000000000000711, 13.00100000000000122 ) ) ;
#529 = ADVANCED_FACE ( 'NONE', ( #1168 ), #510, .F. ) ;
#530 = EDGE_LOOP ( 'NONE', ( #412, #207, #43, #709 ) ) ;
#531 = PLANE ( 'NONE',  #399 ) ;
#532 = DIRECTION ( 'NONE',  ( 0.000000000000000000, -1.000000000000000000, 0.000000000000000000 ) ) ;
#533 = EDGE_LOOP ( 'NONE', ( #799, #767, #851, #820 ) ) ;
#534 = FACE_OUTER_BOUND ( 'NONE', #218, .T. ) ;
#535 = AXIS2_PLACEMENT_3D ( 'NONE', #931, #1040, #674 ) ;
#536 = LINE ( 'NONE', #68, #926 ) ;
#537 = VECTOR ( 'NONE', #532, 1000.000000000000000 ) ;
#538 = VECTOR ( 'NONE', #17, 1000.000000000000000 ) ;
#539 = SECURITY_CLASSIFICATION ( '', '', #1020 ) ;
#540 = EDGE_LOOP ( 'NONE', ( #49, #13, #671, #230 ) ) ;
#541 = DIRECTION ( 'NONE',  ( 0.000000000000000000, 1.000000000000000000, 0.000000000000000000 ) ) ;
#542 = EDGE_CURVE ( 'NONE', #34, #886, #995, .T. ) ;
#543 = DIRECTION ( 'NONE',  ( 1.000000000000000000, 0.000000000000000000, 0.000000000000000000 ) ) ;
#544 = VERTEX_POINT ( 'NONE', #319 ) ;
#545 = ORIENTED_EDGE ( 'NONE', *, *, #1187, .T. ) ;
#546 = DIRECTION ( 'NONE',  ( 1.000000000000000000, 0.000000000000000000, 0.000000000000000000 ) ) ;
#547 = DIRECTION ( 'NONE',  ( -0.8660254037844383745, -0.5000000000000003331, 0.000000000000000000 ) ) ;
#548 = FACE_OUTER_BOUND ( 'NONE', #301, .T. ) ;
#549 = CARTESIAN_POINT ( 'NONE',  ( -33.25000000000000000, 33.25000000000000711, 0.000000000000000000 ) ) ;
#550 = CARTESIAN_POINT ( 'NONE',  ( 13.75000000000001599, 6.938893903907228378E-15, 3.000000000000000000 ) ) ;
#551 = VECTOR ( 'NONE', #868, 1000.000000000000000 ) ;
#552 = ADVANCED_FACE ( 'NONE', ( #231 ), #219, .F. ) ;
#553 = CARTESIAN_POINT ( 'NONE',  ( 4.750000000000015099, 28.25000000000000711, 0.000000000000000000 ) ) ;
#554 = MECHANICAL_CONTEXT ( 'NONE', #15, 'mechanical' ) ;
#555 = CIRCLE ( 'NONE', #1205, 1.500000000000001332 ) ;
#556 = CIRCLE ( 'NONE', #971, 2.500000000000000444 ) ;
#557 = CARTESIAN_POINT ( 'NONE',  ( 1.750000000000014211, -18.25000000000001066, 3.000000000000000888 ) ) ;
#558 = CARTESIAN_POINT ( 'NONE',  ( 1.750000000000015543, 28.25000000000000711, 0.000000000000000000 ) ) ;
#559 = ORIENTED_EDGE ( 'NONE', *, *, #100, .T. ) ;
#560 = EDGE_CURVE ( 'NONE', #828, #903, #834, .T. ) ;
#561 = LINE ( 'NONE', #1213, #79 ) ;
#562 = DATE_AND_TIME ( #839, #1075 ) ;
#563 = DIRECTION ( 'NONE',  ( -1.000000000000000000, -0.000000000000000000, -0.000000000000000000 ) ) ;
#564 = CARTESIAN_POINT ( 'NONE',  ( 1.750000000000015543, -28.25000000000000711, 0.000000000000000000 ) ) ;
#565 = ORIENTED_EDGE ( 'NONE', *, *, #202, .T. ) ;
#566 = CARTESIAN_POINT ( 'NONE',  ( 33.25000000000001421, 33.25000000000000711, 13.00000000000000178 ) ) ;
#567 = LINE ( 'NONE', #1154, #317 ) ;
#568 = CYLINDRICAL_SURFACE ( 'NONE', #776, 2.500000000000000444 ) ;
#569 = ORIENTED_EDGE ( 'NONE', *, *, #292, .T. ) ;
#570 = CARTESIAN_POINT ( 'NONE',  ( -22.58012701892217322, -2.499999999999999556, 1.500000000000000000 ) ) ;
#571 = EDGE_LOOP ( 'NONE', ( #214, #132 ) ) ;
#572 = CARTESIAN_POINT ( 'NONE',  ( -22.58012701892217322, 2.500000000000001776, 1.500000000000000000 ) ) ;
#573 = CC_DESIGN_DATE_AND_TIME_ASSIGNMENT ( #840, #636, ( #539 ) ) ;
#574 = DIRECTION ( 'NONE',  ( 0.000000000000000000, -1.000000000000000000, 0.000000000000000000 ) ) ;
#575 = VECTOR ( 'NONE', #10, 1000.000000000000000 ) ;
#576 = CARTESIAN_POINT ( 'NONE',  ( 33.25000000000000711, 9.999999999999994671, 8.000000000000000000 ) ) ;
#577 = ORIENTED_EDGE ( 'NONE', *, *, #893, .T. ) ;
#578 = VECTOR ( 'NONE', #963, 1000.000000000000000 ) ;
#579 = ADVANCED_FACE ( 'NONE', ( #61 ), #415, .F. ) ;
#580 = PRODUCT_DEFINITION_SHAPE ( 'NONE', 'NONE',  #389 ) ;
#581 = EDGE_LOOP ( 'NONE', ( #765, #1162, #526, #1199 ) ) ;
#582 = PLANE ( 'NONE',  #650 ) ;
#583 = CARTESIAN_POINT ( 'NONE',  ( 13.75000000000001599, 6.938893903907228378E-15, 0.000000000000000000 ) ) ;
#584 = FACE_BOUND ( 'NONE', #679, .T. ) ;
#585 = ORIENTED_EDGE ( 'NONE', *, *, #84, .F. ) ;
#586 = EDGE_LOOP ( 'NONE', ( #901, #1074, #789, #860 ) ) ;
#587 = DIRECTION ( 'NONE',  ( 0.000000000000000000, 1.000000000000000000, 0.000000000000000000 ) ) ;
#588 = PLANE ( 'NONE',  #1169 ) ;
#589 = DIRECTION ( 'NONE',  ( 1.000000000000000000, -0.000000000000000000, 0.000000000000000000 ) ) ;
#590 = ORIENTED_EDGE ( 'NONE', *, *, #449, .F. ) ;
#591 = DIRECTION ( 'NONE',  ( 0.8660254037844387076, 0.4999999999999998890, 0.000000000000000000 ) ) ;
#592 = VERTEX_POINT ( 'NONE', #984 ) ;
#593 = DIRECTION ( 'NONE',  ( 0.000000000000000000, 0.000000000000000000, -1.000000000000000000 ) ) ;
#594 = EDGE_CURVE ( 'NONE', #1004, #1167, #65, .T. ) ;
#595 = CARTESIAN_POINT ( 'NONE',  ( -33.25100000000000477, -28.25000000000000711, 8.000000000000000000 ) ) ;
#596 = CARTESIAN_POINT ( 'NONE',  ( -33.24999999999998579, -33.24999999999999289, 0.000000000000000000 ) ) ;
#597 = AXIS2_PLACEMENT_3D ( 'NONE', #474, #743, #373 ) ;
#598 = ORIENTED_EDGE ( 'NONE', *, *, #994, .F. ) ;
#599 = AXIS2_PLACEMENT_3D ( 'NONE', #884, #493, #394 ) ;
#600 = CARTESIAN_POINT ( 'NONE',  ( 4.750000000000015099, 28.25000000000000711, 3.000000000000000000 ) ) ;
#601 = DIRECTION ( 'NONE',  ( 0.000000000000000000, -0.000000000000000000, 1.000000000000000000 ) ) ;
#602 = EDGE_CURVE ( 'NONE', #942, #771, #51, .T. ) ;
#603 = CARTESIAN_POINT ( 'NONE',  ( 30.25000000000002132, 9.999999999999994671, 8.000000000000000000 ) ) ;
#604 = CARTESIAN_POINT ( 'NONE',  ( 30.25000000000002132, 9.999999999999994671, 8.000000000000000000 ) ) ;
#605 = ORIENTED_EDGE ( 'NONE', *, *, #731, .F. ) ;
#606 = ORIENTED_EDGE ( 'NONE', *, *, #202, .F. ) ;
#607 = DIRECTION ( 'NONE',  ( 0.000000000000000000, 0.000000000000000000, -1.000000000000000000 ) ) ;
#608 = DIRECTION ( 'NONE',  ( 1.000000000000000000, 0.000000000000000000, 0.000000000000000000 ) ) ;
#609 = PLANE ( 'NONE',  #633 ) ;
#610 = ORIENTED_EDGE ( 'NONE', *, *, #1160, .T. ) ;
#611 = EDGE_LOOP ( 'NONE', ( #807, #1097, #369, #824, #1133, #974 ) ) ;
#612 = CARTESIAN_POINT ( 'NONE',  ( -18.24999999999998224, 6.938893903907228378E-15, 1.499999999999999556 ) ) ;
#613 = VERTEX_POINT ( 'NONE', #437 ) ;
#614 = CYLINDRICAL_SURFACE ( 'NONE', #719, 1.500000000000001332 ) ;
#615 = EDGE_CURVE ( 'NONE', #864, #1177, #236, .T. ) ;
#616 = ORIENTED_EDGE ( 'NONE', *, *, #156, .T. ) ;
#617 = CIRCLE ( 'NONE', #443, 4.000000000000000000 ) ;
#618 = EDGE_CURVE ( 'NONE', #323, #846, #808, .T. ) ;
#619 = CIRCLE ( 'NONE', #19, 2.500000000000000444 ) ;
#620 = AXIS2_PLACEMENT_3D ( 'NONE', #973, #200, #1144 ) ;
#621 = DIRECTION ( 'NONE',  ( 2.086885384633752903E-16, -1.000000000000000000, 0.000000000000000000 ) ) ;
#622 = VERTEX_POINT ( 'NONE', #146 ) ;
#623 = CARTESIAN_POINT ( 'NONE',  ( 33.25000000000000711, 12.49999999999999467, 8.000000000000000000 ) ) ;
#624 = EDGE_CURVE ( 'NONE', #384, #38, #812, .T. ) ;
#625 = CYLINDRICAL_SURFACE ( 'NONE', #126, 4.000000000000000000 ) ;
#626 = ORIENTED_EDGE ( 'NONE', *, *, #602, .T. ) ;
#627 = DIRECTION ( 'NONE',  ( 0.000000000000000000, 1.000000000000000000, 0.000000000000000000 ) ) ;
#628 = LINE ( 'NONE', #1194, #60 ) ;
#629 = ADVANCED_FACE ( 'NONE', ( #1186 ), #625, .F. ) ;
#630 = ORIENTED_EDGE ( 'NONE', *, *, #1053, .T. ) ;
#631 = DIRECTION ( 'NONE',  ( -0.000000000000000000, 0.000000000000000000, 1.000000000000000000 ) ) ;
#632 = LINE ( 'NONE', #164, #246 ) ;
#633 = AXIS2_PLACEMENT_3D ( 'NONE', #896, #240, #48 ) ;
#634 = VERTEX_POINT ( 'NONE', #1068 ) ;
#635 = VERTEX_POINT ( 'NONE', #889 ) ;
#636 = DATE_TIME_ROLE ( 'classification_date' ) ;
#637 = VECTOR ( 'NONE', #725, 1000.000000000000000 ) ;
#638 = LINE ( 'NONE', #827, #498 ) ;
#639 = VERTEX_POINT ( 'NONE', #347 ) ;
#640 = COORDINATED_UNIVERSAL_TIME_OFFSET ( 5, 30, .AHEAD. ) ;
#641 = EDGE_CURVE ( 'NONE', #189, #886, #273, .T. ) ;
#642 = DIRECTION ( 'NONE',  ( -0.000000000000000000, -0.000000000000000000, -1.000000000000000000 ) ) ;
#643 = LINE ( 'NONE', #87, #121 ) ;
#644 = APPROVAL_ROLE ( '' ) ;
#645 = LINE ( 'NONE', #193, #62 ) ;
#646 = EDGE_CURVE ( 'NONE', #267, #115, #89, .T. ) ;
#647 = EDGE_CURVE ( 'NONE', #944, #189, #1109, .T. ) ;
#648 = CARTESIAN_POINT ( 'NONE',  ( 0.000000000000000000, 0.000000000000000000, 1.500000000000000000 ) ) ;
#649 = EDGE_LOOP ( 'NONE', ( #782, #140 ) ) ;
#650 = AXIS2_PLACEMENT_3D ( 'NONE', #953, #14, #773 ) ;
#651 = DIRECTION ( 'NONE',  ( 0.000000000000000000, 1.000000000000000000, 0.000000000000000000 ) ) ;
#652 = PLANE ( 'NONE',  #1125 ) ;
#653 = VECTOR ( 'NONE', #752, 1000.000000000000000 ) ;
#654 = CARTESIAN_POINT ( 'NONE',  ( 30.25000000000002132, -12.49999999999999467, 8.000000000000000000 ) ) ;
#655 = APPROVAL_ROLE ( '' ) ;
#656 = LOCAL_TIME ( 18, 21, 35.00000000000000000, #640 ) ;
#657 = FACE_BOUND ( 'NONE', #649, .T. ) ;
#658 = VERTEX_POINT ( 'NONE', #1198 ) ;
#659 = LINE ( 'NONE', #116, #419 ) ;
#660 = FACE_OUTER_BOUND ( 'NONE', #915, .T. ) ;
#661 = CARTESIAN_POINT ( 'NONE',  ( 0.000000000000000000, 0.000000000000000000, 0.000000000000000000 ) ) ;
#662 = CARTESIAN_POINT ( 'NONE',  ( -33.25100000000001188, 12.50000000000000888, 8.000000000000000000 ) ) ;
#663 = FACE_BOUND ( 'NONE', #1065, .T. ) ;
#664 = ORIENTED_EDGE ( 'NONE', *, *, #624, .F. ) ;
#665 = CARTESIAN_POINT ( 'NONE',  ( 33.25000000000001421, -30.74999999999999289, 8.000000000000000000 ) ) ;
#666 = EDGE_CURVE ( 'NONE', #846, #622, #1117, .T. ) ;
#667 = CARTESIAN_POINT ( 'NONE',  ( -33.25000000000000000, 33.25000000000000711, 3.000000000000000000 ) ) ;
#668 = FACE_BOUND ( 'NONE', #706, .T. ) ;
#669 = ORIENTED_EDGE ( 'NONE', *, *, #84, .T. ) ;
#670 = CARTESIAN_POINT ( 'NONE',  ( 4.750000000000015099, 28.25000000000000711, 0.000000000000000000 ) ) ;
#671 = ORIENTED_EDGE ( 'NONE', *, *, #804, .F. ) ;
#672 = DIRECTION ( 'NONE',  ( 1.000000000000000000, 0.000000000000000000, 0.000000000000000000 ) ) ;
#673 = AXIS2_PLACEMENT_3D ( 'NONE', #920, #1110, #651 ) ;
#674 = DIRECTION ( 'NONE',  ( -1.301042606982605567E-16, 1.000000000000000000, 0.000000000000000000 ) ) ;
#675 = VECTOR ( 'NONE', #939, 1000.000000000000000 ) ;
#676 = DIRECTION ( 'NONE',  ( -0.000000000000000000, -0.000000000000000000, -1.000000000000000000 ) ) ;
#677 = EDGE_LOOP ( 'NONE', ( #490, #396, #506, #626, #598, #1101 ) ) ;
#678 = VECTOR ( 'NONE', #26, 1000.000000000000000 ) ;
#679 = EDGE_LOOP ( 'NONE', ( #938, #1088 ) ) ;
#680 = CARTESIAN_POINT ( 'NONE',  ( 33.25000000000001421, 30.74999999999999289, 8.000000000000000000 ) ) ;
#681 = CARTESIAN_POINT ( 'NONE',  ( -13.91987298107778770, 2.500000000000000888, 1.500000000000000000 ) ) ;
#682 = CARTESIAN_POINT ( 'NONE',  ( -33.25100000000001188, 7.500000000000007994, 8.000000000000000000 ) ) ;
#683 = ORIENTED_EDGE ( 'NONE', *, *, #804, .T. ) ;
#684 = EDGE_CURVE ( 'NONE', #622, #1137, #732, .T. ) ;
#685 = DIRECTION ( 'NONE',  ( -1.000000000000000000, -0.000000000000000000, -0.000000000000000000 ) ) ;
#686 = ORIENTED_EDGE ( 'NONE', *, *, #516, .T. ) ;
#687 = DIRECTION ( 'NONE',  ( -0.000000000000000000, -0.000000000000000000, -1.000000000000000000 ) ) ;
#688 = CARTESIAN_POINT ( 'NONE',  ( -18.24999999999998224, 6.938893903907228378E-15, 0.000000000000000000 ) ) ;
#689 = DIRECTION ( 'NONE',  ( -2.086885384633752903E-16, 1.000000000000000000, 0.000000000000000000 ) ) ;
#690 = ORIENTED_EDGE ( 'NONE', *, *, #507, .T. ) ;
#691 = CARTESIAN_POINT ( 'NONE',  ( 30.25000000000001421, -28.24999999999999289, 8.000000000000000000 ) ) ;
#692 = ADVANCED_FACE ( 'NONE', ( #256 ), #178, .T. ) ;
#693 = ORIENTED_EDGE ( 'NONE', *, *, #1002, .T. ) ;
#694 = DIRECTION ( 'NONE',  ( 0.000000000000000000, 1.000000000000000000, 0.000000000000000000 ) ) ;
#695 = CARTESIAN_POINT ( 'NONE',  ( 30.25000000000001421, 28.24999999999999289, 8.000000000000000000 ) ) ;
#696 = DIRECTION ( 'NONE',  ( 1.000000000000000000, 2.086885384633752903E-16, 0.000000000000000000 ) ) ;
#697 = EDGE_LOOP ( 'NONE', ( #496, #1118, #829, #55 ) ) ;
#698 = EDGE_CURVE ( 'NONE', #960, #1137, #638, .T. ) ;
#699 = AXIS2_PLACEMENT_3D ( 'NONE', #688, #313, #876 ) ;
#700 = AXIS2_PLACEMENT_3D ( 'NONE', #206, #696, #1165 ) ;
#701 = ORIENTED_EDGE ( 'NONE', *, *, #242, .T. ) ;
#702 = DIRECTION ( 'NONE',  ( 0.4999999999999999445, -0.8660254037844387076, 0.000000000000000000 ) ) ;
#703 = DIRECTION ( 'NONE',  ( -1.000000000000000000, 0.000000000000000000, 0.000000000000000000 ) ) ;
#704 = DIRECTION ( 'NONE',  ( 0.000000000000000000, -0.000000000000000000, -1.000000000000000000 ) ) ;
#705 = ORIENTED_EDGE ( 'NONE', *, *, #1012, .F. ) ;
#706 = EDGE_LOOP ( 'NONE', ( #964, #590 ) ) ;
#707 = DIRECTION ( 'NONE',  ( -1.000000000000000000, 0.000000000000000000, 0.000000000000000000 ) ) ;
#708 = EDGE_CURVE ( 'NONE', #1177, #983, #362, .T. ) ;
#709 = ORIENTED_EDGE ( 'NONE', *, *, #74, .F. ) ;
#710 = DIRECTION ( 'NONE',  ( -0.8660254037844384856, 0.5000000000000002220, 0.000000000000000000 ) ) ;
#711 = ORIENTED_EDGE ( 'NONE', *, *, #641, .F. ) ;
#712 = EDGE_CURVE ( 'NONE', #1004, #1195, #728, .T. ) ;
#713 = DIRECTION ( 'NONE',  ( -1.301042606982605567E-16, -1.000000000000000000, 0.000000000000000000 ) ) ;
#714 = VERTEX_POINT ( 'NONE', #159 ) ;
#715 = PLANE ( 'NONE',  #779 ) ;
#716 = VERTEX_POINT ( 'NONE', #265 ) ;
#717 = CIRCLE ( 'NONE', #438, 4.000000000000000000 ) ;
#718 = VECTOR ( 'NONE', #862, 1000.000000000000000 ) ;
#719 = AXIS2_PLACEMENT_3D ( 'NONE', #250, #345, #64 ) ;
#720 = DIRECTION ( 'NONE',  ( -0.000000000000000000, -0.000000000000000000, -1.000000000000000000 ) ) ;
#721 = AXIS2_PLACEMENT_3D ( 'NONE', #661, #78, #546 ) ;
#722 = EDGE_LOOP ( 'NONE', ( #446, #545, #421, #1081 ) ) ;
#723 = CARTESIAN_POINT ( 'NONE',  ( -18.24999999999998224, -5.000000000000000888, 3.000000000000000000 ) ) ;
#724 = EDGE_CURVE ( 'NONE', #344, #295, #628, .T. ) ;
#725 = DIRECTION ( 'NONE',  ( 1.000000000000000000, -2.086885384633752656E-16, -0.000000000000000000 ) ) ;
#726 = EDGE_LOOP ( 'NONE', ( #1227, #280, #735, #232 ) ) ;
#727 = FACE_OUTER_BOUND ( 'NONE', #197, .T. ) ;
#728 = LINE ( 'NONE', #357, #235 ) ;
#729 = ORIENTED_EDGE ( 'NONE', *, *, #945, .T. ) ;
#730 = PERSON_AND_ORGANIZATION_ROLE ( 'creator' ) ;
#731 = EDGE_CURVE ( 'NONE', #903, #613, #536, .T. ) ;
#732 = LINE ( 'NONE', #458, #1024 ) ;
#733 = AXIS2_PLACEMENT_3D ( 'NONE', #1055, #480, #593 ) ;
#734 = AXIS2_PLACEMENT_3D ( 'NONE', #505, #108, #411 ) ;
#735 = ORIENTED_EDGE ( 'NONE', *, *, #393, .T. ) ;
#736 = PERSON_AND_ORGANIZATION ( #40, #993 ) ;
#737 = EDGE_CURVE ( 'NONE', #38, #1059, #833, .T. ) ;
#738 = SHAPE_DEFINITION_REPRESENTATION ( #580, #370 ) ;
#739 = DIRECTION ( 'NONE',  ( 0.000000000000000000, 0.000000000000000000, -1.000000000000000000 ) ) ;
#740 = CC_DESIGN_PERSON_AND_ORGANIZATION_ASSIGNMENT ( #92, #1203, ( #389 ) ) ;
#741 = ORIENTED_EDGE ( 'NONE', *, *, #1216, .F. ) ;
#742 = APPROVAL_STATUS ( 'not_yet_approved' ) ;
#743 = DIRECTION ( 'NONE',  ( 0.000000000000000000, 1.000000000000000000, 0.000000000000000000 ) ) ;
#744 = APPROVAL_STATUS ( 'not_yet_approved' ) ;
#745 = ADVANCED_FACE ( 'NONE', ( #924, #823 ), #172, .F. ) ;
#746 = DIRECTION ( 'NONE',  ( 1.301042606982605567E-16, 1.000000000000000000, -0.000000000000000000 ) ) ;
#747 = ORIENTED_EDGE ( 'NONE', *, *, #698, .T. ) ;
#748 = EDGE_CURVE ( 'NONE', #828, #353, #1207, .T. ) ;
#749 = EDGE_LOOP ( 'NONE', ( #160, #476, #358, #1038 ) ) ;
#750 = PERSON_AND_ORGANIZATION ( #40, #993 ) ;
#751 = FACE_OUTER_BOUND ( 'NONE', #540, .T. ) ;
#752 = DIRECTION ( 'NONE',  ( 1.000000000000000000, 2.086885384633752656E-16, -0.000000000000000000 ) ) ;
#753 = AXIS2_PLACEMENT_3D ( 'NONE', #365, #264, #1019 ) ;
#754 = EDGE_LOOP ( 'NONE', ( #135, #813, #577, #241 ) ) ;
#755 = AXIS2_PLACEMENT_3D ( 'NONE', #612, #601, #707 ) ;
#756 = CYLINDRICAL_SURFACE ( 'NONE', #673, 2.500000000000000444 ) ;
#757 = VECTOR ( 'NONE', #642, 1000.000000000000000 ) ;
#758 = LINE ( 'NONE', #769, #718 ) ;
#759 = FACE_OUTER_BOUND ( 'NONE', #21, .T. ) ;
#760 = EDGE_CURVE ( 'NONE', #944, #34, #617, .T. ) ;
#761 = ORIENTED_EDGE ( 'NONE', *, *, #760, .F. ) ;
#762 = DIRECTION ( 'NONE',  ( 0.000000000000000000, 1.000000000000000000, 0.000000000000000000 ) ) ;
#763 = PLANE ( 'NONE',  #753 ) ;
#764 = LINE ( 'NONE', #1136, #818 ) ;
#765 = ORIENTED_EDGE ( 'NONE', *, *, #867, .T. ) ;
#766 = DIRECTION ( 'NONE',  ( -0.000000000000000000, -0.000000000000000000, -1.000000000000000000 ) ) ;
#767 = ORIENTED_EDGE ( 'NONE', *, *, #712, .T. ) ;
#768 = FACE_BOUND ( 'NONE', #697, .T. ) ;
#769 = CARTESIAN_POINT ( 'NONE',  ( 30.25000000000001776, 33.25000000000000711, 13.00000000000000178 ) ) ;
#770 = DIRECTION ( 'NONE',  ( 1.000000000000000000, 0.000000000000000000, 0.000000000000000000 ) ) ;
#771 = VERTEX_POINT ( 'NONE', #247 ) ;
#772 = ORIENTED_EDGE ( 'NONE', *, *, #461, .T. ) ;
#773 = DIRECTION ( 'NONE',  ( 1.000000000000000000, 0.000000000000000000, 0.000000000000000000 ) ) ;
#774 = AXIS2_PLACEMENT_3D ( 'NONE', #1030, #941, #574 ) ;
#775 = DIRECTION ( 'NONE',  ( 1.000000000000000000, -2.086885384633752656E-16, -0.000000000000000000 ) ) ;
#776 = AXIS2_PLACEMENT_3D ( 'NONE', #856, #775, #307 ) ;
#777 = LINE ( 'NONE', #489, #578 ) ;
#778 = EDGE_LOOP ( 'NONE', ( #761, #1011 ) ) ;
#779 = AXIS2_PLACEMENT_3D ( 'NONE', #1102, #806, #1089 ) ;
#780 = EDGE_CURVE ( 'NONE', #1059, #951, #632, .T. ) ;
#781 = DIRECTION ( 'NONE',  ( -1.000000000000000000, 0.000000000000000000, 0.000000000000000000 ) ) ;
#782 = ORIENTED_EDGE ( 'NONE', *, *, #302, .T. ) ;
#783 = CARTESIAN_POINT ( 'NONE',  ( 1.750000000000014211, 18.25000000000001066, 13.00100000000000122 ) ) ;
#784 = DIRECTION ( 'NONE',  ( 0.000000000000000000, 0.000000000000000000, -1.000000000000000000 ) ) ;
#785 = CARTESIAN_POINT ( 'NONE',  ( 33.25000000000000711, 7.499999999999994671, 8.000000000000000000 ) ) ;
#786 = ORIENTED_EDGE ( 'NONE', *, *, #527, .F. ) ;
#787 = EDGE_CURVE ( 'NONE', #1137, #714, #918, .T. ) ;
#788 = LINE ( 'NONE', #887, #913 ) ;
#789 = ORIENTED_EDGE ( 'NONE', *, *, #647, .T. ) ;
#790 = CARTESIAN_POINT ( 'NONE',  ( 4.750000000000015099, -28.25000000000000711, 13.00100000000000122 ) ) ;
#791 = EDGE_CURVE ( 'NONE', #371, #1042, #75, .T. ) ;
#792 = CARTESIAN_POINT ( 'NONE',  ( 30.25000000000001776, 33.25000000000000711, 13.00000000000000178 ) ) ;
#793 = PLANE ( 'NONE',  #620 ) ;
#794 = ORIENTED_EDGE ( 'NONE', *, *, #400, .T. ) ;
#795 = ORIENTED_EDGE ( 'NONE', *, *, #1069, .T. ) ;
#796 = CARTESIAN_POINT ( 'NONE',  ( 33.25000000000000711, 9.999999999999994671, 8.000000000000000000 ) ) ;
#797 = CARTESIAN_POINT ( 'NONE',  ( 1.750000000000014211, -18.25000000000001066, 0.000000000000000000 ) ) ;
#798 = DIRECTION ( 'NONE',  ( -0.000000000000000000, -0.000000000000000000, -1.000000000000000000 ) ) ;
#799 = ORIENTED_EDGE ( 'NONE', *, *, #923, .T. ) ;
#800 = VECTOR ( 'NONE', #305, 1000.000000000000000 ) ;
#801 = EDGE_CURVE ( 'NONE', #811, #315, #286, .T. ) ;
#802 = VERTEX_POINT ( 'NONE', #670 ) ;
#803 = DIRECTION ( 'NONE',  ( 0.000000000000000000, 0.000000000000000000, 1.000000000000000000 ) ) ;
#804 = EDGE_CURVE ( 'NONE', #315, #115, #1043, .T. ) ;
#805 = EDGE_LOOP ( 'NONE', ( #318, #909, #483, #1009 ) ) ;
#806 = DIRECTION ( 'NONE',  ( -1.000000000000000000, 0.000000000000000000, 0.000000000000000000 ) ) ;
#807 = ORIENTED_EDGE ( 'NONE', *, *, #170, .T. ) ;
#808 = LINE ( 'NONE', #155, #537 ) ;
#809 = ORIENTED_EDGE ( 'NONE', *, *, #666, .T. ) ;
#810 = FACE_BOUND ( 'NONE', #722, .T. ) ;
#811 = VERTEX_POINT ( 'NONE', #845 ) ;
#812 = LINE ( 'NONE', #819, #162 ) ;
#813 = ORIENTED_EDGE ( 'NONE', *, *, #507, .F. ) ;
#814 = CARTESIAN_POINT ( 'NONE',  ( -33.25000000000000000, 33.25000000000000711, 0.000000000000000000 ) ) ;
#815 = EDGE_CURVE ( 'NONE', #635, #714, #190, .T. ) ;
#816 = CIRCLE ( 'NONE', #316, 2.500000000000000444 ) ;
#817 = VECTOR ( 'NONE', #1111, 1000.000000000000000 ) ;
#818 = VECTOR ( 'NONE', #589, 1000.000000000000000 ) ;
#819 = CARTESIAN_POINT ( 'NONE',  ( -33.25000000000000000, 33.25000000000000711, 3.000000000000000000 ) ) ;
#820 = ORIENTED_EDGE ( 'NONE', *, *, #1160, .F. ) ;
#821 = CARTESIAN_POINT ( 'NONE',  ( -19.74999999999998224, 6.938893903907228378E-15, 13.00100000000000122 ) ) ;
#822 = ADVANCED_FACE ( 'NONE', ( #663, #657, #937, #94, #759 ), #850, .F. ) ;
#823 = FACE_OUTER_BOUND ( 'NONE', #1000, .T. ) ;
#824 = ORIENTED_EDGE ( 'NONE', *, *, #352, .T. ) ;
#825 = COORDINATED_UNIVERSAL_TIME_OFFSET ( 5, 30, .AHEAD. ) ;
#826 = DATE_AND_TIME ( #366, #836 ) ;
#827 = CARTESIAN_POINT ( 'NONE',  ( -18.24999999999998224, -5.000000000000000888, 1.500000000000000000 ) ) ;
#828 = VERTEX_POINT ( 'NONE', #274 ) ;
#829 = ORIENTED_EDGE ( 'NONE', *, *, #615, .F. ) ;
#830 = APPROVAL_STATUS ( 'not_yet_approved' ) ;
#831 = ADVANCED_FACE ( 'NONE', ( #1217 ), #279, .T. ) ;
#832 = VECTOR ( 'NONE', #168, 1000.000000000000000 ) ;
#833 = LINE ( 'NONE', #445, #392 ) ;
#834 = CIRCLE ( 'NONE', #293, 2.500000000000000444 ) ;
#835 = VECTOR ( 'NONE', #407, 1000.000000000000114 ) ;
#836 = LOCAL_TIME ( 18, 21, 35.00000000000000000, #448 ) ;
#837 = EDGE_CURVE ( 'NONE', #203, #544, #6, .T. ) ;
#838 = DIRECTION ( 'NONE',  ( 0.000000000000000000, 1.000000000000000000, 0.000000000000000000 ) ) ;
#839 = CALENDAR_DATE ( 2026, 1, 9 ) ;
#840 = DATE_AND_TIME ( #361, #1007 ) ;
#841 = DIRECTION ( 'NONE',  ( 0.5000000000000003331, 0.8660254037844384856, -0.000000000000000000 ) ) ;
#842 = CYLINDRICAL_SURFACE ( 'NONE', #968, 2.500000000000000444 ) ;
#843 = DATE_AND_TIME ( #460, #501 ) ;
#844 = FACE_OUTER_BOUND ( 'NONE', #677, .T. ) ;
#845 = CARTESIAN_POINT ( 'NONE',  ( 1.750000000000014211, -18.25000000000001066, 3.000000000000000888 ) ) ;
#846 = VERTEX_POINT ( 'NONE', #1126 ) ;
#847 = LINE ( 'NONE', #459, #832 ) ;
#848 = DIRECTION ( 'NONE',  ( -1.000000000000000000, 0.000000000000000000, -0.000000000000000000 ) ) ;
#849 = EDGE_CURVE ( 'NONE', #69, #592, #1031, .T. ) ;
#850 = PLANE ( 'NONE',  #177 ) ;
#851 = ORIENTED_EDGE ( 'NONE', *, *, #435, .T. ) ;
#852 = CARTESIAN_POINT ( 'NONE',  ( 33.25000000000001421, -28.24999999999999289, 8.000000000000000000 ) ) ;
#853 = CIRCLE ( 'NONE', #24, 2.500000000000000444 ) ;
#854 = CARTESIAN_POINT ( 'NONE',  ( 33.25000000000001421, -33.24999999999999289, 13.00000000000000178 ) ) ;
#855 = APPROVAL_PERSON_ORGANIZATION ( #921, #958, #930 ) ;
#856 = CARTESIAN_POINT ( 'NONE',  ( -33.25100000000001188, 10.00000000000000888, 8.000000000000000000 ) ) ;
#857 = LINE ( 'NONE', #381, #992 ) ;
#858 = ORIENTED_EDGE ( 'NONE', *, *, #468, .F. ) ;
#859 = CARTESIAN_POINT ( 'NONE',  ( 30.25000000000001776, -33.24999999999999289, 13.00000000000000178 ) ) ;
#860 = ORIENTED_EDGE ( 'NONE', *, *, #911, .F. ) ;
#861 = PLANE ( 'NONE',  #497 ) ;
#862 = DIRECTION ( 'NONE',  ( -0.000000000000000000, -0.000000000000000000, -1.000000000000000000 ) ) ;
#863 = LINE ( 'NONE', #956, #538 ) ;
#864 = VERTEX_POINT ( 'NONE', #1138 ) ;
#865 = ORIENTED_EDGE ( 'NONE', *, *, #815, .F. ) ;
#866 = DIRECTION ( 'NONE',  ( 0.000000000000000000, 0.000000000000000000, 1.000000000000000000 ) ) ;
#867 = EDGE_CURVE ( 'NONE', #509, #69, #473, .T. ) ;
#868 = DIRECTION ( 'NONE',  ( 0.000000000000000000, 0.000000000000000000, 1.000000000000000000 ) ) ;
#869 = PLANE ( 'NONE',  #734 ) ;
#870 = EDGE_LOOP ( 'NONE', ( #683, #433, #729, #423 ) ) ;
#871 = EDGE_CURVE ( 'NONE', #203, #408, #556, .T. ) ;
#872 = ORIENTED_EDGE ( 'NONE', *, *, #1002, .F. ) ;
#873 = DIRECTION ( 'NONE',  ( 1.000000000000000000, 2.086885384633752903E-16, 0.000000000000000000 ) ) ;
#874 = CIRCLE ( 'NONE', #336, 2.500000000000000444 ) ;
#875 = EDGE_CURVE ( 'NONE', #139, #1045, #310, .T. ) ;
#876 = DIRECTION ( 'NONE',  ( -1.000000000000000000, 0.000000000000000000, 0.000000000000000000 ) ) ;
#877 = AXIS2_PLACEMENT_3D ( 'NONE', #1112, #1023, #932 ) ;
#878 = CARTESIAN_POINT ( 'NONE',  ( 33.25000000000000000, 33.25000000000000711, 0.000000000000000000 ) ) ;
#879 = ORIENTED_EDGE ( 'NONE', *, *, #791, .F. ) ;
#880 = VECTOR ( 'NONE', #1183, 1000.000000000000000 ) ;
#881 = CARTESIAN_POINT ( 'NONE',  ( 21.75000000000001421, 7.428752623566170548E-15, 0.000000000000000000 ) ) ;
#882 = VERTEX_POINT ( 'NONE', #29 ) ;
#883 = DIRECTION ( 'NONE',  ( 0.000000000000000000, 1.000000000000000000, 0.000000000000000000 ) ) ;
#884 = CARTESIAN_POINT ( 'NONE',  ( -33.25000000000000000, 33.25000000000000711, 3.000000000000000000 ) ) ;
#885 = FACE_OUTER_BOUND ( 'NONE', #491, .T. ) ;
#886 = VERTEX_POINT ( 'NONE', #881 ) ;
#887 = CARTESIAN_POINT ( 'NONE',  ( -22.58012701892217322, 2.500000000000001776, 1.500000000000000000 ) ) ;
#888 = ORIENTED_EDGE ( 'NONE', *, *, #922, .T. ) ;
#889 = CARTESIAN_POINT ( 'NONE',  ( -22.58012701892217322, -2.499999999999999556, 1.500000000000000000 ) ) ;
#890 = FACE_OUTER_BOUND ( 'NONE', #465, .T. ) ;
#891 = CARTESIAN_POINT ( 'NONE',  ( -22.58012701892217322, -2.499999999999999556, 1.500000000000000000 ) ) ;
#892 = ORIENTED_EDGE ( 'NONE', *, *, #641, .T. ) ;
#893 = EDGE_CURVE ( 'NONE', #378, #1188, #788, .T. ) ;
#894 = ORIENTED_EDGE ( 'NONE', *, *, #801, .T. ) ;
#895 = DIRECTION ( 'NONE',  ( -0.000000000000000000, -0.000000000000000000, -1.000000000000000000 ) ) ;
#896 = CARTESIAN_POINT ( 'NONE',  ( 0.000000000000000000, 0.000000000000000000, 13.00000000000000178 ) ) ;
#897 = ORIENTED_EDGE ( 'NONE', *, *, #748, .T. ) ;
#898 = VECTOR ( 'NONE', #962, 1000.000000000000114 ) ;
#899 = AXIS2_PLACEMENT_3D ( 'NONE', #1005, #631, #331 ) ;
#900 = CARTESIAN_POINT ( 'NONE',  ( 30.25000000000001421, 28.24999999999999289, 8.000000000000000000 ) ) ;
#901 = ORIENTED_EDGE ( 'NONE', *, *, #542, .F. ) ;
#902 = PLANE ( 'NONE',  #1093 ) ;
#903 = VERTEX_POINT ( 'NONE', #965 ) ;
#904 = CARTESIAN_POINT ( 'NONE',  ( -22.58012701892217322, 2.500000000000001776, 1.500000000000000000 ) ) ;
#905 = EDGE_CURVE ( 'NONE', #479, #195, #853, .T. ) ;
#906 = VERTEX_POINT ( 'NONE', #600 ) ;
#907 = LINE ( 'NONE', #59, #477 ) ;
#908 = DIRECTION ( 'NONE',  ( 1.000000000000000000, 0.000000000000000000, 0.000000000000000000 ) ) ;
#909 = ORIENTED_EDGE ( 'NONE', *, *, #708, .T. ) ;
#910 = LINE ( 'NONE', #891, #1025 ) ;
#911 = EDGE_CURVE ( 'NONE', #886, #189, #1225, .T. ) ;
#912 = VECTOR ( 'NONE', #988, 1000.000000000000000 ) ;
#913 = VECTOR ( 'NONE', #591, 1000.000000000000114 ) ;
#914 = CARTESIAN_POINT ( 'NONE',  ( -18.24999999999998224, -5.000000000000000888, 1.500000000000000000 ) ) ;
#915 = EDGE_LOOP ( 'NONE', ( #228, #166, #772, #795 ) ) ;
#916 =( LENGTH_UNIT ( ) NAMED_UNIT ( * ) SI_UNIT ( .MILLI., .METRE. ) );
#917 = PERSON_AND_ORGANIZATION_ROLE ( 'classification_officer' ) ;
#918 = LINE ( 'NONE', #70, #148 ) ;
#919 = ORIENTED_EDGE ( 'NONE', *, *, #994, .T. ) ;
#920 = CARTESIAN_POINT ( 'NONE',  ( -33.25100000000001188, 10.00000000000000888, 8.000000000000000000 ) ) ;
#921 = PERSON_AND_ORGANIZATION ( #40, #993 ) ;
#922 = EDGE_CURVE ( 'NONE', #658, #384, #36, .T. ) ;
#923 = EDGE_CURVE ( 'NONE', #1167, #1004, #1108, .T. ) ;
#924 = FACE_BOUND ( 'NONE', #339, .T. ) ;
#925 = CARTESIAN_POINT ( 'NONE',  ( -13.91987298107778770, 2.500000000000000888, 3.000000000000000000 ) ) ;
#926 = VECTOR ( 'NONE', #167, 1000.000000000000000 ) ;
#927 = CARTESIAN_POINT ( 'NONE',  ( 1.750000000000015543, -28.25000000000000711, 13.00100000000000122 ) ) ;
#928 = CIRCLE ( 'NONE', #946, 2.500000000000000444 ) ;
#929 = CARTESIAN_POINT ( 'NONE',  ( 21.75000000000001421, 7.428752623566170548E-15, 3.000000000000000000 ) ) ;
#930 = APPROVAL_ROLE ( '' ) ;
#931 = CARTESIAN_POINT ( 'NONE',  ( 1.750000000000015543, -28.25000000000000711, 13.00100000000000122 ) ) ;
#932 = DIRECTION ( 'NONE',  ( 1.000000000000000000, 0.000000000000000000, 0.000000000000000000 ) ) ;
#933 = VERTEX_POINT ( 'NONE', #123 ) ;
#934 = DIRECTION ( 'NONE',  ( 1.000000000000000000, 2.086885384633752656E-16, -0.000000000000000000 ) ) ;
#935 = EDGE_CURVE ( 'NONE', #1188, #1045, #567, .T. ) ;
#936 = DIRECTION ( 'NONE',  ( 0.000000000000000000, 0.000000000000000000, -1.000000000000000000 ) ) ;
#937 = FACE_BOUND ( 'NONE', #442, .T. ) ;
#938 = ORIENTED_EDGE ( 'NONE', *, *, #76, .T. ) ;
#939 = DIRECTION ( 'NONE',  ( -1.000000000000000000, 0.000000000000000000, 0.000000000000000000 ) ) ;
#940 = DIRECTION ( 'NONE',  ( -1.000000000000000000, -0.000000000000000000, -0.000000000000000000 ) ) ;
#941 = DIRECTION ( 'NONE',  ( -1.000000000000000000, 2.086885384633752903E-16, -0.000000000000000000 ) ) ;
#942 = VERTEX_POINT ( 'NONE', #1060 ) ;
#943 = DIRECTION ( 'NONE',  ( 0.000000000000000000, 0.000000000000000000, 1.000000000000000000 ) ) ;
#944 = VERTEX_POINT ( 'NONE', #500 ) ;
#945 = EDGE_CURVE ( 'NONE', #639, #1042, #119, .T. ) ;
#946 = AXIS2_PLACEMENT_3D ( 'NONE', #182, #563, #936 ) ;
#947 = FACE_BOUND ( 'NONE', #1212, .T. ) ;
#948 =( GEOMETRIC_REPRESENTATION_CONTEXT ( 3 ) GLOBAL_UNCERTAINTY_ASSIGNED_CONTEXT ( ( #297 ) ) GLOBAL_UNIT_ASSIGNED_CONTEXT ( ( #916, #268, #1214 ) ) REPRESENTATION_CONTEXT ( 'NONE', 'WORKASPACE' ) );
#949 = DIRECTION ( 'NONE',  ( -0.000000000000000000, -0.000000000000000000, -1.000000000000000000 ) ) ;
#950 = DIRECTION ( 'NONE',  ( 0.000000000000000000, 0.000000000000000000, -1.000000000000000000 ) ) ;
#951 = VERTEX_POINT ( 'NONE', #980 ) ;
#952 = ORIENTED_EDGE ( 'NONE', *, *, #352, .F. ) ;
#953 = CARTESIAN_POINT ( 'NONE',  ( 0.000000000000000000, 0.000000000000000000, 0.000000000000000000 ) ) ;
#954 = DESIGN_CONTEXT ( 'detailed design', #106, 'design' ) ;
#955 = DIRECTION ( 'NONE',  ( 1.000000000000000000, 2.086885384633752656E-16, -0.000000000000000000 ) ) ;
#956 = CARTESIAN_POINT ( 'NONE',  ( 1.750000000000015543, 28.25000000000000711, 0.000000000000000000 ) ) ;
#957 = ORIENTED_EDGE ( 'NONE', *, *, #923, .F. ) ;
#958 = APPROVAL ( #830, 'UNSPECIFIED' ) ;
#959 = EDGE_CURVE ( 'NONE', #951, #592, #494, .T. ) ;
#960 = VERTEX_POINT ( 'NONE', #482 ) ;
#961 = DIRECTION ( 'NONE',  ( 1.000000000000000000, 2.086885384633752903E-16, 0.000000000000000000 ) ) ;
#962 = DIRECTION ( 'NONE',  ( -0.8660254037844383745, -0.5000000000000003331, 0.000000000000000000 ) ) ;
#963 = DIRECTION ( 'NONE',  ( 1.000000000000000000, 0.000000000000000000, 0.000000000000000000 ) ) ;
#964 = ORIENTED_EDGE ( 'NONE', *, *, #1210, .F. ) ;
#965 = CARTESIAN_POINT ( 'NONE',  ( 30.25000000000001421, 25.74999999999999645, 8.000000000000000000 ) ) ;
#966 = ORIENTED_EDGE ( 'NONE', *, *, #52, .F. ) ;
#967 = DIRECTION ( 'NONE',  ( 0.000000000000000000, -0.000000000000000000, 1.000000000000000000 ) ) ;
#968 = AXIS2_PLACEMENT_3D ( 'NONE', #1028, #934, #91 ) ;
#969 = VECTOR ( 'NONE', #329, 1000.000000000000000 ) ;
#970 = CARTESIAN_POINT ( 'NONE',  ( -33.25000000000000000, 33.25000000000000711, 0.000000000000000000 ) ) ;
#971 = AXIS2_PLACEMENT_3D ( 'NONE', #303, #940, #208 ) ;
#972 = VECTOR ( 'NONE', #83, 1000.000000000000000 ) ;
#973 = CARTESIAN_POINT ( 'NONE',  ( -13.91987298107778770, -2.499999999999999112, 1.500000000000000000 ) ) ;
#974 = ORIENTED_EDGE ( 'NONE', *, *, #145, .T. ) ;
#975 = CC_DESIGN_APPROVAL ( #350, ( #539 ) ) ;
#976 = CARTESIAN_POINT ( 'NONE',  ( 17.75000000000001421, 6.938893903907228378E-15, 0.000000000000000000 ) ) ;
#977 = ORIENTED_EDGE ( 'NONE', *, *, #1116, .T. ) ;
#978 = CARTESIAN_POINT ( 'NONE',  ( -33.25100000000000477, 28.25000000000000711, 8.000000000000000000 ) ) ;
#979 = DIRECTION ( 'NONE',  ( -0.5000000000000001110, -0.8660254037844387076, 0.000000000000000000 ) ) ;
#980 = CARTESIAN_POINT ( 'NONE',  ( 33.25000000000001421, -33.24999999999999289, 0.000000000000000000 ) ) ;
#981 = ORIENTED_EDGE ( 'NONE', *, *, #225, .T. ) ;
#982 = ADVANCED_FACE ( 'NONE', ( #885 ), #793, .T. ) ;
#983 = VERTEX_POINT ( 'NONE', #131 ) ;
#984 = CARTESIAN_POINT ( 'NONE',  ( 33.25000000000000000, 33.25000000000000711, 0.000000000000000000 ) ) ;
#985 = LINE ( 'NONE', #299, #898 ) ;
#986 = CYLINDRICAL_SURFACE ( 'NONE', #1048, 2.500000000000000444 ) ;
#987 = EDGE_LOOP ( 'NONE', ( #4, #120, #244, #1127 ) ) ;
#988 = DIRECTION ( 'NONE',  ( -1.000000000000000000, -0.000000000000000000, -0.000000000000000000 ) ) ;
#989 = ORIENTED_EDGE ( 'NONE', *, *, #156, .F. ) ;
#990 = FACE_OUTER_BOUND ( 'NONE', #749, .T. ) ;
#991 = ORIENTED_EDGE ( 'NONE', *, *, #905, .F. ) ;
#992 = VECTOR ( 'NONE', #1051, 1000.000000000000000 ) ;
#993 = ORGANIZATION ( 'UNSPECIFIED', 'UNSPECIFIED', '' ) ;
#994 = EDGE_CURVE ( 'NONE', #38, #771, #777, .T. ) ;
#995 = LINE ( 'NONE', #243, #969 ) ;
#996 = ORIENTED_EDGE ( 'NONE', *, *, #618, .T. ) ;
#997 = CARTESIAN_POINT ( 'NONE',  ( 1.750000000000014211, -18.25000000000001066, 13.00100000000000122 ) ) ;
#998 = DIRECTION ( 'NONE',  ( -1.000000000000000000, 1.301042606982605567E-16, 0.000000000000000000 ) ) ;
#999 = EDGE_CURVE ( 'NONE', #634, #716, #375, .T. ) ;
#1000 = EDGE_LOOP ( 'NONE', ( #514, #1105, #47, #114, #452, #284 ) ) ;
#1001 = CARTESIAN_POINT ( 'NONE',  ( -16.74999999999997868, 7.122590923779331100E-15, 0.000000000000000000 ) ) ;
#1002 = EDGE_CURVE ( 'NONE', #634, #1017, #221, .T. ) ;
#1003 = DIRECTION ( 'NONE',  ( -1.000000000000000000, 0.000000000000000000, 0.000000000000000000 ) ) ;
#1004 = VERTEX_POINT ( 'NONE', #3 ) ;
#1005 = CARTESIAN_POINT ( 'NONE',  ( 0.000000000000000000, 0.000000000000000000, 3.000000000000000000 ) ) ;
#1006 = VECTOR ( 'NONE', #676, 1000.000000000000000 ) ;
#1007 = LOCAL_TIME ( 18, 21, 35.00000000000000000, #457 ) ;
#1008 = DIRECTION ( 'NONE',  ( -1.000000000000000000, 0.000000000000000000, 0.000000000000000000 ) ) ;
#1009 = ORIENTED_EDGE ( 'NONE', *, *, #521, .F. ) ;
#1010 = EDGE_CURVE ( 'NONE', #509, #951, #33, .T. ) ;
#1011 = ORIENTED_EDGE ( 'NONE', *, *, #376, .F. ) ;
#1012 = EDGE_CURVE ( 'NONE', #1153, #1017, #294, .T. ) ;
#1013 = DIRECTION ( 'NONE',  ( -0.000000000000000000, -0.000000000000000000, -1.000000000000000000 ) ) ;
#1014 = CARTESIAN_POINT ( 'NONE',  ( -33.24999999999998579, -33.24999999999999289, 3.000000000000000000 ) ) ;
#1015 = DIRECTION ( 'NONE',  ( -1.000000000000000000, -0.000000000000000000, -0.000000000000000000 ) ) ;
#1016 = DIRECTION ( 'NONE',  ( -0.000000000000000000, -0.000000000000000000, -1.000000000000000000 ) ) ;
#1017 = VERTEX_POINT ( 'NONE', #785 ) ;
#1018 = APPLICATION_PROTOCOL_DEFINITION ( 'international standard', 'config_control_design', 1994, #15 ) ;
#1019 = DIRECTION ( 'NONE',  ( 0.000000000000000000, -0.000000000000000000, -1.000000000000000000 ) ) ;
#1020 = SECURITY_CLASSIFICATION_LEVEL ( 'unclassified' ) ;
#1021 = VECTOR ( 'NONE', #1115, 1000.000000000000227 ) ;
#1022 = AXIS2_PLACEMENT_3D ( 'NONE', #1057, #1071, #703 ) ;
#1023 = DIRECTION ( 'NONE',  ( 0.000000000000000000, 0.000000000000000000, 1.000000000000000000 ) ) ;
#1024 = VECTOR ( 'NONE', #547, 1000.000000000000114 ) ;
#1025 = VECTOR ( 'NONE', #627, 1000.000000000000000 ) ;
#1026 = ADVANCED_FACE ( 'NONE', ( #584, #194, #1158, #668, #308 ), #869, .F. ) ;
#1027 = ORIENTED_EDGE ( 'NONE', *, *, #999, .F. ) ;
#1028 = CARTESIAN_POINT ( 'NONE',  ( -33.25100000000001188, -10.00000000000000888, 8.000000000000000000 ) ) ;
#1029 = PERSON_AND_ORGANIZATION_ROLE ( 'design_supplier' ) ;
#1030 = CARTESIAN_POINT ( 'NONE',  ( 33.25000000000001421, 28.24999999999999289, 8.000000000000000000 ) ) ;
#1031 = LINE ( 'NONE', #383, #217 ) ;
#1032 = ORIENTED_EDGE ( 'NONE', *, *, #393, .F. ) ;
#1033 = DIRECTION ( 'NONE',  ( 1.000000000000000000, 0.000000000000000000, 0.000000000000000000 ) ) ;
#1034 = EDGE_CURVE ( 'NONE', #983, #802, #863, .T. ) ;
#1035 = CARTESIAN_POINT ( 'NONE',  ( -33.25000000000000000, 33.25000000000000711, 3.000000000000000000 ) ) ;
#1036 = CARTESIAN_POINT ( 'NONE',  ( 30.25000000000001421, -30.74999999999999289, 8.000000000000000000 ) ) ;
#1037 = DIRECTION ( 'NONE',  ( 0.000000000000000000, 0.000000000000000000, -1.000000000000000000 ) ) ;
#1038 = ORIENTED_EDGE ( 'NONE', *, *, #1056, .F. ) ;
#1039 = DIRECTION ( 'NONE',  ( 0.000000000000000000, 0.000000000000000000, -1.000000000000000000 ) ) ;
#1040 = DIRECTION ( 'NONE',  ( 1.000000000000000000, 1.301042606982605567E-16, -0.000000000000000000 ) ) ;
#1041 = FACE_OUTER_BOUND ( 'NONE', #581, .T. ) ;
#1042 = VERTEX_POINT ( 'NONE', #113 ) ;
#1043 = LINE ( 'NONE', #564, #1192 ) ;
#1044 = CLOSED_SHELL ( 'NONE', ( #1124, #579, #7, #285, #56, #88, #1099, #484, #1026, #320, #1049, #129, #629, #822, #1095, #1139, #67, #229, #552, #529, #171, #1181, #413, #187, #1219, #333, #1174, #982, #692, #831, #485, #257, #1104, #745, #275 ) ) ;
#1045 = VERTEX_POINT ( 'NONE', #1058 ) ;
#1046 = AXIS2_PLACEMENT_3D ( 'NONE', #852, #873, #127 ) ;
#1047 = CARTESIAN_POINT ( 'NONE',  ( -18.24999999999998224, 6.938893903907228378E-15, 0.000000000000000000 ) ) ;
#1048 = AXIS2_PLACEMENT_3D ( 'NONE', #1172, #1084, #322 ) ;
#1049 = ADVANCED_FACE ( 'NONE', ( #290 ), #1064, .F. ) ;
#1050 = LINE ( 'NONE', #360, #334 ) ;
#1051 = DIRECTION ( 'NONE',  ( 0.000000000000000000, -1.000000000000000000, 0.000000000000000000 ) ) ;
#1052 = EDGE_LOOP ( 'NONE', ( #210, #276, #559, #234 ) ) ;
#1053 = EDGE_CURVE ( 'NONE', #933, #983, #395, .T. ) ;
#1054 = ORIENTED_EDGE ( 'NONE', *, *, #248, .F. ) ;
#1055 = CARTESIAN_POINT ( 'NONE',  ( 30.25000000000002132, -9.999999999999994671, 8.000000000000000000 ) ) ;
#1056 = EDGE_CURVE ( 'NONE', #906, #344, #857, .T. ) ;
#1057 = CARTESIAN_POINT ( 'NONE',  ( -18.24999999999998224, 6.938893903907228378E-15, 13.00100000000000122 ) ) ;
#1058 = CARTESIAN_POINT ( 'NONE',  ( -18.24999999999998224, 5.000000000000000888, 3.000000000000000000 ) ) ;
#1059 = VERTEX_POINT ( 'NONE', #596 ) ;
#1060 = CARTESIAN_POINT ( 'NONE',  ( 30.25000000000001776, -33.24999999999999289, 13.00000000000000178 ) ) ;
#1061 = ORIENTED_EDGE ( 'NONE', *, *, #1086, .F. ) ;
#1062 = LINE ( 'NONE', #503, #398 ) ;
#1063 = CARTESIAN_POINT ( 'NONE',  ( -18.24999999999998224, 5.000000000000000888, 1.500000000000000000 ) ) ;
#1064 = PLANE ( 'NONE',  #196 ) ;
#1065 = EDGE_LOOP ( 'NONE', ( #1076, #701 ) ) ;
#1066 = DIRECTION ( 'NONE',  ( 0.000000000000000000, 0.000000000000000000, -1.000000000000000000 ) ) ;
#1067 = ORIENTED_EDGE ( 'NONE', *, *, #760, .T. ) ;
#1068 = CARTESIAN_POINT ( 'NONE',  ( 30.25000000000002132, 7.499999999999994671, 8.000000000000000000 ) ) ;
#1069 = EDGE_CURVE ( 'NONE', #223, #425, #46, .T. ) ;
#1070 = AXIS2_PLACEMENT_3D ( 'NONE', #422, #57, #694 ) ;
#1071 = DIRECTION ( 'NONE',  ( -0.000000000000000000, -0.000000000000000000, -1.000000000000000000 ) ) ;
#1072 = VECTOR ( 'NONE', #405, 1000.000000000000000 ) ;
#1073 = DIRECTION ( 'NONE',  ( 0.000000000000000000, 1.000000000000000000, 0.000000000000000000 ) ) ;
#1074 = ORIENTED_EDGE ( 'NONE', *, *, #376, .T. ) ;
#1075 = LOCAL_TIME ( 18, 21, 35.00000000000000000, #161 ) ;
#1076 = ORIENTED_EDGE ( 'NONE', *, *, #560, .T. ) ;
#1077 = LINE ( 'NONE', #141, #80 ) ;
#1078 = DIRECTION ( 'NONE',  ( 0.8660254037844385966, -0.5000000000000000000, 0.000000000000000000 ) ) ;
#1079 = DIRECTION ( 'NONE',  ( 0.000000000000000000, -1.000000000000000000, 0.000000000000000000 ) ) ;
#1080 = ORIENTED_EDGE ( 'NONE', *, *, #170, .F. ) ;
#1081 = ORIENTED_EDGE ( 'NONE', *, *, #724, .T. ) ;
#1082 = DIRECTION ( 'NONE',  ( 0.000000000000000000, -1.000000000000000000, 0.000000000000000000 ) ) ;
#1083 = ORIENTED_EDGE ( 'NONE', *, *, #666, .F. ) ;
#1084 = DIRECTION ( 'NONE',  ( 1.000000000000000000, 2.086885384633752656E-16, -0.000000000000000000 ) ) ;
#1085 = ORIENTED_EDGE ( 'NONE', *, *, #260, .T. ) ;
#1086 = EDGE_CURVE ( 'NONE', #267, #882, #764, .T. ) ;
#1087 = DIRECTION ( 'NONE',  ( 0.8660254037844387076, 0.4999999999999999445, 0.000000000000000000 ) ) ;
#1088 = ORIENTED_EDGE ( 'NONE', *, *, #367, .T. ) ;
#1089 = DIRECTION ( 'NONE',  ( 0.000000000000000000, 0.000000000000000000, 1.000000000000000000 ) ) ;
#1090 = CC_DESIGN_PERSON_AND_ORGANIZATION_ASSIGNMENT ( #263, #730, ( #441 ) ) ;
#1091 = ORIENTED_EDGE ( 'NONE', *, *, #1010, .T. ) ;
#1092 = CIRCLE ( 'NONE', #733, 2.500000000000000444 ) ;
#1093 = AXIS2_PLACEMENT_3D ( 'NONE', #517, #150, #54 ) ;
#1094 = CC_DESIGN_APPROVAL ( #958, ( #389 ) ) ;
#1095 = ADVANCED_FACE ( 'NONE', ( #1041 ), #609, .T. ) ;
#1096 = DIRECTION ( 'NONE',  ( 0.000000000000000000, 1.000000000000000000, 0.000000000000000000 ) ) ;
#1097 = ORIENTED_EDGE ( 'NONE', *, *, #684, .T. ) ;
#1098 = DIRECTION ( 'NONE',  ( -0.000000000000000000, -0.000000000000000000, -1.000000000000000000 ) ) ;
#1099 = ADVANCED_FACE ( 'NONE', ( #810, #1196, #424, #444, #340 ), #227, .T. ) ;
#1100 = DIRECTION ( 'NONE',  ( 0.000000000000000000, 0.000000000000000000, 1.000000000000000000 ) ) ;
#1101 = ORIENTED_EDGE ( 'NONE', *, *, #737, .T. ) ;
#1102 = CARTESIAN_POINT ( 'NONE',  ( -13.91987298107778770, 2.500000000000000888, 1.500000000000000000 ) ) ;
#1103 = CARTESIAN_POINT ( 'NONE',  ( 17.75000000000001421, 6.938893903907228378E-15, 3.000000000000000000 ) ) ;
#1104 = ADVANCED_FACE ( 'NONE', ( #727 ), #715, .T. ) ;
#1105 = ORIENTED_EDGE ( 'NONE', *, *, #618, .F. ) ;
#1106 = LINE ( 'NONE', #549, #439 ) ;
#1107 = AXIS2_PLACEMENT_3D ( 'NONE', #603, #608, #220 ) ;
#1108 = CIRCLE ( 'NONE', #1206, 1.500000000000001332 ) ;
#1109 = LINE ( 'NONE', #550, #337 ) ;
#1110 = DIRECTION ( 'NONE',  ( 1.000000000000000000, -2.086885384633752656E-16, -0.000000000000000000 ) ) ;
#1111 = DIRECTION ( 'NONE',  ( 1.000000000000000000, -0.000000000000000000, -0.000000000000000000 ) ) ;
#1112 = CARTESIAN_POINT ( 'NONE',  ( 17.75000000000001421, 6.938893903907228378E-15, 0.000000000000000000 ) ) ;
#1113 = VERTEX_POINT ( 'NONE', #814 ) ;
#1114 = APPLICATION_PROTOCOL_DEFINITION ( 'international standard', 'config_control_design', 1994, #106 ) ;
#1115 = DIRECTION ( 'NONE',  ( 0.8660254037844385966, -0.5000000000000000000, 0.000000000000000000 ) ) ;
#1116 = EDGE_CURVE ( 'NONE', #635, #378, #910, .T. ) ;
#1117 = LINE ( 'NONE', #450, #972 ) ;
#1118 = ORIENTED_EDGE ( 'NONE', *, *, #708, .F. ) ;
#1119 = ORIENTED_EDGE ( 'NONE', *, *, #602, .F. ) ;
#1120 = PERSON_AND_ORGANIZATION ( #40, #993 ) ;
#1121 = DIRECTION ( 'NONE',  ( 0.000000000000000000, -1.000000000000000000, 0.000000000000000000 ) ) ;
#1122 = VECTOR ( 'NONE', #1129, 1000.000000000000227 ) ;
#1123 = CIRCLE ( 'NONE', #1107, 2.500000000000000444 ) ;
#1124 = ADVANCED_FACE ( 'NONE', ( #512 ), #614, .F. ) ;
#1125 = AXIS2_PLACEMENT_3D ( 'NONE', #253, #181, #259 ) ;
#1126 = CARTESIAN_POINT ( 'NONE',  ( -13.91987298107778770, -2.499999999999999112, 1.500000000000000000 ) ) ;
#1127 = ORIENTED_EDGE ( 'NONE', *, *, #1210, .T. ) ;
#1128 = FACE_OUTER_BOUND ( 'NONE', #530, .T. ) ;
#1129 = DIRECTION ( 'NONE',  ( 0.8660254037844385966, -0.5000000000000000000, 0.000000000000000000 ) ) ;
#1130 = EDGE_CURVE ( 'NONE', #960, #635, #1178, .T. ) ;
#1131 = AXIS2_PLACEMENT_3D ( 'NONE', #648, #739, #1008 ) ;
#1132 = DIRECTION ( 'NONE',  ( -0.000000000000000000, -0.000000000000000000, -1.000000000000000000 ) ) ;
#1133 = ORIENTED_EDGE ( 'NONE', *, *, #875, .T. ) ;
#1134 = FACE_OUTER_BOUND ( 'NONE', #402, .T. ) ;
#1135 = CYLINDRICAL_SURFACE ( 'NONE', #1223, 4.000000000000000000 ) ;
#1136 = CARTESIAN_POINT ( 'NONE',  ( 1.750000000000015543, -28.25000000000000711, 3.000000000000000888 ) ) ;
#1137 = VERTEX_POINT ( 'NONE', #723 ) ;
#1138 = CARTESIAN_POINT ( 'NONE',  ( 4.750000000000015099, 18.25000000000001066, 0.000000000000000000 ) ) ;
#1139 = ADVANCED_FACE ( 'NONE', ( #42 ), #986, .F. ) ;
#1140 = EDGE_LOOP ( 'NONE', ( #569, #173, #664, #616 ) ) ;
#1141 = CARTESIAN_POINT ( 'NONE',  ( 17.75000000000001421, 6.938893903907228378E-15, 3.000000000000000000 ) ) ;
#1142 = EDGE_CURVE ( 'NONE', #344, #864, #434, .T. ) ;
#1143 = LINE ( 'NONE', #662, #575 ) ;
#1144 = DIRECTION ( 'NONE',  ( -0.8660254037844383745, -0.5000000000000003331, 0.000000000000000000 ) ) ;
#1145 = ORIENTED_EDGE ( 'NONE', *, *, #209, .F. ) ;
#1146 = ORIENTED_EDGE ( 'NONE', *, *, #815, .T. ) ;
#1147 = VECTOR ( 'NONE', #762, 1000.000000000000000 ) ;
#1148 = DIRECTION ( 'NONE',  ( -1.000000000000000000, 2.086885384633752903E-16, -0.000000000000000000 ) ) ;
#1149 = VECTOR ( 'NONE', #710, 1000.000000000000227 ) ;
#1150 = CARTESIAN_POINT ( 'NONE',  ( 33.25000000000000711, -7.499999999999994671, 8.000000000000000000 ) ) ;
#1151 = PRODUCT ( 'Base_v2_Default_sldprt', 'Base_v2_Default_sldprt', '', ( #554 ) ) ;
#1152 = DIRECTION ( 'NONE',  ( -0.000000000000000000, -0.000000000000000000, -1.000000000000000000 ) ) ;
#1153 = VERTEX_POINT ( 'NONE', #623 ) ;
#1154 = CARTESIAN_POINT ( 'NONE',  ( -18.24999999999998224, 5.000000000000000888, 1.500000000000000000 ) ) ;
#1155 = EDGE_LOOP ( 'NONE', ( #1061, #125, #585, #786 ) ) ;
#1156 = CARTESIAN_POINT ( 'NONE',  ( 30.25000000000002132, -7.499999999999994671, 8.000000000000000000 ) ) ;
#1157 = DIRECTION ( 'NONE',  ( 1.000000000000000000, 0.000000000000000000, 0.000000000000000000 ) ) ;
#1158 = FACE_BOUND ( 'NONE', #451, .T. ) ;
#1159 = ORIENTED_EDGE ( 'NONE', *, *, #959, .F. ) ;
#1160 = EDGE_CURVE ( 'NONE', #1167, #287, #417, .T. ) ;
#1161 = DIRECTION ( 'NONE',  ( -1.000000000000000000, -0.000000000000000000, -0.000000000000000000 ) ) ;
#1162 = ORIENTED_EDGE ( 'NONE', *, *, #471, .T. ) ;
#1163 = LINE ( 'NONE', #192, #1190 ) ;
#1164 = CARTESIAN_POINT ( 'NONE',  ( 1.750000000000015543, -28.25000000000000711, 3.000000000000000888 ) ) ;
#1165 = DIRECTION ( 'NONE',  ( 0.000000000000000000, 1.000000000000000000, 0.000000000000000000 ) ) ;
#1166 = ORIENTED_EDGE ( 'NONE', *, *, #911, .T. ) ;
#1167 = VERTEX_POINT ( 'NONE', #142 ) ;
#1168 = FACE_OUTER_BOUND ( 'NONE', #805, .T. ) ;
#1169 = AXIS2_PLACEMENT_3D ( 'NONE', #1063, #979, #1078 ) ;
#1170 = FACE_OUTER_BOUND ( 'NONE', #95, .T. ) ;
#1171 = AXIS2_PLACEMENT_3D ( 'NONE', #103, #469, #377 ) ;
#1172 = CARTESIAN_POINT ( 'NONE',  ( -33.25100000000001188, -10.00000000000000888, 8.000000000000000000 ) ) ;
#1173 = ORIENTED_EDGE ( 'NONE', *, *, #302, .F. ) ;
#1174 = ADVANCED_FACE ( 'NONE', ( #534 ), #531, .T. ) ;
#1175 = EDGE_LOOP ( 'NONE', ( #1159, #304, #180, #741 ) ) ;
#1176 = DIRECTION ( 'NONE',  ( -1.000000000000000000, 2.086885384633752903E-16, -0.000000000000000000 ) ) ;
#1177 = VERTEX_POINT ( 'NONE', #525 ) ;
#1178 = LINE ( 'NONE', #327, #1149 ) ;
#1179 = ORIENTED_EDGE ( 'NONE', *, *, #1012, .T. ) ;
#1180 = CARTESIAN_POINT ( 'NONE',  ( 4.750000000000015099, -28.25000000000000711, 3.000000000000000888 ) ) ;
#1181 = ADVANCED_FACE ( 'NONE', ( #990 ), #902, .F. ) ;
#1182 = ORIENTED_EDGE ( 'NONE', *, *, #367, .F. ) ;
#1183 = DIRECTION ( 'NONE',  ( 1.301042606982605567E-16, -1.000000000000000000, 0.000000000000000000 ) ) ;
#1184 = ORIENTED_EDGE ( 'NONE', *, *, #615, .T. ) ;
#1185 = EDGE_CURVE ( 'NONE', #811, #267, #429, .T. ) ;
#1186 = FACE_OUTER_BOUND ( 'NONE', #586, .T. ) ;
#1187 = EDGE_CURVE ( 'NONE', #933, #906, #907, .T. ) ;
#1188 = VERTEX_POINT ( 'NONE', #245 ) ;
#1189 = DIRECTION ( 'NONE',  ( 1.000000000000000000, -0.000000000000000000, 0.000000000000000000 ) ) ;
#1190 = VECTOR ( 'NONE', #1033, 1000.000000000000000 ) ;
#1191 = VECTOR ( 'NONE', #746, 1000.000000000000000 ) ;
#1192 = VECTOR ( 'NONE', #183, 1000.000000000000000 ) ;
#1193 = CC_DESIGN_APPROVAL ( #82, ( #441 ) ) ;
#1194 = CARTESIAN_POINT ( 'NONE',  ( 1.750000000000014211, 18.25000000000001066, 3.000000000000000888 ) ) ;
#1195 = VERTEX_POINT ( 'NONE', #1001 ) ;
#1196 = FACE_OUTER_BOUND ( 'NONE', #513, .T. ) ;
#1197 = EDGE_CURVE ( 'NONE', #942, #509, #158, .T. ) ;
#1198 = CARTESIAN_POINT ( 'NONE',  ( 30.25000000000001421, 33.25000000000000711, 3.000000000000000000 ) ) ;
#1199 = ORIENTED_EDGE ( 'NONE', *, *, #1197, .T. ) ;
#1200 = APPROVAL_DATE_TIME ( #359, #82 ) ;
#1201 = DIRECTION ( 'NONE',  ( -0.8660254037844384856, 0.5000000000000002220, 0.000000000000000000 ) ) ;
#1202 = CARTESIAN_POINT ( 'NONE',  ( 4.750000000000015099, -28.25000000000000711, 13.00100000000000122 ) ) ;
#1203 = PERSON_AND_ORGANIZATION_ROLE ( 'creator' ) ;
#1204 = VECTOR ( 'NONE', #72, 1000.000000000000000 ) ;
#1205 = AXIS2_PLACEMENT_3D ( 'NONE', #1047, #1039, #105 ) ;
#1206 = AXIS2_PLACEMENT_3D ( 'NONE', #186, #401, #781 ) ;
#1207 = LINE ( 'NONE', #343, #637 ) ;
#1208 = DIRECTION ( 'NONE',  ( 1.000000000000000000, 2.086885384633752656E-16, -0.000000000000000000 ) ) ;
#1209 = CALENDAR_DATE ( 2026, 1, 9 ) ;
#1210 = EDGE_CURVE ( 'NONE', #266, #544, #338, .T. ) ;
#1211 = DIRECTION ( 'NONE',  ( 0.000000000000000000, 0.000000000000000000, 1.000000000000000000 ) ) ;
#1212 = EDGE_LOOP ( 'NONE', ( #1054, #109 ) ) ;
#1213 = CARTESIAN_POINT ( 'NONE',  ( -33.25100000000000477, -30.75000000000000711, 8.000000000000000000 ) ) ;
#1214 =( NAMED_UNIT ( * ) SI_UNIT ( $, .STERADIAN. ) SOLID_ANGLE_UNIT ( ) );
#1215 = DIRECTION ( 'NONE',  ( -0.000000000000000000, -0.000000000000000000, -1.000000000000000000 ) ) ;
#1216 = EDGE_CURVE ( 'NONE', #592, #1113, #1106, .T. ) ;
#1217 = FACE_OUTER_BOUND ( 'NONE', #239, .T. ) ;
#1218 = ORIENTED_EDGE ( 'NONE', *, *, #560, .F. ) ;
#1219 = ADVANCED_FACE ( 'NONE', ( #466 ), #652, .T. ) ;
#1220 = EDGE_LOOP ( 'NONE', ( #872, #1173, #981, #348 ) ) ;
#1221 = CARTESIAN_POINT ( 'NONE',  ( 33.25000000000001421, -33.24999999999999289, 13.00000000000000178 ) ) ;
#1222 = CARTESIAN_POINT ( 'NONE',  ( -13.91987298107778770, 2.500000000000000888, 1.500000000000000000 ) ) ;
#1223 = AXIS2_PLACEMENT_3D ( 'NONE', #199, #1215, #462 ) ;
#1224 = VECTOR ( 'NONE', #1096, 1000.000000000000000 ) ;
#1225 = CIRCLE ( 'NONE', #420, 4.000000000000000000 ) ;
#1226 = CARTESIAN_POINT ( 'NONE',  ( -33.25100000000001188, -12.50000000000000888, 8.000000000000000000 ) ) ;
#1227 = ORIENTED_EDGE ( 'NONE', *, *, #905, .T. ) ;
ENDSEC;
END-ISO-10303-21;
