ISO-10303-21;
HEADER;
FILE_DESCRIPTION (( 'STEP AP203' ),
    '1' );
FILE_NAME ('Coupling_Default_sldprt.STEP',
    '2026-09-01T12:51:41',
    ( '' ),
    ( '' ),
    'SwSTEP 2.0',
    'SolidWorks 2020',
    '' );
FILE_SCHEMA (( 'CONFIG_CONTROL_DESIGN' ));
ENDSEC;

DATA;
#1 = CARTESIAN_POINT ( 'NONE',  ( -5.916088184763879987, 0.9999502950802097168, -5.868918508099885578 ) ) ;
#2 = CARTESIAN_POINT ( 'NONE',  ( -5.936271176698232566, -0.8736516769106875691, 5.496067715786762342 ) ) ;
#3 = ORIENTED_EDGE ( 'NONE', *, *, #226, .T. ) ;
#4 = CARTESIAN_POINT ( 'NONE',  ( -5.969096820685153126, 0.6152055445546381618, -5.200950313297326488 ) ) ;
#5 = DIRECTION ( 'NONE',  ( 0.000000000000000000, 0.000000000000000000, 1.000000000000000000 ) ) ;
#6 = ORIENTED_EDGE ( 'NONE', *, *, #311, .F. ) ;
#7 = FACE_OUTER_BOUND ( 'NONE', #323, .T. ) ;
#8 = CARTESIAN_POINT ( 'NONE',  ( -5.969238533166610239, 0.6139908388540981088, -6.800223720879874811 ) ) ;
#9 = CARTESIAN_POINT ( 'NONE',  ( -3.879948393309026855, -0.9740030178010135042, 5.738093216936199781 ) ) ;
#10 = ORIENTED_EDGE ( 'NONE', *, *, #108, .T. ) ;
#11 = AXIS2_PLACEMENT_3D ( 'NONE', #703, #644, #145 ) ;
#12 = CARTESIAN_POINT ( 'NONE',  ( 3.953463112640606791, -0.6154946931554469147, 5.201225454450264074 ) ) ;
#13 = CARTESIAN_POINT ( 'NONE',  ( -3.969965223322160952, -0.5040697851665454365, 5.126501535645138219 ) ) ;
#14 = ORIENTED_EDGE ( 'NONE', *, *, #201, .T. ) ;
#15 = B_SPLINE_CURVE_WITH_KNOTS ( 'NONE', 3,
 ( #509, #389, #383, #16, #12, #454, #328, #197, #699, #265, #522, #708, #694, #132, #770, #141, #766, #582 ),
 .UNSPECIFIED., .F., .F.,
 ( 4, 2, 2, 2, 2, 2, 2, 2, 4 ),
 ( 4.015188034936748514E-21, 0.0003923685324657891606, 0.0007847370649315784296, 0.001177105597397367807, 0.001569474129863157293, 0.001961842662328946128, 0.002354211194794735614, 0.002746579727260524666, 0.003138948259726314586 ),
 .UNSPECIFIED. ) ;
#16 = CARTESIAN_POINT ( 'NONE',  ( 3.969869395575870819, -0.5048887612555240656, 5.126926490991849050 ) ) ;
#17 = B_SPLINE_CURVE_WITH_KNOTS ( 'NONE', 3,
 ( #612, #48, #488, #423, #292, #542, #362, #550, #52, #301, #792, #248, #176, #359, #243, #366, #297, #546 ),
 .UNSPECIFIED., .F., .F.,
 ( 4, 2, 2, 2, 2, 2, 2, 2, 4 ),
 ( 3.379126506159063230E-20, 0.0003914904498596254970, 0.0007829808997192508856, 0.001174471349578876328, 0.001565961799438501771, 0.001957452249298127431, 0.002348942699157752657, 0.002740433149017377883, 0.003131923598877003542 ),
 .UNSPECIFIED. ) ;
#18 = CARTESIAN_POINT ( 'NONE',  ( 5.969096820685153126, -0.6152055445546379397, 5.200950313297326488 ) ) ;
#19 = EDGE_CURVE ( 'NONE', #788, #140, #272, .T. ) ;
#20 = CARTESIAN_POINT ( 'NONE',  ( 3.969858145330399157, 0.5048232406146755391, 5.126987308606507199 ) ) ;
#21 = LINE ( 'NONE', #635, #667 ) ;
#22 = CARTESIAN_POINT ( 'NONE',  ( 5.995407492418038942, -0.2638277032948923018, -6.973320552815179596 ) ) ;
#23 = DIRECTION ( 'NONE',  ( -0.000000000000000000, -0.000000000000000000, -1.000000000000000000 ) ) ;
#24 = VECTOR ( 'NONE', #594, 1000.000000000000000 ) ;
#25 = CARTESIAN_POINT ( 'NONE',  ( 5.936362132114462398, 0.8730424326980930072, 6.504993097814365299 ) ) ;
#26 = VECTOR ( 'NONE', #90, 1000.000000000000000 ) ;
#27 = VERTEX_POINT ( 'NONE', #291 ) ;
#28 = CARTESIAN_POINT ( 'NONE',  ( 5.947211616899244824, -0.7995298244854596170, -6.614560146198584789 ) ) ;
#29 = DIRECTION ( 'NONE',  ( 1.000000000000000000, 0.000000000000000000, 0.000000000000000000 ) ) ;
#30 = DIRECTION ( 'NONE',  ( 0.000000000000000000, 0.000000000000000000, 1.000000000000000000 ) ) ;
#31 = CARTESIAN_POINT ( 'NONE',  ( 3.993201599367474763, 0.2629004868407573414, -6.973680310673294080 ) ) ;
#32 = CARTESIAN_POINT ( 'NONE',  ( -3.969858145330399157, -0.5048232406146755391, -5.126987308606508975 ) ) ;
#33 = AXIS2_PLACEMENT_3D ( 'NONE', #515, #5, #762 ) ;
#34 = AXIS2_PLACEMENT_3D ( 'NONE', #707, #592, #715 ) ;
#35 = DIRECTION ( 'NONE',  ( 1.000000000000000000, -0.000000000000000000, -0.000000000000000000 ) ) ;
#36 = ORIENTED_EDGE ( 'NONE', *, *, #189, .T. ) ;
#37 = CC_DESIGN_APPROVAL ( #453, ( #458 ) ) ;
#38 = DIRECTION ( 'NONE',  ( -0.000000000000000000, -0.000000000000000000, -1.000000000000000000 ) ) ;
#39 = ORIENTED_EDGE ( 'NONE', *, *, #117, .T. ) ;
#40 = EDGE_CURVE ( 'NONE', #228, #267, #346, .T. ) ;
#41 = PRODUCT_DEFINITION ( 'UNKNOWN', '', #458, #801 ) ;
#42 = CARTESIAN_POINT ( 'NONE',  ( -5.999999999999999112, -4.472210243878960127E-23, -7.000000000000001776 ) ) ;
#43 = ORIENTED_EDGE ( 'NONE', *, *, #709, .T. ) ;
#44 = CARTESIAN_POINT ( 'NONE',  ( 0.000000000000000000, 0.000000000000000000, -10.00000000000000000 ) ) ;
#45 = EDGE_CURVE ( 'NONE', #152, #192, #419, .T. ) ;
#46 = CARTESIAN_POINT ( 'NONE',  ( 5.969178481556065563, -0.6144377077729905601, -5.200339668577361074 ) ) ;
#47 = CARTESIAN_POINT ( 'NONE',  ( -3.920392233738140053, 0.7996175296367108443, -6.614636124423222796 ) ) ;
#48 = CARTESIAN_POINT ( 'NONE',  ( 5.999999999999999112, 0.1323933160975633294, -7.000000000000000888 ) ) ;
#49 = B_SPLINE_CURVE_WITH_KNOTS ( 'NONE', 3,
 ( #779, #544, #472, #591, #46, #88, #464, #706, #718, #146, #527, #159, #28, #334, #668, #22, #775, #583 ),
 .UNSPECIFIED., .F., .F.,
 ( 4, 2, 2, 2, 2, 2, 2, 2, 4 ),
 ( 0.003131923598877003542, 0.003523316383094321318, 0.003914709167311639093, 0.004306101951528956868, 0.004697494735746274644, 0.005088887519963592419, 0.005480280304180910195, 0.005871673088398227970, 0.006263065872615545746 ),
 .UNSPECIFIED. ) ;
#50 = DATE_AND_TIME ( #793, #75 ) ;
#51 = CARTESIAN_POINT ( 'NONE',  ( -3.903862007818517998, 0.8732369880725072697, -6.504712001405124511 ) ) ;
#52 = CARTESIAN_POINT ( 'NONE',  ( 5.916088184763879987, 0.9999502950802094947, -6.131081491900115310 ) ) ;
#53 = PERSON_AND_ORGANIZATION ( #175, #573 ) ;
#54 = AXIS2_PLACEMENT_3D ( 'NONE', #369, #296, #232 ) ;
#55 = EDGE_LOOP ( 'NONE', ( #3, #411, #378, #101, #498, #14, #312, #675, #229, #482, #530, #200 ) ) ;
#56 = CARTESIAN_POINT ( 'NONE',  ( 3.969965223322160952, 0.5040697851665462137, -5.126501535645138219 ) ) ;
#57 = CARTESIAN_POINT ( 'NONE',  ( 4.000000000000000000, 4.898587196589412829E-16, -10.00000000000000000 ) ) ;
#58 = CARTESIAN_POINT ( 'NONE',  ( 3.872969183810250904, 1.000054850733511635, -5.869385780013764098 ) ) ;
#59 = DIRECTION ( 'NONE',  ( -0.000000000000000000, -0.000000000000000000, -1.000000000000000000 ) ) ;
#60 = VECTOR ( 'NONE', #23, 1000.000000000000000 ) ;
#61 = VERTEX_POINT ( 'NONE', #616 ) ;
#62 = FACE_BOUND ( 'NONE', #456, .T. ) ;
#63 = CARTESIAN_POINT ( 'NONE',  ( 5.979990686694992341, -0.5044069930203340935, 5.126642567720957722 ) ) ;
#64 = VERTEX_POINT ( 'NONE', #428 ) ;
#65 = ADVANCED_BREP_SHAPE_REPRESENTATION ( 'Coupling_Default_sldprt', ( #566, #402 ), #690 ) ;
#66 = CARTESIAN_POINT ( 'NONE',  ( -5.936362132114462398, -0.8730424326980924521, -6.504993097814366187 ) ) ;
#67 = CARTESIAN_POINT ( 'NONE',  ( 5.995505046955614148, -0.2619456584322024106, 6.973928060713524779 ) ) ;
#68 = ORIENTED_EDGE ( 'NONE', *, *, #222, .T. ) ;
#69 = DIRECTION ( 'NONE',  ( -0.000000000000000000, -0.000000000000000000, -1.000000000000000000 ) ) ;
#70 = DIRECTION ( 'NONE',  ( -0.000000000000000000, -0.000000000000000000, -1.000000000000000000 ) ) ;
#71 = CARTESIAN_POINT ( 'NONE',  ( -3.880087007359552587, -0.9734268036074583685, 6.263417269914460128 ) ) ;
#72 = ORIENTED_EDGE ( 'NONE', *, *, #102, .F. ) ;
#73 = CARTESIAN_POINT ( 'NONE',  ( 5.999999999999999112, 7.347881242104880842E-16, 7.000000000000001776 ) ) ;
#74 = CARTESIAN_POINT ( 'NONE',  ( -5.936271176698232566, 0.8736516769106875691, -6.503932284213237658 ) ) ;
#75 = LOCAL_TIME ( 18, 21, 41.00000000000000000, #723 ) ;
#76 = LOCAL_TIME ( 18, 21, 41.00000000000000000, #602 ) ;
#77 = EDGE_CURVE ( 'NONE', #143, #228, #641, .T. ) ;
#78 = CARTESIAN_POINT ( 'NONE',  ( -5.999999999999999112, -3.478057330786736548E-17, -4.999999999999998224 ) ) ;
#79 = ORIENTED_EDGE ( 'NONE', *, *, #335, .F. ) ;
#80 = APPLICATION_CONTEXT ( 'configuration controlled 3d designs of mechanical parts and assemblies' ) ;
#81 = AXIS2_PLACEMENT_3D ( 'NONE', #660, #288, #349 ) ;
#82 = CARTESIAN_POINT ( 'NONE',  ( -10.00000000000000000, 0.000000000000000000, 6.000000000000000000 ) ) ;
#83 = ADVANCED_FACE ( 'NONE', ( #743 ), #182, .F. ) ;
#84 = DIRECTION ( 'NONE',  ( 1.000000000000000000, -0.000000000000000000, -0.000000000000000000 ) ) ;
#85 = ORIENTED_EDGE ( 'NONE', *, *, #536, .T. ) ;
#86 = CARTESIAN_POINT ( 'NONE',  ( 3.920449918490174213, 0.7992216017350888269, 5.385112855254421405 ) ) ;
#87 = CARTESIAN_POINT ( 'NONE',  ( 3.993101993507429004, -0.2641148760630704917, -6.973263066103405627 ) ) ;
#88 = CARTESIAN_POINT ( 'NONE',  ( 5.947301735519284094, -0.7988914244718235969, -5.384562891686183406 ) ) ;
#89 =( NAMED_UNIT ( * ) PLANE_ANGLE_UNIT ( ) SI_UNIT ( $, .RADIAN. ) );
#90 = DIRECTION ( 'NONE',  ( -0.000000000000000000, -0.000000000000000000, -1.000000000000000000 ) ) ;
#91 = CARTESIAN_POINT ( 'NONE',  ( -5.936248257219507884, -0.8737888311110058037, 6.503441851412168795 ) ) ;
#92 = CARTESIAN_POINT ( 'NONE',  ( -4.000000000000000000, -4.134078698859513570E-18, 7.000000000000001776 ) ) ;
#93 = CARTESIAN_POINT ( 'NONE',  ( -4.000000000000000000, -9.891274455076596304E-22, -7.000000000000001776 ) ) ;
#94 = DIRECTION ( 'NONE',  ( -0.000000000000000000, -0.000000000000000000, -1.000000000000000000 ) ) ;
#95 = CARTESIAN_POINT ( 'NONE',  ( -3.872993992554538245, -0.9999587668730113288, -6.132229819360587086 ) ) ;
#96 = DIRECTION ( 'NONE',  ( 0.000000000000000000, 0.000000000000000000, -1.000000000000000000 ) ) ;
#97 = CARTESIAN_POINT ( 'NONE',  ( 5.995407492418038942, 0.2638277032948923018, 5.026679447184820404 ) ) ;
#98 = CARTESIAN_POINT ( 'NONE',  ( -5.979983180450074265, 0.5042987395407719786, 6.873293041799770187 ) ) ;
#99 = DIRECTION ( 'NONE',  ( 1.000000000000000000, -0.000000000000000000, -0.000000000000000000 ) ) ;
#100 = CARTESIAN_POINT ( 'NONE',  ( -10.00000000000000000, 0.000000000000000000, 4.999999999999998224 ) ) ;
#101 = ORIENTED_EDGE ( 'NONE', *, *, #246, .T. ) ;
#102 = EDGE_CURVE ( 'NONE', #192, #152, #348, .T. ) ;
#103 = EDGE_CURVE ( 'NONE', #131, #512, #202, .T. ) ;
#104 = COORDINATED_UNIVERSAL_TIME_OFFSET ( 5, 30, .AHEAD. ) ;
#105 = CARTESIAN_POINT ( 'NONE',  ( -3.969995828464051968, -0.5037600891934789216, -6.873630949082915720 ) ) ;
#106 = CARTESIAN_POINT ( 'NONE',  ( -5.936246475285031465, 0.8738118504725681523, 6.503572421742431331 ) ) ;
#107 = CARTESIAN_POINT ( 'NONE',  ( -3.872972725026414320, 1.000041135659531122, 6.131605423760277951 ) ) ;
#108 = EDGE_CURVE ( 'NONE', #61, #512, #15, .T. ) ;
#109 = PERSON_AND_ORGANIZATION_ROLE ( 'creator' ) ;
#110 = LINE ( 'NONE', #153, #595 ) ;
#111 = CARTESIAN_POINT ( 'NONE',  ( -5.916066267613697249, 1.000079958708139038, 6.131527388820342317 ) ) ;
#112 = CARTESIAN_POINT ( 'NONE',  ( 0.000000000000000000, 0.000000000000000000, 10.00000000000000000 ) ) ;
#113 = CARTESIAN_POINT ( 'NONE',  ( 3.880087007359552587, 0.9734268036074583685, -6.263417269914460128 ) ) ;
#114 = CARTESIAN_POINT ( 'NONE',  ( -5.936246475285031465, -0.8738118504725681523, -5.496427578257569557 ) ) ;
#115 = PERSON_AND_ORGANIZATION ( #175, #573 ) ;
#116 = ORIENTED_EDGE ( 'NONE', *, *, #575, .T. ) ;
#117 = EDGE_CURVE ( 'NONE', #430, #64, #639, .T. ) ;
#118 = CARTESIAN_POINT ( 'NONE',  ( -3.993201599367474763, 0.2629004868407572859, -5.026319689326707696 ) ) ;
#119 = CARTESIAN_POINT ( 'NONE',  ( -3.872993992554538245, 0.9999587668730113288, 5.867770180639415578 ) ) ;
#120 = CARTESIAN_POINT ( 'NONE',  ( -3.953670644936868150, 0.6142897454956635084, -6.799883658869955383 ) ) ;
#121 = LINE ( 'NONE', #371, #520 ) ;
#122 = EDGE_LOOP ( 'NONE', ( #185, #434, #563, #264 ) ) ;
#123 = CARTESIAN_POINT ( 'NONE',  ( 4.000000000000000000, 4.898597087858433640E-16, 7.000000000000001776 ) ) ;
#124 = CARTESIAN_POINT ( 'NONE',  ( -3.903788882833201246, -0.8735372258408632407, 6.503866167886741323 ) ) ;
#125 = ADVANCED_FACE ( 'NONE', ( #647 ), #333, .F. ) ;
#126 = ORIENTED_EDGE ( 'NONE', *, *, #704, .F. ) ;
#127 = CARTESIAN_POINT ( 'NONE',  ( -5.920620690450686396, 0.9740807849836145005, -6.261498802993309631 ) ) ;
#128 = CARTESIAN_POINT ( 'NONE',  ( -6.000000000000000888, -0.1306497350717332750, 4.999999999999998224 ) ) ;
#129 = EDGE_CURVE ( 'NONE', #503, #507, #21, .T. ) ;
#130 = CIRCLE ( 'NONE', #586, 4.000000000000000000 ) ;
#131 = VERTEX_POINT ( 'NONE', #320 ) ;
#132 = CARTESIAN_POINT ( 'NONE',  ( 3.953670644936869039, -0.6142897454956629533, 6.799883658869957159 ) ) ;
#133 = CARTESIAN_POINT ( 'NONE',  ( -4.000000000000000000, 0.000000000000000000, 10.00000000000000000 ) ) ;
#134 = CARTESIAN_POINT ( 'NONE',  ( -3.969869395575870819, -0.5048887612555239546, 6.873073509008152726 ) ) ;
#135 = VERTEX_POINT ( 'NONE', #269 ) ;
#136 = CIRCLE ( 'NONE', #345, 5.999999999999999112 ) ;
#137 = CYLINDRICAL_SURFACE ( 'NONE', #11, 1.000000000000001776 ) ;
#138 = CARTESIAN_POINT ( 'NONE',  ( -5.999999999999999112, -4.472210243878960127E-23, -7.000000000000001776 ) ) ;
#139 = CARTESIAN_POINT ( 'NONE',  ( -3.872969183810250904, -1.000054850733511635, 5.869385780013764098 ) ) ;
#140 = VERTEX_POINT ( 'NONE', #756 ) ;
#141 = CARTESIAN_POINT ( 'NONE',  ( 3.993212196359560817, -0.2626148844800766935, 6.973714197286692951 ) ) ;
#142 = FACE_OUTER_BOUND ( 'NONE', #727, .T. ) ;
#143 = VERTEX_POINT ( 'NONE', #519 ) ;
#144 = CARTESIAN_POINT ( 'NONE',  ( 3.953413208705574000, 0.6157976398963520559, 5.201479720889036429 ) ) ;
#145 = DIRECTION ( 'NONE',  ( 0.000000000000000000, 0.000000000000000000, -1.000000000000000000 ) ) ;
#146 = CARTESIAN_POINT ( 'NONE',  ( 5.916066267613697249, -1.000079958708139038, -6.131527388820341429 ) ) ;
#147 = CARTESIAN_POINT ( 'NONE',  ( -5.999999999999999112, 4.472210243878960127E-23, 4.999999999999998224 ) ) ;
#148 = CARTESIAN_POINT ( 'NONE',  ( 5.995472630654517410, 0.2624013748573175708, 6.973714403089177338 ) ) ;
#149 = CARTESIAN_POINT ( 'NONE',  ( -5.969096820685153126, -0.6152055445546381618, 6.799049686702675288 ) ) ;
#150 = CARTESIAN_POINT ( 'NONE',  ( -10.00000000000000000, 0.000000000000000000, -6.000000000000000000 ) ) ;
#151 = LINE ( 'NONE', #479, #654 ) ;
#152 = VERTEX_POINT ( 'NONE', #207 ) ;
#153 = CARTESIAN_POINT ( 'NONE',  ( -10.00000000000000000, 1.224646799147355179E-16, -4.999999999999998224 ) ) ;
#154 = B_SPLINE_CURVE_WITH_KNOTS ( 'NONE', 3,
 ( #73, #574, #148, #273, #463, #336, #25, #278, #525, #773, #689, #379, #631, #657, #340, #97, #599, #716 ),
 .UNSPECIFIED., .F., .F.,
 ( 4, 2, 2, 2, 2, 2, 2, 2, 4 ),
 ( 0.003131923598877004843, 0.003523316383094322619, 0.003914709167311639960, 0.004306101951528957736, 0.004697494735746275511, 0.005088887519963593287, 0.005480280304180910195, 0.005871673088398227970, 0.006263065872615545746 ),
 .UNSPECIFIED. ) ;
#155 = CARTESIAN_POINT ( 'NONE',  ( 3.903780981627170910, 0.8735789483019650303, 5.496103661561181575 ) ) ;
#156 = LOCAL_TIME ( 18, 21, 41.00000000000000000, #104 ) ;
#157 = DIRECTION ( 'NONE',  ( 1.000000000000000000, -0.000000000000000000, -0.000000000000000000 ) ) ;
#158 = ORIENTED_EDGE ( 'NONE', *, *, #45, .T. ) ;
#159 = CARTESIAN_POINT ( 'NONE',  ( 5.936246475285030577, -0.8738118504725680413, -6.503572421742431331 ) ) ;
#160 = CYLINDRICAL_SURFACE ( 'NONE', #196, 1.000000000000001776 ) ;
#161 = DIRECTION ( 'NONE',  ( 1.000000000000000000, 0.000000000000000000, 0.000000000000000000 ) ) ;
#162 = EDGE_CURVE ( 'NONE', #152, #283, #211, .T. ) ;
#163 = ORIENTED_EDGE ( 'NONE', *, *, #540, .F. ) ;
#164 = APPROVAL_DATE_TIME ( #802, #367 ) ;
#165 = LINE ( 'NONE', #100, #804 ) ;
#166 = ADVANCED_FACE ( 'NONE', ( #7 ), #137, .F. ) ;
#167 = B_SPLINE_CURVE_WITH_KNOTS ( 'NONE', 3,
 ( #317, #692, #208, #134, #461, #633, #124, #71, #322, #139, #9, #511, #451, #697, #13, #266, #691, #446 ),
 .UNSPECIFIED., .F., .F.,
 ( 4, 2, 2, 2, 2, 2, 2, 2, 4 ),
 ( 4.015188034936748514E-21, 0.0003923685324657892690, 0.0007847370649315785381, 0.001177105597397367807, 0.001569474129863157076, 0.001961842662328946128, 0.002354211194794735614, 0.002746579727260525100, 0.003138948259726314152 ),
 .UNSPECIFIED. ) ;
#168 = CARTESIAN_POINT ( 'NONE',  ( -5.947301735519283206, 0.7988914244718235969, 5.384562891686183406 ) ) ;
#169 = CARTESIAN_POINT ( 'NONE',  ( -4.000000000000000000, 0.000000000000000000, 10.00000000000000000 ) ) ;
#170 = PERSON_AND_ORGANIZATION ( #175, #573 ) ;
#171 = CARTESIAN_POINT ( 'NONE',  ( 4.000000000000000000, 4.134078698859513570E-18, -7.000000000000001776 ) ) ;
#172 = CARTESIAN_POINT ( 'NONE',  ( -5.947211616899245712, -0.7995298244854598391, -5.385439853801416099 ) ) ;
#173 = CALENDAR_DATE ( 2026, 1, 9 ) ;
#174 = CARTESIAN_POINT ( 'NONE',  ( 3.993212196359559929, 0.2626148844800777482, -5.026285802713309714 ) ) ;
#175 = PERSON ( 'UNSPECIFIED', 'UNSPECIFIED', 'UNSPECIFIED', ('UNSPECIFIED'), ('UNSPECIFIED'), ('UNSPECIFIED') ) ;
#176 = CARTESIAN_POINT ( 'NONE',  ( 5.947135855825862905, 0.8002302970946546523, -5.386017732122993174 ) ) ;
#177 = EDGE_CURVE ( 'NONE', #507, #430, #154, .T. ) ;
#178 = SECURITY_CLASSIFICATION_LEVEL ( 'unclassified' ) ;
#179 = CARTESIAN_POINT ( 'NONE',  ( -4.000000000000000000, 4.134078698859513570E-18, -4.999999999999998224 ) ) ;
#180 = DIRECTION ( 'NONE',  ( 1.000000000000000000, -0.000000000000000000, -0.000000000000000000 ) ) ;
#181 = DATE_AND_TIME ( #173, #156 ) ;
#182 = CYLINDRICAL_SURFACE ( 'NONE', #54, 1.000000000000001776 ) ;
#183 = CARTESIAN_POINT ( 'NONE',  ( -4.000000000000000000, -4.134078698859513570E-18, 7.000000000000001776 ) ) ;
#184 = VECTOR ( 'NONE', #394, 1000.000000000000000 ) ;
#185 = ORIENTED_EDGE ( 'NONE', *, *, #564, .T. ) ;
#186 = CARTESIAN_POINT ( 'NONE',  ( 3.903976002541359236, -0.8727396029839827873, -5.494353331437611843 ) ) ;
#187 = LINE ( 'NONE', #133, #494 ) ;
#188 = EDGE_CURVE ( 'NONE', #283, #135, #537, .T. ) ;
#189 = EDGE_CURVE ( 'NONE', #61, #430, #218, .T. ) ;
#190 = LINE ( 'NONE', #380, #593 ) ;
#191 = CARTESIAN_POINT ( 'NONE',  ( 0.000000000000000000, 0.000000000000000000, 10.00000000000000000 ) ) ;
#192 = VERTEX_POINT ( 'NONE', #475 ) ;
#193 = CARTESIAN_POINT ( 'NONE',  ( -5.920636045238165224, -0.9739805876847945632, -5.738286131855774741 ) ) ;
#194 = CARTESIAN_POINT ( 'NONE',  ( 5.995491482261827265, -0.2622916576876613282, 5.026150573531864119 ) ) ;
#195 = VERTEX_POINT ( 'NONE', #42 ) ;
#196 = AXIS2_PLACEMENT_3D ( 'NONE', #150, #588, #96 ) ;
#197 = CARTESIAN_POINT ( 'NONE',  ( 3.880087007359553475, -0.9734268036074587016, 5.736582730085542536 ) ) ;
#198 = DIRECTION ( 'NONE',  ( 0.000000000000000000, 0.000000000000000000, 1.000000000000000000 ) ) ;
#199 = FACE_OUTER_BOUND ( 'NONE', #548, .T. ) ;
#200 = ORIENTED_EDGE ( 'NONE', *, *, #484, .F. ) ;
#201 = EDGE_CURVE ( 'NONE', #152, #669, #533, .T. ) ;
#202 = LINE ( 'NONE', #398, #26 ) ;
#203 = CARTESIAN_POINT ( 'NONE',  ( 5.999999999999999112, 3.478057330786736548E-17, 4.999999999999998224 ) ) ;
#204 = ORIENTED_EDGE ( 'NONE', *, *, #704, .T. ) ;
#205 = CARTESIAN_POINT ( 'NONE',  ( -4.000000000000000000, 0.000000000000000000, 10.00000000000000000 ) ) ;
#206 = B_SPLINE_CURVE_WITH_KNOTS ( 'NONE', 3,
 ( #374, #450, #624, #313, #4, #500, #686, #560, #1, #695, #127, #74, #442, #8, #325, #260, #510, #747 ),
 .UNSPECIFIED., .F., .F.,
 ( 4, 2, 2, 2, 2, 2, 2, 2, 4 ),
 ( 3.379126506159063230E-20, 0.0003914904498596255512, 0.0007829808997192509940, 0.001174471349578876545, 0.001565961799438501988, 0.001957452249298127431, 0.002348942699157753090, 0.002740433149017378316, 0.003131923598877003976 ),
 .UNSPECIFIED. ) ;
#207 = CARTESIAN_POINT ( 'NONE',  ( 4.000000000000000000, 4.134078698859513570E-18, -7.000000000000001776 ) ) ;
#208 = CARTESIAN_POINT ( 'NONE',  ( -3.993201599367474763, -0.2629004868407572859, 6.973680310673294080 ) ) ;
#209 = APPROVAL_PERSON_ORGANIZATION ( #614, #453, #225 ) ;
#210 = LINE ( 'NONE', #205, #561 ) ;
#211 = LINE ( 'NONE', #214, #184 ) ;
#212 = CARTESIAN_POINT ( 'NONE',  ( -3.903780981627171354, -0.8735789483019649193, -5.496103661561179798 ) ) ;
#213 =( NAMED_UNIT ( * ) SI_UNIT ( $, .STERADIAN. ) SOLID_ANGLE_UNIT ( ) );
#214 = CARTESIAN_POINT ( 'NONE',  ( -10.00000000000000000, 0.000000000000000000, -7.000000000000001776 ) ) ;
#215 = EDGE_LOOP ( 'NONE', ( #701, #257 ) ) ;
#216 = CARTESIAN_POINT ( 'NONE',  ( -5.995491482261826377, -0.2622916576876613837, 6.973849426468137658 ) ) ;
#217 = CARTESIAN_POINT ( 'NONE',  ( 3.953614380922479743, 0.6145853434051686826, 6.799553862224012590 ) ) ;
#218 = LINE ( 'NONE', #712, #771 ) ;
#219 = CARTESIAN_POINT ( 'NONE',  ( -5.995407492418038053, 0.2638277032948922463, 6.973320552815180484 ) ) ;
#220 = CARTESIAN_POINT ( 'NONE',  ( -3.879973766560979254, -0.9739130422342942017, -6.262385887979563748 ) ) ;
#221 = FACE_OUTER_BOUND ( 'NONE', #327, .T. ) ;
#222 = EDGE_CURVE ( 'NONE', #512, #507, #151, .T. ) ;
#223 = CARTESIAN_POINT ( 'NONE',  ( -5.999999999999999112, 0.000000000000000000, 10.00000000000000000 ) ) ;
#224 = CARTESIAN_POINT ( 'NONE',  ( -5.980084330432665851, 0.5031281619707743680, 5.126022727445253224 ) ) ;
#225 = APPROVAL_ROLE ( '' ) ;
#226 = EDGE_CURVE ( 'NONE', #596, #131, #405, .T. ) ;
#227 = CYLINDRICAL_SURFACE ( 'NONE', #81, 1.000000000000001776 ) ;
#228 = VERTEX_POINT ( 'NONE', #282 ) ;
#229 = ORIENTED_EDGE ( 'NONE', *, *, #319, .T. ) ;
#230 = CARTESIAN_POINT ( 'NONE',  ( -3.880024974703066398, 0.9736797867424589192, 6.262677314775329407 ) ) ;
#231 = PERSON_AND_ORGANIZATION ( #175, #573 ) ;
#232 = DIRECTION ( 'NONE',  ( 0.000000000000000000, 0.000000000000000000, -1.000000000000000000 ) ) ;
#233 = VECTOR ( 'NONE', #344, 1000.000000000000000 ) ;
#234 = FACE_OUTER_BOUND ( 'NONE', #627, .T. ) ;
#235 = ORIENTED_EDGE ( 'NONE', *, *, #601, .F. ) ;
#236 = CARTESIAN_POINT ( 'NONE',  ( -3.969965223322160952, 0.5040697851665454365, -6.873498464354864446 ) ) ;
#237 = CARTESIAN_POINT ( 'NONE',  ( -3.920495757085995070, 0.7990587187661492008, 5.384771028892833655 ) ) ;
#238 = PERSON_AND_ORGANIZATION_ROLE ( 'creator' ) ;
#239 = AXIS2_PLACEMENT_3D ( 'NONE', #44, #400, #409 ) ;
#240 = ORIENTED_EDGE ( 'NONE', *, *, #575, .F. ) ;
#241 = AXIS2_PLACEMENT_3D ( 'NONE', #444, #502, #767 ) ;
#242 = CARTESIAN_POINT ( 'NONE',  ( 3.879948393309026855, 0.9740030178010135042, -5.738093216936199781 ) ) ;
#243 = CARTESIAN_POINT ( 'NONE',  ( 5.980031194523150795, 0.5039079366032440666, -5.126370681098129545 ) ) ;
#244 = ORIENTED_EDGE ( 'NONE', *, *, #201, .F. ) ;
#245 = LOCAL_TIME ( 18, 21, 41.00000000000000000, #740 ) ;
#246 = EDGE_CURVE ( 'NONE', #61, #192, #787, .T. ) ;
#247 = CARTESIAN_POINT ( 'NONE',  ( 3.969995828464051968, -0.5037600891934788105, -5.126369050917081616 ) ) ;
#248 = CARTESIAN_POINT ( 'NONE',  ( 5.936271176698235230, 0.8736516769106876801, -5.496067715786760566 ) ) ;
#249 = ORIENTED_EDGE ( 'NONE', *, *, #162, .T. ) ;
#250 = PRODUCT_DEFINITION_SHAPE ( 'NONE', 'NONE',  #41 ) ;
#251 = ADVANCED_FACE ( 'NONE', ( #353 ), #227, .F. ) ;
#252 = CARTESIAN_POINT ( 'NONE',  ( -5.995472630654518298, -0.2624013748573165716, -6.973714403089177338 ) ) ;
#253 = CARTESIAN_POINT ( 'NONE',  ( -5.969238533166610239, -0.6139908388540981088, 5.199776279120125189 ) ) ;
#254 = ORIENTED_EDGE ( 'NONE', *, *, #294, .F. ) ;
#255 = DIRECTION ( 'NONE',  ( 1.000000000000000000, 0.000000000000000000, -0.000000000000000000 ) ) ;
#256 = CARTESIAN_POINT ( 'NONE',  ( 5.936271176698232566, -0.8736516769106876801, 6.503932284213237658 ) ) ;
#257 = ORIENTED_EDGE ( 'NONE', *, *, #540, .T. ) ;
#258 = CARTESIAN_POINT ( 'NONE',  ( 3.953413208705572224, -0.6157976398963526110, -6.798520279110966236 ) ) ;
#259 = LOCAL_TIME ( 18, 21, 41.00000000000000000, #551 ) ;
#260 = CARTESIAN_POINT ( 'NONE',  ( -5.995505046955614148, 0.2619456584322029657, -6.973928060713523003 ) ) ;
#261 = VECTOR ( 'NONE', #38, 1000.000000000000000 ) ;
#262 = EDGE_CURVE ( 'NONE', #27, #503, #535, .T. ) ;
#263 = LINE ( 'NONE', #640, #724 ) ;
#264 = ORIENTED_EDGE ( 'NONE', *, *, #424, .F. ) ;
#265 = CARTESIAN_POINT ( 'NONE',  ( 3.872969183810251792, -1.000054850733511635, 6.130614219986238567 ) ) ;
#266 = CARTESIAN_POINT ( 'NONE',  ( -3.993212196359559929, -0.2626148844800768045, 5.026285802713307937 ) ) ;
#267 = VERTEX_POINT ( 'NONE', #410 ) ;
#268 = DIRECTION ( 'NONE',  ( -0.000000000000000000, -0.000000000000000000, -1.000000000000000000 ) ) ;
#269 = CARTESIAN_POINT ( 'NONE',  ( 5.999999999999999112, 7.347880794884118750E-16, -10.00000000000000000 ) ) ;
#270 = CARTESIAN_POINT ( 'NONE',  ( 5.916088184763879987, -0.9999502950802094947, 5.868918508099886466 ) ) ;
#271 = CARTESIAN_POINT ( 'NONE',  ( 3.993101993507432557, 0.2641148760630697701, 5.026736933896597925 ) ) ;
#272 = B_SPLINE_CURVE_WITH_KNOTS ( 'NONE', 3,
 ( #466, #604, #600, #224, #658, #168, #471, #415, #403, #111, #358, #106, #476, #354, #98, #219, #526, #652 ),
 .UNSPECIFIED., .F., .F.,
 ( 4, 2, 2, 2, 2, 2, 2, 2, 4 ),
 ( 0.003131923598877003976, 0.003523316383094321751, 0.003914709167311639093, 0.004306101951528956868, 0.004697494735746275511, 0.005088887519963593287, 0.005480280304180910195, 0.005871673088398227970, 0.006263065872615545746 ),
 .UNSPECIFIED. ) ;
#273 = CARTESIAN_POINT ( 'NONE',  ( 5.980084330432666739, 0.5031281619707748121, 6.873977272554743223 ) ) ;
#274 = DIRECTION ( 'NONE',  ( 1.000000000000000000, -0.000000000000000000, -0.000000000000000000 ) ) ;
#275 = DIRECTION ( 'NONE',  ( 1.000000000000000000, 0.000000000000000000, 0.000000000000000000 ) ) ;
#276 = AXIS2_PLACEMENT_3D ( 'NONE', #290, #783, #470 ) ;
#277 = EDGE_CURVE ( 'NONE', #27, #140, #529, .T. ) ;
#278 = CARTESIAN_POINT ( 'NONE',  ( 5.920671847850517366, 0.9737778612005490997, 6.262636241153495043 ) ) ;
#279 = ORIENTED_EDGE ( 'NONE', *, *, #129, .F. ) ;
#280 = CARTESIAN_POINT ( 'NONE',  ( -4.000000000000000888, -0.1326759759031826968, -4.999999999999997335 ) ) ;
#281 = CARTESIAN_POINT ( 'NONE',  ( 4.000000000000000888, 0.1308039184816920386, 7.000000000000002665 ) ) ;
#282 = CARTESIAN_POINT ( 'NONE',  ( -4.000000000000000000, -9.891274455076596304E-22, -7.000000000000001776 ) ) ;
#283 = VERTEX_POINT ( 'NONE', #777 ) ;
#284 = FACE_OUTER_BOUND ( 'NONE', #122, .T. ) ;
#285 = CARTESIAN_POINT ( 'NONE',  ( 5.999999999999999112, 7.347880794884118750E-16, 10.00000000000000000 ) ) ;
#286 = ORIENTED_EDGE ( 'NONE', *, *, #117, .F. ) ;
#287 = AXIS2_PLACEMENT_3D ( 'NONE', #82, #585, #460 ) ;
#288 = DIRECTION ( 'NONE',  ( 1.000000000000000000, -0.000000000000000000, -0.000000000000000000 ) ) ;
#289 = ORIENTED_EDGE ( 'NONE', *, *, #424, .T. ) ;
#290 = CARTESIAN_POINT ( 'NONE',  ( 0.000000000000000000, 0.000000000000000000, 10.00000000000000000 ) ) ;
#291 = CARTESIAN_POINT ( 'NONE',  ( -5.999999999999999112, 0.000000000000000000, 10.00000000000000000 ) ) ;
#292 = CARTESIAN_POINT ( 'NONE',  ( 5.969096820685153126, 0.6152055445546381618, -6.799049686702675288 ) ) ;
#293 = CALENDAR_DATE ( 2026, 1, 9 ) ;
#294 = EDGE_CURVE ( 'NONE', #131, #596, #130, .T. ) ;
#295 = CARTESIAN_POINT ( 'NONE',  ( -3.903976002541358792, -0.8727396029839832314, -6.505646668562387269 ) ) ;
#296 = DIRECTION ( 'NONE',  ( 1.000000000000000000, -0.000000000000000000, -0.000000000000000000 ) ) ;
#297 = CARTESIAN_POINT ( 'NONE',  ( 6.000000000000000888, 0.1306497350717336636, -5.000000000000000000 ) ) ;
#298 = DATE_AND_TIME ( #789, #245 ) ;
#299 = ORIENTED_EDGE ( 'NONE', *, *, #780, .T. ) ;
#300 = CARTESIAN_POINT ( 'NONE',  ( -3.969869395575870819, 0.5048887612555239546, -5.126926490991847274 ) ) ;
#301 = CARTESIAN_POINT ( 'NONE',  ( 5.916071405810141570, 1.000049560716555597, -5.869677990115323318 ) ) ;
#302 = UNCERTAINTY_MEASURE_WITH_UNIT (LENGTH_MEASURE( 1.000000000000000082E-05 ), #584, 'distance_accuracy_value', 'NONE');
#303 = DATE_AND_TIME ( #293, #76 ) ;
#304 = CARTESIAN_POINT ( 'NONE',  ( -3.920467691607483651, 0.7991479083213426371, -5.384990152480200187 ) ) ;
#305 = CARTESIAN_POINT ( 'NONE',  ( -3.879973766560979254, 0.9739130422342942017, 5.737614112020435364 ) ) ;
#306 = AXIS2_PLACEMENT_3D ( 'NONE', #684, #376, #757 ) ;
#307 = PRODUCT_RELATED_PRODUCT_CATEGORY ( 'detail', '', ( #623 ) ) ;
#308 = AXIS2_PLACEMENT_3D ( 'NONE', #710, #274, #714 ) ;
#309 = CARTESIAN_POINT ( 'NONE',  ( 4.000000000000000888, 0.1308391772901019434, -4.999999999999999112 ) ) ;
#310 = FACE_OUTER_BOUND ( 'NONE', #55, .T. ) ;
#311 = EDGE_CURVE ( 'NONE', #788, #638, #165, .T. ) ;
#312 = ORIENTED_EDGE ( 'NONE', *, *, #780, .F. ) ;
#313 = CARTESIAN_POINT ( 'NONE',  ( -5.979990686694992341, 0.5044069930203338714, -5.126642567720957722 ) ) ;
#314 = CARTESIAN_POINT ( 'NONE',  ( 6.000000000000000888, -0.1306497350717323869, 7.000000000000002665 ) ) ;
#315 = EDGE_LOOP ( 'NONE', ( #299, #204 ) ) ;
#316 = CARTESIAN_POINT ( 'NONE',  ( -5.920671847850514702, -0.9737778612005489887, -6.262636241153495043 ) ) ;
#317 = CARTESIAN_POINT ( 'NONE',  ( -4.000000000000000000, -4.134078698859513570E-18, 7.000000000000001776 ) ) ;
#318 = ORIENTED_EDGE ( 'NONE', *, *, #769, .T. ) ;
#319 = EDGE_CURVE ( 'NONE', #228, #143, #339, .T. ) ;
#320 = CARTESIAN_POINT ( 'NONE',  ( 4.000000000000000000, 4.898587196589412829E-16, 10.00000000000000000 ) ) ;
#321 = CARTESIAN_POINT ( 'NONE',  ( 5.999999999999999112, 7.347880794884118750E-16, 10.00000000000000000 ) ) ;
#322 = CARTESIAN_POINT ( 'NONE',  ( -3.872997553993024589, -0.9999449734778005361, 6.131452763206869605 ) ) ;
#323 = EDGE_LOOP ( 'NONE', ( #445, #85, #289, #741 ) ) ;
#324 = CARTESIAN_POINT ( 'NONE',  ( 4.000000000000000888, -0.1326759759031827524, -7.000000000000001776 ) ) ;
#325 = CARTESIAN_POINT ( 'NONE',  ( -5.980031194523149907, 0.5039079366032431784, -6.873629318901871343 ) ) ;
#326 = CARTESIAN_POINT ( 'NONE',  ( 5.920699391845023030, -0.9735856429312850224, 5.737147160932726919 ) ) ;
#327 = EDGE_LOOP ( 'NONE', ( #72, #350, #538, #682 ) ) ;
#328 = CARTESIAN_POINT ( 'NONE',  ( 3.903788882833200802, -0.8735372258408634627, 5.496133832113259565 ) ) ;
#329 = CARTESIAN_POINT ( 'NONE',  ( 5.999999999999999112, 3.478057330786736548E-17, 4.999999999999998224 ) ) ;
#330 = ORIENTED_EDGE ( 'NONE', *, *, #745, .F. ) ;
#331 = CARTESIAN_POINT ( 'NONE',  ( 3.903976002541358348, 0.8727396029839832314, 6.505646668562388157 ) ) ;
#332 = CC_DESIGN_PERSON_AND_ORGANIZATION_ASSIGNMENT ( #115, #477, ( #508 ) ) ;
#333 = CYLINDRICAL_SURFACE ( 'NONE', #287, 1.000000000000001776 ) ;
#334 = CARTESIAN_POINT ( 'NONE',  ( 5.969051238897252532, -0.6156307853269494812, -6.798705734106811782 ) ) ;
#335 = EDGE_CURVE ( 'NONE', #64, #283, #49, .T. ) ;
#336 = CARTESIAN_POINT ( 'NONE',  ( 5.947301735519284094, 0.7988914244718244850, 6.615437108313815706 ) ) ;
#337 = CARTESIAN_POINT ( 'NONE',  ( -5.920699391845023030, -0.9735856429312850224, 6.262852839067272193 ) ) ;
#338 = DIRECTION ( 'NONE',  ( 0.000000000000000000, 0.000000000000000000, 1.000000000000000000 ) ) ;
#339 = B_SPLINE_CURVE_WITH_KNOTS ( 'NONE', 3,
 ( #93, #414, #663, #105, #399, #531, #295, #220, #95, #607, #645, #212, #357, #653, #32, #342, #280, #467 ),
 .UNSPECIFIED., .F., .F.,
 ( 4, 2, 2, 2, 2, 2, 2, 2, 4 ),
 ( 0.003138948259726314152, 0.003531211055919537475, 0.003923473852112760799, 0.004315736648305984122, 0.004707999444499207445, 0.005100262240692430768, 0.005492525036885653224, 0.005884787833078876547, 0.006277050629272099870 ),
 .UNSPECIFIED. ) ;
#340 = CARTESIAN_POINT ( 'NONE',  ( 5.979983180450074265, 0.5042987395407718676, 5.126706958200229813 ) ) ;
#341 = EDGE_LOOP ( 'NONE', ( #441, #408, #249, #116 ) ) ;
#342 = CARTESIAN_POINT ( 'NONE',  ( -3.993101993507430780, -0.2641148760630696590, -5.026736933896597037 ) ) ;
#343 = CARTESIAN_POINT ( 'NONE',  ( 4.000000000000000000, -4.134078698859513570E-18, 4.999999999999998224 ) ) ;
#344 = DIRECTION ( 'NONE',  ( -0.000000000000000000, -0.000000000000000000, -1.000000000000000000 ) ) ;
#345 = AXIS2_PLACEMENT_3D ( 'NONE', #581, #719, #275 ) ;
#346 = LINE ( 'NONE', #774, #559 ) ;
#347 = CARTESIAN_POINT ( 'NONE',  ( 4.000000000000000000, 4.898597087858433640E-16, 7.000000000000001776 ) ) ;
#348 = B_SPLINE_CURVE_WITH_KNOTS ( 'NONE', 3,
 ( #619, #545, #807, #247, #499, #746, #186, #795, #439, #608, #487, #734, #514, #258, #760, #87, #324, #578 ),
 .UNSPECIFIED., .F., .F.,
 ( 4, 2, 2, 2, 2, 2, 2, 2, 4 ),
 ( 0.003138948259726313719, 0.003531211055919537042, 0.003923473852112759931, 0.004315736648305983254, 0.004707999444499206577, 0.005100262240692429901, 0.005492525036885653224, 0.005884787833078876547, 0.006277050629272099870 ),
 .UNSPECIFIED. ) ;
#349 = DIRECTION ( 'NONE',  ( 0.000000000000000000, 0.000000000000000000, -1.000000000000000000 ) ) ;
#350 = ORIENTED_EDGE ( 'NONE', *, *, #610, .T. ) ;
#351 = B_SPLINE_CURVE_WITH_KNOTS ( 'NONE', 3,
 ( #523, #772, #216, #396, #149, #648, #91, #337, #587, #375, #700, #2, #625, #253, #390, #567, #128, #637 ),
 .UNSPECIFIED., .F., .F.,
 ( 4, 2, 2, 2, 2, 2, 2, 2, 4 ),
 ( 3.379126506159063230E-20, 0.0003914904498596255512, 0.0007829808997192509940, 0.001174471349578876545, 0.001565961799438501988, 0.001957452249298127431, 0.002348942699157753090, 0.002740433149017378316, 0.003131923598877003976 ),
 .UNSPECIFIED. ) ;
#352 = APPROVAL_ROLE ( '' ) ;
#353 = FACE_OUTER_BOUND ( 'NONE', #752, .T. ) ;
#354 = CARTESIAN_POINT ( 'NONE',  ( -5.969051238897253420, 0.6156307853269497032, 6.798705734106810894 ) ) ;
#355 = DIRECTION ( 'NONE',  ( 1.000000000000000000, -0.000000000000000000, -0.000000000000000000 ) ) ;
#356 = SHAPE_DEFINITION_REPRESENTATION ( #250, #65 ) ;
#357 = CARTESIAN_POINT ( 'NONE',  ( -3.920449918490174657, -0.7992216017350888269, -5.385112855254420516 ) ) ;
#358 = CARTESIAN_POINT ( 'NONE',  ( -5.920636045238165224, 0.9739805876847945632, 6.261713868144225259 ) ) ;
#359 = CARTESIAN_POINT ( 'NONE',  ( 5.969238533166610239, 0.6139908388540981088, -5.199776279120123412 ) ) ;
#360 = ADVANCED_FACE ( 'NONE', ( #284 ), #421, .F. ) ;
#361 = CARTESIAN_POINT ( 'NONE',  ( -3.999999999999999112, 0.1327117393334320550, -4.999999999999997335 ) ) ;
#362 = CARTESIAN_POINT ( 'NONE',  ( 5.936248257219507884, 0.8737888311110051376, -6.503441851412169683 ) ) ;
#363 = APPLICATION_PROTOCOL_DEFINITION ( 'international standard', 'config_control_design', 1994, #370 ) ;
#364 = EDGE_LOOP ( 'NONE', ( #577, #448, #422, #235, #318, #630, #803, #126, #244, #158, #387, #392 ) ) ;
#365 = CARTESIAN_POINT ( 'NONE',  ( 3.920392233738140053, 0.7996175296367110663, -5.385363875576777204 ) ) ;
#366 = CARTESIAN_POINT ( 'NONE',  ( 5.995505046955614148, 0.2619456584322036319, -5.026071939286478774 ) ) ;
#367 = APPROVAL ( #425, 'UNSPECIFIED' ) ;
#368 = DATE_TIME_ROLE ( 'classification_date' ) ;
#369 = CARTESIAN_POINT ( 'NONE',  ( -10.00000000000000000, 0.000000000000000000, 6.000000000000000000 ) ) ;
#370 = APPLICATION_CONTEXT ( 'configuration controlled 3d designs of mechanical parts and assemblies' ) ;
#371 = CARTESIAN_POINT ( 'NONE',  ( -10.00000000000000000, 1.224646799147355179E-16, -4.999999999999998224 ) ) ;
#372 = AXIS2_PLACEMENT_3D ( 'NONE', #112, #620, #665 ) ;
#373 = EDGE_LOOP ( 'NONE', ( #10, #68, #763, #809 ) ) ;
#374 = CARTESIAN_POINT ( 'NONE',  ( -5.999999999999999112, -3.478057330786736548E-17, -4.999999999999998224 ) ) ;
#375 = CARTESIAN_POINT ( 'NONE',  ( -5.916071405810141570, -1.000049560716555597, 5.869677990115323318 ) ) ;
#376 = DIRECTION ( 'NONE',  ( 0.000000000000000000, 0.000000000000000000, 1.000000000000000000 ) ) ;
#377 = CARTESIAN_POINT ( 'NONE',  ( 5.916071405810141570, -1.000049560716555153, 6.130322009884675794 ) ) ;
#378 = ORIENTED_EDGE ( 'NONE', *, *, #108, .F. ) ;
#379 = CARTESIAN_POINT ( 'NONE',  ( 5.936246475285030577, 0.8738118504725673752, 5.496427578257567781 ) ) ;
#380 = CARTESIAN_POINT ( 'NONE',  ( -5.999999999999999112, 0.000000000000000000, 10.00000000000000000 ) ) ;
#381 = CYLINDRICAL_SURFACE ( 'NONE', #480, 5.999999999999999112 ) ;
#382 = ORIENTED_EDGE ( 'NONE', *, *, #626, .T. ) ;
#383 = CARTESIAN_POINT ( 'NONE',  ( 3.993201599367473875, -0.2629004868407572304, 5.026319689326707696 ) ) ;
#384 = CIRCLE ( 'NONE', #239, 4.000000000000000000 ) ;
#385 = CARTESIAN_POINT ( 'NONE',  ( -5.999999999999999112, -0.1306171417088610176, -7.000000000000001776 ) ) ;
#386 = CARTESIAN_POINT ( 'NONE',  ( 6.000000000000000000, -0.1323933160975633572, 4.999999999999998224 ) ) ;
#387 = ORIENTED_EDGE ( 'NONE', *, *, #246, .F. ) ;
#388 = B_SPLINE_CURVE_WITH_KNOTS ( 'NONE', 3,
 ( #432, #800, #554, #429, #437, #237, #677, #305, #119, #107, #230, #735, #728, #796, #738, #492, #486, #183 ),
 .UNSPECIFIED., .F., .F.,
 ( 4, 2, 2, 2, 2, 2, 2, 2, 4 ),
 ( 0.003138948259726314152, 0.003531211055919537475, 0.003923473852112760799, 0.004315736648305984122, 0.004707999444499207445, 0.005100262240692430768, 0.005492525036885653224, 0.005884787833078876547, 0.006277050629272099870 ),
 .UNSPECIFIED. ) ;
#389 = CARTESIAN_POINT ( 'NONE',  ( 4.000000000000000000, -0.1327117393334319995, 4.999999999999999112 ) ) ;
#390 = CARTESIAN_POINT ( 'NONE',  ( -5.980031194523149907, -0.5039079366032431784, 5.126370681098129545 ) ) ;
#391 = VECTOR ( 'NONE', #589, 1000.000000000000000 ) ;
#392 = ORIENTED_EDGE ( 'NONE', *, *, #794, .F. ) ;
#393 = DIRECTION ( 'NONE',  ( 0.000000000000000000, 0.000000000000000000, -1.000000000000000000 ) ) ;
#394 = DIRECTION ( 'NONE',  ( 1.000000000000000000, -0.000000000000000000, -0.000000000000000000 ) ) ;
#395 = EDGE_CURVE ( 'NONE', #452, #143, #110, .T. ) ;
#396 = CARTESIAN_POINT ( 'NONE',  ( -5.979990686694992341, -0.5044069930203338714, 6.873357432279043167 ) ) ;
#397 = CARTESIAN_POINT ( 'NONE',  ( 3.872972725026414320, 1.000041135659531122, 5.868394576239722937 ) ) ;
#398 = CARTESIAN_POINT ( 'NONE',  ( 4.000000000000000000, 4.898587196589412829E-16, 10.00000000000000000 ) ) ;
#399 = CARTESIAN_POINT ( 'NONE',  ( -3.953614380922479743, -0.6145853434051685715, -6.799553862224012590 ) ) ;
#400 = DIRECTION ( 'NONE',  ( 0.000000000000000000, 0.000000000000000000, 1.000000000000000000 ) ) ;
#401 = CARTESIAN_POINT ( 'NONE',  ( 4.000000000000000000, 4.898587196589412829E-16, 10.00000000000000000 ) ) ;
#402 = AXIS2_PLACEMENT_3D ( 'NONE', #733, #678, #662 ) ;
#403 = CARTESIAN_POINT ( 'NONE',  ( -5.916093360767513687, 0.9999196734182665969, 5.867259559550686454 ) ) ;
#404 = DIRECTION ( 'NONE',  ( 1.000000000000000000, -0.000000000000000000, -0.000000000000000000 ) ) ;
#405 = CIRCLE ( 'NONE', #615, 4.000000000000000000 ) ;
#406 = AXIS2_PLACEMENT_3D ( 'NONE', #711, #338, #29 ) ;
#407 = DIRECTION ( 'NONE',  ( 1.000000000000000000, 0.000000000000000000, 0.000000000000000000 ) ) ;
#408 = ORIENTED_EDGE ( 'NONE', *, *, #45, .F. ) ;
#409 = DIRECTION ( 'NONE',  ( 1.000000000000000000, 0.000000000000000000, 0.000000000000000000 ) ) ;
#410 = CARTESIAN_POINT ( 'NONE',  ( -4.000000000000000000, 0.000000000000000000, -10.00000000000000000 ) ) ;
#411 = ORIENTED_EDGE ( 'NONE', *, *, #103, .T. ) ;
#412 = VECTOR ( 'NONE', #180, 1000.000000000000000 ) ;
#413 = PERSON_AND_ORGANIZATION_ROLE ( 'design_owner' ) ;
#414 = CARTESIAN_POINT ( 'NONE',  ( -4.000000000000000888, -0.1308039184816915945, -7.000000000000001776 ) ) ;
#415 = CARTESIAN_POINT ( 'NONE',  ( -5.920671847850514702, 0.9737778612005489887, 5.737363758846502293 ) ) ;
#416 = EDGE_CURVE ( 'NONE', #140, #788, #351, .T. ) ;
#417 = CARTESIAN_POINT ( 'NONE',  ( -6.000000000000000000, -0.1323602877612180262, -4.999999999999999112 ) ) ;
#418 = CC_DESIGN_DATE_AND_TIME_ASSIGNMENT ( #181, #368, ( #508 ) ) ;
#419 = B_SPLINE_CURVE_WITH_KNOTS ( 'NONE', 3,
 ( #171, #590, #31, #541, #791, #730, #490, #113, #611, #58, #242, #495, #365, #553, #56, #174, #309, #737 ),
 .UNSPECIFIED., .F., .F.,
 ( 4, 2, 2, 2, 2, 2, 2, 2, 4 ),
 ( 4.015188034936748514E-21, 0.0003923685324657892148, 0.0007847370649315784296, 0.001177105597397367590, 0.001569474129863156859, 0.001961842662328946128, 0.002354211194794735180, 0.002746579727260524666, 0.003138948259726313719 ),
 .UNSPECIFIED. ) ;
#420 = PERSON_AND_ORGANIZATION ( #175, #573 ) ;
#421 = CYLINDRICAL_SURFACE ( 'NONE', #308, 1.000000000000001776 ) ;
#422 = ORIENTED_EDGE ( 'NONE', *, *, #484, .T. ) ;
#423 = CARTESIAN_POINT ( 'NONE',  ( 5.979990686694992341, 0.5044069930203338714, -6.873357432279043167 ) ) ;
#424 = EDGE_CURVE ( 'NONE', #195, #228, #263, .T. ) ;
#425 = APPROVAL_STATUS ( 'not_yet_approved' ) ;
#426 = ORIENTED_EDGE ( 'NONE', *, *, #262, .F. ) ;
#427 = CC_DESIGN_SECURITY_CLASSIFICATION ( #508, ( #458 ) ) ;
#428 = CARTESIAN_POINT ( 'NONE',  ( 5.999999999999999112, 7.347880347662832066E-16, -4.999999999999998224 ) ) ;
#429 = CARTESIAN_POINT ( 'NONE',  ( -3.969995828464051968, 0.5037600891934789216, 5.126369050917082504 ) ) ;
#430 = VERTEX_POINT ( 'NONE', #329 ) ;
#431 = CARTESIAN_POINT ( 'NONE',  ( -3.953463112640607680, 0.6154946931554466927, -5.201225454450264962 ) ) ;
#432 = CARTESIAN_POINT ( 'NONE',  ( -4.000000000000000000, 9.891274455076596304E-22, 4.999999999999998224 ) ) ;
#433 = CALENDAR_DATE ( 2026, 1, 9 ) ;
#434 = ORIENTED_EDGE ( 'NONE', *, *, #395, .T. ) ;
#435 = ADVANCED_FACE ( 'NONE', ( #142 ), #381, .T. ) ;
#436 = CARTESIAN_POINT ( 'NONE',  ( -4.000000000000000888, 0.1308391772901015826, -7.000000000000002665 ) ) ;
#437 = CARTESIAN_POINT ( 'NONE',  ( -3.953614380922479743, 0.6145853434051685715, 5.200446137775988298 ) ) ;
#438 = EDGE_LOOP ( 'NONE', ( #717, #698, #36, #661 ) ) ;
#439 = CARTESIAN_POINT ( 'NONE',  ( 3.872993992554537801, -0.9999587668730113288, -5.867770180639414690 ) ) ;
#440 = DIRECTION ( 'NONE',  ( -0.000000000000000000, -0.000000000000000000, -1.000000000000000000 ) ) ;
#441 = ORIENTED_EDGE ( 'NONE', *, *, #610, .F. ) ;
#442 = CARTESIAN_POINT ( 'NONE',  ( -5.947135855825865569, 0.8002302970946547633, -6.613982267877006826 ) ) ;
#443 = ADVANCED_FACE ( 'NONE', ( #199, #576 ), #687, .F. ) ;
#444 = CARTESIAN_POINT ( 'NONE',  ( 0.000000000000000000, 0.000000000000000000, 10.00000000000000000 ) ) ;
#445 = ORIENTED_EDGE ( 'NONE', *, *, #395, .F. ) ;
#446 = CARTESIAN_POINT ( 'NONE',  ( -4.000000000000000000, 9.891274455076596304E-22, 4.999999999999998224 ) ) ;
#447 = DIRECTION ( 'NONE',  ( -1.000000000000000000, 0.000000000000000000, 0.000000000000000000 ) ) ;
#448 = ORIENTED_EDGE ( 'NONE', *, *, #294, .T. ) ;
#449 = DIRECTION ( 'NONE',  ( -0.000000000000000000, -0.000000000000000000, -1.000000000000000000 ) ) ;
#450 = CARTESIAN_POINT ( 'NONE',  ( -5.999999999999999112, 0.1323933160975633294, -4.999999999999999112 ) ) ;
#451 = CARTESIAN_POINT ( 'NONE',  ( -3.920392233738140053, -0.7996175296367108443, 5.385363875576777204 ) ) ;
#452 = VERTEX_POINT ( 'NONE', #78 ) ;
#453 = APPROVAL ( #606, 'UNSPECIFIED' ) ;
#454 = CARTESIAN_POINT ( 'NONE',  ( 3.920467691607482763, -0.7991479083213427481, 5.384990152480200187 ) ) ;
#455 = CARTESIAN_POINT ( 'NONE',  ( 5.920620690450685508, -0.9740807849836142784, 6.261498802993307855 ) ) ;
#456 = EDGE_LOOP ( 'NONE', ( #722, #254 ) ) ;
#457 = DIRECTION ( 'NONE',  ( 0.000000000000000000, 0.000000000000000000, -1.000000000000000000 ) ) ;
#458 = PRODUCT_DEFINITION_FORMATION_WITH_SPECIFIED_SOURCE ( 'ANY', '', #623, .NOT_KNOWN. ) ;
#459 = EDGE_CURVE ( 'NONE', #430, #507, #462, .T. ) ;
#460 = DIRECTION ( 'NONE',  ( 0.000000000000000000, 0.000000000000000000, -1.000000000000000000 ) ) ;
#461 = CARTESIAN_POINT ( 'NONE',  ( -3.953463112640607680, -0.6154946931554466927, 6.798774545549736814 ) ) ;
#462 = B_SPLINE_CURVE_WITH_KNOTS ( 'NONE', 3,
 ( #203, #386, #194, #63, #18, #758, #571, #326, #270, #377, #455, #256, #521, #506, #629, #67, #314, #562 ),
 .UNSPECIFIED., .F., .F.,
 ( 4, 2, 2, 2, 2, 2, 2, 2, 4 ),
 ( 3.379126506159063230E-20, 0.0003914904498596257680, 0.0007829808997192512108, 0.001174471349578876545, 0.001565961799438502205, 0.001957452249298127864, 0.002348942699157753090, 0.002740433149017379184, 0.003131923598877004843 ),
 .UNSPECIFIED. ) ;
#463 = CARTESIAN_POINT ( 'NONE',  ( 5.969178481556065563, 0.6144377077729914483, 6.799660331422638038 ) ) ;
#464 = CARTESIAN_POINT ( 'NONE',  ( 5.936362132114462398, -0.8730424326980924521, -5.495006902185634701 ) ) ;
#465 = DIRECTION ( 'NONE',  ( 1.000000000000000000, -0.000000000000000000, -0.000000000000000000 ) ) ;
#466 = CARTESIAN_POINT ( 'NONE',  ( -5.999999999999999112, 4.472210243878960127E-23, 4.999999999999998224 ) ) ;
#467 = CARTESIAN_POINT ( 'NONE',  ( -4.000000000000000000, 4.134078698859513570E-18, -4.999999999999998224 ) ) ;
#468 = ADVANCED_FACE ( 'NONE', ( #751 ), #754, .F. ) ;
#469 = CARTESIAN_POINT ( 'NONE',  ( 3.880024974703066398, 0.9736797867424588082, 5.737322685224671481 ) ) ;
#470 = DIRECTION ( 'NONE',  ( 1.000000000000000000, 0.000000000000000000, 0.000000000000000000 ) ) ;
#471 = CARTESIAN_POINT ( 'NONE',  ( -5.936362132114462398, 0.8730424326980924521, 5.495006902185635589 ) ) ;
#472 = CARTESIAN_POINT ( 'NONE',  ( 5.995472630654517410, -0.2624013748573162386, -5.026285596910823550 ) ) ;
#473 = CARTESIAN_POINT ( 'NONE',  ( -10.00000000000000000, 0.000000000000000000, -6.000000000000000000 ) ) ;
#474 = VECTOR ( 'NONE', #449, 1000.000000000000000 ) ;
#475 = CARTESIAN_POINT ( 'NONE',  ( 4.000000000000000000, 4.898577305309523487E-16, -4.999999999999998224 ) ) ;
#476 = CARTESIAN_POINT ( 'NONE',  ( -5.947211616899245712, 0.7995298244854598391, 6.614560146198586565 ) ) ;
#477 = PERSON_AND_ORGANIZATION_ROLE ( 'classification_officer' ) ;
#478 = EDGE_CURVE ( 'NONE', #759, #638, #167, .T. ) ;
#479 = CARTESIAN_POINT ( 'NONE',  ( -10.00000000000000000, 1.224646799147355179E-16, 7.000000000000001776 ) ) ;
#480 = AXIS2_PLACEMENT_3D ( 'NONE', #191, #579, #447 ) ;
#481 = CC_DESIGN_DATE_AND_TIME_ASSIGNMENT ( #298, #736, ( #41 ) ) ;
#482 = ORIENTED_EDGE ( 'NONE', *, *, #769, .F. ) ;
#483 = APPROVAL_DATE_TIME ( #50, #558 ) ;
#484 = EDGE_CURVE ( 'NONE', #596, #759, #187, .T. ) ;
#485 = ORIENTED_EDGE ( 'NONE', *, *, #459, .T. ) ;
#486 = CARTESIAN_POINT ( 'NONE',  ( -4.000000000000000888, 0.1326759759031826968, 7.000000000000001776 ) ) ;
#487 = CARTESIAN_POINT ( 'NONE',  ( 3.880024974703065510, -0.9736797867424590303, -6.262677314775328519 ) ) ;
#488 = CARTESIAN_POINT ( 'NONE',  ( 5.995491482261826377, 0.2622916576876613282, -6.973849426468137658 ) ) ;
#489 = ORIENTED_EDGE ( 'NONE', *, *, #478, .T. ) ;
#490 = CARTESIAN_POINT ( 'NONE',  ( 3.903788882833201246, 0.8735372258408633517, -6.503866167886741323 ) ) ;
#491 = AXIS2_PLACEMENT_3D ( 'NONE', #659, #764, #393 ) ;
#492 = CARTESIAN_POINT ( 'NONE',  ( -3.993101993507430780, 0.2641148760630696590, 6.973263066103405627 ) ) ;
#493 = ORIENTED_EDGE ( 'NONE', *, *, #745, .T. ) ;
#494 = VECTOR ( 'NONE', #70, 1000.000000000000000 ) ;
#495 = CARTESIAN_POINT ( 'NONE',  ( 3.903862007818517998, 0.8732369880725072697, -5.495287998594875489 ) ) ;
#496 = CARTESIAN_POINT ( 'NONE',  ( -5.969051238897253420, -0.6156307853269497032, -5.201294265893190882 ) ) ;
#497 = CC_DESIGN_APPROVAL ( #558, ( #41 ) ) ;
#498 = ORIENTED_EDGE ( 'NONE', *, *, #102, .T. ) ;
#499 = CARTESIAN_POINT ( 'NONE',  ( 3.953614380922479743, -0.6145853434051681274, -5.200446137775986521 ) ) ;
#500 = CARTESIAN_POINT ( 'NONE',  ( -5.947240459526507372, 0.7993282387951125001, -5.385156417830424758 ) ) ;
#501 = CARTESIAN_POINT ( 'NONE',  ( -5.980084330432665851, -0.5031281619707743680, -6.873977272554742335 ) ) ;
#502 = DIRECTION ( 'NONE',  ( -0.000000000000000000, -0.000000000000000000, -1.000000000000000000 ) ) ;
#503 = VERTEX_POINT ( 'NONE', #321 ) ;
#504 = EDGE_CURVE ( 'NONE', #788, #452, #190, .T. ) ;
#505 = CARTESIAN_POINT ( 'NONE',  ( -5.916093360767513687, -0.9999196734182665969, -6.132740440449313546 ) ) ;
#506 = CARTESIAN_POINT ( 'NONE',  ( 5.969238533166609351, -0.6139908388540969986, 6.800223720879874811 ) ) ;
#507 = VERTEX_POINT ( 'NONE', #632 ) ;
#508 = SECURITY_CLASSIFICATION ( '', '', #178 ) ;
#509 = CARTESIAN_POINT ( 'NONE',  ( 4.000000000000000000, -4.134078698859513570E-18, 4.999999999999998224 ) ) ;
#510 = CARTESIAN_POINT ( 'NONE',  ( -6.000000000000000888, 0.1306497350717332750, -7.000000000000002665 ) ) ;
#511 = CARTESIAN_POINT ( 'NONE',  ( -3.903862007818517998, -0.8732369880725072697, 5.495287998594875489 ) ) ;
#512 = VERTEX_POINT ( 'NONE', #123 ) ;
#513 = ADVANCED_FACE ( 'NONE', ( #636, #62 ), #570, .T. ) ;
#514 = CARTESIAN_POINT ( 'NONE',  ( 3.920449918490174213, -0.7992216017350894930, -6.614887144745578595 ) ) ;
#515 = CARTESIAN_POINT ( 'NONE',  ( 0.000000000000000000, 0.000000000000000000, -10.00000000000000000 ) ) ;
#516 = ORIENTED_EDGE ( 'NONE', *, *, #504, .F. ) ;
#517 = CIRCLE ( 'NONE', #306, 5.999999999999999112 ) ;
#518 = CARTESIAN_POINT ( 'NONE',  ( -5.999999999999999112, 0.000000000000000000, 10.00000000000000000 ) ) ;
#519 = CARTESIAN_POINT ( 'NONE',  ( -4.000000000000000000, 4.134078698859513570E-18, -4.999999999999998224 ) ) ;
#520 = VECTOR ( 'NONE', #355, 1000.000000000000000 ) ;
#521 = CARTESIAN_POINT ( 'NONE',  ( 5.947135855825864681, -0.8002302970946538752, 6.613982267877005938 ) ) ;
#522 = CARTESIAN_POINT ( 'NONE',  ( 3.879948393309026855, -0.9740030178010133932, 6.261906783063801996 ) ) ;
#523 = CARTESIAN_POINT ( 'NONE',  ( -5.999999999999999112, 3.478057330786736548E-17, 7.000000000000001776 ) ) ;
#524 = CARTESIAN_POINT ( 'NONE',  ( 3.879973766560979254, 0.9739130422342935356, 6.262385887979563748 ) ) ;
#525 = CARTESIAN_POINT ( 'NONE',  ( 5.916093360767513687, 0.9999196734182668189, 6.132740440449312658 ) ) ;
#526 = CARTESIAN_POINT ( 'NONE',  ( -6.000000000000000000, 0.1323602877612180262, 7.000000000000002665 ) ) ;
#527 = CARTESIAN_POINT ( 'NONE',  ( 5.920636045238165224, -0.9739805876847945632, -6.261713868144226147 ) ) ;
#528 = FACE_OUTER_BOUND ( 'NONE', #341, .T. ) ;
#529 = LINE ( 'NONE', #223, #24 ) ;
#530 = ORIENTED_EDGE ( 'NONE', *, *, #478, .F. ) ;
#531 = CARTESIAN_POINT ( 'NONE',  ( -3.920495757085995070, -0.7990587187661492008, -6.615228971107168121 ) ) ;
#532 = LINE ( 'NONE', #518, #60 ) ;
#533 = LINE ( 'NONE', #401, #391 ) ;
#534 = ORIENTED_EDGE ( 'NONE', *, *, #626, .F. ) ;
#535 = CIRCLE ( 'NONE', #276, 5.999999999999999112 ) ;
#536 = EDGE_CURVE ( 'NONE', #452, #195, #206, .T. ) ;
#537 = LINE ( 'NONE', #285, #233 ) ;
#538 = ORIENTED_EDGE ( 'NONE', *, *, #335, .T. ) ;
#539 = PERSON_AND_ORGANIZATION ( #175, #573 ) ;
#540 = EDGE_CURVE ( 'NONE', #503, #27, #517, .T. ) ;
#541 = CARTESIAN_POINT ( 'NONE',  ( 3.969869395575870819, 0.5048887612555237325, -6.873073509008152726 ) ) ;
#542 = CARTESIAN_POINT ( 'NONE',  ( 5.947240459526507372, 0.7993282387951127221, -6.614843582169574354 ) ) ;
#543 = MECHANICAL_CONTEXT ( 'NONE', #80, 'mechanical' ) ;
#544 = CARTESIAN_POINT ( 'NONE',  ( 5.999999999999999112, -0.1306171417088606013, -4.999999999999999112 ) ) ;
#545 = CARTESIAN_POINT ( 'NONE',  ( 4.000000000000000888, -0.1308039184816911782, -4.999999999999996447 ) ) ;
#546 = CARTESIAN_POINT ( 'NONE',  ( 5.999999999999999112, 7.347880347662832066E-16, -4.999999999999998224 ) ) ;
#547 = PERSON_AND_ORGANIZATION ( #175, #573 ) ;
#548 = EDGE_LOOP ( 'NONE', ( #330, #555 ) ) ;
#549 = CARTESIAN_POINT ( 'NONE',  ( -3.872997553993024589, 0.9999449734778005361, -5.868547236793132171 ) ) ;
#550 = CARTESIAN_POINT ( 'NONE',  ( 5.920699391845023030, 0.9735856429312844673, -6.262852839067273081 ) ) ;
#551 = COORDINATED_UNIVERSAL_TIME_OFFSET ( 5, 30, .AHEAD. ) ;
#552 = ORIENTED_EDGE ( 'NONE', *, *, #311, .T. ) ;
#553 = CARTESIAN_POINT ( 'NONE',  ( 3.953670644936868150, 0.6142897454956636194, -5.200116341130043729 ) ) ;
#554 = CARTESIAN_POINT ( 'NONE',  ( -3.993186561566759440, 0.2628729541220258259, 5.026396860804724476 ) ) ;
#555 = ORIENTED_EDGE ( 'NONE', *, *, #705, .F. ) ;
#556 = CARTESIAN_POINT ( 'NONE',  ( -3.879948393309026855, 0.9740030178010135042, -6.261906783063801107 ) ) ;
#557 = CYLINDRICAL_SURFACE ( 'NONE', #372, 5.999999999999999112 ) ;
#558 = APPROVAL ( #729, 'UNSPECIFIED' ) ;
#559 = VECTOR ( 'NONE', #94, 1000.000000000000000 ) ;
#560 = CARTESIAN_POINT ( 'NONE',  ( -5.920699391845023030, 0.9735856429312850224, -5.737147160932726919 ) ) ;
#561 = VECTOR ( 'NONE', #268, 1000.000000000000000 ) ;
#562 = CARTESIAN_POINT ( 'NONE',  ( 5.999999999999999112, 7.347881242104880842E-16, 7.000000000000001776 ) ) ;
#563 = ORIENTED_EDGE ( 'NONE', *, *, #319, .F. ) ;
#564 = EDGE_CURVE ( 'NONE', #195, #452, #749, .T. ) ;
#565 = CARTESIAN_POINT ( 'NONE',  ( -5.947301735519283206, -0.7988914244718235969, -6.615437108313815706 ) ) ;
#566 = MANIFOLD_SOLID_BREP ( 'Mirror1', #785 ) ;
#567 = CARTESIAN_POINT ( 'NONE',  ( -5.995505046955614148, -0.2619456584322029657, 5.026071939286478774 ) ) ;
#568 = ORIENTED_EDGE ( 'NONE', *, *, #277, .T. ) ;
#569 = CARTESIAN_POINT ( 'NONE',  ( 5.999999999999999112, 7.347880794884118750E-16, 10.00000000000000000 ) ) ;
#570 = PLANE ( 'NONE',  #761 ) ;
#571 = CARTESIAN_POINT ( 'NONE',  ( 5.936248257219506108, -0.8737888311110053596, 5.496558148587830317 ) ) ;
#572 = ORIENTED_EDGE ( 'NONE', *, *, #705, .T. ) ;
#573 = ORGANIZATION ( 'UNSPECIFIED', 'UNSPECIFIED', '' ) ;
#574 = CARTESIAN_POINT ( 'NONE',  ( 5.999999999999999112, 0.1306171417088619058, 7.000000000000000000 ) ) ;
#575 = EDGE_CURVE ( 'NONE', #283, #64, #17, .T. ) ;
#576 = FACE_BOUND ( 'NONE', #315, .T. ) ;
#577 = ORIENTED_EDGE ( 'NONE', *, *, #103, .F. ) ;
#578 = CARTESIAN_POINT ( 'NONE',  ( 4.000000000000000000, 4.134078698859513570E-18, -7.000000000000001776 ) ) ;
#579 = DIRECTION ( 'NONE',  ( -0.000000000000000000, -0.000000000000000000, -1.000000000000000000 ) ) ;
#580 = ORIENTED_EDGE ( 'NONE', *, *, #188, .T. ) ;
#581 = CARTESIAN_POINT ( 'NONE',  ( 0.000000000000000000, 0.000000000000000000, -10.00000000000000000 ) ) ;
#582 = CARTESIAN_POINT ( 'NONE',  ( 4.000000000000000000, 4.898597087858433640E-16, 7.000000000000001776 ) ) ;
#583 = CARTESIAN_POINT ( 'NONE',  ( 5.999999999999999112, -3.478057330786736548E-17, -7.000000000000001776 ) ) ;
#584 =( LENGTH_UNIT ( ) NAMED_UNIT ( * ) SI_UNIT ( .MILLI., .METRE. ) );
#585 = DIRECTION ( 'NONE',  ( 1.000000000000000000, -0.000000000000000000, -0.000000000000000000 ) ) ;
#586 = AXIS2_PLACEMENT_3D ( 'NONE', #721, #725, #161 ) ;
#587 = CARTESIAN_POINT ( 'NONE',  ( -5.916088184763879987, -0.9999502950802097168, 6.131081491900115310 ) ) ;
#588 = DIRECTION ( 'NONE',  ( 1.000000000000000000, -0.000000000000000000, -0.000000000000000000 ) ) ;
#589 = DIRECTION ( 'NONE',  ( -0.000000000000000000, -0.000000000000000000, -1.000000000000000000 ) ) ;
#590 = CARTESIAN_POINT ( 'NONE',  ( 3.999999999999999112, 0.1327117393334320550, -7.000000000000000888 ) ) ;
#591 = CARTESIAN_POINT ( 'NONE',  ( 5.980084330432666739, -0.5031281619707738129, -5.126022727445254112 ) ) ;
#592 = DIRECTION ( 'NONE',  ( 0.000000000000000000, 0.000000000000000000, 1.000000000000000000 ) ) ;
#593 = VECTOR ( 'NONE', #440, 1000.000000000000000 ) ;
#594 = DIRECTION ( 'NONE',  ( -0.000000000000000000, -0.000000000000000000, -1.000000000000000000 ) ) ;
#595 = VECTOR ( 'NONE', #404, 1000.000000000000000 ) ;
#596 = VERTEX_POINT ( 'NONE', #169 ) ;
#597 = CC_DESIGN_PERSON_AND_ORGANIZATION_ASSIGNMENT ( #420, #413, ( #623 ) ) ;
#598 = CARTESIAN_POINT ( 'NONE',  ( 3.872993992554538245, 0.9999587668730113288, 6.132229819360587086 ) ) ;
#599 = CARTESIAN_POINT ( 'NONE',  ( 6.000000000000000000, 0.1323602877612179984, 4.999999999999998224 ) ) ;
#600 = CARTESIAN_POINT ( 'NONE',  ( -5.995472630654518298, 0.2624013748573165716, 5.026285596910825326 ) ) ;
#601 = EDGE_CURVE ( 'NONE', #638, #759, #388, .T. ) ;
#602 = COORDINATED_UNIVERSAL_TIME_OFFSET ( 5, 30, .AHEAD. ) ;
#603 = CARTESIAN_POINT ( 'NONE',  ( 4.000000000000000000, 4.898587196589412829E-16, 10.00000000000000000 ) ) ;
#604 = CARTESIAN_POINT ( 'NONE',  ( -5.999999999999999112, 0.1306171417088610176, 4.999999999999999112 ) ) ;
#605 = CYLINDRICAL_SURFACE ( 'NONE', #739, 4.000000000000000000 ) ;
#606 = APPROVAL_STATUS ( 'not_yet_approved' ) ;
#607 = CARTESIAN_POINT ( 'NONE',  ( -3.872972725026414320, -1.000041135659531122, -5.868394576239723825 ) ) ;
#608 = CARTESIAN_POINT ( 'NONE',  ( 3.872972725026414764, -1.000041135659531122, -6.131605423760276175 ) ) ;
#609 = CARTESIAN_POINT ( 'NONE',  ( -5.979983180450074265, -0.5042987395407719786, -5.126706958200230702 ) ) ;
#610 = EDGE_CURVE ( 'NONE', #192, #64, #121, .T. ) ;
#611 = CARTESIAN_POINT ( 'NONE',  ( 3.872997553993024589, 0.9999449734778005361, -6.131452763206869605 ) ) ;
#612 = CARTESIAN_POINT ( 'NONE',  ( 5.999999999999999112, -3.478057330786736548E-17, -7.000000000000001776 ) ) ;
#613 = APPROVAL_PERSON_ORGANIZATION ( #53, #367, #352 ) ;
#614 = PERSON_AND_ORGANIZATION ( #175, #573 ) ;
#615 = AXIS2_PLACEMENT_3D ( 'NONE', #651, #30, #407 ) ;
#616 = CARTESIAN_POINT ( 'NONE',  ( 4.000000000000000000, -4.134078698859513570E-18, 4.999999999999998224 ) ) ;
#617 = CARTESIAN_POINT ( 'NONE',  ( -10.00000000000000000, 1.224646799147355179E-16, 7.000000000000001776 ) ) ;
#618 = VERTEX_POINT ( 'NONE', #732 ) ;
#619 = CARTESIAN_POINT ( 'NONE',  ( 4.000000000000000000, 4.898577305309523487E-16, -4.999999999999998224 ) ) ;
#620 = DIRECTION ( 'NONE',  ( -0.000000000000000000, -0.000000000000000000, -1.000000000000000000 ) ) ;
#621 = CC_DESIGN_PERSON_AND_ORGANIZATION_ASSIGNMENT ( #547, #238, ( #458 ) ) ;
#622 = ORIENTED_EDGE ( 'NONE', *, *, #129, .T. ) ;
#623 = PRODUCT ( 'Coupling_Default_sldprt', 'Coupling_Default_sldprt', '', ( #543 ) ) ;
#624 = CARTESIAN_POINT ( 'NONE',  ( -5.995491482261826377, 0.2622916576876613837, -5.026150573531862342 ) ) ;
#625 = CARTESIAN_POINT ( 'NONE',  ( -5.947135855825865569, -0.8002302970946547633, 5.386017732122991397 ) ) ;
#626 = EDGE_CURVE ( 'NONE', #140, #759, #673, .T. ) ;
#627 = EDGE_LOOP ( 'NONE', ( #279, #426, #568, #784, #634, #679, #43, #493, #671, #79, #286, #485 ) ) ;
#628 = CARTESIAN_POINT ( 'NONE',  ( 0.000000000000000000, 0.000000000000000000, 10.00000000000000000 ) ) ;
#629 = CARTESIAN_POINT ( 'NONE',  ( 5.980031194523149907, -0.5039079366032428453, 6.873629318901870455 ) ) ;
#630 = ORIENTED_EDGE ( 'NONE', *, *, #77, .T. ) ;
#631 = CARTESIAN_POINT ( 'NONE',  ( 5.947211616899244824, 0.7995298244854587288, 5.385439853801413435 ) ) ;
#632 = CARTESIAN_POINT ( 'NONE',  ( 5.999999999999999112, 7.347881242104880842E-16, 7.000000000000001776 ) ) ;
#633 = CARTESIAN_POINT ( 'NONE',  ( -3.920467691607483651, -0.7991479083213426371, 6.615009847519799813 ) ) ;
#634 = ORIENTED_EDGE ( 'NONE', *, *, #504, .T. ) ;
#635 = CARTESIAN_POINT ( 'NONE',  ( 5.999999999999999112, 7.347880794884118750E-16, 10.00000000000000000 ) ) ;
#636 = FACE_OUTER_BOUND ( 'NONE', #215, .T. ) ;
#637 = CARTESIAN_POINT ( 'NONE',  ( -5.999999999999999112, 4.472210243878960127E-23, 4.999999999999998224 ) ) ;
#638 = VERTEX_POINT ( 'NONE', #670 ) ;
#639 = LINE ( 'NONE', #569, #474 ) ;
#640 = CARTESIAN_POINT ( 'NONE',  ( -10.00000000000000000, 0.000000000000000000, -7.000000000000001776 ) ) ;
#641 = B_SPLINE_CURVE_WITH_KNOTS ( 'NONE', 3,
 ( #179, #361, #118, #300, #431, #304, #672, #799, #549, #680, #556, #51, #47, #120, #236, #805, #436, #676 ),
 .UNSPECIFIED., .F., .F.,
 ( 4, 2, 2, 2, 2, 2, 2, 2, 4 ),
 ( 4.015188034936748514E-21, 0.0003923685324657892690, 0.0007847370649315785381, 0.001177105597397367807, 0.001569474129863157076, 0.001961842662328946128, 0.002354211194794735614, 0.002746579727260525100, 0.003138948259726314152 ),
 .UNSPECIFIED. ) ;
#642 = ORIENTED_EDGE ( 'NONE', *, *, #416, .F. ) ;
#643 = CYLINDRICAL_SURFACE ( 'NONE', #696, 1.000000000000001776 ) ;
#644 = DIRECTION ( 'NONE',  ( 1.000000000000000000, -0.000000000000000000, -0.000000000000000000 ) ) ;
#645 = CARTESIAN_POINT ( 'NONE',  ( -3.880024974703066398, -0.9736797867424589192, -5.737322685224673258 ) ) ;
#646 = CC_DESIGN_PERSON_AND_ORGANIZATION_ASSIGNMENT ( #539, #109, ( #41 ) ) ;
#647 = FACE_OUTER_BOUND ( 'NONE', #373, .T. ) ;
#648 = CARTESIAN_POINT ( 'NONE',  ( -5.947240459526507372, -0.7993282387951125001, 6.614843582169574354 ) ) ;
#649 = ADVANCED_FACE ( 'NONE', ( #234 ), #557, .T. ) ;
#650 = FACE_OUTER_BOUND ( 'NONE', #438, .T. ) ;
#651 = CARTESIAN_POINT ( 'NONE',  ( 0.000000000000000000, 0.000000000000000000, 10.00000000000000000 ) ) ;
#652 = CARTESIAN_POINT ( 'NONE',  ( -5.999999999999999112, 3.478057330786736548E-17, 7.000000000000001776 ) ) ;
#653 = CARTESIAN_POINT ( 'NONE',  ( -3.953413208705572224, -0.6157976398963517228, -5.201479720889035541 ) ) ;
#654 = VECTOR ( 'NONE', #35, 1000.000000000000000 ) ;
#655 = CIRCLE ( 'NONE', #406, 4.000000000000000000 ) ;
#656 = CARTESIAN_POINT ( 'NONE',  ( 3.969995828464053744, 0.5037600891934793657, 6.873630949082918384 ) ) ;
#657 = CARTESIAN_POINT ( 'NONE',  ( 5.969051238897252532, 0.6156307853269485930, 5.201294265893188218 ) ) ;
#658 = CARTESIAN_POINT ( 'NONE',  ( -5.969178481556063787, 0.6144377077729902270, 5.200339668577359298 ) ) ;
#659 = CARTESIAN_POINT ( 'NONE',  ( -10.00000000000000000, 0.000000000000000000, 6.000000000000000000 ) ) ;
#660 = CARTESIAN_POINT ( 'NONE',  ( -10.00000000000000000, 0.000000000000000000, 6.000000000000000000 ) ) ;
#661 = ORIENTED_EDGE ( 'NONE', *, *, #177, .F. ) ;
#662 = DIRECTION ( 'NONE',  ( 1.000000000000000000, 0.000000000000000000, 0.000000000000000000 ) ) ;
#663 = CARTESIAN_POINT ( 'NONE',  ( -3.993186561566759440, -0.2628729541220258259, -6.973603139195279077 ) ) ;
#664 = EDGE_LOOP ( 'NONE', ( #534, #755, #552, #798 ) ) ;
#665 = DIRECTION ( 'NONE',  ( -1.000000000000000000, 0.000000000000000000, 0.000000000000000000 ) ) ;
#666 = APPROVAL_ROLE ( '' ) ;
#667 = VECTOR ( 'NONE', #69, 1000.000000000000000 ) ;
#668 = CARTESIAN_POINT ( 'NONE',  ( 5.979983180450074265, -0.5042987395407718676, -6.873293041799770187 ) ) ;
#669 = VERTEX_POINT ( 'NONE', #57 ) ;
#670 = CARTESIAN_POINT ( 'NONE',  ( -4.000000000000000000, 9.891274455076596304E-22, 4.999999999999998224 ) ) ;
#671 = ORIENTED_EDGE ( 'NONE', *, *, #188, .F. ) ;
#672 = CARTESIAN_POINT ( 'NONE',  ( -3.903788882833201246, 0.8735372258408632407, -5.496133832113258677 ) ) ;
#673 = LINE ( 'NONE', #617, #412 ) ;
#674 = APPROVAL_DATE_TIME ( #303, #453 ) ;
#675 = ORIENTED_EDGE ( 'NONE', *, *, #40, .F. ) ;
#676 = CARTESIAN_POINT ( 'NONE',  ( -4.000000000000000000, -9.891274455076596304E-22, -7.000000000000001776 ) ) ;
#677 = CARTESIAN_POINT ( 'NONE',  ( -3.903976002541358792, 0.8727396029839832314, 5.494353331437611843 ) ) ;
#678 = DIRECTION ( 'NONE',  ( 0.000000000000000000, 0.000000000000000000, 1.000000000000000000 ) ) ;
#679 = ORIENTED_EDGE ( 'NONE', *, *, #564, .F. ) ;
#680 = CARTESIAN_POINT ( 'NONE',  ( -3.872969183810250904, 1.000054850733511635, -6.130614219986236790 ) ) ;
#681 = CARTESIAN_POINT ( 'NONE',  ( -5.995407492418038053, -0.2638277032948922463, -5.026679447184821292 ) ) ;
#682 = ORIENTED_EDGE ( 'NONE', *, *, #162, .F. ) ;
#683 = ADVANCED_FACE ( 'NONE', ( #310 ), #605, .F. ) ;
#684 = CARTESIAN_POINT ( 'NONE',  ( 0.000000000000000000, 0.000000000000000000, 10.00000000000000000 ) ) ;
#685 = ORIENTED_EDGE ( 'NONE', *, *, #536, .F. ) ;
#686 = CARTESIAN_POINT ( 'NONE',  ( -5.936248257219507884, 0.8737888311110058037, -5.496558148587832093 ) ) ;
#687 = PLANE ( 'NONE',  #33 ) ;
#688 = ORIENTED_EDGE ( 'NONE', *, *, #709, .F. ) ;
#689 = CARTESIAN_POINT ( 'NONE',  ( 5.920636045238165224, 0.9739805876847941191, 5.738286131855773853 ) ) ;
#690 =( GEOMETRIC_REPRESENTATION_CONTEXT ( 3 ) GLOBAL_UNCERTAINTY_ASSIGNED_CONTEXT ( ( #302 ) ) GLOBAL_UNIT_ASSIGNED_CONTEXT ( ( #584, #89, #213 ) ) REPRESENTATION_CONTEXT ( 'NONE', 'WORKASPACE' ) );
#691 = CARTESIAN_POINT ( 'NONE',  ( -4.000000000000000888, -0.1308391772901015826, 4.999999999999999112 ) ) ;
#692 = CARTESIAN_POINT ( 'NONE',  ( -3.999999999999999112, -0.1327117393334320550, 7.000000000000000888 ) ) ;
#693 = ORIENTED_EDGE ( 'NONE', *, *, #277, .F. ) ;
#694 = CARTESIAN_POINT ( 'NONE',  ( 3.920392233738140941, -0.7996175296367102892, 6.614636124423223684 ) ) ;
#695 = CARTESIAN_POINT ( 'NONE',  ( -5.916071405810141570, 1.000049560716555597, -6.130322009884676682 ) ) ;
#696 = AXIS2_PLACEMENT_3D ( 'NONE', #473, #99, #457 ) ;
#697 = CARTESIAN_POINT ( 'NONE',  ( -3.953670644936868150, -0.6142897454956635084, 5.200116341130044617 ) ) ;
#698 = ORIENTED_EDGE ( 'NONE', *, *, #794, .T. ) ;
#699 = CARTESIAN_POINT ( 'NONE',  ( 3.872997553993025921, -0.9999449734778007581, 5.868547236793135724 ) ) ;
#700 = CARTESIAN_POINT ( 'NONE',  ( -5.920620690450686396, -0.9740807849836145005, 5.738501197006691257 ) ) ;
#701 = ORIENTED_EDGE ( 'NONE', *, *, #262, .T. ) ;
#702 = CARTESIAN_POINT ( 'NONE',  ( 3.920495757085995070, 0.7990587187661492008, 6.615228971107168121 ) ) ;
#703 = CARTESIAN_POINT ( 'NONE',  ( -10.00000000000000000, 0.000000000000000000, -6.000000000000000000 ) ) ;
#704 = EDGE_CURVE ( 'NONE', #669, #267, #384, .T. ) ;
#705 = EDGE_CURVE ( 'NONE', #135, #618, #726, .T. ) ;
#706 = CARTESIAN_POINT ( 'NONE',  ( 5.920671847850517366, -0.9737778612005492107, -5.737363758846504069 ) ) ;
#707 = CARTESIAN_POINT ( 'NONE',  ( 0.000000000000000000, 0.000000000000000000, -10.00000000000000000 ) ) ;
#708 = CARTESIAN_POINT ( 'NONE',  ( 3.903862007818519331, -0.8732369880725069367, 6.504712001405122734 ) ) ;
#709 = EDGE_CURVE ( 'NONE', #195, #618, #532, .T. ) ;
#710 = CARTESIAN_POINT ( 'NONE',  ( -10.00000000000000000, 0.000000000000000000, -6.000000000000000000 ) ) ;
#711 = CARTESIAN_POINT ( 'NONE',  ( 0.000000000000000000, 0.000000000000000000, -10.00000000000000000 ) ) ;
#712 = CARTESIAN_POINT ( 'NONE',  ( -10.00000000000000000, 0.000000000000000000, 4.999999999999998224 ) ) ;
#713 = ORIENTED_EDGE ( 'NONE', *, *, #177, .T. ) ;
#714 = DIRECTION ( 'NONE',  ( 0.000000000000000000, 0.000000000000000000, -1.000000000000000000 ) ) ;
#715 = DIRECTION ( 'NONE',  ( 1.000000000000000000, 0.000000000000000000, 0.000000000000000000 ) ) ;
#716 = CARTESIAN_POINT ( 'NONE',  ( 5.999999999999999112, 3.478057330786736548E-17, 4.999999999999998224 ) ) ;
#717 = ORIENTED_EDGE ( 'NONE', *, *, #222, .F. ) ;
#718 = CARTESIAN_POINT ( 'NONE',  ( 5.916093360767513687, -0.9999196734182665969, -5.867259559550686454 ) ) ;
#719 = DIRECTION ( 'NONE',  ( 0.000000000000000000, 0.000000000000000000, 1.000000000000000000 ) ) ;
#720 = ADVANCED_FACE ( 'NONE', ( #650 ), #781, .F. ) ;
#721 = CARTESIAN_POINT ( 'NONE',  ( 0.000000000000000000, 0.000000000000000000, 10.00000000000000000 ) ) ;
#722 = ORIENTED_EDGE ( 'NONE', *, *, #226, .F. ) ;
#723 = COORDINATED_UNIVERSAL_TIME_OFFSET ( 5, 30, .AHEAD. ) ;
#724 = VECTOR ( 'NONE', #84, 1000.000000000000000 ) ;
#725 = DIRECTION ( 'NONE',  ( 0.000000000000000000, 0.000000000000000000, 1.000000000000000000 ) ) ;
#726 = CIRCLE ( 'NONE', #34, 5.999999999999999112 ) ;
#727 = EDGE_LOOP ( 'NONE', ( #163, #622, #713, #39, #240, #580, #572, #688, #685, #516, #778, #693 ) ) ;
#728 = CARTESIAN_POINT ( 'NONE',  ( -3.920449918490174657, 0.7992216017350888269, 6.614887144745580372 ) ) ;
#729 = APPROVAL_STATUS ( 'not_yet_approved' ) ;
#730 = CARTESIAN_POINT ( 'NONE',  ( 3.920467691607483651, 0.7991479083213427481, -6.615009847519799813 ) ) ;
#731 = B_SPLINE_CURVE_WITH_KNOTS ( 'NONE', 3,
 ( #347, #281, #776, #656, #217, #702, #331, #524, #598, #397, #469, #155, #86, #144, #20, #271, #768, #343 ),
 .UNSPECIFIED., .F., .F.,
 ( 4, 2, 2, 2, 2, 2, 2, 2, 4 ),
 ( 0.003138948259726314586, 0.003531211055919537909, 0.003923473852112760799, 0.004315736648305984122, 0.004707999444499207445, 0.005100262240692430768, 0.005492525036885654091, 0.005884787833078877414, 0.006277050629272099870 ),
 .UNSPECIFIED. ) ;
#732 = CARTESIAN_POINT ( 'NONE',  ( -5.999999999999999112, 0.000000000000000000, -10.00000000000000000 ) ) ;
#733 = CARTESIAN_POINT ( 'NONE',  ( 0.000000000000000000, 0.000000000000000000, 0.000000000000000000 ) ) ;
#734 = CARTESIAN_POINT ( 'NONE',  ( 3.903780981627170910, -0.8735789483019654744, -6.503896338438820202 ) ) ;
#735 = CARTESIAN_POINT ( 'NONE',  ( -3.903780981627171354, 0.8735789483019649193, 6.503896338438821090 ) ) ;
#736 = DATE_TIME_ROLE ( 'creation_date' ) ;
#737 = CARTESIAN_POINT ( 'NONE',  ( 4.000000000000000000, 4.898577305309523487E-16, -4.999999999999998224 ) ) ;
#738 = CARTESIAN_POINT ( 'NONE',  ( -3.969858145330399157, 0.5048232406146755391, 6.873012691393491913 ) ) ;
#739 = AXIS2_PLACEMENT_3D ( 'NONE', #806, #59, #808 ) ;
#740 = COORDINATED_UNIVERSAL_TIME_OFFSET ( 5, 30, .AHEAD. ) ;
#741 = ORIENTED_EDGE ( 'NONE', *, *, #77, .F. ) ;
#742 = ADVANCED_FACE ( 'NONE', ( #221 ), #643, .F. ) ;
#743 = FACE_OUTER_BOUND ( 'NONE', #664, .T. ) ;
#744 = CARTESIAN_POINT ( 'NONE',  ( -5.999999999999999112, -3.478057330786736548E-17, -4.999999999999998224 ) ) ;
#745 = EDGE_CURVE ( 'NONE', #618, #135, #136, .T. ) ;
#746 = CARTESIAN_POINT ( 'NONE',  ( 3.920495757085995070, -0.7990587187661486457, -5.384771028892830103 ) ) ;
#747 = CARTESIAN_POINT ( 'NONE',  ( -5.999999999999999112, -4.472210243878960127E-23, -7.000000000000001776 ) ) ;
#748 = CC_DESIGN_APPROVAL ( #367, ( #508 ) ) ;
#749 = B_SPLINE_CURVE_WITH_KNOTS ( 'NONE', 3,
 ( #138, #385, #252, #501, #750, #565, #66, #316, #505, #753, #193, #114, #172, #496, #609, #681, #417, #744 ),
 .UNSPECIFIED., .F., .F.,
 ( 4, 2, 2, 2, 2, 2, 2, 2, 4 ),
 ( 0.003131923598877003976, 0.003523316383094321751, 0.003914709167311639093, 0.004306101951528956868, 0.004697494735746275511, 0.005088887519963593287, 0.005480280304180910195, 0.005871673088398227970, 0.006263065872615545746 ),
 .UNSPECIFIED. ) ;
#750 = CARTESIAN_POINT ( 'NONE',  ( -5.969178481556063787, -0.6144377077729902270, -6.799660331422638038 ) ) ;
#751 = FACE_OUTER_BOUND ( 'NONE', #364, .T. ) ;
#752 = EDGE_LOOP ( 'NONE', ( #642, #382, #489, #6 ) ) ;
#753 = CARTESIAN_POINT ( 'NONE',  ( -5.916066267613697249, -1.000079958708139038, -5.868472611179661236 ) ) ;
#754 = CYLINDRICAL_SURFACE ( 'NONE', #241, 4.000000000000000000 ) ;
#755 = ORIENTED_EDGE ( 'NONE', *, *, #19, .F. ) ;
#756 = CARTESIAN_POINT ( 'NONE',  ( -5.999999999999999112, 3.478057330786736548E-17, 7.000000000000001776 ) ) ;
#757 = DIRECTION ( 'NONE',  ( 1.000000000000000000, 0.000000000000000000, 0.000000000000000000 ) ) ;
#758 = CARTESIAN_POINT ( 'NONE',  ( 5.947240459526508261, -0.7993282387951125001, 5.385156417830424758 ) ) ;
#759 = VERTEX_POINT ( 'NONE', #92 ) ;
#760 = CARTESIAN_POINT ( 'NONE',  ( 3.969858145330398269, -0.5048232406146760942, -6.873012691393491913 ) ) ;
#761 = AXIS2_PLACEMENT_3D ( 'NONE', #628, #198, #255 ) ;
#762 = DIRECTION ( 'NONE',  ( 1.000000000000000000, 0.000000000000000000, -0.000000000000000000 ) ) ;
#763 = ORIENTED_EDGE ( 'NONE', *, *, #459, .F. ) ;
#764 = DIRECTION ( 'NONE',  ( 1.000000000000000000, -0.000000000000000000, -0.000000000000000000 ) ) ;
#765 = ADVANCED_FACE ( 'NONE', ( #528 ), #160, .F. ) ;
#766 = CARTESIAN_POINT ( 'NONE',  ( 4.000000000000000888, -0.1308391772901010275, 7.000000000000002665 ) ) ;
#767 = DIRECTION ( 'NONE',  ( -1.000000000000000000, 0.000000000000000000, 0.000000000000000000 ) ) ;
#768 = CARTESIAN_POINT ( 'NONE',  ( 4.000000000000000888, 0.1326759759031825858, 4.999999999999998224 ) ) ;
#769 = EDGE_CURVE ( 'NONE', #638, #143, #210, .T. ) ;
#770 = CARTESIAN_POINT ( 'NONE',  ( 3.969965223322160952, -0.5040697851665449924, 6.873498464354864446 ) ) ;
#771 = VECTOR ( 'NONE', #465, 1000.000000000000000 ) ;
#772 = CARTESIAN_POINT ( 'NONE',  ( -5.999999999999999112, -0.1323933160975633294, 7.000000000000000888 ) ) ;
#773 = CARTESIAN_POINT ( 'NONE',  ( 5.916066267613697249, 1.000079958708139038, 5.868472611179659459 ) ) ;
#774 = CARTESIAN_POINT ( 'NONE',  ( -4.000000000000000000, 0.000000000000000000, 10.00000000000000000 ) ) ;
#775 = CARTESIAN_POINT ( 'NONE',  ( 6.000000000000000000, -0.1323602877612180262, -7.000000000000001776 ) ) ;
#776 = CARTESIAN_POINT ( 'NONE',  ( 3.993186561566760329, 0.2628729541220260479, 6.973603139195279965 ) ) ;
#777 = CARTESIAN_POINT ( 'NONE',  ( 5.999999999999999112, -3.478057330786736548E-17, -7.000000000000001776 ) ) ;
#778 = ORIENTED_EDGE ( 'NONE', *, *, #19, .T. ) ;
#779 = CARTESIAN_POINT ( 'NONE',  ( 5.999999999999999112, 7.347880347662832066E-16, -4.999999999999998224 ) ) ;
#780 = EDGE_CURVE ( 'NONE', #267, #669, #655, .T. ) ;
#781 = CYLINDRICAL_SURFACE ( 'NONE', #491, 1.000000000000001776 ) ;
#782 = APPROVAL_PERSON_ORGANIZATION ( #170, #558, #666 ) ;
#783 = DIRECTION ( 'NONE',  ( 0.000000000000000000, 0.000000000000000000, 1.000000000000000000 ) ) ;
#784 = ORIENTED_EDGE ( 'NONE', *, *, #416, .T. ) ;
#785 = CLOSED_SHELL ( 'NONE', ( #360, #742, #251, #125, #683, #435, #649, #468, #513, #443, #720, #83, #765, #166 ) ) ;
#786 = APPLICATION_PROTOCOL_DEFINITION ( 'international standard', 'config_control_design', 1994, #80 ) ;
#787 = LINE ( 'NONE', #603, #261 ) ;
#788 = VERTEX_POINT ( 'NONE', #147 ) ;
#789 = CALENDAR_DATE ( 2026, 1, 9 ) ;
#790 = CC_DESIGN_PERSON_AND_ORGANIZATION_ASSIGNMENT ( #231, #797, ( #458 ) ) ;
#791 = CARTESIAN_POINT ( 'NONE',  ( 3.953463112640607680, 0.6154946931554466927, -6.798774545549736814 ) ) ;
#792 = CARTESIAN_POINT ( 'NONE',  ( 5.920620690450686396, 0.9740807849836145005, -5.738501197006691257 ) ) ;
#793 = CALENDAR_DATE ( 2026, 1, 9 ) ;
#794 = EDGE_CURVE ( 'NONE', #512, #61, #731, .T. ) ;
#795 = CARTESIAN_POINT ( 'NONE',  ( 3.879973766560979254, -0.9739130422342940907, -5.737614112020435364 ) ) ;
#796 = CARTESIAN_POINT ( 'NONE',  ( -3.953413208705572224, 0.6157976398963517228, 6.798520279110967124 ) ) ;
#797 = PERSON_AND_ORGANIZATION_ROLE ( 'design_supplier' ) ;
#798 = ORIENTED_EDGE ( 'NONE', *, *, #601, .T. ) ;
#799 = CARTESIAN_POINT ( 'NONE',  ( -3.880087007359552587, 0.9734268036074583685, -5.736582730085539872 ) ) ;
#800 = CARTESIAN_POINT ( 'NONE',  ( -4.000000000000000888, 0.1308039184816915945, 4.999999999999997335 ) ) ;
#801 = DESIGN_CONTEXT ( 'detailed design', #370, 'design' ) ;
#802 = DATE_AND_TIME ( #433, #259 ) ;
#803 = ORIENTED_EDGE ( 'NONE', *, *, #40, .T. ) ;
#804 = VECTOR ( 'NONE', #157, 1000.000000000000000 ) ;
#805 = CARTESIAN_POINT ( 'NONE',  ( -3.993212196359559929, 0.2626148844800768045, -6.973714197286692951 ) ) ;
#806 = CARTESIAN_POINT ( 'NONE',  ( 0.000000000000000000, 0.000000000000000000, 10.00000000000000000 ) ) ;
#807 = CARTESIAN_POINT ( 'NONE',  ( 3.993186561566759440, -0.2628729541220253818, -5.026396860804724476 ) ) ;
#808 = DIRECTION ( 'NONE',  ( -1.000000000000000000, 0.000000000000000000, 0.000000000000000000 ) ) ;
#809 = ORIENTED_EDGE ( 'NONE', *, *, #189, .F. ) ;
ENDSEC;
END-ISO-10303-21;
