ISO-10303-21;
HEADER;
FILE_DESCRIPTION (( 'STEP AP203' ),
    '1' );
FILE_NAME ('GripperFlatSurface_Default_sldprt.STEP',
    '2026-09-01T12:51:42',
    ( '' ),
    ( '' ),
    'SwSTEP 2.0',
    'SolidWorks 2020',
    '' );
FILE_SCHEMA (( 'CONFIG_CONTROL_DESIGN' ));
ENDSEC;

DATA;
#1 = ORIENTED_EDGE ( 'NONE', *, *, #86, .T. ) ;
#2 = DIRECTION ( 'NONE',  ( -0.000000000000000000, -0.000000000000000000, -1.000000000000000000 ) ) ;
#3 = CARTESIAN_POINT ( 'NONE',  ( -29.00000000000000711, -3.469446951953614189E-15, 2.001000000000000334 ) ) ;
#4 = CARTESIAN_POINT ( 'NONE',  ( -26.00000000000000711, -3.285749932081511072E-15, 2.001000000000000334 ) ) ;
#5 = EDGE_CURVE ( 'NONE', #237, #268, #21, .T. ) ;
#6 = DIRECTION ( 'NONE',  ( 1.000000000000000000, 0.000000000000000000, 0.000000000000000000 ) ) ;
#7 = PLANE ( 'NONE',  #48 ) ;
#8 = DATE_AND_TIME ( #196, #23 ) ;
#9 = VECTOR ( 'NONE', #210, 1000.000000000000000 ) ;
#10 = CARTESIAN_POINT ( 'NONE',  ( -26.00000000000000711, -3.285749932081511072E-15, 2.000000000000000000 ) ) ;
#11 = DATE_TIME_ROLE ( 'creation_date' ) ;
#12 = CARTESIAN_POINT ( 'NONE',  ( -27.50000000000000711, -3.469446951953614189E-15, 2.001000000000000334 ) ) ;
#13 = APPROVAL_DATE_TIME ( #35, #353 ) ;
#14 = CARTESIAN_POINT ( 'NONE',  ( 27.49999999999999645, 0.000000000000000000, 2.000000000000000000 ) ) ;
#15 = DATE_AND_TIME ( #216, #134 ) ;
#16 = DIRECTION ( 'NONE',  ( 8.673617379884035472E-17, -1.000000000000000000, 0.000000000000000000 ) ) ;
#17 = APPLICATION_PROTOCOL_DEFINITION ( 'international standard', 'config_control_design', 1994, #45 ) ;
#18 = EDGE_CURVE ( 'NONE', #177, #85, #359, .T. ) ;
#19 = CALENDAR_DATE ( 2026, 1, 9 ) ;
#20 = ORIENTED_EDGE ( 'NONE', *, *, #266, .T. ) ;
#21 = LINE ( 'NONE', #143, #297 ) ;
#22 = COORDINATED_UNIVERSAL_TIME_OFFSET ( 5, 30, .AHEAD. ) ;
#23 = LOCAL_TIME ( 18, 21, 42.00000000000000000, #76 ) ;
#24 = DIRECTION ( 'NONE',  ( -8.673617379884035472E-17, 1.000000000000000000, -0.000000000000000000 ) ) ;
#25 = ORIENTED_EDGE ( 'NONE', *, *, #115, .F. ) ;
#26 = ORIENTED_EDGE ( 'NONE', *, *, #101, .F. ) ;
#27 = CARTESIAN_POINT ( 'NONE',  ( -27.50000000000000711, -3.469446951953614189E-15, 0.000000000000000000 ) ) ;
#28 = DIRECTION ( 'NONE',  ( -1.000000000000000000, 0.000000000000000000, 0.000000000000000000 ) ) ;
#29 = DIRECTION ( 'NONE',  ( 0.000000000000000000, -0.000000000000000000, -1.000000000000000000 ) ) ;
#30 = EDGE_CURVE ( 'NONE', #53, #119, #233, .T. ) ;
#31 = DIRECTION ( 'NONE',  ( 0.000000000000000000, 0.000000000000000000, -1.000000000000000000 ) ) ;
#32 = DIRECTION ( 'NONE',  ( 8.673617379884035472E-17, -1.000000000000000000, 0.000000000000000000 ) ) ;
#33 = ADVANCED_FACE ( 'NONE', ( #331, #298, #87 ), #109, .F. ) ;
#34 = DIRECTION ( 'NONE',  ( 0.000000000000000000, -0.000000000000000000, -1.000000000000000000 ) ) ;
#35 = DATE_AND_TIME ( #346, #179 ) ;
#36 = LOCAL_TIME ( 18, 21, 42.00000000000000000, #231 ) ;
#37 = FACE_OUTER_BOUND ( 'NONE', #385, .T. ) ;
#38 = MECHANICAL_CONTEXT ( 'NONE', #139, 'mechanical' ) ;
#39 = DIRECTION ( 'NONE',  ( 1.000000000000000000, 8.673617379884035472E-17, -0.000000000000000000 ) ) ;
#40 = DIRECTION ( 'NONE',  ( -1.000000000000000000, 0.000000000000000000, 0.000000000000000000 ) ) ;
#41 = ORIENTED_EDGE ( 'NONE', *, *, #115, .T. ) ;
#42 = SECURITY_CLASSIFICATION_LEVEL ( 'unclassified' ) ;
#43 = EDGE_CURVE ( 'NONE', #237, #177, #354, .T. ) ;
#44 = ORIENTED_EDGE ( 'NONE', *, *, #101, .T. ) ;
#45 = APPLICATION_CONTEXT ( 'configuration controlled 3d designs of mechanical parts and assemblies' ) ;
#46 = ORIENTED_EDGE ( 'NONE', *, *, #307, .T. ) ;
#47 = ORIENTED_EDGE ( 'NONE', *, *, #86, .F. ) ;
#48 = AXIS2_PLACEMENT_3D ( 'NONE', #218, #95, #132 ) ;
#49 = ORIENTED_EDGE ( 'NONE', *, *, #175, .F. ) ;
#50 = ORIENTED_EDGE ( 'NONE', *, *, #266, .F. ) ;
#51 = EDGE_LOOP ( 'NONE', ( #190, #118, #234, #111 ) ) ;
#52 = ADVANCED_FACE ( 'NONE', ( #92 ), #306, .F. ) ;
#53 = VERTEX_POINT ( 'NONE', #155 ) ;
#54 = LINE ( 'NONE', #4, #165 ) ;
#55 = CIRCLE ( 'NONE', #154, 1.500000000000001332 ) ;
#56 = CARTESIAN_POINT ( 'NONE',  ( -27.50000000000000711, -3.469446951953614189E-15, 2.000000000000000000 ) ) ;
#57 = VECTOR ( 'NONE', #82, 1000.000000000000000 ) ;
#58 = LINE ( 'NONE', #270, #9 ) ;
#59 = AXIS2_PLACEMENT_3D ( 'NONE', #267, #360, #204 ) ;
#60 = DIRECTION ( 'NONE',  ( -0.000000000000000000, -0.000000000000000000, -1.000000000000000000 ) ) ;
#61 = APPROVAL_PERSON_ORGANIZATION ( #96, #63, #131 ) ;
#62 = FACE_OUTER_BOUND ( 'NONE', #262, .T. ) ;
#63 = APPROVAL ( #373, 'UNSPECIFIED' ) ;
#64 = DIRECTION ( 'NONE',  ( -0.000000000000000000, -0.000000000000000000, -1.000000000000000000 ) ) ;
#65 = MANIFOLD_SOLID_BREP ( 'Cut-Extrude1', #74 ) ;
#66 = FACE_BOUND ( 'NONE', #206, .T. ) ;
#67 = DIRECTION ( 'NONE',  ( 1.000000000000000000, 0.000000000000000000, 0.000000000000000000 ) ) ;
#68 = VECTOR ( 'NONE', #161, 1000.000000000000000 ) ;
#69 = FACE_BOUND ( 'NONE', #325, .T. ) ;
#70 = DIRECTION ( 'NONE',  ( 0.000000000000000000, 0.000000000000000000, -1.000000000000000000 ) ) ;
#71 = CARTESIAN_POINT ( 'NONE',  ( -30.00000000000000355, -20.00000000000000000, 2.000000000000000000 ) ) ;
#72 = EDGE_CURVE ( 'NONE', #150, #136, #153, .T. ) ;
#73 = DIRECTION ( 'NONE',  ( -1.000000000000000000, 0.000000000000000000, 0.000000000000000000 ) ) ;
#74 = CLOSED_SHELL ( 'NONE', ( #156, #285, #374, #52, #296, #340, #242, #33, #197, #211 ) ) ;
#75 = EDGE_LOOP ( 'NONE', ( #114, #50, #1, #172 ) ) ;
#76 = COORDINATED_UNIVERSAL_TIME_OFFSET ( 5, 30, .AHEAD. ) ;
#77 = ORIENTED_EDGE ( 'NONE', *, *, #194, .T. ) ;
#78 = CC_DESIGN_APPROVAL ( #353, ( #349 ) ) ;
#79 = DATE_TIME_ROLE ( 'classification_date' ) ;
#80 = ORIENTED_EDGE ( 'NONE', *, *, #43, .F. ) ;
#81 = EDGE_LOOP ( 'NONE', ( #332, #258, #80, #235 ) ) ;
#82 = DIRECTION ( 'NONE',  ( 1.000000000000000000, 0.000000000000000000, 0.000000000000000000 ) ) ;
#83 = ORIENTED_EDGE ( 'NONE', *, *, #162, .F. ) ;
#84 = PRODUCT_DEFINITION_FORMATION_WITH_SPECIFIED_SOURCE ( 'ANY', '', #212, .NOT_KNOWN. ) ;
#85 = VERTEX_POINT ( 'NONE', #271 ) ;
#86 = EDGE_CURVE ( 'NONE', #119, #323, #152, .T. ) ;
#87 = FACE_OUTER_BOUND ( 'NONE', #176, .T. ) ;
#88 = DIRECTION ( 'NONE',  ( -0.000000000000000000, -0.000000000000000000, -1.000000000000000000 ) ) ;
#89 = VECTOR ( 'NONE', #339, 1000.000000000000000 ) ;
#90 = PRODUCT_RELATED_PRODUCT_CATEGORY ( 'detail', '', ( #212 ) ) ;
#91 = CARTESIAN_POINT ( 'NONE',  ( 29.99999999999999289, 20.00000000000000000, 2.000000000000000000 ) ) ;
#92 = FACE_OUTER_BOUND ( 'NONE', #289, .T. ) ;
#93 = LINE ( 'NONE', #213, #89 ) ;
#94 = APPROVAL_PERSON_ORGANIZATION ( #319, #294, #293 ) ;
#95 = DIRECTION ( 'NONE',  ( -0.000000000000000000, 0.000000000000000000, 1.000000000000000000 ) ) ;
#96 = PERSON_AND_ORGANIZATION ( #371, #208 ) ;
#97 = CARTESIAN_POINT ( 'NONE',  ( -30.00000000000000355, -20.00000000000000000, 0.000000000000000000 ) ) ;
#98 = DIRECTION ( 'NONE',  ( 1.000000000000000000, 0.000000000000000000, 0.000000000000000000 ) ) ;
#99 = PERSON_AND_ORGANIZATION ( #371, #208 ) ;
#100 = AXIS2_PLACEMENT_3D ( 'NONE', #187, #191, #40 ) ;
#101 = EDGE_CURVE ( 'NONE', #229, #107, #54, .T. ) ;
#102 = FACE_OUTER_BOUND ( 'NONE', #81, .T. ) ;
#103 = VERTEX_POINT ( 'NONE', #299 ) ;
#104 = APPROVAL_STATUS ( 'not_yet_approved' ) ;
#105 = PERSON_AND_ORGANIZATION_ROLE ( 'creator' ) ;
#106 = VERTEX_POINT ( 'NONE', #335 ) ;
#107 = VERTEX_POINT ( 'NONE', #363 ) ;
#108 = APPROVAL_PERSON_ORGANIZATION ( #227, #353, #166 ) ;
#109 = PLANE ( 'NONE',  #283 ) ;
#110 = ORIENTED_EDGE ( 'NONE', *, *, #194, .F. ) ;
#111 = ORIENTED_EDGE ( 'NONE', *, *, #43, .T. ) ;
#112 = AXIS2_PLACEMENT_3D ( 'NONE', #333, #209, #29 ) ;
#113 = VECTOR ( 'NONE', #207, 1000.000000000000000 ) ;
#114 = ORIENTED_EDGE ( 'NONE', *, *, #254, .F. ) ;
#115 = EDGE_CURVE ( 'NONE', #329, #107, #147, .T. ) ;
#116 = ORIENTED_EDGE ( 'NONE', *, *, #18, .F. ) ;
#117 = AXIS2_PLACEMENT_3D ( 'NONE', #56, #125, #6 ) ;
#118 = ORIENTED_EDGE ( 'NONE', *, *, #356, .T. ) ;
#119 = VERTEX_POINT ( 'NONE', #269 ) ;
#120 = ORIENTED_EDGE ( 'NONE', *, *, #30, .F. ) ;
#121 = LINE ( 'NONE', #91, #365 ) ;
#122 = CC_DESIGN_PERSON_AND_ORGANIZATION_ASSIGNMENT ( #287, #321, ( #334 ) ) ;
#123 = DIRECTION ( 'NONE',  ( -0.000000000000000000, -0.000000000000000000, -1.000000000000000000 ) ) ;
#124 = CIRCLE ( 'NONE', #128, 1.500000000000001332 ) ;
#125 = DIRECTION ( 'NONE',  ( 0.000000000000000000, -0.000000000000000000, -1.000000000000000000 ) ) ;
#126 = CARTESIAN_POINT ( 'NONE',  ( 29.99999999999999645, -20.00000000000000000, 2.000000000000000000 ) ) ;
#127 = DIRECTION ( 'NONE',  ( 0.000000000000000000, -0.000000000000000000, -1.000000000000000000 ) ) ;
#128 = AXIS2_PLACEMENT_3D ( 'NONE', #364, #301, #28 ) ;
#129 = DIRECTION ( 'NONE',  ( -8.673617379884035472E-17, 1.000000000000000000, 0.000000000000000000 ) ) ;
#130 = DIRECTION ( 'NONE',  ( -1.000000000000000000, 0.000000000000000000, 0.000000000000000000 ) ) ;
#131 = APPROVAL_ROLE ( '' ) ;
#132 = DIRECTION ( 'NONE',  ( 1.000000000000000000, 0.000000000000000000, 0.000000000000000000 ) ) ;
#133 = CARTESIAN_POINT ( 'NONE',  ( 0.000000000000000000, 0.000000000000000000, 0.000000000000000000 ) ) ;
#134 = LOCAL_TIME ( 18, 21, 42.00000000000000000, #188 ) ;
#135 = DIRECTION ( 'NONE',  ( -0.000000000000000000, -0.000000000000000000, -1.000000000000000000 ) ) ;
#136 = VERTEX_POINT ( 'NONE', #181 ) ;
#137 = ORIENTED_EDGE ( 'NONE', *, *, #330, .T. ) ;
#138 = COORDINATED_UNIVERSAL_TIME_OFFSET ( 5, 30, .AHEAD. ) ;
#139 = APPLICATION_CONTEXT ( 'configuration controlled 3d designs of mechanical parts and assemblies' ) ;
#140 = ADVANCED_BREP_SHAPE_REPRESENTATION ( 'GripperFlatSurface_Default_sldprt', ( #65, #253 ), #377 ) ;
#141 = SHAPE_DEFINITION_REPRESENTATION ( #180, #140 ) ;
#142 = VECTOR ( 'NONE', #123, 1000.000000000000000 ) ;
#143 = CARTESIAN_POINT ( 'NONE',  ( -30.00000000000000355, -20.00000000000000000, 2.000000000000000000 ) ) ;
#144 = ORIENTED_EDGE ( 'NONE', *, *, #148, .T. ) ;
#145 = CC_DESIGN_DATE_AND_TIME_ASSIGNMENT ( #8, #11, ( #349 ) ) ;
#146 = DIRECTION ( 'NONE',  ( 1.000000000000000000, 0.000000000000000000, 0.000000000000000000 ) ) ;
#147 = CIRCLE ( 'NONE', #224, 1.500000000000001332 ) ;
#148 = EDGE_CURVE ( 'NONE', #85, #255, #121, .T. ) ;
#149 = ORIENTED_EDGE ( 'NONE', *, *, #72, .F. ) ;
#150 = VERTEX_POINT ( 'NONE', #239 ) ;
#151 = DIRECTION ( 'NONE',  ( -1.000000000000000000, 0.000000000000000000, 0.000000000000000000 ) ) ;
#152 = LINE ( 'NONE', #186, #113 ) ;
#153 = LINE ( 'NONE', #336, #337 ) ;
#154 = AXIS2_PLACEMENT_3D ( 'NONE', #308, #34, #252 ) ;
#155 = CARTESIAN_POINT ( 'NONE',  ( 28.99999999999999645, 1.836970198721029934E-16, 2.000000000000000000 ) ) ;
#156 = ADVANCED_FACE ( 'NONE', ( #183 ), #272, .F. ) ;
#157 = CYLINDRICAL_SURFACE ( 'NONE', #358, 1.500000000000001332 ) ;
#158 = PLANE ( 'NONE',  #259 ) ;
#159 = APPLICATION_PROTOCOL_DEFINITION ( 'international standard', 'config_control_design', 1994, #139 ) ;
#160 = AXIS2_PLACEMENT_3D ( 'NONE', #14, #127, #245 ) ;
#161 = DIRECTION ( 'NONE',  ( -1.000000000000000000, -0.000000000000000000, -0.000000000000000000 ) ) ;
#162 = EDGE_CURVE ( 'NONE', #229, #203, #246, .T. ) ;
#163 = ORIENTED_EDGE ( 'NONE', *, *, #281, .F. ) ;
#164 = CARTESIAN_POINT ( 'NONE',  ( 25.99999999999999645, 0.000000000000000000, 0.000000000000000000 ) ) ;
#165 = VECTOR ( 'NONE', #304, 1000.000000000000000 ) ;
#166 = APPROVAL_ROLE ( '' ) ;
#167 = PLANE ( 'NONE',  #265 ) ;
#168 =( LENGTH_UNIT ( ) NAMED_UNIT ( * ) SI_UNIT ( .MILLI., .METRE. ) );
#169 = AXIS2_PLACEMENT_3D ( 'NONE', #302, #60, #244 ) ;
#170 = ORIENTED_EDGE ( 'NONE', *, *, #5, .F. ) ;
#171 = ORIENTED_EDGE ( 'NONE', *, *, #162, .T. ) ;
#172 = ORIENTED_EDGE ( 'NONE', *, *, #314, .T. ) ;
#173 = ORIENTED_EDGE ( 'NONE', *, *, #225, .F. ) ;
#174 = CALENDAR_DATE ( 2026, 1, 9 ) ;
#175 = EDGE_CURVE ( 'NONE', #106, #323, #124, .T. ) ;
#176 = EDGE_LOOP ( 'NONE', ( #322, #173, #264, #163 ) ) ;
#177 = VERTEX_POINT ( 'NONE', #126 ) ;
#178 = DIRECTION ( 'NONE',  ( -0.000000000000000000, -0.000000000000000000, -1.000000000000000000 ) ) ;
#179 = LOCAL_TIME ( 18, 21, 42.00000000000000000, #138 ) ;
#180 = PRODUCT_DEFINITION_SHAPE ( 'NONE', 'NONE',  #349 ) ;
#181 = CARTESIAN_POINT ( 'NONE',  ( -30.00000000000000711, 20.00000000000000000, 0.000000000000000000 ) ) ;
#182 = CYLINDRICAL_SURFACE ( 'NONE', #169, 1.500000000000001332 ) ;
#183 = FACE_OUTER_BOUND ( 'NONE', #200, .T. ) ;
#184 = CIRCLE ( 'NONE', #160, 1.500000000000001332 ) ;
#185 = EDGE_CURVE ( 'NONE', #150, #237, #58, .T. ) ;
#186 = CARTESIAN_POINT ( 'NONE',  ( 25.99999999999999645, 0.000000000000000000, 2.001000000000000334 ) ) ;
#187 = CARTESIAN_POINT ( 'NONE',  ( 27.49999999999999645, 0.000000000000000000, 0.000000000000000000 ) ) ;
#188 = COORDINATED_UNIVERSAL_TIME_OFFSET ( 5, 30, .AHEAD. ) ;
#189 = FACE_OUTER_BOUND ( 'NONE', #51, .T. ) ;
#190 = ORIENTED_EDGE ( 'NONE', *, *, #18, .T. ) ;
#191 = DIRECTION ( 'NONE',  ( 0.000000000000000000, 0.000000000000000000, -1.000000000000000000 ) ) ;
#192 = DIRECTION ( 'NONE',  ( -0.000000000000000000, -0.000000000000000000, -1.000000000000000000 ) ) ;
#193 = PERSON_AND_ORGANIZATION_ROLE ( 'design_supplier' ) ;
#194 = EDGE_CURVE ( 'NONE', #203, #329, #338, .T. ) ;
#195 = ORIENTED_EDGE ( 'NONE', *, *, #175, .T. ) ;
#196 = CALENDAR_DATE ( 2026, 1, 9 ) ;
#197 = ADVANCED_FACE ( 'NONE', ( #240 ), #182, .F. ) ;
#198 = CC_DESIGN_SECURITY_CLASSIFICATION ( #334, ( #84 ) ) ;
#199 = ORIENTED_EDGE ( 'NONE', *, *, #205, .T. ) ;
#200 = EDGE_LOOP ( 'NONE', ( #83, #44, #357, #110 ) ) ;
#201 = DATE_AND_TIME ( #19, #241 ) ;
#202 = ORIENTED_EDGE ( 'NONE', *, *, #148, .F. ) ;
#203 = VERTEX_POINT ( 'NONE', #366 ) ;
#204 = DIRECTION ( 'NONE',  ( 1.000000000000000000, 0.000000000000000000, 0.000000000000000000 ) ) ;
#205 = EDGE_CURVE ( 'NONE', #177, #103, #93, .T. ) ;
#206 = EDGE_LOOP ( 'NONE', ( #137, #171 ) ) ;
#207 = DIRECTION ( 'NONE',  ( -0.000000000000000000, -0.000000000000000000, -1.000000000000000000 ) ) ;
#208 = ORGANIZATION ( 'UNSPECIFIED', 'UNSPECIFIED', '' ) ;
#209 = DIRECTION ( 'NONE',  ( 0.000000000000000000, -1.000000000000000000, 0.000000000000000000 ) ) ;
#210 = DIRECTION ( 'NONE',  ( 8.673617379884035472E-17, -1.000000000000000000, 0.000000000000000000 ) ) ;
#211 = ADVANCED_FACE ( 'NONE', ( #62 ), #157, .F. ) ;
#212 = PRODUCT ( 'GripperFlatSurface_Default_sldprt', 'GripperFlatSurface_Default_sldprt', '', ( #38 ) ) ;
#213 = CARTESIAN_POINT ( 'NONE',  ( 29.99999999999999645, -20.00000000000000000, 2.000000000000000000 ) ) ;
#214 = VECTOR ( 'NONE', #98, 1000.000000000000000 ) ;
#215 = CARTESIAN_POINT ( 'NONE',  ( 27.49999999999999645, 0.000000000000000000, 2.001000000000000334 ) ) ;
#216 = CALENDAR_DATE ( 2026, 1, 9 ) ;
#217 = CC_DESIGN_PERSON_AND_ORGANIZATION_ASSIGNMENT ( #275, #280, ( #212 ) ) ;
#218 = CARTESIAN_POINT ( 'NONE',  ( 0.000000000000000000, 0.000000000000000000, 2.000000000000000000 ) ) ;
#219 = LINE ( 'NONE', #315, #362 ) ;
#220 = CARTESIAN_POINT ( 'NONE',  ( 29.99999999999999289, 20.00000000000000000, 0.000000000000000000 ) ) ;
#221 = CARTESIAN_POINT ( 'NONE',  ( -27.50000000000000711, -3.469446951953614189E-15, 0.000000000000000000 ) ) ;
#222 = DIRECTION ( 'NONE',  ( -1.000000000000000000, -0.000000000000000000, -0.000000000000000000 ) ) ;
#223 = APPROVAL_DATE_TIME ( #15, #63 ) ;
#224 = AXIS2_PLACEMENT_3D ( 'NONE', #27, #31, #151 ) ;
#225 = EDGE_CURVE ( 'NONE', #268, #103, #341, .T. ) ;
#226 = ORIENTED_EDGE ( 'NONE', *, *, #367, .F. ) ;
#227 = PERSON_AND_ORGANIZATION ( #371, #208 ) ;
#228 = VECTOR ( 'NONE', #192, 1000.000000000000000 ) ;
#229 = VERTEX_POINT ( 'NONE', #10 ) ;
#230 = DIRECTION ( 'NONE',  ( -0.000000000000000000, 0.000000000000000000, 1.000000000000000000 ) ) ;
#231 = COORDINATED_UNIVERSAL_TIME_OFFSET ( 5, 30, .AHEAD. ) ;
#232 = CARTESIAN_POINT ( 'NONE',  ( 0.000000000000000000, 0.000000000000000000, 0.000000000000000000 ) ) ;
#233 = CIRCLE ( 'NONE', #59, 1.500000000000001332 ) ;
#234 = ORIENTED_EDGE ( 'NONE', *, *, #185, .T. ) ;
#235 = ORIENTED_EDGE ( 'NONE', *, *, #5, .T. ) ;
#236 = CC_DESIGN_PERSON_AND_ORGANIZATION_ASSIGNMENT ( #378, #105, ( #349 ) ) ;
#237 = VERTEX_POINT ( 'NONE', #71 ) ;
#238 = EDGE_LOOP ( 'NONE', ( #120, #292, #195, #47 ) ) ;
#239 = CARTESIAN_POINT ( 'NONE',  ( -30.00000000000000711, 20.00000000000000000, 2.000000000000000000 ) ) ;
#240 = FACE_OUTER_BOUND ( 'NONE', #75, .T. ) ;
#241 = LOCAL_TIME ( 18, 21, 42.00000000000000000, #22 ) ;
#242 = ADVANCED_FACE ( 'NONE', ( #66, #69, #189 ), #7, .T. ) ;
#243 = DIRECTION ( 'NONE',  ( -1.000000000000000000, 0.000000000000000000, 0.000000000000000000 ) ) ;
#244 = DIRECTION ( 'NONE',  ( -1.000000000000000000, 0.000000000000000000, 0.000000000000000000 ) ) ;
#245 = DIRECTION ( 'NONE',  ( 1.000000000000000000, 0.000000000000000000, 0.000000000000000000 ) ) ;
#246 = CIRCLE ( 'NONE', #117, 1.500000000000001332 ) ;
#247 = PLANE ( 'NONE',  #380 ) ;
#248 = LINE ( 'NONE', #372, #68 ) ;
#249 =( NAMED_UNIT ( * ) SI_UNIT ( $, .STERADIAN. ) SOLID_ANGLE_UNIT ( ) );
#250 = FACE_OUTER_BOUND ( 'NONE', #238, .T. ) ;
#251 = PERSON_AND_ORGANIZATION ( #371, #208 ) ;
#252 = DIRECTION ( 'NONE',  ( 1.000000000000000000, 0.000000000000000000, 0.000000000000000000 ) ) ;
#253 = AXIS2_PLACEMENT_3D ( 'NONE', #133, #278, #67 ) ;
#254 = EDGE_CURVE ( 'NONE', #53, #106, #286, .T. ) ;
#255 = VERTEX_POINT ( 'NONE', #220 ) ;
#256 = FACE_OUTER_BOUND ( 'NONE', #263, .T. ) ;
#257 = EDGE_LOOP ( 'NONE', ( #25, #226 ) ) ;
#258 = ORIENTED_EDGE ( 'NONE', *, *, #205, .F. ) ;
#259 = AXIS2_PLACEMENT_3D ( 'NONE', #279, #344, #276 ) ;
#260 = ORIENTED_EDGE ( 'NONE', *, *, #330, .F. ) ;
#261 = APPROVAL_STATUS ( 'not_yet_approved' ) ;
#262 = EDGE_LOOP ( 'NONE', ( #26, #260, #77, #41 ) ) ;
#263 = EDGE_LOOP ( 'NONE', ( #300, #202, #116, #199 ) ) ;
#264 = ORIENTED_EDGE ( 'NONE', *, *, #307, .F. ) ;
#265 = AXIS2_PLACEMENT_3D ( 'NONE', #343, #39, #129 ) ;
#266 = EDGE_CURVE ( 'NONE', #119, #53, #184, .T. ) ;
#267 = CARTESIAN_POINT ( 'NONE',  ( 27.49999999999999645, 0.000000000000000000, 2.000000000000000000 ) ) ;
#268 = VERTEX_POINT ( 'NONE', #97 ) ;
#269 = CARTESIAN_POINT ( 'NONE',  ( 25.99999999999999645, 0.000000000000000000, 2.000000000000000000 ) ) ;
#270 = CARTESIAN_POINT ( 'NONE',  ( -30.00000000000000711, 20.00000000000000000, 2.000000000000000000 ) ) ;
#271 = CARTESIAN_POINT ( 'NONE',  ( 29.99999999999999289, 20.00000000000000000, 2.000000000000000000 ) ) ;
#272 = CYLINDRICAL_SURFACE ( 'NONE', #303, 1.500000000000001332 ) ;
#273 = CC_DESIGN_PERSON_AND_ORGANIZATION_ASSIGNMENT ( #251, #309, ( #84 ) ) ;
#274 = CARTESIAN_POINT ( 'NONE',  ( -30.00000000000000355, -20.00000000000000000, 0.000000000000000000 ) ) ;
#275 = PERSON_AND_ORGANIZATION ( #371, #208 ) ;
#276 = DIRECTION ( 'NONE',  ( 0.000000000000000000, -0.000000000000000000, 1.000000000000000000 ) ) ;
#277 = CIRCLE ( 'NONE', #291, 1.500000000000001332 ) ;
#278 = DIRECTION ( 'NONE',  ( 0.000000000000000000, 0.000000000000000000, 1.000000000000000000 ) ) ;
#279 = CARTESIAN_POINT ( 'NONE',  ( -30.00000000000000355, -20.00000000000000000, 2.000000000000000000 ) ) ;
#280 = PERSON_AND_ORGANIZATION_ROLE ( 'design_owner' ) ;
#281 = EDGE_CURVE ( 'NONE', #255, #136, #316, .T. ) ;
#282 = CARTESIAN_POINT ( 'NONE',  ( -29.00000000000000711, -3.469446951953614189E-15, 0.000000000000000000 ) ) ;
#283 = AXIS2_PLACEMENT_3D ( 'NONE', #232, #230, #146 ) ;
#284 =( NAMED_UNIT ( * ) PLANE_ANGLE_UNIT ( ) SI_UNIT ( $, .RADIAN. ) );
#285 = ADVANCED_FACE ( 'NONE', ( #250 ), #369, .F. ) ;
#286 = LINE ( 'NONE', #310, #228 ) ;
#287 = PERSON_AND_ORGANIZATION ( #371, #208 ) ;
#288 = APPROVAL_DATE_TIME ( #324, #294 ) ;
#289 = EDGE_LOOP ( 'NONE', ( #318, #149, #355, #144 ) ) ;
#290 = CC_DESIGN_APPROVAL ( #294, ( #334 ) ) ;
#291 = AXIS2_PLACEMENT_3D ( 'NONE', #221, #70, #73 ) ;
#292 = ORIENTED_EDGE ( 'NONE', *, *, #254, .T. ) ;
#293 = APPROVAL_ROLE ( '' ) ;
#294 = APPROVAL ( #261, 'UNSPECIFIED' ) ;
#295 = ORIENTED_EDGE ( 'NONE', *, *, #314, .F. ) ;
#296 = ADVANCED_FACE ( 'NONE', ( #37 ), #167, .F. ) ;
#297 = VECTOR ( 'NONE', #381, 1000.000000000000000 ) ;
#298 = FACE_BOUND ( 'NONE', #351, .T. ) ;
#299 = CARTESIAN_POINT ( 'NONE',  ( 29.99999999999999645, -20.00000000000000000, 0.000000000000000000 ) ) ;
#300 = ORIENTED_EDGE ( 'NONE', *, *, #379, .T. ) ;
#301 = DIRECTION ( 'NONE',  ( 0.000000000000000000, 0.000000000000000000, -1.000000000000000000 ) ) ;
#302 = CARTESIAN_POINT ( 'NONE',  ( 27.49999999999999645, 0.000000000000000000, 2.001000000000000334 ) ) ;
#303 = AXIS2_PLACEMENT_3D ( 'NONE', #361, #88, #243 ) ;
#304 = DIRECTION ( 'NONE',  ( -0.000000000000000000, -0.000000000000000000, -1.000000000000000000 ) ) ;
#305 = CC_DESIGN_DATE_AND_TIME_ASSIGNMENT ( #201, #79, ( #334 ) ) ;
#306 = PLANE ( 'NONE',  #112 ) ;
#307 = EDGE_CURVE ( 'NONE', #136, #268, #376, .T. ) ;
#308 = CARTESIAN_POINT ( 'NONE',  ( -27.50000000000000711, -3.469446951953614189E-15, 2.000000000000000000 ) ) ;
#309 = PERSON_AND_ORGANIZATION_ROLE ( 'creator' ) ;
#310 = CARTESIAN_POINT ( 'NONE',  ( 28.99999999999999645, 1.836970198721030674E-16, 2.001000000000000334 ) ) ;
#311 = CIRCLE ( 'NONE', #100, 1.500000000000001332 ) ;
#312 = CARTESIAN_POINT ( 'NONE',  ( 29.99999999999999289, 20.00000000000000000, 2.000000000000000000 ) ) ;
#313 = CARTESIAN_POINT ( 'NONE',  ( -30.00000000000000711, 20.00000000000000000, 0.000000000000000000 ) ) ;
#314 = EDGE_CURVE ( 'NONE', #323, #106, #311, .T. ) ;
#315 = CARTESIAN_POINT ( 'NONE',  ( 29.99999999999999289, 20.00000000000000000, 0.000000000000000000 ) ) ;
#316 = LINE ( 'NONE', #313, #328 ) ;
#317 = DIRECTION ( 'NONE',  ( -1.000000000000000000, -8.673617379884035472E-17, 0.000000000000000000 ) ) ;
#318 = ORIENTED_EDGE ( 'NONE', *, *, #281, .T. ) ;
#319 = PERSON_AND_ORGANIZATION ( #371, #208 ) ;
#320 = VECTOR ( 'NONE', #16, 1000.000000000000000 ) ;
#321 = PERSON_AND_ORGANIZATION_ROLE ( 'classification_officer' ) ;
#322 = ORIENTED_EDGE ( 'NONE', *, *, #379, .F. ) ;
#323 = VERTEX_POINT ( 'NONE', #164 ) ;
#324 = DATE_AND_TIME ( #174, #36 ) ;
#325 = EDGE_LOOP ( 'NONE', ( #20, #345 ) ) ;
#326 = CC_DESIGN_PERSON_AND_ORGANIZATION_ASSIGNMENT ( #99, #193, ( #84 ) ) ;
#327 = DESIGN_CONTEXT ( 'detailed design', #45, 'design' ) ;
#328 = VECTOR ( 'NONE', #222, 1000.000000000000000 ) ;
#329 = VERTEX_POINT ( 'NONE', #282 ) ;
#330 = EDGE_CURVE ( 'NONE', #203, #229, #55, .T. ) ;
#331 = FACE_BOUND ( 'NONE', #257, .T. ) ;
#332 = ORIENTED_EDGE ( 'NONE', *, *, #225, .T. ) ;
#333 = CARTESIAN_POINT ( 'NONE',  ( -30.00000000000000711, 20.00000000000000000, 2.000000000000000000 ) ) ;
#334 = SECURITY_CLASSIFICATION ( '', '', #42 ) ;
#335 = CARTESIAN_POINT ( 'NONE',  ( 28.99999999999999645, 1.836970198721029934E-16, 0.000000000000000000 ) ) ;
#336 = CARTESIAN_POINT ( 'NONE',  ( -30.00000000000000711, 20.00000000000000000, 2.000000000000000000 ) ) ;
#337 = VECTOR ( 'NONE', #178, 1000.000000000000000 ) ;
#338 = LINE ( 'NONE', #3, #142 ) ;
#339 = DIRECTION ( 'NONE',  ( -0.000000000000000000, -0.000000000000000000, -1.000000000000000000 ) ) ;
#340 = ADVANCED_FACE ( 'NONE', ( #102 ), #158, .F. ) ;
#341 = LINE ( 'NONE', #274, #214 ) ;
#342 = DIRECTION ( 'NONE',  ( -1.000000000000000000, 0.000000000000000000, 0.000000000000000000 ) ) ;
#343 = CARTESIAN_POINT ( 'NONE',  ( -30.00000000000000711, 20.00000000000000000, 2.000000000000000000 ) ) ;
#344 = DIRECTION ( 'NONE',  ( 0.000000000000000000, 1.000000000000000000, 0.000000000000000000 ) ) ;
#345 = ORIENTED_EDGE ( 'NONE', *, *, #30, .T. ) ;
#346 = CALENDAR_DATE ( 2026, 1, 9 ) ;
#347 = VECTOR ( 'NONE', #24, 1000.000000000000000 ) ;
#348 = ORIENTED_EDGE ( 'NONE', *, *, #72, .T. ) ;
#349 = PRODUCT_DEFINITION ( 'UNKNOWN', '', #84, #327 ) ;
#350 = CC_DESIGN_APPROVAL ( #63, ( #84 ) ) ;
#351 = EDGE_LOOP ( 'NONE', ( #295, #49 ) ) ;
#352 = CARTESIAN_POINT ( 'NONE',  ( -30.00000000000000355, -20.00000000000000000, 2.000000000000000000 ) ) ;
#353 = APPROVAL ( #104, 'UNSPECIFIED' ) ;
#354 = LINE ( 'NONE', #352, #57 ) ;
#355 = ORIENTED_EDGE ( 'NONE', *, *, #356, .F. ) ;
#356 = EDGE_CURVE ( 'NONE', #85, #150, #248, .T. ) ;
#357 = ORIENTED_EDGE ( 'NONE', *, *, #367, .T. ) ;
#358 = AXIS2_PLACEMENT_3D ( 'NONE', #12, #135, #130 ) ;
#359 = LINE ( 'NONE', #384, #347 ) ;
#360 = DIRECTION ( 'NONE',  ( 0.000000000000000000, -0.000000000000000000, -1.000000000000000000 ) ) ;
#361 = CARTESIAN_POINT ( 'NONE',  ( -27.50000000000000711, -3.469446951953614189E-15, 2.001000000000000334 ) ) ;
#362 = VECTOR ( 'NONE', #370, 1000.000000000000000 ) ;
#363 = CARTESIAN_POINT ( 'NONE',  ( -26.00000000000000711, -3.285749932081511072E-15, 0.000000000000000000 ) ) ;
#364 = CARTESIAN_POINT ( 'NONE',  ( 27.49999999999999645, 0.000000000000000000, 0.000000000000000000 ) ) ;
#365 = VECTOR ( 'NONE', #2, 1000.000000000000000 ) ;
#366 = CARTESIAN_POINT ( 'NONE',  ( -29.00000000000000711, -3.469446951953614189E-15, 2.000000000000000000 ) ) ;
#367 = EDGE_CURVE ( 'NONE', #107, #329, #277, .T. ) ;
#368 = AXIS2_PLACEMENT_3D ( 'NONE', #215, #64, #342 ) ;
#369 = CYLINDRICAL_SURFACE ( 'NONE', #368, 1.500000000000001332 ) ;
#370 = DIRECTION ( 'NONE',  ( -8.673617379884035472E-17, 1.000000000000000000, -0.000000000000000000 ) ) ;
#371 = PERSON ( 'UNSPECIFIED', 'UNSPECIFIED', 'UNSPECIFIED', ('UNSPECIFIED'), ('UNSPECIFIED'), ('UNSPECIFIED') ) ;
#372 = CARTESIAN_POINT ( 'NONE',  ( -30.00000000000000711, 20.00000000000000000, 2.000000000000000000 ) ) ;
#373 = APPROVAL_STATUS ( 'not_yet_approved' ) ;
#374 = ADVANCED_FACE ( 'NONE', ( #256 ), #247, .F. ) ;
#375 = CARTESIAN_POINT ( 'NONE',  ( -30.00000000000000711, 20.00000000000000000, 0.000000000000000000 ) ) ;
#376 = LINE ( 'NONE', #375, #320 ) ;
#377 =( GEOMETRIC_REPRESENTATION_CONTEXT ( 3 ) GLOBAL_UNCERTAINTY_ASSIGNED_CONTEXT ( ( #382 ) ) GLOBAL_UNIT_ASSIGNED_CONTEXT ( ( #168, #284, #249 ) ) REPRESENTATION_CONTEXT ( 'NONE', 'WORKASPACE' ) );
#378 = PERSON_AND_ORGANIZATION ( #371, #208 ) ;
#379 = EDGE_CURVE ( 'NONE', #103, #255, #219, .T. ) ;
#380 = AXIS2_PLACEMENT_3D ( 'NONE', #312, #317, #32 ) ;
#381 = DIRECTION ( 'NONE',  ( -0.000000000000000000, -0.000000000000000000, -1.000000000000000000 ) ) ;
#382 = UNCERTAINTY_MEASURE_WITH_UNIT (LENGTH_MEASURE( 1.000000000000000082E-05 ), #168, 'distance_accuracy_value', 'NONE');
#383 = ORIENTED_EDGE ( 'NONE', *, *, #185, .F. ) ;
#384 = CARTESIAN_POINT ( 'NONE',  ( 29.99999999999999289, 20.00000000000000000, 2.000000000000000000 ) ) ;
#385 = EDGE_LOOP ( 'NONE', ( #46, #170, #383, #348 ) ) ;
ENDSEC;
END-ISO-10303-21;
