ISO-10303-21;
HEADER;
FILE_DESCRIPTION (( 'STEP AP203' ),
    '1' );
FILE_NAME ('Lid_Default_sldprt.STEP',
    '2026-09-01T12:51:46',
    ( '' ),
    ( '' ),
    'SwSTEP 2.0',
    'SolidWorks 2020',
    '' );
FILE_SCHEMA (( 'CONFIG_CONTROL_DESIGN' ));
ENDSEC;

DATA;
#1 = FACE_BOUND ( 'NONE', #560, .T. ) ;
#2 = AXIS2_PLACEMENT_3D ( 'NONE', #906, #991, #664 ) ;
#3 = ORIENTED_EDGE ( 'NONE', *, *, #233, .F. ) ;
#4 = VECTOR ( 'NONE', #440, 1000.000000000000000 ) ;
#5 = ADVANCED_FACE ( 'NONE', ( #54 ), #399, .F. ) ;
#6 = VERTEX_POINT ( 'NONE', #231 ) ;
#7 = VERTEX_POINT ( 'NONE', #473 ) ;
#8 = CARTESIAN_POINT ( 'NONE',  ( -9.000000000000001776, 25.25000000000000711, 3.000000000000000000 ) ) ;
#9 = VERTEX_POINT ( 'NONE', #133 ) ;
#10 = ORIENTED_EDGE ( 'NONE', *, *, #900, .T. ) ;
#11 = ORIENTED_EDGE ( 'NONE', *, *, #462, .T. ) ;
#12 = PLANE ( 'NONE',  #655 ) ;
#13 = EDGE_LOOP ( 'NONE', ( #843, #488, #863, #116 ) ) ;
#14 = EDGE_LOOP ( 'NONE', ( #837, #596 ) ) ;
#15 = ADVANCED_FACE ( 'NONE', ( #320, #707, #1025, #547, #371, #679, #534, #393, #148, #542 ), #299, .F. ) ;
#16 = DIRECTION ( 'NONE',  ( 1.000000000000000000, 0.000000000000000000, 0.000000000000000000 ) ) ;
#17 = AXIS2_PLACEMENT_3D ( 'NONE', #88, #942, #637 ) ;
#18 = VERTEX_POINT ( 'NONE', #460 ) ;
#19 = VERTEX_POINT ( 'NONE', #446 ) ;
#20 = ADVANCED_FACE ( 'NONE', ( #454 ), #913, .F. ) ;
#21 = DIRECTION ( 'NONE',  ( 1.000000000000000000, 0.000000000000000000, 0.000000000000000000 ) ) ;
#22 = ORIENTED_EDGE ( 'NONE', *, *, #665, .F. ) ;
#23 = DIRECTION ( 'NONE',  ( 1.000000000000000000, 0.000000000000000000, 0.000000000000000000 ) ) ;
#24 = VECTOR ( 'NONE', #113, 1000.000000000000000 ) ;
#25 = CARTESIAN_POINT ( 'NONE',  ( -33.24999999999998579, -34.75000000000000000, 3.000000000000000000 ) ) ;
#26 = EDGE_CURVE ( 'NONE', #753, #703, #307, .T. ) ;
#27 = FACE_OUTER_BOUND ( 'NONE', #401, .T. ) ;
#28 = DIRECTION ( 'NONE',  ( 1.246832498358329606E-16, -1.000000000000000000, 0.000000000000000000 ) ) ;
#29 = CARTESIAN_POINT ( 'NONE',  ( 9.000000000000001776, 25.25000000000000711, -0.001000000000000132727 ) ) ;
#30 = VECTOR ( 'NONE', #505, 1000.000000000000000 ) ;
#31 = CARTESIAN_POINT ( 'NONE',  ( 33.25000000000000000, 34.75000000000000000, 3.000000000000000000 ) ) ;
#32 = EDGE_CURVE ( 'NONE', #322, #75, #854, .T. ) ;
#33 = VECTOR ( 'NONE', #118, 1000.000000000000000 ) ;
#34 = AXIS2_PLACEMENT_3D ( 'NONE', #1017, #1012, #376 ) ;
#35 = CYLINDRICAL_SURFACE ( 'NONE', #185, 1.500000000000001332 ) ;
#36 = LINE ( 'NONE', #897, #30 ) ;
#37 = CARTESIAN_POINT ( 'NONE',  ( 18.25000000000001066, 0.2500000000000059397, -0.001000000000000132727 ) ) ;
#38 = CARTESIAN_POINT ( 'NONE',  ( 28.25000000000001421, 0.2500000000000071609, -0.001000000000000132727 ) ) ;
#39 = DIRECTION ( 'NONE',  ( -1.000000000000000000, 0.000000000000000000, 0.000000000000000000 ) ) ;
#40 = CARTESIAN_POINT ( 'NONE',  ( 33.25000000000000000, 34.75000000000000000, 3.000000000000000000 ) ) ;
#41 = ORIENTED_EDGE ( 'NONE', *, *, #500, .F. ) ;
#42 = FACE_OUTER_BOUND ( 'NONE', #561, .T. ) ;
#43 = EDGE_CURVE ( 'NONE', #645, #619, #774, .T. ) ;
#44 = CARTESIAN_POINT ( 'NONE',  ( -33.25000000000000000, 34.75000000000000000, 3.000000000000000000 ) ) ;
#45 = DATE_AND_TIME ( #154, #926 ) ;
#46 = CARTESIAN_POINT ( 'NONE',  ( -6.000000000000000888, 16.25000000000000355, 3.000000000000000000 ) ) ;
#47 = AXIS2_PLACEMENT_3D ( 'NONE', #925, #146, #853 ) ;
#48 = VECTOR ( 'NONE', #434, 1000.000000000000000 ) ;
#49 = VERTEX_POINT ( 'NONE', #221 ) ;
#50 = CIRCLE ( 'NONE', #905, 1.499999999999999556 ) ;
#51 = APPROVAL_PERSON_ORGANIZATION ( #220, #396, #935 ) ;
#52 = CARTESIAN_POINT ( 'NONE',  ( -6.000000000000000888, 16.25000000000000355, -0.001000000000000132727 ) ) ;
#53 = LINE ( 'NONE', #907, #135 ) ;
#54 = FACE_OUTER_BOUND ( 'NONE', #80, .T. ) ;
#55 = FACE_BOUND ( 'NONE', #792, .T. ) ;
#56 = ORIENTED_EDGE ( 'NONE', *, *, #855, .F. ) ;
#57 = DIRECTION ( 'NONE',  ( -0.000000000000000000, -0.000000000000000000, 1.000000000000000000 ) ) ;
#58 = CARTESIAN_POINT ( 'NONE',  ( -28.25000000000001421, 0.2500000000000071609, 3.000000000000000000 ) ) ;
#59 = EDGE_CURVE ( 'NONE', #304, #581, #467, .T. ) ;
#60 = DIRECTION ( 'NONE',  ( -0.000000000000000000, -0.000000000000000000, 1.000000000000000000 ) ) ;
#61 = DIRECTION ( 'NONE',  ( 0.000000000000000000, -0.000000000000000000, -1.000000000000000000 ) ) ;
#62 = ADVANCED_FACE ( 'NONE', ( #780 ), #936, .F. ) ;
#63 = PERSON_AND_ORGANIZATION_ROLE ( 'classification_officer' ) ;
#64 = ORIENTED_EDGE ( 'NONE', *, *, #295, .T. ) ;
#65 = CARTESIAN_POINT ( 'NONE',  ( -9.000000000000001776, -7.749999999999996447, -0.001000000000000132727 ) ) ;
#66 = PERSON_AND_ORGANIZATION_ROLE ( 'design_supplier' ) ;
#67 = DIRECTION ( 'NONE',  ( -0.000000000000000000, -0.000000000000000000, 1.000000000000000000 ) ) ;
#68 = CARTESIAN_POINT ( 'NONE',  ( -7.500000000000001776, 25.25000000000000711, 0.000000000000000000 ) ) ;
#69 = EDGE_CURVE ( 'NONE', #543, #1015, #833, .T. ) ;
#70 = EDGE_LOOP ( 'NONE', ( #387, #160, #599, #64 ) ) ;
#71 = ORIENTED_EDGE ( 'NONE', *, *, #809, .F. ) ;
#72 = VECTOR ( 'NONE', #305, 1000.000000000000000 ) ;
#73 = AXIS2_PLACEMENT_3D ( 'NONE', #763, #287, #222 ) ;
#74 = DIRECTION ( 'NONE',  ( -0.000000000000000000, -0.000000000000000000, -1.000000000000000000 ) ) ;
#75 = VERTEX_POINT ( 'NONE', #759 ) ;
#76 = ORIENTED_EDGE ( 'NONE', *, *, #435, .T. ) ;
#77 = EDGE_CURVE ( 'NONE', #717, #322, #524, .T. ) ;
#78 = DIRECTION ( 'NONE',  ( 1.000000000000000000, 0.000000000000000000, 0.000000000000000000 ) ) ;
#79 = FACE_OUTER_BOUND ( 'NONE', #338, .T. ) ;
#80 = EDGE_LOOP ( 'NONE', ( #777, #764, #410, #618 ) ) ;
#81 = ORIENTED_EDGE ( 'NONE', *, *, #568, .T. ) ;
#82 = EDGE_CURVE ( 'NONE', #1020, #304, #36, .T. ) ;
#83 = CARTESIAN_POINT ( 'NONE',  ( 9.000000000000001776, 25.25000000000000711, 3.000000000000000000 ) ) ;
#84 = VERTEX_POINT ( 'NONE', #824 ) ;
#85 = VERTEX_POINT ( 'NONE', #912 ) ;
#86 = ORIENTED_EDGE ( 'NONE', *, *, #43, .F. ) ;
#87 = AXIS2_PLACEMENT_3D ( 'NONE', #998, #608, #526 ) ;
#88 = CARTESIAN_POINT ( 'NONE',  ( -18.25000000000001066, 0.2500000000000059397, -0.001000000000000132727 ) ) ;
#89 = AXIS2_PLACEMENT_3D ( 'NONE', #558, #793, #242 ) ;
#90 = VERTEX_POINT ( 'NONE', #212 ) ;
#91 = PRODUCT_RELATED_PRODUCT_CATEGORY ( 'detail', '', ( #794 ) ) ;
#92 = APPROVAL_PERSON_ORGANIZATION ( #939, #846, #150 ) ;
#93 = DIRECTION ( 'NONE',  ( 0.000000000000000000, 0.000000000000000000, 1.000000000000000000 ) ) ;
#94 = EDGE_LOOP ( 'NONE', ( #11, #916, #100, #332 ) ) ;
#95 = ORIENTED_EDGE ( 'NONE', *, *, #424, .T. ) ;
#96 = EDGE_LOOP ( 'NONE', ( #884, #516, #725, #468 ) ) ;
#97 = EDGE_CURVE ( 'NONE', #685, #330, #53, .T. ) ;
#98 = ORIENTED_EDGE ( 'NONE', *, *, #568, .F. ) ;
#99 = DIRECTION ( 'NONE',  ( 0.000000000000000000, 1.000000000000000000, 0.000000000000000000 ) ) ;
#100 = ORIENTED_EDGE ( 'NONE', *, *, #77, .T. ) ;
#101 = EDGE_LOOP ( 'NONE', ( #771, #377, #317, #989 ) ) ;
#102 = APPROVAL ( #445, 'UNSPECIFIED' ) ;
#103 = LINE ( 'NONE', #823, #280 ) ;
#104 = AXIS2_PLACEMENT_3D ( 'NONE', #1013, #207, #928 ) ;
#105 = AXIS2_PLACEMENT_3D ( 'NONE', #898, #431, #737 ) ;
#106 = ORIENTED_EDGE ( 'NONE', *, *, #653, .T. ) ;
#107 = CIRCLE ( 'NONE', #808, 1.500000000000001332 ) ;
#108 = ORGANIZATION ( 'UNSPECIFIED', 'UNSPECIFIED', '' ) ;
#109 = DIRECTION ( 'NONE',  ( 0.000000000000000000, -0.000000000000000000, -1.000000000000000000 ) ) ;
#110 = DIRECTION ( 'NONE',  ( 1.000000000000000000, 0.000000000000000000, 0.000000000000000000 ) ) ;
#111 = CARTESIAN_POINT ( 'NONE',  ( -33.25000000000000000, 34.75000000000000000, 0.000000000000000000 ) ) ;
#112 = ADVANCED_FACE ( 'NONE', ( #586 ), #429, .F. ) ;
#113 = DIRECTION ( 'NONE',  ( 1.156482317317871331E-15, -1.000000000000000000, 0.000000000000000000 ) ) ;
#114 = FACE_OUTER_BOUND ( 'NONE', #13, .T. ) ;
#115 = DIRECTION ( 'NONE',  ( -0.000000000000000000, -0.000000000000000000, 1.000000000000000000 ) ) ;
#116 = ORIENTED_EDGE ( 'NONE', *, *, #462, .F. ) ;
#117 = ADVANCED_FACE ( 'NONE', ( #518 ), #452, .F. ) ;
#118 = DIRECTION ( 'NONE',  ( -0.000000000000000000, -0.000000000000000000, 1.000000000000000000 ) ) ;
#119 = AXIS2_PLACEMENT_3D ( 'NONE', #582, #899, #193 ) ;
#120 = LINE ( 'NONE', #892, #495 ) ;
#121 = DIRECTION ( 'NONE',  ( 1.000000000000000000, 0.000000000000000000, 0.000000000000000000 ) ) ;
#122 = CARTESIAN_POINT ( 'NONE',  ( -28.25000000000001421, 0.2500000000000071609, 0.000000000000000000 ) ) ;
#123 = EDGE_CURVE ( 'NONE', #6, #241, #677, .T. ) ;
#124 = DIRECTION ( 'NONE',  ( 1.000000000000000000, 1.301042606982605321E-16, 0.000000000000000000 ) ) ;
#125 = CYLINDRICAL_SURFACE ( 'NONE', #386, 1.499999999999999556 ) ;
#126 = APPROVAL_ROLE ( '' ) ;
#127 = CARTESIAN_POINT ( 'NONE',  ( 29.00000000000000000, -19.74999999999999645, -0.001000000000000132727 ) ) ;
#128 = ORIENTED_EDGE ( 'NONE', *, *, #745, .F. ) ;
#129 = UNCERTAINTY_MEASURE_WITH_UNIT (LENGTH_MEASURE( 1.000000000000000082E-05 ), #466, 'distance_accuracy_value', 'NONE');
#130 = ADVANCED_FACE ( 'NONE', ( #369 ), #200, .F. ) ;
#131 = CARTESIAN_POINT ( 'NONE',  ( -9.000000000000001776, -7.749999999999996447, 3.000000000000000000 ) ) ;
#132 = DIRECTION ( 'NONE',  ( -1.000000000000000000, -0.000000000000000000, -0.000000000000000000 ) ) ;
#133 = CARTESIAN_POINT ( 'NONE',  ( -28.25000000000001066, 3.250000000000007105, 3.000000000000000000 ) ) ;
#134 = FACE_BOUND ( 'NONE', #1027, .T. ) ;
#135 = VECTOR ( 'NONE', #818, 1000.000000000000000 ) ;
#136 = ORIENTED_EDGE ( 'NONE', *, *, #601, .F. ) ;
#137 = CIRCLE ( 'NONE', #877, 1.499999999999999556 ) ;
#138 = AXIS2_PLACEMENT_3D ( 'NONE', #131, #826, #670 ) ;
#139 = EDGE_CURVE ( 'NONE', #203, #995, #353, .T. ) ;
#140 = DIRECTION ( 'NONE',  ( -0.000000000000000000, -0.000000000000000000, 1.000000000000000000 ) ) ;
#141 = EDGE_CURVE ( 'NONE', #538, #19, #347, .T. ) ;
#142 = CALENDAR_DATE ( 2026, 1, 9 ) ;
#143 = VERTEX_POINT ( 'NONE', #997 ) ;
#144 = FACE_OUTER_BOUND ( 'NONE', #96, .T. ) ;
#145 = ORIENTED_EDGE ( 'NONE', *, *, #313, .T. ) ;
#146 = DIRECTION ( 'NONE',  ( 0.000000000000000000, 0.000000000000000000, 1.000000000000000000 ) ) ;
#147 = APPLICATION_PROTOCOL_DEFINITION ( 'international standard', 'config_control_design', 1994, #709 ) ;
#148 = FACE_BOUND ( 'NONE', #492, .T. ) ;
#149 = CARTESIAN_POINT ( 'NONE',  ( -29.00000000000000000, -19.74999999999999645, 0.000000000000000000 ) ) ;
#150 = APPROVAL_ROLE ( '' ) ;
#151 = ORIENTED_EDGE ( 'NONE', *, *, #630, .F. ) ;
#152 = EDGE_LOOP ( 'NONE', ( #831, #638 ) ) ;
#153 = DIRECTION ( 'NONE',  ( -0.000000000000000000, -0.000000000000000000, 1.000000000000000000 ) ) ;
#154 = CALENDAR_DATE ( 2026, 1, 9 ) ;
#155 = CARTESIAN_POINT ( 'NONE',  ( -28.25000000000001066, 3.250000000000007105, 0.000000000000000000 ) ) ;
#156 = ORIENTED_EDGE ( 'NONE', *, *, #894, .T. ) ;
#157 = VECTOR ( 'NONE', #421, 1000.000000000000000 ) ;
#158 = PLANE ( 'NONE',  #183 ) ;
#159 = CARTESIAN_POINT ( 'NONE',  ( -10.50000000000000000, -7.749999999999996447, 0.000000000000000000 ) ) ;
#160 = ORIENTED_EDGE ( 'NONE', *, *, #1006, .F. ) ;
#161 = EDGE_LOOP ( 'NONE', ( #81, #326, #643, #857 ) ) ;
#162 = EDGE_LOOP ( 'NONE', ( #95, #851, #682, #530 ) ) ;
#163 = EDGE_CURVE ( 'NONE', #886, #619, #444, .T. ) ;
#164 = CARTESIAN_POINT ( 'NONE',  ( 10.50000000000000178, -7.749999999999992006, -0.001000000000000132727 ) ) ;
#165 = EDGE_LOOP ( 'NONE', ( #869, #872, #250, #400 ) ) ;
#166 = ORIENTED_EDGE ( 'NONE', *, *, #500, .T. ) ;
#167 = EDGE_CURVE ( 'NONE', #753, #538, #806, .T. ) ;
#168 = DIRECTION ( 'NONE',  ( 1.000000000000000000, 0.000000000000000000, 0.000000000000000000 ) ) ;
#169 = ORIENTED_EDGE ( 'NONE', *, *, #248, .T. ) ;
#170 = ORIENTED_EDGE ( 'NONE', *, *, #82, .F. ) ;
#171 = CIRCLE ( 'NONE', #334, 1.500000000000001332 ) ;
#172 = EDGE_CURVE ( 'NONE', #724, #143, #171, .T. ) ;
#173 = PLANE ( 'NONE',  #89 ) ;
#174 = VECTOR ( 'NONE', #562, 1000.000000000000000 ) ;
#175 = ORIENTED_EDGE ( 'NONE', *, *, #435, .F. ) ;
#176 = ADVANCED_FACE ( 'NONE', ( #290 ), #125, .F. ) ;
#177 = CARTESIAN_POINT ( 'NONE',  ( 29.00000000000000000, -19.74999999999999645, 0.000000000000000000 ) ) ;
#178 = ORIENTED_EDGE ( 'NONE', *, *, #755, .T. ) ;
#179 = EDGE_CURVE ( 'NONE', #1020, #49, #918, .T. ) ;
#180 = DIRECTION ( 'NONE',  ( 1.000000000000000000, 0.000000000000000000, 0.000000000000000000 ) ) ;
#181 = VERTEX_POINT ( 'NONE', #285 ) ;
#182 = PLANE ( 'NONE',  #565 ) ;
#183 = AXIS2_PLACEMENT_3D ( 'NONE', #382, #465, #375 ) ;
#184 = CIRCLE ( 'NONE', #447, 1.499999999999999556 ) ;
#185 = AXIS2_PLACEMENT_3D ( 'NONE', #651, #973, #190 ) ;
#186 = DIRECTION ( 'NONE',  ( 0.000000000000000000, -0.000000000000000000, -1.000000000000000000 ) ) ;
#187 = EDGE_CURVE ( 'NONE', #932, #622, #963, .T. ) ;
#188 = DIRECTION ( 'NONE',  ( 1.000000000000000000, 0.000000000000000000, 0.000000000000000000 ) ) ;
#189 = CARTESIAN_POINT ( 'NONE',  ( 33.25000000000000000, 34.75000000000000000, 0.000000000000000000 ) ) ;
#190 = DIRECTION ( 'NONE',  ( 1.000000000000000000, 0.000000000000000000, 0.000000000000000000 ) ) ;
#191 = CARTESIAN_POINT ( 'NONE',  ( 10.50000000000000178, 25.25000000000000711, -0.001000000000000132727 ) ) ;
#192 = DIRECTION ( 'NONE',  ( 1.000000000000000000, 0.000000000000000000, 0.000000000000000000 ) ) ;
#193 = DIRECTION ( 'NONE',  ( 1.156482317317871331E-15, 1.000000000000000000, 0.000000000000000000 ) ) ;
#194 = DIRECTION ( 'NONE',  ( 1.000000000000000000, 0.000000000000000000, 0.000000000000000000 ) ) ;
#195 = AXIS2_PLACEMENT_3D ( 'NONE', #357, #268, #579 ) ;
#196 = EDGE_CURVE ( 'NONE', #685, #85, #323, .T. ) ;
#197 = DIRECTION ( 'NONE',  ( -0.000000000000000000, -0.000000000000000000, 1.000000000000000000 ) ) ;
#198 = AXIS2_PLACEMENT_3D ( 'NONE', #8, #803, #168 ) ;
#199 = PLANE ( 'NONE',  #408 ) ;
#200 = CYLINDRICAL_SURFACE ( 'NONE', #923, 1.500000000000001332 ) ;
#201 = CARTESIAN_POINT ( 'NONE',  ( -28.25000000000001421, 0.2500000000000071609, -0.001000000000000132727 ) ) ;
#202 = CC_DESIGN_PERSON_AND_ORGANIZATION_ASSIGNMENT ( #519, #66, ( #861 ) ) ;
#203 = VERTEX_POINT ( 'NONE', #1011 ) ;
#204 = DIRECTION ( 'NONE',  ( 1.000000000000000000, -1.301042606982605321E-16, 0.000000000000000000 ) ) ;
#205 = DIRECTION ( 'NONE',  ( 0.000000000000000000, 0.000000000000000000, 1.000000000000000000 ) ) ;
#206 = PERSON_AND_ORGANIZATION ( #404, #108 ) ;
#207 = DIRECTION ( 'NONE',  ( -0.000000000000000000, -0.000000000000000000, 1.000000000000000000 ) ) ;
#208 = LINE ( 'NONE', #535, #348 ) ;
#209 = EDGE_LOOP ( 'NONE', ( #86, #309, #639, #136 ) ) ;
#210 = ADVANCED_FACE ( 'NONE', ( #946 ), #612, .F. ) ;
#211 = CARTESIAN_POINT ( 'NONE',  ( 28.25000000000001066, 3.250000000000007105, 0.000000000000000000 ) ) ;
#212 = CARTESIAN_POINT ( 'NONE',  ( 18.25000000000001066, 3.250000000000005773, 0.000000000000000000 ) ) ;
#213 = APPROVAL_DATE_TIME ( #761, #102 ) ;
#214 = EDGE_LOOP ( 'NONE', ( #1004, #41 ) ) ;
#215 = CYLINDRICAL_SURFACE ( 'NONE', #694, 1.500000000000001332 ) ;
#216 = VERTEX_POINT ( 'NONE', #765 ) ;
#217 = CIRCLE ( 'NONE', #253, 1.500000000000001332 ) ;
#218 = LOCAL_TIME ( 18, 21, 46.00000000000000000, #301 ) ;
#219 = LINE ( 'NONE', #312, #72 ) ;
#220 = PERSON_AND_ORGANIZATION ( #404, #108 ) ;
#221 = CARTESIAN_POINT ( 'NONE',  ( 28.25000000000001421, 0.2500000000000071609, 3.000000000000000000 ) ) ;
#222 = DIRECTION ( 'NONE',  ( 1.000000000000000000, 0.000000000000000000, 0.000000000000000000 ) ) ;
#223 = ORIENTED_EDGE ( 'NONE', *, *, #43, .T. ) ;
#224 = EDGE_LOOP ( 'NONE', ( #1001, #795, #539, #944 ) ) ;
#225 = CYLINDRICAL_SURFACE ( 'NONE', #278, 1.500000000000001332 ) ;
#226 = DIRECTION ( 'NONE',  ( 1.000000000000000000, 1.996804001124382178E-16, -0.000000000000000000 ) ) ;
#227 = EDGE_LOOP ( 'NONE', ( #920, #485, #856, #559 ) ) ;
#228 = VERTEX_POINT ( 'NONE', #471 ) ;
#229 = CARTESIAN_POINT ( 'NONE',  ( -18.25000000000001066, 3.250000000000005773, 0.000000000000000000 ) ) ;
#230 = LINE ( 'NONE', #553, #482 ) ;
#231 = CARTESIAN_POINT ( 'NONE',  ( 10.50000000000000178, 25.25000000000000711, 0.000000000000000000 ) ) ;
#232 = EDGE_LOOP ( 'NONE', ( #938, #439, #786, #636 ) ) ;
#233 = EDGE_CURVE ( 'NONE', #75, #9, #605, .T. ) ;
#234 = VECTOR ( 'NONE', #361, 1000.000000000000000 ) ;
#235 = VECTOR ( 'NONE', #269, 1000.000000000000000 ) ;
#236 = CIRCLE ( 'NONE', #430, 1.499999999999999556 ) ;
#237 = CARTESIAN_POINT ( 'NONE',  ( -33.24999999999998579, -34.75000000000000000, 3.000000000000000000 ) ) ;
#238 = LINE ( 'NONE', #249, #822 ) ;
#239 = ORIENTED_EDGE ( 'NONE', *, *, #820, .F. ) ;
#240 = ORIENTED_EDGE ( 'NONE', *, *, #32, .F. ) ;
#241 = VERTEX_POINT ( 'NONE', #933 ) ;
#242 = DIRECTION ( 'NONE',  ( 1.000000000000000000, 0.000000000000000000, 0.000000000000000000 ) ) ;
#243 = CIRCLE ( 'NONE', #969, 1.500000000000001332 ) ;
#244 = ORIENTED_EDGE ( 'NONE', *, *, #745, .T. ) ;
#245 = ORIENTED_EDGE ( 'NONE', *, *, #441, .T. ) ;
#246 = ORIENTED_EDGE ( 'NONE', *, *, #796, .F. ) ;
#247 = ADVANCED_FACE ( 'NONE', ( #704 ), #225, .F. ) ;
#248 = EDGE_CURVE ( 'NONE', #550, #698, #219, .T. ) ;
#249 = CARTESIAN_POINT ( 'NONE',  ( -28.25000000000001421, 0.2500000000000071609, 0.000000000000000000 ) ) ;
#250 = ORIENTED_EDGE ( 'NONE', *, *, #141, .T. ) ;
#251 = ORIENTED_EDGE ( 'NONE', *, *, #1006, .T. ) ;
#252 = FACE_OUTER_BOUND ( 'NONE', #70, .T. ) ;
#253 = AXIS2_PLACEMENT_3D ( 'NONE', #825, #589, #341 ) ;
#254 = ORIENTED_EDGE ( 'NONE', *, *, #796, .T. ) ;
#255 = FACE_OUTER_BOUND ( 'NONE', #804, .T. ) ;
#256 = ORIENTED_EDGE ( 'NONE', *, *, #620, .T. ) ;
#257 = CARTESIAN_POINT ( 'NONE',  ( -33.25000000000000000, 34.75000000000000000, 3.000000000000000000 ) ) ;
#258 = EDGE_LOOP ( 'NONE', ( #567, #603, #866, #522 ) ) ;
#259 = DIRECTION ( 'NONE',  ( 0.000000000000000000, 0.000000000000000000, 1.000000000000000000 ) ) ;
#260 = EDGE_CURVE ( 'NONE', #143, #7, #772, .T. ) ;
#261 = DIRECTION ( 'NONE',  ( 1.000000000000000000, 1.156482317317871331E-15, 0.000000000000000000 ) ) ;
#262 = AXIS2_PLACEMENT_3D ( 'NONE', #827, #984, #39 ) ;
#263 = CIRCLE ( 'NONE', #713, 1.500000000000001332 ) ;
#264 = VECTOR ( 'NONE', #584, 1000.000000000000000 ) ;
#265 = VECTOR ( 'NONE', #392, 1000.000000000000000 ) ;
#266 = CYLINDRICAL_SURFACE ( 'NONE', #757, 1.500000000000001332 ) ;
#267 = DIRECTION ( 'NONE',  ( -1.156482317317871331E-15, 1.000000000000000000, 0.000000000000000000 ) ) ;
#268 = DIRECTION ( 'NONE',  ( -0.000000000000000000, -0.000000000000000000, 1.000000000000000000 ) ) ;
#269 = DIRECTION ( 'NONE',  ( -0.000000000000000000, -0.000000000000000000, 1.000000000000000000 ) ) ;
#270 = EDGE_CURVE ( 'NONE', #622, #932, #362, .T. ) ;
#271 = DIRECTION ( 'NONE',  ( -1.156482317317871331E-15, 1.000000000000000000, 0.000000000000000000 ) ) ;
#272 = ADVANCED_FACE ( 'NONE', ( #941 ), #158, .T. ) ;
#273 = MANIFOLD_SOLID_BREP ( 'Mirror2', #945 ) ;
#274 = CARTESIAN_POINT ( 'NONE',  ( 27.50000000000000000, -19.74999999999999645, 0.000000000000000000 ) ) ;
#275 = LINE ( 'NONE', #31, #264 ) ;
#276 = DIRECTION ( 'NONE',  ( 0.000000000000000000, -0.000000000000000000, -1.000000000000000000 ) ) ;
#277 = CARTESIAN_POINT ( 'NONE',  ( -18.25000000000001066, 0.2500000000000059397, 0.000000000000000000 ) ) ;
#278 = AXIS2_PLACEMENT_3D ( 'NONE', #540, #1002, #531 ) ;
#279 = VECTOR ( 'NONE', #747, 1000.000000000000000 ) ;
#280 = VECTOR ( 'NONE', #432, 1000.000000000000000 ) ;
#281 = DIRECTION ( 'NONE',  ( -0.000000000000000000, -0.000000000000000000, 1.000000000000000000 ) ) ;
#282 = CIRCLE ( 'NONE', #349, 6.000000000000000888 ) ;
#283 = ORIENTED_EDGE ( 'NONE', *, *, #802, .F. ) ;
#284 = DIRECTION ( 'NONE',  ( 0.000000000000000000, 1.000000000000000000, 0.000000000000000000 ) ) ;
#285 = CARTESIAN_POINT ( 'NONE',  ( 6.000000000000000888, 16.25000000000000355, 0.000000000000000000 ) ) ;
#286 = PERSON_AND_ORGANIZATION ( #404, #108 ) ;
#287 = DIRECTION ( 'NONE',  ( -0.000000000000000000, 0.000000000000000000, 1.000000000000000000 ) ) ;
#288 = ORIENTED_EDGE ( 'NONE', *, *, #260, .F. ) ;
#289 = CARTESIAN_POINT ( 'NONE',  ( 0.000000000000000000, 16.25000000000000355, 0.000000000000000000 ) ) ;
#290 = FACE_OUTER_BOUND ( 'NONE', #956, .T. ) ;
#291 =( NAMED_UNIT ( * ) PLANE_ANGLE_UNIT ( ) SI_UNIT ( $, .RADIAN. ) );
#292 = ORIENTED_EDGE ( 'NONE', *, *, #588, .T. ) ;
#293 = CARTESIAN_POINT ( 'NONE',  ( -28.25000000000001066, 3.250000000000007105, 3.000000000000000000 ) ) ;
#294 = APPROVAL_DATE_TIME ( #1019, #846 ) ;
#295 = EDGE_CURVE ( 'NONE', #864, #563, #690, .T. ) ;
#296 = ORIENTED_EDGE ( 'NONE', *, *, #720, .T. ) ;
#297 = CARTESIAN_POINT ( 'NONE',  ( 26.00000000000000000, -19.74999999999999645, -0.001000000000000132727 ) ) ;
#298 = CALENDAR_DATE ( 2026, 1, 9 ) ;
#299 = PLANE ( 'NONE',  #87 ) ;
#300 = CARTESIAN_POINT ( 'NONE',  ( -27.50000000000000000, -19.74999999999999645, 3.000000000000000000 ) ) ;
#301 = COORDINATED_UNIVERSAL_TIME_OFFSET ( 5, 30, .AHEAD. ) ;
#302 = ORIENTED_EDGE ( 'NONE', *, *, #372, .T. ) ;
#303 = CIRCLE ( 'NONE', #336, 1.500000000000001332 ) ;
#304 = VERTEX_POINT ( 'NONE', #391 ) ;
#305 = DIRECTION ( 'NONE',  ( -0.000000000000000000, -0.000000000000000000, 1.000000000000000000 ) ) ;
#306 = DIRECTION ( 'NONE',  ( 1.000000000000000000, 0.000000000000000000, 0.000000000000000000 ) ) ;
#307 = LINE ( 'NONE', #762, #346 ) ;
#308 = CARTESIAN_POINT ( 'NONE',  ( 9.000000000000001776, 25.25000000000000711, 3.000000000000000000 ) ) ;
#309 = ORIENTED_EDGE ( 'NONE', *, *, #372, .F. ) ;
#310 = ORIENTED_EDGE ( 'NONE', *, *, #459, .T. ) ;
#311 = VECTOR ( 'NONE', #281, 1000.000000000000000 ) ;
#312 = CARTESIAN_POINT ( 'NONE',  ( 7.500000000000000000, 25.25000000000000711, -0.001000000000000132727 ) ) ;
#313 = EDGE_CURVE ( 'NONE', #864, #228, #1016, .T. ) ;
#314 = CARTESIAN_POINT ( 'NONE',  ( 28.25000000000001421, 0.2500000000000071609, -4.235164736271501695E-19 ) ) ;
#315 = ORIENTED_EDGE ( 'NONE', *, *, #196, .T. ) ;
#316 = EDGE_LOOP ( 'NONE', ( #464, #702 ) ) ;
#317 = ORIENTED_EDGE ( 'NONE', *, *, #755, .F. ) ;
#318 = CARTESIAN_POINT ( 'NONE',  ( -33.25000000000000000, 34.75000000000000000, 0.000000000000000000 ) ) ;
#319 = CARTESIAN_POINT ( 'NONE',  ( -28.25000000000001421, 0.2500000000000071609, 0.000000000000000000 ) ) ;
#320 = FACE_OUTER_BOUND ( 'NONE', #1007, .T. ) ;
#321 = EDGE_LOOP ( 'NONE', ( #789, #632, #296, #481 ) ) ;
#322 = VERTEX_POINT ( 'NONE', #229 ) ;
#323 = CIRCLE ( 'NONE', #428, 1.499999999999999556 ) ;
#324 = AXIS2_PLACEMENT_3D ( 'NONE', #418, #731, #21 ) ;
#325 = CARTESIAN_POINT ( 'NONE',  ( -28.25000000000001421, 0.2500000000000071609, 3.000000000000000000 ) ) ;
#326 = ORIENTED_EDGE ( 'NONE', *, *, #97, .T. ) ;
#327 = EDGE_CURVE ( 'NONE', #862, #451, #263, .T. ) ;
#328 = EDGE_CURVE ( 'NONE', #922, #563, #1023, .T. ) ;
#329 = LINE ( 'NONE', #325, #964 ) ;
#330 = VERTEX_POINT ( 'NONE', #974 ) ;
#331 = CARTESIAN_POINT ( 'NONE',  ( 18.25000000000001066, 0.2500000000000059397, 3.000000000000000000 ) ) ;
#332 = ORIENTED_EDGE ( 'NONE', *, *, #32, .T. ) ;
#333 = ADVANCED_FACE ( 'NONE', ( #744 ), #266, .F. ) ;
#334 = AXIS2_PLACEMENT_3D ( 'NONE', #274, #980, #583 ) ;
#335 = CARTESIAN_POINT ( 'NONE',  ( -28.25000000000001421, 0.2500000000000071609, 3.000000000000000000 ) ) ;
#336 = AXIS2_PLACEMENT_3D ( 'NONE', #83, #875, #865 ) ;
#337 = VERTEX_POINT ( 'NONE', #189 ) ;
#338 = EDGE_LOOP ( 'NONE', ( #388, #931, #490, #145 ) ) ;
#339 = CARTESIAN_POINT ( 'NONE',  ( -33.25000000000000000, 34.75000000000000000, 0.000000000000000000 ) ) ;
#340 = EDGE_CURVE ( 'NONE', #143, #724, #797, .T. ) ;
#341 = DIRECTION ( 'NONE',  ( 1.000000000000000000, 0.000000000000000000, 0.000000000000000000 ) ) ;
#342 = FACE_OUTER_BOUND ( 'NONE', #723, .T. ) ;
#343 = EDGE_CURVE ( 'NONE', #617, #203, #650, .T. ) ;
#344 = DIRECTION ( 'NONE',  ( -1.000000000000000000, 0.000000000000000000, 0.000000000000000000 ) ) ;
#345 = CARTESIAN_POINT ( 'NONE',  ( 28.25000000000001421, 0.2500000000000071609, -0.001000000000000132727 ) ) ;
#346 = VECTOR ( 'NONE', #860, 1000.000000000000000 ) ;
#347 = LINE ( 'NONE', #512, #279 ) ;
#348 = VECTOR ( 'NONE', #521, 1000.000000000000000 ) ;
#349 = AXIS2_PLACEMENT_3D ( 'NONE', #289, #917, #306 ) ;
#350 = LINE ( 'NONE', #652, #587 ) ;
#351 = EDGE_CURVE ( 'NONE', #228, #543, #502, .T. ) ;
#352 = DIRECTION ( 'NONE',  ( -1.996804001124382178E-16, 1.000000000000000000, -0.000000000000000000 ) ) ;
#353 = LINE ( 'NONE', #433, #903 ) ;
#354 = LINE ( 'NONE', #577, #24 ) ;
#355 = CC_DESIGN_PERSON_AND_ORGANIZATION_ASSIGNMENT ( #751, #541, ( #493 ) ) ;
#356 = CARTESIAN_POINT ( 'NONE',  ( -27.50000000000000000, -19.74999999999999645, -0.001000000000000132727 ) ) ;
#357 = CARTESIAN_POINT ( 'NONE',  ( 0.000000000000000000, 16.25000000000000355, -0.001000000000000132727 ) ) ;
#358 = CARTESIAN_POINT ( 'NONE',  ( -7.500000000000001776, -7.749999999999996447, 3.000000000000000000 ) ) ;
#359 = ORIENTED_EDGE ( 'NONE', *, *, #97, .F. ) ;
#360 = CARTESIAN_POINT ( 'NONE',  ( 9.000000000000001776, 25.25000000000000711, 0.000000000000000000 ) ) ;
#361 = DIRECTION ( 'NONE',  ( 0.000000000000000000, 1.000000000000000000, 0.000000000000000000 ) ) ;
#362 = CIRCLE ( 'NONE', #47, 6.000000000000000888 ) ;
#363 = DATE_TIME_ROLE ( 'creation_date' ) ;
#364 = AXIS2_PLACEMENT_3D ( 'NONE', #972, #908, #192 ) ;
#365 = VECTOR ( 'NONE', #188, 1000.000000000000000 ) ;
#366 = DIRECTION ( 'NONE',  ( 1.000000000000000000, 0.000000000000000000, 0.000000000000000000 ) ) ;
#367 = ORIENTED_EDGE ( 'NONE', *, *, #641, .F. ) ;
#368 = DIRECTION ( 'NONE',  ( -1.301042606982605321E-16, -1.000000000000000000, 0.000000000000000000 ) ) ;
#369 = FACE_OUTER_BOUND ( 'NONE', #258, .T. ) ;
#370 = DIRECTION ( 'NONE',  ( 0.000000000000000000, 0.000000000000000000, 1.000000000000000000 ) ) ;
#371 = FACE_BOUND ( 'NONE', #214, .T. ) ;
#372 = EDGE_CURVE ( 'NONE', #475, #645, #807, .T. ) ;
#373 = DIRECTION ( 'NONE',  ( -0.000000000000000000, -0.000000000000000000, 1.000000000000000000 ) ) ;
#374 = ORIENTED_EDGE ( 'NONE', *, *, #630, .T. ) ;
#375 = DIRECTION ( 'NONE',  ( -1.000000000000000000, 1.246832498358329606E-16, 0.000000000000000000 ) ) ;
#376 = DIRECTION ( 'NONE',  ( 1.996804001124382178E-16, -1.000000000000000000, 0.000000000000000000 ) ) ;
#377 = ORIENTED_EDGE ( 'NONE', *, *, #776, .F. ) ;
#378 = DIRECTION ( 'NONE',  ( 0.000000000000000000, -0.000000000000000000, -1.000000000000000000 ) ) ;
#379 = CC_DESIGN_PERSON_AND_ORGANIZATION_ASSIGNMENT ( #787, #63, ( #633 ) ) ;
#380 = CALENDAR_DATE ( 2026, 1, 9 ) ;
#381 = ORIENTED_EDGE ( 'NONE', *, *, #416, .T. ) ;
#382 = CARTESIAN_POINT ( 'NONE',  ( -28.25000000000001421, 0.2500000000000071609, -0.001000000000000132727 ) ) ;
#383 = SECURITY_CLASSIFICATION_LEVEL ( 'unclassified' ) ;
#384 = EDGE_LOOP ( 'NONE', ( #715, #477 ) ) ;
#385 = LINE ( 'NONE', #127, #976 ) ;
#386 = AXIS2_PLACEMENT_3D ( 'NONE', #598, #672, #194 ) ;
#387 = ORIENTED_EDGE ( 'NONE', *, *, #809, .T. ) ;
#388 = ORIENTED_EDGE ( 'NONE', *, *, #351, .T. ) ;
#389 = VECTOR ( 'NONE', #484, 1000.000000000000000 ) ;
#390 = ADVANCED_FACE ( 'NONE', ( #27 ), #748, .F. ) ;
#391 = CARTESIAN_POINT ( 'NONE',  ( 18.25000000000001066, 0.2500000000000059397, -4.235164736271501695E-19 ) ) ;
#392 = DIRECTION ( 'NONE',  ( -0.000000000000000000, -0.000000000000000000, -1.000000000000000000 ) ) ;
#393 = FACE_BOUND ( 'NONE', #697, .T. ) ;
#394 = DATE_AND_TIME ( #380, #673 ) ;
#395 = ORIENTED_EDGE ( 'NONE', *, *, #163, .F. ) ;
#396 = APPROVAL ( #458, 'UNSPECIFIED' ) ;
#397 = DIRECTION ( 'NONE',  ( 1.000000000000000000, 0.000000000000000000, 0.000000000000000000 ) ) ;
#398 = DIRECTION ( 'NONE',  ( 1.000000000000000000, -1.246832498358329606E-16, 0.000000000000000000 ) ) ;
#399 = PLANE ( 'NONE',  #654 ) ;
#400 = ORIENTED_EDGE ( 'NONE', *, *, #705, .T. ) ;
#401 = EDGE_LOOP ( 'NONE', ( #554, #852, #244, #624 ) ) ;
#402 = CARTESIAN_POINT ( 'NONE',  ( 7.500000000000000000, 25.25000000000000711, 3.000000000000000000 ) ) ;
#403 = ORIENTED_EDGE ( 'NONE', *, *, #196, .F. ) ;
#404 = PERSON ( 'UNSPECIFIED', 'UNSPECIFIED', 'UNSPECIFIED', ('UNSPECIFIED'), ('UNSPECIFIED'), ('UNSPECIFIED') ) ;
#405 = EDGE_LOOP ( 'NONE', ( #463, #223, #395, #874 ) ) ;
#406 = VECTOR ( 'NONE', #784, 1000.000000000000000 ) ;
#407 = AXIS2_PLACEMENT_3D ( 'NONE', #733, #186, #23 ) ;
#408 = AXIS2_PLACEMENT_3D ( 'NONE', #523, #368, #204 ) ;
#409 = LINE ( 'NONE', #331, #781 ) ;
#410 = ORIENTED_EDGE ( 'NONE', *, *, #934, .F. ) ;
#411 = DIRECTION ( 'NONE',  ( 1.156482317317871331E-15, 1.000000000000000000, 0.000000000000000000 ) ) ;
#412 = ORIENTED_EDGE ( 'NONE', *, *, #167, .F. ) ;
#413 = EDGE_LOOP ( 'NONE', ( #1026, #953, #374, #648 ) ) ;
#414 = FACE_BOUND ( 'NONE', #728, .T. ) ;
#415 = VERTEX_POINT ( 'NONE', #358 ) ;
#416 = EDGE_CURVE ( 'NONE', #703, #19, #184, .T. ) ;
#417 = CIRCLE ( 'NONE', #741, 1.500000000000001332 ) ;
#418 = CARTESIAN_POINT ( 'NONE',  ( 9.000000000000001776, -7.749999999999992006, -0.001000000000000132727 ) ) ;
#419 = DIRECTION ( 'NONE',  ( 1.000000000000000000, 0.000000000000000000, 0.000000000000000000 ) ) ;
#420 = CC_DESIGN_PERSON_AND_ORGANIZATION_ASSIGNMENT ( #286, #919, ( #794 ) ) ;
#421 = DIRECTION ( 'NONE',  ( -0.000000000000000000, -0.000000000000000000, 1.000000000000000000 ) ) ;
#422 = LINE ( 'NONE', #739, #33 ) ;
#423 = DIRECTION ( 'NONE',  ( 1.000000000000000000, 1.246832498358329606E-16, 0.000000000000000000 ) ) ;
#424 = EDGE_CURVE ( 'NONE', #617, #1020, #354, .T. ) ;
#425 = ADVANCED_FACE ( 'NONE', ( #988 ), #580, .F. ) ;
#426 = DIRECTION ( 'NONE',  ( -1.156482317317871331E-15, -1.000000000000000000, 0.000000000000000000 ) ) ;
#427 = CARTESIAN_POINT ( 'NONE',  ( -9.000000000000001776, 25.25000000000000711, 0.000000000000000000 ) ) ;
#428 = AXIS2_PLACEMENT_3D ( 'NONE', #700, #683, #397 ) ;
#429 = CYLINDRICAL_SURFACE ( 'NONE', #606, 1.500000000000001332 ) ;
#430 = AXIS2_PLACEMENT_3D ( 'NONE', #947, #93, #16 ) ;
#431 = DIRECTION ( 'NONE',  ( 0.000000000000000000, -0.000000000000000000, -1.000000000000000000 ) ) ;
#432 = DIRECTION ( 'NONE',  ( -0.000000000000000000, -0.000000000000000000, 1.000000000000000000 ) ) ;
#433 = CARTESIAN_POINT ( 'NONE',  ( 28.25000000000001066, 3.250000000000007105, 3.000000000000000000 ) ) ;
#434 = DIRECTION ( 'NONE',  ( -1.996804001124382178E-16, 1.000000000000000000, -0.000000000000000000 ) ) ;
#435 = EDGE_CURVE ( 'NONE', #18, #7, #243, .T. ) ;
#436 = DIRECTION ( 'NONE',  ( -0.000000000000000000, -0.000000000000000000, 1.000000000000000000 ) ) ;
#437 = DIRECTION ( 'NONE',  ( 1.000000000000000000, 0.000000000000000000, 0.000000000000000000 ) ) ;
#438 = CARTESIAN_POINT ( 'NONE',  ( 27.50000000000000000, -19.74999999999999645, 3.000000000000000000 ) ) ;
#439 = ORIENTED_EDGE ( 'NONE', *, *, #59, .T. ) ;
#440 = DIRECTION ( 'NONE',  ( 1.000000000000000000, 1.246832498358329360E-16, -0.000000000000000000 ) ) ;
#441 = EDGE_CURVE ( 'NONE', #216, #845, #736, .T. ) ;
#442 = ADVANCED_BREP_SHAPE_REPRESENTATION ( 'Lid_Default_sldprt', ( #273, #610 ), #950 ) ;
#443 = CARTESIAN_POINT ( 'NONE',  ( -9.000000000000001776, 25.25000000000000711, -0.001000000000000132727 ) ) ;
#444 = CIRCLE ( 'NONE', #262, 1.500000000000001332 ) ;
#445 = APPROVAL_STATUS ( 'not_yet_approved' ) ;
#446 = CARTESIAN_POINT ( 'NONE',  ( -7.500000000000001776, 25.25000000000000711, 3.000000000000000000 ) ) ;
#447 = AXIS2_PLACEMENT_3D ( 'NONE', #667, #890, #663 ) ;
#448 = CIRCLE ( 'NONE', #2, 1.500000000000001332 ) ;
#449 = CARTESIAN_POINT ( 'NONE',  ( -9.000000000000001776, -7.749999999999996447, 0.000000000000000000 ) ) ;
#450 = CIRCLE ( 'NONE', #576, 1.500000000000001332 ) ;
#451 = VERTEX_POINT ( 'NONE', #981 ) ;
#452 = CYLINDRICAL_SURFACE ( 'NONE', #712, 1.499999999999999556 ) ;
#453 =( NAMED_UNIT ( * ) SI_UNIT ( $, .STERADIAN. ) SOLID_ANGLE_UNIT ( ) );
#454 = FACE_OUTER_BOUND ( 'NONE', #161, .T. ) ;
#455 = DIRECTION ( 'NONE',  ( 1.000000000000000000, 0.000000000000000000, 0.000000000000000000 ) ) ;
#456 = ORIENTED_EDGE ( 'NONE', *, *, #802, .T. ) ;
#457 = DIRECTION ( 'NONE',  ( 1.000000000000000000, 0.000000000000000000, 0.000000000000000000 ) ) ;
#458 = APPROVAL_STATUS ( 'not_yet_approved' ) ;
#459 = EDGE_CURVE ( 'NONE', #788, #1018, #815, .T. ) ;
#460 = CARTESIAN_POINT ( 'NONE',  ( 29.00000000000000000, -19.74999999999999645, 3.000000000000000000 ) ) ;
#461 = DIRECTION ( 'NONE',  ( 0.000000000000000000, 0.000000000000000000, 1.000000000000000000 ) ) ;
#462 = EDGE_CURVE ( 'NONE', #75, #788, #902, .T. ) ;
#463 = ORIENTED_EDGE ( 'NONE', *, *, #620, .F. ) ;
#464 = ORIENTED_EDGE ( 'NONE', *, *, #187, .F. ) ;
#465 = DIRECTION ( 'NONE',  ( 1.246832498358329606E-16, 1.000000000000000000, 0.000000000000000000 ) ) ;
#466 =( LENGTH_UNIT ( ) NAMED_UNIT ( * ) SI_UNIT ( .MILLI., .METRE. ) );
#467 = LINE ( 'NONE', #849, #669 ) ;
#468 = ORIENTED_EDGE ( 'NONE', *, *, #489, .T. ) ;
#469 = ORIENTED_EDGE ( 'NONE', *, *, #960, .F. ) ;
#470 = VECTOR ( 'NONE', #785, 1000.000000000000000 ) ;
#471 = CARTESIAN_POINT ( 'NONE',  ( 33.25000000000001421, -34.75000000000000000, 3.000000000000000000 ) ) ;
#472 = DIRECTION ( 'NONE',  ( -0.000000000000000000, -0.000000000000000000, 1.000000000000000000 ) ) ;
#473 = CARTESIAN_POINT ( 'NONE',  ( 26.00000000000000000, -19.74999999999999645, 3.000000000000000000 ) ) ;
#474 = ORIENTED_EDGE ( 'NONE', *, *, #340, .F. ) ;
#475 = VERTEX_POINT ( 'NONE', #506 ) ;
#476 = LINE ( 'NONE', #335, #389 ) ;
#477 = ORIENTED_EDGE ( 'NONE', *, *, #416, .F. ) ;
#478 = ORIENTED_EDGE ( 'NONE', *, *, #123, .F. ) ;
#479 = EDGE_CURVE ( 'NONE', #904, #181, #592, .T. ) ;
#480 = CARTESIAN_POINT ( 'NONE',  ( -33.25000000000000000, 34.75000000000000000, 3.000000000000000000 ) ) ;
#481 = ORIENTED_EDGE ( 'NONE', *, *, #187, .T. ) ;
#482 = VECTOR ( 'NONE', #472, 1000.000000000000000 ) ;
#483 = CC_DESIGN_SECURITY_CLASSIFICATION ( #633, ( #861 ) ) ;
#484 = DIRECTION ( 'NONE',  ( -1.000000000000000000, 1.246832498358329360E-16, 0.000000000000000000 ) ) ;
#485 = ORIENTED_EDGE ( 'NONE', *, *, #993, .T. ) ;
#486 = EDGE_CURVE ( 'NONE', #85, #415, #422, .T. ) ;
#487 = FACE_BOUND ( 'NONE', #873, .T. ) ;
#488 = ORIENTED_EDGE ( 'NONE', *, *, #699, .F. ) ;
#489 = EDGE_CURVE ( 'NONE', #543, #337, #275, .T. ) ;
#490 = ORIENTED_EDGE ( 'NONE', *, *, #934, .T. ) ;
#491 = DIRECTION ( 'NONE',  ( -1.000000000000000000, -0.000000000000000000, -0.000000000000000000 ) ) ;
#492 = EDGE_LOOP ( 'NONE', ( #170, #965, #469, #696 ) ) ;
#493 = PRODUCT_DEFINITION ( 'UNKNOWN', '', #861, #910 ) ;
#494 = AXIS2_PLACEMENT_3D ( 'NONE', #37, #344, #498 ) ;
#495 = VECTOR ( 'NONE', #267, 1000.000000000000000 ) ;
#496 = CARTESIAN_POINT ( 'NONE',  ( 28.25000000000001066, 3.250000000000007105, -0.001000000000000132727 ) ) ;
#497 = CC_DESIGN_APPROVAL ( #102, ( #493 ) ) ;
#498 = DIRECTION ( 'NONE',  ( 0.000000000000000000, 0.000000000000000000, 1.000000000000000000 ) ) ;
#499 = PLANE ( 'NONE',  #1010 ) ;
#500 = EDGE_CURVE ( 'NONE', #451, #862, #217, .T. ) ;
#501 = AXIS2_PLACEMENT_3D ( 'NONE', #510, #821, #419 ) ;
#502 = LINE ( 'NONE', #40, #48 ) ;
#503 = FACE_OUTER_BOUND ( 'NONE', #224, .T. ) ;
#504 = CC_DESIGN_DATE_AND_TIME_ASSIGNMENT ( #45, #363, ( #493 ) ) ;
#505 = DIRECTION ( 'NONE',  ( -1.000000000000000000, -1.246832498358329606E-16, 0.000000000000000000 ) ) ;
#506 = CARTESIAN_POINT ( 'NONE',  ( -26.00000000000000000, -19.74999999999999645, 0.000000000000000000 ) ) ;
#507 = DIRECTION ( 'NONE',  ( -0.000000000000000000, -0.000000000000000000, 1.000000000000000000 ) ) ;
#508 = CARTESIAN_POINT ( 'NONE',  ( 28.25000000000001421, 0.2500000000000071609, -0.001000000000000132727 ) ) ;
#509 = AXIS2_PLACEMENT_3D ( 'NONE', #1014, #769, #61 ) ;
#510 = CARTESIAN_POINT ( 'NONE',  ( 0.000000000000000000, 16.25000000000000355, -0.001000000000000132727 ) ) ;
#511 = LINE ( 'NONE', #211, #574 ) ;
#512 = CARTESIAN_POINT ( 'NONE',  ( -7.500000000000001776, 25.25000000000000711, -0.001000000000000132727 ) ) ;
#513 = AXIS2_PLACEMENT_3D ( 'NONE', #893, #259, #110 ) ;
#514 = DIRECTION ( 'NONE',  ( 1.000000000000000000, 0.000000000000000000, 0.000000000000000000 ) ) ;
#515 = EDGE_CURVE ( 'NONE', #90, #995, #350, .T. ) ;
#516 = ORIENTED_EDGE ( 'NONE', *, *, #721, .F. ) ;
#517 = CARTESIAN_POINT ( 'NONE',  ( 28.25000000000001421, 0.2500000000000071609, 3.000000000000000000 ) ) ;
#518 = FACE_OUTER_BOUND ( 'NONE', #165, .T. ) ;
#519 = PERSON_AND_ORGANIZATION ( #404, #108 ) ;
#520 = ORIENTED_EDGE ( 'NONE', *, *, #588, .F. ) ;
#521 = DIRECTION ( 'NONE',  ( -0.000000000000000000, -0.000000000000000000, 1.000000000000000000 ) ) ;
#522 = ORIENTED_EDGE ( 'NONE', *, *, #783, .T. ) ;
#523 = CARTESIAN_POINT ( 'NONE',  ( -28.25000000000001066, 3.250000000000007105, -0.001000000000000132727 ) ) ;
#524 = LINE ( 'NONE', #277, #234 ) ;
#525 = COORDINATED_UNIVERSAL_TIME_OFFSET ( 5, 30, .AHEAD. ) ;
#526 = DIRECTION ( 'NONE',  ( 1.000000000000000000, 0.000000000000000000, 0.000000000000000000 ) ) ;
#527 = AXIS2_PLACEMENT_3D ( 'NONE', #308, #937, #752 ) ;
#528 = DIRECTION ( 'NONE',  ( -0.000000000000000000, -0.000000000000000000, 1.000000000000000000 ) ) ;
#529 = CC_DESIGN_APPROVAL ( #396, ( #861 ) ) ;
#530 = ORIENTED_EDGE ( 'NONE', *, *, #343, .F. ) ;
#531 = DIRECTION ( 'NONE',  ( 1.000000000000000000, 0.000000000000000000, 0.000000000000000000 ) ) ;
#532 = EDGE_CURVE ( 'NONE', #724, #18, #385, .T. ) ;
#533 = PERSON_AND_ORGANIZATION_ROLE ( 'creator' ) ;
#534 = FACE_BOUND ( 'NONE', #711, .T. ) ;
#535 = CARTESIAN_POINT ( 'NONE',  ( -18.25000000000001066, 0.2500000000000059397, -0.001000000000000132727 ) ) ;
#536 = ORIENTED_EDGE ( 'NONE', *, *, #776, .T. ) ;
#537 = ORIENTED_EDGE ( 'NONE', *, *, #327, .T. ) ;
#538 = VERTEX_POINT ( 'NONE', #68 ) ;
#539 = ORIENTED_EDGE ( 'NONE', *, *, #139, .T. ) ;
#540 = CARTESIAN_POINT ( 'NONE',  ( -27.50000000000000000, -19.74999999999999645, -0.001000000000000132727 ) ) ;
#541 = PERSON_AND_ORGANIZATION_ROLE ( 'creator' ) ;
#542 = FACE_BOUND ( 'NONE', #94, .T. ) ;
#543 = VERTEX_POINT ( 'NONE', #609 ) ;
#544 = ORIENTED_EDGE ( 'NONE', *, *, #328, .F. ) ;
#545 = CARTESIAN_POINT ( 'NONE',  ( 9.000000000000001776, -7.749999999999992006, 0.000000000000000000 ) ) ;
#546 = CARTESIAN_POINT ( 'NONE',  ( -33.24999999999998579, -34.75000000000000000, 3.000000000000000000 ) ) ;
#547 = FACE_BOUND ( 'NONE', #968, .T. ) ;
#548 = VECTOR ( 'NONE', #847, 1000.000000000000000 ) ;
#549 = VECTOR ( 'NONE', #284, 1000.000000000000000 ) ;
#550 = VERTEX_POINT ( 'NONE', #914 ) ;
#551 = ORIENTED_EDGE ( 'NONE', *, *, #601, .T. ) ;
#552 = CARTESIAN_POINT ( 'NONE',  ( -28.25000000000001066, 3.250000000000007105, -0.001000000000000132727 ) ) ;
#553 = CARTESIAN_POINT ( 'NONE',  ( -18.25000000000001066, 3.250000000000005773, -0.001000000000000132727 ) ) ;
#554 = ORIENTED_EDGE ( 'NONE', *, *, #951, .T. ) ;
#555 = ORIENTED_EDGE ( 'NONE', *, *, #855, .T. ) ;
#556 = EDGE_LOOP ( 'NONE', ( #175, #151 ) ) ;
#557 = ADVANCED_FACE ( 'NONE', ( #595 ), #215, .F. ) ;
#558 = CARTESIAN_POINT ( 'NONE',  ( 0.000000000000000000, 0.000000000000000000, 3.000000000000000000 ) ) ;
#559 = ORIENTED_EDGE ( 'NONE', *, *, #720, .F. ) ;
#560 = EDGE_LOOP ( 'NONE', ( #879, #611 ) ) ;
#561 = EDGE_LOOP ( 'NONE', ( #178, #367, #3, #240 ) ) ;
#562 = DIRECTION ( 'NONE',  ( 0.000000000000000000, -1.000000000000000000, -0.000000000000000000 ) ) ;
#563 = VERTEX_POINT ( 'NONE', #600 ) ;
#564 = PRODUCT_DEFINITION_SHAPE ( 'NONE', 'NONE',  #493 ) ;
#565 = AXIS2_PLACEMENT_3D ( 'NONE', #496, #895, #575 ) ;
#566 = CARTESIAN_POINT ( 'NONE',  ( 6.000000000000000888, 16.25000000000000355, -0.001000000000000132727 ) ) ;
#567 = ORIENTED_EDGE ( 'NONE', *, *, #248, .F. ) ;
#568 = EDGE_CURVE ( 'NONE', #85, #685, #137, .T. ) ;
#569 = ORIENTED_EDGE ( 'NONE', *, *, #641, .T. ) ;
#570 = CYLINDRICAL_SURFACE ( 'NONE', #324, 1.500000000000001332 ) ;
#571 = DIRECTION ( 'NONE',  ( 1.996804001124382178E-16, -1.000000000000000000, 0.000000000000000000 ) ) ;
#572 = ORIENTED_EDGE ( 'NONE', *, *, #139, .F. ) ;
#573 = CARTESIAN_POINT ( 'NONE',  ( 28.25000000000001066, 3.250000000000007105, -0.001000000000000132727 ) ) ;
#574 = VECTOR ( 'NONE', #124, 1000.000000000000000 ) ;
#575 = DIRECTION ( 'NONE',  ( -1.000000000000000000, -1.301042606982605321E-16, 0.000000000000000000 ) ) ;
#576 = AXIS2_PLACEMENT_3D ( 'NONE', #360, #276, #591 ) ;
#577 = CARTESIAN_POINT ( 'NONE',  ( 28.25000000000001421, 0.2500000000000071609, 0.000000000000000000 ) ) ;
#578 = CARTESIAN_POINT ( 'NONE',  ( 10.50000000000000178, -7.749999999999992006, 0.000000000000000000 ) ) ;
#579 = DIRECTION ( 'NONE',  ( 1.000000000000000000, 0.000000000000000000, 0.000000000000000000 ) ) ;
#580 = CYLINDRICAL_SURFACE ( 'NONE', #501, 6.000000000000000888 ) ;
#581 = VERTEX_POINT ( 'NONE', #686 ) ;
#582 = CARTESIAN_POINT ( 'NONE',  ( -28.25000000000001421, 0.2500000000000071609, -0.001000000000000132727 ) ) ;
#583 = DIRECTION ( 'NONE',  ( 1.000000000000000000, 0.000000000000000000, 0.000000000000000000 ) ) ;
#584 = DIRECTION ( 'NONE',  ( -0.000000000000000000, -0.000000000000000000, -1.000000000000000000 ) ) ;
#585 = CYLINDRICAL_SURFACE ( 'NONE', #760, 1.500000000000001332 ) ;
#586 = FACE_OUTER_BOUND ( 'NONE', #949, .T. ) ;
#587 = VECTOR ( 'NONE', #373, 1000.000000000000000 ) ;
#588 = EDGE_CURVE ( 'NONE', #845, #216, #417, .T. ) ;
#589 = DIRECTION ( 'NONE',  ( 0.000000000000000000, -0.000000000000000000, -1.000000000000000000 ) ) ;
#590 = ORIENTED_EDGE ( 'NONE', *, *, #532, .T. ) ;
#591 = DIRECTION ( 'NONE',  ( 1.000000000000000000, 0.000000000000000000, 0.000000000000000000 ) ) ;
#592 = CIRCLE ( 'NONE', #407, 6.000000000000000888 ) ;
#593 = CARTESIAN_POINT ( 'NONE',  ( 0.000000000000000000, 16.25000000000000355, 3.000000000000000000 ) ) ;
#594 = DATE_AND_TIME ( #142, #657 ) ;
#595 = FACE_OUTER_BOUND ( 'NONE', #819, .T. ) ;
#596 = ORIENTED_EDGE ( 'NONE', *, *, #479, .F. ) ;
#597 = CARTESIAN_POINT ( 'NONE',  ( -18.25000000000001066, 0.2500000000000059397, 3.000000000000000000 ) ) ;
#598 = CARTESIAN_POINT ( 'NONE',  ( -9.000000000000001776, 25.25000000000000711, -0.001000000000000132727 ) ) ;
#599 = ORIENTED_EDGE ( 'NONE', *, *, #313, .F. ) ;
#600 = CARTESIAN_POINT ( 'NONE',  ( -33.24999999999998579, -34.75000000000000000, 0.000000000000000000 ) ) ;
#601 = EDGE_CURVE ( 'NONE', #619, #886, #107, .T. ) ;
#602 = SHAPE_DEFINITION_REPRESENTATION ( #564, #442 ) ;
#603 = ORIENTED_EDGE ( 'NONE', *, *, #957, .T. ) ;
#604 = ADVANCED_FACE ( 'NONE', ( #144 ), #680, .F. ) ;
#605 = LINE ( 'NONE', #552, #1008 ) ;
#606 = AXIS2_PLACEMENT_3D ( 'NONE', #901, #841, #666 ) ;
#607 = CARTESIAN_POINT ( 'NONE',  ( 33.25000000000001421, -34.75000000000000000, 3.000000000000000000 ) ) ;
#608 = DIRECTION ( 'NONE',  ( -0.000000000000000000, 0.000000000000000000, 1.000000000000000000 ) ) ;
#609 = CARTESIAN_POINT ( 'NONE',  ( 33.25000000000000000, 34.75000000000000000, 3.000000000000000000 ) ) ;
#610 = AXIS2_PLACEMENT_3D ( 'NONE', #766, #370, #684 ) ;
#611 = ORIENTED_EDGE ( 'NONE', *, *, #653, .F. ) ;
#612 = CYLINDRICAL_SURFACE ( 'NONE', #727, 1.499999999999999556 ) ;
#613 = COORDINATED_UNIVERSAL_TIME_OFFSET ( 5, 30, .AHEAD. ) ;
#614 = CARTESIAN_POINT ( 'NONE',  ( -29.00000000000000000, -19.74999999999999645, -0.001000000000000132727 ) ) ;
#615 = CARTESIAN_POINT ( 'NONE',  ( 28.25000000000001066, 3.250000000000007105, 0.000000000000000000 ) ) ;
#616 = COORDINATED_UNIVERSAL_TIME_OFFSET ( 5, 30, .AHEAD. ) ;
#617 = VERTEX_POINT ( 'NONE', #615 ) ;
#618 = ORIENTED_EDGE ( 'NONE', *, *, #721, .T. ) ;
#619 = VERTEX_POINT ( 'NONE', #999 ) ;
#620 = EDGE_CURVE ( 'NONE', #645, #475, #730, .T. ) ;
#621 = CARTESIAN_POINT ( 'NONE',  ( -33.24999999999998579, -34.75000000000000000, 3.000000000000000000 ) ) ;
#622 = VERTEX_POINT ( 'NONE', #46 ) ;
#623 = ORIENTED_EDGE ( 'NONE', *, *, #26, .T. ) ;
#624 = ORIENTED_EDGE ( 'NONE', *, *, #59, .F. ) ;
#625 = DIRECTION ( 'NONE',  ( 1.996804001124382178E-16, -1.000000000000000000, 0.000000000000000000 ) ) ;
#626 = LINE ( 'NONE', #164, #157 ) ;
#627 = EDGE_LOOP ( 'NONE', ( #310, #791, #940, #22 ) ) ;
#628 = AXIS2_PLACEMENT_3D ( 'NONE', #593, #205, #778 ) ;
#629 = VECTOR ( 'NONE', #625, 1000.000000000000000 ) ;
#630 = EDGE_CURVE ( 'NONE', #7, #18, #671, .T. ) ;
#631 = VECTOR ( 'NONE', #507, 1000.000000000000000 ) ;
#632 = ORIENTED_EDGE ( 'NONE', *, *, #479, .T. ) ;
#633 = SECURITY_CLASSIFICATION ( '', '', #383 ) ;
#634 = CARTESIAN_POINT ( 'NONE',  ( -18.25000000000001066, 0.2500000000000059397, 0.000000000000000000 ) ) ;
#635 = ORIENTED_EDGE ( 'NONE', *, *, #340, .T. ) ;
#636 = ORIENTED_EDGE ( 'NONE', *, *, #179, .F. ) ;
#637 = DIRECTION ( 'NONE',  ( -0.000000000000000000, 0.000000000000000000, 1.000000000000000000 ) ) ;
#638 = ORIENTED_EDGE ( 'NONE', *, *, #957, .F. ) ;
#639 = ORIENTED_EDGE ( 'NONE', *, *, #870, .T. ) ;
#640 = EDGE_CURVE ( 'NONE', #717, #955, #208, .T. ) ;
#641 = EDGE_CURVE ( 'NONE', #9, #909, #850, .T. ) ;
#642 = LINE ( 'NONE', #480, #924 ) ;
#643 = ORIENTED_EDGE ( 'NONE', *, *, #967, .T. ) ;
#644 = VECTOR ( 'NONE', #115, 1000.000000000000000 ) ;
#645 = VERTEX_POINT ( 'NONE', #149 ) ;
#646 = CIRCLE ( 'NONE', #527, 1.500000000000001332 ) ;
#647 = CARTESIAN_POINT ( 'NONE',  ( -26.00000000000000000, -19.74999999999999645, 3.000000000000000000 ) ) ;
#648 = ORIENTED_EDGE ( 'NONE', *, *, #532, .F. ) ;
#649 = CARTESIAN_POINT ( 'NONE',  ( 6.000000000000000888, 16.25000000000000355, 3.000000000000000000 ) ) ;
#650 = LINE ( 'NONE', #573, #235 ) ;
#651 = CARTESIAN_POINT ( 'NONE',  ( 27.50000000000000000, -19.74999999999999645, -0.001000000000000132727 ) ) ;
#652 = CARTESIAN_POINT ( 'NONE',  ( 18.25000000000001066, 3.250000000000005773, -0.001000000000000132727 ) ) ;
#653 = EDGE_CURVE ( 'NONE', #698, #241, #646, .T. ) ;
#654 = AXIS2_PLACEMENT_3D ( 'NONE', #693, #226, #943 ) ;
#655 = AXIS2_PLACEMENT_3D ( 'NONE', #546, #99, #722 ) ;
#656 = CARTESIAN_POINT ( 'NONE',  ( 33.25000000000000000, 34.75000000000000000, 0.000000000000000000 ) ) ;
#657 = LOCAL_TIME ( 18, 21, 46.00000000000000000, #525 ) ;
#658 = CARTESIAN_POINT ( 'NONE',  ( -9.000000000000001776, 25.25000000000000711, 0.000000000000000000 ) ) ;
#659 = DIRECTION ( 'NONE',  ( 1.000000000000000000, 0.000000000000000000, 0.000000000000000000 ) ) ;
#660 = ADVANCED_FACE ( 'NONE', ( #134, #55, #954, #414, #710, #958, #1, #961, #79, #487 ), #173, .T. ) ;
#661 = CARTESIAN_POINT ( 'NONE',  ( -26.00000000000000000, -19.74999999999999645, -0.001000000000000132727 ) ) ;
#662 = DIRECTION ( 'NONE',  ( -1.000000000000000000, -1.301042606982605074E-16, 0.000000000000000000 ) ) ;
#663 = DIRECTION ( 'NONE',  ( 1.000000000000000000, 0.000000000000000000, 0.000000000000000000 ) ) ;
#664 = DIRECTION ( 'NONE',  ( 1.000000000000000000, 0.000000000000000000, 0.000000000000000000 ) ) ;
#665 = EDGE_CURVE ( 'NONE', #788, #717, #238, .T. ) ;
#666 = DIRECTION ( 'NONE',  ( 1.000000000000000000, 0.000000000000000000, 0.000000000000000000 ) ) ;
#667 = CARTESIAN_POINT ( 'NONE',  ( -9.000000000000001776, 25.25000000000000711, 3.000000000000000000 ) ) ;
#668 = ORIENTED_EDGE ( 'NONE', *, *, #441, .F. ) ;
#669 = VECTOR ( 'NONE', #67, 1000.000000000000000 ) ;
#670 = DIRECTION ( 'NONE',  ( 1.000000000000000000, 0.000000000000000000, 0.000000000000000000 ) ) ;
#671 = CIRCLE ( 'NONE', #840, 1.500000000000001332 ) ;
#672 = DIRECTION ( 'NONE',  ( -0.000000000000000000, -0.000000000000000000, 1.000000000000000000 ) ) ;
#673 = LOCAL_TIME ( 18, 21, 46.00000000000000000, #616 ) ;
#674 = CARTESIAN_POINT ( 'NONE',  ( 9.000000000000001776, -7.749999999999992006, 3.000000000000000000 ) ) ;
#675 = ORIENTED_EDGE ( 'NONE', *, *, #887, .F. ) ;
#676 = DIRECTION ( 'NONE',  ( -0.000000000000000000, -0.000000000000000000, 1.000000000000000000 ) ) ;
#677 = LINE ( 'NONE', #191, #644 ) ;
#678 = MECHANICAL_CONTEXT ( 'NONE', #709, 'mechanical' ) ;
#679 = FACE_BOUND ( 'NONE', #689, .T. ) ;
#680 = PLANE ( 'NONE',  #509 ) ;
#681 = EDGE_CURVE ( 'NONE', #955, #1018, #476, .T. ) ;
#682 = ORIENTED_EDGE ( 'NONE', *, *, #820, .T. ) ;
#683 = DIRECTION ( 'NONE',  ( 0.000000000000000000, -0.000000000000000000, -1.000000000000000000 ) ) ;
#684 = DIRECTION ( 'NONE',  ( 1.000000000000000000, 0.000000000000000000, 0.000000000000000000 ) ) ;
#685 = VERTEX_POINT ( 'NONE', #159 ) ;
#686 = CARTESIAN_POINT ( 'NONE',  ( 18.25000000000001066, 0.2500000000000059397, 3.000000000000000000 ) ) ;
#687 = APPROVAL_STATUS ( 'not_yet_approved' ) ;
#688 = ADVANCED_FACE ( 'NONE', ( #252 ), #12, .F. ) ;
#689 = EDGE_LOOP ( 'NONE', ( #98, #403 ) ) ;
#690 = LINE ( 'NONE', #237, #754 ) ;
#691 = VECTOR ( 'NONE', #132, 1000.000000000000000 ) ;
#692 = CARTESIAN_POINT ( 'NONE',  ( -33.25000000000000000, 34.75000000000000000, 3.000000000000000000 ) ) ;
#693 = CARTESIAN_POINT ( 'NONE',  ( -33.25000000000000000, 34.75000000000000000, 3.000000000000000000 ) ) ;
#694 = AXIS2_PLACEMENT_3D ( 'NONE', #1005, #528, #994 ) ;
#695 = DIRECTION ( 'NONE',  ( -1.000000000000000000, 0.000000000000000000, 0.000000000000000000 ) ) ;
#696 = ORIENTED_EDGE ( 'NONE', *, *, #951, .F. ) ;
#697 = EDGE_LOOP ( 'NONE', ( #302, #256 ) ) ;
#698 = VERTEX_POINT ( 'NONE', #402 ) ;
#699 = EDGE_CURVE ( 'NONE', #1018, #9, #329, .T. ) ;
#700 = CARTESIAN_POINT ( 'NONE',  ( -9.000000000000001776, -7.749999999999996447, 0.000000000000000000 ) ) ;
#701 = LINE ( 'NONE', #607, #265 ) ;
#702 = ORIENTED_EDGE ( 'NONE', *, *, #270, .F. ) ;
#703 = VERTEX_POINT ( 'NONE', #800 ) ;
#704 = FACE_OUTER_BOUND ( 'NONE', #209, .T. ) ;
#705 = EDGE_CURVE ( 'NONE', #19, #703, #798, .T. ) ;
#706 = CARTESIAN_POINT ( 'NONE',  ( -10.50000000000000000, 25.25000000000000711, 0.000000000000000000 ) ) ;
#707 = FACE_BOUND ( 'NONE', #14, .T. ) ;
#708 = EDGE_LOOP ( 'NONE', ( #668, #520 ) ) ;
#709 = APPLICATION_CONTEXT ( 'configuration controlled 3d designs of mechanical parts and assemblies' ) ;
#710 = FACE_BOUND ( 'NONE', #708, .T. ) ;
#711 = EDGE_LOOP ( 'NONE', ( #1022, #474 ) ) ;
#712 = AXIS2_PLACEMENT_3D ( 'NONE', #443, #140, #121 ) ;
#713 = AXIS2_PLACEMENT_3D ( 'NONE', #545, #858, #78 ) ;
#714 = CIRCLE ( 'NONE', #138, 1.499999999999999556 ) ;
#715 = ORIENTED_EDGE ( 'NONE', *, *, #705, .F. ) ;
#716 = VECTOR ( 'NONE', #676, 1000.000000000000000 ) ;
#717 = VERTEX_POINT ( 'NONE', #634 ) ;
#718 = CARTESIAN_POINT ( 'NONE',  ( -18.25000000000001066, 0.2500000000000059397, 3.000000000000000000 ) ) ;
#719 = ORIENTED_EDGE ( 'NONE', *, *, #977, .T. ) ;
#720 = EDGE_CURVE ( 'NONE', #181, #932, #726, .T. ) ;
#721 = EDGE_CURVE ( 'NONE', #1015, #922, #642, .T. ) ;
#722 = DIRECTION ( 'NONE',  ( 0.000000000000000000, -0.000000000000000000, 1.000000000000000000 ) ) ;
#723 = EDGE_LOOP ( 'NONE', ( #288, #635, #590, #76 ) ) ;
#724 = VERTEX_POINT ( 'NONE', #177 ) ;
#725 = ORIENTED_EDGE ( 'NONE', *, *, #69, .F. ) ;
#726 = LINE ( 'NONE', #566, #470 ) ;
#727 = AXIS2_PLACEMENT_3D ( 'NONE', #65, #153, #457 ) ;
#728 = EDGE_LOOP ( 'NONE', ( #246, #959 ) ) ;
#729 = VECTOR ( 'NONE', #352, 1000.000000000000000 ) ;
#730 = CIRCLE ( 'NONE', #73, 1.500000000000001332 ) ;
#731 = DIRECTION ( 'NONE',  ( -0.000000000000000000, -0.000000000000000000, 1.000000000000000000 ) ) ;
#732 = ORIENTED_EDGE ( 'NONE', *, *, #681, .T. ) ;
#733 = CARTESIAN_POINT ( 'NONE',  ( 0.000000000000000000, 16.25000000000000355, 0.000000000000000000 ) ) ;
#734 = FACE_OUTER_BOUND ( 'NONE', #232, .T. ) ;
#735 = ADVANCED_FACE ( 'NONE', ( #880 ), #790, .T. ) ;
#736 = CIRCLE ( 'NONE', #513, 1.500000000000001332 ) ;
#737 = DIRECTION ( 'NONE',  ( 1.000000000000000000, 0.000000000000000000, 0.000000000000000000 ) ) ;
#738 = LINE ( 'NONE', #656, #729 ) ;
#739 = CARTESIAN_POINT ( 'NONE',  ( -7.500000000000001776, -7.749999999999996447, -0.001000000000000132727 ) ) ;
#740 = VECTOR ( 'NONE', #60, 1000.000000000000000 ) ;
#741 = AXIS2_PLACEMENT_3D ( 'NONE', #674, #844, #455 ) ;
#742 = PLANE ( 'NONE',  #119 ) ;
#743 = DIRECTION ( 'NONE',  ( -0.000000000000000000, -0.000000000000000000, 1.000000000000000000 ) ) ;
#744 = FACE_OUTER_BOUND ( 'NONE', #413, .T. ) ;
#745 = EDGE_CURVE ( 'NONE', #995, #581, #409, .T. ) ;
#746 = CARTESIAN_POINT ( 'NONE',  ( -6.000000000000000888, 16.25000000000000355, 0.000000000000000000 ) ) ;
#747 = DIRECTION ( 'NONE',  ( -0.000000000000000000, -0.000000000000000000, 1.000000000000000000 ) ) ;
#748 = PLANE ( 'NONE',  #494 ) ;
#749 = DIRECTION ( 'NONE',  ( 1.000000000000000000, 0.000000000000000000, 0.000000000000000000 ) ) ;
#750 = DIRECTION ( 'NONE',  ( 0.000000000000000000, -0.000000000000000000, -1.000000000000000000 ) ) ;
#751 = PERSON_AND_ORGANIZATION ( #404, #108 ) ;
#752 = DIRECTION ( 'NONE',  ( 1.000000000000000000, 0.000000000000000000, 0.000000000000000000 ) ) ;
#753 = VERTEX_POINT ( 'NONE', #706 ) ;
#754 = VECTOR ( 'NONE', #74, 1000.000000000000000 ) ;
#755 = EDGE_CURVE ( 'NONE', #322, #909, #230, .T. ) ;
#756 = LINE ( 'NONE', #52, #716 ) ;
#757 = AXIS2_PLACEMENT_3D ( 'NONE', #829, #197, #514 ) ;
#758 = VECTOR ( 'NONE', #491, 1000.000000000000000 ) ;
#759 = CARTESIAN_POINT ( 'NONE',  ( -28.25000000000001066, 3.250000000000007105, 0.000000000000000000 ) ) ;
#760 = AXIS2_PLACEMENT_3D ( 'NONE', #356, #436, #749 ) ;
#761 = DATE_AND_TIME ( #298, #978 ) ;
#762 = CARTESIAN_POINT ( 'NONE',  ( -10.50000000000000000, 25.25000000000000711, -0.001000000000000132727 ) ) ;
#763 = CARTESIAN_POINT ( 'NONE',  ( -27.50000000000000000, -19.74999999999999645, 0.000000000000000000 ) ) ;
#764 = ORIENTED_EDGE ( 'NONE', *, *, #295, .F. ) ;
#765 = CARTESIAN_POINT ( 'NONE',  ( 10.50000000000000178, -7.749999999999992006, 3.000000000000000000 ) ) ;
#766 = CARTESIAN_POINT ( 'NONE',  ( 0.000000000000000000, 0.000000000000000000, 0.000000000000000000 ) ) ;
#767 = DIRECTION ( 'NONE',  ( -1.000000000000000000, 1.301042606982605321E-16, 0.000000000000000000 ) ) ;
#768 = CC_DESIGN_PERSON_AND_ORGANIZATION_ASSIGNMENT ( #206, #533, ( #861 ) ) ;
#769 = DIRECTION ( 'NONE',  ( 0.000000000000000000, -1.000000000000000000, 0.000000000000000000 ) ) ;
#770 = EDGE_LOOP ( 'NONE', ( #359, #315, #867, #254 ) ) ;
#771 = ORIENTED_EDGE ( 'NONE', *, *, #640, .T. ) ;
#772 = LINE ( 'NONE', #297, #548 ) ;
#773 = APPROVAL_DATE_TIME ( #594, #396 ) ;
#774 = LINE ( 'NONE', #614, #740 ) ;
#775 = DIRECTION ( 'NONE',  ( -0.000000000000000000, -0.000000000000000000, 1.000000000000000000 ) ) ;
#776 = EDGE_CURVE ( 'NONE', #909, #955, #1024, .T. ) ;
#777 = ORIENTED_EDGE ( 'NONE', *, *, #328, .T. ) ;
#778 = DIRECTION ( 'NONE',  ( 1.000000000000000000, 0.000000000000000000, 0.000000000000000000 ) ) ;
#779 = AXIS2_PLACEMENT_3D ( 'NONE', #658, #750, #987 ) ;
#780 = FACE_OUTER_BOUND ( 'NONE', #227, .T. ) ;
#781 = VECTOR ( 'NONE', #859, 1000.000000000000000 ) ;
#782 = CALENDAR_DATE ( 2026, 1, 9 ) ;
#783 = EDGE_CURVE ( 'NONE', #241, #698, #303, .T. ) ;
#784 = DIRECTION ( 'NONE',  ( 1.000000000000000000, 0.000000000000000000, 0.000000000000000000 ) ) ;
#785 = DIRECTION ( 'NONE',  ( -0.000000000000000000, -0.000000000000000000, 1.000000000000000000 ) ) ;
#786 = ORIENTED_EDGE ( 'NONE', *, *, #982, .T. ) ;
#787 = PERSON_AND_ORGANIZATION ( #404, #108 ) ;
#788 = VERTEX_POINT ( 'NONE', #319 ) ;
#789 = ORIENTED_EDGE ( 'NONE', *, *, #993, .F. ) ;
#790 = PLANE ( 'NONE',  #17 ) ;
#791 = ORIENTED_EDGE ( 'NONE', *, *, #681, .F. ) ;
#792 = EDGE_LOOP ( 'NONE', ( #1021, #551 ) ) ;
#793 = DIRECTION ( 'NONE',  ( -0.000000000000000000, 0.000000000000000000, 1.000000000000000000 ) ) ;
#794 = PRODUCT ( 'Lid_Default_sldprt', 'Lid_Default_sldprt', '', ( #678 ) ) ;
#795 = ORIENTED_EDGE ( 'NONE', *, *, #343, .T. ) ;
#796 = EDGE_CURVE ( 'NONE', #415, #330, #236, .T. ) ;
#797 = CIRCLE ( 'NONE', #105, 1.500000000000001332 ) ;
#798 = CIRCLE ( 'NONE', #198, 1.499999999999999556 ) ;
#799 = CC_DESIGN_APPROVAL ( #846, ( #633 ) ) ;
#800 = CARTESIAN_POINT ( 'NONE',  ( -10.50000000000000000, 25.25000000000000711, 3.000000000000000000 ) ) ;
#801 = EDGE_LOOP ( 'NONE', ( #156, #868, #962, #251 ) ) ;
#802 = EDGE_CURVE ( 'NONE', #862, #216, #626, .T. ) ;
#803 = DIRECTION ( 'NONE',  ( 0.000000000000000000, 0.000000000000000000, 1.000000000000000000 ) ) ;
#804 = EDGE_LOOP ( 'NONE', ( #952, #166, #456, #245 ) ) ;
#805 = PLANE ( 'NONE',  #948 ) ;
#806 = CIRCLE ( 'NONE', #779, 1.499999999999999556 ) ;
#807 = CIRCLE ( 'NONE', #364, 1.500000000000001332 ) ;
#808 = AXIS2_PLACEMENT_3D ( 'NONE', #300, #921, #695 ) ;
#809 = EDGE_CURVE ( 'NONE', #563, #84, #885, .T. ) ;
#810 = CARTESIAN_POINT ( 'NONE',  ( 7.500000000000000000, -7.749999999999992006, 3.000000000000000000 ) ) ;
#811 = DIRECTION ( 'NONE',  ( 0.000000000000000000, 0.000000000000000000, 1.000000000000000000 ) ) ;
#812 = APPLICATION_CONTEXT ( 'configuration controlled 3d designs of mechanical parts and assemblies' ) ;
#813 = CC_DESIGN_DATE_AND_TIME_ASSIGNMENT ( #394, #930, ( #633 ) ) ;
#814 = LINE ( 'NONE', #661, #631 ) ;
#815 = LINE ( 'NONE', #201, #311 ) ;
#816 = LINE ( 'NONE', #111, #758 ) ;
#817 = ADVANCED_FACE ( 'NONE', ( #983 ), #805, .F. ) ;
#818 = DIRECTION ( 'NONE',  ( -0.000000000000000000, -0.000000000000000000, 1.000000000000000000 ) ) ;
#819 = EDGE_LOOP ( 'NONE', ( #719, #169, #106, #478 ) ) ;
#820 = EDGE_CURVE ( 'NONE', #49, #203, #120, .T. ) ;
#821 = DIRECTION ( 'NONE',  ( -0.000000000000000000, -0.000000000000000000, 1.000000000000000000 ) ) ;
#822 = VECTOR ( 'NONE', #398, 1000.000000000000000 ) ;
#823 = CARTESIAN_POINT ( 'NONE',  ( 7.500000000000000888, -7.749999999999992006, -0.001000000000000132727 ) ) ;
#824 = CARTESIAN_POINT ( 'NONE',  ( 33.25000000000001421, -34.75000000000000000, 0.000000000000000000 ) ) ;
#825 = CARTESIAN_POINT ( 'NONE',  ( 9.000000000000001776, -7.749999999999992006, 0.000000000000000000 ) ) ;
#826 = DIRECTION ( 'NONE',  ( 0.000000000000000000, 0.000000000000000000, 1.000000000000000000 ) ) ;
#827 = CARTESIAN_POINT ( 'NONE',  ( -27.50000000000000000, -19.74999999999999645, 3.000000000000000000 ) ) ;
#828 = PLANE ( 'NONE',  #34 ) ;
#829 = CARTESIAN_POINT ( 'NONE',  ( 27.50000000000000000, -19.74999999999999645, -0.001000000000000132727 ) ) ;
#830 = ADVANCED_FACE ( 'NONE', ( #734 ), #499, .F. ) ;
#831 = ORIENTED_EDGE ( 'NONE', *, *, #977, .F. ) ;
#832 = CARTESIAN_POINT ( 'NONE',  ( 18.25000000000001066, 0.2500000000000059397, 0.000000000000000000 ) ) ;
#833 = LINE ( 'NONE', #44, #691 ) ;
#834 = PERSON_AND_ORGANIZATION ( #404, #108 ) ;
#835 = ORIENTED_EDGE ( 'NONE', *, *, #894, .F. ) ;
#836 = DIRECTION ( 'NONE',  ( 1.000000000000000000, -1.301042606982605074E-16, 0.000000000000000000 ) ) ;
#837 = ORIENTED_EDGE ( 'NONE', *, *, #1000, .F. ) ;
#838 = VECTOR ( 'NONE', #992, 1000.000000000000000 ) ;
#839 = ADVANCED_FACE ( 'NONE', ( #503 ), #182, .F. ) ;
#840 = AXIS2_PLACEMENT_3D ( 'NONE', #438, #461, #929 ) ;
#841 = DIRECTION ( 'NONE',  ( -0.000000000000000000, -0.000000000000000000, 1.000000000000000000 ) ) ;
#842 = APPROVAL_PERSON_ORGANIZATION ( #834, #102, #126 ) ;
#843 = ORIENTED_EDGE ( 'NONE', *, *, #233, .T. ) ;
#844 = DIRECTION ( 'NONE',  ( 0.000000000000000000, 0.000000000000000000, 1.000000000000000000 ) ) ;
#845 = VERTEX_POINT ( 'NONE', #810 ) ;
#846 = APPROVAL ( #687, 'UNSPECIFIED' ) ;
#847 = DIRECTION ( 'NONE',  ( -0.000000000000000000, -0.000000000000000000, 1.000000000000000000 ) ) ;
#848 = FACE_OUTER_BOUND ( 'NONE', #801, .T. ) ;
#849 = CARTESIAN_POINT ( 'NONE',  ( 18.25000000000001066, 0.2500000000000059397, -0.001000000000000132727 ) ) ;
#850 = LINE ( 'NONE', #293, #990 ) ;
#851 = ORIENTED_EDGE ( 'NONE', *, *, #179, .T. ) ;
#852 = ORIENTED_EDGE ( 'NONE', *, *, #515, .T. ) ;
#853 = DIRECTION ( 'NONE',  ( 1.000000000000000000, 0.000000000000000000, 0.000000000000000000 ) ) ;
#854 = LINE ( 'NONE', #155, #889 ) ;
#855 = EDGE_CURVE ( 'NONE', #538, #753, #50, .T. ) ;
#856 = ORIENTED_EDGE ( 'NONE', *, *, #270, .T. ) ;
#857 = ORIENTED_EDGE ( 'NONE', *, *, #486, .F. ) ;
#858 = DIRECTION ( 'NONE',  ( 0.000000000000000000, -0.000000000000000000, -1.000000000000000000 ) ) ;
#859 = DIRECTION ( 'NONE',  ( -0.000000000000000000, -1.000000000000000000, -0.000000000000000000 ) ) ;
#860 = DIRECTION ( 'NONE',  ( -0.000000000000000000, -0.000000000000000000, 1.000000000000000000 ) ) ;
#861 = PRODUCT_DEFINITION_FORMATION_WITH_SPECIFIED_SOURCE ( 'ANY', '', #794, .NOT_KNOWN. ) ;
#862 = VERTEX_POINT ( 'NONE', #578 ) ;
#863 = ORIENTED_EDGE ( 'NONE', *, *, #459, .F. ) ;
#864 = VERTEX_POINT ( 'NONE', #25 ) ;
#865 = DIRECTION ( 'NONE',  ( 1.000000000000000000, 0.000000000000000000, 0.000000000000000000 ) ) ;
#866 = ORIENTED_EDGE ( 'NONE', *, *, #123, .T. ) ;
#867 = ORIENTED_EDGE ( 'NONE', *, *, #486, .T. ) ;
#868 = ORIENTED_EDGE ( 'NONE', *, *, #489, .F. ) ;
#869 = ORIENTED_EDGE ( 'NONE', *, *, #26, .F. ) ;
#870 = EDGE_CURVE ( 'NONE', #475, #886, #814, .T. ) ;
#871 = DIRECTION ( 'NONE',  ( -0.000000000000000000, -0.000000000000000000, -1.000000000000000000 ) ) ;
#872 = ORIENTED_EDGE ( 'NONE', *, *, #167, .T. ) ;
#873 = EDGE_LOOP ( 'NONE', ( #732, #878, #569, #536 ) ) ;
#874 = ORIENTED_EDGE ( 'NONE', *, *, #870, .F. ) ;
#875 = DIRECTION ( 'NONE',  ( 0.000000000000000000, 0.000000000000000000, 1.000000000000000000 ) ) ;
#876 = ORIENTED_EDGE ( 'NONE', *, *, #141, .F. ) ;
#877 = AXIS2_PLACEMENT_3D ( 'NONE', #449, #378, #366 ) ;
#878 = ORIENTED_EDGE ( 'NONE', *, *, #699, .T. ) ;
#879 = ORIENTED_EDGE ( 'NONE', *, *, #783, .F. ) ;
#880 = FACE_OUTER_BOUND ( 'NONE', #101, .T. ) ;
#881 = ORIENTED_EDGE ( 'NONE', *, *, #982, .F. ) ;
#882 = ADVANCED_FACE ( 'NONE', ( #342 ), #35, .F. ) ;
#883 = VECTOR ( 'NONE', #426, 1000.000000000000000 ) ;
#884 = ORIENTED_EDGE ( 'NONE', *, *, #887, .T. ) ;
#885 = LINE ( 'NONE', #979, #365 ) ;
#886 = VERTEX_POINT ( 'NONE', #647 ) ;
#887 = EDGE_CURVE ( 'NONE', #337, #922, #816, .T. ) ;
#888 = LINE ( 'NONE', #832, #549 ) ;
#889 = VECTOR ( 'NONE', #767, 1000.000000000000000 ) ;
#890 = DIRECTION ( 'NONE',  ( 0.000000000000000000, 0.000000000000000000, 1.000000000000000000 ) ) ;
#891 = VECTOR ( 'NONE', #571, 1000.000000000000000 ) ;
#892 = CARTESIAN_POINT ( 'NONE',  ( 28.25000000000001421, 0.2500000000000071609, 3.000000000000000000 ) ) ;
#893 = CARTESIAN_POINT ( 'NONE',  ( 9.000000000000001776, -7.749999999999992006, 3.000000000000000000 ) ) ;
#894 = EDGE_CURVE ( 'NONE', #84, #337, #738, .T. ) ;
#895 = DIRECTION ( 'NONE',  ( -1.301042606982605321E-16, 1.000000000000000000, 0.000000000000000000 ) ) ;
#896 = ADVANCED_FACE ( 'NONE', ( #114 ), #742, .T. ) ;
#897 = CARTESIAN_POINT ( 'NONE',  ( 28.25000000000001421, 0.2500000000000071609, 0.000000000000000000 ) ) ;
#898 = CARTESIAN_POINT ( 'NONE',  ( 27.50000000000000000, -19.74999999999999645, 0.000000000000000000 ) ) ;
#899 = DIRECTION ( 'NONE',  ( 1.000000000000000000, -1.156482317317871331E-15, 0.000000000000000000 ) ) ;
#900 = EDGE_CURVE ( 'NONE', #451, #845, #103, .T. ) ;
#901 = CARTESIAN_POINT ( 'NONE',  ( 9.000000000000001776, -7.749999999999992006, -0.001000000000000132727 ) ) ;
#902 = LINE ( 'NONE', #122, #883 ) ;
#903 = VECTOR ( 'NONE', #662, 1000.000000000000000 ) ;
#904 = VERTEX_POINT ( 'NONE', #746 ) ;
#905 = AXIS2_PLACEMENT_3D ( 'NONE', #427, #109, #180 ) ;
#906 = CARTESIAN_POINT ( 'NONE',  ( 9.000000000000001776, 25.25000000000000711, 0.000000000000000000 ) ) ;
#907 = CARTESIAN_POINT ( 'NONE',  ( -10.50000000000000000, -7.749999999999996447, -0.001000000000000132727 ) ) ;
#908 = DIRECTION ( 'NONE',  ( -0.000000000000000000, 0.000000000000000000, 1.000000000000000000 ) ) ;
#909 = VERTEX_POINT ( 'NONE', #966 ) ;
#910 = DESIGN_CONTEXT ( 'detailed design', #812, 'design' ) ;
#911 = LINE ( 'NONE', #517, #4 ) ;
#912 = CARTESIAN_POINT ( 'NONE',  ( -7.500000000000001776, -7.749999999999996447, 0.000000000000000000 ) ) ;
#913 = CYLINDRICAL_SURFACE ( 'NONE', #104, 1.499999999999999556 ) ;
#914 = CARTESIAN_POINT ( 'NONE',  ( 7.500000000000000000, 25.25000000000000711, 0.000000000000000000 ) ) ;
#915 = ADVANCED_FACE ( 'NONE', ( #255 ), #570, .F. ) ;
#916 = ORIENTED_EDGE ( 'NONE', *, *, #665, .T. ) ;
#917 = DIRECTION ( 'NONE',  ( 0.000000000000000000, -0.000000000000000000, -1.000000000000000000 ) ) ;
#918 = LINE ( 'NONE', #508, #838 ) ;
#919 = PERSON_AND_ORGANIZATION_ROLE ( 'design_owner' ) ;
#920 = ORIENTED_EDGE ( 'NONE', *, *, #1000, .T. ) ;
#921 = DIRECTION ( 'NONE',  ( -0.000000000000000000, -0.000000000000000000, -1.000000000000000000 ) ) ;
#922 = VERTEX_POINT ( 'NONE', #339 ) ;
#923 = AXIS2_PLACEMENT_3D ( 'NONE', #29, #743, #437 ) ;
#924 = VECTOR ( 'NONE', #871, 1000.000000000000000 ) ;
#925 = CARTESIAN_POINT ( 'NONE',  ( 0.000000000000000000, 16.25000000000000355, 3.000000000000000000 ) ) ;
#926 = LOCAL_TIME ( 18, 21, 46.00000000000000000, #613 ) ;
#927 = APPLICATION_PROTOCOL_DEFINITION ( 'international standard', 'config_control_design', 1994, #812 ) ;
#928 = DIRECTION ( 'NONE',  ( 1.000000000000000000, 0.000000000000000000, 0.000000000000000000 ) ) ;
#929 = DIRECTION ( 'NONE',  ( 1.000000000000000000, 0.000000000000000000, 0.000000000000000000 ) ) ;
#930 = DATE_TIME_ROLE ( 'classification_date' ) ;
#931 = ORIENTED_EDGE ( 'NONE', *, *, #69, .T. ) ;
#932 = VERTEX_POINT ( 'NONE', #649 ) ;
#933 = CARTESIAN_POINT ( 'NONE',  ( 10.50000000000000178, 25.25000000000000711, 3.000000000000000000 ) ) ;
#934 = EDGE_CURVE ( 'NONE', #1015, #864, #970, .T. ) ;
#935 = APPROVAL_ROLE ( '' ) ;
#936 = CYLINDRICAL_SURFACE ( 'NONE', #195, 6.000000000000000888 ) ;
#937 = DIRECTION ( 'NONE',  ( 0.000000000000000000, 0.000000000000000000, 1.000000000000000000 ) ) ;
#938 = ORIENTED_EDGE ( 'NONE', *, *, #82, .T. ) ;
#939 = PERSON_AND_ORGANIZATION ( #404, #108 ) ;
#940 = ORIENTED_EDGE ( 'NONE', *, *, #640, .F. ) ;
#941 = FACE_OUTER_BOUND ( 'NONE', #627, .T. ) ;
#942 = DIRECTION ( 'NONE',  ( -1.000000000000000000, 0.000000000000000000, -0.000000000000000000 ) ) ;
#943 = DIRECTION ( 'NONE',  ( -1.996804001124382178E-16, 1.000000000000000000, 0.000000000000000000 ) ) ;
#944 = ORIENTED_EDGE ( 'NONE', *, *, #515, .F. ) ;
#945 = CLOSED_SHELL ( 'NONE', ( #971, #333, #20, #112, #176, #557, #62, #660, #15, #1009, #604, #5, #688, #425, #130, #117, #915, #210, #882, #247, #817, #830, #390, #839, #896, #975, #735, #272 ) ) ;
#946 = FACE_OUTER_BOUND ( 'NONE', #770, .T. ) ;
#947 = CARTESIAN_POINT ( 'NONE',  ( -9.000000000000001776, -7.749999999999996447, 3.000000000000000000 ) ) ;
#948 = AXIS2_PLACEMENT_3D ( 'NONE', #345, #261, #271 ) ;
#949 = EDGE_LOOP ( 'NONE', ( #537, #10, #292, #283 ) ) ;
#950 =( GEOMETRIC_REPRESENTATION_CONTEXT ( 3 ) GLOBAL_UNCERTAINTY_ASSIGNED_CONTEXT ( ( #129 ) ) GLOBAL_UNIT_ASSIGNED_CONTEXT ( ( #466, #291, #453 ) ) REPRESENTATION_CONTEXT ( 'NONE', 'WORKASPACE' ) );
#951 = EDGE_CURVE ( 'NONE', #304, #90, #888, .T. ) ;
#952 = ORIENTED_EDGE ( 'NONE', *, *, #900, .F. ) ;
#953 = ORIENTED_EDGE ( 'NONE', *, *, #260, .T. ) ;
#954 = FACE_BOUND ( 'NONE', #556, .T. ) ;
#955 = VERTEX_POINT ( 'NONE', #597 ) ;
#956 = EDGE_LOOP ( 'NONE', ( #555, #623, #381, #876 ) ) ;
#957 = EDGE_CURVE ( 'NONE', #550, #6, #448, .T. ) ;
#958 = FACE_BOUND ( 'NONE', #384, .T. ) ;
#959 = ORIENTED_EDGE ( 'NONE', *, *, #967, .F. ) ;
#960 = EDGE_CURVE ( 'NONE', #90, #617, #511, .T. ) ;
#961 = FACE_BOUND ( 'NONE', #316, .T. ) ;
#962 = ORIENTED_EDGE ( 'NONE', *, *, #351, .F. ) ;
#963 = CIRCLE ( 'NONE', #628, 6.000000000000000888 ) ;
#964 = VECTOR ( 'NONE', #411, 1000.000000000000000 ) ;
#965 = ORIENTED_EDGE ( 'NONE', *, *, #424, .F. ) ;
#966 = CARTESIAN_POINT ( 'NONE',  ( -18.25000000000001066, 3.250000000000005773, 3.000000000000000000 ) ) ;
#967 = EDGE_CURVE ( 'NONE', #330, #415, #714, .T. ) ;
#968 = EDGE_LOOP ( 'NONE', ( #56, #412 ) ) ;
#969 = AXIS2_PLACEMENT_3D ( 'NONE', #985, #811, #659 ) ;
#970 = LINE ( 'NONE', #257, #891 ) ;
#971 = ADVANCED_FACE ( 'NONE', ( #986 ), #585, .F. ) ;
#972 = CARTESIAN_POINT ( 'NONE',  ( -27.50000000000000000, -19.74999999999999645, 0.000000000000000000 ) ) ;
#973 = DIRECTION ( 'NONE',  ( -0.000000000000000000, -0.000000000000000000, 1.000000000000000000 ) ) ;
#974 = CARTESIAN_POINT ( 'NONE',  ( -10.50000000000000000, -7.749999999999996447, 3.000000000000000000 ) ) ;
#975 = ADVANCED_FACE ( 'NONE', ( #42 ), #199, .T. ) ;
#976 = VECTOR ( 'NONE', #775, 1000.000000000000000 ) ;
#977 = EDGE_CURVE ( 'NONE', #6, #550, #450, .T. ) ;
#978 = LOCAL_TIME ( 18, 21, 46.00000000000000000, #1003 ) ;
#979 = CARTESIAN_POINT ( 'NONE',  ( -33.24999999999998579, -34.75000000000000000, 0.000000000000000000 ) ) ;
#980 = DIRECTION ( 'NONE',  ( 0.000000000000000000, -0.000000000000000000, -1.000000000000000000 ) ) ;
#981 = CARTESIAN_POINT ( 'NONE',  ( 7.500000000000000000, -7.749999999999992006, 0.000000000000000000 ) ) ;
#982 = EDGE_CURVE ( 'NONE', #581, #49, #911, .T. ) ;
#983 = FACE_OUTER_BOUND ( 'NONE', #162, .T. ) ;
#984 = DIRECTION ( 'NONE',  ( -0.000000000000000000, -0.000000000000000000, -1.000000000000000000 ) ) ;
#985 = CARTESIAN_POINT ( 'NONE',  ( 27.50000000000000000, -19.74999999999999645, 3.000000000000000000 ) ) ;
#986 = FACE_OUTER_BOUND ( 'NONE', #405, .T. ) ;
#987 = DIRECTION ( 'NONE',  ( 1.000000000000000000, 0.000000000000000000, 0.000000000000000000 ) ) ;
#988 = FACE_OUTER_BOUND ( 'NONE', #321, .T. ) ;
#989 = ORIENTED_EDGE ( 'NONE', *, *, #77, .F. ) ;
#990 = VECTOR ( 'NONE', #836, 1000.000000000000000 ) ;
#991 = DIRECTION ( 'NONE',  ( 0.000000000000000000, -0.000000000000000000, -1.000000000000000000 ) ) ;
#992 = DIRECTION ( 'NONE',  ( -0.000000000000000000, -0.000000000000000000, 1.000000000000000000 ) ) ;
#993 = EDGE_CURVE ( 'NONE', #904, #622, #756, .T. ) ;
#994 = DIRECTION ( 'NONE',  ( 1.000000000000000000, 0.000000000000000000, 0.000000000000000000 ) ) ;
#995 = VERTEX_POINT ( 'NONE', #996 ) ;
#996 = CARTESIAN_POINT ( 'NONE',  ( 18.25000000000001066, 3.250000000000005773, 3.000000000000000000 ) ) ;
#997 = CARTESIAN_POINT ( 'NONE',  ( 26.00000000000000000, -19.74999999999999645, 0.000000000000000000 ) ) ;
#998 = CARTESIAN_POINT ( 'NONE',  ( 0.000000000000000000, 0.000000000000000000, 0.000000000000000000 ) ) ;
#999 = CARTESIAN_POINT ( 'NONE',  ( -29.00000000000000000, -19.74999999999999645, 3.000000000000000000 ) ) ;
#1000 = EDGE_CURVE ( 'NONE', #181, #904, #282, .T. ) ;
#1001 = ORIENTED_EDGE ( 'NONE', *, *, #960, .T. ) ;
#1002 = DIRECTION ( 'NONE',  ( -0.000000000000000000, -0.000000000000000000, 1.000000000000000000 ) ) ;
#1003 = COORDINATED_UNIVERSAL_TIME_OFFSET ( 5, 30, .AHEAD. ) ;
#1004 = ORIENTED_EDGE ( 'NONE', *, *, #327, .F. ) ;
#1005 = CARTESIAN_POINT ( 'NONE',  ( 9.000000000000001776, 25.25000000000000711, -0.001000000000000132727 ) ) ;
#1006 = EDGE_CURVE ( 'NONE', #228, #84, #701, .T. ) ;
#1007 = EDGE_LOOP ( 'NONE', ( #835, #71, #544, #675 ) ) ;
#1008 = VECTOR ( 'NONE', #57, 1000.000000000000000 ) ;
#1009 = ADVANCED_FACE ( 'NONE', ( #848 ), #828, .F. ) ;
#1010 = AXIS2_PLACEMENT_3D ( 'NONE', #38, #28, #423 ) ;
#1011 = CARTESIAN_POINT ( 'NONE',  ( 28.25000000000001066, 3.250000000000007105, 3.000000000000000000 ) ) ;
#1012 = DIRECTION ( 'NONE',  ( -1.000000000000000000, -1.996804001124382178E-16, 0.000000000000000000 ) ) ;
#1013 = CARTESIAN_POINT ( 'NONE',  ( -9.000000000000001776, -7.749999999999996447, -0.001000000000000132727 ) ) ;
#1014 = CARTESIAN_POINT ( 'NONE',  ( -33.25000000000000000, 34.75000000000000000, 3.000000000000000000 ) ) ;
#1015 = VERTEX_POINT ( 'NONE', #692 ) ;
#1016 = LINE ( 'NONE', #621, #406 ) ;
#1017 = CARTESIAN_POINT ( 'NONE',  ( 33.25000000000000000, 34.75000000000000000, 3.000000000000000000 ) ) ;
#1018 = VERTEX_POINT ( 'NONE', #58 ) ;
#1019 = DATE_AND_TIME ( #782, #218 ) ;
#1020 = VERTEX_POINT ( 'NONE', #314 ) ;
#1021 = ORIENTED_EDGE ( 'NONE', *, *, #163, .T. ) ;
#1022 = ORIENTED_EDGE ( 'NONE', *, *, #172, .F. ) ;
#1023 = LINE ( 'NONE', #318, #629 ) ;
#1024 = LINE ( 'NONE', #718, #174 ) ;
#1025 = FACE_BOUND ( 'NONE', #152, .T. ) ;
#1026 = ORIENTED_EDGE ( 'NONE', *, *, #172, .T. ) ;
#1027 = EDGE_LOOP ( 'NONE', ( #239, #881, #128, #572 ) ) ;
ENDSEC;
END-ISO-10303-21;
