ISO-10303-21;
HEADER;
FILE_DESCRIPTION (( 'STEP AP203' ),
    '1' );
FILE_NAME ('MechanicalLimit_Default_sldprt.STEP',
    '2026-09-01T12:51:49',
    ( '' ),
    ( '' ),
    'SwSTEP 2.0',
    'SolidWorks 2020',
    '' );
FILE_SCHEMA (( 'CONFIG_CONTROL_DESIGN' ));
ENDSEC;

DATA;
#1 = VECTOR ( 'NONE', #387, 1000.000000000000000 ) ;
#2 = ORIENTED_EDGE ( 'NONE', *, *, #251, .F. ) ;
#3 = LINE ( 'NONE', #353, #281 ) ;
#4 = EDGE_LOOP ( 'NONE', ( #465, #310, #453, #352 ) ) ;
#5 = CARTESIAN_POINT ( 'NONE',  ( -10.00000000000000178, -38.49999999999999289, 3.000000000000000000 ) ) ;
#6 = EDGE_CURVE ( 'NONE', #102, #335, #81, .T. ) ;
#7 = CARTESIAN_POINT ( 'NONE',  ( -5.000000000000007994, -38.49999999999999289, 0.000000000000000000 ) ) ;
#8 = CARTESIAN_POINT ( 'NONE',  ( -4.999999999999998224, -41.49999999999999289, 0.000000000000000000 ) ) ;
#9 = AXIS2_PLACEMENT_3D ( 'NONE', #5, #269, #393 ) ;
#10 = CARTESIAN_POINT ( 'NONE',  ( 4.999999999999990230, 38.50000000000000711, 3.000000000000000000 ) ) ;
#11 = EDGE_CURVE ( 'NONE', #261, #107, #471, .T. ) ;
#12 = FACE_OUTER_BOUND ( 'NONE', #349, .T. ) ;
#13 = DIRECTION ( 'NONE',  ( -1.000000000000000000, -0.000000000000000000, -0.000000000000000000 ) ) ;
#14 =( GEOMETRIC_REPRESENTATION_CONTEXT ( 3 ) GLOBAL_UNCERTAINTY_ASSIGNED_CONTEXT ( ( #103 ) ) GLOBAL_UNIT_ASSIGNED_CONTEXT ( ( #481, #361, #362 ) ) REPRESENTATION_CONTEXT ( 'NONE', 'WORKASPACE' ) );
#15 = EDGE_CURVE ( 'NONE', #462, #343, #150, .T. ) ;
#16 = CARTESIAN_POINT ( 'NONE',  ( 4.999999999999990230, 41.50000000000000711, 0.000000000000000000 ) ) ;
#17 = DATE_TIME_ROLE ( 'classification_date' ) ;
#18 = PERSON_AND_ORGANIZATION ( #386, #472 ) ;
#19 = CARTESIAN_POINT ( 'NONE',  ( 4.999999999999990230, -38.49999999999999289, 0.000000000000000000 ) ) ;
#20 = LINE ( 'NONE', #206, #69 ) ;
#21 = DIRECTION ( 'NONE',  ( -2.891205793294675861E-16, 1.000000000000000000, 0.000000000000000000 ) ) ;
#22 = EDGE_CURVE ( 'NONE', #77, #347, #403, .T. ) ;
#23 = ORIENTED_EDGE ( 'NONE', *, *, #213, .T. ) ;
#24 = DIRECTION ( 'NONE',  ( 0.000000000000000000, 0.000000000000000000, 1.000000000000000000 ) ) ;
#25 = LINE ( 'NONE', #405, #113 ) ;
#26 = ORIENTED_EDGE ( 'NONE', *, *, #122, .T. ) ;
#27 = LINE ( 'NONE', #305, #40 ) ;
#28 = VERTEX_POINT ( 'NONE', #61 ) ;
#29 = EDGE_CURVE ( 'NONE', #304, #223, #171, .T. ) ;
#30 = VECTOR ( 'NONE', #316, 1000.000000000000000 ) ;
#31 = LINE ( 'NONE', #217, #1 ) ;
#32 = PRODUCT_DEFINITION_FORMATION_WITH_SPECIFIED_SOURCE ( 'ANY', '', #267, .NOT_KNOWN. ) ;
#33 = VERTEX_POINT ( 'NONE', #19 ) ;
#34 = APPROVAL ( #55, 'UNSPECIFIED' ) ;
#35 = LINE ( 'NONE', #105, #182 ) ;
#36 = ORIENTED_EDGE ( 'NONE', *, *, #363, .F. ) ;
#37 = APPLICATION_CONTEXT ( 'configuration controlled 3d designs of mechanical parts and assemblies' ) ;
#38 = ORIENTED_EDGE ( 'NONE', *, *, #348, .F. ) ;
#39 = DIRECTION ( 'NONE',  ( 0.000000000000000000, -0.000000000000000000, 1.000000000000000000 ) ) ;
#40 = VECTOR ( 'NONE', #258, 1000.000000000000000 ) ;
#41 = ADVANCED_FACE ( 'NONE', ( #367 ), #365, .F. ) ;
#42 = ORIENTED_EDGE ( 'NONE', *, *, #22, .T. ) ;
#43 = LINE ( 'NONE', #437, #350 ) ;
#44 = ORIENTED_EDGE ( 'NONE', *, *, #15, .F. ) ;
#45 = LINE ( 'NONE', #475, #407 ) ;
#46 = DIRECTION ( 'NONE',  ( -0.000000000000000000, -0.000000000000000000, -1.000000000000000000 ) ) ;
#47 = LOCAL_TIME ( 18, 21, 49.00000000000000000, #242 ) ;
#48 = PLANE ( 'NONE',  #127 ) ;
#49 = PERSON_AND_ORGANIZATION ( #386, #472 ) ;
#50 = CARTESIAN_POINT ( 'NONE',  ( -10.00000000000000888, 38.50000000000000711, 3.000000000000000000 ) ) ;
#51 = DIRECTION ( 'NONE',  ( -0.000000000000000000, -0.000000000000000000, -1.000000000000000000 ) ) ;
#52 = DIRECTION ( 'NONE',  ( -1.000000000000000000, -0.000000000000000000, -0.000000000000000000 ) ) ;
#53 = PERSON_AND_ORGANIZATION ( #386, #472 ) ;
#54 = CARTESIAN_POINT ( 'NONE',  ( 4.999999999999990230, -38.49999999999999289, 0.000000000000000000 ) ) ;
#55 = APPROVAL_STATUS ( 'not_yet_approved' ) ;
#56 = CARTESIAN_POINT ( 'NONE',  ( -10.00000000000000888, 38.50000000000000711, 3.000000000000000000 ) ) ;
#57 = EDGE_CURVE ( 'NONE', #33, #223, #97, .T. ) ;
#58 = DIRECTION ( 'NONE',  ( -9.011550524554840736E-17, 1.000000000000000000, 0.000000000000000000 ) ) ;
#59 = ORIENTED_EDGE ( 'NONE', *, *, #134, .T. ) ;
#60 = VECTOR ( 'NONE', #110, 1000.000000000000000 ) ;
#61 = CARTESIAN_POINT ( 'NONE',  ( -5.000000000000007994, 38.50000000000000711, 3.000000000000000000 ) ) ;
#62 = APPROVAL_ROLE ( '' ) ;
#63 = EDGE_LOOP ( 'NONE', ( #451, #413, #354, #294 ) ) ;
#64 = CARTESIAN_POINT ( 'NONE',  ( -10.00000000000000888, 38.50000000000000711, 3.000000000000000000 ) ) ;
#65 = EDGE_CURVE ( 'NONE', #174, #186, #370, .T. ) ;
#66 = ORIENTED_EDGE ( 'NONE', *, *, #6, .T. ) ;
#67 = DIRECTION ( 'NONE',  ( 6.360652745248286106E-15, -1.000000000000000000, 0.000000000000000000 ) ) ;
#68 = ORIENTED_EDGE ( 'NONE', *, *, #237, .T. ) ;
#69 = VECTOR ( 'NONE', #486, 1000.000000000000000 ) ;
#70 = LINE ( 'NONE', #148, #60 ) ;
#71 = VECTOR ( 'NONE', #173, 1000.000000000000000 ) ;
#72 = EDGE_LOOP ( 'NONE', ( #499, #74, #42, #388, #457, #187, #271, #216, #59, #385, #391, #68 ) ) ;
#73 = PLANE ( 'NONE',  #151 ) ;
#74 = ORIENTED_EDGE ( 'NONE', *, *, #363, .T. ) ;
#75 = FACE_OUTER_BOUND ( 'NONE', #313, .T. ) ;
#76 = EDGE_CURVE ( 'NONE', #145, #152, #285, .T. ) ;
#77 = VERTEX_POINT ( 'NONE', #252 ) ;
#78 = PLANE ( 'NONE',  #238 ) ;
#79 = EDGE_LOOP ( 'NONE', ( #26, #496, #123, #297 ) ) ;
#80 = LINE ( 'NONE', #398, #189 ) ;
#81 = LINE ( 'NONE', #7, #30 ) ;
#82 = CARTESIAN_POINT ( 'NONE',  ( -5.000000000000007994, 38.50000000000000711, 3.000000000000000000 ) ) ;
#83 = EDGE_CURVE ( 'NONE', #111, #186, #20, .T. ) ;
#84 = LINE ( 'NONE', #235, #456 ) ;
#85 = COORDINATED_UNIVERSAL_TIME_OFFSET ( 5, 30, .AHEAD. ) ;
#86 = VECTOR ( 'NONE', #340, 1000.000000000000000 ) ;
#87 = LINE ( 'NONE', #50, #495 ) ;
#88 = CARTESIAN_POINT ( 'NONE',  ( 4.999999999999990230, 41.50000000000000711, 3.000000000000000000 ) ) ;
#89 = CARTESIAN_POINT ( 'NONE',  ( -5.000000000000008882, 41.50000000000000711, 0.000000000000000000 ) ) ;
#90 = APPROVAL_STATUS ( 'not_yet_approved' ) ;
#91 = EDGE_CURVE ( 'NONE', #432, #102, #136, .T. ) ;
#92 = APPLICATION_PROTOCOL_DEFINITION ( 'international standard', 'config_control_design', 1994, #37 ) ;
#93 = CARTESIAN_POINT ( 'NONE',  ( 9.999999999999991118, 38.50000000000000711, 0.000000000000000000 ) ) ;
#94 = VECTOR ( 'NONE', #200, 1000.000000000000000 ) ;
#95 = APPLICATION_PROTOCOL_DEFINITION ( 'international standard', 'config_control_design', 1994, #193 ) ;
#96 = CC_DESIGN_APPROVAL ( #396, ( #32 ) ) ;
#97 = LINE ( 'NONE', #54, #158 ) ;
#98 = EDGE_CURVE ( 'NONE', #156, #304, #450, .T. ) ;
#99 = DIRECTION ( 'NONE',  ( 1.000000000000000000, 0.000000000000000000, 0.000000000000000000 ) ) ;
#100 = VERTEX_POINT ( 'NONE', #56 ) ;
#101 = PLANE ( 'NONE',  #342 ) ;
#102 = VERTEX_POINT ( 'NONE', #249 ) ;
#103 = UNCERTAINTY_MEASURE_WITH_UNIT (LENGTH_MEASURE( 1.000000000000000082E-05 ), #481, 'distance_accuracy_value', 'NONE');
#104 = AXIS2_PLACEMENT_3D ( 'NONE', #427, #224, #336 ) ;
#105 = CARTESIAN_POINT ( 'NONE',  ( 5.000000000000009770, -41.49999999999999289, 3.000000000000000000 ) ) ;
#106 = CC_DESIGN_DATE_AND_TIME_ASSIGNMENT ( #207, #239, ( #192 ) ) ;
#107 = VERTEX_POINT ( 'NONE', #16 ) ;
#108 = DIRECTION ( 'NONE',  ( 0.000000000000000000, -0.000000000000000000, -1.000000000000000000 ) ) ;
#109 = ORIENTED_EDGE ( 'NONE', *, *, #295, .F. ) ;
#110 = DIRECTION ( 'NONE',  ( -0.000000000000000000, -0.000000000000000000, -1.000000000000000000 ) ) ;
#111 = VERTEX_POINT ( 'NONE', #478 ) ;
#112 = DIRECTION ( 'NONE',  ( -3.180326372624143053E-15, 1.000000000000000000, 0.000000000000000000 ) ) ;
#113 = VECTOR ( 'NONE', #51, 1000.000000000000000 ) ;
#114 = EDGE_LOOP ( 'NONE', ( #154, #375, #429, #194 ) ) ;
#115 = EDGE_CURVE ( 'NONE', #223, #338, #166, .T. ) ;
#116 = ORIENTED_EDGE ( 'NONE', *, *, #303, .F. ) ;
#117 = FACE_OUTER_BOUND ( 'NONE', #114, .T. ) ;
#118 = VERTEX_POINT ( 'NONE', #412 ) ;
#119 = LINE ( 'NONE', #10, #274 ) ;
#120 = VECTOR ( 'NONE', #233, 1000.000000000000000 ) ;
#121 = VECTOR ( 'NONE', #245, 1000.000000000000000 ) ;
#122 = EDGE_CURVE ( 'NONE', #338, #261, #445, .T. ) ;
#123 = ORIENTED_EDGE ( 'NONE', *, *, #22, .F. ) ;
#124 = CARTESIAN_POINT ( 'NONE',  ( -10.00000000000000888, 38.50000000000000711, 0.000000000000000000 ) ) ;
#125 = CARTESIAN_POINT ( 'NONE',  ( 4.999999999999990230, 38.50000000000000711, 3.000000000000000000 ) ) ;
#126 = CARTESIAN_POINT ( 'NONE',  ( -4.999999999999998224, -41.49999999999999289, 3.000000000000000000 ) ) ;
#127 = AXIS2_PLACEMENT_3D ( 'NONE', #196, #357, #321 ) ;
#128 = ADVANCED_FACE ( 'NONE', ( #241 ), #101, .F. ) ;
#129 = CARTESIAN_POINT ( 'NONE',  ( -5.000000000000008882, 41.50000000000000711, 3.000000000000000000 ) ) ;
#130 = COORDINATED_UNIVERSAL_TIME_OFFSET ( 5, 30, .AHEAD. ) ;
#131 = LINE ( 'NONE', #329, #71 ) ;
#132 = DIRECTION ( 'NONE',  ( 1.000000000000000000, 0.000000000000000000, 0.000000000000000000 ) ) ;
#133 = PERSON_AND_ORGANIZATION_ROLE ( 'creator' ) ;
#134 = EDGE_CURVE ( 'NONE', #174, #432, #482, .T. ) ;
#135 = VECTOR ( 'NONE', #161, 1000.000000000000000 ) ;
#136 = LINE ( 'NONE', #204, #484 ) ;
#137 = ORIENTED_EDGE ( 'NONE', *, *, #319, .F. ) ;
#138 = FACE_OUTER_BOUND ( 'NONE', #417, .T. ) ;
#139 = EDGE_LOOP ( 'NONE', ( #425, #288, #306, #210 ) ) ;
#140 = FACE_OUTER_BOUND ( 'NONE', #79, .T. ) ;
#141 = ORIENTED_EDGE ( 'NONE', *, *, #15, .T. ) ;
#142 = AXIS2_PLACEMENT_3D ( 'NONE', #390, #395, #280 ) ;
#143 = DIRECTION ( 'NONE',  ( -1.000000000000000000, 0.000000000000000000, -0.000000000000000000 ) ) ;
#144 = ORIENTED_EDGE ( 'NONE', *, *, #498, .T. ) ;
#145 = VERTEX_POINT ( 'NONE', #372 ) ;
#146 = LINE ( 'NONE', #185, #164 ) ;
#147 = ORIENTED_EDGE ( 'NONE', *, *, #83, .F. ) ;
#148 = CARTESIAN_POINT ( 'NONE',  ( -5.000000000000008882, 41.50000000000000711, 3.000000000000000000 ) ) ;
#149 = EDGE_CURVE ( 'NONE', #432, #177, #131, .T. ) ;
#150 = LINE ( 'NONE', #291, #406 ) ;
#151 = AXIS2_PLACEMENT_3D ( 'NONE', #382, #183, #143 ) ;
#152 = VERTEX_POINT ( 'NONE', #334 ) ;
#153 = DIRECTION ( 'NONE',  ( -0.000000000000000000, -0.000000000000000000, -1.000000000000000000 ) ) ;
#154 = ORIENTED_EDGE ( 'NONE', *, *, #479, .T. ) ;
#155 = LINE ( 'NONE', #82, #433 ) ;
#156 = VERTEX_POINT ( 'NONE', #488 ) ;
#157 = CARTESIAN_POINT ( 'NONE',  ( 9.999999999999991118, 38.50000000000000711, 3.000000000000000000 ) ) ;
#158 = VECTOR ( 'NONE', #99, 1000.000000000000000 ) ;
#159 = CC_DESIGN_PERSON_AND_ORGANIZATION_ASSIGNMENT ( #53, #198, ( #32 ) ) ;
#160 = LINE ( 'NONE', #474, #373 ) ;
#161 = DIRECTION ( 'NONE',  ( -1.000000000000000000, -0.000000000000000000, -0.000000000000000000 ) ) ;
#162 = CARTESIAN_POINT ( 'NONE',  ( -10.00000000000000178, -38.49999999999999289, 0.000000000000000000 ) ) ;
#163 = SHAPE_DEFINITION_REPRESENTATION ( #273, #290 ) ;
#164 = VECTOR ( 'NONE', #494, 1000.000000000000000 ) ;
#165 = DIRECTION ( 'NONE',  ( 0.000000000000000000, -0.000000000000000000, 1.000000000000000000 ) ) ;
#166 = LINE ( 'NONE', #93, #324 ) ;
#167 = PERSON_AND_ORGANIZATION_ROLE ( 'creator' ) ;
#168 = PERSON_AND_ORGANIZATION_ROLE ( 'design_owner' ) ;
#169 = ADVANCED_FACE ( 'NONE', ( #138 ), #296, .F. ) ;
#170 = CARTESIAN_POINT ( 'NONE',  ( -10.00000000000000888, 38.50000000000000711, 3.000000000000000000 ) ) ;
#171 = LINE ( 'NONE', #247, #94 ) ;
#172 = APPROVAL_DATE_TIME ( #282, #230 ) ;
#173 = DIRECTION ( 'NONE',  ( 3.180326372624143447E-15, -1.000000000000000000, 0.000000000000000000 ) ) ;
#174 = VERTEX_POINT ( 'NONE', #179 ) ;
#175 = DIRECTION ( 'NONE',  ( 2.891205793294675861E-16, -1.000000000000000000, 0.000000000000000000 ) ) ;
#176 = DIRECTION ( 'NONE',  ( 0.000000000000000000, -1.000000000000000000, 0.000000000000000000 ) ) ;
#177 = VERTEX_POINT ( 'NONE', #346 ) ;
#178 = ADVANCED_FACE ( 'NONE', ( #421 ), #380, .F. ) ;
#179 = CARTESIAN_POINT ( 'NONE',  ( -10.00000000000000178, -38.49999999999999289, 3.000000000000000000 ) ) ;
#180 = ORIENTED_EDGE ( 'NONE', *, *, #426, .T. ) ;
#181 = VECTOR ( 'NONE', #52, 1000.000000000000000 ) ;
#182 = VECTOR ( 'NONE', #344, 1000.000000000000000 ) ;
#183 = DIRECTION ( 'NONE',  ( 0.000000000000000000, 0.000000000000000000, -1.000000000000000000 ) ) ;
#184 = ORIENTED_EDGE ( 'NONE', *, *, #57, .T. ) ;
#185 = CARTESIAN_POINT ( 'NONE',  ( 4.999999999999990230, -38.49999999999999289, 3.000000000000000000 ) ) ;
#186 = VERTEX_POINT ( 'NONE', #455 ) ;
#187 = ORIENTED_EDGE ( 'NONE', *, *, #431, .T. ) ;
#188 = DIRECTION ( 'NONE',  ( 1.000000000000000000, 0.000000000000000000, 0.000000000000000000 ) ) ;
#189 = VECTOR ( 'NONE', #232, 1000.000000000000000 ) ;
#190 = ORIENTED_EDGE ( 'NONE', *, *, #57, .F. ) ;
#191 = DIRECTION ( 'NONE',  ( -1.000000000000000000, 0.000000000000000000, 0.000000000000000000 ) ) ;
#192 = PRODUCT_DEFINITION ( 'UNKNOWN', '', #32, #490 ) ;
#193 = APPLICATION_CONTEXT ( 'configuration controlled 3d designs of mechanical parts and assemblies' ) ;
#194 = ORIENTED_EDGE ( 'NONE', *, *, #65, .T. ) ;
#195 = PLANE ( 'NONE',  #9 ) ;
#196 = CARTESIAN_POINT ( 'NONE',  ( 9.999999999999991118, 38.50000000000000711, 3.000000000000000000 ) ) ;
#197 = CARTESIAN_POINT ( 'NONE',  ( 10.00000000000000178, -38.49999999999999289, 3.000000000000000000 ) ) ;
#198 = PERSON_AND_ORGANIZATION_ROLE ( 'design_supplier' ) ;
#199 = APPROVAL_ROLE ( '' ) ;
#200 = DIRECTION ( 'NONE',  ( -0.000000000000000000, -0.000000000000000000, -1.000000000000000000 ) ) ;
#201 = APPROVAL_DATE_TIME ( #371, #34 ) ;
#202 = AXIS2_PLACEMENT_3D ( 'NONE', #366, #377, #165 ) ;
#203 = CC_DESIGN_PERSON_AND_ORGANIZATION_ASSIGNMENT ( #49, #167, ( #32 ) ) ;
#204 = CARTESIAN_POINT ( 'NONE',  ( -5.000000000000007994, -38.49999999999999289, 3.000000000000000000 ) ) ;
#205 = CALENDAR_DATE ( 2026, 1, 9 ) ;
#206 = CARTESIAN_POINT ( 'NONE',  ( -10.00000000000000888, 38.50000000000000711, 0.000000000000000000 ) ) ;
#207 = DATE_AND_TIME ( #441, #300 ) ;
#208 = CARTESIAN_POINT ( 'NONE',  ( 4.999999999999990230, -38.49999999999999289, 3.000000000000000000 ) ) ;
#209 = VECTOR ( 'NONE', #153, 1000.000000000000000 ) ;
#210 = ORIENTED_EDGE ( 'NONE', *, *, #270, .T. ) ;
#211 = CARTESIAN_POINT ( 'NONE',  ( 4.999999999999990230, 38.50000000000000711, 3.000000000000000000 ) ) ;
#212 = COORDINATED_UNIVERSAL_TIME_OFFSET ( 5, 30, .AHEAD. ) ;
#213 = EDGE_CURVE ( 'NONE', #343, #33, #31, .T. ) ;
#214 = ORIENTED_EDGE ( 'NONE', *, *, #91, .T. ) ;
#215 = LINE ( 'NONE', #64, #86 ) ;
#216 = ORIENTED_EDGE ( 'NONE', *, *, #312, .T. ) ;
#217 = CARTESIAN_POINT ( 'NONE',  ( 5.000000000000009770, -41.49999999999999289, 0.000000000000000000 ) ) ;
#218 = VERTEX_POINT ( 'NONE', #423 ) ;
#219 = VECTOR ( 'NONE', #330, 1000.000000000000000 ) ;
#220 = AXIS2_PLACEMENT_3D ( 'NONE', #222, #307, #112 ) ;
#221 = ADVANCED_FACE ( 'NONE', ( #458 ), #73, .F. ) ;
#222 = CARTESIAN_POINT ( 'NONE',  ( -5.000000000000007994, -38.49999999999999289, 3.000000000000000000 ) ) ;
#223 = VERTEX_POINT ( 'NONE', #463 ) ;
#224 = DIRECTION ( 'NONE',  ( 0.000000000000000000, -1.000000000000000000, 0.000000000000000000 ) ) ;
#225 = ORIENTED_EDGE ( 'NONE', *, *, #476, .F. ) ;
#226 = PLANE ( 'NONE',  #202 ) ;
#227 = ORIENTED_EDGE ( 'NONE', *, *, #98, .F. ) ;
#228 = CARTESIAN_POINT ( 'NONE',  ( 9.999999999999991118, 38.50000000000000711, 0.000000000000000000 ) ) ;
#229 = VECTOR ( 'NONE', #283, 1000.000000000000000 ) ;
#230 = APPROVAL ( #416, 'UNSPECIFIED' ) ;
#231 = ORIENTED_EDGE ( 'NONE', *, *, #29, .T. ) ;
#232 = DIRECTION ( 'NONE',  ( 2.891205793294675861E-16, -1.000000000000000000, 0.000000000000000000 ) ) ;
#233 = DIRECTION ( 'NONE',  ( 0.000000000000000000, 1.000000000000000000, 0.000000000000000000 ) ) ;
#234 = CARTESIAN_POINT ( 'NONE',  ( -5.000000000000007994, -38.49999999999999289, 3.000000000000000000 ) ) ;
#235 = CARTESIAN_POINT ( 'NONE',  ( 4.999999999999990230, 41.50000000000000711, 3.000000000000000000 ) ) ;
#236 = VECTOR ( 'NONE', #175, 1000.000000000000000 ) ;
#237 = EDGE_CURVE ( 'NONE', #462, #156, #35, .T. ) ;
#238 = AXIS2_PLACEMENT_3D ( 'NONE', #126, #351, #39 ) ;
#239 = DATE_TIME_ROLE ( 'creation_date' ) ;
#240 = PLANE ( 'NONE',  #424 ) ;
#241 = FACE_OUTER_BOUND ( 'NONE', #4, .T. ) ;
#242 = COORDINATED_UNIVERSAL_TIME_OFFSET ( 5, 30, .AHEAD. ) ;
#243 = EDGE_CURVE ( 'NONE', #107, #145, #27, .T. ) ;
#244 = MECHANICAL_CONTEXT ( 'NONE', #37, 'mechanical' ) ;
#245 = DIRECTION ( 'NONE',  ( -1.000000000000000000, -0.000000000000000000, -0.000000000000000000 ) ) ;
#246 = CC_DESIGN_APPROVAL ( #230, ( #192 ) ) ;
#247 = CARTESIAN_POINT ( 'NONE',  ( 10.00000000000000178, -38.49999999999999289, 3.000000000000000000 ) ) ;
#248 = APPROVAL_DATE_TIME ( #483, #396 ) ;
#249 = CARTESIAN_POINT ( 'NONE',  ( -5.000000000000007994, -38.49999999999999289, 0.000000000000000000 ) ) ;
#250 = ORIENTED_EDGE ( 'NONE', *, *, #115, .T. ) ;
#251 = EDGE_CURVE ( 'NONE', #156, #33, #146, .T. ) ;
#252 = CARTESIAN_POINT ( 'NONE',  ( 9.999999999999991118, 38.50000000000000711, 3.000000000000000000 ) ) ;
#253 = PERSON_AND_ORGANIZATION ( #386, #472 ) ;
#254 = LOCAL_TIME ( 18, 21, 49.00000000000000000, #212 ) ;
#255 = EDGE_LOOP ( 'NONE', ( #493, #44, #259, #144 ) ) ;
#256 = FACE_OUTER_BOUND ( 'NONE', #379, .T. ) ;
#257 = ORIENTED_EDGE ( 'NONE', *, *, #11, .F. ) ;
#258 = DIRECTION ( 'NONE',  ( -1.000000000000000000, 0.000000000000000000, 0.000000000000000000 ) ) ;
#259 = ORIENTED_EDGE ( 'NONE', *, *, #339, .F. ) ;
#260 = ADVANCED_FACE ( 'NONE', ( #256 ), #497, .F. ) ;
#261 = VERTEX_POINT ( 'NONE', #500 ) ;
#262 = DIRECTION ( 'NONE',  ( -1.000000000000000000, -6.360652745248286106E-15, 0.000000000000000000 ) ) ;
#263 = ORIENTED_EDGE ( 'NONE', *, *, #243, .F. ) ;
#264 = LOCAL_TIME ( 18, 21, 49.00000000000000000, #130 ) ;
#265 = PLANE ( 'NONE',  #104 ) ;
#266 = ORIENTED_EDGE ( 'NONE', *, *, #498, .F. ) ;
#267 = PRODUCT ( 'MechanicalLimit_Default_sldprt', 'MechanicalLimit_Default_sldprt', '', ( #244 ) ) ;
#268 = EDGE_LOOP ( 'NONE', ( #66, #266, #389, #214 ) ) ;
#269 = DIRECTION ( 'NONE',  ( 0.000000000000000000, 1.000000000000000000, 0.000000000000000000 ) ) ;
#270 = EDGE_CURVE ( 'NONE', #118, #145, #70, .T. ) ;
#271 = ORIENTED_EDGE ( 'NONE', *, *, #476, .T. ) ;
#272 = DIRECTION ( 'NONE',  ( -0.000000000000000000, -0.000000000000000000, -1.000000000000000000 ) ) ;
#273 = PRODUCT_DEFINITION_SHAPE ( 'NONE', 'NONE',  #192 ) ;
#274 = VECTOR ( 'NONE', #272, 1000.000000000000000 ) ;
#275 = CARTESIAN_POINT ( 'NONE',  ( 4.999999999999990230, 38.50000000000000711, 0.000000000000000000 ) ) ;
#276 = FACE_OUTER_BOUND ( 'NONE', #255, .T. ) ;
#277 = LINE ( 'NONE', #124, #135 ) ;
#278 = ADVANCED_FACE ( 'NONE', ( #492 ), #302, .F. ) ;
#279 = PERSON_AND_ORGANIZATION ( #386, #472 ) ;
#280 = DIRECTION ( 'NONE',  ( -1.000000000000000000, 0.000000000000000000, -0.000000000000000000 ) ) ;
#281 = VECTOR ( 'NONE', #397, 1000.000000000000000 ) ;
#282 = DATE_AND_TIME ( #443, #254 ) ;
#283 = DIRECTION ( 'NONE',  ( 1.000000000000000000, 0.000000000000000000, 0.000000000000000000 ) ) ;
#284 = ADVANCED_FACE ( 'NONE', ( #140 ), #265, .F. ) ;
#285 = LINE ( 'NONE', #89, #236 ) ;
#286 = PERSON_AND_ORGANIZATION ( #386, #472 ) ;
#287 = DIRECTION ( 'NONE',  ( 0.000000000000000000, 0.000000000000000000, 1.000000000000000000 ) ) ;
#288 = ORIENTED_EDGE ( 'NONE', *, *, #369, .F. ) ;
#289 = DIRECTION ( 'NONE',  ( -0.000000000000000000, -0.000000000000000000, -1.000000000000000000 ) ) ;
#290 = ADVANCED_BREP_SHAPE_REPRESENTATION ( 'MechanicalLimit_Default_sldprt', ( #315, #477 ), #14 ) ;
#291 = CARTESIAN_POINT ( 'NONE',  ( 5.000000000000009770, -41.49999999999999289, 3.000000000000000000 ) ) ;
#292 = SECURITY_CLASSIFICATION ( '', '', #411 ) ;
#293 = CARTESIAN_POINT ( 'NONE',  ( 4.999999999999990230, 38.50000000000000711, 3.000000000000000000 ) ) ;
#294 = ORIENTED_EDGE ( 'NONE', *, *, #454, .T. ) ;
#295 = EDGE_CURVE ( 'NONE', #100, #111, #215, .T. ) ;
#296 = PLANE ( 'NONE',  #485 ) ;
#297 = ORIENTED_EDGE ( 'NONE', *, *, #319, .T. ) ;
#298 = PRODUCT_RELATED_PRODUCT_CATEGORY ( 'detail', '', ( #267 ) ) ;
#299 = CARTESIAN_POINT ( 'NONE',  ( 5.000000000000009770, -41.49999999999999289, 3.000000000000000000 ) ) ;
#300 = LOCAL_TIME ( 18, 21, 49.00000000000000000, #400 ) ;
#301 = ORIENTED_EDGE ( 'NONE', *, *, #76, .F. ) ;
#302 = PLANE ( 'NONE',  #220 ) ;
#303 = EDGE_CURVE ( 'NONE', #335, #343, #430, .T. ) ;
#304 = VERTEX_POINT ( 'NONE', #197 ) ;
#305 = CARTESIAN_POINT ( 'NONE',  ( 4.999999999999990230, 41.50000000000000711, 0.000000000000000000 ) ) ;
#306 = ORIENTED_EDGE ( 'NONE', *, *, #431, .F. ) ;
#307 = DIRECTION ( 'NONE',  ( 1.000000000000000000, 3.180326372624143053E-15, -0.000000000000000000 ) ) ;
#308 = ORIENTED_EDGE ( 'NONE', *, *, #237, .F. ) ;
#309 = VECTOR ( 'NONE', #188, 1000.000000000000000 ) ;
#310 = ORIENTED_EDGE ( 'NONE', *, *, #65, .F. ) ;
#311 = LINE ( 'NONE', #434, #358 ) ;
#312 = EDGE_CURVE ( 'NONE', #100, #174, #3, .T. ) ;
#313 = EDGE_LOOP ( 'NONE', ( #250, #137, #36, #231 ) ) ;
#314 = FACE_OUTER_BOUND ( 'NONE', #489, .T. ) ;
#315 = MANIFOLD_SOLID_BREP ( 'Boss-Extrude1', #341 ) ;
#316 = DIRECTION ( 'NONE',  ( 3.180326372624143447E-15, -1.000000000000000000, 0.000000000000000000 ) ) ;
#317 = CARTESIAN_POINT ( 'NONE',  ( -4.999999999999998224, -41.49999999999999289, 0.000000000000000000 ) ) ;
#318 = APPROVAL_PERSON_ORGANIZATION ( #286, #396, #199 ) ;
#319 = EDGE_CURVE ( 'NONE', #77, #338, #320, .T. ) ;
#320 = LINE ( 'NONE', #157, #209 ) ;
#321 = DIRECTION ( 'NONE',  ( 1.351732578683226234E-16, -1.000000000000000000, 0.000000000000000000 ) ) ;
#322 = PERSON_AND_ORGANIZATION ( #386, #472 ) ;
#323 = FACE_OUTER_BOUND ( 'NONE', #63, .T. ) ;
#324 = VECTOR ( 'NONE', #327, 1000.000000000000000 ) ;
#325 = LINE ( 'NONE', #162, #229 ) ;
#326 = CC_DESIGN_PERSON_AND_ORGANIZATION_ASSIGNMENT ( #18, #168, ( #267 ) ) ;
#327 = DIRECTION ( 'NONE',  ( -1.351732578683226234E-16, 1.000000000000000000, -0.000000000000000000 ) ) ;
#328 = APPROVAL_ROLE ( '' ) ;
#329 = CARTESIAN_POINT ( 'NONE',  ( -5.000000000000007994, -38.49999999999999289, 3.000000000000000000 ) ) ;
#330 = DIRECTION ( 'NONE',  ( -0.000000000000000000, -0.000000000000000000, -1.000000000000000000 ) ) ;
#331 = PERSON_AND_ORGANIZATION_ROLE ( 'classification_officer' ) ;
#332 = CC_DESIGN_APPROVAL ( #34, ( #292 ) ) ;
#333 = ADVANCED_FACE ( 'NONE', ( #276 ), #78, .F. ) ;
#334 = CARTESIAN_POINT ( 'NONE',  ( -5.000000000000007994, 38.50000000000000711, 0.000000000000000000 ) ) ;
#335 = VERTEX_POINT ( 'NONE', #317 ) ;
#336 = DIRECTION ( 'NONE',  ( 0.000000000000000000, -0.000000000000000000, -1.000000000000000000 ) ) ;
#337 = DIRECTION ( 'NONE',  ( 0.000000000000000000, -0.000000000000000000, -1.000000000000000000 ) ) ;
#338 = VERTEX_POINT ( 'NONE', #228 ) ;
#339 = EDGE_CURVE ( 'NONE', #177, #462, #311, .T. ) ;
#340 = DIRECTION ( 'NONE',  ( -0.000000000000000000, -0.000000000000000000, -1.000000000000000000 ) ) ;
#341 = CLOSED_SHELL ( 'NONE', ( #461, #440, #284, #169, #491, #41, #260, #128, #356, #278, #333, #178, #221, #419 ) ) ;
#342 = AXIS2_PLACEMENT_3D ( 'NONE', #170, #480, #58 ) ;
#343 = VERTEX_POINT ( 'NONE', #468 ) ;
#344 = DIRECTION ( 'NONE',  ( -6.360652745248286895E-15, 1.000000000000000000, 0.000000000000000000 ) ) ;
#345 = ORIENTED_EDGE ( 'NONE', *, *, #6, .F. ) ;
#346 = CARTESIAN_POINT ( 'NONE',  ( -4.999999999999998224, -41.49999999999999289, 3.000000000000000000 ) ) ;
#347 = VERTEX_POINT ( 'NONE', #125 ) ;
#348 = EDGE_CURVE ( 'NONE', #152, #111, #277, .T. ) ;
#349 = EDGE_LOOP ( 'NONE', ( #184, #435, #227, #467 ) ) ;
#350 = VECTOR ( 'NONE', #436, 1000.000000000000000 ) ;
#351 = DIRECTION ( 'NONE',  ( 0.000000000000000000, 1.000000000000000000, 0.000000000000000000 ) ) ;
#352 = ORIENTED_EDGE ( 'NONE', *, *, #295, .T. ) ;
#353 = CARTESIAN_POINT ( 'NONE',  ( -10.00000000000000888, 38.50000000000000711, 3.000000000000000000 ) ) ;
#354 = ORIENTED_EDGE ( 'NONE', *, *, #402, .F. ) ;
#355 = DIRECTION ( 'NONE',  ( 0.000000000000000000, 1.000000000000000000, 0.000000000000000000 ) ) ;
#356 = ADVANCED_FACE ( 'NONE', ( #117 ), #195, .F. ) ;
#357 = DIRECTION ( 'NONE',  ( -1.000000000000000000, -1.351732578683226234E-16, 0.000000000000000000 ) ) ;
#358 = VECTOR ( 'NONE', #473, 1000.000000000000000 ) ;
#359 = DIRECTION ( 'NONE',  ( -0.000000000000000000, -0.000000000000000000, -1.000000000000000000 ) ) ;
#360 = CALENDAR_DATE ( 2026, 1, 9 ) ;
#361 =( NAMED_UNIT ( * ) PLANE_ANGLE_UNIT ( ) SI_UNIT ( $, .RADIAN. ) );
#362 =( NAMED_UNIT ( * ) SI_UNIT ( $, .STERADIAN. ) SOLID_ANGLE_UNIT ( ) );
#363 = EDGE_CURVE ( 'NONE', #304, #77, #43, .T. ) ;
#364 = APPROVAL_PERSON_ORGANIZATION ( #404, #34, #328 ) ;
#365 = PLANE ( 'NONE',  #383 ) ;
#366 = CARTESIAN_POINT ( 'NONE',  ( 4.999999999999990230, -38.49999999999999289, 3.000000000000000000 ) ) ;
#367 = FACE_OUTER_BOUND ( 'NONE', #139, .T. ) ;
#368 = DATE_AND_TIME ( #360, #264 ) ;
#369 = EDGE_CURVE ( 'NONE', #28, #152, #155, .T. ) ;
#370 = LINE ( 'NONE', #410, #219 ) ;
#371 = DATE_AND_TIME ( #205, #47 ) ;
#372 = CARTESIAN_POINT ( 'NONE',  ( -5.000000000000008882, 41.50000000000000711, 0.000000000000000000 ) ) ;
#373 = VECTOR ( 'NONE', #359, 1000.000000000000000 ) ;
#374 = CC_DESIGN_DATE_AND_TIME_ASSIGNMENT ( #368, #17, ( #292 ) ) ;
#375 = ORIENTED_EDGE ( 'NONE', *, *, #91, .F. ) ;
#376 = DIRECTION ( 'NONE',  ( -1.000000000000000000, 0.000000000000000000, 0.000000000000000000 ) ) ;
#377 = DIRECTION ( 'NONE',  ( 0.000000000000000000, 1.000000000000000000, 0.000000000000000000 ) ) ;
#378 = CC_DESIGN_PERSON_AND_ORGANIZATION_ASSIGNMENT ( #322, #133, ( #192 ) ) ;
#379 = EDGE_LOOP ( 'NONE', ( #448, #109, #225, #501 ) ) ;
#380 = PLANE ( 'NONE',  #464 ) ;
#381 = ORIENTED_EDGE ( 'NONE', *, *, #11, .T. ) ;
#382 = CARTESIAN_POINT ( 'NONE',  ( 0.000000000000000000, 0.000000000000000000, 3.000000000000000000 ) ) ;
#383 = AXIS2_PLACEMENT_3D ( 'NONE', #129, #449, #21 ) ;
#384 = VECTOR ( 'NONE', #132, 1000.000000000000000 ) ;
#385 = ORIENTED_EDGE ( 'NONE', *, *, #149, .T. ) ;
#386 = PERSON ( 'UNSPECIFIED', 'UNSPECIFIED', 'UNSPECIFIED', ('UNSPECIFIED'), ('UNSPECIFIED'), ('UNSPECIFIED') ) ;
#387 = DIRECTION ( 'NONE',  ( -6.360652745248286895E-15, 1.000000000000000000, 0.000000000000000000 ) ) ;
#388 = ORIENTED_EDGE ( 'NONE', *, *, #446, .T. ) ;
#389 = ORIENTED_EDGE ( 'NONE', *, *, #149, .F. ) ;
#390 = CARTESIAN_POINT ( 'NONE',  ( 0.000000000000000000, 0.000000000000000000, 0.000000000000000000 ) ) ;
#391 = ORIENTED_EDGE ( 'NONE', *, *, #339, .T. ) ;
#392 = VECTOR ( 'NONE', #408, 1000.000000000000000 ) ;
#393 = DIRECTION ( 'NONE',  ( 0.000000000000000000, -0.000000000000000000, 1.000000000000000000 ) ) ;
#394 = ORIENTED_EDGE ( 'NONE', *, *, #213, .F. ) ;
#395 = DIRECTION ( 'NONE',  ( 0.000000000000000000, 0.000000000000000000, -1.000000000000000000 ) ) ;
#396 = APPROVAL ( #90, 'UNSPECIFIED' ) ;
#397 = DIRECTION ( 'NONE',  ( 9.011550524554841969E-17, -1.000000000000000000, 0.000000000000000000 ) ) ;
#398 = CARTESIAN_POINT ( 'NONE',  ( -5.000000000000008882, 41.50000000000000711, 3.000000000000000000 ) ) ;
#399 = CC_DESIGN_SECURITY_CLASSIFICATION ( #292, ( #32 ) ) ;
#400 = COORDINATED_UNIVERSAL_TIME_OFFSET ( 5, 30, .AHEAD. ) ;
#401 = CARTESIAN_POINT ( 'NONE',  ( 0.000000000000000000, 0.000000000000000000, 0.000000000000000000 ) ) ;
#402 = EDGE_CURVE ( 'NONE', #218, #118, #84, .T. ) ;
#403 = LINE ( 'NONE', #293, #181 ) ;
#404 = PERSON_AND_ORGANIZATION ( #386, #472 ) ;
#405 = CARTESIAN_POINT ( 'NONE',  ( -4.999999999999998224, -41.49999999999999289, 3.000000000000000000 ) ) ;
#406 = VECTOR ( 'NONE', #442, 1000.000000000000000 ) ;
#407 = VECTOR ( 'NONE', #355, 1000.000000000000000 ) ;
#408 = DIRECTION ( 'NONE',  ( 1.000000000000000000, 0.000000000000000000, 0.000000000000000000 ) ) ;
#409 = CALENDAR_DATE ( 2026, 1, 9 ) ;
#410 = CARTESIAN_POINT ( 'NONE',  ( -10.00000000000000178, -38.49999999999999289, 3.000000000000000000 ) ) ;
#411 = SECURITY_CLASSIFICATION_LEVEL ( 'unclassified' ) ;
#412 = CARTESIAN_POINT ( 'NONE',  ( -5.000000000000008882, 41.50000000000000711, 3.000000000000000000 ) ) ;
#413 = ORIENTED_EDGE ( 'NONE', *, *, #270, .F. ) ;
#414 = CARTESIAN_POINT ( 'NONE',  ( -10.00000000000000178, -38.49999999999999289, 3.000000000000000000 ) ) ;
#415 = APPROVAL_PERSON_ORGANIZATION ( #253, #230, #62 ) ;
#416 = APPROVAL_STATUS ( 'not_yet_approved' ) ;
#417 = EDGE_LOOP ( 'NONE', ( #381, #428, #422, #180 ) ) ;
#418 = CARTESIAN_POINT ( 'NONE',  ( -10.00000000000000888, 38.50000000000000711, 3.000000000000000000 ) ) ;
#419 = ADVANCED_FACE ( 'NONE', ( #314 ), #470, .T. ) ;
#420 = EDGE_LOOP ( 'NONE', ( #23, #2, #308, #141 ) ) ;
#421 = FACE_OUTER_BOUND ( 'NONE', #420, .T. ) ;
#422 = ORIENTED_EDGE ( 'NONE', *, *, #446, .F. ) ;
#423 = CARTESIAN_POINT ( 'NONE',  ( 4.999999999999990230, 41.50000000000000711, 3.000000000000000000 ) ) ;
#424 = AXIS2_PLACEMENT_3D ( 'NONE', #88, #176, #337 ) ;
#425 = ORIENTED_EDGE ( 'NONE', *, *, #76, .T. ) ;
#426 = EDGE_CURVE ( 'NONE', #347, #261, #119, .T. ) ;
#427 = CARTESIAN_POINT ( 'NONE',  ( 4.999999999999990230, 38.50000000000000711, 3.000000000000000000 ) ) ;
#428 = ORIENTED_EDGE ( 'NONE', *, *, #454, .F. ) ;
#429 = ORIENTED_EDGE ( 'NONE', *, *, #134, .F. ) ;
#430 = LINE ( 'NONE', #8, #309 ) ;
#431 = EDGE_CURVE ( 'NONE', #118, #28, #80, .T. ) ;
#432 = VERTEX_POINT ( 'NONE', #234 ) ;
#433 = VECTOR ( 'NONE', #46, 1000.000000000000000 ) ;
#434 = CARTESIAN_POINT ( 'NONE',  ( -4.999999999999998224, -41.49999999999999289, 3.000000000000000000 ) ) ;
#435 = ORIENTED_EDGE ( 'NONE', *, *, #29, .F. ) ;
#436 = DIRECTION ( 'NONE',  ( -1.351732578683226234E-16, 1.000000000000000000, -0.000000000000000000 ) ) ;
#437 = CARTESIAN_POINT ( 'NONE',  ( 9.999999999999991118, 38.50000000000000711, 3.000000000000000000 ) ) ;
#438 = CARTESIAN_POINT ( 'NONE',  ( 5.000000000000009770, -41.49999999999999289, 3.000000000000000000 ) ) ;
#439 = AXIS2_PLACEMENT_3D ( 'NONE', #418, #460, #108 ) ;
#440 = ADVANCED_FACE ( 'NONE', ( #75 ), #48, .F. ) ;
#441 = CALENDAR_DATE ( 2026, 1, 9 ) ;
#442 = DIRECTION ( 'NONE',  ( -0.000000000000000000, -0.000000000000000000, -1.000000000000000000 ) ) ;
#443 = CALENDAR_DATE ( 2026, 1, 9 ) ;
#444 = DIRECTION ( 'NONE',  ( 1.000000000000000000, 0.000000000000000000, 0.000000000000000000 ) ) ;
#445 = LINE ( 'NONE', #452, #121 ) ;
#446 = EDGE_CURVE ( 'NONE', #347, #218, #45, .T. ) ;
#447 = LOCAL_TIME ( 18, 21, 49.00000000000000000, #85 ) ;
#448 = ORIENTED_EDGE ( 'NONE', *, *, #348, .T. ) ;
#449 = DIRECTION ( 'NONE',  ( 1.000000000000000000, 2.891205793294675861E-16, -0.000000000000000000 ) ) ;
#450 = LINE ( 'NONE', #208, #392 ) ;
#451 = ORIENTED_EDGE ( 'NONE', *, *, #243, .T. ) ;
#452 = CARTESIAN_POINT ( 'NONE',  ( 4.999999999999990230, 38.50000000000000711, 0.000000000000000000 ) ) ;
#453 = ORIENTED_EDGE ( 'NONE', *, *, #312, .F. ) ;
#454 = EDGE_CURVE ( 'NONE', #218, #107, #160, .T. ) ;
#455 = CARTESIAN_POINT ( 'NONE',  ( -10.00000000000000178, -38.49999999999999289, 0.000000000000000000 ) ) ;
#456 = VECTOR ( 'NONE', #191, 1000.000000000000000 ) ;
#457 = ORIENTED_EDGE ( 'NONE', *, *, #402, .T. ) ;
#458 = FACE_OUTER_BOUND ( 'NONE', #72, .T. ) ;
#459 = ORIENTED_EDGE ( 'NONE', *, *, #115, .F. ) ;
#460 = DIRECTION ( 'NONE',  ( 0.000000000000000000, -1.000000000000000000, 0.000000000000000000 ) ) ;
#461 = ADVANCED_FACE ( 'NONE', ( #12 ), #226, .F. ) ;
#462 = VERTEX_POINT ( 'NONE', #438 ) ;
#463 = CARTESIAN_POINT ( 'NONE',  ( 10.00000000000000178, -38.49999999999999289, 0.000000000000000000 ) ) ;
#464 = AXIS2_PLACEMENT_3D ( 'NONE', #299, #262, #67 ) ;
#465 = ORIENTED_EDGE ( 'NONE', *, *, #83, .T. ) ;
#466 = CC_DESIGN_PERSON_AND_ORGANIZATION_ASSIGNMENT ( #279, #331, ( #292 ) ) ;
#467 = ORIENTED_EDGE ( 'NONE', *, *, #251, .T. ) ;
#468 = CARTESIAN_POINT ( 'NONE',  ( 5.000000000000009770, -41.49999999999999289, 0.000000000000000000 ) ) ;
#469 = ORIENTED_EDGE ( 'NONE', *, *, #122, .F. ) ;
#470 = PLANE ( 'NONE',  #142 ) ;
#471 = LINE ( 'NONE', #275, #120 ) ;
#472 = ORGANIZATION ( 'UNSPECIFIED', 'UNSPECIFIED', '' ) ;
#473 = DIRECTION ( 'NONE',  ( 1.000000000000000000, 0.000000000000000000, 0.000000000000000000 ) ) ;
#474 = CARTESIAN_POINT ( 'NONE',  ( 4.999999999999990230, 41.50000000000000711, 3.000000000000000000 ) ) ;
#475 = CARTESIAN_POINT ( 'NONE',  ( 4.999999999999990230, 38.50000000000000711, 3.000000000000000000 ) ) ;
#476 = EDGE_CURVE ( 'NONE', #28, #100, #87, .T. ) ;
#477 = AXIS2_PLACEMENT_3D ( 'NONE', #401, #287, #444 ) ;
#478 = CARTESIAN_POINT ( 'NONE',  ( -10.00000000000000888, 38.50000000000000711, 0.000000000000000000 ) ) ;
#479 = EDGE_CURVE ( 'NONE', #186, #102, #325, .T. ) ;
#480 = DIRECTION ( 'NONE',  ( 1.000000000000000000, 9.011550524554840736E-17, -0.000000000000000000 ) ) ;
#481 =( LENGTH_UNIT ( ) NAMED_UNIT ( * ) SI_UNIT ( .MILLI., .METRE. ) );
#482 = LINE ( 'NONE', #414, #384 ) ;
#483 = DATE_AND_TIME ( #409, #447 ) ;
#484 = VECTOR ( 'NONE', #289, 1000.000000000000000 ) ;
#485 = AXIS2_PLACEMENT_3D ( 'NONE', #211, #376, #24 ) ;
#486 = DIRECTION ( 'NONE',  ( 9.011550524554841969E-17, -1.000000000000000000, 0.000000000000000000 ) ) ;
#487 = ORIENTED_EDGE ( 'NONE', *, *, #479, .F. ) ;
#488 = CARTESIAN_POINT ( 'NONE',  ( 4.999999999999990230, -38.49999999999999289, 3.000000000000000000 ) ) ;
#489 = EDGE_LOOP ( 'NONE', ( #190, #394, #116, #345, #487, #147, #38, #301, #263, #257, #469, #459 ) ) ;
#490 = DESIGN_CONTEXT ( 'detailed design', #193, 'design' ) ;
#491 = ADVANCED_FACE ( 'NONE', ( #323 ), #240, .F. ) ;
#492 = FACE_OUTER_BOUND ( 'NONE', #268, .T. ) ;
#493 = ORIENTED_EDGE ( 'NONE', *, *, #303, .T. ) ;
#494 = DIRECTION ( 'NONE',  ( -0.000000000000000000, -0.000000000000000000, -1.000000000000000000 ) ) ;
#495 = VECTOR ( 'NONE', #13, 1000.000000000000000 ) ;
#496 = ORIENTED_EDGE ( 'NONE', *, *, #426, .F. ) ;
#497 = PLANE ( 'NONE',  #439 ) ;
#498 = EDGE_CURVE ( 'NONE', #177, #335, #25, .T. ) ;
#499 = ORIENTED_EDGE ( 'NONE', *, *, #98, .T. ) ;
#500 = CARTESIAN_POINT ( 'NONE',  ( 4.999999999999990230, 38.50000000000000711, 0.000000000000000000 ) ) ;
#501 = ORIENTED_EDGE ( 'NONE', *, *, #369, .T. ) ;
ENDSEC;
END-ISO-10303-21;
