ISO-10303-21;
HEADER;
FILE_DESCRIPTION (( 'STEP AP203' ),
    '1' );
FILE_NAME ('SlidingSheet_Default_sldprt.STEP',
    '2026-09-01T12:51:53',
    ( '' ),
    ( '' ),
    'SwSTEP 2.0',
    'SolidWorks 2020',
    '' );
FILE_SCHEMA (( 'CONFIG_CONTROL_DESIGN' ));
ENDSEC;

DATA;
#1 = CYLINDRICAL_SURFACE ( 'NONE', #339, 2.500000000000000444 ) ;
#2 = VERTEX_POINT ( 'NONE', #150 ) ;
#3 = LINE ( 'NONE', #182, #197 ) ;
#4 = EDGE_CURVE ( 'NONE', #289, #218, #348, .T. ) ;
#5 = ORIENTED_EDGE ( 'NONE', *, *, #249, .T. ) ;
#6 =( NAMED_UNIT ( * ) SI_UNIT ( $, .STERADIAN. ) SOLID_ANGLE_UNIT ( ) );
#7 = ORIENTED_EDGE ( 'NONE', *, *, #49, .T. ) ;
#8 = CC_DESIGN_PERSON_AND_ORGANIZATION_ASSIGNMENT ( #177, #19, ( #97 ) ) ;
#9 =( GEOMETRIC_REPRESENTATION_CONTEXT ( 3 ) GLOBAL_UNCERTAINTY_ASSIGNED_CONTEXT ( ( #98 ) ) GLOBAL_UNIT_ASSIGNED_CONTEXT ( ( #338, #306, #6 ) ) REPRESENTATION_CONTEXT ( 'NONE', 'WORKASPACE' ) );
#10 = EDGE_CURVE ( 'NONE', #289, #272, #371, .T. ) ;
#11 = CARTESIAN_POINT ( 'NONE',  ( -14.11999999999999389, -39.99999999999999289, 0.000000000000000000 ) ) ;
#12 = DESIGN_CONTEXT ( 'detailed design', #340, 'design' ) ;
#13 = DIRECTION ( 'NONE',  ( 1.301042606982605567E-16, -1.000000000000000000, 0.000000000000000000 ) ) ;
#14 = EDGE_CURVE ( 'NONE', #104, #77, #198, .T. ) ;
#15 = AXIS2_PLACEMENT_3D ( 'NONE', #344, #152, #279 ) ;
#16 = PLANE ( 'NONE',  #309 ) ;
#17 = COORDINATED_UNIVERSAL_TIME_OFFSET ( 5, 30, .AHEAD. ) ;
#18 = DIRECTION ( 'NONE',  ( -0.000000000000000000, -0.000000000000000000, -1.000000000000000000 ) ) ;
#19 = PERSON_AND_ORGANIZATION_ROLE ( 'classification_officer' ) ;
#20 = LINE ( 'NONE', #202, #39 ) ;
#21 = AXIS2_PLACEMENT_3D ( 'NONE', #94, #211, #244 ) ;
#22 = DIRECTION ( 'NONE',  ( -1.000000000000000000, -1.301042606982605567E-16, 0.000000000000000000 ) ) ;
#23 = EDGE_CURVE ( 'NONE', #288, #219, #20, .T. ) ;
#24 = PERSON_AND_ORGANIZATION ( #149, #136 ) ;
#25 = DIRECTION ( 'NONE',  ( 1.000000000000000000, 1.301042606982605567E-16, -0.000000000000000000 ) ) ;
#26 = DIRECTION ( 'NONE',  ( -0.000000000000000000, -0.000000000000000000, -1.000000000000000000 ) ) ;
#27 = PLANE ( 'NONE',  #324 ) ;
#28 = CARTESIAN_POINT ( 'NONE',  ( -9.120000000000002771, 45.00000000000000000, 0.000000000000000000 ) ) ;
#29 = ORIENTED_EDGE ( 'NONE', *, *, #286, .T. ) ;
#30 = DIRECTION ( 'NONE',  ( 0.000000000000000000, -0.000000000000000000, -1.000000000000000000 ) ) ;
#31 = AXIS2_PLACEMENT_3D ( 'NONE', #301, #30, #329 ) ;
#32 = EDGE_LOOP ( 'NONE', ( #254, #243, #35, #40 ) ) ;
#33 = EDGE_CURVE ( 'NONE', #158, #302, #117, .T. ) ;
#34 = FACE_OUTER_BOUND ( 'NONE', #142, .T. ) ;
#35 = ORIENTED_EDGE ( 'NONE', *, *, #4, .T. ) ;
#36 = ORIENTED_EDGE ( 'NONE', *, *, #249, .F. ) ;
#37 = DIRECTION ( 'NONE',  ( 1.000000000000000000, 0.000000000000000000, 0.000000000000000000 ) ) ;
#38 = CC_DESIGN_APPROVAL ( #203, ( #162 ) ) ;
#39 = VECTOR ( 'NONE', #259, 1000.000000000000000 ) ;
#40 = ORIENTED_EDGE ( 'NONE', *, *, #341, .T. ) ;
#41 = DIRECTION ( 'NONE',  ( -1.000000000000000000, 0.000000000000000000, 0.000000000000000000 ) ) ;
#42 = CARTESIAN_POINT ( 'NONE',  ( 14.12000000000000810, -39.99999999999999289, 3.000000000000000000 ) ) ;
#43 = APPROVAL ( #111, 'UNSPECIFIED' ) ;
#44 = LOCAL_TIME ( 18, 21, 53.00000000000000000, #51 ) ;
#45 = MECHANICAL_CONTEXT ( 'NONE', #110, 'mechanical' ) ;
#46 = LINE ( 'NONE', #174, #373 ) ;
#47 = COORDINATED_UNIVERSAL_TIME_OFFSET ( 5, 30, .AHEAD. ) ;
#48 = DIRECTION ( 'NONE',  ( 1.000000000000000000, 0.000000000000000000, 0.000000000000000000 ) ) ;
#49 = EDGE_CURVE ( 'NONE', #74, #288, #314, .T. ) ;
#50 = DIRECTION ( 'NONE',  ( 0.000000000000000000, -0.000000000000000000, 1.000000000000000000 ) ) ;
#51 = COORDINATED_UNIVERSAL_TIME_OFFSET ( 5, 30, .AHEAD. ) ;
#52 = CARTESIAN_POINT ( 'NONE',  ( -14.12000000000000455, 49.99999999999999289, 3.000000000000000000 ) ) ;
#53 = AXIS2_PLACEMENT_3D ( 'NONE', #262, #231, #349 ) ;
#54 = DIRECTION ( 'NONE',  ( -1.000000000000000000, 0.000000000000000000, 0.000000000000000000 ) ) ;
#55 = CALENDAR_DATE ( 2026, 1, 9 ) ;
#56 = FACE_BOUND ( 'NONE', #120, .T. ) ;
#57 = DIRECTION ( 'NONE',  ( 1.000000000000000000, 0.000000000000000000, 0.000000000000000000 ) ) ;
#58 = ORIENTED_EDGE ( 'NONE', *, *, #225, .T. ) ;
#59 = CARTESIAN_POINT ( 'NONE',  ( -6.620000000000002771, 45.00000000000000000, 0.000000000000000000 ) ) ;
#60 = EDGE_LOOP ( 'NONE', ( #375, #332, #153, #337 ) ) ;
#61 = EDGE_CURVE ( 'NONE', #385, #219, #252, .T. ) ;
#62 = LINE ( 'NONE', #304, #342 ) ;
#63 = VECTOR ( 'NONE', #312, 1000.000000000000000 ) ;
#64 = ORIENTED_EDGE ( 'NONE', *, *, #140, .F. ) ;
#65 = DIRECTION ( 'NONE',  ( -0.000000000000000000, -0.000000000000000000, -1.000000000000000000 ) ) ;
#66 = EDGE_LOOP ( 'NONE', ( #245, #359, #5, #108 ) ) ;
#67 = EDGE_CURVE ( 'NONE', #248, #77, #46, .T. ) ;
#68 = VECTOR ( 'NONE', #379, 1000.000000000000000 ) ;
#69 = ADVANCED_FACE ( 'NONE', ( #293 ), #16, .F. ) ;
#70 = DIRECTION ( 'NONE',  ( 1.000000000000000000, 0.000000000000000000, 0.000000000000000000 ) ) ;
#71 = DIRECTION ( 'NONE',  ( 1.000000000000000000, 0.000000000000000000, 0.000000000000000000 ) ) ;
#72 = EDGE_CURVE ( 'NONE', #74, #385, #168, .T. ) ;
#73 = PLANE ( 'NONE',  #216 ) ;
#74 = VERTEX_POINT ( 'NONE', #112 ) ;
#75 = VECTOR ( 'NONE', #76, 1000.000000000000000 ) ;
#76 = DIRECTION ( 'NONE',  ( 1.000000000000000000, 0.000000000000000000, 0.000000000000000000 ) ) ;
#77 = VERTEX_POINT ( 'NONE', #139 ) ;
#78 = DIRECTION ( 'NONE',  ( 0.000000000000000000, -0.000000000000000000, -1.000000000000000000 ) ) ;
#79 = APPROVAL_DATE_TIME ( #106, #43 ) ;
#80 = EDGE_LOOP ( 'NONE', ( #205, #170, #372, #330 ) ) ;
#81 = EDGE_CURVE ( 'NONE', #123, #302, #86, .T. ) ;
#82 = VECTOR ( 'NONE', #48, 1000.000000000000000 ) ;
#83 = CARTESIAN_POINT ( 'NONE',  ( 0.000000000000000000, 0.000000000000000000, 0.000000000000000000 ) ) ;
#84 = CC_DESIGN_APPROVAL ( #43, ( #97 ) ) ;
#85 = DIRECTION ( 'NONE',  ( 1.000000000000000000, 0.000000000000000000, 0.000000000000000000 ) ) ;
#86 = LINE ( 'NONE', #352, #383 ) ;
#87 = ADVANCED_FACE ( 'NONE', ( #317, #56, #178 ), #27, .T. ) ;
#88 = VERTEX_POINT ( 'NONE', #345 ) ;
#89 = CARTESIAN_POINT ( 'NONE',  ( 14.11999999999999744, 49.99999999999999289, 3.000000000000000000 ) ) ;
#90 = ORIENTED_EDGE ( 'NONE', *, *, #49, .F. ) ;
#91 = VECTOR ( 'NONE', #26, 1000.000000000000000 ) ;
#92 = VERTEX_POINT ( 'NONE', #164 ) ;
#93 = APPROVAL ( #148, 'UNSPECIFIED' ) ;
#94 = CARTESIAN_POINT ( 'NONE',  ( 9.120000000000002771, 45.00000000000000000, 3.000000000000000000 ) ) ;
#95 = EDGE_LOOP ( 'NONE', ( #128, #378, #268, #307 ) ) ;
#96 = ADVANCED_FACE ( 'NONE', ( #239 ), #322, .F. ) ;
#97 = SECURITY_CLASSIFICATION ( '', '', #145 ) ;
#98 = UNCERTAINTY_MEASURE_WITH_UNIT (LENGTH_MEASURE( 1.000000000000000082E-05 ), #338, 'distance_accuracy_value', 'NONE');
#99 = CARTESIAN_POINT ( 'NONE',  ( -14.12000000000000455, 49.99999999999999289, 0.000000000000000000 ) ) ;
#100 = AXIS2_PLACEMENT_3D ( 'NONE', #261, #323, #85 ) ;
#101 = CC_DESIGN_PERSON_AND_ORGANIZATION_ASSIGNMENT ( #377, #347, ( #162 ) ) ;
#102 = PLANE ( 'NONE',  #355 ) ;
#103 = CARTESIAN_POINT ( 'NONE',  ( -14.12000000000000455, 39.99999999999999289, 3.000000000000000000 ) ) ;
#104 = VERTEX_POINT ( 'NONE', #99 ) ;
#105 = VECTOR ( 'NONE', #70, 1000.000000000000000 ) ;
#106 = DATE_AND_TIME ( #55, #131 ) ;
#107 = DIRECTION ( 'NONE',  ( 0.000000000000000000, 0.000000000000000000, -1.000000000000000000 ) ) ;
#108 = ORIENTED_EDGE ( 'NONE', *, *, #277, .F. ) ;
#109 = FACE_OUTER_BOUND ( 'NONE', #125, .T. ) ;
#110 = APPLICATION_CONTEXT ( 'configuration controlled 3d designs of mechanical parts and assemblies' ) ;
#111 = APPROVAL_STATUS ( 'not_yet_approved' ) ;
#112 = CARTESIAN_POINT ( 'NONE',  ( 6.620000000000002771, 45.00000000000000000, 3.000000000000000000 ) ) ;
#113 = EDGE_CURVE ( 'NONE', #88, #248, #193, .T. ) ;
#114 = FACE_BOUND ( 'NONE', #234, .T. ) ;
#115 = DIRECTION ( 'NONE',  ( -1.301042606982605567E-16, 1.000000000000000000, 0.000000000000000000 ) ) ;
#116 = EDGE_CURVE ( 'NONE', #88, #272, #350, .T. ) ;
#117 = CIRCLE ( 'NONE', #229, 2.500000000000000444 ) ;
#118 = DIRECTION ( 'NONE',  ( 0.000000000000000000, 0.000000000000000000, -1.000000000000000000 ) ) ;
#119 = PERSON_AND_ORGANIZATION_ROLE ( 'creator' ) ;
#120 = EDGE_LOOP ( 'NONE', ( #137, #29 ) ) ;
#121 = PRODUCT_DEFINITION_SHAPE ( 'NONE', 'NONE',  #162 ) ;
#122 = PLANE ( 'NONE',  #246 ) ;
#123 = VERTEX_POINT ( 'NONE', #382 ) ;
#124 = DIRECTION ( 'NONE',  ( 0.000000000000000000, -0.000000000000000000, 1.000000000000000000 ) ) ;
#125 = EDGE_LOOP ( 'NONE', ( #361, #64, #300, #343 ) ) ;
#126 = CARTESIAN_POINT ( 'NONE',  ( -14.11999999999999389, -39.99999999999999289, 3.000000000000000000 ) ) ;
#127 = VECTOR ( 'NONE', #37, 1000.000000000000000 ) ;
#128 = ORIENTED_EDGE ( 'NONE', *, *, #14, .F. ) ;
#129 = EDGE_CURVE ( 'NONE', #218, #92, #376, .T. ) ;
#130 = VECTOR ( 'NONE', #230, 1000.000000000000000 ) ;
#131 = LOCAL_TIME ( 18, 21, 53.00000000000000000, #351 ) ;
#132 = ADVANCED_FACE ( 'NONE', ( #147 ), #73, .T. ) ;
#133 = CYLINDRICAL_SURFACE ( 'NONE', #367, 2.500000000000000444 ) ;
#134 = CARTESIAN_POINT ( 'NONE',  ( -14.12000000000000455, 49.99999999999999289, 3.000000000000000000 ) ) ;
#135 = LOCAL_TIME ( 18, 21, 53.00000000000000000, #47 ) ;
#136 = ORGANIZATION ( 'UNSPECIFIED', 'UNSPECIFIED', '' ) ;
#137 = ORIENTED_EDGE ( 'NONE', *, *, #189, .T. ) ;
#138 = APPROVAL_DATE_TIME ( #287, #203 ) ;
#139 = CARTESIAN_POINT ( 'NONE',  ( 14.11999999999999744, 49.99999999999999289, 0.000000000000000000 ) ) ;
#140 = EDGE_CURVE ( 'NONE', #92, #248, #370, .T. ) ;
#141 = COORDINATED_UNIVERSAL_TIME_OFFSET ( 5, 30, .AHEAD. ) ;
#142 = EDGE_LOOP ( 'NONE', ( #310, #212, #181, #222 ) ) ;
#143 = CIRCLE ( 'NONE', #184, 2.500000000000000444 ) ;
#144 = FACE_OUTER_BOUND ( 'NONE', #363, .T. ) ;
#145 = SECURITY_CLASSIFICATION_LEVEL ( 'unclassified' ) ;
#146 = ORIENTED_EDGE ( 'NONE', *, *, #61, .F. ) ;
#147 = FACE_OUTER_BOUND ( 'NONE', #95, .T. ) ;
#148 = APPROVAL_STATUS ( 'not_yet_approved' ) ;
#149 = PERSON ( 'UNSPECIFIED', 'UNSPECIFIED', 'UNSPECIFIED', ('UNSPECIFIED'), ('UNSPECIFIED'), ('UNSPECIFIED') ) ;
#150 = CARTESIAN_POINT ( 'NONE',  ( -11.62000000000000277, 45.00000000000000000, 3.000000000000000000 ) ) ;
#151 = EDGE_CURVE ( 'NONE', #272, #77, #263, .T. ) ;
#152 = DIRECTION ( 'NONE',  ( -0.000000000000000000, -0.000000000000000000, -1.000000000000000000 ) ) ;
#153 = ORIENTED_EDGE ( 'NONE', *, *, #116, .F. ) ;
#154 = LINE ( 'NONE', #273, #166 ) ;
#155 = EDGE_LOOP ( 'NONE', ( #187, #265, #305, #297 ) ) ;
#156 = CC_DESIGN_DATE_AND_TIME_ASSIGNMENT ( #284, #233, ( #162 ) ) ;
#157 = LINE ( 'NONE', #331, #127 ) ;
#158 = VERTEX_POINT ( 'NONE', #353 ) ;
#159 = ORIENTED_EDGE ( 'NONE', *, *, #366, .T. ) ;
#160 = LOCAL_TIME ( 18, 21, 53.00000000000000000, #17 ) ;
#161 = ADVANCED_FACE ( 'NONE', ( #260 ), #133, .F. ) ;
#162 = PRODUCT_DEFINITION ( 'UNKNOWN', '', #188, #12 ) ;
#163 = ADVANCED_FACE ( 'NONE', ( #114, #235, #109 ), #102, .F. ) ;
#164 = CARTESIAN_POINT ( 'NONE',  ( -14.11999999999999389, -39.99999999999999289, 0.000000000000000000 ) ) ;
#165 = DIRECTION ( 'NONE',  ( -1.301042606982605567E-16, 1.000000000000000000, -0.000000000000000000 ) ) ;
#166 = VECTOR ( 'NONE', #185, 1000.000000000000000 ) ;
#167 = PERSON_AND_ORGANIZATION ( #149, #136 ) ;
#168 = LINE ( 'NONE', #325, #283 ) ;
#169 = APPROVAL_ROLE ( '' ) ;
#170 = ORIENTED_EDGE ( 'NONE', *, *, #113, .F. ) ;
#171 = ADVANCED_FACE ( 'NONE', ( #290 ), #281, .F. ) ;
#172 = CARTESIAN_POINT ( 'NONE',  ( 14.11999999999999744, 39.99999999999999289, 3.000000000000000000 ) ) ;
#173 = APPROVAL_DATE_TIME ( #255, #93 ) ;
#174 = CARTESIAN_POINT ( 'NONE',  ( 14.11999999999999744, 39.99999999999999289, 0.000000000000000000 ) ) ;
#175 = CARTESIAN_POINT ( 'NONE',  ( 11.62000000000000277, 45.00000000000000000, 0.000000000000000000 ) ) ;
#176 = CC_DESIGN_PERSON_AND_ORGANIZATION_ASSIGNMENT ( #374, #199, ( #214 ) ) ;
#177 = PERSON_AND_ORGANIZATION ( #149, #136 ) ;
#178 = FACE_OUTER_BOUND ( 'NONE', #32, .T. ) ;
#179 = MANIFOLD_SOLID_BREP ( 'Mirror1', #258 ) ;
#180 = CARTESIAN_POINT ( 'NONE',  ( -14.11999999999999389, -39.99999999999999289, 3.000000000000000000 ) ) ;
#181 = ORIENTED_EDGE ( 'NONE', *, *, #277, .T. ) ;
#182 = CARTESIAN_POINT ( 'NONE',  ( -11.62000000000000277, 45.00000000000000000, 3.001000000000000334 ) ) ;
#183 = ORIENTED_EDGE ( 'NONE', *, *, #275, .T. ) ;
#184 = AXIS2_PLACEMENT_3D ( 'NONE', #294, #326, #57 ) ;
#185 = DIRECTION ( 'NONE',  ( 1.301042606982605567E-16, -1.000000000000000000, 0.000000000000000000 ) ) ;
#186 = EDGE_LOOP ( 'NONE', ( #333, #36 ) ) ;
#187 = ORIENTED_EDGE ( 'NONE', *, *, #23, .F. ) ;
#188 = PRODUCT_DEFINITION_FORMATION_WITH_SPECIFIED_SOURCE ( 'ANY', '', #214, .NOT_KNOWN. ) ;
#189 = EDGE_CURVE ( 'NONE', #2, #123, #250, .T. ) ;
#190 = ADVANCED_FACE ( 'NONE', ( #144 ), #204, .F. ) ;
#191 = AXIS2_PLACEMENT_3D ( 'NONE', #28, #118, #242 ) ;
#192 = CARTESIAN_POINT ( 'NONE',  ( 14.11999999999999744, 39.99999999999999289, 3.000000000000000000 ) ) ;
#193 = LINE ( 'NONE', #42, #63 ) ;
#194 = CARTESIAN_POINT ( 'NONE',  ( -14.11999999999999389, -39.99999999999999289, 3.000000000000000000 ) ) ;
#195 = DATE_AND_TIME ( #264, #303 ) ;
#196 = CC_DESIGN_PERSON_AND_ORGANIZATION_ASSIGNMENT ( #24, #236, ( #188 ) ) ;
#197 = VECTOR ( 'NONE', #65, 1000.000000000000000 ) ;
#198 = LINE ( 'NONE', #227, #82 ) ;
#199 = PERSON_AND_ORGANIZATION_ROLE ( 'design_owner' ) ;
#200 = DIRECTION ( 'NONE',  ( -0.000000000000000000, -0.000000000000000000, -1.000000000000000000 ) ) ;
#201 = EDGE_LOOP ( 'NONE', ( #183, #241, #276, #159 ) ) ;
#202 = CARTESIAN_POINT ( 'NONE',  ( 11.62000000000000277, 45.00000000000000000, 3.001000000000000334 ) ) ;
#203 = APPROVAL ( #316, 'UNSPECIFIED' ) ;
#204 = CYLINDRICAL_SURFACE ( 'NONE', #311, 2.500000000000000444 ) ;
#205 = ORIENTED_EDGE ( 'NONE', *, *, #140, .T. ) ;
#206 = APPLICATION_PROTOCOL_DEFINITION ( 'international standard', 'config_control_design', 1994, #110 ) ;
#207 = ORIENTED_EDGE ( 'NONE', *, *, #23, .T. ) ;
#208 = AXIS2_PLACEMENT_3D ( 'NONE', #192, #22, #13 ) ;
#209 = CARTESIAN_POINT ( 'NONE',  ( 9.120000000000002771, 45.00000000000000000, 3.001000000000000334 ) ) ;
#210 = CARTESIAN_POINT ( 'NONE',  ( 0.000000000000000000, 0.000000000000000000, 3.000000000000000000 ) ) ;
#211 = DIRECTION ( 'NONE',  ( -0.000000000000000000, 0.000000000000000000, 1.000000000000000000 ) ) ;
#212 = ORIENTED_EDGE ( 'NONE', *, *, #189, .F. ) ;
#213 = DIRECTION ( 'NONE',  ( -0.000000000000000000, -0.000000000000000000, -1.000000000000000000 ) ) ;
#214 = PRODUCT ( 'SlidingSheet_Default_sldprt', 'SlidingSheet_Default_sldprt', '', ( #45 ) ) ;
#215 = ORIENTED_EDGE ( 'NONE', *, *, #280, .F. ) ;
#216 = AXIS2_PLACEMENT_3D ( 'NONE', #134, #226, #50 ) ;
#217 = CARTESIAN_POINT ( 'NONE',  ( 11.62000000000000277, 45.00000000000000000, 3.000000000000000000 ) ) ;
#218 = VERTEX_POINT ( 'NONE', #194 ) ;
#219 = VERTEX_POINT ( 'NONE', #175 ) ;
#220 = APPROVAL_PERSON_ORGANIZATION ( #358, #93, #169 ) ;
#221 = CC_DESIGN_DATE_AND_TIME_ASSIGNMENT ( #195, #240, ( #97 ) ) ;
#222 = ORIENTED_EDGE ( 'NONE', *, *, #33, .T. ) ;
#223 = APPROVAL_PERSON_ORGANIZATION ( #167, #203, #267 ) ;
#224 = DIRECTION ( 'NONE',  ( -0.000000000000000000, -0.000000000000000000, -1.000000000000000000 ) ) ;
#225 = EDGE_CURVE ( 'NONE', #219, #385, #143, .T. ) ;
#226 = DIRECTION ( 'NONE',  ( -0.000000000000000000, 1.000000000000000000, 0.000000000000000000 ) ) ;
#227 = CARTESIAN_POINT ( 'NONE',  ( -14.12000000000000455, 49.99999999999999289, 0.000000000000000000 ) ) ;
#228 = APPLICATION_PROTOCOL_DEFINITION ( 'international standard', 'config_control_design', 1994, #340 ) ;
#229 = AXIS2_PLACEMENT_3D ( 'NONE', #256, #107, #356 ) ;
#230 = DIRECTION ( 'NONE',  ( 1.301042606982605567E-16, -1.000000000000000000, 0.000000000000000000 ) ) ;
#231 = DIRECTION ( 'NONE',  ( -0.000000000000000000, 0.000000000000000000, 1.000000000000000000 ) ) ;
#232 = CARTESIAN_POINT ( 'NONE',  ( -9.120000000000002771, 45.00000000000000000, 3.000000000000000000 ) ) ;
#233 = DATE_TIME_ROLE ( 'creation_date' ) ;
#234 = EDGE_LOOP ( 'NONE', ( #365, #58 ) ) ;
#235 = FACE_BOUND ( 'NONE', #186, .T. ) ;
#236 = PERSON_AND_ORGANIZATION_ROLE ( 'design_supplier' ) ;
#237 = ORIENTED_EDGE ( 'NONE', *, *, #72, .F. ) ;
#238 = CIRCLE ( 'NONE', #31, 2.500000000000000444 ) ;
#239 = FACE_OUTER_BOUND ( 'NONE', #66, .T. ) ;
#240 = DATE_TIME_ROLE ( 'classification_date' ) ;
#241 = ORIENTED_EDGE ( 'NONE', *, *, #129, .F. ) ;
#242 = DIRECTION ( 'NONE',  ( -1.000000000000000000, 0.000000000000000000, 0.000000000000000000 ) ) ;
#243 = ORIENTED_EDGE ( 'NONE', *, *, #10, .F. ) ;
#244 = DIRECTION ( 'NONE',  ( 1.000000000000000000, 0.000000000000000000, 0.000000000000000000 ) ) ;
#245 = ORIENTED_EDGE ( 'NONE', *, *, #286, .F. ) ;
#246 = AXIS2_PLACEMENT_3D ( 'NONE', #126, #357, #124 ) ;
#247 = DIRECTION ( 'NONE',  ( 0.000000000000000000, 0.000000000000000000, -1.000000000000000000 ) ) ;
#248 = VERTEX_POINT ( 'NONE', #298 ) ;
#249 = EDGE_CURVE ( 'NONE', #302, #158, #364, .T. ) ;
#250 = CIRCLE ( 'NONE', #354, 2.500000000000000444 ) ;
#251 = CARTESIAN_POINT ( 'NONE',  ( 9.120000000000002771, 45.00000000000000000, 3.001000000000000334 ) ) ;
#252 = CIRCLE ( 'NONE', #334, 2.500000000000000444 ) ;
#253 = DIRECTION ( 'NONE',  ( 1.000000000000000000, 0.000000000000000000, 0.000000000000000000 ) ) ;
#254 = ORIENTED_EDGE ( 'NONE', *, *, #116, .T. ) ;
#255 = DATE_AND_TIME ( #384, #44 ) ;
#256 = CARTESIAN_POINT ( 'NONE',  ( -9.120000000000002771, 45.00000000000000000, 0.000000000000000000 ) ) ;
#257 = CALENDAR_DATE ( 2026, 1, 9 ) ;
#258 = CLOSED_SHELL ( 'NONE', ( #190, #96, #171, #69, #296, #87, #163, #132, #318, #161 ) ) ;
#259 = DIRECTION ( 'NONE',  ( -0.000000000000000000, -0.000000000000000000, -1.000000000000000000 ) ) ;
#260 = FACE_OUTER_BOUND ( 'NONE', #155, .T. ) ;
#261 = CARTESIAN_POINT ( 'NONE',  ( 0.000000000000000000, 0.000000000000000000, 0.000000000000000000 ) ) ;
#262 = CARTESIAN_POINT ( 'NONE',  ( 9.120000000000002771, 45.00000000000000000, 3.000000000000000000 ) ) ;
#263 = LINE ( 'NONE', #369, #68 ) ;
#264 = CALENDAR_DATE ( 2026, 1, 9 ) ;
#265 = ORIENTED_EDGE ( 'NONE', *, *, #280, .T. ) ;
#266 = DIRECTION ( 'NONE',  ( -0.000000000000000000, 0.000000000000000000, 1.000000000000000000 ) ) ;
#267 = APPROVAL_ROLE ( '' ) ;
#268 = ORIENTED_EDGE ( 'NONE', *, *, #10, .T. ) ;
#269 = CC_DESIGN_APPROVAL ( #93, ( #188 ) ) ;
#270 = CC_DESIGN_SECURITY_CLASSIFICATION ( #97, ( #188 ) ) ;
#271 = CARTESIAN_POINT ( 'NONE',  ( 6.620000000000002771, 45.00000000000000000, 0.000000000000000000 ) ) ;
#272 = VERTEX_POINT ( 'NONE', #89 ) ;
#273 = CARTESIAN_POINT ( 'NONE',  ( -14.12000000000000455, 39.99999999999999289, 0.000000000000000000 ) ) ;
#274 = EDGE_LOOP ( 'NONE', ( #90, #215 ) ) ;
#275 = EDGE_CURVE ( 'NONE', #104, #92, #154, .T. ) ;
#276 = ORIENTED_EDGE ( 'NONE', *, *, #4, .F. ) ;
#277 = EDGE_CURVE ( 'NONE', #2, #158, #3, .T. ) ;
#278 = CIRCLE ( 'NONE', #21, 2.500000000000000444 ) ;
#279 = DIRECTION ( 'NONE',  ( -1.000000000000000000, 0.000000000000000000, 0.000000000000000000 ) ) ;
#280 = EDGE_CURVE ( 'NONE', #288, #74, #278, .T. ) ;
#281 = PLANE ( 'NONE',  #208 ) ;
#282 = ADVANCED_BREP_SHAPE_REPRESENTATION ( 'SlidingSheet_Default_sldprt', ( #179, #100 ), #9 ) ;
#283 = VECTOR ( 'NONE', #18, 1000.000000000000000 ) ;
#284 = DATE_AND_TIME ( #257, #135 ) ;
#285 = DIRECTION ( 'NONE',  ( -1.301042606982605567E-16, 1.000000000000000000, -0.000000000000000000 ) ) ;
#286 = EDGE_CURVE ( 'NONE', #123, #2, #238, .T. ) ;
#287 = DATE_AND_TIME ( #320, #160 ) ;
#288 = VERTEX_POINT ( 'NONE', #217 ) ;
#289 = VERTEX_POINT ( 'NONE', #360 ) ;
#290 = FACE_OUTER_BOUND ( 'NONE', #60, .T. ) ;
#291 = PERSON_AND_ORGANIZATION ( #149, #136 ) ;
#292 = VECTOR ( 'NONE', #165, 1000.000000000000000 ) ;
#293 = FACE_OUTER_BOUND ( 'NONE', #201, .T. ) ;
#294 = CARTESIAN_POINT ( 'NONE',  ( 9.120000000000002771, 45.00000000000000000, 0.000000000000000000 ) ) ;
#295 = SHAPE_DEFINITION_REPRESENTATION ( #121, #282 ) ;
#296 = ADVANCED_FACE ( 'NONE', ( #336 ), #122, .F. ) ;
#297 = ORIENTED_EDGE ( 'NONE', *, *, #225, .F. ) ;
#298 = CARTESIAN_POINT ( 'NONE',  ( 14.12000000000000810, -39.99999999999999289, 0.000000000000000000 ) ) ;
#299 = PERSON_AND_ORGANIZATION ( #149, #136 ) ;
#300 = ORIENTED_EDGE ( 'NONE', *, *, #275, .F. ) ;
#301 = CARTESIAN_POINT ( 'NONE',  ( -9.120000000000002771, 45.00000000000000000, 3.000000000000000000 ) ) ;
#302 = VERTEX_POINT ( 'NONE', #59 ) ;
#303 = LOCAL_TIME ( 18, 21, 53.00000000000000000, #141 ) ;
#304 = CARTESIAN_POINT ( 'NONE',  ( -14.12000000000000455, 49.99999999999999289, 3.000000000000000000 ) ) ;
#305 = ORIENTED_EDGE ( 'NONE', *, *, #72, .T. ) ;
#306 =( NAMED_UNIT ( * ) PLANE_ANGLE_UNIT ( ) SI_UNIT ( $, .RADIAN. ) );
#307 = ORIENTED_EDGE ( 'NONE', *, *, #151, .T. ) ;
#308 = CARTESIAN_POINT ( 'NONE',  ( -9.120000000000002771, 45.00000000000000000, 3.001000000000000334 ) ) ;
#309 = AXIS2_PLACEMENT_3D ( 'NONE', #103, #25, #115 ) ;
#310 = ORIENTED_EDGE ( 'NONE', *, *, #81, .F. ) ;
#311 = AXIS2_PLACEMENT_3D ( 'NONE', #209, #319, #54 ) ;
#312 = DIRECTION ( 'NONE',  ( -0.000000000000000000, -0.000000000000000000, -1.000000000000000000 ) ) ;
#313 = DIRECTION ( 'NONE',  ( 1.000000000000000000, 0.000000000000000000, 0.000000000000000000 ) ) ;
#314 = CIRCLE ( 'NONE', #53, 2.500000000000000444 ) ;
#315 = DIRECTION ( 'NONE',  ( 1.000000000000000000, 0.000000000000000000, 0.000000000000000000 ) ) ;
#316 = APPROVAL_STATUS ( 'not_yet_approved' ) ;
#317 = FACE_BOUND ( 'NONE', #274, .T. ) ;
#318 = ADVANCED_FACE ( 'NONE', ( #34 ), #1, .F. ) ;
#319 = DIRECTION ( 'NONE',  ( -0.000000000000000000, -0.000000000000000000, -1.000000000000000000 ) ) ;
#320 = CALENDAR_DATE ( 2026, 1, 9 ) ;
#321 = DIRECTION ( 'NONE',  ( -0.000000000000000000, -0.000000000000000000, 1.000000000000000000 ) ) ;
#322 = CYLINDRICAL_SURFACE ( 'NONE', #15, 2.500000000000000444 ) ;
#323 = DIRECTION ( 'NONE',  ( 0.000000000000000000, 0.000000000000000000, 1.000000000000000000 ) ) ;
#324 = AXIS2_PLACEMENT_3D ( 'NONE', #210, #328, #313 ) ;
#325 = CARTESIAN_POINT ( 'NONE',  ( 6.620000000000002771, 45.00000000000000000, 3.001000000000000334 ) ) ;
#326 = DIRECTION ( 'NONE',  ( -0.000000000000000000, -0.000000000000000000, 1.000000000000000000 ) ) ;
#327 = CC_DESIGN_PERSON_AND_ORGANIZATION_ASSIGNMENT ( #291, #119, ( #188 ) ) ;
#328 = DIRECTION ( 'NONE',  ( -0.000000000000000000, 0.000000000000000000, 1.000000000000000000 ) ) ;
#329 = DIRECTION ( 'NONE',  ( 1.000000000000000000, 0.000000000000000000, 0.000000000000000000 ) ) ;
#330 = ORIENTED_EDGE ( 'NONE', *, *, #129, .T. ) ;
#331 = CARTESIAN_POINT ( 'NONE',  ( -14.11999999999999389, -39.99999999999999289, 3.000000000000000000 ) ) ;
#332 = ORIENTED_EDGE ( 'NONE', *, *, #151, .F. ) ;
#333 = ORIENTED_EDGE ( 'NONE', *, *, #33, .F. ) ;
#334 = AXIS2_PLACEMENT_3D ( 'NONE', #346, #321, #315 ) ;
#335 = PRODUCT_RELATED_PRODUCT_CATEGORY ( 'detail', '', ( #214 ) ) ;
#336 = FACE_OUTER_BOUND ( 'NONE', #80, .T. ) ;
#337 = ORIENTED_EDGE ( 'NONE', *, *, #113, .T. ) ;
#338 =( LENGTH_UNIT ( ) NAMED_UNIT ( * ) SI_UNIT ( .MILLI., .METRE. ) );
#339 = AXIS2_PLACEMENT_3D ( 'NONE', #308, #213, #362 ) ;
#340 = APPLICATION_CONTEXT ( 'configuration controlled 3d designs of mechanical parts and assemblies' ) ;
#341 = EDGE_CURVE ( 'NONE', #218, #88, #157, .T. ) ;
#342 = VECTOR ( 'NONE', #247, 1000.000000000000000 ) ;
#343 = ORIENTED_EDGE ( 'NONE', *, *, #14, .T. ) ;
#344 = CARTESIAN_POINT ( 'NONE',  ( -9.120000000000002771, 45.00000000000000000, 3.001000000000000334 ) ) ;
#345 = CARTESIAN_POINT ( 'NONE',  ( 14.12000000000000810, -39.99999999999999289, 3.000000000000000000 ) ) ;
#346 = CARTESIAN_POINT ( 'NONE',  ( 9.120000000000002771, 45.00000000000000000, 0.000000000000000000 ) ) ;
#347 = PERSON_AND_ORGANIZATION_ROLE ( 'creator' ) ;
#348 = LINE ( 'NONE', #381, #130 ) ;
#349 = DIRECTION ( 'NONE',  ( 1.000000000000000000, 0.000000000000000000, 0.000000000000000000 ) ) ;
#350 = LINE ( 'NONE', #172, #292 ) ;
#351 = COORDINATED_UNIVERSAL_TIME_OFFSET ( 5, 30, .AHEAD. ) ;
#352 = CARTESIAN_POINT ( 'NONE',  ( -6.620000000000002771, 45.00000000000000000, 3.001000000000000334 ) ) ;
#353 = CARTESIAN_POINT ( 'NONE',  ( -11.62000000000000277, 45.00000000000000000, 0.000000000000000000 ) ) ;
#354 = AXIS2_PLACEMENT_3D ( 'NONE', #232, #78, #253 ) ;
#355 = AXIS2_PLACEMENT_3D ( 'NONE', #83, #266, #71 ) ;
#356 = DIRECTION ( 'NONE',  ( -1.000000000000000000, 0.000000000000000000, 0.000000000000000000 ) ) ;
#357 = DIRECTION ( 'NONE',  ( 0.000000000000000000, 1.000000000000000000, 0.000000000000000000 ) ) ;
#358 = PERSON_AND_ORGANIZATION ( #149, #136 ) ;
#359 = ORIENTED_EDGE ( 'NONE', *, *, #81, .T. ) ;
#360 = CARTESIAN_POINT ( 'NONE',  ( -14.12000000000000455, 49.99999999999999289, 3.000000000000000000 ) ) ;
#361 = ORIENTED_EDGE ( 'NONE', *, *, #67, .F. ) ;
#362 = DIRECTION ( 'NONE',  ( -1.000000000000000000, 0.000000000000000000, 0.000000000000000000 ) ) ;
#363 = EDGE_LOOP ( 'NONE', ( #7, #207, #146, #237 ) ) ;
#364 = CIRCLE ( 'NONE', #191, 2.500000000000000444 ) ;
#365 = ORIENTED_EDGE ( 'NONE', *, *, #61, .T. ) ;
#366 = EDGE_CURVE ( 'NONE', #289, #104, #62, .T. ) ;
#367 = AXIS2_PLACEMENT_3D ( 'NONE', #251, #224, #41 ) ;
#368 = APPROVAL_PERSON_ORGANIZATION ( #299, #43, #380 ) ;
#369 = CARTESIAN_POINT ( 'NONE',  ( 14.11999999999999744, 49.99999999999999289, 3.000000000000000000 ) ) ;
#370 = LINE ( 'NONE', #11, #105 ) ;
#371 = LINE ( 'NONE', #52, #75 ) ;
#372 = ORIENTED_EDGE ( 'NONE', *, *, #341, .F. ) ;
#373 = VECTOR ( 'NONE', #285, 1000.000000000000000 ) ;
#374 = PERSON_AND_ORGANIZATION ( #149, #136 ) ;
#375 = ORIENTED_EDGE ( 'NONE', *, *, #67, .T. ) ;
#376 = LINE ( 'NONE', #180, #91 ) ;
#377 = PERSON_AND_ORGANIZATION ( #149, #136 ) ;
#378 = ORIENTED_EDGE ( 'NONE', *, *, #366, .F. ) ;
#379 = DIRECTION ( 'NONE',  ( 0.000000000000000000, 0.000000000000000000, -1.000000000000000000 ) ) ;
#380 = APPROVAL_ROLE ( '' ) ;
#381 = CARTESIAN_POINT ( 'NONE',  ( -14.12000000000000455, 39.99999999999999289, 3.000000000000000000 ) ) ;
#382 = CARTESIAN_POINT ( 'NONE',  ( -6.620000000000002771, 45.00000000000000000, 3.000000000000000000 ) ) ;
#383 = VECTOR ( 'NONE', #200, 1000.000000000000000 ) ;
#384 = CALENDAR_DATE ( 2026, 1, 9 ) ;
#385 = VERTEX_POINT ( 'NONE', #271 ) ;
ENDSEC;
END-ISO-10303-21;
