ISO-10303-21;
HEADER;
FILE_DESCRIPTION (( 'STEP AP203' ),
    '1' );
FILE_NAME ('Teeth_v2_Default_sldprt.STEP',
    '2026-09-01T12:51:54',
    ( '' ),
    ( '' ),
    'SwSTEP 2.0',
    'SolidWorks 2020',
    '' );
FILE_SCHEMA (( 'CONFIG_CONTROL_DESIGN' ));
ENDSEC;

DATA;
#1 = ADVANCED_FACE ( 'NONE', ( #72 ), #65, .F. ) ;
#2 = ORIENTED_EDGE ( 'NONE', *, *, #12, .T. ) ;
#3 = DIRECTION ( 'NONE',  ( -1.000000000000000000, 0.000000000000000000, 0.000000000000000000 ) ) ;
#4 = CARTESIAN_POINT ( 'NONE',  ( -20.00012701892218558, 7.499999999999992006, 10.00000000000000000 ) ) ;
#5 = CARTESIAN_POINT ( 'NONE',  ( -8.424600849650779821, -0.4081632949169192170, 10.00000000000000000 ) ) ;
#6 = CARTESIAN_POINT ( 'NONE',  ( -20.00012701892218914, -7.500000000000007105, 10.00000000000000000 ) ) ;
#7 = PERSON ( 'UNSPECIFIED', 'UNSPECIFIED', 'UNSPECIFIED', ('UNSPECIFIED'), ('UNSPECIFIED'), ('UNSPECIFIED') ) ;
#8 = DIRECTION ( 'NONE',  ( 0.5000000000000004441, -0.8660254037844383745, 0.000000000000000000 ) ) ;
#9 = PLANE ( 'NONE',  #248 ) ;
#10 = VERTEX_POINT ( 'NONE', #167 ) ;
#11 = PERSON_AND_ORGANIZATION_ROLE ( 'design_supplier' ) ;
#12 = EDGE_CURVE ( 'NONE', #201, #157, #233, .T. ) ;
#13 = CALENDAR_DATE ( 2026, 1, 9 ) ;
#14 = AXIS2_PLACEMENT_3D ( 'NONE', #34, #257, #239 ) ;
#15 = CALENDAR_DATE ( 2026, 1, 9 ) ;
#16 = PERSON_AND_ORGANIZATION ( #7, #193 ) ;
#17 = VERTEX_POINT ( 'NONE', #216 ) ;
#18 = EDGE_CURVE ( 'NONE', #28, #53, #244, .T. ) ;
#19 = CLOSED_SHELL ( 'NONE', ( #1, #48, #266, #99, #268, #260, #38 ) ) ;
#20 = APPROVAL_PERSON_ORGANIZATION ( #81, #119, #247 ) ;
#21 = APPLICATION_PROTOCOL_DEFINITION ( 'international standard', 'config_control_design', 1994, #49 ) ;
#22 = EDGE_CURVE ( 'NONE', #93, #17, #240, .T. ) ;
#23 = DIRECTION ( 'NONE',  ( 0.000000000000000000, 0.000000000000000000, 1.000000000000000000 ) ) ;
#24 = DIRECTION ( 'NONE',  ( -2.312964634635742957E-16, -1.000000000000000000, 0.000000000000000000 ) ) ;
#25 = VECTOR ( 'NONE', #196, 1000.000000000000000 ) ;
#26 = LINE ( 'NONE', #228, #177 ) ;
#27 = ORIENTED_EDGE ( 'NONE', *, *, #137, .T. ) ;
#28 = VERTEX_POINT ( 'NONE', #5 ) ;
#29 = CARTESIAN_POINT ( 'NONE',  ( -10.15665165721965657, -1.408163294916920272, 10.00000000000000000 ) ) ;
#30 =( GEOMETRIC_REPRESENTATION_CONTEXT ( 3 ) GLOBAL_UNCERTAINTY_ASSIGNED_CONTEXT ( ( #79 ) ) GLOBAL_UNIT_ASSIGNED_CONTEXT ( ( #210, #213, #45 ) ) REPRESENTATION_CONTEXT ( 'NONE', 'WORKASPACE' ) );
#31 = LINE ( 'NONE', #67, #56 ) ;
#32 = CARTESIAN_POINT ( 'NONE',  ( -8.424600849650779821, -0.4081632949169192170, 0.000000000000000000 ) ) ;
#33 = APPROVAL ( #181, 'UNSPECIFIED' ) ;
#34 = CARTESIAN_POINT ( 'NONE',  ( -10.15665165721965657, -1.408163294916920272, 10.00000000000000000 ) ) ;
#35 = DIRECTION ( 'NONE',  ( -0.8660254037844383745, -0.5000000000000004441, 0.000000000000000000 ) ) ;
#36 = AXIS2_PLACEMENT_3D ( 'NONE', #130, #23, #90 ) ;
#37 = APPROVAL_DATE_TIME ( #140, #119 ) ;
#38 = ADVANCED_FACE ( 'NONE', ( #195 ), #178, .T. ) ;
#39 = DESIGN_CONTEXT ( 'detailed design', #42, 'design' ) ;
#40 = PERSON_AND_ORGANIZATION ( #7, #193 ) ;
#41 = DIRECTION ( 'NONE',  ( -0.8340786710325415187, 0.5516455116545312398, 0.000000000000000000 ) ) ;
#42 = APPLICATION_CONTEXT ( 'configuration controlled 3d designs of mechanical parts and assemblies' ) ;
#43 = DATE_AND_TIME ( #15, #208 ) ;
#44 = PRODUCT_RELATED_PRODUCT_CATEGORY ( 'detail', '', ( #107 ) ) ;
#45 =( NAMED_UNIT ( * ) SI_UNIT ( $, .STERADIAN. ) SOLID_ANGLE_UNIT ( ) );
#46 = ORIENTED_EDGE ( 'NONE', *, *, #215, .T. ) ;
#47 = DIRECTION ( 'NONE',  ( 0.000000000000000000, 0.000000000000000000, 1.000000000000000000 ) ) ;
#48 = ADVANCED_FACE ( 'NONE', ( #236 ), #9, .F. ) ;
#49 = APPLICATION_CONTEXT ( 'configuration controlled 3d designs of mechanical parts and assemblies' ) ;
#50 = PLANE ( 'NONE',  #61 ) ;
#51 = FACE_OUTER_BOUND ( 'NONE', #146, .T. ) ;
#52 = CC_DESIGN_APPROVAL ( #109, ( #58 ) ) ;
#53 = VERTEX_POINT ( 'NONE', #153 ) ;
#54 = EDGE_LOOP ( 'NONE', ( #133, #27, #88, #250, #218 ) ) ;
#55 = CC_DESIGN_SECURITY_CLASSIFICATION ( #58, ( #78 ) ) ;
#56 = VECTOR ( 'NONE', #232, 1000.000000000000000 ) ;
#57 = EDGE_LOOP ( 'NONE', ( #2, #256, #231, #151 ) ) ;
#58 = SECURITY_CLASSIFICATION ( '', '', #161 ) ;
#59 = APPLICATION_PROTOCOL_DEFINITION ( 'international standard', 'config_control_design', 1994, #42 ) ;
#60 = DATE_AND_TIME ( #160, #104 ) ;
#61 = AXIS2_PLACEMENT_3D ( 'NONE', #110, #47, #106 ) ;
#62 = SHAPE_DEFINITION_REPRESENTATION ( #139, #171 ) ;
#63 = EDGE_CURVE ( 'NONE', #93, #157, #73, .T. ) ;
#64 = PLANE ( 'NONE',  #96 ) ;
#65 = PLANE ( 'NONE',  #116 ) ;
#66 = DIRECTION ( 'NONE',  ( 1.000000000000000000, 3.321104293510159743E-16, 0.000000000000000000 ) ) ;
#67 = CARTESIAN_POINT ( 'NONE',  ( -8.660254037844385522, -3.903127820947815962E-15, 0.000000000000000000 ) ) ;
#68 = EDGE_CURVE ( 'NONE', #241, #125, #31, .T. ) ;
#69 = APPROVAL_PERSON_ORGANIZATION ( #122, #33, #118 ) ;
#70 = ORIENTED_EDGE ( 'NONE', *, *, #18, .F. ) ;
#71 = DIRECTION ( 'NONE',  ( 2.312964634635742957E-16, 1.000000000000000000, 0.000000000000000000 ) ) ;
#72 = FACE_OUTER_BOUND ( 'NONE', #113, .T. ) ;
#73 = LINE ( 'NONE', #192, #165 ) ;
#74 = EDGE_CURVE ( 'NONE', #10, #93, #117, .T. ) ;
#75 = CARTESIAN_POINT ( 'NONE',  ( -9.053360633910594757, 0.2599940471481631543, 10.00000000000000000 ) ) ;
#76 = EDGE_LOOP ( 'NONE', ( #152, #77, #184, #112 ) ) ;
#77 = ORIENTED_EDGE ( 'NONE', *, *, #176, .T. ) ;
#78 = PRODUCT_DEFINITION_FORMATION_WITH_SPECIFIED_SOURCE ( 'ANY', '', #107, .NOT_KNOWN. ) ;
#79 = UNCERTAINTY_MEASURE_WITH_UNIT (LENGTH_MEASURE( 1.000000000000000082E-05 ), #210, 'distance_accuracy_value', 'NONE');
#80 = COORDINATED_UNIVERSAL_TIME_OFFSET ( 5, 30, .AHEAD. ) ;
#81 = PERSON_AND_ORGANIZATION ( #7, #193 ) ;
#82 = DATE_AND_TIME ( #242, #114 ) ;
#83 = VECTOR ( 'NONE', #249, 1000.000000000000000 ) ;
#84 = DATE_TIME_ROLE ( 'creation_date' ) ;
#85 = CARTESIAN_POINT ( 'NONE',  ( -20.00012701892218558, 7.499999999999992006, 0.000000000000000000 ) ) ;
#86 = VECTOR ( 'NONE', #156, 1000.000000000000000 ) ;
#87 = CARTESIAN_POINT ( 'NONE',  ( -8.424600849650779821, -0.4081632949169196611, 10.00000000000000000 ) ) ;
#88 = ORIENTED_EDGE ( 'NONE', *, *, #68, .F. ) ;
#89 = ORIENTED_EDGE ( 'NONE', *, *, #91, .T. ) ;
#90 = DIRECTION ( 'NONE',  ( 1.000000000000000000, 0.000000000000000000, -0.000000000000000000 ) ) ;
#91 = EDGE_CURVE ( 'NONE', #53, #135, #175, .T. ) ;
#92 = ORIENTED_EDGE ( 'NONE', *, *, #186, .T. ) ;
#93 = VERTEX_POINT ( 'NONE', #168 ) ;
#94 = VECTOR ( 'NONE', #144, 1000.000000000000000 ) ;
#95 = CC_DESIGN_PERSON_AND_ORGANIZATION_ASSIGNMENT ( #243, #182, ( #107 ) ) ;
#96 = AXIS2_PLACEMENT_3D ( 'NONE', #185, #166, #212 ) ;
#97 = DIRECTION ( 'NONE',  ( 1.000000000000000000, -2.312964634635742957E-16, 0.000000000000000000 ) ) ;
#98 = CARTESIAN_POINT ( 'NONE',  ( 0.000000000000000000, 0.000000000000000000, 0.000000000000000000 ) ) ;
#99 = ADVANCED_FACE ( 'NONE', ( #149 ), #270, .F. ) ;
#100 = PERSON_AND_ORGANIZATION_ROLE ( 'creator' ) ;
#101 = PERSON_AND_ORGANIZATION ( #7, #193 ) ;
#102 = ORIENTED_EDGE ( 'NONE', *, *, #154, .T. ) ;
#103 = VECTOR ( 'NONE', #41, 1000.000000000000000 ) ;
#104 = LOCAL_TIME ( 18, 21, 54.00000000000000000, #80 ) ;
#105 = CARTESIAN_POINT ( 'NONE',  ( -20.00012701892218558, 7.499999999999992006, 10.00000000000000000 ) ) ;
#106 = DIRECTION ( 'NONE',  ( 1.000000000000000000, 0.000000000000000000, -0.000000000000000000 ) ) ;
#107 = PRODUCT ( 'Teeth_v2_Default_sldprt', 'Teeth_v2_Default_sldprt', '', ( #263 ) ) ;
#108 = VECTOR ( 'NONE', #143, 1000.000000000000000 ) ;
#109 = APPROVAL ( #158, 'UNSPECIFIED' ) ;
#110 = CARTESIAN_POINT ( 'NONE',  ( 0.000000000000000000, 0.000000000000000000, 0.000000000000000000 ) ) ;
#111 = ORIENTED_EDGE ( 'NONE', *, *, #22, .F. ) ;
#112 = ORIENTED_EDGE ( 'NONE', *, *, #180, .T. ) ;
#113 = EDGE_LOOP ( 'NONE', ( #191, #89, #102, #253 ) ) ;
#114 = LOCAL_TIME ( 18, 21, 54.00000000000000000, #264 ) ;
#115 = EDGE_LOOP ( 'NONE', ( #92, #169, #46, #265, #132 ) ) ;
#116 = AXIS2_PLACEMENT_3D ( 'NONE', #172, #229, #254 ) ;
#117 = LINE ( 'NONE', #4, #86 ) ;
#118 = APPROVAL_ROLE ( '' ) ;
#119 = APPROVAL ( #246, 'UNSPECIFIED' ) ;
#120 = AXIS2_PLACEMENT_3D ( 'NONE', #238, #145, #252 ) ;
#121 = COORDINATED_UNIVERSAL_TIME_OFFSET ( 5, 30, .AHEAD. ) ;
#122 = PERSON_AND_ORGANIZATION ( #7, #193 ) ;
#123 = DIRECTION ( 'NONE',  ( 1.000000000000000000, 0.000000000000000000, 0.000000000000000000 ) ) ;
#124 = CC_DESIGN_APPROVAL ( #119, ( #78 ) ) ;
#125 = VERTEX_POINT ( 'NONE', #32 ) ;
#126 = PLANE ( 'NONE',  #36 ) ;
#127 = LINE ( 'NONE', #227, #94 ) ;
#128 = CC_DESIGN_PERSON_AND_ORGANIZATION_ASSIGNMENT ( #16, #221, ( #58 ) ) ;
#129 = CARTESIAN_POINT ( 'NONE',  ( -20.00012701892218558, 7.499999999999992006, 0.000000000000000000 ) ) ;
#130 = CARTESIAN_POINT ( 'NONE',  ( 0.000000000000000000, 0.000000000000000000, 10.00000000000000000 ) ) ;
#131 = ORIENTED_EDGE ( 'NONE', *, *, #63, .T. ) ;
#132 = ORIENTED_EDGE ( 'NONE', *, *, #22, .T. ) ;
#133 = ORIENTED_EDGE ( 'NONE', *, *, #154, .F. ) ;
#134 = CARTESIAN_POINT ( 'NONE',  ( -8.660254037844385522, -3.903127820947815962E-15, 10.00000000000000000 ) ) ;
#135 = VERTEX_POINT ( 'NONE', #197 ) ;
#136 = LOCAL_TIME ( 18, 21, 54.00000000000000000, #183 ) ;
#137 = EDGE_CURVE ( 'NONE', #135, #125, #237, .T. ) ;
#138 = COORDINATED_UNIVERSAL_TIME_OFFSET ( 5, 30, .AHEAD. ) ;
#139 = PRODUCT_DEFINITION_SHAPE ( 'NONE', 'NONE',  #261 ) ;
#140 = DATE_AND_TIME ( #225, #173 ) ;
#141 = APPROVAL_DATE_TIME ( #82, #109 ) ;
#142 = ORIENTED_EDGE ( 'NONE', *, *, #176, .F. ) ;
#143 = DIRECTION ( 'NONE',  ( -0.000000000000000000, -0.000000000000000000, -1.000000000000000000 ) ) ;
#144 = DIRECTION ( 'NONE',  ( -0.8340786710325415187, 0.5516455116545312398, 0.000000000000000000 ) ) ;
#145 = DIRECTION ( 'NONE',  ( -0.000000000000000000, -0.000000000000000000, -1.000000000000000000 ) ) ;
#146 = EDGE_LOOP ( 'NONE', ( #194, #150, #111, #131 ) ) ;
#147 = LINE ( 'NONE', #87, #267 ) ;
#148 = CARTESIAN_POINT ( 'NONE',  ( -4.330127018922188320, -7.500000000000001776, 10.00000000000000000 ) ) ;
#149 = FACE_OUTER_BOUND ( 'NONE', #76, .T. ) ;
#150 = ORIENTED_EDGE ( 'NONE', *, *, #180, .F. ) ;
#151 = ORIENTED_EDGE ( 'NONE', *, *, #235, .T. ) ;
#152 = ORIENTED_EDGE ( 'NONE', *, *, #68, .T. ) ;
#153 = CARTESIAN_POINT ( 'NONE',  ( -9.053360633910594757, 0.2599940471481632098, 10.00000000000000000 ) ) ;
#154 = EDGE_CURVE ( 'NONE', #135, #201, #189, .T. ) ;
#155 = CC_DESIGN_DATE_AND_TIME_ASSIGNMENT ( #43, #204, ( #58 ) ) ;
#156 = DIRECTION ( 'NONE',  ( -2.312964634635742957E-16, -1.000000000000000000, 0.000000000000000000 ) ) ;
#157 = VERTEX_POINT ( 'NONE', #211 ) ;
#158 = APPROVAL_STATUS ( 'not_yet_approved' ) ;
#159 = DIRECTION ( 'NONE',  ( -0.000000000000000000, -0.000000000000000000, 1.000000000000000000 ) ) ;
#160 = CALENDAR_DATE ( 2026, 1, 9 ) ;
#161 = SECURITY_CLASSIFICATION_LEVEL ( 'unclassified' ) ;
#162 = CC_DESIGN_DATE_AND_TIME_ASSIGNMENT ( #60, #84, ( #261 ) ) ;
#163 = FACE_OUTER_BOUND ( 'NONE', #115, .T. ) ;
#164 = CC_DESIGN_PERSON_AND_ORGANIZATION_ASSIGNMENT ( #40, #262, ( #261 ) ) ;
#165 = VECTOR ( 'NONE', #234, 1000.000000000000000 ) ;
#166 = DIRECTION ( 'NONE',  ( -3.321104293510159743E-16, 1.000000000000000000, 0.000000000000000000 ) ) ;
#167 = CARTESIAN_POINT ( 'NONE',  ( -20.00012701892218558, 7.499999999999992006, 10.00000000000000000 ) ) ;
#168 = CARTESIAN_POINT ( 'NONE',  ( -20.00012701892218914, -7.500000000000007105, 10.00000000000000000 ) ) ;
#169 = ORIENTED_EDGE ( 'NONE', *, *, #18, .T. ) ;
#170 = CARTESIAN_POINT ( 'NONE',  ( -4.330127018922188320, -7.500000000000001776, 0.000000000000000000 ) ) ;
#171 = ADVANCED_BREP_SHAPE_REPRESENTATION ( 'Teeth_v2_Default_sldprt', ( #209, #219 ), #30 ) ;
#172 = CARTESIAN_POINT ( 'NONE',  ( -8.660254037844385522, -3.903127820947815962E-15, 10.00000000000000000 ) ) ;
#173 = LOCAL_TIME ( 18, 21, 54.00000000000000000, #138 ) ;
#174 = CARTESIAN_POINT ( 'NONE',  ( -20.00012701892218558, 7.499999999999992006, 10.00000000000000000 ) ) ;
#175 = LINE ( 'NONE', #75, #25 ) ;
#176 = EDGE_CURVE ( 'NONE', #125, #28, #147, .T. ) ;
#177 = VECTOR ( 'NONE', #66, 1000.000000000000000 ) ;
#178 = CYLINDRICAL_SURFACE ( 'NONE', #199, 2.000000000000000000 ) ;
#179 = DIRECTION ( 'NONE',  ( 0.000000000000000000, 0.000000000000000000, 1.000000000000000000 ) ) ;
#180 = EDGE_CURVE ( 'NONE', #17, #241, #245, .T. ) ;
#181 = APPROVAL_STATUS ( 'not_yet_approved' ) ;
#182 = PERSON_AND_ORGANIZATION_ROLE ( 'design_owner' ) ;
#183 = COORDINATED_UNIVERSAL_TIME_OFFSET ( 5, 30, .AHEAD. ) ;
#184 = ORIENTED_EDGE ( 'NONE', *, *, #186, .F. ) ;
#185 = CARTESIAN_POINT ( 'NONE',  ( -20.00012701892218914, -7.500000000000007105, 10.00000000000000000 ) ) ;
#186 = EDGE_CURVE ( 'NONE', #17, #28, #190, .T. ) ;
#187 = FACE_OUTER_BOUND ( 'NONE', #54, .T. ) ;
#188 = CARTESIAN_POINT ( 'NONE',  ( -8.660254037844385522, -3.903127820947815962E-15, 10.00000000000000000 ) ) ;
#189 = LINE ( 'NONE', #223, #103 ) ;
#190 = LINE ( 'NONE', #188, #258 ) ;
#191 = ORIENTED_EDGE ( 'NONE', *, *, #215, .F. ) ;
#192 = CARTESIAN_POINT ( 'NONE',  ( -20.00012701892218914, -7.500000000000007105, 10.00000000000000000 ) ) ;
#193 = ORGANIZATION ( 'UNSPECIFIED', 'UNSPECIFIED', '' ) ;
#194 = ORIENTED_EDGE ( 'NONE', *, *, #202, .T. ) ;
#195 = FACE_OUTER_BOUND ( 'NONE', #226, .T. ) ;
#196 = DIRECTION ( 'NONE',  ( 0.000000000000000000, 0.000000000000000000, -1.000000000000000000 ) ) ;
#197 = CARTESIAN_POINT ( 'NONE',  ( -9.053360633910594757, 0.2599940471481632098, 0.000000000000000000 ) ) ;
#198 = AXIS2_PLACEMENT_3D ( 'NONE', #134, #35, #8 ) ;
#199 = AXIS2_PLACEMENT_3D ( 'NONE', #29, #200, #3 ) ;
#200 = DIRECTION ( 'NONE',  ( 0.000000000000000000, 0.000000000000000000, -1.000000000000000000 ) ) ;
#201 = VERTEX_POINT ( 'NONE', #85 ) ;
#202 = EDGE_CURVE ( 'NONE', #157, #241, #26, .T. ) ;
#203 = APPROVAL_DATE_TIME ( #222, #33 ) ;
#204 = DATE_TIME_ROLE ( 'classification_date' ) ;
#205 = CC_DESIGN_PERSON_AND_ORGANIZATION_ASSIGNMENT ( #224, #11, ( #78 ) ) ;
#206 = PERSON_AND_ORGANIZATION ( #7, #193 ) ;
#207 = APPROVAL_ROLE ( '' ) ;
#208 = LOCAL_TIME ( 18, 21, 54.00000000000000000, #121 ) ;
#209 = MANIFOLD_SOLID_BREP ( 'Fillet1', #19 ) ;
#210 =( LENGTH_UNIT ( ) NAMED_UNIT ( * ) SI_UNIT ( .MILLI., .METRE. ) );
#211 = CARTESIAN_POINT ( 'NONE',  ( -20.00012701892218914, -7.500000000000007105, 0.000000000000000000 ) ) ;
#212 = DIRECTION ( 'NONE',  ( -1.000000000000000000, -3.321104293510159743E-16, 0.000000000000000000 ) ) ;
#213 =( NAMED_UNIT ( * ) PLANE_ANGLE_UNIT ( ) SI_UNIT ( $, .RADIAN. ) );
#214 = VECTOR ( 'NONE', #259, 1000.000000000000000 ) ;
#215 = EDGE_CURVE ( 'NONE', #53, #10, #127, .T. ) ;
#216 = CARTESIAN_POINT ( 'NONE',  ( -4.330127018922188320, -7.500000000000001776, 10.00000000000000000 ) ) ;
#217 = ORIENTED_EDGE ( 'NONE', *, *, #137, .F. ) ;
#218 = ORIENTED_EDGE ( 'NONE', *, *, #12, .F. ) ;
#219 = AXIS2_PLACEMENT_3D ( 'NONE', #98, #179, #123 ) ;
#220 = CC_DESIGN_APPROVAL ( #33, ( #261 ) ) ;
#221 = PERSON_AND_ORGANIZATION_ROLE ( 'classification_officer' ) ;
#222 = DATE_AND_TIME ( #13, #136 ) ;
#223 = CARTESIAN_POINT ( 'NONE',  ( -8.660254037844385522, -3.903127820947815962E-15, 0.000000000000000000 ) ) ;
#224 = PERSON_AND_ORGANIZATION ( #7, #193 ) ;
#225 = CALENDAR_DATE ( 2026, 1, 9 ) ;
#226 = EDGE_LOOP ( 'NONE', ( #70, #142, #217, #271 ) ) ;
#227 = CARTESIAN_POINT ( 'NONE',  ( -8.660254037844385522, -3.903127820947815962E-15, 10.00000000000000000 ) ) ;
#228 = CARTESIAN_POINT ( 'NONE',  ( -20.00012701892218914, -7.500000000000007105, 0.000000000000000000 ) ) ;
#229 = DIRECTION ( 'NONE',  ( -0.5516455116545311288, -0.8340786710325415187, 0.000000000000000000 ) ) ;
#230 = LINE ( 'NONE', #105, #83 ) ;
#231 = ORIENTED_EDGE ( 'NONE', *, *, #74, .F. ) ;
#232 = DIRECTION ( 'NONE',  ( -0.5000000000000004441, 0.8660254037844383745, -0.000000000000000000 ) ) ;
#233 = LINE ( 'NONE', #129, #255 ) ;
#234 = DIRECTION ( 'NONE',  ( -0.000000000000000000, -0.000000000000000000, -1.000000000000000000 ) ) ;
#235 = EDGE_CURVE ( 'NONE', #10, #201, #230, .T. ) ;
#236 = FACE_OUTER_BOUND ( 'NONE', #57, .T. ) ;
#237 = CIRCLE ( 'NONE', #120, 2.000000000000000000 ) ;
#238 = CARTESIAN_POINT ( 'NONE',  ( -10.15665165721965657, -1.408163294916920272, 0.000000000000000000 ) ) ;
#239 = DIRECTION ( 'NONE',  ( 1.000000000000000000, 0.000000000000000000, 0.000000000000000000 ) ) ;
#240 = LINE ( 'NONE', #6, #214 ) ;
#241 = VERTEX_POINT ( 'NONE', #170 ) ;
#242 = CALENDAR_DATE ( 2026, 1, 9 ) ;
#243 = PERSON_AND_ORGANIZATION ( #7, #193 ) ;
#244 = CIRCLE ( 'NONE', #14, 2.000000000000000000 ) ;
#245 = LINE ( 'NONE', #148, #108 ) ;
#246 = APPROVAL_STATUS ( 'not_yet_approved' ) ;
#247 = APPROVAL_ROLE ( '' ) ;
#248 = AXIS2_PLACEMENT_3D ( 'NONE', #174, #97, #71 ) ;
#249 = DIRECTION ( 'NONE',  ( -0.000000000000000000, -0.000000000000000000, -1.000000000000000000 ) ) ;
#250 = ORIENTED_EDGE ( 'NONE', *, *, #202, .F. ) ;
#251 = CC_DESIGN_PERSON_AND_ORGANIZATION_ASSIGNMENT ( #206, #100, ( #78 ) ) ;
#252 = DIRECTION ( 'NONE',  ( 1.000000000000000000, 3.577867169202164632E-15, 0.000000000000000000 ) ) ;
#253 = ORIENTED_EDGE ( 'NONE', *, *, #235, .F. ) ;
#254 = DIRECTION ( 'NONE',  ( 0.8340786710325415187, -0.5516455116545311288, 0.000000000000000000 ) ) ;
#255 = VECTOR ( 'NONE', #24, 1000.000000000000000 ) ;
#256 = ORIENTED_EDGE ( 'NONE', *, *, #63, .F. ) ;
#257 = DIRECTION ( 'NONE',  ( 0.000000000000000000, 0.000000000000000000, 1.000000000000000000 ) ) ;
#258 = VECTOR ( 'NONE', #269, 1000.000000000000000 ) ;
#259 = DIRECTION ( 'NONE',  ( 1.000000000000000000, 3.321104293510159743E-16, 0.000000000000000000 ) ) ;
#260 = ADVANCED_FACE ( 'NONE', ( #187 ), #50, .F. ) ;
#261 = PRODUCT_DEFINITION ( 'UNKNOWN', '', #78, #39 ) ;
#262 = PERSON_AND_ORGANIZATION_ROLE ( 'creator' ) ;
#263 = MECHANICAL_CONTEXT ( 'NONE', #49, 'mechanical' ) ;
#264 = COORDINATED_UNIVERSAL_TIME_OFFSET ( 5, 30, .AHEAD. ) ;
#265 = ORIENTED_EDGE ( 'NONE', *, *, #74, .T. ) ;
#266 = ADVANCED_FACE ( 'NONE', ( #51 ), #64, .F. ) ;
#267 = VECTOR ( 'NONE', #159, 1000.000000000000000 ) ;
#268 = ADVANCED_FACE ( 'NONE', ( #163 ), #126, .T. ) ;
#269 = DIRECTION ( 'NONE',  ( -0.5000000000000004441, 0.8660254037844383745, -0.000000000000000000 ) ) ;
#270 = PLANE ( 'NONE',  #198 ) ;
#271 = ORIENTED_EDGE ( 'NONE', *, *, #91, .F. ) ;
#272 = APPROVAL_PERSON_ORGANIZATION ( #101, #109, #207 ) ;
ENDSEC;
END-ISO-10303-21;
