ISO-10303-21;
HEADER;
FILE_DESCRIPTION (( 'STEP AP203' ),
    '1' );
FILE_NAME ('wheel_insert_4mm_shaft_sldprt.STEP',
    '2026-09-01T12:51:56',
    ( '' ),
    ( '' ),
    'SwSTEP 2.0',
    'SolidWorks 2020',
    '' );
FILE_SCHEMA (( 'CONFIG_CONTROL_DESIGN' ));
ENDSEC;

DATA;
#1 = LINE ( 'NONE', #9, #375 ) ;
#2 = DIRECTION ( 'NONE',  ( 0.000000000000000000, -0.000000000000000000, 1.000000000000000000 ) ) ;
#3 = ORIENTED_EDGE ( 'NONE', *, *, #389, .T. ) ;
#4 = CARTESIAN_POINT ( 'NONE',  ( 0.000000000000000000, 0.000000000000000000, 6.000000000000000000 ) ) ;
#5 = DIRECTION ( 'NONE',  ( -0.000000000000000000, -0.000000000000000000, 1.000000000000000000 ) ) ;
#6 = CC_DESIGN_PERSON_AND_ORGANIZATION_ASSIGNMENT ( #353, #210, ( #171 ) ) ;
#7 = ORIENTED_EDGE ( 'NONE', *, *, #204, .T. ) ;
#8 = LOCAL_TIME ( 18, 21, 56.00000000000000000, #100 ) ;
#9 = CARTESIAN_POINT ( 'NONE',  ( -2.499999999999999556, -4.330127018922193649, 6.000000000000000000 ) ) ;
#10 = ORIENTED_EDGE ( 'NONE', *, *, #340, .T. ) ;
#11 = ORIENTED_EDGE ( 'NONE', *, *, #15, .F. ) ;
#12 = FACE_OUTER_BOUND ( 'NONE', #54, .T. ) ;
#13 = CARTESIAN_POINT ( 'NONE',  ( 2.499999999999999112, -4.330127018922193649, 6.000000000000000000 ) ) ;
#14 = ORIENTED_EDGE ( 'NONE', *, *, #59, .F. ) ;
#15 = EDGE_CURVE ( 'NONE', #259, #62, #45, .T. ) ;
#16 = CARTESIAN_POINT ( 'NONE',  ( -2.499999999999999556, -4.330127018922193649, 6.000000000000000000 ) ) ;
#17 = DIRECTION ( 'NONE',  ( -0.8660254037844384856, 0.5000000000000003331, 0.000000000000000000 ) ) ;
#18 = ORIENTED_EDGE ( 'NONE', *, *, #206, .F. ) ;
#19 = MANIFOLD_SOLID_BREP ( 'Cut-Extrude2', #342 ) ;
#20 = CARTESIAN_POINT ( 'NONE',  ( 2.000000000000000000, 2.449293598294706414E-16, 5.656854249492380582 ) ) ;
#21 = DIRECTION ( 'NONE',  ( -0.000000000000000000, -0.000000000000000000, 1.000000000000000000 ) ) ;
#22 = CC_DESIGN_PERSON_AND_ORGANIZATION_ASSIGNMENT ( #282, #29, ( #456 ) ) ;
#23 = DIRECTION ( 'NONE',  ( 0.5000000000000000000, 0.8660254037844385966, 0.000000000000000000 ) ) ;
#24 = CIRCLE ( 'NONE', #91, 4.000000000000000000 ) ;
#25 = EDGE_CURVE ( 'NONE', #89, #62, #432, .T. ) ;
#26 = LINE ( 'NONE', #135, #144 ) ;
#27 = VERTEX_POINT ( 'NONE', #191 ) ;
#28 = CARTESIAN_POINT ( 'NONE',  ( 0.000000000000000000, 0.000000000000000000, -12.00000000000000000 ) ) ;
#29 = PERSON_AND_ORGANIZATION_ROLE ( 'classification_officer' ) ;
#30 = VECTOR ( 'NONE', #252, 1000.000000000000227 ) ;
#31 = FACE_OUTER_BOUND ( 'NONE', #433, .T. ) ;
#32 = CALENDAR_DATE ( 2026, 1, 9 ) ;
#33 = CARTESIAN_POINT ( 'NONE',  ( 0.000000000000000000, 0.000000000000000000, -12.00000000000000000 ) ) ;
#34 = CALENDAR_DATE ( 2026, 1, 9 ) ;
#35 = ORIENTED_EDGE ( 'NONE', *, *, #221, .F. ) ;
#36 = CARTESIAN_POINT ( 'NONE',  ( 0.000000000000000000, 0.000000000000000000, 5.656854249492380582 ) ) ;
#37 = DIRECTION ( 'NONE',  ( -1.000000000000000000, 0.000000000000000000, 0.000000000000000000 ) ) ;
#38 = VERTEX_POINT ( 'NONE', #13 ) ;
#39 = VECTOR ( 'NONE', #376, 1000.000000000000114 ) ;
#40 = VECTOR ( 'NONE', #47, 1000.000000000000227 ) ;
#41 = EDGE_CURVE ( 'NONE', #176, #407, #328, .T. ) ;
#42 = APPLICATION_PROTOCOL_DEFINITION ( 'international standard', 'config_control_design', 1994, #412 ) ;
#43 = LINE ( 'NONE', #84, #129 ) ;
#44 = VERTEX_POINT ( 'NONE', #150 ) ;
#45 = LINE ( 'NONE', #399, #52 ) ;
#46 = ORIENTED_EDGE ( 'NONE', *, *, #309, .T. ) ;
#47 = DIRECTION ( 'NONE',  ( 0.5000000000000002220, -0.8660254037844384856, 0.000000000000000000 ) ) ;
#48 = ORIENTED_EDGE ( 'NONE', *, *, #409, .F. ) ;
#49 = EDGE_CURVE ( 'NONE', #62, #301, #360, .T. ) ;
#50 = AXIS2_PLACEMENT_3D ( 'NONE', #141, #2, #108 ) ;
#51 = DIRECTION ( 'NONE',  ( -0.000000000000000000, -0.000000000000000000, -1.000000000000000000 ) ) ;
#52 = VECTOR ( 'NONE', #434, 1000.000000000000227 ) ;
#53 = CARTESIAN_POINT ( 'NONE',  ( 2.499999999999999112, -4.330127018922193649, 6.000000000000000000 ) ) ;
#54 = EDGE_LOOP ( 'NONE', ( #354, #193, #298, #68 ) ) ;
#55 = DIRECTION ( 'NONE',  ( 1.000000000000000000, 0.000000000000000000, -0.000000000000000000 ) ) ;
#56 = CARTESIAN_POINT ( 'NONE',  ( -2.499999999999999556, -4.330127018922193649, 6.000000000000000000 ) ) ;
#57 = CARTESIAN_POINT ( 'NONE',  ( 2.499999999999999112, -4.330127018922193649, 6.000000000000000000 ) ) ;
#58 = AXIS2_PLACEMENT_3D ( 'NONE', #214, #352, #415 ) ;
#59 = EDGE_CURVE ( 'NONE', #105, #259, #43, .T. ) ;
#60 = CIRCLE ( 'NONE', #341, 4.000000000000000000 ) ;
#61 = FACE_BOUND ( 'NONE', #258, .T. ) ;
#62 = VERTEX_POINT ( 'NONE', #229 ) ;
#63 = APPROVAL ( #393, 'UNSPECIFIED' ) ;
#64 = PLANE ( 'NONE',  #50 ) ;
#65 = VECTOR ( 'NONE', #366, 1000.000000000000000 ) ;
#66 = DIRECTION ( 'NONE',  ( 1.000000000000000000, 0.000000000000000000, 0.000000000000000000 ) ) ;
#67 = APPROVAL_DATE_TIME ( #74, #63 ) ;
#68 = ORIENTED_EDGE ( 'NONE', *, *, #260, .F. ) ;
#69 = CARTESIAN_POINT ( 'NONE',  ( -4.000000000000000000, 4.898587196589412829E-16, 0.000000000000000000 ) ) ;
#70 = FACE_BOUND ( 'NONE', #326, .T. ) ;
#71 = DATE_AND_TIME ( #358, #378 ) ;
#72 = EDGE_LOOP ( 'NONE', ( #122, #302, #372, #390 ) ) ;
#73 = LINE ( 'NONE', #318, #30 ) ;
#74 = DATE_AND_TIME ( #32, #247 ) ;
#75 = ADVANCED_FACE ( 'NONE', ( #406 ), #370, .F. ) ;
#76 = LINE ( 'NONE', #222, #241 ) ;
#77 = CYLINDRICAL_SURFACE ( 'NONE', #234, 4.000000000000000000 ) ;
#78 = ORIENTED_EDGE ( 'NONE', *, *, #59, .T. ) ;
#79 = VECTOR ( 'NONE', #438, 1000.000000000000000 ) ;
#80 = LINE ( 'NONE', #317, #132 ) ;
#81 = ORIENTED_EDGE ( 'NONE', *, *, #15, .T. ) ;
#82 = EDGE_LOOP ( 'NONE', ( #10, #417, #435, #448, #7, #452 ) ) ;
#83 = CYLINDRICAL_SURFACE ( 'NONE', #237, 2.000000000000000000 ) ;
#84 = CARTESIAN_POINT ( 'NONE',  ( -2.500000000000001332, 4.330127018922192761, 6.000000000000000000 ) ) ;
#85 = ADVANCED_FACE ( 'NONE', ( #113 ), #77, .T. ) ;
#86 = ORIENTED_EDGE ( 'NONE', *, *, #389, .F. ) ;
#87 = DIRECTION ( 'NONE',  ( 0.000000000000000000, -0.000000000000000000, 1.000000000000000000 ) ) ;
#88 = DIRECTION ( 'NONE',  ( -0.000000000000000000, -0.000000000000000000, -1.000000000000000000 ) ) ;
#89 = VERTEX_POINT ( 'NONE', #388 ) ;
#90 = LINE ( 'NONE', #20, #338 ) ;
#91 = AXIS2_PLACEMENT_3D ( 'NONE', #33, #137, #170 ) ;
#92 = DIRECTION ( 'NONE',  ( 0.8660254037844387076, -0.5000000000000001110, 0.000000000000000000 ) ) ;
#93 = APPROVAL ( #109, 'UNSPECIFIED' ) ;
#94 = CARTESIAN_POINT ( 'NONE',  ( 0.000000000000000000, 0.000000000000000000, 0.000000000000000000 ) ) ;
#95 = ADVANCED_FACE ( 'NONE', ( #347 ), #315, .T. ) ;
#96 = CC_DESIGN_SECURITY_CLASSIFICATION ( #456, ( #151 ) ) ;
#97 = PRODUCT_DEFINITION_SHAPE ( 'NONE', 'NONE',  #171 ) ;
#98 = APPROVAL ( #215, 'UNSPECIFIED' ) ;
#99 = CARTESIAN_POINT ( 'NONE',  ( 4.999999999999999112, -2.230358754827323125E-15, 6.000000000000000000 ) ) ;
#100 = COORDINATED_UNIVERSAL_TIME_OFFSET ( 5, 30, .AHEAD. ) ;
#101 = ORIENTED_EDGE ( 'NONE', *, *, #377, .T. ) ;
#102 = CARTESIAN_POINT ( 'NONE',  ( 2.000000000000000000, 2.449293598294706414E-16, -12.00000000000000000 ) ) ;
#103 = APPROVAL_ROLE ( '' ) ;
#104 = CARTESIAN_POINT ( 'NONE',  ( 4.000000000000000000, 0.000000000000000000, -12.00000000000000000 ) ) ;
#105 = VERTEX_POINT ( 'NONE', #454 ) ;
#106 = VECTOR ( 'NONE', #333, 1000.000000000000114 ) ;
#107 = DIRECTION ( 'NONE',  ( 1.000000000000000000, 0.000000000000000000, 0.000000000000000000 ) ) ;
#108 = DIRECTION ( 'NONE',  ( 1.000000000000000000, 0.000000000000000000, -0.000000000000000000 ) ) ;
#109 = APPROVAL_STATUS ( 'not_yet_approved' ) ;
#110 = EDGE_CURVE ( 'NONE', #225, #227, #24, .T. ) ;
#111 = AXIS2_PLACEMENT_3D ( 'NONE', #398, #257, #426 ) ;
#112 = DIRECTION ( 'NONE',  ( -0.5000000000000000000, -0.8660254037844385966, 0.000000000000000000 ) ) ;
#113 = FACE_OUTER_BOUND ( 'NONE', #253, .T. ) ;
#114 = CC_DESIGN_APPROVAL ( #98, ( #151 ) ) ;
#115 = ORIENTED_EDGE ( 'NONE', *, *, #397, .F. ) ;
#116 = DIRECTION ( 'NONE',  ( -1.000000000000000000, 0.000000000000000000, 0.000000000000000000 ) ) ;
#117 = ORIENTED_EDGE ( 'NONE', *, *, #319, .T. ) ;
#118 = ORIENTED_EDGE ( 'NONE', *, *, #41, .F. ) ;
#119 = CC_DESIGN_PERSON_AND_ORGANIZATION_ASSIGNMENT ( #256, #246, ( #151 ) ) ;
#120 = CARTESIAN_POINT ( 'NONE',  ( 2.499999999999996447, 4.330127018922193649, 0.000000000000000000 ) ) ;
#121 = CARTESIAN_POINT ( 'NONE',  ( -5.000000000000000888, -3.717264591378874669E-16, 6.000000000000000000 ) ) ;
#122 = ORIENTED_EDGE ( 'NONE', *, *, #309, .F. ) ;
#123 = FACE_OUTER_BOUND ( 'NONE', #268, .T. ) ;
#124 = DIRECTION ( 'NONE',  ( -0.000000000000000000, -0.000000000000000000, -1.000000000000000000 ) ) ;
#125 = VERTEX_POINT ( 'NONE', #142 ) ;
#126 = LINE ( 'NONE', #57, #250 ) ;
#127 = AXIS2_PLACEMENT_3D ( 'NONE', #94, #87, #55 ) ;
#128 = DIRECTION ( 'NONE',  ( -0.000000000000000000, -0.000000000000000000, -1.000000000000000000 ) ) ;
#129 = VECTOR ( 'NONE', #124, 1000.000000000000000 ) ;
#130 = ADVANCED_FACE ( 'NONE', ( #70, #31 ), #382, .T. ) ;
#131 = PLANE ( 'NONE',  #127 ) ;
#132 = VECTOR ( 'NONE', #112, 1000.000000000000227 ) ;
#133 = ADVANCED_FACE ( 'NONE', ( #61, #180 ), #64, .T. ) ;
#134 = VECTOR ( 'NONE', #356, 1000.000000000000114 ) ;
#135 = CARTESIAN_POINT ( 'NONE',  ( 2.499999999999996447, 4.330127018922193649, 0.000000000000000000 ) ) ;
#136 = EDGE_LOOP ( 'NONE', ( #81, #362, #48, #78 ) ) ;
#137 = DIRECTION ( 'NONE',  ( 0.000000000000000000, 0.000000000000000000, -1.000000000000000000 ) ) ;
#138 = SECURITY_CLASSIFICATION_LEVEL ( 'unclassified' ) ;
#139 = CIRCLE ( 'NONE', #403, 4.000000000000000000 ) ;
#140 = APPROVAL_PERSON_ORGANIZATION ( #425, #93, #279 ) ;
#141 = CARTESIAN_POINT ( 'NONE',  ( 0.000000000000000000, 0.000000000000000000, 6.000000000000000000 ) ) ;
#142 = CARTESIAN_POINT ( 'NONE',  ( 4.000000000000000000, 0.000000000000000000, 0.000000000000000000 ) ) ;
#143 = COORDINATED_UNIVERSAL_TIME_OFFSET ( 5, 30, .AHEAD. ) ;
#144 = VECTOR ( 'NONE', #310, 1000.000000000000000 ) ;
#145 = CARTESIAN_POINT ( 'NONE',  ( 0.000000000000000000, 0.000000000000000000, 0.000000000000000000 ) ) ;
#146 = PLANE ( 'NONE',  #58 ) ;
#147 = CALENDAR_DATE ( 2026, 1, 9 ) ;
#148 = ORIENTED_EDGE ( 'NONE', *, *, #260, .T. ) ;
#149 = DIRECTION ( 'NONE',  ( -1.000000000000000000, 0.000000000000000000, 0.000000000000000000 ) ) ;
#150 = CARTESIAN_POINT ( 'NONE',  ( 4.999999999999999112, -2.230358754827323125E-15, 6.000000000000000000 ) ) ;
#151 = PRODUCT_DEFINITION_FORMATION_WITH_SPECIFIED_SOURCE ( 'ANY', '', #168, .NOT_KNOWN. ) ;
#152 = ORIENTED_EDGE ( 'NONE', *, *, #377, .F. ) ;
#153 = EDGE_CURVE ( 'NONE', #44, #176, #209, .T. ) ;
#154 = DIRECTION ( 'NONE',  ( -0.000000000000000000, -0.000000000000000000, -1.000000000000000000 ) ) ;
#155 = ORIENTED_EDGE ( 'NONE', *, *, #337, .F. ) ;
#156 = ORIENTED_EDGE ( 'NONE', *, *, #280, .F. ) ;
#157 = VECTOR ( 'NONE', #457, 1000.000000000000114 ) ;
#158 = EDGE_LOOP ( 'NONE', ( #35, #86 ) ) ;
#159 = ORIENTED_EDGE ( 'NONE', *, *, #25, .T. ) ;
#160 = DIRECTION ( 'NONE',  ( -0.5000000000000003331, 0.8660254037844384856, 0.000000000000000000 ) ) ;
#161 = UNCERTAINTY_MEASURE_WITH_UNIT (LENGTH_MEASURE( 1.000000000000000082E-05 ), #190, 'distance_accuracy_value', 'NONE');
#162 = FACE_BOUND ( 'NONE', #158, .T. ) ;
#163 = EDGE_CURVE ( 'NONE', #227, #225, #263, .T. ) ;
#164 = AXIS2_PLACEMENT_3D ( 'NONE', #56, #228, #236 ) ;
#165 = CARTESIAN_POINT ( 'NONE',  ( -5.000000000000000888, -3.717264591378874669E-16, 6.000000000000000000 ) ) ;
#166 = CC_DESIGN_PERSON_AND_ORGANIZATION_ASSIGNMENT ( #182, #359, ( #168 ) ) ;
#167 = CIRCLE ( 'NONE', #277, 2.000000000000000000 ) ;
#168 = PRODUCT ( 'wheel_insert_4mm_shaft_sldprt', 'wheel_insert_4mm_shaft_sldprt', '', ( #285 ) ) ;
#169 = AXIS2_PLACEMENT_3D ( 'NONE', #423, #320, #107 ) ;
#170 = DIRECTION ( 'NONE',  ( -1.000000000000000000, 0.000000000000000000, 0.000000000000000000 ) ) ;
#171 = PRODUCT_DEFINITION ( 'UNKNOWN', '', #151, #440 ) ;
#172 = VERTEX_POINT ( 'NONE', #102 ) ;
#173 = DIRECTION ( 'NONE',  ( 0.000000000000000000, 0.000000000000000000, -1.000000000000000000 ) ) ;
#174 = PERSON_AND_ORGANIZATION ( #430, #384 ) ;
#175 = LINE ( 'NONE', #217, #157 ) ;
#176 = VERTEX_POINT ( 'NONE', #313 ) ;
#177 = ADVANCED_FACE ( 'NONE', ( #248 ), #146, .F. ) ;
#178 = CIRCLE ( 'NONE', #346, 2.000000000000000000 ) ;
#179 = DIRECTION ( 'NONE',  ( 0.000000000000000000, 0.000000000000000000, -1.000000000000000000 ) ) ;
#180 = FACE_OUTER_BOUND ( 'NONE', #82, .T. ) ;
#181 = CALENDAR_DATE ( 2026, 1, 9 ) ;
#182 = PERSON_AND_ORGANIZATION ( #430, #384 ) ;
#183 = PLANE ( 'NONE',  #312 ) ;
#184 = APPROVAL_DATE_TIME ( #291, #98 ) ;
#185 = VECTOR ( 'NONE', #336, 1000.000000000000000 ) ;
#186 = DIRECTION ( 'NONE',  ( 0.000000000000000000, 0.000000000000000000, 1.000000000000000000 ) ) ;
#187 = CARTESIAN_POINT ( 'NONE',  ( 4.999999999999999112, -2.230358754827323125E-15, 0.000000000000000000 ) ) ;
#188 = EDGE_CURVE ( 'NONE', #264, #38, #385, .T. ) ;
#189 = EDGE_LOOP ( 'NONE', ( #155, #117, #148, #195 ) ) ;
#190 =( LENGTH_UNIT ( ) NAMED_UNIT ( * ) SI_UNIT ( .MILLI., .METRE. ) );
#191 = CARTESIAN_POINT ( 'NONE',  ( 2.000000000000000000, 2.449293598294706414E-16, 6.000000000000000000 ) ) ;
#192 = CC_DESIGN_APPROVAL ( #93, ( #171 ) ) ;
#193 = ORIENTED_EDGE ( 'NONE', *, *, #337, .T. ) ;
#194 =( NAMED_UNIT ( * ) SI_UNIT ( $, .STERADIAN. ) SOLID_ANGLE_UNIT ( ) );
#195 = ORIENTED_EDGE ( 'NONE', *, *, #397, .T. ) ;
#196 = ORIENTED_EDGE ( 'NONE', *, *, #49, .F. ) ;
#197 = CARTESIAN_POINT ( 'NONE',  ( -2.499999999999999556, -4.330127018922193649, 0.000000000000000000 ) ) ;
#198 = DIRECTION ( 'NONE',  ( -0.5000000000000003331, -0.8660254037844384856, 0.000000000000000000 ) ) ;
#199 = ORIENTED_EDGE ( 'NONE', *, *, #212, .F. ) ;
#200 = ADVANCED_FACE ( 'NONE', ( #255 ), #183, .F. ) ;
#201 = CARTESIAN_POINT ( 'NONE',  ( -2.499999999999999556, -4.330127018922193649, 0.000000000000000000 ) ) ;
#202 = LINE ( 'NONE', #339, #379 ) ;
#203 = LINE ( 'NONE', #443, #39 ) ;
#204 = EDGE_CURVE ( 'NONE', #89, #264, #73, .T. ) ;
#205 = AXIS2_PLACEMENT_3D ( 'NONE', #245, #345, #450 ) ;
#206 = EDGE_CURVE ( 'NONE', #299, #176, #175, .T. ) ;
#207 = CARTESIAN_POINT ( 'NONE',  ( -4.000000000000000000, 4.898587196589412829E-16, -12.00000000000000000 ) ) ;
#208 = ORIENTED_EDGE ( 'NONE', *, *, #49, .T. ) ;
#209 = LINE ( 'NONE', #99, #449 ) ;
#210 = PERSON_AND_ORGANIZATION_ROLE ( 'creator' ) ;
#211 = DIRECTION ( 'NONE',  ( -1.000000000000000000, 0.000000000000000000, 0.000000000000000000 ) ) ;
#212 = EDGE_CURVE ( 'NONE', #172, #396, #231, .T. ) ;
#213 = ORIENTED_EDGE ( 'NONE', *, *, #273, .F. ) ;
#214 = CARTESIAN_POINT ( 'NONE',  ( 4.999999999999999112, -2.230358754827323125E-15, 6.000000000000000000 ) ) ;
#215 = APPROVAL_STATUS ( 'not_yet_approved' ) ;
#216 = ORIENTED_EDGE ( 'NONE', *, *, #280, .T. ) ;
#217 = CARTESIAN_POINT ( 'NONE',  ( 2.499999999999999112, -4.330127018922193649, 0.000000000000000000 ) ) ;
#218 = ORIENTED_EDGE ( 'NONE', *, *, #269, .F. ) ;
#219 = CARTESIAN_POINT ( 'NONE',  ( 0.000000000000000000, 0.000000000000000000, -12.00000000000000000 ) ) ;
#220 = VERTEX_POINT ( 'NONE', #427 ) ;
#221 = EDGE_CURVE ( 'NONE', #125, #437, #60, .T. ) ;
#222 = CARTESIAN_POINT ( 'NONE',  ( 2.499999999999996447, 4.330127018922193649, 6.000000000000000000 ) ) ;
#223 = ORIENTED_EDGE ( 'NONE', *, *, #206, .T. ) ;
#224 = ORIENTED_EDGE ( 'NONE', *, *, #204, .F. ) ;
#225 = VERTEX_POINT ( 'NONE', #207 ) ;
#226 =( GEOMETRIC_REPRESENTATION_CONTEXT ( 3 ) GLOBAL_UNCERTAINTY_ASSIGNED_CONTEXT ( ( #161 ) ) GLOBAL_UNIT_ASSIGNED_CONTEXT ( ( #190, #327, #194 ) ) REPRESENTATION_CONTEXT ( 'NONE', 'WORKASPACE' ) );
#227 = VERTEX_POINT ( 'NONE', #104 ) ;
#228 = DIRECTION ( 'NONE',  ( 0.000000000000000000, 1.000000000000000000, 0.000000000000000000 ) ) ;
#229 = CARTESIAN_POINT ( 'NONE',  ( -5.000000000000000888, -3.717264591378874669E-16, 0.000000000000000000 ) ) ;
#230 = ORIENTED_EDGE ( 'NONE', *, *, #319, .F. ) ;
#231 = CIRCLE ( 'NONE', #243, 2.000000000000000000 ) ;
#232 = EDGE_CURVE ( 'NONE', #407, #259, #26, .T. ) ;
#233 = VECTOR ( 'NONE', #66, 1000.000000000000000 ) ;
#234 = AXIS2_PLACEMENT_3D ( 'NONE', #219, #5, #418 ) ;
#235 = CARTESIAN_POINT ( 'NONE',  ( -4.000000000000000000, 4.898587196589412829E-16, -12.00000000000000000 ) ) ;
#236 = DIRECTION ( 'NONE',  ( 0.000000000000000000, -0.000000000000000000, 1.000000000000000000 ) ) ;
#237 = AXIS2_PLACEMENT_3D ( 'NONE', #36, #391, #116 ) ;
#238 = LOCAL_TIME ( 18, 21, 56.00000000000000000, #143 ) ;
#239 = LINE ( 'NONE', #235, #414 ) ;
#240 = CC_DESIGN_DATE_AND_TIME_ASSIGNMENT ( #71, #451, ( #456 ) ) ;
#241 = VECTOR ( 'NONE', #324, 1000.000000000000000 ) ;
#242 = APPLICATION_CONTEXT ( 'configuration controlled 3d designs of mechanical parts and assemblies' ) ;
#243 = AXIS2_PLACEMENT_3D ( 'NONE', #380, #278, #211 ) ;
#244 = DIRECTION ( 'NONE',  ( 0.000000000000000000, 0.000000000000000000, -1.000000000000000000 ) ) ;
#245 = CARTESIAN_POINT ( 'NONE',  ( 0.000000000000000000, 0.000000000000000000, -12.00000000000000000 ) ) ;
#246 = PERSON_AND_ORGANIZATION_ROLE ( 'design_supplier' ) ;
#247 = LOCAL_TIME ( 18, 21, 56.00000000000000000, #383 ) ;
#248 = FACE_OUTER_BOUND ( 'NONE', #330, .T. ) ;
#249 = DATE_AND_TIME ( #34, #238 ) ;
#250 = VECTOR ( 'NONE', #51, 1000.000000000000000 ) ;
#251 = CYLINDRICAL_SURFACE ( 'NONE', #111, 2.000000000000000000 ) ;
#252 = DIRECTION ( 'NONE',  ( 0.5000000000000002220, -0.8660254037844384856, 0.000000000000000000 ) ) ;
#253 = EDGE_LOOP ( 'NONE', ( #365, #46, #3, #218 ) ) ;
#254 = CARTESIAN_POINT ( 'NONE',  ( 2.499999999999999112, -4.330127018922193649, 6.000000000000000000 ) ) ;
#255 = FACE_OUTER_BOUND ( 'NONE', #404, .T. ) ;
#256 = PERSON_AND_ORGANIZATION ( #430, #384 ) ;
#257 = DIRECTION ( 'NONE',  ( -0.000000000000000000, -0.000000000000000000, -1.000000000000000000 ) ) ;
#258 = EDGE_LOOP ( 'NONE', ( #395, #230 ) ) ;
#259 = VERTEX_POINT ( 'NONE', #447 ) ;
#260 = EDGE_CURVE ( 'NONE', #220, #396, #202, .T. ) ;
#261 = DIRECTION ( 'NONE',  ( 0.000000000000000000, 0.000000000000000000, -1.000000000000000000 ) ) ;
#262 = VERTEX_POINT ( 'NONE', #411 ) ;
#263 = CIRCLE ( 'NONE', #371, 4.000000000000000000 ) ;
#264 = VERTEX_POINT ( 'NONE', #16 ) ;
#265 = ORIENTED_EDGE ( 'NONE', *, *, #446, .F. ) ;
#266 = ORIENTED_EDGE ( 'NONE', *, *, #232, .T. ) ;
#267 = FACE_OUTER_BOUND ( 'NONE', #283, .T. ) ;
#268 = EDGE_LOOP ( 'NONE', ( #216, #329, #436, #367 ) ) ;
#269 = EDGE_CURVE ( 'NONE', #227, #125, #408, .T. ) ;
#270 = ORIENTED_EDGE ( 'NONE', *, *, #232, .F. ) ;
#271 = DIRECTION ( 'NONE',  ( 1.000000000000000000, 0.000000000000000000, 0.000000000000000000 ) ) ;
#272 = CARTESIAN_POINT ( 'NONE',  ( 4.000000000000000000, 0.000000000000000000, -12.00000000000000000 ) ) ;
#273 = EDGE_CURVE ( 'NONE', #44, #262, #203, .T. ) ;
#274 = LINE ( 'NONE', #197, #79 ) ;
#275 = CIRCLE ( 'NONE', #419, 2.000000000000000000 ) ;
#276 = ADVANCED_FACE ( 'NONE', ( #374 ), #441, .F. ) ;
#277 = AXIS2_PLACEMENT_3D ( 'NONE', #303, #305, #271 ) ;
#278 = DIRECTION ( 'NONE',  ( 0.000000000000000000, 0.000000000000000000, -1.000000000000000000 ) ) ;
#279 = APPROVAL_ROLE ( '' ) ;
#280 = EDGE_CURVE ( 'NONE', #301, #299, #274, .T. ) ;
#281 = DIRECTION ( 'NONE',  ( -1.000000000000000000, 0.000000000000000000, 0.000000000000000000 ) ) ;
#282 = PERSON_AND_ORGANIZATION ( #430, #384 ) ;
#283 = EDGE_LOOP ( 'NONE', ( #18, #156, #196, #11, #270, #118 ) ) ;
#284 = DIRECTION ( 'NONE',  ( -0.000000000000000000, -0.000000000000000000, -1.000000000000000000 ) ) ;
#285 = MECHANICAL_CONTEXT ( 'NONE', #242, 'mechanical' ) ;
#286 = DIRECTION ( 'NONE',  ( 1.000000000000000000, 0.000000000000000000, 0.000000000000000000 ) ) ;
#287 = AXIS2_PLACEMENT_3D ( 'NONE', #290, #349, #286 ) ;
#288 = SHAPE_DEFINITION_REPRESENTATION ( #97, #343 ) ;
#289 = FACE_OUTER_BOUND ( 'NONE', #189, .T. ) ;
#290 = CARTESIAN_POINT ( 'NONE',  ( 0.000000000000000000, 0.000000000000000000, -12.00000000000000000 ) ) ;
#291 = DATE_AND_TIME ( #181, #8 ) ;
#292 = ADVANCED_FACE ( 'NONE', ( #123 ), #405, .F. ) ;
#293 = LOCAL_TIME ( 18, 21, 56.00000000000000000, #316 ) ;
#294 = CARTESIAN_POINT ( 'NONE',  ( 2.499999999999996447, 4.330127018922193649, 6.000000000000000000 ) ) ;
#295 = ORIENTED_EDGE ( 'NONE', *, *, #420, .F. ) ;
#296 = ORIENTED_EDGE ( 'NONE', *, *, #340, .F. ) ;
#297 = CARTESIAN_POINT ( 'NONE',  ( -2.000000000000000000, 0.000000000000000000, -12.00000000000000000 ) ) ;
#298 = ORIENTED_EDGE ( 'NONE', *, *, #212, .T. ) ;
#299 = VERTEX_POINT ( 'NONE', #373 ) ;
#300 = ADVANCED_FACE ( 'NONE', ( #162, #267 ), #131, .F. ) ;
#301 = VERTEX_POINT ( 'NONE', #201 ) ;
#302 = ORIENTED_EDGE ( 'NONE', *, *, #163, .F. ) ;
#303 = CARTESIAN_POINT ( 'NONE',  ( 0.000000000000000000, 0.000000000000000000, 6.000000000000000000 ) ) ;
#304 = DIRECTION ( 'NONE',  ( -0.000000000000000000, -0.000000000000000000, -1.000000000000000000 ) ) ;
#305 = DIRECTION ( 'NONE',  ( 0.000000000000000000, 0.000000000000000000, 1.000000000000000000 ) ) ;
#306 = EDGE_CURVE ( 'NONE', #38, #299, #126, .T. ) ;
#307 = CC_DESIGN_APPROVAL ( #63, ( #456 ) ) ;
#308 = AXIS2_PLACEMENT_3D ( 'NONE', #165, #335, #160 ) ;
#309 = EDGE_CURVE ( 'NONE', #225, #437, #239, .T. ) ;
#310 = DIRECTION ( 'NONE',  ( -1.000000000000000000, -1.734723475976808080E-16, 0.000000000000000000 ) ) ;
#311 = ADVANCED_FACE ( 'NONE', ( #369 ), #332, .F. ) ;
#312 = AXIS2_PLACEMENT_3D ( 'NONE', #357, #392, #321 ) ;
#313 = CARTESIAN_POINT ( 'NONE',  ( 4.999999999999999112, -2.230358754827323125E-15, 0.000000000000000000 ) ) ;
#314 = DATE_TIME_ROLE ( 'creation_date' ) ;
#315 = CYLINDRICAL_SURFACE ( 'NONE', #287, 4.000000000000000000 ) ;
#316 = COORDINATED_UNIVERSAL_TIME_OFFSET ( 5, 30, .AHEAD. ) ;
#317 = CARTESIAN_POINT ( 'NONE',  ( -2.500000000000001332, 4.330127018922192761, 6.000000000000000000 ) ) ;
#318 = CARTESIAN_POINT ( 'NONE',  ( -5.000000000000000888, -3.717264591378874669E-16, 6.000000000000000000 ) ) ;
#319 = EDGE_CURVE ( 'NONE', #27, #220, #167, .T. ) ;
#320 = DIRECTION ( 'NONE',  ( 0.000000000000000000, 0.000000000000000000, 1.000000000000000000 ) ) ;
#321 = DIRECTION ( 'NONE',  ( 1.000000000000000000, 1.734723475976807834E-16, 0.000000000000000000 ) ) ;
#322 = VECTOR ( 'NONE', #88, 1000.000000000000000 ) ;
#323 = ORIENTED_EDGE ( 'NONE', *, *, #41, .T. ) ;
#324 = DIRECTION ( 'NONE',  ( -0.000000000000000000, -0.000000000000000000, -1.000000000000000000 ) ) ;
#325 = ORIENTED_EDGE ( 'NONE', *, *, #163, .T. ) ;
#326 = EDGE_LOOP ( 'NONE', ( #115, #199 ) ) ;
#327 =( NAMED_UNIT ( * ) PLANE_ANGLE_UNIT ( ) SI_UNIT ( $, .RADIAN. ) );
#328 = LINE ( 'NONE', #187, #106 ) ;
#329 = ORIENTED_EDGE ( 'NONE', *, *, #306, .F. ) ;
#330 = EDGE_LOOP ( 'NONE', ( #323, #152, #213, #334 ) ) ;
#331 = EDGE_LOOP ( 'NONE', ( #223, #400, #296, #364 ) ) ;
#332 = PLANE ( 'NONE',  #308 ) ;
#333 = DIRECTION ( 'NONE',  ( -0.5000000000000002220, 0.8660254037844384856, 0.000000000000000000 ) ) ;
#334 = ORIENTED_EDGE ( 'NONE', *, *, #153, .T. ) ;
#335 = DIRECTION ( 'NONE',  ( 0.8660254037844384856, 0.5000000000000003331, -0.000000000000000000 ) ) ;
#336 = DIRECTION ( 'NONE',  ( -0.000000000000000000, -0.000000000000000000, 1.000000000000000000 ) ) ;
#337 = EDGE_CURVE ( 'NONE', #27, #172, #90, .T. ) ;
#338 = VECTOR ( 'NONE', #304, 1000.000000000000000 ) ;
#339 = CARTESIAN_POINT ( 'NONE',  ( -2.000000000000000000, 0.000000000000000000, 5.656854249492380582 ) ) ;
#340 = EDGE_CURVE ( 'NONE', #38, #44, #387, .T. ) ;
#341 = AXIS2_PLACEMENT_3D ( 'NONE', #421, #244, #37 ) ;
#342 = CLOSED_SHELL ( 'NONE', ( #355, #85, #75, #177, #200, #276, #311, #292, #133, #300, #95, #130, #344 ) ) ;
#343 = ADVANCED_BREP_SHAPE_REPRESENTATION ( 'wheel_insert_4mm_shaft_sldprt', ( #19, #169 ), #226 ) ;
#344 = ADVANCED_FACE ( 'NONE', ( #289 ), #251, .F. ) ;
#345 = DIRECTION ( 'NONE',  ( 0.000000000000000000, 0.000000000000000000, -1.000000000000000000 ) ) ;
#346 = AXIS2_PLACEMENT_3D ( 'NONE', #4, #186, #394 ) ;
#347 = FACE_OUTER_BOUND ( 'NONE', #72, .T. ) ;
#348 = DATE_AND_TIME ( #147, #293 ) ;
#349 = DIRECTION ( 'NONE',  ( -0.000000000000000000, -0.000000000000000000, 1.000000000000000000 ) ) ;
#350 = PERSON_AND_ORGANIZATION ( #430, #384 ) ;
#351 = APPLICATION_PROTOCOL_DEFINITION ( 'international standard', 'config_control_design', 1994, #242 ) ;
#352 = DIRECTION ( 'NONE',  ( -0.8660254037844385966, -0.5000000000000003331, 0.000000000000000000 ) ) ;
#353 = PERSON_AND_ORGANIZATION ( #430, #384 ) ;
#354 = ORIENTED_EDGE ( 'NONE', *, *, #439, .T. ) ;
#355 = ADVANCED_FACE ( 'NONE', ( #12 ), #83, .F. ) ;
#356 = DIRECTION ( 'NONE',  ( 0.5000000000000003331, 0.8660254037844384856, 0.000000000000000000 ) ) ;
#357 = CARTESIAN_POINT ( 'NONE',  ( 2.499999999999996447, 4.330127018922193649, 6.000000000000000000 ) ) ;
#358 = CALENDAR_DATE ( 2026, 1, 9 ) ;
#359 = PERSON_AND_ORGANIZATION_ROLE ( 'design_owner' ) ;
#360 = LINE ( 'NONE', #402, #40 ) ;
#361 = AXIS2_PLACEMENT_3D ( 'NONE', #53, #17, #198 ) ;
#362 = ORIENTED_EDGE ( 'NONE', *, *, #25, .F. ) ;
#363 = LINE ( 'NONE', #294, #65 ) ;
#364 = ORIENTED_EDGE ( 'NONE', *, *, #306, .T. ) ;
#365 = ORIENTED_EDGE ( 'NONE', *, *, #110, .F. ) ;
#366 = DIRECTION ( 'NONE',  ( -1.000000000000000000, -1.734723475976808080E-16, 0.000000000000000000 ) ) ;
#367 = ORIENTED_EDGE ( 'NONE', *, *, #420, .T. ) ;
#368 = ORIENTED_EDGE ( 'NONE', *, *, #110, .T. ) ;
#369 = FACE_OUTER_BOUND ( 'NONE', #429, .T. ) ;
#370 = PLANE ( 'NONE',  #361 ) ;
#371 = AXIS2_PLACEMENT_3D ( 'NONE', #28, #173, #281 ) ;
#372 = ORIENTED_EDGE ( 'NONE', *, *, #269, .T. ) ;
#373 = CARTESIAN_POINT ( 'NONE',  ( 2.499999999999999112, -4.330127018922193649, 0.000000000000000000 ) ) ;
#374 = FACE_OUTER_BOUND ( 'NONE', #136, .T. ) ;
#375 = VECTOR ( 'NONE', #154, 1000.000000000000000 ) ;
#376 = DIRECTION ( 'NONE',  ( -0.5000000000000002220, 0.8660254037844384856, 0.000000000000000000 ) ) ;
#377 = EDGE_CURVE ( 'NONE', #262, #407, #76, .T. ) ;
#378 = LOCAL_TIME ( 18, 21, 56.00000000000000000, #428 ) ;
#379 = VECTOR ( 'NONE', #128, 1000.000000000000000 ) ;
#380 = CARTESIAN_POINT ( 'NONE',  ( 0.000000000000000000, 0.000000000000000000, -12.00000000000000000 ) ) ;
#381 = CC_DESIGN_DATE_AND_TIME_ASSIGNMENT ( #249, #314, ( #171 ) ) ;
#382 = PLANE ( 'NONE',  #205 ) ;
#383 = COORDINATED_UNIVERSAL_TIME_OFFSET ( 5, 30, .AHEAD. ) ;
#384 = ORGANIZATION ( 'UNSPECIFIED', 'UNSPECIFIED', '' ) ;
#385 = LINE ( 'NONE', #424, #233 ) ;
#386 = PERSON_AND_ORGANIZATION ( #430, #384 ) ;
#387 = LINE ( 'NONE', #254, #134 ) ;
#388 = CARTESIAN_POINT ( 'NONE',  ( -5.000000000000000888, -3.717264591378874669E-16, 6.000000000000000000 ) ) ;
#389 = EDGE_CURVE ( 'NONE', #437, #125, #139, .T. ) ;
#390 = ORIENTED_EDGE ( 'NONE', *, *, #221, .T. ) ;
#391 = DIRECTION ( 'NONE',  ( -0.000000000000000000, -0.000000000000000000, -1.000000000000000000 ) ) ;
#392 = DIRECTION ( 'NONE',  ( 1.734723475976807834E-16, -1.000000000000000000, 0.000000000000000000 ) ) ;
#393 = APPROVAL_STATUS ( 'not_yet_approved' ) ;
#394 = DIRECTION ( 'NONE',  ( 1.000000000000000000, 0.000000000000000000, 0.000000000000000000 ) ) ;
#395 = ORIENTED_EDGE ( 'NONE', *, *, #439, .F. ) ;
#396 = VERTEX_POINT ( 'NONE', #297 ) ;
#397 = EDGE_CURVE ( 'NONE', #396, #172, #275, .T. ) ;
#398 = CARTESIAN_POINT ( 'NONE',  ( 0.000000000000000000, 0.000000000000000000, 5.656854249492380582 ) ) ;
#399 = CARTESIAN_POINT ( 'NONE',  ( -2.500000000000001332, 4.330127018922192761, 0.000000000000000000 ) ) ;
#400 = ORIENTED_EDGE ( 'NONE', *, *, #153, .F. ) ;
#401 = DIRECTION ( 'NONE',  ( -1.000000000000000000, 0.000000000000000000, 0.000000000000000000 ) ) ;
#402 = CARTESIAN_POINT ( 'NONE',  ( -5.000000000000000888, -3.717264591378874669E-16, 0.000000000000000000 ) ) ;
#403 = AXIS2_PLACEMENT_3D ( 'NONE', #145, #179, #149 ) ;
#404 = EDGE_LOOP ( 'NONE', ( #266, #14, #265, #101 ) ) ;
#405 = PLANE ( 'NONE',  #164 ) ;
#406 = FACE_OUTER_BOUND ( 'NONE', #331, .T. ) ;
#407 = VERTEX_POINT ( 'NONE', #120 ) ;
#408 = LINE ( 'NONE', #272, #185 ) ;
#409 = EDGE_CURVE ( 'NONE', #105, #89, #80, .T. ) ;
#410 = CARTESIAN_POINT ( 'NONE',  ( -2.500000000000001332, 4.330127018922192761, 6.000000000000000000 ) ) ;
#411 = CARTESIAN_POINT ( 'NONE',  ( 2.499999999999996447, 4.330127018922193649, 6.000000000000000000 ) ) ;
#412 = APPLICATION_CONTEXT ( 'configuration controlled 3d designs of mechanical parts and assemblies' ) ;
#413 = APPROVAL_PERSON_ORGANIZATION ( #350, #63, #455 ) ;
#414 = VECTOR ( 'NONE', #21, 1000.000000000000000 ) ;
#415 = DIRECTION ( 'NONE',  ( 0.5000000000000002220, -0.8660254037844384856, 0.000000000000000000 ) ) ;
#416 = PERSON_AND_ORGANIZATION_ROLE ( 'creator' ) ;
#417 = ORIENTED_EDGE ( 'NONE', *, *, #273, .T. ) ;
#418 = DIRECTION ( 'NONE',  ( 1.000000000000000000, 0.000000000000000000, 0.000000000000000000 ) ) ;
#419 = AXIS2_PLACEMENT_3D ( 'NONE', #431, #261, #401 ) ;
#420 = EDGE_CURVE ( 'NONE', #264, #301, #1, .T. ) ;
#421 = CARTESIAN_POINT ( 'NONE',  ( 0.000000000000000000, 0.000000000000000000, 0.000000000000000000 ) ) ;
#422 = APPROVAL_DATE_TIME ( #348, #93 ) ;
#423 = CARTESIAN_POINT ( 'NONE',  ( 0.000000000000000000, 0.000000000000000000, 0.000000000000000000 ) ) ;
#424 = CARTESIAN_POINT ( 'NONE',  ( -2.499999999999999556, -4.330127018922193649, 6.000000000000000000 ) ) ;
#425 = PERSON_AND_ORGANIZATION ( #430, #384 ) ;
#426 = DIRECTION ( 'NONE',  ( -1.000000000000000000, 0.000000000000000000, 0.000000000000000000 ) ) ;
#427 = CARTESIAN_POINT ( 'NONE',  ( -2.000000000000000000, 0.000000000000000000, 6.000000000000000000 ) ) ;
#428 = COORDINATED_UNIVERSAL_TIME_OFFSET ( 5, 30, .AHEAD. ) ;
#429 = EDGE_LOOP ( 'NONE', ( #208, #295, #224, #159 ) ) ;
#430 = PERSON ( 'UNSPECIFIED', 'UNSPECIFIED', 'UNSPECIFIED', ('UNSPECIFIED'), ('UNSPECIFIED'), ('UNSPECIFIED') ) ;
#431 = CARTESIAN_POINT ( 'NONE',  ( 0.000000000000000000, 0.000000000000000000, -12.00000000000000000 ) ) ;
#432 = LINE ( 'NONE', #121, #322 ) ;
#433 = EDGE_LOOP ( 'NONE', ( #325, #368 ) ) ;
#434 = DIRECTION ( 'NONE',  ( -0.5000000000000000000, -0.8660254037844385966, 0.000000000000000000 ) ) ;
#435 = ORIENTED_EDGE ( 'NONE', *, *, #446, .T. ) ;
#436 = ORIENTED_EDGE ( 'NONE', *, *, #188, .F. ) ;
#437 = VERTEX_POINT ( 'NONE', #69 ) ;
#438 = DIRECTION ( 'NONE',  ( 1.000000000000000000, 0.000000000000000000, 0.000000000000000000 ) ) ;
#439 = EDGE_CURVE ( 'NONE', #220, #27, #178, .T. ) ;
#440 = DESIGN_CONTEXT ( 'detailed design', #412, 'design' ) ;
#441 = PLANE ( 'NONE',  #442 ) ;
#442 = AXIS2_PLACEMENT_3D ( 'NONE', #410, #92, #23 ) ;
#443 = CARTESIAN_POINT ( 'NONE',  ( 4.999999999999999112, -2.230358754827323125E-15, 6.000000000000000000 ) ) ;
#444 = PRODUCT_RELATED_PRODUCT_CATEGORY ( 'detail', '', ( #168 ) ) ;
#445 = APPROVAL_PERSON_ORGANIZATION ( #174, #98, #103 ) ;
#446 = EDGE_CURVE ( 'NONE', #262, #105, #363, .T. ) ;
#447 = CARTESIAN_POINT ( 'NONE',  ( -2.500000000000001332, 4.330127018922192761, 0.000000000000000000 ) ) ;
#448 = ORIENTED_EDGE ( 'NONE', *, *, #409, .T. ) ;
#449 = VECTOR ( 'NONE', #284, 1000.000000000000000 ) ;
#450 = DIRECTION ( 'NONE',  ( -1.000000000000000000, 0.000000000000000000, -0.000000000000000000 ) ) ;
#451 = DATE_TIME_ROLE ( 'classification_date' ) ;
#452 = ORIENTED_EDGE ( 'NONE', *, *, #188, .T. ) ;
#453 = CC_DESIGN_PERSON_AND_ORGANIZATION_ASSIGNMENT ( #386, #416, ( #151 ) ) ;
#454 = CARTESIAN_POINT ( 'NONE',  ( -2.500000000000001332, 4.330127018922192761, 6.000000000000000000 ) ) ;
#455 = APPROVAL_ROLE ( '' ) ;
#456 = SECURITY_CLASSIFICATION ( '', '', #138 ) ;
#457 = DIRECTION ( 'NONE',  ( 0.5000000000000003331, 0.8660254037844384856, 0.000000000000000000 ) ) ;
ENDSEC;
END-ISO-10303-21;
