ISO-10303-21;
HEADER;
FILE_DESCRIPTION (( 'STEP AP203' ),
    '1' );
FILE_NAME ('30DegreeeAngle_Default_sldprt.STEP',
    '2026-08-22T16:39:29',
    ( '' ),
    ( '' ),
    'SwSTEP 2.0',
    'SolidWorks 2020',
    '' );
FILE_SCHEMA (( 'CONFIG_CONTROL_DESIGN' ));
ENDSEC;

DATA;
#1 = ADVANCED_FACE ( 'NONE', ( #149 ), #207, .T. ) ;
#2 = CIRCLE ( 'NONE', #157, 7.500000000000000000 ) ;
#3 = CIRCLE ( 'NONE', #139, 7.500000000000000888 ) ;
#4 = PERSON_AND_ORGANIZATION ( #162, #275 ) ;
#5 = COORDINATED_UNIVERSAL_TIME_OFFSET ( 5, 30, .AHEAD. ) ;
#6 = LINE ( 'NONE', #291, #260 ) ;
#7 = EDGE_CURVE ( 'NONE', #116, #316, #414, .T. ) ;
#8 = SHAPE_DEFINITION_REPRESENTATION ( #392, #378 ) ;
#9 = ORIENTED_EDGE ( 'NONE', *, *, #344, .F. ) ;
#10 = MANIFOLD_SOLID_BREP ( 'Cut-Extrude1', #285 ) ;
#11 = AXIS2_PLACEMENT_3D ( 'NONE', #349, #347, #317 ) ;
#12 = CARTESIAN_POINT ( 'NONE',  ( 9.184850993605147944E-16, 12.16506350946111858, -16.07050807568876394 ) ) ;
#13 = ORIENTED_EDGE ( 'NONE', *, *, #137, .F. ) ;
#14 = CARTESIAN_POINT ( 'NONE',  ( 0.000000000000000000, -10.00000000000000000, 0.000000000000000000 ) ) ;
#15 = FACE_OUTER_BOUND ( 'NONE', #181, .T. ) ;
#16 = FACE_OUTER_BOUND ( 'NONE', #315, .T. ) ;
#17 = ORIENTED_EDGE ( 'NONE', *, *, #413, .T. ) ;
#18 = CARTESIAN_POINT ( 'NONE',  ( 9.184850993605147944E-16, 7.165063509461108815, -7.410254037844380193 ) ) ;
#19 = ORIENTED_EDGE ( 'NONE', *, *, #189, .T. ) ;
#20 = FACE_OUTER_BOUND ( 'NONE', #22, .T. ) ;
#21 = DIRECTION ( 'NONE',  ( 0.000000000000000000, -1.000000000000000000, 0.000000000000000000 ) ) ;
#22 = EDGE_LOOP ( 'NONE', ( #310, #271, #104, #419 ) ) ;
#23 = APPROVAL ( #123, 'UNSPECIFIED' ) ;
#24 = CIRCLE ( 'NONE', #37, 10.00000000000000000 ) ;
#25 = AXIS2_PLACEMENT_3D ( 'NONE', #305, #141, #258 ) ;
#26 = VERTEX_POINT ( 'NONE', #407 ) ;
#27 = MECHANICAL_CONTEXT ( 'NONE', #221, 'mechanical' ) ;
#28 = VERTEX_POINT ( 'NONE', #70 ) ;
#29 = DIRECTION ( 'NONE',  ( 0.000000000000000000, -0.8660254037844380415, -0.5000000000000009992 ) ) ;
#30 = VERTEX_POINT ( 'NONE', #230 ) ;
#31 = DIRECTION ( 'NONE',  ( 0.000000000000000000, -0.8660254037844380415, -0.5000000000000009992 ) ) ;
#32 = DATE_TIME_ROLE ( 'classification_date' ) ;
#33 = PERSON_AND_ORGANIZATION ( #162, #275 ) ;
#34 = CARTESIAN_POINT ( 'NONE',  ( 0.000000000000000000, 13.66025403784439440, -3.660254037844373531 ) ) ;
#35 = CYLINDRICAL_SURFACE ( 'NONE', #240, 10.00000000000000178 ) ;
#36 = PRODUCT_DEFINITION ( 'UNKNOWN', '', #358, #102 ) ;
#37 = AXIS2_PLACEMENT_3D ( 'NONE', #39, #248, #391 ) ;
#38 = AXIS2_PLACEMENT_3D ( 'NONE', #14, #402, #135 ) ;
#39 = CARTESIAN_POINT ( 'NONE',  ( 0.000000000000000000, -10.00000000000000000, 0.000000000000000000 ) ) ;
#40 = DIRECTION ( 'NONE',  ( -0.000000000000000000, -1.000000000000000000, -0.000000000000000000 ) ) ;
#41 = LINE ( 'NONE', #341, #220 ) ;
#42 = AXIS2_PLACEMENT_3D ( 'NONE', #261, #105, #369 ) ;
#43 = CARTESIAN_POINT ( 'NONE',  ( 0.000000000000000000, -10.00000000000000000, 0.000000000000000000 ) ) ;
#44 = EDGE_LOOP ( 'NONE', ( #118, #19 ) ) ;
#45 = EDGE_CURVE ( 'NONE', #290, #292, #41, .T. ) ;
#46 = DIRECTION ( 'NONE',  ( 0.000000000000000000, 0.000000000000000000, 1.000000000000000000 ) ) ;
#47 = ORIENTED_EDGE ( 'NONE', *, *, #117, .T. ) ;
#48 = DIRECTION ( 'NONE',  ( 0.000000000000000000, -0.8660254037844380415, -0.5000000000000011102 ) ) ;
#49 = EDGE_LOOP ( 'NONE', ( #13, #53 ) ) ;
#50 = CARTESIAN_POINT ( 'NONE',  ( 1.224646799147353256E-15, -10.00000000000000000, -10.00000000000000000 ) ) ;
#51 = VERTEX_POINT ( 'NONE', #228 ) ;
#52 = PRODUCT_RELATED_PRODUCT_CATEGORY ( 'detail', '', ( #224 ) ) ;
#53 = ORIENTED_EDGE ( 'NONE', *, *, #318, .F. ) ;
#54 = DIRECTION ( 'NONE',  ( 0.000000000000000000, -0.5000000000000009992, 0.8660254037844380415 ) ) ;
#55 = VECTOR ( 'NONE', #165, 1000.000000000000000 ) ;
#56 = AXIS2_PLACEMENT_3D ( 'NONE', #339, #297, #48 ) ;
#57 = ORIENTED_EDGE ( 'NONE', *, *, #373, .T. ) ;
#58 = ADVANCED_FACE ( 'NONE', ( #167, #232 ), #173, .F. ) ;
#59 = ORIENTED_EDGE ( 'NONE', *, *, #137, .T. ) ;
#60 = CARTESIAN_POINT ( 'NONE',  ( 0.000000000000000000, 13.66025403784439440, -3.660254037844373531 ) ) ;
#61 = CIRCLE ( 'NONE', #114, 10.00000000000000000 ) ;
#62 = PERSON_AND_ORGANIZATION ( #162, #275 ) ;
#63 = CARTESIAN_POINT ( 'NONE',  ( 1.224646799147353256E-15, 27.32050807568878170, -7.320508075688741734 ) ) ;
#64 = LINE ( 'NONE', #227, #138 ) ;
#65 = CARTESIAN_POINT ( 'NONE',  ( 0.000000000000000000, -5.000000000000000000, -7.500000000000000000 ) ) ;
#66 = LOCAL_TIME ( 22, 9, 29.00000000000000000, #272 ) ;
#67 = FACE_BOUND ( 'NONE', #348, .T. ) ;
#68 = CC_DESIGN_PERSON_AND_ORGANIZATION_ASSIGNMENT ( #33, #160, ( #90 ) ) ;
#69 = CYLINDRICAL_SURFACE ( 'NONE', #412, 7.500000000000000000 ) ;
#70 = CARTESIAN_POINT ( 'NONE',  ( 0.000000000000000000, 25.15544456622769331, -8.570508075688747951 ) ) ;
#71 = CARTESIAN_POINT ( 'NONE',  ( 0.000000000000000000, -10.00000000000000000, 0.000000000000000000 ) ) ;
#72 = CARTESIAN_POINT ( 'NONE',  ( 0.000000000000000000, -5.000000000000000000, 0.000000000000000000 ) ) ;
#73 = CC_DESIGN_APPROVAL ( #111, ( #36 ) ) ;
#74 = ADVANCED_FACE ( 'NONE', ( #411 ), #112, .T. ) ;
#75 = CIRCLE ( 'NONE', #352, 7.500000000000000000 ) ;
#76 = CARTESIAN_POINT ( 'NONE',  ( 0.000000000000000000, 10.00000000000002132, -17.32050807568876394 ) ) ;
#77 = ORIENTED_EDGE ( 'NONE', *, *, #7, .T. ) ;
#78 = PLANE ( 'NONE',  #406 ) ;
#79 = DIRECTION ( 'NONE',  ( 0.000000000000000000, 0.000000000000000000, 1.000000000000000000 ) ) ;
#80 = AXIS2_PLACEMENT_3D ( 'NONE', #254, #250, #354 ) ;
#81 = VERTEX_POINT ( 'NONE', #410 ) ;
#82 = VERTEX_POINT ( 'NONE', #265 ) ;
#83 = DIRECTION ( 'NONE',  ( 0.000000000000000000, 0.8660254037844380415, 0.5000000000000007772 ) ) ;
#84 = ORIENTED_EDGE ( 'NONE', *, *, #7, .F. ) ;
#85 = AXIS2_PLACEMENT_3D ( 'NONE', #281, #320, #31 ) ;
#86 = EDGE_LOOP ( 'NONE', ( #342, #210 ) ) ;
#87 = DIRECTION ( 'NONE',  ( -0.000000000000000000, 0.5000000000000009992, -0.8660254037844381525 ) ) ;
#88 = ADVANCED_FACE ( 'NONE', ( #20 ), #134, .F. ) ;
#89 = COORDINATED_UNIVERSAL_TIME_OFFSET ( 5, 30, .AHEAD. ) ;
#90 = SECURITY_CLASSIFICATION ( '', '', #278 ) ;
#91 = CIRCLE ( 'NONE', #56, 10.00000000000000178 ) ;
#92 = APPROVAL_DATE_TIME ( #237, #111 ) ;
#93 = FACE_OUTER_BOUND ( 'NONE', #49, .T. ) ;
#94 = CALENDAR_DATE ( 2026, 22, 8 ) ;
#95 = DATE_AND_TIME ( #155, #113 ) ;
#96 = DIRECTION ( 'NONE',  ( 0.000000000000000000, -0.8660254037844380415, -0.5000000000000011102 ) ) ;
#97 = APPROVAL_PERSON_ORGANIZATION ( #4, #282, #357 ) ;
#98 = DIRECTION ( 'NONE',  ( 0.000000000000000000, -0.8660254037844380415, -0.5000000000000011102 ) ) ;
#99 = ORIENTED_EDGE ( 'NONE', *, *, #314, .T. ) ;
#100 = ORIENTED_EDGE ( 'NONE', *, *, #208, .T. ) ;
#101 = CARTESIAN_POINT ( 'NONE',  ( 0.000000000000000000, -5.000000000000000000, 0.000000000000000000 ) ) ;
#102 = DESIGN_CONTEXT ( 'detailed design', #231, 'design' ) ;
#103 = ADVANCED_FACE ( 'NONE', ( #336 ), #78, .T. ) ;
#104 = ORIENTED_EDGE ( 'NONE', *, *, #344, .T. ) ;
#105 = DIRECTION ( 'NONE',  ( 0.000000000000000000, 1.000000000000000000, 0.000000000000000000 ) ) ;
#106 = AXIS2_PLACEMENT_3D ( 'NONE', #289, #129, #397 ) ;
#107 = CIRCLE ( 'NONE', #25, 7.500000000000000888 ) ;
#108 = DIRECTION ( 'NONE',  ( 0.000000000000000000, 0.8660254037844380415, 0.5000000000000008882 ) ) ;
#109 = ORIENTED_EDGE ( 'NONE', *, *, #338, .F. ) ;
#110 = CARTESIAN_POINT ( 'NONE',  ( 0.000000000000000000, 13.66025403784439440, -3.660254037844373531 ) ) ;
#111 = APPROVAL ( #308, 'UNSPECIFIED' ) ;
#112 = CYLINDRICAL_SURFACE ( 'NONE', #159, 10.00000000000000000 ) ;
#113 = LOCAL_TIME ( 22, 9, 29.00000000000000000, #5 ) ;
#114 = AXIS2_PLACEMENT_3D ( 'NONE', #140, #264, #205 ) ;
#115 = ORIENTED_EDGE ( 'NONE', *, *, #152, .T. ) ;
#116 = VERTEX_POINT ( 'NONE', #18 ) ;
#117 = EDGE_CURVE ( 'NONE', #253, #263, #61, .T. ) ;
#118 = ORIENTED_EDGE ( 'NONE', *, *, #296, .T. ) ;
#119 = AXIS2_PLACEMENT_3D ( 'NONE', #169, #40, #327 ) ;
#120 = FACE_OUTER_BOUND ( 'NONE', #194, .T. ) ;
#121 = CARTESIAN_POINT ( 'NONE',  ( 0.000000000000000000, 0.000000000000000000, 10.00000000000000000 ) ) ;
#122 = CC_DESIGN_PERSON_AND_ORGANIZATION_ASSIGNMENT ( #142, #266, ( #224 ) ) ;
#123 = APPROVAL_STATUS ( 'not_yet_approved' ) ;
#124 = DIRECTION ( 'NONE',  ( 0.000000000000000000, 0.8660254037844380415, 0.5000000000000008882 ) ) ;
#125 = AXIS2_PLACEMENT_3D ( 'NONE', #404, #368, #46 ) ;
#126 = APPROVAL_DATE_TIME ( #321, #282 ) ;
#127 = DIRECTION ( 'NONE',  ( -0.000000000000000000, 0.5000000000000009992, -0.8660254037844380415 ) ) ;
#128 = DIRECTION ( 'NONE',  ( 0.000000000000000000, 0.000000000000000000, -1.000000000000000000 ) ) ;
#129 = DIRECTION ( 'NONE',  ( 0.000000000000000000, -0.5000000000000009992, 0.8660254037844380415 ) ) ;
#130 = VERTEX_POINT ( 'NONE', #50 ) ;
#131 = VECTOR ( 'NONE', #359, 1000.000000000000000 ) ;
#132 = CARTESIAN_POINT ( 'NONE',  ( 0.000000000000000000, 18.66025403784440329, -12.32050807568875150 ) ) ;
#133 = EDGE_CURVE ( 'NONE', #51, #259, #75, .T. ) ;
#134 = CYLINDRICAL_SURFACE ( 'NONE', #168, 7.500000000000000888 ) ;
#135 = DIRECTION ( 'NONE',  ( 0.000000000000000000, 0.000000000000000000, 1.000000000000000000 ) ) ;
#136 = DIRECTION ( 'NONE',  ( 0.000000000000000000, -0.000000000000000000, -1.000000000000000000 ) ) ;
#137 = EDGE_CURVE ( 'NONE', #82, #290, #91, .T. ) ;
#138 = VECTOR ( 'NONE', #127, 1000.000000000000114 ) ;
#139 = AXIS2_PLACEMENT_3D ( 'NONE', #377, #217, #83 ) ;
#140 = CARTESIAN_POINT ( 'NONE',  ( 0.000000000000000000, 0.000000000000000000, 0.000000000000000000 ) ) ;
#141 = DIRECTION ( 'NONE',  ( 0.000000000000000000, 0.5000000000000009992, -0.8660254037844381525 ) ) ;
#142 = PERSON_AND_ORGANIZATION ( #162, #275 ) ;
#143 = ORIENTED_EDGE ( 'NONE', *, *, #408, .T. ) ;
#144 = CIRCLE ( 'NONE', #80, 10.00000000000000000 ) ;
#145 = CIRCLE ( 'NONE', #247, 7.500000000000000888 ) ;
#146 = PERSON_AND_ORGANIZATION ( #162, #275 ) ;
#147 = DIRECTION ( 'NONE',  ( 0.000000000000000000, 0.000000000000000000, -1.000000000000000000 ) ) ;
#148 = EDGE_LOOP ( 'NONE', ( #100, #77 ) ) ;
#149 = FACE_OUTER_BOUND ( 'NONE', #415, .T. ) ;
#150 = EDGE_CURVE ( 'NONE', #28, #340, #107, .T. ) ;
#151 = CARTESIAN_POINT ( 'NONE',  ( 9.184850993605147944E-16, 7.165063509461108815, -7.410254037844380193 ) ) ;
#152 = EDGE_CURVE ( 'NONE', #82, #216, #361, .T. ) ;
#153 = PERSON_AND_ORGANIZATION_ROLE ( 'design_supplier' ) ;
#154 = DIRECTION ( 'NONE',  ( 0.000000000000000000, 0.8660254037844380415, 0.5000000000000008882 ) ) ;
#155 = CALENDAR_DATE ( 2026, 22, 8 ) ;
#156 = CARTESIAN_POINT ( 'NONE',  ( 0.000000000000000000, 18.66025403784440329, -12.32050807568875150 ) ) ;
#157 = AXIS2_PLACEMENT_3D ( 'NONE', #384, #182, #353 ) ;
#158 = ADVANCED_FACE ( 'NONE', ( #16 ), #294, .T. ) ;
#159 = AXIS2_PLACEMENT_3D ( 'NONE', #43, #303, #79 ) ;
#160 = PERSON_AND_ORGANIZATION_ROLE ( 'classification_officer' ) ;
#161 = LINE ( 'NONE', #164, #131 ) ;
#162 = PERSON ( 'UNSPECIFIED', 'UNSPECIFIED', 'UNSPECIFIED', ('UNSPECIFIED'), ('UNSPECIFIED'), ('UNSPECIFIED') ) ;
#163 = DATE_AND_TIME ( #94, #185 ) ;
#164 = CARTESIAN_POINT ( 'NONE',  ( 0.000000000000000000, -10.00000000000000000, 10.00000000000000000 ) ) ;
#165 = DIRECTION ( 'NONE',  ( -0.000000000000000000, -1.000000000000000000, -0.000000000000000000 ) ) ;
#166 = CC_DESIGN_APPROVAL ( #23, ( #90 ) ) ;
#167 = FACE_BOUND ( 'NONE', #401, .T. ) ;
#168 = AXIS2_PLACEMENT_3D ( 'NONE', #201, #365, #108 ) ;
#169 = CARTESIAN_POINT ( 'NONE',  ( 0.000000000000000000, -5.000000000000000000, 0.000000000000000000 ) ) ;
#170 = DIRECTION ( 'NONE',  ( 0.000000000000000000, -1.000000000000000000, 0.000000000000000000 ) ) ;
#171 = EDGE_LOOP ( 'NONE', ( #236, #17, #268, #301 ) ) ;
#172 = CARTESIAN_POINT ( 'NONE',  ( 0.000000000000000000, 8.660254037844381969, 5.000000000000010658 ) ) ;
#173 = PLANE ( 'NONE',  #42 ) ;
#174 = DIRECTION ( 'NONE',  ( 0.000000000000000000, 0.000000000000000000, -1.000000000000000000 ) ) ;
#175 = DIRECTION ( 'NONE',  ( 0.000000000000000000, 0.000000000000000000, 1.000000000000000000 ) ) ;
#176 = EDGE_CURVE ( 'NONE', #30, #130, #262, .T. ) ;
#177 = ORIENTED_EDGE ( 'NONE', *, *, #150, .F. ) ;
#178 =( GEOMETRIC_REPRESENTATION_CONTEXT ( 3 ) GLOBAL_UNCERTAINTY_ASSIGNED_CONTEXT ( ( #257 ) ) GLOBAL_UNIT_ASSIGNED_CONTEXT ( ( #246, #233, #309 ) ) REPRESENTATION_CONTEXT ( 'NONE', 'WORKASPACE' ) );
#179 = VECTOR ( 'NONE', #218, 1000.000000000000114 ) ;
#180 = PLANE ( 'NONE',  #11 ) ;
#181 = EDGE_LOOP ( 'NONE', ( #379, #99, #212, #298 ) ) ;
#182 = DIRECTION ( 'NONE',  ( 0.000000000000000000, -1.000000000000000000, 0.000000000000000000 ) ) ;
#183 = ORIENTED_EDGE ( 'NONE', *, *, #399, .T. ) ;
#184 = DIRECTION ( 'NONE',  ( 0.000000000000000000, -1.000000000000000000, 0.000000000000000000 ) ) ;
#185 = LOCAL_TIME ( 22, 9, 29.00000000000000000, #390 ) ;
#186 = CARTESIAN_POINT ( 'NONE',  ( 1.224646799147353256E-15, 17.32050807568876394, 10.00000000000002309 ) ) ;
#187 = CALENDAR_DATE ( 2026, 22, 8 ) ;
#188 = CARTESIAN_POINT ( 'NONE',  ( 0.000000000000000000, 18.66025403784440329, -12.32050807568875150 ) ) ;
#189 = EDGE_CURVE ( 'NONE', #292, #216, #333, .T. ) ;
#190 = PERSON_AND_ORGANIZATION_ROLE ( 'creator' ) ;
#191 = DIRECTION ( 'NONE',  ( -0.000000000000000000, -1.000000000000000000, -0.000000000000000000 ) ) ;
#192 = EDGE_CURVE ( 'NONE', #116, #340, #241, .T. ) ;
#193 = CARTESIAN_POINT ( 'NONE',  ( 0.000000000000000000, 20.15544456622767910, 0.08974596215563426793 ) ) ;
#194 = EDGE_LOOP ( 'NONE', ( #47, #375 ) ) ;
#195 = DIRECTION ( 'NONE',  ( 0.000000000000000000, 0.8660254037844380415, 0.5000000000000009992 ) ) ;
#196 = PLANE ( 'NONE',  #386 ) ;
#197 = EDGE_LOOP ( 'NONE', ( #229, #403, #115, #255 ) ) ;
#198 = CIRCLE ( 'NONE', #106, 10.00000000000000178 ) ;
#199 = DIRECTION ( 'NONE',  ( 0.000000000000000000, -0.5000000000000009992, 0.8660254037844380415 ) ) ;
#200 = CLOSED_SHELL ( 'NONE', ( #304, #330, #420, #362, #203, #88, #103 ) ) ;
#201 = CARTESIAN_POINT ( 'NONE',  ( 0.000000000000000000, 13.66025403784439440, -3.660254037844373531 ) ) ;
#202 = ORIENTED_EDGE ( 'NONE', *, *, #296, .F. ) ;
#203 = ADVANCED_FACE ( 'NONE', ( #421 ), #238, .T. ) ;
#204 = CARTESIAN_POINT ( 'NONE',  ( 0.000000000000000000, 13.66025403784439440, -3.660254037844373531 ) ) ;
#205 = DIRECTION ( 'NONE',  ( 0.000000000000000000, 0.000000000000000000, 1.000000000000000000 ) ) ;
#206 = LOCAL_TIME ( 22, 9, 29.00000000000000000, #288 ) ;
#207 = PLANE ( 'NONE',  #312 ) ;
#208 = EDGE_CURVE ( 'NONE', #316, #116, #145, .T. ) ;
#209 = CARTESIAN_POINT ( 'NONE',  ( 0.000000000000000000, 0.000000000000000000, 0.000000000000000000 ) ) ;
#210 = ORIENTED_EDGE ( 'NONE', *, *, #408, .F. ) ;
#211 = CARTESIAN_POINT ( 'NONE',  ( 1.224646799147353256E-15, 0.000000000000000000, -10.00000000000000000 ) ) ;
#212 = ORIENTED_EDGE ( 'NONE', *, *, #279, .T. ) ;
#213 = AXIS2_PLACEMENT_3D ( 'NONE', #71, #394, #128 ) ;
#214 = VECTOR ( 'NONE', #334, 1000.000000000000114 ) ;
#215 = EDGE_CURVE ( 'NONE', #259, #51, #326, .T. ) ;
#216 = VERTEX_POINT ( 'NONE', #423 ) ;
#217 = DIRECTION ( 'NONE',  ( 0.000000000000000000, 0.5000000000000009992, -0.8660254037844381525 ) ) ;
#218 = DIRECTION ( 'NONE',  ( -0.000000000000000000, 0.5000000000000009992, -0.8660254037844380415 ) ) ;
#219 = CARTESIAN_POINT ( 'NONE',  ( 0.000000000000000000, -5.000000000000000000, -7.500000000000000000 ) ) ;
#220 = VECTOR ( 'NONE', #199, 1000.000000000000114 ) ;
#221 = APPLICATION_CONTEXT ( 'configuration controlled 3d designs of mechanical parts and assemblies' ) ;
#222 = EDGE_CURVE ( 'NONE', #340, #28, #3, .T. ) ;
#223 = DIRECTION ( 'NONE',  ( 0.000000000000000000, -0.8660254037844380415, -0.5000000000000009992 ) ) ;
#224 = PRODUCT ( '30DegreeeAngle_Default_sldprt', '30DegreeeAngle_Default_sldprt', '', ( #27 ) ) ;
#225 = FACE_OUTER_BOUND ( 'NONE', #239, .T. ) ;
#226 = DIRECTION ( 'NONE',  ( 0.000000000000000000, -0.5000000000000009992, 0.8660254037844381525 ) ) ;
#227 = CARTESIAN_POINT ( 'NONE',  ( 0.000000000000000000, 20.15544456622767910, 0.08974596215563382384 ) ) ;
#228 = CARTESIAN_POINT ( 'NONE',  ( 9.184850993605147944E-16, -5.000000000000000000, 7.500000000000000000 ) ) ;
#229 = ORIENTED_EDGE ( 'NONE', *, *, #45, .F. ) ;
#230 = CARTESIAN_POINT ( 'NONE',  ( 0.000000000000000000, -10.00000000000000000, 10.00000000000000000 ) ) ;
#231 = APPLICATION_CONTEXT ( 'configuration controlled 3d designs of mechanical parts and assemblies' ) ;
#232 = FACE_OUTER_BOUND ( 'NONE', #86, .T. ) ;
#233 =( NAMED_UNIT ( * ) PLANE_ANGLE_UNIT ( ) SI_UNIT ( $, .RADIAN. ) );
#234 = ORIENTED_EDGE ( 'NONE', *, *, #45, .T. ) ;
#235 = ORIENTED_EDGE ( 'NONE', *, *, #192, .T. ) ;
#236 = ORIENTED_EDGE ( 'NONE', *, *, #176, .T. ) ;
#237 = DATE_AND_TIME ( #418, #66 ) ;
#238 = PLANE ( 'NONE',  #85 ) ;
#239 = EDGE_LOOP ( 'NONE', ( #59, #234, #202, #409 ) ) ;
#240 = AXIS2_PLACEMENT_3D ( 'NONE', #156, #226, #96 ) ;
#241 = LINE ( 'NONE', #151, #179 ) ;
#242 = DIRECTION ( 'NONE',  ( 0.000000000000000000, 0.5000000000000009992, -0.8660254037844381525 ) ) ;
#243 = PERSON_AND_ORGANIZATION_ROLE ( 'creator' ) ;
#244 = CARTESIAN_POINT ( 'NONE',  ( 0.000000000000000000, -5.000000000000000000, 0.000000000000000000 ) ) ;
#245 = ADVANCED_FACE ( 'NONE', ( #120 ), #180, .T. ) ;
#246 =( LENGTH_UNIT ( ) NAMED_UNIT ( * ) SI_UNIT ( .MILLI., .METRE. ) );
#247 = AXIS2_PLACEMENT_3D ( 'NONE', #60, #242, #154 ) ;
#248 = DIRECTION ( 'NONE',  ( 0.000000000000000000, 1.000000000000000000, 0.000000000000000000 ) ) ;
#249 = APPROVAL_STATUS ( 'not_yet_approved' ) ;
#250 = DIRECTION ( 'NONE',  ( 0.000000000000000000, 1.000000000000000000, 0.000000000000000000 ) ) ;
#251 = DATE_TIME_ROLE ( 'creation_date' ) ;
#252 = CYLINDRICAL_SURFACE ( 'NONE', #405, 10.00000000000000178 ) ;
#253 = VERTEX_POINT ( 'NONE', #121 ) ;
#254 = CARTESIAN_POINT ( 'NONE',  ( 0.000000000000000000, 0.000000000000000000, 0.000000000000000000 ) ) ;
#255 = ORIENTED_EDGE ( 'NONE', *, *, #189, .F. ) ;
#256 = DIRECTION ( 'NONE',  ( 0.000000000000000000, 0.8660254037844380415, 0.5000000000000008882 ) ) ;
#257 = UNCERTAINTY_MEASURE_WITH_UNIT (LENGTH_MEASURE( 1.000000000000000082E-05 ), #246, 'distance_accuracy_value', 'NONE');
#258 = DIRECTION ( 'NONE',  ( 0.000000000000000000, 0.8660254037844380415, 0.5000000000000007772 ) ) ;
#259 = VERTEX_POINT ( 'NONE', #219 ) ;
#260 = VECTOR ( 'NONE', #323, 1000.000000000000000 ) ;
#261 = CARTESIAN_POINT ( 'NONE',  ( 0.000000000000000000, -10.00000000000000000, 0.000000000000000000 ) ) ;
#262 = CIRCLE ( 'NONE', #125, 10.00000000000000000 ) ;
#263 = VERTEX_POINT ( 'NONE', #211 ) ;
#264 = DIRECTION ( 'NONE',  ( 0.000000000000000000, 1.000000000000000000, 0.000000000000000000 ) ) ;
#265 = CARTESIAN_POINT ( 'NONE',  ( 0.000000000000000000, 10.00000000000002132, -17.32050807568876394 ) ) ;
#266 = PERSON_AND_ORGANIZATION_ROLE ( 'design_owner' ) ;
#267 = CC_DESIGN_PERSON_AND_ORGANIZATION_ASSIGNMENT ( #393, #190, ( #358 ) ) ;
#268 = ORIENTED_EDGE ( 'NONE', *, *, #117, .F. ) ;
#269 = CIRCLE ( 'NONE', #422, 10.00000000000000178 ) ;
#270 = DIRECTION ( 'NONE',  ( 1.000000000000000000, 0.000000000000000000, 0.000000000000000000 ) ) ;
#271 = ORIENTED_EDGE ( 'NONE', *, *, #208, .F. ) ;
#272 = COORDINATED_UNIVERSAL_TIME_OFFSET ( 5, 30, .AHEAD. ) ;
#273 = ORIENTED_EDGE ( 'NONE', *, *, #356, .T. ) ;
#274 = FACE_OUTER_BOUND ( 'NONE', #335, .T. ) ;
#275 = ORGANIZATION ( 'UNSPECIFIED', 'UNSPECIFIED', '' ) ;
#276 = MANIFOLD_SOLID_BREP ( 'Cut-Extrude2', #200 ) ;
#277 = CYLINDRICAL_SURFACE ( 'NONE', #332, 7.500000000000000888 ) ;
#278 = SECURITY_CLASSIFICATION_LEVEL ( 'unclassified' ) ;
#279 = EDGE_CURVE ( 'NONE', #26, #81, #2, .T. ) ;
#280 = CALENDAR_DATE ( 2026, 22, 8 ) ;
#281 = CARTESIAN_POINT ( 'NONE',  ( 0.000000000000000000, 8.660254037844381969, 5.000000000000010658 ) ) ;
#282 = APPROVAL ( #249, 'UNSPECIFIED' ) ;
#283 = CIRCLE ( 'NONE', #213, 7.500000000000000000 ) ;
#284 = CYLINDRICAL_SURFACE ( 'NONE', #119, 7.500000000000000000 ) ;
#285 = CLOSED_SHELL ( 'NONE', ( #382, #74, #158, #58, #245, #389, #1 ) ) ;
#286 = APPROVAL_ROLE ( '' ) ;
#287 = DIRECTION ( 'NONE',  ( -0.000000000000000000, -1.000000000000000000, -0.000000000000000000 ) ) ;
#288 = COORDINATED_UNIVERSAL_TIME_OFFSET ( 5, 30, .AHEAD. ) ;
#289 = CARTESIAN_POINT ( 'NONE',  ( 0.000000000000000000, 18.66025403784440329, -12.32050807568875150 ) ) ;
#290 = VERTEX_POINT ( 'NONE', #63 ) ;
#291 = CARTESIAN_POINT ( 'NONE',  ( 1.224646799147353256E-15, -10.00000000000000000, -10.00000000000000000 ) ) ;
#292 = VERTEX_POINT ( 'NONE', #186 ) ;
#293 = APPROVAL_PERSON_ORGANIZATION ( #146, #111, #416 ) ;
#294 = CYLINDRICAL_SURFACE ( 'NONE', #38, 10.00000000000000000 ) ;
#295 = FACE_OUTER_BOUND ( 'NONE', #197, .T. ) ;
#296 = EDGE_CURVE ( 'NONE', #216, #292, #269, .T. ) ;
#297 = DIRECTION ( 'NONE',  ( 0.000000000000000000, -0.5000000000000009992, 0.8660254037844380415 ) ) ;
#298 = ORIENTED_EDGE ( 'NONE', *, *, #399, .F. ) ;
#299 = CC_DESIGN_DATE_AND_TIME_ASSIGNMENT ( #163, #32, ( #90 ) ) ;
#300 = DIRECTION ( 'NONE',  ( 0.000000000000000000, -0.5000000000000009992, 0.8660254037844380415 ) ) ;
#301 = ORIENTED_EDGE ( 'NONE', *, *, #356, .F. ) ;
#302 = CC_DESIGN_APPROVAL ( #282, ( #358 ) ) ;
#303 = DIRECTION ( 'NONE',  ( 0.000000000000000000, 1.000000000000000000, 0.000000000000000000 ) ) ;
#304 = ADVANCED_FACE ( 'NONE', ( #274 ), #277, .F. ) ;
#305 = CARTESIAN_POINT ( 'NONE',  ( 0.000000000000000000, 18.66025403784440684, -12.32050807568875506 ) ) ;
#306 = CC_DESIGN_PERSON_AND_ORGANIZATION_ASSIGNMENT ( #383, #243, ( #36 ) ) ;
#307 = EDGE_LOOP ( 'NONE', ( #345, #364, #183, #57 ) ) ;
#308 = APPROVAL_STATUS ( 'not_yet_approved' ) ;
#309 =( NAMED_UNIT ( * ) SI_UNIT ( $, .STERADIAN. ) SOLID_ANGLE_UNIT ( ) );
#310 = ORIENTED_EDGE ( 'NONE', *, *, #192, .F. ) ;
#311 = APPROVAL_PERSON_ORGANIZATION ( #62, #23, #286 ) ;
#312 = AXIS2_PLACEMENT_3D ( 'NONE', #101, #170, #136 ) ;
#313 = CARTESIAN_POINT ( 'NONE',  ( 9.184850993605147944E-16, -5.000000000000000000, 7.500000000000000000 ) ) ;
#314 = EDGE_CURVE ( 'NONE', #51, #26, #374, .T. ) ;
#315 = EDGE_LOOP ( 'NONE', ( #360, #143, #273, #109 ) ) ;
#316 = VERTEX_POINT ( 'NONE', #193 ) ;
#317 = DIRECTION ( 'NONE',  ( 0.000000000000000000, -0.000000000000000000, 1.000000000000000000 ) ) ;
#318 = EDGE_CURVE ( 'NONE', #290, #82, #198, .T. ) ;
#319 = VECTOR ( 'NONE', #287, 1000.000000000000000 ) ;
#320 = DIRECTION ( 'NONE',  ( 0.000000000000000000, -0.5000000000000009992, 0.8660254037844380415 ) ) ;
#321 = DATE_AND_TIME ( #280, #206 ) ;
#322 = CARTESIAN_POINT ( 'NONE',  ( 0.000000000000000000, 8.660254037844381969, 5.000000000000010658 ) ) ;
#323 = DIRECTION ( 'NONE',  ( 0.000000000000000000, 1.000000000000000000, 0.000000000000000000 ) ) ;
#324 = PERSON_AND_ORGANIZATION ( #162, #275 ) ;
#325 = AXIS2_PLACEMENT_3D ( 'NONE', #209, #175, #270 ) ;
#326 = CIRCLE ( 'NONE', #387, 7.500000000000000000 ) ;
#327 = DIRECTION ( 'NONE',  ( 0.000000000000000000, 0.000000000000000000, -1.000000000000000000 ) ) ;
#328 = FACE_OUTER_BOUND ( 'NONE', #307, .T. ) ;
#329 = DIRECTION ( 'NONE',  ( 0.000000000000000000, 0.5000000000000009992, -0.8660254037844381525 ) ) ;
#330 = ADVANCED_FACE ( 'NONE', ( #225 ), #252, .T. ) ;
#331 = CARTESIAN_POINT ( 'NONE',  ( 0.000000000000000000, -5.000000000000000000, 0.000000000000000000 ) ) ;
#332 = AXIS2_PLACEMENT_3D ( 'NONE', #34, #87, #124 ) ;
#333 = CIRCLE ( 'NONE', #367, 10.00000000000000178 ) ;
#334 = DIRECTION ( 'NONE',  ( 0.000000000000000000, -0.5000000000000009992, 0.8660254037844380415 ) ) ;
#335 = EDGE_LOOP ( 'NONE', ( #84, #235, #343, #9 ) ) ;
#336 = FACE_OUTER_BOUND ( 'NONE', #148, .T. ) ;
#337 = ORIENTED_EDGE ( 'NONE', *, *, #215, .T. ) ;
#338 = EDGE_CURVE ( 'NONE', #263, #253, #144, .T. ) ;
#339 = CARTESIAN_POINT ( 'NONE',  ( 0.000000000000000000, 18.66025403784440329, -12.32050807568875150 ) ) ;
#340 = VERTEX_POINT ( 'NONE', #12 ) ;
#341 = CARTESIAN_POINT ( 'NONE',  ( 1.224646799147353256E-15, 27.32050807568878170, -7.320508075688740846 ) ) ;
#342 = ORIENTED_EDGE ( 'NONE', *, *, #176, .F. ) ;
#343 = ORIENTED_EDGE ( 'NONE', *, *, #222, .T. ) ;
#344 = EDGE_CURVE ( 'NONE', #316, #28, #64, .T. ) ;
#345 = ORIENTED_EDGE ( 'NONE', *, *, #314, .F. ) ;
#346 = AXIS2_PLACEMENT_3D ( 'NONE', #110, #329, #256 ) ;
#347 = DIRECTION ( 'NONE',  ( 0.000000000000000000, 1.000000000000000000, 0.000000000000000000 ) ) ;
#348 = EDGE_LOOP ( 'NONE', ( #177, #398 ) ) ;
#349 = CARTESIAN_POINT ( 'NONE',  ( 0.000000000000000000, 0.000000000000000000, 0.000000000000000000 ) ) ;
#350 = DATE_AND_TIME ( #187, #380 ) ;
#351 = CC_DESIGN_DATE_AND_TIME_ASSIGNMENT ( #350, #251, ( #36 ) ) ;
#352 = AXIS2_PLACEMENT_3D ( 'NONE', #72, #21, #174 ) ;
#353 = DIRECTION ( 'NONE',  ( 0.000000000000000000, 0.000000000000000000, -1.000000000000000000 ) ) ;
#354 = DIRECTION ( 'NONE',  ( 0.000000000000000000, 0.000000000000000000, 1.000000000000000000 ) ) ;
#355 = DIRECTION ( 'NONE',  ( 0.000000000000000000, -0.5000000000000009992, 0.8660254037844380415 ) ) ;
#356 = EDGE_CURVE ( 'NONE', #30, #253, #161, .T. ) ;
#357 = APPROVAL_ROLE ( '' ) ;
#358 = PRODUCT_DEFINITION_FORMATION_WITH_SPECIFIED_SOURCE ( 'ANY', '', #224, .NOT_KNOWN. ) ;
#359 = DIRECTION ( 'NONE',  ( 0.000000000000000000, 1.000000000000000000, 0.000000000000000000 ) ) ;
#360 = ORIENTED_EDGE ( 'NONE', *, *, #413, .F. ) ;
#361 = LINE ( 'NONE', #76, #214 ) ;
#362 = ADVANCED_FACE ( 'NONE', ( #67, #93 ), #196, .F. ) ;
#363 = LINE ( 'NONE', #65, #55 ) ;
#364 = ORIENTED_EDGE ( 'NONE', *, *, #215, .F. ) ;
#365 = DIRECTION ( 'NONE',  ( -0.000000000000000000, 0.5000000000000009992, -0.8660254037844381525 ) ) ;
#366 = ORIENTED_EDGE ( 'NONE', *, *, #133, .T. ) ;
#367 = AXIS2_PLACEMENT_3D ( 'NONE', #172, #300, #385 ) ;
#368 = DIRECTION ( 'NONE',  ( 0.000000000000000000, 1.000000000000000000, 0.000000000000000000 ) ) ;
#369 = DIRECTION ( 'NONE',  ( 0.000000000000000000, -0.000000000000000000, 1.000000000000000000 ) ) ;
#370 = DIRECTION ( 'NONE',  ( 0.000000000000000000, 0.5000000000000009992, -0.8660254037844380415 ) ) ;
#371 = ORIENTED_EDGE ( 'NONE', *, *, #373, .F. ) ;
#372 = APPLICATION_PROTOCOL_DEFINITION ( 'international standard', 'config_control_design', 1994, #231 ) ;
#373 = EDGE_CURVE ( 'NONE', #81, #26, #283, .T. ) ;
#374 = LINE ( 'NONE', #313, #319 ) ;
#375 = ORIENTED_EDGE ( 'NONE', *, *, #338, .T. ) ;
#376 = CC_DESIGN_PERSON_AND_ORGANIZATION_ASSIGNMENT ( #324, #153, ( #358 ) ) ;
#377 = CARTESIAN_POINT ( 'NONE',  ( 0.000000000000000000, 18.66025403784440684, -12.32050807568875506 ) ) ;
#378 = ADVANCED_BREP_SHAPE_REPRESENTATION ( '30DegreeeAngle_Default_sldprt', ( #10, #276, #325 ), #178 ) ;
#379 = ORIENTED_EDGE ( 'NONE', *, *, #133, .F. ) ;
#380 = LOCAL_TIME ( 22, 9, 29.00000000000000000, #89 ) ;
#381 = APPLICATION_PROTOCOL_DEFINITION ( 'international standard', 'config_control_design', 1994, #221 ) ;
#382 = ADVANCED_FACE ( 'NONE', ( #15 ), #69, .F. ) ;
#383 = PERSON_AND_ORGANIZATION ( #162, #275 ) ;
#384 = CARTESIAN_POINT ( 'NONE',  ( 0.000000000000000000, -10.00000000000000000, 0.000000000000000000 ) ) ;
#385 = DIRECTION ( 'NONE',  ( 0.000000000000000000, -0.8660254037844380415, -0.5000000000000009992 ) ) ;
#386 = AXIS2_PLACEMENT_3D ( 'NONE', #188, #355, #223 ) ;
#387 = AXIS2_PLACEMENT_3D ( 'NONE', #244, #184, #147 ) ;
#388 = DIRECTION ( 'NONE',  ( 0.000000000000000000, -0.5000000000000009992, 0.8660254037844381525 ) ) ;
#389 = ADVANCED_FACE ( 'NONE', ( #328 ), #284, .F. ) ;
#390 = COORDINATED_UNIVERSAL_TIME_OFFSET ( 5, 30, .AHEAD. ) ;
#391 = DIRECTION ( 'NONE',  ( 0.000000000000000000, 0.000000000000000000, 1.000000000000000000 ) ) ;
#392 = PRODUCT_DEFINITION_SHAPE ( 'NONE', 'NONE',  #36 ) ;
#393 = PERSON_AND_ORGANIZATION ( #162, #275 ) ;
#394 = DIRECTION ( 'NONE',  ( 0.000000000000000000, -1.000000000000000000, 0.000000000000000000 ) ) ;
#395 = APPROVAL_DATE_TIME ( #95, #23 ) ;
#396 = CC_DESIGN_SECURITY_CLASSIFICATION ( #90, ( #358 ) ) ;
#397 = DIRECTION ( 'NONE',  ( 0.000000000000000000, -0.8660254037844380415, -0.5000000000000011102 ) ) ;
#398 = ORIENTED_EDGE ( 'NONE', *, *, #222, .F. ) ;
#399 = EDGE_CURVE ( 'NONE', #259, #81, #363, .T. ) ;
#400 = DIRECTION ( 'NONE',  ( 0.000000000000000000, 0.000000000000000000, -1.000000000000000000 ) ) ;
#401 = EDGE_LOOP ( 'NONE', ( #371, #417 ) ) ;
#402 = DIRECTION ( 'NONE',  ( 0.000000000000000000, 1.000000000000000000, 0.000000000000000000 ) ) ;
#403 = ORIENTED_EDGE ( 'NONE', *, *, #318, .T. ) ;
#404 = CARTESIAN_POINT ( 'NONE',  ( 0.000000000000000000, -10.00000000000000000, 0.000000000000000000 ) ) ;
#405 = AXIS2_PLACEMENT_3D ( 'NONE', #132, #388, #98 ) ;
#406 = AXIS2_PLACEMENT_3D ( 'NONE', #204, #370, #195 ) ;
#407 = CARTESIAN_POINT ( 'NONE',  ( 9.184850993605147944E-16, -10.00000000000000000, 7.500000000000000000 ) ) ;
#408 = EDGE_CURVE ( 'NONE', #130, #30, #24, .T. ) ;
#409 = ORIENTED_EDGE ( 'NONE', *, *, #152, .F. ) ;
#410 = CARTESIAN_POINT ( 'NONE',  ( 0.000000000000000000, -10.00000000000000000, -7.500000000000000000 ) ) ;
#411 = FACE_OUTER_BOUND ( 'NONE', #171, .T. ) ;
#412 = AXIS2_PLACEMENT_3D ( 'NONE', #331, #191, #400 ) ;
#413 = EDGE_CURVE ( 'NONE', #130, #263, #6, .T. ) ;
#414 = CIRCLE ( 'NONE', #346, 7.500000000000000888 ) ;
#415 = EDGE_LOOP ( 'NONE', ( #337, #366 ) ) ;
#416 = APPROVAL_ROLE ( '' ) ;
#417 = ORIENTED_EDGE ( 'NONE', *, *, #279, .F. ) ;
#418 = CALENDAR_DATE ( 2026, 22, 8 ) ;
#419 = ORIENTED_EDGE ( 'NONE', *, *, #150, .T. ) ;
#420 = ADVANCED_FACE ( 'NONE', ( #295 ), #35, .T. ) ;
#421 = FACE_OUTER_BOUND ( 'NONE', #44, .T. ) ;
#422 = AXIS2_PLACEMENT_3D ( 'NONE', #322, #54, #29 ) ;
#423 = CARTESIAN_POINT ( 'NONE',  ( 0.000000000000000000, -1.734723475976807094E-15, 2.602085213965210642E-15 ) ) ;
ENDSEC;
END-ISO-10303-21;
