ISO-10303-21;
HEADER;
FILE_DESCRIPTION (( 'STEP AP203' ),
    '1' );
FILE_NAME ('30DegreeeAngle_down_sldprt.STEP',
    '2026-08-22T16:39:32',
    ( '' ),
    ( '' ),
    'SwSTEP 2.0',
    'SolidWorks 2020',
    '' );
FILE_SCHEMA (( 'CONFIG_CONTROL_DESIGN' ));
ENDSEC;

DATA;
#1 = CARTESIAN_POINT ( 'NONE',  ( 0.000000000000000000, -5.773502691896279515, 10.00000000000000000 ) ) ;
#2 = EDGE_LOOP ( 'NONE', ( #346, #357 ) ) ;
#3 = CC_DESIGN_SECURITY_CLASSIFICATION ( #174, ( #405 ) ) ;
#4 = DIRECTION ( 'NONE',  ( 0.000000000000000000, -0.000000000000000000, 1.000000000000000000 ) ) ;
#5 = VERTEX_POINT ( 'NONE', #304 ) ;
#6 = ORIENTED_EDGE ( 'NONE', *, *, #276, .T. ) ;
#7 = ORIENTED_EDGE ( 'NONE', *, *, #100, .T. ) ;
#8 = AXIS2_PLACEMENT_3D ( 'NONE', #161, #408, #123 ) ;
#9 = DIRECTION ( 'NONE',  ( 0.000000000000000000, 0.000000000000000000, -1.000000000000000000 ) ) ;
#10 = VERTEX_POINT ( 'NONE', #242 ) ;
#11 = CARTESIAN_POINT ( 'NONE',  ( 0.000000000000000000, -5.000000000000000000, -7.500000000000000000 ) ) ;
#12 = EDGE_CURVE ( 'NONE', #187, #141, #31, .T. ) ;
#13 = PLANE ( 'NONE',  #165 ) ;
#14 = EDGE_LOOP ( 'NONE', ( #105, #361, #249, #107, #215 ) ) ;
#15 = CYLINDRICAL_SURFACE ( 'NONE', #264, 10.00000000000000178 ) ;
#16 = DIRECTION ( 'NONE',  ( 0.000000000000000000, 1.000000000000000000, 0.000000000000000000 ) ) ;
#17 = LOCAL_TIME ( 22, 9, 32.00000000000000000, #58 ) ;
#18 = CARTESIAN_POINT ( 'NONE',  ( 1.224646799147353256E-15, -10.00000000000002132, 17.32050807568876394 ) ) ;
#19 = DIRECTION ( 'NONE',  ( 0.000000000000000000, 0.000000000000000000, -1.000000000000000000 ) ) ;
#20 = DIRECTION ( 'NONE',  ( 0.000000000000000000, 1.000000000000000000, 0.000000000000000000 ) ) ;
#21 = CARTESIAN_POINT ( 'NONE',  ( 7.453559924999302311, 0.000000000000000000, 6.666666666666662522 ) ) ;
#22 = CARTESIAN_POINT ( 'NONE',  ( 0.000000000000000000, -5.000000000000000000, 0.000000000000000000 ) ) ;
#23 = EDGE_CURVE ( 'NONE', #200, #5, #251, .T. ) ;
#24 = COORDINATED_UNIVERSAL_TIME_OFFSET ( 5, 30, .AHEAD. ) ;
#25 = APPROVAL_DATE_TIME ( #164, #452 ) ;
#26 = ADVANCED_FACE ( 'NONE', ( #173 ), #340, .F. ) ;
#27 = DIRECTION ( 'NONE',  ( 0.000000000000000000, 0.000000000000000000, -1.000000000000000000 ) ) ;
#28 = APPROVAL_DATE_TIME ( #455, #303 ) ;
#29 = ORIENTED_EDGE ( 'NONE', *, *, #104, .T. ) ;
#30 = AXIS2_PLACEMENT_3D ( 'NONE', #388, #430, #116 ) ;
#31 = LINE ( 'NONE', #272, #122 ) ;
#32 = EDGE_LOOP ( 'NONE', ( #72, #257 ) ) ;
#33 = CARTESIAN_POINT ( 'NONE',  ( 0.000000000000000000, -10.00000000000000000, 0.000000000000000000 ) ) ;
#34 = EDGE_LOOP ( 'NONE', ( #309, #247 ) ) ;
#35 = ADVANCED_FACE ( 'NONE', ( #267 ), #202, .F. ) ;
#36 = EDGE_LOOP ( 'NONE', ( #7, #29, #389, #208, #418 ) ) ;
#37 = DIRECTION ( 'NONE',  ( -0.000000000000000000, -1.000000000000000000, -0.000000000000000000 ) ) ;
#38 = ORIENTED_EDGE ( 'NONE', *, *, #384, .F. ) ;
#39 = CARTESIAN_POINT ( 'NONE',  ( 9.184850993605147944E-16, -10.00000000000000000, 7.500000000000000000 ) ) ;
#40 = EDGE_LOOP ( 'NONE', ( #76, #456 ) ) ;
#41 = AXIS2_PLACEMENT_3D ( 'NONE', #263, #261, #158 ) ;
#42 = CIRCLE ( 'NONE', #319, 10.00000000000000000 ) ;
#43 = ADVANCED_FACE ( 'NONE', ( #450, #135 ), #410, .T. ) ;
#44 = CARTESIAN_POINT ( 'NONE',  ( -5.527230199078922546, 0.000000000000000000, 2.359262452430158419 ) ) ;
#45 =( NAMED_UNIT ( * ) PLANE_ANGLE_UNIT ( ) SI_UNIT ( $, .RADIAN. ) );
#46 = AXIS2_PLACEMENT_3D ( 'NONE', #269, #413, #97 ) ;
#47 = ORIENTED_EDGE ( 'NONE', *, *, #334, .F. ) ;
#48 = FACE_OUTER_BOUND ( 'NONE', #115, .T. ) ;
#49 = CYLINDRICAL_SURFACE ( 'NONE', #345, 7.499999999999999112 ) ;
#50 = DIRECTION ( 'NONE',  ( 0.000000000000000000, -0.8660254037844381525, -0.5000000000000009992 ) ) ;
#51 = CARTESIAN_POINT ( 'NONE',  ( 2.889494588880577197, -5.773502691896270633, 10.00000000000000178 ) ) ;
#52 = PERSON_AND_ORGANIZATION_ROLE ( 'design_owner' ) ;
#53 = LOCAL_TIME ( 22, 9, 32.00000000000000000, #265 ) ;
#54 = VECTOR ( 'NONE', #386, 1000.000000000000114 ) ;
#55 = CARTESIAN_POINT ( 'NONE',  ( 0.000000000000000000, -1.339745962155639791, 22.32050807568877460 ) ) ;
#56 = EDGE_CURVE ( 'NONE', #187, #254, #199, .T. ) ;
#57 = DIRECTION ( 'NONE',  ( -0.000000000000000000, -0.5000000000000009992, 0.8660254037844381525 ) ) ;
#58 = COORDINATED_UNIVERSAL_TIME_OFFSET ( 5, 30, .AHEAD. ) ;
#59 = DATE_AND_TIME ( #236, #17 ) ;
#60 = VERTEX_POINT ( 'NONE', #350 ) ;
#61 = CALENDAR_DATE ( 2026, 22, 8 ) ;
#62 = ORIENTED_EDGE ( 'NONE', *, *, #136, .F. ) ;
#63 = CARTESIAN_POINT ( 'NONE',  ( 0.000000000000000000, 8.660254037844381969, 5.000000000000010658 ) ) ;
#64 = AXIS2_PLACEMENT_3D ( 'NONE', #293, #16, #186 ) ;
#65 = AXIS2_PLACEMENT_3D ( 'NONE', #217, #445, #260 ) ;
#66 = ADVANCED_BREP_SHAPE_REPRESENTATION ( '30DegreeeAngle_down_sldprt', ( #310, #207 ), #394 ) ;
#67 = CARTESIAN_POINT ( 'NONE',  ( 0.000000000000000000, -5.000000000000000000, 0.000000000000000000 ) ) ;
#68 = EDGE_LOOP ( 'NONE', ( #317, #277, #212, #118 ) ) ;
#69 = EDGE_CURVE ( 'NONE', #210, #322, #175, .T. ) ;
#70 = ORIENTED_EDGE ( 'NONE', *, *, #12, .F. ) ;
#71 = CC_DESIGN_DATE_AND_TIME_ASSIGNMENT ( #167, #414, ( #174 ) ) ;
#72 = ORIENTED_EDGE ( 'NONE', *, *, #312, .T. ) ;
#73 = CARTESIAN_POINT ( 'NONE',  ( 2.889494588880575865, 0.000000000000000000, 3.469446951953614189E-15 ) ) ;
#74 = ORIENTED_EDGE ( 'NONE', *, *, #156, .T. ) ;
#75 = LINE ( 'NONE', #176, #307 ) ;
#76 = ORIENTED_EDGE ( 'NONE', *, *, #384, .T. ) ;
#77 = CARTESIAN_POINT ( 'NONE',  ( 0.000000000000000000, -5.773502691896279515, 10.00000000000000000 ) ) ;
#78 = CARTESIAN_POINT ( 'NONE',  ( 0.000000000000000000, 3.660254037844370867, 13.66025403784439618 ) ) ;
#79 = CIRCLE ( 'NONE', #183, 7.500000000000000000 ) ;
#80 = ORIENTED_EDGE ( 'NONE', *, *, #56, .F. ) ;
#81 = DIRECTION ( 'NONE',  ( 0.000000000000000000, -1.000000000000000000, 0.000000000000000000 ) ) ;
#82 = CARTESIAN_POINT ( 'NONE',  ( 0.000000000000000000, -10.00000000000000000, 0.000000000000000000 ) ) ;
#83 = AXIS2_PLACEMENT_3D ( 'NONE', #205, #306, #342 ) ;
#84 = ORIENTED_EDGE ( 'NONE', *, *, #112, .F. ) ;
#85 = DIRECTION ( 'NONE',  ( -0.000000000000000000, 0.5000000000000009992, -0.8660254037844380415 ) ) ;
#86 = DIRECTION ( 'NONE',  ( 0.000000000000000000, 0.8660254037844380415, 0.5000000000000011102 ) ) ;
#87 = AXIS2_PLACEMENT_3D ( 'NONE', #194, #81, #159 ) ;
#88 = FACE_OUTER_BOUND ( 'NONE', #40, .T. ) ;
#89 = FACE_OUTER_BOUND ( 'NONE', #182, .T. ) ;
#90 = DIRECTION ( 'NONE',  ( -0.000000000000000000, 0.5000000000000009992, -0.8660254037844381525 ) ) ;
#91 = PERSON_AND_ORGANIZATION_ROLE ( 'creator' ) ;
#92 = EDGE_CURVE ( 'NONE', #141, #423, #274, .T. ) ;
#93 = APPROVAL_ROLE ( '' ) ;
#94 = CARTESIAN_POINT ( 'NONE',  ( 0.000000000000000000, -1.339745962155639791, 22.32050807568877460 ) ) ;
#95 = CC_DESIGN_APPROVAL ( #385, ( #405 ) ) ;
#96 = PERSON_AND_ORGANIZATION_ROLE ( 'design_supplier' ) ;
#97 = DIRECTION ( 'NONE',  ( 0.000000000000000000, -0.8660254037844380415, -0.5000000000000007772 ) ) ;
#98 = COORDINATED_UNIVERSAL_TIME_OFFSET ( 5, 30, .AHEAD. ) ;
#99 = DIRECTION ( 'NONE',  ( 0.000000000000000000, -0.5000000000000009992, 0.8660254037844380415 ) ) ;
#100 = EDGE_CURVE ( 'NONE', #152, #395, #338, .T. ) ;
#101 = CARTESIAN_POINT ( 'NONE',  ( -7.453559924999302311, 0.000000000000000000, 6.666666666666662522 ) ) ;
#102 = AXIS2_PLACEMENT_3D ( 'NONE', #287, #259, #19 ) ;
#103 = ORIENTED_EDGE ( 'NONE', *, *, #92, .F. ) ;
#104 = EDGE_CURVE ( 'NONE', #395, #179, #75, .T. ) ;
#105 = ORIENTED_EDGE ( 'NONE', *, *, #104, .F. ) ;
#106 = CARTESIAN_POINT ( 'NONE',  ( 0.000000000000000000, 17.32050807568876749, 10.00000000000001954 ) ) ;
#107 = ORIENTED_EDGE ( 'NONE', *, *, #23, .T. ) ;
#108 = CIRCLE ( 'NONE', #417, 10.00000000000000178 ) ;
#109 = CARTESIAN_POINT ( 'NONE',  ( -2.889494588880575421, 0.000000000000000000, 3.469446951953614189E-15 ) ) ;
#110 = AXIS2_PLACEMENT_3D ( 'NONE', #63, #286, #283 ) ;
#111 = ORIENTED_EDGE ( 'NONE', *, *, #253, .F. ) ;
#112 = EDGE_CURVE ( 'NONE', #395, #152, #349, .T. ) ;
#113 = DIRECTION ( 'NONE',  ( 0.000000000000000000, -1.000000000000000000, 0.000000000000000000 ) ) ;
#114 = DIRECTION ( 'NONE',  ( 0.000000000000000000, -0.8660254037844380415, -0.5000000000000009992 ) ) ;
#115 = EDGE_LOOP ( 'NONE', ( #315, #38, #422, #137 ) ) ;
#116 = DIRECTION ( 'NONE',  ( 0.000000000000000000, 0.000000000000000000, 1.000000000000000000 ) ) ;
#117 = CARTESIAN_POINT ( 'NONE',  ( 1.224646799147353256E-15, -10.00000000000000000, -10.00000000000000000 ) ) ;
#118 = ORIENTED_EDGE ( 'NONE', *, *, #366, .T. ) ;
#119 = CARTESIAN_POINT ( 'NONE',  ( 0.000000000000000000, -7.834936490538925824, 18.57050807568877104 ) ) ;
#120 = CC_DESIGN_PERSON_AND_ORGANIZATION_ASSIGNMENT ( #409, #234, ( #174 ) ) ;
#121 = MECHANICAL_CONTEXT ( 'NONE', #374, 'mechanical' ) ;
#122 = VECTOR ( 'NONE', #381, 1000.000000000000114 ) ;
#123 = DIRECTION ( 'NONE',  ( 0.000000000000000000, 0.000000000000000000, 1.000000000000000000 ) ) ;
#124 = PERSON_AND_ORGANIZATION ( #130, #197 ) ;
#125 = DIRECTION ( 'NONE',  ( 0.000000000000000000, 1.000000000000000000, 0.000000000000000000 ) ) ;
#126 = DIRECTION ( 'NONE',  ( 0.000000000000000000, -0.5000000000000009992, 0.8660254037844381525 ) ) ;
#127 = AXIS2_PLACEMENT_3D ( 'NONE', #444, #393, #114 ) ;
#128 = FACE_OUTER_BOUND ( 'NONE', #149, .T. ) ;
#129 = PERSON_AND_ORGANIZATION_ROLE ( 'creator' ) ;
#130 = PERSON ( 'UNSPECIFIED', 'UNSPECIFIED', 'UNSPECIFIED', ('UNSPECIFIED'), ('UNSPECIFIED'), ('UNSPECIFIED') ) ;
#131 = PERSON_AND_ORGANIZATION ( #130, #197 ) ;
#132 = DIRECTION ( 'NONE',  ( 0.000000000000000000, -0.8660254037844380415, -0.5000000000000009992 ) ) ;
#133 = LOCAL_TIME ( 22, 9, 32.00000000000000000, #98 ) ;
#134 = PERSON_AND_ORGANIZATION ( #130, #197 ) ;
#135 = FACE_OUTER_BOUND ( 'NONE', #34, .T. ) ;
#136 = EDGE_CURVE ( 'NONE', #60, #243, #324, .T. ) ;
#137 = ORIENTED_EDGE ( 'NONE', *, *, #190, .T. ) ;
#138 = CARTESIAN_POINT ( 'NONE',  ( -2.889494588880574977, -5.773502691896273298, 10.00000000000000178 ) ) ;
#139 = UNCERTAINTY_MEASURE_WITH_UNIT (LENGTH_MEASURE( 1.000000000000000082E-05 ), #402, 'distance_accuracy_value', 'NONE');
#140 = PRODUCT_DEFINITION ( 'UNKNOWN', '', #405, #420 ) ;
#141 = VERTEX_POINT ( 'NONE', #106 ) ;
#142 = CARTESIAN_POINT ( 'NONE',  ( 1.224646799147353256E-15, 0.000000000000000000, -10.00000000000000000 ) ) ;
#143 = EDGE_LOOP ( 'NONE', ( #353, #74, #232, #437 ) ) ;
#144 = EDGE_LOOP ( 'NONE', ( #111, #103 ) ) ;
#145 = CARTESIAN_POINT ( 'NONE',  ( 7.453559924999302311, 0.000000000000000000, 6.666666666666662522 ) ) ;
#146 = EDGE_LOOP ( 'NONE', ( #326, #80, #431, #288, #273, #275 ) ) ;
#147 = VECTOR ( 'NONE', #37, 1000.000000000000000 ) ;
#148 = FACE_OUTER_BOUND ( 'NONE', #144, .T. ) ;
#149 = EDGE_LOOP ( 'NONE', ( #47, #6, #177, #383, #168, #70 ) ) ;
#150 = CARTESIAN_POINT ( 'NONE',  ( 0.000000000000000000, 7.320508075688741734, 27.32050807568878525 ) ) ;
#151 = FACE_OUTER_BOUND ( 'NONE', #14, .T. ) ;
#152 = VERTEX_POINT ( 'NONE', #391 ) ;
#153 = LINE ( 'NONE', #229, #226 ) ;
#154 = APPLICATION_PROTOCOL_DEFINITION ( 'international standard', 'config_control_design', 1994, #374 ) ;
#155 = LOCAL_TIME ( 22, 9, 32.00000000000000000, #24 ) ;
#156 = EDGE_CURVE ( 'NONE', #279, #210, #178, .T. ) ;
#157 = CARTESIAN_POINT ( 'NONE',  ( 1.224646799147353256E-15, -10.00000000000002132, 17.32050807568876394 ) ) ;
#158 = DIRECTION ( 'NONE',  ( 0.000000000000000000, -0.000000000000000000, -1.000000000000000000 ) ) ;
#159 = DIRECTION ( 'NONE',  ( 0.000000000000000000, 0.000000000000000000, -1.000000000000000000 ) ) ;
#160 = DIRECTION ( 'NONE',  ( 1.000000000000000000, 0.000000000000000000, 0.000000000000000000 ) ) ;
#161 = CARTESIAN_POINT ( 'NONE',  ( 0.000000000000000000, 0.000000000000000000, 0.000000000000000000 ) ) ;
#162 = EDGE_CURVE ( 'NONE', #152, #200, #356, .T. ) ;
#163 = CC_DESIGN_PERSON_AND_ORGANIZATION_ASSIGNMENT ( #449, #91, ( #405 ) ) ;
#164 = DATE_AND_TIME ( #61, #133 ) ;
#165 = AXIS2_PLACEMENT_3D ( 'NONE', #329, #225, #195 ) ;
#166 = DATE_AND_TIME ( #412, #155 ) ;
#167 = DATE_AND_TIME ( #230, #53 ) ;
#168 = ORIENTED_EDGE ( 'NONE', *, *, #253, .T. ) ;
#169 = DIRECTION ( 'NONE',  ( -0.000000000000000000, -1.000000000000000000, -0.000000000000000000 ) ) ;
#170 = EDGE_CURVE ( 'NONE', #10, #60, #79, .T. ) ;
#171 = CIRCLE ( 'NONE', #426, 10.00000000000000178 ) ;
#172 = VERTEX_POINT ( 'NONE', #181 ) ;
#173 = FACE_OUTER_BOUND ( 'NONE', #387, .T. ) ;
#174 = SECURITY_CLASSIFICATION ( '', '', #339 ) ;
#175 = CIRCLE ( 'NONE', #46, 7.500000000000000888 ) ;
#176 = CARTESIAN_POINT ( 'NONE',  ( 1.224646799147353256E-15, -10.00000000000000000, -10.00000000000000000 ) ) ;
#177 = ORIENTED_EDGE ( 'NONE', *, *, #266, .F. ) ;
#178 = LINE ( 'NONE', #321, #54 ) ;
#179 = VERTEX_POINT ( 'NONE', #142 ) ;
#180 = EDGE_CURVE ( 'NONE', #423, #429, #301, .T. ) ;
#181 = CARTESIAN_POINT ( 'NONE',  ( 0.000000000000000000, -2.834936490538914722, 9.910254037844389075 ) ) ;
#182 = EDGE_LOOP ( 'NONE', ( #201, #376, #308, #244 ) ) ;
#183 = AXIS2_PLACEMENT_3D ( 'NONE', #397, #113, #9 ) ;
#184 = FACE_OUTER_BOUND ( 'NONE', #143, .T. ) ;
#185 = AXIS2_PLACEMENT_3D ( 'NONE', #67, #169, #27 ) ;
#186 = DIRECTION ( 'NONE',  ( 0.000000000000000000, 0.000000000000000000, 1.000000000000000000 ) ) ;
#187 = VERTEX_POINT ( 'NONE', #150 ) ;
#188 = CARTESIAN_POINT ( 'NONE',  ( 9.184850993605147944E-16, 10.15544456622765779, 17.41025403784440329 ) ) ;
#189 = DIRECTION ( 'NONE',  ( -0.000000000000000000, -0.5000000000000009992, 0.8660254037844381525 ) ) ;
#190 = EDGE_CURVE ( 'NONE', #322, #210, #337, .T. ) ;
#191 = CARTESIAN_POINT ( 'NONE',  ( 0.000000000000000000, -10.00000000000000000, 0.000000000000000000 ) ) ;
#192 = CIRCLE ( 'NONE', #102, 7.500000000000000000 ) ;
#193 = CARTESIAN_POINT ( 'NONE',  ( 0.000000000000000000, 3.660254037844370867, 13.66025403784439618 ) ) ;
#194 = CARTESIAN_POINT ( 'NONE',  ( 0.000000000000000000, -10.00000000000000000, 0.000000000000000000 ) ) ;
#195 = DIRECTION ( 'NONE',  ( 0.000000000000000000, -0.000000000000000000, 1.000000000000000000 ) ) ;
#196 = CYLINDRICAL_SURFACE ( 'NONE', #305, 10.00000000000000000 ) ;
#197 = ORGANIZATION ( 'UNSPECIFIED', 'UNSPECIFIED', '' ) ;
#198 = DATE_TIME_ROLE ( 'creation_date' ) ;
#199 = CIRCLE ( 'NONE', #457, 10.00000000000000178 ) ;
#200 = VERTEX_POINT ( 'NONE', #77 ) ;
#201 = ORIENTED_EDGE ( 'NONE', *, *, #216, .T. ) ;
#202 = CYLINDRICAL_SURFACE ( 'NONE', #83, 7.500000000000000000 ) ;
#203 = AXIS2_PLACEMENT_3D ( 'NONE', #441, #439, #435 ) ;
#204 = VECTOR ( 'NONE', #85, 1000.000000000000114 ) ;
#205 = CARTESIAN_POINT ( 'NONE',  ( 0.000000000000000000, -5.000000000000000000, 0.000000000000000000 ) ) ;
#206 = CC_DESIGN_PERSON_AND_ORGANIZATION_ASSIGNMENT ( #124, #52, ( #343 ) ) ;
#207 = AXIS2_PLACEMENT_3D ( 'NONE', #432, #220, #160 ) ;
#208 = ORIENTED_EDGE ( 'NONE', *, *, #266, .T. ) ;
#209 = DIRECTION ( 'NONE',  ( 0.000000000000000000, -0.5000000000000009992, 0.8660254037844381525 ) ) ;
#210 = VERTEX_POINT ( 'NONE', #434 ) ;
#211 = ADVANCED_FACE ( 'NONE', ( #359, #313 ), #281, .F. ) ;
#212 = ORIENTED_EDGE ( 'NONE', *, *, #136, .T. ) ;
#213 = CARTESIAN_POINT ( 'NONE',  ( 0.000000000000000000, 0.000000000000000000, 0.000000000000000000 ) ) ;
#214 = VECTOR ( 'NONE', #256, 1000.000000000000000 ) ;
#215 = ORIENTED_EDGE ( 'NONE', *, *, #373, .F. ) ;
#216 = EDGE_CURVE ( 'NONE', #5, #423, #392, .T. ) ;
#217 = CARTESIAN_POINT ( 'NONE',  ( 0.000000000000000000, 8.660254037844381969, 5.000000000000010658 ) ) ;
#218 = DIRECTION ( 'NONE',  ( 0.000000000000000000, 1.000000000000000000, 0.000000000000000000 ) ) ;
#219 = CC_DESIGN_PERSON_AND_ORGANIZATION_ASSIGNMENT ( #375, #129, ( #140 ) ) ;
#220 = DIRECTION ( 'NONE',  ( 0.000000000000000000, 0.000000000000000000, 1.000000000000000000 ) ) ;
#221 = DIRECTION ( 'NONE',  ( 0.000000000000000000, -0.8660254037844380415, -0.5000000000000011102 ) ) ;
#222 = CYLINDRICAL_SURFACE ( 'NONE', #203, 10.00000000000000178 ) ;
#223 = DIRECTION ( 'NONE',  ( 0.000000000000000000, 0.000000000000000000, 1.000000000000000000 ) ) ;
#224 = APPROVAL_PERSON_ORGANIZATION ( #370, #303, #93 ) ;
#225 = DIRECTION ( 'NONE',  ( 0.000000000000000000, 1.000000000000000000, 0.000000000000000000 ) ) ;
#226 = VECTOR ( 'NONE', #255, 1000.000000000000114 ) ;
#227 = CARTESIAN_POINT ( 'NONE',  ( 7.453559924999302311, 0.000000000000000000, 6.666666666666662522 ) ) ;
#228 = DIRECTION ( 'NONE',  ( 0.000000000000000000, -0.8660254037844381525, -0.5000000000000009992 ) ) ;
#229 = CARTESIAN_POINT ( 'NONE',  ( 0.000000000000000000, -2.834936490538914722, 9.910254037844389075 ) ) ;
#230 = CALENDAR_DATE ( 2026, 22, 8 ) ;
#231 = APPROVAL_STATUS ( 'not_yet_approved' ) ;
#232 = ORIENTED_EDGE ( 'NONE', *, *, #69, .T. ) ;
#233 = ADVANCED_FACE ( 'NONE', ( #184 ), #49, .F. ) ;
#234 = PERSON_AND_ORGANIZATION_ROLE ( 'classification_officer' ) ;
#235 = ORIENTED_EDGE ( 'NONE', *, *, #294, .T. ) ;
#236 = CALENDAR_DATE ( 2026, 22, 8 ) ;
#237 = DIRECTION ( 'NONE',  ( 0.000000000000000000, -0.8660254037844380415, -0.5000000000000011102 ) ) ;
#238 = VERTEX_POINT ( 'NONE', #39 ) ;
#239 = ADVANCED_FACE ( 'NONE', ( #148 ), #333, .F. ) ;
#240 = AXIS2_PLACEMENT_3D ( 'NONE', #78, #126, #228 ) ;
#241 = CIRCLE ( 'NONE', #8, 10.00000000000000000 ) ;
#242 = CARTESIAN_POINT ( 'NONE',  ( 9.184850993605147944E-16, -5.000000000000000000, 7.500000000000000000 ) ) ;
#243 = VERTEX_POINT ( 'NONE', #365 ) ;
#244 = ORIENTED_EDGE ( 'NONE', *, *, #373, .T. ) ;
#245 = CIRCLE ( 'NONE', #369, 7.500000000000000000 ) ;
#246 = CARTESIAN_POINT ( 'NONE',  ( 0.000000000000000000, -10.00000000000000000, 10.00000000000000000 ) ) ;
#247 = ORIENTED_EDGE ( 'NONE', *, *, #334, .T. ) ;
#248 = CARTESIAN_POINT ( 'NONE',  ( 0.000000000000000000, 3.660254037844370867, 13.66025403784439618 ) ) ;
#249 = ORIENTED_EDGE ( 'NONE', *, *, #162, .T. ) ;
#250 = DIRECTION ( 'NONE',  ( 0.000000000000000000, 1.000000000000000000, 0.000000000000000000 ) ) ;
#251 =( BOUNDED_CURVE ( )  B_SPLINE_CURVE ( 3, ( #1, #138, #415, #101 ),
 .UNSPECIFIED., .F., .T. ) 
 B_SPLINE_CURVE_WITH_KNOTS ( ( 4, 4 ),
 ( 3.141592653589793116, 3.982661324157724003 ),
 .UNSPECIFIED. ) 
 CURVE ( )  GEOMETRIC_REPRESENTATION_ITEM ( )  RATIONAL_B_SPLINE_CURVE ( ( 1.000000000000000000, 0.9419139527835176384, 0.9419139527835176384, 1.000000000000000000 ) ) 
 REPRESENTATION_ITEM ( '' )  );
#252 = CYLINDRICAL_SURFACE ( 'NONE', #64, 10.00000000000000000 ) ;
#253 = EDGE_CURVE ( 'NONE', #423, #141, #108, .T. ) ;
#254 = VERTEX_POINT ( 'NONE', #157 ) ;
#255 = DIRECTION ( 'NONE',  ( -0.000000000000000000, -0.5000000000000009992, 0.8660254037844380415 ) ) ;
#256 = DIRECTION ( 'NONE',  ( 0.000000000000000000, 1.000000000000000000, 0.000000000000000000 ) ) ;
#257 = ORIENTED_EDGE ( 'NONE', *, *, #170, .T. ) ;
#258 = DIRECTION ( 'NONE',  ( 0.000000000000000000, 0.000000000000000000, 1.000000000000000000 ) ) ;
#259 = DIRECTION ( 'NONE',  ( 0.000000000000000000, -1.000000000000000000, 0.000000000000000000 ) ) ;
#260 = DIRECTION ( 'NONE',  ( 0.000000000000000000, -0.8660254037844380415, -0.5000000000000009992 ) ) ;
#261 = DIRECTION ( 'NONE',  ( 0.000000000000000000, -1.000000000000000000, 0.000000000000000000 ) ) ;
#262 = CARTESIAN_POINT ( 'NONE',  ( 0.000000000000000000, -5.773502691896279515, 10.00000000000000000 ) ) ;
#263 = CARTESIAN_POINT ( 'NONE',  ( 0.000000000000000000, -5.000000000000000000, 0.000000000000000000 ) ) ;
#264 = AXIS2_PLACEMENT_3D ( 'NONE', #55, #90, #86 ) ;
#265 = COORDINATED_UNIVERSAL_TIME_OFFSET ( 5, 30, .AHEAD. ) ;
#266 = EDGE_CURVE ( 'NONE', #429, #200, #364, .T. ) ;
#267 = FACE_OUTER_BOUND ( 'NONE', #68, .T. ) ;
#268 = ADVANCED_FACE ( 'NONE', ( #48 ), #438, .F. ) ;
#269 = CARTESIAN_POINT ( 'NONE',  ( 0.000000000000000000, -1.339745962155639791, 22.32050807568877815 ) ) ;
#270 = APPROVAL_DATE_TIME ( #59, #385 ) ;
#271 = CARTESIAN_POINT ( 'NONE',  ( 0.000000000000000000, -1.339745962155639791, 22.32050807568877460 ) ) ;
#272 = CARTESIAN_POINT ( 'NONE',  ( 0.000000000000000000, 7.320508075688741734, 27.32050807568878525 ) ) ;
#273 = ORIENTED_EDGE ( 'NONE', *, *, #216, .F. ) ;
#274 = CIRCLE ( 'NONE', #110, 10.00000000000000178 ) ;
#275 = ORIENTED_EDGE ( 'NONE', *, *, #23, .F. ) ;
#276 = EDGE_CURVE ( 'NONE', #254, #200, #332, .T. ) ;
#277 = ORIENTED_EDGE ( 'NONE', *, *, #312, .F. ) ;
#278 = CARTESIAN_POINT ( 'NONE',  ( 5.527230199078922546, 0.000000000000000000, 2.359262452430155754 ) ) ;
#279 = VERTEX_POINT ( 'NONE', #188 ) ;
#280 = CIRCLE ( 'NONE', #87, 7.500000000000000000 ) ;
#281 = PLANE ( 'NONE',  #406 ) ;
#282 = ORIENTED_EDGE ( 'NONE', *, *, #100, .F. ) ;
#283 = DIRECTION ( 'NONE',  ( 0.000000000000000000, -0.8660254037844380415, -0.5000000000000009992 ) ) ;
#284 = EDGE_LOOP ( 'NONE', ( #282, #84 ) ) ;
#285 = ADVANCED_FACE ( 'NONE', ( #330 ), #196, .T. ) ;
#286 = DIRECTION ( 'NONE',  ( 0.000000000000000000, -0.5000000000000009992, 0.8660254037844380415 ) ) ;
#287 = CARTESIAN_POINT ( 'NONE',  ( 0.000000000000000000, -10.00000000000000000, 0.000000000000000000 ) ) ;
#288 = ORIENTED_EDGE ( 'NONE', *, *, #92, .T. ) ;
#289 = CARTESIAN_POINT ( 'NONE',  ( 5.527230199078922546, -3.730321473896976325, 8.820368773784919014 ) ) ;
#290 = CC_DESIGN_APPROVAL ( #303, ( #140 ) ) ;
#291 =( NAMED_UNIT ( * ) SI_UNIT ( $, .STERADIAN. ) SOLID_ANGLE_UNIT ( ) );
#292 = CARTESIAN_POINT ( 'NONE',  ( 0.000000000000000000, 3.660254037844370867, 13.66025403784439618 ) ) ;
#293 = CARTESIAN_POINT ( 'NONE',  ( 0.000000000000000000, -10.00000000000000000, 0.000000000000000000 ) ) ;
#294 = EDGE_CURVE ( 'NONE', #10, #238, #404, .T. ) ;
#295 = CARTESIAN_POINT ( 'NONE',  ( 0.000000000000000000, 0.000000000000000000, 0.000000000000000000 ) ) ;
#296 = PLANE ( 'NONE',  #41 ) ;
#297 = DIRECTION ( 'NONE',  ( 0.000000000000000000, -0.5000000000000009992, 0.8660254037844380415 ) ) ;
#298 = LOCAL_TIME ( 22, 9, 32.00000000000000000, #336 ) ;
#299 = PERSON_AND_ORGANIZATION ( #130, #197 ) ;
#300 = AXIS2_PLACEMENT_3D ( 'NONE', #354, #209, #316 ) ;
#301 =( BOUNDED_CURVE ( )  B_SPLINE_CURVE ( 3, ( #213, #73, #278, #145 ),
 .UNSPECIFIED., .F., .T. ) 
 B_SPLINE_CURVE_WITH_KNOTS ( ( 4, 4 ),
 ( 0.000000000000000000, 0.8410686705679311093 ),
 .UNSPECIFIED. ) 
 CURVE ( )  GEOMETRIC_REPRESENTATION_ITEM ( )  RATIONAL_B_SPLINE_CURVE ( ( 1.000000000000000000, 0.9419139527835176384, 0.9419139527835176384, 1.000000000000000000 ) ) 
 REPRESENTATION_ITEM ( '' )  );
#302 = CALENDAR_DATE ( 2026, 22, 8 ) ;
#303 = APPROVAL ( #231, 'UNSPECIFIED' ) ;
#304 = CARTESIAN_POINT ( 'NONE',  ( -7.453559924999302311, 0.000000000000000000, 6.666666666666662522 ) ) ;
#305 = AXIS2_PLACEMENT_3D ( 'NONE', #191, #20, #223 ) ;
#306 = DIRECTION ( 'NONE',  ( -0.000000000000000000, -1.000000000000000000, -0.000000000000000000 ) ) ;
#307 = VECTOR ( 'NONE', #250, 1000.000000000000000 ) ;
#308 = ORIENTED_EDGE ( 'NONE', *, *, #320, .T. ) ;
#309 = ORIENTED_EDGE ( 'NONE', *, *, #56, .T. ) ;
#310 = MANIFOLD_SOLID_BREP ( 'Cut-Extrude3', #421 ) ;
#311 = APPLICATION_CONTEXT ( 'configuration controlled 3d designs of mechanical parts and assemblies' ) ;
#312 = EDGE_CURVE ( 'NONE', #60, #10, #245, .T. ) ;
#313 = FACE_OUTER_BOUND ( 'NONE', #284, .T. ) ;
#314 = EDGE_LOOP ( 'NONE', ( #433, #355 ) ) ;
#315 = ORIENTED_EDGE ( 'NONE', *, *, #156, .F. ) ;
#316 = DIRECTION ( 'NONE',  ( 0.000000000000000000, -0.8660254037844380415, -0.5000000000000007772 ) ) ;
#317 = ORIENTED_EDGE ( 'NONE', *, *, #294, .F. ) ;
#318 = APPROVAL_PERSON_ORGANIZATION ( #299, #385, #341 ) ;
#319 = AXIS2_PLACEMENT_3D ( 'NONE', #295, #125, #258 ) ;
#320 = EDGE_CURVE ( 'NONE', #429, #179, #241, .T. ) ;
#321 = CARTESIAN_POINT ( 'NONE',  ( 9.184850993605147944E-16, 10.15544456622765601, 17.41025403784440329 ) ) ;
#322 = VERTEX_POINT ( 'NONE', #119 ) ;
#323 = PRODUCT_RELATED_PRODUCT_CATEGORY ( 'detail', '', ( #343 ) ) ;
#324 = LINE ( 'NONE', #11, #147 ) ;
#325 = CARTESIAN_POINT ( 'NONE',  ( 0.000000000000000000, 0.000000000000000000, 0.000000000000000000 ) ) ;
#326 = ORIENTED_EDGE ( 'NONE', *, *, #276, .F. ) ;
#327 = DIRECTION ( 'NONE',  ( 0.000000000000000000, -1.000000000000000000, 0.000000000000000000 ) ) ;
#328 = DIRECTION ( 'NONE',  ( 0.000000000000000000, 0.000000000000000000, 1.000000000000000000 ) ) ;
#329 = CARTESIAN_POINT ( 'NONE',  ( 0.000000000000000000, 0.000000000000000000, 0.000000000000000000 ) ) ;
#330 = FACE_OUTER_BOUND ( 'NONE', #36, .T. ) ;
#331 = APPLICATION_PROTOCOL_DEFINITION ( 'international standard', 'config_control_design', 1994, #311 ) ;
#332 = LINE ( 'NONE', #18, #204 ) ;
#333 = PLANE ( 'NONE',  #65 ) ;
#334 = EDGE_CURVE ( 'NONE', #254, #187, #171, .T. ) ;
#335 = ADVANCED_FACE ( 'NONE', ( #128 ), #15, .T. ) ;
#336 = COORDINATED_UNIVERSAL_TIME_OFFSET ( 5, 30, .AHEAD. ) ;
#337 = CIRCLE ( 'NONE', #300, 7.500000000000000888 ) ;
#338 = CIRCLE ( 'NONE', #398, 10.00000000000000000 ) ;
#339 = SECURITY_CLASSIFICATION_LEVEL ( 'unclassified' ) ;
#340 = CYLINDRICAL_SURFACE ( 'NONE', #185, 7.500000000000000000 ) ;
#341 = APPROVAL_ROLE ( '' ) ;
#342 = DIRECTION ( 'NONE',  ( 0.000000000000000000, 0.000000000000000000, -1.000000000000000000 ) ) ;
#343 = PRODUCT ( '30DegreeeAngle_down_sldprt', '30DegreeeAngle_down_sldprt', '', ( #121 ) ) ;
#344 = CC_DESIGN_APPROVAL ( #452, ( #174 ) ) ;
#345 = AXIS2_PLACEMENT_3D ( 'NONE', #248, #189, #352 ) ;
#346 = ORIENTED_EDGE ( 'NONE', *, *, #366, .F. ) ;
#347 = EDGE_CURVE ( 'NONE', #172, #322, #153, .T. ) ;
#348 = AXIS2_PLACEMENT_3D ( 'NONE', #271, #378, #132 ) ;
#349 = CIRCLE ( 'NONE', #30, 10.00000000000000000 ) ;
#350 = CARTESIAN_POINT ( 'NONE',  ( 0.000000000000000000, -5.000000000000000000, -7.500000000000000000 ) ) ;
#351 = CC_DESIGN_DATE_AND_TIME_ASSIGNMENT ( #166, #198, ( #140 ) ) ;
#352 = DIRECTION ( 'NONE',  ( 0.000000000000000000, -0.8660254037844381525, -0.5000000000000009992 ) ) ;
#353 = ORIENTED_EDGE ( 'NONE', *, *, #428, .F. ) ;
#354 = CARTESIAN_POINT ( 'NONE',  ( 0.000000000000000000, -1.339745962155639791, 22.32050807568877815 ) ) ;
#355 = ORIENTED_EDGE ( 'NONE', *, *, #69, .F. ) ;
#356 = LINE ( 'NONE', #246, #214 ) ;
#357 = ORIENTED_EDGE ( 'NONE', *, *, #419, .F. ) ;
#358 = AXIS2_PLACEMENT_3D ( 'NONE', #193, #367, #50 ) ;
#359 = FACE_BOUND ( 'NONE', #2, .T. ) ;
#360 = FACE_OUTER_BOUND ( 'NONE', #32, .T. ) ;
#361 = ORIENTED_EDGE ( 'NONE', *, *, #112, .T. ) ;
#362 = DIRECTION ( 'NONE',  ( 0.000000000000000000, -0.5000000000000009992, 0.8660254037844380415 ) ) ;
#363 = CARTESIAN_POINT ( 'NONE',  ( 0.000000000000000000, 0.000000000000000000, 0.000000000000000000 ) ) ;
#364 =( BOUNDED_CURVE ( )  B_SPLINE_CURVE ( 3, ( #227, #289, #51, #262 ),
 .UNSPECIFIED., .F., .F. ) 
 B_SPLINE_CURVE_WITH_KNOTS ( ( 4, 4 ),
 ( 2.300523983021862229, 3.141592653589793116 ),
 .UNSPECIFIED. ) 
 CURVE ( )  GEOMETRIC_REPRESENTATION_ITEM ( )  RATIONAL_B_SPLINE_CURVE ( ( 1.000000000000000000, 0.9419139527835176384, 0.9419139527835176384, 1.000000000000000000 ) ) 
 REPRESENTATION_ITEM ( '' )  );
#365 = CARTESIAN_POINT ( 'NONE',  ( 0.000000000000000000, -10.00000000000000000, -7.500000000000000000 ) ) ;
#366 = EDGE_CURVE ( 'NONE', #243, #238, #280, .T. ) ;
#367 = DIRECTION ( 'NONE',  ( 0.000000000000000000, -0.5000000000000009992, 0.8660254037844381525 ) ) ;
#368 = CARTESIAN_POINT ( 'NONE',  ( 0.000000000000000000, 8.660254037844381969, 5.000000000000010658 ) ) ;
#369 = AXIS2_PLACEMENT_3D ( 'NONE', #22, #327, #396 ) ;
#370 = PERSON_AND_ORGANIZATION ( #130, #197 ) ;
#371 = DIRECTION ( 'NONE',  ( 0.000000000000000000, -0.8660254037844380415, -0.5000000000000009992 ) ) ;
#372 = FACE_OUTER_BOUND ( 'NONE', #146, .T. ) ;
#373 = EDGE_CURVE ( 'NONE', #179, #5, #42, .T. ) ;
#374 = APPLICATION_CONTEXT ( 'configuration controlled 3d designs of mechanical parts and assemblies' ) ;
#375 = PERSON_AND_ORGANIZATION ( #130, #197 ) ;
#376 = ORIENTED_EDGE ( 'NONE', *, *, #180, .T. ) ;
#377 = APPROVAL_STATUS ( 'not_yet_approved' ) ;
#378 = DIRECTION ( 'NONE',  ( 0.000000000000000000, -0.5000000000000009992, 0.8660254037844380415 ) ) ;
#379 = APPROVAL_ROLE ( '' ) ;
#380 = ADVANCED_FACE ( 'NONE', ( #88 ), #407, .T. ) ;
#381 = DIRECTION ( 'NONE',  ( -0.000000000000000000, 0.5000000000000009992, -0.8660254037844380415 ) ) ;
#382 = VECTOR ( 'NONE', #440, 1000.000000000000000 ) ;
#383 = ORIENTED_EDGE ( 'NONE', *, *, #180, .F. ) ;
#384 = EDGE_CURVE ( 'NONE', #172, #279, #446, .T. ) ;
#385 = APPROVAL ( #447, 'UNSPECIFIED' ) ;
#386 = DIRECTION ( 'NONE',  ( -0.000000000000000000, -0.5000000000000009992, 0.8660254037844380415 ) ) ;
#387 = EDGE_LOOP ( 'NONE', ( #399, #235, #425, #62 ) ) ;
#388 = CARTESIAN_POINT ( 'NONE',  ( 0.000000000000000000, -10.00000000000000000, 0.000000000000000000 ) ) ;
#389 = ORIENTED_EDGE ( 'NONE', *, *, #320, .F. ) ;
#390 = ADVANCED_FACE ( 'NONE', ( #89 ), #13, .T. ) ;
#391 = CARTESIAN_POINT ( 'NONE',  ( 0.000000000000000000, -10.00000000000000000, 10.00000000000000000 ) ) ;
#392 =( BOUNDED_CURVE ( )  B_SPLINE_CURVE ( 3, ( #427, #44, #109, #363 ),
 .UNSPECIFIED., .F., .F. ) 
 B_SPLINE_CURVE_WITH_KNOTS ( ( 4, 4 ),
 ( 5.442116636611655345, 6.283185307179586232 ),
 .UNSPECIFIED. ) 
 CURVE ( )  GEOMETRIC_REPRESENTATION_ITEM ( )  RATIONAL_B_SPLINE_CURVE ( ( 1.000000000000000000, 0.9419139527835176384, 0.9419139527835176384, 1.000000000000000000 ) ) 
 REPRESENTATION_ITEM ( '' )  );
#393 = DIRECTION ( 'NONE',  ( 0.000000000000000000, -0.5000000000000009992, 0.8660254037844380415 ) ) ;
#394 =( GEOMETRIC_REPRESENTATION_CONTEXT ( 3 ) GLOBAL_UNCERTAINTY_ASSIGNED_CONTEXT ( ( #139 ) ) GLOBAL_UNIT_ASSIGNED_CONTEXT ( ( #402, #45, #291 ) ) REPRESENTATION_CONTEXT ( 'NONE', 'WORKASPACE' ) );
#395 = VERTEX_POINT ( 'NONE', #117 ) ;
#396 = DIRECTION ( 'NONE',  ( 0.000000000000000000, 0.000000000000000000, -1.000000000000000000 ) ) ;
#397 = CARTESIAN_POINT ( 'NONE',  ( 0.000000000000000000, -5.000000000000000000, 0.000000000000000000 ) ) ;
#398 = AXIS2_PLACEMENT_3D ( 'NONE', #33, #424, #328 ) ;
#399 = ORIENTED_EDGE ( 'NONE', *, *, #170, .F. ) ;
#400 = DIRECTION ( 'NONE',  ( 0.000000000000000000, -0.8660254037844381525, -0.5000000000000009992 ) ) ;
#401 = PRODUCT_DEFINITION_SHAPE ( 'NONE', 'NONE',  #140 ) ;
#402 =( LENGTH_UNIT ( ) NAMED_UNIT ( * ) SI_UNIT ( .MILLI., .METRE. ) );
#403 = CARTESIAN_POINT ( 'NONE',  ( 0.000000000000000000, -1.339745962155639791, 22.32050807568877460 ) ) ;
#404 = LINE ( 'NONE', #442, #382 ) ;
#405 = PRODUCT_DEFINITION_FORMATION_WITH_SPECIFIED_SOURCE ( 'ANY', '', #343, .NOT_KNOWN. ) ;
#406 = AXIS2_PLACEMENT_3D ( 'NONE', #82, #218, #4 ) ;
#407 = PLANE ( 'NONE',  #127 ) ;
#408 = DIRECTION ( 'NONE',  ( 0.000000000000000000, 1.000000000000000000, 0.000000000000000000 ) ) ;
#409 = PERSON_AND_ORGANIZATION ( #130, #197 ) ;
#410 = PLANE ( 'NONE',  #348 ) ;
#411 = ADVANCED_FACE ( 'NONE', ( #151 ), #252, .T. ) ;
#412 = CALENDAR_DATE ( 2026, 22, 8 ) ;
#413 = DIRECTION ( 'NONE',  ( 0.000000000000000000, -0.5000000000000009992, 0.8660254037844381525 ) ) ;
#414 = DATE_TIME_ROLE ( 'classification_date' ) ;
#415 = CARTESIAN_POINT ( 'NONE',  ( -5.527230199078920769, -3.730321473896978546, 8.820368773784924343 ) ) ;
#416 = CIRCLE ( 'NONE', #240, 7.499999999999999112 ) ;
#417 = AXIS2_PLACEMENT_3D ( 'NONE', #368, #362, #371 ) ;
#418 = ORIENTED_EDGE ( 'NONE', *, *, #162, .F. ) ;
#419 = EDGE_CURVE ( 'NONE', #238, #243, #192, .T. ) ;
#420 = DESIGN_CONTEXT ( 'detailed design', #311, 'design' ) ;
#421 = CLOSED_SHELL ( 'NONE', ( #233, #335, #26, #285, #411, #390, #211, #35, #451, #436, #43, #239, #268, #380 ) ) ;
#422 = ORIENTED_EDGE ( 'NONE', *, *, #347, .T. ) ;
#423 = VERTEX_POINT ( 'NONE', #325 ) ;
#424 = DIRECTION ( 'NONE',  ( 0.000000000000000000, 1.000000000000000000, 0.000000000000000000 ) ) ;
#425 = ORIENTED_EDGE ( 'NONE', *, *, #419, .T. ) ;
#426 = AXIS2_PLACEMENT_3D ( 'NONE', #403, #297, #221 ) ;
#427 = CARTESIAN_POINT ( 'NONE',  ( -7.453559924999302311, 0.000000000000000000, 6.666666666666662522 ) ) ;
#428 = EDGE_CURVE ( 'NONE', #279, #172, #416, .T. ) ;
#429 = VERTEX_POINT ( 'NONE', #21 ) ;
#430 = DIRECTION ( 'NONE',  ( 0.000000000000000000, 1.000000000000000000, 0.000000000000000000 ) ) ;
#431 = ORIENTED_EDGE ( 'NONE', *, *, #12, .T. ) ;
#432 = CARTESIAN_POINT ( 'NONE',  ( 0.000000000000000000, 0.000000000000000000, 0.000000000000000000 ) ) ;
#433 = ORIENTED_EDGE ( 'NONE', *, *, #190, .F. ) ;
#434 = CARTESIAN_POINT ( 'NONE',  ( 9.184850993605147944E-16, 5.155444566227646241, 26.07050807568878881 ) ) ;
#435 = DIRECTION ( 'NONE',  ( 0.000000000000000000, 0.8660254037844380415, 0.5000000000000011102 ) ) ;
#436 = ADVANCED_FACE ( 'NONE', ( #372 ), #222, .T. ) ;
#437 = ORIENTED_EDGE ( 'NONE', *, *, #347, .F. ) ;
#438 = CYLINDRICAL_SURFACE ( 'NONE', #454, 7.499999999999999112 ) ;
#439 = DIRECTION ( 'NONE',  ( -0.000000000000000000, 0.5000000000000009992, -0.8660254037844381525 ) ) ;
#440 = DIRECTION ( 'NONE',  ( -0.000000000000000000, -1.000000000000000000, -0.000000000000000000 ) ) ;
#441 = CARTESIAN_POINT ( 'NONE',  ( 0.000000000000000000, -1.339745962155639791, 22.32050807568877460 ) ) ;
#442 = CARTESIAN_POINT ( 'NONE',  ( 9.184850993605147944E-16, -5.000000000000000000, 7.500000000000000000 ) ) ;
#443 = CC_DESIGN_PERSON_AND_ORGANIZATION_ASSIGNMENT ( #131, #96, ( #405 ) ) ;
#444 = CARTESIAN_POINT ( 'NONE',  ( 0.000000000000000000, 3.660254037844370867, 13.66025403784439618 ) ) ;
#445 = DIRECTION ( 'NONE',  ( 0.000000000000000000, -0.5000000000000009992, 0.8660254037844380415 ) ) ;
#446 = CIRCLE ( 'NONE', #358, 7.499999999999999112 ) ;
#447 = APPROVAL_STATUS ( 'not_yet_approved' ) ;
#448 = SHAPE_DEFINITION_REPRESENTATION ( #401, #66 ) ;
#449 = PERSON_AND_ORGANIZATION ( #130, #197 ) ;
#450 = FACE_BOUND ( 'NONE', #314, .T. ) ;
#451 = ADVANCED_FACE ( 'NONE', ( #360 ), #296, .T. ) ;
#452 = APPROVAL ( #377, 'UNSPECIFIED' ) ;
#453 = APPROVAL_PERSON_ORGANIZATION ( #134, #452, #379 ) ;
#454 = AXIS2_PLACEMENT_3D ( 'NONE', #292, #57, #400 ) ;
#455 = DATE_AND_TIME ( #302, #298 ) ;
#456 = ORIENTED_EDGE ( 'NONE', *, *, #428, .T. ) ;
#457 = AXIS2_PLACEMENT_3D ( 'NONE', #94, #99, #237 ) ;
ENDSEC;
END-ISO-10303-21;
