ISO-10303-21;
HEADER;
FILE_DESCRIPTION (( 'STEP AP203' ),
    '1' );
FILE_NAME ('Cable_50_long_sldprt.STEP',
    '2026-08-22T16:39:46',
    ( '' ),
    ( '' ),
    'SwSTEP 2.0',
    'SolidWorks 2020',
    '' );
FILE_SCHEMA (( 'CONFIG_CONTROL_DESIGN' ));
ENDSEC;

DATA;
#1 = DIRECTION ( 'NONE',  ( -1.000000000000000000, 0.000000000000000000, 0.000000000000000000 ) ) ;
#2 = EDGE_CURVE ( 'NONE', #96, #106, #136, .T. ) ;
#3 = PLANE ( 'NONE',  #12 ) ;
#4 = AXIS2_PLACEMENT_3D ( 'NONE', #105, #129, #146 ) ;
#5 = PERSON_AND_ORGANIZATION ( #117, #60 ) ;
#6 = LOCAL_TIME ( 22, 9, 46.00000000000000000, #150 ) ;
#7 = CC_DESIGN_PERSON_AND_ORGANIZATION_ASSIGNMENT ( #167, #69, ( #78 ) ) ;
#8 = DIRECTION ( 'NONE',  ( 1.000000000000000000, 0.000000000000000000, -0.000000000000000000 ) ) ;
#9 = VECTOR ( 'NONE', #149, 1000.000000000000000 ) ;
#10 = APPROVAL ( #118, 'UNSPECIFIED' ) ;
#11 = DIRECTION ( 'NONE',  ( 1.000000000000000000, 0.000000000000000000, 0.000000000000000000 ) ) ;
#12 = AXIS2_PLACEMENT_3D ( 'NONE', #30, #32, #8 ) ;
#13 = CARTESIAN_POINT ( 'NONE',  ( 0.000000000000000000, 0.000000000000000000, 500.0000000000000000 ) ) ;
#14 = PRODUCT_DEFINITION_SHAPE ( 'NONE', 'NONE',  #37 ) ;
#15 = CARTESIAN_POINT ( 'NONE',  ( 7.500000000000000000, 9.184850993605147944E-16, 0.000000000000000000 ) ) ;
#16 = CC_DESIGN_PERSON_AND_ORGANIZATION_ASSIGNMENT ( #5, #97, ( #37 ) ) ;
#17 = FACE_OUTER_BOUND ( 'NONE', #75, .T. ) ;
#18 = ORIENTED_EDGE ( 'NONE', *, *, #2, .F. ) ;
#19 = APPROVAL_ROLE ( '' ) ;
#20 = EDGE_CURVE ( 'NONE', #28, #96, #134, .T. ) ;
#21 = CC_DESIGN_DATE_AND_TIME_ASSIGNMENT ( #164, #80, ( #37 ) ) ;
#22 = CLOSED_SHELL ( 'NONE', ( #90, #160, #115, #61 ) ) ;
#23 =( GEOMETRIC_REPRESENTATION_CONTEXT ( 3 ) GLOBAL_UNCERTAINTY_ASSIGNED_CONTEXT ( ( #123 ) ) GLOBAL_UNIT_ASSIGNED_CONTEXT ( ( #87, #73, #132 ) ) REPRESENTATION_CONTEXT ( 'NONE', 'WORKASPACE' ) );
#24 = CALENDAR_DATE ( 2026, 22, 8 ) ;
#25 = DIRECTION ( 'NONE',  ( 1.000000000000000000, 0.000000000000000000, -0.000000000000000000 ) ) ;
#26 = APPROVAL_PERSON_ORGANIZATION ( #173, #85, #111 ) ;
#27 = CARTESIAN_POINT ( 'NONE',  ( 0.000000000000000000, 0.000000000000000000, 500.0000000000000000 ) ) ;
#28 = VERTEX_POINT ( 'NONE', #159 ) ;
#29 = ORIENTED_EDGE ( 'NONE', *, *, #119, .F. ) ;
#30 = CARTESIAN_POINT ( 'NONE',  ( 0.000000000000000000, 0.000000000000000000, 0.000000000000000000 ) ) ;
#31 = CC_DESIGN_SECURITY_CLASSIFICATION ( #110, ( #64 ) ) ;
#32 = DIRECTION ( 'NONE',  ( 0.000000000000000000, 0.000000000000000000, 1.000000000000000000 ) ) ;
#33 = ORIENTED_EDGE ( 'NONE', *, *, #20, .T. ) ;
#34 = CC_DESIGN_APPROVAL ( #10, ( #37 ) ) ;
#35 = CALENDAR_DATE ( 2026, 22, 8 ) ;
#36 = DATE_TIME_ROLE ( 'classification_date' ) ;
#37 = PRODUCT_DEFINITION ( 'UNKNOWN', '', #64, #95 ) ;
#38 = APPROVAL_STATUS ( 'not_yet_approved' ) ;
#39 = CARTESIAN_POINT ( 'NONE',  ( -7.500000000000000000, 0.000000000000000000, 0.000000000000000000 ) ) ;
#40 = COORDINATED_UNIVERSAL_TIME_OFFSET ( 5, 30, .AHEAD. ) ;
#41 = EDGE_CURVE ( 'NONE', #106, #76, #158, .T. ) ;
#42 = CARTESIAN_POINT ( 'NONE',  ( 7.500000000000000000, 9.184850993605147944E-16, 500.0000000000000000 ) ) ;
#43 = ORIENTED_EDGE ( 'NONE', *, *, #2, .T. ) ;
#44 = AXIS2_PLACEMENT_3D ( 'NONE', #133, #58, #108 ) ;
#45 = DIRECTION ( 'NONE',  ( -0.000000000000000000, -0.000000000000000000, -1.000000000000000000 ) ) ;
#46 = EDGE_LOOP ( 'NONE', ( #18, #156, #56, #77 ) ) ;
#47 = CC_DESIGN_PERSON_AND_ORGANIZATION_ASSIGNMENT ( #65, #126, ( #110 ) ) ;
#48 = ORIENTED_EDGE ( 'NONE', *, *, #41, .T. ) ;
#49 = DATE_AND_TIME ( #112, #100 ) ;
#50 = APPROVAL_DATE_TIME ( #86, #10 ) ;
#51 = EDGE_CURVE ( 'NONE', #96, #28, #59, .T. ) ;
#52 = MANIFOLD_SOLID_BREP ( 'Boss-Extrude1', #22 ) ;
#53 = PERSON_AND_ORGANIZATION_ROLE ( 'design_supplier' ) ;
#54 = PERSON_AND_ORGANIZATION ( #117, #60 ) ;
#55 = CYLINDRICAL_SURFACE ( 'NONE', #83, 7.500000000000000000 ) ;
#56 = ORIENTED_EDGE ( 'NONE', *, *, #119, .T. ) ;
#57 = LINE ( 'NONE', #142, #70 ) ;
#58 = DIRECTION ( 'NONE',  ( 0.000000000000000000, 0.000000000000000000, 1.000000000000000000 ) ) ;
#59 = CIRCLE ( 'NONE', #99, 7.500000000000000000 ) ;
#60 = ORGANIZATION ( 'UNSPECIFIED', 'UNSPECIFIED', '' ) ;
#61 = ADVANCED_FACE ( 'NONE', ( #17 ), #3, .F. ) ;
#62 = DIRECTION ( 'NONE',  ( 0.000000000000000000, 0.000000000000000000, 1.000000000000000000 ) ) ;
#63 = CIRCLE ( 'NONE', #4, 7.500000000000000000 ) ;
#64 = PRODUCT_DEFINITION_FORMATION_WITH_SPECIFIED_SOURCE ( 'ANY', '', #78, .NOT_KNOWN. ) ;
#65 = PERSON_AND_ORGANIZATION ( #117, #60 ) ;
#66 = PERSON_AND_ORGANIZATION ( #117, #60 ) ;
#67 = APPROVAL_PERSON_ORGANIZATION ( #161, #151, #19 ) ;
#68 = APPLICATION_PROTOCOL_DEFINITION ( 'international standard', 'config_control_design', 1994, #103 ) ;
#69 = PERSON_AND_ORGANIZATION_ROLE ( 'design_owner' ) ;
#70 = VECTOR ( 'NONE', #45, 1000.000000000000000 ) ;
#71 = LOCAL_TIME ( 22, 9, 46.00000000000000000, #124 ) ;
#72 = DIRECTION ( 'NONE',  ( -0.000000000000000000, -0.000000000000000000, -1.000000000000000000 ) ) ;
#73 =( NAMED_UNIT ( * ) PLANE_ANGLE_UNIT ( ) SI_UNIT ( $, .RADIAN. ) );
#74 = CARTESIAN_POINT ( 'NONE',  ( 0.000000000000000000, 0.000000000000000000, 500.0000000000000000 ) ) ;
#75 = EDGE_LOOP ( 'NONE', ( #120, #169 ) ) ;
#76 = VERTEX_POINT ( 'NONE', #39 ) ;
#77 = ORIENTED_EDGE ( 'NONE', *, *, #104, .T. ) ;
#78 = PRODUCT ( 'Cable_50_long_sldprt', 'Cable_50_long_sldprt', '', ( #84 ) ) ;
#79 = PERSON_AND_ORGANIZATION_ROLE ( 'creator' ) ;
#80 = DATE_TIME_ROLE ( 'creation_date' ) ;
#81 = COORDINATED_UNIVERSAL_TIME_OFFSET ( 5, 30, .AHEAD. ) ;
#82 = APPLICATION_CONTEXT ( 'configuration controlled 3d designs of mechanical parts and assemblies' ) ;
#83 = AXIS2_PLACEMENT_3D ( 'NONE', #27, #72, #131 ) ;
#84 = MECHANICAL_CONTEXT ( 'NONE', #82, 'mechanical' ) ;
#85 = APPROVAL ( #98, 'UNSPECIFIED' ) ;
#86 = DATE_AND_TIME ( #24, #135 ) ;
#87 =( LENGTH_UNIT ( ) NAMED_UNIT ( * ) SI_UNIT ( .MILLI., .METRE. ) );
#88 = AXIS2_PLACEMENT_3D ( 'NONE', #128, #170, #1 ) ;
#89 = EDGE_LOOP ( 'NONE', ( #33, #145 ) ) ;
#90 = ADVANCED_FACE ( 'NONE', ( #168 ), #143, .T. ) ;
#91 = CC_DESIGN_DATE_AND_TIME_ASSIGNMENT ( #49, #36, ( #110 ) ) ;
#92 = APPLICATION_PROTOCOL_DEFINITION ( 'international standard', 'config_control_design', 1994, #82 ) ;
#93 = DIRECTION ( 'NONE',  ( 0.000000000000000000, 0.000000000000000000, 1.000000000000000000 ) ) ;
#94 = EDGE_LOOP ( 'NONE', ( #109, #43, #48, #29 ) ) ;
#95 = DESIGN_CONTEXT ( 'detailed design', #103, 'design' ) ;
#96 = VERTEX_POINT ( 'NONE', #42 ) ;
#97 = PERSON_AND_ORGANIZATION_ROLE ( 'creator' ) ;
#98 = APPROVAL_STATUS ( 'not_yet_approved' ) ;
#99 = AXIS2_PLACEMENT_3D ( 'NONE', #157, #93, #147 ) ;
#100 = LOCAL_TIME ( 22, 9, 46.00000000000000000, #81 ) ;
#101 = PRODUCT_RELATED_PRODUCT_CATEGORY ( 'detail', '', ( #78 ) ) ;
#102 = DIRECTION ( 'NONE',  ( 0.000000000000000000, 0.000000000000000000, 1.000000000000000000 ) ) ;
#103 = APPLICATION_CONTEXT ( 'configuration controlled 3d designs of mechanical parts and assemblies' ) ;
#104 = EDGE_CURVE ( 'NONE', #76, #106, #63, .T. ) ;
#105 = CARTESIAN_POINT ( 'NONE',  ( 0.000000000000000000, 0.000000000000000000, 0.000000000000000000 ) ) ;
#106 = VERTEX_POINT ( 'NONE', #15 ) ;
#107 = FACE_OUTER_BOUND ( 'NONE', #89, .T. ) ;
#108 = DIRECTION ( 'NONE',  ( 1.000000000000000000, 0.000000000000000000, 0.000000000000000000 ) ) ;
#109 = ORIENTED_EDGE ( 'NONE', *, *, #51, .F. ) ;
#110 = SECURITY_CLASSIFICATION ( '', '', #171 ) ;
#111 = APPROVAL_ROLE ( '' ) ;
#112 = CALENDAR_DATE ( 2026, 22, 8 ) ;
#113 = LOCAL_TIME ( 22, 9, 46.00000000000000000, #138 ) ;
#114 = DATE_AND_TIME ( #140, #6 ) ;
#115 = ADVANCED_FACE ( 'NONE', ( #107 ), #155, .T. ) ;
#116 = AXIS2_PLACEMENT_3D ( 'NONE', #13, #102, #25 ) ;
#117 = PERSON ( 'UNSPECIFIED', 'UNSPECIFIED', 'UNSPECIFIED', ('UNSPECIFIED'), ('UNSPECIFIED'), ('UNSPECIFIED') ) ;
#118 = APPROVAL_STATUS ( 'not_yet_approved' ) ;
#119 = EDGE_CURVE ( 'NONE', #28, #76, #57, .T. ) ;
#120 = ORIENTED_EDGE ( 'NONE', *, *, #104, .F. ) ;
#121 = DIRECTION ( 'NONE',  ( 1.000000000000000000, 0.000000000000000000, 0.000000000000000000 ) ) ;
#122 = CC_DESIGN_PERSON_AND_ORGANIZATION_ASSIGNMENT ( #66, #79, ( #64 ) ) ;
#123 = UNCERTAINTY_MEASURE_WITH_UNIT (LENGTH_MEASURE( 1.000000000000000082E-05 ), #87, 'distance_accuracy_value', 'NONE');
#124 = COORDINATED_UNIVERSAL_TIME_OFFSET ( 5, 30, .AHEAD. ) ;
#125 = CC_DESIGN_PERSON_AND_ORGANIZATION_ASSIGNMENT ( #137, #53, ( #64 ) ) ;
#126 = PERSON_AND_ORGANIZATION_ROLE ( 'classification_officer' ) ;
#127 = APPROVAL_DATE_TIME ( #114, #151 ) ;
#128 = CARTESIAN_POINT ( 'NONE',  ( 0.000000000000000000, 0.000000000000000000, 500.0000000000000000 ) ) ;
#129 = DIRECTION ( 'NONE',  ( 0.000000000000000000, 0.000000000000000000, 1.000000000000000000 ) ) ;
#130 = ADVANCED_BREP_SHAPE_REPRESENTATION ( 'Cable_50_long_sldprt', ( #52, #153 ), #23 ) ;
#131 = DIRECTION ( 'NONE',  ( -1.000000000000000000, 0.000000000000000000, 0.000000000000000000 ) ) ;
#132 =( NAMED_UNIT ( * ) SI_UNIT ( $, .STERADIAN. ) SOLID_ANGLE_UNIT ( ) );
#133 = CARTESIAN_POINT ( 'NONE',  ( 0.000000000000000000, 0.000000000000000000, 0.000000000000000000 ) ) ;
#134 = CIRCLE ( 'NONE', #141, 7.500000000000000000 ) ;
#135 = LOCAL_TIME ( 22, 9, 46.00000000000000000, #40 ) ;
#136 = LINE ( 'NONE', #148, #9 ) ;
#137 = PERSON_AND_ORGANIZATION ( #117, #60 ) ;
#138 = COORDINATED_UNIVERSAL_TIME_OFFSET ( 5, 30, .AHEAD. ) ;
#139 = APPROVAL_DATE_TIME ( #172, #85 ) ;
#140 = CALENDAR_DATE ( 2026, 22, 8 ) ;
#141 = AXIS2_PLACEMENT_3D ( 'NONE', #74, #62, #121 ) ;
#142 = CARTESIAN_POINT ( 'NONE',  ( -7.500000000000000000, 0.000000000000000000, 500.0000000000000000 ) ) ;
#143 = CYLINDRICAL_SURFACE ( 'NONE', #88, 7.500000000000000000 ) ;
#144 = CARTESIAN_POINT ( 'NONE',  ( 0.000000000000000000, 0.000000000000000000, 0.000000000000000000 ) ) ;
#145 = ORIENTED_EDGE ( 'NONE', *, *, #51, .T. ) ;
#146 = DIRECTION ( 'NONE',  ( 1.000000000000000000, 0.000000000000000000, 0.000000000000000000 ) ) ;
#147 = DIRECTION ( 'NONE',  ( 1.000000000000000000, 0.000000000000000000, 0.000000000000000000 ) ) ;
#148 = CARTESIAN_POINT ( 'NONE',  ( 7.500000000000000000, 9.184850993605147944E-16, 500.0000000000000000 ) ) ;
#149 = DIRECTION ( 'NONE',  ( -0.000000000000000000, -0.000000000000000000, -1.000000000000000000 ) ) ;
#150 = COORDINATED_UNIVERSAL_TIME_OFFSET ( 5, 30, .AHEAD. ) ;
#151 = APPROVAL ( #38, 'UNSPECIFIED' ) ;
#152 = FACE_OUTER_BOUND ( 'NONE', #46, .T. ) ;
#153 = AXIS2_PLACEMENT_3D ( 'NONE', #144, #154, #11 ) ;
#154 = DIRECTION ( 'NONE',  ( 0.000000000000000000, 0.000000000000000000, 1.000000000000000000 ) ) ;
#155 = PLANE ( 'NONE',  #116 ) ;
#156 = ORIENTED_EDGE ( 'NONE', *, *, #20, .F. ) ;
#157 = CARTESIAN_POINT ( 'NONE',  ( 0.000000000000000000, 0.000000000000000000, 500.0000000000000000 ) ) ;
#158 = CIRCLE ( 'NONE', #44, 7.500000000000000000 ) ;
#159 = CARTESIAN_POINT ( 'NONE',  ( -7.500000000000000000, 0.000000000000000000, 500.0000000000000000 ) ) ;
#160 = ADVANCED_FACE ( 'NONE', ( #152 ), #55, .T. ) ;
#161 = PERSON_AND_ORGANIZATION ( #117, #60 ) ;
#162 = CALENDAR_DATE ( 2026, 22, 8 ) ;
#163 = APPROVAL_PERSON_ORGANIZATION ( #54, #10, #166 ) ;
#164 = DATE_AND_TIME ( #35, #113 ) ;
#165 = SHAPE_DEFINITION_REPRESENTATION ( #14, #130 ) ;
#166 = APPROVAL_ROLE ( '' ) ;
#167 = PERSON_AND_ORGANIZATION ( #117, #60 ) ;
#168 = FACE_OUTER_BOUND ( 'NONE', #94, .T. ) ;
#169 = ORIENTED_EDGE ( 'NONE', *, *, #41, .F. ) ;
#170 = DIRECTION ( 'NONE',  ( -0.000000000000000000, -0.000000000000000000, -1.000000000000000000 ) ) ;
#171 = SECURITY_CLASSIFICATION_LEVEL ( 'unclassified' ) ;
#172 = DATE_AND_TIME ( #162, #71 ) ;
#173 = PERSON_AND_ORGANIZATION ( #117, #60 ) ;
#174 = CC_DESIGN_APPROVAL ( #151, ( #64 ) ) ;
#175 = CC_DESIGN_APPROVAL ( #85, ( #110 ) ) ;
ENDSEC;
END-ISO-10303-21;
