ISO-10303-21;
HEADER;
FILE_DESCRIPTION (( 'STEP AP203' ),
    '1' );
FILE_NAME ('Cable_100_long_sldprt.STEP',
    '2026-08-22T16:39:43',
    ( '' ),
    ( '' ),
    'SwSTEP 2.0',
    'SolidWorks 2020',
    '' );
FILE_SCHEMA (( 'CONFIG_CONTROL_DESIGN' ));
ENDSEC;

DATA;
#1 = COORDINATED_UNIVERSAL_TIME_OFFSET ( 5, 30, .AHEAD. ) ;
#2 = COORDINATED_UNIVERSAL_TIME_OFFSET ( 5, 30, .AHEAD. ) ;
#3 = ADVANCED_FACE ( 'NONE', ( #6 ), #53, .T. ) ;
#4 = ORIENTED_EDGE ( 'NONE', *, *, #100, .T. ) ;
#5 = APPLICATION_CONTEXT ( 'configuration controlled 3d designs of mechanical parts and assemblies' ) ;
#6 = FACE_OUTER_BOUND ( 'NONE', #22, .T. ) ;
#7 = ADVANCED_FACE ( 'NONE', ( #145 ), #40, .F. ) ;
#8 = ORIENTED_EDGE ( 'NONE', *, *, #102, .T. ) ;
#9 = DIRECTION ( 'NONE',  ( 1.000000000000000000, 0.000000000000000000, 0.000000000000000000 ) ) ;
#10 = PERSON_AND_ORGANIZATION ( #74, #65 ) ;
#11 = ORIENTED_EDGE ( 'NONE', *, *, #59, .F. ) ;
#12 = SHAPE_DEFINITION_REPRESENTATION ( #116, #154 ) ;
#13 = CIRCLE ( 'NONE', #46, 7.500000000000000000 ) ;
#14 = DIRECTION ( 'NONE',  ( -0.000000000000000000, -0.000000000000000000, -1.000000000000000000 ) ) ;
#15 = APPROVAL_ROLE ( '' ) ;
#16 = COORDINATED_UNIVERSAL_TIME_OFFSET ( 5, 30, .AHEAD. ) ;
#17 = AXIS2_PLACEMENT_3D ( 'NONE', #66, #28, #9 ) ;
#18 = DESIGN_CONTEXT ( 'detailed design', #5, 'design' ) ;
#19 = CC_DESIGN_PERSON_AND_ORGANIZATION_ASSIGNMENT ( #10, #137, ( #140 ) ) ;
#20 = PRODUCT ( 'Cable_100_long_sldprt', 'Cable_100_long_sldprt', '', ( #78 ) ) ;
#21 = VERTEX_POINT ( 'NONE', #155 ) ;
#22 = EDGE_LOOP ( 'NONE', ( #50, #168 ) ) ;
#23 = DIRECTION ( 'NONE',  ( -0.000000000000000000, -0.000000000000000000, -1.000000000000000000 ) ) ;
#24 = PERSON_AND_ORGANIZATION ( #74, #65 ) ;
#25 = DIRECTION ( 'NONE',  ( 0.000000000000000000, 0.000000000000000000, 1.000000000000000000 ) ) ;
#26 = APPROVAL_DATE_TIME ( #153, #58 ) ;
#27 = APPROVAL_PERSON_ORGANIZATION ( #82, #58, #15 ) ;
#28 = DIRECTION ( 'NONE',  ( 0.000000000000000000, 0.000000000000000000, 1.000000000000000000 ) ) ;
#29 = PERSON_AND_ORGANIZATION ( #74, #65 ) ;
#30 = EDGE_LOOP ( 'NONE', ( #107, #172 ) ) ;
#31 = SECURITY_CLASSIFICATION_LEVEL ( 'unclassified' ) ;
#32 = LOCAL_TIME ( 22, 9, 43.00000000000000000, #2 ) ;
#33 = APPROVAL_DATE_TIME ( #52, #174 ) ;
#34 = ORIENTED_EDGE ( 'NONE', *, *, #102, .F. ) ;
#35 = AXIS2_PLACEMENT_3D ( 'NONE', #132, #118, #119 ) ;
#36 = VERTEX_POINT ( 'NONE', #151 ) ;
#37 = VERTEX_POINT ( 'NONE', #94 ) ;
#38 = LOCAL_TIME ( 22, 9, 43.00000000000000000, #1 ) ;
#39 = EDGE_CURVE ( 'NONE', #37, #21, #56, .T. ) ;
#40 = PLANE ( 'NONE',  #127 ) ;
#41 = COORDINATED_UNIVERSAL_TIME_OFFSET ( 5, 30, .AHEAD. ) ;
#42 = DIRECTION ( 'NONE',  ( 0.000000000000000000, 0.000000000000000000, 1.000000000000000000 ) ) ;
#43 = CARTESIAN_POINT ( 'NONE',  ( 0.000000000000000000, 0.000000000000000000, 0.000000000000000000 ) ) ;
#44 =( NAMED_UNIT ( * ) SI_UNIT ( $, .STERADIAN. ) SOLID_ANGLE_UNIT ( ) );
#45 = CC_DESIGN_DATE_AND_TIME_ASSIGNMENT ( #123, #55, ( #140 ) ) ;
#46 = AXIS2_PLACEMENT_3D ( 'NONE', #149, #25, #103 ) ;
#47 = CLOSED_SHELL ( 'NONE', ( #141, #164, #3, #7 ) ) ;
#48 = CC_DESIGN_APPROVAL ( #174, ( #109 ) ) ;
#49 = CARTESIAN_POINT ( 'NONE',  ( -7.500000000000000000, 0.000000000000000000, 2000.000000000000000 ) ) ;
#50 = ORIENTED_EDGE ( 'NONE', *, *, #126, .T. ) ;
#51 = EDGE_LOOP ( 'NONE', ( #11, #146, #8, #4 ) ) ;
#52 = DATE_AND_TIME ( #84, #38 ) ;
#53 = PLANE ( 'NONE',  #35 ) ;
#54 = PERSON_AND_ORGANIZATION ( #74, #65 ) ;
#55 = DATE_TIME_ROLE ( 'classification_date' ) ;
#56 = CIRCLE ( 'NONE', #101, 7.500000000000000000 ) ;
#57 = EDGE_LOOP ( 'NONE', ( #96, #75, #106, #34 ) ) ;
#58 = APPROVAL ( #85, 'UNSPECIFIED' ) ;
#59 = EDGE_CURVE ( 'NONE', #37, #36, #83, .T. ) ;
#60 = CC_DESIGN_SECURITY_CLASSIFICATION ( #140, ( #109 ) ) ;
#61 = APPROVAL_PERSON_ORGANIZATION ( #157, #174, #148 ) ;
#62 = FACE_OUTER_BOUND ( 'NONE', #51, .T. ) ;
#63 =( NAMED_UNIT ( * ) PLANE_ANGLE_UNIT ( ) SI_UNIT ( $, .RADIAN. ) );
#64 = APPROVAL_STATUS ( 'not_yet_approved' ) ;
#65 = ORGANIZATION ( 'UNSPECIFIED', 'UNSPECIFIED', '' ) ;
#66 = CARTESIAN_POINT ( 'NONE',  ( 0.000000000000000000, 0.000000000000000000, 0.000000000000000000 ) ) ;
#67 = PERSON_AND_ORGANIZATION_ROLE ( 'design_owner' ) ;
#68 = DATE_AND_TIME ( #131, #32 ) ;
#69 = CALENDAR_DATE ( 2026, 22, 8 ) ;
#70 = LOCAL_TIME ( 22, 9, 43.00000000000000000, #158 ) ;
#71 = PRODUCT_DEFINITION ( 'UNKNOWN', '', #109, #18 ) ;
#72 = CC_DESIGN_APPROVAL ( #58, ( #71 ) ) ;
#73 = CC_DESIGN_PERSON_AND_ORGANIZATION_ASSIGNMENT ( #54, #113, ( #109 ) ) ;
#74 = PERSON ( 'UNSPECIFIED', 'UNSPECIFIED', 'UNSPECIFIED', ('UNSPECIFIED'), ('UNSPECIFIED'), ('UNSPECIFIED') ) ;
#75 = ORIENTED_EDGE ( 'NONE', *, *, #59, .T. ) ;
#76 = DIRECTION ( 'NONE',  ( 0.000000000000000000, 0.000000000000000000, 1.000000000000000000 ) ) ;
#77 = CARTESIAN_POINT ( 'NONE',  ( 0.000000000000000000, 0.000000000000000000, 2000.000000000000000 ) ) ;
#78 = MECHANICAL_CONTEXT ( 'NONE', #91, 'mechanical' ) ;
#79 = DIRECTION ( 'NONE',  ( 0.000000000000000000, 0.000000000000000000, 1.000000000000000000 ) ) ;
#80 = DATE_AND_TIME ( #95, #117 ) ;
#81 = FACE_OUTER_BOUND ( 'NONE', #57, .T. ) ;
#82 = PERSON_AND_ORGANIZATION ( #74, #65 ) ;
#83 = LINE ( 'NONE', #130, #147 ) ;
#84 = CALENDAR_DATE ( 2026, 22, 8 ) ;
#85 = APPROVAL_STATUS ( 'not_yet_approved' ) ;
#86 = CIRCLE ( 'NONE', #104, 7.500000000000000000 ) ;
#87 = CC_DESIGN_PERSON_AND_ORGANIZATION_ASSIGNMENT ( #29, #67, ( #20 ) ) ;
#88 = VECTOR ( 'NONE', #23, 1000.000000000000000 ) ;
#89 = UNCERTAINTY_MEASURE_WITH_UNIT (LENGTH_MEASURE( 1.000000000000000082E-05 ), #92, 'distance_accuracy_value', 'NONE');
#90 = LINE ( 'NONE', #49, #88 ) ;
#91 = APPLICATION_CONTEXT ( 'configuration controlled 3d designs of mechanical parts and assemblies' ) ;
#92 =( LENGTH_UNIT ( ) NAMED_UNIT ( * ) SI_UNIT ( .MILLI., .METRE. ) );
#93 = CIRCLE ( 'NONE', #17, 7.500000000000000000 ) ;
#94 = CARTESIAN_POINT ( 'NONE',  ( 7.500000000000000000, 9.184850993605147944E-16, 2000.000000000000000 ) ) ;
#95 = CALENDAR_DATE ( 2026, 22, 8 ) ;
#96 = ORIENTED_EDGE ( 'NONE', *, *, #39, .F. ) ;
#97 = CARTESIAN_POINT ( 'NONE',  ( 0.000000000000000000, 0.000000000000000000, 0.000000000000000000 ) ) ;
#98 = APPLICATION_PROTOCOL_DEFINITION ( 'international standard', 'config_control_design', 1994, #91 ) ;
#99 = APPROVAL_STATUS ( 'not_yet_approved' ) ;
#100 = EDGE_CURVE ( 'NONE', #144, #36, #93, .T. ) ;
#101 = AXIS2_PLACEMENT_3D ( 'NONE', #105, #79, #162 ) ;
#102 = EDGE_CURVE ( 'NONE', #21, #144, #90, .T. ) ;
#103 = DIRECTION ( 'NONE',  ( 1.000000000000000000, 0.000000000000000000, 0.000000000000000000 ) ) ;
#104 = AXIS2_PLACEMENT_3D ( 'NONE', #121, #76, #122 ) ;
#105 = CARTESIAN_POINT ( 'NONE',  ( 0.000000000000000000, 0.000000000000000000, 2000.000000000000000 ) ) ;
#106 = ORIENTED_EDGE ( 'NONE', *, *, #156, .T. ) ;
#107 = ORIENTED_EDGE ( 'NONE', *, *, #100, .F. ) ;
#108 = APPROVAL_ROLE ( '' ) ;
#109 = PRODUCT_DEFINITION_FORMATION_WITH_SPECIFIED_SOURCE ( 'ANY', '', #20, .NOT_KNOWN. ) ;
#110 = DIRECTION ( 'NONE',  ( -1.000000000000000000, 0.000000000000000000, 0.000000000000000000 ) ) ;
#111 = DIRECTION ( 'NONE',  ( 1.000000000000000000, 0.000000000000000000, 0.000000000000000000 ) ) ;
#112 = DIRECTION ( 'NONE',  ( -0.000000000000000000, -0.000000000000000000, -1.000000000000000000 ) ) ;
#113 = PERSON_AND_ORGANIZATION_ROLE ( 'creator' ) ;
#114 = PERSON_AND_ORGANIZATION ( #74, #65 ) ;
#115 = CC_DESIGN_DATE_AND_TIME_ASSIGNMENT ( #68, #173, ( #71 ) ) ;
#116 = PRODUCT_DEFINITION_SHAPE ( 'NONE', 'NONE',  #71 ) ;
#117 = LOCAL_TIME ( 22, 9, 43.00000000000000000, #41 ) ;
#118 = DIRECTION ( 'NONE',  ( 0.000000000000000000, 0.000000000000000000, 1.000000000000000000 ) ) ;
#119 = DIRECTION ( 'NONE',  ( 1.000000000000000000, 0.000000000000000000, -0.000000000000000000 ) ) ;
#120 = DIRECTION ( 'NONE',  ( 0.000000000000000000, 0.000000000000000000, 1.000000000000000000 ) ) ;
#121 = CARTESIAN_POINT ( 'NONE',  ( 0.000000000000000000, 0.000000000000000000, 2000.000000000000000 ) ) ;
#122 = DIRECTION ( 'NONE',  ( 1.000000000000000000, 0.000000000000000000, 0.000000000000000000 ) ) ;
#123 = DATE_AND_TIME ( #69, #125 ) ;
#124 = CC_DESIGN_PERSON_AND_ORGANIZATION_ASSIGNMENT ( #24, #165, ( #109 ) ) ;
#125 = LOCAL_TIME ( 22, 9, 43.00000000000000000, #16 ) ;
#126 = EDGE_CURVE ( 'NONE', #21, #37, #86, .T. ) ;
#127 = AXIS2_PLACEMENT_3D ( 'NONE', #97, #42, #171 ) ;
#128 = APPROVAL ( #99, 'UNSPECIFIED' ) ;
#129 = CARTESIAN_POINT ( 'NONE',  ( -7.500000000000000000, 0.000000000000000000, 0.000000000000000000 ) ) ;
#130 = CARTESIAN_POINT ( 'NONE',  ( 7.500000000000000000, 9.184850993605147944E-16, 2000.000000000000000 ) ) ;
#131 = CALENDAR_DATE ( 2026, 22, 8 ) ;
#132 = CARTESIAN_POINT ( 'NONE',  ( 0.000000000000000000, 0.000000000000000000, 2000.000000000000000 ) ) ;
#133 = APPROVAL_DATE_TIME ( #80, #128 ) ;
#134 = AXIS2_PLACEMENT_3D ( 'NONE', #77, #14, #110 ) ;
#135 = DIRECTION ( 'NONE',  ( -0.000000000000000000, -0.000000000000000000, -1.000000000000000000 ) ) ;
#136 = APPLICATION_PROTOCOL_DEFINITION ( 'international standard', 'config_control_design', 1994, #5 ) ;
#137 = PERSON_AND_ORGANIZATION_ROLE ( 'classification_officer' ) ;
#138 = PERSON_AND_ORGANIZATION_ROLE ( 'creator' ) ;
#139 = CC_DESIGN_APPROVAL ( #128, ( #140 ) ) ;
#140 = SECURITY_CLASSIFICATION ( '', '', #31 ) ;
#141 = ADVANCED_FACE ( 'NONE', ( #81 ), #175, .T. ) ;
#142 = AXIS2_PLACEMENT_3D ( 'NONE', #169, #135, #161 ) ;
#143 = PRODUCT_RELATED_PRODUCT_CATEGORY ( 'detail', '', ( #20 ) ) ;
#144 = VERTEX_POINT ( 'NONE', #129 ) ;
#145 = FACE_OUTER_BOUND ( 'NONE', #30, .T. ) ;
#146 = ORIENTED_EDGE ( 'NONE', *, *, #126, .F. ) ;
#147 = VECTOR ( 'NONE', #112, 1000.000000000000000 ) ;
#148 = APPROVAL_ROLE ( '' ) ;
#149 = CARTESIAN_POINT ( 'NONE',  ( 0.000000000000000000, 0.000000000000000000, 0.000000000000000000 ) ) ;
#150 = CALENDAR_DATE ( 2026, 22, 8 ) ;
#151 = CARTESIAN_POINT ( 'NONE',  ( 7.500000000000000000, 9.184850993605147944E-16, 0.000000000000000000 ) ) ;
#152 = AXIS2_PLACEMENT_3D ( 'NONE', #43, #120, #111 ) ;
#153 = DATE_AND_TIME ( #150, #70 ) ;
#154 = ADVANCED_BREP_SHAPE_REPRESENTATION ( 'Cable_100_long_sldprt', ( #167, #152 ), #160 ) ;
#155 = CARTESIAN_POINT ( 'NONE',  ( -7.500000000000000000, 0.000000000000000000, 2000.000000000000000 ) ) ;
#156 = EDGE_CURVE ( 'NONE', #36, #144, #13, .T. ) ;
#157 = PERSON_AND_ORGANIZATION ( #74, #65 ) ;
#158 = COORDINATED_UNIVERSAL_TIME_OFFSET ( 5, 30, .AHEAD. ) ;
#159 = APPROVAL_PERSON_ORGANIZATION ( #114, #128, #108 ) ;
#160 =( GEOMETRIC_REPRESENTATION_CONTEXT ( 3 ) GLOBAL_UNCERTAINTY_ASSIGNED_CONTEXT ( ( #89 ) ) GLOBAL_UNIT_ASSIGNED_CONTEXT ( ( #92, #63, #44 ) ) REPRESENTATION_CONTEXT ( 'NONE', 'WORKASPACE' ) );
#161 = DIRECTION ( 'NONE',  ( -1.000000000000000000, 0.000000000000000000, 0.000000000000000000 ) ) ;
#162 = DIRECTION ( 'NONE',  ( 1.000000000000000000, 0.000000000000000000, 0.000000000000000000 ) ) ;
#163 = CYLINDRICAL_SURFACE ( 'NONE', #142, 7.500000000000000000 ) ;
#164 = ADVANCED_FACE ( 'NONE', ( #62 ), #163, .T. ) ;
#165 = PERSON_AND_ORGANIZATION_ROLE ( 'design_supplier' ) ;
#166 = PERSON_AND_ORGANIZATION ( #74, #65 ) ;
#167 = MANIFOLD_SOLID_BREP ( 'Boss-Extrude1', #47 ) ;
#168 = ORIENTED_EDGE ( 'NONE', *, *, #39, .T. ) ;
#169 = CARTESIAN_POINT ( 'NONE',  ( 0.000000000000000000, 0.000000000000000000, 2000.000000000000000 ) ) ;
#170 = CC_DESIGN_PERSON_AND_ORGANIZATION_ASSIGNMENT ( #166, #138, ( #71 ) ) ;
#171 = DIRECTION ( 'NONE',  ( 1.000000000000000000, 0.000000000000000000, -0.000000000000000000 ) ) ;
#172 = ORIENTED_EDGE ( 'NONE', *, *, #156, .F. ) ;
#173 = DATE_TIME_ROLE ( 'creation_date' ) ;
#174 = APPROVAL ( #64, 'UNSPECIFIED' ) ;
#175 = CYLINDRICAL_SURFACE ( 'NONE', #134, 7.500000000000000000 ) ;
ENDSEC;
END-ISO-10303-21;
