ISO-10303-21;
HEADER;
FILE_DESCRIPTION (( 'STEP AP203' ),
    '1' );
FILE_NAME ('Cable_Default_sldprt.STEP',
    '2026-08-22T16:39:48',
    ( '' ),
    ( '' ),
    'SwSTEP 2.0',
    'SolidWorks 2020',
    '' );
FILE_SCHEMA (( 'CONFIG_CONTROL_DESIGN' ));
ENDSEC;

DATA;
#1 = FACE_OUTER_BOUND ( 'NONE', #75, .T. ) ;
#2 = CIRCLE ( 'NONE', #149, 7.500000000000000000 ) ;
#3 = CARTESIAN_POINT ( 'NONE',  ( 7.500000000000000000, 9.184850993605147944E-16, 0.000000000000000000 ) ) ;
#4 = ORGANIZATION ( 'UNSPECIFIED', 'UNSPECIFIED', '' ) ;
#5 = DIRECTION ( 'NONE',  ( 1.000000000000000000, 0.000000000000000000, 0.000000000000000000 ) ) ;
#6 = APPROVAL_DATE_TIME ( #128, #24 ) ;
#7 = DIRECTION ( 'NONE',  ( 1.000000000000000000, 0.000000000000000000, 0.000000000000000000 ) ) ;
#8 = COORDINATED_UNIVERSAL_TIME_OFFSET ( 5, 30, .AHEAD. ) ;
#9 = ORIENTED_EDGE ( 'NONE', *, *, #116, .T. ) ;
#10 = CC_DESIGN_PERSON_AND_ORGANIZATION_ASSIGNMENT ( #163, #113, ( #122 ) ) ;
#11 = CLOSED_SHELL ( 'NONE', ( #90, #46, #141, #145 ) ) ;
#12 = CC_DESIGN_APPROVAL ( #24, ( #17 ) ) ;
#13 = CARTESIAN_POINT ( 'NONE',  ( 7.500000000000000000, 9.184850993605147944E-16, 1500.000000000000000 ) ) ;
#14 = ORIENTED_EDGE ( 'NONE', *, *, #156, .T. ) ;
#15 = VECTOR ( 'NONE', #58, 1000.000000000000000 ) ;
#16 = COORDINATED_UNIVERSAL_TIME_OFFSET ( 5, 30, .AHEAD. ) ;
#17 = PRODUCT_DEFINITION_FORMATION_WITH_SPECIFIED_SOURCE ( 'ANY', '', #136, .NOT_KNOWN. ) ;
#18 = LINE ( 'NONE', #60, #88 ) ;
#19 =( GEOMETRIC_REPRESENTATION_CONTEXT ( 3 ) GLOBAL_UNCERTAINTY_ASSIGNED_CONTEXT ( ( #100 ) ) GLOBAL_UNIT_ASSIGNED_CONTEXT ( ( #112, #135, #114 ) ) REPRESENTATION_CONTEXT ( 'NONE', 'WORKASPACE' ) );
#20 = LOCAL_TIME ( 22, 9, 48.00000000000000000, #16 ) ;
#21 = CC_DESIGN_PERSON_AND_ORGANIZATION_ASSIGNMENT ( #111, #49, ( #17 ) ) ;
#22 = APPROVAL_PERSON_ORGANIZATION ( #153, #24, #109 ) ;
#23 = CARTESIAN_POINT ( 'NONE',  ( 0.000000000000000000, 0.000000000000000000, 1500.000000000000000 ) ) ;
#24 = APPROVAL ( #51, 'UNSPECIFIED' ) ;
#25 = EDGE_CURVE ( 'NONE', #41, #54, #35, .T. ) ;
#26 = ORIENTED_EDGE ( 'NONE', *, *, #116, .F. ) ;
#27 = CALENDAR_DATE ( 2026, 22, 8 ) ;
#28 = SHAPE_DEFINITION_REPRESENTATION ( #132, #159 ) ;
#29 = PLANE ( 'NONE',  #108 ) ;
#30 = CIRCLE ( 'NONE', #170, 7.500000000000000000 ) ;
#31 = DIRECTION ( 'NONE',  ( 1.000000000000000000, 0.000000000000000000, 0.000000000000000000 ) ) ;
#32 = LOCAL_TIME ( 22, 9, 48.00000000000000000, #148 ) ;
#33 = DIRECTION ( 'NONE',  ( 0.000000000000000000, 0.000000000000000000, 1.000000000000000000 ) ) ;
#34 = APPLICATION_PROTOCOL_DEFINITION ( 'international standard', 'config_control_design', 1994, #101 ) ;
#35 = CIRCLE ( 'NONE', #48, 7.500000000000000000 ) ;
#36 = DATE_TIME_ROLE ( 'classification_date' ) ;
#37 = DIRECTION ( 'NONE',  ( -1.000000000000000000, 0.000000000000000000, 0.000000000000000000 ) ) ;
#38 = DESIGN_CONTEXT ( 'detailed design', #69, 'design' ) ;
#39 = EDGE_CURVE ( 'NONE', #125, #147, #30, .T. ) ;
#40 = ORIENTED_EDGE ( 'NONE', *, *, #25, .F. ) ;
#41 = VERTEX_POINT ( 'NONE', #124 ) ;
#42 = APPROVAL_STATUS ( 'not_yet_approved' ) ;
#43 = SECURITY_CLASSIFICATION_LEVEL ( 'unclassified' ) ;
#44 = CARTESIAN_POINT ( 'NONE',  ( 0.000000000000000000, 0.000000000000000000, 1500.000000000000000 ) ) ;
#45 = PERSON_AND_ORGANIZATION_ROLE ( 'classification_officer' ) ;
#46 = ADVANCED_FACE ( 'NONE', ( #53 ), #151, .T. ) ;
#47 = DIRECTION ( 'NONE',  ( -1.000000000000000000, 0.000000000000000000, 0.000000000000000000 ) ) ;
#48 = AXIS2_PLACEMENT_3D ( 'NONE', #23, #63, #7 ) ;
#49 = PERSON_AND_ORGANIZATION_ROLE ( 'creator' ) ;
#50 = CC_DESIGN_SECURITY_CLASSIFICATION ( #134, ( #17 ) ) ;
#51 = APPROVAL_STATUS ( 'not_yet_approved' ) ;
#52 = ORIENTED_EDGE ( 'NONE', *, *, #76, .T. ) ;
#53 = FACE_OUTER_BOUND ( 'NONE', #92, .T. ) ;
#54 = VERTEX_POINT ( 'NONE', #13 ) ;
#55 = COORDINATED_UNIVERSAL_TIME_OFFSET ( 5, 30, .AHEAD. ) ;
#56 = ORIENTED_EDGE ( 'NONE', *, *, #65, .F. ) ;
#57 = DATE_AND_TIME ( #78, #81 ) ;
#58 = DIRECTION ( 'NONE',  ( -0.000000000000000000, -0.000000000000000000, -1.000000000000000000 ) ) ;
#59 = CARTESIAN_POINT ( 'NONE',  ( 0.000000000000000000, 0.000000000000000000, 1500.000000000000000 ) ) ;
#60 = CARTESIAN_POINT ( 'NONE',  ( 7.500000000000000000, 9.184850993605147944E-16, 1500.000000000000000 ) ) ;
#61 = CC_DESIGN_PERSON_AND_ORGANIZATION_ASSIGNMENT ( #161, #130, ( #17 ) ) ;
#62 = CYLINDRICAL_SURFACE ( 'NONE', #104, 7.500000000000000000 ) ;
#63 = DIRECTION ( 'NONE',  ( 0.000000000000000000, 0.000000000000000000, 1.000000000000000000 ) ) ;
#64 = CALENDAR_DATE ( 2026, 22, 8 ) ;
#65 = EDGE_CURVE ( 'NONE', #54, #41, #2, .T. ) ;
#66 = ORIENTED_EDGE ( 'NONE', *, *, #39, .T. ) ;
#67 = CARTESIAN_POINT ( 'NONE',  ( 0.000000000000000000, 0.000000000000000000, 0.000000000000000000 ) ) ;
#68 = AXIS2_PLACEMENT_3D ( 'NONE', #106, #126, #37 ) ;
#69 = APPLICATION_CONTEXT ( 'configuration controlled 3d designs of mechanical parts and assemblies' ) ;
#70 = FACE_OUTER_BOUND ( 'NONE', #110, .T. ) ;
#71 = PERSON_AND_ORGANIZATION_ROLE ( 'design_owner' ) ;
#72 = CC_DESIGN_APPROVAL ( #127, ( #122 ) ) ;
#73 = APPROVAL_ROLE ( '' ) ;
#74 = COORDINATED_UNIVERSAL_TIME_OFFSET ( 5, 30, .AHEAD. ) ;
#75 = EDGE_LOOP ( 'NONE', ( #56, #14, #9, #89 ) ) ;
#76 = EDGE_CURVE ( 'NONE', #41, #125, #115, .T. ) ;
#77 = PERSON_AND_ORGANIZATION ( #87, #4 ) ;
#78 = CALENDAR_DATE ( 2026, 22, 8 ) ;
#79 = CARTESIAN_POINT ( 'NONE',  ( 0.000000000000000000, 0.000000000000000000, 0.000000000000000000 ) ) ;
#80 = CIRCLE ( 'NONE', #140, 7.500000000000000000 ) ;
#81 = LOCAL_TIME ( 22, 9, 48.00000000000000000, #55 ) ;
#82 = PERSON_AND_ORGANIZATION ( #87, #4 ) ;
#83 = DIRECTION ( 'NONE',  ( 1.000000000000000000, 0.000000000000000000, -0.000000000000000000 ) ) ;
#84 = MECHANICAL_CONTEXT ( 'NONE', #101, 'mechanical' ) ;
#85 = APPROVAL_ROLE ( '' ) ;
#86 = DIRECTION ( 'NONE',  ( 0.000000000000000000, 0.000000000000000000, 1.000000000000000000 ) ) ;
#87 = PERSON ( 'UNSPECIFIED', 'UNSPECIFIED', 'UNSPECIFIED', ('UNSPECIFIED'), ('UNSPECIFIED'), ('UNSPECIFIED') ) ;
#88 = VECTOR ( 'NONE', #143, 1000.000000000000000 ) ;
#89 = ORIENTED_EDGE ( 'NONE', *, *, #76, .F. ) ;
#90 = ADVANCED_FACE ( 'NONE', ( #1 ), #62, .T. ) ;
#91 = DATE_AND_TIME ( #168, #20 ) ;
#92 = EDGE_LOOP ( 'NONE', ( #107, #40, #52, #66 ) ) ;
#93 = DIRECTION ( 'NONE',  ( 1.000000000000000000, 0.000000000000000000, -0.000000000000000000 ) ) ;
#94 = DATE_AND_TIME ( #64, #32 ) ;
#95 = DIRECTION ( 'NONE',  ( 0.000000000000000000, 0.000000000000000000, 1.000000000000000000 ) ) ;
#96 = APPROVAL ( #119, 'UNSPECIFIED' ) ;
#97 = PLANE ( 'NONE',  #171 ) ;
#98 = DIRECTION ( 'NONE',  ( 1.000000000000000000, 0.000000000000000000, 0.000000000000000000 ) ) ;
#99 = DATE_AND_TIME ( #27, #121 ) ;
#100 = UNCERTAINTY_MEASURE_WITH_UNIT (LENGTH_MEASURE( 1.000000000000000082E-05 ), #112, 'distance_accuracy_value', 'NONE');
#101 = APPLICATION_CONTEXT ( 'configuration controlled 3d designs of mechanical parts and assemblies' ) ;
#102 = APPROVAL_PERSON_ORGANIZATION ( #175, #127, #73 ) ;
#103 = CC_DESIGN_PERSON_AND_ORGANIZATION_ASSIGNMENT ( #82, #71, ( #136 ) ) ;
#104 = AXIS2_PLACEMENT_3D ( 'NONE', #44, #164, #47 ) ;
#105 = APPROVAL_PERSON_ORGANIZATION ( #77, #96, #85 ) ;
#106 = CARTESIAN_POINT ( 'NONE',  ( 0.000000000000000000, 0.000000000000000000, 1500.000000000000000 ) ) ;
#107 = ORIENTED_EDGE ( 'NONE', *, *, #156, .F. ) ;
#108 = AXIS2_PLACEMENT_3D ( 'NONE', #79, #33, #83 ) ;
#109 = APPROVAL_ROLE ( '' ) ;
#110 = EDGE_LOOP ( 'NONE', ( #139, #173 ) ) ;
#111 = PERSON_AND_ORGANIZATION ( #87, #4 ) ;
#112 =( LENGTH_UNIT ( ) NAMED_UNIT ( * ) SI_UNIT ( .MILLI., .METRE. ) );
#113 = PERSON_AND_ORGANIZATION_ROLE ( 'creator' ) ;
#114 =( NAMED_UNIT ( * ) SI_UNIT ( $, .STERADIAN. ) SOLID_ANGLE_UNIT ( ) );
#115 = LINE ( 'NONE', #166, #15 ) ;
#116 = EDGE_CURVE ( 'NONE', #147, #125, #80, .T. ) ;
#117 = EDGE_LOOP ( 'NONE', ( #160, #26 ) ) ;
#118 = APPLICATION_PROTOCOL_DEFINITION ( 'international standard', 'config_control_design', 1994, #69 ) ;
#119 = APPROVAL_STATUS ( 'not_yet_approved' ) ;
#120 = PRODUCT_RELATED_PRODUCT_CATEGORY ( 'detail', '', ( #136 ) ) ;
#121 = LOCAL_TIME ( 22, 9, 48.00000000000000000, #8 ) ;
#122 = PRODUCT_DEFINITION ( 'UNKNOWN', '', #17, #38 ) ;
#123 = LOCAL_TIME ( 22, 9, 48.00000000000000000, #74 ) ;
#124 = CARTESIAN_POINT ( 'NONE',  ( -7.500000000000000000, 0.000000000000000000, 1500.000000000000000 ) ) ;
#125 = VERTEX_POINT ( 'NONE', #162 ) ;
#126 = DIRECTION ( 'NONE',  ( -0.000000000000000000, -0.000000000000000000, -1.000000000000000000 ) ) ;
#127 = APPROVAL ( #42, 'UNSPECIFIED' ) ;
#128 = DATE_AND_TIME ( #138, #123 ) ;
#129 = CC_DESIGN_APPROVAL ( #96, ( #134 ) ) ;
#130 = PERSON_AND_ORGANIZATION_ROLE ( 'design_supplier' ) ;
#131 = CARTESIAN_POINT ( 'NONE',  ( 0.000000000000000000, 0.000000000000000000, 0.000000000000000000 ) ) ;
#132 = PRODUCT_DEFINITION_SHAPE ( 'NONE', 'NONE',  #122 ) ;
#133 = DIRECTION ( 'NONE',  ( 0.000000000000000000, 0.000000000000000000, 1.000000000000000000 ) ) ;
#134 = SECURITY_CLASSIFICATION ( '', '', #43 ) ;
#135 =( NAMED_UNIT ( * ) PLANE_ANGLE_UNIT ( ) SI_UNIT ( $, .RADIAN. ) );
#136 = PRODUCT ( 'Cable_Default_sldprt', 'Cable_Default_sldprt', '', ( #84 ) ) ;
#137 = DIRECTION ( 'NONE',  ( 0.000000000000000000, 0.000000000000000000, 1.000000000000000000 ) ) ;
#138 = CALENDAR_DATE ( 2026, 22, 8 ) ;
#139 = ORIENTED_EDGE ( 'NONE', *, *, #25, .T. ) ;
#140 = AXIS2_PLACEMENT_3D ( 'NONE', #131, #137, #5 ) ;
#141 = ADVANCED_FACE ( 'NONE', ( #70 ), #97, .T. ) ;
#142 = APPROVAL_DATE_TIME ( #57, #127 ) ;
#143 = DIRECTION ( 'NONE',  ( -0.000000000000000000, -0.000000000000000000, -1.000000000000000000 ) ) ;
#144 = CARTESIAN_POINT ( 'NONE',  ( 0.000000000000000000, 0.000000000000000000, 0.000000000000000000 ) ) ;
#145 = ADVANCED_FACE ( 'NONE', ( #154 ), #29, .F. ) ;
#146 = CC_DESIGN_DATE_AND_TIME_ASSIGNMENT ( #91, #158, ( #122 ) ) ;
#147 = VERTEX_POINT ( 'NONE', #3 ) ;
#148 = COORDINATED_UNIVERSAL_TIME_OFFSET ( 5, 30, .AHEAD. ) ;
#149 = AXIS2_PLACEMENT_3D ( 'NONE', #59, #133, #31 ) ;
#150 = DIRECTION ( 'NONE',  ( 1.000000000000000000, 0.000000000000000000, 0.000000000000000000 ) ) ;
#151 = CYLINDRICAL_SURFACE ( 'NONE', #68, 7.500000000000000000 ) ;
#152 = PERSON_AND_ORGANIZATION ( #87, #4 ) ;
#153 = PERSON_AND_ORGANIZATION ( #87, #4 ) ;
#154 = FACE_OUTER_BOUND ( 'NONE', #117, .T. ) ;
#155 = APPROVAL_DATE_TIME ( #94, #96 ) ;
#156 = EDGE_CURVE ( 'NONE', #54, #147, #18, .T. ) ;
#157 = DIRECTION ( 'NONE',  ( 0.000000000000000000, 0.000000000000000000, 1.000000000000000000 ) ) ;
#158 = DATE_TIME_ROLE ( 'creation_date' ) ;
#159 = ADVANCED_BREP_SHAPE_REPRESENTATION ( 'Cable_Default_sldprt', ( #167, #172 ), #19 ) ;
#160 = ORIENTED_EDGE ( 'NONE', *, *, #39, .F. ) ;
#161 = PERSON_AND_ORGANIZATION ( #87, #4 ) ;
#162 = CARTESIAN_POINT ( 'NONE',  ( -7.500000000000000000, 0.000000000000000000, 0.000000000000000000 ) ) ;
#163 = PERSON_AND_ORGANIZATION ( #87, #4 ) ;
#164 = DIRECTION ( 'NONE',  ( -0.000000000000000000, -0.000000000000000000, -1.000000000000000000 ) ) ;
#165 = CARTESIAN_POINT ( 'NONE',  ( 0.000000000000000000, 0.000000000000000000, 1500.000000000000000 ) ) ;
#166 = CARTESIAN_POINT ( 'NONE',  ( -7.500000000000000000, 0.000000000000000000, 1500.000000000000000 ) ) ;
#167 = MANIFOLD_SOLID_BREP ( 'Boss-Extrude1', #11 ) ;
#168 = CALENDAR_DATE ( 2026, 22, 8 ) ;
#169 = CC_DESIGN_PERSON_AND_ORGANIZATION_ASSIGNMENT ( #152, #45, ( #134 ) ) ;
#170 = AXIS2_PLACEMENT_3D ( 'NONE', #67, #86, #150 ) ;
#171 = AXIS2_PLACEMENT_3D ( 'NONE', #165, #157, #93 ) ;
#172 = AXIS2_PLACEMENT_3D ( 'NONE', #144, #95, #98 ) ;
#173 = ORIENTED_EDGE ( 'NONE', *, *, #65, .T. ) ;
#174 = CC_DESIGN_DATE_AND_TIME_ASSIGNMENT ( #99, #36, ( #134 ) ) ;
#175 = PERSON_AND_ORGANIZATION ( #87, #4 ) ;
ENDSEC;
END-ISO-10303-21;
