ISO-10303-21;
HEADER;
FILE_DESCRIPTION (( 'STEP AP203' ),
    '1' );
FILE_NAME ('DummyBattery_Default_sldprt.STEP',
    '2026-08-22T16:39:50',
    ( '' ),
    ( '' ),
    'SwSTEP 2.0',
    'SolidWorks 2020',
    '' );
FILE_SCHEMA (( 'CONFIG_CONTROL_DESIGN' ));
ENDSEC;

DATA;
#1 = VECTOR ( 'NONE', #83, 1000.000000000000000 ) ;
#2 = LOCAL_TIME ( 22, 9, 50.00000000000000000, #188 ) ;
#3 = CARTESIAN_POINT ( 'NONE',  ( 0.000000000000000000, 0.000000000000000000, 0.000000000000000000 ) ) ;
#4 = EDGE_CURVE ( 'NONE', #196, #145, #30, .T. ) ;
#5 = APPLICATION_PROTOCOL_DEFINITION ( 'international standard', 'config_control_design', 1994, #181 ) ;
#6 = CARTESIAN_POINT ( 'NONE',  ( -36.00000000000000711, -16.00000000000000711, -40.00000000000000000 ) ) ;
#7 = DATE_AND_TIME ( #91, #113 ) ;
#8 = DIRECTION ( 'NONE',  ( -0.000000000000000000, 0.000000000000000000, 1.000000000000000000 ) ) ;
#9 = PERSON_AND_ORGANIZATION_ROLE ( 'design_supplier' ) ;
#10 = ORIENTED_EDGE ( 'NONE', *, *, #213, .F. ) ;
#11 = ADVANCED_FACE ( 'NONE', ( #75 ), #189, .T. ) ;
#12 = PLANE ( 'NONE',  #141 ) ;
#13 = FACE_OUTER_BOUND ( 'NONE', #152, .T. ) ;
#14 = APPROVAL ( #165, 'UNSPECIFIED' ) ;
#15 = ORIENTED_EDGE ( 'NONE', *, *, #42, .T. ) ;
#16 = CARTESIAN_POINT ( 'NONE',  ( 35.99999999999998579, 15.99999999999999289, -40.00000000000000000 ) ) ;
#17 = LINE ( 'NONE', #160, #51 ) ;
#18 = APPROVAL_PERSON_ORGANIZATION ( #168, #183, #125 ) ;
#19 = ADVANCED_FACE ( 'NONE', ( #56 ), #12, .F. ) ;
#20 = VECTOR ( 'NONE', #37, 1000.000000000000000 ) ;
#21 = DATE_TIME_ROLE ( 'classification_date' ) ;
#22 = PERSON_AND_ORGANIZATION ( #200, #212 ) ;
#23 = VECTOR ( 'NONE', #110, 1000.000000000000000 ) ;
#24 = PRODUCT_DEFINITION ( 'UNKNOWN', '', #103, #209 ) ;
#25 = LINE ( 'NONE', #72, #23 ) ;
#26 = APPROVAL_DATE_TIME ( #106, #33 ) ;
#27 = DIRECTION ( 'NONE',  ( 0.000000000000000000, 0.000000000000000000, 1.000000000000000000 ) ) ;
#28 = DATE_AND_TIME ( #170, #2 ) ;
#29 = DIRECTION ( 'NONE',  ( -4.336808689942017736E-16, 1.000000000000000000, -0.000000000000000000 ) ) ;
#30 = LINE ( 'NONE', #175, #221 ) ;
#31 = DIRECTION ( 'NONE',  ( 1.000000000000000000, 0.000000000000000000, 0.000000000000000000 ) ) ;
#32 = LINE ( 'NONE', #233, #1 ) ;
#33 = APPROVAL ( #87, 'UNSPECIFIED' ) ;
#34 = AXIS2_PLACEMENT_3D ( 'NONE', #227, #223, #206 ) ;
#35 = ADVANCED_FACE ( 'NONE', ( #78 ), #142, .T. ) ;
#36 = DATE_AND_TIME ( #184, #61 ) ;
#37 = DIRECTION ( 'NONE',  ( 0.000000000000000000, 0.000000000000000000, 1.000000000000000000 ) ) ;
#38 = PERSON_AND_ORGANIZATION ( #200, #212 ) ;
#39 = ORIENTED_EDGE ( 'NONE', *, *, #213, .T. ) ;
#40 = LINE ( 'NONE', #41, #164 ) ;
#41 = CARTESIAN_POINT ( 'NONE',  ( -36.00000000000001421, 15.99999999999999289, -40.00000000000000000 ) ) ;
#42 = EDGE_CURVE ( 'NONE', #114, #158, #126, .T. ) ;
#43 = APPROVAL_STATUS ( 'not_yet_approved' ) ;
#44 = EDGE_LOOP ( 'NONE', ( #10, #190, #162, #211 ) ) ;
#45 = VECTOR ( 'NONE', #215, 1000.000000000000000 ) ;
#46 = CARTESIAN_POINT ( 'NONE',  ( 36.00000000000000000, -16.00000000000000711, -40.00000000000000000 ) ) ;
#47 = CARTESIAN_POINT ( 'NONE',  ( -36.00000000000000711, -16.00000000000000711, 0.000000000000000000 ) ) ;
#48 = LOCAL_TIME ( 22, 9, 50.00000000000000000, #203 ) ;
#49 = CARTESIAN_POINT ( 'NONE',  ( -36.00000000000000711, -16.00000000000000711, -40.00000000000000000 ) ) ;
#50 = CARTESIAN_POINT ( 'NONE',  ( 35.99999999999998579, 15.99999999999999289, 0.000000000000000000 ) ) ;
#51 = VECTOR ( 'NONE', #85, 1000.000000000000000 ) ;
#52 = ADVANCED_FACE ( 'NONE', ( #108 ), #111, .T. ) ;
#53 = APPROVAL_ROLE ( '' ) ;
#54 = ORIENTED_EDGE ( 'NONE', *, *, #201, .F. ) ;
#55 = PERSON_AND_ORGANIZATION ( #200, #212 ) ;
#56 = FACE_OUTER_BOUND ( 'NONE', #193, .T. ) ;
#57 = EDGE_CURVE ( 'NONE', #145, #114, #25, .T. ) ;
#58 = ORIENTED_EDGE ( 'NONE', *, *, #172, .F. ) ;
#59 = SECURITY_CLASSIFICATION_LEVEL ( 'unclassified' ) ;
#60 = ORIENTED_EDGE ( 'NONE', *, *, #74, .T. ) ;
#61 = LOCAL_TIME ( 22, 9, 50.00000000000000000, #202 ) ;
#62 = ORIENTED_EDGE ( 'NONE', *, *, #201, .T. ) ;
#63 = DIRECTION ( 'NONE',  ( -1.000000000000000000, -2.168404344971008868E-16, 0.000000000000000000 ) ) ;
#64 = CARTESIAN_POINT ( 'NONE',  ( 0.000000000000000000, 0.000000000000000000, 0.000000000000000000 ) ) ;
#65 = CC_DESIGN_PERSON_AND_ORGANIZATION_ASSIGNMENT ( #112, #182, ( #236 ) ) ;
#66 = VECTOR ( 'NONE', #214, 1000.000000000000000 ) ;
#67 = ORIENTED_EDGE ( 'NONE', *, *, #139, .T. ) ;
#68 = EDGE_CURVE ( 'NONE', #225, #196, #90, .T. ) ;
#69 =( GEOMETRIC_REPRESENTATION_CONTEXT ( 3 ) GLOBAL_UNCERTAINTY_ASSIGNED_CONTEXT ( ( #229 ) ) GLOBAL_UNIT_ASSIGNED_CONTEXT ( ( #101, #96, #234 ) ) REPRESENTATION_CONTEXT ( 'NONE', 'WORKASPACE' ) );
#70 = DIRECTION ( 'NONE',  ( 0.000000000000000000, -1.000000000000000000, 0.000000000000000000 ) ) ;
#71 = PERSON_AND_ORGANIZATION ( #200, #212 ) ;
#72 = CARTESIAN_POINT ( 'NONE',  ( -36.00000000000001421, 15.99999999999999289, -40.00000000000000000 ) ) ;
#73 = APPROVAL_DATE_TIME ( #7, #14 ) ;
#74 = EDGE_CURVE ( 'NONE', #145, #117, #40, .T. ) ;
#75 = FACE_OUTER_BOUND ( 'NONE', #44, .T. ) ;
#76 = DIRECTION ( 'NONE',  ( 0.000000000000000000, 0.000000000000000000, 1.000000000000000000 ) ) ;
#77 = EDGE_LOOP ( 'NONE', ( #58, #81, #132, #62 ) ) ;
#78 = FACE_OUTER_BOUND ( 'NONE', #77, .T. ) ;
#79 = FACE_OUTER_BOUND ( 'NONE', #199, .T. ) ;
#80 = CARTESIAN_POINT ( 'NONE',  ( -36.00000000000001421, 15.99999999999999289, 0.000000000000000000 ) ) ;
#81 = ORIENTED_EDGE ( 'NONE', *, *, #217, .F. ) ;
#82 = AXIS2_PLACEMENT_3D ( 'NONE', #64, #135, #179 ) ;
#83 = DIRECTION ( 'NONE',  ( 1.000000000000000000, 0.000000000000000000, 0.000000000000000000 ) ) ;
#84 = APPROVAL_PERSON_ORGANIZATION ( #55, #33, #53 ) ;
#85 = DIRECTION ( 'NONE',  ( -1.000000000000000000, -0.000000000000000000, -0.000000000000000000 ) ) ;
#86 = ORIENTED_EDGE ( 'NONE', *, *, #74, .F. ) ;
#87 = APPROVAL_STATUS ( 'not_yet_approved' ) ;
#88 = MANIFOLD_SOLID_BREP ( 'Boss-Extrude1', #99 ) ;
#89 = VECTOR ( 'NONE', #31, 1000.000000000000000 ) ;
#90 = LINE ( 'NONE', #167, #180 ) ;
#91 = CALENDAR_DATE ( 2026, 22, 8 ) ;
#92 = DIRECTION ( 'NONE',  ( 0.000000000000000000, -0.000000000000000000, 1.000000000000000000 ) ) ;
#93 = CALENDAR_DATE ( 2026, 22, 8 ) ;
#94 = CARTESIAN_POINT ( 'NONE',  ( -36.00000000000001421, 15.99999999999999289, -40.00000000000000000 ) ) ;
#95 = ORIENTED_EDGE ( 'NONE', *, *, #57, .F. ) ;
#96 =( NAMED_UNIT ( * ) PLANE_ANGLE_UNIT ( ) SI_UNIT ( $, .RADIAN. ) );
#97 = CC_DESIGN_APPROVAL ( #14, ( #236 ) ) ;
#98 = LINE ( 'NONE', #46, #45 ) ;
#99 = CLOSED_SHELL ( 'NONE', ( #35, #11, #235, #52, #19, #100 ) ) ;
#100 = ADVANCED_FACE ( 'NONE', ( #79 ), #116, .T. ) ;
#101 =( LENGTH_UNIT ( ) NAMED_UNIT ( * ) SI_UNIT ( .MILLI., .METRE. ) );
#102 = AXIS2_PLACEMENT_3D ( 'NONE', #6, #70, #130 ) ;
#103 = PRODUCT_DEFINITION_FORMATION_WITH_SPECIFIED_SOURCE ( 'ANY', '', #123, .NOT_KNOWN. ) ;
#104 = CC_DESIGN_PERSON_AND_ORGANIZATION_ASSIGNMENT ( #38, #9, ( #103 ) ) ;
#105 = PERSON_AND_ORGANIZATION_ROLE ( 'creator' ) ;
#106 = DATE_AND_TIME ( #222, #192 ) ;
#107 = EDGE_CURVE ( 'NONE', #117, #158, #157, .T. ) ;
#108 = FACE_OUTER_BOUND ( 'NONE', #153, .T. ) ;
#109 = COORDINATED_UNIVERSAL_TIME_OFFSET ( 5, 30, .AHEAD. ) ;
#110 = DIRECTION ( 'NONE',  ( 2.168404344971008868E-16, -1.000000000000000000, 0.000000000000000000 ) ) ;
#111 = PLANE ( 'NONE',  #149 ) ;
#112 = PERSON_AND_ORGANIZATION ( #200, #212 ) ;
#113 = LOCAL_TIME ( 22, 9, 50.00000000000000000, #109 ) ;
#114 = VERTEX_POINT ( 'NONE', #49 ) ;
#115 = CARTESIAN_POINT ( 'NONE',  ( -36.00000000000001421, 15.99999999999999289, -40.00000000000000000 ) ) ;
#116 = PLANE ( 'NONE',  #82 ) ;
#117 = VERTEX_POINT ( 'NONE', #80 ) ;
#118 = EDGE_CURVE ( 'NONE', #114, #225, #154, .T. ) ;
#119 = CARTESIAN_POINT ( 'NONE',  ( 35.99999999999998579, 15.99999999999999289, -40.00000000000000000 ) ) ;
#120 = CARTESIAN_POINT ( 'NONE',  ( -36.00000000000001421, 15.99999999999999289, -40.00000000000000000 ) ) ;
#121 = CC_DESIGN_SECURITY_CLASSIFICATION ( #236, ( #103 ) ) ;
#122 = VERTEX_POINT ( 'NONE', #198 ) ;
#123 = PRODUCT ( 'DummyBattery_Default_sldprt', 'DummyBattery_Default_sldprt', '', ( #131 ) ) ;
#124 = DATE_AND_TIME ( #93, #48 ) ;
#125 = APPROVAL_ROLE ( '' ) ;
#126 = LINE ( 'NONE', #204, #20 ) ;
#127 = PERSON_AND_ORGANIZATION_ROLE ( 'creator' ) ;
#128 = DIRECTION ( 'NONE',  ( 1.000000000000000000, 0.000000000000000000, 0.000000000000000000 ) ) ;
#129 = APPLICATION_PROTOCOL_DEFINITION ( 'international standard', 'config_control_design', 1994, #210 ) ;
#130 = DIRECTION ( 'NONE',  ( 0.000000000000000000, -0.000000000000000000, -1.000000000000000000 ) ) ;
#131 = MECHANICAL_CONTEXT ( 'NONE', #181, 'mechanical' ) ;
#132 = ORIENTED_EDGE ( 'NONE', *, *, #68, .T. ) ;
#133 = DIRECTION ( 'NONE',  ( 2.168404344971008868E-16, -1.000000000000000000, 0.000000000000000000 ) ) ;
#134 = CARTESIAN_POINT ( 'NONE',  ( -36.00000000000001421, 15.99999999999999289, 0.000000000000000000 ) ) ;
#135 = DIRECTION ( 'NONE',  ( -0.000000000000000000, 0.000000000000000000, 1.000000000000000000 ) ) ;
#136 = CC_DESIGN_APPROVAL ( #183, ( #103 ) ) ;
#137 = CARTESIAN_POINT ( 'NONE',  ( -36.00000000000000711, -16.00000000000000711, -40.00000000000000000 ) ) ;
#138 = ORIENTED_EDGE ( 'NONE', *, *, #139, .F. ) ;
#139 = EDGE_CURVE ( 'NONE', #122, #117, #17, .T. ) ;
#140 = PERSON_AND_ORGANIZATION_ROLE ( 'design_owner' ) ;
#141 = AXIS2_PLACEMENT_3D ( 'NONE', #147, #8, #128 ) ;
#142 = PLANE ( 'NONE',  #34 ) ;
#143 = DIRECTION ( 'NONE',  ( 1.000000000000000000, 0.000000000000000000, 0.000000000000000000 ) ) ;
#144 = CC_DESIGN_PERSON_AND_ORGANIZATION_ASSIGNMENT ( #71, #105, ( #24 ) ) ;
#145 = VERTEX_POINT ( 'NONE', #115 ) ;
#146 = SHAPE_DEFINITION_REPRESENTATION ( #176, #219 ) ;
#147 = CARTESIAN_POINT ( 'NONE',  ( 0.000000000000000000, 0.000000000000000000, -40.00000000000000000 ) ) ;
#148 = DATE_TIME_ROLE ( 'creation_date' ) ;
#149 = AXIS2_PLACEMENT_3D ( 'NONE', #94, #207, #92 ) ;
#150 = CC_DESIGN_PERSON_AND_ORGANIZATION_ASSIGNMENT ( #228, #127, ( #103 ) ) ;
#151 = ORIENTED_EDGE ( 'NONE', *, *, #4, .T. ) ;
#152 = EDGE_LOOP ( 'NONE', ( #159, #86, #231, #15 ) ) ;
#153 = EDGE_LOOP ( 'NONE', ( #138, #54, #151, #60 ) ) ;
#154 = LINE ( 'NONE', #137, #89 ) ;
#155 = CC_DESIGN_DATE_AND_TIME_ASSIGNMENT ( #36, #21, ( #236 ) ) ;
#156 = LINE ( 'NONE', #16, #226 ) ;
#157 = LINE ( 'NONE', #134, #174 ) ;
#158 = VERTEX_POINT ( 'NONE', #47 ) ;
#159 = ORIENTED_EDGE ( 'NONE', *, *, #107, .F. ) ;
#160 = CARTESIAN_POINT ( 'NONE',  ( -36.00000000000001421, 15.99999999999999289, 0.000000000000000000 ) ) ;
#161 = ORIENTED_EDGE ( 'NONE', *, *, #68, .F. ) ;
#162 = ORIENTED_EDGE ( 'NONE', *, *, #118, .T. ) ;
#163 = ORIENTED_EDGE ( 'NONE', *, *, #4, .F. ) ;
#164 = VECTOR ( 'NONE', #27, 1000.000000000000000 ) ;
#165 = APPROVAL_STATUS ( 'not_yet_approved' ) ;
#166 = COORDINATED_UNIVERSAL_TIME_OFFSET ( 5, 30, .AHEAD. ) ;
#167 = CARTESIAN_POINT ( 'NONE',  ( 35.99999999999998579, 15.99999999999999289, -40.00000000000000000 ) ) ;
#168 = PERSON_AND_ORGANIZATION ( #200, #212 ) ;
#169 = VERTEX_POINT ( 'NONE', #216 ) ;
#170 = CALENDAR_DATE ( 2026, 22, 8 ) ;
#171 = CC_DESIGN_APPROVAL ( #33, ( #24 ) ) ;
#172 = EDGE_CURVE ( 'NONE', #169, #122, #191, .T. ) ;
#173 = ORIENTED_EDGE ( 'NONE', *, *, #107, .T. ) ;
#174 = VECTOR ( 'NONE', #178, 1000.000000000000000 ) ;
#175 = CARTESIAN_POINT ( 'NONE',  ( -36.00000000000001421, 15.99999999999999289, -40.00000000000000000 ) ) ;
#176 = PRODUCT_DEFINITION_SHAPE ( 'NONE', 'NONE',  #24 ) ;
#177 = PLANE ( 'NONE',  #195 ) ;
#178 = DIRECTION ( 'NONE',  ( 2.168404344971008868E-16, -1.000000000000000000, 0.000000000000000000 ) ) ;
#179 = DIRECTION ( 'NONE',  ( 1.000000000000000000, 0.000000000000000000, 0.000000000000000000 ) ) ;
#180 = VECTOR ( 'NONE', #29, 1000.000000000000000 ) ;
#181 = APPLICATION_CONTEXT ( 'configuration controlled 3d designs of mechanical parts and assemblies' ) ;
#182 = PERSON_AND_ORGANIZATION_ROLE ( 'classification_officer' ) ;
#183 = APPROVAL ( #43, 'UNSPECIFIED' ) ;
#184 = CALENDAR_DATE ( 2026, 22, 8 ) ;
#185 = DIRECTION ( 'NONE',  ( -1.000000000000000000, -0.000000000000000000, -0.000000000000000000 ) ) ;
#186 = APPROVAL_ROLE ( '' ) ;
#187 = ORIENTED_EDGE ( 'NONE', *, *, #118, .F. ) ;
#188 = COORDINATED_UNIVERSAL_TIME_OFFSET ( 5, 30, .AHEAD. ) ;
#189 = PLANE ( 'NONE',  #102 ) ;
#190 = ORIENTED_EDGE ( 'NONE', *, *, #42, .F. ) ;
#191 = LINE ( 'NONE', #50, #66 ) ;
#192 = LOCAL_TIME ( 22, 9, 50.00000000000000000, #166 ) ;
#193 = EDGE_LOOP ( 'NONE', ( #161, #187, #95, #163 ) ) ;
#194 = CARTESIAN_POINT ( 'NONE',  ( 36.00000000000000000, -16.00000000000000711, -40.00000000000000000 ) ) ;
#195 = AXIS2_PLACEMENT_3D ( 'NONE', #120, #63, #133 ) ;
#196 = VERTEX_POINT ( 'NONE', #119 ) ;
#197 = CC_DESIGN_PERSON_AND_ORGANIZATION_ASSIGNMENT ( #208, #140, ( #123 ) ) ;
#198 = CARTESIAN_POINT ( 'NONE',  ( 35.99999999999998579, 15.99999999999999289, 0.000000000000000000 ) ) ;
#199 = EDGE_LOOP ( 'NONE', ( #230, #67, #173, #39 ) ) ;
#200 = PERSON ( 'UNSPECIFIED', 'UNSPECIFIED', 'UNSPECIFIED', ('UNSPECIFIED'), ('UNSPECIFIED'), ('UNSPECIFIED') ) ;
#201 = EDGE_CURVE ( 'NONE', #196, #122, #156, .T. ) ;
#202 = COORDINATED_UNIVERSAL_TIME_OFFSET ( 5, 30, .AHEAD. ) ;
#203 = COORDINATED_UNIVERSAL_TIME_OFFSET ( 5, 30, .AHEAD. ) ;
#204 = CARTESIAN_POINT ( 'NONE',  ( -36.00000000000000711, -16.00000000000000711, -40.00000000000000000 ) ) ;
#205 = APPROVAL_DATE_TIME ( #124, #183 ) ;
#206 = DIRECTION ( 'NONE',  ( -4.336808689942017736E-16, 1.000000000000000000, 0.000000000000000000 ) ) ;
#207 = DIRECTION ( 'NONE',  ( 0.000000000000000000, 1.000000000000000000, 0.000000000000000000 ) ) ;
#208 = PERSON_AND_ORGANIZATION ( #200, #212 ) ;
#209 = DESIGN_CONTEXT ( 'detailed design', #210, 'design' ) ;
#210 = APPLICATION_CONTEXT ( 'configuration controlled 3d designs of mechanical parts and assemblies' ) ;
#211 = ORIENTED_EDGE ( 'NONE', *, *, #217, .T. ) ;
#212 = ORGANIZATION ( 'UNSPECIFIED', 'UNSPECIFIED', '' ) ;
#213 = EDGE_CURVE ( 'NONE', #158, #169, #32, .T. ) ;
#214 = DIRECTION ( 'NONE',  ( -4.336808689942017736E-16, 1.000000000000000000, -0.000000000000000000 ) ) ;
#215 = DIRECTION ( 'NONE',  ( 0.000000000000000000, 0.000000000000000000, 1.000000000000000000 ) ) ;
#216 = CARTESIAN_POINT ( 'NONE',  ( 36.00000000000000000, -16.00000000000000711, 0.000000000000000000 ) ) ;
#217 = EDGE_CURVE ( 'NONE', #225, #169, #98, .T. ) ;
#218 = APPROVAL_PERSON_ORGANIZATION ( #22, #14, #186 ) ;
#219 = ADVANCED_BREP_SHAPE_REPRESENTATION ( 'DummyBattery_Default_sldprt', ( #88, #220 ), #69 ) ;
#220 = AXIS2_PLACEMENT_3D ( 'NONE', #3, #76, #143 ) ;
#221 = VECTOR ( 'NONE', #185, 1000.000000000000000 ) ;
#222 = CALENDAR_DATE ( 2026, 22, 8 ) ;
#223 = DIRECTION ( 'NONE',  ( 1.000000000000000000, 4.336808689942017736E-16, -0.000000000000000000 ) ) ;
#224 = CC_DESIGN_DATE_AND_TIME_ASSIGNMENT ( #28, #148, ( #24 ) ) ;
#225 = VERTEX_POINT ( 'NONE', #194 ) ;
#226 = VECTOR ( 'NONE', #237, 1000.000000000000000 ) ;
#227 = CARTESIAN_POINT ( 'NONE',  ( 35.99999999999998579, 15.99999999999999289, -40.00000000000000000 ) ) ;
#228 = PERSON_AND_ORGANIZATION ( #200, #212 ) ;
#229 = UNCERTAINTY_MEASURE_WITH_UNIT (LENGTH_MEASURE( 1.000000000000000082E-05 ), #101, 'distance_accuracy_value', 'NONE');
#230 = ORIENTED_EDGE ( 'NONE', *, *, #172, .T. ) ;
#231 = ORIENTED_EDGE ( 'NONE', *, *, #57, .T. ) ;
#232 = PRODUCT_RELATED_PRODUCT_CATEGORY ( 'detail', '', ( #123 ) ) ;
#233 = CARTESIAN_POINT ( 'NONE',  ( -36.00000000000000711, -16.00000000000000711, 0.000000000000000000 ) ) ;
#234 =( NAMED_UNIT ( * ) SI_UNIT ( $, .STERADIAN. ) SOLID_ANGLE_UNIT ( ) );
#235 = ADVANCED_FACE ( 'NONE', ( #13 ), #177, .T. ) ;
#236 = SECURITY_CLASSIFICATION ( '', '', #59 ) ;
#237 = DIRECTION ( 'NONE',  ( 0.000000000000000000, 0.000000000000000000, 1.000000000000000000 ) ) ;
ENDSEC;
END-ISO-10303-21;
