ISO-10303-21;
HEADER;
FILE_DESCRIPTION (( 'STEP AP203' ),
    '1' );
FILE_NAME ('DummyBuckConverter_Default_sldprt.STEP',
    '2026-08-22T16:39:51',
    ( '' ),
    ( '' ),
    'SwSTEP 2.0',
    'SolidWorks 2020',
    '' );
FILE_SCHEMA (( 'CONFIG_CONTROL_DESIGN' ));
ENDSEC;

DATA;
#1 = DIRECTION ( 'NONE',  ( 1.084202172485504434E-16, -1.000000000000000000, 0.000000000000000000 ) ) ;
#2 = LINE ( 'NONE', #208, #195 ) ;
#3 = APPROVAL_STATUS ( 'not_yet_approved' ) ;
#4 = VERTEX_POINT ( 'NONE', #227 ) ;
#5 = DIRECTION ( 'NONE',  ( 1.084202172485504434E-16, -1.000000000000000000, 0.000000000000000000 ) ) ;
#6 = COORDINATED_UNIVERSAL_TIME_OFFSET ( 5, 30, .AHEAD. ) ;
#7 = CC_DESIGN_PERSON_AND_ORGANIZATION_ASSIGNMENT ( #162, #108, ( #116 ) ) ;
#8 = ORIENTED_EDGE ( 'NONE', *, *, #58, .F. ) ;
#9 = CARTESIAN_POINT ( 'NONE',  ( 30.00000000000000000, 16.00000000000000000, -40.00000000000000000 ) ) ;
#10 = DIRECTION ( 'NONE',  ( 1.000000000000000000, 0.000000000000000000, 0.000000000000000000 ) ) ;
#11 = PERSON_AND_ORGANIZATION ( #28, #173 ) ;
#12 = CLOSED_SHELL ( 'NONE', ( #106, #62, #221, #112, #184, #128 ) ) ;
#13 = EDGE_CURVE ( 'NONE', #60, #207, #44, .T. ) ;
#14 = APPROVAL_STATUS ( 'not_yet_approved' ) ;
#15 = ADVANCED_BREP_SHAPE_REPRESENTATION ( 'DummyBuckConverter_Default_sldprt', ( #135, #76 ), #68 ) ;
#16 = CC_DESIGN_DATE_AND_TIME_ASSIGNMENT ( #52, #200, ( #133 ) ) ;
#17 = EDGE_CURVE ( 'NONE', #90, #60, #188, .T. ) ;
#18 = VECTOR ( 'NONE', #5, 1000.000000000000000 ) ;
#19 = EDGE_LOOP ( 'NONE', ( #214, #223, #87, #139 ) ) ;
#20 = ORIENTED_EDGE ( 'NONE', *, *, #27, .F. ) ;
#21 = DIRECTION ( 'NONE',  ( 0.000000000000000000, 0.000000000000000000, 1.000000000000000000 ) ) ;
#22 = CARTESIAN_POINT ( 'NONE',  ( -30.00000000000000000, 16.00000000000000000, -40.00000000000000000 ) ) ;
#23 = APPROVAL_ROLE ( '' ) ;
#24 = ORIENTED_EDGE ( 'NONE', *, *, #201, .T. ) ;
#25 = LINE ( 'NONE', #101, #213 ) ;
#26 = PERSON_AND_ORGANIZATION_ROLE ( 'creator' ) ;
#27 = EDGE_CURVE ( 'NONE', #155, #100, #42, .T. ) ;
#28 = PERSON ( 'UNSPECIFIED', 'UNSPECIFIED', 'UNSPECIFIED', ('UNSPECIFIED'), ('UNSPECIFIED'), ('UNSPECIFIED') ) ;
#29 = ORIENTED_EDGE ( 'NONE', *, *, #38, .T. ) ;
#30 = CARTESIAN_POINT ( 'NONE',  ( -30.00000000000000000, 16.00000000000000000, -40.00000000000000000 ) ) ;
#31 = CALENDAR_DATE ( 2026, 22, 8 ) ;
#32 = LINE ( 'NONE', #180, #33 ) ;
#33 = VECTOR ( 'NONE', #10, 1000.000000000000000 ) ;
#34 = CALENDAR_DATE ( 2026, 22, 8 ) ;
#35 = VECTOR ( 'NONE', #21, 1000.000000000000000 ) ;
#36 = CC_DESIGN_PERSON_AND_ORGANIZATION_ASSIGNMENT ( #226, #75, ( #235 ) ) ;
#37 = LOCAL_TIME ( 22, 9, 51.00000000000000000, #166 ) ;
#38 = EDGE_CURVE ( 'NONE', #171, #233, #156, .T. ) ;
#39 = ORIENTED_EDGE ( 'NONE', *, *, #219, .T. ) ;
#40 = LOCAL_TIME ( 22, 9, 51.00000000000000000, #69 ) ;
#41 = LINE ( 'NONE', #9, #83 ) ;
#42 = LINE ( 'NONE', #174, #124 ) ;
#43 = DIRECTION ( 'NONE',  ( 1.000000000000000000, 0.000000000000000000, 0.000000000000000000 ) ) ;
#44 = LINE ( 'NONE', #191, #151 ) ;
#45 = CARTESIAN_POINT ( 'NONE',  ( 30.00000000000000711, -16.00000000000000000, -40.00000000000000000 ) ) ;
#46 = DIRECTION ( 'NONE',  ( 1.000000000000000000, 0.000000000000000000, 0.000000000000000000 ) ) ;
#47 = DIRECTION ( 'NONE',  ( -1.000000000000000000, -0.000000000000000000, -0.000000000000000000 ) ) ;
#48 = LINE ( 'NONE', #30, #18 ) ;
#49 = APPROVAL_ROLE ( '' ) ;
#50 = DIRECTION ( 'NONE',  ( -2.168404344971008868E-16, 1.000000000000000000, -0.000000000000000000 ) ) ;
#51 = DIRECTION ( 'NONE',  ( 1.084202172485504434E-16, -1.000000000000000000, 0.000000000000000000 ) ) ;
#52 = DATE_AND_TIME ( #202, #37 ) ;
#53 = CALENDAR_DATE ( 2026, 22, 8 ) ;
#54 = ORIENTED_EDGE ( 'NONE', *, *, #189, .F. ) ;
#55 = VECTOR ( 'NONE', #47, 1000.000000000000000 ) ;
#56 = SHAPE_DEFINITION_REPRESENTATION ( #71, #15 ) ;
#57 = DATE_AND_TIME ( #31, #40 ) ;
#58 = EDGE_CURVE ( 'NONE', #100, #60, #143, .T. ) ;
#59 = APPROVAL_PERSON_ORGANIZATION ( #229, #118, #23 ) ;
#60 = VERTEX_POINT ( 'NONE', #163 ) ;
#61 =( NAMED_UNIT ( * ) PLANE_ANGLE_UNIT ( ) SI_UNIT ( $, .RADIAN. ) );
#62 = ADVANCED_FACE ( 'NONE', ( #74 ), #140, .T. ) ;
#63 = ORIENTED_EDGE ( 'NONE', *, *, #159, .F. ) ;
#64 = PLANE ( 'NONE',  #153 ) ;
#65 = COORDINATED_UNIVERSAL_TIME_OFFSET ( 5, 30, .AHEAD. ) ;
#66 = DIRECTION ( 'NONE',  ( -2.168404344971008868E-16, 1.000000000000000000, -0.000000000000000000 ) ) ;
#67 = FACE_OUTER_BOUND ( 'NONE', #97, .T. ) ;
#68 =( GEOMETRIC_REPRESENTATION_CONTEXT ( 3 ) GLOBAL_UNCERTAINTY_ASSIGNED_CONTEXT ( ( #236 ) ) GLOBAL_UNIT_ASSIGNED_CONTEXT ( ( #79, #61, #179 ) ) REPRESENTATION_CONTEXT ( 'NONE', 'WORKASPACE' ) );
#69 = COORDINATED_UNIVERSAL_TIME_OFFSET ( 5, 30, .AHEAD. ) ;
#70 = CARTESIAN_POINT ( 'NONE',  ( -30.00000000000000000, 16.00000000000000000, 0.000000000000000000 ) ) ;
#71 = PRODUCT_DEFINITION_SHAPE ( 'NONE', 'NONE',  #133 ) ;
#72 = CARTESIAN_POINT ( 'NONE',  ( -30.00000000000000000, 16.00000000000000000, -40.00000000000000000 ) ) ;
#73 = MECHANICAL_CONTEXT ( 'NONE', #187, 'mechanical' ) ;
#74 = FACE_OUTER_BOUND ( 'NONE', #84, .T. ) ;
#75 = PERSON_AND_ORGANIZATION_ROLE ( 'classification_officer' ) ;
#76 = AXIS2_PLACEMENT_3D ( 'NONE', #127, #105, #46 ) ;
#77 = EDGE_CURVE ( 'NONE', #207, #155, #32, .T. ) ;
#78 = ORIENTED_EDGE ( 'NONE', *, *, #77, .F. ) ;
#79 =( LENGTH_UNIT ( ) NAMED_UNIT ( * ) SI_UNIT ( .MILLI., .METRE. ) );
#80 = ORIENTED_EDGE ( 'NONE', *, *, #17, .F. ) ;
#81 = FACE_OUTER_BOUND ( 'NONE', #222, .T. ) ;
#82 = PERSON_AND_ORGANIZATION ( #28, #173 ) ;
#83 = VECTOR ( 'NONE', #141, 1000.000000000000000 ) ;
#84 = EDGE_LOOP ( 'NONE', ( #78, #63, #121, #39 ) ) ;
#85 = CARTESIAN_POINT ( 'NONE',  ( 30.00000000000000711, -16.00000000000000000, -40.00000000000000000 ) ) ;
#86 = PERSON_AND_ORGANIZATION_ROLE ( 'creator' ) ;
#87 = ORIENTED_EDGE ( 'NONE', *, *, #13, .T. ) ;
#88 = CARTESIAN_POINT ( 'NONE',  ( 30.00000000000000711, -16.00000000000000000, 0.000000000000000000 ) ) ;
#89 = CC_DESIGN_APPROVAL ( #144, ( #116 ) ) ;
#90 = VERTEX_POINT ( 'NONE', #72 ) ;
#91 = APPLICATION_PROTOCOL_DEFINITION ( 'international standard', 'config_control_design', 1994, #187 ) ;
#92 = CC_DESIGN_PERSON_AND_ORGANIZATION_ASSIGNMENT ( #142, #26, ( #133 ) ) ;
#93 = LOCAL_TIME ( 22, 9, 51.00000000000000000, #6 ) ;
#94 = CC_DESIGN_PERSON_AND_ORGANIZATION_ASSIGNMENT ( #82, #86, ( #116 ) ) ;
#95 = VECTOR ( 'NONE', #50, 1000.000000000000000 ) ;
#96 = DIRECTION ( 'NONE',  ( -2.168404344971008868E-16, 1.000000000000000000, 0.000000000000000000 ) ) ;
#97 = EDGE_LOOP ( 'NONE', ( #209, #80, #24, #230 ) ) ;
#98 = DIRECTION ( 'NONE',  ( -0.000000000000000000, 0.000000000000000000, 1.000000000000000000 ) ) ;
#99 = CC_DESIGN_APPROVAL ( #185, ( #133 ) ) ;
#100 = VERTEX_POINT ( 'NONE', #237 ) ;
#101 = CARTESIAN_POINT ( 'NONE',  ( -29.99999999999999645, -16.00000000000000000, -40.00000000000000000 ) ) ;
#102 = PERSON_AND_ORGANIZATION ( #28, #173 ) ;
#103 = ORIENTED_EDGE ( 'NONE', *, *, #38, .F. ) ;
#104 = DIRECTION ( 'NONE',  ( 0.000000000000000000, 1.000000000000000000, 0.000000000000000000 ) ) ;
#105 = DIRECTION ( 'NONE',  ( 0.000000000000000000, 0.000000000000000000, 1.000000000000000000 ) ) ;
#106 = ADVANCED_FACE ( 'NONE', ( #81 ), #120, .T. ) ;
#107 = ORIENTED_EDGE ( 'NONE', *, *, #219, .F. ) ;
#108 = PERSON_AND_ORGANIZATION_ROLE ( 'design_supplier' ) ;
#109 = DATE_TIME_ROLE ( 'classification_date' ) ;
#110 = DESIGN_CONTEXT ( 'detailed design', #203, 'design' ) ;
#111 = LOCAL_TIME ( 22, 9, 51.00000000000000000, #216 ) ;
#112 = ADVANCED_FACE ( 'NONE', ( #157 ), #64, .T. ) ;
#113 = APPROVAL_PERSON_ORGANIZATION ( #176, #185, #49 ) ;
#114 = AXIS2_PLACEMENT_3D ( 'NONE', #190, #98, #43 ) ;
#115 = AXIS2_PLACEMENT_3D ( 'NONE', #146, #129, #198 ) ;
#116 = PRODUCT_DEFINITION_FORMATION_WITH_SPECIFIED_SOURCE ( 'ANY', '', #149, .NOT_KNOWN. ) ;
#117 = FACE_OUTER_BOUND ( 'NONE', #165, .T. ) ;
#118 = APPROVAL ( #14, 'UNSPECIFIED' ) ;
#119 = ORIENTED_EDGE ( 'NONE', *, *, #201, .F. ) ;
#120 = PLANE ( 'NONE',  #167 ) ;
#121 = ORIENTED_EDGE ( 'NONE', *, *, #189, .T. ) ;
#122 = CARTESIAN_POINT ( 'NONE',  ( 0.000000000000000000, 0.000000000000000000, -40.00000000000000000 ) ) ;
#123 = PERSON_AND_ORGANIZATION_ROLE ( 'design_owner' ) ;
#124 = VECTOR ( 'NONE', #66, 1000.000000000000000 ) ;
#125 = ORIENTED_EDGE ( 'NONE', *, *, #17, .T. ) ;
#126 = PLANE ( 'NONE',  #154 ) ;
#127 = CARTESIAN_POINT ( 'NONE',  ( 0.000000000000000000, 0.000000000000000000, 0.000000000000000000 ) ) ;
#128 = ADVANCED_FACE ( 'NONE', ( #225 ), #232, .T. ) ;
#129 = DIRECTION ( 'NONE',  ( 0.000000000000000000, -1.000000000000000000, 0.000000000000000000 ) ) ;
#130 = CARTESIAN_POINT ( 'NONE',  ( 30.00000000000000000, 16.00000000000000000, -40.00000000000000000 ) ) ;
#131 = APPROVAL_ROLE ( '' ) ;
#132 = DATE_AND_TIME ( #53, #186 ) ;
#133 = PRODUCT_DEFINITION ( 'UNKNOWN', '', #116, #110 ) ;
#134 = AXIS2_PLACEMENT_3D ( 'NONE', #122, #192, #212 ) ;
#135 = MANIFOLD_SOLID_BREP ( 'Boss-Extrude1', #12 ) ;
#136 = CC_DESIGN_SECURITY_CLASSIFICATION ( #235, ( #116 ) ) ;
#137 = EDGE_CURVE ( 'NONE', #233, #90, #206, .T. ) ;
#138 = VECTOR ( 'NONE', #228, 1000.000000000000000 ) ;
#139 = ORIENTED_EDGE ( 'NONE', *, *, #77, .T. ) ;
#140 = PLANE ( 'NONE',  #115 ) ;
#141 = DIRECTION ( 'NONE',  ( 0.000000000000000000, 0.000000000000000000, 1.000000000000000000 ) ) ;
#142 = PERSON_AND_ORGANIZATION ( #28, #173 ) ;
#143 = LINE ( 'NONE', #70, #55 ) ;
#144 = APPROVAL ( #234, 'UNSPECIFIED' ) ;
#145 = PLANE ( 'NONE',  #134 ) ;
#146 = CARTESIAN_POINT ( 'NONE',  ( -29.99999999999999645, -16.00000000000000000, -40.00000000000000000 ) ) ;
#147 = DIRECTION ( 'NONE',  ( 0.000000000000000000, 0.000000000000000000, 1.000000000000000000 ) ) ;
#148 = EDGE_LOOP ( 'NONE', ( #8, #211, #160, #125 ) ) ;
#149 = PRODUCT ( 'DummyBuckConverter_Default_sldprt', 'DummyBuckConverter_Default_sldprt', '', ( #73 ) ) ;
#150 = CC_DESIGN_DATE_AND_TIME_ASSIGNMENT ( #132, #109, ( #235 ) ) ;
#151 = VECTOR ( 'NONE', #1, 1000.000000000000000 ) ;
#152 = EDGE_CURVE ( 'NONE', #233, #100, #41, .T. ) ;
#153 = AXIS2_PLACEMENT_3D ( 'NONE', #172, #104, #164 ) ;
#154 = AXIS2_PLACEMENT_3D ( 'NONE', #215, #196, #51 ) ;
#155 = VERTEX_POINT ( 'NONE', #88 ) ;
#156 = LINE ( 'NONE', #224, #95 ) ;
#157 = FACE_OUTER_BOUND ( 'NONE', #148, .T. ) ;
#158 = SECURITY_CLASSIFICATION_LEVEL ( 'unclassified' ) ;
#159 = EDGE_CURVE ( 'NONE', #4, #207, #2, .T. ) ;
#160 = ORIENTED_EDGE ( 'NONE', *, *, #137, .T. ) ;
#161 = CARTESIAN_POINT ( 'NONE',  ( 30.00000000000000000, 16.00000000000000000, -40.00000000000000000 ) ) ;
#162 = PERSON_AND_ORGANIZATION ( #28, #173 ) ;
#163 = CARTESIAN_POINT ( 'NONE',  ( -30.00000000000000000, 16.00000000000000000, 0.000000000000000000 ) ) ;
#164 = DIRECTION ( 'NONE',  ( 0.000000000000000000, -0.000000000000000000, 1.000000000000000000 ) ) ;
#165 = EDGE_LOOP ( 'NONE', ( #103, #54, #119, #205 ) ) ;
#166 = COORDINATED_UNIVERSAL_TIME_OFFSET ( 5, 30, .AHEAD. ) ;
#167 = AXIS2_PLACEMENT_3D ( 'NONE', #161, #204, #96 ) ;
#168 = APPROVAL_DATE_TIME ( #57, #118 ) ;
#169 = VECTOR ( 'NONE', #170, 1000.000000000000000 ) ;
#170 = DIRECTION ( 'NONE',  ( 0.000000000000000000, 0.000000000000000000, 1.000000000000000000 ) ) ;
#171 = VERTEX_POINT ( 'NONE', #45 ) ;
#172 = CARTESIAN_POINT ( 'NONE',  ( -30.00000000000000000, 16.00000000000000000, -40.00000000000000000 ) ) ;
#173 = ORGANIZATION ( 'UNSPECIFIED', 'UNSPECIFIED', '' ) ;
#174 = CARTESIAN_POINT ( 'NONE',  ( 30.00000000000000000, 16.00000000000000000, 0.000000000000000000 ) ) ;
#175 = DIRECTION ( 'NONE',  ( 1.000000000000000000, 0.000000000000000000, 0.000000000000000000 ) ) ;
#176 = PERSON_AND_ORGANIZATION ( #28, #173 ) ;
#177 = ORIENTED_EDGE ( 'NONE', *, *, #152, .T. ) ;
#178 = CARTESIAN_POINT ( 'NONE',  ( -29.99999999999999645, -16.00000000000000000, 0.000000000000000000 ) ) ;
#179 =( NAMED_UNIT ( * ) SI_UNIT ( $, .STERADIAN. ) SOLID_ANGLE_UNIT ( ) );
#180 = CARTESIAN_POINT ( 'NONE',  ( -29.99999999999999645, -16.00000000000000000, 0.000000000000000000 ) ) ;
#181 = CC_DESIGN_APPROVAL ( #118, ( #235 ) ) ;
#182 = APPLICATION_PROTOCOL_DEFINITION ( 'international standard', 'config_control_design', 1994, #203 ) ;
#183 = DATE_AND_TIME ( #34, #93 ) ;
#184 = ADVANCED_FACE ( 'NONE', ( #117 ), #145, .F. ) ;
#185 = APPROVAL ( #3, 'UNSPECIFIED' ) ;
#186 = LOCAL_TIME ( 22, 9, 51.00000000000000000, #65 ) ;
#187 = APPLICATION_CONTEXT ( 'configuration controlled 3d designs of mechanical parts and assemblies' ) ;
#188 = LINE ( 'NONE', #194, #35 ) ;
#189 = EDGE_CURVE ( 'NONE', #4, #171, #25, .T. ) ;
#190 = CARTESIAN_POINT ( 'NONE',  ( 0.000000000000000000, 0.000000000000000000, 0.000000000000000000 ) ) ;
#191 = CARTESIAN_POINT ( 'NONE',  ( -30.00000000000000000, 16.00000000000000000, 0.000000000000000000 ) ) ;
#192 = DIRECTION ( 'NONE',  ( -0.000000000000000000, 0.000000000000000000, 1.000000000000000000 ) ) ;
#193 = CALENDAR_DATE ( 2026, 22, 8 ) ;
#194 = CARTESIAN_POINT ( 'NONE',  ( -30.00000000000000000, 16.00000000000000000, -40.00000000000000000 ) ) ;
#195 = VECTOR ( 'NONE', #147, 1000.000000000000000 ) ;
#196 = DIRECTION ( 'NONE',  ( -1.000000000000000000, -1.084202172485504434E-16, 0.000000000000000000 ) ) ;
#197 = DATE_AND_TIME ( #193, #111 ) ;
#198 = DIRECTION ( 'NONE',  ( 0.000000000000000000, -0.000000000000000000, -1.000000000000000000 ) ) ;
#199 = LINE ( 'NONE', #85, #169 ) ;
#200 = DATE_TIME_ROLE ( 'creation_date' ) ;
#201 = EDGE_CURVE ( 'NONE', #90, #4, #48, .T. ) ;
#202 = CALENDAR_DATE ( 2026, 22, 8 ) ;
#203 = APPLICATION_CONTEXT ( 'configuration controlled 3d designs of mechanical parts and assemblies' ) ;
#204 = DIRECTION ( 'NONE',  ( 1.000000000000000000, 2.168404344971008868E-16, -0.000000000000000000 ) ) ;
#205 = ORIENTED_EDGE ( 'NONE', *, *, #137, .F. ) ;
#206 = LINE ( 'NONE', #22, #138 ) ;
#207 = VERTEX_POINT ( 'NONE', #178 ) ;
#208 = CARTESIAN_POINT ( 'NONE',  ( -29.99999999999999645, -16.00000000000000000, -40.00000000000000000 ) ) ;
#209 = ORIENTED_EDGE ( 'NONE', *, *, #13, .F. ) ;
#210 = APPROVAL_DATE_TIME ( #183, #144 ) ;
#211 = ORIENTED_EDGE ( 'NONE', *, *, #152, .F. ) ;
#212 = DIRECTION ( 'NONE',  ( 1.000000000000000000, 0.000000000000000000, 0.000000000000000000 ) ) ;
#213 = VECTOR ( 'NONE', #175, 1000.000000000000000 ) ;
#214 = ORIENTED_EDGE ( 'NONE', *, *, #27, .T. ) ;
#215 = CARTESIAN_POINT ( 'NONE',  ( -30.00000000000000000, 16.00000000000000000, -40.00000000000000000 ) ) ;
#216 = COORDINATED_UNIVERSAL_TIME_OFFSET ( 5, 30, .AHEAD. ) ;
#217 = PRODUCT_RELATED_PRODUCT_CATEGORY ( 'detail', '', ( #149 ) ) ;
#218 = APPROVAL_DATE_TIME ( #197, #185 ) ;
#219 = EDGE_CURVE ( 'NONE', #171, #155, #199, .T. ) ;
#220 = APPROVAL_PERSON_ORGANIZATION ( #102, #144, #131 ) ;
#221 = ADVANCED_FACE ( 'NONE', ( #67 ), #126, .T. ) ;
#222 = EDGE_LOOP ( 'NONE', ( #20, #107, #29, #177 ) ) ;
#223 = ORIENTED_EDGE ( 'NONE', *, *, #58, .T. ) ;
#224 = CARTESIAN_POINT ( 'NONE',  ( 30.00000000000000000, 16.00000000000000000, -40.00000000000000000 ) ) ;
#225 = FACE_OUTER_BOUND ( 'NONE', #19, .T. ) ;
#226 = PERSON_AND_ORGANIZATION ( #28, #173 ) ;
#227 = CARTESIAN_POINT ( 'NONE',  ( -29.99999999999999645, -16.00000000000000000, -40.00000000000000000 ) ) ;
#228 = DIRECTION ( 'NONE',  ( -1.000000000000000000, -0.000000000000000000, -0.000000000000000000 ) ) ;
#229 = PERSON_AND_ORGANIZATION ( #28, #173 ) ;
#230 = ORIENTED_EDGE ( 'NONE', *, *, #159, .T. ) ;
#231 = CC_DESIGN_PERSON_AND_ORGANIZATION_ASSIGNMENT ( #11, #123, ( #149 ) ) ;
#232 = PLANE ( 'NONE',  #114 ) ;
#233 = VERTEX_POINT ( 'NONE', #130 ) ;
#234 = APPROVAL_STATUS ( 'not_yet_approved' ) ;
#235 = SECURITY_CLASSIFICATION ( '', '', #158 ) ;
#236 = UNCERTAINTY_MEASURE_WITH_UNIT (LENGTH_MEASURE( 1.000000000000000082E-05 ), #79, 'distance_accuracy_value', 'NONE');
#237 = CARTESIAN_POINT ( 'NONE',  ( 30.00000000000000000, 16.00000000000000000, 0.000000000000000000 ) ) ;
ENDSEC;
END-ISO-10303-21;
