ISO-10303-21;
HEADER;
FILE_DESCRIPTION (( 'STEP AP203' ),
    '1' );
FILE_NAME ('LinkGripperToArm_cover_top_sldprt.STEP',
    '2026-08-22T16:39:54',
    ( '' ),
    ( '' ),
    'SwSTEP 2.0',
    'SolidWorks 2020',
    '' );
FILE_SCHEMA (( 'CONFIG_CONTROL_DESIGN' ));
ENDSEC;

DATA;
#1 = CARTESIAN_POINT ( 'NONE',  ( -14.50099999999999767, 17.49999999999999645, 77.00000000000000000 ) ) ;
#2 = ORIENTED_EDGE ( 'NONE', *, *, #217, .F. ) ;
#3 = DIRECTION ( 'NONE',  ( 0.000000000000000000, 0.000000000000000000, -1.000000000000000000 ) ) ;
#4 = ADVANCED_FACE ( 'NONE', ( #497 ), #959, .F. ) ;
#5 = CARTESIAN_POINT ( 'NONE',  ( 0.000000000000000000, -14.50000000000000000, -2.000000000000000000 ) ) ;
#6 = DIRECTION ( 'NONE',  ( -1.000000000000000000, -0.000000000000000000, -0.000000000000000000 ) ) ;
#7 = ORIENTED_EDGE ( 'NONE', *, *, #580, .F. ) ;
#8 = FACE_OUTER_BOUND ( 'NONE', #1161, .T. ) ;
#9 = CARTESIAN_POINT ( 'NONE',  ( -14.50099999999999767, -14.50000000000000533, 39.00000000000000000 ) ) ;
#10 = ORIENTED_EDGE ( 'NONE', *, *, #104, .T. ) ;
#11 = AXIS2_PLACEMENT_3D ( 'NONE', #664, #648, #1011 ) ;
#12 = FACE_OUTER_BOUND ( 'NONE', #1081, .T. ) ;
#13 = VECTOR ( 'NONE', #498, 1000.000000000000000 ) ;
#14 = VECTOR ( 'NONE', #306, 1000.000000000000000 ) ;
#15 = DIRECTION ( 'NONE',  ( -0.000000000000000000, -0.000000000000000000, 1.000000000000000000 ) ) ;
#16 = EDGE_CURVE ( 'NONE', #1174, #622, #129, .T. ) ;
#17 = ORIENTED_EDGE ( 'NONE', *, *, #802, .T. ) ;
#18 = DIRECTION ( 'NONE',  ( 0.000000000000000000, 0.000000000000000000, -1.000000000000000000 ) ) ;
#19 = AXIS2_PLACEMENT_3D ( 'NONE', #440, #610, #901 ) ;
#20 = CARTESIAN_POINT ( 'NONE',  ( -14.50099999999999767, 17.49999999999999645, 59.50000000000000000 ) ) ;
#21 = VERTEX_POINT ( 'NONE', #604 ) ;
#22 = LINE ( 'NONE', #773, #153 ) ;
#23 = DIRECTION ( 'NONE',  ( 1.000000000000000000, 0.000000000000000000, 0.000000000000000000 ) ) ;
#24 = EDGE_CURVE ( 'NONE', #73, #522, #481, .T. ) ;
#25 = ORIENTED_EDGE ( 'NONE', *, *, #270, .T. ) ;
#26 = CYLINDRICAL_SURFACE ( 'NONE', #191, 2.000000000000001776 ) ;
#27 = VERTEX_POINT ( 'NONE', #976 ) ;
#28 = EDGE_LOOP ( 'NONE', ( #36, #1136, #25, #914 ) ) ;
#29 = DIRECTION ( 'NONE',  ( 0.000000000000000000, 0.000000000000000000, -1.000000000000000000 ) ) ;
#30 = ADVANCED_FACE ( 'NONE', ( #405 ), #508, .F. ) ;
#31 = DIRECTION ( 'NONE',  ( -1.000000000000000000, 0.000000000000000000, 0.000000000000000000 ) ) ;
#32 = CIRCLE ( 'NONE', #846, 2.000000000000001776 ) ;
#33 = FACE_OUTER_BOUND ( 'NONE', #964, .T. ) ;
#34 = CARTESIAN_POINT ( 'NONE',  ( -3.500000000000000000, 0.000000000000000000, 0.000000000000000000 ) ) ;
#35 = CIRCLE ( 'NONE', #337, 3.500000000000000000 ) ;
#36 = ORIENTED_EDGE ( 'NONE', *, *, #625, .F. ) ;
#37 = ADVANCED_FACE ( 'NONE', ( #33 ), #794, .F. ) ;
#38 = CARTESIAN_POINT ( 'NONE',  ( -7.347880794884123680E-16, 20.49999999999999645, 80.00000000000000000 ) ) ;
#39 = ORIENTED_EDGE ( 'NONE', *, *, #802, .F. ) ;
#40 = PLANE ( 'NONE',  #640 ) ;
#41 = EDGE_LOOP ( 'NONE', ( #268, #586, #204, #844 ) ) ;
#42 = AXIS2_PLACEMENT_3D ( 'NONE', #240, #344, #609 ) ;
#43 = EDGE_CURVE ( 'NONE', #1050, #868, #1165, .T. ) ;
#44 = CARTESIAN_POINT ( 'NONE',  ( 0.000000000000000000, 17.49999999999999645, 59.50000000000000000 ) ) ;
#45 = ORIENTED_EDGE ( 'NONE', *, *, #329, .F. ) ;
#46 = CARTESIAN_POINT ( 'NONE',  ( -14.50099999999999767, -17.49999999999999645, 77.00000000000000000 ) ) ;
#47 = EDGE_LOOP ( 'NONE', ( #330, #231, #900, #345 ) ) ;
#48 = CARTESIAN_POINT ( 'NONE',  ( 0.000000000000000000, 20.49999999999999645, 39.00000000000000000 ) ) ;
#49 = DIRECTION ( 'NONE',  ( 0.000000000000000000, 0.000000000000000000, -1.000000000000000000 ) ) ;
#50 = DIRECTION ( 'NONE',  ( 0.000000000000000000, 0.000000000000000000, -1.000000000000000000 ) ) ;
#51 = LINE ( 'NONE', #1077, #95 ) ;
#52 = VECTOR ( 'NONE', #646, 1000.000000000000000 ) ;
#53 = ORIENTED_EDGE ( 'NONE', *, *, #631, .F. ) ;
#54 = VECTOR ( 'NONE', #688, 1000.000000000000000 ) ;
#55 = DIRECTION ( 'NONE',  ( 1.000000000000000000, 0.000000000000000000, 0.000000000000000000 ) ) ;
#56 = EDGE_CURVE ( 'NONE', #533, #220, #687, .T. ) ;
#57 = DIRECTION ( 'NONE',  ( 1.000000000000000000, 0.000000000000000000, 0.000000000000000000 ) ) ;
#58 = DIRECTION ( 'NONE',  ( 1.000000000000000000, 0.000000000000000000, 0.000000000000000000 ) ) ;
#59 = ORIENTED_EDGE ( 'NONE', *, *, #385, .F. ) ;
#60 = CARTESIAN_POINT ( 'NONE',  ( -14.50099999999999767, -17.49999999999999645, 79.00000000000000000 ) ) ;
#61 = ORIENTED_EDGE ( 'NONE', *, *, #109, .F. ) ;
#62 = DATE_AND_TIME ( #811, #139 ) ;
#63 = LINE ( 'NONE', #724, #1056 ) ;
#64 = PERSON ( 'UNSPECIFIED', 'UNSPECIFIED', 'UNSPECIFIED', ('UNSPECIFIED'), ('UNSPECIFIED'), ('UNSPECIFIED') ) ;
#65 = LINE ( 'NONE', #71, #831 ) ;
#66 = VERTEX_POINT ( 'NONE', #301 ) ;
#67 = AXIS2_PLACEMENT_3D ( 'NONE', #348, #58, #235 ) ;
#68 = PERSON_AND_ORGANIZATION_ROLE ( 'design_supplier' ) ;
#69 = DIRECTION ( 'NONE',  ( 0.000000000000000000, -1.000000000000000000, 0.000000000000000000 ) ) ;
#70 = ORIENTED_EDGE ( 'NONE', *, *, #24, .F. ) ;
#71 = CARTESIAN_POINT ( 'NONE',  ( -14.50099999999999767, 17.49999999999999645, 61.50000000000000000 ) ) ;
#72 = EDGE_CURVE ( 'NONE', #1001, #559, #681, .T. ) ;
#73 = VERTEX_POINT ( 'NONE', #693 ) ;
#74 = DATE_AND_TIME ( #715, #870 ) ;
#75 = CIRCLE ( 'NONE', #245, 1.249999999999999334 ) ;
#76 = ORGANIZATION ( 'UNSPECIFIED', 'UNSPECIFIED', '' ) ;
#77 = CARTESIAN_POINT ( 'NONE',  ( -2.000000000000000000, -17.49999999999999645, 43.00000000000000000 ) ) ;
#78 = VERTEX_POINT ( 'NONE', #162 ) ;
#79 = CARTESIAN_POINT ( 'NONE',  ( 0.000000000000000000, -17.49999999999999645, 40.99999999999999289 ) ) ;
#80 = VERTEX_POINT ( 'NONE', #1097 ) ;
#81 = CALENDAR_DATE ( 2026, 22, 8 ) ;
#82 = DIRECTION ( 'NONE',  ( -1.000000000000000000, 0.000000000000000000, 0.000000000000000000 ) ) ;
#83 = VERTEX_POINT ( 'NONE', #261 ) ;
#84 = EDGE_CURVE ( 'NONE', #600, #78, #502, .T. ) ;
#85 = DIRECTION ( 'NONE',  ( -0.000000000000000000, -0.000000000000000000, -1.000000000000000000 ) ) ;
#86 = DIRECTION ( 'NONE',  ( -1.000000000000000000, 0.000000000000000000, 0.000000000000000000 ) ) ;
#87 = FACE_OUTER_BOUND ( 'NONE', #501, .T. ) ;
#88 = EDGE_LOOP ( 'NONE', ( #428, #1188 ) ) ;
#89 = DIRECTION ( 'NONE',  ( 1.000000000000000000, -0.000000000000000000, -0.000000000000000000 ) ) ;
#90 = FACE_BOUND ( 'NONE', #170, .T. ) ;
#91 = DIRECTION ( 'NONE',  ( 1.000000000000000000, 0.000000000000000000, -0.000000000000000000 ) ) ;
#92 = EDGE_CURVE ( 'NONE', #655, #262, #920, .T. ) ;
#93 = ORIENTED_EDGE ( 'NONE', *, *, #934, .F. ) ;
#94 = AXIS2_PLACEMENT_3D ( 'NONE', #816, #982, #1002 ) ;
#95 = VECTOR ( 'NONE', #713, 1000.000000000000000 ) ;
#96 = CARTESIAN_POINT ( 'NONE',  ( -8.500000000000000000, 0.000000000000000000, -2.000000000000000000 ) ) ;
#97 = AXIS2_PLACEMENT_3D ( 'NONE', #922, #748, #739 ) ;
#98 = EDGE_CURVE ( 'NONE', #262, #21, #996, .T. ) ;
#99 = AXIS2_PLACEMENT_3D ( 'NONE', #975, #971, #31 ) ;
#100 = DIRECTION ( 'NONE',  ( 0.000000000000000000, 0.000000000000000000, -1.000000000000000000 ) ) ;
#101 = DIRECTION ( 'NONE',  ( 0.000000000000000000, 0.000000000000000000, -1.000000000000000000 ) ) ;
#102 = ORIENTED_EDGE ( 'NONE', *, *, #429, .T. ) ;
#103 = CARTESIAN_POINT ( 'NONE',  ( -2.000000000000000888, -20.49999999999999645, 80.00000000000000000 ) ) ;
#104 = EDGE_CURVE ( 'NONE', #273, #665, #909, .T. ) ;
#105 = CIRCLE ( 'NONE', #42, 2.000000000000001776 ) ;
#106 = PLANE ( 'NONE',  #657 ) ;
#107 = ORIENTED_EDGE ( 'NONE', *, *, #774, .F. ) ;
#108 = CARTESIAN_POINT ( 'NONE',  ( -2.000000000000000888, 20.49999999999999645, 80.00000000000000000 ) ) ;
#109 = EDGE_CURVE ( 'NONE', #142, #220, #1091, .T. ) ;
#110 = PRODUCT_DEFINITION_SHAPE ( 'NONE', 'NONE',  #391 ) ;
#111 = CARTESIAN_POINT ( 'NONE',  ( -7.250000000000000888, 1.530808498934190831E-16, -2.000000000000000000 ) ) ;
#112 = ORIENTED_EDGE ( 'NONE', *, *, #181, .F. ) ;
#113 = CIRCLE ( 'NONE', #537, 2.000000000000001776 ) ;
#114 = CIRCLE ( 'NONE', #94, 14.49999999999999822 ) ;
#115 = DIRECTION ( 'NONE',  ( -1.000000000000000000, 0.000000000000000000, 0.000000000000000000 ) ) ;
#116 = VECTOR ( 'NONE', #1017, 1000.000000000000000 ) ;
#117 = AXIS2_PLACEMENT_3D ( 'NONE', #276, #1012, #644 ) ;
#118 = CARTESIAN_POINT ( 'NONE',  ( 0.000000000000000000, -14.49999999999999822, 0.000000000000000000 ) ) ;
#119 = EDGE_LOOP ( 'NONE', ( #1087, #1054, #712, #211 ) ) ;
#120 = LINE ( 'NONE', #373, #556 ) ;
#121 = VECTOR ( 'NONE', #705, 1000.000000000000000 ) ;
#122 = DIRECTION ( 'NONE',  ( 0.000000000000000000, 0.000000000000000000, -1.000000000000000000 ) ) ;
#123 = ORIENTED_EDGE ( 'NONE', *, *, #907, .T. ) ;
#124 = DIRECTION ( 'NONE',  ( -1.745740669421566678E-15, -1.000000000000000000, -0.000000000000000000 ) ) ;
#125 = ORIENTED_EDGE ( 'NONE', *, *, #56, .T. ) ;
#126 = ORIENTED_EDGE ( 'NONE', *, *, #98, .T. ) ;
#127 = FACE_OUTER_BOUND ( 'NONE', #1103, .T. ) ;
#128 = DIRECTION ( 'NONE',  ( -1.000000000000000000, 0.000000000000000000, 0.000000000000000000 ) ) ;
#129 = LINE ( 'NONE', #317, #179 ) ;
#130 = CARTESIAN_POINT ( 'NONE',  ( -14.50099999999999767, -17.49999999999999645, 61.50000000000000000 ) ) ;
#131 = ORIENTED_EDGE ( 'NONE', *, *, #636, .F. ) ;
#132 = VERTEX_POINT ( 'NONE', #339 ) ;
#133 = CIRCLE ( 'NONE', #296, 1.249999999999999334 ) ;
#134 = CARTESIAN_POINT ( 'NONE',  ( -14.50099999999999767, 20.49999999999999645, 39.00000000000000000 ) ) ;
#135 = CIRCLE ( 'NONE', #375, 12.50000000000000000 ) ;
#136 = CARTESIAN_POINT ( 'NONE',  ( 0.000000000000000000, -14.49999999999999822, 80.00000000000000000 ) ) ;
#137 = CIRCLE ( 'NONE', #283, 2.000000000000001776 ) ;
#138 = LINE ( 'NONE', #130, #737 ) ;
#139 = LOCAL_TIME ( 22, 9, 54.00000000000000000, #888 ) ;
#140 = ORIENTED_EDGE ( 'NONE', *, *, #448, .F. ) ;
#141 = FACE_OUTER_BOUND ( 'NONE', #942, .T. ) ;
#142 = VERTEX_POINT ( 'NONE', #418 ) ;
#143 = CARTESIAN_POINT ( 'NONE',  ( 0.000000000000000000, -17.49999999999999645, 77.00000000000000000 ) ) ;
#144 = ORIENTED_EDGE ( 'NONE', *, *, #163, .F. ) ;
#145 = CARTESIAN_POINT ( 'NONE',  ( 0.000000000000000000, -17.49999999999999645, 75.00000000000000000 ) ) ;
#146 = ORIENTED_EDGE ( 'NONE', *, *, #832, .F. ) ;
#147 = EDGE_CURVE ( 'NONE', #273, #490, #1163, .T. ) ;
#148 = ORIENTED_EDGE ( 'NONE', *, *, #596, .T. ) ;
#149 = COORDINATED_UNIVERSAL_TIME_OFFSET ( 5, 30, .AHEAD. ) ;
#150 = CARTESIAN_POINT ( 'NONE',  ( 0.000000000000000000, 20.49999999999999645, 39.00000000000000000 ) ) ;
#151 = DIRECTION ( 'NONE',  ( 1.000000000000000000, -0.000000000000000000, -0.000000000000000000 ) ) ;
#152 = ORIENTED_EDGE ( 'NONE', *, *, #154, .F. ) ;
#153 = VECTOR ( 'NONE', #297, 1000.000000000000000 ) ;
#154 = EDGE_CURVE ( 'NONE', #628, #522, #105, .T. ) ;
#155 = ORIENTED_EDGE ( 'NONE', *, *, #978, .F. ) ;
#156 = AXIS2_PLACEMENT_3D ( 'NONE', #221, #579, #1051 ) ;
#157 = PERSON_AND_ORGANIZATION_ROLE ( 'design_owner' ) ;
#158 = DIRECTION ( 'NONE',  ( 0.000000000000000000, 0.000000000000000000, 1.000000000000000000 ) ) ;
#159 = ORIENTED_EDGE ( 'NONE', *, *, #879, .T. ) ;
#160 = DIRECTION ( 'NONE',  ( -1.000000000000000000, 0.000000000000000000, 0.000000000000000000 ) ) ;
#161 = ORIENTED_EDGE ( 'NONE', *, *, #181, .T. ) ;
#162 = CARTESIAN_POINT ( 'NONE',  ( -2.000000000000000000, -17.49999999999999645, 61.50000000000000000 ) ) ;
#163 = EDGE_CURVE ( 'NONE', #917, #769, #255, .T. ) ;
#164 = LINE ( 'NONE', #530, #441 ) ;
#165 = ORIENTED_EDGE ( 'NONE', *, *, #689, .F. ) ;
#166 = PLANE ( 'NONE',  #1131 ) ;
#167 = EDGE_LOOP ( 'NONE', ( #1166, #887, #1142, #1181 ) ) ;
#168 = EDGE_CURVE ( 'NONE', #510, #938, #1000, .T. ) ;
#169 = FACE_BOUND ( 'NONE', #477, .T. ) ;
#170 = EDGE_LOOP ( 'NONE', ( #252, #906 ) ) ;
#171 = PERSON_AND_ORGANIZATION ( #64, #76 ) ;
#172 = AXIS2_PLACEMENT_3D ( 'NONE', #836, #1036, #353 ) ;
#173 = DIRECTION ( 'NONE',  ( 0.000000000000000000, 0.000000000000000000, -1.000000000000000000 ) ) ;
#174 = ORIENTED_EDGE ( 'NONE', *, *, #1023, .F. ) ;
#175 = CYLINDRICAL_SURFACE ( 'NONE', #472, 3.500000000000000000 ) ;
#176 = DIRECTION ( 'NONE',  ( 0.000000000000000000, 0.000000000000000000, -1.000000000000000000 ) ) ;
#177 = CARTESIAN_POINT ( 'NONE',  ( -2.000000000000000000, 17.49999999999999645, 59.50000000000000000 ) ) ;
#178 = ORIENTED_EDGE ( 'NONE', *, *, #582, .F. ) ;
#179 = VECTOR ( 'NONE', #578, 1000.000000000000000 ) ;
#180 = FACE_BOUND ( 'NONE', #571, .T. ) ;
#181 = EDGE_CURVE ( 'NONE', #1185, #142, #248, .T. ) ;
#182 = CARTESIAN_POINT ( 'NONE',  ( -8.500000000000000000, 0.000000000000000000, 200.0010000000000048 ) ) ;
#183 = DIRECTION ( 'NONE',  ( 0.000000000000000000, 1.269309860470834477E-16, 1.000000000000000000 ) ) ;
#184 = VERTEX_POINT ( 'NONE', #882 ) ;
#185 = CC_DESIGN_DATE_AND_TIME_ASSIGNMENT ( #74, #608, ( #391 ) ) ;
#186 = FACE_OUTER_BOUND ( 'NONE', #758, .T. ) ;
#187 = FACE_BOUND ( 'NONE', #650, .T. ) ;
#188 = CARTESIAN_POINT ( 'NONE',  ( -2.000000000000000000, 20.49999999999999645, 39.00000000000000000 ) ) ;
#189 = ORIENTED_EDGE ( 'NONE', *, *, #970, .T. ) ;
#190 = AXIS2_PLACEMENT_3D ( 'NONE', #750, #1107, #663 ) ;
#191 = AXIS2_PLACEMENT_3D ( 'NONE', #389, #874, #766 ) ;
#192 = DIRECTION ( 'NONE',  ( -0.000000000000000000, -0.000000000000000000, 1.000000000000000000 ) ) ;
#193 = CARTESIAN_POINT ( 'NONE',  ( -14.50099999999999767, 14.50000000000000000, -2.000000000000000000 ) ) ;
#194 = VERTEX_POINT ( 'NONE', #981 ) ;
#195 = ORIENTED_EDGE ( 'NONE', *, *, #201, .T. ) ;
#196 = EDGE_CURVE ( 'NONE', #533, #745, #63, .T. ) ;
#197 = PLANE ( 'NONE',  #190 ) ;
#198 = CARTESIAN_POINT ( 'NONE',  ( -14.50099999999999767, -20.49999999999999645, 39.00000000000000000 ) ) ;
#199 = ORIENTED_EDGE ( 'NONE', *, *, #56, .F. ) ;
#200 = CARTESIAN_POINT ( 'NONE',  ( 0.000000000000000000, -12.50000000000000000, 80.00000000000000000 ) ) ;
#201 = EDGE_CURVE ( 'NONE', #309, #273, #512, .T. ) ;
#202 = EDGE_CURVE ( 'NONE', #602, #309, #424, .T. ) ;
#203 = CARTESIAN_POINT ( 'NONE',  ( 0.000000000000000000, -14.49999999999999822, 80.00000000000000000 ) ) ;
#204 = ORIENTED_EDGE ( 'NONE', *, *, #829, .T. ) ;
#205 = AXIS2_PLACEMENT_3D ( 'NONE', #826, #377, #741 ) ;
#206 = CARTESIAN_POINT ( 'NONE',  ( 0.000000000000000000, 3.500000000000000000, 200.0010000000000048 ) ) ;
#207 = CIRCLE ( 'NONE', #697, 3.500000000000000000 ) ;
#208 = DIRECTION ( 'NONE',  ( 0.000000000000000000, -1.000000000000000000, -0.000000000000000000 ) ) ;
#209 = EDGE_LOOP ( 'NONE', ( #553, #2, #853, #983 ) ) ;
#210 = DIRECTION ( 'NONE',  ( 0.000000000000000000, 0.000000000000000000, 1.000000000000000000 ) ) ;
#211 = ORIENTED_EDGE ( 'NONE', *, *, #662, .F. ) ;
#212 = DIRECTION ( 'NONE',  ( -1.000000000000000000, 0.000000000000000000, 0.000000000000000000 ) ) ;
#213 = CARTESIAN_POINT ( 'NONE',  ( 0.000000000000000000, -17.49999999999999645, 77.00000000000000000 ) ) ;
#214 = ORIENTED_EDGE ( 'NONE', *, *, #270, .F. ) ;
#215 = CARTESIAN_POINT ( 'NONE',  ( 0.000000000000000000, -14.49999999999999822, -2.000000000000000000 ) ) ;
#216 = VERTEX_POINT ( 'NONE', #150 ) ;
#217 = EDGE_CURVE ( 'NONE', #665, #216, #521, .T. ) ;
#218 = EDGE_LOOP ( 'NONE', ( #1063, #365 ) ) ;
#219 = CARTESIAN_POINT ( 'NONE',  ( -2.000000000000000888, -20.49999999999999645, -2.000000000000000000 ) ) ;
#220 = VERTEX_POINT ( 'NONE', #806 ) ;
#221 = CARTESIAN_POINT ( 'NONE',  ( 0.000000000000000000, 0.000000000000000000, 200.0000000000000000 ) ) ;
#222 = ORIENTED_EDGE ( 'NONE', *, *, #941, .F. ) ;
#223 = VECTOR ( 'NONE', #354, 1000.000000000000000 ) ;
#224 = CARTESIAN_POINT ( 'NONE',  ( 3.142333204958820020E-14, 3.499999999999999556, 0.000000000000000000 ) ) ;
#225 = VECTOR ( 'NONE', #700, 1000.000000000000000 ) ;
#226 = ORIENTED_EDGE ( 'NONE', *, *, #24, .T. ) ;
#227 = LINE ( 'NONE', #397, #621 ) ;
#228 = ORIENTED_EDGE ( 'NONE', *, *, #202, .F. ) ;
#229 = ADVANCED_FACE ( 'NONE', ( #1073 ), #166, .F. ) ;
#230 = FACE_OUTER_BOUND ( 'NONE', #47, .T. ) ;
#231 = ORIENTED_EDGE ( 'NONE', *, *, #239, .T. ) ;
#232 = ORIENTED_EDGE ( 'NONE', *, *, #246, .F. ) ;
#233 = AXIS2_PLACEMENT_3D ( 'NONE', #1171, #903, #158 ) ;
#234 = CARTESIAN_POINT ( 'NONE',  ( -7.347880794884123680E-16, 20.49999999999999645, 80.00000000000000000 ) ) ;
#235 = DIRECTION ( 'NONE',  ( 0.000000000000000000, 0.000000000000000000, -1.000000000000000000 ) ) ;
#236 = ORIENTED_EDGE ( 'NONE', *, *, #970, .F. ) ;
#237 = ORIENTED_EDGE ( 'NONE', *, *, #618, .F. ) ;
#238 = APPROVAL_DATE_TIME ( #519, #642 ) ;
#239 = EDGE_CURVE ( 'NONE', #320, #390, #532, .T. ) ;
#240 = CARTESIAN_POINT ( 'NONE',  ( 0.000000000000000000, 17.49999999999999645, 43.00000000000000000 ) ) ;
#241 = ORIENTED_EDGE ( 'NONE', *, *, #493, .F. ) ;
#242 = DIRECTION ( 'NONE',  ( -1.000000000000000000, 0.000000000000000000, 0.000000000000000000 ) ) ;
#243 = VECTOR ( 'NONE', #824, 1000.000000000000000 ) ;
#244 = ORIENTED_EDGE ( 'NONE', *, *, #899, .T. ) ;
#245 = AXIS2_PLACEMENT_3D ( 'NONE', #360, #192, #1031 ) ;
#246 = EDGE_CURVE ( 'NONE', #839, #420, #840, .T. ) ;
#247 = VECTOR ( 'NONE', #290, 1000.000000000000000 ) ;
#248 = LINE ( 'NONE', #898, #257 ) ;
#249 = EDGE_LOOP ( 'NONE', ( #857, #392, #1089, #821, #1013, #195 ) ) ;
#250 = AXIS2_PLACEMENT_3D ( 'NONE', #44, #783, #963 ) ;
#251 = CARTESIAN_POINT ( 'NONE',  ( 0.000000000000000000, 17.49999999999999645, 45.00000000000000000 ) ) ;
#252 = ORIENTED_EDGE ( 'NONE', *, *, #926, .T. ) ;
#253 = PERSON_AND_ORGANIZATION_ROLE ( 'classification_officer' ) ;
#254 = EDGE_CURVE ( 'NONE', #745, #1003, #431, .T. ) ;
#255 = LINE ( 'NONE', #527, #346 ) ;
#256 = ORIENTED_EDGE ( 'NONE', *, *, #945, .T. ) ;
#257 = VECTOR ( 'NONE', #1184, 1000.000000000000000 ) ;
#258 = CARTESIAN_POINT ( 'NONE',  ( 0.000000000000000000, 17.49999999999999645, 40.99999999999999289 ) ) ;
#259 = EDGE_LOOP ( 'NONE', ( #123, #701 ) ) ;
#260 = APPROVAL_ROLE ( '' ) ;
#261 = CARTESIAN_POINT ( 'NONE',  ( -2.000000000000000888, -14.36140661634506799, -2.000000000000000000 ) ) ;
#262 = VERTEX_POINT ( 'NONE', #547 ) ;
#263 = DIRECTION ( 'NONE',  ( 0.000000000000000000, 0.000000000000000000, -1.000000000000000000 ) ) ;
#264 = CYLINDRICAL_SURFACE ( 'NONE', #1045, 1.249999999999999334 ) ;
#265 = AXIS2_PLACEMENT_3D ( 'NONE', #955, #380, #1048 ) ;
#266 = CC_DESIGN_APPROVAL ( #524, ( #815 ) ) ;
#267 = CYLINDRICAL_SURFACE ( 'NONE', #97, 2.000000000000001776 ) ;
#268 = ORIENTED_EDGE ( 'NONE', *, *, #98, .F. ) ;
#269 = FACE_OUTER_BOUND ( 'NONE', #483, .T. ) ;
#270 = EDGE_CURVE ( 'NONE', #445, #1151, #1084, .T. ) ;
#271 = CARTESIAN_POINT ( 'NONE',  ( 0.000000000000000000, 0.000000000000000000, 80.00000000000001421 ) ) ;
#272 = DIRECTION ( 'NONE',  ( -1.000000000000000000, 0.000000000000000000, -0.000000000000000000 ) ) ;
#273 = VERTEX_POINT ( 'NONE', #456 ) ;
#274 = DIRECTION ( 'NONE',  ( 1.000000000000000000, 0.000000000000000000, 0.000000000000000000 ) ) ;
#275 = LINE ( 'NONE', #193, #116 ) ;
#276 = CARTESIAN_POINT ( 'NONE',  ( 0.000000000000000000, -17.49999999999999645, 59.50000000000000000 ) ) ;
#277 = EDGE_LOOP ( 'NONE', ( #59, #358 ) ) ;
#278 = CARTESIAN_POINT ( 'NONE',  ( -2.000000000000000000, -17.49999999999999645, 40.99999999999999289 ) ) ;
#279 = DIRECTION ( 'NONE',  ( 0.000000000000000000, 0.000000000000000000, -1.000000000000000000 ) ) ;
#280 = EDGE_CURVE ( 'NONE', #1174, #66, #299, .T. ) ;
#281 = AXIS2_PLACEMENT_3D ( 'NONE', #658, #562, #847 ) ;
#282 = EDGE_LOOP ( 'NONE', ( #295, #228, #178, #102 ) ) ;
#283 = AXIS2_PLACEMENT_3D ( 'NONE', #834, #744, #101 ) ;
#284 = FACE_BOUND ( 'NONE', #342, .T. ) ;
#285 = DIRECTION ( 'NONE',  ( 1.000000000000000000, 0.000000000000000000, 0.000000000000000000 ) ) ;
#286 = ORIENTED_EDGE ( 'NONE', *, *, #809, .T. ) ;
#287 = LINE ( 'NONE', #108, #930 ) ;
#288 = EDGE_CURVE ( 'NONE', #1158, #665, #1115, .T. ) ;
#289 = VECTOR ( 'NONE', #789, 1000.000000000000000 ) ;
#290 = DIRECTION ( 'NONE',  ( 1.000000000000000000, 0.000000000000000000, -0.000000000000000000 ) ) ;
#291 = VERTEX_POINT ( 'NONE', #542 ) ;
#292 = CARTESIAN_POINT ( 'NONE',  ( -14.50099999999999767, -17.49999999999999645, 43.00000000000000000 ) ) ;
#293 = CARTESIAN_POINT ( 'NONE',  ( -14.49999999999999822, 0.000000000000000000, 80.00000000000001421 ) ) ;
#294 = CARTESIAN_POINT ( 'NONE',  ( 0.000000000000000000, 0.000000000000000000, 0.000000000000000000 ) ) ;
#295 = ORIENTED_EDGE ( 'NONE', *, *, #1132, .F. ) ;
#296 = AXIS2_PLACEMENT_3D ( 'NONE', #96, #3, #366 ) ;
#297 = DIRECTION ( 'NONE',  ( 1.000000000000000000, -0.000000000000000000, -0.000000000000000000 ) ) ;
#298 = EDGE_CURVE ( 'NONE', #291, #132, #791, .T. ) ;
#299 = CIRCLE ( 'NONE', #623, 1.249999999999999334 ) ;
#300 = DIRECTION ( 'NONE',  ( 0.000000000000000000, 0.000000000000000000, -1.000000000000000000 ) ) ;
#301 = CARTESIAN_POINT ( 'NONE',  ( -7.250000000000000888, 1.530808498934190831E-16, 0.000000000000000000 ) ) ;
#302 = LINE ( 'NONE', #215, #54 ) ;
#303 = ORIENTED_EDGE ( 'NONE', *, *, #288, .T. ) ;
#304 = EDGE_LOOP ( 'NONE', ( #528, #450, #61, #112 ) ) ;
#305 = CARTESIAN_POINT ( 'NONE',  ( -2.000000000000000000, 17.49999999999999645, 79.00000000000000000 ) ) ;
#306 = DIRECTION ( 'NONE',  ( 0.000000000000000000, 1.000000000000000000, 0.000000000000000000 ) ) ;
#307 = DIRECTION ( 'NONE',  ( -1.000000000000000000, 0.000000000000000000, 0.000000000000000000 ) ) ;
#308 = DIRECTION ( 'NONE',  ( 0.000000000000000000, 0.000000000000000000, 1.000000000000000000 ) ) ;
#309 = VERTEX_POINT ( 'NONE', #188 ) ;
#310 = CARTESIAN_POINT ( 'NONE',  ( 0.000000000000000000, 0.000000000000000000, 200.0010000000000048 ) ) ;
#311 = ORIENTED_EDGE ( 'NONE', *, *, #442, .T. ) ;
#312 = FACE_OUTER_BOUND ( 'NONE', #933, .T. ) ;
#313 = EDGE_LOOP ( 'NONE', ( #675, #548, #564, #165 ) ) ;
#314 = EDGE_CURVE ( 'NONE', #398, #1034, #1178, .T. ) ;
#315 = AXIS2_PLACEMENT_3D ( 'NONE', #451, #274, #651 ) ;
#316 = DIRECTION ( 'NONE',  ( -0.000000000000000000, 0.000000000000000000, -1.000000000000000000 ) ) ;
#317 = CARTESIAN_POINT ( 'NONE',  ( -9.750000000000000000, 0.000000000000000000, 200.0010000000000048 ) ) ;
#318 = VECTOR ( 'NONE', #480, 1000.000000000000000 ) ;
#319 = LINE ( 'NONE', #415, #225 ) ;
#320 = VERTEX_POINT ( 'NONE', #557 ) ;
#321 = CARTESIAN_POINT ( 'NONE',  ( -2.000000000000000000, 14.50000000000000000, -2.000000000000000000 ) ) ;
#322 = CARTESIAN_POINT ( 'NONE',  ( -2.000000000000000888, 14.36140661634506799, -2.000000000000000000 ) ) ;
#323 = EDGE_LOOP ( 'NONE', ( #499, #875, #864, #434 ) ) ;
#324 = VECTOR ( 'NONE', #672, 1000.000000000000000 ) ;
#325 = ORIENTED_EDGE ( 'NONE', *, *, #907, .F. ) ;
#326 = CARTESIAN_POINT ( 'NONE',  ( 0.000000000000000000, 0.000000000000000000, 0.000000000000000000 ) ) ;
#327 = DIRECTION ( 'NONE',  ( -0.000000000000000000, -0.000000000000000000, -1.000000000000000000 ) ) ;
#328 = CARTESIAN_POINT ( 'NONE',  ( -2.000000000000000888, 20.49999999999999645, 80.00000000000000000 ) ) ;
#329 = EDGE_CURVE ( 'NONE', #1003, #390, #436, .T. ) ;
#330 = ORIENTED_EDGE ( 'NONE', *, *, #809, .F. ) ;
#331 = PERSON_AND_ORGANIZATION ( #64, #76 ) ;
#332 = CARTESIAN_POINT ( 'NONE',  ( -12.50000000000000000, 0.000000000000000000, 80.00000000000000000 ) ) ;
#333 = EDGE_LOOP ( 'NONE', ( #896, #414 ) ) ;
#334 = DIRECTION ( 'NONE',  ( 1.000000000000000000, -0.000000000000000000, -0.000000000000000000 ) ) ;
#335 = ORIENTED_EDGE ( 'NONE', *, *, #442, .F. ) ;
#336 = CIRCLE ( 'NONE', #1193, 2.000000000000001776 ) ;
#337 = AXIS2_PLACEMENT_3D ( 'NONE', #936, #15, #827 ) ;
#338 = COORDINATED_UNIVERSAL_TIME_OFFSET ( 5, 30, .AHEAD. ) ;
#339 = CARTESIAN_POINT ( 'NONE',  ( -2.000000000000000000, 17.49999999999999645, 57.49999999999999289 ) ) ;
#340 = VERTEX_POINT ( 'NONE', #1110 ) ;
#341 = DIRECTION ( 'NONE',  ( 0.000000000000000000, 0.000000000000000000, -1.000000000000000000 ) ) ;
#342 = EDGE_LOOP ( 'NONE', ( #311, #721 ) ) ;
#343 = CALENDAR_DATE ( 2026, 22, 8 ) ;
#344 = DIRECTION ( 'NONE',  ( -1.000000000000000000, -0.000000000000000000, -0.000000000000000000 ) ) ;
#345 = ORIENTED_EDGE ( 'NONE', *, *, #704, .T. ) ;
#346 = VECTOR ( 'NONE', #1079, 1000.000000000000000 ) ;
#347 = VECTOR ( 'NONE', #69, 1000.000000000000000 ) ;
#348 = CARTESIAN_POINT ( 'NONE',  ( -2.000000000000000000, 17.49999999999999645, 43.00000000000000000 ) ) ;
#349 = PERSON_AND_ORGANIZATION ( #64, #76 ) ;
#350 = DIRECTION ( 'NONE',  ( 0.000000000000000000, 0.000000000000000000, -1.000000000000000000 ) ) ;
#351 = ADVANCED_FACE ( 'NONE', ( #916 ), #267, .F. ) ;
#352 = EDGE_LOOP ( 'NONE', ( #669, #778, #241, #684 ) ) ;
#353 = DIRECTION ( 'NONE',  ( 0.000000000000000000, 0.000000000000000000, 1.000000000000000000 ) ) ;
#354 = DIRECTION ( 'NONE',  ( 1.000000000000000000, -0.000000000000000000, -0.000000000000000000 ) ) ;
#355 = VECTOR ( 'NONE', #89, 1000.000000000000000 ) ;
#356 = CC_DESIGN_APPROVAL ( #867, ( #947 ) ) ;
#357 = DIRECTION ( 'NONE',  ( 0.000000000000000000, 0.000000000000000000, -1.000000000000000000 ) ) ;
#358 = ORIENTED_EDGE ( 'NONE', *, *, #760, .F. ) ;
#359 = ADVANCED_FACE ( 'NONE', ( #654, #87 ), #1191, .F. ) ;
#360 = CARTESIAN_POINT ( 'NONE',  ( -8.500000000000000000, 0.000000000000000000, 0.000000000000000000 ) ) ;
#361 = CC_DESIGN_PERSON_AND_ORGANIZATION_ASSIGNMENT ( #1183, #68, ( #815 ) ) ;
#362 = FACE_BOUND ( 'NONE', #873, .T. ) ;
#363 = PRODUCT ( 'LinkGripperToArm_cover_top_sldprt', 'LinkGripperToArm_cover_top_sldprt', '', ( #908 ) ) ;
#364 = FACE_OUTER_BOUND ( 'NONE', #749, .T. ) ;
#365 = ORIENTED_EDGE ( 'NONE', *, *, #1015, .T. ) ;
#366 = DIRECTION ( 'NONE',  ( -1.000000000000000000, 0.000000000000000000, 0.000000000000000000 ) ) ;
#367 = EDGE_CURVE ( 'NONE', #490, #568, #1024, .T. ) ;
#368 = DIRECTION ( 'NONE',  ( 0.000000000000000000, 0.000000000000000000, -1.000000000000000000 ) ) ;
#369 = DIRECTION ( 'NONE',  ( -0.000000000000000000, -0.000000000000000000, 1.000000000000000000 ) ) ;
#370 = VERTEX_POINT ( 'NONE', #462 ) ;
#371 = FACE_BOUND ( 'NONE', #218, .T. ) ;
#372 = ADVANCED_FACE ( 'NONE', ( #364 ), #927, .F. ) ;
#373 = CARTESIAN_POINT ( 'NONE',  ( -14.50099999999999767, 17.49999999999999645, 75.00000000000000000 ) ) ;
#374 = ORIENTED_EDGE ( 'NONE', *, *, #1149, .F. ) ;
#375 = AXIS2_PLACEMENT_3D ( 'NONE', #738, #368, #843 ) ;
#376 = AXIS2_PLACEMENT_3D ( 'NONE', #20, #503, #570 ) ;
#377 = DIRECTION ( 'NONE',  ( 1.000000000000000000, 0.000000000000000000, -0.000000000000000000 ) ) ;
#378 = FACE_OUTER_BOUND ( 'NONE', #167, .T. ) ;
#379 = ORIENTED_EDGE ( 'NONE', *, *, #1047, .F. ) ;
#380 = DIRECTION ( 'NONE',  ( 1.000000000000000000, 0.000000000000000000, 0.000000000000000000 ) ) ;
#381 = VECTOR ( 'NONE', #635, 1000.000000000000000 ) ;
#382 = DIRECTION ( 'NONE',  ( 1.000000000000000000, -0.000000000000000000, -0.000000000000000000 ) ) ;
#383 = ORIENTED_EDGE ( 'NONE', *, *, #314, .F. ) ;
#384 = ADVANCED_BREP_SHAPE_REPRESENTATION ( 'LinkGripperToArm_cover_top_sldprt', ( #1147, #573 ), #660 ) ;
#385 = EDGE_CURVE ( 'NONE', #539, #21, #137, .T. ) ;
#386 = DIRECTION ( 'NONE',  ( 1.000000000000000000, -0.000000000000000000, -0.000000000000000000 ) ) ;
#387 = CARTESIAN_POINT ( 'NONE',  ( 0.000000000000000000, 0.000000000000000000, 0.000000000000000000 ) ) ;
#388 = CARTESIAN_POINT ( 'NONE',  ( -3.500000000000000000, 0.000000000000000000, 200.0010000000000048 ) ) ;
#389 = CARTESIAN_POINT ( 'NONE',  ( -14.50099999999999767, -17.49999999999999645, 77.00000000000000000 ) ) ;
#390 = VERTEX_POINT ( 'NONE', #1119 ) ;
#391 = PRODUCT_DEFINITION ( 'UNKNOWN', '', #815, #792 ) ;
#392 = ORIENTED_EDGE ( 'NONE', *, *, #367, .T. ) ;
#393 = AXIS2_PLACEMENT_3D ( 'NONE', #1189, #929, #735 ) ;
#394 = CARTESIAN_POINT ( 'NONE',  ( 0.000000000000000000, 17.49999999999999645, 79.00000000000000000 ) ) ;
#395 = DIRECTION ( 'NONE',  ( 1.000000000000000000, 0.000000000000000000, -0.000000000000000000 ) ) ;
#396 = DIRECTION ( 'NONE',  ( 0.000000000000000000, 0.000000000000000000, -1.000000000000000000 ) ) ;
#397 = CARTESIAN_POINT ( 'NONE',  ( -2.000000000000000888, 14.36140661634506799, 80.00000000000000000 ) ) ;
#398 = VERTEX_POINT ( 'NONE', #779 ) ;
#399 = DIRECTION ( 'NONE',  ( -0.000000000000000000, -0.000000000000000000, -1.000000000000000000 ) ) ;
#400 = CARTESIAN_POINT ( 'NONE',  ( -14.50099999999999767, 17.49999999999999645, 40.99999999999999289 ) ) ;
#401 = ADVANCED_FACE ( 'NONE', ( #863 ), #883, .T. ) ;
#402 = CYLINDRICAL_SURFACE ( 'NONE', #156, 14.49999999999999822 ) ;
#403 = ORIENTED_EDGE ( 'NONE', *, *, #288, .F. ) ;
#404 = PLANE ( 'NONE',  #1125 ) ;
#405 = FACE_OUTER_BOUND ( 'NONE', #41, .T. ) ;
#406 = LINE ( 'NONE', #60, #1008 ) ;
#407 = ADVANCED_FACE ( 'NONE', ( #1157 ), #404, .T. ) ;
#408 = ORIENTED_EDGE ( 'NONE', *, *, #1071, .T. ) ;
#409 = EDGE_CURVE ( 'NONE', #796, #83, #496, .T. ) ;
#410 = APPLICATION_CONTEXT ( 'configuration controlled 3d designs of mechanical parts and assemblies' ) ;
#411 = DIRECTION ( 'NONE',  ( 0.000000000000000000, 0.000000000000000000, 1.000000000000000000 ) ) ;
#412 = DIRECTION ( 'NONE',  ( 0.000000000000000000, 1.269309860470834477E-16, 1.000000000000000000 ) ) ;
#413 = LOCAL_TIME ( 22, 9, 54.00000000000000000, #417 ) ;
#414 = ORIENTED_EDGE ( 'NONE', *, *, #452, .F. ) ;
#415 = CARTESIAN_POINT ( 'NONE',  ( -2.000000000000000888, -14.36140661634506799, 80.00000000000000000 ) ) ;
#416 = ORIENTED_EDGE ( 'NONE', *, *, #674, .F. ) ;
#417 = COORDINATED_UNIVERSAL_TIME_OFFSET ( 5, 30, .AHEAD. ) ;
#418 = CARTESIAN_POINT ( 'NONE',  ( -2.000000000000000888, -20.49999999999999645, 39.00000000000000000 ) ) ;
#419 = DIRECTION ( 'NONE',  ( -1.000000000000000000, 0.000000000000000000, 0.000000000000000000 ) ) ;
#420 = VERTEX_POINT ( 'NONE', #500 ) ;
#421 =( NAMED_UNIT ( * ) PLANE_ANGLE_UNIT ( ) SI_UNIT ( $, .RADIAN. ) );
#422 = EDGE_LOOP ( 'NONE', ( #7, #1092, #140, #70 ) ) ;
#423 = APPROVAL_DATE_TIME ( #62, #867 ) ;
#424 = LINE ( 'NONE', #1086, #1035 ) ;
#425 = VERTEX_POINT ( 'NONE', #293 ) ;
#426 = ADVANCED_FACE ( 'NONE', ( #764 ), #487, .F. ) ;
#427 = DIRECTION ( 'NONE',  ( 1.000000000000000000, 0.000000000000000000, -0.000000000000000000 ) ) ;
#428 = ORIENTED_EDGE ( 'NONE', *, *, #842, .T. ) ;
#429 = EDGE_CURVE ( 'NONE', #559, #216, #871, .T. ) ;
#430 = PERSON_AND_ORGANIZATION ( #64, #76 ) ;
#431 = LINE ( 'NONE', #812, #243 ) ;
#432 = ORIENTED_EDGE ( 'NONE', *, *, #217, .T. ) ;
#433 = CYLINDRICAL_SURFACE ( 'NONE', #703, 2.000000000000001776 ) ;
#434 = ORIENTED_EDGE ( 'NONE', *, *, #872, .F. ) ;
#435 = ADVANCED_FACE ( 'NONE', ( #576 ), #603, .T. ) ;
#436 = CIRCLE ( 'NONE', #848, 12.50000000000000000 ) ;
#437 = DIRECTION ( 'NONE',  ( 0.000000000000000000, 1.000000000000000000, 0.000000000000000000 ) ) ;
#438 = ORIENTED_EDGE ( 'NONE', *, *, #899, .F. ) ;
#439 = CIRCLE ( 'NONE', #250, 2.000000000000001776 ) ;
#440 = CARTESIAN_POINT ( 'NONE',  ( -2.000000000000000888, 20.49999999999999645, 80.00000000000000000 ) ) ;
#441 = VECTOR ( 'NONE', #151, 1000.000000000000000 ) ;
#442 = EDGE_CURVE ( 'NONE', #807, #80, #113, .T. ) ;
#443 = PERSON_AND_ORGANIZATION_ROLE ( 'creator' ) ;
#444 = CARTESIAN_POINT ( 'NONE',  ( 0.000000000000000000, 14.50000000000000000, -2.000000000000000000 ) ) ;
#445 = VERTEX_POINT ( 'NONE', #950 ) ;
#446 = LINE ( 'NONE', #746, #52 ) ;
#447 = CARTESIAN_POINT ( 'NONE',  ( 3.491481338843130200E-15, -12.50000000000000000, 0.000000000000000000 ) ) ;
#448 = EDGE_CURVE ( 'NONE', #522, #628, #717, .T. ) ;
#449 = DIRECTION ( 'NONE',  ( 1.000000000000000000, 0.000000000000000000, 0.000000000000000000 ) ) ;
#450 = ORIENTED_EDGE ( 'NONE', *, *, #1155, .T. ) ;
#451 = CARTESIAN_POINT ( 'NONE',  ( 0.000000000000000000, -17.49999999999999645, 43.00000000000000000 ) ) ;
#452 = EDGE_CURVE ( 'NONE', #370, #504, #534, .T. ) ;
#453 = DIRECTION ( 'NONE',  ( 1.000000000000000000, 0.000000000000000000, 0.000000000000000000 ) ) ;
#454 = CIRCLE ( 'NONE', #911, 2.000000000000001776 ) ;
#455 = AXIS2_PLACEMENT_3D ( 'NONE', #925, #931, #1022 ) ;
#456 = CARTESIAN_POINT ( 'NONE',  ( -2.000000000000000888, 14.50000000000000533, 39.00000000000000000 ) ) ;
#457 = ORIENTED_EDGE ( 'NONE', *, *, #829, .F. ) ;
#458 = EDGE_CURVE ( 'NONE', #390, #184, #641, .T. ) ;
#459 = CARTESIAN_POINT ( 'NONE',  ( -14.50099999999999767, -17.49999999999999645, 75.00000000000000000 ) ) ;
#460 = APPLICATION_CONTEXT ( 'configuration controlled 3d designs of mechanical parts and assemblies' ) ;
#461 = CARTESIAN_POINT ( 'NONE',  ( 0.000000000000000000, -3.500000000000000000, 0.000000000000000000 ) ) ;
#462 = CARTESIAN_POINT ( 'NONE',  ( 0.000000000000000000, -17.49999999999999645, 79.00000000000000000 ) ) ;
#463 = ORIENTED_EDGE ( 'NONE', *, *, #254, .F. ) ;
#464 = VECTOR ( 'NONE', #798, 1000.000000000000000 ) ;
#465 = LINE ( 'NONE', #1195, #355 ) ;
#466 = CARTESIAN_POINT ( 'NONE',  ( -2.000000000000001332, -14.36140661634506976, 80.00000000000001421 ) ) ;
#467 = ADVANCED_FACE ( 'NONE', ( #775 ), #585, .F. ) ;
#468 = VERTEX_POINT ( 'NONE', #224 ) ;
#469 = DIRECTION ( 'NONE',  ( 1.000000000000000000, 0.000000000000000000, 0.000000000000000000 ) ) ;
#470 = LINE ( 'NONE', #1118, #966 ) ;
#471 = EDGE_LOOP ( 'NONE', ( #222, #962, #438, #755 ) ) ;
#472 = AXIS2_PLACEMENT_3D ( 'NONE', #1080, #85, #242 ) ;
#473 = CC_DESIGN_APPROVAL ( #642, ( #391 ) ) ;
#474 = CARTESIAN_POINT ( 'NONE',  ( -2.000000000000000000, 17.49999999999999645, 43.00000000000000000 ) ) ;
#475 = FACE_OUTER_BOUND ( 'NONE', #1078, .T. ) ;
#476 = ADVANCED_FACE ( 'NONE', ( #230 ), #599, .F. ) ;
#477 = EDGE_LOOP ( 'NONE', ( #813, #611 ) ) ;
#478 = CARTESIAN_POINT ( 'NONE',  ( -2.000000000000000888, -14.50000000000000178, -2.000000000000000000 ) ) ;
#479 = VECTOR ( 'NONE', #988, 1000.000000000000000 ) ;
#480 = DIRECTION ( 'NONE',  ( 0.000000000000000000, 0.000000000000000000, -1.000000000000000000 ) ) ;
#481 = LINE ( 'NONE', #400, #324 ) ;
#482 = DIRECTION ( 'NONE',  ( 0.000000000000000000, 0.000000000000000000, -1.000000000000000000 ) ) ;
#483 = EDGE_LOOP ( 'NONE', ( #1111, #825, #1046, #881, #146, #902, #849, #685, #244, #725 ) ) ;
#484 = ORIENTED_EDGE ( 'NONE', *, *, #196, .F. ) ;
#485 = ADVANCED_FACE ( 'NONE', ( #141 ), #1146, .T. ) ;
#486 = DIRECTION ( 'NONE',  ( 0.000000000000000000, 0.000000000000000000, -1.000000000000000000 ) ) ;
#487 = CYLINDRICAL_SURFACE ( 'NONE', #574, 2.000000000000001776 ) ;
#488 = CARTESIAN_POINT ( 'NONE',  ( -14.50099999999999767, -17.49999999999999645, 43.00000000000000000 ) ) ;
#489 = FACE_BOUND ( 'NONE', #767, .T. ) ;
#490 = VERTEX_POINT ( 'NONE', #591 ) ;
#491 = ORIENTED_EDGE ( 'NONE', *, *, #636, .T. ) ;
#492 = AXIS2_PLACEMENT_3D ( 'NONE', #474, #851, #18 ) ;
#493 = EDGE_CURVE ( 'NONE', #1034, #398, #439, .T. ) ;
#494 = VECTOR ( 'NONE', #1018, 1000.000000000000000 ) ;
#495 = VECTOR ( 'NONE', #1070, 1000.000000000000000 ) ;
#496 = LINE ( 'NONE', #219, #14 ) ;
#497 = FACE_OUTER_BOUND ( 'NONE', #1116, .T. ) ;
#498 = DIRECTION ( 'NONE',  ( -0.000000000000000000, -0.000000000000000000, -1.000000000000000000 ) ) ;
#499 = ORIENTED_EDGE ( 'NONE', *, *, #995, .T. ) ;
#500 = CARTESIAN_POINT ( 'NONE',  ( -2.000000000000000000, 17.49999999999999645, 75.00000000000000000 ) ) ;
#501 = EDGE_LOOP ( 'NONE', ( #379, #1130, #645, #416, #786, #45 ) ) ;
#502 = CIRCLE ( 'NONE', #233, 2.000000000000001776 ) ;
#503 = DIRECTION ( 'NONE',  ( 1.000000000000000000, 0.000000000000000000, -0.000000000000000000 ) ) ;
#504 = VERTEX_POINT ( 'NONE', #145 ) ;
#505 = DIRECTION ( 'NONE',  ( 0.000000000000000000, 0.000000000000000000, -1.000000000000000000 ) ) ;
#506 = UNCERTAINTY_MEASURE_WITH_UNIT (LENGTH_MEASURE( 1.000000000000000082E-05 ), #517, 'distance_accuracy_value', 'NONE');
#507 = CARTESIAN_POINT ( 'NONE',  ( -2.000000000000000888, -20.49999999999999645, 80.00000000000000000 ) ) ;
#508 = CYLINDRICAL_SURFACE ( 'NONE', #800, 2.000000000000001776 ) ;
#509 = DIRECTION ( 'NONE',  ( -0.000000000000000000, -1.000000000000000000, -0.000000000000000000 ) ) ;
#510 = VERTEX_POINT ( 'NONE', #507 ) ;
#511 = PERSON_AND_ORGANIZATION ( #64, #76 ) ;
#512 = LINE ( 'NONE', #1167, #347 ) ;
#513 = CIRCLE ( 'NONE', #172, 2.000000000000001776 ) ;
#514 = PLANE ( 'NONE',  #19 ) ;
#515 = ORIENTED_EDGE ( 'NONE', *, *, #1168, .T. ) ;
#516 = AXIS2_PLACEMENT_3D ( 'NONE', #310, #958, #128 ) ;
#517 =( LENGTH_UNIT ( ) NAMED_UNIT ( * ) SI_UNIT ( .MILLI., .METRE. ) );
#518 = ORIENTED_EDGE ( 'NONE', *, *, #520, .F. ) ;
#519 = DATE_AND_TIME ( #915, #753 ) ;
#520 = EDGE_CURVE ( 'NONE', #866, #568, #561, .T. ) ;
#521 = LINE ( 'NONE', #48, #289 ) ;
#522 = VERTEX_POINT ( 'NONE', #258 ) ;
#523 = CARTESIAN_POINT ( 'NONE',  ( -14.50099999999999767, 17.49999999999999645, 59.50000000000000000 ) ) ;
#524 = APPROVAL ( #819, 'UNSPECIFIED' ) ;
#525 = ORIENTED_EDGE ( 'NONE', *, *, #704, .F. ) ;
#526 = AXIS2_PLACEMENT_3D ( 'NONE', #77, #1177, #411 ) ;
#527 = CARTESIAN_POINT ( 'NONE',  ( 0.000000000000000000, -3.500000000000000000, 200.0010000000000048 ) ) ;
#528 = ORIENTED_EDGE ( 'NONE', *, *, #904, .T. ) ;
#529 = ADVANCED_FACE ( 'NONE', ( #793 ), #433, .F. ) ;
#530 = CARTESIAN_POINT ( 'NONE',  ( -14.50099999999999767, -14.50000000000000000, -2.000000000000000000 ) ) ;
#531 = ORIENTED_EDGE ( 'NONE', *, *, #493, .T. ) ;
#532 = LINE ( 'NONE', #332, #956 ) ;
#533 = VERTEX_POINT ( 'NONE', #544 ) ;
#534 = CIRCLE ( 'NONE', #1124, 2.000000000000001776 ) ;
#535 = FACE_OUTER_BOUND ( 'NONE', #249, .T. ) ;
#536 = ADVANCED_FACE ( 'NONE', ( #1164, #918, #169, #535 ), #514, .F. ) ;
#537 = AXIS2_PLACEMENT_3D ( 'NONE', #686, #1049, #1068 ) ;
#538 = AXIS2_PLACEMENT_3D ( 'NONE', #1094, #334, #720 ) ;
#539 = VERTEX_POINT ( 'NONE', #79 ) ;
#540 = AXIS2_PLACEMENT_3D ( 'NONE', #177, #449, #838 ) ;
#541 = PERSON_AND_ORGANIZATION_ROLE ( 'creator' ) ;
#542 = CARTESIAN_POINT ( 'NONE',  ( -2.000000000000000000, 17.49999999999999645, 61.50000000000000000 ) ) ;
#543 = VERTEX_POINT ( 'NONE', #1169 ) ;
#544 = CARTESIAN_POINT ( 'NONE',  ( -7.347880794884123680E-16, -20.49999999999999645, 80.00000000000000000 ) ) ;
#545 = CARTESIAN_POINT ( 'NONE',  ( -14.50099999999999767, 17.49999999999999645, 57.49999999999999289 ) ) ;
#546 = AXIS2_PLACEMENT_3D ( 'NONE', #784, #1153, #396 ) ;
#547 = CARTESIAN_POINT ( 'NONE',  ( -2.000000000000000000, -17.49999999999999645, 45.00000000000000000 ) ) ;
#548 = ORIENTED_EDGE ( 'NONE', *, *, #1149, .T. ) ;
#549 = LINE ( 'NONE', #830, #719 ) ;
#550 = DIRECTION ( 'NONE',  ( -1.000000000000000000, 0.000000000000000000, 0.000000000000000000 ) ) ;
#551 = EDGE_CURVE ( 'NONE', #796, #594, #164, .T. ) ;
#552 = CARTESIAN_POINT ( 'NONE',  ( 0.000000000000000000, 0.000000000000000000, 0.000000000000000000 ) ) ;
#553 = ORIENTED_EDGE ( 'NONE', *, *, #1132, .T. ) ;
#554 = DIRECTION ( 'NONE',  ( 1.000000000000000000, -0.000000000000000000, -0.000000000000000000 ) ) ;
#555 = LINE ( 'NONE', #545, #676 ) ;
#556 = VECTOR ( 'NONE', #1190, 1000.000000000000000 ) ;
#557 = CARTESIAN_POINT ( 'NONE',  ( -12.50000000000000000, 0.000000000000000000, 80.00000000000000000 ) ) ;
#558 = ADVANCED_FACE ( 'NONE', ( #1100 ), #905, .F. ) ;
#559 = VERTEX_POINT ( 'NONE', #893 ) ;
#560 = PLANE ( 'NONE',  #595 ) ;
#561 = CIRCLE ( 'NONE', #723, 14.49999999999999822 ) ;
#562 = DIRECTION ( 'NONE',  ( 0.000000000000000000, 0.000000000000000000, -1.000000000000000000 ) ) ;
#563 = AXIS2_PLACEMENT_3D ( 'NONE', #638, #799, #997 ) ;
#564 = ORIENTED_EDGE ( 'NONE', *, *, #452, .T. ) ;
#565 = ORIENTED_EDGE ( 'NONE', *, *, #582, .T. ) ;
#566 = DIRECTION ( 'NONE',  ( 0.000000000000000000, 0.000000000000000000, 1.000000000000000000 ) ) ;
#567 = CARTESIAN_POINT ( 'NONE',  ( 0.000000000000000000, 17.49999999999999645, 77.00000000000000000 ) ) ;
#568 = VERTEX_POINT ( 'NONE', #322 ) ;
#569 = FACE_BOUND ( 'NONE', #614, .T. ) ;
#570 = DIRECTION ( 'NONE',  ( 0.000000000000000000, 0.000000000000000000, -1.000000000000000000 ) ) ;
#571 = EDGE_LOOP ( 'NONE', ( #588, #989 ) ) ;
#572 = AXIS2_PLACEMENT_3D ( 'NONE', #1101, #176, #86 ) ;
#573 = AXIS2_PLACEMENT_3D ( 'NONE', #326, #1096, #55 ) ;
#574 = AXIS2_PLACEMENT_3D ( 'NONE', #1041, #395, #671 ) ;
#575 = CARTESIAN_POINT ( 'NONE',  ( -7.347880794884123680E-16, -20.49999999999999645, 80.00000000000000000 ) ) ;
#576 = FACE_OUTER_BOUND ( 'NONE', #471, .T. ) ;
#577 = EDGE_CURVE ( 'NONE', #1158, #194, #1173, .T. ) ;
#578 = DIRECTION ( 'NONE',  ( -0.000000000000000000, -0.000000000000000000, -1.000000000000000000 ) ) ;
#579 = DIRECTION ( 'NONE',  ( -0.000000000000000000, -0.000000000000000000, -1.000000000000000000 ) ) ;
#580 = EDGE_CURVE ( 'NONE', #340, #73, #805, .T. ) ;
#581 = ORIENTED_EDGE ( 'NONE', *, *, #879, .F. ) ;
#582 = EDGE_CURVE ( 'NONE', #559, #602, #1009, .T. ) ;
#583 = DIRECTION ( 'NONE',  ( 0.000000000000000000, 0.000000000000000000, -1.000000000000000000 ) ) ;
#584 = VECTOR ( 'NONE', #820, 1000.000000000000000 ) ;
#585 = CYLINDRICAL_SURFACE ( 'NONE', #516, 3.500000000000000000 ) ;
#586 = ORIENTED_EDGE ( 'NONE', *, *, #92, .F. ) ;
#587 = CARTESIAN_POINT ( 'NONE',  ( 0.000000000000000000, 0.000000000000000000, 80.00000000000000000 ) ) ;
#588 = ORIENTED_EDGE ( 'NONE', *, *, #84, .T. ) ;
#589 = ORIENTED_EDGE ( 'NONE', *, *, #154, .T. ) ;
#590 = ADVANCED_FACE ( 'NONE', ( #1074 ), #175, .F. ) ;
#591 = CARTESIAN_POINT ( 'NONE',  ( -2.000000000000000888, 14.50000000000000178, -2.000000000000000000 ) ) ;
#592 = CARTESIAN_POINT ( 'NONE',  ( -8.500000000000000000, 0.000000000000000000, 200.0010000000000048 ) ) ;
#593 = DIRECTION ( 'NONE',  ( 0.000000000000000000, 0.000000000000000000, -1.000000000000000000 ) ) ;
#594 = VERTEX_POINT ( 'NONE', #726 ) ;
#595 = AXIS2_PLACEMENT_3D ( 'NONE', #103, #1117, #566 ) ;
#596 = EDGE_CURVE ( 'NONE', #543, #425, #114, .T. ) ;
#597 = AXIS2_PLACEMENT_3D ( 'NONE', #46, #952, #593 ) ;
#598 = AXIS2_PLACEMENT_3D ( 'NONE', #387, #300, #680 ) ;
#599 = CYLINDRICAL_SURFACE ( 'NONE', #99, 12.50000000000000000 ) ;
#600 = VERTEX_POINT ( 'NONE', #632 ) ;
#601 = CYLINDRICAL_SURFACE ( 'NONE', #376, 2.000000000000001776 ) ;
#602 = VERTEX_POINT ( 'NONE', #328 ) ;
#603 = CYLINDRICAL_SURFACE ( 'NONE', #787, 14.49999999999999822 ) ;
#604 = CARTESIAN_POINT ( 'NONE',  ( 0.000000000000000000, -17.49999999999999645, 45.00000000000000000 ) ) ;
#605 = VECTOR ( 'NONE', #1058, 1000.000000000000000 ) ;
#606 = CARTESIAN_POINT ( 'NONE',  ( 0.000000000000000000, -17.49999999999999645, 57.49999999999999289 ) ) ;
#607 = ORIENTED_EDGE ( 'NONE', *, *, #163, .T. ) ;
#608 = DATE_TIME_ROLE ( 'creation_date' ) ;
#609 = DIRECTION ( 'NONE',  ( 0.000000000000000000, 0.000000000000000000, -1.000000000000000000 ) ) ;
#610 = DIRECTION ( 'NONE',  ( 1.000000000000000000, 0.000000000000000000, 0.000000000000000000 ) ) ;
#611 = ORIENTED_EDGE ( 'NONE', *, *, #580, .T. ) ;
#612 = EDGE_CURVE ( 'NONE', #868, #194, #770, .T. ) ;
#613 = DIRECTION ( 'NONE',  ( 1.000000000000000000, -0.000000000000000000, -0.000000000000000000 ) ) ;
#614 = EDGE_LOOP ( 'NONE', ( #107, #1038 ) ) ;
#615 = APPLICATION_PROTOCOL_DEFINITION ( 'international standard', 'config_control_design', 1994, #460 ) ;
#616 = CARTESIAN_POINT ( 'NONE',  ( -14.50099999999999767, -17.49999999999999645, 45.00000000000000000 ) ) ;
#617 = ORIENTED_EDGE ( 'NONE', *, *, #409, .F. ) ;
#618 = EDGE_CURVE ( 'NONE', #291, #398, #65, .T. ) ;
#619 = AXIS2_PLACEMENT_3D ( 'NONE', #271, #752, #285 ) ;
#620 = CARTESIAN_POINT ( 'NONE',  ( 0.000000000000000000, 0.000000000000000000, -2.000000000000000000 ) ) ;
#621 = VECTOR ( 'NONE', #683, 1000.000000000000000 ) ;
#622 = VERTEX_POINT ( 'NONE', #808 ) ;
#623 = AXIS2_PLACEMENT_3D ( 'NONE', #734, #369, #1187 ) ;
#624 = PERSON_AND_ORGANIZATION ( #64, #76 ) ;
#625 = EDGE_CURVE ( 'NONE', #78, #600, #814, .T. ) ;
#626 = DIRECTION ( 'NONE',  ( 0.000000000000000000, 0.000000000000000000, -1.000000000000000000 ) ) ;
#627 = DIRECTION ( 'NONE',  ( -1.000000000000000000, -0.000000000000000000, -0.000000000000000000 ) ) ;
#628 = VERTEX_POINT ( 'NONE', #251 ) ;
#629 = SHAPE_DEFINITION_REPRESENTATION ( #110, #384 ) ;
#630 = CARTESIAN_POINT ( 'NONE',  ( -14.50099999999999767, 14.50000000000000533, 39.00000000000000000 ) ) ;
#631 = EDGE_CURVE ( 'NONE', #818, #27, #889, .T. ) ;
#632 = CARTESIAN_POINT ( 'NONE',  ( -2.000000000000000000, -17.49999999999999645, 57.49999999999999289 ) ) ;
#633 = ORIENTED_EDGE ( 'NONE', *, *, #1155, .F. ) ;
#634 = DATE_TIME_ROLE ( 'classification_date' ) ;
#635 = DIRECTION ( 'NONE',  ( 1.000000000000000000, -0.000000000000000000, -0.000000000000000000 ) ) ;
#636 = EDGE_CURVE ( 'NONE', #1151, #445, #32, .T. ) ;
#637 = AXIS2_PLACEMENT_3D ( 'NONE', #856, #698, #1152 ) ;
#638 = CARTESIAN_POINT ( 'NONE',  ( -14.50099999999999767, -17.49999999999999645, 59.50000000000000000 ) ) ;
#639 = AXIS2_PLACEMENT_3D ( 'NONE', #763, #29, #212 ) ;
#640 = AXIS2_PLACEMENT_3D ( 'NONE', #960, #781, #308 ) ;
#641 = CIRCLE ( 'NONE', #598, 12.50000000000000000 ) ;
#642 = APPROVAL ( #986, 'UNSPECIFIED' ) ;
#643 = DIRECTION ( 'NONE',  ( 1.000000000000000000, 0.000000000000000000, -0.000000000000000000 ) ) ;
#644 = DIRECTION ( 'NONE',  ( 0.000000000000000000, 0.000000000000000000, -1.000000000000000000 ) ) ;
#645 = ORIENTED_EDGE ( 'NONE', *, *, #995, .F. ) ;
#646 = DIRECTION ( 'NONE',  ( 0.000000000000000000, -1.269309860470834477E-16, 1.000000000000000000 ) ) ;
#647 = ADVANCED_FACE ( 'NONE', ( #8 ), #197, .F. ) ;
#648 = DIRECTION ( 'NONE',  ( 0.000000000000000000, 1.000000000000000000, 1.269309860470834477E-16 ) ) ;
#649 = CARTESIAN_POINT ( 'NONE',  ( -2.000000000000000888, 20.49999999999999645, -2.000000000000000000 ) ) ;
#650 = EDGE_LOOP ( 'NONE', ( #999, #589 ) ) ;
#651 = DIRECTION ( 'NONE',  ( 0.000000000000000000, 0.000000000000000000, -1.000000000000000000 ) ) ;
#652 = ADVANCED_FACE ( 'NONE', ( #284, #180, #371, #186 ), #560, .T. ) ;
#653 = LINE ( 'NONE', #5, #736 ) ;
#654 = FACE_BOUND ( 'NONE', #1144, .T. ) ;
#655 = VERTEX_POINT ( 'NONE', #278 ) ;
#656 = CARTESIAN_POINT ( 'NONE',  ( 0.000000000000000000, 14.50000000000000533, 39.00000000000000000 ) ) ;
#657 = AXIS2_PLACEMENT_3D ( 'NONE', #198, #1196, #940 ) ;
#658 = CARTESIAN_POINT ( 'NONE',  ( 2.531323970661271367E-14, 0.000000000000000000, -2.000000000000000000 ) ) ;
#659 = CIRCLE ( 'NONE', #572, 1.249999999999999334 ) ;
#660 =( GEOMETRIC_REPRESENTATION_CONTEXT ( 3 ) GLOBAL_UNCERTAINTY_ASSIGNED_CONTEXT ( ( #506 ) ) GLOBAL_UNIT_ASSIGNED_CONTEXT ( ( #517, #421, #707 ) ) REPRESENTATION_CONTEXT ( 'NONE', 'WORKASPACE' ) );
#661 = ORIENTED_EDGE ( 'NONE', *, *, #832, .T. ) ;
#662 = EDGE_CURVE ( 'NONE', #796, #1185, #446, .T. ) ;
#663 = DIRECTION ( 'NONE',  ( -1.000000000000000000, 0.000000000000000000, -0.000000000000000000 ) ) ;
#664 = CARTESIAN_POINT ( 'NONE',  ( -14.50099999999999767, -14.50000000000000000, -2.000000000000000000 ) ) ;
#665 = VERTEX_POINT ( 'NONE', #656 ) ;
#666 = EDGE_CURVE ( 'NONE', #600, #1151, #465, .T. ) ;
#667 = DIRECTION ( 'NONE',  ( 0.000000000000000000, -1.000000000000000000, 0.000000000000000000 ) ) ;
#668 = DIRECTION ( 'NONE',  ( -1.000000000000000000, 0.000000000000000000, 0.000000000000000000 ) ) ;
#669 = ORIENTED_EDGE ( 'NONE', *, *, #298, .F. ) ;
#670 = CARTESIAN_POINT ( 'NONE',  ( -3.500000000000000000, 0.000000000000000000, -2.000000000000000000 ) ) ;
#671 = DIRECTION ( 'NONE',  ( 0.000000000000000000, 0.000000000000000000, -1.000000000000000000 ) ) ;
#672 = DIRECTION ( 'NONE',  ( 1.000000000000000000, 0.000000000000000000, -0.000000000000000000 ) ) ;
#673 = DIRECTION ( 'NONE',  ( -1.000000000000000000, 0.000000000000000000, 0.000000000000000000 ) ) ;
#674 = EDGE_CURVE ( 'NONE', #184, #468, #549, .T. ) ;
#675 = ORIENTED_EDGE ( 'NONE', *, *, #742, .F. ) ;
#676 = VECTOR ( 'NONE', #643, 1000.000000000000000 ) ;
#677 = AXIS2_PLACEMENT_3D ( 'NONE', #143, #946, #482 ) ;
#678 = AXIS2_PLACEMENT_3D ( 'NONE', #828, #6, #350 ) ;
#679 = CARTESIAN_POINT ( 'NONE',  ( 0.000000000000000000, 0.000000000000000000, -2.000000000000000000 ) ) ;
#680 = DIRECTION ( 'NONE',  ( -1.000000000000000000, 0.000000000000000000, 0.000000000000000000 ) ) ;
#681 = LINE ( 'NONE', #136, #605 ) ;
#682 = EDGE_CURVE ( 'NONE', #66, #1174, #75, .T. ) ;
#683 = DIRECTION ( 'NONE',  ( 0.000000000000000000, 0.000000000000000000, -1.000000000000000000 ) ) ;
#684 = ORIENTED_EDGE ( 'NONE', *, *, #919, .F. ) ;
#685 = ORIENTED_EDGE ( 'NONE', *, *, #409, .T. ) ;
#686 = CARTESIAN_POINT ( 'NONE',  ( -2.000000000000000000, -17.49999999999999645, 77.00000000000000000 ) ) ;
#687 = LINE ( 'NONE', #1140, #876 ) ;
#688 = DIRECTION ( 'NONE',  ( -1.745740669421566678E-15, -1.000000000000000000, -0.000000000000000000 ) ) ;
#689 = EDGE_CURVE ( 'NONE', #807, #504, #841, .T. ) ;
#690 = ORIENTED_EDGE ( 'NONE', *, *, #926, .F. ) ;
#691 = CC_DESIGN_PERSON_AND_ORGANIZATION_ASSIGNMENT ( #430, #253, ( #947 ) ) ;
#692 = DIRECTION ( 'NONE',  ( -1.000000000000000000, 0.000000000000000000, 0.000000000000000000 ) ) ;
#693 = CARTESIAN_POINT ( 'NONE',  ( -2.000000000000000000, 17.49999999999999645, 40.99999999999999289 ) ) ;
#694 = FACE_BOUND ( 'NONE', #333, .T. ) ;
#695 = EDGE_LOOP ( 'NONE', ( #125, #633, #93, #1156, #144, #1192, #463, #484 ) ) ;
#696 = AXIS2_PLACEMENT_3D ( 'NONE', #1088, #627, #1180 ) ;
#697 = AXIS2_PLACEMENT_3D ( 'NONE', #294, #880, #865 ) ;
#698 = DIRECTION ( 'NONE',  ( -1.000000000000000000, -0.000000000000000000, -0.000000000000000000 ) ) ;
#699 = ORIENTED_EDGE ( 'NONE', *, *, #147, .F. ) ;
#700 = DIRECTION ( 'NONE',  ( 0.000000000000000000, 0.000000000000000000, -1.000000000000000000 ) ) ;
#701 = ORIENTED_EDGE ( 'NONE', *, *, #246, .T. ) ;
#702 = DIRECTION ( 'NONE',  ( 0.000000000000000000, 1.000000000000000000, 0.000000000000000000 ) ) ;
#703 = AXIS2_PLACEMENT_3D ( 'NONE', #523, #913, #341 ) ;
#704 = EDGE_CURVE ( 'NONE', #184, #1001, #845, .T. ) ;
#705 = DIRECTION ( 'NONE',  ( -1.745740669421566678E-15, -1.000000000000000000, -0.000000000000000000 ) ) ;
#706 = ORIENTED_EDGE ( 'NONE', *, *, #1182, .T. ) ;
#707 =( NAMED_UNIT ( * ) SI_UNIT ( $, .STERADIAN. ) SOLID_ANGLE_UNIT ( ) );
#708 = ORIENTED_EDGE ( 'NONE', *, *, #854, .F. ) ;
#709 = SECURITY_CLASSIFICATION_LEVEL ( 'unclassified' ) ;
#710 = DIRECTION ( 'NONE',  ( 0.000000000000000000, 0.000000000000000000, -1.000000000000000000 ) ) ;
#711 = CARTESIAN_POINT ( 'NONE',  ( -7.347880794884123680E-16, 20.49999999999999645, 80.00000000000000000 ) ) ;
#712 = ORIENTED_EDGE ( 'NONE', *, *, #904, .F. ) ;
#713 = DIRECTION ( 'NONE',  ( -0.000000000000000000, -0.000000000000000000, -1.000000000000000000 ) ) ;
#714 = EDGE_CURVE ( 'NONE', #839, #818, #1123, .T. ) ;
#715 = CALENDAR_DATE ( 2026, 22, 8 ) ;
#716 = CARTESIAN_POINT ( 'NONE',  ( -2.000000000000000000, 17.49999999999999645, 77.00000000000000000 ) ) ;
#717 = CIRCLE ( 'NONE', #637, 2.000000000000001776 ) ;
#718 = ORIENTED_EDGE ( 'NONE', *, *, #314, .T. ) ;
#719 = VECTOR ( 'NONE', #1026, 1000.000000000000000 ) ;
#720 = DIRECTION ( 'NONE',  ( 0.000000000000000000, 0.000000000000000000, 1.000000000000000000 ) ) ;
#721 = ORIENTED_EDGE ( 'NONE', *, *, #742, .T. ) ;
#722 = EDGE_CURVE ( 'NONE', #602, #543, #287, .T. ) ;
#723 = AXIS2_PLACEMENT_3D ( 'NONE', #1186, #263, #822 ) ;
#724 = CARTESIAN_POINT ( 'NONE',  ( 0.000000000000000000, -14.49999999999999822, 80.00000000000000000 ) ) ;
#725 = ORIENTED_EDGE ( 'NONE', *, *, #520, .T. ) ;
#726 = CARTESIAN_POINT ( 'NONE',  ( 0.000000000000000000, -14.50000000000000000, -2.000000000000000000 ) ) ;
#727 = VECTOR ( 'NONE', #419, 1000.000000000000000 ) ;
#728 = ORIENTED_EDGE ( 'NONE', *, *, #941, .T. ) ;
#729 = APPROVAL_ROLE ( '' ) ;
#730 = ADVANCED_FACE ( 'NONE', ( #12 ), #1112, .F. ) ;
#731 = CARTESIAN_POINT ( 'NONE',  ( -14.50099999999999767, -20.49999999999999645, 39.00000000000000000 ) ) ;
#732 = CARTESIAN_POINT ( 'NONE',  ( 0.000000000000000000, -14.49999999999999822, -2.000000000000000000 ) ) ;
#733 = CC_DESIGN_DATE_AND_TIME_ASSIGNMENT ( #897, #634, ( #947 ) ) ;
#734 = CARTESIAN_POINT ( 'NONE',  ( -8.500000000000000000, 0.000000000000000000, 0.000000000000000000 ) ) ;
#735 = DIRECTION ( 'NONE',  ( -1.000000000000000000, 0.000000000000000000, -0.000000000000000000 ) ) ;
#736 = VECTOR ( 'NONE', #1032, 1000.000000000000000 ) ;
#737 = VECTOR ( 'NONE', #382, 1000.000000000000000 ) ;
#738 = CARTESIAN_POINT ( 'NONE',  ( 0.000000000000000000, 0.000000000000000000, 80.00000000000000000 ) ) ;
#739 = DIRECTION ( 'NONE',  ( 0.000000000000000000, 0.000000000000000000, -1.000000000000000000 ) ) ;
#740 = ORIENTED_EDGE ( 'NONE', *, *, #72, .F. ) ;
#741 = DIRECTION ( 'NONE',  ( 0.000000000000000000, 0.000000000000000000, -1.000000000000000000 ) ) ;
#742 = EDGE_CURVE ( 'NONE', #80, #807, #513, .T. ) ;
#743 = DIRECTION ( 'NONE',  ( -0.000000000000000000, -0.000000000000000000, -1.000000000000000000 ) ) ;
#744 = DIRECTION ( 'NONE',  ( 1.000000000000000000, 0.000000000000000000, 0.000000000000000000 ) ) ;
#745 = VERTEX_POINT ( 'NONE', #200 ) ;
#746 = CARTESIAN_POINT ( 'NONE',  ( -2.000000000000000000, -14.50000000000000000, -2.000000000000000000 ) ) ;
#747 = PLANE ( 'NONE',  #11 ) ;
#748 = DIRECTION ( 'NONE',  ( 1.000000000000000000, -0.000000000000000000, -0.000000000000000000 ) ) ;
#749 = EDGE_LOOP ( 'NONE', ( #232, #1072, #690, #581 ) ) ;
#750 = CARTESIAN_POINT ( 'NONE',  ( 0.000000000000000000, 0.000000000000000000, 80.00000000000000000 ) ) ;
#751 = VECTOR ( 'NONE', #939, 1000.000000000000000 ) ;
#752 = DIRECTION ( 'NONE',  ( 0.000000000000000000, 0.000000000000000000, 1.000000000000000000 ) ) ;
#753 = LOCAL_TIME ( 22, 9, 54.00000000000000000, #338 ) ;
#754 = ADVANCED_FACE ( 'NONE', ( #569, #269 ), #943, .T. ) ;
#755 = ORIENTED_EDGE ( 'NONE', *, *, #1182, .F. ) ;
#756 = CARTESIAN_POINT ( 'NONE',  ( -14.50099999999999767, 17.49999999999999645, 79.00000000000000000 ) ) ;
#757 = FACE_OUTER_BOUND ( 'NONE', #695, .T. ) ;
#758 = EDGE_LOOP ( 'NONE', ( #161, #236, #948, #706, #617, #776 ) ) ;
#759 = LINE ( 'NONE', #575, #1007 ) ;
#760 = EDGE_CURVE ( 'NONE', #21, #539, #1176, .T. ) ;
#761 = CARTESIAN_POINT ( 'NONE',  ( -14.50099999999999767, 17.49999999999999645, 45.00000000000000000 ) ) ;
#762 = ORIENTED_EDGE ( 'NONE', *, *, #714, .F. ) ;
#763 = CARTESIAN_POINT ( 'NONE',  ( 0.000000000000000000, 0.000000000000000000, 80.00000000000000000 ) ) ;
#764 = FACE_OUTER_BOUND ( 'NONE', #422, .T. ) ;
#765 = DIRECTION ( 'NONE',  ( -0.000000000000000000, -0.000000000000000000, -1.000000000000000000 ) ) ;
#766 = DIRECTION ( 'NONE',  ( 0.000000000000000000, 0.000000000000000000, -1.000000000000000000 ) ) ;
#767 = EDGE_LOOP ( 'NONE', ( #131, #214 ) ) ;
#768 = AXIS2_PLACEMENT_3D ( 'NONE', #716, #57, #710 ) ;
#769 = VERTEX_POINT ( 'NONE', #1021 ) ;
#770 = CIRCLE ( 'NONE', #1160, 3.500000000000000000 ) ;
#771 = AXIS2_PLACEMENT_3D ( 'NONE', #1102, #357, #272 ) ;
#772 = CC_DESIGN_SECURITY_CLASSIFICATION ( #947, ( #815 ) ) ;
#773 = CARTESIAN_POINT ( 'NONE',  ( -14.50099999999999767, -17.49999999999999645, 40.99999999999999289 ) ) ;
#774 = EDGE_CURVE ( 'NONE', #622, #961, #133, .T. ) ;
#775 = FACE_OUTER_BOUND ( 'NONE', #323, .T. ) ;
#776 = ORIENTED_EDGE ( 'NONE', *, *, #662, .T. ) ;
#777 = LINE ( 'NONE', #1037, #13 ) ;
#778 = ORIENTED_EDGE ( 'NONE', *, *, #618, .T. ) ;
#779 = CARTESIAN_POINT ( 'NONE',  ( 0.000000000000000000, 17.49999999999999645, 61.50000000000000000 ) ) ;
#780 = DIRECTION ( 'NONE',  ( 0.000000000000000000, 0.000000000000000000, -1.000000000000000000 ) ) ;
#781 = DIRECTION ( 'NONE',  ( -1.000000000000000000, 0.000000000000000000, 0.000000000000000000 ) ) ;
#782 = ORIENTED_EDGE ( 'NONE', *, *, #689, .T. ) ;
#783 = DIRECTION ( 'NONE',  ( -1.000000000000000000, -0.000000000000000000, -0.000000000000000000 ) ) ;
#784 = CARTESIAN_POINT ( 'NONE',  ( -14.50099999999999767, 17.49999999999999645, 77.00000000000000000 ) ) ;
#785 = APPLICATION_PROTOCOL_DEFINITION ( 'international standard', 'config_control_design', 1994, #410 ) ;
#786 = ORIENTED_EDGE ( 'NONE', *, *, #458, .F. ) ;
#787 = AXIS2_PLACEMENT_3D ( 'NONE', #1138, #399, #1062 ) ;
#788 = AXIS2_PLACEMENT_3D ( 'NONE', #679, #583, #1145 ) ;
#789 = DIRECTION ( 'NONE',  ( -0.000000000000000000, 1.000000000000000000, -0.000000000000000000 ) ) ;
#790 = LOCAL_TIME ( 22, 9, 54.00000000000000000, #804 ) ;
#791 = CIRCLE ( 'NONE', #540, 2.000000000000001776 ) ;
#792 = DESIGN_CONTEXT ( 'detailed design', #460, 'design' ) ;
#793 = FACE_OUTER_BOUND ( 'NONE', #1099, .T. ) ;
#794 = CYLINDRICAL_SURFACE ( 'NONE', #1016, 1.249999999999999334 ) ;
#795 = CARTESIAN_POINT ( 'NONE',  ( -2.000000000000000000, -14.50000000000000533, 39.00000000000000000 ) ) ;
#796 = VERTEX_POINT ( 'NONE', #478 ) ;
#797 = APPROVAL_DATE_TIME ( #823, #524 ) ;
#798 = DIRECTION ( 'NONE',  ( 0.000000000000000000, -1.269309860470834477E-16, -1.000000000000000000 ) ) ;
#799 = DIRECTION ( 'NONE',  ( 1.000000000000000000, -0.000000000000000000, -0.000000000000000000 ) ) ;
#800 = AXIS2_PLACEMENT_3D ( 'NONE', #488, #884, #50 ) ;
#801 = EDGE_LOOP ( 'NONE', ( #174, #954, #979, #491 ) ) ;
#802 = EDGE_CURVE ( 'NONE', #533, #510, #759, .T. ) ;
#803 = EDGE_LOOP ( 'NONE', ( #878, #1060, #607, #661 ) ) ;
#804 = COORDINATED_UNIVERSAL_TIME_OFFSET ( 5, 30, .AHEAD. ) ;
#805 = CIRCLE ( 'NONE', #67, 2.000000000000001776 ) ;
#806 = CARTESIAN_POINT ( 'NONE',  ( -7.347880794884123680E-16, -20.49999999999999645, 39.00000000000000000 ) ) ;
#807 = VERTEX_POINT ( 'NONE', #862 ) ;
#808 = CARTESIAN_POINT ( 'NONE',  ( -9.750000000000000000, 0.000000000000000000, -2.000000000000000000 ) ) ;
#809 = EDGE_CURVE ( 'NONE', #320, #1001, #1085, .T. ) ;
#810 = VERTEX_POINT ( 'NONE', #1137 ) ;
#811 = CALENDAR_DATE ( 2026, 22, 8 ) ;
#812 = CARTESIAN_POINT ( 'NONE',  ( 0.000000000000000000, -12.50000000000000000, 80.00000000000000000 ) ) ;
#813 = ORIENTED_EDGE ( 'NONE', *, *, #854, .T. ) ;
#814 = CIRCLE ( 'NONE', #538, 2.000000000000001776 ) ;
#815 = PRODUCT_DEFINITION_FORMATION_WITH_SPECIFIED_SOURCE ( 'ANY', '', #363, .NOT_KNOWN. ) ;
#816 = CARTESIAN_POINT ( 'NONE',  ( 0.000000000000000000, 0.000000000000000000, 80.00000000000001421 ) ) ;
#817 = AXIS2_PLACEMENT_3D ( 'NONE', #1, #91, #932 ) ;
#818 = VERTEX_POINT ( 'NONE', #394 ) ;
#819 = APPROVAL_STATUS ( 'not_yet_approved' ) ;
#820 = DIRECTION ( 'NONE',  ( 1.000000000000000000, -0.000000000000000000, -0.000000000000000000 ) ) ;
#821 = ORIENTED_EDGE ( 'NONE', *, *, #722, .F. ) ;
#822 = DIRECTION ( 'NONE',  ( -1.000000000000000000, 0.000000000000000000, 0.000000000000000000 ) ) ;
#823 = DATE_AND_TIME ( #81, #790 ) ;
#824 = DIRECTION ( 'NONE',  ( -0.000000000000000000, -0.000000000000000000, -1.000000000000000000 ) ) ;
#825 = ORIENTED_EDGE ( 'NONE', *, *, #978, .T. ) ;
#826 = CARTESIAN_POINT ( 'NONE',  ( -14.50099999999999767, 17.49999999999999645, 43.00000000000000000 ) ) ;
#827 = DIRECTION ( 'NONE',  ( -1.000000000000000000, 8.881784197001252323E-16, 0.000000000000000000 ) ) ;
#828 = CARTESIAN_POINT ( 'NONE',  ( 0.000000000000000000, 17.49999999999999645, 59.50000000000000000 ) ) ;
#829 = EDGE_CURVE ( 'NONE', #655, #539, #22, .T. ) ;
#830 = CARTESIAN_POINT ( 'NONE',  ( 0.000000000000000000, -14.49999999999999822, 0.000000000000000000 ) ) ;
#831 = VECTOR ( 'NONE', #427, 1000.000000000000000 ) ;
#832 = EDGE_CURVE ( 'NONE', #769, #868, #1065, .T. ) ;
#833 = LINE ( 'NONE', #9, #223 ) ;
#834 = CARTESIAN_POINT ( 'NONE',  ( 0.000000000000000000, -17.49999999999999645, 43.00000000000000000 ) ) ;
#835 = ORIENTED_EDGE ( 'NONE', *, *, #760, .T. ) ;
#836 = CARTESIAN_POINT ( 'NONE',  ( -2.000000000000000000, -17.49999999999999645, 77.00000000000000000 ) ) ;
#837 = DIRECTION ( 'NONE',  ( 0.000000000000000000, 0.000000000000000000, -1.000000000000000000 ) ) ;
#838 = DIRECTION ( 'NONE',  ( 0.000000000000000000, 0.000000000000000000, -1.000000000000000000 ) ) ;
#839 = VERTEX_POINT ( 'NONE', #305 ) ;
#840 = CIRCLE ( 'NONE', #768, 2.000000000000001776 ) ;
#841 = LINE ( 'NONE', #459, #1104 ) ;
#842 = EDGE_CURVE ( 'NONE', #132, #291, #1122, .T. ) ;
#843 = DIRECTION ( 'NONE',  ( -1.000000000000000000, 0.000000000000000000, 0.000000000000000000 ) ) ;
#844 = ORIENTED_EDGE ( 'NONE', *, *, #385, .T. ) ;
#845 = LINE ( 'NONE', #924, #1042 ) ;
#846 = AXIS2_PLACEMENT_3D ( 'NONE', #1014, #469, #935 ) ;
#847 = DIRECTION ( 'NONE',  ( -1.000000000000000000, 0.000000000000000000, 0.000000000000000000 ) ) ;
#848 = AXIS2_PLACEMENT_3D ( 'NONE', #552, #173, #82 ) ;
#849 = ORIENTED_EDGE ( 'NONE', *, *, #551, .F. ) ;
#850 = CC_DESIGN_PERSON_AND_ORGANIZATION_ASSIGNMENT ( #331, #157, ( #363 ) ) ;
#851 = DIRECTION ( 'NONE',  ( 1.000000000000000000, 0.000000000000000000, 0.000000000000000000 ) ) ;
#852 = DIRECTION ( 'NONE',  ( -0.000000000000000000, -0.000000000000000000, -1.000000000000000000 ) ) ;
#853 = ORIENTED_EDGE ( 'NONE', *, *, #104, .F. ) ;
#854 = EDGE_CURVE ( 'NONE', #73, #340, #944, .T. ) ;
#855 = DIRECTION ( 'NONE',  ( -0.000000000000000000, -0.000000000000000000, -1.000000000000000000 ) ) ;
#856 = CARTESIAN_POINT ( 'NONE',  ( 0.000000000000000000, 17.49999999999999645, 43.00000000000000000 ) ) ;
#857 = ORIENTED_EDGE ( 'NONE', *, *, #147, .T. ) ;
#858 = FACE_OUTER_BOUND ( 'NONE', #1006, .T. ) ;
#859 = ORIENTED_EDGE ( 'NONE', *, *, #682, .F. ) ;
#860 = ORIENTED_EDGE ( 'NONE', *, *, #872, .T. ) ;
#861 = ADVANCED_FACE ( 'NONE', ( #127 ), #1133, .F. ) ;
#862 = CARTESIAN_POINT ( 'NONE',  ( -2.000000000000000000, -17.49999999999999645, 75.00000000000000000 ) ) ;
#863 = FACE_OUTER_BOUND ( 'NONE', #951, .T. ) ;
#864 = ORIENTED_EDGE ( 'NONE', *, *, #612, .T. ) ;
#865 = DIRECTION ( 'NONE',  ( -1.000000000000000000, 0.000000000000000000, 0.000000000000000000 ) ) ;
#866 = VERTEX_POINT ( 'NONE', #949 ) ;
#867 = APPROVAL ( #1004, 'UNSPECIFIED' ) ;
#868 = VERTEX_POINT ( 'NONE', #670 ) ;
#869 = CIRCLE ( 'NONE', #281, 14.49999999999999822 ) ;
#870 = LOCAL_TIME ( 22, 9, 54.00000000000000000, #149 ) ;
#871 = LINE ( 'NONE', #38, #318 ) ;
#872 = EDGE_CURVE ( 'NONE', #468, #194, #1039, .T. ) ;
#873 = EDGE_LOOP ( 'NONE', ( #531, #718 ) ) ;
#874 = DIRECTION ( 'NONE',  ( 1.000000000000000000, -0.000000000000000000, -0.000000000000000000 ) ) ;
#875 = ORIENTED_EDGE ( 'NONE', *, *, #43, .T. ) ;
#876 = VECTOR ( 'NONE', #780, 1000.000000000000000 ) ;
#877 = CARTESIAN_POINT ( 'NONE',  ( -14.50099999999999767, 14.50000000000000000, -2.000000000000000000 ) ) ;
#878 = ORIENTED_EDGE ( 'NONE', *, *, #43, .F. ) ;
#879 = EDGE_CURVE ( 'NONE', #420, #27, #120, .T. ) ;
#880 = DIRECTION ( 'NONE',  ( -0.000000000000000000, -0.000000000000000000, 1.000000000000000000 ) ) ;
#881 = ORIENTED_EDGE ( 'NONE', *, *, #612, .F. ) ;
#882 = CARTESIAN_POINT ( 'NONE',  ( 0.000000000000000000, 12.50000000000000000, 0.000000000000000000 ) ) ;
#883 = PLANE ( 'NONE',  #969 ) ;
#884 = DIRECTION ( 'NONE',  ( 1.000000000000000000, -0.000000000000000000, -0.000000000000000000 ) ) ;
#885 = CARTESIAN_POINT ( 'NONE',  ( -14.50099999999999767, 20.49999999999999645, 39.00000000000000000 ) ) ;
#886 = EDGE_CURVE ( 'NONE', #961, #622, #659, .T. ) ;
#887 = ORIENTED_EDGE ( 'NONE', *, *, #682, .T. ) ;
#888 = COORDINATED_UNIVERSAL_TIME_OFFSET ( 5, 30, .AHEAD. ) ;
#889 = CIRCLE ( 'NONE', #696, 2.000000000000001776 ) ;
#890 = DIRECTION ( 'NONE',  ( 0.000000000000000000, -1.000000000000000000, -0.000000000000000000 ) ) ;
#891 = APPROVAL_PERSON_ORGANIZATION ( #511, #867, #260 ) ;
#892 = PRODUCT_RELATED_PRODUCT_CATEGORY ( 'detail', '', ( #363 ) ) ;
#893 = CARTESIAN_POINT ( 'NONE',  ( -7.347880794884123680E-16, 20.49999999999999645, 80.00000000000000000 ) ) ;
#894 = ORIENTED_EDGE ( 'NONE', *, *, #16, .F. ) ;
#895 = LINE ( 'NONE', #885, #495 ) ;
#896 = ORIENTED_EDGE ( 'NONE', *, *, #1098, .F. ) ;
#897 = DATE_AND_TIME ( #343, #413 ) ;
#898 = CARTESIAN_POINT ( 'NONE',  ( -2.000000000000000000, -20.49999999999999645, 39.00000000000000000 ) ) ;
#899 = EDGE_CURVE ( 'NONE', #83, #866, #869, .T. ) ;
#900 = ORIENTED_EDGE ( 'NONE', *, *, #458, .T. ) ;
#901 = DIRECTION ( 'NONE',  ( 0.000000000000000000, 0.000000000000000000, -1.000000000000000000 ) ) ;
#902 = ORIENTED_EDGE ( 'NONE', *, *, #1061, .T. ) ;
#903 = DIRECTION ( 'NONE',  ( 1.000000000000000000, -0.000000000000000000, -0.000000000000000000 ) ) ;
#904 = EDGE_CURVE ( 'NONE', #1185, #810, #833, .T. ) ;
#905 = CYLINDRICAL_SURFACE ( 'NONE', #563, 2.000000000000001776 ) ;
#906 = ORIENTED_EDGE ( 'NONE', *, *, #631, .T. ) ;
#907 = EDGE_CURVE ( 'NONE', #420, #839, #336, .T. ) ;
#908 = MECHANICAL_CONTEXT ( 'NONE', #410, 'mechanical' ) ;
#909 = LINE ( 'NONE', #630, #479 ) ;
#910 = ORIENTED_EDGE ( 'NONE', *, *, #239, .F. ) ;
#911 = AXIS2_PLACEMENT_3D ( 'NONE', #567, #1109, #100 ) ;
#912 = CIRCLE ( 'NONE', #677, 2.000000000000001776 ) ;
#913 = DIRECTION ( 'NONE',  ( 1.000000000000000000, 0.000000000000000000, -0.000000000000000000 ) ) ;
#914 = ORIENTED_EDGE ( 'NONE', *, *, #666, .F. ) ;
#915 = CALENDAR_DATE ( 2026, 22, 8 ) ;
#916 = FACE_OUTER_BOUND ( 'NONE', #28, .T. ) ;
#917 = VERTEX_POINT ( 'NONE', #461 ) ;
#918 = FACE_BOUND ( 'NONE', #88, .T. ) ;
#919 = EDGE_CURVE ( 'NONE', #132, #1034, #555, .T. ) ;
#920 = CIRCLE ( 'NONE', #526, 2.000000000000001776 ) ;
#921 = CARTESIAN_POINT ( 'NONE',  ( 0.000000000000000000, 12.50000000000000000, 80.00000000000001421 ) ) ;
#922 = CARTESIAN_POINT ( 'NONE',  ( -14.50099999999999767, -17.49999999999999645, 59.50000000000000000 ) ) ;
#923 = ORIENTED_EDGE ( 'NONE', *, *, #577, .F. ) ;
#924 = CARTESIAN_POINT ( 'NONE',  ( 0.000000000000000000, 12.50000000000000000, 80.00000000000000000 ) ) ;
#925 = CARTESIAN_POINT ( 'NONE',  ( -2.000000000000000000, -17.49999999999999645, 43.00000000000000000 ) ) ;
#926 = EDGE_CURVE ( 'NONE', #27, #818, #454, .T. ) ;
#927 = CYLINDRICAL_SURFACE ( 'NONE', #817, 2.000000000000001776 ) ;
#928 = ORIENTED_EDGE ( 'NONE', *, *, #109, .T. ) ;
#929 = DIRECTION ( 'NONE',  ( 0.000000000000000000, 0.000000000000000000, -1.000000000000000000 ) ) ;
#930 = VECTOR ( 'NONE', #667, 1000.000000000000000 ) ;
#931 = DIRECTION ( 'NONE',  ( 1.000000000000000000, -0.000000000000000000, -0.000000000000000000 ) ) ;
#932 = DIRECTION ( 'NONE',  ( 0.000000000000000000, 0.000000000000000000, -1.000000000000000000 ) ) ;
#933 = EDGE_LOOP ( 'NONE', ( #910, #1025, #1127, #985 ) ) ;
#934 = EDGE_CURVE ( 'NONE', #594, #810, #653, .T. ) ;
#935 = DIRECTION ( 'NONE',  ( 0.000000000000000000, 0.000000000000000000, -1.000000000000000000 ) ) ;
#936 = CARTESIAN_POINT ( 'NONE',  ( 0.000000000000000000, 0.000000000000000000, 0.000000000000000000 ) ) ;
#937 = ORIENTED_EDGE ( 'NONE', *, *, #674, .T. ) ;
#938 = VERTEX_POINT ( 'NONE', #466 ) ;
#939 = DIRECTION ( 'NONE',  ( 1.000000000000000000, 0.000000000000000000, -0.000000000000000000 ) ) ;
#940 = DIRECTION ( 'NONE',  ( 1.000000000000000000, 0.000000000000000000, -0.000000000000000000 ) ) ;
#941 = EDGE_CURVE ( 'NONE', #425, #938, #1139, .T. ) ;
#942 = EDGE_LOOP ( 'NONE', ( #10, #403, #155, #699 ) ) ;
#943 = PLANE ( 'NONE',  #393 ) ;
#944 = CIRCLE ( 'NONE', #492, 2.000000000000001776 ) ;
#945 = EDGE_CURVE ( 'NONE', #745, #320, #135, .T. ) ;
#946 = DIRECTION ( 'NONE',  ( 1.000000000000000000, 0.000000000000000000, 0.000000000000000000 ) ) ;
#947 = SECURITY_CLASSIFICATION ( '', '', #709 ) ;
#948 = ORIENTED_EDGE ( 'NONE', *, *, #168, .T. ) ;
#949 = CARTESIAN_POINT ( 'NONE',  ( -14.49999999999997335, 0.000000000000000000, -2.000000000000000000 ) ) ;
#950 = CARTESIAN_POINT ( 'NONE',  ( 0.000000000000000000, -17.49999999999999645, 61.50000000000000000 ) ) ;
#951 = EDGE_LOOP ( 'NONE', ( #928, #199, #17, #189 ) ) ;
#952 = DIRECTION ( 'NONE',  ( 1.000000000000000000, -0.000000000000000000, -0.000000000000000000 ) ) ;
#953 = ADVANCED_FACE ( 'NONE', ( #1114 ), #747, .F. ) ;
#954 = ORIENTED_EDGE ( 'NONE', *, *, #84, .F. ) ;
#955 = CARTESIAN_POINT ( 'NONE',  ( -2.000000000000000000, 17.49999999999999645, 59.50000000000000000 ) ) ;
#956 = VECTOR ( 'NONE', #327, 1000.000000000000000 ) ;
#957 = ADVANCED_FACE ( 'NONE', ( #1028 ), #106, .F. ) ;
#958 = DIRECTION ( 'NONE',  ( -0.000000000000000000, -0.000000000000000000, -1.000000000000000000 ) ) ;
#959 = CYLINDRICAL_SURFACE ( 'NONE', #546, 2.000000000000001776 ) ;
#960 = CARTESIAN_POINT ( 'NONE',  ( 0.000000000000000000, -14.49999999999999822, 80.00000000000000000 ) ) ;
#961 = VERTEX_POINT ( 'NONE', #111 ) ;
#962 = ORIENTED_EDGE ( 'NONE', *, *, #1082, .T. ) ;
#963 = DIRECTION ( 'NONE',  ( 0.000000000000000000, 0.000000000000000000, -1.000000000000000000 ) ) ;
#964 = EDGE_LOOP ( 'NONE', ( #1030, #515, #1170, #894 ) ) ;
#965 = LINE ( 'NONE', #118, #1067 ) ;
#966 = VECTOR ( 'NONE', #279, 1000.000000000000000 ) ;
#967 = ORIENTED_EDGE ( 'NONE', *, *, #722, .T. ) ;
#968 = VECTOR ( 'NONE', #509, 1000.000000000000000 ) ;
#969 = AXIS2_PLACEMENT_3D ( 'NONE', #1134, #208, #122 ) ;
#970 = EDGE_CURVE ( 'NONE', #510, #142, #470, .T. ) ;
#971 = DIRECTION ( 'NONE',  ( -0.000000000000000000, -0.000000000000000000, -1.000000000000000000 ) ) ;
#972 = ORIENTED_EDGE ( 'NONE', *, *, #1040, .F. ) ;
#973 = CYLINDRICAL_SURFACE ( 'NONE', #1143, 12.50000000000000000 ) ;
#974 = ORIENTED_EDGE ( 'NONE', *, *, #842, .F. ) ;
#975 = CARTESIAN_POINT ( 'NONE',  ( 0.000000000000000000, 0.000000000000000000, 80.00000000000000000 ) ) ;
#976 = CARTESIAN_POINT ( 'NONE',  ( 0.000000000000000000, 17.49999999999999645, 75.00000000000000000 ) ) ;
#977 = CARTESIAN_POINT ( 'NONE',  ( 0.000000000000000000, 14.50000000000000000, -2.000000000000000000 ) ) ;
#978 = EDGE_CURVE ( 'NONE', #490, #1158, #275, .T. ) ;
#979 = ORIENTED_EDGE ( 'NONE', *, *, #666, .T. ) ;
#980 = PERSON_AND_ORGANIZATION ( #64, #76 ) ;
#981 = CARTESIAN_POINT ( 'NONE',  ( 0.000000000000000000, 3.500000000000000000, -2.000000000000000000 ) ) ;
#982 = DIRECTION ( 'NONE',  ( 0.000000000000000000, 0.000000000000000000, 1.000000000000000000 ) ) ;
#983 = ORIENTED_EDGE ( 'NONE', *, *, #201, .F. ) ;
#984 = LINE ( 'NONE', #1159, #968 ) ;
#985 = ORIENTED_EDGE ( 'NONE', *, *, #329, .T. ) ;
#986 = APPROVAL_STATUS ( 'not_yet_approved' ) ;
#987 = AXIS2_PLACEMENT_3D ( 'NONE', #292, #386, #486 ) ;
#988 = DIRECTION ( 'NONE',  ( 1.000000000000000000, -0.000000000000000000, -0.000000000000000000 ) ) ;
#989 = ORIENTED_EDGE ( 'NONE', *, *, #625, .T. ) ;
#990 = CIRCLE ( 'NONE', #455, 2.000000000000001776 ) ;
#991 = VECTOR ( 'NONE', #183, 1000.000000000000000 ) ;
#992 = DIRECTION ( 'NONE',  ( 0.000000000000000000, 0.000000000000000000, -1.000000000000000000 ) ) ;
#993 = ORIENTED_EDGE ( 'NONE', *, *, #280, .F. ) ;
#994 = AXIS2_PLACEMENT_3D ( 'NONE', #877, #1057, #412 ) ;
#995 = EDGE_CURVE ( 'NONE', #468, #1050, #35, .T. ) ;
#996 = LINE ( 'NONE', #616, #381 ) ;
#997 = DIRECTION ( 'NONE',  ( 0.000000000000000000, 0.000000000000000000, -1.000000000000000000 ) ) ;
#998 = CC_DESIGN_PERSON_AND_ORGANIZATION_ASSIGNMENT ( #171, #443, ( #391 ) ) ;
#999 = ORIENTED_EDGE ( 'NONE', *, *, #448, .T. ) ;
#1000 = LINE ( 'NONE', #1005, #1033 ) ;
#1001 = VERTEX_POINT ( 'NONE', #921 ) ;
#1002 = DIRECTION ( 'NONE',  ( 1.000000000000000000, 0.000000000000000000, 0.000000000000000000 ) ) ;
#1003 = VERTEX_POINT ( 'NONE', #447 ) ;
#1004 = APPROVAL_STATUS ( 'not_yet_approved' ) ;
#1005 = CARTESIAN_POINT ( 'NONE',  ( -2.000000000000000888, -20.49999999999999645, 80.00000000000000000 ) ) ;
#1006 = EDGE_LOOP ( 'NONE', ( #374, #335, #782, #1148 ) ) ;
#1007 = VECTOR ( 'NONE', #115, 1000.000000000000000 ) ;
#1008 = VECTOR ( 'NONE', #613, 1000.000000000000000 ) ;
#1009 = LINE ( 'NONE', #711, #727 ) ;
#1010 = ADVANCED_FACE ( 'NONE', ( #378 ), #264, .F. ) ;
#1011 = DIRECTION ( 'NONE',  ( 0.000000000000000000, -1.269309860470834477E-16, 1.000000000000000000 ) ) ;
#1012 = DIRECTION ( 'NONE',  ( 1.000000000000000000, 0.000000000000000000, 0.000000000000000000 ) ) ;
#1013 = ORIENTED_EDGE ( 'NONE', *, *, #202, .T. ) ;
#1014 = CARTESIAN_POINT ( 'NONE',  ( 0.000000000000000000, -17.49999999999999645, 59.50000000000000000 ) ) ;
#1015 = EDGE_CURVE ( 'NONE', #262, #655, #990, .T. ) ;
#1016 = AXIS2_PLACEMENT_3D ( 'NONE', #592, #1043, #307 ) ;
#1017 = DIRECTION ( 'NONE',  ( 1.000000000000000000, -0.000000000000000000, -0.000000000000000000 ) ) ;
#1018 = DIRECTION ( 'NONE',  ( 0.000000000000000000, -1.000000000000000000, 0.000000000000000000 ) ) ;
#1019 = ORIENTED_EDGE ( 'NONE', *, *, #196, .T. ) ;
#1020 = ADVANCED_FACE ( 'NONE', ( #90, #362, #187, #475 ), #40, .F. ) ;
#1021 = CARTESIAN_POINT ( 'NONE',  ( 1.920314736363723345E-14, -3.499999999999999556, -2.000000000000000000 ) ) ;
#1022 = DIRECTION ( 'NONE',  ( 0.000000000000000000, 0.000000000000000000, 1.000000000000000000 ) ) ;
#1023 = EDGE_CURVE ( 'NONE', #78, #445, #138, .T. ) ;
#1024 = LINE ( 'NONE', #649, #494 ) ;
#1025 = ORIENTED_EDGE ( 'NONE', *, *, #945, .F. ) ;
#1026 = DIRECTION ( 'NONE',  ( -1.745740669421566678E-15, -1.000000000000000000, -0.000000000000000000 ) ) ;
#1027 = VECTOR ( 'NONE', #855, 1000.000000000000000 ) ;
#1028 = FACE_OUTER_BOUND ( 'NONE', #304, .T. ) ;
#1029 = ADVANCED_FACE ( 'NONE', ( #694, #489, #1064, #757 ), #1141, .F. ) ;
#1030 = ORIENTED_EDGE ( 'NONE', *, *, #280, .T. ) ;
#1031 = DIRECTION ( 'NONE',  ( -1.000000000000000000, 0.000000000000000000, 0.000000000000000000 ) ) ;
#1032 = DIRECTION ( 'NONE',  ( 0.000000000000000000, -1.269309860470834477E-16, 1.000000000000000000 ) ) ;
#1033 = VECTOR ( 'NONE', #437, 1000.000000000000000 ) ;
#1034 = VERTEX_POINT ( 'NONE', #1135 ) ;
#1035 = VECTOR ( 'NONE', #505, 1000.000000000000000 ) ;
#1036 = DIRECTION ( 'NONE',  ( 1.000000000000000000, -0.000000000000000000, -0.000000000000000000 ) ) ;
#1037 = CARTESIAN_POINT ( 'NONE',  ( -14.49999999999999822, 0.000000000000000000, 200.0000000000000000 ) ) ;
#1038 = ORIENTED_EDGE ( 'NONE', *, *, #886, .F. ) ;
#1039 = LINE ( 'NONE', #206, #1027 ) ;
#1040 = EDGE_CURVE ( 'NONE', #340, #628, #1154, .T. ) ;
#1041 = CARTESIAN_POINT ( 'NONE',  ( -14.50099999999999767, 17.49999999999999645, 43.00000000000000000 ) ) ;
#1042 = VECTOR ( 'NONE', #1128, 1000.000000000000000 ) ;
#1043 = DIRECTION ( 'NONE',  ( -0.000000000000000000, -0.000000000000000000, -1.000000000000000000 ) ) ;
#1044 = FACE_OUTER_BOUND ( 'NONE', #313, .T. ) ;
#1045 = AXIS2_PLACEMENT_3D ( 'NONE', #182, #743, #550 ) ;
#1046 = ORIENTED_EDGE ( 'NONE', *, *, #577, .T. ) ;
#1047 = EDGE_CURVE ( 'NONE', #917, #1003, #965, .T. ) ;
#1048 = DIRECTION ( 'NONE',  ( 0.000000000000000000, 0.000000000000000000, -1.000000000000000000 ) ) ;
#1049 = DIRECTION ( 'NONE',  ( 1.000000000000000000, -0.000000000000000000, -0.000000000000000000 ) ) ;
#1050 = VERTEX_POINT ( 'NONE', #34 ) ;
#1051 = DIRECTION ( 'NONE',  ( -1.000000000000000000, 0.000000000000000000, 0.000000000000000000 ) ) ;
#1052 = EDGE_LOOP ( 'NONE', ( #1069, #1120, #408, #518 ) ) ;
#1053 = ADVANCED_FACE ( 'NONE', ( #1129 ), #402, .T. ) ;
#1054 = ORIENTED_EDGE ( 'NONE', *, *, #934, .T. ) ;
#1055 = VECTOR ( 'NONE', #765, 1000.000000000000000 ) ;
#1056 = VECTOR ( 'NONE', #702, 1000.000000000000000 ) ;
#1057 = DIRECTION ( 'NONE',  ( 0.000000000000000000, 1.000000000000000000, -1.269309860470834477E-16 ) ) ;
#1058 = DIRECTION ( 'NONE',  ( 0.000000000000000000, 1.000000000000000000, 0.000000000000000000 ) ) ;
#1059 = FACE_OUTER_BOUND ( 'NONE', #352, .T. ) ;
#1060 = ORIENTED_EDGE ( 'NONE', *, *, #1105, .T. ) ;
#1061 = EDGE_CURVE ( 'NONE', #769, #594, #302, .T. ) ;
#1062 = DIRECTION ( 'NONE',  ( -1.000000000000000000, 0.000000000000000000, 0.000000000000000000 ) ) ;
#1063 = ORIENTED_EDGE ( 'NONE', *, *, #92, .T. ) ;
#1064 = FACE_BOUND ( 'NONE', #277, .T. ) ;
#1065 = CIRCLE ( 'NONE', #788, 3.500000000000000000 ) ;
#1066 = ORIENTED_EDGE ( 'NONE', *, *, #429, .F. ) ;
#1067 = VECTOR ( 'NONE', #124, 1000.000000000000000 ) ;
#1068 = DIRECTION ( 'NONE',  ( 0.000000000000000000, 0.000000000000000000, 1.000000000000000000 ) ) ;
#1069 = ORIENTED_EDGE ( 'NONE', *, *, #1082, .F. ) ;
#1070 = DIRECTION ( 'NONE',  ( 1.000000000000000000, -0.000000000000000000, -0.000000000000000000 ) ) ;
#1071 = EDGE_CURVE ( 'NONE', #543, #568, #227, .T. ) ;
#1072 = ORIENTED_EDGE ( 'NONE', *, *, #714, .T. ) ;
#1073 = FACE_OUTER_BOUND ( 'NONE', #282, .T. ) ;
#1074 = FACE_OUTER_BOUND ( 'NONE', #803, .T. ) ;
#1075 = ADVANCED_FACE ( 'NONE', ( #312 ), #973, .F. ) ;
#1076 = ORIENTED_EDGE ( 'NONE', *, *, #72, .T. ) ;
#1077 = CARTESIAN_POINT ( 'NONE',  ( -7.250000000000000888, 1.530808498934190831E-16, 200.0010000000000048 ) ) ;
#1078 = EDGE_LOOP ( 'NONE', ( #303, #432, #1066, #740, #525, #937, #860, #923 ) ) ;
#1079 = DIRECTION ( 'NONE',  ( -0.000000000000000000, -0.000000000000000000, -1.000000000000000000 ) ) ;
#1080 = CARTESIAN_POINT ( 'NONE',  ( 0.000000000000000000, 0.000000000000000000, 200.0010000000000048 ) ) ;
#1081 = EDGE_LOOP ( 'NONE', ( #972, #708, #226, #152 ) ) ;
#1082 = EDGE_CURVE ( 'NONE', #425, #866, #777, .T. ) ;
#1083 = CARTESIAN_POINT ( 'NONE',  ( -9.750000000000000000, 0.000000000000000000, 0.000000000000000000 ) ) ;
#1084 = CIRCLE ( 'NONE', #117, 2.000000000000001776 ) ;
#1085 = CIRCLE ( 'NONE', #639, 12.50000000000000000 ) ;
#1086 = CARTESIAN_POINT ( 'NONE',  ( -2.000000000000000888, 20.49999999999999645, 80.00000000000000000 ) ) ;
#1087 = ORIENTED_EDGE ( 'NONE', *, *, #551, .T. ) ;
#1088 = CARTESIAN_POINT ( 'NONE',  ( 0.000000000000000000, 17.49999999999999645, 77.00000000000000000 ) ) ;
#1089 = ORIENTED_EDGE ( 'NONE', *, *, #1071, .F. ) ;
#1090 = ADVANCED_FACE ( 'NONE', ( #1059 ), #601, .F. ) ;
#1091 = LINE ( 'NONE', #731, #584 ) ;
#1092 = ORIENTED_EDGE ( 'NONE', *, *, #1040, .T. ) ;
#1093 = CLOSED_SHELL ( 'NONE', ( #372, #1090, #426, #1113, #351, #861, #37, #467, #476, #435, #1053, #1020, #754, #229, #536, #1075, #1029, #359, #590, #1010, #652, #401, #647, #957, #953, #30, #558, #1121, #485, #407, #730, #529, #4 ) ) ;
#1094 = CARTESIAN_POINT ( 'NONE',  ( -2.000000000000000000, -17.49999999999999645, 59.50000000000000000 ) ) ;
#1095 = ORIENTED_EDGE ( 'NONE', *, *, #1015, .F. ) ;
#1096 = DIRECTION ( 'NONE',  ( 0.000000000000000000, 0.000000000000000000, 1.000000000000000000 ) ) ;
#1097 = CARTESIAN_POINT ( 'NONE',  ( -2.000000000000000000, -17.49999999999999645, 79.00000000000000000 ) ) ;
#1098 = EDGE_CURVE ( 'NONE', #504, #370, #912, .T. ) ;
#1099 = EDGE_LOOP ( 'NONE', ( #237, #974, #1179, #383 ) ) ;
#1100 = FACE_OUTER_BOUND ( 'NONE', #801, .T. ) ;
#1101 = CARTESIAN_POINT ( 'NONE',  ( -8.500000000000000000, 0.000000000000000000, -2.000000000000000000 ) ) ;
#1102 = CARTESIAN_POINT ( 'NONE',  ( 2.531323970661271367E-14, 0.000000000000000000, 0.000000000000000000 ) ) ;
#1103 = EDGE_LOOP ( 'NONE', ( #1095, #126, #835, #457 ) ) ;
#1104 = VECTOR ( 'NONE', #554, 1000.000000000000000 ) ;
#1105 = EDGE_CURVE ( 'NONE', #1050, #917, #207, .T. ) ;
#1106 = APPROVAL_PERSON_ORGANIZATION ( #980, #642, #1175 ) ;
#1107 = DIRECTION ( 'NONE',  ( 0.000000000000000000, 0.000000000000000000, -1.000000000000000000 ) ) ;
#1108 = CC_DESIGN_PERSON_AND_ORGANIZATION_ASSIGNMENT ( #624, #541, ( #815 ) ) ;
#1109 = DIRECTION ( 'NONE',  ( -1.000000000000000000, -0.000000000000000000, -0.000000000000000000 ) ) ;
#1110 = CARTESIAN_POINT ( 'NONE',  ( -2.000000000000000000, 17.49999999999999645, 45.00000000000000000 ) ) ;
#1111 = ORIENTED_EDGE ( 'NONE', *, *, #367, .F. ) ;
#1112 = CYLINDRICAL_SURFACE ( 'NONE', #205, 2.000000000000001776 ) ;
#1113 = ADVANCED_FACE ( 'NONE', ( #1044 ), #1150, .F. ) ;
#1114 = FACE_OUTER_BOUND ( 'NONE', #119, .T. ) ;
#1115 = LINE ( 'NONE', #444, #991 ) ;
#1116 = EDGE_LOOP ( 'NONE', ( #762, #325, #159, #53 ) ) ;
#1117 = DIRECTION ( 'NONE',  ( -1.000000000000000000, 0.000000000000000000, 0.000000000000000000 ) ) ;
#1118 = CARTESIAN_POINT ( 'NONE',  ( -2.000000000000000888, -20.49999999999999645, 80.00000000000000000 ) ) ;
#1119 = CARTESIAN_POINT ( 'NONE',  ( -12.50000000000000000, 0.000000000000000000, 0.000000000000000000 ) ) ;
#1120 = ORIENTED_EDGE ( 'NONE', *, *, #596, .F. ) ;
#1121 = ADVANCED_FACE ( 'NONE', ( #858 ), #26, .F. ) ;
#1122 = CIRCLE ( 'NONE', #265, 2.000000000000001776 ) ;
#1123 = LINE ( 'NONE', #756, #751 ) ;
#1124 = AXIS2_PLACEMENT_3D ( 'NONE', #213, #23, #49 ) ;
#1125 = AXIS2_PLACEMENT_3D ( 'NONE', #134, #316, #692 ) ;
#1126 = CARTESIAN_POINT ( 'NONE',  ( -2.000000000000000000, 17.49999999999999645, 77.00000000000000000 ) ) ;
#1127 = ORIENTED_EDGE ( 'NONE', *, *, #254, .T. ) ;
#1128 = DIRECTION ( 'NONE',  ( 0.000000000000000000, 0.000000000000000000, 1.000000000000000000 ) ) ;
#1129 = FACE_OUTER_BOUND ( 'NONE', #1052, .T. ) ;
#1130 = ORIENTED_EDGE ( 'NONE', *, *, #1105, .F. ) ;
#1131 = AXIS2_PLACEMENT_3D ( 'NONE', #234, #890, #626 ) ;
#1132 = EDGE_CURVE ( 'NONE', #309, #216, #895, .T. ) ;
#1133 = CYLINDRICAL_SURFACE ( 'NONE', #987, 2.000000000000001776 ) ;
#1134 = CARTESIAN_POINT ( 'NONE',  ( -7.347880794884123680E-16, -20.49999999999999645, 80.00000000000000000 ) ) ;
#1135 = CARTESIAN_POINT ( 'NONE',  ( 0.000000000000000000, 17.49999999999999645, 57.49999999999999289 ) ) ;
#1136 = ORIENTED_EDGE ( 'NONE', *, *, #1023, .T. ) ;
#1137 = CARTESIAN_POINT ( 'NONE',  ( 0.000000000000000000, -14.50000000000000533, 39.00000000000000000 ) ) ;
#1138 = CARTESIAN_POINT ( 'NONE',  ( 0.000000000000000000, 0.000000000000000000, 200.0000000000000000 ) ) ;
#1139 = CIRCLE ( 'NONE', #619, 14.49999999999999822 ) ;
#1140 = CARTESIAN_POINT ( 'NONE',  ( -7.347880794884123680E-16, -20.49999999999999645, 80.00000000000000000 ) ) ;
#1141 = PLANE ( 'NONE',  #1194 ) ;
#1142 = ORIENTED_EDGE ( 'NONE', *, *, #16, .T. ) ;
#1143 = AXIS2_PLACEMENT_3D ( 'NONE', #587, #852, #668 ) ;
#1144 = EDGE_LOOP ( 'NONE', ( #993, #859 ) ) ;
#1145 = DIRECTION ( 'NONE',  ( -1.000000000000000000, 0.000000000000000000, 0.000000000000000000 ) ) ;
#1146 = PLANE ( 'NONE',  #994 ) ;
#1147 = MANIFOLD_SOLID_BREP ( 'Cut-Extrude8', #1093 ) ;
#1148 = ORIENTED_EDGE ( 'NONE', *, *, #1098, .T. ) ;
#1149 = EDGE_CURVE ( 'NONE', #80, #370, #406, .T. ) ;
#1150 = CYLINDRICAL_SURFACE ( 'NONE', #597, 2.000000000000001776 ) ;
#1151 = VERTEX_POINT ( 'NONE', #606 ) ;
#1152 = DIRECTION ( 'NONE',  ( 0.000000000000000000, 0.000000000000000000, -1.000000000000000000 ) ) ;
#1153 = DIRECTION ( 'NONE',  ( 1.000000000000000000, 0.000000000000000000, -0.000000000000000000 ) ) ;
#1154 = LINE ( 'NONE', #761, #247 ) ;
#1155 = EDGE_CURVE ( 'NONE', #810, #220, #984, .T. ) ;
#1156 = ORIENTED_EDGE ( 'NONE', *, *, #1061, .F. ) ;
#1157 = FACE_OUTER_BOUND ( 'NONE', #209, .T. ) ;
#1158 = VERTEX_POINT ( 'NONE', #977 ) ;
#1159 = CARTESIAN_POINT ( 'NONE',  ( 0.000000000000000000, -20.49999999999999645, 39.00000000000000000 ) ) ;
#1160 = AXIS2_PLACEMENT_3D ( 'NONE', #620, #992, #160 ) ;
#1161 = EDGE_LOOP ( 'NONE', ( #39, #1019, #256, #286, #1076, #565, #967, #148, #728, #1172 ) ) ;
#1162 = APPROVAL_PERSON_ORGANIZATION ( #349, #524, #729 ) ;
#1163 = LINE ( 'NONE', #321, #464 ) ;
#1164 = FACE_BOUND ( 'NONE', #259, .T. ) ;
#1165 = LINE ( 'NONE', #388, #1055 ) ;
#1166 = ORIENTED_EDGE ( 'NONE', *, *, #1168, .F. ) ;
#1167 = CARTESIAN_POINT ( 'NONE',  ( -2.000000000000000000, 20.49999999999999645, 39.00000000000000000 ) ) ;
#1168 = EDGE_CURVE ( 'NONE', #66, #961, #51, .T. ) ;
#1169 = CARTESIAN_POINT ( 'NONE',  ( -2.000000000000001332, 14.36140661634506976, 80.00000000000001421 ) ) ;
#1170 = ORIENTED_EDGE ( 'NONE', *, *, #886, .T. ) ;
#1171 = CARTESIAN_POINT ( 'NONE',  ( -2.000000000000000000, -17.49999999999999645, 59.50000000000000000 ) ) ;
#1172 = ORIENTED_EDGE ( 'NONE', *, *, #168, .F. ) ;
#1173 = LINE ( 'NONE', #732, #121 ) ;
#1174 = VERTEX_POINT ( 'NONE', #1083 ) ;
#1175 = APPROVAL_ROLE ( '' ) ;
#1176 = CIRCLE ( 'NONE', #315, 2.000000000000001776 ) ;
#1177 = DIRECTION ( 'NONE',  ( 1.000000000000000000, -0.000000000000000000, -0.000000000000000000 ) ) ;
#1178 = CIRCLE ( 'NONE', #678, 2.000000000000001776 ) ;
#1179 = ORIENTED_EDGE ( 'NONE', *, *, #919, .T. ) ;
#1180 = DIRECTION ( 'NONE',  ( 0.000000000000000000, 0.000000000000000000, -1.000000000000000000 ) ) ;
#1181 = ORIENTED_EDGE ( 'NONE', *, *, #774, .T. ) ;
#1182 = EDGE_CURVE ( 'NONE', #938, #83, #319, .T. ) ;
#1183 = PERSON_AND_ORGANIZATION ( #64, #76 ) ;
#1184 = DIRECTION ( 'NONE',  ( 0.000000000000000000, -1.000000000000000000, 0.000000000000000000 ) ) ;
#1185 = VERTEX_POINT ( 'NONE', #795 ) ;
#1186 = CARTESIAN_POINT ( 'NONE',  ( 2.531323970661271367E-14, 0.000000000000000000, -2.000000000000000000 ) ) ;
#1187 = DIRECTION ( 'NONE',  ( -1.000000000000000000, 0.000000000000000000, 0.000000000000000000 ) ) ;
#1188 = ORIENTED_EDGE ( 'NONE', *, *, #298, .T. ) ;
#1189 = CARTESIAN_POINT ( 'NONE',  ( 2.531323970661271367E-14, 0.000000000000000000, -2.000000000000000000 ) ) ;
#1190 = DIRECTION ( 'NONE',  ( 1.000000000000000000, 0.000000000000000000, -0.000000000000000000 ) ) ;
#1191 = PLANE ( 'NONE',  #771 ) ;
#1192 = ORIENTED_EDGE ( 'NONE', *, *, #1047, .T. ) ;
#1193 = AXIS2_PLACEMENT_3D ( 'NONE', #1126, #453, #837 ) ;
#1194 = AXIS2_PLACEMENT_3D ( 'NONE', #203, #673, #210 ) ;
#1195 = CARTESIAN_POINT ( 'NONE',  ( -14.50099999999999767, -17.49999999999999645, 57.49999999999999289 ) ) ;
#1196 = DIRECTION ( 'NONE',  ( 0.000000000000000000, -0.000000000000000000, 1.000000000000000000 ) ) ;
ENDSEC;
END-ISO-10303-21;
