ISO-10303-21;
HEADER;
FILE_DESCRIPTION (( 'STEP AP203' ),
    '1' );
FILE_NAME ('M2.5 x 16.STEP_Default_sldprt.STEP',
    '2026-08-22T16:39:57',
    ( '' ),
    ( '' ),
    'SwSTEP 2.0',
    'SolidWorks 2020',
    '' );
FILE_SCHEMA (( 'CONFIG_CONTROL_DESIGN' ));
ENDSEC;

DATA;
#1 = DIRECTION ( 'NONE',  ( 0.9871686829601515889, -0.1129114506653771666, 0.1129114506653767641 ) ) ;
#2 = ADVANCED_FACE ( 'NONE', ( #429 ), #640, .T. ) ;
#3 = DIRECTION ( 'NONE',  ( -0.1136381605096604547, 0.000000000000000000, 0.9935222033130315378 ) ) ;
#4 = DIRECTION ( 'NONE',  ( 0.000000000000000000, 0.000000000000000000, 1.000000000000000000 ) ) ;
#5 = PERSON_AND_ORGANIZATION ( #697, #460 ) ;
#6 = AXIS2_PLACEMENT_3D ( 'NONE', #568, #669, #611 ) ;
#7 = AXIS2_PLACEMENT_3D ( 'NONE', #83, #250, #358 ) ;
#8 = CARTESIAN_POINT ( 'NONE',  ( 0.000000000000000000, -0.01377952755905492190, -0.05275590551181102983 ) ) ;
#9 = CARTESIAN_POINT ( 'NONE',  ( 0.1251121671308748073, -1.665757761450228362E-16, 0.04250924135581582441 ) ) ;
#10 = COORDINATED_UNIVERSAL_TIME_OFFSET ( 5, 30, .AHEAD. ) ;
#11 = VECTOR ( 'NONE', #623, 39.37007874015748143 ) ;
#12 = DIRECTION ( 'NONE',  ( -1.000000000000000000, 0.000000000000000000, 0.000000000000000000 ) ) ;
#13 = ADVANCED_FACE ( 'NONE', ( #177 ), #390, .T. ) ;
#14 = ORIENTED_EDGE ( 'NONE', *, *, #272, .T. ) ;
#15 = CARTESIAN_POINT ( 'NONE',  ( 0.007250774900580414691, -0.04723489063653244641, -5.784605762610473035E-18 ) ) ;
#16 = APPROVAL_ROLE ( '' ) ;
#17 = VECTOR ( 'NONE', #629, 39.37007874015748854 ) ;
#18 = ORIENTED_EDGE ( 'NONE', *, *, #237, .T. ) ;
#19 = DIRECTION ( 'NONE',  ( 0.000000000000000000, 1.548860246407864815E-16, -1.000000000000000000 ) ) ;
#20 = CARTESIAN_POINT ( 'NONE',  ( 0.04035846629414551606, 0.000000000000000000, 0.09842519685039370636 ) ) ;
#21 = CARTESIAN_POINT ( 'NONE',  ( 0.000000000000000000, 0.01377952755905494098, 0.05275590551181102983 ) ) ;
#22 = VERTEX_POINT ( 'NONE', #459 ) ;
#23 = CARTESIAN_POINT ( 'NONE',  ( 0.06993717359243366294, -0.005780177638351906115, -0.005780177638351929534 ) ) ;
#24 = AXIS2_PLACEMENT_3D ( 'NONE', #41, #702, #679 ) ;
#25 = CARTESIAN_POINT ( 'NONE',  ( 0.007698422835822540423, 0.04689403452897882713, 0.01289898899940222429 ) ) ;
#26 = CARTESIAN_POINT ( 'NONE',  ( 0.001186545375970110301, -0.01364381158467939219, -0.01364381158467944943 ) ) ;
#27 = ORIENTED_EDGE ( 'NONE', *, *, #464, .T. ) ;
#28 = LINE ( 'NONE', #23, #412 ) ;
#29 = CARTESIAN_POINT ( 'NONE',  ( 0.06023622047244094058, 0.006889763779527558960, 0.006889763779527558960 ) ) ;
#30 = ORIENTED_EDGE ( 'NONE', *, *, #403, .F. ) ;
#31 = VECTOR ( 'NONE', #533, 39.37007874015748854 ) ;
#32 = AXIS2_PLACEMENT_3D ( 'NONE', #306, #524, #455 ) ;
#33 = VERTEX_POINT ( 'NONE', #672 ) ;
#34 = FACE_OUTER_BOUND ( 'NONE', #203, .T. ) ;
#35 = CYLINDRICAL_SURFACE ( 'NONE', #529, 0.04921259842519685318 ) ;
#36 = ORIENTED_EDGE ( 'NONE', *, *, #266, .F. ) ;
#37 = ORIENTED_EDGE ( 'NONE', *, *, #503, .F. ) ;
#38 = DIRECTION ( 'NONE',  ( -0.9871686829601518109, 0.1129114506653763755, 0.1129114506653765698 ) ) ;
#39 = CARTESIAN_POINT ( 'NONE',  ( -1.000000000000000000, 0.000000000000000000, 0.000000000000000000 ) ) ;
#40 = EDGE_CURVE ( 'NONE', #402, #353, #512, .T. ) ;
#41 = CARTESIAN_POINT ( 'NONE',  ( 0.06928457977087637554, -0.005854820722516976966, -2.044199729494011898E-17 ) ) ;
#42 = VERTEX_POINT ( 'NONE', #613 ) ;
#43 = ADVANCED_FACE ( 'NONE', ( #285 ), #236, .T. ) ;
#44 = ORIENTED_EDGE ( 'NONE', *, *, #678, .T. ) ;
#45 = ORIENTED_EDGE ( 'NONE', *, *, #398, .T. ) ;
#46 = VECTOR ( 'NONE', #456, 39.37007874015748143 ) ;
#47 = ORIENTED_EDGE ( 'NONE', *, *, #103, .T. ) ;
#48 = EDGE_CURVE ( 'NONE', #368, #507, #57, .T. ) ;
#49 = APPLICATION_PROTOCOL_DEFINITION ( 'international standard', 'config_control_design', 1994, #192 ) ;
#50 = CARTESIAN_POINT ( 'NONE',  ( 0.06023622047244094058, -0.006889763779527558960, -0.006889763779527558960 ) ) ;
#51 = MANIFOLD_SOLID_BREP ( 'NONE', #289 ) ;
#52 = FACE_OUTER_BOUND ( 'NONE', #184, .T. ) ;
#53 = ADVANCED_FACE ( 'NONE', ( #288 ), #181, .T. ) ;
#54 = VECTOR ( 'NONE', #234, 39.37007874015748854 ) ;
#55 = DIRECTION ( 'NONE',  ( 0.9935222033130314268, 0.000000000000000000, 0.1136381605096604547 ) ) ;
#56 = SPHERICAL_SURFACE ( 'NONE', #706, 0.1574803149606299191 ) ;
#57 = CIRCLE ( 'NONE', #649, 0.09363694403064487526 ) ;
#58 = DIRECTION ( 'NONE',  ( -1.000000000000000000, 0.000000000000000000, 0.000000000000000000 ) ) ;
#59 = EDGE_CURVE ( 'NONE', #647, #380, #518, .T. ) ;
#60 = DIRECTION ( 'NONE',  ( -1.000000000000000000, 0.000000000000000000, 0.000000000000000000 ) ) ;
#61 = CARTESIAN_POINT ( 'NONE',  ( 0.1570024089121033473, 0.004178264309976283467, 1.513418345244098302E-17 ) ) ;
#62 = CIRCLE ( 'NONE', #449, 0.1574241509847327802 ) ;
#63 = CALENDAR_DATE ( 2026, 22, 8 ) ;
#64 = LOCAL_TIME ( 22, 9, 57.00000000000000000, #330 ) ;
#65 = CARTESIAN_POINT ( 'NONE',  ( 0.03086210018605220831, 0.000000000000000000, 0.000000000000000000 ) ) ;
#66 = DIRECTION ( 'NONE',  ( 0.6058081784656141888, -0.7956107408175022710, -1.232289848067340510E-16 ) ) ;
#67 = EDGE_CURVE ( 'NONE', #565, #527, #120, .T. ) ;
#68 = SHAPE_DEFINITION_REPRESENTATION ( #607, #344 ) ;
#69 = ORIENTED_EDGE ( 'NONE', *, *, #452, .T. ) ;
#70 = DIRECTION ( 'NONE',  ( 0.6058081784656141888, 2.901089039354206265E-15, -0.7956107408175022710 ) ) ;
#71 = CIRCLE ( 'NONE', #400, 0.04921259842519685318 ) ;
#72 = ORIENTED_EDGE ( 'NONE', *, *, #337, .T. ) ;
#73 = CARTESIAN_POINT ( 'NONE',  ( 0.06993717359243366294, -0.005780177638351952953, 0.005780177638351929534 ) ) ;
#74 = DATE_AND_TIME ( #395, #229 ) ;
#75 = LOCAL_TIME ( 22, 9, 57.00000000000000000, #352 ) ;
#76 = EDGE_CURVE ( 'NONE', #42, #425, #291, .T. ) ;
#77 = ORIENTED_EDGE ( 'NONE', *, *, #686, .F. ) ;
#78 = FACE_OUTER_BOUND ( 'NONE', #626, .T. ) ;
#79 = DIRECTION ( 'NONE',  ( 0.7923367461350613317, -0.09062675200891444349, 0.6033152348021871836 ) ) ;
#80 = CARTESIAN_POINT ( 'NONE',  ( 0.06023622047244094058, 0.006889763779527558960, -0.006889763779527558960 ) ) ;
#81 = AXIS2_PLACEMENT_3D ( 'NONE', #194, #251, #342 ) ;
#82 = ORIENTED_EDGE ( 'NONE', *, *, #483, .F. ) ;
#83 = CARTESIAN_POINT ( 'NONE',  ( 0.7125984251968504601, 0.04921259842519685318, 0.000000000000000000 ) ) ;
#84 = AXIS2_PLACEMENT_3D ( 'NONE', #696, #89, #138 ) ;
#85 = DIRECTION ( 'NONE',  ( 0.000000000000000000, -1.000000000000000000, 0.000000000000000000 ) ) ;
#86 = DIRECTION ( 'NONE',  ( -0.9935222033130314268, 0.1136381605096604269, 0.000000000000000000 ) ) ;
#87 = ORIENTED_EDGE ( 'NONE', *, *, #415, .F. ) ;
#88 = VERTEX_POINT ( 'NONE', #15 ) ;
#89 = DIRECTION ( 'NONE',  ( -0.1136381605096604408, 0.000000000000000000, 0.9935222033130315378 ) ) ;
#90 = LINE ( 'NONE', #473, #656 ) ;
#91 = EDGE_LOOP ( 'NONE', ( #141, #128 ) ) ;
#92 = VECTOR ( 'NONE', #557, 39.37007874015748143 ) ;
#93 = ORIENTED_EDGE ( 'NONE', *, *, #224, .T. ) ;
#94 = LINE ( 'NONE', #310, #634 ) ;
#95 = DIRECTION ( 'NONE',  ( 0.000000000000000000, 0.000000000000000000, 1.000000000000000000 ) ) ;
#96 = ORIENTED_EDGE ( 'NONE', *, *, #588, .F. ) ;
#97 = ADVANCED_FACE ( 'NONE', ( #413 ), #397, .F. ) ;
#98 = DIRECTION ( 'NONE',  ( -1.000000000000000000, 0.000000000000000000, 0.000000000000000000 ) ) ;
#99 = VERTEX_POINT ( 'NONE', #559 ) ;
#100 = ORIENTED_EDGE ( 'NONE', *, *, #464, .F. ) ;
#101 = EDGE_LOOP ( 'NONE', ( #510, #45, #642 ) ) ;
#102 = FACE_OUTER_BOUND ( 'NONE', #209, .T. ) ;
#103 = EDGE_CURVE ( 'NONE', #475, #575, #670, .T. ) ;
#104 = ORIENTED_EDGE ( 'NONE', *, *, #483, .T. ) ;
#105 = AXIS2_PLACEMENT_3D ( 'NONE', #573, #60, #666 ) ;
#106 = CARTESIAN_POINT ( 'NONE',  ( 0.06928457977087637554, 0.005854820722516976966, 2.044199729494011898E-17 ) ) ;
#107 = DIRECTION ( 'NONE',  ( -1.000000000000000000, 0.000000000000000000, 0.000000000000000000 ) ) ;
#108 = ADVANCED_FACE ( 'NONE', ( #499 ), #409, .T. ) ;
#109 = CARTESIAN_POINT ( 'NONE',  ( 0.007250774900580414691, 0.04723489063653244641, 0.000000000000000000 ) ) ;
#110 = VECTOR ( 'NONE', #179, 39.37007874015748854 ) ;
#111 = CIRCLE ( 'NONE', #211, 0.1574241509847328357 ) ;
#112 = FACE_OUTER_BOUND ( 'NONE', #616, .T. ) ;
#113 = PLANE ( 'NONE',  #540 ) ;
#114 = EDGE_CURVE ( 'NONE', #577, #565, #584, .T. ) ;
#115 = CARTESIAN_POINT ( 'NONE',  ( 0.04035846629414551606, 1.205361022782826802E-17, -0.09842519685039370636 ) ) ;
#116 = AXIS2_PLACEMENT_3D ( 'NONE', #127, #350, #457 ) ;
#117 = PLANE ( 'NONE',  #231 ) ;
#118 = LINE ( 'NONE', #513, #92 ) ;
#119 = ADVANCED_FACE ( 'NONE', ( #355, #564 ), #113, .F. ) ;
#120 = LINE ( 'NONE', #73, #54 ) ;
#121 = CIRCLE ( 'NONE', #165, 0.1481395187163887517 ) ;
#122 = COORDINATED_UNIVERSAL_TIME_OFFSET ( 5, 30, .AHEAD. ) ;
#123 = AXIS2_PLACEMENT_3D ( 'NONE', #80, #256, #534 ) ;
#124 = CC_DESIGN_SECURITY_CLASSIFICATION ( #394, ( #704 ) ) ;
#125 = AXIS2_PLACEMENT_3D ( 'NONE', #228, #283, #293 ) ;
#126 = EDGE_LOOP ( 'NONE', ( #411, #488, #77 ) ) ;
#127 = CARTESIAN_POINT ( 'NONE',  ( 0.06928457977087637554, 0.000000000000000000, 0.005854820722516976966 ) ) ;
#128 = ORIENTED_EDGE ( 'NONE', *, *, #561, .T. ) ;
#129 = EDGE_CURVE ( 'NONE', #565, #33, #111, .T. ) ;
#130 = DIRECTION ( 'NONE',  ( -0.9935222033130314268, 0.000000000000000000, 0.1136381605096604408 ) ) ;
#131 = ADVANCED_FACE ( 'NONE', ( #610 ), #117, .F. ) ;
#132 = ORIENTED_EDGE ( 'NONE', *, *, #631, .F. ) ;
#133 = CARTESIAN_POINT ( 'NONE',  ( 0.08267716535433070058, 0.000000000000000000, 0.000000000000000000 ) ) ;
#134 = CARTESIAN_POINT ( 'NONE',  ( 0.1251121671308748073, 0.04250924135581582441, 6.584087404098031282E-18 ) ) ;
#135 = VECTOR ( 'NONE', #1, 39.37007874015748854 ) ;
#136 = APPROVAL_PERSON_ORGANIZATION ( #213, #178, #437 ) ;
#137 = EDGE_LOOP ( 'NONE', ( #72, #151, #591, #36 ) ) ;
#138 = DIRECTION ( 'NONE',  ( 0.000000000000000000, 1.000000000000000000, 0.000000000000000000 ) ) ;
#139 = DIRECTION ( 'NONE',  ( 0.000000000000000000, 0.000000000000000000, -1.000000000000000000 ) ) ;
#140 = CARTESIAN_POINT ( 'NONE',  ( 0.06023622047244094058, -0.006889763779527558960, -0.006889763779527558960 ) ) ;
#141 = ORIENTED_EDGE ( 'NONE', *, *, #497, .T. ) ;
#142 = ORIENTED_EDGE ( 'NONE', *, *, #40, .F. ) ;
#143 = CARTESIAN_POINT ( 'NONE',  ( 0.08267716535433070058, 0.000000000000000000, 0.04921259842519685318 ) ) ;
#144 = CIRCLE ( 'NONE', #576, 0.1574241509847328357 ) ;
#145 = CARTESIAN_POINT ( 'NONE',  ( 0.08267716535433070058, 0.000000000000000000, 0.000000000000000000 ) ) ;
#146 = ORIENTED_EDGE ( 'NONE', *, *, #403, .T. ) ;
#147 = ORIENTED_EDGE ( 'NONE', *, *, #272, .F. ) ;
#148 = DIRECTION ( 'NONE',  ( -1.000000000000000000, 0.000000000000000000, 0.000000000000000000 ) ) ;
#149 = CC_DESIGN_PERSON_AND_ORGANIZATION_ASSIGNMENT ( #454, #410, ( #394 ) ) ;
#150 = FACE_OUTER_BOUND ( 'NONE', #137, .T. ) ;
#151 = ORIENTED_EDGE ( 'NONE', *, *, #40, .T. ) ;
#152 = AXIS2_PLACEMENT_3D ( 'NONE', #273, #707, #597 ) ;
#153 = EDGE_CURVE ( 'NONE', #212, #349, #261, .T. ) ;
#154 = DIRECTION ( 'NONE',  ( 0.000000000000000000, 1.000000000000000000, 1.224646799147353947E-16 ) ) ;
#155 = ORIENTED_EDGE ( 'NONE', *, *, #168, .T. ) ;
#156 = ORIENTED_EDGE ( 'NONE', *, *, #530, .F. ) ;
#157 = AXIS2_PLACEMENT_3D ( 'NONE', #133, #227, #448 ) ;
#158 = PRODUCT_RELATED_PRODUCT_CATEGORY ( 'detail', '', ( #694 ) ) ;
#159 = ORIENTED_EDGE ( 'NONE', *, *, #168, .F. ) ;
#160 = CARTESIAN_POINT ( 'NONE',  ( 0.06993717359243366294, 0.005780177638351946014, -0.005780177638351929534 ) ) ;
#161 = ORIENTED_EDGE ( 'NONE', *, *, #48, .F. ) ;
#162 =( CONVERSION_BASED_UNIT ( 'INCH', #711 ) LENGTH_UNIT ( ) NAMED_UNIT ( #659 ) );
#163 = DIRECTION ( 'NONE',  ( 0.9935222033130314268, -0.1136381605096604824, 0.000000000000000000 ) ) ;
#164 = CIRCLE ( 'NONE', #105, 0.09842519685039370636 ) ;
#165 = AXIS2_PLACEMENT_3D ( 'NONE', #684, #191, #476 ) ;
#166 = VECTOR ( 'NONE', #240, 39.37007874015748854 ) ;
#167 =( LENGTH_UNIT ( ) NAMED_UNIT ( * ) SI_UNIT ( $, .METRE. ) );
#168 = EDGE_CURVE ( 'NONE', #371, #475, #121, .T. ) ;
#169 = DIRECTION ( 'NONE',  ( 0.000000000000000000, -1.000000000000000000, -2.323290369611795004E-16 ) ) ;
#170 = CIRCLE ( 'NONE', #265, 0.04921259842519685318 ) ;
#171 = DATE_TIME_ROLE ( 'creation_date' ) ;
#172 = DIRECTION ( 'NONE',  ( -0.9935222033130314268, 0.1136381605096604269, 0.000000000000000000 ) ) ;
#173 = CARTESIAN_POINT ( 'NONE',  ( 0.1251121671308748073, 0.04250924135581582441, 6.584087404098031282E-18 ) ) ;
#174 = ADVANCED_FACE ( 'NONE', ( #78 ), #365, .T. ) ;
#175 = DATE_TIME_ROLE ( 'classification_date' ) ;
#176 = CARTESIAN_POINT ( 'NONE',  ( 0.000000000000000000, 0.01377952755905529486, -0.05275590551181102983 ) ) ;
#177 = FACE_OUTER_BOUND ( 'NONE', #357, .T. ) ;
#178 = APPROVAL ( #716, 'UNSPECIFIED' ) ;
#179 = DIRECTION ( 'NONE',  ( 0.7923367461350611096, 0.09062675200891000260, 0.6033152348021879607 ) ) ;
#180 = CARTESIAN_POINT ( 'NONE',  ( 0.06023622047244094058, -0.006889763779527558960, -0.006889763779527558960 ) ) ;
#181 = PLANE ( 'NONE',  #116 ) ;
#182 = CIRCLE ( 'NONE', #221, 0.1574241509847327802 ) ;
#183 = ADVANCED_FACE ( 'NONE', ( #34 ), #638, .T. ) ;
#184 = EDGE_LOOP ( 'NONE', ( #142, #327, #436, #439 ) ) ;
#185 = CARTESIAN_POINT ( 'NONE',  ( 0.03086210018605220831, 0.000000000000000000, 0.000000000000000000 ) ) ;
#186 = ORIENTED_EDGE ( 'NONE', *, *, #225, .F. ) ;
#187 = DIRECTION ( 'NONE',  ( 0.000000000000000000, 1.000000000000000000, 0.000000000000000000 ) ) ;
#188 = DIRECTION ( 'NONE',  ( -1.000000000000000000, 0.000000000000000000, 0.000000000000000000 ) ) ;
#189 = DIRECTION ( 'NONE',  ( 0.7923367461350614427, 0.6033152348021872946, 0.09062675200891223692 ) ) ;
#190 = ORIENTED_EDGE ( 'NONE', *, *, #521, .F. ) ;
#191 = DIRECTION ( 'NONE',  ( 0.6058081784656141888, 0.7956107408175022710, 0.000000000000000000 ) ) ;
#192 = APPLICATION_CONTEXT ( 'configuration controlled 3d designs of mechanical parts and assemblies' ) ;
#193 = EDGE_CURVE ( 'NONE', #507, #371, #652, .T. ) ;
#194 = CARTESIAN_POINT ( 'NONE',  ( 0.1574803149606299191, -1.157146581871515875E-17, 0.000000000000000000 ) ) ;
#195 = FACE_OUTER_BOUND ( 'NONE', #458, .T. ) ;
#196 = CIRCLE ( 'NONE', #6, 0.1574803149606299191 ) ;
#197 = ORIENTED_EDGE ( 'NONE', *, *, #59, .T. ) ;
#198 = AXIS2_PLACEMENT_3D ( 'NONE', #450, #329, #163 ) ;
#199 = AXIS2_PLACEMENT_3D ( 'NONE', #9, #70, #562 ) ;
#200 = CARTESIAN_POINT ( 'NONE',  ( 0.06023622047244094058, -0.006889763779527558960, -0.006889763779527558960 ) ) ;
#201 = DIRECTION ( 'NONE',  ( 0.000000000000000000, 0.000000000000000000, 1.000000000000000000 ) ) ;
#202 = ORIENTED_EDGE ( 'NONE', *, *, #631, .T. ) ;
#203 = EDGE_LOOP ( 'NONE', ( #632, #636 ) ) ;
#204 = DIRECTION ( 'NONE',  ( 1.000000000000000000, 0.000000000000000000, 0.000000000000000000 ) ) ;
#205 = CARTESIAN_POINT ( 'NONE',  ( 0.1251121671308748073, -0.04250924135581582441, 0.000000000000000000 ) ) ;
#206 = ORIENTED_EDGE ( 'NONE', *, *, #381, .T. ) ;
#207 = ORIENTED_EDGE ( 'NONE', *, *, #398, .F. ) ;
#208 = DIRECTION ( 'NONE',  ( -0.1136381605096604408, -0.9935222033130315378, -3.468864232593767314E-15 ) ) ;
#209 = EDGE_LOOP ( 'NONE', ( #485, #146, #309, #308, #560, #650, #197, #617, #580, #319, #215 ) ) ;
#210 = CC_DESIGN_APPROVAL ( #548, ( #704 ) ) ;
#211 = AXIS2_PLACEMENT_3D ( 'NONE', #61, #453, #667 ) ;
#212 = VERTEX_POINT ( 'NONE', #528 ) ;
#213 = PERSON_AND_ORGANIZATION ( #697, #460 ) ;
#214 = EDGE_LOOP ( 'NONE', ( #324, #44, #435, #82 ) ) ;
#215 = ORIENTED_EDGE ( 'NONE', *, *, #193, .F. ) ;
#216 = APPLICATION_PROTOCOL_DEFINITION ( 'international standard', 'config_control_design', 1994, #496 ) ;
#217 = DIRECTION ( 'NONE',  ( 0.000000000000000000, 0.000000000000000000, 1.000000000000000000 ) ) ;
#218 = UNCERTAINTY_MEASURE_WITH_UNIT (LENGTH_MEASURE( 1.000000000000000082E-05 ), #162, 'distance_accuracy_value', 'NONE');
#219 = DIRECTION ( 'NONE',  ( 0.6058081784656141888, -0.7956107408175022710, -1.232289848067340264E-16 ) ) ;
#220 = CIRCLE ( 'NONE', #614, 0.09363694403064487526 ) ;
#221 = AXIS2_PLACEMENT_3D ( 'NONE', #267, #625, #307 ) ;
#222 = CALENDAR_DATE ( 2026, 22, 8 ) ;
#223 = CYLINDRICAL_SURFACE ( 'NONE', #546, 0.04921259842519685318 ) ;
#224 = EDGE_CURVE ( 'NONE', #22, #475, #506, .T. ) ;
#225 = EDGE_CURVE ( 'NONE', #243, #688, #28, .T. ) ;
#226 = CARTESIAN_POINT ( 'NONE',  ( 0.1570024089121033473, -0.004178264309976299079, -1.458833186703647850E-17 ) ) ;
#227 = DIRECTION ( 'NONE',  ( -1.000000000000000000, 0.000000000000000000, 0.000000000000000000 ) ) ;
#228 = CARTESIAN_POINT ( 'NONE',  ( 0.06928457977087637554, 0.000000000000000000, 0.005854820722516976966 ) ) ;
#229 = LOCAL_TIME ( 22, 9, 57.00000000000000000, #10 ) ;
#230 = ADVANCED_FACE ( 'NONE', ( #628 ), #572, .T. ) ;
#231 = AXIS2_PLACEMENT_3D ( 'NONE', #555, #423, #304 ) ;
#232 = SECURITY_CLASSIFICATION_LEVEL ( 'unclassified' ) ;
#233 = DIRECTION ( 'NONE',  ( -1.000000000000000000, 0.000000000000000000, 0.000000000000000000 ) ) ;
#234 = DIRECTION ( 'NONE',  ( 0.9871686829601515889, 0.1129114506653771666, -0.1129114506653765559 ) ) ;
#235 = APPROVAL_DATE_TIME ( #238, #548 ) ;
#236 = PLANE ( 'NONE',  #680 ) ;
#237 = EDGE_CURVE ( 'NONE', #647, #688, #144, .T. ) ;
#238 = DATE_AND_TIME ( #63, #643 ) ;
#239 = EDGE_LOOP ( 'NONE', ( #47, #651, #93 ) ) ;
#240 = DIRECTION ( 'NONE',  ( 0.7923367461350614427, -0.6033152348021872946, -0.09062675200891223692 ) ) ;
#241 = PERSON_AND_ORGANIZATION_ROLE ( 'creator' ) ;
#242 = APPROVAL_PERSON_ORGANIZATION ( #537, #548, #16 ) ;
#243 = VERTEX_POINT ( 'NONE', #200 ) ;
#244 = CARTESIAN_POINT ( 'NONE',  ( 0.1570024089121033473, -1.102561423331070815E-17, -0.004178264309976283467 ) ) ;
#245 = CARTESIAN_POINT ( 'NONE',  ( 0.000000000000000000, -0.05275590551181102983, 0.01377952755905511792 ) ) ;
#246 = CIRCLE ( 'NONE', #328, 0.01181102362204724046 ) ;
#247 = DIRECTION ( 'NONE',  ( -0.7956107408175021600, 0.6058081784656141888, 0.000000000000000000 ) ) ;
#248 = VERTEX_POINT ( 'NONE', #143 ) ;
#249 = EDGE_CURVE ( 'NONE', #402, #593, #170, .T. ) ;
#250 = DIRECTION ( 'NONE',  ( 1.000000000000000000, 0.000000000000000000, 0.000000000000000000 ) ) ;
#251 = DIRECTION ( 'NONE',  ( 1.000000000000000000, -0.000000000000000000, 0.000000000000000000 ) ) ;
#252 = DIRECTION ( 'NONE',  ( 0.7956107408175021600, 0.000000000000000000, -0.6058081784656142998 ) ) ;
#253 = VERTEX_POINT ( 'NONE', #373 ) ;
#254 = DIRECTION ( 'NONE',  ( -0.1136381605096604547, 0.9935222033130315378, 3.598658718911462097E-15 ) ) ;
#255 = EDGE_CURVE ( 'NONE', #575, #22, #94, .T. ) ;
#256 = DIRECTION ( 'NONE',  ( -1.000000000000000000, 0.000000000000000000, 0.000000000000000000 ) ) ;
#257 = CIRCLE ( 'NONE', #615, 0.09842519685039370636 ) ;
#258 = AXIS2_PLACEMENT_3D ( 'NONE', #298, #567, #582 ) ;
#259 = ORIENTED_EDGE ( 'NONE', *, *, #114, .T. ) ;
#260 = ORIENTED_EDGE ( 'NONE', *, *, #193, .T. ) ;
#261 = LINE ( 'NONE', #690, #31 ) ;
#262 = DIRECTION ( 'NONE',  ( -1.000000000000000000, 0.000000000000000000, 0.000000000000000000 ) ) ;
#263 = ORIENTED_EDGE ( 'NONE', *, *, #446, .T. ) ;
#264 = LINE ( 'NONE', #481, #11 ) ;
#265 = AXIS2_PLACEMENT_3D ( 'NONE', #316, #148, #578 ) ;
#266 = EDGE_CURVE ( 'NONE', #593, #248, #264, .T. ) ;
#267 = CARTESIAN_POINT ( 'NONE',  ( 0.1570024089121033473, -1.157146581871515875E-17, 0.004178264309976291273 ) ) ;
#268 = ORIENTED_EDGE ( 'NONE', *, *, #678, .F. ) ;
#269 = ORIENTED_EDGE ( 'NONE', *, *, #588, .T. ) ;
#270 = EDGE_LOOP ( 'NONE', ( #190, #695, #683, #260, #155, #474, #586, #693, #646, #377, #27 ) ) ;
#271 = DIRECTION ( 'NONE',  ( -0.1136381605096604547, -0.9935222033130315378, -3.468864232593766920E-15 ) ) ;
#272 = EDGE_CURVE ( 'NONE', #379, #42, #280, .T. ) ;
#273 = CARTESIAN_POINT ( 'NONE',  ( 0.000000000000000000, 0.000000000000000000, 0.000000000000000000 ) ) ;
#274 = CARTESIAN_POINT ( 'NONE',  ( 0.06023622047244094058, 0.006889763779527558960, -0.006889763779527558960 ) ) ;
#275 = EDGE_CURVE ( 'NONE', #88, #253, #341, .T. ) ;
#276 = PERSON_AND_ORGANIZATION ( #697, #460 ) ;
#277 = CARTESIAN_POINT ( 'NONE',  ( -1.000000000000000000, 0.000000000000000000, 0.000000000000000000 ) ) ;
#278 = CIRCLE ( 'NONE', #673, 0.09842519685039370636 ) ;
#279 = DIRECTION ( 'NONE',  ( 0.000000000000000000, 1.000000000000000000, 0.000000000000000000 ) ) ;
#280 = CIRCLE ( 'NONE', #157, 0.09842519685039370636 ) ;
#281 = CARTESIAN_POINT ( 'NONE',  ( 0.1574803149606299191, -1.157146581871515875E-17, 0.000000000000000000 ) ) ;
#282 = CC_DESIGN_DATE_AND_TIME_ASSIGNMENT ( #322, #171, ( #478 ) ) ;
#283 = DIRECTION ( 'NONE',  ( -0.1136381605096602604, 1.297944863177000830E-16, -0.9935222033130315378 ) ) ;
#284 = DIRECTION ( 'NONE',  ( -1.000000000000000000, 0.000000000000000000, 0.000000000000000000 ) ) ;
#285 = FACE_OUTER_BOUND ( 'NONE', #101, .T. ) ;
#286 = LOCAL_TIME ( 22, 9, 57.00000000000000000, #543 ) ;
#287 = PERSON_AND_ORGANIZATION_ROLE ( 'design_supplier' ) ;
#288 = FACE_OUTER_BOUND ( 'NONE', #703, .T. ) ;
#289 = CLOSED_SHELL ( 'NONE', ( #2, #604, #431, #356, #174, #709, #602, #97, #131, #183, #653, #675, #119, #296, #53, #108, #230, #43, #388, #408, #569, #332, #13 ) ) ;
#290 = EDGE_LOOP ( 'NONE', ( #430, #104, #467, #462, #30 ) ) ;
#291 = LINE ( 'NONE', #463, #46 ) ;
#292 = ORIENTED_EDGE ( 'NONE', *, *, #587, .T. ) ;
#293 = DIRECTION ( 'NONE',  ( -0.9935222033130314268, 0.000000000000000000, 0.1136381605096602465 ) ) ;
#294 = CARTESIAN_POINT ( 'NONE',  ( 0.06023622047244094058, -0.006889763779527558960, 0.006889763779527558960 ) ) ;
#295 = APPROVAL_STATUS ( 'not_yet_approved' ) ;
#296 = ADVANCED_FACE ( 'NONE', ( #52 ), #223, .T. ) ;
#297 = EDGE_LOOP ( 'NONE', ( #202, #480, #541 ) ) ;
#298 = CARTESIAN_POINT ( 'NONE',  ( 0.06928457977087637554, -0.005854820722516976966, -2.044199729494011898E-17 ) ) ;
#299 = LINE ( 'NONE', #176, #405 ) ;
#300 = LINE ( 'NONE', #140, #605 ) ;
#301 = EDGE_LOOP ( 'NONE', ( #637, #674, #315 ) ) ;
#302 = AXIS2_PLACEMENT_3D ( 'NONE', #401, #340, #508 ) ;
#303 = AXIS2_PLACEMENT_3D ( 'NONE', #173, #219, #603 ) ;
#304 = DIRECTION ( 'NONE',  ( 0.000000000000000000, 0.000000000000000000, -1.000000000000000000 ) ) ;
#305 = CC_DESIGN_PERSON_AND_ORGANIZATION_ASSIGNMENT ( #276, #492, ( #694 ) ) ;
#306 = CARTESIAN_POINT ( 'NONE',  ( 0.06023622047244094058, -0.006889763779527558960, 0.006889763779527558960 ) ) ;
#307 = DIRECTION ( 'NONE',  ( 0.9935222033130314268, 0.000000000000000000, 0.1136381605096604547 ) ) ;
#308 = ORIENTED_EDGE ( 'NONE', *, *, #275, .T. ) ;
#309 = ORIENTED_EDGE ( 'NONE', *, *, #521, .T. ) ;
#310 = CARTESIAN_POINT ( 'NONE',  ( 0.06993717359243366294, 0.005780177638351906115, 0.005780177638351929534 ) ) ;
#311 = CARTESIAN_POINT ( 'NONE',  ( 0.001186545375970110301, -0.01364381158467950841, 0.01364381158467944943 ) ) ;
#312 = VECTOR ( 'NONE', #188, 39.37007874015748143 ) ;
#313 = ORIENTED_EDGE ( 'NONE', *, *, #587, .F. ) ;
#314 = AXIS2_PLACEMENT_3D ( 'NONE', #226, #271, #655 ) ;
#315 = ORIENTED_EDGE ( 'NONE', *, *, #67, .F. ) ;
#316 = CARTESIAN_POINT ( 'NONE',  ( 0.7125984251968504601, 0.000000000000000000, 0.000000000000000000 ) ) ;
#317 = EDGE_CURVE ( 'NONE', #575, #527, #599, .T. ) ;
#318 = CARTESIAN_POINT ( 'NONE',  ( 0.04035846629414551606, 0.000000000000000000, 0.000000000000000000 ) ) ;
#319 = ORIENTED_EDGE ( 'NONE', *, *, #598, .T. ) ;
#320 = ORIENTED_EDGE ( 'NONE', *, *, #317, .F. ) ;
#321 = CIRCLE ( 'NONE', #440, 0.09363694403064487526 ) ;
#322 = DATE_AND_TIME ( #660, #64 ) ;
#323 = ORIENTED_EDGE ( 'NONE', *, *, #698, .F. ) ;
#324 = ORIENTED_EDGE ( 'NONE', *, *, #76, .F. ) ;
#325 = MECHANICAL_CONTEXT ( 'NONE', #192, 'mechanical' ) ;
#326 = EDGE_CURVE ( 'NONE', #99, #368, #321, .T. ) ;
#327 = ORIENTED_EDGE ( 'NONE', *, *, #249, .T. ) ;
#328 = AXIS2_PLACEMENT_3D ( 'NONE', #489, #85, #139 ) ;
#329 = DIRECTION ( 'NONE',  ( -0.1136381605096604547, -0.9935222033130315378, -3.468864232593766920E-15 ) ) ;
#330 = COORDINATED_UNIVERSAL_TIME_OFFSET ( 5, 30, .AHEAD. ) ;
#331 = CARTESIAN_POINT ( 'NONE',  ( 0.08267716535433070058, 0.000000000000000000, 0.09842519685039370636 ) ) ;
#332 = ADVANCED_FACE ( 'NONE', ( #389 ), #661, .T. ) ;
#333 = DIRECTION ( 'NONE',  ( 0.000000000000000000, 0.000000000000000000, 1.000000000000000000 ) ) ;
#334 = CARTESIAN_POINT ( 'NONE',  ( 0.007698422835822540423, 0.01289898899940238215, -0.04689403452897873692 ) ) ;
#335 = CIRCLE ( 'NONE', #442, 0.1481395187163887239 ) ;
#336 = AXIS2_PLACEMENT_3D ( 'NONE', #205, #424, #247 ) ;
#337 = EDGE_CURVE ( 'NONE', #593, #402, #71, .T. ) ;
#338 = EDGE_CURVE ( 'NONE', #426, #380, #434, .T. ) ;
#339 = DIRECTION ( 'NONE',  ( -0.1136381605096604408, -0.9935222033130315378, -3.468864232593767314E-15 ) ) ;
#340 = DIRECTION ( 'NONE',  ( -1.000000000000000000, 0.000000000000000000, 0.000000000000000000 ) ) ;
#341 = CIRCLE ( 'NONE', #303, 0.1481395187163887239 ) ;
#342 = DIRECTION ( 'NONE',  ( 0.000000000000000000, 1.000000000000000000, 0.000000000000000000 ) ) ;
#343 = DIRECTION ( 'NONE',  ( -1.000000000000000000, 0.000000000000000000, 0.000000000000000000 ) ) ;
#344 = ADVANCED_BREP_SHAPE_REPRESENTATION ( 'M2.5 x 16.STEP_Default_sldprt', ( #51, #152 ), #644 ) ;
#345 = APPROVAL_STATUS ( 'not_yet_approved' ) ;
#346 = CARTESIAN_POINT ( 'NONE',  ( 0.001186545375970110301, 0.01364381158467950841, -0.01364381158467944943 ) ) ;
#347 = DIRECTION ( 'NONE',  ( 0.000000000000000000, 0.000000000000000000, 1.000000000000000000 ) ) ;
#348 = CIRCLE ( 'NONE', #432, 0.09363694403064487526 ) ;
#349 = VERTEX_POINT ( 'NONE', #274 ) ;
#350 = DIRECTION ( 'NONE',  ( -0.1136381605096602604, 1.297944863177000830E-16, -0.9935222033130315378 ) ) ;
#351 = EDGE_CURVE ( 'NONE', #622, #22, #665, .T. ) ;
#352 = COORDINATED_UNIVERSAL_TIME_OFFSET ( 5, 30, .AHEAD. ) ;
#353 = VERTEX_POINT ( 'NONE', #606 ) ;
#354 = VECTOR ( 'NONE', #169, 39.37007874015748143 ) ;
#355 = FACE_BOUND ( 'NONE', #91, .T. ) ;
#356 = ADVANCED_FACE ( 'NONE', ( #112 ), #387, .T. ) ;
#357 = EDGE_LOOP ( 'NONE', ( #269, #563, #520, #161, #87 ) ) ;
#358 = DIRECTION ( 'NONE',  ( 0.000000000000000000, 1.000000000000000000, 0.000000000000000000 ) ) ;
#359 = AXIS2_PLACEMENT_3D ( 'NONE', #525, #262, #416 ) ;
#360 = DIRECTION ( 'NONE',  ( 0.000000000000000000, 0.000000000000000000, 1.000000000000000000 ) ) ;
#361 = VECTOR ( 'NONE', #550, 39.37007874015748143 ) ;
#362 = DIRECTION ( 'NONE',  ( 0.7923367461350611096, -0.09062675200891021077, -0.6033152348021879607 ) ) ;
#363 = CC_DESIGN_PERSON_AND_ORGANIZATION_ASSIGNMENT ( #654, #385, ( #478 ) ) ;
#364 = ORIENTED_EDGE ( 'NONE', *, *, #338, .T. ) ;
#365 = PLANE ( 'NONE',  #258 ) ;
#366 = DIRECTION ( 'NONE',  ( 0.7956107408175021600, 0.6058081784656142998, 0.000000000000000000 ) ) ;
#367 = PLANE ( 'NONE',  #123 ) ;
#368 = VERTEX_POINT ( 'NONE', #391 ) ;
#369 = DIRECTION ( 'NONE',  ( -0.9935222033130314268, 0.000000000000000000, 0.1136381605096604408 ) ) ;
#370 = CARTESIAN_POINT ( 'NONE',  ( 0.03086210018605220831, 1.176041430336759792E-17, -0.09363694403064487526 ) ) ;
#371 = VERTEX_POINT ( 'NONE', #109 ) ;
#372 = ORIENTED_EDGE ( 'NONE', *, *, #59, .F. ) ;
#373 = CARTESIAN_POINT ( 'NONE',  ( 0.007698422835822540423, -0.04689403452897882713, -0.01289898899940220521 ) ) ;
#374 = CARTESIAN_POINT ( 'NONE',  ( 0.007698422835822540423, -0.04689403452897882713, 0.01289898899940220521 ) ) ;
#375 = VECTOR ( 'NONE', #362, 39.37007874015748854 ) ;
#376 = ORIENTED_EDGE ( 'NONE', *, *, #76, .T. ) ;
#377 = ORIENTED_EDGE ( 'NONE', *, *, #114, .F. ) ;
#378 = CARTESIAN_POINT ( 'NONE',  ( 0.06928457977087637554, 0.005854820722516976966, 2.044199729494011898E-17 ) ) ;
#379 = VERTEX_POINT ( 'NONE', #331 ) ;
#380 = VERTEX_POINT ( 'NONE', #334 ) ;
#381 = EDGE_CURVE ( 'NONE', #243, #349, #551, .T. ) ;
#382 =( NAMED_UNIT ( * ) PLANE_ANGLE_UNIT ( ) SI_UNIT ( $, .RADIAN. ) );
#383 = ORIENTED_EDGE ( 'NONE', *, *, #381, .F. ) ;
#384 = FACE_OUTER_BOUND ( 'NONE', #270, .T. ) ;
#385 = PERSON_AND_ORGANIZATION_ROLE ( 'creator' ) ;
#386 = AXIS2_PLACEMENT_3D ( 'NONE', #378, #208, #86 ) ;
#387 = PLANE ( 'NONE',  #444 ) ;
#388 = ADVANCED_FACE ( 'NONE', ( #384 ), #56, .T. ) ;
#389 = FACE_OUTER_BOUND ( 'NONE', #479, .T. ) ;
#390 = TOROIDAL_SURFACE ( 'NONE', #302, 0.08661417322834646937, 0.01181102362204724393 ) ;
#391 = CARTESIAN_POINT ( 'NONE',  ( 0.03086210018605220831, 0.000000000000000000, 0.09363694403064487526 ) ) ;
#392 = EDGE_CURVE ( 'NONE', #688, #253, #62, .T. ) ;
#393 = DIRECTION ( 'NONE',  ( -1.000000000000000000, 0.000000000000000000, 0.000000000000000000 ) ) ;
#394 = SECURITY_CLASSIFICATION ( '', '', #232 ) ;
#395 = CALENDAR_DATE ( 2026, 22, 8 ) ;
#396 = CARTESIAN_POINT ( 'NONE',  ( 0.08267716535433070058, 0.000000000000000000, 0.000000000000000000 ) ) ;
#397 = PLANE ( 'NONE',  #691 ) ;
#398 = EDGE_CURVE ( 'NONE', #426, #349, #718, .T. ) ;
#399 = DIRECTION ( 'NONE',  ( 0.000000000000000000, 0.000000000000000000, -1.000000000000000000 ) ) ;
#400 = AXIS2_PLACEMENT_3D ( 'NONE', #714, #547, #494 ) ;
#401 = CARTESIAN_POINT ( 'NONE',  ( 0.04035846629414551606, 0.000000000000000000, 0.000000000000000000 ) ) ;
#402 = VERTEX_POINT ( 'NONE', #594 ) ;
#403 = EDGE_CURVE ( 'NONE', #590, #99, #220, .T. ) ;
#404 = DIRECTION ( 'NONE',  ( -0.1136381605096604408, 0.000000000000000000, 0.9935222033130315378 ) ) ;
#405 = VECTOR ( 'NONE', #79, 39.37007874015748143 ) ;
#406 = PERSON_AND_ORGANIZATION ( #697, #460 ) ;
#407 = EDGE_LOOP ( 'NONE', ( #526, #532, #677, #159, #417 ) ) ;
#408 = ADVANCED_FACE ( 'NONE', ( #102 ), #712, .T. ) ;
#409 = PLANE ( 'NONE',  #125 ) ;
#410 = PERSON_AND_ORGANIZATION_ROLE ( 'classification_officer' ) ;
#411 = ORIENTED_EDGE ( 'NONE', *, *, #351, .T. ) ;
#412 = VECTOR ( 'NONE', #633, 39.37007874015748143 ) ;
#413 = FACE_OUTER_BOUND ( 'NONE', #700, .T. ) ;
#414 = LINE ( 'NONE', #420, #689 ) ;
#415 = EDGE_CURVE ( 'NONE', #536, #368, #246, .T. ) ;
#416 = DIRECTION ( 'NONE',  ( 0.000000000000000000, 0.000000000000000000, 1.000000000000000000 ) ) ;
#417 = ORIENTED_EDGE ( 'NONE', *, *, #598, .F. ) ;
#418 = CARTESIAN_POINT ( 'NONE',  ( 0.1570024089121033473, -1.102561423331070815E-17, -0.004178264309976283467 ) ) ;
#419 = AXIS2_PLACEMENT_3D ( 'NONE', #466, #682, #252 ) ;
#420 = CARTESIAN_POINT ( 'NONE',  ( 0.06023622047244094058, 0.006889763779527558960, 0.006889763779527558960 ) ) ;
#421 = DIRECTION ( 'NONE',  ( 0.000000000000000000, -1.548860246407864815E-16, 1.000000000000000000 ) ) ;
#422 = EDGE_LOOP ( 'NONE', ( #147, #268 ) ) ;
#423 = DIRECTION ( 'NONE',  ( 0.6058081784656141888, 0.7956107408175022710, 0.000000000000000000 ) ) ;
#424 = DIRECTION ( 'NONE',  ( 0.6058081784656141888, 0.7956107408175022710, 0.000000000000000000 ) ) ;
#425 = VERTEX_POINT ( 'NONE', #115 ) ;
#426 = VERTEX_POINT ( 'NONE', #346 ) ;
#427 = DIRECTION ( 'NONE',  ( -0.1136381605096604547, 1.297944863177000337E-16, -0.9935222033130315378 ) ) ;
#428 = DIRECTION ( 'NONE',  ( 0.000000000000000000, -1.224646799147354933E-16, 1.000000000000000000 ) ) ;
#429 = FACE_OUTER_BOUND ( 'NONE', #301, .T. ) ;
#430 = ORIENTED_EDGE ( 'NONE', *, *, #671, .F. ) ;
#431 = ADVANCED_FACE ( 'NONE', ( #469 ), #553, .F. ) ;
#432 = AXIS2_PLACEMENT_3D ( 'NONE', #65, #233, #360 ) ;
#433 = CARTESIAN_POINT ( 'NONE',  ( 0.04035846629414551606, 1.060717700048887703E-17, -0.08661417322834646937 ) ) ;
#434 = CIRCLE ( 'NONE', #198, 0.1574241509847327802 ) ;
#435 = ORIENTED_EDGE ( 'NONE', *, *, #545, .T. ) ;
#436 = ORIENTED_EDGE ( 'NONE', *, *, #266, .T. ) ;
#437 = APPROVAL_ROLE ( '' ) ;
#438 = ORIENTED_EDGE ( 'NONE', *, *, #686, .T. ) ;
#439 = ORIENTED_EDGE ( 'NONE', *, *, #561, .F. ) ;
#440 = AXIS2_PLACEMENT_3D ( 'NONE', #490, #107, #333 ) ;
#441 = DIRECTION ( 'NONE',  ( 0.000000000000000000, 0.000000000000000000, 1.000000000000000000 ) ) ;
#442 = AXIS2_PLACEMENT_3D ( 'NONE', #134, #517, #366 ) ;
#443 = DIRECTION ( 'NONE',  ( -1.000000000000000000, 0.000000000000000000, 0.000000000000000000 ) ) ;
#444 = AXIS2_PLACEMENT_3D ( 'NONE', #106, #339, #172 ) ;
#445 = PLANE ( 'NONE',  #451 ) ;
#446 = EDGE_CURVE ( 'NONE', #577, #527, #685, .T. ) ;
#447 = CARTESIAN_POINT ( 'NONE',  ( 0.06023622047244094058, 0.006889763779527558960, 0.006889763779527558960 ) ) ;
#448 = DIRECTION ( 'NONE',  ( 0.000000000000000000, 0.000000000000000000, 1.000000000000000000 ) ) ;
#449 = AXIS2_PLACEMENT_3D ( 'NONE', #495, #3, #55 ) ;
#450 = CARTESIAN_POINT ( 'NONE',  ( 0.1570024089121033473, -0.004178264309976299079, -1.458833186703647850E-17 ) ) ;
#451 = AXIS2_PLACEMENT_3D ( 'NONE', #657, #600, #487 ) ;
#452 = EDGE_CURVE ( 'NONE', #575, #349, #414, .T. ) ;
#453 = DIRECTION ( 'NONE',  ( -0.1136381605096604547, 0.9935222033130315378, 3.598658718911462097E-15 ) ) ;
#454 = PERSON_AND_ORGANIZATION ( #697, #460 ) ;
#455 = DIRECTION ( 'NONE',  ( -4.585378925690980395E-15, -1.000000000000000000, 0.000000000000000000 ) ) ;
#456 = DIRECTION ( 'NONE',  ( -1.000000000000000000, 0.000000000000000000, 0.000000000000000000 ) ) ;
#457 = DIRECTION ( 'NONE',  ( -0.9935222033130314268, 0.000000000000000000, 0.1136381605096602465 ) ) ;
#458 = EDGE_LOOP ( 'NONE', ( #535, #206, #581, #372 ) ) ;
#459 = CARTESIAN_POINT ( 'NONE',  ( 0.001186545375970110301, 0.01364381158467941127, 0.01364381158467944943 ) ) ;
#460 = ORGANIZATION ( 'UNSPECIFIED', 'UNSPECIFIED', '' ) ;
#461 = PERSON_AND_ORGANIZATION ( #697, #460 ) ;
#462 = ORIENTED_EDGE ( 'NONE', *, *, #326, .F. ) ;
#463 = CARTESIAN_POINT ( 'NONE',  ( -1.000000000000000000, 1.205361022782826802E-17, -0.09842519685039370636 ) ) ;
#464 = EDGE_CURVE ( 'NONE', #577, #88, #335, .T. ) ;
#465 = LINE ( 'NONE', #681, #312 ) ;
#466 = CARTESIAN_POINT ( 'NONE',  ( 0.1251121671308748073, 1.368487571034944951E-16, -0.04250924135581582441 ) ) ;
#467 = ORIENTED_EDGE ( 'NONE', *, *, #415, .T. ) ;
#468 = DIRECTION ( 'NONE',  ( 0.000000000000000000, 0.000000000000000000, 1.000000000000000000 ) ) ;
#469 = FACE_OUTER_BOUND ( 'NONE', #471, .T. ) ;
#470 = FACE_OUTER_BOUND ( 'NONE', #290, .T. ) ;
#471 = EDGE_LOOP ( 'NONE', ( #438, #571, #156, #323 ) ) ;
#472 = DIRECTION ( 'NONE',  ( -0.9935222033130314268, -0.1136381605096604408, 0.000000000000000000 ) ) ;
#473 = CARTESIAN_POINT ( 'NONE',  ( 0.000000000000000000, -0.05275590551181102983, -0.01377952755905511792 ) ) ;
#474 = ORIENTED_EDGE ( 'NONE', *, *, #224, .F. ) ;
#475 = VERTEX_POINT ( 'NONE', #25 ) ;
#476 = DIRECTION ( 'NONE',  ( -0.7956107408175021600, 0.6058081784656141888, 0.000000000000000000 ) ) ;
#477 = FACE_OUTER_BOUND ( 'NONE', #214, .T. ) ;
#478 = PRODUCT_DEFINITION ( 'UNKNOWN', '', #704, #717 ) ;
#479 = EDGE_LOOP ( 'NONE', ( #14, #376, #96, #710 ) ) ;
#480 = ORIENTED_EDGE ( 'NONE', *, *, #225, .T. ) ;
#481 = CARTESIAN_POINT ( 'NONE',  ( -1.000000000000000000, 0.000000000000000000, 0.04921259842519685318 ) ) ;
#482 = PLANE ( 'NONE',  #386 ) ;
#483 = EDGE_CURVE ( 'NONE', #425, #536, #164, .T. ) ;
#484 = ORIENTED_EDGE ( 'NONE', *, *, #67, .T. ) ;
#485 = ORIENTED_EDGE ( 'NONE', *, *, #509, .T. ) ;
#486 = CIRCLE ( 'NONE', #493, 0.01181102362204724046 ) ;
#487 = DIRECTION ( 'NONE',  ( 0.000000000000000000, -1.000000000000000000, -3.646367363483920379E-15 ) ) ;
#488 = ORIENTED_EDGE ( 'NONE', *, *, #255, .F. ) ;
#489 = CARTESIAN_POINT ( 'NONE',  ( 0.04035846629414551606, 0.000000000000000000, 0.08661417322834646937 ) ) ;
#490 = CARTESIAN_POINT ( 'NONE',  ( 0.03086210018605220831, 0.000000000000000000, 0.000000000000000000 ) ) ;
#491 = EDGE_CURVE ( 'NONE', #380, #349, #299, .T. ) ;
#492 = PERSON_AND_ORGANIZATION_ROLE ( 'design_owner' ) ;
#493 = AXIS2_PLACEMENT_3D ( 'NONE', #433, #154, #428 ) ;
#494 = DIRECTION ( 'NONE',  ( 0.000000000000000000, 0.000000000000000000, 1.000000000000000000 ) ) ;
#495 = CARTESIAN_POINT ( 'NONE',  ( 0.1570024089121033473, -1.157146581871515875E-17, 0.004178264309976291273 ) ) ;
#496 = APPLICATION_CONTEXT ( 'configuration controlled 3d designs of mechanical parts and assemblies' ) ;
#497 = EDGE_CURVE ( 'NONE', #248, #353, #501, .T. ) ;
#498 = DIRECTION ( 'NONE',  ( 1.000000000000000000, -0.000000000000000000, 0.000000000000000000 ) ) ;
#499 = FACE_OUTER_BOUND ( 'NONE', #239, .T. ) ;
#500 = DIRECTION ( 'NONE',  ( 0.000000000000000000, 0.000000000000000000, 1.000000000000000000 ) ) ;
#501 = CIRCLE ( 'NONE', #539, 0.04921259842519685318 ) ;
#502 = CARTESIAN_POINT ( 'NONE',  ( 0.06928457977087637554, 0.000000000000000000, -0.005854820722516976966 ) ) ;
#503 = EDGE_CURVE ( 'NONE', #647, #243, #624, .T. ) ;
#504 = DATE_AND_TIME ( #668, #75 ) ;
#505 = CARTESIAN_POINT ( 'NONE',  ( 0.000000000000000000, 0.05275590551181102983, 0.01377952755905511792 ) ) ;
#506 = CIRCLE ( 'NONE', #621, 0.1574241509847328357 ) ;
#507 = VERTEX_POINT ( 'NONE', #609 ) ;
#508 = DIRECTION ( 'NONE',  ( 0.000000000000000000, 0.000000000000000000, 1.000000000000000000 ) ) ;
#509 = EDGE_CURVE ( 'NONE', #507, #590, #348, .T. ) ;
#510 = ORIENTED_EDGE ( 'NONE', *, *, #641, .T. ) ;
#511 = CIRCLE ( 'NONE', #336, 0.1481395187163887517 ) ;
#512 = LINE ( 'NONE', #676, #619 ) ;
#513 = CARTESIAN_POINT ( 'NONE',  ( 0.000000000000000000, -0.01377952755905529486, 0.05275590551181102983 ) ) ;
#514 = CYLINDRICAL_SURFACE ( 'NONE', #583, 0.09842519685039370636 ) ;
#515 = ORIENTED_EDGE ( 'NONE', *, *, #446, .F. ) ;
#516 = CARTESIAN_POINT ( 'NONE',  ( 0.1574803149606299191, -1.157146581871515875E-17, 0.000000000000000000 ) ) ;
#517 = DIRECTION ( 'NONE',  ( 0.6058081784656141888, -0.7956107408175022710, -1.232289848067340264E-16 ) ) ;
#518 = CIRCLE ( 'NONE', #199, 0.1481395187163887517 ) ;
#519 = DIRECTION ( 'NONE',  ( -1.000000000000000000, 0.000000000000000000, 0.000000000000000000 ) ) ;
#520 = ORIENTED_EDGE ( 'NONE', *, *, #509, .F. ) ;
#521 = EDGE_CURVE ( 'NONE', #99, #88, #196, .T. ) ;
#522 = AXIS2_PLACEMENT_3D ( 'NONE', #516, #468, #204 ) ;
#523 = CARTESIAN_POINT ( 'NONE',  ( 0.1570024089121033473, 0.004178264309976283467, 1.513418345244098302E-17 ) ) ;
#524 = DIRECTION ( 'NONE',  ( 0.6058081784656141888, -2.777860054547467703E-15, 0.7956107408175022710 ) ) ;
#525 = CARTESIAN_POINT ( 'NONE',  ( 0.04035846629414551606, 0.000000000000000000, 0.000000000000000000 ) ) ;
#526 = ORIENTED_EDGE ( 'NONE', *, *, #153, .T. ) ;
#527 = VERTEX_POINT ( 'NONE', #294 ) ;
#528 = CARTESIAN_POINT ( 'NONE',  ( 0.007698422835822540423, 0.04689403452897882713, -0.01289898899940222429 ) ) ;
#529 = AXIS2_PLACEMENT_3D ( 'NONE', #39, #98, #95 ) ;
#530 = EDGE_CURVE ( 'NONE', #33, #527, #118, .T. ) ;
#531 = DIRECTION ( 'NONE',  ( -1.000000000000000000, 0.000000000000000000, 0.000000000000000000 ) ) ;
#532 = ORIENTED_EDGE ( 'NONE', *, *, #452, .F. ) ;
#533 = DIRECTION ( 'NONE',  ( 0.7923367461350608876, -0.6033152348021878497, 0.09062675200891229244 ) ) ;
#534 = DIRECTION ( 'NONE',  ( 0.000000000000000000, 0.000000000000000000, 1.000000000000000000 ) ) ;
#535 = ORIENTED_EDGE ( 'NONE', *, *, #503, .T. ) ;
#536 = VERTEX_POINT ( 'NONE', #20 ) ;
#537 = PERSON_AND_ORGANIZATION ( #697, #460 ) ;
#538 = ORIENTED_EDGE ( 'NONE', *, *, #491, .T. ) ;
#539 = AXIS2_PLACEMENT_3D ( 'NONE', #396, #284, #500 ) ;
#540 = AXIS2_PLACEMENT_3D ( 'NONE', #552, #58, #4 ) ;
#541 = ORIENTED_EDGE ( 'NONE', *, *, #392, .T. ) ;
#542 = CARTESIAN_POINT ( 'NONE',  ( 0.03086210018605220831, 0.000000000000000000, 0.000000000000000000 ) ) ;
#543 = COORDINATED_UNIVERSAL_TIME_OFFSET ( 5, 30, .AHEAD. ) ;
#544 = DIRECTION ( 'NONE',  ( 0.000000000000000000, 0.000000000000000000, 1.000000000000000000 ) ) ;
#545 = EDGE_CURVE ( 'NONE', #379, #536, #465, .T. ) ;
#546 = AXIS2_PLACEMENT_3D ( 'NONE', #277, #393, #441 ) ;
#547 = DIRECTION ( 'NONE',  ( -1.000000000000000000, 0.000000000000000000, 0.000000000000000000 ) ) ;
#548 = APPROVAL ( #345, 'UNSPECIFIED' ) ;
#549 = CC_DESIGN_APPROVAL ( #178, ( #478 ) ) ;
#550 = DIRECTION ( 'NONE',  ( 0.000000000000000000, 1.000000000000000000, 7.744301232039319147E-17 ) ) ;
#551 = LINE ( 'NONE', #50, #361 ) ;
#552 = CARTESIAN_POINT ( 'NONE',  ( 0.08267716535433070058, 0.04921259842519685318, 0.000000000000000000 ) ) ;
#553 = PLANE ( 'NONE',  #32 ) ;
#554 = APPROVAL ( #295, 'UNSPECIFIED' ) ;
#555 = CARTESIAN_POINT ( 'NONE',  ( 0.06023622047244094058, 0.006889763779527558960, 0.006889763779527558960 ) ) ;
#556 = APPROVAL_ROLE ( '' ) ;
#557 = DIRECTION ( 'NONE',  ( 0.7923367461350613317, 0.09062675200891444349, -0.6033152348021871836 ) ) ;
#558 = AXIS2_PLACEMENT_3D ( 'NONE', #701, #531, #630 ) ;
#559 = CARTESIAN_POINT ( 'NONE',  ( 0.03086210018605220831, -0.09363694403064487526, -1.146721837890691087E-17 ) ) ;
#560 = ORIENTED_EDGE ( 'NONE', *, *, #392, .F. ) ;
#561 = EDGE_CURVE ( 'NONE', #353, #248, #596, .T. ) ;
#562 = DIRECTION ( 'NONE',  ( -0.7956107408175021600, 0.000000000000000000, -0.6058081784656141888 ) ) ;
#563 = ORIENTED_EDGE ( 'NONE', *, *, #671, .T. ) ;
#564 = FACE_OUTER_BOUND ( 'NONE', #422, .T. ) ;
#565 = VERTEX_POINT ( 'NONE', #311 ) ;
#566 = APPROVAL_PERSON_ORGANIZATION ( #5, #554, #556 ) ;
#567 = DIRECTION ( 'NONE',  ( -0.1136381605096602604, 0.9935222033130315378, 3.598658718911462097E-15 ) ) ;
#568 = CARTESIAN_POINT ( 'NONE',  ( 0.1574803149606299191, -1.157146581871515875E-17, 0.000000000000000000 ) ) ;
#569 = ADVANCED_FACE ( 'NONE', ( #150 ), #35, .T. ) ;
#570 = DIRECTION ( 'NONE',  ( 0.000000000000000000, 0.000000000000000000, 1.000000000000000000 ) ) ;
#571 = ORIENTED_EDGE ( 'NONE', *, *, #317, .T. ) ;
#572 = PLANE ( 'NONE',  #84 ) ;
#573 = CARTESIAN_POINT ( 'NONE',  ( 0.04035846629414551606, 0.000000000000000000, 0.000000000000000000 ) ) ;
#574 = DIRECTION ( 'NONE',  ( -1.000000000000000000, 0.000000000000000000, 0.000000000000000000 ) ) ;
#575 = VERTEX_POINT ( 'NONE', #29 ) ;
#576 = AXIS2_PLACEMENT_3D ( 'NONE', #523, #254, #472 ) ;
#577 = VERTEX_POINT ( 'NONE', #374 ) ;
#578 = DIRECTION ( 'NONE',  ( 0.000000000000000000, 0.000000000000000000, 1.000000000000000000 ) ) ;
#579 = CARTESIAN_POINT ( 'NONE',  ( 0.007698422835822540423, 0.01289898899940206817, 0.04689403452897890345 ) ) ;
#580 = ORIENTED_EDGE ( 'NONE', *, *, #641, .F. ) ;
#581 = ORIENTED_EDGE ( 'NONE', *, *, #491, .F. ) ;
#582 = DIRECTION ( 'NONE',  ( 3.166769598145284884E-14, 0.000000000000000000, 1.000000000000000000 ) ) ;
#583 = AXIS2_PLACEMENT_3D ( 'NONE', #699, #519, #639 ) ;
#584 = CIRCLE ( 'NONE', #705, 0.1574241509847328357 ) ;
#585 = FACE_OUTER_BOUND ( 'NONE', #595, .T. ) ;
#586 = ORIENTED_EDGE ( 'NONE', *, *, #351, .F. ) ;
#587 = EDGE_CURVE ( 'NONE', #243, #527, #300, .T. ) ;
#588 = EDGE_CURVE ( 'NONE', #536, #425, #257, .T. ) ;
#589 = CARTESIAN_POINT ( 'NONE',  ( 0.007698422835822540423, -0.01289898899940204735, -0.04689403452897890345 ) ) ;
#590 = VERTEX_POINT ( 'NONE', #370 ) ;
#591 = ORIENTED_EDGE ( 'NONE', *, *, #497, .F. ) ;
#592 =( NAMED_UNIT ( * ) SI_UNIT ( $, .STERADIAN. ) SOLID_ANGLE_UNIT ( ) );
#593 = VERTEX_POINT ( 'NONE', #635 ) ;
#594 = CARTESIAN_POINT ( 'NONE',  ( 0.7125984251968504601, 6.026805113914134012E-18, -0.04921259842519685318 ) ) ;
#595 = EDGE_LOOP ( 'NONE', ( #383, #292, #320, #69 ) ) ;
#596 = CIRCLE ( 'NONE', #558, 0.04921259842519685318 ) ;
#597 = DIRECTION ( 'NONE',  ( 1.000000000000000000, 0.000000000000000000, 0.000000000000000000 ) ) ;
#598 = EDGE_CURVE ( 'NONE', #212, #371, #511, .T. ) ;
#599 = LINE ( 'NONE', #447, #354 ) ;
#600 = DIRECTION ( 'NONE',  ( 0.6058081784656141888, 2.901089039354204293E-15, -0.7956107408175022710 ) ) ;
#601 = DIRECTION ( 'NONE',  ( -1.000000000000000000, 0.000000000000000000, 0.000000000000000000 ) ) ;
#602 = ADVANCED_FACE ( 'NONE', ( #585 ), #367, .T. ) ;
#603 = DIRECTION ( 'NONE',  ( 0.7956107408175021600, 0.6058081784656142998, 0.000000000000000000 ) ) ;
#604 = ADVANCED_FACE ( 'NONE', ( #687 ), #482, .T. ) ;
#605 = VECTOR ( 'NONE', #421, 39.37007874015748143 ) ;
#606 = CARTESIAN_POINT ( 'NONE',  ( 0.08267716535433070058, 6.026805113914134012E-18, -0.04921259842519685318 ) ) ;
#607 = PRODUCT_DEFINITION_SHAPE ( 'NONE', 'NONE',  #478 ) ;
#608 = APPROVAL_DATE_TIME ( #74, #554 ) ;
#609 = CARTESIAN_POINT ( 'NONE',  ( 0.03086210018605220831, 0.09363694403064487526, 0.000000000000000000 ) ) ;
#610 = FACE_OUTER_BOUND ( 'NONE', #407, .T. ) ;
#611 = DIRECTION ( 'NONE',  ( 0.000000000000000000, 1.000000000000000000, 1.224646799147351975E-16 ) ) ;
#612 = AXIS2_PLACEMENT_3D ( 'NONE', #662, #443, #217 ) ;
#613 = CARTESIAN_POINT ( 'NONE',  ( 0.08267716535433070058, 1.205361022782828805E-17, -0.09842519685039370636 ) ) ;
#614 = AXIS2_PLACEMENT_3D ( 'NONE', #542, #601, #544 ) ;
#615 = AXIS2_PLACEMENT_3D ( 'NONE', #318, #574, #570 ) ;
#616 = EDGE_LOOP ( 'NONE', ( #364, #538, #207 ) ) ;
#617 = ORIENTED_EDGE ( 'NONE', *, *, #338, .F. ) ;
#618 = DIRECTION ( 'NONE',  ( -0.1136381605096604547, 1.297944863177000337E-16, -0.9935222033130315378 ) ) ;
#619 = VECTOR ( 'NONE', #343, 39.37007874015748143 ) ;
#620 = CC_DESIGN_PERSON_AND_ORGANIZATION_ASSIGNMENT ( #461, #287, ( #704 ) ) ;
#621 = AXIS2_PLACEMENT_3D ( 'NONE', #418, #427, #369 ) ;
#622 = VERTEX_POINT ( 'NONE', #579 ) ;
#623 = DIRECTION ( 'NONE',  ( -1.000000000000000000, 0.000000000000000000, 0.000000000000000000 ) ) ;
#624 = LINE ( 'NONE', #8, #110 ) ;
#625 = DIRECTION ( 'NONE',  ( -0.1136381605096604547, 0.000000000000000000, 0.9935222033130315378 ) ) ;
#626 = EDGE_LOOP ( 'NONE', ( #18, #186, #37 ) ) ;
#627 = CC_DESIGN_APPROVAL ( #554, ( #394 ) ) ;
#628 = FACE_OUTER_BOUND ( 'NONE', #297, .T. ) ;
#629 = DIRECTION ( 'NONE',  ( 0.7923367461350614427, 0.6033152348021872946, -0.09062675200891213978 ) ) ;
#630 = DIRECTION ( 'NONE',  ( 0.000000000000000000, 0.000000000000000000, 1.000000000000000000 ) ) ;
#631 = EDGE_CURVE ( 'NONE', #253, #243, #90, .T. ) ;
#632 = ORIENTED_EDGE ( 'NONE', *, *, #337, .F. ) ;
#633 = DIRECTION ( 'NONE',  ( -0.9871686829601518109, -0.1129114506653761951, -0.1129114506653767780 ) ) ;
#634 = VECTOR ( 'NONE', #38, 39.37007874015748143 ) ;
#635 = CARTESIAN_POINT ( 'NONE',  ( 0.7125984251968504601, 0.000000000000000000, 0.04921259842519685318 ) ) ;
#636 = ORIENTED_EDGE ( 'NONE', *, *, #249, .F. ) ;
#637 = ORIENTED_EDGE ( 'NONE', *, *, #129, .T. ) ;
#638 = PLANE ( 'NONE',  #7 ) ;
#639 = DIRECTION ( 'NONE',  ( 0.000000000000000000, 0.000000000000000000, 1.000000000000000000 ) ) ;
#640 = PLANE ( 'NONE',  #24 ) ;
#641 = EDGE_CURVE ( 'NONE', #212, #426, #182, .T. ) ;
#642 = ORIENTED_EDGE ( 'NONE', *, *, #153, .F. ) ;
#643 = LOCAL_TIME ( 22, 9, 57.00000000000000000, #122 ) ;
#644 =( GEOMETRIC_REPRESENTATION_CONTEXT ( 3 ) GLOBAL_UNCERTAINTY_ASSIGNED_CONTEXT ( ( #218 ) ) GLOBAL_UNIT_ASSIGNED_CONTEXT ( ( #162, #382, #592 ) ) REPRESENTATION_CONTEXT ( 'NONE', 'WORKASPACE' ) );
#645 = LINE ( 'NONE', #21, #375 ) ;
#646 = ORIENTED_EDGE ( 'NONE', *, *, #129, .F. ) ;
#647 = VERTEX_POINT ( 'NONE', #589 ) ;
#648 = APPROVAL_DATE_TIME ( #713, #178 ) ;
#649 = AXIS2_PLACEMENT_3D ( 'NONE', #185, #12, #347 ) ;
#650 = ORIENTED_EDGE ( 'NONE', *, *, #237, .F. ) ;
#651 = ORIENTED_EDGE ( 'NONE', *, *, #255, .T. ) ;
#652 = CIRCLE ( 'NONE', #522, 0.1574803149606299191 ) ;
#653 = ADVANCED_FACE ( 'NONE', ( #470 ), #715, .T. ) ;
#654 = PERSON_AND_ORGANIZATION ( #697, #460 ) ;
#655 = DIRECTION ( 'NONE',  ( 0.9935222033130314268, -0.1136381605096604824, 0.000000000000000000 ) ) ;
#656 = VECTOR ( 'NONE', #189, 39.37007874015748854 ) ;
#657 = CARTESIAN_POINT ( 'NONE',  ( 0.06023622047244094058, 0.006889763779527558960, -0.006889763779527558960 ) ) ;
#658 = CC_DESIGN_PERSON_AND_ORGANIZATION_ASSIGNMENT ( #406, #241, ( #704 ) ) ;
#659 = DIMENSIONAL_EXPONENTS ( 1.000000000000000000, 0.000000000000000000, 0.000000000000000000, 0.000000000000000000, 0.000000000000000000, 0.000000000000000000, 0.000000000000000000 ) ;
#660 = CALENDAR_DATE ( 2026, 22, 8 ) ;
#661 = CYLINDRICAL_SURFACE ( 'NONE', #612, 0.09842519685039370636 ) ;
#662 = CARTESIAN_POINT ( 'NONE',  ( -1.000000000000000000, 0.000000000000000000, 0.000000000000000000 ) ) ;
#663 = CC_DESIGN_DATE_AND_TIME_ASSIGNMENT ( #504, #175, ( #394 ) ) ;
#664 = CIRCLE ( 'NONE', #419, 0.1481395187163887239 ) ;
#665 = CIRCLE ( 'NONE', #314, 0.1574241509847327802 ) ;
#666 = DIRECTION ( 'NONE',  ( 0.000000000000000000, 0.000000000000000000, 1.000000000000000000 ) ) ;
#667 = DIRECTION ( 'NONE',  ( -0.9935222033130314268, -0.1136381605096604408, 0.000000000000000000 ) ) ;
#668 = CALENDAR_DATE ( 2026, 22, 8 ) ;
#669 = DIRECTION ( 'NONE',  ( 0.000000000000000000, 1.224646799147351975E-16, -1.000000000000000000 ) ) ;
#670 = LINE ( 'NONE', #505, #166 ) ;
#671 = EDGE_CURVE ( 'NONE', #425, #590, #486, .T. ) ;
#672 = CARTESIAN_POINT ( 'NONE',  ( 0.007698422835822540423, -0.01289898899940238215, 0.04689403452897873692 ) ) ;
#673 = AXIS2_PLACEMENT_3D ( 'NONE', #145, #692, #201 ) ;
#674 = ORIENTED_EDGE ( 'NONE', *, *, #530, .T. ) ;
#675 = ADVANCED_FACE ( 'NONE', ( #477 ), #514, .T. ) ;
#676 = CARTESIAN_POINT ( 'NONE',  ( -1.000000000000000000, 6.026805113914134012E-18, -0.04921259842519685318 ) ) ;
#677 = ORIENTED_EDGE ( 'NONE', *, *, #103, .F. ) ;
#678 = EDGE_CURVE ( 'NONE', #42, #379, #278, .T. ) ;
#679 = DIRECTION ( 'NONE',  ( 3.166769598145284884E-14, 0.000000000000000000, 1.000000000000000000 ) ) ;
#680 = AXIS2_PLACEMENT_3D ( 'NONE', #502, #404, #187 ) ;
#681 = CARTESIAN_POINT ( 'NONE',  ( -1.000000000000000000, 0.000000000000000000, 0.09842519685039370636 ) ) ;
#682 = DIRECTION ( 'NONE',  ( 0.6058081784656141888, -2.777860054547471253E-15, 0.7956107408175022710 ) ) ;
#683 = ORIENTED_EDGE ( 'NONE', *, *, #48, .T. ) ;
#684 = CARTESIAN_POINT ( 'NONE',  ( 0.1251121671308748073, -0.04250924135581582441, 0.000000000000000000 ) ) ;
#685 = LINE ( 'NONE', #245, #17 ) ;
#686 = EDGE_CURVE ( 'NONE', #622, #575, #645, .T. ) ;
#687 = FACE_OUTER_BOUND ( 'NONE', #126, .T. ) ;
#688 = VERTEX_POINT ( 'NONE', #26 ) ;
#689 = VECTOR ( 'NONE', #399, 39.37007874015748143 ) ;
#690 = CARTESIAN_POINT ( 'NONE',  ( 0.000000000000000000, 0.05275590551181102983, -0.01377952755905511792 ) ) ;
#691 = AXIS2_PLACEMENT_3D ( 'NONE', #180, #66, #19 ) ;
#692 = DIRECTION ( 'NONE',  ( -1.000000000000000000, 0.000000000000000000, 0.000000000000000000 ) ) ;
#693 = ORIENTED_EDGE ( 'NONE', *, *, #698, .T. ) ;
#694 = PRODUCT ( 'M2.5 x 16.STEP_Default_sldprt', 'M2.5 x 16.STEP_Default_sldprt', '', ( #325 ) ) ;
#695 = ORIENTED_EDGE ( 'NONE', *, *, #326, .T. ) ;
#696 = CARTESIAN_POINT ( 'NONE',  ( 0.06928457977087637554, 0.000000000000000000, -0.005854820722516976966 ) ) ;
#697 = PERSON ( 'UNSPECIFIED', 'UNSPECIFIED', 'UNSPECIFIED', ('UNSPECIFIED'), ('UNSPECIFIED'), ('UNSPECIFIED') ) ;
#698 = EDGE_CURVE ( 'NONE', #622, #33, #664, .T. ) ;
#699 = CARTESIAN_POINT ( 'NONE',  ( -1.000000000000000000, 0.000000000000000000, 0.000000000000000000 ) ) ;
#700 = EDGE_LOOP ( 'NONE', ( #263, #313, #132, #708, #100 ) ) ;
#701 = CARTESIAN_POINT ( 'NONE',  ( 0.08267716535433070058, 0.000000000000000000, 0.000000000000000000 ) ) ;
#702 = DIRECTION ( 'NONE',  ( -0.1136381605096602604, 0.9935222033130315378, 3.598658718911462097E-15 ) ) ;
#703 = EDGE_LOOP ( 'NONE', ( #259, #484, #515 ) ) ;
#704 = PRODUCT_DEFINITION_FORMATION_WITH_SPECIFIED_SOURCE ( 'ANY', '', #694, .NOT_KNOWN. ) ;
#705 = AXIS2_PLACEMENT_3D ( 'NONE', #244, #618, #130 ) ;
#706 = AXIS2_PLACEMENT_3D ( 'NONE', #281, #498, #279 ) ;
#707 = DIRECTION ( 'NONE',  ( 0.000000000000000000, 0.000000000000000000, 1.000000000000000000 ) ) ;
#708 = ORIENTED_EDGE ( 'NONE', *, *, #275, .F. ) ;
#709 = ADVANCED_FACE ( 'NONE', ( #195 ), #445, .F. ) ;
#710 = ORIENTED_EDGE ( 'NONE', *, *, #545, .F. ) ;
#711 = LENGTH_MEASURE_WITH_UNIT ( LENGTH_MEASURE( 0.02539999999999999897 ), #167 );
#712 = SPHERICAL_SURFACE ( 'NONE', #81, 0.1574803149606299191 ) ;
#713 = DATE_AND_TIME ( #222, #286 ) ;
#714 = CARTESIAN_POINT ( 'NONE',  ( 0.7125984251968504601, 0.000000000000000000, 0.000000000000000000 ) ) ;
#715 = TOROIDAL_SURFACE ( 'NONE', #359, 0.08661417322834646937, 0.01181102362204724393 ) ;
#716 = APPROVAL_STATUS ( 'not_yet_approved' ) ;
#717 = DESIGN_CONTEXT ( 'detailed design', #496, 'design' ) ;
#718 = LINE ( 'NONE', #160, #135 ) ;
ENDSEC;
END-ISO-10303-21;
