ISO-10303-21;
HEADER;
FILE_DESCRIPTION (( 'STEP AP203' ),
    '1' );
FILE_NAME ('pinionlock_Default_sldprt.STEP',
    '2026-08-22T16:40:15',
    ( '' ),
    ( '' ),
    'SwSTEP 2.0',
    'SolidWorks 2020',
    '' );
FILE_SCHEMA (( 'CONFIG_CONTROL_DESIGN' ));
ENDSEC;

DATA;
#1 = DIRECTION ( 'NONE',  ( 1.068374568316099172E-16, -1.000000000000000000, -2.775557561562929808E-16 ) ) ;
#2 = LINE ( 'NONE', #285, #43 ) ;
#3 = CC_DESIGN_PERSON_AND_ORGANIZATION_ASSIGNMENT ( #346, #328, ( #98 ) ) ;
#4 = AXIS2_PLACEMENT_3D ( 'NONE', #16, #333, #220 ) ;
#5 = DATE_AND_TIME ( #344, #284 ) ;
#6 = DIRECTION ( 'NONE',  ( 2.168404344971021934E-16, 1.951563910473919814E-15, 1.000000000000000000 ) ) ;
#7 = LINE ( 'NONE', #263, #210 ) ;
#8 = VECTOR ( 'NONE', #273, 1000.000000000000000 ) ;
#9 = CARTESIAN_POINT ( 'NONE',  ( 3.499999999999986677, 2.000000000000168310, 29.99999999999980460 ) ) ;
#10 = DATE_AND_TIME ( #130, #127 ) ;
#11 = CARTESIAN_POINT ( 'NONE',  ( 3.499999999999986677, -0.0009999999999177333621, 30.00000000000002842 ) ) ;
#12 = COORDINATED_UNIVERSAL_TIME_OFFSET ( 5, 30, .AHEAD. ) ;
#13 = LINE ( 'NONE', #39, #76 ) ;
#14 = CALENDAR_DATE ( 2026, 22, 8 ) ;
#15 = ORIENTED_EDGE ( 'NONE', *, *, #353, .T. ) ;
#16 = CARTESIAN_POINT ( 'NONE',  ( 2.688821387764050996E-14, 2.220446049250313081E-13, 32.99999999999947420 ) ) ;
#17 = DIRECTION ( 'NONE',  ( 2.168404344971021934E-16, 2.053949017973283762E-15, 1.000000000000000000 ) ) ;
#18 = ORIENTED_EDGE ( 'NONE', *, *, #201, .F. ) ;
#19 = CARTESIAN_POINT ( 'NONE',  ( 6.999999999999946709, 0.000000000000000000, 0.000000000000000000 ) ) ;
#20 = PERSON_AND_ORGANIZATION ( #348, #40 ) ;
#21 = ORIENTED_EDGE ( 'NONE', *, *, #196, .F. ) ;
#22 = DIRECTION ( 'NONE',  ( -1.708961605327205007E-19, 1.000000000000000000, 2.775557561562929808E-16 ) ) ;
#23 = ADVANCED_FACE ( 'NONE', ( #258 ), #361, .F. ) ;
#24 = EDGE_LOOP ( 'NONE', ( #148, #184 ) ) ;
#25 = LINE ( 'NONE', #301, #8 ) ;
#26 = VERTEX_POINT ( 'NONE', #283 ) ;
#27 = EDGE_CURVE ( 'NONE', #229, #156, #197, .T. ) ;
#28 = EDGE_LOOP ( 'NONE', ( #335, #150, #219, #51 ) ) ;
#29 = EDGE_CURVE ( 'NONE', #162, #32, #155, .T. ) ;
#30 = CARTESIAN_POINT ( 'NONE',  ( 3.499999999999986677, 1.110223024625156540E-13, 29.99999999999980460 ) ) ;
#31 = PRODUCT_DEFINITION_SHAPE ( 'NONE', 'NONE',  #68 ) ;
#32 = VERTEX_POINT ( 'NONE', #337 ) ;
#33 = AXIS2_PLACEMENT_3D ( 'NONE', #357, #324, #191 ) ;
#34 = ORIENTED_EDGE ( 'NONE', *, *, #201, .T. ) ;
#35 = EDGE_CURVE ( 'NONE', #310, #229, #65, .T. ) ;
#36 = CIRCLE ( 'NONE', #144, 1.999999999999987121 ) ;
#37 = CIRCLE ( 'NONE', #233, 1.999999999999987121 ) ;
#38 = COORDINATED_UNIVERSAL_TIME_OFFSET ( 5, 30, .AHEAD. ) ;
#39 = CARTESIAN_POINT ( 'NONE',  ( 6.999999999999973355, 5.551115123125782702E-14, 32.99999999999991473 ) ) ;
#40 = ORGANIZATION ( 'UNSPECIFIED', 'UNSPECIFIED', '' ) ;
#41 = DIRECTION ( 'NONE',  ( -2.153648355484433960E-16, -2.053912595556556166E-15, -1.000000000000000000 ) ) ;
#42 = CARTESIAN_POINT ( 'NONE',  ( 6.999999999999947597, 2.000000000000279332, 32.99999999999991473 ) ) ;
#43 = VECTOR ( 'NONE', #259, 1000.000000000000000 ) ;
#44 = CIRCLE ( 'NONE', #380, 1.999999999999988010 ) ;
#45 = APPROVAL ( #261, 'UNSPECIFIED' ) ;
#46 = CARTESIAN_POINT ( 'NONE',  ( 0.000000000000000000, 0.000000000000000000, 0.000000000000000000 ) ) ;
#47 = CARTESIAN_POINT ( 'NONE',  ( 0.000000000000000000, 0.000000000000000000, 0.000000000000000000 ) ) ;
#48 = FACE_OUTER_BOUND ( 'NONE', #313, .T. ) ;
#49 = PLANE ( 'NONE',  #290 ) ;
#50 = APPROVAL_ROLE ( '' ) ;
#51 = ORIENTED_EDGE ( 'NONE', *, *, #280, .T. ) ;
#52 = DIRECTION ( 'NONE',  ( -1.000000000000000000, -1.064956645105237857E-16, -2.168404344971022920E-16 ) ) ;
#53 = CYLINDRICAL_SURFACE ( 'NONE', #309, 1.999999999999988010 ) ;
#54 = APPROVAL_PERSON_ORGANIZATION ( #314, #45, #138 ) ;
#55 = ORIENTED_EDGE ( 'NONE', *, *, #178, .T. ) ;
#56 = DIRECTION ( 'NONE',  ( -1.708961605327205007E-19, 1.000000000000000000, 2.775557561562929808E-16 ) ) ;
#57 = ORIENTED_EDGE ( 'NONE', *, *, #281, .F. ) ;
#58 = CARTESIAN_POINT ( 'NONE',  ( 2.688821387764050996E-14, 2.220446049250313081E-13, 32.99999999999947420 ) ) ;
#59 = ORIENTED_EDGE ( 'NONE', *, *, #114, .F. ) ;
#60 = APPROVAL_PERSON_ORGANIZATION ( #187, #212, #325 ) ;
#61 = DIRECTION ( 'NONE',  ( 2.168404344971025631E-16, 2.053949017973287312E-15, 1.000000000000000000 ) ) ;
#62 = EDGE_CURVE ( 'NONE', #244, #310, #66, .T. ) ;
#63 = EDGE_LOOP ( 'NONE', ( #354, #383, #190, #303 ) ) ;
#64 = VECTOR ( 'NONE', #41, 1000.000000000000000 ) ;
#65 = LINE ( 'NONE', #199, #378 ) ;
#66 = LINE ( 'NONE', #230, #365 ) ;
#67 = DATE_AND_TIME ( #169, #237 ) ;
#68 = PRODUCT_DEFINITION ( 'UNKNOWN', '', #72, #131 ) ;
#69 = DIRECTION ( 'NONE',  ( -1.708961605327205007E-19, 1.000000000000000000, 2.775557561562929808E-16 ) ) ;
#70 = EDGE_CURVE ( 'NONE', #278, #308, #2, .T. ) ;
#71 = DIRECTION ( 'NONE',  ( -1.708961605327205007E-19, 1.000000000000000000, 2.775557561562929808E-16 ) ) ;
#72 = PRODUCT_DEFINITION_FORMATION_WITH_SPECIFIED_SOURCE ( 'ANY', '', #98, .NOT_KNOWN. ) ;
#73 = APPROVAL_DATE_TIME ( #5, #101 ) ;
#74 = CARTESIAN_POINT ( 'NONE',  ( 0.000000000000000000, 2.000000000000057288, 0.000000000000000000 ) ) ;
#75 = PERSON_AND_ORGANIZATION_ROLE ( 'creator' ) ;
#76 = VECTOR ( 'NONE', #342, 1000.000000000000000 ) ;
#77 = FACE_OUTER_BOUND ( 'NONE', #227, .T. ) ;
#78 = APPROVAL_STATUS ( 'not_yet_approved' ) ;
#79 = DIRECTION ( 'NONE',  ( 1.708961605327205007E-19, -1.000000000000000000, -2.775557561562929808E-16 ) ) ;
#80 = CARTESIAN_POINT ( 'NONE',  ( 3.499999999999986677, -0.0009999999999177333621, 30.00000000000002842 ) ) ;
#81 = CARTESIAN_POINT ( 'NONE',  ( 2.688821387764050996E-14, 2.220446049250313081E-13, 32.99999999999947420 ) ) ;
#82 = DATE_AND_TIME ( #350, #186 ) ;
#83 = VERTEX_POINT ( 'NONE', #364 ) ;
#84 = LINE ( 'NONE', #304, #256 ) ;
#85 = AXIS2_PLACEMENT_3D ( 'NONE', #42, #176, #242 ) ;
#86 = AXIS2_PLACEMENT_3D ( 'NONE', #318, #238, #246 ) ;
#87 = EDGE_LOOP ( 'NONE', ( #125, #332, #123, #356 ) ) ;
#88 = LINE ( 'NONE', #381, #117 ) ;
#89 = ORIENTED_EDGE ( 'NONE', *, *, #122, .T. ) ;
#90 = PLANE ( 'NONE',  #4 ) ;
#91 = EDGE_LOOP ( 'NONE', ( #334, #55, #120, #253 ) ) ;
#92 = EDGE_LOOP ( 'NONE', ( #363, #226, #379, #200 ) ) ;
#93 = AXIS2_PLACEMENT_3D ( 'NONE', #234, #71, #6 ) ;
#94 = ADVANCED_FACE ( 'NONE', ( #100 ), #204, .T. ) ;
#95 = AXIS2_PLACEMENT_3D ( 'NONE', #248, #352, #297 ) ;
#96 = CARTESIAN_POINT ( 'NONE',  ( 3.499999999999973355, -0.0009999999999732445133, 3.000000000000113687 ) ) ;
#97 = VERTEX_POINT ( 'NONE', #46 ) ;
#98 = PRODUCT ( 'pinionlock_Default_sldprt', 'pinionlock_Default_sldprt', '', ( #298 ) ) ;
#99 = EDGE_CURVE ( 'NONE', #326, #254, #370, .T. ) ;
#100 = FACE_OUTER_BOUND ( 'NONE', #92, .T. ) ;
#101 = APPROVAL ( #182, 'UNSPECIFIED' ) ;
#102 = DIRECTION ( 'NONE',  ( -1.708961605327205007E-19, 1.000000000000000000, 2.775557561562929808E-16 ) ) ;
#103 = AXIS2_PLACEMENT_3D ( 'NONE', #104, #270, #179 ) ;
#104 = CARTESIAN_POINT ( 'NONE',  ( 2.688821387764050996E-14, 2.000000000000168310, 32.99999999999947420 ) ) ;
#105 = CC_DESIGN_APPROVAL ( #101, ( #72 ) ) ;
#106 = CC_DESIGN_APPROVAL ( #45, ( #165 ) ) ;
#107 = FACE_BOUND ( 'NONE', #272, .T. ) ;
#108 = FACE_BOUND ( 'NONE', #323, .T. ) ;
#109 = APPLICATION_PROTOCOL_DEFINITION ( 'international standard', 'config_control_design', 1994, #286 ) ;
#110 = CARTESIAN_POINT ( 'NONE',  ( 0.000000000000000000, 0.000000000000000000, 0.000000000000000000 ) ) ;
#111 = ADVANCED_FACE ( 'NONE', ( #136, #108, #77 ), #213, .F. ) ;
#112 = VERTEX_POINT ( 'NONE', #295 ) ;
#113 = FACE_OUTER_BOUND ( 'NONE', #28, .T. ) ;
#114 = EDGE_CURVE ( 'NONE', #278, #26, #37, .T. ) ;
#115 = ORIENTED_EDGE ( 'NONE', *, *, #133, .T. ) ;
#116 = CARTESIAN_POINT ( 'NONE',  ( 3.499999999999973799, 2.214894934127187803E-13, 4.999999999999670486 ) ) ;
#117 = VECTOR ( 'NONE', #185, 1000.000000000000000 ) ;
#118 = ORIENTED_EDGE ( 'NONE', *, *, #245, .F. ) ;
#119 = FACE_OUTER_BOUND ( 'NONE', #63, .T. ) ;
#120 = ORIENTED_EDGE ( 'NONE', *, *, #367, .T. ) ;
#121 = ADVANCED_BREP_SHAPE_REPRESENTATION ( 'pinionlock_Default_sldprt', ( #369, #194 ), #140 ) ;
#122 = EDGE_CURVE ( 'NONE', #385, #160, #231, .T. ) ;
#123 = ORIENTED_EDGE ( 'NONE', *, *, #317, .T. ) ;
#124 = CC_DESIGN_DATE_AND_TIME_ASSIGNMENT ( #67, #172, ( #165 ) ) ;
#125 = ORIENTED_EDGE ( 'NONE', *, *, #358, .F. ) ;
#126 = CC_DESIGN_APPROVAL ( #212, ( #68 ) ) ;
#127 = LOCAL_TIME ( 22, 10, 15.00000000000000000, #235 ) ;
#128 = DIRECTION ( 'NONE',  ( -1.000000000000000000, -1.064956645105299240E-16, 0.000000000000000000 ) ) ;
#129 = ORIENTED_EDGE ( 'NONE', *, *, #35, .T. ) ;
#130 = CALENDAR_DATE ( 2026, 22, 8 ) ;
#131 = DESIGN_CONTEXT ( 'detailed design', #159, 'design' ) ;
#132 = PERSON_AND_ORGANIZATION_ROLE ( 'design_supplier' ) ;
#133 = EDGE_CURVE ( 'NONE', #32, #162, #221, .T. ) ;
#134 = DIRECTION ( 'NONE',  ( -1.000000000000000000, 1.708961605768955317E-19, -2.153648355484510381E-16 ) ) ;
#135 = VECTOR ( 'NONE', #79, 1000.000000000000000 ) ;
#136 = FACE_BOUND ( 'NONE', #153, .T. ) ;
#137 = AXIS2_PLACEMENT_3D ( 'NONE', #11, #69, #266 ) ;
#138 = APPROVAL_ROLE ( '' ) ;
#139 = LINE ( 'NONE', #371, #64 ) ;
#140 =( GEOMETRIC_REPRESENTATION_CONTEXT ( 3 ) GLOBAL_UNCERTAINTY_ASSIGNED_CONTEXT ( ( #264 ) ) GLOBAL_UNIT_ASSIGNED_CONTEXT ( ( #143, #268, #294 ) ) REPRESENTATION_CONTEXT ( 'NONE', 'WORKASPACE' ) );
#141 = ADVANCED_FACE ( 'NONE', ( #48 ), #239, .F. ) ;
#142 = CARTESIAN_POINT ( 'NONE',  ( 3.499999999999987121, 2.000000000000172307, 31.99999999999979394 ) ) ;
#143 =( LENGTH_UNIT ( ) NAMED_UNIT ( * ) SI_UNIT ( .MILLI., .METRE. ) );
#144 = AXIS2_PLACEMENT_3D ( 'NONE', #279, #327, #52 ) ;
#145 = CARTESIAN_POINT ( 'NONE',  ( 6.999999999999946709, 2.000000000000057288, 0.000000000000000000 ) ) ;
#146 = PRODUCT_RELATED_PRODUCT_CATEGORY ( 'detail', '', ( #98 ) ) ;
#147 = DATE_AND_TIME ( #14, #257 ) ;
#148 = ORIENTED_EDGE ( 'NONE', *, *, #133, .F. ) ;
#149 = CARTESIAN_POINT ( 'NONE',  ( 6.999999999999947597, 2.000000000000279332, 32.99999999999991473 ) ) ;
#150 = ORIENTED_EDGE ( 'NONE', *, *, #281, .T. ) ;
#151 = CARTESIAN_POINT ( 'NONE',  ( 3.499999999999973799, 2.000000000000005773, 4.999999999999875655 ) ) ;
#152 = COORDINATED_UNIVERSAL_TIME_OFFSET ( 5, 30, .AHEAD. ) ;
#153 = EDGE_LOOP ( 'NONE', ( #180, #359 ) ) ;
#154 = LINE ( 'NONE', #223, #275 ) ;
#155 = CIRCLE ( 'NONE', #338, 1.999999999999987566 ) ;
#156 = VERTEX_POINT ( 'NONE', #74 ) ;
#157 = FACE_OUTER_BOUND ( 'NONE', #87, .T. ) ;
#158 = CC_DESIGN_SECURITY_CLASSIFICATION ( #165, ( #72 ) ) ;
#159 = APPLICATION_CONTEXT ( 'configuration controlled 3d designs of mechanical parts and assemblies' ) ;
#160 = VERTEX_POINT ( 'NONE', #142 ) ;
#161 = CC_DESIGN_PERSON_AND_ORGANIZATION_ASSIGNMENT ( #203, #315, ( #165 ) ) ;
#162 = VERTEX_POINT ( 'NONE', #206 ) ;
#163 = AXIS2_PLACEMENT_3D ( 'NONE', #321, #205, #267 ) ;
#164 = DIRECTION ( 'NONE',  ( -1.708961605327205007E-19, 1.000000000000000000, 2.775557561562929808E-16 ) ) ;
#165 = SECURITY_CLASSIFICATION ( '', '', #174 ) ;
#166 = DIRECTION ( 'NONE',  ( -2.153648355484433960E-16, -2.053912595556556166E-15, -1.000000000000000000 ) ) ;
#167 = AXIS2_PLACEMENT_3D ( 'NONE', #271, #56, #225 ) ;
#168 = EDGE_CURVE ( 'NONE', #160, #385, #44, .T. ) ;
#169 = CALENDAR_DATE ( 2026, 22, 8 ) ;
#170 = PLANE ( 'NONE',  #163 ) ;
#171 = CC_DESIGN_PERSON_AND_ORGANIZATION_ASSIGNMENT ( #20, #247, ( #68 ) ) ;
#172 = DATE_TIME_ROLE ( 'classification_date' ) ;
#173 = CARTESIAN_POINT ( 'NONE',  ( 6.999999999999973355, 5.551115123125782702E-14, 32.99999999999991473 ) ) ;
#174 = SECURITY_CLASSIFICATION_LEVEL ( 'unclassified' ) ;
#175 = AXIS2_PLACEMENT_3D ( 'NONE', #96, #164, #61 ) ;
#176 = DIRECTION ( 'NONE',  ( -1.000000000000000000, 1.708961605777802076E-19, 2.153648355484433960E-16 ) ) ;
#177 = DIRECTION ( 'NONE',  ( -1.708961605327205007E-19, 1.000000000000000000, 2.775557561562929808E-16 ) ) ;
#178 = EDGE_CURVE ( 'NONE', #26, #112, #7, .T. ) ;
#179 = DIRECTION ( 'NONE',  ( -2.153648355484433960E-16, -2.053912595556555771E-15, -1.000000000000000000 ) ) ;
#180 = ORIENTED_EDGE ( 'NONE', *, *, #168, .F. ) ;
#181 = DIRECTION ( 'NONE',  ( 1.000000000000000000, 1.064956645105279642E-16, 2.153648355484999474E-16 ) ) ;
#182 = APPROVAL_STATUS ( 'not_yet_approved' ) ;
#183 = EDGE_CURVE ( 'NONE', #156, #97, #288, .T. ) ;
#184 = ORIENTED_EDGE ( 'NONE', *, *, #29, .F. ) ;
#185 = DIRECTION ( 'NONE',  ( -1.708961605327205007E-19, 1.000000000000000000, 2.775557561562929808E-16 ) ) ;
#186 = LOCAL_TIME ( 22, 10, 15.00000000000000000, #152 ) ;
#187 = PERSON_AND_ORGANIZATION ( #348, #40 ) ;
#188 = ORIENTED_EDGE ( 'NONE', *, *, #280, .F. ) ;
#189 = LINE ( 'NONE', #377, #214 ) ;
#190 = ORIENTED_EDGE ( 'NONE', *, *, #293, .F. ) ;
#191 = DIRECTION ( 'NONE',  ( 2.168404344971025631E-16, 2.053949017973287312E-15, 1.000000000000000000 ) ) ;
#192 = ADVANCED_FACE ( 'NONE', ( #320 ), #322, .F. ) ;
#193 = ORIENTED_EDGE ( 'NONE', *, *, #262, .F. ) ;
#194 = AXIS2_PLACEMENT_3D ( 'NONE', #47, #249, #302 ) ;
#195 = ORIENTED_EDGE ( 'NONE', *, *, #367, .F. ) ;
#196 = EDGE_CURVE ( 'NONE', #83, #244, #13, .T. ) ;
#197 = LINE ( 'NONE', #228, #241 ) ;
#198 = VECTOR ( 'NONE', #355, 1000.000000000000000 ) ;
#199 = CARTESIAN_POINT ( 'NONE',  ( 6.999999999999946709, 2.000000000000057288, 0.000000000000000000 ) ) ;
#200 = ORIENTED_EDGE ( 'NONE', *, *, #35, .F. ) ;
#201 = EDGE_CURVE ( 'NONE', #326, #229, #139, .T. ) ;
#202 = VECTOR ( 'NONE', #376, 1000.000000000000000 ) ;
#203 = PERSON_AND_ORGANIZATION ( #348, #40 ) ;
#204 = PLANE ( 'NONE',  #208 ) ;
#205 = DIRECTION ( 'NONE',  ( -1.064956645105280381E-16, 1.000000000000000000, 2.775557561562929315E-16 ) ) ;
#206 = CARTESIAN_POINT ( 'NONE',  ( 3.499999999999986677, 1.115774139748291285E-13, 27.99999999999980105 ) ) ;
#207 = PERSON_AND_ORGANIZATION ( #348, #40 ) ;
#208 = AXIS2_PLACEMENT_3D ( 'NONE', #291, #368, #345 ) ;
#209 = DIRECTION ( 'NONE',  ( 2.168404344971021934E-16, 1.951563910473919814E-15, 1.000000000000000000 ) ) ;
#210 = VECTOR ( 'NONE', #177, 1000.000000000000000 ) ;
#211 = PERSON_AND_ORGANIZATION ( #348, #40 ) ;
#212 = APPROVAL ( #78, 'UNSPECIFIED' ) ;
#213 = PLANE ( 'NONE',  #103 ) ;
#214 = VECTOR ( 'NONE', #181, 1000.000000000000000 ) ;
#215 = DIRECTION ( 'NONE',  ( -1.708961605327205007E-19, 1.000000000000000000, 2.775557561562929808E-16 ) ) ;
#216 = EDGE_LOOP ( 'NONE', ( #129, #18, #118, #360 ) ) ;
#217 = DIRECTION ( 'NONE',  ( 1.000000000000000000, -1.708961605777802076E-19, -2.153648355484433960E-16 ) ) ;
#218 = DATE_TIME_ROLE ( 'creation_date' ) ;
#219 = ORIENTED_EDGE ( 'NONE', *, *, #70, .T. ) ;
#220 = DIRECTION ( 'NONE',  ( -1.000000000000000000, 1.708961605768955317E-19, -2.153648355484510627E-16 ) ) ;
#221 = CIRCLE ( 'NONE', #86, 1.999999999999987566 ) ;
#222 = CARTESIAN_POINT ( 'NONE',  ( 3.499999999999986677, 2.000000000000168754, 27.99999999999980105 ) ) ;
#223 = CARTESIAN_POINT ( 'NONE',  ( 2.688821387764050996E-14, 2.000000000000168310, 32.99999999999947420 ) ) ;
#224 = ORIENTED_EDGE ( 'NONE', *, *, #62, .F. ) ;
#225 = DIRECTION ( 'NONE',  ( 2.168404344971025631E-16, 1.951563910473922970E-15, 1.000000000000000000 ) ) ;
#226 = ORIENTED_EDGE ( 'NONE', *, *, #183, .F. ) ;
#227 = EDGE_LOOP ( 'NONE', ( #336, #193, #282, #34 ) ) ;
#228 = CARTESIAN_POINT ( 'NONE',  ( 0.000000000000000000, 2.000000000000057288, 0.000000000000000000 ) ) ;
#229 = VERTEX_POINT ( 'NONE', #145 ) ;
#230 = CARTESIAN_POINT ( 'NONE',  ( 6.999999999999973355, 5.551115123125782702E-14, 32.99999999999991473 ) ) ;
#231 = CIRCLE ( 'NONE', #93, 1.999999999999988010 ) ;
#232 = ADVANCED_FACE ( 'NONE', ( #292, #107, #374 ), #170, .F. ) ;
#233 = AXIS2_PLACEMENT_3D ( 'NONE', #343, #373, #265 ) ;
#234 = CARTESIAN_POINT ( 'NONE',  ( 3.499999999999986677, 2.000000000000168310, 29.99999999999980460 ) ) ;
#235 = COORDINATED_UNIVERSAL_TIME_OFFSET ( 5, 30, .AHEAD. ) ;
#236 = APPROVAL_PERSON_ORGANIZATION ( #211, #101, #50 ) ;
#237 = LOCAL_TIME ( 22, 10, 15.00000000000000000, #38 ) ;
#238 = DIRECTION ( 'NONE',  ( 1.068374568316099172E-16, -1.000000000000000000, -2.775557561562929808E-16 ) ) ;
#239 = CYLINDRICAL_SURFACE ( 'NONE', #137, 1.999999999999988010 ) ;
#240 = APPROVAL_DATE_TIME ( #10, #45 ) ;
#241 = VECTOR ( 'NONE', #311, 1000.000000000000000 ) ;
#242 = DIRECTION ( 'NONE',  ( 2.153648355484433960E-16, 2.053912595556555771E-15, 1.000000000000000000 ) ) ;
#243 = COORDINATED_UNIVERSAL_TIME_OFFSET ( 5, 30, .AHEAD. ) ;
#244 = VERTEX_POINT ( 'NONE', #173 ) ;
#245 = EDGE_CURVE ( 'NONE', #244, #326, #289, .T. ) ;
#246 = DIRECTION ( 'NONE',  ( -1.000000000000000000, -1.064956645105299240E-16, 0.000000000000000000 ) ) ;
#247 = PERSON_AND_ORGANIZATION_ROLE ( 'creator' ) ;
#248 = CARTESIAN_POINT ( 'NONE',  ( 3.499999999999973355, 2.000000000000001776, 2.999999999999891642 ) ) ;
#249 = DIRECTION ( 'NONE',  ( 0.000000000000000000, 0.000000000000000000, 1.000000000000000000 ) ) ;
#250 = DIRECTION ( 'NONE',  ( -2.153648355484433960E-16, -2.053912595556556166E-15, -1.000000000000000000 ) ) ;
#251 = ORIENTED_EDGE ( 'NONE', *, *, #358, .T. ) ;
#252 = CYLINDRICAL_SURFACE ( 'NONE', #33, 1.999999999999984457 ) ;
#253 = ORIENTED_EDGE ( 'NONE', *, *, #70, .F. ) ;
#254 = VERTEX_POINT ( 'NONE', #349 ) ;
#255 = ORIENTED_EDGE ( 'NONE', *, *, #317, .F. ) ;
#256 = VECTOR ( 'NONE', #22, 1000.000000000000000 ) ;
#257 = LOCAL_TIME ( 22, 10, 15.00000000000000000, #243 ) ;
#258 = FACE_OUTER_BOUND ( 'NONE', #91, .T. ) ;
#259 = DIRECTION ( 'NONE',  ( -1.708961605327205007E-19, 1.000000000000000000, 2.775557561562929808E-16 ) ) ;
#260 = VECTOR ( 'NONE', #134, 1000.000000000000000 ) ;
#261 = APPROVAL_STATUS ( 'not_yet_approved' ) ;
#262 = EDGE_CURVE ( 'NONE', #254, #156, #154, .T. ) ;
#263 = CARTESIAN_POINT ( 'NONE',  ( 3.499999999999973355, -0.0009999999999773523385, 1.000000000000128786 ) ) ;
#264 = UNCERTAINTY_MEASURE_WITH_UNIT (LENGTH_MEASURE( 1.000000000000000082E-05 ), #143, 'distance_accuracy_value', 'NONE');
#265 = DIRECTION ( 'NONE',  ( -1.000000000000000000, -1.064956645105237857E-16, -2.168404344971022920E-16 ) ) ;
#266 = DIRECTION ( 'NONE',  ( 2.168404344971021934E-16, 2.053949017973283762E-15, 1.000000000000000000 ) ) ;
#267 = DIRECTION ( 'NONE',  ( -1.000000000000000000, -1.064956645105279765E-16, -2.153648355484999721E-16 ) ) ;
#268 =( NAMED_UNIT ( * ) PLANE_ANGLE_UNIT ( ) SI_UNIT ( $, .RADIAN. ) );
#269 = ADVANCED_FACE ( 'NONE', ( #330 ), #90, .F. ) ;
#270 = DIRECTION ( 'NONE',  ( 1.708961605332225665E-19, -1.000000000000000000, 2.053912595556555771E-15 ) ) ;
#271 = CARTESIAN_POINT ( 'NONE',  ( 3.499999999999973355, 2.000000000000001776, 2.999999999999891642 ) ) ;
#272 = EDGE_LOOP ( 'NONE', ( #59, #57 ) ) ;
#273 = DIRECTION ( 'NONE',  ( -2.153648355484433960E-16, -2.053912595556556166E-15, -1.000000000000000000 ) ) ;
#274 = APPLICATION_PROTOCOL_DEFINITION ( 'international standard', 'config_control_design', 1994, #159 ) ;
#275 = VECTOR ( 'NONE', #250, 1000.000000000000000 ) ;
#276 = ORIENTED_EDGE ( 'NONE', *, *, #245, .T. ) ;
#277 = DIRECTION ( 'NONE',  ( -2.153648355484433960E-16, -2.053912595556555771E-15, -1.000000000000000000 ) ) ;
#278 = VERTEX_POINT ( 'NONE', #116 ) ;
#279 = CARTESIAN_POINT ( 'NONE',  ( 3.499999999999973355, 2.220446049250313081E-13, 2.999999999999669598 ) ) ;
#280 = EDGE_CURVE ( 'NONE', #308, #112, #305, .T. ) ;
#281 = EDGE_CURVE ( 'NONE', #26, #278, #36, .T. ) ;
#282 = ORIENTED_EDGE ( 'NONE', *, *, #99, .F. ) ;
#283 = CARTESIAN_POINT ( 'NONE',  ( 3.499999999999973355, 2.225997164373438864E-13, 0.9999999999996687094 ) ) ;
#284 = LOCAL_TIME ( 22, 10, 15.00000000000000000, #12 ) ;
#285 = CARTESIAN_POINT ( 'NONE',  ( 3.499999999999973799, -0.0009999999999691366881, 5.000000000000097700 ) ) ;
#286 = APPLICATION_CONTEXT ( 'configuration controlled 3d designs of mechanical parts and assemblies' ) ;
#287 = SHAPE_DEFINITION_REPRESENTATION ( #31, #121 ) ;
#288 = LINE ( 'NONE', #110, #135 ) ;
#289 = LINE ( 'NONE', #347, #198 ) ;
#290 = AXIS2_PLACEMENT_3D ( 'NONE', #58, #217, #277 ) ;
#291 = CARTESIAN_POINT ( 'NONE',  ( 0.000000000000000000, 0.000000000000000000, 0.000000000000000000 ) ) ;
#292 = FACE_BOUND ( 'NONE', #24, .T. ) ;
#293 = EDGE_CURVE ( 'NONE', #254, #83, #307, .T. ) ;
#294 =( NAMED_UNIT ( * ) SI_UNIT ( $, .STERADIAN. ) SOLID_ANGLE_UNIT ( ) );
#295 = CARTESIAN_POINT ( 'NONE',  ( 3.499999999999973355, 2.000000000000002220, 0.9999999999998907541 ) ) ;
#296 = ORIENTED_EDGE ( 'NONE', *, *, #293, .T. ) ;
#297 = DIRECTION ( 'NONE',  ( 2.168404344971025631E-16, 1.951563910473922970E-15, 1.000000000000000000 ) ) ;
#298 = MECHANICAL_CONTEXT ( 'NONE', #286, 'mechanical' ) ;
#299 = ADVANCED_FACE ( 'NONE', ( #119 ), #49, .F. ) ;
#300 = CIRCLE ( 'NONE', #95, 1.999999999999984457 ) ;
#301 = CARTESIAN_POINT ( 'NONE',  ( 2.688821387764050996E-14, 2.220446049250313081E-13, 32.99999999999947420 ) ) ;
#302 = DIRECTION ( 'NONE',  ( 1.000000000000000000, 0.000000000000000000, 0.000000000000000000 ) ) ;
#303 = ORIENTED_EDGE ( 'NONE', *, *, #262, .T. ) ;
#304 = CARTESIAN_POINT ( 'NONE',  ( 3.499999999999986677, -0.0009999999999218411872, 28.00000000000004263 ) ) ;
#305 = CIRCLE ( 'NONE', #167, 1.999999999999984457 ) ;
#306 = EDGE_LOOP ( 'NONE', ( #384, #276, #340, #296 ) ) ;
#307 = LINE ( 'NONE', #81, #202 ) ;
#308 = VERTEX_POINT ( 'NONE', #151 ) ;
#309 = AXIS2_PLACEMENT_3D ( 'NONE', #80, #215, #17 ) ;
#310 = VERTEX_POINT ( 'NONE', #19 ) ;
#311 = DIRECTION ( 'NONE',  ( -1.000000000000000000, 1.708961605768955317E-19, -2.153648355484510381E-16 ) ) ;
#312 = DIRECTION ( 'NONE',  ( -1.708961605327205007E-19, 1.000000000000000000, 2.775557561562929808E-16 ) ) ;
#313 = EDGE_LOOP ( 'NONE', ( #115, #251, #89, #255 ) ) ;
#314 = PERSON_AND_ORGANIZATION ( #348, #40 ) ;
#315 = PERSON_AND_ORGANIZATION_ROLE ( 'classification_officer' ) ;
#316 = CARTESIAN_POINT ( 'NONE',  ( 2.688821387764050996E-14, 2.000000000000168310, 32.99999999999947420 ) ) ;
#317 = EDGE_CURVE ( 'NONE', #32, #160, #88, .T. ) ;
#318 = CARTESIAN_POINT ( 'NONE',  ( 3.499999999999986677, 1.110223024625156540E-13, 29.99999999999980460 ) ) ;
#319 = CC_DESIGN_PERSON_AND_ORGANIZATION_ASSIGNMENT ( #372, #75, ( #72 ) ) ;
#320 = FACE_OUTER_BOUND ( 'NONE', #216, .T. ) ;
#321 = CARTESIAN_POINT ( 'NONE',  ( 6.999999999999973355, 5.551115123125782702E-14, 32.99999999999991473 ) ) ;
#322 = PLANE ( 'NONE',  #85 ) ;
#323 = EDGE_LOOP ( 'NONE', ( #188, #195 ) ) ;
#324 = DIRECTION ( 'NONE',  ( -1.708961605327205007E-19, 1.000000000000000000, 2.775557561562929808E-16 ) ) ;
#325 = APPROVAL_ROLE ( '' ) ;
#326 = VERTEX_POINT ( 'NONE', #149 ) ;
#327 = DIRECTION ( 'NONE',  ( 1.068374568316099172E-16, -1.000000000000000000, -2.775557561562929808E-16 ) ) ;
#328 = PERSON_AND_ORGANIZATION_ROLE ( 'design_owner' ) ;
#329 = ORIENTED_EDGE ( 'NONE', *, *, #341, .T. ) ;
#330 = FACE_OUTER_BOUND ( 'NONE', #306, .T. ) ;
#331 = CC_DESIGN_PERSON_AND_ORGANIZATION_ASSIGNMENT ( #207, #132, ( #72 ) ) ;
#332 = ORIENTED_EDGE ( 'NONE', *, *, #29, .T. ) ;
#333 = DIRECTION ( 'NONE',  ( 2.153648355484510627E-16, -2.053912595556556166E-15, -1.000000000000000000 ) ) ;
#334 = ORIENTED_EDGE ( 'NONE', *, *, #114, .T. ) ;
#335 = ORIENTED_EDGE ( 'NONE', *, *, #178, .F. ) ;
#336 = ORIENTED_EDGE ( 'NONE', *, *, #27, .T. ) ;
#337 = CARTESIAN_POINT ( 'NONE',  ( 3.499999999999987121, 1.104671909502040981E-13, 31.99999999999980815 ) ) ;
#338 = AXIS2_PLACEMENT_3D ( 'NONE', #30, #1, #128 ) ;
#339 = CLOSED_SHELL ( 'NONE', ( #141, #23, #232, #192, #111, #299, #269, #94, #362, #382 ) ) ;
#340 = ORIENTED_EDGE ( 'NONE', *, *, #99, .T. ) ;
#341 = EDGE_CURVE ( 'NONE', #83, #97, #25, .T. ) ;
#342 = DIRECTION ( 'NONE',  ( 1.000000000000000000, 1.064956645105279642E-16, 2.153648355484999474E-16 ) ) ;
#343 = CARTESIAN_POINT ( 'NONE',  ( 3.499999999999973355, 2.220446049250313081E-13, 2.999999999999669598 ) ) ;
#344 = CALENDAR_DATE ( 2026, 22, 8 ) ;
#345 = DIRECTION ( 'NONE',  ( -1.000000000000000000, 1.708961605768955317E-19, -2.153648355484510627E-16 ) ) ;
#346 = PERSON_AND_ORGANIZATION ( #348, #40 ) ;
#347 = CARTESIAN_POINT ( 'NONE',  ( 6.999999999999947597, 2.000000000000279332, 32.99999999999991473 ) ) ;
#348 = PERSON ( 'UNSPECIFIED', 'UNSPECIFIED', 'UNSPECIFIED', ('UNSPECIFIED'), ('UNSPECIFIED'), ('UNSPECIFIED') ) ;
#349 = CARTESIAN_POINT ( 'NONE',  ( 2.688821387764050996E-14, 2.000000000000168310, 32.99999999999947420 ) ) ;
#350 = CALENDAR_DATE ( 2026, 22, 8 ) ;
#351 = EDGE_LOOP ( 'NONE', ( #15, #224, #21, #329 ) ) ;
#352 = DIRECTION ( 'NONE',  ( -1.708961605327205007E-19, 1.000000000000000000, 2.775557561562929808E-16 ) ) ;
#353 = EDGE_CURVE ( 'NONE', #97, #310, #189, .T. ) ;
#354 = ORIENTED_EDGE ( 'NONE', *, *, #183, .T. ) ;
#355 = DIRECTION ( 'NONE',  ( -1.708961605327205007E-19, 1.000000000000000000, 2.775557561562929808E-16 ) ) ;
#356 = ORIENTED_EDGE ( 'NONE', *, *, #168, .T. ) ;
#357 = CARTESIAN_POINT ( 'NONE',  ( 3.499999999999973355, -0.0009999999999732445133, 3.000000000000113687 ) ) ;
#358 = EDGE_CURVE ( 'NONE', #162, #385, #84, .T. ) ;
#359 = ORIENTED_EDGE ( 'NONE', *, *, #122, .F. ) ;
#360 = ORIENTED_EDGE ( 'NONE', *, *, #62, .T. ) ;
#361 = CYLINDRICAL_SURFACE ( 'NONE', #175, 1.999999999999984457 ) ;
#362 = ADVANCED_FACE ( 'NONE', ( #113 ), #252, .F. ) ;
#363 = ORIENTED_EDGE ( 'NONE', *, *, #353, .F. ) ;
#364 = CARTESIAN_POINT ( 'NONE',  ( 2.688821387764050996E-14, 2.220446049250313081E-13, 32.99999999999947420 ) ) ;
#365 = VECTOR ( 'NONE', #166, 1000.000000000000000 ) ;
#366 = CC_DESIGN_DATE_AND_TIME_ASSIGNMENT ( #82, #218, ( #68 ) ) ;
#367 = EDGE_CURVE ( 'NONE', #112, #308, #300, .T. ) ;
#368 = DIRECTION ( 'NONE',  ( 2.153648355484510627E-16, -2.053912595556556166E-15, -1.000000000000000000 ) ) ;
#369 = MANIFOLD_SOLID_BREP ( 'Cut-Extrude1', #339 ) ;
#370 = LINE ( 'NONE', #316, #260 ) ;
#371 = CARTESIAN_POINT ( 'NONE',  ( 6.999999999999947597, 2.000000000000279332, 32.99999999999991473 ) ) ;
#372 = PERSON_AND_ORGANIZATION ( #348, #40 ) ;
#373 = DIRECTION ( 'NONE',  ( 1.068374568316099172E-16, -1.000000000000000000, -2.775557561562929808E-16 ) ) ;
#374 = FACE_OUTER_BOUND ( 'NONE', #351, .T. ) ;
#375 = APPROVAL_DATE_TIME ( #147, #212 ) ;
#376 = DIRECTION ( 'NONE',  ( 1.708961605327205007E-19, -1.000000000000000000, -2.775557561562929808E-16 ) ) ;
#377 = CARTESIAN_POINT ( 'NONE',  ( 6.999999999999946709, 0.000000000000000000, 0.000000000000000000 ) ) ;
#378 = VECTOR ( 'NONE', #312, 1000.000000000000000 ) ;
#379 = ORIENTED_EDGE ( 'NONE', *, *, #27, .F. ) ;
#380 = AXIS2_PLACEMENT_3D ( 'NONE', #9, #102, #209 ) ;
#381 = CARTESIAN_POINT ( 'NONE',  ( 3.499999999999987121, -0.0009999999999136255369, 32.00000000000001421 ) ) ;
#382 = ADVANCED_FACE ( 'NONE', ( #157 ), #53, .F. ) ;
#383 = ORIENTED_EDGE ( 'NONE', *, *, #341, .F. ) ;
#384 = ORIENTED_EDGE ( 'NONE', *, *, #196, .T. ) ;
#385 = VERTEX_POINT ( 'NONE', #222 ) ;
ENDSEC;
END-ISO-10303-21;
