ISO-10303-21;
HEADER;
FILE_DESCRIPTION (( 'STEP AP203' ),
    '1' );
FILE_NAME ('PinionMount_Default_sldprt.STEP',
    '2026-08-22T16:40:02',
    ( '' ),
    ( '' ),
    'SwSTEP 2.0',
    'SolidWorks 2020',
    '' );
FILE_SCHEMA (( 'CONFIG_CONTROL_DESIGN' ));
ENDSEC;

DATA;
#1 = CARTESIAN_POINT ( 'NONE',  ( 12.99999999999999822, 1.999999999999997780, 33.00000000000000000 ) ) ;
#2 = ADVANCED_FACE ( 'NONE', ( #137 ), #497, .F. ) ;
#3 = CIRCLE ( 'NONE', #332, 6.000000000000001776 ) ;
#4 = ORIENTED_EDGE ( 'NONE', *, *, #86, .F. ) ;
#5 = VERTEX_POINT ( 'NONE', #304 ) ;
#6 = ORIENTED_EDGE ( 'NONE', *, *, #395, .F. ) ;
#7 = ORIENTED_EDGE ( 'NONE', *, *, #354, .F. ) ;
#8 = VECTOR ( 'NONE', #455, 1000.000000000000000 ) ;
#9 = LOCAL_TIME ( 22, 10, 2.000000000000000000, #441 ) ;
#10 = EDGE_CURVE ( 'NONE', #294, #108, #182, .T. ) ;
#11 = LINE ( 'NONE', #496, #453 ) ;
#12 = EDGE_CURVE ( 'NONE', #112, #206, #472, .T. ) ;
#13 = VERTEX_POINT ( 'NONE', #259 ) ;
#14 = LINE ( 'NONE', #307, #482 ) ;
#15 = LINE ( 'NONE', #388, #302 ) ;
#16 = DIRECTION ( 'NONE',  ( -1.000000000000000000, 1.563071017093548135E-16, 0.000000000000000000 ) ) ;
#17 = CC_DESIGN_DATE_AND_TIME_ASSIGNMENT ( #188, #282, ( #413 ) ) ;
#18 = EDGE_LOOP ( 'NONE', ( #95, #434, #310, #437 ) ) ;
#19 = CARTESIAN_POINT ( 'NONE',  ( 0.000000000000000000, 16.99999999999999645, 20.00000000000000355 ) ) ;
#20 = DIRECTION ( 'NONE',  ( -1.000000000000000000, 1.563071017093548628E-16, 0.000000000000000000 ) ) ;
#21 = VERTEX_POINT ( 'NONE', #345 ) ;
#22 = CARTESIAN_POINT ( 'NONE',  ( 0.000000000000000000, 32.00000000000000000, 33.00000000000000000 ) ) ;
#23 = PERSON_AND_ORGANIZATION ( #412, #54 ) ;
#24 = DIRECTION ( 'NONE',  ( -1.000000000000000000, 1.563071017093547642E-16, 0.000000000000000000 ) ) ;
#25 = ORIENTED_EDGE ( 'NONE', *, *, #203, .F. ) ;
#26 = DIRECTION ( 'NONE',  ( -1.563071017093548135E-16, -1.000000000000000000, 0.000000000000000000 ) ) ;
#27 = DATE_AND_TIME ( #73, #43 ) ;
#28 = PERSON_AND_ORGANIZATION_ROLE ( 'design_owner' ) ;
#29 = EDGE_LOOP ( 'NONE', ( #117, #168, #101, #390 ) ) ;
#30 = FACE_OUTER_BOUND ( 'NONE', #442, .T. ) ;
#31 = PERSON_AND_ORGANIZATION ( #412, #54 ) ;
#32 = EDGE_LOOP ( 'NONE', ( #361, #48 ) ) ;
#33 = CYLINDRICAL_SURFACE ( 'NONE', #211, 2.000000000000000000 ) ;
#34 = AXIS2_PLACEMENT_3D ( 'NONE', #163, #478, #77 ) ;
#35 = AXIS2_PLACEMENT_3D ( 'NONE', #75, #148, #70 ) ;
#36 = ORIENTED_EDGE ( 'NONE', *, *, #187, .T. ) ;
#37 = EDGE_CURVE ( 'NONE', #56, #414, #420, .T. ) ;
#38 = FACE_OUTER_BOUND ( 'NONE', #105, .T. ) ;
#39 = PERSON_AND_ORGANIZATION ( #412, #54 ) ;
#40 = PLANE ( 'NONE',  #52 ) ;
#41 = DIRECTION ( 'NONE',  ( 0.000000000000000000, 0.000000000000000000, 1.000000000000000000 ) ) ;
#42 = AXIS2_PLACEMENT_3D ( 'NONE', #82, #243, #327 ) ;
#43 = LOCAL_TIME ( 22, 10, 2.000000000000000000, #198 ) ;
#44 = AXIS2_PLACEMENT_3D ( 'NONE', #64, #26, #512 ) ;
#45 = EDGE_LOOP ( 'NONE', ( #6, #207 ) ) ;
#46 = ORIENTED_EDGE ( 'NONE', *, *, #284, .T. ) ;
#47 = DIRECTION ( 'NONE',  ( 1.000000000000000000, 1.156482317317871478E-16, -0.000000000000000000 ) ) ;
#48 = ORIENTED_EDGE ( 'NONE', *, *, #452, .F. ) ;
#49 = DIRECTION ( 'NONE',  ( -0.000000000000000000, -1.000000000000000000, -0.000000000000000000 ) ) ;
#50 = EDGE_CURVE ( 'NONE', #296, #5, #14, .T. ) ;
#51 = LINE ( 'NONE', #100, #247 ) ;
#52 = AXIS2_PLACEMENT_3D ( 'NONE', #520, #359, #41 ) ;
#53 = ORIENTED_EDGE ( 'NONE', *, *, #256, .F. ) ;
#54 = ORGANIZATION ( 'UNSPECIFIED', 'UNSPECIFIED', '' ) ;
#55 = PLANE ( 'NONE',  #328 ) ;
#56 = VERTEX_POINT ( 'NONE', #131 ) ;
#57 = CARTESIAN_POINT ( 'NONE',  ( 6.000000000000003553, 2.000000000000000000, 33.00000000000000000 ) ) ;
#58 = CARTESIAN_POINT ( 'NONE',  ( 0.000000000000000000, 0.000000000000000000, 33.00000000000000000 ) ) ;
#59 = CARTESIAN_POINT ( 'NONE',  ( 6.000000000000001776, 16.99999999999999645, 20.00000000000000355 ) ) ;
#60 = LINE ( 'NONE', #250, #8 ) ;
#61 = CARTESIAN_POINT ( 'NONE',  ( 0.000000000000000000, 32.00000000000000000, 0.000000000000000000 ) ) ;
#62 = PLANE ( 'NONE',  #507 ) ;
#63 = ORIENTED_EDGE ( 'NONE', *, *, #411, .F. ) ;
#64 = CARTESIAN_POINT ( 'NONE',  ( 9.999999999999998224, -1.563199304157811276E-15, 30.00000000000000355 ) ) ;
#65 = SHAPE_DEFINITION_REPRESENTATION ( #164, #510 ) ;
#66 = CIRCLE ( 'NONE', #79, 2.000000000000000000 ) ;
#67 = CARTESIAN_POINT ( 'NONE',  ( 12.99999999999999822, -2.031992322221612255E-15, 33.00000000000000000 ) ) ;
#68 = ORIENTED_EDGE ( 'NONE', *, *, #358, .F. ) ;
#69 = LINE ( 'NONE', #230, #517 ) ;
#70 = DIRECTION ( 'NONE',  ( 1.000000000000000000, 0.000000000000000000, 0.000000000000000000 ) ) ;
#71 = ORIENTED_EDGE ( 'NONE', *, *, #485, .F. ) ;
#72 = CARTESIAN_POINT ( 'NONE',  ( 9.999999999999998224, 1.999999999999998668, 3.000000000000000000 ) ) ;
#73 = CALENDAR_DATE ( 2026, 22, 8 ) ;
#74 = ADVANCED_FACE ( 'NONE', ( #175 ), #428, .F. ) ;
#75 = CARTESIAN_POINT ( 'NONE',  ( 0.000000000000000000, 0.000000000000000000, 0.000000000000000000 ) ) ;
#76 = ORIENTED_EDGE ( 'NONE', *, *, #277, .T. ) ;
#77 = DIRECTION ( 'NONE',  ( 0.000000000000000000, 0.000000000000000000, -1.000000000000000000 ) ) ;
#78 = CIRCLE ( 'NONE', #487, 2.000000000000000000 ) ;
#79 = AXIS2_PLACEMENT_3D ( 'NONE', #337, #184, #20 ) ;
#80 = CARTESIAN_POINT ( 'NONE',  ( 0.000000000000000000, 0.000000000000000000, 33.00000000000000000 ) ) ;
#81 = UNCERTAINTY_MEASURE_WITH_UNIT (LENGTH_MEASURE( 1.000000000000000082E-05 ), #143, 'distance_accuracy_value', 'NONE');
#82 = CARTESIAN_POINT ( 'NONE',  ( 9.999999999999998224, -0.001000000000004903217, 3.000000000000000000 ) ) ;
#83 = PRODUCT_RELATED_PRODUCT_CATEGORY ( 'detail', '', ( #410 ) ) ;
#84 = VECTOR ( 'NONE', #169, 1000.000000000000000 ) ;
#85 = CIRCLE ( 'NONE', #378, 2.000000000000000000 ) ;
#86 = EDGE_CURVE ( 'NONE', #157, #294, #60, .T. ) ;
#87 = AXIS2_PLACEMENT_3D ( 'NONE', #522, #158, #318 ) ;
#88 = VERTEX_POINT ( 'NONE', #57 ) ;
#89 = ORIENTED_EDGE ( 'NONE', *, *, #227, .F. ) ;
#90 = ORIENTED_EDGE ( 'NONE', *, *, #470, .F. ) ;
#91 = FACE_OUTER_BOUND ( 'NONE', #130, .T. ) ;
#92 = EDGE_CURVE ( 'NONE', #348, #299, #501, .T. ) ;
#93 = DIRECTION ( 'NONE',  ( -0.000000000000000000, -0.000000000000000000, -1.000000000000000000 ) ) ;
#94 = ORIENTED_EDGE ( 'NONE', *, *, #151, .F. ) ;
#95 = ORIENTED_EDGE ( 'NONE', *, *, #427, .F. ) ;
#96 = CARTESIAN_POINT ( 'NONE',  ( 9.999999999999998224, -1.563199304157811276E-15, 3.000000000000000000 ) ) ;
#97 = VECTOR ( 'NONE', #425, 1000.000000000000000 ) ;
#98 = DIRECTION ( 'NONE',  ( -0.000000000000000000, 1.000000000000000000, -0.000000000000000000 ) ) ;
#99 = CARTESIAN_POINT ( 'NONE',  ( 11.99999999999999822, 1.999999999999998224, 3.000000000000000444 ) ) ;
#100 = CARTESIAN_POINT ( 'NONE',  ( 12.99999999999999822, -2.031992322221612255E-15, 33.00000000000000000 ) ) ;
#101 = ORIENTED_EDGE ( 'NONE', *, *, #284, .F. ) ;
#102 = CARTESIAN_POINT ( 'NONE',  ( 6.000000000000003553, 2.000000000000000000, 33.00000000000000000 ) ) ;
#103 = DIRECTION ( 'NONE',  ( 0.000000000000000000, -1.000000000000000000, 0.000000000000000000 ) ) ;
#104 = CC_DESIGN_PERSON_AND_ORGANIZATION_ASSIGNMENT ( #363, #316, ( #366 ) ) ;
#105 = EDGE_LOOP ( 'NONE', ( #25, #185, #370, #196, #214, #141 ) ) ;
#106 = CARTESIAN_POINT ( 'NONE',  ( 12.99999999999999822, -2.031992322221612255E-15, 33.00000000000000000 ) ) ;
#107 = DIRECTION ( 'NONE',  ( -1.445602896647338917E-16, 1.000000000000000000, 0.000000000000000000 ) ) ;
#108 = VERTEX_POINT ( 'NONE', #416 ) ;
#109 = DIRECTION ( 'NONE',  ( -1.000000000000000000, 2.168404344971008868E-16, 0.000000000000000000 ) ) ;
#110 = VECTOR ( 'NONE', #375, 1000.000000000000000 ) ;
#111 = VECTOR ( 'NONE', #432, 1000.000000000000000 ) ;
#112 = VERTEX_POINT ( 'NONE', #219 ) ;
#113 = EDGE_CURVE ( 'NONE', #13, #206, #178, .T. ) ;
#114 = LINE ( 'NONE', #273, #409 ) ;
#115 = ADVANCED_FACE ( 'NONE', ( #91 ), #123, .F. ) ;
#116 = DATE_AND_TIME ( #199, #462 ) ;
#117 = ORIENTED_EDGE ( 'NONE', *, *, #10, .T. ) ;
#118 = CARTESIAN_POINT ( 'NONE',  ( 9.999999999999998224, -0.001000000000004903217, 3.000000000000000000 ) ) ;
#119 = DATE_AND_TIME ( #473, #488 ) ;
#120 = DIRECTION ( 'NONE',  ( 1.000000000000000000, -1.563071017093548135E-16, -0.000000000000000000 ) ) ;
#121 = AXIS2_PLACEMENT_3D ( 'NONE', #475, #515, #271 ) ;
#122 = DIRECTION ( 'NONE',  ( -1.563071017093548135E-16, -1.000000000000000000, 0.000000000000000000 ) ) ;
#123 = CYLINDRICAL_SURFACE ( 'NONE', #493, 2.000000000000000000 ) ;
#124 = VECTOR ( 'NONE', #365, 1000.000000000000000 ) ;
#125 = AXIS2_PLACEMENT_3D ( 'NONE', #458, #386, #253 ) ;
#126 = EDGE_CURVE ( 'NONE', #351, #430, #166, .T. ) ;
#127 = ORIENTED_EDGE ( 'NONE', *, *, #451, .T. ) ;
#128 = ADVANCED_FACE ( 'NONE', ( #321 ), #40, .F. ) ;
#129 = CIRCLE ( 'NONE', #445, 6.000000000000001776 ) ;
#130 = EDGE_LOOP ( 'NONE', ( #218, #424, #398, #7 ) ) ;
#131 = CARTESIAN_POINT ( 'NONE',  ( 12.99999999999999822, -2.031992322221612255E-15, 0.000000000000000000 ) ) ;
#132 = CARTESIAN_POINT ( 'NONE',  ( 0.000000000000000000, 32.00000000000000000, 33.00000000000000000 ) ) ;
#133 = VERTEX_POINT ( 'NONE', #399 ) ;
#134 = DIRECTION ( 'NONE',  ( -1.156552903396808926E-16, 1.000000000000000000, 0.000000000000000000 ) ) ;
#135 = CARTESIAN_POINT ( 'NONE',  ( 6.000000000000000000, 32.00000000000000000, 33.00000000000000000 ) ) ;
#136 = EDGE_LOOP ( 'NONE', ( #402, #4, #89, #146 ) ) ;
#137 = FACE_OUTER_BOUND ( 'NONE', #387, .T. ) ;
#138 = DIRECTION ( 'NONE',  ( -1.000000000000000000, 3.098023004582603490E-16, 0.000000000000000000 ) ) ;
#139 = CARTESIAN_POINT ( 'NONE',  ( 0.000000000000000000, 10.99999999999999645, 20.00000000000000355 ) ) ;
#140 = VECTOR ( 'NONE', #98, 1000.000000000000000 ) ;
#141 = ORIENTED_EDGE ( 'NONE', *, *, #37, .F. ) ;
#142 = CARTESIAN_POINT ( 'NONE',  ( 7.999999999999998224, -0.001000000000004283704, 3.000000000000000000 ) ) ;
#143 =( LENGTH_UNIT ( ) NAMED_UNIT ( * ) SI_UNIT ( .MILLI., .METRE. ) );
#144 = DIRECTION ( 'NONE',  ( -1.000000000000000000, 2.168404344971008868E-16, 0.000000000000000000 ) ) ;
#145 = FACE_OUTER_BOUND ( 'NONE', #29, .T. ) ;
#146 = ORIENTED_EDGE ( 'NONE', *, *, #485, .T. ) ;
#147 = FACE_BOUND ( 'NONE', #419, .T. ) ;
#148 = DIRECTION ( 'NONE',  ( 0.000000000000000000, 0.000000000000000000, 1.000000000000000000 ) ) ;
#149 = ADVANCED_FACE ( 'NONE', ( #448 ), #33, .F. ) ;
#150 = VERTEX_POINT ( 'NONE', #80 ) ;
#151 = EDGE_CURVE ( 'NONE', #299, #414, #200, .T. ) ;
#152 = VECTOR ( 'NONE', #120, 1000.000000000000000 ) ;
#153 = PLANE ( 'NONE',  #121 ) ;
#154 = AXIS2_PLACEMENT_3D ( 'NONE', #346, #349, #138 ) ;
#155 = AXIS2_PLACEMENT_3D ( 'NONE', #58, #260, #308 ) ;
#156 = CALENDAR_DATE ( 2026, 22, 8 ) ;
#157 = VERTEX_POINT ( 'NONE', #160 ) ;
#158 = DIRECTION ( 'NONE',  ( 0.000000000000000000, 0.000000000000000000, -1.000000000000000000 ) ) ;
#159 = SECURITY_CLASSIFICATION_LEVEL ( 'unclassified' ) ;
#160 = CARTESIAN_POINT ( 'NONE',  ( 0.000000000000000000, 32.00000000000000000, 33.00000000000000000 ) ) ;
#161 = APPROVAL_STATUS ( 'not_yet_approved' ) ;
#162 = DIRECTION ( 'NONE',  ( 1.000000000000000000, 1.156482317317871478E-16, -0.000000000000000000 ) ) ;
#163 = CARTESIAN_POINT ( 'NONE',  ( 0.000000000000000000, 16.99999999999999645, 20.00000000000000355 ) ) ;
#164 = PRODUCT_DEFINITION_SHAPE ( 'NONE', 'NONE',  #413 ) ;
#165 = ADVANCED_FACE ( 'NONE', ( #38 ), #276, .T. ) ;
#166 = CIRCLE ( 'NONE', #376, 2.000000000000000000 ) ;
#167 = CC_DESIGN_APPROVAL ( #322, ( #366 ) ) ;
#168 = ORIENTED_EDGE ( 'NONE', *, *, #277, .F. ) ;
#169 = DIRECTION ( 'NONE',  ( 3.097720492815729138E-16, 1.000000000000000000, -0.000000000000000000 ) ) ;
#170 = DIRECTION ( 'NONE',  ( -1.563071017093548135E-16, -1.000000000000000000, 0.000000000000000000 ) ) ;
#171 = LOCAL_TIME ( 22, 10, 2.000000000000000000, #404 ) ;
#172 = VERTEX_POINT ( 'NONE', #197 ) ;
#173 = CARTESIAN_POINT ( 'NONE',  ( 7.999999999999998224, 1.999999999999999112, 3.000000000000000000 ) ) ;
#174 = ORIENTED_EDGE ( 'NONE', *, *, #179, .F. ) ;
#175 = FACE_OUTER_BOUND ( 'NONE', #189, .T. ) ;
#176 = DIRECTION ( 'NONE',  ( -0.000000000000000000, -0.000000000000000000, -1.000000000000000000 ) ) ;
#177 = DIRECTION ( 'NONE',  ( 1.000000000000000000, 1.156482317317871478E-16, 0.000000000000000000 ) ) ;
#178 = LINE ( 'NONE', #222, #84 ) ;
#179 = EDGE_CURVE ( 'NONE', #384, #21, #400, .T. ) ;
#180 = PLANE ( 'NONE',  #155 ) ;
#181 = FACE_BOUND ( 'NONE', #45, .T. ) ;
#182 = LINE ( 'NONE', #300, #245 ) ;
#183 = CARTESIAN_POINT ( 'NONE',  ( 6.000000000000003553, 2.000000000000000000, 0.000000000000000000 ) ) ;
#184 = DIRECTION ( 'NONE',  ( -1.563071017093548135E-16, -1.000000000000000000, 0.000000000000000000 ) ) ;
#185 = ORIENTED_EDGE ( 'NONE', *, *, #10, .F. ) ;
#186 = LINE ( 'NONE', #385, #433 ) ;
#187 = EDGE_CURVE ( 'NONE', #384, #133, #405, .T. ) ;
#188 = DATE_AND_TIME ( #397, #171 ) ;
#189 = EDGE_LOOP ( 'NONE', ( #269, #36, #317, #393 ) ) ;
#190 = FACE_BOUND ( 'NONE', #272, .T. ) ;
#191 = PERSON_AND_ORGANIZATION ( #412, #54 ) ;
#192 = EDGE_LOOP ( 'NONE', ( #330, #357, #291, #342 ) ) ;
#193 = DIRECTION ( 'NONE',  ( 3.097720492815729138E-16, 1.000000000000000000, -0.000000000000000000 ) ) ;
#194 = VECTOR ( 'NONE', #431, 1000.000000000000000 ) ;
#195 = PERSON_AND_ORGANIZATION ( #412, #54 ) ;
#196 = ORIENTED_EDGE ( 'NONE', *, *, #50, .F. ) ;
#197 = CARTESIAN_POINT ( 'NONE',  ( 11.99999999999999822, -1.875813507576520853E-15, 30.00000000000000355 ) ) ;
#198 = COORDINATED_UNIVERSAL_TIME_OFFSET ( 5, 30, .AHEAD. ) ;
#199 = CALENDAR_DATE ( 2026, 22, 8 ) ;
#200 = LINE ( 'NONE', #1, #124 ) ;
#201 = DIRECTION ( 'NONE',  ( -1.000000000000000000, 1.563071017093547642E-16, 0.000000000000000000 ) ) ;
#202 = CIRCLE ( 'NONE', #287, 6.000000000000001776 ) ;
#203 = EDGE_CURVE ( 'NONE', #108, #56, #237, .T. ) ;
#204 = EDGE_CURVE ( 'NONE', #5, #294, #285, .T. ) ;
#205 =( GEOMETRIC_REPRESENTATION_CONTEXT ( 3 ) GLOBAL_UNCERTAINTY_ASSIGNED_CONTEXT ( ( #81 ) ) GLOBAL_UNIT_ASSIGNED_CONTEXT ( ( #143, #466, #481 ) ) REPRESENTATION_CONTEXT ( 'NONE', 'WORKASPACE' ) );
#206 = VERTEX_POINT ( 'NONE', #241 ) ;
#207 = ORIENTED_EDGE ( 'NONE', *, *, #126, .F. ) ;
#208 = DIRECTION ( 'NONE',  ( 1.000000000000000000, 1.156482317317871478E-16, -0.000000000000000000 ) ) ;
#209 = ORIENTED_EDGE ( 'NONE', *, *, #113, .F. ) ;
#210 = VERTEX_POINT ( 'NONE', #483 ) ;
#211 = AXIS2_PLACEMENT_3D ( 'NONE', #443, #193, #280 ) ;
#212 = FACE_OUTER_BOUND ( 'NONE', #136, .T. ) ;
#213 = AXIS2_PLACEMENT_3D ( 'NONE', #391, #461, #468 ) ;
#214 = ORIENTED_EDGE ( 'NONE', *, *, #329, .F. ) ;
#215 = CARTESIAN_POINT ( 'NONE',  ( 9.999999999999998224, 1.999999999999998668, 30.00000000000000355 ) ) ;
#216 = FACE_OUTER_BOUND ( 'NONE', #313, .T. ) ;
#217 = ADVANCED_FACE ( 'NONE', ( #406 ), #283, .F. ) ;
#218 = ORIENTED_EDGE ( 'NONE', *, *, #395, .T. ) ;
#219 = CARTESIAN_POINT ( 'NONE',  ( 11.99999999999999822, 1.999999999999998224, 30.00000000000000355 ) ) ;
#220 = FACE_BOUND ( 'NONE', #251, .T. ) ;
#221 = PLANE ( 'NONE',  #125 ) ;
#222 = CARTESIAN_POINT ( 'NONE',  ( 7.999999999999998224, -0.001000000000004283704, 30.00000000000000355 ) ) ;
#223 = CYLINDRICAL_SURFACE ( 'NONE', #154, 2.000000000000000000 ) ;
#224 = CARTESIAN_POINT ( 'NONE',  ( 6.000000000000003553, 2.000000000000000000, 33.00000000000000000 ) ) ;
#225 = ORIENTED_EDGE ( 'NONE', *, *, #246, .T. ) ;
#226 = DIRECTION ( 'NONE',  ( 3.097720492815729631E-16, 1.000000000000000000, 0.000000000000000000 ) ) ;
#227 = EDGE_CURVE ( 'NONE', #210, #157, #484, .T. ) ;
#228 = DIRECTION ( 'NONE',  ( 1.000000000000000000, -3.097720492815729631E-16, 0.000000000000000000 ) ) ;
#229 = VERTEX_POINT ( 'NONE', #99 ) ;
#230 = CARTESIAN_POINT ( 'NONE',  ( 11.99999999999999822, -0.001000000000005522730, 3.000000000000000444 ) ) ;
#231 = CC_DESIGN_PERSON_AND_ORGANIZATION_ASSIGNMENT ( #239, #232, ( #413 ) ) ;
#232 = PERSON_AND_ORGANIZATION_ROLE ( 'creator' ) ;
#233 = ORIENTED_EDGE ( 'NONE', *, *, #12, .F. ) ;
#234 = FACE_OUTER_BOUND ( 'NONE', #491, .T. ) ;
#235 = ORIENTED_EDGE ( 'NONE', *, *, #37, .T. ) ;
#236 = AXIS2_PLACEMENT_3D ( 'NONE', #215, #372, #144 ) ;
#237 = LINE ( 'NONE', #480, #152 ) ;
#238 = CC_DESIGN_APPROVAL ( #407, ( #495 ) ) ;
#239 = PERSON_AND_ORGANIZATION ( #412, #54 ) ;
#240 = ADVANCED_FACE ( 'NONE', ( #301, #234 ), #153, .F. ) ;
#241 = CARTESIAN_POINT ( 'NONE',  ( 7.999999999999998224, 1.999999999999999112, 30.00000000000000355 ) ) ;
#242 = CC_DESIGN_PERSON_AND_ORGANIZATION_ASSIGNMENT ( #39, #524, ( #495 ) ) ;
#243 = DIRECTION ( 'NONE',  ( 3.097720492815729138E-16, 1.000000000000000000, -0.000000000000000000 ) ) ;
#244 = EDGE_CURVE ( 'NONE', #21, #384, #3, .T. ) ;
#245 = VECTOR ( 'NONE', #49, 1000.000000000000000 ) ;
#246 = EDGE_CURVE ( 'NONE', #299, #88, #114, .T. ) ;
#247 = VECTOR ( 'NONE', #389, 1000.000000000000000 ) ;
#248 = AXIS2_PLACEMENT_3D ( 'NONE', #292, #47, #339 ) ;
#249 = CIRCLE ( 'NONE', #44, 2.000000000000000000 ) ;
#250 = CARTESIAN_POINT ( 'NONE',  ( 0.000000000000000000, 32.00000000000000000, 33.00000000000000000 ) ) ;
#251 = EDGE_LOOP ( 'NONE', ( #266, #174 ) ) ;
#252 = ORIENTED_EDGE ( 'NONE', *, *, #12, .T. ) ;
#253 = DIRECTION ( 'NONE',  ( -1.000000000000000000, 0.000000000000000000, -0.000000000000000000 ) ) ;
#254 = ORIENTED_EDGE ( 'NONE', *, *, #470, .T. ) ;
#255 = EDGE_CURVE ( 'NONE', #206, #112, #449, .T. ) ;
#256 = EDGE_CURVE ( 'NONE', #88, #296, #305, .T. ) ;
#257 = DIRECTION ( 'NONE',  ( -1.156482317317871478E-16, 1.000000000000000000, -0.000000000000000000 ) ) ;
#258 = AXIS2_PLACEMENT_3D ( 'NONE', #67, #382, #16 ) ;
#259 = CARTESIAN_POINT ( 'NONE',  ( 7.999999999999998224, -1.250585100739101501E-15, 30.00000000000000355 ) ) ;
#260 = DIRECTION ( 'NONE',  ( 1.000000000000000000, 0.000000000000000000, 0.000000000000000000 ) ) ;
#261 = CARTESIAN_POINT ( 'NONE',  ( 12.99999999999999822, -2.031992322221612255E-15, 33.00000000000000000 ) ) ;
#262 = DIRECTION ( 'NONE',  ( -1.156482317317871478E-16, 1.000000000000000000, -0.000000000000000000 ) ) ;
#263 = DIRECTION ( 'NONE',  ( -1.000000000000000000, 3.097720492815729631E-16, -0.000000000000000000 ) ) ;
#264 = APPROVAL_DATE_TIME ( #27, #407 ) ;
#265 = LINE ( 'NONE', #261, #111 ) ;
#266 = ORIENTED_EDGE ( 'NONE', *, *, #244, .F. ) ;
#267 = LINE ( 'NONE', #311, #421 ) ;
#268 = CARTESIAN_POINT ( 'NONE',  ( 6.000000000000000888, 23.00000000000000000, 20.00000000000000355 ) ) ;
#269 = ORIENTED_EDGE ( 'NONE', *, *, #244, .T. ) ;
#270 = CIRCLE ( 'NONE', #213, 2.000000000000000000 ) ;
#271 = DIRECTION ( 'NONE',  ( 1.156482317317871478E-16, -1.000000000000000000, 0.000000000000000000 ) ) ;
#272 = EDGE_LOOP ( 'NONE', ( #371, #233 ) ) ;
#273 = CARTESIAN_POINT ( 'NONE',  ( 6.000000000000003553, 2.000000000000000000, 33.00000000000000000 ) ) ;
#274 = MECHANICAL_CONTEXT ( 'NONE', #494, 'mechanical' ) ;
#275 = EDGE_LOOP ( 'NONE', ( #235, #94, #457, #254 ) ) ;
#276 = PLANE ( 'NONE',  #87 ) ;
#277 = EDGE_CURVE ( 'NONE', #150, #108, #267, .T. ) ;
#278 = COORDINATED_UNIVERSAL_TIME_OFFSET ( 5, 30, .AHEAD. ) ;
#279 = VECTOR ( 'NONE', #162, 1000.000000000000000 ) ;
#280 = DIRECTION ( 'NONE',  ( -1.000000000000000000, 3.098023004582603490E-16, 0.000000000000000000 ) ) ;
#281 = CC_DESIGN_APPROVAL ( #490, ( #413 ) ) ;
#282 = DATE_TIME_ROLE ( 'creation_date' ) ;
#283 = CYLINDRICAL_SURFACE ( 'NONE', #42, 2.000000000000000000 ) ;
#284 = EDGE_CURVE ( 'NONE', #157, #150, #15, .T. ) ;
#285 = LINE ( 'NONE', #446, #324 ) ;
#286 = AXIS2_PLACEMENT_3D ( 'NONE', #492, #208, #134 ) ;
#287 = AXIS2_PLACEMENT_3D ( 'NONE', #59, #422, #107 ) ;
#288 = ORIENTED_EDGE ( 'NONE', *, *, #295, .F. ) ;
#289 = CLOSED_SHELL ( 'NONE', ( #115, #297, #74, #523, #128, #368, #240, #373, #326, #486, #165, #2, #149, #217 ) ) ;
#290 = CC_DESIGN_SECURITY_CLASSIFICATION ( #495, ( #366 ) ) ;
#291 = ORIENTED_EDGE ( 'NONE', *, *, #354, .T. ) ;
#292 = CARTESIAN_POINT ( 'NONE',  ( -0.001000000000001867451, 16.99999999999999645, 20.00000000000000355 ) ) ;
#293 = DIRECTION ( 'NONE',  ( 1.000000000000000000, 1.156482317317871478E-16, -0.000000000000000000 ) ) ;
#294 = VERTEX_POINT ( 'NONE', #61 ) ;
#295 = EDGE_CURVE ( 'NONE', #474, #229, #78, .T. ) ;
#296 = VERTEX_POINT ( 'NONE', #183 ) ;
#297 = ADVANCED_FACE ( 'NONE', ( #30 ), #223, .F. ) ;
#298 = FACE_BOUND ( 'NONE', #374, .T. ) ;
#299 = VERTEX_POINT ( 'NONE', #315 ) ;
#300 = CARTESIAN_POINT ( 'NONE',  ( 0.000000000000000000, 0.000000000000000000, 0.000000000000000000 ) ) ;
#301 = FACE_BOUND ( 'NONE', #32, .T. ) ;
#302 = VECTOR ( 'NONE', #509, 1000.000000000000000 ) ;
#303 = CARTESIAN_POINT ( 'NONE',  ( 6.000000000000001776, 16.99999999999999645, 20.00000000000000355 ) ) ;
#304 = CARTESIAN_POINT ( 'NONE',  ( 6.000000000000000000, 32.00000000000000000, 0.000000000000000000 ) ) ;
#305 = LINE ( 'NONE', #102, #516 ) ;
#306 = APPROVAL_ROLE ( '' ) ;
#307 = CARTESIAN_POINT ( 'NONE',  ( 6.000000000000000000, 32.00000000000000000, 0.000000000000000000 ) ) ;
#308 = DIRECTION ( 'NONE',  ( 0.000000000000000000, 0.000000000000000000, -1.000000000000000000 ) ) ;
#309 = DIRECTION ( 'NONE',  ( -3.097720492815729631E-16, -1.000000000000000000, 0.000000000000000000 ) ) ;
#310 = ORIENTED_EDGE ( 'NONE', *, *, #113, .T. ) ;
#311 = CARTESIAN_POINT ( 'NONE',  ( 0.000000000000000000, 0.000000000000000000, 33.00000000000000000 ) ) ;
#312 = APPLICATION_PROTOCOL_DEFINITION ( 'international standard', 'config_control_design', 1994, #489 ) ;
#313 = EDGE_LOOP ( 'NONE', ( #519, #464, #225, #331, #336, #46 ) ) ;
#314 = APPROVAL_PERSON_ORGANIZATION ( #23, #407, #306 ) ;
#315 = CARTESIAN_POINT ( 'NONE',  ( 12.99999999999999822, 1.999999999999997780, 33.00000000000000000 ) ) ;
#316 = PERSON_AND_ORGANIZATION_ROLE ( 'design_supplier' ) ;
#317 = ORIENTED_EDGE ( 'NONE', *, *, #452, .T. ) ;
#318 = DIRECTION ( 'NONE',  ( -1.000000000000000000, 0.000000000000000000, -0.000000000000000000 ) ) ;
#319 = EDGE_CURVE ( 'NONE', #229, #474, #270, .T. ) ;
#320 = APPROVAL_STATUS ( 'not_yet_approved' ) ;
#321 = FACE_OUTER_BOUND ( 'NONE', #275, .T. ) ;
#322 = APPROVAL ( #161, 'UNSPECIFIED' ) ;
#323 = APPROVAL_DATE_TIME ( #119, #490 ) ;
#324 = VECTOR ( 'NONE', #325, 1000.000000000000000 ) ;
#325 = DIRECTION ( 'NONE',  ( -1.000000000000000000, -0.000000000000000000, -0.000000000000000000 ) ) ;
#326 = ADVANCED_FACE ( 'NONE', ( #220, #145 ), #180, .F. ) ;
#327 = DIRECTION ( 'NONE',  ( -1.000000000000000000, 3.098023004582603490E-16, 0.000000000000000000 ) ) ;
#328 = AXIS2_PLACEMENT_3D ( 'NONE', #132, #103, #418 ) ;
#329 = EDGE_CURVE ( 'NONE', #414, #296, #186, .T. ) ;
#330 = ORIENTED_EDGE ( 'NONE', *, *, #334, .F. ) ;
#331 = ORIENTED_EDGE ( 'NONE', *, *, #396, .T. ) ;
#332 = AXIS2_PLACEMENT_3D ( 'NONE', #19, #438, #465 ) ;
#333 = LINE ( 'NONE', #379, #377 ) ;
#334 = EDGE_CURVE ( 'NONE', #351, #229, #69, .T. ) ;
#335 = EDGE_LOOP ( 'NONE', ( #511, #90, #63, #76 ) ) ;
#336 = ORIENTED_EDGE ( 'NONE', *, *, #227, .T. ) ;
#337 = CARTESIAN_POINT ( 'NONE',  ( 9.999999999999998224, -1.563199304157811276E-15, 30.00000000000000355 ) ) ;
#338 = ORIENTED_EDGE ( 'NONE', *, *, #50, .T. ) ;
#339 = DIRECTION ( 'NONE',  ( -1.156552903396808926E-16, 1.000000000000000000, 0.000000000000000000 ) ) ;
#340 = DIRECTION ( 'NONE',  ( -0.000000000000000000, -0.000000000000000000, -1.000000000000000000 ) ) ;
#341 = CARTESIAN_POINT ( 'NONE',  ( 12.99999999999999822, 1.999999999999997780, 0.000000000000000000 ) ) ;
#342 = ORIENTED_EDGE ( 'NONE', *, *, #295, .T. ) ;
#343 = DIRECTION ( 'NONE',  ( 3.097720492815729138E-16, 1.000000000000000000, -0.000000000000000000 ) ) ;
#344 = PLANE ( 'NONE',  #258 ) ;
#345 = CARTESIAN_POINT ( 'NONE',  ( 0.000000000000000000, 23.00000000000000000, 20.00000000000000355 ) ) ;
#346 = CARTESIAN_POINT ( 'NONE',  ( 9.999999999999998224, -0.001000000000004903217, 30.00000000000000355 ) ) ;
#347 = FACE_OUTER_BOUND ( 'NONE', #335, .T. ) ;
#348 = VERTEX_POINT ( 'NONE', #106 ) ;
#349 = DIRECTION ( 'NONE',  ( 3.097720492815729138E-16, 1.000000000000000000, -0.000000000000000000 ) ) ;
#350 = APPROVAL_ROLE ( '' ) ;
#351 = VERTEX_POINT ( 'NONE', #394 ) ;
#352 = FACE_OUTER_BOUND ( 'NONE', #477, .T. ) ;
#353 = DATE_TIME_ROLE ( 'classification_date' ) ;
#354 = EDGE_CURVE ( 'NONE', #430, #474, #506, .T. ) ;
#355 = AXIS2_PLACEMENT_3D ( 'NONE', #429, #503, #471 ) ;
#356 = APPROVAL_PERSON_ORGANIZATION ( #195, #490, #360 ) ;
#357 = ORIENTED_EDGE ( 'NONE', *, *, #126, .T. ) ;
#358 = EDGE_CURVE ( 'NONE', #13, #172, #249, .T. ) ;
#359 = DIRECTION ( 'NONE',  ( -1.000000000000000000, 0.000000000000000000, 0.000000000000000000 ) ) ;
#360 = APPROVAL_ROLE ( '' ) ;
#361 = ORIENTED_EDGE ( 'NONE', *, *, #451, .F. ) ;
#362 = DIRECTION ( 'NONE',  ( -1.000000000000000000, 3.098023004582603490E-16, 0.000000000000000000 ) ) ;
#363 = PERSON_AND_ORGANIZATION ( #412, #54 ) ;
#364 = CARTESIAN_POINT ( 'NONE',  ( -0.001000000000001173561, 10.99999999999999645, 20.00000000000000355 ) ) ;
#365 = DIRECTION ( 'NONE',  ( -0.000000000000000000, -0.000000000000000000, -1.000000000000000000 ) ) ;
#366 = PRODUCT_DEFINITION_FORMATION_WITH_SPECIFIED_SOURCE ( 'ANY', '', #410, .NOT_KNOWN. ) ;
#367 = DESIGN_CONTEXT ( 'detailed design', #489, 'design' ) ;
#368 = ADVANCED_FACE ( 'NONE', ( #147, #190, #352 ), #62, .F. ) ;
#369 = VECTOR ( 'NONE', #257, 1000.000000000000000 ) ;
#370 = ORIENTED_EDGE ( 'NONE', *, *, #204, .F. ) ;
#371 = ORIENTED_EDGE ( 'NONE', *, *, #255, .F. ) ;
#372 = DIRECTION ( 'NONE',  ( 3.097720492815729631E-16, 1.000000000000000000, 0.000000000000000000 ) ) ;
#373 = ADVANCED_FACE ( 'NONE', ( #212 ), #55, .F. ) ;
#374 = EDGE_LOOP ( 'NONE', ( #68, #380 ) ) ;
#375 = DIRECTION ( 'NONE',  ( -0.000000000000000000, 1.000000000000000000, -0.000000000000000000 ) ) ;
#376 = AXIS2_PLACEMENT_3D ( 'NONE', #403, #122, #201 ) ;
#377 = VECTOR ( 'NONE', #463, 1000.000000000000000 ) ;
#378 = AXIS2_PLACEMENT_3D ( 'NONE', #96, #170, #24 ) ;
#379 = CARTESIAN_POINT ( 'NONE',  ( 11.99999999999999822, -0.001000000000005522730, 30.00000000000000355 ) ) ;
#380 = ORIENTED_EDGE ( 'NONE', *, *, #500, .F. ) ;
#381 = CARTESIAN_POINT ( 'NONE',  ( 12.99999999999999822, 1.999999999999997780, 0.000000000000000000 ) ) ;
#382 = DIRECTION ( 'NONE',  ( 1.563071017093548135E-16, 1.000000000000000000, -0.000000000000000000 ) ) ;
#383 = ORIENTED_EDGE ( 'NONE', *, *, #187, .F. ) ;
#384 = VERTEX_POINT ( 'NONE', #139 ) ;
#385 = CARTESIAN_POINT ( 'NONE',  ( 6.000000000000003553, 2.000000000000000000, 0.000000000000000000 ) ) ;
#386 = DIRECTION ( 'NONE',  ( 0.000000000000000000, 0.000000000000000000, -1.000000000000000000 ) ) ;
#387 = EDGE_LOOP ( 'NONE', ( #383, #514, #454, #127 ) ) ;
#388 = CARTESIAN_POINT ( 'NONE',  ( 0.000000000000000000, 0.000000000000000000, 33.00000000000000000 ) ) ;
#389 = DIRECTION ( 'NONE',  ( 1.000000000000000000, -1.563071017093548135E-16, -0.000000000000000000 ) ) ;
#390 = ORIENTED_EDGE ( 'NONE', *, *, #86, .T. ) ;
#391 = CARTESIAN_POINT ( 'NONE',  ( 9.999999999999998224, 1.999999999999998668, 3.000000000000000000 ) ) ;
#392 = CARTESIAN_POINT ( 'NONE',  ( 6.000000000000000000, 32.00000000000000000, 33.00000000000000000 ) ) ;
#393 = ORIENTED_EDGE ( 'NONE', *, *, #436, .F. ) ;
#394 = CARTESIAN_POINT ( 'NONE',  ( 11.99999999999999822, -1.875813507576520853E-15, 3.000000000000000444 ) ) ;
#395 = EDGE_CURVE ( 'NONE', #430, #351, #85, .T. ) ;
#396 = EDGE_CURVE ( 'NONE', #88, #210, #504, .T. ) ;
#397 = CALENDAR_DATE ( 2026, 22, 8 ) ;
#398 = ORIENTED_EDGE ( 'NONE', *, *, #319, .T. ) ;
#399 = CARTESIAN_POINT ( 'NONE',  ( 6.000000000000002665, 10.99999999999999645, 20.00000000000000355 ) ) ;
#400 = CIRCLE ( 'NONE', #34, 6.000000000000001776 ) ;
#401 = APPROVAL_PERSON_ORGANIZATION ( #31, #322, #350 ) ;
#402 = ORIENTED_EDGE ( 'NONE', *, *, #204, .T. ) ;
#403 = CARTESIAN_POINT ( 'NONE',  ( 9.999999999999998224, -1.563199304157811276E-15, 3.000000000000000000 ) ) ;
#404 = COORDINATED_UNIVERSAL_TIME_OFFSET ( 5, 30, .AHEAD. ) ;
#405 = LINE ( 'NONE', #364, #279 ) ;
#406 = FACE_OUTER_BOUND ( 'NONE', #192, .T. ) ;
#407 = APPROVAL ( #439, 'UNSPECIFIED' ) ;
#408 = MANIFOLD_SOLID_BREP ( 'Cut-Extrude2', #289 ) ;
#409 = VECTOR ( 'NONE', #263, 1000.000000000000000 ) ;
#410 = PRODUCT ( 'PinionMount_Default_sldprt', 'PinionMount_Default_sldprt', '', ( #274 ) ) ;
#411 = EDGE_CURVE ( 'NONE', #150, #348, #51, .T. ) ;
#412 = PERSON ( 'UNSPECIFIED', 'UNSPECIFIED', 'UNSPECIFIED', ('UNSPECIFIED'), ('UNSPECIFIED'), ('UNSPECIFIED') ) ;
#413 = PRODUCT_DEFINITION ( 'UNKNOWN', '', #366, #367 ) ;
#414 = VERTEX_POINT ( 'NONE', #341 ) ;
#415 = ORIENTED_EDGE ( 'NONE', *, *, #396, .F. ) ;
#416 = CARTESIAN_POINT ( 'NONE',  ( 0.000000000000000000, 0.000000000000000000, 0.000000000000000000 ) ) ;
#417 = ORIENTED_EDGE ( 'NONE', *, *, #256, .T. ) ;
#418 = DIRECTION ( 'NONE',  ( 0.000000000000000000, -0.000000000000000000, -1.000000000000000000 ) ) ;
#419 = EDGE_LOOP ( 'NONE', ( #288, #467 ) ) ;
#420 = LINE ( 'NONE', #381, #110 ) ;
#421 = VECTOR ( 'NONE', #340, 1000.000000000000000 ) ;
#422 = DIRECTION ( 'NONE',  ( 1.000000000000000000, 1.156482317317871478E-16, 0.000000000000000000 ) ) ;
#423 = VERTEX_POINT ( 'NONE', #268 ) ;
#424 = ORIENTED_EDGE ( 'NONE', *, *, #334, .T. ) ;
#425 = DIRECTION ( 'NONE',  ( -1.000000000000000000, -0.000000000000000000, -0.000000000000000000 ) ) ;
#426 = LINE ( 'NONE', #135, #450 ) ;
#427 = EDGE_CURVE ( 'NONE', #172, #112, #333, .T. ) ;
#428 = CYLINDRICAL_SURFACE ( 'NONE', #248, 6.000000000000001776 ) ;
#429 = CARTESIAN_POINT ( 'NONE',  ( 9.999999999999998224, 1.999999999999998668, 30.00000000000000355 ) ) ;
#430 = VERTEX_POINT ( 'NONE', #456 ) ;
#431 = DIRECTION ( 'NONE',  ( 3.097720492815729138E-16, 1.000000000000000000, -0.000000000000000000 ) ) ;
#432 = DIRECTION ( 'NONE',  ( -0.000000000000000000, -0.000000000000000000, -1.000000000000000000 ) ) ;
#433 = VECTOR ( 'NONE', #435, 1000.000000000000000 ) ;
#434 = ORIENTED_EDGE ( 'NONE', *, *, #500, .T. ) ;
#435 = DIRECTION ( 'NONE',  ( -1.000000000000000000, 3.097720492815729631E-16, -0.000000000000000000 ) ) ;
#436 = EDGE_CURVE ( 'NONE', #21, #423, #11, .T. ) ;
#437 = ORIENTED_EDGE ( 'NONE', *, *, #255, .T. ) ;
#438 = DIRECTION ( 'NONE',  ( -1.000000000000000000, -0.000000000000000000, -0.000000000000000000 ) ) ;
#439 = APPROVAL_STATUS ( 'not_yet_approved' ) ;
#440 = CC_DESIGN_PERSON_AND_ORGANIZATION_ASSIGNMENT ( #191, #518, ( #366 ) ) ;
#441 = COORDINATED_UNIVERSAL_TIME_OFFSET ( 5, 30, .AHEAD. ) ;
#442 = EDGE_LOOP ( 'NONE', ( #459, #469, #252, #209 ) ) ;
#443 = CARTESIAN_POINT ( 'NONE',  ( 9.999999999999998224, -0.001000000000004903217, 30.00000000000000355 ) ) ;
#444 = APPLICATION_PROTOCOL_DEFINITION ( 'international standard', 'config_control_design', 1994, #494 ) ;
#445 = AXIS2_PLACEMENT_3D ( 'NONE', #303, #177, #498 ) ;
#446 = CARTESIAN_POINT ( 'NONE',  ( 0.000000000000000000, 32.00000000000000000, 0.000000000000000000 ) ) ;
#447 = CC_DESIGN_DATE_AND_TIME_ASSIGNMENT ( #116, #353, ( #495 ) ) ;
#448 = FACE_OUTER_BOUND ( 'NONE', #18, .T. ) ;
#449 = CIRCLE ( 'NONE', #355, 2.000000000000000000 ) ;
#450 = VECTOR ( 'NONE', #93, 1000.000000000000000 ) ;
#451 = EDGE_CURVE ( 'NONE', #423, #133, #129, .T. ) ;
#452 = EDGE_CURVE ( 'NONE', #133, #423, #202, .T. ) ;
#453 = VECTOR ( 'NONE', #293, 1000.000000000000000 ) ;
#454 = ORIENTED_EDGE ( 'NONE', *, *, #436, .T. ) ;
#455 = DIRECTION ( 'NONE',  ( -0.000000000000000000, -0.000000000000000000, -1.000000000000000000 ) ) ;
#456 = CARTESIAN_POINT ( 'NONE',  ( 7.999999999999998224, -1.250585100739101698E-15, 3.000000000000000000 ) ) ;
#457 = ORIENTED_EDGE ( 'NONE', *, *, #92, .F. ) ;
#458 = CARTESIAN_POINT ( 'NONE',  ( 0.000000000000000000, 0.000000000000000000, 33.00000000000000000 ) ) ;
#459 = ORIENTED_EDGE ( 'NONE', *, *, #358, .T. ) ;
#460 = CARTESIAN_POINT ( 'NONE',  ( 12.99999999999999822, 1.999999999999997780, 33.00000000000000000 ) ) ;
#461 = DIRECTION ( 'NONE',  ( 3.097720492815729631E-16, 1.000000000000000000, 0.000000000000000000 ) ) ;
#462 = LOCAL_TIME ( 22, 10, 2.000000000000000000, #278 ) ;
#463 = DIRECTION ( 'NONE',  ( 3.097720492815729138E-16, 1.000000000000000000, -0.000000000000000000 ) ) ;
#464 = ORIENTED_EDGE ( 'NONE', *, *, #92, .T. ) ;
#465 = DIRECTION ( 'NONE',  ( 0.000000000000000000, 0.000000000000000000, -1.000000000000000000 ) ) ;
#466 =( NAMED_UNIT ( * ) PLANE_ANGLE_UNIT ( ) SI_UNIT ( $, .RADIAN. ) );
#467 = ORIENTED_EDGE ( 'NONE', *, *, #319, .F. ) ;
#468 = DIRECTION ( 'NONE',  ( -1.000000000000000000, 2.168404344971008868E-16, 0.000000000000000000 ) ) ;
#469 = ORIENTED_EDGE ( 'NONE', *, *, #427, .T. ) ;
#470 = EDGE_CURVE ( 'NONE', #348, #56, #265, .T. ) ;
#471 = DIRECTION ( 'NONE',  ( -1.000000000000000000, 2.168404344971008868E-16, 0.000000000000000000 ) ) ;
#472 = CIRCLE ( 'NONE', #236, 2.000000000000000000 ) ;
#473 = CALENDAR_DATE ( 2026, 22, 8 ) ;
#474 = VERTEX_POINT ( 'NONE', #173 ) ;
#475 = CARTESIAN_POINT ( 'NONE',  ( 6.000000000000000000, 32.00000000000000000, 33.00000000000000000 ) ) ;
#476 = COORDINATED_UNIVERSAL_TIME_OFFSET ( 5, 30, .AHEAD. ) ;
#477 = EDGE_LOOP ( 'NONE', ( #505, #53, #508, #499 ) ) ;
#478 = DIRECTION ( 'NONE',  ( -1.000000000000000000, -0.000000000000000000, -0.000000000000000000 ) ) ;
#479 = PERSON_AND_ORGANIZATION ( #412, #54 ) ;
#480 = CARTESIAN_POINT ( 'NONE',  ( 12.99999999999999822, -2.031992322221612255E-15, 0.000000000000000000 ) ) ;
#481 =( NAMED_UNIT ( * ) SI_UNIT ( $, .STERADIAN. ) SOLID_ANGLE_UNIT ( ) );
#482 = VECTOR ( 'NONE', #262, 1000.000000000000000 ) ;
#483 = CARTESIAN_POINT ( 'NONE',  ( 6.000000000000000000, 32.00000000000000000, 33.00000000000000000 ) ) ;
#484 = LINE ( 'NONE', #22, #97 ) ;
#485 = EDGE_CURVE ( 'NONE', #210, #5, #426, .T. ) ;
#486 = ADVANCED_FACE ( 'NONE', ( #216 ), #221, .F. ) ;
#487 = AXIS2_PLACEMENT_3D ( 'NONE', #72, #226, #109 ) ;
#488 = LOCAL_TIME ( 22, 10, 2.000000000000000000, #476 ) ;
#489 = APPLICATION_CONTEXT ( 'configuration controlled 3d designs of mechanical parts and assemblies' ) ;
#490 = APPROVAL ( #320, 'UNSPECIFIED' ) ;
#491 = EDGE_LOOP ( 'NONE', ( #338, #71, #415, #417 ) ) ;
#492 = CARTESIAN_POINT ( 'NONE',  ( -0.001000000000001867451, 16.99999999999999645, 20.00000000000000355 ) ) ;
#493 = AXIS2_PLACEMENT_3D ( 'NONE', #118, #525, #362 ) ;
#494 = APPLICATION_CONTEXT ( 'configuration controlled 3d designs of mechanical parts and assemblies' ) ;
#495 = SECURITY_CLASSIFICATION ( '', '', #159 ) ;
#496 = CARTESIAN_POINT ( 'NONE',  ( -0.001000000000002561340, 23.00000000000000000, 20.00000000000000355 ) ) ;
#497 = CYLINDRICAL_SURFACE ( 'NONE', #286, 6.000000000000001776 ) ;
#498 = DIRECTION ( 'NONE',  ( -1.445602896647338917E-16, 1.000000000000000000, 0.000000000000000000 ) ) ;
#499 = ORIENTED_EDGE ( 'NONE', *, *, #151, .T. ) ;
#500 = EDGE_CURVE ( 'NONE', #172, #13, #66, .T. ) ;
#501 = LINE ( 'NONE', #460, #140 ) ;
#502 = CC_DESIGN_PERSON_AND_ORGANIZATION_ASSIGNMENT ( #479, #28, ( #410 ) ) ;
#503 = DIRECTION ( 'NONE',  ( 3.097720492815729631E-16, 1.000000000000000000, 0.000000000000000000 ) ) ;
#504 = LINE ( 'NONE', #392, #369 ) ;
#505 = ORIENTED_EDGE ( 'NONE', *, *, #329, .T. ) ;
#506 = LINE ( 'NONE', #142, #194 ) ;
#507 = AXIS2_PLACEMENT_3D ( 'NONE', #224, #309, #228 ) ;
#508 = ORIENTED_EDGE ( 'NONE', *, *, #246, .F. ) ;
#509 = DIRECTION ( 'NONE',  ( -0.000000000000000000, -1.000000000000000000, -0.000000000000000000 ) ) ;
#510 = ADVANCED_BREP_SHAPE_REPRESENTATION ( 'PinionMount_Default_sldprt', ( #408, #35 ), #205 ) ;
#511 = ORIENTED_EDGE ( 'NONE', *, *, #203, .T. ) ;
#512 = DIRECTION ( 'NONE',  ( -1.000000000000000000, 1.563071017093548628E-16, 0.000000000000000000 ) ) ;
#513 = APPROVAL_DATE_TIME ( #521, #322 ) ;
#514 = ORIENTED_EDGE ( 'NONE', *, *, #179, .T. ) ;
#515 = DIRECTION ( 'NONE',  ( -1.000000000000000000, -1.156482317317871478E-16, 0.000000000000000000 ) ) ;
#516 = VECTOR ( 'NONE', #176, 1000.000000000000000 ) ;
#517 = VECTOR ( 'NONE', #343, 1000.000000000000000 ) ;
#518 = PERSON_AND_ORGANIZATION_ROLE ( 'creator' ) ;
#519 = ORIENTED_EDGE ( 'NONE', *, *, #411, .T. ) ;
#520 = CARTESIAN_POINT ( 'NONE',  ( 12.99999999999999822, 1.999999999999997780, 33.00000000000000000 ) ) ;
#521 = DATE_AND_TIME ( #156, #9 ) ;
#522 = CARTESIAN_POINT ( 'NONE',  ( 0.000000000000000000, 0.000000000000000000, 0.000000000000000000 ) ) ;
#523 = ADVANCED_FACE ( 'NONE', ( #181, #298, #347 ), #344, .F. ) ;
#524 = PERSON_AND_ORGANIZATION_ROLE ( 'classification_officer' ) ;
#525 = DIRECTION ( 'NONE',  ( 3.097720492815729138E-16, 1.000000000000000000, -0.000000000000000000 ) ) ;
ENDSEC;
END-ISO-10303-21;
