ISO-10303-21;
HEADER;
FILE_DESCRIPTION (( 'STEP AP203' ),
    '1' );
FILE_NAME ('Roll2_Default_sldprt.STEP',
    '2026-08-22T16:40:04',
    ( '' ),
    ( '' ),
    'SwSTEP 2.0',
    'SolidWorks 2020',
    '' );
FILE_SCHEMA (( 'CONFIG_CONTROL_DESIGN' ));
ENDSEC;

DATA;
#1 = CARTESIAN_POINT ( 'NONE',  ( 5.000000000000000000, 0.000000000000000000, 41.00000000000000000 ) ) ;
#2 = EDGE_LOOP ( 'NONE', ( #355, #184 ) ) ;
#3 = DIRECTION ( 'NONE',  ( -1.000000000000000000, 0.000000000000000000, 0.000000000000000000 ) ) ;
#4 = VERTEX_POINT ( 'NONE', #91 ) ;
#5 = ORIENTED_EDGE ( 'NONE', *, *, #60, .F. ) ;
#6 = AXIS2_PLACEMENT_3D ( 'NONE', #71, #99, #133 ) ;
#7 = CARTESIAN_POINT ( 'NONE',  ( -5.000000000000000000, 0.000000000000000000, 0.000000000000000000 ) ) ;
#8 = CALENDAR_DATE ( 2026, 22, 8 ) ;
#9 = FACE_OUTER_BOUND ( 'NONE', #298, .T. ) ;
#10 = EDGE_LOOP ( 'NONE', ( #400, #396 ) ) ;
#11 = CARTESIAN_POINT ( 'NONE',  ( -5.000000000000000000, 0.000000000000000000, 10.00000000000000000 ) ) ;
#12 = AXIS2_PLACEMENT_3D ( 'NONE', #128, #269, #102 ) ;
#13 = ORIENTED_EDGE ( 'NONE', *, *, #252, .F. ) ;
#14 = PRODUCT_DEFINITION_FORMATION_WITH_SPECIFIED_SOURCE ( 'ANY', '', #155, .NOT_KNOWN. ) ;
#15 = LINE ( 'NONE', #158, #170 ) ;
#16 = ORIENTED_EDGE ( 'NONE', *, *, #366, .T. ) ;
#17 = AXIS2_PLACEMENT_3D ( 'NONE', #412, #48, #410 ) ;
#18 = CARTESIAN_POINT ( 'NONE',  ( -5.000000000000000000, 6.123233995736766282E-16, 25.00000000000000000 ) ) ;
#19 = LOCAL_TIME ( 22, 10, 4.000000000000000000, #399 ) ;
#20 = CALENDAR_DATE ( 2026, 22, 8 ) ;
#21 = CARTESIAN_POINT ( 'NONE',  ( 10.00000000000000000, 1.224646799147353256E-15, 25.00000000000000000 ) ) ;
#22 = PLANE ( 'NONE',  #307 ) ;
#23 = AXIS2_PLACEMENT_3D ( 'NONE', #251, #152, #222 ) ;
#24 = DIRECTION ( 'NONE',  ( 0.000000000000000000, 0.000000000000000000, 1.000000000000000000 ) ) ;
#25 = DIRECTION ( 'NONE',  ( 1.000000000000000000, 0.000000000000000000, 0.000000000000000000 ) ) ;
#26 = DIRECTION ( 'NONE',  ( -1.000000000000000000, 0.000000000000000000, 0.000000000000000000 ) ) ;
#27 = PLANE ( 'NONE',  #34 ) ;
#28 = AXIS2_PLACEMENT_3D ( 'NONE', #121, #147, #25 ) ;
#29 = FACE_OUTER_BOUND ( 'NONE', #104, .T. ) ;
#30 = FACE_OUTER_BOUND ( 'NONE', #359, .T. ) ;
#31 = VERTEX_POINT ( 'NONE', #224 ) ;
#32 = ORIENTED_EDGE ( 'NONE', *, *, #235, .F. ) ;
#33 = DIRECTION ( 'NONE',  ( -0.000000000000000000, -0.000000000000000000, -1.000000000000000000 ) ) ;
#34 = AXIS2_PLACEMENT_3D ( 'NONE', #284, #58, #372 ) ;
#35 = CARTESIAN_POINT ( 'NONE',  ( -10.00000000000000000, 0.000000000000000000, 25.00000000000000000 ) ) ;
#36 = VERTEX_POINT ( 'NONE', #49 ) ;
#37 = CARTESIAN_POINT ( 'NONE',  ( -10.00000000000000000, 0.000000000000000000, 41.00000000000000000 ) ) ;
#38 = PRODUCT_DEFINITION ( 'UNKNOWN', '', #14, #304 ) ;
#39 = VERTEX_POINT ( 'NONE', #255 ) ;
#40 = ADVANCED_FACE ( 'NONE', ( #29 ), #225, .T. ) ;
#41 = DIRECTION ( 'NONE',  ( -1.000000000000000000, 0.000000000000000000, 0.000000000000000000 ) ) ;
#42 = AXIS2_PLACEMENT_3D ( 'NONE', #316, #314, #286 ) ;
#43 = VERTEX_POINT ( 'NONE', #156 ) ;
#44 = DIRECTION ( 'NONE',  ( 1.000000000000000000, 0.000000000000000000, 0.000000000000000000 ) ) ;
#45 = FACE_OUTER_BOUND ( 'NONE', #106, .T. ) ;
#46 = ADVANCED_FACE ( 'NONE', ( #115 ), #384, .F. ) ;
#47 = DIRECTION ( 'NONE',  ( 0.000000000000000000, 0.000000000000000000, -1.000000000000000000 ) ) ;
#48 = DIRECTION ( 'NONE',  ( -0.000000000000000000, -0.000000000000000000, -1.000000000000000000 ) ) ;
#49 = CARTESIAN_POINT ( 'NONE',  ( 5.000000000000000000, 6.123233995736766282E-16, 10.00000000000000000 ) ) ;
#50 = DIRECTION ( 'NONE',  ( 1.000000000000000000, 0.000000000000000000, 0.000000000000000000 ) ) ;
#51 = ORIENTED_EDGE ( 'NONE', *, *, #252, .T. ) ;
#52 = CYLINDRICAL_SURFACE ( 'NONE', #258, 3.500000000000000000 ) ;
#53 = PERSON ( 'UNSPECIFIED', 'UNSPECIFIED', 'UNSPECIFIED', ('UNSPECIFIED'), ('UNSPECIFIED'), ('UNSPECIFIED') ) ;
#54 = CIRCLE ( 'NONE', #345, 3.500000000000000000 ) ;
#55 = CC_DESIGN_APPROVAL ( #260, ( #38 ) ) ;
#56 = EDGE_LOOP ( 'NONE', ( #263, #118 ) ) ;
#57 = EDGE_CURVE ( 'NONE', #324, #257, #54, .T. ) ;
#58 = DIRECTION ( 'NONE',  ( 0.000000000000000000, 0.000000000000000000, 1.000000000000000000 ) ) ;
#59 = DIRECTION ( 'NONE',  ( -1.000000000000000000, 0.000000000000000000, 0.000000000000000000 ) ) ;
#60 = EDGE_CURVE ( 'NONE', #132, #401, #163, .T. ) ;
#61 = DIRECTION ( 'NONE',  ( -1.000000000000000000, 0.000000000000000000, 0.000000000000000000 ) ) ;
#62 = DIRECTION ( 'NONE',  ( 0.000000000000000000, 0.000000000000000000, -1.000000000000000000 ) ) ;
#63 = VECTOR ( 'NONE', #173, 1000.000000000000000 ) ;
#64 = DATE_AND_TIME ( #95, #19 ) ;
#65 = VERTEX_POINT ( 'NONE', #215 ) ;
#66 = DIRECTION ( 'NONE',  ( 1.000000000000000000, 0.000000000000000000, 0.000000000000000000 ) ) ;
#67 = EDGE_CURVE ( 'NONE', #4, #205, #90, .T. ) ;
#68 = APPROVAL_DATE_TIME ( #129, #200 ) ;
#69 = ORIENTED_EDGE ( 'NONE', *, *, #218, .F. ) ;
#70 = DIRECTION ( 'NONE',  ( -0.000000000000000000, -0.000000000000000000, -1.000000000000000000 ) ) ;
#71 = CARTESIAN_POINT ( 'NONE',  ( 0.000000000000000000, 0.000000000000000000, 41.00000000000000000 ) ) ;
#72 = VECTOR ( 'NONE', #414, 1000.000000000000000 ) ;
#73 = ORIENTED_EDGE ( 'NONE', *, *, #79, .F. ) ;
#74 = LINE ( 'NONE', #141, #63 ) ;
#75 = CALENDAR_DATE ( 2026, 22, 8 ) ;
#76 = APPROVAL_PERSON_ORGANIZATION ( #169, #260, #241 ) ;
#77 = DATE_AND_TIME ( #75, #243 ) ;
#78 = APPROVAL_PERSON_ORGANIZATION ( #196, #97, #294 ) ;
#79 = EDGE_CURVE ( 'NONE', #166, #324, #148, .T. ) ;
#80 = DIRECTION ( 'NONE',  ( 0.000000000000000000, 0.000000000000000000, 1.000000000000000000 ) ) ;
#81 = FACE_OUTER_BOUND ( 'NONE', #56, .T. ) ;
#82 = CIRCLE ( 'NONE', #275, 10.00000000000000000 ) ;
#83 = DIRECTION ( 'NONE',  ( 1.000000000000000000, 0.000000000000000000, 0.000000000000000000 ) ) ;
#84 = CARTESIAN_POINT ( 'NONE',  ( -5.000000000000000000, 6.123233995736766282E-16, 25.00000000000000000 ) ) ;
#85 = EDGE_LOOP ( 'NONE', ( #352, #154, #92, #73 ) ) ;
#86 = CARTESIAN_POINT ( 'NONE',  ( 0.000000000000000000, 0.000000000000000000, 29.00000000000000000 ) ) ;
#87 = MANIFOLD_SOLID_BREP ( 'Cut-Extrude3', #189 ) ;
#88 = DIRECTION ( 'NONE',  ( 1.000000000000000000, 0.000000000000000000, -0.000000000000000000 ) ) ;
#89 = CARTESIAN_POINT ( 'NONE',  ( 3.500000000000000000, 0.000000000000000000, 41.00000000000000000 ) ) ;
#90 = CIRCLE ( 'NONE', #318, 5.000000000000000000 ) ;
#91 = CARTESIAN_POINT ( 'NONE',  ( 5.000000000000000000, 6.123233995736766282E-16, 0.000000000000000000 ) ) ;
#92 = ORIENTED_EDGE ( 'NONE', *, *, #409, .T. ) ;
#93 = PERSON_AND_ORGANIZATION_ROLE ( 'design_supplier' ) ;
#94 = DIRECTION ( 'NONE',  ( -0.000000000000000000, -0.000000000000000000, -1.000000000000000000 ) ) ;
#95 = CALENDAR_DATE ( 2026, 22, 8 ) ;
#96 = ORIENTED_EDGE ( 'NONE', *, *, #343, .F. ) ;
#97 = APPROVAL ( #192, 'UNSPECIFIED' ) ;
#98 = DIRECTION ( 'NONE',  ( -0.000000000000000000, -0.000000000000000000, 1.000000000000000000 ) ) ;
#99 = DIRECTION ( 'NONE',  ( 0.000000000000000000, 0.000000000000000000, 1.000000000000000000 ) ) ;
#100 = COORDINATED_UNIVERSAL_TIME_OFFSET ( 5, 30, .AHEAD. ) ;
#101 = EDGE_LOOP ( 'NONE', ( #16, #168, #193, #317 ) ) ;
#102 = DIRECTION ( 'NONE',  ( 1.000000000000000000, 0.000000000000000000, 0.000000000000000000 ) ) ;
#103 = ADVANCED_FACE ( 'NONE', ( #151 ), #220, .T. ) ;
#104 = EDGE_LOOP ( 'NONE', ( #32, #160, #51, #259 ) ) ;
#105 = CIRCLE ( 'NONE', #42, 10.00000000000000000 ) ;
#106 = EDGE_LOOP ( 'NONE', ( #96, #13 ) ) ;
#107 = PERSON_AND_ORGANIZATION_ROLE ( 'design_owner' ) ;
#108 = EDGE_CURVE ( 'NONE', #132, #43, #346, .T. ) ;
#109 = EDGE_CURVE ( 'NONE', #332, #180, #150, .T. ) ;
#110 = AXIS2_PLACEMENT_3D ( 'NONE', #249, #290, #61 ) ;
#111 = AXIS2_PLACEMENT_3D ( 'NONE', #186, #319, #3 ) ;
#112 = CARTESIAN_POINT ( 'NONE',  ( 0.000000000000000000, 0.000000000000000000, 0.000000000000000000 ) ) ;
#113 = LINE ( 'NONE', #306, #117 ) ;
#114 = DIRECTION ( 'NONE',  ( 1.000000000000000000, 0.000000000000000000, -0.000000000000000000 ) ) ;
#115 = FACE_OUTER_BOUND ( 'NONE', #303, .T. ) ;
#116 = CARTESIAN_POINT ( 'NONE',  ( 0.000000000000000000, 0.000000000000000000, 29.00000000000000000 ) ) ;
#117 = VECTOR ( 'NONE', #206, 1000.000000000000000 ) ;
#118 = ORIENTED_EDGE ( 'NONE', *, *, #235, .T. ) ;
#119 = DIRECTION ( 'NONE',  ( 0.000000000000000000, 0.000000000000000000, 1.000000000000000000 ) ) ;
#120 = DIRECTION ( 'NONE',  ( 0.000000000000000000, 0.000000000000000000, 1.000000000000000000 ) ) ;
#121 = CARTESIAN_POINT ( 'NONE',  ( 0.000000000000000000, 0.000000000000000000, 41.00000000000000000 ) ) ;
#122 = CC_DESIGN_PERSON_AND_ORGANIZATION_ASSIGNMENT ( #395, #238, ( #223 ) ) ;
#123 = ORIENTED_EDGE ( 'NONE', *, *, #167, .T. ) ;
#124 = PRODUCT_RELATED_PRODUCT_CATEGORY ( 'detail', '', ( #155 ) ) ;
#125 = AXIS2_PLACEMENT_3D ( 'NONE', #293, #159, #194 ) ;
#126 = EDGE_LOOP ( 'NONE', ( #295, #364 ) ) ;
#127 = APPROVAL_ROLE ( '' ) ;
#128 = CARTESIAN_POINT ( 'NONE',  ( 0.000000000000000000, 0.000000000000000000, 25.00000000000000000 ) ) ;
#129 = DATE_AND_TIME ( #8, #392 ) ;
#130 = ORIENTED_EDGE ( 'NONE', *, *, #321, .F. ) ;
#131 = CYLINDRICAL_SURFACE ( 'NONE', #390, 5.000000000000000000 ) ;
#132 = VERTEX_POINT ( 'NONE', #35 ) ;
#133 = DIRECTION ( 'NONE',  ( 1.000000000000000000, 0.000000000000000000, 0.000000000000000000 ) ) ;
#134 = AXIS2_PLACEMENT_3D ( 'NONE', #313, #24, #44 ) ;
#135 = ORIENTED_EDGE ( 'NONE', *, *, #109, .T. ) ;
#136 = EDGE_CURVE ( 'NONE', #31, #273, #337, .T. ) ;
#137 = DIRECTION ( 'NONE',  ( 1.000000000000000000, 0.000000000000000000, 0.000000000000000000 ) ) ;
#138 = ORIENTED_EDGE ( 'NONE', *, *, #67, .T. ) ;
#139 = ORIENTED_EDGE ( 'NONE', *, *, #378, .T. ) ;
#140 = CIRCLE ( 'NONE', #299, 5.000000000000000000 ) ;
#141 = CARTESIAN_POINT ( 'NONE',  ( 5.000000000000000000, 6.123233995736766282E-16, 10.00000000000000000 ) ) ;
#142 = CC_DESIGN_PERSON_AND_ORGANIZATION_ASSIGNMENT ( #333, #242, ( #38 ) ) ;
#143 = LINE ( 'NONE', #18, #413 ) ;
#144 = AXIS2_PLACEMENT_3D ( 'NONE', #375, #119, #114 ) ;
#145 = LOCAL_TIME ( 22, 10, 4.000000000000000000, #100 ) ;
#146 = DIRECTION ( 'NONE',  ( 1.000000000000000000, 0.000000000000000000, 0.000000000000000000 ) ) ;
#147 = DIRECTION ( 'NONE',  ( 0.000000000000000000, 0.000000000000000000, 1.000000000000000000 ) ) ;
#148 = LINE ( 'NONE', #285, #72 ) ;
#149 = FACE_OUTER_BOUND ( 'NONE', #85, .T. ) ;
#150 = CIRCLE ( 'NONE', #312, 5.000000000000000000 ) ;
#151 = FACE_OUTER_BOUND ( 'NONE', #126, .T. ) ;
#152 = DIRECTION ( 'NONE',  ( -0.000000000000000000, -0.000000000000000000, 1.000000000000000000 ) ) ;
#153 = ADVANCED_FACE ( 'NONE', ( #292 ), #385, .F. ) ;
#154 = ORIENTED_EDGE ( 'NONE', *, *, #393, .T. ) ;
#155 = PRODUCT ( 'Roll2_Default_sldprt', 'Roll2_Default_sldprt', '', ( #211 ) ) ;
#156 = CARTESIAN_POINT ( 'NONE',  ( -10.00000000000000000, 0.000000000000000000, 0.000000000000000000 ) ) ;
#157 = CIRCLE ( 'NONE', #28, 5.000000000000000000 ) ;
#158 = CARTESIAN_POINT ( 'NONE',  ( 5.000000000000000000, 0.000000000000000000, 25.00000000000000000 ) ) ;
#159 = DIRECTION ( 'NONE',  ( -0.000000000000000000, -0.000000000000000000, -1.000000000000000000 ) ) ;
#160 = ORIENTED_EDGE ( 'NONE', *, *, #321, .T. ) ;
#161 = DIRECTION ( 'NONE',  ( 1.000000000000000000, 0.000000000000000000, 0.000000000000000000 ) ) ;
#162 = ORIENTED_EDGE ( 'NONE', *, *, #109, .F. ) ;
#163 = CIRCLE ( 'NONE', #221, 10.00000000000000000 ) ;
#164 = AXIS2_PLACEMENT_3D ( 'NONE', #198, #165, #301 ) ;
#165 = DIRECTION ( 'NONE',  ( 0.000000000000000000, 0.000000000000000000, 1.000000000000000000 ) ) ;
#166 = VERTEX_POINT ( 'NONE', #261 ) ;
#167 = EDGE_CURVE ( 'NONE', #180, #273, #15, .T. ) ;
#168 = ORIENTED_EDGE ( 'NONE', *, *, #407, .T. ) ;
#169 = PERSON_AND_ORGANIZATION ( #53, #183 ) ;
#170 = VECTOR ( 'NONE', #98, 1000.000000000000000 ) ;
#171 = CC_DESIGN_DATE_AND_TIME_ASSIGNMENT ( #361, #272, ( #223 ) ) ;
#172 = APPROVAL_STATUS ( 'not_yet_approved' ) ;
#173 = DIRECTION ( 'NONE',  ( -0.000000000000000000, -0.000000000000000000, -1.000000000000000000 ) ) ;
#174 = DIRECTION ( 'NONE',  ( 0.000000000000000000, 0.000000000000000000, 1.000000000000000000 ) ) ;
#175 = AXIS2_PLACEMENT_3D ( 'NONE', #363, #62, #41 ) ;
#176 = ADVANCED_FACE ( 'NONE', ( #397 ), #227, .T. ) ;
#177 = DIRECTION ( 'NONE',  ( -0.000000000000000000, -0.000000000000000000, -1.000000000000000000 ) ) ;
#178 = ORIENTED_EDGE ( 'NONE', *, *, #246, .F. ) ;
#179 = CARTESIAN_POINT ( 'NONE',  ( 10.00000000000000000, 1.224646799147353256E-15, 41.00000000000000000 ) ) ;
#180 = VERTEX_POINT ( 'NONE', #353 ) ;
#181 = DIRECTION ( 'NONE',  ( 1.000000000000000000, 0.000000000000000000, 0.000000000000000000 ) ) ;
#182 = EDGE_CURVE ( 'NONE', #205, #4, #365, .T. ) ;
#183 = ORGANIZATION ( 'UNSPECIFIED', 'UNSPECIFIED', '' ) ;
#184 = ORIENTED_EDGE ( 'NONE', *, *, #322, .T. ) ;
#185 = PRODUCT_DEFINITION_SHAPE ( 'NONE', 'NONE',  #38 ) ;
#186 = CARTESIAN_POINT ( 'NONE',  ( 0.000000000000000000, 0.000000000000000000, 10.00000000000000000 ) ) ;
#187 = EDGE_LOOP ( 'NONE', ( #236, #162 ) ) ;
#188 = CARTESIAN_POINT ( 'NONE',  ( 0.000000000000000000, 0.000000000000000000, 41.00000000000000000 ) ) ;
#189 = CLOSED_SHELL ( 'NONE', ( #277, #176, #153, #40, #268, #380, #46, #403, #350, #195, #281, #348, #103 ) ) ;
#190 = AXIS2_PLACEMENT_3D ( 'NONE', #86, #248, #181 ) ;
#191 = DIRECTION ( 'NONE',  ( 0.000000000000000000, 0.000000000000000000, 1.000000000000000000 ) ) ;
#192 = APPROVAL_STATUS ( 'not_yet_approved' ) ;
#193 = ORIENTED_EDGE ( 'NONE', *, *, #279, .F. ) ;
#194 = DIRECTION ( 'NONE',  ( -1.000000000000000000, 0.000000000000000000, 0.000000000000000000 ) ) ;
#195 = ADVANCED_FACE ( 'NONE', ( #9 ), #131, .T. ) ;
#196 = PERSON_AND_ORGANIZATION ( #53, #183 ) ;
#197 = ORIENTED_EDGE ( 'NONE', *, *, #393, .F. ) ;
#198 = CARTESIAN_POINT ( 'NONE',  ( 0.000000000000000000, 0.000000000000000000, 0.000000000000000000 ) ) ;
#199 = SHAPE_DEFINITION_REPRESENTATION ( #185, #341 ) ;
#200 = APPROVAL ( #231, 'UNSPECIFIED' ) ;
#201 = ORIENTED_EDGE ( 'NONE', *, *, #182, .T. ) ;
#202 = CC_DESIGN_PERSON_AND_ORGANIZATION_ASSIGNMENT ( #240, #107, ( #155 ) ) ;
#203 = UNCERTAINTY_MEASURE_WITH_UNIT (LENGTH_MEASURE( 1.000000000000000082E-05 ), #371, 'distance_accuracy_value', 'NONE');
#204 = AXIS2_PLACEMENT_3D ( 'NONE', #328, #264, #394 ) ;
#205 = VERTEX_POINT ( 'NONE', #7 ) ;
#206 = DIRECTION ( 'NONE',  ( -0.000000000000000000, -0.000000000000000000, 1.000000000000000000 ) ) ;
#207 = APPROVAL_DATE_TIME ( #77, #260 ) ;
#208 = VECTOR ( 'NONE', #70, 1000.000000000000000 ) ;
#209 = APPLICATION_PROTOCOL_DEFINITION ( 'international standard', 'config_control_design', 1994, #334 ) ;
#210 = FACE_OUTER_BOUND ( 'NONE', #2, .T. ) ;
#211 = MECHANICAL_CONTEXT ( 'NONE', #334, 'mechanical' ) ;
#212 = EDGE_CURVE ( 'NONE', #39, #166, #347, .T. ) ;
#213 = CC_DESIGN_SECURITY_CLASSIFICATION ( #223, ( #14 ) ) ;
#214 = DIRECTION ( 'NONE',  ( -0.000000000000000000, -0.000000000000000000, 1.000000000000000000 ) ) ;
#215 = CARTESIAN_POINT ( 'NONE',  ( 10.00000000000000000, 1.224646799147353256E-15, 0.000000000000000000 ) ) ;
#216 = CARTESIAN_POINT ( 'NONE',  ( 0.000000000000000000, 0.000000000000000000, 25.00000000000000000 ) ) ;
#217 = DIRECTION ( 'NONE',  ( 0.000000000000000000, 0.000000000000000000, -1.000000000000000000 ) ) ;
#218 = EDGE_CURVE ( 'NONE', #253, #36, #239, .T. ) ;
#219 = FACE_BOUND ( 'NONE', #379, .T. ) ;
#220 = PLANE ( 'NONE',  #370 ) ;
#221 = AXIS2_PLACEMENT_3D ( 'NONE', #374, #376, #83 ) ;
#222 = DIRECTION ( 'NONE',  ( 1.000000000000000000, 0.000000000000000000, 0.000000000000000000 ) ) ;
#223 = SECURITY_CLASSIFICATION ( '', '', #226 ) ;
#224 = CARTESIAN_POINT ( 'NONE',  ( -5.000000000000000000, 6.123233995736766282E-16, 41.00000000000000000 ) ) ;
#225 = CYLINDRICAL_SURFACE ( 'NONE', #250, 10.00000000000000000 ) ;
#226 = SECURITY_CLASSIFICATION_LEVEL ( 'unclassified' ) ;
#227 = CYLINDRICAL_SURFACE ( 'NONE', #12, 5.000000000000000000 ) ;
#228 = APPROVAL_DATE_TIME ( #64, #97 ) ;
#229 = AXIS2_PLACEMENT_3D ( 'NONE', #278, #174, #146 ) ;
#230 = CARTESIAN_POINT ( 'NONE',  ( 0.000000000000000000, 0.000000000000000000, 25.00000000000000000 ) ) ;
#231 = APPROVAL_STATUS ( 'not_yet_approved' ) ;
#232 = ORIENTED_EDGE ( 'NONE', *, *, #136, .T. ) ;
#233 = DIRECTION ( 'NONE',  ( -1.000000000000000000, 0.000000000000000000, 0.000000000000000000 ) ) ;
#234 = CC_DESIGN_PERSON_AND_ORGANIZATION_ASSIGNMENT ( #302, #265, ( #14 ) ) ;
#235 = EDGE_CURVE ( 'NONE', #401, #132, #82, .T. ) ;
#236 = ORIENTED_EDGE ( 'NONE', *, *, #366, .F. ) ;
#237 = DIRECTION ( 'NONE',  ( -0.000000000000000000, -0.000000000000000000, 1.000000000000000000 ) ) ;
#238 = PERSON_AND_ORGANIZATION_ROLE ( 'classification_officer' ) ;
#239 = CIRCLE ( 'NONE', #373, 5.000000000000000000 ) ;
#240 = PERSON_AND_ORGANIZATION ( #53, #183 ) ;
#241 = APPROVAL_ROLE ( '' ) ;
#242 = PERSON_AND_ORGANIZATION_ROLE ( 'creator' ) ;
#243 = LOCAL_TIME ( 22, 10, 4.000000000000000000, #368 ) ;
#244 = CC_DESIGN_APPROVAL ( #200, ( #14 ) ) ;
#245 = DIRECTION ( 'NONE',  ( -0.000000000000000000, -0.000000000000000000, 1.000000000000000000 ) ) ;
#246 = EDGE_CURVE ( 'NONE', #253, #205, #360, .T. ) ;
#247 =( NAMED_UNIT ( * ) SI_UNIT ( $, .STERADIAN. ) SOLID_ANGLE_UNIT ( ) );
#248 = DIRECTION ( 'NONE',  ( 0.000000000000000000, 0.000000000000000000, 1.000000000000000000 ) ) ;
#249 = CARTESIAN_POINT ( 'NONE',  ( 0.000000000000000000, 0.000000000000000000, 10.00000000000000000 ) ) ;
#250 = AXIS2_PLACEMENT_3D ( 'NONE', #351, #33, #59 ) ;
#251 = CARTESIAN_POINT ( 'NONE',  ( 0.000000000000000000, 0.000000000000000000, 29.00000000000000000 ) ) ;
#252 = EDGE_CURVE ( 'NONE', #65, #43, #405, .T. ) ;
#253 = VERTEX_POINT ( 'NONE', #330 ) ;
#254 = FACE_OUTER_BOUND ( 'NONE', #382, .T. ) ;
#255 = CARTESIAN_POINT ( 'NONE',  ( -3.500000000000000000, 4.286263797015736595E-16, 29.00000000000000000 ) ) ;
#256 = PLANE ( 'NONE',  #144 ) ;
#257 = VERTEX_POINT ( 'NONE', #338 ) ;
#258 = AXIS2_PLACEMENT_3D ( 'NONE', #116, #214, #344 ) ;
#259 = ORIENTED_EDGE ( 'NONE', *, *, #108, .F. ) ;
#260 = APPROVAL ( #172, 'UNSPECIFIED' ) ;
#261 = CARTESIAN_POINT ( 'NONE',  ( 3.500000000000000000, 0.000000000000000000, 29.00000000000000000 ) ) ;
#262 = PERSON_AND_ORGANIZATION ( #53, #183 ) ;
#263 = ORIENTED_EDGE ( 'NONE', *, *, #60, .T. ) ;
#264 = DIRECTION ( 'NONE',  ( 0.000000000000000000, 0.000000000000000000, 1.000000000000000000 ) ) ;
#265 = PERSON_AND_ORGANIZATION_ROLE ( 'creator' ) ;
#266 = ORIENTED_EDGE ( 'NONE', *, *, #279, .T. ) ;
#267 =( GEOMETRIC_REPRESENTATION_CONTEXT ( 3 ) GLOBAL_UNCERTAINTY_ASSIGNED_CONTEXT ( ( #203 ) ) GLOBAL_UNIT_ASSIGNED_CONTEXT ( ( #371, #408, #247 ) ) REPRESENTATION_CONTEXT ( 'NONE', 'WORKASPACE' ) );
#268 = ADVANCED_FACE ( 'NONE', ( #254 ), #377, .T. ) ;
#269 = DIRECTION ( 'NONE',  ( -0.000000000000000000, -0.000000000000000000, 1.000000000000000000 ) ) ;
#270 = ORIENTED_EDGE ( 'NONE', *, *, #378, .F. ) ;
#271 = CARTESIAN_POINT ( 'NONE',  ( 0.000000000000000000, 0.000000000000000000, 25.00000000000000000 ) ) ;
#272 = DATE_TIME_ROLE ( 'classification_date' ) ;
#273 = VERTEX_POINT ( 'NONE', #1 ) ;
#274 = EDGE_LOOP ( 'NONE', ( #266, #232 ) ) ;
#275 = AXIS2_PLACEMENT_3D ( 'NONE', #230, #357, #66 ) ;
#276 = DATE_AND_TIME ( #20, #300 ) ;
#277 = ADVANCED_FACE ( 'NONE', ( #149 ), #52, .F. ) ;
#278 = CARTESIAN_POINT ( 'NONE',  ( 0.000000000000000000, 0.000000000000000000, 41.00000000000000000 ) ) ;
#279 = EDGE_CURVE ( 'NONE', #273, #31, #157, .T. ) ;
#280 = CIRCLE ( 'NONE', #229, 3.500000000000000000 ) ;
#281 = ADVANCED_FACE ( 'NONE', ( #219, #288 ), #256, .T. ) ;
#282 = CYLINDRICAL_SURFACE ( 'NONE', #23, 3.500000000000000000 ) ;
#283 = DIRECTION ( 'NONE',  ( 0.000000000000000000, 0.000000000000000000, 1.000000000000000000 ) ) ;
#284 = CARTESIAN_POINT ( 'NONE',  ( 0.000000000000000000, 0.000000000000000000, 25.00000000000000000 ) ) ;
#285 = CARTESIAN_POINT ( 'NONE',  ( 3.500000000000000000, 0.000000000000000000, 29.00000000000000000 ) ) ;
#286 = DIRECTION ( 'NONE',  ( 1.000000000000000000, 0.000000000000000000, 0.000000000000000000 ) ) ;
#287 = CARTESIAN_POINT ( 'NONE',  ( 0.000000000000000000, 0.000000000000000000, 29.00000000000000000 ) ) ;
#288 = FACE_OUTER_BOUND ( 'NONE', #274, .T. ) ;
#289 = ORIENTED_EDGE ( 'NONE', *, *, #343, .T. ) ;
#290 = DIRECTION ( 'NONE',  ( -0.000000000000000000, -0.000000000000000000, -1.000000000000000000 ) ) ;
#291 = CIRCLE ( 'NONE', #111, 5.000000000000000000 ) ;
#292 = FACE_OUTER_BOUND ( 'NONE', #387, .T. ) ;
#293 = CARTESIAN_POINT ( 'NONE',  ( 0.000000000000000000, 0.000000000000000000, 10.00000000000000000 ) ) ;
#294 = APPROVAL_ROLE ( '' ) ;
#295 = ORIENTED_EDGE ( 'NONE', *, *, #296, .T. ) ;
#296 = EDGE_CURVE ( 'NONE', #166, #39, #325, .T. ) ;
#297 = CARTESIAN_POINT ( 'NONE',  ( 0.000000000000000000, 0.000000000000000000, 10.00000000000000000 ) ) ;
#298 = EDGE_LOOP ( 'NONE', ( #362, #135, #123, #391 ) ) ;
#299 = AXIS2_PLACEMENT_3D ( 'NONE', #216, #340, #50 ) ;
#300 = LOCAL_TIME ( 22, 10, 4.000000000000000000, #308 ) ;
#301 = DIRECTION ( 'NONE',  ( 1.000000000000000000, 0.000000000000000000, 0.000000000000000000 ) ) ;
#302 = PERSON_AND_ORGANIZATION ( #53, #183 ) ;
#303 = EDGE_LOOP ( 'NONE', ( #270, #69, #339, #201 ) ) ;
#304 = DESIGN_CONTEXT ( 'detailed design', #356, 'design' ) ;
#305 = ORIENTED_EDGE ( 'NONE', *, *, #296, .F. ) ;
#306 = CARTESIAN_POINT ( 'NONE',  ( -3.500000000000000000, 4.286263797015736595E-16, 29.00000000000000000 ) ) ;
#307 = AXIS2_PLACEMENT_3D ( 'NONE', #112, #80, #369 ) ;
#308 = COORDINATED_UNIVERSAL_TIME_OFFSET ( 5, 30, .AHEAD. ) ;
#309 = CC_DESIGN_DATE_AND_TIME_ASSIGNMENT ( #276, #404, ( #38 ) ) ;
#310 = CARTESIAN_POINT ( 'NONE',  ( 0.000000000000000000, 0.000000000000000000, 10.00000000000000000 ) ) ;
#311 = FACE_BOUND ( 'NONE', #10, .T. ) ;
#312 = AXIS2_PLACEMENT_3D ( 'NONE', #326, #191, #161 ) ;
#313 = CARTESIAN_POINT ( 'NONE',  ( 0.000000000000000000, 0.000000000000000000, 0.000000000000000000 ) ) ;
#314 = DIRECTION ( 'NONE',  ( 0.000000000000000000, 0.000000000000000000, 1.000000000000000000 ) ) ;
#315 = CARTESIAN_POINT ( 'NONE',  ( 0.000000000000000000, 0.000000000000000000, 0.000000000000000000 ) ) ;
#316 = CARTESIAN_POINT ( 'NONE',  ( 0.000000000000000000, 0.000000000000000000, 0.000000000000000000 ) ) ;
#317 = ORIENTED_EDGE ( 'NONE', *, *, #167, .F. ) ;
#318 = AXIS2_PLACEMENT_3D ( 'NONE', #315, #217, #26 ) ;
#319 = DIRECTION ( 'NONE',  ( 0.000000000000000000, 0.000000000000000000, -1.000000000000000000 ) ) ;
#320 = ORIENTED_EDGE ( 'NONE', *, *, #322, .F. ) ;
#321 = EDGE_CURVE ( 'NONE', #401, #65, #381, .T. ) ;
#322 = EDGE_CURVE ( 'NONE', #36, #253, #291, .T. ) ;
#323 = ORIENTED_EDGE ( 'NONE', *, *, #79, .T. ) ;
#324 = VERTEX_POINT ( 'NONE', #89 ) ;
#325 = CIRCLE ( 'NONE', #190, 3.500000000000000000 ) ;
#326 = CARTESIAN_POINT ( 'NONE',  ( 0.000000000000000000, 0.000000000000000000, 25.00000000000000000 ) ) ;
#327 = ORIENTED_EDGE ( 'NONE', *, *, #57, .T. ) ;
#328 = CARTESIAN_POINT ( 'NONE',  ( 0.000000000000000000, 0.000000000000000000, 29.00000000000000000 ) ) ;
#329 = ORIENTED_EDGE ( 'NONE', *, *, #409, .F. ) ;
#330 = CARTESIAN_POINT ( 'NONE',  ( -5.000000000000000000, 0.000000000000000000, 10.00000000000000000 ) ) ;
#331 = ORIENTED_EDGE ( 'NONE', *, *, #108, .T. ) ;
#332 = VERTEX_POINT ( 'NONE', #84 ) ;
#333 = PERSON_AND_ORGANIZATION ( #53, #183 ) ;
#334 = APPLICATION_CONTEXT ( 'configuration controlled 3d designs of mechanical parts and assemblies' ) ;
#335 = DIRECTION ( 'NONE',  ( -1.000000000000000000, 0.000000000000000000, -0.000000000000000000 ) ) ;
#336 = PLANE ( 'NONE',  #354 ) ;
#337 = CIRCLE ( 'NONE', #6, 5.000000000000000000 ) ;
#338 = CARTESIAN_POINT ( 'NONE',  ( -3.500000000000000000, 4.286263797015736595E-16, 41.00000000000000000 ) ) ;
#339 = ORIENTED_EDGE ( 'NONE', *, *, #246, .T. ) ;
#340 = DIRECTION ( 'NONE',  ( 0.000000000000000000, 0.000000000000000000, 1.000000000000000000 ) ) ;
#341 = ADVANCED_BREP_SHAPE_REPRESENTATION ( 'Roll2_Default_sldprt', ( #87, #134 ), #267 ) ;
#342 = ORIENTED_EDGE ( 'NONE', *, *, #57, .F. ) ;
#343 = EDGE_CURVE ( 'NONE', #43, #65, #105, .T. ) ;
#344 = DIRECTION ( 'NONE',  ( 1.000000000000000000, 0.000000000000000000, 0.000000000000000000 ) ) ;
#345 = AXIS2_PLACEMENT_3D ( 'NONE', #188, #283, #411 ) ;
#346 = LINE ( 'NONE', #37, #383 ) ;
#347 = CIRCLE ( 'NONE', #204, 3.500000000000000000 ) ;
#348 = ADVANCED_FACE ( 'NONE', ( #30 ), #282, .F. ) ;
#349 = FACE_BOUND ( 'NONE', #187, .T. ) ;
#350 = ADVANCED_FACE ( 'NONE', ( #349, #81 ), #27, .T. ) ;
#351 = CARTESIAN_POINT ( 'NONE',  ( 0.000000000000000000, 0.000000000000000000, 41.00000000000000000 ) ) ;
#352 = ORIENTED_EDGE ( 'NONE', *, *, #212, .F. ) ;
#353 = CARTESIAN_POINT ( 'NONE',  ( 5.000000000000000000, 0.000000000000000000, 25.00000000000000000 ) ) ;
#354 = AXIS2_PLACEMENT_3D ( 'NONE', #310, #47, #335 ) ;
#355 = ORIENTED_EDGE ( 'NONE', *, *, #218, .T. ) ;
#356 = APPLICATION_CONTEXT ( 'configuration controlled 3d designs of mechanical parts and assemblies' ) ;
#357 = DIRECTION ( 'NONE',  ( 0.000000000000000000, 0.000000000000000000, 1.000000000000000000 ) ) ;
#358 = COORDINATED_UNIVERSAL_TIME_OFFSET ( 5, 30, .AHEAD. ) ;
#359 = EDGE_LOOP ( 'NONE', ( #197, #305, #323, #327 ) ) ;
#360 = LINE ( 'NONE', #11, #208 ) ;
#361 = DATE_AND_TIME ( #389, #145 ) ;
#362 = ORIENTED_EDGE ( 'NONE', *, *, #407, .F. ) ;
#363 = CARTESIAN_POINT ( 'NONE',  ( 0.000000000000000000, 0.000000000000000000, 0.000000000000000000 ) ) ;
#364 = ORIENTED_EDGE ( 'NONE', *, *, #212, .T. ) ;
#365 = CIRCLE ( 'NONE', #175, 5.000000000000000000 ) ;
#366 = EDGE_CURVE ( 'NONE', #180, #332, #140, .T. ) ;
#367 = APPLICATION_PROTOCOL_DEFINITION ( 'international standard', 'config_control_design', 1994, #356 ) ;
#368 = COORDINATED_UNIVERSAL_TIME_OFFSET ( 5, 30, .AHEAD. ) ;
#369 = DIRECTION ( 'NONE',  ( 1.000000000000000000, 0.000000000000000000, -0.000000000000000000 ) ) ;
#370 = AXIS2_PLACEMENT_3D ( 'NONE', #287, #120, #88 ) ;
#371 =( LENGTH_UNIT ( ) NAMED_UNIT ( * ) SI_UNIT ( .MILLI., .METRE. ) );
#372 = DIRECTION ( 'NONE',  ( 1.000000000000000000, 0.000000000000000000, -0.000000000000000000 ) ) ;
#373 = AXIS2_PLACEMENT_3D ( 'NONE', #297, #388, #233 ) ;
#374 = CARTESIAN_POINT ( 'NONE',  ( 0.000000000000000000, 0.000000000000000000, 25.00000000000000000 ) ) ;
#375 = CARTESIAN_POINT ( 'NONE',  ( 0.000000000000000000, 0.000000000000000000, 41.00000000000000000 ) ) ;
#376 = DIRECTION ( 'NONE',  ( 0.000000000000000000, 0.000000000000000000, 1.000000000000000000 ) ) ;
#377 = CYLINDRICAL_SURFACE ( 'NONE', #17, 10.00000000000000000 ) ;
#378 = EDGE_CURVE ( 'NONE', #36, #4, #74, .T. ) ;
#379 = EDGE_LOOP ( 'NONE', ( #342, #329 ) ) ;
#380 = ADVANCED_FACE ( 'NONE', ( #311, #45 ), #22, .F. ) ;
#381 = LINE ( 'NONE', #179, #402 ) ;
#382 = EDGE_LOOP ( 'NONE', ( #130, #5, #331, #289 ) ) ;
#383 = VECTOR ( 'NONE', #94, 1000.000000000000000 ) ;
#384 = CYLINDRICAL_SURFACE ( 'NONE', #110, 5.000000000000000000 ) ;
#385 = CYLINDRICAL_SURFACE ( 'NONE', #125, 5.000000000000000000 ) ;
#386 = PERSON_AND_ORGANIZATION ( #53, #183 ) ;
#387 = EDGE_LOOP ( 'NONE', ( #320, #139, #138, #178 ) ) ;
#388 = DIRECTION ( 'NONE',  ( 0.000000000000000000, 0.000000000000000000, -1.000000000000000000 ) ) ;
#389 = CALENDAR_DATE ( 2026, 22, 8 ) ;
#390 = AXIS2_PLACEMENT_3D ( 'NONE', #271, #237, #137 ) ;
#391 = ORIENTED_EDGE ( 'NONE', *, *, #136, .F. ) ;
#392 = LOCAL_TIME ( 22, 10, 4.000000000000000000, #358 ) ;
#393 = EDGE_CURVE ( 'NONE', #39, #257, #113, .T. ) ;
#394 = DIRECTION ( 'NONE',  ( 1.000000000000000000, 0.000000000000000000, 0.000000000000000000 ) ) ;
#395 = PERSON_AND_ORGANIZATION ( #53, #183 ) ;
#396 = ORIENTED_EDGE ( 'NONE', *, *, #67, .F. ) ;
#397 = FACE_OUTER_BOUND ( 'NONE', #101, .T. ) ;
#398 = CC_DESIGN_PERSON_AND_ORGANIZATION_ASSIGNMENT ( #386, #93, ( #14 ) ) ;
#399 = COORDINATED_UNIVERSAL_TIME_OFFSET ( 5, 30, .AHEAD. ) ;
#400 = ORIENTED_EDGE ( 'NONE', *, *, #182, .F. ) ;
#401 = VERTEX_POINT ( 'NONE', #21 ) ;
#402 = VECTOR ( 'NONE', #177, 1000.000000000000000 ) ;
#403 = ADVANCED_FACE ( 'NONE', ( #210 ), #336, .T. ) ;
#404 = DATE_TIME_ROLE ( 'creation_date' ) ;
#405 = CIRCLE ( 'NONE', #164, 10.00000000000000000 ) ;
#406 = APPROVAL_PERSON_ORGANIZATION ( #262, #200, #127 ) ;
#407 = EDGE_CURVE ( 'NONE', #332, #31, #143, .T. ) ;
#408 =( NAMED_UNIT ( * ) PLANE_ANGLE_UNIT ( ) SI_UNIT ( $, .RADIAN. ) );
#409 = EDGE_CURVE ( 'NONE', #257, #324, #280, .T. ) ;
#410 = DIRECTION ( 'NONE',  ( -1.000000000000000000, 0.000000000000000000, 0.000000000000000000 ) ) ;
#411 = DIRECTION ( 'NONE',  ( 1.000000000000000000, 0.000000000000000000, 0.000000000000000000 ) ) ;
#412 = CARTESIAN_POINT ( 'NONE',  ( 0.000000000000000000, 0.000000000000000000, 41.00000000000000000 ) ) ;
#413 = VECTOR ( 'NONE', #245, 1000.000000000000000 ) ;
#414 = DIRECTION ( 'NONE',  ( -0.000000000000000000, -0.000000000000000000, 1.000000000000000000 ) ) ;
#415 = CC_DESIGN_APPROVAL ( #97, ( #223 ) ) ;
ENDSEC;
END-ISO-10303-21;
