ISO-10303-21;
HEADER;
FILE_DESCRIPTION (( 'STEP AP203' ),
    '1' );
FILE_NAME ('Roller1_Default_sldprt.STEP',
    '2026-08-22T16:40:06',
    ( '' ),
    ( '' ),
    'SwSTEP 2.0',
    'SolidWorks 2020',
    '' );
FILE_SCHEMA (( 'CONFIG_CONTROL_DESIGN' ));
ENDSEC;

DATA;
#1 = LINE ( 'NONE', #19, #163 ) ;
#2 = DIRECTION ( 'NONE',  ( -1.000000000000000000, 0.000000000000000000, 0.000000000000000000 ) ) ;
#3 = VERTEX_POINT ( 'NONE', #125 ) ;
#4 = CIRCLE ( 'NONE', #8, 5.000000000000000000 ) ;
#5 = ORIENTED_EDGE ( 'NONE', *, *, #63, .T. ) ;
#6 = PERSON_AND_ORGANIZATION ( #230, #83 ) ;
#7 = APPROVAL_STATUS ( 'not_yet_approved' ) ;
#8 = AXIS2_PLACEMENT_3D ( 'NONE', #34, #92, #156 ) ;
#9 =( LENGTH_UNIT ( ) NAMED_UNIT ( * ) SI_UNIT ( .MILLI., .METRE. ) );
#10 = MECHANICAL_CONTEXT ( 'NONE', #29, 'mechanical' ) ;
#11 = LOCAL_TIME ( 22, 10, 6.000000000000000000, #69 ) ;
#12 = DIRECTION ( 'NONE',  ( 0.000000000000000000, 0.000000000000000000, -1.000000000000000000 ) ) ;
#13 = FACE_OUTER_BOUND ( 'NONE', #14, .T. ) ;
#14 = EDGE_LOOP ( 'NONE', ( #142, #121, #74, #24 ) ) ;
#15 = FACE_OUTER_BOUND ( 'NONE', #41, .T. ) ;
#16 = LOCAL_TIME ( 22, 10, 6.000000000000000000, #187 ) ;
#17 = DIRECTION ( 'NONE',  ( 1.000000000000000000, 0.000000000000000000, -0.000000000000000000 ) ) ;
#18 = ORIENTED_EDGE ( 'NONE', *, *, #98, .F. ) ;
#19 = CARTESIAN_POINT ( 'NONE',  ( -5.000000000000000000, 0.000000000000000000, 33.00000000000000000 ) ) ;
#20 = ORIENTED_EDGE ( 'NONE', *, *, #123, .F. ) ;
#21 = AXIS2_PLACEMENT_3D ( 'NONE', #157, #211, #213 ) ;
#22 = ORIENTED_EDGE ( 'NONE', *, *, #222, .F. ) ;
#23 = DIRECTION ( 'NONE',  ( -1.000000000000000000, 0.000000000000000000, 0.000000000000000000 ) ) ;
#24 = ORIENTED_EDGE ( 'NONE', *, *, #70, .F. ) ;
#25 = AXIS2_PLACEMENT_3D ( 'NONE', #251, #254, #91 ) ;
#26 = DATE_AND_TIME ( #45, #16 ) ;
#27 = CC_DESIGN_DATE_AND_TIME_ASSIGNMENT ( #231, #51, ( #174 ) ) ;
#28 = APPLICATION_PROTOCOL_DEFINITION ( 'international standard', 'config_control_design', 1994, #29 ) ;
#29 = APPLICATION_CONTEXT ( 'configuration controlled 3d designs of mechanical parts and assemblies' ) ;
#30 = DATE_AND_TIME ( #84, #33 ) ;
#31 = CARTESIAN_POINT ( 'NONE',  ( -2.500000000000000000, 0.000000000000000000, 30.00000000000000000 ) ) ;
#32 = DATE_AND_TIME ( #233, #124 ) ;
#33 = LOCAL_TIME ( 22, 10, 6.000000000000000000, #135 ) ;
#34 = CARTESIAN_POINT ( 'NONE',  ( 0.000000000000000000, 0.000000000000000000, 33.00000000000000000 ) ) ;
#35 = CARTESIAN_POINT ( 'NONE',  ( 0.000000000000000000, 0.000000000000000000, 33.00000000000000000 ) ) ;
#36 = APPROVAL_DATE_TIME ( #32, #195 ) ;
#37 = DIRECTION ( 'NONE',  ( 1.000000000000000000, 0.000000000000000000, -0.000000000000000000 ) ) ;
#38 = ORIENTED_EDGE ( 'NONE', *, *, #123, .T. ) ;
#39 = FACE_OUTER_BOUND ( 'NONE', #81, .T. ) ;
#40 = AXIS2_PLACEMENT_3D ( 'NONE', #141, #147, #43 ) ;
#41 = EDGE_LOOP ( 'NONE', ( #20, #180, #148, #221 ) ) ;
#42 = ADVANCED_FACE ( 'NONE', ( #66 ), #202, .T. ) ;
#43 = DIRECTION ( 'NONE',  ( -1.000000000000000000, 0.000000000000000000, 0.000000000000000000 ) ) ;
#44 = DIRECTION ( 'NONE',  ( 1.000000000000000000, 0.000000000000000000, 0.000000000000000000 ) ) ;
#45 = CALENDAR_DATE ( 2026, 22, 8 ) ;
#46 = VERTEX_POINT ( 'NONE', #162 ) ;
#47 = APPROVAL_DATE_TIME ( #30, #209 ) ;
#48 = UNCERTAINTY_MEASURE_WITH_UNIT (LENGTH_MEASURE( 1.000000000000000082E-05 ), #9, 'distance_accuracy_value', 'NONE');
#49 = AXIS2_PLACEMENT_3D ( 'NONE', #178, #58, #140 ) ;
#50 = EDGE_CURVE ( 'NONE', #61, #102, #206, .T. ) ;
#51 = DATE_TIME_ROLE ( 'creation_date' ) ;
#52 = DIRECTION ( 'NONE',  ( 0.000000000000000000, 0.000000000000000000, 1.000000000000000000 ) ) ;
#53 = EDGE_CURVE ( 'NONE', #102, #61, #89, .T. ) ;
#54 = CARTESIAN_POINT ( 'NONE',  ( 5.000000000000000000, 6.123233995736766282E-16, 33.00000000000000000 ) ) ;
#55 = AXIS2_PLACEMENT_3D ( 'NONE', #191, #12, #171 ) ;
#56 = DIRECTION ( 'NONE',  ( -1.000000000000000000, 0.000000000000000000, 0.000000000000000000 ) ) ;
#57 = ADVANCED_FACE ( 'NONE', ( #159 ), #218, .F. ) ;
#58 = DIRECTION ( 'NONE',  ( 0.000000000000000000, 0.000000000000000000, -1.000000000000000000 ) ) ;
#59 = CIRCLE ( 'NONE', #55, 2.500000000000000000 ) ;
#60 = ORIENTED_EDGE ( 'NONE', *, *, #161, .F. ) ;
#61 = VERTEX_POINT ( 'NONE', #120 ) ;
#62 = ORIENTED_EDGE ( 'NONE', *, *, #53, .F. ) ;
#63 = EDGE_CURVE ( 'NONE', #160, #200, #1, .T. ) ;
#64 = EDGE_LOOP ( 'NONE', ( #199, #60 ) ) ;
#65 = AXIS2_PLACEMENT_3D ( 'NONE', #175, #52, #137 ) ;
#66 = FACE_OUTER_BOUND ( 'NONE', #110, .T. ) ;
#67 = DIRECTION ( 'NONE',  ( -0.000000000000000000, -0.000000000000000000, -1.000000000000000000 ) ) ;
#68 = CALENDAR_DATE ( 2026, 22, 8 ) ;
#69 = COORDINATED_UNIVERSAL_TIME_OFFSET ( 5, 30, .AHEAD. ) ;
#70 = EDGE_CURVE ( 'NONE', #102, #179, #77, .T. ) ;
#71 = APPROVAL_DATE_TIME ( #249, #241 ) ;
#72 =( GEOMETRIC_REPRESENTATION_CONTEXT ( 3 ) GLOBAL_UNCERTAINTY_ASSIGNED_CONTEXT ( ( #48 ) ) GLOBAL_UNIT_ASSIGNED_CONTEXT ( ( #9, #210, #189 ) ) REPRESENTATION_CONTEXT ( 'NONE', 'WORKASPACE' ) );
#73 = CARTESIAN_POINT ( 'NONE',  ( 0.000000000000000000, 0.000000000000000000, 30.00000000000000000 ) ) ;
#74 = ORIENTED_EDGE ( 'NONE', *, *, #161, .T. ) ;
#75 = DIRECTION ( 'NONE',  ( 0.000000000000000000, 0.000000000000000000, -1.000000000000000000 ) ) ;
#76 = CARTESIAN_POINT ( 'NONE',  ( -5.000000000000000000, 0.000000000000000000, 0.000000000000000000 ) ) ;
#77 = LINE ( 'NONE', #240, #204 ) ;
#78 = ORIENTED_EDGE ( 'NONE', *, *, #53, .T. ) ;
#79 = ORIENTED_EDGE ( 'NONE', *, *, #253, .F. ) ;
#80 = APPROVAL_PERSON_ORGANIZATION ( #184, #195, #131 ) ;
#81 = EDGE_LOOP ( 'NONE', ( #78, #192 ) ) ;
#82 = DIRECTION ( 'NONE',  ( -0.000000000000000000, -0.000000000000000000, -1.000000000000000000 ) ) ;
#83 = ORGANIZATION ( 'UNSPECIFIED', 'UNSPECIFIED', '' ) ;
#84 = CALENDAR_DATE ( 2026, 22, 8 ) ;
#85 = ADVANCED_FACE ( 'NONE', ( #39 ), #99, .T. ) ;
#86 = PERSON_AND_ORGANIZATION ( #230, #83 ) ;
#87 = APPLICATION_PROTOCOL_DEFINITION ( 'international standard', 'config_control_design', 1994, #115 ) ;
#88 = PERSON_AND_ORGANIZATION_ROLE ( 'creator' ) ;
#89 = CIRCLE ( 'NONE', #40, 2.500000000000000000 ) ;
#90 = COORDINATED_UNIVERSAL_TIME_OFFSET ( 5, 30, .AHEAD. ) ;
#91 = DIRECTION ( 'NONE',  ( 1.000000000000000000, 0.000000000000000000, 0.000000000000000000 ) ) ;
#92 = DIRECTION ( 'NONE',  ( 0.000000000000000000, 0.000000000000000000, 1.000000000000000000 ) ) ;
#93 = DIRECTION ( 'NONE',  ( -0.000000000000000000, -0.000000000000000000, -1.000000000000000000 ) ) ;
#94 = AXIS2_PLACEMENT_3D ( 'NONE', #104, #108, #44 ) ;
#95 = FACE_OUTER_BOUND ( 'NONE', #215, .T. ) ;
#96 = ORIENTED_EDGE ( 'NONE', *, *, #222, .T. ) ;
#97 = DIRECTION ( 'NONE',  ( -0.000000000000000000, -0.000000000000000000, -1.000000000000000000 ) ) ;
#98 = EDGE_CURVE ( 'NONE', #160, #46, #118, .T. ) ;
#99 = PLANE ( 'NONE',  #49 ) ;
#100 = PRODUCT_RELATED_PRODUCT_CATEGORY ( 'detail', '', ( #225 ) ) ;
#101 = ORIENTED_EDGE ( 'NONE', *, *, #150, .F. ) ;
#102 = VERTEX_POINT ( 'NONE', #31 ) ;
#103 = CC_DESIGN_APPROVAL ( #195, ( #212 ) ) ;
#104 = CARTESIAN_POINT ( 'NONE',  ( 0.000000000000000000, 0.000000000000000000, 0.000000000000000000 ) ) ;
#105 = DATE_TIME_ROLE ( 'classification_date' ) ;
#106 = VECTOR ( 'NONE', #93, 1000.000000000000000 ) ;
#107 = PERSON_AND_ORGANIZATION_ROLE ( 'design_owner' ) ;
#108 = DIRECTION ( 'NONE',  ( 0.000000000000000000, 0.000000000000000000, 1.000000000000000000 ) ) ;
#109 = COORDINATED_UNIVERSAL_TIME_OFFSET ( 5, 30, .AHEAD. ) ;
#110 = EDGE_LOOP ( 'NONE', ( #158, #18, #5, #96 ) ) ;
#111 = DIRECTION ( 'NONE',  ( -1.000000000000000000, 0.000000000000000000, 0.000000000000000000 ) ) ;
#112 = PLANE ( 'NONE',  #154 ) ;
#113 = ORIENTED_EDGE ( 'NONE', *, *, #70, .T. ) ;
#114 = CARTESIAN_POINT ( 'NONE',  ( 0.000000000000000000, 0.000000000000000000, 0.000000000000000000 ) ) ;
#115 = APPLICATION_CONTEXT ( 'configuration controlled 3d designs of mechanical parts and assemblies' ) ;
#116 = ADVANCED_FACE ( 'NONE', ( #13 ), #216, .F. ) ;
#117 = CARTESIAN_POINT ( 'NONE',  ( 5.000000000000000000, 6.123233995736766282E-16, 0.000000000000000000 ) ) ;
#118 = CIRCLE ( 'NONE', #25, 5.000000000000000000 ) ;
#119 = CC_DESIGN_PERSON_AND_ORGANIZATION_ASSIGNMENT ( #247, #107, ( #225 ) ) ;
#120 = CARTESIAN_POINT ( 'NONE',  ( 2.500000000000000000, 3.061616997868383141E-16, 30.00000000000000000 ) ) ;
#121 = ORIENTED_EDGE ( 'NONE', *, *, #253, .T. ) ;
#122 = CC_DESIGN_PERSON_AND_ORGANIZATION_ASSIGNMENT ( #129, #226, ( #212 ) ) ;
#123 = EDGE_CURVE ( 'NONE', #46, #160, #4, .T. ) ;
#124 = LOCAL_TIME ( 22, 10, 6.000000000000000000, #90 ) ;
#125 = CARTESIAN_POINT ( 'NONE',  ( 2.500000000000000000, 3.061616997868383141E-16, 0.000000000000000000 ) ) ;
#126 = ORIENTED_EDGE ( 'NONE', *, *, #98, .T. ) ;
#127 = CIRCLE ( 'NONE', #149, 2.500000000000000000 ) ;
#128 = MANIFOLD_SOLID_BREP ( 'Cut-Extrude1', #146 ) ;
#129 = PERSON_AND_ORGANIZATION ( #230, #83 ) ;
#130 = LINE ( 'NONE', #133, #255 ) ;
#131 = APPROVAL_ROLE ( '' ) ;
#132 = PRODUCT_DEFINITION_FORMATION_WITH_SPECIFIED_SOURCE ( 'ANY', '', #225, .NOT_KNOWN. ) ;
#133 = CARTESIAN_POINT ( 'NONE',  ( 2.500000000000000000, 3.061616997868383141E-16, 30.00000000000000000 ) ) ;
#134 = SHAPE_DEFINITION_REPRESENTATION ( #136, #217 ) ;
#135 = COORDINATED_UNIVERSAL_TIME_OFFSET ( 5, 30, .AHEAD. ) ;
#136 = PRODUCT_DEFINITION_SHAPE ( 'NONE', 'NONE',  #174 ) ;
#137 = DIRECTION ( 'NONE',  ( 1.000000000000000000, 0.000000000000000000, 0.000000000000000000 ) ) ;
#138 = PLANE ( 'NONE',  #181 ) ;
#139 = FACE_OUTER_BOUND ( 'NONE', #243, .T. ) ;
#140 = DIRECTION ( 'NONE',  ( -1.000000000000000000, 0.000000000000000000, -0.000000000000000000 ) ) ;
#141 = CARTESIAN_POINT ( 'NONE',  ( 0.000000000000000000, 0.000000000000000000, 30.00000000000000000 ) ) ;
#142 = ORIENTED_EDGE ( 'NONE', *, *, #50, .F. ) ;
#143 = ADVANCED_FACE ( 'NONE', ( #173, #139 ), #112, .F. ) ;
#144 = VERTEX_POINT ( 'NONE', #117 ) ;
#145 = EDGE_LOOP ( 'NONE', ( #79, #62, #113, #239 ) ) ;
#146 = CLOSED_SHELL ( 'NONE', ( #116, #188, #42, #207, #143, #57, #85 ) ) ;
#147 = DIRECTION ( 'NONE',  ( 0.000000000000000000, 0.000000000000000000, -1.000000000000000000 ) ) ;
#148 = ORIENTED_EDGE ( 'NONE', *, *, #150, .T. ) ;
#149 = AXIS2_PLACEMENT_3D ( 'NONE', #155, #75, #56 ) ;
#150 = EDGE_CURVE ( 'NONE', #144, #200, #185, .T. ) ;
#151 = PERSON_AND_ORGANIZATION_ROLE ( 'design_supplier' ) ;
#152 = CC_DESIGN_DATE_AND_TIME_ASSIGNMENT ( #26, #105, ( #212 ) ) ;
#153 = PERSON_AND_ORGANIZATION_ROLE ( 'creator' ) ;
#154 = AXIS2_PLACEMENT_3D ( 'NONE', #114, #172, #37 ) ;
#155 = CARTESIAN_POINT ( 'NONE',  ( 0.000000000000000000, 0.000000000000000000, 0.000000000000000000 ) ) ;
#156 = DIRECTION ( 'NONE',  ( 1.000000000000000000, 0.000000000000000000, 0.000000000000000000 ) ) ;
#157 = CARTESIAN_POINT ( 'NONE',  ( 0.000000000000000000, 0.000000000000000000, 33.00000000000000000 ) ) ;
#158 = ORIENTED_EDGE ( 'NONE', *, *, #193, .F. ) ;
#159 = FACE_OUTER_BOUND ( 'NONE', #145, .T. ) ;
#160 = VERTEX_POINT ( 'NONE', #198 ) ;
#161 = EDGE_CURVE ( 'NONE', #3, #179, #127, .T. ) ;
#162 = CARTESIAN_POINT ( 'NONE',  ( 5.000000000000000000, 6.123233995736766282E-16, 33.00000000000000000 ) ) ;
#163 = VECTOR ( 'NONE', #97, 1000.000000000000000 ) ;
#164 = CARTESIAN_POINT ( 'NONE',  ( 0.000000000000000000, 0.000000000000000000, 33.00000000000000000 ) ) ;
#165 = PERSON_AND_ORGANIZATION ( #230, #83 ) ;
#166 = LOCAL_TIME ( 22, 10, 6.000000000000000000, #109 ) ;
#167 = APPROVAL_ROLE ( '' ) ;
#168 = APPROVAL_ROLE ( '' ) ;
#169 = APPROVAL_PERSON_ORGANIZATION ( #86, #209, #167 ) ;
#170 = SECURITY_CLASSIFICATION_LEVEL ( 'unclassified' ) ;
#171 = DIRECTION ( 'NONE',  ( -1.000000000000000000, 0.000000000000000000, 0.000000000000000000 ) ) ;
#172 = DIRECTION ( 'NONE',  ( 0.000000000000000000, 0.000000000000000000, 1.000000000000000000 ) ) ;
#173 = FACE_BOUND ( 'NONE', #64, .T. ) ;
#174 = PRODUCT_DEFINITION ( 'UNKNOWN', '', #132, #208 ) ;
#175 = CARTESIAN_POINT ( 'NONE',  ( 0.000000000000000000, 0.000000000000000000, 0.000000000000000000 ) ) ;
#176 = CARTESIAN_POINT ( 'NONE',  ( 0.000000000000000000, 0.000000000000000000, 30.00000000000000000 ) ) ;
#177 = CC_DESIGN_SECURITY_CLASSIFICATION ( #212, ( #132 ) ) ;
#178 = CARTESIAN_POINT ( 'NONE',  ( 0.000000000000000000, 0.000000000000000000, 30.00000000000000000 ) ) ;
#179 = VERTEX_POINT ( 'NONE', #234 ) ;
#180 = ORIENTED_EDGE ( 'NONE', *, *, #193, .T. ) ;
#181 = AXIS2_PLACEMENT_3D ( 'NONE', #35, #237, #17 ) ;
#182 = PERSON_AND_ORGANIZATION ( #230, #83 ) ;
#183 = CC_DESIGN_PERSON_AND_ORGANIZATION_ASSIGNMENT ( #182, #153, ( #174 ) ) ;
#184 = PERSON_AND_ORGANIZATION ( #230, #83 ) ;
#185 = CIRCLE ( 'NONE', #220, 5.000000000000000000 ) ;
#186 = AXIS2_PLACEMENT_3D ( 'NONE', #203, #67, #2 ) ;
#187 = COORDINATED_UNIVERSAL_TIME_OFFSET ( 5, 30, .AHEAD. ) ;
#188 = ADVANCED_FACE ( 'NONE', ( #15 ), #232, .T. ) ;
#189 =( NAMED_UNIT ( * ) SI_UNIT ( $, .STERADIAN. ) SOLID_ANGLE_UNIT ( ) );
#190 = CC_DESIGN_APPROVAL ( #209, ( #132 ) ) ;
#191 = CARTESIAN_POINT ( 'NONE',  ( 0.000000000000000000, 0.000000000000000000, 0.000000000000000000 ) ) ;
#192 = ORIENTED_EDGE ( 'NONE', *, *, #50, .T. ) ;
#193 = EDGE_CURVE ( 'NONE', #46, #144, #214, .T. ) ;
#194 = DIRECTION ( 'NONE',  ( -0.000000000000000000, -0.000000000000000000, -1.000000000000000000 ) ) ;
#195 = APPROVAL ( #7, 'UNSPECIFIED' ) ;
#196 = CARTESIAN_POINT ( 'NONE',  ( 0.000000000000000000, 0.000000000000000000, 0.000000000000000000 ) ) ;
#197 = APPROVAL_PERSON_ORGANIZATION ( #165, #241, #168 ) ;
#198 = CARTESIAN_POINT ( 'NONE',  ( -5.000000000000000000, 0.000000000000000000, 33.00000000000000000 ) ) ;
#199 = ORIENTED_EDGE ( 'NONE', *, *, #238, .F. ) ;
#200 = VERTEX_POINT ( 'NONE', #76 ) ;
#201 = AXIS2_PLACEMENT_3D ( 'NONE', #176, #245, #223 ) ;
#202 = CYLINDRICAL_SURFACE ( 'NONE', #224, 5.000000000000000000 ) ;
#203 = CARTESIAN_POINT ( 'NONE',  ( 0.000000000000000000, 0.000000000000000000, 30.00000000000000000 ) ) ;
#204 = VECTOR ( 'NONE', #219, 1000.000000000000000 ) ;
#205 = CALENDAR_DATE ( 2026, 22, 8 ) ;
#206 = CIRCLE ( 'NONE', #201, 2.500000000000000000 ) ;
#207 = ADVANCED_FACE ( 'NONE', ( #95 ), #138, .T. ) ;
#208 = DESIGN_CONTEXT ( 'detailed design', #115, 'design' ) ;
#209 = APPROVAL ( #250, 'UNSPECIFIED' ) ;
#210 =( NAMED_UNIT ( * ) PLANE_ANGLE_UNIT ( ) SI_UNIT ( $, .RADIAN. ) );
#211 = DIRECTION ( 'NONE',  ( -0.000000000000000000, -0.000000000000000000, -1.000000000000000000 ) ) ;
#212 = SECURITY_CLASSIFICATION ( '', '', #170 ) ;
#213 = DIRECTION ( 'NONE',  ( -1.000000000000000000, 0.000000000000000000, 0.000000000000000000 ) ) ;
#214 = LINE ( 'NONE', #54, #106 ) ;
#215 = EDGE_LOOP ( 'NONE', ( #126, #38 ) ) ;
#216 = CYLINDRICAL_SURFACE ( 'NONE', #228, 2.500000000000000000 ) ;
#217 = ADVANCED_BREP_SHAPE_REPRESENTATION ( 'Roller1_Default_sldprt', ( #128, #94 ), #72 ) ;
#218 = CYLINDRICAL_SURFACE ( 'NONE', #186, 2.500000000000000000 ) ;
#219 = DIRECTION ( 'NONE',  ( -0.000000000000000000, -0.000000000000000000, -1.000000000000000000 ) ) ;
#220 = AXIS2_PLACEMENT_3D ( 'NONE', #196, #236, #252 ) ;
#221 = ORIENTED_EDGE ( 'NONE', *, *, #63, .F. ) ;
#222 = EDGE_CURVE ( 'NONE', #200, #144, #235, .T. ) ;
#223 = DIRECTION ( 'NONE',  ( -1.000000000000000000, 0.000000000000000000, 0.000000000000000000 ) ) ;
#224 = AXIS2_PLACEMENT_3D ( 'NONE', #164, #246, #23 ) ;
#225 = PRODUCT ( 'Roller1_Default_sldprt', 'Roller1_Default_sldprt', '', ( #10 ) ) ;
#226 = PERSON_AND_ORGANIZATION_ROLE ( 'classification_officer' ) ;
#227 = APPROVAL_STATUS ( 'not_yet_approved' ) ;
#228 = AXIS2_PLACEMENT_3D ( 'NONE', #73, #194, #111 ) ;
#229 = CC_DESIGN_PERSON_AND_ORGANIZATION_ASSIGNMENT ( #6, #151, ( #132 ) ) ;
#230 = PERSON ( 'UNSPECIFIED', 'UNSPECIFIED', 'UNSPECIFIED', ('UNSPECIFIED'), ('UNSPECIFIED'), ('UNSPECIFIED') ) ;
#231 = DATE_AND_TIME ( #68, #166 ) ;
#232 = CYLINDRICAL_SURFACE ( 'NONE', #21, 5.000000000000000000 ) ;
#233 = CALENDAR_DATE ( 2026, 22, 8 ) ;
#234 = CARTESIAN_POINT ( 'NONE',  ( -2.500000000000000000, 0.000000000000000000, 0.000000000000000000 ) ) ;
#235 = CIRCLE ( 'NONE', #65, 5.000000000000000000 ) ;
#236 = DIRECTION ( 'NONE',  ( 0.000000000000000000, 0.000000000000000000, 1.000000000000000000 ) ) ;
#237 = DIRECTION ( 'NONE',  ( 0.000000000000000000, 0.000000000000000000, 1.000000000000000000 ) ) ;
#238 = EDGE_CURVE ( 'NONE', #179, #3, #59, .T. ) ;
#239 = ORIENTED_EDGE ( 'NONE', *, *, #238, .T. ) ;
#240 = CARTESIAN_POINT ( 'NONE',  ( -2.500000000000000000, 0.000000000000000000, 30.00000000000000000 ) ) ;
#241 = APPROVAL ( #227, 'UNSPECIFIED' ) ;
#242 = CC_DESIGN_PERSON_AND_ORGANIZATION_ASSIGNMENT ( #248, #88, ( #132 ) ) ;
#243 = EDGE_LOOP ( 'NONE', ( #22, #101 ) ) ;
#244 = CC_DESIGN_APPROVAL ( #241, ( #174 ) ) ;
#245 = DIRECTION ( 'NONE',  ( 0.000000000000000000, 0.000000000000000000, -1.000000000000000000 ) ) ;
#246 = DIRECTION ( 'NONE',  ( -0.000000000000000000, -0.000000000000000000, -1.000000000000000000 ) ) ;
#247 = PERSON_AND_ORGANIZATION ( #230, #83 ) ;
#248 = PERSON_AND_ORGANIZATION ( #230, #83 ) ;
#249 = DATE_AND_TIME ( #205, #11 ) ;
#250 = APPROVAL_STATUS ( 'not_yet_approved' ) ;
#251 = CARTESIAN_POINT ( 'NONE',  ( 0.000000000000000000, 0.000000000000000000, 33.00000000000000000 ) ) ;
#252 = DIRECTION ( 'NONE',  ( 1.000000000000000000, 0.000000000000000000, 0.000000000000000000 ) ) ;
#253 = EDGE_CURVE ( 'NONE', #61, #3, #130, .T. ) ;
#254 = DIRECTION ( 'NONE',  ( 0.000000000000000000, 0.000000000000000000, 1.000000000000000000 ) ) ;
#255 = VECTOR ( 'NONE', #82, 1000.000000000000000 ) ;
ENDSEC;
END-ISO-10303-21;
