ISO-10303-21;
HEADER;
FILE_DESCRIPTION (( 'STEP AP203' ),
    '1' );
FILE_NAME ('SuppoertBase_Default_sldprt.STEP',
    '2026-08-22T16:40:07',
    ( '' ),
    ( '' ),
    'SwSTEP 2.0',
    'SolidWorks 2020',
    '' );
FILE_SCHEMA (( 'CONFIG_CONTROL_DESIGN' ));
ENDSEC;

DATA;
#1 = CARTESIAN_POINT ( 'NONE',  ( 0.000000000000000000, 0.000000000000000000, 30.00000000000000000 ) ) ;
#2 = DIRECTION ( 'NONE',  ( -1.000000000000000000, 0.000000000000000000, 0.000000000000000000 ) ) ;
#3 = APPLICATION_CONTEXT ( 'configuration controlled 3d designs of mechanical parts and assemblies' ) ;
#4 = DIRECTION ( 'NONE',  ( 1.000000000000000000, 0.000000000000000000, 0.000000000000000000 ) ) ;
#5 = ORIENTED_EDGE ( 'NONE', *, *, #168, .T. ) ;
#6 = FACE_BOUND ( 'NONE', #231, .T. ) ;
#7 = DIRECTION ( 'NONE',  ( -0.000000000000000000, -0.000000000000000000, -1.000000000000000000 ) ) ;
#8 = VECTOR ( 'NONE', #264, 1000.000000000000000 ) ;
#9 = ORIENTED_EDGE ( 'NONE', *, *, #195, .T. ) ;
#10 = LINE ( 'NONE', #212, #213 ) ;
#11 = DIRECTION ( 'NONE',  ( -0.000000000000000000, -0.000000000000000000, -1.000000000000000000 ) ) ;
#12 = LINE ( 'NONE', #85, #265 ) ;
#13 = AXIS2_PLACEMENT_3D ( 'NONE', #175, #25, #304 ) ;
#14 = EDGE_CURVE ( 'NONE', #201, #138, #313, .T. ) ;
#15 = CIRCLE ( 'NONE', #256, 7.500000000000000000 ) ;
#16 = DATE_AND_TIME ( #323, #208 ) ;
#17 = APPLICATION_CONTEXT ( 'configuration controlled 3d designs of mechanical parts and assemblies' ) ;
#18 = ORIENTED_EDGE ( 'NONE', *, *, #241, .F. ) ;
#19 =( NAMED_UNIT ( * ) SI_UNIT ( $, .STERADIAN. ) SOLID_ANGLE_UNIT ( ) );
#20 = VECTOR ( 'NONE', #7, 1000.000000000000000 ) ;
#21 = DATE_AND_TIME ( #95, #89 ) ;
#22 = CARTESIAN_POINT ( 'NONE',  ( 0.000000000000000000, 0.000000000000000000, 20.00000000000000000 ) ) ;
#23 = APPROVAL_STATUS ( 'not_yet_approved' ) ;
#24 = CYLINDRICAL_SURFACE ( 'NONE', #193, 7.500000000000000000 ) ;
#25 = DIRECTION ( 'NONE',  ( 0.000000000000000000, 0.000000000000000000, 1.000000000000000000 ) ) ;
#26 = EDGE_CURVE ( 'NONE', #68, #33, #100, .T. ) ;
#27 = ORIENTED_EDGE ( 'NONE', *, *, #42, .F. ) ;
#28 = PLANE ( 'NONE',  #13 ) ;
#29 = ORIENTED_EDGE ( 'NONE', *, *, #14, .F. ) ;
#30 = CARTESIAN_POINT ( 'NONE',  ( 0.000000000000000000, 0.000000000000000000, 0.000000000000000000 ) ) ;
#31 = ORIENTED_EDGE ( 'NONE', *, *, #173, .F. ) ;
#32 = CARTESIAN_POINT ( 'NONE',  ( -50.00000000000000000, 0.000000000000000000, 20.00000000000000000 ) ) ;
#33 = VERTEX_POINT ( 'NONE', #259 ) ;
#34 = DIRECTION ( 'NONE',  ( -0.000000000000000000, -0.000000000000000000, -1.000000000000000000 ) ) ;
#35 = DIRECTION ( 'NONE',  ( -0.000000000000000000, -0.000000000000000000, -1.000000000000000000 ) ) ;
#36 = DIRECTION ( 'NONE',  ( 0.000000000000000000, 0.000000000000000000, 1.000000000000000000 ) ) ;
#37 = ADVANCED_FACE ( 'NONE', ( #237 ), #187, .T. ) ;
#38 = CIRCLE ( 'NONE', #206, 7.500000000000000000 ) ;
#39 = AXIS2_PLACEMENT_3D ( 'NONE', #278, #247, #67 ) ;
#40 = EDGE_CURVE ( 'NONE', #201, #234, #94, .T. ) ;
#41 = CIRCLE ( 'NONE', #86, 50.00000000000000000 ) ;
#42 = EDGE_CURVE ( 'NONE', #112, #138, #327, .T. ) ;
#43 = PERSON_AND_ORGANIZATION ( #88, #145 ) ;
#44 = DATE_TIME_ROLE ( 'creation_date' ) ;
#45 = CARTESIAN_POINT ( 'NONE',  ( 7.500000000000000000, 0.000000000000000000, 30.00000000000000000 ) ) ;
#46 = CARTESIAN_POINT ( 'NONE',  ( 0.000000000000000000, 0.000000000000000000, 30.00000000000000000 ) ) ;
#47 = DIRECTION ( 'NONE',  ( -0.000000000000000000, -0.000000000000000000, 1.000000000000000000 ) ) ;
#48 = VERTEX_POINT ( 'NONE', #45 ) ;
#49 = CIRCLE ( 'NONE', #248, 30.00000000000000000 ) ;
#50 = FACE_OUTER_BOUND ( 'NONE', #63, .T. ) ;
#51 = ORIENTED_EDGE ( 'NONE', *, *, #298, .T. ) ;
#52 = CARTESIAN_POINT ( 'NONE',  ( 0.000000000000000000, 0.000000000000000000, 19.99999999999999645 ) ) ;
#53 = PRODUCT ( 'SuppoertBase_Default_sldprt', 'SuppoertBase_Default_sldprt', '', ( #223 ) ) ;
#54 = ORIENTED_EDGE ( 'NONE', *, *, #331, .F. ) ;
#55 = DIRECTION ( 'NONE',  ( 1.000000000000000000, 0.000000000000000000, -0.000000000000000000 ) ) ;
#56 = EDGE_LOOP ( 'NONE', ( #54, #147, #135, #229 ) ) ;
#57 = CLOSED_SHELL ( 'NONE', ( #167, #215, #115, #37, #131, #204, #261, #251, #66, #169 ) ) ;
#58 = CYLINDRICAL_SURFACE ( 'NONE', #152, 30.00000000000000000 ) ;
#59 = APPROVAL ( #269, 'UNSPECIFIED' ) ;
#60 = VERTEX_POINT ( 'NONE', #255 ) ;
#61 = COORDINATED_UNIVERSAL_TIME_OFFSET ( 5, 30, .AHEAD. ) ;
#62 = AXIS2_PLACEMENT_3D ( 'NONE', #319, #35, #267 ) ;
#63 = EDGE_LOOP ( 'NONE', ( #27, #293 ) ) ;
#64 = CIRCLE ( 'NONE', #236, 30.00000000000000000 ) ;
#65 = DATE_AND_TIME ( #325, #192 ) ;
#66 = ADVANCED_FACE ( 'NONE', ( #280 ), #80, .F. ) ;
#67 = DIRECTION ( 'NONE',  ( 1.000000000000000000, 0.000000000000000000, 0.000000000000000000 ) ) ;
#68 = VERTEX_POINT ( 'NONE', #224 ) ;
#69 = APPLICATION_PROTOCOL_DEFINITION ( 'international standard', 'config_control_design', 1994, #3 ) ;
#70 = DIRECTION ( 'NONE',  ( 0.000000000000000000, 0.000000000000000000, 1.000000000000000000 ) ) ;
#71 = CIRCLE ( 'NONE', #170, 30.00000000000000000 ) ;
#72 = PERSON_AND_ORGANIZATION_ROLE ( 'classification_officer' ) ;
#73 = DIRECTION ( 'NONE',  ( 1.000000000000000000, 0.000000000000000000, -0.000000000000000000 ) ) ;
#74 = DIRECTION ( 'NONE',  ( 1.000000000000000000, 0.000000000000000000, 0.000000000000000000 ) ) ;
#75 = ORIENTED_EDGE ( 'NONE', *, *, #303, .F. ) ;
#76 = DIRECTION ( 'NONE',  ( 1.000000000000000000, 0.000000000000000000, 0.000000000000000000 ) ) ;
#77 = CARTESIAN_POINT ( 'NONE',  ( 50.00000000000000000, 6.123233995736766085E-15, 20.00000000000000000 ) ) ;
#78 = CIRCLE ( 'NONE', #279, 50.00000000000000000 ) ;
#79 =( GEOMETRIC_REPRESENTATION_CONTEXT ( 3 ) GLOBAL_UNCERTAINTY_ASSIGNED_CONTEXT ( ( #335 ) ) GLOBAL_UNIT_ASSIGNED_CONTEXT ( ( #137, #111, #19 ) ) REPRESENTATION_CONTEXT ( 'NONE', 'WORKASPACE' ) );
#80 = CYLINDRICAL_SURFACE ( 'NONE', #295, 7.500000000000000000 ) ;
#81 = CC_DESIGN_DATE_AND_TIME_ASSIGNMENT ( #302, #146, ( #301 ) ) ;
#82 = ORIENTED_EDGE ( 'NONE', *, *, #273, .T. ) ;
#83 = CARTESIAN_POINT ( 'NONE',  ( 7.500000000000000000, 0.000000000000000000, 19.99999999999999645 ) ) ;
#84 = EDGE_LOOP ( 'NONE', ( #82, #257 ) ) ;
#85 = CARTESIAN_POINT ( 'NONE',  ( -7.500000000000000000, 9.184850993605147944E-16, 19.99999999999999645 ) ) ;
#86 = AXIS2_PLACEMENT_3D ( 'NONE', #253, #102, #202 ) ;
#87 = LINE ( 'NONE', #83, #141 ) ;
#88 = PERSON ( 'UNSPECIFIED', 'UNSPECIFIED', 'UNSPECIFIED', ('UNSPECIFIED'), ('UNSPECIFIED'), ('UNSPECIFIED') ) ;
#89 = LOCAL_TIME ( 22, 10, 7.000000000000000000, #276 ) ;
#90 = ORIENTED_EDGE ( 'NONE', *, *, #40, .F. ) ;
#91 = APPROVAL ( #219, 'UNSPECIFIED' ) ;
#92 = VERTEX_POINT ( 'NONE', #96 ) ;
#93 = AXIS2_PLACEMENT_3D ( 'NONE', #266, #34, #2 ) ;
#94 = CIRCLE ( 'NONE', #244, 50.00000000000000000 ) ;
#95 = CALENDAR_DATE ( 2026, 22, 8 ) ;
#96 = CARTESIAN_POINT ( 'NONE',  ( -7.500000000000000000, 9.184850993605147944E-16, 19.99999999999999645 ) ) ;
#97 = PERSON_AND_ORGANIZATION_ROLE ( 'design_owner' ) ;
#98 = CARTESIAN_POINT ( 'NONE',  ( 7.500000000000000000, 0.000000000000000000, 19.99999999999999645 ) ) ;
#99 = VERTEX_POINT ( 'NONE', #98 ) ;
#100 = CIRCLE ( 'NONE', #307, 30.00000000000000000 ) ;
#101 = LOCAL_TIME ( 22, 10, 7.000000000000000000, #198 ) ;
#102 = DIRECTION ( 'NONE',  ( 0.000000000000000000, 0.000000000000000000, 1.000000000000000000 ) ) ;
#103 = ORIENTED_EDGE ( 'NONE', *, *, #26, .F. ) ;
#104 = DIRECTION ( 'NONE',  ( -0.000000000000000000, -0.000000000000000000, -1.000000000000000000 ) ) ;
#105 = EDGE_LOOP ( 'NONE', ( #157, #171, #284, #123 ) ) ;
#106 = EDGE_CURVE ( 'NONE', #203, #180, #71, .T. ) ;
#107 = CC_DESIGN_PERSON_AND_ORGANIZATION_ASSIGNMENT ( #329, #174, ( #287 ) ) ;
#108 = FACE_OUTER_BOUND ( 'NONE', #161, .T. ) ;
#109 = ORIENTED_EDGE ( 'NONE', *, *, #149, .T. ) ;
#110 = AXIS2_PLACEMENT_3D ( 'NONE', #52, #134, #190 ) ;
#111 =( NAMED_UNIT ( * ) PLANE_ANGLE_UNIT ( ) SI_UNIT ( $, .RADIAN. ) );
#112 = VERTEX_POINT ( 'NONE', #330 ) ;
#113 = CARTESIAN_POINT ( 'NONE',  ( 0.000000000000000000, 0.000000000000000000, 20.00000000000000000 ) ) ;
#114 = LOCAL_TIME ( 22, 10, 7.000000000000000000, #150 ) ;
#115 = ADVANCED_FACE ( 'NONE', ( #179 ), #249, .T. ) ;
#116 = CIRCLE ( 'NONE', #110, 7.500000000000000000 ) ;
#117 = APPROVAL_DATE_TIME ( #16, #59 ) ;
#118 = CC_DESIGN_PERSON_AND_ORGANIZATION_ASSIGNMENT ( #328, #72, ( #301 ) ) ;
#119 = COORDINATED_UNIVERSAL_TIME_OFFSET ( 5, 30, .AHEAD. ) ;
#120 = PERSON_AND_ORGANIZATION_ROLE ( 'creator' ) ;
#121 = CC_DESIGN_APPROVAL ( #59, ( #301 ) ) ;
#122 = DIRECTION ( 'NONE',  ( -1.000000000000000000, 0.000000000000000000, 0.000000000000000000 ) ) ;
#123 = ORIENTED_EDGE ( 'NONE', *, *, #241, .T. ) ;
#124 = APPROVAL_ROLE ( '' ) ;
#125 = LINE ( 'NONE', #282, #189 ) ;
#126 = EDGE_LOOP ( 'NONE', ( #75, #245, #51, #109 ) ) ;
#127 = DIRECTION ( 'NONE',  ( 0.000000000000000000, 0.000000000000000000, 1.000000000000000000 ) ) ;
#128 = ORIENTED_EDGE ( 'NONE', *, *, #149, .F. ) ;
#129 = DIRECTION ( 'NONE',  ( 0.000000000000000000, 0.000000000000000000, 1.000000000000000000 ) ) ;
#130 = ORIENTED_EDGE ( 'NONE', *, *, #26, .T. ) ;
#131 = ADVANCED_FACE ( 'NONE', ( #6, #315 ), #28, .T. ) ;
#132 = CARTESIAN_POINT ( 'NONE',  ( -30.00000000000000000, 0.000000000000000000, 30.00000000000000000 ) ) ;
#133 = DIRECTION ( 'NONE',  ( 0.000000000000000000, 0.000000000000000000, 1.000000000000000000 ) ) ;
#134 = DIRECTION ( 'NONE',  ( 0.000000000000000000, 0.000000000000000000, 1.000000000000000000 ) ) ;
#135 = ORIENTED_EDGE ( 'NONE', *, *, #173, .T. ) ;
#136 = EDGE_CURVE ( 'NONE', #138, #112, #78, .T. ) ;
#137 =( LENGTH_UNIT ( ) NAMED_UNIT ( * ) SI_UNIT ( .MILLI., .METRE. ) );
#138 = VERTEX_POINT ( 'NONE', #227 ) ;
#139 = PLANE ( 'NONE',  #297 ) ;
#140 = DIRECTION ( 'NONE',  ( 1.000000000000000000, 0.000000000000000000, 0.000000000000000000 ) ) ;
#141 = VECTOR ( 'NONE', #292, 1000.000000000000000 ) ;
#142 = CC_DESIGN_DATE_AND_TIME_ASSIGNMENT ( #65, #44, ( #287 ) ) ;
#143 = EDGE_LOOP ( 'NONE', ( #29, #207, #316, #318 ) ) ;
#144 = AXIS2_PLACEMENT_3D ( 'NONE', #22, #104, #122 ) ;
#145 = ORGANIZATION ( 'UNSPECIFIED', 'UNSPECIFIED', '' ) ;
#146 = DATE_TIME_ROLE ( 'classification_date' ) ;
#147 = ORIENTED_EDGE ( 'NONE', *, *, #303, .T. ) ;
#148 = PERSON_AND_ORGANIZATION ( #88, #145 ) ;
#149 = EDGE_CURVE ( 'NONE', #48, #60, #164, .T. ) ;
#150 = COORDINATED_UNIVERSAL_TIME_OFFSET ( 5, 30, .AHEAD. ) ;
#151 = DIRECTION ( 'NONE',  ( 0.000000000000000000, 0.000000000000000000, 1.000000000000000000 ) ) ;
#152 = AXIS2_PLACEMENT_3D ( 'NONE', #160, #186, #242 ) ;
#153 = DIRECTION ( 'NONE',  ( 1.000000000000000000, 0.000000000000000000, 0.000000000000000000 ) ) ;
#154 = DIRECTION ( 'NONE',  ( 0.000000000000000000, 0.000000000000000000, 1.000000000000000000 ) ) ;
#155 = DESIGN_CONTEXT ( 'detailed design', #17, 'design' ) ;
#156 = CARTESIAN_POINT ( 'NONE',  ( 0.000000000000000000, 0.000000000000000000, 19.99999999999999645 ) ) ;
#157 = ORIENTED_EDGE ( 'NONE', *, *, #168, .F. ) ;
#158 = DIRECTION ( 'NONE',  ( 1.000000000000000000, 0.000000000000000000, 0.000000000000000000 ) ) ;
#159 = EDGE_LOOP ( 'NONE', ( #128, #31 ) ) ;
#160 = CARTESIAN_POINT ( 'NONE',  ( 0.000000000000000000, 0.000000000000000000, 30.00000000000000000 ) ) ;
#161 = EDGE_LOOP ( 'NONE', ( #185, #310 ) ) ;
#162 = DIRECTION ( 'NONE',  ( 0.000000000000000000, 0.000000000000000000, 1.000000000000000000 ) ) ;
#163 = EDGE_LOOP ( 'NONE', ( #291, #5, #130, #277 ) ) ;
#164 = CIRCLE ( 'NONE', #176, 7.500000000000000000 ) ;
#165 = PRODUCT_DEFINITION_FORMATION_WITH_SPECIFIED_SOURCE ( 'ANY', '', #53, .NOT_KNOWN. ) ;
#166 = CARTESIAN_POINT ( 'NONE',  ( 0.000000000000000000, 0.000000000000000000, 30.00000000000000000 ) ) ;
#167 = ADVANCED_FACE ( 'NONE', ( #252 ), #24, .F. ) ;
#168 = EDGE_CURVE ( 'NONE', #203, #68, #125, .T. ) ;
#169 = ADVANCED_FACE ( 'NONE', ( #108 ), #226, .T. ) ;
#170 = AXIS2_PLACEMENT_3D ( 'NONE', #308, #151, #230 ) ;
#171 = ORIENTED_EDGE ( 'NONE', *, *, #273, .F. ) ;
#172 = APPROVAL_DATE_TIME ( #177, #311 ) ;
#173 = EDGE_CURVE ( 'NONE', #60, #48, #38, .T. ) ;
#174 = PERSON_AND_ORGANIZATION_ROLE ( 'creator' ) ;
#175 = CARTESIAN_POINT ( 'NONE',  ( 0.000000000000000000, 0.000000000000000000, 20.00000000000000000 ) ) ;
#176 = AXIS2_PLACEMENT_3D ( 'NONE', #1, #184, #4 ) ;
#177 = DATE_AND_TIME ( #225, #101 ) ;
#178 = DIRECTION ( 'NONE',  ( -0.000000000000000000, -0.000000000000000000, 1.000000000000000000 ) ) ;
#179 = FACE_OUTER_BOUND ( 'NONE', #305, .T. ) ;
#180 = VERTEX_POINT ( 'NONE', #132 ) ;
#181 = DIRECTION ( 'NONE',  ( -0.000000000000000000, -0.000000000000000000, -1.000000000000000000 ) ) ;
#182 = CARTESIAN_POINT ( 'NONE',  ( 0.000000000000000000, 0.000000000000000000, 20.00000000000000000 ) ) ;
#183 = CC_DESIGN_SECURITY_CLASSIFICATION ( #301, ( #165 ) ) ;
#184 = DIRECTION ( 'NONE',  ( 0.000000000000000000, 0.000000000000000000, 1.000000000000000000 ) ) ;
#185 = ORIENTED_EDGE ( 'NONE', *, *, #246, .T. ) ;
#186 = DIRECTION ( 'NONE',  ( -0.000000000000000000, -0.000000000000000000, -1.000000000000000000 ) ) ;
#187 = CYLINDRICAL_SURFACE ( 'NONE', #93, 50.00000000000000000 ) ;
#188 = CARTESIAN_POINT ( 'NONE',  ( -50.00000000000000000, 0.000000000000000000, 20.00000000000000000 ) ) ;
#189 = VECTOR ( 'NONE', #181, 1000.000000000000000 ) ;
#190 = DIRECTION ( 'NONE',  ( 1.000000000000000000, 0.000000000000000000, 0.000000000000000000 ) ) ;
#191 = CC_DESIGN_PERSON_AND_ORGANIZATION_ASSIGNMENT ( #220, #332, ( #165 ) ) ;
#192 = LOCAL_TIME ( 22, 10, 7.000000000000000000, #119 ) ;
#193 = AXIS2_PLACEMENT_3D ( 'NONE', #156, #178, #290 ) ;
#194 = CALENDAR_DATE ( 2026, 22, 8 ) ;
#195 = EDGE_CURVE ( 'NONE', #234, #201, #41, .T. ) ;
#196 = APPROVAL_DATE_TIME ( #21, #91 ) ;
#197 = CARTESIAN_POINT ( 'NONE',  ( 0.000000000000000000, 0.000000000000000000, 19.99999999999999645 ) ) ;
#198 = COORDINATED_UNIVERSAL_TIME_OFFSET ( 5, 30, .AHEAD. ) ;
#199 = DIRECTION ( 'NONE',  ( 0.000000000000000000, 0.000000000000000000, 1.000000000000000000 ) ) ;
#200 = DIRECTION ( 'NONE',  ( 1.000000000000000000, 0.000000000000000000, 0.000000000000000000 ) ) ;
#201 = VERTEX_POINT ( 'NONE', #312 ) ;
#202 = DIRECTION ( 'NONE',  ( 1.000000000000000000, 0.000000000000000000, 0.000000000000000000 ) ) ;
#203 = VERTEX_POINT ( 'NONE', #285 ) ;
#204 = ADVANCED_FACE ( 'NONE', ( #50 ), #258, .F. ) ;
#205 = DIRECTION ( 'NONE',  ( 1.000000000000000000, 0.000000000000000000, -0.000000000000000000 ) ) ;
#206 = AXIS2_PLACEMENT_3D ( 'NONE', #46, #154, #200 ) ;
#207 = ORIENTED_EDGE ( 'NONE', *, *, #195, .F. ) ;
#208 = LOCAL_TIME ( 22, 10, 7.000000000000000000, #61 ) ;
#209 = FACE_BOUND ( 'NONE', #159, .T. ) ;
#210 = DIRECTION ( 'NONE',  ( 1.000000000000000000, 0.000000000000000000, 0.000000000000000000 ) ) ;
#211 = CYLINDRICAL_SURFACE ( 'NONE', #62, 30.00000000000000000 ) ;
#212 = CARTESIAN_POINT ( 'NONE',  ( -30.00000000000000000, 0.000000000000000000, 30.00000000000000000 ) ) ;
#213 = VECTOR ( 'NONE', #11, 1000.000000000000000 ) ;
#214 = APPROVAL_ROLE ( '' ) ;
#215 = ADVANCED_FACE ( 'NONE', ( #321 ), #211, .T. ) ;
#216 = CARTESIAN_POINT ( 'NONE',  ( 0.000000000000000000, 0.000000000000000000, 30.00000000000000000 ) ) ;
#217 = SHAPE_DEFINITION_REPRESENTATION ( #314, #218 ) ;
#218 = ADVANCED_BREP_SHAPE_REPRESENTATION ( 'SuppoertBase_Default_sldprt', ( #233, #39 ), #79 ) ;
#219 = APPROVAL_STATUS ( 'not_yet_approved' ) ;
#220 = PERSON_AND_ORGANIZATION ( #88, #145 ) ;
#221 = CC_DESIGN_PERSON_AND_ORGANIZATION_ASSIGNMENT ( #281, #120, ( #165 ) ) ;
#222 = AXIS2_PLACEMENT_3D ( 'NONE', #30, #232, #205 ) ;
#223 = MECHANICAL_CONTEXT ( 'NONE', #3, 'mechanical' ) ;
#224 = CARTESIAN_POINT ( 'NONE',  ( 30.00000000000000000, 3.673940397442059178E-15, 20.00000000000000000 ) ) ;
#225 = CALENDAR_DATE ( 2026, 22, 8 ) ;
#226 = PLANE ( 'NONE',  #270 ) ;
#227 = CARTESIAN_POINT ( 'NONE',  ( 50.00000000000000000, 6.123233995736766085E-15, 0.000000000000000000 ) ) ;
#228 = CC_DESIGN_APPROVAL ( #91, ( #287 ) ) ;
#229 = ORIENTED_EDGE ( 'NONE', *, *, #298, .F. ) ;
#230 = DIRECTION ( 'NONE',  ( 1.000000000000000000, 0.000000000000000000, 0.000000000000000000 ) ) ;
#231 = EDGE_LOOP ( 'NONE', ( #18, #103 ) ) ;
#232 = DIRECTION ( 'NONE',  ( 0.000000000000000000, 0.000000000000000000, 1.000000000000000000 ) ) ;
#233 = MANIFOLD_SOLID_BREP ( 'Cut-Extrude1', #57 ) ;
#234 = VERTEX_POINT ( 'NONE', #32 ) ;
#235 = CARTESIAN_POINT ( 'NONE',  ( 0.000000000000000000, 0.000000000000000000, 19.99999999999999645 ) ) ;
#236 = AXIS2_PLACEMENT_3D ( 'NONE', #166, #162, #320 ) ;
#237 = FACE_OUTER_BOUND ( 'NONE', #143, .T. ) ;
#238 = DIRECTION ( 'NONE',  ( 1.000000000000000000, 0.000000000000000000, 0.000000000000000000 ) ) ;
#239 = CARTESIAN_POINT ( 'NONE',  ( 0.000000000000000000, 0.000000000000000000, 20.00000000000000000 ) ) ;
#240 = FACE_OUTER_BOUND ( 'NONE', #105, .T. ) ;
#241 = EDGE_CURVE ( 'NONE', #33, #68, #49, .T. ) ;
#242 = DIRECTION ( 'NONE',  ( -1.000000000000000000, 0.000000000000000000, 0.000000000000000000 ) ) ;
#243 = PERSON_AND_ORGANIZATION ( #88, #145 ) ;
#244 = AXIS2_PLACEMENT_3D ( 'NONE', #239, #127, #76 ) ;
#245 = ORIENTED_EDGE ( 'NONE', *, *, #246, .F. ) ;
#246 = EDGE_CURVE ( 'NONE', #99, #92, #116, .T. ) ;
#247 = DIRECTION ( 'NONE',  ( 0.000000000000000000, 0.000000000000000000, 1.000000000000000000 ) ) ;
#248 = AXIS2_PLACEMENT_3D ( 'NONE', #113, #317, #238 ) ;
#249 = CYLINDRICAL_SURFACE ( 'NONE', #144, 50.00000000000000000 ) ;
#250 = PERSON_AND_ORGANIZATION ( #88, #145 ) ;
#251 = ADVANCED_FACE ( 'NONE', ( #209, #296 ), #139, .T. ) ;
#252 = FACE_OUTER_BOUND ( 'NONE', #56, .T. ) ;
#253 = CARTESIAN_POINT ( 'NONE',  ( 0.000000000000000000, 0.000000000000000000, 20.00000000000000000 ) ) ;
#254 = EDGE_LOOP ( 'NONE', ( #9, #299 ) ) ;
#255 = CARTESIAN_POINT ( 'NONE',  ( -7.500000000000000000, 9.184850993605147944E-16, 30.00000000000000000 ) ) ;
#256 = AXIS2_PLACEMENT_3D ( 'NONE', #235, #268, #140 ) ;
#257 = ORIENTED_EDGE ( 'NONE', *, *, #106, .T. ) ;
#258 = PLANE ( 'NONE',  #222 ) ;
#259 = CARTESIAN_POINT ( 'NONE',  ( -30.00000000000000000, 0.000000000000000000, 20.00000000000000000 ) ) ;
#260 = CC_DESIGN_PERSON_AND_ORGANIZATION_ASSIGNMENT ( #250, #97, ( #53 ) ) ;
#261 = ADVANCED_FACE ( 'NONE', ( #240 ), #58, .T. ) ;
#262 = LINE ( 'NONE', #188, #8 ) ;
#263 = ORIENTED_EDGE ( 'NONE', *, *, #14, .T. ) ;
#264 = DIRECTION ( 'NONE',  ( -0.000000000000000000, -0.000000000000000000, -1.000000000000000000 ) ) ;
#265 = VECTOR ( 'NONE', #294, 1000.000000000000000 ) ;
#266 = CARTESIAN_POINT ( 'NONE',  ( 0.000000000000000000, 0.000000000000000000, 20.00000000000000000 ) ) ;
#267 = DIRECTION ( 'NONE',  ( -1.000000000000000000, 0.000000000000000000, 0.000000000000000000 ) ) ;
#268 = DIRECTION ( 'NONE',  ( 0.000000000000000000, 0.000000000000000000, 1.000000000000000000 ) ) ;
#269 = APPROVAL_STATUS ( 'not_yet_approved' ) ;
#270 = AXIS2_PLACEMENT_3D ( 'NONE', #333, #199, #73 ) ;
#271 = EDGE_CURVE ( 'NONE', #180, #33, #10, .T. ) ;
#272 = APPROVAL_PERSON_ORGANIZATION ( #43, #311, #124 ) ;
#273 = EDGE_CURVE ( 'NONE', #180, #203, #64, .T. ) ;
#274 = EDGE_CURVE ( 'NONE', #234, #112, #262, .T. ) ;
#275 = APPROVAL_ROLE ( '' ) ;
#276 = COORDINATED_UNIVERSAL_TIME_OFFSET ( 5, 30, .AHEAD. ) ;
#277 = ORIENTED_EDGE ( 'NONE', *, *, #271, .F. ) ;
#278 = CARTESIAN_POINT ( 'NONE',  ( 0.000000000000000000, 0.000000000000000000, 0.000000000000000000 ) ) ;
#279 = AXIS2_PLACEMENT_3D ( 'NONE', #283, #129, #153 ) ;
#280 = FACE_OUTER_BOUND ( 'NONE', #126, .T. ) ;
#281 = PERSON_AND_ORGANIZATION ( #88, #145 ) ;
#282 = CARTESIAN_POINT ( 'NONE',  ( 30.00000000000000000, 3.673940397442059178E-15, 30.00000000000000000 ) ) ;
#283 = CARTESIAN_POINT ( 'NONE',  ( 0.000000000000000000, 0.000000000000000000, 0.000000000000000000 ) ) ;
#284 = ORIENTED_EDGE ( 'NONE', *, *, #271, .T. ) ;
#285 = CARTESIAN_POINT ( 'NONE',  ( 30.00000000000000000, 3.673940397442059178E-15, 30.00000000000000000 ) ) ;
#286 = APPROVAL_PERSON_ORGANIZATION ( #243, #59, #214 ) ;
#287 = PRODUCT_DEFINITION ( 'UNKNOWN', '', #165, #155 ) ;
#288 = CC_DESIGN_APPROVAL ( #311, ( #165 ) ) ;
#289 = ORIENTED_EDGE ( 'NONE', *, *, #136, .T. ) ;
#290 = DIRECTION ( 'NONE',  ( 1.000000000000000000, 0.000000000000000000, 0.000000000000000000 ) ) ;
#291 = ORIENTED_EDGE ( 'NONE', *, *, #106, .F. ) ;
#292 = DIRECTION ( 'NONE',  ( -0.000000000000000000, -0.000000000000000000, 1.000000000000000000 ) ) ;
#293 = ORIENTED_EDGE ( 'NONE', *, *, #136, .F. ) ;
#294 = DIRECTION ( 'NONE',  ( -0.000000000000000000, -0.000000000000000000, 1.000000000000000000 ) ) ;
#295 = AXIS2_PLACEMENT_3D ( 'NONE', #197, #47, #158 ) ;
#296 = FACE_OUTER_BOUND ( 'NONE', #84, .T. ) ;
#297 = AXIS2_PLACEMENT_3D ( 'NONE', #216, #36, #55 ) ;
#298 = EDGE_CURVE ( 'NONE', #99, #48, #87, .T. ) ;
#299 = ORIENTED_EDGE ( 'NONE', *, *, #40, .T. ) ;
#300 = APPLICATION_PROTOCOL_DEFINITION ( 'international standard', 'config_control_design', 1994, #17 ) ;
#301 = SECURITY_CLASSIFICATION ( '', '', #306 ) ;
#302 = DATE_AND_TIME ( #194, #114 ) ;
#303 = EDGE_CURVE ( 'NONE', #92, #60, #12, .T. ) ;
#304 = DIRECTION ( 'NONE',  ( 1.000000000000000000, 0.000000000000000000, -0.000000000000000000 ) ) ;
#305 = EDGE_LOOP ( 'NONE', ( #90, #263, #289, #326 ) ) ;
#306 = SECURITY_CLASSIFICATION_LEVEL ( 'unclassified' ) ;
#307 = AXIS2_PLACEMENT_3D ( 'NONE', #182, #133, #210 ) ;
#308 = CARTESIAN_POINT ( 'NONE',  ( 0.000000000000000000, 0.000000000000000000, 30.00000000000000000 ) ) ;
#309 = CARTESIAN_POINT ( 'NONE',  ( 0.000000000000000000, 0.000000000000000000, 0.000000000000000000 ) ) ;
#310 = ORIENTED_EDGE ( 'NONE', *, *, #331, .T. ) ;
#311 = APPROVAL ( #23, 'UNSPECIFIED' ) ;
#312 = CARTESIAN_POINT ( 'NONE',  ( 50.00000000000000000, 6.123233995736766085E-15, 20.00000000000000000 ) ) ;
#313 = LINE ( 'NONE', #77, #20 ) ;
#314 = PRODUCT_DEFINITION_SHAPE ( 'NONE', 'NONE',  #287 ) ;
#315 = FACE_OUTER_BOUND ( 'NONE', #254, .T. ) ;
#316 = ORIENTED_EDGE ( 'NONE', *, *, #274, .T. ) ;
#317 = DIRECTION ( 'NONE',  ( 0.000000000000000000, 0.000000000000000000, 1.000000000000000000 ) ) ;
#318 = ORIENTED_EDGE ( 'NONE', *, *, #42, .T. ) ;
#319 = CARTESIAN_POINT ( 'NONE',  ( 0.000000000000000000, 0.000000000000000000, 30.00000000000000000 ) ) ;
#320 = DIRECTION ( 'NONE',  ( 1.000000000000000000, 0.000000000000000000, 0.000000000000000000 ) ) ;
#321 = FACE_OUTER_BOUND ( 'NONE', #163, .T. ) ;
#322 = PRODUCT_RELATED_PRODUCT_CATEGORY ( 'detail', '', ( #53 ) ) ;
#323 = CALENDAR_DATE ( 2026, 22, 8 ) ;
#324 = APPROVAL_PERSON_ORGANIZATION ( #148, #91, #275 ) ;
#325 = CALENDAR_DATE ( 2026, 22, 8 ) ;
#326 = ORIENTED_EDGE ( 'NONE', *, *, #274, .F. ) ;
#327 = CIRCLE ( 'NONE', #334, 50.00000000000000000 ) ;
#328 = PERSON_AND_ORGANIZATION ( #88, #145 ) ;
#329 = PERSON_AND_ORGANIZATION ( #88, #145 ) ;
#330 = CARTESIAN_POINT ( 'NONE',  ( -50.00000000000000000, 0.000000000000000000, 0.000000000000000000 ) ) ;
#331 = EDGE_CURVE ( 'NONE', #92, #99, #15, .T. ) ;
#332 = PERSON_AND_ORGANIZATION_ROLE ( 'design_supplier' ) ;
#333 = CARTESIAN_POINT ( 'NONE',  ( 0.000000000000000000, 0.000000000000000000, 19.99999999999999645 ) ) ;
#334 = AXIS2_PLACEMENT_3D ( 'NONE', #309, #70, #74 ) ;
#335 = UNCERTAINTY_MEASURE_WITH_UNIT (LENGTH_MEASURE( 1.000000000000000082E-05 ), #137, 'distance_accuracy_value', 'NONE');
ENDSEC;
END-ISO-10303-21;
