ISO-10303-21;
HEADER;
FILE_DESCRIPTION (( 'STEP AP203' ),
    '1' );
FILE_NAME ('TesthCover_Default_sldprt.STEP',
    '2026-08-22T16:40:09',
    ( '' ),
    ( '' ),
    'SwSTEP 2.0',
    'SolidWorks 2020',
    '' );
FILE_SCHEMA (( 'CONFIG_CONTROL_DESIGN' ));
ENDSEC;

DATA;
#1 = MANIFOLD_SOLID_BREP ( 'Cut-Extrude2', #453 ) ;
#2 = PERSON_AND_ORGANIZATION_ROLE ( 'classification_officer' ) ;
#3 = ADVANCED_FACE ( 'NONE', ( #356 ), #318, .F. ) ;
#4 = EDGE_LOOP ( 'NONE', ( #308, #433, #415, #91 ) ) ;
#5 = PERSON_AND_ORGANIZATION_ROLE ( 'creator' ) ;
#6 = VERTEX_POINT ( 'NONE', #427 ) ;
#7 = DIRECTION ( 'NONE',  ( -1.000000000000000000, 2.168404344971008868E-16, -0.000000000000000000 ) ) ;
#8 = CIRCLE ( 'NONE', #299, 2.500000000000000000 ) ;
#9 = CC_DESIGN_SECURITY_CLASSIFICATION ( #413, ( #402 ) ) ;
#10 = DIRECTION ( 'NONE',  ( 2.168404344971008868E-16, 1.000000000000000000, -0.000000000000000000 ) ) ;
#11 = PLANE ( 'NONE',  #382 ) ;
#12 = VECTOR ( 'NONE', #290, 1000.000000000000000 ) ;
#13 = DIRECTION ( 'NONE',  ( -1.000000000000000000, 2.168404344971008868E-16, -0.000000000000000000 ) ) ;
#14 = LINE ( 'NONE', #86, #57 ) ;
#15 = EDGE_CURVE ( 'NONE', #275, #346, #410, .T. ) ;
#16 = EDGE_CURVE ( 'NONE', #218, #174, #351, .T. ) ;
#17 = CC_DESIGN_APPROVAL ( #411, ( #402 ) ) ;
#18 = VERTEX_POINT ( 'NONE', #387 ) ;
#19 = LINE ( 'NONE', #124, #324 ) ;
#20 = EDGE_CURVE ( 'NONE', #338, #144, #350, .T. ) ;
#21 = DIRECTION ( 'NONE',  ( -0.000000000000000000, -0.000000000000000000, -1.000000000000000000 ) ) ;
#22 = CARTESIAN_POINT ( 'NONE',  ( -3.999999999999998224, 4.000000000000000888, 30.00000000000000000 ) ) ;
#23 = APPROVAL ( #416, 'UNSPECIFIED' ) ;
#24 = DIRECTION ( 'NONE',  ( 1.000000000000000000, 0.000000000000000000, -0.000000000000000000 ) ) ;
#25 =( NAMED_UNIT ( * ) SI_UNIT ( $, .STERADIAN. ) SOLID_ANGLE_UNIT ( ) );
#26 = CARTESIAN_POINT ( 'NONE',  ( -6.000000000000002665, 6.000000000000000888, 0.000000000000000000 ) ) ;
#27 = DIRECTION ( 'NONE',  ( 1.000000000000000000, 0.000000000000000000, 0.000000000000000000 ) ) ;
#28 = DIRECTION ( 'NONE',  ( 0.000000000000000000, 0.000000000000000000, 1.000000000000000000 ) ) ;
#29 = VECTOR ( 'NONE', #301, 1000.000000000000000 ) ;
#30 = DIRECTION ( 'NONE',  ( -1.084202172485504187E-16, -1.000000000000000000, 0.000000000000000000 ) ) ;
#31 = ORIENTED_EDGE ( 'NONE', *, *, #182, .T. ) ;
#32 = EDGE_CURVE ( 'NONE', #84, #338, #322, .T. ) ;
#33 = LOCAL_TIME ( 22, 10, 9.000000000000000000, #220 ) ;
#34 = FACE_OUTER_BOUND ( 'NONE', #400, .T. ) ;
#35 = ORIENTED_EDGE ( 'NONE', *, *, #295, .T. ) ;
#36 = APPROVAL_DATE_TIME ( #342, #411 ) ;
#37 = ORIENTED_EDGE ( 'NONE', *, *, #195, .T. ) ;
#38 = EDGE_CURVE ( 'NONE', #259, #181, #85, .T. ) ;
#39 = PERSON_AND_ORGANIZATION ( #157, #175 ) ;
#40 = ORIENTED_EDGE ( 'NONE', *, *, #247, .F. ) ;
#41 = ORIENTED_EDGE ( 'NONE', *, *, #349, .F. ) ;
#42 = PERSON_AND_ORGANIZATION ( #157, #175 ) ;
#43 = DIRECTION ( 'NONE',  ( -1.445602896647339163E-16, 1.000000000000000000, -0.000000000000000000 ) ) ;
#44 = DIRECTION ( 'NONE',  ( -1.000000000000000000, -0.000000000000000000, -0.000000000000000000 ) ) ;
#45 = AXIS2_PLACEMENT_3D ( 'NONE', #445, #168, #238 ) ;
#46 = LINE ( 'NONE', #434, #444 ) ;
#47 = DIRECTION ( 'NONE',  ( -0.000000000000000000, 0.000000000000000000, 1.000000000000000000 ) ) ;
#48 = CARTESIAN_POINT ( 'NONE',  ( 4.000000000000000888, 4.000000000000000888, 30.00000000000000000 ) ) ;
#49 = PLANE ( 'NONE',  #418 ) ;
#50 = CARTESIAN_POINT ( 'NONE',  ( 0.000000000000000000, 0.000000000000000000, 30.00000000000000000 ) ) ;
#51 = CC_DESIGN_PERSON_AND_ORGANIZATION_ASSIGNMENT ( #213, #281, ( #402 ) ) ;
#52 = ORIENTED_EDGE ( 'NONE', *, *, #383, .F. ) ;
#53 = CARTESIAN_POINT ( 'NONE',  ( -6.000000000000002665, 6.000000000000000888, 37.00000000000000000 ) ) ;
#54 = DIRECTION ( 'NONE',  ( 0.000000000000000000, -0.000000000000000000, -1.000000000000000000 ) ) ;
#55 = DIRECTION ( 'NONE',  ( -0.000000000000000000, -0.000000000000000000, -1.000000000000000000 ) ) ;
#56 = CARTESIAN_POINT ( 'NONE',  ( -6.000000000000000888, -5.999999999999999112, 37.00000000000000000 ) ) ;
#57 = VECTOR ( 'NONE', #230, 1000.000000000000000 ) ;
#58 = CARTESIAN_POINT ( 'NONE',  ( 5.999999999999997335, 6.000000000000000888, 0.000000000000000000 ) ) ;
#59 = LINE ( 'NONE', #365, #352 ) ;
#60 = LOCAL_TIME ( 22, 10, 9.000000000000000000, #108 ) ;
#61 = CARTESIAN_POINT ( 'NONE',  ( 2.500000000000000000, 0.000000000000000000, 37.00000000000000000 ) ) ;
#62 = EDGE_CURVE ( 'NONE', #277, #148, #394, .T. ) ;
#63 = DIRECTION ( 'NONE',  ( 0.000000000000000000, -0.000000000000000000, 1.000000000000000000 ) ) ;
#64 = ADVANCED_FACE ( 'NONE', ( #155, #262 ), #49, .T. ) ;
#65 =( LENGTH_UNIT ( ) NAMED_UNIT ( * ) SI_UNIT ( .MILLI., .METRE. ) );
#66 = ORIENTED_EDGE ( 'NONE', *, *, #16, .T. ) ;
#67 = VECTOR ( 'NONE', #371, 1000.000000000000000 ) ;
#68 = CARTESIAN_POINT ( 'NONE',  ( -3.999999999999998224, 4.000000000000000888, 30.00000000000000000 ) ) ;
#69 = ORIENTED_EDGE ( 'NONE', *, *, #161, .F. ) ;
#70 = APPROVAL_STATUS ( 'not_yet_approved' ) ;
#71 = EDGE_LOOP ( 'NONE', ( #69, #77 ) ) ;
#72 = PERSON_AND_ORGANIZATION ( #157, #175 ) ;
#73 = ORIENTED_EDGE ( 'NONE', *, *, #182, .F. ) ;
#74 = ORIENTED_EDGE ( 'NONE', *, *, #247, .T. ) ;
#75 = AXIS2_PLACEMENT_3D ( 'NONE', #437, #329, #54 ) ;
#76 = APPROVAL_DATE_TIME ( #379, #23 ) ;
#77 = ORIENTED_EDGE ( 'NONE', *, *, #78, .F. ) ;
#78 = EDGE_CURVE ( 'NONE', #341, #117, #192, .T. ) ;
#79 = ORIENTED_EDGE ( 'NONE', *, *, #116, .F. ) ;
#80 = CARTESIAN_POINT ( 'NONE',  ( 0.000000000000000000, 0.000000000000000000, 37.00000000000000000 ) ) ;
#81 = AXIS2_PLACEMENT_3D ( 'NONE', #381, #358, #355 ) ;
#82 = DIRECTION ( 'NONE',  ( -0.000000000000000000, -0.000000000000000000, -1.000000000000000000 ) ) ;
#83 = DIRECTION ( 'NONE',  ( -0.000000000000000000, -0.000000000000000000, 1.000000000000000000 ) ) ;
#84 = VERTEX_POINT ( 'NONE', #152 ) ;
#85 = LINE ( 'NONE', #190, #217 ) ;
#86 = CARTESIAN_POINT ( 'NONE',  ( -6.000000000000002665, 6.000000000000000888, 37.00000000000000000 ) ) ;
#87 = ORIENTED_EDGE ( 'NONE', *, *, #292, .F. ) ;
#88 = CARTESIAN_POINT ( 'NONE',  ( 0.000000000000000000, 0.000000000000000000, 37.00000000000000000 ) ) ;
#89 = DIRECTION ( 'NONE',  ( 1.000000000000000000, 0.000000000000000000, 0.000000000000000000 ) ) ;
#90 = CC_DESIGN_APPROVAL ( #23, ( #203 ) ) ;
#91 = ORIENTED_EDGE ( 'NONE', *, *, #255, .F. ) ;
#92 = CARTESIAN_POINT ( 'NONE',  ( -2.500000000000000000, 3.061616997868383141E-16, 30.00000000000000000 ) ) ;
#93 = DIRECTION ( 'NONE',  ( -0.000000000000000000, -0.000000000000000000, -1.000000000000000000 ) ) ;
#94 = CARTESIAN_POINT ( 'NONE',  ( -3.999999999999998224, 4.000000000000000888, 30.00000000000000000 ) ) ;
#95 = DIRECTION ( 'NONE',  ( 1.445602896647339163E-16, -1.000000000000000000, 0.000000000000000000 ) ) ;
#96 = VECTOR ( 'NONE', #55, 1000.000000000000000 ) ;
#97 = LINE ( 'NONE', #94, #154 ) ;
#98 = EDGE_CURVE ( 'NONE', #338, #246, #162, .T. ) ;
#99 = EDGE_CURVE ( 'NONE', #174, #246, #189, .T. ) ;
#100 = DIRECTION ( 'NONE',  ( 1.000000000000000000, 1.445602896647339163E-16, -0.000000000000000000 ) ) ;
#101 = PERSON_AND_ORGANIZATION_ROLE ( 'design_owner' ) ;
#102 = EDGE_LOOP ( 'NONE', ( #207, #420, #436, #422 ) ) ;
#103 = EDGE_CURVE ( 'NONE', #346, #275, #278, .T. ) ;
#104 = ORIENTED_EDGE ( 'NONE', *, *, #295, .F. ) ;
#105 = AXIS2_PLACEMENT_3D ( 'NONE', #136, #414, #202 ) ;
#106 = APPROVAL_DATE_TIME ( #140, #212 ) ;
#107 = EDGE_LOOP ( 'NONE', ( #249, #40, #79, #380 ) ) ;
#108 = COORDINATED_UNIVERSAL_TIME_OFFSET ( 5, 30, .AHEAD. ) ;
#109 = ORIENTED_EDGE ( 'NONE', *, *, #15, .F. ) ;
#110 = COORDINATED_UNIVERSAL_TIME_OFFSET ( 5, 30, .AHEAD. ) ;
#111 = ORIENTED_EDGE ( 'NONE', *, *, #195, .F. ) ;
#112 = APPROVAL_PERSON_ORGANIZATION ( #72, #411, #279 ) ;
#113 = PERSON_AND_ORGANIZATION ( #157, #175 ) ;
#114 = ORIENTED_EDGE ( 'NONE', *, *, #215, .T. ) ;
#115 = VECTOR ( 'NONE', #10, 1000.000000000000000 ) ;
#116 = EDGE_CURVE ( 'NONE', #123, #259, #226, .T. ) ;
#117 = VERTEX_POINT ( 'NONE', #223 ) ;
#118 = FACE_OUTER_BOUND ( 'NONE', #121, .T. ) ;
#119 = VECTOR ( 'NONE', #273, 1000.000000000000000 ) ;
#120 = FACE_OUTER_BOUND ( 'NONE', #378, .T. ) ;
#121 = EDGE_LOOP ( 'NONE', ( #254, #160, #37, #179 ) ) ;
#122 = DIRECTION ( 'NONE',  ( 2.168404344971008868E-16, 1.000000000000000000, -0.000000000000000000 ) ) ;
#123 = VERTEX_POINT ( 'NONE', #224 ) ;
#124 = CARTESIAN_POINT ( 'NONE',  ( -6.000000000000000888, -5.999999999999999112, 37.00000000000000000 ) ) ;
#125 = AXIS2_PLACEMENT_3D ( 'NONE', #205, #131, #373 ) ;
#126 = CARTESIAN_POINT ( 'NONE',  ( 5.999999999999999112, -5.999999999999999112, 0.000000000000000000 ) ) ;
#127 = CARTESIAN_POINT ( 'NONE',  ( 0.000000000000000000, 0.000000000000000000, 30.00000000000000000 ) ) ;
#128 = DIRECTION ( 'NONE',  ( 0.000000000000000000, 0.000000000000000000, 1.000000000000000000 ) ) ;
#129 = LINE ( 'NONE', #165, #29 ) ;
#130 = ADVANCED_FACE ( 'NONE', ( #120 ), #297, .F. ) ;
#131 = DIRECTION ( 'NONE',  ( -0.000000000000000000, -0.000000000000000000, 1.000000000000000000 ) ) ;
#132 = ADVANCED_FACE ( 'NONE', ( #431 ), #11, .F. ) ;
#133 = AXIS2_PLACEMENT_3D ( 'NONE', #264, #258, #158 ) ;
#134 = DIRECTION ( 'NONE',  ( -0.000000000000000000, -0.000000000000000000, -1.000000000000000000 ) ) ;
#135 = CC_DESIGN_DATE_AND_TIME_ASSIGNMENT ( #419, #283, ( #203 ) ) ;
#136 = CARTESIAN_POINT ( 'NONE',  ( -3.999999999999998224, 4.000000000000000888, 30.00000000000000000 ) ) ;
#137 = ORIENTED_EDGE ( 'NONE', *, *, #432, .T. ) ;
#138 = PERSON_AND_ORGANIZATION_ROLE ( 'design_supplier' ) ;
#139 = ORIENTED_EDGE ( 'NONE', *, *, #167, .T. ) ;
#140 = DATE_AND_TIME ( #386, #225 ) ;
#141 = ORIENTED_EDGE ( 'NONE', *, *, #167, .F. ) ;
#142 = APPROVAL_PERSON_ORGANIZATION ( #113, #212, #451 ) ;
#143 = APPROVAL_ROLE ( '' ) ;
#144 = VERTEX_POINT ( 'NONE', #265 ) ;
#145 = CALENDAR_DATE ( 2026, 22, 8 ) ;
#146 = ORIENTED_EDGE ( 'NONE', *, *, #62, .F. ) ;
#147 = EDGE_CURVE ( 'NONE', #144, #6, #14, .T. ) ;
#148 = VERTEX_POINT ( 'NONE', #353 ) ;
#149 = VECTOR ( 'NONE', #289, 1000.000000000000000 ) ;
#150 = LOCAL_TIME ( 22, 10, 9.000000000000000000, #423 ) ;
#151 = LINE ( 'NONE', #395, #149 ) ;
#152 = CARTESIAN_POINT ( 'NONE',  ( 5.999999999999999112, -5.999999999999999112, 37.00000000000000000 ) ) ;
#153 = CC_DESIGN_PERSON_AND_ORGANIZATION_ASSIGNMENT ( #269, #101, ( #405 ) ) ;
#154 = VECTOR ( 'NONE', #404, 1000.000000000000000 ) ;
#155 = FACE_BOUND ( 'NONE', #177, .T. ) ;
#156 = CARTESIAN_POINT ( 'NONE',  ( 2.500000000000000000, 0.000000000000000000, -0.001000000000001000089 ) ) ;
#157 = PERSON ( 'UNSPECIFIED', 'UNSPECIFIED', 'UNSPECIFIED', ('UNSPECIFIED'), ('UNSPECIFIED'), ('UNSPECIFIED') ) ;
#158 = DIRECTION ( 'NONE',  ( 0.000000000000000000, -0.000000000000000000, 1.000000000000000000 ) ) ;
#159 = DIRECTION ( 'NONE',  ( 1.000000000000000000, 0.000000000000000000, 0.000000000000000000 ) ) ;
#160 = ORIENTED_EDGE ( 'NONE', *, *, #38, .T. ) ;
#161 = EDGE_CURVE ( 'NONE', #117, #341, #8, .T. ) ;
#162 = LINE ( 'NONE', #390, #339 ) ;
#163 = AXIS2_PLACEMENT_3D ( 'NONE', #442, #446, #240 ) ;
#164 = CC_DESIGN_PERSON_AND_ORGANIZATION_ASSIGNMENT ( #42, #5, ( #203 ) ) ;
#165 = CARTESIAN_POINT ( 'NONE',  ( 5.999999999999999112, -5.999999999999999112, 37.00000000000000000 ) ) ;
#166 = FACE_BOUND ( 'NONE', #396, .T. ) ;
#167 = EDGE_CURVE ( 'NONE', #117, #346, #399, .T. ) ;
#168 = DIRECTION ( 'NONE',  ( -0.000000000000000000, -0.000000000000000000, 1.000000000000000000 ) ) ;
#169 = LINE ( 'NONE', #199, #285 ) ;
#170 = FACE_OUTER_BOUND ( 'NONE', #310, .T. ) ;
#171 = VECTOR ( 'NONE', #323, 1000.000000000000000 ) ;
#172 = CARTESIAN_POINT ( 'NONE',  ( -2.500000000000000000, 3.061616997868383141E-16, 37.00000000000000000 ) ) ;
#173 = LINE ( 'NONE', #409, #67 ) ;
#174 = VERTEX_POINT ( 'NONE', #126 ) ;
#175 = ORGANIZATION ( 'UNSPECIFIED', 'UNSPECIFIED', '' ) ;
#176 = PLANE ( 'NONE',  #105 ) ;
#177 = EDGE_LOOP ( 'NONE', ( #372, #109 ) ) ;
#178 = APPLICATION_CONTEXT ( 'configuration controlled 3d designs of mechanical parts and assemblies' ) ;
#179 = ORIENTED_EDGE ( 'NONE', *, *, #319, .T. ) ;
#180 = VECTOR ( 'NONE', #43, 1000.000000000000000 ) ;
#181 = VERTEX_POINT ( 'NONE', #327 ) ;
#182 = EDGE_CURVE ( 'NONE', #452, #84, #19, .T. ) ;
#183 = ADVANCED_FACE ( 'NONE', ( #194 ), #235, .F. ) ;
#184 = EDGE_LOOP ( 'NONE', ( #252, #293, #447, #74 ) ) ;
#185 = CARTESIAN_POINT ( 'NONE',  ( -4.000000000000000000, -3.999999999999999112, 0.000000000000000000 ) ) ;
#186 = CC_DESIGN_DATE_AND_TIME_ASSIGNMENT ( #377, #311, ( #413 ) ) ;
#187 = AXIS2_PLACEMENT_3D ( 'NONE', #271, #128, #27 ) ;
#188 = CARTESIAN_POINT ( 'NONE',  ( -3.999999999999998224, 4.000000000000000888, 0.000000000000000000 ) ) ;
#189 = LINE ( 'NONE', #362, #171 ) ;
#190 = CARTESIAN_POINT ( 'NONE',  ( -4.000000000000000000, -3.999999999999999112, 30.00000000000000000 ) ) ;
#191 = CARTESIAN_POINT ( 'NONE',  ( 0.000000000000000000, 0.000000000000000000, 30.00000000000000000 ) ) ;
#192 = CIRCLE ( 'NONE', #291, 2.500000000000000000 ) ;
#193 = VERTEX_POINT ( 'NONE', #294 ) ;
#194 = FACE_OUTER_BOUND ( 'NONE', #107, .T. ) ;
#195 = EDGE_CURVE ( 'NONE', #181, #388, #46, .T. ) ;
#196 = ORIENTED_EDGE ( 'NONE', *, *, #32, .T. ) ;
#197 = CARTESIAN_POINT ( 'NONE',  ( 5.999999999999997335, 6.000000000000000888, 37.00000000000000000 ) ) ;
#198 = DIRECTION ( 'NONE',  ( 1.445602896647339163E-16, -1.000000000000000000, 0.000000000000000000 ) ) ;
#199 = CARTESIAN_POINT ( 'NONE',  ( -3.999999999999998224, 4.000000000000000888, 0.000000000000000000 ) ) ;
#200 = AXIS2_PLACEMENT_3D ( 'NONE', #22, #237, #63 ) ;
#201 = FACE_OUTER_BOUND ( 'NONE', #214, .T. ) ;
#202 = DIRECTION ( 'NONE',  ( -2.168404344971009115E-16, -1.000000000000000000, 0.000000000000000000 ) ) ;
#203 = PRODUCT_DEFINITION ( 'UNKNOWN', '', #402, #401 ) ;
#204 = DIRECTION ( 'NONE',  ( -1.445602896647339163E-16, 1.000000000000000000, 0.000000000000000000 ) ) ;
#205 = CARTESIAN_POINT ( 'NONE',  ( 0.000000000000000000, 0.000000000000000000, -0.001000000000001000089 ) ) ;
#206 = CARTESIAN_POINT ( 'NONE',  ( 4.000000000000000000, -4.000000000000000888, 30.00000000000000000 ) ) ;
#207 = ORIENTED_EDGE ( 'NONE', *, *, #99, .T. ) ;
#208 = CARTESIAN_POINT ( 'NONE',  ( 4.000000000000000888, 4.000000000000000888, 30.00000000000000000 ) ) ;
#209 = ORIENTED_EDGE ( 'NONE', *, *, #319, .F. ) ;
#210 = EDGE_CURVE ( 'NONE', #148, #193, #263, .T. ) ;
#211 = ORIENTED_EDGE ( 'NONE', *, *, #98, .T. ) ;
#212 = APPROVAL ( #70, 'UNSPECIFIED' ) ;
#213 = PERSON_AND_ORGANIZATION ( #157, #175 ) ;
#214 = EDGE_LOOP ( 'NONE', ( #280, #317, #209, #328 ) ) ;
#215 = EDGE_CURVE ( 'NONE', #144, #452, #151, .T. ) ;
#216 = ADVANCED_FACE ( 'NONE', ( #429, #118 ), #260, .F. ) ;
#217 = VECTOR ( 'NONE', #13, 1000.000000000000000 ) ;
#218 = VERTEX_POINT ( 'NONE', #330 ) ;
#219 = ADVANCED_FACE ( 'NONE', ( #166, #239 ), #408, .F. ) ;
#220 = COORDINATED_UNIVERSAL_TIME_OFFSET ( 5, 30, .AHEAD. ) ;
#221 = DIRECTION ( 'NONE',  ( 1.000000000000000000, 0.000000000000000000, 0.000000000000000000 ) ) ;
#222 = DIRECTION ( 'NONE',  ( 0.000000000000000000, 0.000000000000000000, 1.000000000000000000 ) ) ;
#223 = CARTESIAN_POINT ( 'NONE',  ( 2.500000000000000000, 0.000000000000000000, 30.00000000000000000 ) ) ;
#224 = CARTESIAN_POINT ( 'NONE',  ( 4.000000000000000888, 4.000000000000000888, 30.00000000000000000 ) ) ;
#225 = LOCAL_TIME ( 22, 10, 9.000000000000000000, #110 ) ;
#226 = LINE ( 'NONE', #48, #12 ) ;
#227 = ORIENTED_EDGE ( 'NONE', *, *, #161, .T. ) ;
#228 = ORIENTED_EDGE ( 'NONE', *, *, #255, .T. ) ;
#229 = ADVANCED_FACE ( 'NONE', ( #201 ), #441, .F. ) ;
#230 = DIRECTION ( 'NONE',  ( -0.000000000000000000, -0.000000000000000000, -1.000000000000000000 ) ) ;
#231 = AXIS2_PLACEMENT_3D ( 'NONE', #403, #100, #204 ) ;
#232 = ORIENTED_EDGE ( 'NONE', *, *, #448, .T. ) ;
#233 = ORIENTED_EDGE ( 'NONE', *, *, #20, .F. ) ;
#234 = APPROVAL_PERSON_ORGANIZATION ( #335, #23, #143 ) ;
#235 = PLANE ( 'NONE',  #81 ) ;
#236 = EDGE_LOOP ( 'NONE', ( #137, #52, #343, #315 ) ) ;
#237 = DIRECTION ( 'NONE',  ( 0.000000000000000000, 1.000000000000000000, 0.000000000000000000 ) ) ;
#238 = DIRECTION ( 'NONE',  ( 1.000000000000000000, 0.000000000000000000, 0.000000000000000000 ) ) ;
#239 = FACE_OUTER_BOUND ( 'NONE', #4, .T. ) ;
#240 = DIRECTION ( 'NONE',  ( 1.000000000000000000, -2.168404344971009115E-16, 0.000000000000000000 ) ) ;
#241 = AXIS2_PLACEMENT_3D ( 'NONE', #88, #222, #221 ) ;
#242 = FACE_OUTER_BOUND ( 'NONE', #236, .T. ) ;
#243 = MECHANICAL_CONTEXT ( 'NONE', #178, 'mechanical' ) ;
#244 = LINE ( 'NONE', #274, #398 ) ;
#245 = APPLICATION_PROTOCOL_DEFINITION ( 'international standard', 'config_control_design', 1994, #267 ) ;
#246 = VERTEX_POINT ( 'NONE', #58 ) ;
#247 = EDGE_CURVE ( 'NONE', #259, #277, #439, .T. ) ;
#248 = APPLICATION_PROTOCOL_DEFINITION ( 'international standard', 'config_control_design', 1994, #178 ) ;
#249 = ORIENTED_EDGE ( 'NONE', *, *, #349, .T. ) ;
#250 = VECTOR ( 'NONE', #93, 1000.000000000000000 ) ;
#251 = SHAPE_DEFINITION_REPRESENTATION ( #331, #425 ) ;
#252 = ORIENTED_EDGE ( 'NONE', *, *, #62, .T. ) ;
#253 = CALENDAR_DATE ( 2026, 22, 8 ) ;
#254 = ORIENTED_EDGE ( 'NONE', *, *, #116, .T. ) ;
#255 = EDGE_CURVE ( 'NONE', #246, #6, #336, .T. ) ;
#256 = APPROVAL_STATUS ( 'not_yet_approved' ) ;
#257 = ORIENTED_EDGE ( 'NONE', *, *, #210, .F. ) ;
#258 = DIRECTION ( 'NONE',  ( 0.000000000000000000, 1.000000000000000000, 0.000000000000000000 ) ) ;
#259 = VERTEX_POINT ( 'NONE', #206 ) ;
#260 = PLANE ( 'NONE',  #389 ) ;
#261 = CARTESIAN_POINT ( 'NONE',  ( 5.999999999999997335, 6.000000000000000888, 37.00000000000000000 ) ) ;
#262 = FACE_OUTER_BOUND ( 'NONE', #312, .T. ) ;
#263 = LINE ( 'NONE', #188, #115 ) ;
#264 = CARTESIAN_POINT ( 'NONE',  ( -6.000000000000000888, -5.999999999999999112, 37.00000000000000000 ) ) ;
#265 = CARTESIAN_POINT ( 'NONE',  ( -6.000000000000002665, 6.000000000000000888, 37.00000000000000000 ) ) ;
#266 = CARTESIAN_POINT ( 'NONE',  ( -3.999999999999998224, 4.000000000000000888, 30.00000000000000000 ) ) ;
#267 = APPLICATION_CONTEXT ( 'configuration controlled 3d designs of mechanical parts and assemblies' ) ;
#268 = LINE ( 'NONE', #266, #96 ) ;
#269 = PERSON_AND_ORGANIZATION ( #157, #175 ) ;
#270 = LINE ( 'NONE', #412, #119 ) ;
#271 = CARTESIAN_POINT ( 'NONE',  ( 0.000000000000000000, 0.000000000000000000, 0.000000000000000000 ) ) ;
#272 = VECTOR ( 'NONE', #44, 1000.000000000000000 ) ;
#273 = DIRECTION ( 'NONE',  ( -0.000000000000000000, -0.000000000000000000, 1.000000000000000000 ) ) ;
#274 = CARTESIAN_POINT ( 'NONE',  ( 4.000000000000000888, 4.000000000000000888, 0.000000000000000000 ) ) ;
#275 = VERTEX_POINT ( 'NONE', #172 ) ;
#276 = SECURITY_CLASSIFICATION_LEVEL ( 'unclassified' ) ;
#277 = VERTEX_POINT ( 'NONE', #366 ) ;
#278 = CIRCLE ( 'NONE', #384, 2.500000000000000000 ) ;
#279 = APPROVAL_ROLE ( '' ) ;
#280 = ORIENTED_EDGE ( 'NONE', *, *, #347, .T. ) ;
#281 = PERSON_AND_ORGANIZATION_ROLE ( 'creator' ) ;
#282 = ORIENTED_EDGE ( 'NONE', *, *, #210, .T. ) ;
#283 = DATE_TIME_ROLE ( 'creation_date' ) ;
#284 = ORIENTED_EDGE ( 'NONE', *, *, #15, .T. ) ;
#285 = VECTOR ( 'NONE', #305, 1000.000000000000000 ) ;
#286 = EDGE_LOOP ( 'NONE', ( #66, #449, #73, #417 ) ) ;
#287 = VECTOR ( 'NONE', #309, 1000.000000000000000 ) ;
#288 = EDGE_CURVE ( 'NONE', #84, #174, #129, .T. ) ;
#289 = DIRECTION ( 'NONE',  ( 1.445602896647339163E-16, -1.000000000000000000, 0.000000000000000000 ) ) ;
#290 = DIRECTION ( 'NONE',  ( -1.084202172485504187E-16, -1.000000000000000000, 0.000000000000000000 ) ) ;
#291 = AXIS2_PLACEMENT_3D ( 'NONE', #50, #354, #159 ) ;
#292 = EDGE_CURVE ( 'NONE', #388, #193, #268, .T. ) ;
#293 = ORIENTED_EDGE ( 'NONE', *, *, #448, .F. ) ;
#294 = CARTESIAN_POINT ( 'NONE',  ( -3.999999999999998224, 4.000000000000000888, 0.000000000000000000 ) ) ;
#295 = EDGE_CURVE ( 'NONE', #341, #275, #270, .T. ) ;
#296 = CARTESIAN_POINT ( 'NONE',  ( 0.000000000000000000, 0.000000000000000000, 37.00000000000000000 ) ) ;
#297 = PLANE ( 'NONE',  #75 ) ;
#298 = DIRECTION ( 'NONE',  ( 1.000000000000000000, 0.000000000000000000, 0.000000000000000000 ) ) ;
#299 = AXIS2_PLACEMENT_3D ( 'NONE', #191, #21, #298 ) ;
#300 =( GEOMETRIC_REPRESENTATION_CONTEXT ( 3 ) GLOBAL_UNCERTAINTY_ASSIGNED_CONTEXT ( ( #428 ) ) GLOBAL_UNIT_ASSIGNED_CONTEXT ( ( #65, #406, #25 ) ) REPRESENTATION_CONTEXT ( 'NONE', 'WORKASPACE' ) );
#301 = DIRECTION ( 'NONE',  ( -0.000000000000000000, -0.000000000000000000, -1.000000000000000000 ) ) ;
#302 = PLANE ( 'NONE',  #163 ) ;
#303 = DIRECTION ( 'NONE',  ( -0.000000000000000000, 0.000000000000000000, 1.000000000000000000 ) ) ;
#304 = FACE_OUTER_BOUND ( 'NONE', #424, .T. ) ;
#305 = DIRECTION ( 'NONE',  ( 1.000000000000000000, 0.000000000000000000, 0.000000000000000000 ) ) ;
#306 = CARTESIAN_POINT ( 'NONE',  ( -4.000000000000000000, -3.999999999999999112, 30.00000000000000000 ) ) ;
#307 = LINE ( 'NONE', #208, #250 ) ;
#308 = ORIENTED_EDGE ( 'NONE', *, *, #99, .F. ) ;
#309 = DIRECTION ( 'NONE',  ( -0.000000000000000000, -0.000000000000000000, -1.000000000000000000 ) ) ;
#310 = EDGE_LOOP ( 'NONE', ( #227, #35, #284, #141 ) ) ;
#311 = DATE_TIME_ROLE ( 'classification_date' ) ;
#312 = EDGE_LOOP ( 'NONE', ( #196, #344, #114, #31 ) ) ;
#313 = VECTOR ( 'NONE', #134, 1000.000000000000000 ) ;
#314 = CC_DESIGN_PERSON_AND_ORGANIZATION_ASSIGNMENT ( #39, #2, ( #413 ) ) ;
#315 = ORIENTED_EDGE ( 'NONE', *, *, #147, .T. ) ;
#316 = CALENDAR_DATE ( 2026, 22, 8 ) ;
#317 = ORIENTED_EDGE ( 'NONE', *, *, #397, .F. ) ;
#318 = PLANE ( 'NONE',  #133 ) ;
#319 = EDGE_CURVE ( 'NONE', #388, #123, #97, .T. ) ;
#320 = DIRECTION ( 'NONE',  ( 1.000000000000000000, 0.000000000000000000, 0.000000000000000000 ) ) ;
#321 = DIRECTION ( 'NONE',  ( 0.000000000000000000, 0.000000000000000000, 1.000000000000000000 ) ) ;
#322 = LINE ( 'NONE', #197, #180 ) ;
#323 = DIRECTION ( 'NONE',  ( -1.445602896647339163E-16, 1.000000000000000000, -0.000000000000000000 ) ) ;
#324 = VECTOR ( 'NONE', #89, 1000.000000000000000 ) ;
#325 = DIRECTION ( 'NONE',  ( 1.000000000000000000, 0.000000000000000000, 0.000000000000000000 ) ) ;
#326 = CC_DESIGN_APPROVAL ( #212, ( #413 ) ) ;
#327 = CARTESIAN_POINT ( 'NONE',  ( -4.000000000000000000, -3.999999999999999112, 30.00000000000000000 ) ) ;
#328 = ORIENTED_EDGE ( 'NONE', *, *, #292, .T. ) ;
#329 = DIRECTION ( 'NONE',  ( 0.000000000000000000, -1.000000000000000000, 0.000000000000000000 ) ) ;
#330 = CARTESIAN_POINT ( 'NONE',  ( -6.000000000000000888, -5.999999999999999112, 0.000000000000000000 ) ) ;
#331 = PRODUCT_DEFINITION_SHAPE ( 'NONE', 'NONE',  #203 ) ;
#332 = CARTESIAN_POINT ( 'NONE',  ( 4.000000000000000000, -4.000000000000000888, 30.00000000000000000 ) ) ;
#333 = FACE_OUTER_BOUND ( 'NONE', #184, .T. ) ;
#334 = PLANE ( 'NONE',  #231 ) ;
#335 = PERSON_AND_ORGANIZATION ( #157, #175 ) ;
#336 = LINE ( 'NONE', #26, #426 ) ;
#337 = ADVANCED_FACE ( 'NONE', ( #242 ), #334, .F. ) ;
#338 = VERTEX_POINT ( 'NONE', #369 ) ;
#339 = VECTOR ( 'NONE', #82, 1000.000000000000000 ) ;
#340 = CYLINDRICAL_SURFACE ( 'NONE', #125, 2.500000000000000000 ) ;
#341 = VERTEX_POINT ( 'NONE', #92 ) ;
#342 = DATE_AND_TIME ( #145, #60 ) ;
#343 = ORIENTED_EDGE ( 'NONE', *, *, #215, .F. ) ;
#344 = ORIENTED_EDGE ( 'NONE', *, *, #20, .T. ) ;
#345 = VECTOR ( 'NONE', #7, 1000.000000000000000 ) ;
#346 = VERTEX_POINT ( 'NONE', #61 ) ;
#347 = EDGE_CURVE ( 'NONE', #193, #18, #169, .T. ) ;
#348 = CALENDAR_DATE ( 2026, 22, 8 ) ;
#349 = EDGE_CURVE ( 'NONE', #18, #277, #244, .T. ) ;
#350 = LINE ( 'NONE', #53, #272 ) ;
#351 = LINE ( 'NONE', #360, #368 ) ;
#352 = VECTOR ( 'NONE', #95, 1000.000000000000000 ) ;
#353 = CARTESIAN_POINT ( 'NONE',  ( -4.000000000000000000, -3.999999999999999112, 0.000000000000000000 ) ) ;
#354 = DIRECTION ( 'NONE',  ( -0.000000000000000000, -0.000000000000000000, -1.000000000000000000 ) ) ;
#355 = DIRECTION ( 'NONE',  ( 1.084202172485504311E-16, 1.000000000000000000, 0.000000000000000000 ) ) ;
#356 = FACE_OUTER_BOUND ( 'NONE', #286, .T. ) ;
#357 = AXIS2_PLACEMENT_3D ( 'NONE', #364, #303, #370 ) ;
#358 = DIRECTION ( 'NONE',  ( 1.000000000000000000, -1.084202172485504311E-16, 0.000000000000000000 ) ) ;
#359 = ORIENTED_EDGE ( 'NONE', *, *, #347, .F. ) ;
#360 = CARTESIAN_POINT ( 'NONE',  ( -6.000000000000000888, -5.999999999999999112, 0.000000000000000000 ) ) ;
#361 = LOCAL_TIME ( 22, 10, 9.000000000000000000, #375 ) ;
#362 = CARTESIAN_POINT ( 'NONE',  ( 5.999999999999997335, 6.000000000000000888, 0.000000000000000000 ) ) ;
#363 = ADVANCED_FACE ( 'NONE', ( #304 ), #340, .F. ) ;
#364 = CARTESIAN_POINT ( 'NONE',  ( 0.000000000000000000, 0.000000000000000000, 0.000000000000000000 ) ) ;
#365 = CARTESIAN_POINT ( 'NONE',  ( -6.000000000000002665, 6.000000000000000888, 0.000000000000000000 ) ) ;
#366 = CARTESIAN_POINT ( 'NONE',  ( 4.000000000000000000, -4.000000000000000888, 0.000000000000000000 ) ) ;
#367 = CYLINDRICAL_SURFACE ( 'NONE', #45, 2.500000000000000000 ) ;
#368 = VECTOR ( 'NONE', #325, 1000.000000000000000 ) ;
#369 = CARTESIAN_POINT ( 'NONE',  ( 5.999999999999997335, 6.000000000000000888, 37.00000000000000000 ) ) ;
#370 = DIRECTION ( 'NONE',  ( 1.000000000000000000, 0.000000000000000000, 0.000000000000000000 ) ) ;
#371 = DIRECTION ( 'NONE',  ( -0.000000000000000000, -0.000000000000000000, -1.000000000000000000 ) ) ;
#372 = ORIENTED_EDGE ( 'NONE', *, *, #103, .F. ) ;
#373 = DIRECTION ( 'NONE',  ( 1.000000000000000000, 0.000000000000000000, 0.000000000000000000 ) ) ;
#374 = ORIENTED_EDGE ( 'NONE', *, *, #147, .F. ) ;
#375 = COORDINATED_UNIVERSAL_TIME_OFFSET ( 5, 30, .AHEAD. ) ;
#376 = ORIENTED_EDGE ( 'NONE', *, *, #103, .T. ) ;
#377 = DATE_AND_TIME ( #253, #361 ) ;
#378 = EDGE_LOOP ( 'NONE', ( #228, #374, #233, #211 ) ) ;
#379 = DATE_AND_TIME ( #316, #33 ) ;
#380 = ORIENTED_EDGE ( 'NONE', *, *, #397, .T. ) ;
#381 = CARTESIAN_POINT ( 'NONE',  ( 4.000000000000000888, 4.000000000000000888, 30.00000000000000000 ) ) ;
#382 = AXIS2_PLACEMENT_3D ( 'NONE', #261, #392, #198 ) ;
#383 = EDGE_CURVE ( 'NONE', #452, #218, #173, .T. ) ;
#384 = AXIS2_PLACEMENT_3D ( 'NONE', #80, #321, #438 ) ;
#385 = ADVANCED_FACE ( 'NONE', ( #170 ), #367, .F. ) ;
#386 = CALENDAR_DATE ( 2026, 22, 8 ) ;
#387 = CARTESIAN_POINT ( 'NONE',  ( 4.000000000000000888, 4.000000000000000888, 0.000000000000000000 ) ) ;
#388 = VERTEX_POINT ( 'NONE', #68 ) ;
#389 = AXIS2_PLACEMENT_3D ( 'NONE', #127, #28, #24 ) ;
#390 = CARTESIAN_POINT ( 'NONE',  ( 5.999999999999997335, 6.000000000000000888, 37.00000000000000000 ) ) ;
#391 = CC_DESIGN_PERSON_AND_ORGANIZATION_ASSIGNMENT ( #421, #138, ( #402 ) ) ;
#392 = DIRECTION ( 'NONE',  ( -1.000000000000000000, -1.445602896647339163E-16, 0.000000000000000000 ) ) ;
#393 = ORIENTED_EDGE ( 'NONE', *, *, #78, .T. ) ;
#394 = LINE ( 'NONE', #185, #345 ) ;
#395 = CARTESIAN_POINT ( 'NONE',  ( -6.000000000000002665, 6.000000000000000888, 37.00000000000000000 ) ) ;
#396 = EDGE_LOOP ( 'NONE', ( #146, #41, #359, #257 ) ) ;
#397 = EDGE_CURVE ( 'NONE', #123, #18, #307, .T. ) ;
#398 = VECTOR ( 'NONE', #30, 1000.000000000000000 ) ;
#399 = LINE ( 'NONE', #156, #430 ) ;
#400 = EDGE_LOOP ( 'NONE', ( #282, #87, #111, #232 ) ) ;
#401 = DESIGN_CONTEXT ( 'detailed design', #267, 'design' ) ;
#402 = PRODUCT_DEFINITION_FORMATION_WITH_SPECIFIED_SOURCE ( 'ANY', '', #405, .NOT_KNOWN. ) ;
#403 = CARTESIAN_POINT ( 'NONE',  ( -6.000000000000002665, 6.000000000000000888, 37.00000000000000000 ) ) ;
#404 = DIRECTION ( 'NONE',  ( 1.000000000000000000, 0.000000000000000000, 0.000000000000000000 ) ) ;
#405 = PRODUCT ( 'TesthCover_Default_sldprt', 'TesthCover_Default_sldprt', '', ( #243 ) ) ;
#406 =( NAMED_UNIT ( * ) PLANE_ANGLE_UNIT ( ) SI_UNIT ( $, .RADIAN. ) );
#407 = ADVANCED_FACE ( 'NONE', ( #34 ), #176, .F. ) ;
#408 = PLANE ( 'NONE',  #357 ) ;
#409 = CARTESIAN_POINT ( 'NONE',  ( -6.000000000000000888, -5.999999999999999112, 37.00000000000000000 ) ) ;
#410 = CIRCLE ( 'NONE', #241, 2.500000000000000000 ) ;
#411 = APPROVAL ( #256, 'UNSPECIFIED' ) ;
#412 = CARTESIAN_POINT ( 'NONE',  ( -2.500000000000000000, 3.061616997868383141E-16, -0.001000000000001000089 ) ) ;
#413 = SECURITY_CLASSIFICATION ( '', '', #276 ) ;
#414 = DIRECTION ( 'NONE',  ( -1.000000000000000000, 2.168404344971009115E-16, 0.000000000000000000 ) ) ;
#415 = ORIENTED_EDGE ( 'NONE', *, *, #432, .F. ) ;
#416 = APPROVAL_STATUS ( 'not_yet_approved' ) ;
#417 = ORIENTED_EDGE ( 'NONE', *, *, #383, .T. ) ;
#418 = AXIS2_PLACEMENT_3D ( 'NONE', #296, #47, #320 ) ;
#419 = DATE_AND_TIME ( #348, #150 ) ;
#420 = ORIENTED_EDGE ( 'NONE', *, *, #98, .F. ) ;
#421 = PERSON_AND_ORGANIZATION ( #157, #175 ) ;
#422 = ORIENTED_EDGE ( 'NONE', *, *, #288, .T. ) ;
#423 = COORDINATED_UNIVERSAL_TIME_OFFSET ( 5, 30, .AHEAD. ) ;
#424 = EDGE_LOOP ( 'NONE', ( #104, #393, #139, #376 ) ) ;
#425 = ADVANCED_BREP_SHAPE_REPRESENTATION ( 'TesthCover_Default_sldprt', ( #1, #187 ), #300 ) ;
#426 = VECTOR ( 'NONE', #443, 1000.000000000000000 ) ;
#427 = CARTESIAN_POINT ( 'NONE',  ( -6.000000000000002665, 6.000000000000000888, 0.000000000000000000 ) ) ;
#428 = UNCERTAINTY_MEASURE_WITH_UNIT (LENGTH_MEASURE( 1.000000000000000082E-05 ), #65, 'distance_accuracy_value', 'NONE');
#429 = FACE_BOUND ( 'NONE', #71, .T. ) ;
#430 = VECTOR ( 'NONE', #83, 1000.000000000000000 ) ;
#431 = FACE_OUTER_BOUND ( 'NONE', #102, .T. ) ;
#432 = EDGE_CURVE ( 'NONE', #6, #218, #59, .T. ) ;
#433 = ORIENTED_EDGE ( 'NONE', *, *, #16, .F. ) ;
#434 = CARTESIAN_POINT ( 'NONE',  ( -3.999999999999998224, 4.000000000000000888, 30.00000000000000000 ) ) ;
#435 = ADVANCED_FACE ( 'NONE', ( #333 ), #302, .F. ) ;
#436 = ORIENTED_EDGE ( 'NONE', *, *, #32, .F. ) ;
#437 = CARTESIAN_POINT ( 'NONE',  ( -6.000000000000002665, 6.000000000000000888, 37.00000000000000000 ) ) ;
#438 = DIRECTION ( 'NONE',  ( 1.000000000000000000, 0.000000000000000000, 0.000000000000000000 ) ) ;
#439 = LINE ( 'NONE', #332, #313 ) ;
#440 = LINE ( 'NONE', #306, #287 ) ;
#441 = PLANE ( 'NONE',  #200 ) ;
#442 = CARTESIAN_POINT ( 'NONE',  ( -4.000000000000000000, -3.999999999999999112, 30.00000000000000000 ) ) ;
#443 = DIRECTION ( 'NONE',  ( -1.000000000000000000, -0.000000000000000000, -0.000000000000000000 ) ) ;
#444 = VECTOR ( 'NONE', #122, 1000.000000000000000 ) ;
#445 = CARTESIAN_POINT ( 'NONE',  ( 0.000000000000000000, 0.000000000000000000, -0.001000000000001000089 ) ) ;
#446 = DIRECTION ( 'NONE',  ( -2.168404344971009115E-16, -1.000000000000000000, 0.000000000000000000 ) ) ;
#447 = ORIENTED_EDGE ( 'NONE', *, *, #38, .F. ) ;
#448 = EDGE_CURVE ( 'NONE', #181, #148, #440, .T. ) ;
#449 = ORIENTED_EDGE ( 'NONE', *, *, #288, .F. ) ;
#450 = PRODUCT_RELATED_PRODUCT_CATEGORY ( 'detail', '', ( #405 ) ) ;
#451 = APPROVAL_ROLE ( '' ) ;
#452 = VERTEX_POINT ( 'NONE', #56 ) ;
#453 = CLOSED_SHELL ( 'NONE', ( #385, #132, #130, #337, #3, #64, #219, #183, #229, #407, #435, #216, #363 ) ) ;
ENDSEC;
END-ISO-10303-21;
