ISO-10303-21;
HEADER;
FILE_DESCRIPTION (( 'STEP AP203' ),
    '1' );
FILE_NAME ('wheel_insert_4mm_shaft_sldprt.STEP',
    '2026-08-22T16:40:19',
    ( '' ),
    ( '' ),
    'SwSTEP 2.0',
    'SolidWorks 2020',
    '' );
FILE_SCHEMA (( 'CONFIG_CONTROL_DESIGN' ));
ENDSEC;

DATA;
#1 = VECTOR ( 'NONE', #106, 1000.000000000000000 ) ;
#2 = CARTESIAN_POINT ( 'NONE',  ( 4.000000000000000000, 0.000000000000000000, 0.000000000000000000 ) ) ;
#3 = DIRECTION ( 'NONE',  ( 0.5000000000000003331, 0.8660254037844384856, 0.000000000000000000 ) ) ;
#4 = EDGE_CURVE ( 'NONE', #242, #60, #425, .T. ) ;
#5 = CC_DESIGN_APPROVAL ( #355, ( #153 ) ) ;
#6 = APPROVAL_ROLE ( '' ) ;
#7 = VECTOR ( 'NONE', #415, 1000.000000000000227 ) ;
#8 = PERSON_AND_ORGANIZATION_ROLE ( 'design_owner' ) ;
#9 = PERSON_AND_ORGANIZATION_ROLE ( 'creator' ) ;
#10 = CIRCLE ( 'NONE', #30, 4.000000000000000000 ) ;
#11 = VECTOR ( 'NONE', #170, 1000.000000000000114 ) ;
#12 = ORIENTED_EDGE ( 'NONE', *, *, #88, .F. ) ;
#13 = UNCERTAINTY_MEASURE_WITH_UNIT (LENGTH_MEASURE( 1.000000000000000082E-05 ), #362, 'distance_accuracy_value', 'NONE');
#14 = EDGE_LOOP ( 'NONE', ( #162, #455 ) ) ;
#15 = APPLICATION_CONTEXT ( 'configuration controlled 3d designs of mechanical parts and assemblies' ) ;
#16 = APPROVAL_PERSON_ORGANIZATION ( #348, #355, #427 ) ;
#17 = ORIENTED_EDGE ( 'NONE', *, *, #237, .T. ) ;
#18 = DIRECTION ( 'NONE',  ( 1.000000000000000000, 0.000000000000000000, 0.000000000000000000 ) ) ;
#19 = DIRECTION ( 'NONE',  ( -0.000000000000000000, -0.000000000000000000, 1.000000000000000000 ) ) ;
#20 = ORIENTED_EDGE ( 'NONE', *, *, #39, .T. ) ;
#21 = APPROVAL ( #186, 'UNSPECIFIED' ) ;
#22 = LINE ( 'NONE', #447, #183 ) ;
#23 = CARTESIAN_POINT ( 'NONE',  ( 0.000000000000000000, 0.000000000000000000, -12.00000000000000000 ) ) ;
#24 = EDGE_LOOP ( 'NONE', ( #379, #403 ) ) ;
#25 = DIRECTION ( 'NONE',  ( 0.000000000000000000, -0.000000000000000000, 1.000000000000000000 ) ) ;
#26 = DIRECTION ( 'NONE',  ( 0.000000000000000000, 0.000000000000000000, -1.000000000000000000 ) ) ;
#27 = FACE_OUTER_BOUND ( 'NONE', #390, .T. ) ;
#28 = CARTESIAN_POINT ( 'NONE',  ( 2.499999999999999112, -4.330127018922193649, 6.000000000000000000 ) ) ;
#29 = EDGE_LOOP ( 'NONE', ( #408, #212, #284, #17 ) ) ;
#30 = AXIS2_PLACEMENT_3D ( 'NONE', #274, #443, #62 ) ;
#31 = PLANE ( 'NONE',  #189 ) ;
#32 = LINE ( 'NONE', #28, #47 ) ;
#33 = EDGE_CURVE ( 'NONE', #145, #267, #423, .T. ) ;
#34 = DATE_AND_TIME ( #392, #84 ) ;
#35 = EDGE_LOOP ( 'NONE', ( #89, #275, #169, #193, #421, #166 ) ) ;
#36 =( NAMED_UNIT ( * ) PLANE_ANGLE_UNIT ( ) SI_UNIT ( $, .RADIAN. ) );
#37 = EDGE_LOOP ( 'NONE', ( #302, #352, #232, #234 ) ) ;
#38 = LOCAL_TIME ( 22, 10, 19.00000000000000000, #357 ) ;
#39 = EDGE_CURVE ( 'NONE', #129, #238, #393, .T. ) ;
#40 = LINE ( 'NONE', #354, #174 ) ;
#41 = EDGE_CURVE ( 'NONE', #278, #434, #250, .T. ) ;
#42 = AXIS2_PLACEMENT_3D ( 'NONE', #168, #317, #407 ) ;
#43 = LINE ( 'NONE', #184, #220 ) ;
#44 = CIRCLE ( 'NONE', #301, 4.000000000000000000 ) ;
#45 = CARTESIAN_POINT ( 'NONE',  ( -5.000000000000000888, -3.717264591378874669E-16, 0.000000000000000000 ) ) ;
#46 = APPROVAL_ROLE ( '' ) ;
#47 = VECTOR ( 'NONE', #208, 1000.000000000000000 ) ;
#48 = EDGE_LOOP ( 'NONE', ( #344, #133, #419, #375 ) ) ;
#49 = AXIS2_PLACEMENT_3D ( 'NONE', #181, #151, #326 ) ;
#50 = CC_DESIGN_PERSON_AND_ORGANIZATION_ASSIGNMENT ( #385, #256, ( #372 ) ) ;
#51 = VERTEX_POINT ( 'NONE', #356 ) ;
#52 = ORIENTED_EDGE ( 'NONE', *, *, #132, .T. ) ;
#53 = CARTESIAN_POINT ( 'NONE',  ( 2.499999999999999112, -4.330127018922193649, 0.000000000000000000 ) ) ;
#54 = FACE_OUTER_BOUND ( 'NONE', #48, .T. ) ;
#55 = ADVANCED_FACE ( 'NONE', ( #426 ), #255, .F. ) ;
#56 = EDGE_LOOP ( 'NONE', ( #341, #12, #128, #438 ) ) ;
#57 = CARTESIAN_POINT ( 'NONE',  ( -5.000000000000000888, -3.717264591378874669E-16, 0.000000000000000000 ) ) ;
#58 = CARTESIAN_POINT ( 'NONE',  ( -2.500000000000001332, 4.330127018922192761, 6.000000000000000000 ) ) ;
#59 = AXIS2_PLACEMENT_3D ( 'NONE', #23, #26, #374 ) ;
#60 = VERTEX_POINT ( 'NONE', #222 ) ;
#61 = AXIS2_PLACEMENT_3D ( 'NONE', #94, #377, #235 ) ;
#62 = DIRECTION ( 'NONE',  ( -1.000000000000000000, 0.000000000000000000, 0.000000000000000000 ) ) ;
#63 = DIRECTION ( 'NONE',  ( 0.000000000000000000, 0.000000000000000000, 1.000000000000000000 ) ) ;
#64 = LINE ( 'NONE', #272, #11 ) ;
#65 = DIRECTION ( 'NONE',  ( 1.000000000000000000, 0.000000000000000000, 0.000000000000000000 ) ) ;
#66 = DIRECTION ( 'NONE',  ( -0.000000000000000000, -0.000000000000000000, -1.000000000000000000 ) ) ;
#67 = ADVANCED_FACE ( 'NONE', ( #79, #72 ), #81, .F. ) ;
#68 = DIRECTION ( 'NONE',  ( -1.000000000000000000, 0.000000000000000000, -0.000000000000000000 ) ) ;
#69 = SECURITY_CLASSIFICATION_LEVEL ( 'unclassified' ) ;
#70 = VERTEX_POINT ( 'NONE', #2 ) ;
#71 = PERSON_AND_ORGANIZATION ( #196, #435 ) ;
#72 = FACE_OUTER_BOUND ( 'NONE', #35, .T. ) ;
#73 = VERTEX_POINT ( 'NONE', #358 ) ;
#74 = EDGE_CURVE ( 'NONE', #278, #145, #115, .T. ) ;
#75 = ADVANCED_BREP_SHAPE_REPRESENTATION ( 'wheel_insert_4mm_shaft_sldprt', ( #244, #228 ), #150 ) ;
#76 = DIRECTION ( 'NONE',  ( -0.000000000000000000, -0.000000000000000000, -1.000000000000000000 ) ) ;
#77 = DATE_AND_TIME ( #424, #38 ) ;
#78 = APPROVAL_PERSON_ORGANIZATION ( #71, #21, #6 ) ;
#79 = FACE_BOUND ( 'NONE', #14, .T. ) ;
#80 = AXIS2_PLACEMENT_3D ( 'NONE', #453, #282, #451 ) ;
#81 = PLANE ( 'NONE',  #432 ) ;
#82 = VECTOR ( 'NONE', #279, 1000.000000000000000 ) ;
#83 = COORDINATED_UNIVERSAL_TIME_OFFSET ( 5, 30, .AHEAD. ) ;
#84 = LOCAL_TIME ( 22, 10, 19.00000000000000000, #325 ) ;
#85 = LOCAL_TIME ( 22, 10, 19.00000000000000000, #249 ) ;
#86 = PERSON_AND_ORGANIZATION ( #196, #435 ) ;
#87 = APPLICATION_CONTEXT ( 'configuration controlled 3d designs of mechanical parts and assemblies' ) ;
#88 = EDGE_CURVE ( 'NONE', #60, #215, #43, .T. ) ;
#89 = ORIENTED_EDGE ( 'NONE', *, *, #113, .F. ) ;
#90 = ORIENTED_EDGE ( 'NONE', *, *, #380, .T. ) ;
#91 = VERTEX_POINT ( 'NONE', #217 ) ;
#92 = CARTESIAN_POINT ( 'NONE',  ( -2.000000000000000000, 0.000000000000000000, 5.656854249492380582 ) ) ;
#93 = ORIENTED_EDGE ( 'NONE', *, *, #41, .T. ) ;
#94 = CARTESIAN_POINT ( 'NONE',  ( 0.000000000000000000, 0.000000000000000000, 0.000000000000000000 ) ) ;
#95 = CARTESIAN_POINT ( 'NONE',  ( 4.999999999999999112, -2.230358754827323125E-15, 6.000000000000000000 ) ) ;
#96 = ORIENTED_EDGE ( 'NONE', *, *, #88, .T. ) ;
#97 = CARTESIAN_POINT ( 'NONE',  ( 0.000000000000000000, 0.000000000000000000, 6.000000000000000000 ) ) ;
#98 = VECTOR ( 'NONE', #180, 1000.000000000000227 ) ;
#99 = CARTESIAN_POINT ( 'NONE',  ( 0.000000000000000000, 0.000000000000000000, 6.000000000000000000 ) ) ;
#100 = AXIS2_PLACEMENT_3D ( 'NONE', #97, #111, #102 ) ;
#101 = ORIENTED_EDGE ( 'NONE', *, *, #411, .T. ) ;
#102 = DIRECTION ( 'NONE',  ( 1.000000000000000000, 0.000000000000000000, 0.000000000000000000 ) ) ;
#103 = CARTESIAN_POINT ( 'NONE',  ( 4.999999999999999112, -2.230358754827323125E-15, 0.000000000000000000 ) ) ;
#104 = CC_DESIGN_PERSON_AND_ORGANIZATION_ASSIGNMENT ( #117, #219, ( #153 ) ) ;
#105 = PLANE ( 'NONE',  #80 ) ;
#106 = DIRECTION ( 'NONE',  ( -0.000000000000000000, -0.000000000000000000, -1.000000000000000000 ) ) ;
#107 = CC_DESIGN_SECURITY_CLASSIFICATION ( #153, ( #372 ) ) ;
#108 = DATE_AND_TIME ( #297, #446 ) ;
#109 = EDGE_LOOP ( 'NONE', ( #289, #175, #137, #114 ) ) ;
#110 = CC_DESIGN_APPROVAL ( #21, ( #372 ) ) ;
#111 = DIRECTION ( 'NONE',  ( 0.000000000000000000, 0.000000000000000000, 1.000000000000000000 ) ) ;
#112 = DIRECTION ( 'NONE',  ( 0.5000000000000002220, -0.8660254037844384856, 0.000000000000000000 ) ) ;
#113 = EDGE_CURVE ( 'NONE', #329, #402, #40, .T. ) ;
#114 = ORIENTED_EDGE ( 'NONE', *, *, #33, .T. ) ;
#115 = LINE ( 'NONE', #253, #192 ) ;
#116 = EDGE_CURVE ( 'NONE', #368, #215, #152, .T. ) ;
#117 = PERSON_AND_ORGANIZATION ( #196, #435 ) ;
#118 = CARTESIAN_POINT ( 'NONE',  ( -5.000000000000000888, -3.717264591378874669E-16, 6.000000000000000000 ) ) ;
#119 = ADVANCED_FACE ( 'NONE', ( #294 ), #144, .F. ) ;
#120 = CARTESIAN_POINT ( 'NONE',  ( -5.000000000000000888, -3.717264591378874669E-16, 6.000000000000000000 ) ) ;
#121 = PERSON_AND_ORGANIZATION ( #196, #435 ) ;
#122 = CC_DESIGN_PERSON_AND_ORGANIZATION_ASSIGNMENT ( #121, #211, ( #372 ) ) ;
#123 = CARTESIAN_POINT ( 'NONE',  ( 4.000000000000000000, 0.000000000000000000, -12.00000000000000000 ) ) ;
#124 = EDGE_CURVE ( 'NONE', #402, #434, #213, .T. ) ;
#125 = CLOSED_SHELL ( 'NONE', ( #262, #305, #146, #55, #200, #321, #119, #323, #359, #67, #266, #216, #450 ) ) ;
#126 = ORIENTED_EDGE ( 'NONE', *, *, #299, .T. ) ;
#127 = CC_DESIGN_APPROVAL ( #328, ( #436 ) ) ;
#128 = ORIENTED_EDGE ( 'NONE', *, *, #4, .F. ) ;
#129 = VERTEX_POINT ( 'NONE', #314 ) ;
#130 = CARTESIAN_POINT ( 'NONE',  ( 0.000000000000000000, 0.000000000000000000, 6.000000000000000000 ) ) ;
#131 = DIRECTION ( 'NONE',  ( -0.000000000000000000, -0.000000000000000000, -1.000000000000000000 ) ) ;
#132 = EDGE_CURVE ( 'NONE', #145, #242, #245, .T. ) ;
#133 = ORIENTED_EDGE ( 'NONE', *, *, #417, .F. ) ;
#134 = CARTESIAN_POINT ( 'NONE',  ( -2.499999999999999556, -4.330127018922193649, 6.000000000000000000 ) ) ;
#135 = PLANE ( 'NONE',  #241 ) ;
#136 = LOCAL_TIME ( 22, 10, 19.00000000000000000, #83 ) ;
#137 = ORIENTED_EDGE ( 'NONE', *, *, #132, .F. ) ;
#138 = CARTESIAN_POINT ( 'NONE',  ( -4.000000000000000000, 4.898587196589412829E-16, -12.00000000000000000 ) ) ;
#139 = VECTOR ( 'NONE', #394, 1000.000000000000000 ) ;
#140 = LINE ( 'NONE', #92, #188 ) ;
#141 = LINE ( 'NONE', #134, #82 ) ;
#142 = CARTESIAN_POINT ( 'NONE',  ( -5.000000000000000888, -3.717264591378874669E-16, 6.000000000000000000 ) ) ;
#143 = DIRECTION ( 'NONE',  ( 0.000000000000000000, -0.000000000000000000, 1.000000000000000000 ) ) ;
#144 = PLANE ( 'NONE',  #155 ) ;
#145 = VERTEX_POINT ( 'NONE', #58 ) ;
#146 = ADVANCED_FACE ( 'NONE', ( #343 ), #202, .F. ) ;
#147 = DIRECTION ( 'NONE',  ( 0.000000000000000000, -0.000000000000000000, 1.000000000000000000 ) ) ;
#148 = VECTOR ( 'NONE', #378, 1000.000000000000114 ) ;
#149 = CIRCLE ( 'NONE', #414, 2.000000000000000000 ) ;
#150 =( GEOMETRIC_REPRESENTATION_CONTEXT ( 3 ) GLOBAL_UNCERTAINTY_ASSIGNED_CONTEXT ( ( #13 ) ) GLOBAL_UNIT_ASSIGNED_CONTEXT ( ( #362, #36, #327 ) ) REPRESENTATION_CONTEXT ( 'NONE', 'WORKASPACE' ) );
#151 = DIRECTION ( 'NONE',  ( -0.8660254037844385966, -0.5000000000000003331, 0.000000000000000000 ) ) ;
#152 = LINE ( 'NONE', #45, #337 ) ;
#153 = SECURITY_CLASSIFICATION ( '', '', #69 ) ;
#154 = COORDINATED_UNIVERSAL_TIME_OFFSET ( 5, 30, .AHEAD. ) ;
#155 = AXIS2_PLACEMENT_3D ( 'NONE', #120, #258, #388 ) ;
#156 = EDGE_CURVE ( 'NONE', #434, #267, #350, .T. ) ;
#157 = VECTOR ( 'NONE', #322, 1000.000000000000000 ) ;
#158 = EDGE_CURVE ( 'NONE', #159, #51, #140, .T. ) ;
#159 = VERTEX_POINT ( 'NONE', #347 ) ;
#160 = ORIENTED_EDGE ( 'NONE', *, *, #161, .T. ) ;
#161 = EDGE_CURVE ( 'NONE', #91, #312, #360, .T. ) ;
#162 = ORIENTED_EDGE ( 'NONE', *, *, #270, .F. ) ;
#163 = CARTESIAN_POINT ( 'NONE',  ( -2.499999999999999556, -4.330127018922193649, 6.000000000000000000 ) ) ;
#164 = FACE_BOUND ( 'NONE', #24, .T. ) ;
#165 = AXIS2_PLACEMENT_3D ( 'NONE', #454, #233, #370 ) ;
#166 = ORIENTED_EDGE ( 'NONE', *, *, #124, .F. ) ;
#167 = CARTESIAN_POINT ( 'NONE',  ( 4.999999999999999112, -2.230358754827323125E-15, 0.000000000000000000 ) ) ;
#168 = CARTESIAN_POINT ( 'NONE',  ( 2.499999999999999112, -4.330127018922193649, 6.000000000000000000 ) ) ;
#169 = ORIENTED_EDGE ( 'NONE', *, *, #116, .F. ) ;
#170 = DIRECTION ( 'NONE',  ( -0.5000000000000002220, 0.8660254037844384856, 0.000000000000000000 ) ) ;
#171 = DIRECTION ( 'NONE',  ( 1.000000000000000000, 1.734723475976807834E-16, 0.000000000000000000 ) ) ;
#172 = CYLINDRICAL_SURFACE ( 'NONE', #291, 2.000000000000000000 ) ;
#173 = LINE ( 'NONE', #142, #1 ) ;
#174 = VECTOR ( 'NONE', #3, 1000.000000000000114 ) ;
#175 = ORIENTED_EDGE ( 'NONE', *, *, #214, .F. ) ;
#176 = LINE ( 'NONE', #138, #433 ) ;
#177 = FACE_OUTER_BOUND ( 'NONE', #365, .T. ) ;
#178 = ORIENTED_EDGE ( 'NONE', *, *, #74, .T. ) ;
#179 = APPROVAL_STATUS ( 'not_yet_approved' ) ;
#180 = DIRECTION ( 'NONE',  ( 0.5000000000000002220, -0.8660254037844384856, 0.000000000000000000 ) ) ;
#181 = CARTESIAN_POINT ( 'NONE',  ( 4.999999999999999112, -2.230358754827323125E-15, 6.000000000000000000 ) ) ;
#182 = SHAPE_DEFINITION_REPRESENTATION ( #332, #75 ) ;
#183 = VECTOR ( 'NONE', #246, 1000.000000000000000 ) ;
#184 = CARTESIAN_POINT ( 'NONE',  ( -2.499999999999999556, -4.330127018922193649, 6.000000000000000000 ) ) ;
#185 = EDGE_CURVE ( 'NONE', #129, #159, #399, .T. ) ;
#186 = APPROVAL_STATUS ( 'not_yet_approved' ) ;
#187 = EDGE_CURVE ( 'NONE', #238, #51, #251, .T. ) ;
#188 = VECTOR ( 'NONE', #382, 1000.000000000000000 ) ;
#189 = AXIS2_PLACEMENT_3D ( 'NONE', #130, #143, #338 ) ;
#190 = MECHANICAL_CONTEXT ( 'NONE', #15, 'mechanical' ) ;
#191 = VERTEX_POINT ( 'NONE', #410 ) ;
#192 = VECTOR ( 'NONE', #391, 1000.000000000000000 ) ;
#193 = ORIENTED_EDGE ( 'NONE', *, *, #285, .F. ) ;
#194 = EDGE_CURVE ( 'NONE', #191, #329, #32, .T. ) ;
#195 = ORIENTED_EDGE ( 'NONE', *, *, #39, .F. ) ;
#196 = PERSON ( 'UNSPECIFIED', 'UNSPECIFIED', 'UNSPECIFIED', ('UNSPECIFIED'), ('UNSPECIFIED'), ('UNSPECIFIED') ) ;
#197 = CYLINDRICAL_SURFACE ( 'NONE', #281, 4.000000000000000000 ) ;
#198 = CYLINDRICAL_SURFACE ( 'NONE', #230, 4.000000000000000000 ) ;
#199 = ORIENTED_EDGE ( 'NONE', *, *, #158, .F. ) ;
#200 = ADVANCED_FACE ( 'NONE', ( #444 ), #206, .F. ) ;
#201 = CARTESIAN_POINT ( 'NONE',  ( 4.000000000000000000, 0.000000000000000000, -12.00000000000000000 ) ) ;
#202 = PLANE ( 'NONE',  #42 ) ;
#203 = AXIS2_PLACEMENT_3D ( 'NONE', #99, #63, #65 ) ;
#204 = EDGE_LOOP ( 'NONE', ( #90, #371, #271, #96 ) ) ;
#205 = FACE_OUTER_BOUND ( 'NONE', #309, .T. ) ;
#206 = PLANE ( 'NONE',  #307 ) ;
#207 = DIRECTION ( 'NONE',  ( -0.000000000000000000, -0.000000000000000000, 1.000000000000000000 ) ) ;
#208 = DIRECTION ( 'NONE',  ( -0.000000000000000000, -0.000000000000000000, -1.000000000000000000 ) ) ;
#209 = CARTESIAN_POINT ( 'NONE',  ( 0.000000000000000000, 0.000000000000000000, -12.00000000000000000 ) ) ;
#210 = CARTESIAN_POINT ( 'NONE',  ( -5.000000000000000888, -3.717264591378874669E-16, 6.000000000000000000 ) ) ;
#211 = PERSON_AND_ORGANIZATION_ROLE ( 'creator' ) ;
#212 = ORIENTED_EDGE ( 'NONE', *, *, #41, .F. ) ;
#213 = LINE ( 'NONE', #103, #148 ) ;
#214 = EDGE_CURVE ( 'NONE', #242, #368, #173, .T. ) ;
#215 = VERTEX_POINT ( 'NONE', #283 ) ;
#216 = ADVANCED_FACE ( 'NONE', ( #164, #240 ), #135, .T. ) ;
#217 = CARTESIAN_POINT ( 'NONE',  ( -4.000000000000000000, 4.898587196589412829E-16, -12.00000000000000000 ) ) ;
#218 = DIRECTION ( 'NONE',  ( 1.000000000000000000, 0.000000000000000000, -0.000000000000000000 ) ) ;
#219 = PERSON_AND_ORGANIZATION_ROLE ( 'classification_officer' ) ;
#220 = VECTOR ( 'NONE', #76, 1000.000000000000000 ) ;
#221 = CC_DESIGN_DATE_AND_TIME_ASSIGNMENT ( #320, #387, ( #436 ) ) ;
#222 = CARTESIAN_POINT ( 'NONE',  ( -2.499999999999999556, -4.330127018922193649, 6.000000000000000000 ) ) ;
#223 = CARTESIAN_POINT ( 'NONE',  ( 0.000000000000000000, 0.000000000000000000, 0.000000000000000000 ) ) ;
#224 = DIRECTION ( 'NONE',  ( -1.000000000000000000, 0.000000000000000000, 0.000000000000000000 ) ) ;
#225 = APPROVAL_DATE_TIME ( #395, #328 ) ;
#226 = VECTOR ( 'NONE', #260, 1000.000000000000000 ) ;
#227 = EDGE_LOOP ( 'NONE', ( #229, #160 ) ) ;
#228 = AXIS2_PLACEMENT_3D ( 'NONE', #223, #430, #429 ) ;
#229 = ORIENTED_EDGE ( 'NONE', *, *, #417, .T. ) ;
#230 = AXIS2_PLACEMENT_3D ( 'NONE', #335, #19, #308 ) ;
#231 = VECTOR ( 'NONE', #409, 1000.000000000000114 ) ;
#232 = ORIENTED_EDGE ( 'NONE', *, *, #431, .F. ) ;
#233 = DIRECTION ( 'NONE',  ( -0.000000000000000000, -0.000000000000000000, -1.000000000000000000 ) ) ;
#234 = ORIENTED_EDGE ( 'NONE', *, *, #194, .T. ) ;
#235 = DIRECTION ( 'NONE',  ( -1.000000000000000000, 0.000000000000000000, 0.000000000000000000 ) ) ;
#236 = CARTESIAN_POINT ( 'NONE',  ( 2.499999999999996447, 4.330127018922193649, 0.000000000000000000 ) ) ;
#237 = EDGE_CURVE ( 'NONE', #336, #402, #247, .T. ) ;
#238 = VERTEX_POINT ( 'NONE', #384 ) ;
#239 = FACE_OUTER_BOUND ( 'NONE', #331, .T. ) ;
#240 = FACE_OUTER_BOUND ( 'NONE', #227, .T. ) ;
#241 = AXIS2_PLACEMENT_3D ( 'NONE', #418, #277, #68 ) ;
#242 = VERTEX_POINT ( 'NONE', #210 ) ;
#243 = FACE_OUTER_BOUND ( 'NONE', #204, .T. ) ;
#244 = MANIFOLD_SOLID_BREP ( 'Cut-Extrude2', #125 ) ;
#245 = LINE ( 'NONE', #280, #7 ) ;
#246 = DIRECTION ( 'NONE',  ( 1.000000000000000000, 0.000000000000000000, 0.000000000000000000 ) ) ;
#247 = LINE ( 'NONE', #95, #265 ) ;
#248 = ORIENTED_EDGE ( 'NONE', *, *, #156, .T. ) ;
#249 = COORDINATED_UNIVERSAL_TIME_OFFSET ( 5, 30, .AHEAD. ) ;
#250 = LINE ( 'NONE', #290, #259 ) ;
#251 = CIRCLE ( 'NONE', #59, 2.000000000000000000 ) ;
#252 = ORIENTED_EDGE ( 'NONE', *, *, #364, .T. ) ;
#253 = CARTESIAN_POINT ( 'NONE',  ( 2.499999999999996447, 4.330127018922193649, 6.000000000000000000 ) ) ;
#254 = DATE_TIME_ROLE ( 'classification_date' ) ;
#255 = PLANE ( 'NONE',  #49 ) ;
#256 = PERSON_AND_ORGANIZATION_ROLE ( 'design_supplier' ) ;
#257 = CC_DESIGN_PERSON_AND_ORGANIZATION_ASSIGNMENT ( #86, #9, ( #436 ) ) ;
#258 = DIRECTION ( 'NONE',  ( 0.8660254037844384856, 0.5000000000000003331, -0.000000000000000000 ) ) ;
#259 = VECTOR ( 'NONE', #457, 1000.000000000000000 ) ;
#260 = DIRECTION ( 'NONE',  ( -0.000000000000000000, -0.000000000000000000, 1.000000000000000000 ) ) ;
#261 = AXIS2_PLACEMENT_3D ( 'NONE', #269, #340, #311 ) ;
#262 = ADVANCED_FACE ( 'NONE', ( #177 ), #319, .F. ) ;
#263 = LINE ( 'NONE', #123, #226 ) ;
#264 = APPLICATION_PROTOCOL_DEFINITION ( 'international standard', 'config_control_design', 1994, #87 ) ;
#265 = VECTOR ( 'NONE', #131, 1000.000000000000000 ) ;
#266 = ADVANCED_FACE ( 'NONE', ( #54 ), #198, .T. ) ;
#267 = VERTEX_POINT ( 'NONE', #441 ) ;
#268 = ORIENTED_EDGE ( 'NONE', *, *, #4, .T. ) ;
#269 = CARTESIAN_POINT ( 'NONE',  ( 0.000000000000000000, 0.000000000000000000, -12.00000000000000000 ) ) ;
#270 = EDGE_CURVE ( 'NONE', #70, #73, #10, .T. ) ;
#271 = ORIENTED_EDGE ( 'NONE', *, *, #428, .F. ) ;
#272 = CARTESIAN_POINT ( 'NONE',  ( 4.999999999999999112, -2.230358754827323125E-15, 6.000000000000000000 ) ) ;
#273 = CC_DESIGN_DATE_AND_TIME_ASSIGNMENT ( #77, #254, ( #153 ) ) ;
#274 = CARTESIAN_POINT ( 'NONE',  ( 0.000000000000000000, 0.000000000000000000, 0.000000000000000000 ) ) ;
#275 = ORIENTED_EDGE ( 'NONE', *, *, #380, .F. ) ;
#276 = CARTESIAN_POINT ( 'NONE',  ( 2.499999999999999112, -4.330127018922193649, 6.000000000000000000 ) ) ;
#277 = DIRECTION ( 'NONE',  ( 0.000000000000000000, 0.000000000000000000, -1.000000000000000000 ) ) ;
#278 = VERTEX_POINT ( 'NONE', #406 ) ;
#279 = DIRECTION ( 'NONE',  ( 1.000000000000000000, 0.000000000000000000, 0.000000000000000000 ) ) ;
#280 = CARTESIAN_POINT ( 'NONE',  ( -2.500000000000001332, 4.330127018922192761, 6.000000000000000000 ) ) ;
#281 = AXIS2_PLACEMENT_3D ( 'NONE', #286, #306, #18 ) ;
#282 = DIRECTION ( 'NONE',  ( 0.8660254037844387076, -0.5000000000000001110, 0.000000000000000000 ) ) ;
#283 = CARTESIAN_POINT ( 'NONE',  ( -2.499999999999999556, -4.330127018922193649, 0.000000000000000000 ) ) ;
#284 = ORIENTED_EDGE ( 'NONE', *, *, #339, .F. ) ;
#285 = EDGE_CURVE ( 'NONE', #267, #368, #373, .T. ) ;
#286 = CARTESIAN_POINT ( 'NONE',  ( 0.000000000000000000, 0.000000000000000000, -12.00000000000000000 ) ) ;
#287 = ORIENTED_EDGE ( 'NONE', *, *, #456, .F. ) ;
#288 = APPROVAL_DATE_TIME ( #34, #355 ) ;
#289 = ORIENTED_EDGE ( 'NONE', *, *, #285, .T. ) ;
#290 = CARTESIAN_POINT ( 'NONE',  ( 2.499999999999996447, 4.330127018922193649, 6.000000000000000000 ) ) ;
#291 = AXIS2_PLACEMENT_3D ( 'NONE', #316, #66, #224 ) ;
#292 = CARTESIAN_POINT ( 'NONE',  ( 2.000000000000000000, 2.449293598294706414E-16, 5.656854249492380582 ) ) ;
#293 = CC_DESIGN_PERSON_AND_ORGANIZATION_ASSIGNMENT ( #296, #8, ( #396 ) ) ;
#294 = FACE_OUTER_BOUND ( 'NONE', #56, .T. ) ;
#295 = APPROVAL_DATE_TIME ( #108, #21 ) ;
#296 = PERSON_AND_ORGANIZATION ( #196, #435 ) ;
#297 = CALENDAR_DATE ( 2026, 22, 8 ) ;
#298 = APPLICATION_PROTOCOL_DEFINITION ( 'international standard', 'config_control_design', 1994, #15 ) ;
#299 = EDGE_CURVE ( 'NONE', #159, #129, #300, .T. ) ;
#300 = CIRCLE ( 'NONE', #100, 2.000000000000000000 ) ;
#301 = AXIS2_PLACEMENT_3D ( 'NONE', #209, #416, #310 ) ;
#302 = ORIENTED_EDGE ( 'NONE', *, *, #113, .T. ) ;
#303 = EDGE_LOOP ( 'NONE', ( #445, #442 ) ) ;
#304 = ORIENTED_EDGE ( 'NONE', *, *, #158, .T. ) ;
#305 = ADVANCED_FACE ( 'NONE', ( #205 ), #197, .T. ) ;
#306 = DIRECTION ( 'NONE',  ( -0.000000000000000000, -0.000000000000000000, 1.000000000000000000 ) ) ;
#307 = AXIS2_PLACEMENT_3D ( 'NONE', #452, #404, #171 ) ;
#308 = DIRECTION ( 'NONE',  ( 1.000000000000000000, 0.000000000000000000, 0.000000000000000000 ) ) ;
#309 = EDGE_LOOP ( 'NONE', ( #412, #101, #252, #287 ) ) ;
#310 = DIRECTION ( 'NONE',  ( -1.000000000000000000, 0.000000000000000000, 0.000000000000000000 ) ) ;
#311 = DIRECTION ( 'NONE',  ( -1.000000000000000000, 0.000000000000000000, 0.000000000000000000 ) ) ;
#312 = VERTEX_POINT ( 'NONE', #201 ) ;
#313 = DIRECTION ( 'NONE',  ( 0.000000000000000000, 0.000000000000000000, -1.000000000000000000 ) ) ;
#314 = CARTESIAN_POINT ( 'NONE',  ( 2.000000000000000000, 2.449293598294706414E-16, 6.000000000000000000 ) ) ;
#315 = ORIENTED_EDGE ( 'NONE', *, *, #339, .T. ) ;
#316 = CARTESIAN_POINT ( 'NONE',  ( 0.000000000000000000, 0.000000000000000000, 5.656854249492380582 ) ) ;
#317 = DIRECTION ( 'NONE',  ( -0.8660254037844384856, 0.5000000000000003331, 0.000000000000000000 ) ) ;
#318 = DIRECTION ( 'NONE',  ( 0.000000000000000000, 1.000000000000000000, 0.000000000000000000 ) ) ;
#319 = CYLINDRICAL_SURFACE ( 'NONE', #165, 2.000000000000000000 ) ;
#320 = DATE_AND_TIME ( #363, #85 ) ;
#321 = ADVANCED_FACE ( 'NONE', ( #349 ), #105, .F. ) ;
#322 = DIRECTION ( 'NONE',  ( -0.000000000000000000, -0.000000000000000000, -1.000000000000000000 ) ) ;
#323 = ADVANCED_FACE ( 'NONE', ( #243 ), #342, .F. ) ;
#324 = CARTESIAN_POINT ( 'NONE',  ( 0.000000000000000000, 0.000000000000000000, 0.000000000000000000 ) ) ;
#325 = COORDINATED_UNIVERSAL_TIME_OFFSET ( 5, 30, .AHEAD. ) ;
#326 = DIRECTION ( 'NONE',  ( 0.5000000000000002220, -0.8660254037844384856, 0.000000000000000000 ) ) ;
#327 =( NAMED_UNIT ( * ) SI_UNIT ( $, .STERADIAN. ) SOLID_ANGLE_UNIT ( ) );
#328 = APPROVAL ( #179, 'UNSPECIFIED' ) ;
#329 = VERTEX_POINT ( 'NONE', #53 ) ;
#330 = EDGE_CURVE ( 'NONE', #51, #238, #149, .T. ) ;
#331 = EDGE_LOOP ( 'NONE', ( #437, #315, #178, #52, #268, #401 ) ) ;
#332 = PRODUCT_DEFINITION_SHAPE ( 'NONE', 'NONE',  #436 ) ;
#333 = EDGE_LOOP ( 'NONE', ( #248, #405, #386, #93 ) ) ;
#334 = DIRECTION ( 'NONE',  ( -0.5000000000000000000, -0.8660254037844385966, 0.000000000000000000 ) ) ;
#335 = CARTESIAN_POINT ( 'NONE',  ( 0.000000000000000000, 0.000000000000000000, -12.00000000000000000 ) ) ;
#336 = VERTEX_POINT ( 'NONE', #381 ) ;
#337 = VECTOR ( 'NONE', #112, 1000.000000000000227 ) ;
#338 = DIRECTION ( 'NONE',  ( 1.000000000000000000, 0.000000000000000000, -0.000000000000000000 ) ) ;
#339 = EDGE_CURVE ( 'NONE', #336, #278, #64, .T. ) ;
#340 = DIRECTION ( 'NONE',  ( 0.000000000000000000, 0.000000000000000000, -1.000000000000000000 ) ) ;
#341 = ORIENTED_EDGE ( 'NONE', *, *, #116, .T. ) ;
#342 = PLANE ( 'NONE',  #351 ) ;
#343 = FACE_OUTER_BOUND ( 'NONE', #37, .T. ) ;
#344 = ORIENTED_EDGE ( 'NONE', *, *, #411, .F. ) ;
#345 = CARTESIAN_POINT ( 'NONE',  ( 2.499999999999996447, 4.330127018922193649, 0.000000000000000000 ) ) ;
#346 = APPROVAL_PERSON_ORGANIZATION ( #397, #328, #46 ) ;
#347 = CARTESIAN_POINT ( 'NONE',  ( -2.000000000000000000, 0.000000000000000000, 6.000000000000000000 ) ) ;
#348 = PERSON_AND_ORGANIZATION ( #196, #435 ) ;
#349 = FACE_OUTER_BOUND ( 'NONE', #109, .T. ) ;
#350 = LINE ( 'NONE', #236, #439 ) ;
#351 = AXIS2_PLACEMENT_3D ( 'NONE', #163, #318, #25 ) ;
#352 = ORIENTED_EDGE ( 'NONE', *, *, #237, .F. ) ;
#353 = CALENDAR_DATE ( 2026, 22, 8 ) ;
#354 = CARTESIAN_POINT ( 'NONE',  ( 2.499999999999999112, -4.330127018922193649, 0.000000000000000000 ) ) ;
#355 = APPROVAL ( #389, 'UNSPECIFIED' ) ;
#356 = CARTESIAN_POINT ( 'NONE',  ( -2.000000000000000000, 0.000000000000000000, -12.00000000000000000 ) ) ;
#357 = COORDINATED_UNIVERSAL_TIME_OFFSET ( 5, 30, .AHEAD. ) ;
#358 = CARTESIAN_POINT ( 'NONE',  ( -4.000000000000000000, 4.898587196589412829E-16, 0.000000000000000000 ) ) ;
#359 = ADVANCED_FACE ( 'NONE', ( #440, #239 ), #31, .T. ) ;
#360 = CIRCLE ( 'NONE', #261, 4.000000000000000000 ) ;
#361 = CARTESIAN_POINT ( 'NONE',  ( -2.500000000000001332, 4.330127018922192761, 6.000000000000000000 ) ) ;
#362 =( LENGTH_UNIT ( ) NAMED_UNIT ( * ) SI_UNIT ( .MILLI., .METRE. ) );
#363 = CALENDAR_DATE ( 2026, 22, 8 ) ;
#364 = EDGE_CURVE ( 'NONE', #73, #70, #400, .T. ) ;
#365 = EDGE_LOOP ( 'NONE', ( #126, #20, #367, #199 ) ) ;
#366 = DESIGN_CONTEXT ( 'detailed design', #87, 'design' ) ;
#367 = ORIENTED_EDGE ( 'NONE', *, *, #187, .T. ) ;
#368 = VERTEX_POINT ( 'NONE', #57 ) ;
#369 = DIRECTION ( 'NONE',  ( -1.000000000000000000, 0.000000000000000000, 0.000000000000000000 ) ) ;
#370 = DIRECTION ( 'NONE',  ( -1.000000000000000000, 0.000000000000000000, 0.000000000000000000 ) ) ;
#371 = ORIENTED_EDGE ( 'NONE', *, *, #194, .F. ) ;
#372 = PRODUCT_DEFINITION_FORMATION_WITH_SPECIFIED_SOURCE ( 'ANY', '', #396, .NOT_KNOWN. ) ;
#373 = LINE ( 'NONE', #413, #376 ) ;
#374 = DIRECTION ( 'NONE',  ( -1.000000000000000000, 0.000000000000000000, 0.000000000000000000 ) ) ;
#375 = ORIENTED_EDGE ( 'NONE', *, *, #270, .T. ) ;
#376 = VECTOR ( 'NONE', #334, 1000.000000000000227 ) ;
#377 = DIRECTION ( 'NONE',  ( 0.000000000000000000, 0.000000000000000000, -1.000000000000000000 ) ) ;
#378 = DIRECTION ( 'NONE',  ( -0.5000000000000002220, 0.8660254037844384856, 0.000000000000000000 ) ) ;
#379 = ORIENTED_EDGE ( 'NONE', *, *, #330, .F. ) ;
#380 = EDGE_CURVE ( 'NONE', #215, #329, #22, .T. ) ;
#381 = CARTESIAN_POINT ( 'NONE',  ( 4.999999999999999112, -2.230358754827323125E-15, 6.000000000000000000 ) ) ;
#382 = DIRECTION ( 'NONE',  ( -0.000000000000000000, -0.000000000000000000, -1.000000000000000000 ) ) ;
#383 = LINE ( 'NONE', #276, #231 ) ;
#384 = CARTESIAN_POINT ( 'NONE',  ( 2.000000000000000000, 2.449293598294706414E-16, -12.00000000000000000 ) ) ;
#385 = PERSON_AND_ORGANIZATION ( #196, #435 ) ;
#386 = ORIENTED_EDGE ( 'NONE', *, *, #74, .F. ) ;
#387 = DATE_TIME_ROLE ( 'creation_date' ) ;
#388 = DIRECTION ( 'NONE',  ( -0.5000000000000003331, 0.8660254037844384856, 0.000000000000000000 ) ) ;
#389 = APPROVAL_STATUS ( 'not_yet_approved' ) ;
#390 = EDGE_LOOP ( 'NONE', ( #195, #422, #304, #449 ) ) ;
#391 = DIRECTION ( 'NONE',  ( -1.000000000000000000, -1.734723475976808080E-16, 0.000000000000000000 ) ) ;
#392 = CALENDAR_DATE ( 2026, 22, 8 ) ;
#393 = LINE ( 'NONE', #292, #157 ) ;
#394 = DIRECTION ( 'NONE',  ( -0.000000000000000000, -0.000000000000000000, -1.000000000000000000 ) ) ;
#395 = DATE_AND_TIME ( #353, #136 ) ;
#396 = PRODUCT ( 'wheel_insert_4mm_shaft_sldprt', 'wheel_insert_4mm_shaft_sldprt', '', ( #190 ) ) ;
#397 = PERSON_AND_ORGANIZATION ( #196, #435 ) ;
#398 = PRODUCT_RELATED_PRODUCT_CATEGORY ( 'detail', '', ( #396 ) ) ;
#399 = CIRCLE ( 'NONE', #203, 2.000000000000000000 ) ;
#400 = CIRCLE ( 'NONE', #61, 4.000000000000000000 ) ;
#401 = ORIENTED_EDGE ( 'NONE', *, *, #428, .T. ) ;
#402 = VERTEX_POINT ( 'NONE', #167 ) ;
#403 = ORIENTED_EDGE ( 'NONE', *, *, #187, .F. ) ;
#404 = DIRECTION ( 'NONE',  ( 1.734723475976807834E-16, -1.000000000000000000, 0.000000000000000000 ) ) ;
#405 = ORIENTED_EDGE ( 'NONE', *, *, #33, .F. ) ;
#406 = CARTESIAN_POINT ( 'NONE',  ( 2.499999999999996447, 4.330127018922193649, 6.000000000000000000 ) ) ;
#407 = DIRECTION ( 'NONE',  ( -0.5000000000000003331, -0.8660254037844384856, 0.000000000000000000 ) ) ;
#408 = ORIENTED_EDGE ( 'NONE', *, *, #124, .T. ) ;
#409 = DIRECTION ( 'NONE',  ( 0.5000000000000003331, 0.8660254037844384856, 0.000000000000000000 ) ) ;
#410 = CARTESIAN_POINT ( 'NONE',  ( 2.499999999999999112, -4.330127018922193649, 6.000000000000000000 ) ) ;
#411 = EDGE_CURVE ( 'NONE', #91, #73, #176, .T. ) ;
#412 = ORIENTED_EDGE ( 'NONE', *, *, #161, .F. ) ;
#413 = CARTESIAN_POINT ( 'NONE',  ( -2.500000000000001332, 4.330127018922192761, 0.000000000000000000 ) ) ;
#414 = AXIS2_PLACEMENT_3D ( 'NONE', #420, #313, #369 ) ;
#415 = DIRECTION ( 'NONE',  ( -0.5000000000000000000, -0.8660254037844385966, 0.000000000000000000 ) ) ;
#416 = DIRECTION ( 'NONE',  ( 0.000000000000000000, 0.000000000000000000, -1.000000000000000000 ) ) ;
#417 = EDGE_CURVE ( 'NONE', #312, #91, #44, .T. ) ;
#418 = CARTESIAN_POINT ( 'NONE',  ( 0.000000000000000000, 0.000000000000000000, -12.00000000000000000 ) ) ;
#419 = ORIENTED_EDGE ( 'NONE', *, *, #456, .T. ) ;
#420 = CARTESIAN_POINT ( 'NONE',  ( 0.000000000000000000, 0.000000000000000000, -12.00000000000000000 ) ) ;
#421 = ORIENTED_EDGE ( 'NONE', *, *, #156, .F. ) ;
#422 = ORIENTED_EDGE ( 'NONE', *, *, #185, .T. ) ;
#423 = LINE ( 'NONE', #361, #139 ) ;
#424 = CALENDAR_DATE ( 2026, 22, 8 ) ;
#425 = LINE ( 'NONE', #118, #98 ) ;
#426 = FACE_OUTER_BOUND ( 'NONE', #29, .T. ) ;
#427 = APPROVAL_ROLE ( '' ) ;
#428 = EDGE_CURVE ( 'NONE', #60, #191, #141, .T. ) ;
#429 = DIRECTION ( 'NONE',  ( 1.000000000000000000, 0.000000000000000000, 0.000000000000000000 ) ) ;
#430 = DIRECTION ( 'NONE',  ( 0.000000000000000000, 0.000000000000000000, 1.000000000000000000 ) ) ;
#431 = EDGE_CURVE ( 'NONE', #191, #336, #383, .T. ) ;
#432 = AXIS2_PLACEMENT_3D ( 'NONE', #324, #147, #218 ) ;
#433 = VECTOR ( 'NONE', #207, 1000.000000000000000 ) ;
#434 = VERTEX_POINT ( 'NONE', #345 ) ;
#435 = ORGANIZATION ( 'UNSPECIFIED', 'UNSPECIFIED', '' ) ;
#436 = PRODUCT_DEFINITION ( 'UNKNOWN', '', #372, #366 ) ;
#437 = ORIENTED_EDGE ( 'NONE', *, *, #431, .T. ) ;
#438 = ORIENTED_EDGE ( 'NONE', *, *, #214, .T. ) ;
#439 = VECTOR ( 'NONE', #448, 1000.000000000000000 ) ;
#440 = FACE_BOUND ( 'NONE', #303, .T. ) ;
#441 = CARTESIAN_POINT ( 'NONE',  ( -2.500000000000001332, 4.330127018922192761, 0.000000000000000000 ) ) ;
#442 = ORIENTED_EDGE ( 'NONE', *, *, #185, .F. ) ;
#443 = DIRECTION ( 'NONE',  ( 0.000000000000000000, 0.000000000000000000, -1.000000000000000000 ) ) ;
#444 = FACE_OUTER_BOUND ( 'NONE', #333, .T. ) ;
#445 = ORIENTED_EDGE ( 'NONE', *, *, #299, .F. ) ;
#446 = LOCAL_TIME ( 22, 10, 19.00000000000000000, #154 ) ;
#447 = CARTESIAN_POINT ( 'NONE',  ( -2.499999999999999556, -4.330127018922193649, 0.000000000000000000 ) ) ;
#448 = DIRECTION ( 'NONE',  ( -1.000000000000000000, -1.734723475976808080E-16, 0.000000000000000000 ) ) ;
#449 = ORIENTED_EDGE ( 'NONE', *, *, #330, .T. ) ;
#450 = ADVANCED_FACE ( 'NONE', ( #27 ), #172, .F. ) ;
#451 = DIRECTION ( 'NONE',  ( 0.5000000000000000000, 0.8660254037844385966, 0.000000000000000000 ) ) ;
#452 = CARTESIAN_POINT ( 'NONE',  ( 2.499999999999996447, 4.330127018922193649, 6.000000000000000000 ) ) ;
#453 = CARTESIAN_POINT ( 'NONE',  ( -2.500000000000001332, 4.330127018922192761, 6.000000000000000000 ) ) ;
#454 = CARTESIAN_POINT ( 'NONE',  ( 0.000000000000000000, 0.000000000000000000, 5.656854249492380582 ) ) ;
#455 = ORIENTED_EDGE ( 'NONE', *, *, #364, .F. ) ;
#456 = EDGE_CURVE ( 'NONE', #312, #70, #263, .T. ) ;
#457 = DIRECTION ( 'NONE',  ( -0.000000000000000000, -0.000000000000000000, -1.000000000000000000 ) ) ;
ENDSEC;
END-ISO-10303-21;
