ISO-10303-21;
HEADER;
FILE_DESCRIPTION (( 'STEP AP203' ),
    '1' );
FILE_NAME ('pinionlock_Default_sldprt.STEP',
    '2026-08-24T08:56:17',
    ( '' ),
    ( '' ),
    'SwSTEP 2.0',
    'SolidWorks 2020',
    '' );
FILE_SCHEMA (( 'CONFIG_CONTROL_DESIGN' ));
ENDSEC;

DATA;
#1 = EDGE_LOOP ( 'NONE', ( #3, #91, #12, #316 ) ) ;
#2 = AXIS2_PLACEMENT_3D ( 'NONE', #132, #243, #359 ) ;
#3 = ORIENTED_EDGE ( 'NONE', *, *, #337, .T. ) ;
#4 = CARTESIAN_POINT ( 'NONE',  ( 3.500000000000000000, 2.000000000000000000, 30.00000000000000355 ) ) ;
#5 = CARTESIAN_POINT ( 'NONE',  ( 7.000000000000000000, 2.000000000000000000, 33.00000000000000000 ) ) ;
#6 = APPROVAL ( #117, 'UNSPECIFIED' ) ;
#7 = LINE ( 'NONE', #127, #216 ) ;
#8 = EDGE_CURVE ( 'NONE', #349, #177, #159, .T. ) ;
#9 = ORIENTED_EDGE ( 'NONE', *, *, #108, .T. ) ;
#10 = LOCAL_TIME ( 14, 26, 17.00000000000000000, #173 ) ;
#11 = LINE ( 'NONE', #241, #67 ) ;
#12 = ORIENTED_EDGE ( 'NONE', *, *, #281, .T. ) ;
#13 = FACE_OUTER_BOUND ( 'NONE', #180, .T. ) ;
#14 = CYLINDRICAL_SURFACE ( 'NONE', #151, 2.000000000000000888 ) ;
#15 = LINE ( 'NONE', #75, #156 ) ;
#16 = CC_DESIGN_DATE_AND_TIME_ASSIGNMENT ( #119, #203, ( #176 ) ) ;
#17 = CARTESIAN_POINT ( 'NONE',  ( 7.000000000000000000, 7.466659246975332816E-16, 0.000000000000000000 ) ) ;
#18 = VECTOR ( 'NONE', #158, 1000.000000000000000 ) ;
#19 = DIRECTION ( 'NONE',  ( 0.000000000000000000, -1.000000000000000000, 0.000000000000000000 ) ) ;
#20 = VECTOR ( 'NONE', #250, 1000.000000000000000 ) ;
#21 = DIRECTION ( 'NONE',  ( -1.000000000000000000, -1.066665606710761637E-16, 0.000000000000000000 ) ) ;
#22 = CARTESIAN_POINT ( 'NONE',  ( 0.000000000000000000, 2.000000000000000000, 33.00000000000000000 ) ) ;
#23 = PERSON_AND_ORGANIZATION_ROLE ( 'design_owner' ) ;
#24 = CARTESIAN_POINT ( 'NONE',  ( 7.000000000000000000, 2.000000000000000000, 33.00000000000000000 ) ) ;
#25 = DATE_TIME_ROLE ( 'creation_date' ) ;
#26 = EDGE_CURVE ( 'NONE', #232, #144, #133, .T. ) ;
#27 = PERSON_AND_ORGANIZATION ( #138, #249 ) ;
#28 = ORIENTED_EDGE ( 'NONE', *, *, #281, .F. ) ;
#29 = CYLINDRICAL_SURFACE ( 'NONE', #318, 1.999999999999998224 ) ;
#30 = APPROVAL_ROLE ( '' ) ;
#31 = APPROVAL_PERSON_ORGANIZATION ( #286, #6, #221 ) ;
#32 = ORIENTED_EDGE ( 'NONE', *, *, #283, .F. ) ;
#33 = CARTESIAN_POINT ( 'NONE',  ( 3.500000000000000444, 3.733297715023329237E-16, 28.00000000000000000 ) ) ;
#34 = AXIS2_PLACEMENT_3D ( 'NONE', #168, #165, #375 ) ;
#35 = ORIENTED_EDGE ( 'NONE', *, *, #326, .T. ) ;
#36 = VECTOR ( 'NONE', #325, 1000.000000000000000 ) ;
#37 = ORIENTED_EDGE ( 'NONE', *, *, #26, .F. ) ;
#38 = ADVANCED_FACE ( 'NONE', ( #103 ), #14, .F. ) ;
#39 = LINE ( 'NONE', #155, #18 ) ;
#40 = VECTOR ( 'NONE', #323, 1000.000000000000000 ) ;
#41 = ORIENTED_EDGE ( 'NONE', *, *, #259, .T. ) ;
#42 = CARTESIAN_POINT ( 'NONE',  ( 3.500000000000000444, 2.000000000000000000, 0.9999999999999983347 ) ) ;
#43 = VERTEX_POINT ( 'NONE', #42 ) ;
#44 = CC_DESIGN_APPROVAL ( #6, ( #50 ) ) ;
#45 = CARTESIAN_POINT ( 'NONE',  ( 3.500000000000000000, 2.000000000000000000, 30.00000000000000355 ) ) ;
#46 = EDGE_LOOP ( 'NONE', ( #236, #244 ) ) ;
#47 = DIRECTION ( 'NONE',  ( 1.000000000000000000, 1.066665606710761760E-16, -0.000000000000000000 ) ) ;
#48 = CIRCLE ( 'NONE', #100, 2.000000000000000888 ) ;
#49 = CARTESIAN_POINT ( 'NONE',  ( 7.000000000000000000, 7.466659246975332816E-16, 33.00000000000000000 ) ) ;
#50 = PRODUCT_DEFINITION ( 'UNKNOWN', '', #345, #251 ) ;
#51 = LINE ( 'NONE', #343, #192 ) ;
#52 = AXIS2_PLACEMENT_3D ( 'NONE', #70, #182, #301 ) ;
#53 = CARTESIAN_POINT ( 'NONE',  ( 7.000000000000000000, 2.000000000000000000, 0.000000000000000000 ) ) ;
#54 = DIRECTION ( 'NONE',  ( -1.000000000000000000, 0.000000000000000000, 0.000000000000000000 ) ) ;
#55 = CALENDAR_DATE ( 2026, 24, 8 ) ;
#56 = EDGE_CURVE ( 'NONE', #349, #299, #11, .T. ) ;
#57 = CIRCLE ( 'NONE', #268, 1.999999999999998224 ) ;
#58 = PERSON_AND_ORGANIZATION ( #138, #249 ) ;
#59 = APPROVAL_PERSON_ORGANIZATION ( #319, #149, #248 ) ;
#60 = APPLICATION_CONTEXT ( 'configuration controlled 3d designs of mechanical parts and assemblies' ) ;
#61 = CIRCLE ( 'NONE', #114, 2.000000000000001332 ) ;
#62 = ADVANCED_FACE ( 'NONE', ( #331 ), #270, .T. ) ;
#63 = ORIENTED_EDGE ( 'NONE', *, *, #164, .T. ) ;
#64 = ORIENTED_EDGE ( 'NONE', *, *, #198, .F. ) ;
#65 = EDGE_CURVE ( 'NONE', #144, #157, #57, .T. ) ;
#66 = CARTESIAN_POINT ( 'NONE',  ( 3.500000000000000000, -0.001000000000000132727, 30.00000000000000355 ) ) ;
#67 = VECTOR ( 'NONE', #130, 1000.000000000000000 ) ;
#68 = FACE_OUTER_BOUND ( 'NONE', #202, .T. ) ;
#69 = ORIENTED_EDGE ( 'NONE', *, *, #145, .T. ) ;
#70 = CARTESIAN_POINT ( 'NONE',  ( 3.500000000000000000, -0.001000000000000132727, 30.00000000000000355 ) ) ;
#71 = ORIENTED_EDGE ( 'NONE', *, *, #234, .F. ) ;
#72 = DIRECTION ( 'NONE',  ( 0.000000000000000000, 0.000000000000000000, 1.000000000000000000 ) ) ;
#73 = LINE ( 'NONE', #99, #383 ) ;
#74 = ORIENTED_EDGE ( 'NONE', *, *, #187, .F. ) ;
#75 = CARTESIAN_POINT ( 'NONE',  ( 3.500000000000000000, -0.001000000000000132727, 5.000000000000000000 ) ) ;
#76 = PRODUCT ( 'pinionlock_Default_sldprt', 'pinionlock_Default_sldprt', '', ( #87 ) ) ;
#77 = DIRECTION ( 'NONE',  ( -1.000000000000000000, -0.000000000000000000, -0.000000000000000000 ) ) ;
#78 = EDGE_CURVE ( 'NONE', #296, #299, #179, .T. ) ;
#79 = CARTESIAN_POINT ( 'NONE',  ( 0.000000000000000000, 0.000000000000000000, 0.000000000000000000 ) ) ;
#80 = EDGE_CURVE ( 'NONE', #321, #88, #335, .T. ) ;
#81 = APPROVAL_DATE_TIME ( #194, #149 ) ;
#82 = PERSON_AND_ORGANIZATION ( #138, #249 ) ;
#83 = FACE_BOUND ( 'NONE', #178, .T. ) ;
#84 = CARTESIAN_POINT ( 'NONE',  ( 0.000000000000000000, 0.000000000000000000, 33.00000000000000000 ) ) ;
#85 = CARTESIAN_POINT ( 'NONE',  ( 0.000000000000000000, 0.000000000000000000, 0.000000000000000000 ) ) ;
#86 = DIRECTION ( 'NONE',  ( -0.000000000000000000, 1.000000000000000000, -0.000000000000000000 ) ) ;
#87 = MECHANICAL_CONTEXT ( 'NONE', #263, 'mechanical' ) ;
#88 = VERTEX_POINT ( 'NONE', #215 ) ;
#89 = EDGE_CURVE ( 'NONE', #354, #157, #39, .T. ) ;
#90 = PERSON_AND_ORGANIZATION ( #138, #249 ) ;
#91 = ORIENTED_EDGE ( 'NONE', *, *, #8, .T. ) ;
#92 = LOCAL_TIME ( 14, 26, 17.00000000000000000, #208 ) ;
#93 = ADVANCED_FACE ( 'NONE', ( #13 ), #353, .F. ) ;
#94 = EDGE_LOOP ( 'NONE', ( #360, #348, #242, #37 ) ) ;
#95 = CARTESIAN_POINT ( 'NONE',  ( 3.500000000000000000, 3.733297715023328744E-16, 2.999999999999999112 ) ) ;
#96 = VERTEX_POINT ( 'NONE', #306 ) ;
#97 = DIRECTION ( 'NONE',  ( 1.066665606710761637E-16, -1.000000000000000000, -0.000000000000000000 ) ) ;
#98 = VERTEX_POINT ( 'NONE', #247 ) ;
#99 = CARTESIAN_POINT ( 'NONE',  ( 0.000000000000000000, 2.000000000000000000, 0.000000000000000000 ) ) ;
#100 = AXIS2_PLACEMENT_3D ( 'NONE', #95, #364, #102 ) ;
#101 = VERTEX_POINT ( 'NONE', #273 ) ;
#102 = DIRECTION ( 'NONE',  ( -1.000000000000000000, -1.066665606710761637E-16, 0.000000000000000000 ) ) ;
#103 = FACE_OUTER_BOUND ( 'NONE', #344, .T. ) ;
#104 = DIRECTION ( 'NONE',  ( -0.000000000000000000, 1.000000000000000000, -0.000000000000000000 ) ) ;
#105 = PRODUCT_DEFINITION_SHAPE ( 'NONE', 'NONE',  #50 ) ;
#106 = FACE_BOUND ( 'NONE', #199, .T. ) ;
#107 = CC_DESIGN_SECURITY_CLASSIFICATION ( #176, ( #345 ) ) ;
#108 = EDGE_CURVE ( 'NONE', #98, #296, #7, .T. ) ;
#109 = FACE_BOUND ( 'NONE', #46, .T. ) ;
#110 = PERSON_AND_ORGANIZATION ( #138, #249 ) ;
#111 = FACE_BOUND ( 'NONE', #204, .T. ) ;
#112 = LINE ( 'NONE', #135, #320 ) ;
#113 = CC_DESIGN_PERSON_AND_ORGANIZATION_ASSIGNMENT ( #27, #315, ( #345 ) ) ;
#114 = AXIS2_PLACEMENT_3D ( 'NONE', #139, #284, #21 ) ;
#115 = CARTESIAN_POINT ( 'NONE',  ( 3.500000000000000000, 3.733297715023328744E-16, 5.000000000000000000 ) ) ;
#116 = CALENDAR_DATE ( 2026, 24, 8 ) ;
#117 = APPROVAL_STATUS ( 'not_yet_approved' ) ;
#118 = CALENDAR_DATE ( 2026, 24, 8 ) ;
#119 = DATE_AND_TIME ( #118, #92 ) ;
#120 = AXIS2_PLACEMENT_3D ( 'NONE', #84, #193, #54 ) ;
#121 = ORIENTED_EDGE ( 'NONE', *, *, #145, .F. ) ;
#122 = EDGE_CURVE ( 'NONE', #157, #144, #367, .T. ) ;
#123 = CC_DESIGN_DATE_AND_TIME_ASSIGNMENT ( #288, #25, ( #50 ) ) ;
#124 = ORIENTED_EDGE ( 'NONE', *, *, #136, .F. ) ;
#125 = DIRECTION ( 'NONE',  ( 0.000000000000000000, 0.000000000000000000, 1.000000000000000000 ) ) ;
#126 = ORIENTED_EDGE ( 'NONE', *, *, #26, .T. ) ;
#127 = CARTESIAN_POINT ( 'NONE',  ( 0.000000000000000000, 0.000000000000000000, 33.00000000000000000 ) ) ;
#128 = ORIENTED_EDGE ( 'NONE', *, *, #65, .T. ) ;
#129 = APPROVAL_PERSON_ORGANIZATION ( #346, #292, #30 ) ;
#130 = DIRECTION ( 'NONE',  ( -0.000000000000000000, -0.000000000000000000, -1.000000000000000000 ) ) ;
#131 = ORIENTED_EDGE ( 'NONE', *, *, #337, .F. ) ;
#132 = CARTESIAN_POINT ( 'NONE',  ( 0.000000000000000000, 0.000000000000000000, 33.00000000000000000 ) ) ;
#133 = LINE ( 'NONE', #161, #146 ) ;
#134 = CARTESIAN_POINT ( 'NONE',  ( 3.500000000000000000, 3.733297715023328744E-16, 2.999999999999999112 ) ) ;
#135 = CARTESIAN_POINT ( 'NONE',  ( 0.000000000000000000, 0.000000000000000000, 0.000000000000000000 ) ) ;
#136 = EDGE_CURVE ( 'NONE', #232, #354, #324, .T. ) ;
#137 = DIRECTION ( 'NONE',  ( 0.000000000000000000, 0.000000000000000000, 1.000000000000000000 ) ) ;
#138 = PERSON ( 'UNSPECIFIED', 'UNSPECIFIED', 'UNSPECIFIED', ('UNSPECIFIED'), ('UNSPECIFIED'), ('UNSPECIFIED') ) ;
#139 = CARTESIAN_POINT ( 'NONE',  ( 3.500000000000000000, 3.733297715023328744E-16, 30.00000000000000355 ) ) ;
#140 = CARTESIAN_POINT ( 'NONE',  ( 7.000000000000000000, 7.466659246975332816E-16, 33.00000000000000000 ) ) ;
#141 = COORDINATED_UNIVERSAL_TIME_OFFSET ( 5, 30, .AHEAD. ) ;
#142 = CARTESIAN_POINT ( 'NONE',  ( 3.500000000000000000, 2.000000000000000000, 5.000000000000000000 ) ) ;
#143 = PERSON_AND_ORGANIZATION_ROLE ( 'creator' ) ;
#144 = VERTEX_POINT ( 'NONE', #356 ) ;
#145 = EDGE_CURVE ( 'NONE', #101, #88, #73, .T. ) ;
#146 = VECTOR ( 'NONE', #246, 1000.000000000000000 ) ;
#147 = EDGE_LOOP ( 'NONE', ( #305, #266, #131, #9 ) ) ;
#148 = FACE_OUTER_BOUND ( 'NONE', #94, .T. ) ;
#149 = APPROVAL ( #150, 'UNSPECIFIED' ) ;
#150 = APPROVAL_STATUS ( 'not_yet_approved' ) ;
#151 = AXIS2_PLACEMENT_3D ( 'NONE', #278, #363, #213 ) ;
#152 = ORIENTED_EDGE ( 'NONE', *, *, #78, .F. ) ;
#153 = DIRECTION ( 'NONE',  ( -0.000000000000000000, -0.000000000000000000, -1.000000000000000000 ) ) ;
#154 = EDGE_LOOP ( 'NONE', ( #152, #352, #121, #240 ) ) ;
#155 = CARTESIAN_POINT ( 'NONE',  ( 3.500000000000000444, -0.001000000000000132727, 28.00000000000000000 ) ) ;
#156 = VECTOR ( 'NONE', #104, 1000.000000000000000 ) ;
#157 = VERTEX_POINT ( 'NONE', #362 ) ;
#158 = DIRECTION ( 'NONE',  ( -0.000000000000000000, 1.000000000000000000, -0.000000000000000000 ) ) ;
#159 = LINE ( 'NONE', #5, #36 ) ;
#160 = CARTESIAN_POINT ( 'NONE',  ( 7.000000000000000000, 7.466659246975332816E-16, 0.000000000000000000 ) ) ;
#161 = CARTESIAN_POINT ( 'NONE',  ( 3.500000000000000000, -0.001000000000000132727, 32.00000000000000000 ) ) ;
#162 = DIRECTION ( 'NONE',  ( 0.000000000000000000, 1.000000000000000000, 0.000000000000000000 ) ) ;
#163 = AXIS2_PLACEMENT_3D ( 'NONE', #49, #167, #372 ) ;
#164 = EDGE_CURVE ( 'NONE', #96, #262, #48, .T. ) ;
#165 = DIRECTION ( 'NONE',  ( 0.000000000000000000, 1.000000000000000000, 0.000000000000000000 ) ) ;
#166 = AXIS2_PLACEMENT_3D ( 'NONE', #279, #245, #333 ) ;
#167 = DIRECTION ( 'NONE',  ( -1.066665606710761637E-16, 1.000000000000000000, 0.000000000000000000 ) ) ;
#168 = CARTESIAN_POINT ( 'NONE',  ( 3.500000000000000000, 2.000000000000000000, 2.999999999999999112 ) ) ;
#169 = CC_DESIGN_APPROVAL ( #149, ( #176 ) ) ;
#170 = DIRECTION ( 'NONE',  ( -0.000000000000000000, -1.000000000000000000, -0.000000000000000000 ) ) ;
#171 = DIRECTION ( 'NONE',  ( -1.000000000000000000, 0.000000000000000000, 0.000000000000000000 ) ) ;
#172 = VECTOR ( 'NONE', #153, 1000.000000000000000 ) ;
#173 = COORDINATED_UNIVERSAL_TIME_OFFSET ( 5, 30, .AHEAD. ) ;
#174 = PERSON_AND_ORGANIZATION_ROLE ( 'design_supplier' ) ;
#175 = DIRECTION ( 'NONE',  ( 0.000000000000000000, 0.000000000000000000, 1.000000000000000000 ) ) ;
#176 = SECURITY_CLASSIFICATION ( '', '', #289 ) ;
#177 = VERTEX_POINT ( 'NONE', #207 ) ;
#178 = EDGE_LOOP ( 'NONE', ( #124, #351 ) ) ;
#179 = LINE ( 'NONE', #160, #334 ) ;
#180 = EDGE_LOOP ( 'NONE', ( #214, #332, #265, #322 ) ) ;
#181 = AXIS2_PLACEMENT_3D ( 'NONE', #219, #196, #310 ) ;
#182 = DIRECTION ( 'NONE',  ( -0.000000000000000000, 1.000000000000000000, -0.000000000000000000 ) ) ;
#183 = ORIENTED_EDGE ( 'NONE', *, *, #294, .T. ) ;
#184 = DIRECTION ( 'NONE',  ( 0.000000000000000000, 1.000000000000000000, 0.000000000000000000 ) ) ;
#185 = ORIENTED_EDGE ( 'NONE', *, *, #198, .T. ) ;
#186 = CARTESIAN_POINT ( 'NONE',  ( 0.000000000000000000, 0.000000000000000000, 0.000000000000000000 ) ) ;
#187 = EDGE_CURVE ( 'NONE', #262, #230, #15, .T. ) ;
#188 = DIRECTION ( 'NONE',  ( -1.000000000000000000, -1.066665606710761637E-16, 0.000000000000000000 ) ) ;
#189 = PLANE ( 'NONE',  #163 ) ;
#190 = DIRECTION ( 'NONE',  ( -1.000000000000000000, -0.000000000000000000, -0.000000000000000000 ) ) ;
#191 = FACE_OUTER_BOUND ( 'NONE', #384, .T. ) ;
#192 = VECTOR ( 'NONE', #190, 1000.000000000000000 ) ;
#193 = DIRECTION ( 'NONE',  ( 0.000000000000000000, 0.000000000000000000, -1.000000000000000000 ) ) ;
#194 = DATE_AND_TIME ( #336, #224 ) ;
#195 = DIRECTION ( 'NONE',  ( 1.000000000000000000, 0.000000000000000000, 0.000000000000000000 ) ) ;
#196 = DIRECTION ( 'NONE',  ( 0.000000000000000000, 1.000000000000000000, 0.000000000000000000 ) ) ;
#197 = APPROVAL_DATE_TIME ( #229, #292 ) ;
#198 = EDGE_CURVE ( 'NONE', #262, #96, #290, .T. ) ;
#199 = EDGE_LOOP ( 'NONE', ( #64, #303 ) ) ;
#200 = CC_DESIGN_PERSON_AND_ORGANIZATION_ASSIGNMENT ( #58, #174, ( #345 ) ) ;
#201 = APPROVAL_DATE_TIME ( #313, #6 ) ;
#202 = EDGE_LOOP ( 'NONE', ( #274, #183, #126, #128 ) ) ;
#203 = DATE_TIME_ROLE ( 'classification_date' ) ;
#204 = EDGE_LOOP ( 'NONE', ( #32, #71 ) ) ;
#205 = AXIS2_PLACEMENT_3D ( 'NONE', #22, #19, #222 ) ;
#206 = ORIENTED_EDGE ( 'NONE', *, *, #8, .F. ) ;
#207 = CARTESIAN_POINT ( 'NONE',  ( 7.000000000000000000, 2.000000000000000000, 33.00000000000000000 ) ) ;
#208 = COORDINATED_UNIVERSAL_TIME_OFFSET ( 5, 30, .AHEAD. ) ;
#209 = EDGE_LOOP ( 'NONE', ( #293, #63, #328, #276 ) ) ;
#210 = EDGE_CURVE ( 'NONE', #177, #101, #307, .T. ) ;
#211 = CYLINDRICAL_SURFACE ( 'NONE', #52, 1.999999999999998224 ) ;
#212 = ORIENTED_EDGE ( 'NONE', *, *, #234, .T. ) ;
#213 = DIRECTION ( 'NONE',  ( 0.000000000000000000, 0.000000000000000000, 1.000000000000000000 ) ) ;
#214 = ORIENTED_EDGE ( 'NONE', *, *, #302, .T. ) ;
#215 = CARTESIAN_POINT ( 'NONE',  ( 0.000000000000000000, 2.000000000000000000, 0.000000000000000000 ) ) ;
#216 = VECTOR ( 'NONE', #217, 1000.000000000000000 ) ;
#217 = DIRECTION ( 'NONE',  ( -0.000000000000000000, -0.000000000000000000, -1.000000000000000000 ) ) ;
#218 = LINE ( 'NONE', #309, #261 ) ;
#219 = CARTESIAN_POINT ( 'NONE',  ( 3.500000000000000000, 2.000000000000000000, 2.999999999999999112 ) ) ;
#220 = CC_DESIGN_PERSON_AND_ORGANIZATION_ASSIGNMENT ( #82, #143, ( #50 ) ) ;
#221 = APPROVAL_ROLE ( '' ) ;
#222 = DIRECTION ( 'NONE',  ( 0.000000000000000000, -0.000000000000000000, -1.000000000000000000 ) ) ;
#223 = FACE_OUTER_BOUND ( 'NONE', #1, .T. ) ;
#224 = LOCAL_TIME ( 14, 26, 17.00000000000000000, #365 ) ;
#225 = ADVANCED_FACE ( 'NONE', ( #68 ), #211, .F. ) ;
#226 =( NAMED_UNIT ( * ) SI_UNIT ( $, .STERADIAN. ) SOLID_ANGLE_UNIT ( ) );
#227 = CARTESIAN_POINT ( 'NONE',  ( 3.500000000000000444, -0.001000000000000132727, 0.9999999999999983347 ) ) ;
#228 = ADVANCED_FACE ( 'NONE', ( #275 ), #340, .F. ) ;
#229 = DATE_AND_TIME ( #116, #298 ) ;
#230 = VERTEX_POINT ( 'NONE', #142 ) ;
#231 = AXIS2_PLACEMENT_3D ( 'NONE', #4, #162, #125 ) ;
#232 = VERTEX_POINT ( 'NONE', #280 ) ;
#233 = AXIS2_PLACEMENT_3D ( 'NONE', #374, #86, #137 ) ;
#234 = EDGE_CURVE ( 'NONE', #43, #230, #300, .T. ) ;
#235 = CLOSED_SHELL ( 'NONE', ( #379, #38, #308, #228, #317, #93, #347, #62, #239, #225 ) ) ;
#236 = ORIENTED_EDGE ( 'NONE', *, *, #65, .F. ) ;
#237 = ORIENTED_EDGE ( 'NONE', *, *, #80, .F. ) ;
#238 = CARTESIAN_POINT ( 'NONE',  ( 7.000000000000000000, 2.000000000000000000, 33.00000000000000000 ) ) ;
#239 = ADVANCED_FACE ( 'NONE', ( #339 ), #312, .F. ) ;
#240 = ORIENTED_EDGE ( 'NONE', *, *, #326, .F. ) ;
#241 = CARTESIAN_POINT ( 'NONE',  ( 7.000000000000000000, 7.466659246975332816E-16, 33.00000000000000000 ) ) ;
#242 = ORIENTED_EDGE ( 'NONE', *, *, #122, .T. ) ;
#243 = DIRECTION ( 'NONE',  ( 1.000000000000000000, 0.000000000000000000, 0.000000000000000000 ) ) ;
#244 = ORIENTED_EDGE ( 'NONE', *, *, #122, .F. ) ;
#245 = DIRECTION ( 'NONE',  ( 1.066665606710761637E-16, -1.000000000000000000, -0.000000000000000000 ) ) ;
#246 = DIRECTION ( 'NONE',  ( -0.000000000000000000, 1.000000000000000000, -0.000000000000000000 ) ) ;
#247 = CARTESIAN_POINT ( 'NONE',  ( 0.000000000000000000, 0.000000000000000000, 33.00000000000000000 ) ) ;
#248 = APPROVAL_ROLE ( '' ) ;
#249 = ORGANIZATION ( 'UNSPECIFIED', 'UNSPECIFIED', '' ) ;
#250 = DIRECTION ( 'NONE',  ( -0.000000000000000000, 1.000000000000000000, -0.000000000000000000 ) ) ;
#251 = DESIGN_CONTEXT ( 'detailed design', #60, 'design' ) ;
#252 = CC_DESIGN_APPROVAL ( #292, ( #345 ) ) ;
#253 = CARTESIAN_POINT ( 'NONE',  ( 0.000000000000000000, 2.000000000000000000, 33.00000000000000000 ) ) ;
#254 = FACE_OUTER_BOUND ( 'NONE', #147, .T. ) ;
#255 = SHAPE_DEFINITION_REPRESENTATION ( #105, #358 ) ;
#256 = DIRECTION ( 'NONE',  ( 1.000000000000000000, 1.066665606710761760E-16, -0.000000000000000000 ) ) ;
#257 = CALENDAR_DATE ( 2026, 24, 8 ) ;
#258 = DIRECTION ( 'NONE',  ( 0.000000000000000000, 0.000000000000000000, 1.000000000000000000 ) ) ;
#259 = EDGE_CURVE ( 'NONE', #96, #43, #338, .T. ) ;
#260 = APPROVAL_STATUS ( 'not_yet_approved' ) ;
#261 = VECTOR ( 'NONE', #170, 1000.000000000000000 ) ;
#262 = VERTEX_POINT ( 'NONE', #115 ) ;
#263 = APPLICATION_CONTEXT ( 'configuration controlled 3d designs of mechanical parts and assemblies' ) ;
#264 = VECTOR ( 'NONE', #256, 1000.000000000000000 ) ;
#265 = ORIENTED_EDGE ( 'NONE', *, *, #269, .F. ) ;
#266 = ORIENTED_EDGE ( 'NONE', *, *, #56, .F. ) ;
#267 = ORIENTED_EDGE ( 'NONE', *, *, #56, .T. ) ;
#268 = AXIS2_PLACEMENT_3D ( 'NONE', #45, #184, #327 ) ;
#269 = EDGE_CURVE ( 'NONE', #321, #98, #218, .T. ) ;
#270 = PLANE ( 'NONE',  #314 ) ;
#271 = UNCERTAINTY_MEASURE_WITH_UNIT (LENGTH_MEASURE( 1.000000000000000082E-05 ), #341, 'distance_accuracy_value', 'NONE');
#272 = ORIENTED_EDGE ( 'NONE', *, *, #210, .F. ) ;
#273 = CARTESIAN_POINT ( 'NONE',  ( 7.000000000000000000, 2.000000000000000000, 0.000000000000000000 ) ) ;
#274 = ORIENTED_EDGE ( 'NONE', *, *, #89, .F. ) ;
#275 = FACE_OUTER_BOUND ( 'NONE', #357, .T. ) ;
#276 = ORIENTED_EDGE ( 'NONE', *, *, #283, .T. ) ;
#277 = CARTESIAN_POINT ( 'NONE',  ( 0.000000000000000000, 2.000000000000000000, 33.00000000000000000 ) ) ;
#278 = CARTESIAN_POINT ( 'NONE',  ( 3.500000000000000000, -0.001000000000000132727, 2.999999999999999112 ) ) ;
#279 = CARTESIAN_POINT ( 'NONE',  ( 3.500000000000000000, 3.733297715023328744E-16, 30.00000000000000355 ) ) ;
#280 = CARTESIAN_POINT ( 'NONE',  ( 3.500000000000000000, 3.733297715023328744E-16, 32.00000000000000000 ) ) ;
#281 = EDGE_CURVE ( 'NONE', #177, #321, #51, .T. ) ;
#282 = PLANE ( 'NONE',  #205 ) ;
#283 = EDGE_CURVE ( 'NONE', #230, #43, #361, .T. ) ;
#284 = DIRECTION ( 'NONE',  ( 1.066665606710761637E-16, -1.000000000000000000, -0.000000000000000000 ) ) ;
#285 = LINE ( 'NONE', #140, #264 ) ;
#286 = PERSON_AND_ORGANIZATION ( #138, #249 ) ;
#287 = CARTESIAN_POINT ( 'NONE',  ( 7.000000000000000000, 7.466659246975332816E-16, 33.00000000000000000 ) ) ;
#288 = DATE_AND_TIME ( #55, #10 ) ;
#289 = SECURITY_CLASSIFICATION_LEVEL ( 'unclassified' ) ;
#290 = CIRCLE ( 'NONE', #385, 2.000000000000000888 ) ;
#291 = APPLICATION_PROTOCOL_DEFINITION ( 'international standard', 'config_control_design', 1994, #60 ) ;
#292 = APPROVAL ( #260, 'UNSPECIFIED' ) ;
#293 = ORIENTED_EDGE ( 'NONE', *, *, #259, .F. ) ;
#294 = EDGE_CURVE ( 'NONE', #354, #232, #61, .T. ) ;
#295 = LOCAL_TIME ( 14, 26, 17.00000000000000000, #141 ) ;
#296 = VERTEX_POINT ( 'NONE', #79 ) ;
#297 = DIRECTION ( 'NONE',  ( -1.000000000000000000, 0.000000000000000000, 0.000000000000000000 ) ) ;
#298 = LOCAL_TIME ( 14, 26, 17.00000000000000000, #376 ) ;
#299 = VERTEX_POINT ( 'NONE', #17 ) ;
#300 = CIRCLE ( 'NONE', #181, 2.000000000000000888 ) ;
#301 = DIRECTION ( 'NONE',  ( 0.000000000000000000, 0.000000000000000000, 1.000000000000000000 ) ) ;
#302 = EDGE_CURVE ( 'NONE', #88, #296, #112, .T. ) ;
#303 = ORIENTED_EDGE ( 'NONE', *, *, #164, .F. ) ;
#304 = DIRECTION ( 'NONE',  ( 0.000000000000000000, 0.000000000000000000, -1.000000000000000000 ) ) ;
#305 = ORIENTED_EDGE ( 'NONE', *, *, #78, .T. ) ;
#306 = CARTESIAN_POINT ( 'NONE',  ( 3.500000000000000444, 3.733297715023329237E-16, 0.9999999999999983347 ) ) ;
#307 = LINE ( 'NONE', #238, #40 ) ;
#308 = ADVANCED_FACE ( 'NONE', ( #83, #106, #254 ), #189, .F. ) ;
#309 = CARTESIAN_POINT ( 'NONE',  ( 0.000000000000000000, 0.000000000000000000, 33.00000000000000000 ) ) ;
#310 = DIRECTION ( 'NONE',  ( 0.000000000000000000, 0.000000000000000000, 1.000000000000000000 ) ) ;
#311 = LINE ( 'NONE', #53, #381 ) ;
#312 = CYLINDRICAL_SURFACE ( 'NONE', #233, 2.000000000000000888 ) ;
#313 = DATE_AND_TIME ( #257, #295 ) ;
#314 = AXIS2_PLACEMENT_3D ( 'NONE', #186, #304, #297 ) ;
#315 = PERSON_AND_ORGANIZATION_ROLE ( 'creator' ) ;
#316 = ORIENTED_EDGE ( 'NONE', *, *, #269, .T. ) ;
#317 = ADVANCED_FACE ( 'NONE', ( #109, #111, #191 ), #282, .F. ) ;
#318 = AXIS2_PLACEMENT_3D ( 'NONE', #66, #330, #72 ) ;
#319 = PERSON_AND_ORGANIZATION ( #138, #249 ) ;
#320 = VECTOR ( 'NONE', #369, 1000.000000000000000 ) ;
#321 = VERTEX_POINT ( 'NONE', #253 ) ;
#322 = ORIENTED_EDGE ( 'NONE', *, *, #80, .T. ) ;
#323 = DIRECTION ( 'NONE',  ( -0.000000000000000000, -0.000000000000000000, -1.000000000000000000 ) ) ;
#324 = CIRCLE ( 'NONE', #166, 2.000000000000001332 ) ;
#325 = DIRECTION ( 'NONE',  ( -0.000000000000000000, 1.000000000000000000, -0.000000000000000000 ) ) ;
#326 = EDGE_CURVE ( 'NONE', #299, #101, #311, .T. ) ;
#327 = DIRECTION ( 'NONE',  ( 0.000000000000000000, 0.000000000000000000, 1.000000000000000000 ) ) ;
#328 = ORIENTED_EDGE ( 'NONE', *, *, #187, .T. ) ;
#329 = AXIS2_PLACEMENT_3D ( 'NONE', #24, #171, #258 ) ;
#330 = DIRECTION ( 'NONE',  ( -0.000000000000000000, 1.000000000000000000, -0.000000000000000000 ) ) ;
#331 = FACE_OUTER_BOUND ( 'NONE', #154, .T. ) ;
#332 = ORIENTED_EDGE ( 'NONE', *, *, #108, .F. ) ;
#333 = DIRECTION ( 'NONE',  ( -1.000000000000000000, -1.066665606710761637E-16, 0.000000000000000000 ) ) ;
#334 = VECTOR ( 'NONE', #47, 1000.000000000000000 ) ;
#335 = LINE ( 'NONE', #277, #172 ) ;
#336 = CALENDAR_DATE ( 2026, 24, 8 ) ;
#337 = EDGE_CURVE ( 'NONE', #98, #349, #285, .T. ) ;
#338 = LINE ( 'NONE', #227, #20 ) ;
#339 = FACE_OUTER_BOUND ( 'NONE', #209, .T. ) ;
#340 = PLANE ( 'NONE',  #329 ) ;
#341 =( LENGTH_UNIT ( ) NAMED_UNIT ( * ) SI_UNIT ( .MILLI., .METRE. ) );
#342 = PLANE ( 'NONE',  #120 ) ;
#343 = CARTESIAN_POINT ( 'NONE',  ( 0.000000000000000000, 2.000000000000000000, 33.00000000000000000 ) ) ;
#344 = EDGE_LOOP ( 'NONE', ( #185, #41, #212, #74 ) ) ;
#345 = PRODUCT_DEFINITION_FORMATION_WITH_SPECIFIED_SOURCE ( 'ANY', '', #76, .NOT_KNOWN. ) ;
#346 = PERSON_AND_ORGANIZATION ( #138, #249 ) ;
#347 = ADVANCED_FACE ( 'NONE', ( #223 ), #342, .F. ) ;
#348 = ORIENTED_EDGE ( 'NONE', *, *, #89, .T. ) ;
#349 = VERTEX_POINT ( 'NONE', #287 ) ;
#350 = PERSON_AND_ORGANIZATION_ROLE ( 'classification_officer' ) ;
#351 = ORIENTED_EDGE ( 'NONE', *, *, #294, .F. ) ;
#352 = ORIENTED_EDGE ( 'NONE', *, *, #302, .F. ) ;
#353 = PLANE ( 'NONE',  #2 ) ;
#354 = VERTEX_POINT ( 'NONE', #33 ) ;
#355 =( GEOMETRIC_REPRESENTATION_CONTEXT ( 3 ) GLOBAL_UNCERTAINTY_ASSIGNED_CONTEXT ( ( #271 ) ) GLOBAL_UNIT_ASSIGNED_CONTEXT ( ( #341, #371, #226 ) ) REPRESENTATION_CONTEXT ( 'NONE', 'WORKASPACE' ) );
#356 = CARTESIAN_POINT ( 'NONE',  ( 3.500000000000000000, 2.000000000000000000, 32.00000000000000000 ) ) ;
#357 = EDGE_LOOP ( 'NONE', ( #35, #272, #206, #267 ) ) ;
#358 = ADVANCED_BREP_SHAPE_REPRESENTATION ( 'pinionlock_Default_sldprt', ( #377, #366 ), #355 ) ;
#359 = DIRECTION ( 'NONE',  ( 0.000000000000000000, 0.000000000000000000, -1.000000000000000000 ) ) ;
#360 = ORIENTED_EDGE ( 'NONE', *, *, #136, .T. ) ;
#361 = CIRCLE ( 'NONE', #34, 2.000000000000000888 ) ;
#362 = CARTESIAN_POINT ( 'NONE',  ( 3.500000000000000444, 2.000000000000000000, 28.00000000000000000 ) ) ;
#363 = DIRECTION ( 'NONE',  ( -0.000000000000000000, 1.000000000000000000, -0.000000000000000000 ) ) ;
#364 = DIRECTION ( 'NONE',  ( 1.066665606710761637E-16, -1.000000000000000000, -0.000000000000000000 ) ) ;
#365 = COORDINATED_UNIVERSAL_TIME_OFFSET ( 5, 30, .AHEAD. ) ;
#366 = AXIS2_PLACEMENT_3D ( 'NONE', #85, #175, #195 ) ;
#367 = CIRCLE ( 'NONE', #231, 1.999999999999998224 ) ;
#368 = PRODUCT_RELATED_PRODUCT_CATEGORY ( 'detail', '', ( #76 ) ) ;
#369 = DIRECTION ( 'NONE',  ( -0.000000000000000000, -1.000000000000000000, -0.000000000000000000 ) ) ;
#370 = DIRECTION ( 'NONE',  ( -0.000000000000000000, 1.000000000000000000, -0.000000000000000000 ) ) ;
#371 =( NAMED_UNIT ( * ) PLANE_ANGLE_UNIT ( ) SI_UNIT ( $, .RADIAN. ) );
#372 = DIRECTION ( 'NONE',  ( -1.000000000000000000, -1.066665606710761637E-16, 0.000000000000000000 ) ) ;
#373 = CC_DESIGN_PERSON_AND_ORGANIZATION_ASSIGNMENT ( #110, #23, ( #76 ) ) ;
#374 = CARTESIAN_POINT ( 'NONE',  ( 3.500000000000000000, -0.001000000000000132727, 2.999999999999999112 ) ) ;
#375 = DIRECTION ( 'NONE',  ( 0.000000000000000000, 0.000000000000000000, 1.000000000000000000 ) ) ;
#376 = COORDINATED_UNIVERSAL_TIME_OFFSET ( 5, 30, .AHEAD. ) ;
#377 = MANIFOLD_SOLID_BREP ( 'Cut-Extrude1', #235 ) ;
#378 = ORIENTED_EDGE ( 'NONE', *, *, #210, .T. ) ;
#379 = ADVANCED_FACE ( 'NONE', ( #148 ), #29, .F. ) ;
#380 = APPLICATION_PROTOCOL_DEFINITION ( 'international standard', 'config_control_design', 1994, #263 ) ;
#381 = VECTOR ( 'NONE', #370, 1000.000000000000000 ) ;
#382 = CC_DESIGN_PERSON_AND_ORGANIZATION_ASSIGNMENT ( #90, #350, ( #176 ) ) ;
#383 = VECTOR ( 'NONE', #77, 1000.000000000000000 ) ;
#384 = EDGE_LOOP ( 'NONE', ( #69, #237, #28, #378 ) ) ;
#385 = AXIS2_PLACEMENT_3D ( 'NONE', #134, #97, #188 ) ;
ENDSEC;
END-ISO-10303-21;
