ISO-10303-21;
HEADER;
FILE_DESCRIPTION (( 'STEP AP203' ),
    '1' );
FILE_NAME ('PinionMount_Default_sldprt.STEP',
    '2026-08-24T08:56:11',
    ( '' ),
    ( '' ),
    'SwSTEP 2.0',
    'SolidWorks 2020',
    '' );
FILE_SCHEMA (( 'CONFIG_CONTROL_DESIGN' ));
ENDSEC;

DATA;
#1 = DIRECTION ( 'NONE',  ( 3.097720492815729138E-16, 1.000000000000000000, -0.000000000000000000 ) ) ;
#2 = AXIS2_PLACEMENT_3D ( 'NONE', #153, #322, #203 ) ;
#3 = AXIS2_PLACEMENT_3D ( 'NONE', #151, #462, #358 ) ;
#4 = LOCAL_TIME ( 14, 26, 11.00000000000000000, #474 ) ;
#5 = ORIENTED_EDGE ( 'NONE', *, *, #37, .T. ) ;
#6 = ORIENTED_EDGE ( 'NONE', *, *, #489, .F. ) ;
#7 = EDGE_CURVE ( 'NONE', #420, #47, #220, .T. ) ;
#8 = ORIENTED_EDGE ( 'NONE', *, *, #270, .T. ) ;
#9 = VECTOR ( 'NONE', #321, 1000.000000000000000 ) ;
#10 = VERTEX_POINT ( 'NONE', #179 ) ;
#11 = ORIENTED_EDGE ( 'NONE', *, *, #118, .F. ) ;
#12 = EDGE_LOOP ( 'NONE', ( #517, #214, #251, #5 ) ) ;
#13 = CARTESIAN_POINT ( 'NONE',  ( 9.999999999999998224, -0.001000000000004903217, 30.00000000000000355 ) ) ;
#14 = CARTESIAN_POINT ( 'NONE',  ( -0.001000000000001173561, 10.99999999999999645, 20.00000000000000355 ) ) ;
#15 = VECTOR ( 'NONE', #266, 1000.000000000000000 ) ;
#16 = ADVANCED_FACE ( 'NONE', ( #23, #181 ), #347, .F. ) ;
#17 = AXIS2_PLACEMENT_3D ( 'NONE', #465, #102, #499 ) ;
#18 = APPROVAL_PERSON_ORGANIZATION ( #429, #299, #437 ) ;
#19 = DIRECTION ( 'NONE',  ( 1.563071017093548135E-16, 1.000000000000000000, -0.000000000000000000 ) ) ;
#20 = DIRECTION ( 'NONE',  ( -0.000000000000000000, -0.000000000000000000, -1.000000000000000000 ) ) ;
#21 = DIRECTION ( 'NONE',  ( -1.563071017093548135E-16, -1.000000000000000000, 0.000000000000000000 ) ) ;
#22 = FACE_OUTER_BOUND ( 'NONE', #398, .T. ) ;
#23 = FACE_BOUND ( 'NONE', #293, .T. ) ;
#24 = EDGE_CURVE ( 'NONE', #172, #494, #272, .T. ) ;
#25 = DIRECTION ( 'NONE',  ( 0.000000000000000000, -1.000000000000000000, 0.000000000000000000 ) ) ;
#26 = ORIENTED_EDGE ( 'NONE', *, *, #404, .T. ) ;
#27 = CARTESIAN_POINT ( 'NONE',  ( 0.000000000000000000, 32.00000000000000000, 0.000000000000000000 ) ) ;
#28 = CIRCLE ( 'NONE', #138, 6.000000000000001776 ) ;
#29 = CARTESIAN_POINT ( 'NONE',  ( 7.999999999999998224, -1.250585100739101501E-15, 30.00000000000000355 ) ) ;
#30 = ORIENTED_EDGE ( 'NONE', *, *, #250, .F. ) ;
#31 = CALENDAR_DATE ( 2026, 24, 8 ) ;
#32 = FACE_OUTER_BOUND ( 'NONE', #488, .T. ) ;
#33 = CARTESIAN_POINT ( 'NONE',  ( 6.000000000000003553, 2.000000000000000000, 0.000000000000000000 ) ) ;
#34 = PERSON_AND_ORGANIZATION_ROLE ( 'creator' ) ;
#35 = DIRECTION ( 'NONE',  ( 1.000000000000000000, -1.563071017093548135E-16, -0.000000000000000000 ) ) ;
#36 = PERSON_AND_ORGANIZATION ( #126, #415 ) ;
#37 = EDGE_CURVE ( 'NONE', #290, #374, #149, .T. ) ;
#38 = CIRCLE ( 'NONE', #382, 2.000000000000000000 ) ;
#39 = AXIS2_PLACEMENT_3D ( 'NONE', #393, #107, #110 ) ;
#40 = DIRECTION ( 'NONE',  ( -1.000000000000000000, 1.563071017093548628E-16, 0.000000000000000000 ) ) ;
#41 = DIRECTION ( 'NONE',  ( 1.000000000000000000, 1.156482317317871478E-16, -0.000000000000000000 ) ) ;
#42 = CYLINDRICAL_SURFACE ( 'NONE', #383, 6.000000000000001776 ) ;
#43 = EDGE_CURVE ( 'NONE', #418, #291, #145, .T. ) ;
#44 = AXIS2_PLACEMENT_3D ( 'NONE', #202, #481, #121 ) ;
#45 = ORIENTED_EDGE ( 'NONE', *, *, #319, .T. ) ;
#46 = LINE ( 'NONE', #295, #85 ) ;
#47 = VERTEX_POINT ( 'NONE', #225 ) ;
#48 = ORIENTED_EDGE ( 'NONE', *, *, #281, .F. ) ;
#49 = VECTOR ( 'NONE', #312, 1000.000000000000000 ) ;
#50 = EDGE_LOOP ( 'NONE', ( #11, #95 ) ) ;
#51 = EDGE_LOOP ( 'NONE', ( #6, #337 ) ) ;
#52 = LINE ( 'NONE', #459, #68 ) ;
#53 = CARTESIAN_POINT ( 'NONE',  ( 12.99999999999999822, -2.031992322221612255E-15, 33.00000000000000000 ) ) ;
#54 = VERTEX_POINT ( 'NONE', #477 ) ;
#55 = CARTESIAN_POINT ( 'NONE',  ( 12.99999999999999822, 1.999999999999997780, 33.00000000000000000 ) ) ;
#56 = VECTOR ( 'NONE', #115, 1000.000000000000000 ) ;
#57 = FACE_OUTER_BOUND ( 'NONE', #12, .T. ) ;
#58 = CC_DESIGN_APPROVAL ( #417, ( #523 ) ) ;
#59 = DIRECTION ( 'NONE',  ( -1.156552903396808926E-16, 1.000000000000000000, 0.000000000000000000 ) ) ;
#60 = ORIENTED_EDGE ( 'NONE', *, *, #361, .T. ) ;
#61 = EDGE_CURVE ( 'NONE', #54, #262, #300, .T. ) ;
#62 = LINE ( 'NONE', #476, #340 ) ;
#63 = CARTESIAN_POINT ( 'NONE',  ( 11.99999999999999822, -0.001000000000005522730, 30.00000000000000355 ) ) ;
#64 = PERSON_AND_ORGANIZATION ( #126, #415 ) ;
#65 = FACE_OUTER_BOUND ( 'NONE', #435, .T. ) ;
#66 = ORIENTED_EDGE ( 'NONE', *, *, #176, .T. ) ;
#67 = APPROVAL_DATE_TIME ( #518, #299 ) ;
#68 = VECTOR ( 'NONE', #273, 1000.000000000000000 ) ;
#69 = VECTOR ( 'NONE', #384, 1000.000000000000000 ) ;
#70 = FACE_BOUND ( 'NONE', #132, .T. ) ;
#71 = DIRECTION ( 'NONE',  ( -1.445602896647338917E-16, 1.000000000000000000, 0.000000000000000000 ) ) ;
#72 = SECURITY_CLASSIFICATION_LEVEL ( 'unclassified' ) ;
#73 = CARTESIAN_POINT ( 'NONE',  ( -0.001000000000001867451, 16.99999999999999645, 20.00000000000000355 ) ) ;
#74 = EDGE_CURVE ( 'NONE', #333, #256, #339, .T. ) ;
#75 = DATE_AND_TIME ( #318, #247 ) ;
#76 = DIRECTION ( 'NONE',  ( -1.156482317317871478E-16, 1.000000000000000000, -0.000000000000000000 ) ) ;
#77 = VECTOR ( 'NONE', #76, 1000.000000000000000 ) ;
#78 = CIRCLE ( 'NONE', #396, 6.000000000000001776 ) ;
#79 = CARTESIAN_POINT ( 'NONE',  ( 9.999999999999998224, -1.563199304157811276E-15, 30.00000000000000355 ) ) ;
#80 = EDGE_CURVE ( 'NONE', #152, #494, #343, .T. ) ;
#81 = DIRECTION ( 'NONE',  ( 3.097720492815729138E-16, 1.000000000000000000, -0.000000000000000000 ) ) ;
#82 = MANIFOLD_SOLID_BREP ( 'Cut-Extrude2', #105 ) ;
#83 = FACE_BOUND ( 'NONE', #140, .T. ) ;
#84 = AXIS2_PLACEMENT_3D ( 'NONE', #180, #184, #141 ) ;
#85 = VECTOR ( 'NONE', #173, 1000.000000000000000 ) ;
#86 = ORIENTED_EDGE ( 'NONE', *, *, #342, .T. ) ;
#87 = AXIS2_PLACEMENT_3D ( 'NONE', #108, #226, #395 ) ;
#88 = ORIENTED_EDGE ( 'NONE', *, *, #366, .F. ) ;
#89 = CARTESIAN_POINT ( 'NONE',  ( 12.99999999999999822, 1.999999999999997780, 0.000000000000000000 ) ) ;
#90 = ORIENTED_EDGE ( 'NONE', *, *, #388, .F. ) ;
#91 = EDGE_CURVE ( 'NONE', #374, #256, #278, .T. ) ;
#92 = ORIENTED_EDGE ( 'NONE', *, *, #327, .F. ) ;
#93 = ORIENTED_EDGE ( 'NONE', *, *, #61, .T. ) ;
#94 = FACE_BOUND ( 'NONE', #50, .T. ) ;
#95 = ORIENTED_EDGE ( 'NONE', *, *, #438, .F. ) ;
#96 = AXIS2_PLACEMENT_3D ( 'NONE', #235, #81, #368 ) ;
#97 = EDGE_LOOP ( 'NONE', ( #113, #335, #208, #326 ) ) ;
#98 = LINE ( 'NONE', #218, #69 ) ;
#99 = CARTESIAN_POINT ( 'NONE',  ( 6.000000000000003553, 2.000000000000000000, 33.00000000000000000 ) ) ;
#100 = PLANE ( 'NONE',  #297 ) ;
#101 = VERTEX_POINT ( 'NONE', #365 ) ;
#102 = DIRECTION ( 'NONE',  ( -1.000000000000000000, -0.000000000000000000, -0.000000000000000000 ) ) ;
#103 = ADVANCED_FACE ( 'NONE', ( #156 ), #282, .F. ) ;
#104 = AXIS2_PLACEMENT_3D ( 'NONE', #425, #25, #460 ) ;
#105 = CLOSED_SHELL ( 'NONE', ( #421, #183, #495, #475, #345, #252, #127, #482, #16, #503, #259, #167, #367, #103 ) ) ;
#106 = CARTESIAN_POINT ( 'NONE',  ( 6.000000000000003553, 2.000000000000000000, 33.00000000000000000 ) ) ;
#107 = DIRECTION ( 'NONE',  ( 3.097720492815729631E-16, 1.000000000000000000, 0.000000000000000000 ) ) ;
#108 = CARTESIAN_POINT ( 'NONE',  ( 0.000000000000000000, 0.000000000000000000, 0.000000000000000000 ) ) ;
#109 =( NAMED_UNIT ( * ) PLANE_ANGLE_UNIT ( ) SI_UNIT ( $, .RADIAN. ) );
#110 = DIRECTION ( 'NONE',  ( -1.000000000000000000, 2.168404344971008868E-16, 0.000000000000000000 ) ) ;
#111 = DATE_TIME_ROLE ( 'creation_date' ) ;
#112 = CARTESIAN_POINT ( 'NONE',  ( 11.99999999999999822, -1.875813507576520853E-15, 30.00000000000000355 ) ) ;
#113 = ORIENTED_EDGE ( 'NONE', *, *, #489, .T. ) ;
#114 = AXIS2_PLACEMENT_3D ( 'NONE', #506, #473, #394 ) ;
#115 = DIRECTION ( 'NONE',  ( -0.000000000000000000, -0.000000000000000000, -1.000000000000000000 ) ) ;
#116 = DATE_TIME_ROLE ( 'classification_date' ) ;
#117 = CARTESIAN_POINT ( 'NONE',  ( 0.000000000000000000, 0.000000000000000000, 33.00000000000000000 ) ) ;
#118 = EDGE_CURVE ( 'NONE', #378, #291, #521, .T. ) ;
#119 = DIRECTION ( 'NONE',  ( 3.097720492815729631E-16, 1.000000000000000000, 0.000000000000000000 ) ) ;
#120 = EDGE_CURVE ( 'NONE', #152, #129, #406, .T. ) ;
#121 = DIRECTION ( 'NONE',  ( -1.000000000000000000, 2.168404344971008868E-16, 0.000000000000000000 ) ) ;
#122 = PLANE ( 'NONE',  #308 ) ;
#123 = FACE_OUTER_BOUND ( 'NONE', #97, .T. ) ;
#124 = ORIENTED_EDGE ( 'NONE', *, *, #91, .F. ) ;
#125 = ORIENTED_EDGE ( 'NONE', *, *, #200, .T. ) ;
#126 = PERSON ( 'UNSPECIFIED', 'UNSPECIFIED', 'UNSPECIFIED', ('UNSPECIFIED'), ('UNSPECIFIED'), ('UNSPECIFIED') ) ;
#127 = ADVANCED_FACE ( 'NONE', ( #408, #413 ), #163, .F. ) ;
#128 = CIRCLE ( 'NONE', #263, 2.000000000000000000 ) ;
#129 = VERTEX_POINT ( 'NONE', #280 ) ;
#130 = ORIENTED_EDGE ( 'NONE', *, *, #239, .T. ) ;
#131 = DIRECTION ( 'NONE',  ( -1.000000000000000000, 3.098023004582603490E-16, 0.000000000000000000 ) ) ;
#132 = EDGE_LOOP ( 'NONE', ( #511, #452 ) ) ;
#133 = EDGE_CURVE ( 'NONE', #262, #215, #305, .T. ) ;
#134 = EDGE_LOOP ( 'NONE', ( #336, #30, #166, #255 ) ) ;
#135 = CARTESIAN_POINT ( 'NONE',  ( 7.999999999999998224, 1.999999999999999112, 30.00000000000000355 ) ) ;
#136 = ORIENTED_EDGE ( 'NONE', *, *, #133, .T. ) ;
#137 = VECTOR ( 'NONE', #303, 1000.000000000000000 ) ;
#138 = AXIS2_PLACEMENT_3D ( 'NONE', #346, #469, #314 ) ;
#139 = CYLINDRICAL_SURFACE ( 'NONE', #233, 6.000000000000001776 ) ;
#140 = EDGE_LOOP ( 'NONE', ( #419, #472 ) ) ;
#141 = DIRECTION ( 'NONE',  ( -1.000000000000000000, 3.098023004582603490E-16, 0.000000000000000000 ) ) ;
#142 = DIRECTION ( 'NONE',  ( -0.000000000000000000, -0.000000000000000000, -1.000000000000000000 ) ) ;
#143 = LINE ( 'NONE', #27, #414 ) ;
#144 = COORDINATED_UNIVERSAL_TIME_OFFSET ( 5, 30, .AHEAD. ) ;
#145 = LINE ( 'NONE', #63, #456 ) ;
#146 = DIRECTION ( 'NONE',  ( 1.000000000000000000, 1.156482317317871478E-16, 0.000000000000000000 ) ) ;
#147 = APPROVAL_ROLE ( '' ) ;
#148 =( LENGTH_UNIT ( ) NAMED_UNIT ( * ) SI_UNIT ( .MILLI., .METRE. ) );
#149 = LINE ( 'NONE', #219, #49 ) ;
#150 = COORDINATED_UNIVERSAL_TIME_OFFSET ( 5, 30, .AHEAD. ) ;
#151 = CARTESIAN_POINT ( 'NONE',  ( 9.999999999999998224, -1.563199304157811276E-15, 30.00000000000000355 ) ) ;
#152 = VERTEX_POINT ( 'NONE', #244 ) ;
#153 = CARTESIAN_POINT ( 'NONE',  ( 9.999999999999998224, -0.001000000000004903217, 3.000000000000000000 ) ) ;
#154 = PERSON_AND_ORGANIZATION ( #126, #415 ) ;
#155 = VECTOR ( 'NONE', #434, 1000.000000000000000 ) ;
#156 = FACE_OUTER_BOUND ( 'NONE', #178, .T. ) ;
#157 = EDGE_CURVE ( 'NONE', #418, #424, #128, .T. ) ;
#158 = CC_DESIGN_APPROVAL ( #299, ( #310 ) ) ;
#159 = DIRECTION ( 'NONE',  ( -3.097720492815729631E-16, -1.000000000000000000, 0.000000000000000000 ) ) ;
#160 = APPLICATION_CONTEXT ( 'configuration controlled 3d designs of mechanical parts and assemblies' ) ;
#161 = CARTESIAN_POINT ( 'NONE',  ( 12.99999999999999822, -2.031992322221612255E-15, 0.000000000000000000 ) ) ;
#162 = EDGE_CURVE ( 'NONE', #502, #152, #362, .T. ) ;
#163 = PLANE ( 'NONE',  #212 ) ;
#164 = FACE_OUTER_BOUND ( 'NONE', #210, .T. ) ;
#165 = DIRECTION ( 'NONE',  ( 1.000000000000000000, 1.156482317317871478E-16, 0.000000000000000000 ) ) ;
#166 = ORIENTED_EDGE ( 'NONE', *, *, #514, .F. ) ;
#167 = ADVANCED_FACE ( 'NONE', ( #412 ), #42, .F. ) ;
#168 = ORIENTED_EDGE ( 'NONE', *, *, #411, .F. ) ;
#169 = CIRCLE ( 'NONE', #44, 2.000000000000000000 ) ;
#170 = DIRECTION ( 'NONE',  ( -0.000000000000000000, -0.000000000000000000, -1.000000000000000000 ) ) ;
#171 = ORIENTED_EDGE ( 'NONE', *, *, #366, .T. ) ;
#172 = VERTEX_POINT ( 'NONE', #485 ) ;
#173 = DIRECTION ( 'NONE',  ( -0.000000000000000000, -0.000000000000000000, -1.000000000000000000 ) ) ;
#174 = EDGE_LOOP ( 'NONE', ( #253, #500 ) ) ;
#175 = EDGE_CURVE ( 'NONE', #101, #207, #369, .T. ) ;
#176 = EDGE_CURVE ( 'NONE', #47, #420, #169, .T. ) ;
#177 = ORIENTED_EDGE ( 'NONE', *, *, #454, .T. ) ;
#178 = EDGE_LOOP ( 'NONE', ( #168, #86, #450, #66 ) ) ;
#179 = CARTESIAN_POINT ( 'NONE',  ( 6.000000000000000000, 32.00000000000000000, 0.000000000000000000 ) ) ;
#180 = CARTESIAN_POINT ( 'NONE',  ( 9.999999999999998224, -0.001000000000004903217, 3.000000000000000000 ) ) ;
#181 = FACE_OUTER_BOUND ( 'NONE', #296, .T. ) ;
#182 = DIRECTION ( 'NONE',  ( -1.000000000000000000, 1.563071017093547642E-16, 0.000000000000000000 ) ) ;
#183 = ADVANCED_FACE ( 'NONE', ( #123 ), #283, .F. ) ;
#184 = DIRECTION ( 'NONE',  ( 3.097720492815729138E-16, 1.000000000000000000, -0.000000000000000000 ) ) ;
#185 = ORIENTED_EDGE ( 'NONE', *, *, #80, .F. ) ;
#186 = PERSON_AND_ORGANIZATION_ROLE ( 'design_owner' ) ;
#187 = DIRECTION ( 'NONE',  ( 1.000000000000000000, 1.156482317317871478E-16, -0.000000000000000000 ) ) ;
#188 = ORIENTED_EDGE ( 'NONE', *, *, #120, .F. ) ;
#189 = APPROVAL_DATE_TIME ( #471, #417 ) ;
#190 = DIRECTION ( 'NONE',  ( -1.000000000000000000, 2.168404344971008868E-16, 0.000000000000000000 ) ) ;
#191 = EDGE_LOOP ( 'NONE', ( #463, #325, #125, #458 ) ) ;
#192 = CC_DESIGN_DATE_AND_TIME_ASSIGNMENT ( #75, #116, ( #310 ) ) ;
#193 = PERSON_AND_ORGANIZATION_ROLE ( 'creator' ) ;
#194 = CARTESIAN_POINT ( 'NONE',  ( 6.000000000000003553, 2.000000000000000000, 33.00000000000000000 ) ) ;
#195 = CARTESIAN_POINT ( 'NONE',  ( 7.999999999999998224, -0.001000000000004283704, 30.00000000000000355 ) ) ;
#196 = PERSON_AND_ORGANIZATION ( #126, #415 ) ;
#197 = PRODUCT_DEFINITION_SHAPE ( 'NONE', 'NONE',  #523 ) ;
#198 = CARTESIAN_POINT ( 'NONE',  ( 6.000000000000000000, 32.00000000000000000, 33.00000000000000000 ) ) ;
#199 = COORDINATED_UNIVERSAL_TIME_OFFSET ( 5, 30, .AHEAD. ) ;
#200 = EDGE_CURVE ( 'NONE', #424, #378, #446, .T. ) ;
#201 = CARTESIAN_POINT ( 'NONE',  ( 11.99999999999999822, -1.875813507576520853E-15, 3.000000000000000444 ) ) ;
#202 = CARTESIAN_POINT ( 'NONE',  ( 9.999999999999998224, 1.999999999999998668, 3.000000000000000000 ) ) ;
#203 = DIRECTION ( 'NONE',  ( -1.000000000000000000, 3.098023004582603490E-16, 0.000000000000000000 ) ) ;
#204 = DIRECTION ( 'NONE',  ( -1.000000000000000000, 0.000000000000000000, -0.000000000000000000 ) ) ;
#205 = CIRCLE ( 'NONE', #501, 2.000000000000000000 ) ;
#206 = ORIENTED_EDGE ( 'NONE', *, *, #513, .T. ) ;
#207 = VERTEX_POINT ( 'NONE', #201 ) ;
#208 = ORIENTED_EDGE ( 'NONE', *, *, #438, .T. ) ;
#209 = LINE ( 'NONE', #373, #467 ) ;
#210 = EDGE_LOOP ( 'NONE', ( #248, #377, #217, #370, #124, #276 ) ) ;
#211 = EDGE_CURVE ( 'NONE', #256, #10, #324, .T. ) ;
#212 = AXIS2_PLACEMENT_3D ( 'NONE', #198, #525, #444 ) ;
#213 = EDGE_LOOP ( 'NONE', ( #130, #453, #188, #258 ) ) ;
#214 = ORIENTED_EDGE ( 'NONE', *, *, #74, .F. ) ;
#215 = VERTEX_POINT ( 'NONE', #359 ) ;
#216 = CYLINDRICAL_SURFACE ( 'NONE', #329, 2.000000000000000000 ) ;
#217 = ORIENTED_EDGE ( 'NONE', *, *, #361, .F. ) ;
#218 = CARTESIAN_POINT ( 'NONE',  ( 0.000000000000000000, 32.00000000000000000, 33.00000000000000000 ) ) ;
#219 = CARTESIAN_POINT ( 'NONE',  ( 12.99999999999999822, 1.999999999999997780, 33.00000000000000000 ) ) ;
#220 = CIRCLE ( 'NONE', #39, 2.000000000000000000 ) ;
#221 = PRODUCT_RELATED_PRODUCT_CATEGORY ( 'detail', '', ( #240 ) ) ;
#222 = DIRECTION ( 'NONE',  ( -1.000000000000000000, 0.000000000000000000, -0.000000000000000000 ) ) ;
#223 = VERTEX_POINT ( 'NONE', #364 ) ;
#224 = CARTESIAN_POINT ( 'NONE',  ( 0.000000000000000000, 0.000000000000000000, 33.00000000000000000 ) ) ;
#225 = CARTESIAN_POINT ( 'NONE',  ( 7.999999999999998224, 1.999999999999999112, 3.000000000000000000 ) ) ;
#226 = DIRECTION ( 'NONE',  ( 0.000000000000000000, 0.000000000000000000, 1.000000000000000000 ) ) ;
#227 = CC_DESIGN_PERSON_AND_ORGANIZATION_ASSIGNMENT ( #36, #34, ( #523 ) ) ;
#228 = CARTESIAN_POINT ( 'NONE',  ( 11.99999999999999822, -0.001000000000005522730, 3.000000000000000444 ) ) ;
#229 = ORIENTED_EDGE ( 'NONE', *, *, #61, .F. ) ;
#230 = AXIS2_PLACEMENT_3D ( 'NONE', #53, #19, #504 ) ;
#231 = LINE ( 'NONE', #442, #363 ) ;
#232 = VECTOR ( 'NONE', #142, 1000.000000000000000 ) ;
#233 = AXIS2_PLACEMENT_3D ( 'NONE', #427, #187, #59 ) ;
#234 = DIRECTION ( 'NONE',  ( 3.097720492815729631E-16, 1.000000000000000000, 0.000000000000000000 ) ) ;
#235 = CARTESIAN_POINT ( 'NONE',  ( 9.999999999999998224, -0.001000000000004903217, 30.00000000000000355 ) ) ;
#236 = DIRECTION ( 'NONE',  ( 1.000000000000000000, 1.156482317317871478E-16, -0.000000000000000000 ) ) ;
#237 = CARTESIAN_POINT ( 'NONE',  ( 9.999999999999998224, 1.999999999999998668, 30.00000000000000355 ) ) ;
#238 = PERSON_AND_ORGANIZATION ( #126, #415 ) ;
#239 = EDGE_CURVE ( 'NONE', #494, #334, #524, .T. ) ;
#240 = PRODUCT ( 'PinionMount_Default_sldprt', 'PinionMount_Default_sldprt', '', ( #507 ) ) ;
#241 = DIRECTION ( 'NONE',  ( -1.000000000000000000, 3.097720492815729631E-16, -0.000000000000000000 ) ) ;
#242 = CIRCLE ( 'NONE', #3, 2.000000000000000000 ) ;
#243 = DIRECTION ( 'NONE',  ( -1.000000000000000000, 1.563071017093547642E-16, 0.000000000000000000 ) ) ;
#244 = CARTESIAN_POINT ( 'NONE',  ( 0.000000000000000000, 0.000000000000000000, 33.00000000000000000 ) ) ;
#245 = CC_DESIGN_DATE_AND_TIME_ASSIGNMENT ( #265, #111, ( #523 ) ) ;
#246 = CIRCLE ( 'NONE', #17, 6.000000000000001776 ) ;
#247 = LOCAL_TIME ( 14, 26, 11.00000000000000000, #199 ) ;
#248 = ORIENTED_EDGE ( 'NONE', *, *, #239, .F. ) ;
#249 = ADVANCED_BREP_SHAPE_REPRESENTATION ( 'PinionMount_Default_sldprt', ( #82, #87 ), #331 ) ;
#250 = EDGE_CURVE ( 'NONE', #423, #10, #519, .T. ) ;
#251 = ORIENTED_EDGE ( 'NONE', *, *, #454, .F. ) ;
#252 = ADVANCED_FACE ( 'NONE', ( #83, #94, #57 ), #389, .F. ) ;
#253 = ORIENTED_EDGE ( 'NONE', *, *, #271, .F. ) ;
#254 = VECTOR ( 'NONE', #317, 1000.000000000000000 ) ;
#255 = ORIENTED_EDGE ( 'NONE', *, *, #74, .T. ) ;
#256 = VERTEX_POINT ( 'NONE', #484 ) ;
#257 = CARTESIAN_POINT ( 'NONE',  ( 9.999999999999998224, 1.999999999999998668, 30.00000000000000355 ) ) ;
#258 = ORIENTED_EDGE ( 'NONE', *, *, #80, .T. ) ;
#259 = ADVANCED_FACE ( 'NONE', ( #164 ), #122, .T. ) ;
#260 = UNCERTAINTY_MEASURE_WITH_UNIT (LENGTH_MEASURE( 1.000000000000000082E-05 ), #148, 'distance_accuracy_value', 'NONE');
#261 = FACE_OUTER_BOUND ( 'NONE', #470, .T. ) ;
#262 = VERTEX_POINT ( 'NONE', #338 ) ;
#263 = AXIS2_PLACEMENT_3D ( 'NONE', #79, #441, #40 ) ;
#264 = CC_DESIGN_SECURITY_CLASSIFICATION ( #310, ( #399 ) ) ;
#265 = DATE_AND_TIME ( #31, #4 ) ;
#266 = DIRECTION ( 'NONE',  ( 3.097720492815729138E-16, 1.000000000000000000, -0.000000000000000000 ) ) ;
#267 = ORIENTED_EDGE ( 'NONE', *, *, #250, .T. ) ;
#268 = LINE ( 'NONE', #279, #137 ) ;
#269 = DATE_AND_TIME ( #443, #457 ) ;
#270 = EDGE_CURVE ( 'NONE', #334, #374, #52, .T. ) ;
#271 = EDGE_CURVE ( 'NONE', #215, #262, #78, .T. ) ;
#272 = LINE ( 'NONE', #381, #478 ) ;
#273 = DIRECTION ( 'NONE',  ( -0.000000000000000000, 1.000000000000000000, -0.000000000000000000 ) ) ;
#274 = APPROVAL_STATUS ( 'not_yet_approved' ) ;
#275 = CYLINDRICAL_SURFACE ( 'NONE', #84, 2.000000000000000000 ) ;
#276 = ORIENTED_EDGE ( 'NONE', *, *, #270, .F. ) ;
#277 = DIRECTION ( 'NONE',  ( -1.445602896647338917E-16, 1.000000000000000000, 0.000000000000000000 ) ) ;
#278 = LINE ( 'NONE', #33, #447 ) ;
#279 = CARTESIAN_POINT ( 'NONE',  ( 7.999999999999998224, -0.001000000000004283704, 3.000000000000000000 ) ) ;
#280 = CARTESIAN_POINT ( 'NONE',  ( 12.99999999999999822, -2.031992322221612255E-15, 33.00000000000000000 ) ) ;
#281 = EDGE_CURVE ( 'NONE', #101, #47, #268, .T. ) ;
#282 = CYLINDRICAL_SURFACE ( 'NONE', #2, 2.000000000000000000 ) ;
#283 = CYLINDRICAL_SURFACE ( 'NONE', #96, 2.000000000000000000 ) ;
#284 = APPLICATION_CONTEXT ( 'configuration controlled 3d designs of mechanical parts and assemblies' ) ;
#285 = CARTESIAN_POINT ( 'NONE',  ( 0.000000000000000000, 0.000000000000000000, 0.000000000000000000 ) ) ;
#286 = CC_DESIGN_PERSON_AND_ORGANIZATION_ASSIGNMENT ( #64, #313, ( #310 ) ) ;
#287 = ORIENTED_EDGE ( 'NONE', *, *, #319, .F. ) ;
#288 = DIRECTION ( 'NONE',  ( 1.000000000000000000, -3.097720492815729631E-16, 0.000000000000000000 ) ) ;
#289 = AXIS2_PLACEMENT_3D ( 'NONE', #479, #522, #243 ) ;
#290 = VERTEX_POINT ( 'NONE', #55 ) ;
#291 = VERTEX_POINT ( 'NONE', #309 ) ;
#292 = ORIENTED_EDGE ( 'NONE', *, *, #513, .F. ) ;
#293 = EDGE_LOOP ( 'NONE', ( #292, #88 ) ) ;
#294 = AXIS2_PLACEMENT_3D ( 'NONE', #320, #165, #71 ) ;
#295 = CARTESIAN_POINT ( 'NONE',  ( 0.000000000000000000, 32.00000000000000000, 33.00000000000000000 ) ) ;
#296 = EDGE_LOOP ( 'NONE', ( #416, #185, #498, #355 ) ) ;
#297 = AXIS2_PLACEMENT_3D ( 'NONE', #224, #430, #222 ) ;
#298 = DESIGN_CONTEXT ( 'detailed design', #284, 'design' ) ;
#299 = APPROVAL ( #274, 'UNSPECIFIED' ) ;
#300 = LINE ( 'NONE', #14, #330 ) ;
#301 = FACE_OUTER_BOUND ( 'NONE', #213, .T. ) ;
#302 = EDGE_LOOP ( 'NONE', ( #229, #171, #491, #428 ) ) ;
#303 = DIRECTION ( 'NONE',  ( 3.097720492815729138E-16, 1.000000000000000000, -0.000000000000000000 ) ) ;
#304 = CALENDAR_DATE ( 2026, 24, 8 ) ;
#305 = CIRCLE ( 'NONE', #294, 6.000000000000001776 ) ;
#306 = CARTESIAN_POINT ( 'NONE',  ( 0.000000000000000000, 0.000000000000000000, 0.000000000000000000 ) ) ;
#307 = ORIENTED_EDGE ( 'NONE', *, *, #514, .T. ) ;
#308 = AXIS2_PLACEMENT_3D ( 'NONE', #285, #449, #204 ) ;
#309 = CARTESIAN_POINT ( 'NONE',  ( 11.99999999999999822, 1.999999999999998224, 30.00000000000000355 ) ) ;
#310 = SECURITY_CLASSIFICATION ( '', '', #72 ) ;
#311 = CALENDAR_DATE ( 2026, 24, 8 ) ;
#312 = DIRECTION ( 'NONE',  ( -0.000000000000000000, -0.000000000000000000, -1.000000000000000000 ) ) ;
#313 = PERSON_AND_ORGANIZATION_ROLE ( 'classification_officer' ) ;
#314 = DIRECTION ( 'NONE',  ( 0.000000000000000000, 0.000000000000000000, -1.000000000000000000 ) ) ;
#315 = DIRECTION ( 'NONE',  ( 3.097720492815729138E-16, 1.000000000000000000, -0.000000000000000000 ) ) ;
#316 =( NAMED_UNIT ( * ) SI_UNIT ( $, .STERADIAN. ) SOLID_ANGLE_UNIT ( ) );
#317 = DIRECTION ( 'NONE',  ( -0.000000000000000000, -1.000000000000000000, -0.000000000000000000 ) ) ;
#318 = CALENDAR_DATE ( 2026, 24, 8 ) ;
#319 = EDGE_CURVE ( 'NONE', #129, #290, #231, .T. ) ;
#320 = CARTESIAN_POINT ( 'NONE',  ( 6.000000000000001776, 16.99999999999999645, 20.00000000000000355 ) ) ;
#321 = DIRECTION ( 'NONE',  ( 1.000000000000000000, -1.563071017093548135E-16, -0.000000000000000000 ) ) ;
#322 = DIRECTION ( 'NONE',  ( 3.097720492815729138E-16, 1.000000000000000000, -0.000000000000000000 ) ) ;
#323 = CC_DESIGN_PERSON_AND_ORGANIZATION_ASSIGNMENT ( #238, #186, ( #240 ) ) ;
#324 = LINE ( 'NONE', #402, #77 ) ;
#325 = ORIENTED_EDGE ( 'NONE', *, *, #157, .T. ) ;
#326 = ORIENTED_EDGE ( 'NONE', *, *, #200, .F. ) ;
#327 = EDGE_CURVE ( 'NONE', #223, #215, #356, .T. ) ;
#328 = ORIENTED_EDGE ( 'NONE', *, *, #422, .T. ) ;
#329 = AXIS2_PLACEMENT_3D ( 'NONE', #13, #376, #131 ) ;
#330 = VECTOR ( 'NONE', #385, 1000.000000000000000 ) ;
#331 =( GEOMETRIC_REPRESENTATION_CONTEXT ( 3 ) GLOBAL_UNCERTAINTY_ASSIGNED_CONTEXT ( ( #260 ) ) GLOBAL_UNIT_ASSIGNED_CONTEXT ( ( #148, #109, #316 ) ) REPRESENTATION_CONTEXT ( 'NONE', 'WORKASPACE' ) );
#332 = LINE ( 'NONE', #228, #15 ) ;
#333 = VERTEX_POINT ( 'NONE', #387 ) ;
#334 = VERTEX_POINT ( 'NONE', #432 ) ;
#335 = ORIENTED_EDGE ( 'NONE', *, *, #43, .T. ) ;
#336 = ORIENTED_EDGE ( 'NONE', *, *, #211, .T. ) ;
#337 = ORIENTED_EDGE ( 'NONE', *, *, #157, .F. ) ;
#338 = CARTESIAN_POINT ( 'NONE',  ( 6.000000000000002665, 10.99999999999999645, 20.00000000000000355 ) ) ;
#339 = LINE ( 'NONE', #99, #486 ) ;
#340 = VECTOR ( 'NONE', #392, 1000.000000000000000 ) ;
#341 = APPROVAL_PERSON_ORGANIZATION ( #400, #417, #147 ) ;
#342 = EDGE_CURVE ( 'NONE', #207, #101, #205, .T. ) ;
#343 = LINE ( 'NONE', #505, #232 ) ;
#344 = FACE_OUTER_BOUND ( 'NONE', #379, .T. ) ;
#345 = ADVANCED_FACE ( 'NONE', ( #344 ), #510, .F. ) ;
#346 = CARTESIAN_POINT ( 'NONE',  ( 0.000000000000000000, 16.99999999999999645, 20.00000000000000355 ) ) ;
#347 = PLANE ( 'NONE',  #409 ) ;
#348 = DIRECTION ( 'NONE',  ( -0.000000000000000000, 1.000000000000000000, -0.000000000000000000 ) ) ;
#349 = APPROVAL_STATUS ( 'not_yet_approved' ) ;
#350 = AXIS2_PLACEMENT_3D ( 'NONE', #237, #119, #448 ) ;
#351 = DIRECTION ( 'NONE',  ( 0.000000000000000000, 0.000000000000000000, -1.000000000000000000 ) ) ;
#352 = DIRECTION ( 'NONE',  ( -1.000000000000000000, -0.000000000000000000, -0.000000000000000000 ) ) ;
#353 = APPROVAL_ROLE ( '' ) ;
#354 = FACE_BOUND ( 'NONE', #51, .T. ) ;
#355 = ORIENTED_EDGE ( 'NONE', *, *, #388, .T. ) ;
#356 = LINE ( 'NONE', #512, #439 ) ;
#357 = PERSON_AND_ORGANIZATION ( #126, #415 ) ;
#358 = DIRECTION ( 'NONE',  ( -1.000000000000000000, 1.563071017093548628E-16, 0.000000000000000000 ) ) ;
#359 = CARTESIAN_POINT ( 'NONE',  ( 6.000000000000000888, 23.00000000000000000, 20.00000000000000355 ) ) ;
#360 = APPLICATION_PROTOCOL_DEFINITION ( 'international standard', 'config_control_design', 1994, #160 ) ;
#361 = EDGE_CURVE ( 'NONE', #10, #172, #143, .T. ) ;
#362 = LINE ( 'NONE', #117, #254 ) ;
#363 = VECTOR ( 'NONE', #348, 1000.000000000000000 ) ;
#364 = CARTESIAN_POINT ( 'NONE',  ( 0.000000000000000000, 23.00000000000000000, 20.00000000000000355 ) ) ;
#365 = CARTESIAN_POINT ( 'NONE',  ( 7.999999999999998224, -1.250585100739101698E-15, 3.000000000000000000 ) ) ;
#366 = EDGE_CURVE ( 'NONE', #54, #223, #246, .T. ) ;
#367 = ADVANCED_FACE ( 'NONE', ( #496 ), #216, .F. ) ;
#368 = DIRECTION ( 'NONE',  ( -1.000000000000000000, 3.098023004582603490E-16, 0.000000000000000000 ) ) ;
#369 = CIRCLE ( 'NONE', #289, 2.000000000000000000 ) ;
#370 = ORIENTED_EDGE ( 'NONE', *, *, #211, .F. ) ;
#371 = ORIENTED_EDGE ( 'NONE', *, *, #37, .F. ) ;
#372 = APPROVAL ( #520, 'UNSPECIFIED' ) ;
#373 = CARTESIAN_POINT ( 'NONE',  ( 12.99999999999999822, -2.031992322221612255E-15, 33.00000000000000000 ) ) ;
#374 = VERTEX_POINT ( 'NONE', #89 ) ;
#375 = AXIS2_PLACEMENT_3D ( 'NONE', #106, #159, #288 ) ;
#376 = DIRECTION ( 'NONE',  ( 3.097720492815729138E-16, 1.000000000000000000, -0.000000000000000000 ) ) ;
#377 = ORIENTED_EDGE ( 'NONE', *, *, #24, .F. ) ;
#378 = VERTEX_POINT ( 'NONE', #135 ) ;
#379 = EDGE_LOOP ( 'NONE', ( #8, #371, #287, #26 ) ) ;
#380 = CC_DESIGN_PERSON_AND_ORGANIZATION_ASSIGNMENT ( #154, #193, ( #399 ) ) ;
#381 = CARTESIAN_POINT ( 'NONE',  ( 0.000000000000000000, 0.000000000000000000, 0.000000000000000000 ) ) ;
#382 = AXIS2_PLACEMENT_3D ( 'NONE', #257, #234, #190 ) ;
#383 = AXIS2_PLACEMENT_3D ( 'NONE', #73, #41, #487 ) ;
#384 = DIRECTION ( 'NONE',  ( -1.000000000000000000, -0.000000000000000000, -0.000000000000000000 ) ) ;
#385 = DIRECTION ( 'NONE',  ( 1.000000000000000000, 1.156482317317871478E-16, -0.000000000000000000 ) ) ;
#386 = LOCAL_TIME ( 14, 26, 11.00000000000000000, #407 ) ;
#387 = CARTESIAN_POINT ( 'NONE',  ( 6.000000000000003553, 2.000000000000000000, 33.00000000000000000 ) ) ;
#388 = EDGE_CURVE ( 'NONE', #502, #172, #46, .T. ) ;
#389 = PLANE ( 'NONE',  #375 ) ;
#390 = CARTESIAN_POINT ( 'NONE',  ( 0.000000000000000000, 32.00000000000000000, 33.00000000000000000 ) ) ;
#391 = ORIENTED_EDGE ( 'NONE', *, *, #422, .F. ) ;
#392 = DIRECTION ( 'NONE',  ( -1.156482317317871478E-16, 1.000000000000000000, -0.000000000000000000 ) ) ;
#393 = CARTESIAN_POINT ( 'NONE',  ( 9.999999999999998224, 1.999999999999998668, 3.000000000000000000 ) ) ;
#394 = DIRECTION ( 'NONE',  ( 0.000000000000000000, 0.000000000000000000, 1.000000000000000000 ) ) ;
#395 = DIRECTION ( 'NONE',  ( 1.000000000000000000, 0.000000000000000000, 0.000000000000000000 ) ) ;
#396 = AXIS2_PLACEMENT_3D ( 'NONE', #436, #146, #277 ) ;
#397 = CARTESIAN_POINT ( 'NONE',  ( 11.99999999999999822, 1.999999999999998224, 3.000000000000000444 ) ) ;
#398 = EDGE_LOOP ( 'NONE', ( #451, #45, #177, #307, #328, #497 ) ) ;
#399 = PRODUCT_DEFINITION_FORMATION_WITH_SPECIFIED_SOURCE ( 'ANY', '', #240, .NOT_KNOWN. ) ;
#400 = PERSON_AND_ORGANIZATION ( #126, #415 ) ;
#401 = PLANE ( 'NONE',  #230 ) ;
#402 = CARTESIAN_POINT ( 'NONE',  ( 6.000000000000000000, 32.00000000000000000, 0.000000000000000000 ) ) ;
#403 = CARTESIAN_POINT ( 'NONE',  ( 9.999999999999998224, -1.563199304157811276E-15, 3.000000000000000000 ) ) ;
#404 = EDGE_CURVE ( 'NONE', #129, #334, #209, .T. ) ;
#405 = APPLICATION_PROTOCOL_DEFINITION ( 'international standard', 'config_control_design', 1994, #284 ) ;
#406 = LINE ( 'NONE', #445, #492 ) ;
#407 = COORDINATED_UNIVERSAL_TIME_OFFSET ( 5, 30, .AHEAD. ) ;
#408 = FACE_BOUND ( 'NONE', #174, .T. ) ;
#409 = AXIS2_PLACEMENT_3D ( 'NONE', #509, #431, #351 ) ;
#410 = CC_DESIGN_APPROVAL ( #372, ( #399 ) ) ;
#411 = EDGE_CURVE ( 'NONE', #207, #420, #332, .T. ) ;
#412 = FACE_OUTER_BOUND ( 'NONE', #302, .T. ) ;
#413 = FACE_OUTER_BOUND ( 'NONE', #134, .T. ) ;
#414 = VECTOR ( 'NONE', #352, 1000.000000000000000 ) ;
#415 = ORGANIZATION ( 'UNSPECIFIED', 'UNSPECIFIED', '' ) ;
#416 = ORIENTED_EDGE ( 'NONE', *, *, #24, .T. ) ;
#417 = APPROVAL ( #349, 'UNSPECIFIED' ) ;
#418 = VERTEX_POINT ( 'NONE', #112 ) ;
#419 = ORIENTED_EDGE ( 'NONE', *, *, #176, .F. ) ;
#420 = VERTEX_POINT ( 'NONE', #397 ) ;
#421 = ADVANCED_FACE ( 'NONE', ( #261 ), #275, .F. ) ;
#422 = EDGE_CURVE ( 'NONE', #423, #502, #98, .T. ) ;
#423 = VERTEX_POINT ( 'NONE', #440 ) ;
#424 = VERTEX_POINT ( 'NONE', #29 ) ;
#425 = CARTESIAN_POINT ( 'NONE',  ( 0.000000000000000000, 32.00000000000000000, 33.00000000000000000 ) ) ;
#426 = DIRECTION ( 'NONE',  ( -0.000000000000000000, -1.000000000000000000, -0.000000000000000000 ) ) ;
#427 = CARTESIAN_POINT ( 'NONE',  ( -0.001000000000001867451, 16.99999999999999645, 20.00000000000000355 ) ) ;
#428 = ORIENTED_EDGE ( 'NONE', *, *, #271, .T. ) ;
#429 = PERSON_AND_ORGANIZATION ( #126, #415 ) ;
#430 = DIRECTION ( 'NONE',  ( 0.000000000000000000, 0.000000000000000000, -1.000000000000000000 ) ) ;
#431 = DIRECTION ( 'NONE',  ( 1.000000000000000000, 0.000000000000000000, 0.000000000000000000 ) ) ;
#432 = CARTESIAN_POINT ( 'NONE',  ( 12.99999999999999822, -2.031992322221612255E-15, 0.000000000000000000 ) ) ;
#433 = PERSON_AND_ORGANIZATION_ROLE ( 'design_supplier' ) ;
#434 = DIRECTION ( 'NONE',  ( -1.000000000000000000, 3.097720492815729631E-16, -0.000000000000000000 ) ) ;
#435 = EDGE_LOOP ( 'NONE', ( #206, #93, #136, #92 ) ) ;
#436 = CARTESIAN_POINT ( 'NONE',  ( 6.000000000000001776, 16.99999999999999645, 20.00000000000000355 ) ) ;
#437 = APPROVAL_ROLE ( '' ) ;
#438 = EDGE_CURVE ( 'NONE', #291, #378, #38, .T. ) ;
#439 = VECTOR ( 'NONE', #236, 1000.000000000000000 ) ;
#440 = CARTESIAN_POINT ( 'NONE',  ( 6.000000000000000000, 32.00000000000000000, 33.00000000000000000 ) ) ;
#441 = DIRECTION ( 'NONE',  ( -1.563071017093548135E-16, -1.000000000000000000, 0.000000000000000000 ) ) ;
#442 = CARTESIAN_POINT ( 'NONE',  ( 12.99999999999999822, 1.999999999999997780, 33.00000000000000000 ) ) ;
#443 = CALENDAR_DATE ( 2026, 24, 8 ) ;
#444 = DIRECTION ( 'NONE',  ( 1.156482317317871478E-16, -1.000000000000000000, 0.000000000000000000 ) ) ;
#445 = CARTESIAN_POINT ( 'NONE',  ( 12.99999999999999822, -2.031992322221612255E-15, 33.00000000000000000 ) ) ;
#446 = LINE ( 'NONE', #195, #468 ) ;
#447 = VECTOR ( 'NONE', #241, 1000.000000000000000 ) ;
#448 = DIRECTION ( 'NONE',  ( -1.000000000000000000, 2.168404344971008868E-16, 0.000000000000000000 ) ) ;
#449 = DIRECTION ( 'NONE',  ( 0.000000000000000000, 0.000000000000000000, -1.000000000000000000 ) ) ;
#450 = ORIENTED_EDGE ( 'NONE', *, *, #281, .T. ) ;
#451 = ORIENTED_EDGE ( 'NONE', *, *, #120, .T. ) ;
#452 = ORIENTED_EDGE ( 'NONE', *, *, #342, .F. ) ;
#453 = ORIENTED_EDGE ( 'NONE', *, *, #404, .F. ) ;
#454 = EDGE_CURVE ( 'NONE', #290, #333, #508, .T. ) ;
#455 = ORIENTED_EDGE ( 'NONE', *, *, #411, .T. ) ;
#456 = VECTOR ( 'NONE', #315, 1000.000000000000000 ) ;
#457 = LOCAL_TIME ( 14, 26, 11.00000000000000000, #150 ) ;
#458 = ORIENTED_EDGE ( 'NONE', *, *, #118, .T. ) ;
#459 = CARTESIAN_POINT ( 'NONE',  ( 12.99999999999999822, 1.999999999999997780, 0.000000000000000000 ) ) ;
#460 = DIRECTION ( 'NONE',  ( 0.000000000000000000, -0.000000000000000000, -1.000000000000000000 ) ) ;
#461 = ORIENTED_EDGE ( 'NONE', *, *, #175, .T. ) ;
#462 = DIRECTION ( 'NONE',  ( -1.563071017093548135E-16, -1.000000000000000000, 0.000000000000000000 ) ) ;
#463 = ORIENTED_EDGE ( 'NONE', *, *, #43, .F. ) ;
#464 = CC_DESIGN_PERSON_AND_ORGANIZATION_ASSIGNMENT ( #357, #433, ( #399 ) ) ;
#465 = CARTESIAN_POINT ( 'NONE',  ( 0.000000000000000000, 16.99999999999999645, 20.00000000000000355 ) ) ;
#466 = SHAPE_DEFINITION_REPRESENTATION ( #197, #249 ) ;
#467 = VECTOR ( 'NONE', #170, 1000.000000000000000 ) ;
#468 = VECTOR ( 'NONE', #1, 1000.000000000000000 ) ;
#469 = DIRECTION ( 'NONE',  ( -1.000000000000000000, -0.000000000000000000, -0.000000000000000000 ) ) ;
#470 = EDGE_LOOP ( 'NONE', ( #461, #455, #490, #48 ) ) ;
#471 = DATE_AND_TIME ( #311, #480 ) ;
#472 = ORIENTED_EDGE ( 'NONE', *, *, #7, .F. ) ;
#473 = DIRECTION ( 'NONE',  ( -1.000000000000000000, 0.000000000000000000, 0.000000000000000000 ) ) ;
#474 = COORDINATED_UNIVERSAL_TIME_OFFSET ( 5, 30, .AHEAD. ) ;
#475 = ADVANCED_FACE ( 'NONE', ( #70, #354, #301 ), #401, .F. ) ;
#476 = CARTESIAN_POINT ( 'NONE',  ( 6.000000000000000000, 32.00000000000000000, 33.00000000000000000 ) ) ;
#477 = CARTESIAN_POINT ( 'NONE',  ( 0.000000000000000000, 10.99999999999999645, 20.00000000000000355 ) ) ;
#478 = VECTOR ( 'NONE', #426, 1000.000000000000000 ) ;
#479 = CARTESIAN_POINT ( 'NONE',  ( 9.999999999999998224, -1.563199304157811276E-15, 3.000000000000000000 ) ) ;
#480 = LOCAL_TIME ( 14, 26, 11.00000000000000000, #144 ) ;
#481 = DIRECTION ( 'NONE',  ( 3.097720492815729631E-16, 1.000000000000000000, 0.000000000000000000 ) ) ;
#482 = ADVANCED_FACE ( 'NONE', ( #32 ), #516, .F. ) ;
#483 = CARTESIAN_POINT ( 'NONE',  ( 6.000000000000000000, 32.00000000000000000, 33.00000000000000000 ) ) ;
#484 = CARTESIAN_POINT ( 'NONE',  ( 6.000000000000003553, 2.000000000000000000, 0.000000000000000000 ) ) ;
#485 = CARTESIAN_POINT ( 'NONE',  ( 0.000000000000000000, 32.00000000000000000, 0.000000000000000000 ) ) ;
#486 = VECTOR ( 'NONE', #20, 1000.000000000000000 ) ;
#487 = DIRECTION ( 'NONE',  ( -1.156552903396808926E-16, 1.000000000000000000, 0.000000000000000000 ) ) ;
#488 = EDGE_LOOP ( 'NONE', ( #60, #90, #391, #267 ) ) ;
#489 = EDGE_CURVE ( 'NONE', #424, #418, #242, .T. ) ;
#490 = ORIENTED_EDGE ( 'NONE', *, *, #7, .T. ) ;
#491 = ORIENTED_EDGE ( 'NONE', *, *, #327, .T. ) ;
#492 = VECTOR ( 'NONE', #35, 1000.000000000000000 ) ;
#493 = APPROVAL_PERSON_ORGANIZATION ( #196, #372, #353 ) ;
#494 = VERTEX_POINT ( 'NONE', #306 ) ;
#495 = ADVANCED_FACE ( 'NONE', ( #65 ), #139, .F. ) ;
#496 = FACE_OUTER_BOUND ( 'NONE', #191, .T. ) ;
#497 = ORIENTED_EDGE ( 'NONE', *, *, #162, .T. ) ;
#498 = ORIENTED_EDGE ( 'NONE', *, *, #162, .F. ) ;
#499 = DIRECTION ( 'NONE',  ( 0.000000000000000000, 0.000000000000000000, -1.000000000000000000 ) ) ;
#500 = ORIENTED_EDGE ( 'NONE', *, *, #133, .F. ) ;
#501 = AXIS2_PLACEMENT_3D ( 'NONE', #403, #21, #182 ) ;
#502 = VERTEX_POINT ( 'NONE', #390 ) ;
#503 = ADVANCED_FACE ( 'NONE', ( #22 ), #100, .F. ) ;
#504 = DIRECTION ( 'NONE',  ( -1.000000000000000000, 1.563071017093548135E-16, 0.000000000000000000 ) ) ;
#505 = CARTESIAN_POINT ( 'NONE',  ( 0.000000000000000000, 0.000000000000000000, 33.00000000000000000 ) ) ;
#506 = CARTESIAN_POINT ( 'NONE',  ( 12.99999999999999822, 1.999999999999997780, 33.00000000000000000 ) ) ;
#507 = MECHANICAL_CONTEXT ( 'NONE', #160, 'mechanical' ) ;
#508 = LINE ( 'NONE', #194, #155 ) ;
#509 = CARTESIAN_POINT ( 'NONE',  ( 0.000000000000000000, 0.000000000000000000, 33.00000000000000000 ) ) ;
#510 = PLANE ( 'NONE',  #114 ) ;
#511 = ORIENTED_EDGE ( 'NONE', *, *, #175, .F. ) ;
#512 = CARTESIAN_POINT ( 'NONE',  ( -0.001000000000002561340, 23.00000000000000000, 20.00000000000000355 ) ) ;
#513 = EDGE_CURVE ( 'NONE', #223, #54, #28, .T. ) ;
#514 = EDGE_CURVE ( 'NONE', #333, #423, #62, .T. ) ;
#515 = APPROVAL_DATE_TIME ( #269, #372 ) ;
#516 = PLANE ( 'NONE',  #104 ) ;
#517 = ORIENTED_EDGE ( 'NONE', *, *, #91, .T. ) ;
#518 = DATE_AND_TIME ( #304, #386 ) ;
#519 = LINE ( 'NONE', #483, #56 ) ;
#520 = APPROVAL_STATUS ( 'not_yet_approved' ) ;
#521 = CIRCLE ( 'NONE', #350, 2.000000000000000000 ) ;
#522 = DIRECTION ( 'NONE',  ( -1.563071017093548135E-16, -1.000000000000000000, 0.000000000000000000 ) ) ;
#523 = PRODUCT_DEFINITION ( 'UNKNOWN', '', #399, #298 ) ;
#524 = LINE ( 'NONE', #161, #9 ) ;
#525 = DIRECTION ( 'NONE',  ( -1.000000000000000000, -1.156482317317871478E-16, 0.000000000000000000 ) ) ;
ENDSEC;
END-ISO-10303-21;
