ISO-10303-21;
HEADER;
FILE_DESCRIPTION (( 'STEP AP203' ),
    '1' );
FILE_NAME ('Roll2_Default_sldprt.STEP',
    '2026-08-24T08:56:12',
    ( '' ),
    ( '' ),
    'SwSTEP 2.0',
    'SolidWorks 2020',
    '' );
FILE_SCHEMA (( 'CONFIG_CONTROL_DESIGN' ));
ENDSEC;

DATA;
#1 = DIRECTION ( 'NONE',  ( 1.000000000000000000, 0.000000000000000000, 0.000000000000000000 ) ) ;
#2 = CARTESIAN_POINT ( 'NONE',  ( 0.000000000000000000, 0.000000000000000000, 10.00000000000000000 ) ) ;
#3 = DIRECTION ( 'NONE',  ( 1.000000000000000000, 0.000000000000000000, -0.000000000000000000 ) ) ;
#4 = LINE ( 'NONE', #231, #414 ) ;
#5 = ADVANCED_FACE ( 'NONE', ( #54 ), #26, .F. ) ;
#6 = AXIS2_PLACEMENT_3D ( 'NONE', #267, #263, #322 ) ;
#7 = DIRECTION ( 'NONE',  ( -0.000000000000000000, -0.000000000000000000, 1.000000000000000000 ) ) ;
#8 = DIRECTION ( 'NONE',  ( 1.000000000000000000, 0.000000000000000000, 0.000000000000000000 ) ) ;
#9 = CC_DESIGN_PERSON_AND_ORGANIZATION_ASSIGNMENT ( #47, #243, ( #109 ) ) ;
#10 = FACE_OUTER_BOUND ( 'NONE', #53, .T. ) ;
#11 = DIRECTION ( 'NONE',  ( -1.000000000000000000, 0.000000000000000000, 0.000000000000000000 ) ) ;
#12 = PRODUCT_DEFINITION_SHAPE ( 'NONE', 'NONE',  #109 ) ;
#13 = FACE_OUTER_BOUND ( 'NONE', #157, .T. ) ;
#14 = DIRECTION ( 'NONE',  ( 0.000000000000000000, 0.000000000000000000, 1.000000000000000000 ) ) ;
#15 = CYLINDRICAL_SURFACE ( 'NONE', #253, 10.00000000000000000 ) ;
#16 = VECTOR ( 'NONE', #261, 1000.000000000000000 ) ;
#17 = EDGE_CURVE ( 'NONE', #152, #404, #310, .T. ) ;
#18 = COORDINATED_UNIVERSAL_TIME_OFFSET ( 5, 30, .AHEAD. ) ;
#19 = CLOSED_SHELL ( 'NONE', ( #124, #391, #5, #135, #311, #361, #43, #25, #407, #371, #244, #307, #197 ) ) ;
#20 = ORIENTED_EDGE ( 'NONE', *, *, #343, .F. ) ;
#21 = PERSON_AND_ORGANIZATION_ROLE ( 'design_supplier' ) ;
#22 = CARTESIAN_POINT ( 'NONE',  ( 0.000000000000000000, 0.000000000000000000, 25.00000000000000000 ) ) ;
#23 = AXIS2_PLACEMENT_3D ( 'NONE', #238, #7, #260 ) ;
#24 = CC_DESIGN_SECURITY_CLASSIFICATION ( #338, ( #94 ) ) ;
#25 = ADVANCED_FACE ( 'NONE', ( #280 ), #344, .T. ) ;
#26 = CYLINDRICAL_SURFACE ( 'NONE', #313, 5.000000000000000000 ) ;
#27 = CIRCLE ( 'NONE', #6, 5.000000000000000000 ) ;
#28 = LOCAL_TIME ( 14, 26, 12.00000000000000000, #18 ) ;
#29 = DIRECTION ( 'NONE',  ( -0.000000000000000000, -0.000000000000000000, 1.000000000000000000 ) ) ;
#30 = EDGE_LOOP ( 'NONE', ( #153, #189 ) ) ;
#31 = APPROVAL_DATE_TIME ( #412, #174 ) ;
#32 = AXIS2_PLACEMENT_3D ( 'NONE', #268, #14, #163 ) ;
#33 = DIRECTION ( 'NONE',  ( 1.000000000000000000, 0.000000000000000000, 0.000000000000000000 ) ) ;
#34 = ADVANCED_BREP_SHAPE_REPRESENTATION ( 'Roll2_Default_sldprt', ( #104, #66 ), #323 ) ;
#35 = CIRCLE ( 'NONE', #271, 5.000000000000000000 ) ;
#36 = CARTESIAN_POINT ( 'NONE',  ( 0.000000000000000000, 0.000000000000000000, 29.00000000000000000 ) ) ;
#37 = FACE_OUTER_BOUND ( 'NONE', #149, .T. ) ;
#38 = CARTESIAN_POINT ( 'NONE',  ( 0.000000000000000000, 0.000000000000000000, 0.000000000000000000 ) ) ;
#39 = FACE_OUTER_BOUND ( 'NONE', #365, .T. ) ;
#40 = CARTESIAN_POINT ( 'NONE',  ( 0.000000000000000000, 0.000000000000000000, 41.00000000000000000 ) ) ;
#41 = DIRECTION ( 'NONE',  ( 1.000000000000000000, 0.000000000000000000, 0.000000000000000000 ) ) ;
#42 = LINE ( 'NONE', #228, #145 ) ;
#43 = ADVANCED_FACE ( 'NONE', ( #294 ), #387, .F. ) ;
#44 = CARTESIAN_POINT ( 'NONE',  ( 0.000000000000000000, 0.000000000000000000, 29.00000000000000000 ) ) ;
#45 = CALENDAR_DATE ( 2026, 24, 8 ) ;
#46 = LOCAL_TIME ( 14, 26, 12.00000000000000000, #375 ) ;
#47 = PERSON_AND_ORGANIZATION ( #279, #102 ) ;
#48 = PERSON_AND_ORGANIZATION ( #279, #102 ) ;
#49 = EDGE_LOOP ( 'NONE', ( #90, #230, #376, #249 ) ) ;
#50 = FACE_OUTER_BOUND ( 'NONE', #309, .T. ) ;
#51 = AXIS2_PLACEMENT_3D ( 'NONE', #293, #393, #205 ) ;
#52 = DIRECTION ( 'NONE',  ( 0.000000000000000000, 0.000000000000000000, 1.000000000000000000 ) ) ;
#53 = EDGE_LOOP ( 'NONE', ( #349, #119, #57, #72 ) ) ;
#54 = FACE_OUTER_BOUND ( 'NONE', #49, .T. ) ;
#55 = ORIENTED_EDGE ( 'NONE', *, *, #168, .F. ) ;
#56 = APPROVAL_ROLE ( '' ) ;
#57 = ORIENTED_EDGE ( 'NONE', *, *, #17, .T. ) ;
#58 = EDGE_CURVE ( 'NONE', #82, #176, #147, .T. ) ;
#59 = CYLINDRICAL_SURFACE ( 'NONE', #131, 3.500000000000000000 ) ;
#60 = AXIS2_PLACEMENT_3D ( 'NONE', #136, #232, #166 ) ;
#61 = CARTESIAN_POINT ( 'NONE',  ( 0.000000000000000000, 0.000000000000000000, 41.00000000000000000 ) ) ;
#62 = DIRECTION ( 'NONE',  ( 1.000000000000000000, 0.000000000000000000, 0.000000000000000000 ) ) ;
#63 = CARTESIAN_POINT ( 'NONE',  ( -5.000000000000000000, 6.123233995736766282E-16, 41.00000000000000000 ) ) ;
#64 = FACE_OUTER_BOUND ( 'NONE', #215, .T. ) ;
#65 = DIRECTION ( 'NONE',  ( -0.000000000000000000, -0.000000000000000000, -1.000000000000000000 ) ) ;
#66 = AXIS2_PLACEMENT_3D ( 'NONE', #212, #52, #112 ) ;
#67 = CARTESIAN_POINT ( 'NONE',  ( 5.000000000000000000, 6.123233995736766282E-16, 10.00000000000000000 ) ) ;
#68 = DIRECTION ( 'NONE',  ( -1.000000000000000000, 0.000000000000000000, 0.000000000000000000 ) ) ;
#69 = EDGE_CURVE ( 'NONE', #118, #404, #35, .T. ) ;
#70 = DIRECTION ( 'NONE',  ( -1.000000000000000000, 0.000000000000000000, 0.000000000000000000 ) ) ;
#71 = FACE_BOUND ( 'NONE', #115, .T. ) ;
#72 = ORIENTED_EDGE ( 'NONE', *, *, #69, .F. ) ;
#73 = VECTOR ( 'NONE', #169, 1000.000000000000000 ) ;
#74 = VECTOR ( 'NONE', #29, 1000.000000000000000 ) ;
#75 = PERSON_AND_ORGANIZATION ( #279, #102 ) ;
#76 = ORIENTED_EDGE ( 'NONE', *, *, #114, .T. ) ;
#77 = VECTOR ( 'NONE', #286, 1000.000000000000000 ) ;
#78 = ORIENTED_EDGE ( 'NONE', *, *, #121, .T. ) ;
#79 = EDGE_CURVE ( 'NONE', #378, #248, #221, .T. ) ;
#80 = CALENDAR_DATE ( 2026, 24, 8 ) ;
#81 = VERTEX_POINT ( 'NONE', #127 ) ;
#82 = VERTEX_POINT ( 'NONE', #130 ) ;
#83 = EDGE_LOOP ( 'NONE', ( #413, #20, #122, #410 ) ) ;
#84 = ORIENTED_EDGE ( 'NONE', *, *, #262, .F. ) ;
#85 = EDGE_CURVE ( 'NONE', #248, #176, #165, .T. ) ;
#86 = ORIENTED_EDGE ( 'NONE', *, *, #139, .F. ) ;
#87 = EDGE_CURVE ( 'NONE', #81, #118, #389, .T. ) ;
#88 = VERTEX_POINT ( 'NONE', #259 ) ;
#89 = AXIS2_PLACEMENT_3D ( 'NONE', #2, #167, #191 ) ;
#90 = ORIENTED_EDGE ( 'NONE', *, *, #314, .F. ) ;
#91 = DIRECTION ( 'NONE',  ( 0.000000000000000000, 0.000000000000000000, 1.000000000000000000 ) ) ;
#92 = DIRECTION ( 'NONE',  ( -0.000000000000000000, -0.000000000000000000, -1.000000000000000000 ) ) ;
#93 = AXIS2_PLACEMENT_3D ( 'NONE', #330, #326, #41 ) ;
#94 = PRODUCT_DEFINITION_FORMATION_WITH_SPECIFIED_SOURCE ( 'ANY', '', #360, .NOT_KNOWN. ) ;
#95 = DIRECTION ( 'NONE',  ( -1.000000000000000000, 0.000000000000000000, 0.000000000000000000 ) ) ;
#96 = PRODUCT_RELATED_PRODUCT_CATEGORY ( 'detail', '', ( #360 ) ) ;
#97 = CARTESIAN_POINT ( 'NONE',  ( 10.00000000000000000, 1.224646799147353256E-15, 0.000000000000000000 ) ) ;
#98 = DIRECTION ( 'NONE',  ( -1.000000000000000000, 0.000000000000000000, 0.000000000000000000 ) ) ;
#99 = CARTESIAN_POINT ( 'NONE',  ( -3.500000000000000000, 4.286263797015736595E-16, 29.00000000000000000 ) ) ;
#100 = DIRECTION ( 'NONE',  ( -0.000000000000000000, -0.000000000000000000, 1.000000000000000000 ) ) ;
#101 = FACE_OUTER_BOUND ( 'NONE', #250, .T. ) ;
#102 = ORGANIZATION ( 'UNSPECIFIED', 'UNSPECIFIED', '' ) ;
#103 = DIRECTION ( 'NONE',  ( 0.000000000000000000, 0.000000000000000000, 1.000000000000000000 ) ) ;
#104 = MANIFOLD_SOLID_BREP ( 'Cut-Extrude3', #19 ) ;
#105 = DIRECTION ( 'NONE',  ( 0.000000000000000000, 0.000000000000000000, -1.000000000000000000 ) ) ;
#106 = CARTESIAN_POINT ( 'NONE',  ( 3.500000000000000000, 0.000000000000000000, 41.00000000000000000 ) ) ;
#107 = VERTEX_POINT ( 'NONE', #362 ) ;
#108 = APPROVAL_ROLE ( '' ) ;
#109 = PRODUCT_DEFINITION ( 'UNKNOWN', '', #94, #258 ) ;
#110 = EDGE_LOOP ( 'NONE', ( #303, #270 ) ) ;
#111 = CIRCLE ( 'NONE', #184, 5.000000000000000000 ) ;
#112 = DIRECTION ( 'NONE',  ( 1.000000000000000000, 0.000000000000000000, 0.000000000000000000 ) ) ;
#113 =( NAMED_UNIT ( * ) PLANE_ANGLE_UNIT ( ) SI_UNIT ( $, .RADIAN. ) );
#114 = EDGE_CURVE ( 'NONE', #404, #118, #351, .T. ) ;
#115 = EDGE_LOOP ( 'NONE', ( #218, #55 ) ) ;
#116 = APPROVAL_STATUS ( 'not_yet_approved' ) ;
#117 = CIRCLE ( 'NONE', #150, 5.000000000000000000 ) ;
#118 = VERTEX_POINT ( 'NONE', #63 ) ;
#119 = ORIENTED_EDGE ( 'NONE', *, *, #334, .T. ) ;
#120 = ORIENTED_EDGE ( 'NONE', *, *, #233, .F. ) ;
#121 = EDGE_CURVE ( 'NONE', #245, #341, #134, .T. ) ;
#122 = ORIENTED_EDGE ( 'NONE', *, *, #158, .T. ) ;
#123 = EDGE_LOOP ( 'NONE', ( #251, #379 ) ) ;
#124 = ADVANCED_FACE ( 'NONE', ( #101 ), #59, .F. ) ;
#125 = ORIENTED_EDGE ( 'NONE', *, *, #254, .T. ) ;
#126 = EDGE_LOOP ( 'NONE', ( #381, #380 ) ) ;
#127 = CARTESIAN_POINT ( 'NONE',  ( -5.000000000000000000, 6.123233995736766282E-16, 25.00000000000000000 ) ) ;
#128 = CARTESIAN_POINT ( 'NONE',  ( 0.000000000000000000, 0.000000000000000000, 41.00000000000000000 ) ) ;
#129 = CARTESIAN_POINT ( 'NONE',  ( 10.00000000000000000, 1.224646799147353256E-15, 25.00000000000000000 ) ) ;
#130 = CARTESIAN_POINT ( 'NONE',  ( -10.00000000000000000, 0.000000000000000000, 0.000000000000000000 ) ) ;
#131 = AXIS2_PLACEMENT_3D ( 'NONE', #236, #195, #318 ) ;
#132 = LOCAL_TIME ( 14, 26, 12.00000000000000000, #188 ) ;
#133 = LINE ( 'NONE', #288, #73 ) ;
#134 = LINE ( 'NONE', #99, #284 ) ;
#135 = ADVANCED_FACE ( 'NONE', ( #325 ), #160, .T. ) ;
#136 = CARTESIAN_POINT ( 'NONE',  ( 0.000000000000000000, 0.000000000000000000, 41.00000000000000000 ) ) ;
#137 = DIRECTION ( 'NONE',  ( 1.000000000000000000, 0.000000000000000000, 0.000000000000000000 ) ) ;
#138 = DIRECTION ( 'NONE',  ( 0.000000000000000000, 0.000000000000000000, -1.000000000000000000 ) ) ;
#139 = EDGE_CURVE ( 'NONE', #378, #82, #356, .T. ) ;
#140 = DIRECTION ( 'NONE',  ( 0.000000000000000000, 0.000000000000000000, 1.000000000000000000 ) ) ;
#141 = AXIS2_PLACEMENT_3D ( 'NONE', #383, #92, #68 ) ;
#142 = DIRECTION ( 'NONE',  ( 1.000000000000000000, 0.000000000000000000, 0.000000000000000000 ) ) ;
#143 = ORIENTED_EDGE ( 'NONE', *, *, #17, .F. ) ;
#144 = SECURITY_CLASSIFICATION_LEVEL ( 'unclassified' ) ;
#145 = VECTOR ( 'NONE', #65, 1000.000000000000000 ) ;
#146 = CARTESIAN_POINT ( 'NONE',  ( 0.000000000000000000, 0.000000000000000000, 25.00000000000000000 ) ) ;
#147 = CIRCLE ( 'NONE', #287, 10.00000000000000000 ) ;
#148 = DIRECTION ( 'NONE',  ( 0.000000000000000000, 0.000000000000000000, 1.000000000000000000 ) ) ;
#149 = EDGE_LOOP ( 'NONE', ( #403, #226, #255, #125 ) ) ;
#150 = AXIS2_PLACEMENT_3D ( 'NONE', #235, #138, #95 ) ;
#151 = CIRCLE ( 'NONE', #345, 10.00000000000000000 ) ;
#152 = VERTEX_POINT ( 'NONE', #327 ) ;
#153 = ORIENTED_EDGE ( 'NONE', *, *, #211, .F. ) ;
#154 = APPROVAL ( #116, 'UNSPECIFIED' ) ;
#155 = ORIENTED_EDGE ( 'NONE', *, *, #233, .T. ) ;
#156 = CIRCLE ( 'NONE', #32, 3.500000000000000000 ) ;
#157 = EDGE_LOOP ( 'NONE', ( #373, #398, #377, #143 ) ) ;
#158 = EDGE_CURVE ( 'NONE', #340, #107, #42, .T. ) ;
#159 = ORIENTED_EDGE ( 'NONE', *, *, #85, .F. ) ;
#160 = CYLINDRICAL_SURFACE ( 'NONE', #141, 10.00000000000000000 ) ;
#161 = DIRECTION ( 'NONE',  ( 0.000000000000000000, 0.000000000000000000, 1.000000000000000000 ) ) ;
#162 = DIRECTION ( 'NONE',  ( 1.000000000000000000, 0.000000000000000000, -0.000000000000000000 ) ) ;
#163 = DIRECTION ( 'NONE',  ( 1.000000000000000000, 0.000000000000000000, 0.000000000000000000 ) ) ;
#164 = UNCERTAINTY_MEASURE_WITH_UNIT (LENGTH_MEASURE( 1.000000000000000082E-05 ), #406, 'distance_accuracy_value', 'NONE');
#165 = LINE ( 'NONE', #192, #77 ) ;
#166 = DIRECTION ( 'NONE',  ( 1.000000000000000000, 0.000000000000000000, 0.000000000000000000 ) ) ;
#167 = DIRECTION ( 'NONE',  ( 0.000000000000000000, 0.000000000000000000, -1.000000000000000000 ) ) ;
#168 = EDGE_CURVE ( 'NONE', #341, #342, #172, .T. ) ;
#169 = DIRECTION ( 'NONE',  ( -0.000000000000000000, -0.000000000000000000, -1.000000000000000000 ) ) ;
#170 = DIRECTION ( 'NONE',  ( 1.000000000000000000, 0.000000000000000000, 0.000000000000000000 ) ) ;
#171 = DIRECTION ( 'NONE',  ( 0.000000000000000000, 0.000000000000000000, -1.000000000000000000 ) ) ;
#172 = CIRCLE ( 'NONE', #179, 3.500000000000000000 ) ;
#173 = DATE_AND_TIME ( #45, #324 ) ;
#174 = APPROVAL ( #186, 'UNSPECIFIED' ) ;
#175 = PERSON_AND_ORGANIZATION ( #279, #102 ) ;
#176 = VERTEX_POINT ( 'NONE', #97 ) ;
#177 = CALENDAR_DATE ( 2026, 24, 8 ) ;
#178 = CARTESIAN_POINT ( 'NONE',  ( 5.000000000000000000, 0.000000000000000000, 41.00000000000000000 ) ) ;
#179 = AXIS2_PLACEMENT_3D ( 'NONE', #61, #285, #1 ) ;
#180 =( NAMED_UNIT ( * ) SI_UNIT ( $, .STERADIAN. ) SOLID_ANGLE_UNIT ( ) );
#181 = EDGE_LOOP ( 'NONE', ( #120, #242, #252, #86 ) ) ;
#182 = DIRECTION ( 'NONE',  ( -1.000000000000000000, 0.000000000000000000, 0.000000000000000000 ) ) ;
#183 = PERSON_AND_ORGANIZATION ( #279, #102 ) ;
#184 = AXIS2_PLACEMENT_3D ( 'NONE', #269, #171, #98 ) ;
#185 = ORIENTED_EDGE ( 'NONE', *, *, #283, .F. ) ;
#186 = APPROVAL_STATUS ( 'not_yet_approved' ) ;
#187 = DIRECTION ( 'NONE',  ( -0.000000000000000000, -0.000000000000000000, -1.000000000000000000 ) ) ;
#188 = COORDINATED_UNIVERSAL_TIME_OFFSET ( 5, 30, .AHEAD. ) ;
#189 = ORIENTED_EDGE ( 'NONE', *, *, #334, .F. ) ;
#190 = AXIS2_PLACEMENT_3D ( 'NONE', #44, #194, #265 ) ;
#191 = DIRECTION ( 'NONE',  ( -1.000000000000000000, 0.000000000000000000, -0.000000000000000000 ) ) ;
#192 = CARTESIAN_POINT ( 'NONE',  ( 10.00000000000000000, 1.224646799147353256E-15, 41.00000000000000000 ) ) ;
#193 = APPLICATION_CONTEXT ( 'configuration controlled 3d designs of mechanical parts and assemblies' ) ;
#194 = DIRECTION ( 'NONE',  ( 0.000000000000000000, 0.000000000000000000, 1.000000000000000000 ) ) ;
#195 = DIRECTION ( 'NONE',  ( -0.000000000000000000, -0.000000000000000000, 1.000000000000000000 ) ) ;
#196 = DIRECTION ( 'NONE',  ( -0.000000000000000000, -0.000000000000000000, -1.000000000000000000 ) ) ;
#197 = ADVANCED_FACE ( 'NONE', ( #257 ), #382, .T. ) ;
#198 = CARTESIAN_POINT ( 'NONE',  ( 0.000000000000000000, 0.000000000000000000, 0.000000000000000000 ) ) ;
#199 = CIRCLE ( 'NONE', #247, 5.000000000000000000 ) ;
#200 = CARTESIAN_POINT ( 'NONE',  ( -5.000000000000000000, 0.000000000000000000, 10.00000000000000000 ) ) ;
#201 = DIRECTION ( 'NONE',  ( 0.000000000000000000, 0.000000000000000000, 1.000000000000000000 ) ) ;
#202 = CARTESIAN_POINT ( 'NONE',  ( 5.000000000000000000, 6.123233995736766282E-16, 0.000000000000000000 ) ) ;
#203 = AXIS2_PLACEMENT_3D ( 'NONE', #292, #352, #11 ) ;
#204 = EDGE_CURVE ( 'NONE', #88, #342, #4, .T. ) ;
#205 = DIRECTION ( 'NONE',  ( 1.000000000000000000, 0.000000000000000000, -0.000000000000000000 ) ) ;
#206 = CC_DESIGN_PERSON_AND_ORGANIZATION_ASSIGNMENT ( #175, #21, ( #94 ) ) ;
#207 = AXIS2_PLACEMENT_3D ( 'NONE', #264, #201, #33 ) ;
#208 = APPROVAL_PERSON_ORGANIZATION ( #183, #174, #56 ) ;
#209 = EDGE_CURVE ( 'NONE', #225, #107, #199, .T. ) ;
#210 = FACE_BOUND ( 'NONE', #30, .T. ) ;
#211 = EDGE_CURVE ( 'NONE', #152, #81, #298, .T. ) ;
#212 = CARTESIAN_POINT ( 'NONE',  ( 0.000000000000000000, 0.000000000000000000, 0.000000000000000000 ) ) ;
#213 = CIRCLE ( 'NONE', #93, 10.00000000000000000 ) ;
#214 = LOCAL_TIME ( 14, 26, 12.00000000000000000, #277 ) ;
#215 = EDGE_LOOP ( 'NONE', ( #76, #409 ) ) ;
#216 = DATE_AND_TIME ( #177, #46 ) ;
#217 = ORIENTED_EDGE ( 'NONE', *, *, #58, .T. ) ;
#218 = ORIENTED_EDGE ( 'NONE', *, *, #254, .F. ) ;
#219 = ORIENTED_EDGE ( 'NONE', *, *, #79, .T. ) ;
#220 = CARTESIAN_POINT ( 'NONE',  ( 5.000000000000000000, 0.000000000000000000, 25.00000000000000000 ) ) ;
#221 = CIRCLE ( 'NONE', #207, 10.00000000000000000 ) ;
#222 = CC_DESIGN_APPROVAL ( #174, ( #338 ) ) ;
#223 = PERSON_AND_ORGANIZATION_ROLE ( 'classification_officer' ) ;
#224 = EDGE_CURVE ( 'NONE', #88, #245, #156, .T. ) ;
#225 = VERTEX_POINT ( 'NONE', #202 ) ;
#226 = ORIENTED_EDGE ( 'NONE', *, *, #224, .F. ) ;
#227 = DIRECTION ( 'NONE',  ( 0.000000000000000000, 0.000000000000000000, 1.000000000000000000 ) ) ;
#228 = CARTESIAN_POINT ( 'NONE',  ( -5.000000000000000000, 0.000000000000000000, 10.00000000000000000 ) ) ;
#229 = FACE_BOUND ( 'NONE', #110, .T. ) ;
#230 = ORIENTED_EDGE ( 'NONE', *, *, #239, .T. ) ;
#231 = CARTESIAN_POINT ( 'NONE',  ( 3.500000000000000000, 0.000000000000000000, 29.00000000000000000 ) ) ;
#232 = DIRECTION ( 'NONE',  ( 0.000000000000000000, 0.000000000000000000, 1.000000000000000000 ) ) ;
#233 = EDGE_CURVE ( 'NONE', #248, #378, #213, .T. ) ;
#234 = DIRECTION ( 'NONE',  ( -0.000000000000000000, -0.000000000000000000, 1.000000000000000000 ) ) ;
#235 = CARTESIAN_POINT ( 'NONE',  ( 0.000000000000000000, 0.000000000000000000, 10.00000000000000000 ) ) ;
#236 = CARTESIAN_POINT ( 'NONE',  ( 0.000000000000000000, 0.000000000000000000, 29.00000000000000000 ) ) ;
#237 = CIRCLE ( 'NONE', #60, 3.500000000000000000 ) ;
#238 = CARTESIAN_POINT ( 'NONE',  ( 0.000000000000000000, 0.000000000000000000, 29.00000000000000000 ) ) ;
#239 = EDGE_CURVE ( 'NONE', #300, #225, #133, .T. ) ;
#240 = CYLINDRICAL_SURFACE ( 'NONE', #394, 5.000000000000000000 ) ;
#241 = PERSON_AND_ORGANIZATION ( #279, #102 ) ;
#242 = ORIENTED_EDGE ( 'NONE', *, *, #85, .T. ) ;
#243 = PERSON_AND_ORGANIZATION_ROLE ( 'creator' ) ;
#244 = ADVANCED_FACE ( 'NONE', ( #71, #64 ), #385, .T. ) ;
#245 = VERTEX_POINT ( 'NONE', #388 ) ;
#246 = DATE_AND_TIME ( #80, #28 ) ;
#247 = AXIS2_PLACEMENT_3D ( 'NONE', #38, #105, #396 ) ;
#248 = VERTEX_POINT ( 'NONE', #129 ) ;
#249 = ORIENTED_EDGE ( 'NONE', *, *, #158, .F. ) ;
#250 = EDGE_LOOP ( 'NONE', ( #185, #78, #348, #411 ) ) ;
#251 = ORIENTED_EDGE ( 'NONE', *, *, #224, .T. ) ;
#252 = ORIENTED_EDGE ( 'NONE', *, *, #262, .T. ) ;
#253 = AXIS2_PLACEMENT_3D ( 'NONE', #363, #196, #70 ) ;
#254 = EDGE_CURVE ( 'NONE', #342, #341, #237, .T. ) ;
#255 = ORIENTED_EDGE ( 'NONE', *, *, #204, .T. ) ;
#256 = APPLICATION_CONTEXT ( 'configuration controlled 3d designs of mechanical parts and assemblies' ) ;
#257 = FACE_OUTER_BOUND ( 'NONE', #123, .T. ) ;
#258 = DESIGN_CONTEXT ( 'detailed design', #193, 'design' ) ;
#259 = CARTESIAN_POINT ( 'NONE',  ( 3.500000000000000000, 0.000000000000000000, 29.00000000000000000 ) ) ;
#260 = DIRECTION ( 'NONE',  ( 1.000000000000000000, 0.000000000000000000, 0.000000000000000000 ) ) ;
#261 = DIRECTION ( 'NONE',  ( -0.000000000000000000, -0.000000000000000000, -1.000000000000000000 ) ) ;
#262 = EDGE_CURVE ( 'NONE', #176, #82, #151, .T. ) ;
#263 = DIRECTION ( 'NONE',  ( 0.000000000000000000, 0.000000000000000000, -1.000000000000000000 ) ) ;
#264 = CARTESIAN_POINT ( 'NONE',  ( 0.000000000000000000, 0.000000000000000000, 25.00000000000000000 ) ) ;
#265 = DIRECTION ( 'NONE',  ( 1.000000000000000000, 0.000000000000000000, 0.000000000000000000 ) ) ;
#266 = CARTESIAN_POINT ( 'NONE',  ( -5.000000000000000000, 6.123233995736766282E-16, 25.00000000000000000 ) ) ;
#267 = CARTESIAN_POINT ( 'NONE',  ( 0.000000000000000000, 0.000000000000000000, 10.00000000000000000 ) ) ;
#268 = CARTESIAN_POINT ( 'NONE',  ( 0.000000000000000000, 0.000000000000000000, 29.00000000000000000 ) ) ;
#269 = CARTESIAN_POINT ( 'NONE',  ( 0.000000000000000000, 0.000000000000000000, 0.000000000000000000 ) ) ;
#270 = ORIENTED_EDGE ( 'NONE', *, *, #209, .F. ) ;
#271 = AXIS2_PLACEMENT_3D ( 'NONE', #40, #317, #8 ) ;
#272 = COORDINATED_UNIVERSAL_TIME_OFFSET ( 5, 30, .AHEAD. ) ;
#273 = APPROVAL ( #304, 'UNSPECIFIED' ) ;
#274 = DIRECTION ( 'NONE',  ( -0.000000000000000000, -0.000000000000000000, 1.000000000000000000 ) ) ;
#275 = PERSON_AND_ORGANIZATION ( #279, #102 ) ;
#276 = ORIENTED_EDGE ( 'NONE', *, *, #58, .F. ) ;
#277 = COORDINATED_UNIVERSAL_TIME_OFFSET ( 5, 30, .AHEAD. ) ;
#278 = AXIS2_PLACEMENT_3D ( 'NONE', #296, #140, #170 ) ;
#279 = PERSON ( 'UNSPECIFIED', 'UNSPECIFIED', 'UNSPECIFIED', ('UNSPECIFIED'), ('UNSPECIFIED'), ('UNSPECIFIED') ) ;
#280 = FACE_OUTER_BOUND ( 'NONE', #126, .T. ) ;
#281 = CARTESIAN_POINT ( 'NONE',  ( 0.000000000000000000, 0.000000000000000000, 10.00000000000000000 ) ) ;
#282 = DATE_AND_TIME ( #415, #214 ) ;
#283 = EDGE_CURVE ( 'NONE', #245, #88, #291, .T. ) ;
#284 = VECTOR ( 'NONE', #234, 1000.000000000000000 ) ;
#285 = DIRECTION ( 'NONE',  ( 0.000000000000000000, 0.000000000000000000, 1.000000000000000000 ) ) ;
#286 = DIRECTION ( 'NONE',  ( -0.000000000000000000, -0.000000000000000000, -1.000000000000000000 ) ) ;
#287 = AXIS2_PLACEMENT_3D ( 'NONE', #198, #227, #137 ) ;
#288 = CARTESIAN_POINT ( 'NONE',  ( 5.000000000000000000, 6.123233995736766282E-16, 10.00000000000000000 ) ) ;
#289 = DIRECTION ( 'NONE',  ( 1.000000000000000000, 0.000000000000000000, 0.000000000000000000 ) ) ;
#290 = CYLINDRICAL_SURFACE ( 'NONE', #23, 3.500000000000000000 ) ;
#291 = CIRCLE ( 'NONE', #190, 3.500000000000000000 ) ;
#292 = CARTESIAN_POINT ( 'NONE',  ( 0.000000000000000000, 0.000000000000000000, 10.00000000000000000 ) ) ;
#293 = CARTESIAN_POINT ( 'NONE',  ( 0.000000000000000000, 0.000000000000000000, 0.000000000000000000 ) ) ;
#294 = FACE_OUTER_BOUND ( 'NONE', #83, .T. ) ;
#295 = CARTESIAN_POINT ( 'NONE',  ( 0.000000000000000000, 0.000000000000000000, 25.00000000000000000 ) ) ;
#296 = CARTESIAN_POINT ( 'NONE',  ( 0.000000000000000000, 0.000000000000000000, 25.00000000000000000 ) ) ;
#297 = FACE_OUTER_BOUND ( 'NONE', #316, .T. ) ;
#298 = CIRCLE ( 'NONE', #278, 5.000000000000000000 ) ;
#299 = MECHANICAL_CONTEXT ( 'NONE', #256, 'mechanical' ) ;
#300 = VERTEX_POINT ( 'NONE', #67 ) ;
#301 = DIRECTION ( 'NONE',  ( 1.000000000000000000, 0.000000000000000000, 0.000000000000000000 ) ) ;
#302 = EDGE_CURVE ( 'NONE', #107, #225, #111, .T. ) ;
#303 = ORIENTED_EDGE ( 'NONE', *, *, #302, .F. ) ;
#304 = APPROVAL_STATUS ( 'not_yet_approved' ) ;
#305 = CIRCLE ( 'NONE', #384, 5.000000000000000000 ) ;
#306 = APPLICATION_PROTOCOL_DEFINITION ( 'international standard', 'config_control_design', 1994, #193 ) ;
#307 = ADVANCED_FACE ( 'NONE', ( #37 ), #290, .F. ) ;
#308 = ORIENTED_EDGE ( 'NONE', *, *, #79, .F. ) ;
#309 = EDGE_LOOP ( 'NONE', ( #219, #155 ) ) ;
#310 = LINE ( 'NONE', #220, #74 ) ;
#311 = ADVANCED_FACE ( 'NONE', ( #297 ), #15, .T. ) ;
#312 = CALENDAR_DATE ( 2026, 24, 8 ) ;
#313 = AXIS2_PLACEMENT_3D ( 'NONE', #281, #187, #182 ) ;
#314 = EDGE_CURVE ( 'NONE', #300, #340, #117, .T. ) ;
#315 = SHAPE_DEFINITION_REPRESENTATION ( #12, #34 ) ;
#316 = EDGE_LOOP ( 'NONE', ( #159, #308, #332, #217 ) ) ;
#317 = DIRECTION ( 'NONE',  ( 0.000000000000000000, 0.000000000000000000, 1.000000000000000000 ) ) ;
#318 = DIRECTION ( 'NONE',  ( 1.000000000000000000, 0.000000000000000000, 0.000000000000000000 ) ) ;
#319 = CC_DESIGN_DATE_AND_TIME_ASSIGNMENT ( #282, #347, ( #338 ) ) ;
#320 = CARTESIAN_POINT ( 'NONE',  ( 0.000000000000000000, 0.000000000000000000, 0.000000000000000000 ) ) ;
#321 = CARTESIAN_POINT ( 'NONE',  ( -10.00000000000000000, 0.000000000000000000, 41.00000000000000000 ) ) ;
#322 = DIRECTION ( 'NONE',  ( -1.000000000000000000, 0.000000000000000000, 0.000000000000000000 ) ) ;
#323 =( GEOMETRIC_REPRESENTATION_CONTEXT ( 3 ) GLOBAL_UNCERTAINTY_ASSIGNED_CONTEXT ( ( #164 ) ) GLOBAL_UNIT_ASSIGNED_CONTEXT ( ( #406, #113, #180 ) ) REPRESENTATION_CONTEXT ( 'NONE', 'WORKASPACE' ) );
#324 = LOCAL_TIME ( 14, 26, 12.00000000000000000, #272 ) ;
#325 = FACE_OUTER_BOUND ( 'NONE', #181, .T. ) ;
#326 = DIRECTION ( 'NONE',  ( 0.000000000000000000, 0.000000000000000000, 1.000000000000000000 ) ) ;
#327 = CARTESIAN_POINT ( 'NONE',  ( 5.000000000000000000, 0.000000000000000000, 25.00000000000000000 ) ) ;
#328 = CC_DESIGN_PERSON_AND_ORGANIZATION_ASSIGNMENT ( #275, #335, ( #360 ) ) ;
#329 = CARTESIAN_POINT ( 'NONE',  ( 0.000000000000000000, 0.000000000000000000, 41.00000000000000000 ) ) ;
#330 = CARTESIAN_POINT ( 'NONE',  ( 0.000000000000000000, 0.000000000000000000, 25.00000000000000000 ) ) ;
#331 = AXIS2_PLACEMENT_3D ( 'NONE', #128, #392, #289 ) ;
#332 = ORIENTED_EDGE ( 'NONE', *, *, #139, .T. ) ;
#333 = APPROVAL_DATE_TIME ( #246, #154 ) ;
#334 = EDGE_CURVE ( 'NONE', #81, #152, #305, .T. ) ;
#335 = PERSON_AND_ORGANIZATION_ROLE ( 'design_owner' ) ;
#336 = DATE_TIME_ROLE ( 'creation_date' ) ;
#337 = VECTOR ( 'NONE', #350, 1000.000000000000000 ) ;
#338 = SECURITY_CLASSIFICATION ( '', '', #144 ) ;
#339 = APPLICATION_PROTOCOL_DEFINITION ( 'international standard', 'config_control_design', 1994, #256 ) ;
#340 = VERTEX_POINT ( 'NONE', #200 ) ;
#341 = VERTEX_POINT ( 'NONE', #397 ) ;
#342 = VERTEX_POINT ( 'NONE', #106 ) ;
#343 = EDGE_CURVE ( 'NONE', #340, #300, #27, .T. ) ;
#344 = PLANE ( 'NONE',  #89 ) ;
#345 = AXIS2_PLACEMENT_3D ( 'NONE', #320, #103, #62 ) ;
#346 = CC_DESIGN_DATE_AND_TIME_ASSIGNMENT ( #216, #336, ( #109 ) ) ;
#347 = DATE_TIME_ROLE ( 'classification_date' ) ;
#348 = ORIENTED_EDGE ( 'NONE', *, *, #168, .T. ) ;
#349 = ORIENTED_EDGE ( 'NONE', *, *, #87, .F. ) ;
#350 = DIRECTION ( 'NONE',  ( -0.000000000000000000, -0.000000000000000000, 1.000000000000000000 ) ) ;
#351 = CIRCLE ( 'NONE', #331, 5.000000000000000000 ) ;
#352 = DIRECTION ( 'NONE',  ( -0.000000000000000000, -0.000000000000000000, -1.000000000000000000 ) ) ;
#353 = DIRECTION ( 'NONE',  ( 1.000000000000000000, 0.000000000000000000, 0.000000000000000000 ) ) ;
#354 = DIRECTION ( 'NONE',  ( -0.000000000000000000, -0.000000000000000000, 1.000000000000000000 ) ) ;
#355 = DIRECTION ( 'NONE',  ( 0.000000000000000000, 0.000000000000000000, 1.000000000000000000 ) ) ;
#356 = LINE ( 'NONE', #321, #16 ) ;
#357 = CARTESIAN_POINT ( 'NONE',  ( -10.00000000000000000, 0.000000000000000000, 25.00000000000000000 ) ) ;
#358 = AXIS2_PLACEMENT_3D ( 'NONE', #146, #148, #399 ) ;
#359 = CC_DESIGN_APPROVAL ( #154, ( #109 ) ) ;
#360 = PRODUCT ( 'Roll2_Default_sldprt', 'Roll2_Default_sldprt', '', ( #299 ) ) ;
#361 = ADVANCED_FACE ( 'NONE', ( #229, #39 ), #390, .F. ) ;
#362 = CARTESIAN_POINT ( 'NONE',  ( -5.000000000000000000, 0.000000000000000000, 0.000000000000000000 ) ) ;
#363 = CARTESIAN_POINT ( 'NONE',  ( 0.000000000000000000, 0.000000000000000000, 41.00000000000000000 ) ) ;
#364 = CARTESIAN_POINT ( 'NONE',  ( 0.000000000000000000, 0.000000000000000000, 25.00000000000000000 ) ) ;
#365 = EDGE_LOOP ( 'NONE', ( #276, #84 ) ) ;
#366 = PERSON_AND_ORGANIZATION_ROLE ( 'creator' ) ;
#367 = AXIS2_PLACEMENT_3D ( 'NONE', #329, #161, #3 ) ;
#368 = CC_DESIGN_PERSON_AND_ORGANIZATION_ASSIGNMENT ( #401, #223, ( #338 ) ) ;
#369 = PLANE ( 'NONE',  #358 ) ;
#370 = APPROVAL_DATE_TIME ( #173, #273 ) ;
#371 = ADVANCED_FACE ( 'NONE', ( #10 ), #240, .T. ) ;
#372 = AXIS2_PLACEMENT_3D ( 'NONE', #36, #91, #162 ) ;
#373 = ORIENTED_EDGE ( 'NONE', *, *, #211, .T. ) ;
#374 = CC_DESIGN_APPROVAL ( #273, ( #94 ) ) ;
#375 = COORDINATED_UNIVERSAL_TIME_OFFSET ( 5, 30, .AHEAD. ) ;
#376 = ORIENTED_EDGE ( 'NONE', *, *, #209, .T. ) ;
#377 = ORIENTED_EDGE ( 'NONE', *, *, #114, .F. ) ;
#378 = VERTEX_POINT ( 'NONE', #357 ) ;
#379 = ORIENTED_EDGE ( 'NONE', *, *, #283, .T. ) ;
#380 = ORIENTED_EDGE ( 'NONE', *, *, #314, .T. ) ;
#381 = ORIENTED_EDGE ( 'NONE', *, *, #343, .T. ) ;
#382 = PLANE ( 'NONE',  #372 ) ;
#383 = CARTESIAN_POINT ( 'NONE',  ( 0.000000000000000000, 0.000000000000000000, 41.00000000000000000 ) ) ;
#384 = AXIS2_PLACEMENT_3D ( 'NONE', #295, #355, #142 ) ;
#385 = PLANE ( 'NONE',  #367 ) ;
#386 = APPROVAL_PERSON_ORGANIZATION ( #75, #273, #108 ) ;
#387 = CYLINDRICAL_SURFACE ( 'NONE', #203, 5.000000000000000000 ) ;
#388 = CARTESIAN_POINT ( 'NONE',  ( -3.500000000000000000, 4.286263797015736595E-16, 29.00000000000000000 ) ) ;
#389 = LINE ( 'NONE', #266, #337 ) ;
#390 = PLANE ( 'NONE',  #51 ) ;
#391 = ADVANCED_FACE ( 'NONE', ( #13 ), #405, .T. ) ;
#392 = DIRECTION ( 'NONE',  ( 0.000000000000000000, 0.000000000000000000, 1.000000000000000000 ) ) ;
#393 = DIRECTION ( 'NONE',  ( 0.000000000000000000, 0.000000000000000000, 1.000000000000000000 ) ) ;
#394 = AXIS2_PLACEMENT_3D ( 'NONE', #364, #100, #353 ) ;
#395 = APPROVAL_PERSON_ORGANIZATION ( #48, #154, #408 ) ;
#396 = DIRECTION ( 'NONE',  ( -1.000000000000000000, 0.000000000000000000, 0.000000000000000000 ) ) ;
#397 = CARTESIAN_POINT ( 'NONE',  ( -3.500000000000000000, 4.286263797015736595E-16, 41.00000000000000000 ) ) ;
#398 = ORIENTED_EDGE ( 'NONE', *, *, #87, .T. ) ;
#399 = DIRECTION ( 'NONE',  ( 1.000000000000000000, 0.000000000000000000, -0.000000000000000000 ) ) ;
#400 = CC_DESIGN_PERSON_AND_ORGANIZATION_ASSIGNMENT ( #241, #366, ( #94 ) ) ;
#401 = PERSON_AND_ORGANIZATION ( #279, #102 ) ;
#402 = AXIS2_PLACEMENT_3D ( 'NONE', #22, #274, #301 ) ;
#403 = ORIENTED_EDGE ( 'NONE', *, *, #121, .F. ) ;
#404 = VERTEX_POINT ( 'NONE', #178 ) ;
#405 = CYLINDRICAL_SURFACE ( 'NONE', #402, 5.000000000000000000 ) ;
#406 =( LENGTH_UNIT ( ) NAMED_UNIT ( * ) SI_UNIT ( .MILLI., .METRE. ) );
#407 = ADVANCED_FACE ( 'NONE', ( #210, #50 ), #369, .T. ) ;
#408 = APPROVAL_ROLE ( '' ) ;
#409 = ORIENTED_EDGE ( 'NONE', *, *, #69, .T. ) ;
#410 = ORIENTED_EDGE ( 'NONE', *, *, #302, .T. ) ;
#411 = ORIENTED_EDGE ( 'NONE', *, *, #204, .F. ) ;
#412 = DATE_AND_TIME ( #312, #132 ) ;
#413 = ORIENTED_EDGE ( 'NONE', *, *, #239, .F. ) ;
#414 = VECTOR ( 'NONE', #354, 1000.000000000000000 ) ;
#415 = CALENDAR_DATE ( 2026, 24, 8 ) ;
ENDSEC;
END-ISO-10303-21;
