ISO-10303-21;
HEADER;
FILE_DESCRIPTION (( 'STEP AP203' ),
    '1' );
FILE_NAME ('TesthCover_Default_sldprt.STEP',
    '2026-08-24T08:56:14',
    ( '' ),
    ( '' ),
    'SwSTEP 2.0',
    'SolidWorks 2020',
    '' );
FILE_SCHEMA (( 'CONFIG_CONTROL_DESIGN' ));
ENDSEC;

DATA;
#1 = ORIENTED_EDGE ( 'NONE', *, *, #85, .F. ) ;
#2 = AXIS2_PLACEMENT_3D ( 'NONE', #243, #122, #439 ) ;
#3 = CC_DESIGN_APPROVAL ( #250, ( #29 ) ) ;
#4 = DIRECTION ( 'NONE',  ( -1.000000000000000000, -0.000000000000000000, -0.000000000000000000 ) ) ;
#5 = DIRECTION ( 'NONE',  ( -1.445602896647339163E-16, 1.000000000000000000, 0.000000000000000000 ) ) ;
#6 = FACE_BOUND ( 'NONE', #178, .T. ) ;
#7 = CARTESIAN_POINT ( 'NONE',  ( 0.000000000000000000, 0.000000000000000000, 30.00000000000000000 ) ) ;
#8 = DIRECTION ( 'NONE',  ( 1.000000000000000000, 0.000000000000000000, 0.000000000000000000 ) ) ;
#9 = ADVANCED_FACE ( 'NONE', ( #427 ), #41, .F. ) ;
#10 = CARTESIAN_POINT ( 'NONE',  ( 2.500000000000000000, 0.000000000000000000, 30.00000000000000000 ) ) ;
#11 = DIRECTION ( 'NONE',  ( 1.445602896647339163E-16, -1.000000000000000000, 0.000000000000000000 ) ) ;
#12 = DIRECTION ( 'NONE',  ( -0.000000000000000000, -0.000000000000000000, -1.000000000000000000 ) ) ;
#13 = PLANE ( 'NONE',  #384 ) ;
#14 = PLANE ( 'NONE',  #349 ) ;
#15 = ORIENTED_EDGE ( 'NONE', *, *, #284, .F. ) ;
#16 = LINE ( 'NONE', #118, #35 ) ;
#17 = CC_DESIGN_PERSON_AND_ORGANIZATION_ASSIGNMENT ( #53, #84, ( #331 ) ) ;
#18 = VECTOR ( 'NONE', #330, 1000.000000000000000 ) ;
#19 = VECTOR ( 'NONE', #134, 1000.000000000000000 ) ;
#20 = DIRECTION ( 'NONE',  ( 1.445602896647339163E-16, -1.000000000000000000, 0.000000000000000000 ) ) ;
#21 = CARTESIAN_POINT ( 'NONE',  ( 4.000000000000000888, 4.000000000000000888, 0.000000000000000000 ) ) ;
#22 = UNCERTAINTY_MEASURE_WITH_UNIT (LENGTH_MEASURE( 1.000000000000000082E-05 ), #95, 'distance_accuracy_value', 'NONE');
#23 = ADVANCED_FACE ( 'NONE', ( #106 ), #388, .F. ) ;
#24 = PERSON_AND_ORGANIZATION ( #76, #276 ) ;
#25 = CARTESIAN_POINT ( 'NONE',  ( 4.000000000000000000, -4.000000000000000888, 0.000000000000000000 ) ) ;
#26 = APPROVAL_STATUS ( 'not_yet_approved' ) ;
#27 = AXIS2_PLACEMENT_3D ( 'NONE', #325, #396, #323 ) ;
#28 = DIRECTION ( 'NONE',  ( -2.168404344971009115E-16, -1.000000000000000000, 0.000000000000000000 ) ) ;
#29 = SECURITY_CLASSIFICATION ( '', '', #376 ) ;
#30 = DATE_TIME_ROLE ( 'classification_date' ) ;
#31 = EDGE_LOOP ( 'NONE', ( #130, #165, #242, #174 ) ) ;
#32 = DIRECTION ( 'NONE',  ( 1.000000000000000000, 0.000000000000000000, 0.000000000000000000 ) ) ;
#33 = VERTEX_POINT ( 'NONE', #302 ) ;
#34 = EDGE_LOOP ( 'NONE', ( #382, #386, #140, #194 ) ) ;
#35 = VECTOR ( 'NONE', #187, 1000.000000000000000 ) ;
#36 = CC_DESIGN_PERSON_AND_ORGANIZATION_ASSIGNMENT ( #411, #404, ( #129 ) ) ;
#37 = EDGE_CURVE ( 'NONE', #273, #381, #224, .T. ) ;
#38 = APPLICATION_CONTEXT ( 'configuration controlled 3d designs of mechanical parts and assemblies' ) ;
#39 = ORIENTED_EDGE ( 'NONE', *, *, #322, .F. ) ;
#40 = AXIS2_PLACEMENT_3D ( 'NONE', #263, #112, #78 ) ;
#41 = CYLINDRICAL_SURFACE ( 'NONE', #180, 2.500000000000000000 ) ;
#42 = DIRECTION ( 'NONE',  ( -1.000000000000000000, 2.168404344971008868E-16, -0.000000000000000000 ) ) ;
#43 = EDGE_CURVE ( 'NONE', #127, #219, #373, .T. ) ;
#44 = PLANE ( 'NONE',  #282 ) ;
#45 = DIRECTION ( 'NONE',  ( 0.000000000000000000, 1.000000000000000000, 0.000000000000000000 ) ) ;
#46 = DIRECTION ( 'NONE',  ( -0.000000000000000000, -0.000000000000000000, -1.000000000000000000 ) ) ;
#47 = CARTESIAN_POINT ( 'NONE',  ( -6.000000000000002665, 6.000000000000000888, 0.000000000000000000 ) ) ;
#48 = CARTESIAN_POINT ( 'NONE',  ( -6.000000000000002665, 6.000000000000000888, 0.000000000000000000 ) ) ;
#49 = LOCAL_TIME ( 14, 26, 14.00000000000000000, #131 ) ;
#50 = CARTESIAN_POINT ( 'NONE',  ( 0.000000000000000000, 0.000000000000000000, 37.00000000000000000 ) ) ;
#51 = PLANE ( 'NONE',  #412 ) ;
#52 = ORIENTED_EDGE ( 'NONE', *, *, #37, .T. ) ;
#53 = PERSON_AND_ORGANIZATION ( #76, #276 ) ;
#54 = LINE ( 'NONE', #345, #139 ) ;
#55 = ORIENTED_EDGE ( 'NONE', *, *, #176, .F. ) ;
#56 = CALENDAR_DATE ( 2026, 24, 8 ) ;
#57 = ADVANCED_FACE ( 'NONE', ( #6, #105 ), #356, .F. ) ;
#58 = LINE ( 'NONE', #374, #353 ) ;
#59 = PERSON_AND_ORGANIZATION ( #76, #276 ) ;
#60 = ORIENTED_EDGE ( 'NONE', *, *, #351, .F. ) ;
#61 =( NAMED_UNIT ( * ) PLANE_ANGLE_UNIT ( ) SI_UNIT ( $, .RADIAN. ) );
#62 = ORIENTED_EDGE ( 'NONE', *, *, #182, .T. ) ;
#63 = PERSON_AND_ORGANIZATION ( #76, #276 ) ;
#64 = LOCAL_TIME ( 14, 26, 14.00000000000000000, #196 ) ;
#65 = ORIENTED_EDGE ( 'NONE', *, *, #328, .T. ) ;
#66 = ADVANCED_FACE ( 'NONE', ( #143 ), #44, .F. ) ;
#67 = EDGE_CURVE ( 'NONE', #94, #293, #423, .T. ) ;
#68 = DIRECTION ( 'NONE',  ( -1.000000000000000000, -0.000000000000000000, -0.000000000000000000 ) ) ;
#69 = DIRECTION ( 'NONE',  ( -1.000000000000000000, -1.445602896647339163E-16, 0.000000000000000000 ) ) ;
#70 = CARTESIAN_POINT ( 'NONE',  ( -4.000000000000000000, -3.999999999999999112, 30.00000000000000000 ) ) ;
#71 = VECTOR ( 'NONE', #253, 1000.000000000000000 ) ;
#72 = VECTOR ( 'NONE', #321, 1000.000000000000000 ) ;
#73 = DIRECTION ( 'NONE',  ( 1.000000000000000000, 0.000000000000000000, 0.000000000000000000 ) ) ;
#74 = PLANE ( 'NONE',  #235 ) ;
#75 = CARTESIAN_POINT ( 'NONE',  ( 0.000000000000000000, 0.000000000000000000, 37.00000000000000000 ) ) ;
#76 = PERSON ( 'UNSPECIFIED', 'UNSPECIFIED', 'UNSPECIFIED', ('UNSPECIFIED'), ('UNSPECIFIED'), ('UNSPECIFIED') ) ;
#77 = EDGE_CURVE ( 'NONE', #381, #177, #108, .T. ) ;
#78 = DIRECTION ( 'NONE',  ( 0.000000000000000000, -0.000000000000000000, -1.000000000000000000 ) ) ;
#79 = CARTESIAN_POINT ( 'NONE',  ( 4.000000000000000000, -4.000000000000000888, 30.00000000000000000 ) ) ;
#80 = VERTEX_POINT ( 'NONE', #363 ) ;
#81 = DIRECTION ( 'NONE',  ( 1.000000000000000000, 0.000000000000000000, 0.000000000000000000 ) ) ;
#82 = ADVANCED_BREP_SHAPE_REPRESENTATION ( 'TesthCover_Default_sldprt', ( #211, #2 ), #227 ) ;
#83 = PLANE ( 'NONE',  #367 ) ;
#84 = PERSON_AND_ORGANIZATION_ROLE ( 'design_owner' ) ;
#85 = EDGE_CURVE ( 'NONE', #80, #255, #214, .T. ) ;
#86 = ORIENTED_EDGE ( 'NONE', *, *, #260, .F. ) ;
#87 = APPLICATION_PROTOCOL_DEFINITION ( 'international standard', 'config_control_design', 1994, #217 ) ;
#88 = LINE ( 'NONE', #247, #326 ) ;
#89 = ADVANCED_FACE ( 'NONE', ( #332 ), #144, .F. ) ;
#90 = VECTOR ( 'NONE', #20, 1000.000000000000000 ) ;
#91 = ORIENTED_EDGE ( 'NONE', *, *, #125, .T. ) ;
#92 = EDGE_LOOP ( 'NONE', ( #347, #352, #420, #91 ) ) ;
#93 = DATE_AND_TIME ( #210, #206 ) ;
#94 = VERTEX_POINT ( 'NONE', #304 ) ;
#95 =( LENGTH_UNIT ( ) NAMED_UNIT ( * ) SI_UNIT ( .MILLI., .METRE. ) );
#96 = DATE_AND_TIME ( #201, #290 ) ;
#97 = ORIENTED_EDGE ( 'NONE', *, *, #430, .T. ) ;
#98 = APPROVAL_ROLE ( '' ) ;
#99 = PERSON_AND_ORGANIZATION ( #76, #276 ) ;
#100 = EDGE_LOOP ( 'NONE', ( #251, #320 ) ) ;
#101 = ADVANCED_FACE ( 'NONE', ( #340 ), #13, .F. ) ;
#102 = ORIENTED_EDGE ( 'NONE', *, *, #77, .T. ) ;
#103 = ORIENTED_EDGE ( 'NONE', *, *, #447, .F. ) ;
#104 = VECTOR ( 'NONE', #392, 1000.000000000000000 ) ;
#105 = FACE_OUTER_BOUND ( 'NONE', #245, .T. ) ;
#106 = FACE_OUTER_BOUND ( 'NONE', #350, .T. ) ;
#107 = DIRECTION ( 'NONE',  ( 1.000000000000000000, 0.000000000000000000, 0.000000000000000000 ) ) ;
#108 = LINE ( 'NONE', #153, #336 ) ;
#109 = EDGE_CURVE ( 'NONE', #312, #442, #192, .T. ) ;
#110 = FACE_BOUND ( 'NONE', #100, .T. ) ;
#111 = VECTOR ( 'NONE', #12, 1000.000000000000000 ) ;
#112 = DIRECTION ( 'NONE',  ( 0.000000000000000000, -1.000000000000000000, 0.000000000000000000 ) ) ;
#113 = LINE ( 'NONE', #370, #168 ) ;
#114 = DIRECTION ( 'NONE',  ( -0.000000000000000000, -0.000000000000000000, 1.000000000000000000 ) ) ;
#115 = CARTESIAN_POINT ( 'NONE',  ( 4.000000000000000888, 4.000000000000000888, 30.00000000000000000 ) ) ;
#116 = DIRECTION ( 'NONE',  ( 1.000000000000000000, 0.000000000000000000, 0.000000000000000000 ) ) ;
#117 = DIRECTION ( 'NONE',  ( 1.000000000000000000, -1.084202172485504311E-16, 0.000000000000000000 ) ) ;
#118 = CARTESIAN_POINT ( 'NONE',  ( -6.000000000000002665, 6.000000000000000888, 37.00000000000000000 ) ) ;
#119 = CARTESIAN_POINT ( 'NONE',  ( -6.000000000000002665, 6.000000000000000888, 37.00000000000000000 ) ) ;
#120 = AXIS2_PLACEMENT_3D ( 'NONE', #257, #391, #73 ) ;
#121 = APPROVAL_PERSON_ORGANIZATION ( #59, #402, #98 ) ;
#122 = DIRECTION ( 'NONE',  ( 0.000000000000000000, 0.000000000000000000, 1.000000000000000000 ) ) ;
#123 = CARTESIAN_POINT ( 'NONE',  ( -6.000000000000000888, -5.999999999999999112, 37.00000000000000000 ) ) ;
#124 = VERTEX_POINT ( 'NONE', #10 ) ;
#125 = EDGE_CURVE ( 'NONE', #342, #306, #397, .T. ) ;
#126 = APPROVAL_DATE_TIME ( #271, #285 ) ;
#127 = VERTEX_POINT ( 'NONE', #327 ) ;
#128 = VECTOR ( 'NONE', #362, 1000.000000000000000 ) ;
#129 = PRODUCT_DEFINITION_FORMATION_WITH_SPECIFIED_SOURCE ( 'ANY', '', #331, .NOT_KNOWN. ) ;
#130 = ORIENTED_EDGE ( 'NONE', *, *, #141, .T. ) ;
#131 = COORDINATED_UNIVERSAL_TIME_OFFSET ( 5, 30, .AHEAD. ) ;
#132 = APPROVAL_ROLE ( '' ) ;
#133 = ORIENTED_EDGE ( 'NONE', *, *, #43, .T. ) ;
#134 = DIRECTION ( 'NONE',  ( -0.000000000000000000, -0.000000000000000000, -1.000000000000000000 ) ) ;
#135 = LINE ( 'NONE', #123, #169 ) ;
#136 = VERTEX_POINT ( 'NONE', #151 ) ;
#137 = DATE_AND_TIME ( #246, #216 ) ;
#138 = APPROVAL_DATE_TIME ( #93, #250 ) ;
#139 = VECTOR ( 'NONE', #375, 1000.000000000000000 ) ;
#140 = ORIENTED_EDGE ( 'NONE', *, *, #37, .F. ) ;
#141 = EDGE_CURVE ( 'NONE', #173, #293, #303, .T. ) ;
#142 = VERTEX_POINT ( 'NONE', #70 ) ;
#143 = FACE_OUTER_BOUND ( 'NONE', #34, .T. ) ;
#144 = CYLINDRICAL_SURFACE ( 'NONE', #120, 2.500000000000000000 ) ;
#145 = LINE ( 'NONE', #422, #445 ) ;
#146 = ORIENTED_EDGE ( 'NONE', *, *, #141, .F. ) ;
#147 = CARTESIAN_POINT ( 'NONE',  ( -6.000000000000000888, -5.999999999999999112, 37.00000000000000000 ) ) ;
#148 = CC_DESIGN_PERSON_AND_ORGANIZATION_ASSIGNMENT ( #449, #167, ( #29 ) ) ;
#149 = ORIENTED_EDGE ( 'NONE', *, *, #346, .F. ) ;
#150 = PLANE ( 'NONE',  #358 ) ;
#151 = CARTESIAN_POINT ( 'NONE',  ( 5.999999999999999112, -5.999999999999999112, 0.000000000000000000 ) ) ;
#152 = CLOSED_SHELL ( 'NONE', ( #89, #66, #23, #275, #368, #156, #448, #101, #383, #254, #415, #57, #9 ) ) ;
#153 = CARTESIAN_POINT ( 'NONE',  ( -6.000000000000002665, 6.000000000000000888, 37.00000000000000000 ) ) ;
#154 = DIRECTION ( 'NONE',  ( 0.000000000000000000, -0.000000000000000000, 1.000000000000000000 ) ) ;
#155 = DIRECTION ( 'NONE',  ( -0.000000000000000000, -0.000000000000000000, 1.000000000000000000 ) ) ;
#156 = ADVANCED_FACE ( 'NONE', ( #110, #389 ), #51, .T. ) ;
#157 = EDGE_CURVE ( 'NONE', #33, #124, #175, .T. ) ;
#158 = DIRECTION ( 'NONE',  ( 1.084202172485504311E-16, 1.000000000000000000, 0.000000000000000000 ) ) ;
#159 = CARTESIAN_POINT ( 'NONE',  ( -6.000000000000002665, 6.000000000000000888, 37.00000000000000000 ) ) ;
#160 = CARTESIAN_POINT ( 'NONE',  ( -3.999999999999998224, 4.000000000000000888, 0.000000000000000000 ) ) ;
#161 = CARTESIAN_POINT ( 'NONE',  ( -6.000000000000000888, -5.999999999999999112, 37.00000000000000000 ) ) ;
#162 = ORIENTED_EDGE ( 'NONE', *, *, #249, .T. ) ;
#163 = CARTESIAN_POINT ( 'NONE',  ( 0.000000000000000000, 0.000000000000000000, 0.000000000000000000 ) ) ;
#164 = PERSON_AND_ORGANIZATION_ROLE ( 'design_supplier' ) ;
#165 = ORIENTED_EDGE ( 'NONE', *, *, #67, .F. ) ;
#166 = APPROVAL_ROLE ( '' ) ;
#167 = PERSON_AND_ORGANIZATION_ROLE ( 'classification_officer' ) ;
#168 = VECTOR ( 'NONE', #262, 1000.000000000000000 ) ;
#169 = VECTOR ( 'NONE', #270, 1000.000000000000000 ) ;
#170 = DIRECTION ( 'NONE',  ( 2.168404344971008868E-16, 1.000000000000000000, -0.000000000000000000 ) ) ;
#171 = ORIENTED_EDGE ( 'NONE', *, *, #109, .T. ) ;
#172 = MECHANICAL_CONTEXT ( 'NONE', #38, 'mechanical' ) ;
#173 = VERTEX_POINT ( 'NONE', #399 ) ;
#174 = ORIENTED_EDGE ( 'NONE', *, *, #346, .T. ) ;
#175 = CIRCLE ( 'NONE', #265, 2.500000000000000000 ) ;
#176 = EDGE_CURVE ( 'NONE', #124, #127, #359, .T. ) ;
#177 = VERTEX_POINT ( 'NONE', #119 ) ;
#178 = EDGE_LOOP ( 'NONE', ( #209, #296 ) ) ;
#179 = ORIENTED_EDGE ( 'NONE', *, *, #408, .F. ) ;
#180 = AXIS2_PLACEMENT_3D ( 'NONE', #261, #114, #431 ) ;
#181 = DIRECTION ( 'NONE',  ( 1.000000000000000000, 0.000000000000000000, 0.000000000000000000 ) ) ;
#182 = EDGE_CURVE ( 'NONE', #219, #127, #324, .T. ) ;
#183 = EDGE_LOOP ( 'NONE', ( #400, #212, #62, #55 ) ) ;
#184 = CARTESIAN_POINT ( 'NONE',  ( 4.000000000000000888, 4.000000000000000888, 0.000000000000000000 ) ) ;
#185 = ORIENTED_EDGE ( 'NONE', *, *, #408, .T. ) ;
#186 = PRODUCT_DEFINITION_SHAPE ( 'NONE', 'NONE',  #231 ) ;
#187 = DIRECTION ( 'NONE',  ( -0.000000000000000000, -0.000000000000000000, -1.000000000000000000 ) ) ;
#188 = CARTESIAN_POINT ( 'NONE',  ( 2.500000000000000000, 0.000000000000000000, -0.001000000000001000089 ) ) ;
#189 = EDGE_LOOP ( 'NONE', ( #52, #102, #222, #215 ) ) ;
#190 = EDGE_CURVE ( 'NONE', #228, #142, #191, .T. ) ;
#191 = LINE ( 'NONE', #433, #437 ) ;
#192 = LINE ( 'NONE', #424, #128 ) ;
#193 = FACE_OUTER_BOUND ( 'NONE', #233, .T. ) ;
#194 = ORIENTED_EDGE ( 'NONE', *, *, #272, .T. ) ;
#195 = CARTESIAN_POINT ( 'NONE',  ( -3.999999999999998224, 4.000000000000000888, 30.00000000000000000 ) ) ;
#196 = COORDINATED_UNIVERSAL_TIME_OFFSET ( 5, 30, .AHEAD. ) ;
#197 = CARTESIAN_POINT ( 'NONE',  ( -6.000000000000000888, -5.999999999999999112, 0.000000000000000000 ) ) ;
#198 = AXIS2_PLACEMENT_3D ( 'NONE', #163, #315, #32 ) ;
#199 = CARTESIAN_POINT ( 'NONE',  ( -4.000000000000000000, -3.999999999999999112, 30.00000000000000000 ) ) ;
#200 = PRODUCT_RELATED_PRODUCT_CATEGORY ( 'detail', '', ( #331 ) ) ;
#201 = CALENDAR_DATE ( 2026, 24, 8 ) ;
#202 = APPROVAL_STATUS ( 'not_yet_approved' ) ;
#203 = CARTESIAN_POINT ( 'NONE',  ( -3.999999999999998224, 4.000000000000000888, 30.00000000000000000 ) ) ;
#204 = DESIGN_CONTEXT ( 'detailed design', #217, 'design' ) ;
#205 = EDGE_LOOP ( 'NONE', ( #237, #372, #146, #452 ) ) ;
#206 = LOCAL_TIME ( 14, 26, 14.00000000000000000, #311 ) ;
#207 = CARTESIAN_POINT ( 'NONE',  ( -4.000000000000000000, -3.999999999999999112, 0.000000000000000000 ) ) ;
#208 = PLANE ( 'NONE',  #428 ) ;
#209 = ORIENTED_EDGE ( 'NONE', *, *, #239, .F. ) ;
#210 = CALENDAR_DATE ( 2026, 24, 8 ) ;
#211 = MANIFOLD_SOLID_BREP ( 'Cut-Extrude2', #152 ) ;
#212 = ORIENTED_EDGE ( 'NONE', *, *, #260, .T. ) ;
#213 = ORIENTED_EDGE ( 'NONE', *, *, #85, .T. ) ;
#214 = LINE ( 'NONE', #47, #288 ) ;
#215 = ORIENTED_EDGE ( 'NONE', *, *, #294, .T. ) ;
#216 = LOCAL_TIME ( 14, 26, 14.00000000000000000, #281 ) ;
#217 = APPLICATION_CONTEXT ( 'configuration controlled 3d designs of mechanical parts and assemblies' ) ;
#218 = DIRECTION ( 'NONE',  ( -0.000000000000000000, -0.000000000000000000, -1.000000000000000000 ) ) ;
#219 = VERTEX_POINT ( 'NONE', #295 ) ;
#220 = DIRECTION ( 'NONE',  ( -0.000000000000000000, 0.000000000000000000, 1.000000000000000000 ) ) ;
#221 = EDGE_CURVE ( 'NONE', #293, #312, #267, .T. ) ;
#222 = ORIENTED_EDGE ( 'NONE', *, *, #354, .T. ) ;
#223 = DIRECTION ( 'NONE',  ( -2.168404344971009115E-16, -1.000000000000000000, 0.000000000000000000 ) ) ;
#224 = LINE ( 'NONE', #365, #258 ) ;
#225 = CARTESIAN_POINT ( 'NONE',  ( 0.000000000000000000, 0.000000000000000000, 37.00000000000000000 ) ) ;
#226 = AXIS2_PLACEMENT_3D ( 'NONE', #7, #334, #259 ) ;
#227 =( GEOMETRIC_REPRESENTATION_CONTEXT ( 3 ) GLOBAL_UNCERTAINTY_ASSIGNED_CONTEXT ( ( #22 ) ) GLOBAL_UNIT_ASSIGNED_CONTEXT ( ( #95, #61, #403 ) ) REPRESENTATION_CONTEXT ( 'NONE', 'WORKASPACE' ) );
#228 = VERTEX_POINT ( 'NONE', #79 ) ;
#229 = LINE ( 'NONE', #436, #111 ) ;
#230 = APPROVAL_STATUS ( 'not_yet_approved' ) ;
#231 = PRODUCT_DEFINITION ( 'UNKNOWN', '', #129, #204 ) ;
#232 = CC_DESIGN_PERSON_AND_ORGANIZATION_ASSIGNMENT ( #63, #164, ( #129 ) ) ;
#233 = EDGE_LOOP ( 'NONE', ( #278, #387, #417, #185 ) ) ;
#234 = LINE ( 'NONE', #371, #298 ) ;
#235 = AXIS2_PLACEMENT_3D ( 'NONE', #195, #45, #154 ) ;
#236 = SHAPE_DEFINITION_REPRESENTATION ( #186, #82 ) ;
#237 = ORIENTED_EDGE ( 'NONE', *, *, #109, .F. ) ;
#238 = LINE ( 'NONE', #316, #413 ) ;
#239 = EDGE_CURVE ( 'NONE', #124, #33, #343, .T. ) ;
#240 = FACE_BOUND ( 'NONE', #205, .T. ) ;
#241 = DIRECTION ( 'NONE',  ( 1.445602896647339163E-16, -1.000000000000000000, 0.000000000000000000 ) ) ;
#242 = ORIENTED_EDGE ( 'NONE', *, *, #249, .F. ) ;
#243 = CARTESIAN_POINT ( 'NONE',  ( 0.000000000000000000, 0.000000000000000000, 0.000000000000000000 ) ) ;
#244 = CARTESIAN_POINT ( 'NONE',  ( 5.999999999999997335, 6.000000000000000888, 37.00000000000000000 ) ) ;
#245 = EDGE_LOOP ( 'NONE', ( #286, #291, #409, #162 ) ) ;
#246 = CALENDAR_DATE ( 2026, 24, 8 ) ;
#247 = CARTESIAN_POINT ( 'NONE',  ( -6.000000000000002665, 6.000000000000000888, 0.000000000000000000 ) ) ;
#248 = ORIENTED_EDGE ( 'NONE', *, *, #190, .F. ) ;
#249 = EDGE_CURVE ( 'NONE', #360, #94, #364, .T. ) ;
#250 = APPROVAL ( #26, 'UNSPECIFIED' ) ;
#251 = ORIENTED_EDGE ( 'NONE', *, *, #43, .F. ) ;
#252 = APPROVAL_PERSON_ORGANIZATION ( #24, #285, #166 ) ;
#253 = DIRECTION ( 'NONE',  ( -0.000000000000000000, -0.000000000000000000, -1.000000000000000000 ) ) ;
#254 = ADVANCED_FACE ( 'NONE', ( #394 ), #83, .F. ) ;
#255 = VERTEX_POINT ( 'NONE', #48 ) ;
#256 = DIRECTION ( 'NONE',  ( 1.000000000000000000, 1.445602896647339163E-16, -0.000000000000000000 ) ) ;
#257 = CARTESIAN_POINT ( 'NONE',  ( 0.000000000000000000, 0.000000000000000000, -0.001000000000001000089 ) ) ;
#258 = VECTOR ( 'NONE', #335, 1000.000000000000000 ) ;
#259 = DIRECTION ( 'NONE',  ( 1.000000000000000000, 0.000000000000000000, 0.000000000000000000 ) ) ;
#260 = EDGE_CURVE ( 'NONE', #33, #219, #113, .T. ) ;
#261 = CARTESIAN_POINT ( 'NONE',  ( 0.000000000000000000, 0.000000000000000000, -0.001000000000001000089 ) ) ;
#262 = DIRECTION ( 'NONE',  ( -0.000000000000000000, -0.000000000000000000, 1.000000000000000000 ) ) ;
#263 = CARTESIAN_POINT ( 'NONE',  ( -6.000000000000002665, 6.000000000000000888, 37.00000000000000000 ) ) ;
#264 = CARTESIAN_POINT ( 'NONE',  ( 0.000000000000000000, 0.000000000000000000, 30.00000000000000000 ) ) ;
#265 = AXIS2_PLACEMENT_3D ( 'NONE', #264, #218, #341 ) ;
#266 = CARTESIAN_POINT ( 'NONE',  ( 5.999999999999997335, 6.000000000000000888, 37.00000000000000000 ) ) ;
#267 = LINE ( 'NONE', #184, #18 ) ;
#268 = APPROVAL_PERSON_ORGANIZATION ( #99, #250, #132 ) ;
#269 = EDGE_LOOP ( 'NONE', ( #86, #287, #355, #133 ) ) ;
#270 = DIRECTION ( 'NONE',  ( 1.000000000000000000, 0.000000000000000000, 0.000000000000000000 ) ) ;
#271 = DATE_AND_TIME ( #313, #64 ) ;
#272 = EDGE_CURVE ( 'NONE', #273, #136, #229, .T. ) ;
#273 = VERTEX_POINT ( 'NONE', #369 ) ;
#274 = CARTESIAN_POINT ( 'NONE',  ( -6.000000000000000888, -5.999999999999999112, 37.00000000000000000 ) ) ;
#275 = ADVANCED_FACE ( 'NONE', ( #193 ), #14, .F. ) ;
#276 = ORGANIZATION ( 'UNSPECIFIED', 'UNSPECIFIED', '' ) ;
#277 = DATE_AND_TIME ( #56, #49 ) ;
#278 = ORIENTED_EDGE ( 'NONE', *, *, #322, .T. ) ;
#279 = APPLICATION_PROTOCOL_DEFINITION ( 'international standard', 'config_control_design', 1994, #38 ) ;
#280 = ORIENTED_EDGE ( 'NONE', *, *, #395, .F. ) ;
#281 = COORDINATED_UNIVERSAL_TIME_OFFSET ( 5, 30, .AHEAD. ) ;
#282 = AXIS2_PLACEMENT_3D ( 'NONE', #393, #69, #11 ) ;
#283 = EDGE_LOOP ( 'NONE', ( #171, #414, #248, #450 ) ) ;
#284 = EDGE_CURVE ( 'NONE', #306, #136, #145, .T. ) ;
#285 = APPROVAL ( #230, 'UNSPECIFIED' ) ;
#286 = ORIENTED_EDGE ( 'NONE', *, *, #395, .T. ) ;
#287 = ORIENTED_EDGE ( 'NONE', *, *, #157, .T. ) ;
#288 = VECTOR ( 'NONE', #4, 1000.000000000000000 ) ;
#289 = CARTESIAN_POINT ( 'NONE',  ( 4.000000000000000888, 4.000000000000000888, 30.00000000000000000 ) ) ;
#290 = LOCAL_TIME ( 14, 26, 14.00000000000000000, #407 ) ;
#291 = ORIENTED_EDGE ( 'NONE', *, *, #190, .T. ) ;
#292 = CARTESIAN_POINT ( 'NONE',  ( -3.999999999999998224, 4.000000000000000888, 30.00000000000000000 ) ) ;
#293 = VERTEX_POINT ( 'NONE', #21 ) ;
#294 = EDGE_CURVE ( 'NONE', #342, #273, #135, .T. ) ;
#295 = CARTESIAN_POINT ( 'NONE',  ( -2.500000000000000000, 3.061616997868383141E-16, 37.00000000000000000 ) ) ;
#296 = ORIENTED_EDGE ( 'NONE', *, *, #157, .F. ) ;
#297 = VECTOR ( 'NONE', #155, 1000.000000000000000 ) ;
#298 = VECTOR ( 'NONE', #170, 1000.000000000000000 ) ;
#299 = CC_DESIGN_SECURITY_CLASSIFICATION ( #29, ( #129 ) ) ;
#300 = CARTESIAN_POINT ( 'NONE',  ( -4.000000000000000000, -3.999999999999999112, 30.00000000000000000 ) ) ;
#301 = CARTESIAN_POINT ( 'NONE',  ( -3.999999999999998224, 4.000000000000000888, 0.000000000000000000 ) ) ;
#302 = CARTESIAN_POINT ( 'NONE',  ( -2.500000000000000000, 3.061616997868383141E-16, 30.00000000000000000 ) ) ;
#303 = LINE ( 'NONE', #301, #398 ) ;
#304 = CARTESIAN_POINT ( 'NONE',  ( 4.000000000000000888, 4.000000000000000888, 30.00000000000000000 ) ) ;
#305 = CARTESIAN_POINT ( 'NONE',  ( -3.999999999999998224, 4.000000000000000888, 30.00000000000000000 ) ) ;
#306 = VERTEX_POINT ( 'NONE', #197 ) ;
#307 = DIRECTION ( 'NONE',  ( 0.000000000000000000, 1.000000000000000000, 0.000000000000000000 ) ) ;
#308 = EDGE_CURVE ( 'NONE', #442, #173, #344, .T. ) ;
#309 = DIRECTION ( 'NONE',  ( -0.000000000000000000, -0.000000000000000000, -1.000000000000000000 ) ) ;
#310 = DIRECTION ( 'NONE',  ( -0.000000000000000000, -0.000000000000000000, -1.000000000000000000 ) ) ;
#311 = COORDINATED_UNIVERSAL_TIME_OFFSET ( 5, 30, .AHEAD. ) ;
#312 = VERTEX_POINT ( 'NONE', #25 ) ;
#313 = CALENDAR_DATE ( 2026, 24, 8 ) ;
#314 = LINE ( 'NONE', #244, #426 ) ;
#315 = DIRECTION ( 'NONE',  ( -0.000000000000000000, 0.000000000000000000, 1.000000000000000000 ) ) ;
#316 = CARTESIAN_POINT ( 'NONE',  ( -3.999999999999998224, 4.000000000000000888, 30.00000000000000000 ) ) ;
#317 = ORIENTED_EDGE ( 'NONE', *, *, #421, .F. ) ;
#318 = ORIENTED_EDGE ( 'NONE', *, *, #77, .F. ) ;
#319 = CC_DESIGN_DATE_AND_TIME_ASSIGNMENT ( #277, #377, ( #231 ) ) ;
#320 = ORIENTED_EDGE ( 'NONE', *, *, #182, .F. ) ;
#321 = DIRECTION ( 'NONE',  ( 2.168404344971008868E-16, 1.000000000000000000, -0.000000000000000000 ) ) ;
#322 = EDGE_CURVE ( 'NONE', #255, #306, #88, .T. ) ;
#323 = DIRECTION ( 'NONE',  ( 1.000000000000000000, 0.000000000000000000, -0.000000000000000000 ) ) ;
#324 = CIRCLE ( 'NONE', #425, 2.500000000000000000 ) ;
#325 = CARTESIAN_POINT ( 'NONE',  ( 0.000000000000000000, 0.000000000000000000, 30.00000000000000000 ) ) ;
#326 = VECTOR ( 'NONE', #241, 1000.000000000000000 ) ;
#327 = CARTESIAN_POINT ( 'NONE',  ( 2.500000000000000000, 0.000000000000000000, 37.00000000000000000 ) ) ;
#328 = EDGE_CURVE ( 'NONE', #381, #80, #314, .T. ) ;
#329 = EDGE_LOOP ( 'NONE', ( #357, #149, #317, #97 ) ) ;
#330 = DIRECTION ( 'NONE',  ( -1.084202172485504187E-16, -1.000000000000000000, 0.000000000000000000 ) ) ;
#331 = PRODUCT ( 'TesthCover_Default_sldprt', 'TesthCover_Default_sldprt', '', ( #172 ) ) ;
#332 = FACE_OUTER_BOUND ( 'NONE', #183, .T. ) ;
#333 = FACE_OUTER_BOUND ( 'NONE', #283, .T. ) ;
#334 = DIRECTION ( 'NONE',  ( -0.000000000000000000, -0.000000000000000000, -1.000000000000000000 ) ) ;
#335 = DIRECTION ( 'NONE',  ( -1.445602896647339163E-16, 1.000000000000000000, -0.000000000000000000 ) ) ;
#336 = VECTOR ( 'NONE', #68, 1000.000000000000000 ) ;
#337 = CC_DESIGN_APPROVAL ( #285, ( #231 ) ) ;
#338 = FACE_OUTER_BOUND ( 'NONE', #31, .T. ) ;
#339 = DIRECTION ( 'NONE',  ( -1.000000000000000000, 2.168404344971009115E-16, 0.000000000000000000 ) ) ;
#340 = FACE_OUTER_BOUND ( 'NONE', #453, .T. ) ;
#341 = DIRECTION ( 'NONE',  ( 1.000000000000000000, 0.000000000000000000, 0.000000000000000000 ) ) ;
#342 = VERTEX_POINT ( 'NONE', #274 ) ;
#343 = CIRCLE ( 'NONE', #226, 2.500000000000000000 ) ;
#344 = LINE ( 'NONE', #160, #72 ) ;
#345 = CARTESIAN_POINT ( 'NONE',  ( 5.999999999999997335, 6.000000000000000888, 0.000000000000000000 ) ) ;
#346 = EDGE_CURVE ( 'NONE', #360, #173, #238, .T. ) ;
#347 = ORIENTED_EDGE ( 'NONE', *, *, #284, .T. ) ;
#348 = FACE_OUTER_BOUND ( 'NONE', #416, .T. ) ;
#349 = AXIS2_PLACEMENT_3D ( 'NONE', #159, #256, #5 ) ;
#350 = EDGE_LOOP ( 'NONE', ( #213, #179, #318, #65 ) ) ;
#351 = EDGE_CURVE ( 'NONE', #136, #80, #54, .T. ) ;
#352 = ORIENTED_EDGE ( 'NONE', *, *, #272, .F. ) ;
#353 = VECTOR ( 'NONE', #309, 1000.000000000000000 ) ;
#354 = EDGE_CURVE ( 'NONE', #177, #342, #446, .T. ) ;
#355 = ORIENTED_EDGE ( 'NONE', *, *, #176, .T. ) ;
#356 = PLANE ( 'NONE',  #27 ) ;
#357 = ORIENTED_EDGE ( 'NONE', *, *, #308, .T. ) ;
#358 = AXIS2_PLACEMENT_3D ( 'NONE', #300, #28, #405 ) ;
#359 = LINE ( 'NONE', #188, #297 ) ;
#360 = VERTEX_POINT ( 'NONE', #203 ) ;
#361 = CC_DESIGN_DATE_AND_TIME_ASSIGNMENT ( #96, #30, ( #29 ) ) ;
#362 = DIRECTION ( 'NONE',  ( -1.000000000000000000, 2.168404344971008868E-16, -0.000000000000000000 ) ) ;
#363 = CARTESIAN_POINT ( 'NONE',  ( 5.999999999999997335, 6.000000000000000888, 0.000000000000000000 ) ) ;
#364 = LINE ( 'NONE', #305, #104 ) ;
#365 = CARTESIAN_POINT ( 'NONE',  ( 5.999999999999997335, 6.000000000000000888, 37.00000000000000000 ) ) ;
#366 = AXIS2_PLACEMENT_3D ( 'NONE', #50, #419, #8 ) ;
#367 = AXIS2_PLACEMENT_3D ( 'NONE', #292, #339, #223 ) ;
#368 = ADVANCED_FACE ( 'NONE', ( #380 ), #208, .F. ) ;
#369 = CARTESIAN_POINT ( 'NONE',  ( 5.999999999999999112, -5.999999999999999112, 37.00000000000000000 ) ) ;
#370 = CARTESIAN_POINT ( 'NONE',  ( -2.500000000000000000, 3.061616997868383141E-16, -0.001000000000001000089 ) ) ;
#371 = CARTESIAN_POINT ( 'NONE',  ( -3.999999999999998224, 4.000000000000000888, 30.00000000000000000 ) ) ;
#372 = ORIENTED_EDGE ( 'NONE', *, *, #221, .F. ) ;
#373 = CIRCLE ( 'NONE', #366, 2.500000000000000000 ) ;
#374 = CARTESIAN_POINT ( 'NONE',  ( 4.000000000000000000, -4.000000000000000888, 30.00000000000000000 ) ) ;
#375 = DIRECTION ( 'NONE',  ( -1.445602896647339163E-16, 1.000000000000000000, -0.000000000000000000 ) ) ;
#376 = SECURITY_CLASSIFICATION_LEVEL ( 'unclassified' ) ;
#377 = DATE_TIME_ROLE ( 'creation_date' ) ;
#378 = DIRECTION ( 'NONE',  ( -0.000000000000000000, -0.000000000000000000, -1.000000000000000000 ) ) ;
#379 = LINE ( 'NONE', #199, #19 ) ;
#380 = FACE_OUTER_BOUND ( 'NONE', #92, .T. ) ;
#381 = VERTEX_POINT ( 'NONE', #266 ) ;
#382 = ORIENTED_EDGE ( 'NONE', *, *, #351, .T. ) ;
#383 = ADVANCED_FACE ( 'NONE', ( #338 ), #74, .F. ) ;
#384 = AXIS2_PLACEMENT_3D ( 'NONE', #434, #117, #158 ) ;
#385 = CC_DESIGN_APPROVAL ( #402, ( #129 ) ) ;
#386 = ORIENTED_EDGE ( 'NONE', *, *, #328, .F. ) ;
#387 = ORIENTED_EDGE ( 'NONE', *, *, #125, .F. ) ;
#388 = PLANE ( 'NONE',  #40 ) ;
#389 = FACE_OUTER_BOUND ( 'NONE', #189, .T. ) ;
#390 = CC_DESIGN_PERSON_AND_ORGANIZATION_ASSIGNMENT ( #444, #401, ( #231 ) ) ;
#391 = DIRECTION ( 'NONE',  ( -0.000000000000000000, -0.000000000000000000, 1.000000000000000000 ) ) ;
#392 = DIRECTION ( 'NONE',  ( 1.000000000000000000, 0.000000000000000000, 0.000000000000000000 ) ) ;
#393 = CARTESIAN_POINT ( 'NONE',  ( 5.999999999999997335, 6.000000000000000888, 37.00000000000000000 ) ) ;
#394 = FACE_OUTER_BOUND ( 'NONE', #329, .T. ) ;
#395 = EDGE_CURVE ( 'NONE', #94, #228, #432, .T. ) ;
#396 = DIRECTION ( 'NONE',  ( 0.000000000000000000, 0.000000000000000000, 1.000000000000000000 ) ) ;
#397 = LINE ( 'NONE', #147, #443 ) ;
#398 = VECTOR ( 'NONE', #181, 1000.000000000000000 ) ;
#399 = CARTESIAN_POINT ( 'NONE',  ( -3.999999999999998224, 4.000000000000000888, 0.000000000000000000 ) ) ;
#400 = ORIENTED_EDGE ( 'NONE', *, *, #239, .T. ) ;
#401 = PERSON_AND_ORGANIZATION_ROLE ( 'creator' ) ;
#402 = APPROVAL ( #202, 'UNSPECIFIED' ) ;
#403 =( NAMED_UNIT ( * ) SI_UNIT ( $, .STERADIAN. ) SOLID_ANGLE_UNIT ( ) );
#404 = PERSON_AND_ORGANIZATION_ROLE ( 'creator' ) ;
#405 = DIRECTION ( 'NONE',  ( 1.000000000000000000, -2.168404344971009115E-16, 0.000000000000000000 ) ) ;
#406 = CARTESIAN_POINT ( 'NONE',  ( -6.000000000000002665, 6.000000000000000888, 37.00000000000000000 ) ) ;
#407 = COORDINATED_UNIVERSAL_TIME_OFFSET ( 5, 30, .AHEAD. ) ;
#408 = EDGE_CURVE ( 'NONE', #177, #255, #16, .T. ) ;
#409 = ORIENTED_EDGE ( 'NONE', *, *, #421, .T. ) ;
#410 = ORIENTED_EDGE ( 'NONE', *, *, #221, .T. ) ;
#411 = PERSON_AND_ORGANIZATION ( #76, #276 ) ;
#412 = AXIS2_PLACEMENT_3D ( 'NONE', #75, #220, #116 ) ;
#413 = VECTOR ( 'NONE', #378, 1000.000000000000000 ) ;
#414 = ORIENTED_EDGE ( 'NONE', *, *, #430, .F. ) ;
#415 = ADVANCED_FACE ( 'NONE', ( #333 ), #150, .F. ) ;
#416 = EDGE_LOOP ( 'NONE', ( #60, #15, #39, #1 ) ) ;
#417 = ORIENTED_EDGE ( 'NONE', *, *, #354, .F. ) ;
#418 = VECTOR ( 'NONE', #435, 1000.000000000000000 ) ;
#419 = DIRECTION ( 'NONE',  ( 0.000000000000000000, 0.000000000000000000, 1.000000000000000000 ) ) ;
#420 = ORIENTED_EDGE ( 'NONE', *, *, #294, .F. ) ;
#421 = EDGE_CURVE ( 'NONE', #142, #360, #234, .T. ) ;
#422 = CARTESIAN_POINT ( 'NONE',  ( -6.000000000000000888, -5.999999999999999112, 0.000000000000000000 ) ) ;
#423 = LINE ( 'NONE', #289, #71 ) ;
#424 = CARTESIAN_POINT ( 'NONE',  ( -4.000000000000000000, -3.999999999999999112, 0.000000000000000000 ) ) ;
#425 = AXIS2_PLACEMENT_3D ( 'NONE', #225, #429, #81 ) ;
#426 = VECTOR ( 'NONE', #310, 1000.000000000000000 ) ;
#427 = FACE_OUTER_BOUND ( 'NONE', #269, .T. ) ;
#428 = AXIS2_PLACEMENT_3D ( 'NONE', #161, #307, #440 ) ;
#429 = DIRECTION ( 'NONE',  ( 0.000000000000000000, 0.000000000000000000, 1.000000000000000000 ) ) ;
#430 = EDGE_CURVE ( 'NONE', #142, #442, #379, .T. ) ;
#431 = DIRECTION ( 'NONE',  ( 1.000000000000000000, 0.000000000000000000, 0.000000000000000000 ) ) ;
#432 = LINE ( 'NONE', #115, #418 ) ;
#433 = CARTESIAN_POINT ( 'NONE',  ( -4.000000000000000000, -3.999999999999999112, 30.00000000000000000 ) ) ;
#434 = CARTESIAN_POINT ( 'NONE',  ( 4.000000000000000888, 4.000000000000000888, 30.00000000000000000 ) ) ;
#435 = DIRECTION ( 'NONE',  ( -1.084202172485504187E-16, -1.000000000000000000, 0.000000000000000000 ) ) ;
#436 = CARTESIAN_POINT ( 'NONE',  ( 5.999999999999999112, -5.999999999999999112, 37.00000000000000000 ) ) ;
#437 = VECTOR ( 'NONE', #42, 1000.000000000000000 ) ;
#438 = ORIENTED_EDGE ( 'NONE', *, *, #67, .T. ) ;
#439 = DIRECTION ( 'NONE',  ( 1.000000000000000000, 0.000000000000000000, 0.000000000000000000 ) ) ;
#440 = DIRECTION ( 'NONE',  ( 0.000000000000000000, -0.000000000000000000, 1.000000000000000000 ) ) ;
#441 = PLANE ( 'NONE',  #198 ) ;
#442 = VERTEX_POINT ( 'NONE', #207 ) ;
#443 = VECTOR ( 'NONE', #46, 1000.000000000000000 ) ;
#444 = PERSON_AND_ORGANIZATION ( #76, #276 ) ;
#445 = VECTOR ( 'NONE', #107, 1000.000000000000000 ) ;
#446 = LINE ( 'NONE', #406, #90 ) ;
#447 = EDGE_CURVE ( 'NONE', #228, #312, #58, .T. ) ;
#448 = ADVANCED_FACE ( 'NONE', ( #240, #348 ), #441, .F. ) ;
#449 = PERSON_AND_ORGANIZATION ( #76, #276 ) ;
#450 = ORIENTED_EDGE ( 'NONE', *, *, #447, .T. ) ;
#451 = APPROVAL_DATE_TIME ( #137, #402 ) ;
#452 = ORIENTED_EDGE ( 'NONE', *, *, #308, .F. ) ;
#453 = EDGE_LOOP ( 'NONE', ( #410, #103, #280, #438 ) ) ;
ENDSEC;
END-ISO-10303-21;
