ISO-10303-21;
HEADER;
FILE_DESCRIPTION (( 'STEP AP203' ),
    '1' );
FILE_NAME ('wheel_insert_4mm_shaft_sldprt.STEP',
    '2026-08-24T08:56:18',
    ( '' ),
    ( '' ),
    'SwSTEP 2.0',
    'SolidWorks 2020',
    '' );
FILE_SCHEMA (( 'CONFIG_CONTROL_DESIGN' ));
ENDSEC;

DATA;
#1 = DIRECTION ( 'NONE',  ( 0.000000000000000000, 1.000000000000000000, 0.000000000000000000 ) ) ;
#2 = PERSON_AND_ORGANIZATION ( #436, #19 ) ;
#3 = AXIS2_PLACEMENT_3D ( 'NONE', #275, #382, #137 ) ;
#4 = VERTEX_POINT ( 'NONE', #320 ) ;
#5 = DIRECTION ( 'NONE',  ( 0.000000000000000000, -0.000000000000000000, 1.000000000000000000 ) ) ;
#6 = CARTESIAN_POINT ( 'NONE',  ( -5.000000000000000888, -3.717264591378874669E-16, 6.000000000000000000 ) ) ;
#7 = DIRECTION ( 'NONE',  ( 1.000000000000000000, 0.000000000000000000, -0.000000000000000000 ) ) ;
#8 = EDGE_CURVE ( 'NONE', #208, #18, #109, .T. ) ;
#9 = LINE ( 'NONE', #356, #263 ) ;
#10 = VECTOR ( 'NONE', #55, 1000.000000000000227 ) ;
#11 = DIRECTION ( 'NONE',  ( -0.8660254037844385966, -0.5000000000000003331, 0.000000000000000000 ) ) ;
#12 = VECTOR ( 'NONE', #325, 1000.000000000000000 ) ;
#13 = DIRECTION ( 'NONE',  ( -0.000000000000000000, -0.000000000000000000, -1.000000000000000000 ) ) ;
#14 = PLANE ( 'NONE',  #70 ) ;
#15 = LINE ( 'NONE', #108, #342 ) ;
#16 = FACE_OUTER_BOUND ( 'NONE', #182, .T. ) ;
#17 = FACE_OUTER_BOUND ( 'NONE', #122, .T. ) ;
#18 = VERTEX_POINT ( 'NONE', #151 ) ;
#19 = ORGANIZATION ( 'UNSPECIFIED', 'UNSPECIFIED', '' ) ;
#20 = CIRCLE ( 'NONE', #76, 4.000000000000000000 ) ;
#21 = CARTESIAN_POINT ( 'NONE',  ( 0.000000000000000000, 0.000000000000000000, -12.00000000000000000 ) ) ;
#22 = CIRCLE ( 'NONE', #59, 4.000000000000000000 ) ;
#23 = DIRECTION ( 'NONE',  ( -0.5000000000000000000, -0.8660254037844385966, 0.000000000000000000 ) ) ;
#24 = VERTEX_POINT ( 'NONE', #107 ) ;
#25 = FACE_OUTER_BOUND ( 'NONE', #173, .T. ) ;
#26 = ADVANCED_FACE ( 'NONE', ( #423 ), #217, .T. ) ;
#27 = CARTESIAN_POINT ( 'NONE',  ( 0.000000000000000000, 0.000000000000000000, -12.00000000000000000 ) ) ;
#28 = EDGE_LOOP ( 'NONE', ( #167, #238, #390, #312 ) ) ;
#29 = APPROVAL_STATUS ( 'not_yet_approved' ) ;
#30 = EDGE_CURVE ( 'NONE', #311, #235, #9, .T. ) ;
#31 = CC_DESIGN_PERSON_AND_ORGANIZATION_ASSIGNMENT ( #346, #313, ( #328 ) ) ;
#32 = ORIENTED_EDGE ( 'NONE', *, *, #309, .T. ) ;
#33 = APPROVAL_ROLE ( '' ) ;
#34 = VECTOR ( 'NONE', #23, 1000.000000000000227 ) ;
#35 = ORIENTED_EDGE ( 'NONE', *, *, #285, .T. ) ;
#36 = APPLICATION_CONTEXT ( 'configuration controlled 3d designs of mechanical parts and assemblies' ) ;
#37 = AXIS2_PLACEMENT_3D ( 'NONE', #252, #364, #78 ) ;
#38 = PERSON_AND_ORGANIZATION ( #436, #19 ) ;
#39 = DIRECTION ( 'NONE',  ( -0.000000000000000000, -0.000000000000000000, -1.000000000000000000 ) ) ;
#40 = VECTOR ( 'NONE', #333, 1000.000000000000000 ) ;
#41 = DIRECTION ( 'NONE',  ( -0.000000000000000000, -0.000000000000000000, -1.000000000000000000 ) ) ;
#42 = EDGE_CURVE ( 'NONE', #129, #57, #421, .T. ) ;
#43 = LINE ( 'NONE', #326, #276 ) ;
#44 = AXIS2_PLACEMENT_3D ( 'NONE', #330, #116, #186 ) ;
#45 = ORIENTED_EDGE ( 'NONE', *, *, #401, .F. ) ;
#46 = LINE ( 'NONE', #293, #218 ) ;
#47 = DIRECTION ( 'NONE',  ( -0.000000000000000000, -0.000000000000000000, 1.000000000000000000 ) ) ;
#48 = CARTESIAN_POINT ( 'NONE',  ( 0.000000000000000000, 0.000000000000000000, 6.000000000000000000 ) ) ;
#49 = CLOSED_SHELL ( 'NONE', ( #393, #439, #435, #251, #450, #189, #240, #106, #237, #134, #26, #272, #121 ) ) ;
#50 = PLANE ( 'NONE',  #454 ) ;
#51 = LINE ( 'NONE', #187, #440 ) ;
#52 = VECTOR ( 'NONE', #39, 1000.000000000000000 ) ;
#53 = ORIENTED_EDGE ( 'NONE', *, *, #42, .T. ) ;
#54 = ORIENTED_EDGE ( 'NONE', *, *, #42, .F. ) ;
#55 = DIRECTION ( 'NONE',  ( -0.5000000000000000000, -0.8660254037844385966, 0.000000000000000000 ) ) ;
#56 = EDGE_CURVE ( 'NONE', #100, #444, #256, .T. ) ;
#57 = VERTEX_POINT ( 'NONE', #71 ) ;
#58 = LINE ( 'NONE', #445, #90 ) ;
#59 = AXIS2_PLACEMENT_3D ( 'NONE', #287, #112, #221 ) ;
#60 = CARTESIAN_POINT ( 'NONE',  ( -5.000000000000000888, -3.717264591378874669E-16, 0.000000000000000000 ) ) ;
#61 = DIRECTION ( 'NONE',  ( -1.000000000000000000, 0.000000000000000000, 0.000000000000000000 ) ) ;
#62 = EDGE_CURVE ( 'NONE', #208, #413, #20, .T. ) ;
#63 = ORIENTED_EDGE ( 'NONE', *, *, #381, .T. ) ;
#64 = DATE_TIME_ROLE ( 'classification_date' ) ;
#65 = ORIENTED_EDGE ( 'NONE', *, *, #401, .T. ) ;
#66 = APPROVAL_ROLE ( '' ) ;
#67 = LOCAL_TIME ( 14, 26, 18.00000000000000000, #280 ) ;
#68 = ORIENTED_EDGE ( 'NONE', *, *, #144, .F. ) ;
#69 = PERSON_AND_ORGANIZATION ( #436, #19 ) ;
#70 = AXIS2_PLACEMENT_3D ( 'NONE', #358, #11, #156 ) ;
#71 = CARTESIAN_POINT ( 'NONE',  ( -2.500000000000001332, 4.330127018922192761, 0.000000000000000000 ) ) ;
#72 = DIRECTION ( 'NONE',  ( 0.000000000000000000, 0.000000000000000000, -1.000000000000000000 ) ) ;
#73 = EDGE_CURVE ( 'NONE', #413, #266, #259, .T. ) ;
#74 = DIRECTION ( 'NONE',  ( 1.000000000000000000, 0.000000000000000000, 0.000000000000000000 ) ) ;
#75 = EDGE_CURVE ( 'NONE', #444, #274, #327, .T. ) ;
#76 = AXIS2_PLACEMENT_3D ( 'NONE', #220, #72, #425 ) ;
#77 = ORIENTED_EDGE ( 'NONE', *, *, #292, .F. ) ;
#78 = DIRECTION ( 'NONE',  ( -0.5000000000000003331, 0.8660254037844384856, 0.000000000000000000 ) ) ;
#79 = DIRECTION ( 'NONE',  ( 0.5000000000000002220, -0.8660254037844384856, 0.000000000000000000 ) ) ;
#80 = AXIS2_PLACEMENT_3D ( 'NONE', #21, #265, #302 ) ;
#81 = DIRECTION ( 'NONE',  ( -0.000000000000000000, -0.000000000000000000, -1.000000000000000000 ) ) ;
#82 = PRODUCT ( 'wheel_insert_4mm_shaft_sldprt', 'wheel_insert_4mm_shaft_sldprt', '', ( #242 ) ) ;
#83 = CARTESIAN_POINT ( 'NONE',  ( -5.000000000000000888, -3.717264591378874669E-16, 6.000000000000000000 ) ) ;
#84 = DIRECTION ( 'NONE',  ( -1.000000000000000000, 0.000000000000000000, -0.000000000000000000 ) ) ;
#85 = FACE_BOUND ( 'NONE', #306, .T. ) ;
#86 = ORIENTED_EDGE ( 'NONE', *, *, #89, .T. ) ;
#87 = DIRECTION ( 'NONE',  ( -1.000000000000000000, 0.000000000000000000, 0.000000000000000000 ) ) ;
#88 = VERTEX_POINT ( 'NONE', #155 ) ;
#89 = EDGE_CURVE ( 'NONE', #273, #418, #290, .T. ) ;
#90 = VECTOR ( 'NONE', #197, 1000.000000000000114 ) ;
#91 = ORIENTED_EDGE ( 'NONE', *, *, #144, .T. ) ;
#92 = CARTESIAN_POINT ( 'NONE',  ( 2.499999999999999112, -4.330127018922193649, 6.000000000000000000 ) ) ;
#93 = ORIENTED_EDGE ( 'NONE', *, *, #172, .F. ) ;
#94 = CARTESIAN_POINT ( 'NONE',  ( -2.500000000000001332, 4.330127018922192761, 6.000000000000000000 ) ) ;
#95 = ORIENTED_EDGE ( 'NONE', *, *, #360, .T. ) ;
#96 = ORIENTED_EDGE ( 'NONE', *, *, #62, .T. ) ;
#97 = APPROVAL_DATE_TIME ( #243, #368 ) ;
#98 = EDGE_LOOP ( 'NONE', ( #394, #102 ) ) ;
#99 = CC_DESIGN_DATE_AND_TIME_ASSIGNMENT ( #377, #64, ( #299 ) ) ;
#100 = VERTEX_POINT ( 'NONE', #222 ) ;
#101 = COORDINATED_UNIVERSAL_TIME_OFFSET ( 5, 30, .AHEAD. ) ;
#102 = ORIENTED_EDGE ( 'NONE', *, *, #381, .F. ) ;
#103 = ORIENTED_EDGE ( 'NONE', *, *, #417, .T. ) ;
#104 = CC_DESIGN_APPROVAL ( #368, ( #328 ) ) ;
#105 = CALENDAR_DATE ( 2026, 24, 8 ) ;
#106 = ADVANCED_FACE ( 'NONE', ( #363 ), #50, .F. ) ;
#107 = CARTESIAN_POINT ( 'NONE',  ( 2.499999999999996447, 4.330127018922193649, 0.000000000000000000 ) ) ;
#108 = CARTESIAN_POINT ( 'NONE',  ( 2.499999999999999112, -4.330127018922193649, 0.000000000000000000 ) ) ;
#109 = LINE ( 'NONE', #432, #12 ) ;
#110 = LINE ( 'NONE', #262, #433 ) ;
#111 = ORIENTED_EDGE ( 'NONE', *, *, #128, .F. ) ;
#112 = DIRECTION ( 'NONE',  ( 0.000000000000000000, 0.000000000000000000, -1.000000000000000000 ) ) ;
#113 = CIRCLE ( 'NONE', #374, 2.000000000000000000 ) ;
#114 = DIRECTION ( 'NONE',  ( 1.000000000000000000, 0.000000000000000000, 0.000000000000000000 ) ) ;
#115 = PLANE ( 'NONE',  #37 ) ;
#116 = DIRECTION ( 'NONE',  ( 0.000000000000000000, -0.000000000000000000, 1.000000000000000000 ) ) ;
#117 = DIRECTION ( 'NONE',  ( 0.000000000000000000, 0.000000000000000000, -1.000000000000000000 ) ) ;
#118 = EDGE_CURVE ( 'NONE', #418, #24, #142, .T. ) ;
#119 = ORIENTED_EDGE ( 'NONE', *, *, #360, .F. ) ;
#120 = CARTESIAN_POINT ( 'NONE',  ( 0.000000000000000000, 0.000000000000000000, -12.00000000000000000 ) ) ;
#121 = ADVANCED_FACE ( 'NONE', ( #177 ), #146, .F. ) ;
#122 = EDGE_LOOP ( 'NONE', ( #91, #93, #354, #277 ) ) ;
#123 = ORIENTED_EDGE ( 'NONE', *, *, #213, .F. ) ;
#124 = CARTESIAN_POINT ( 'NONE',  ( 2.499999999999996447, 4.330127018922193649, 6.000000000000000000 ) ) ;
#125 = DESIGN_CONTEXT ( 'detailed design', #347, 'design' ) ;
#126 = ORIENTED_EDGE ( 'NONE', *, *, #285, .F. ) ;
#127 = CYLINDRICAL_SURFACE ( 'NONE', #80, 4.000000000000000000 ) ;
#128 = EDGE_CURVE ( 'NONE', #100, #316, #323, .T. ) ;
#129 = VERTEX_POINT ( 'NONE', #286 ) ;
#130 = DIRECTION ( 'NONE',  ( -1.000000000000000000, 0.000000000000000000, 0.000000000000000000 ) ) ;
#131 = EDGE_LOOP ( 'NONE', ( #279, #420, #202, #103 ) ) ;
#132 = PERSON_AND_ORGANIZATION_ROLE ( 'creator' ) ;
#133 = DATE_AND_TIME ( #453, #315 ) ;
#134 = ADVANCED_FACE ( 'NONE', ( #157, #294 ), #437, .F. ) ;
#135 = VECTOR ( 'NONE', #184, 1000.000000000000000 ) ;
#136 = ORIENTED_EDGE ( 'NONE', *, *, #334, .F. ) ;
#137 = DIRECTION ( 'NONE',  ( 1.000000000000000000, 0.000000000000000000, 0.000000000000000000 ) ) ;
#138 = AXIS2_PLACEMENT_3D ( 'NONE', #124, #231, #406 ) ;
#139 = ORIENTED_EDGE ( 'NONE', *, *, #334, .T. ) ;
#140 = APPROVAL_ROLE ( '' ) ;
#141 = AXIS2_PLACEMENT_3D ( 'NONE', #289, #398, #84 ) ;
#142 = LINE ( 'NONE', #248, #52 ) ;
#143 = DATE_AND_TIME ( #278, #67 ) ;
#144 = EDGE_CURVE ( 'NONE', #235, #199, #15, .T. ) ;
#145 = EDGE_CURVE ( 'NONE', #444, #311, #46, .T. ) ;
#146 = CYLINDRICAL_SURFACE ( 'NONE', #357, 2.000000000000000000 ) ;
#147 = CARTESIAN_POINT ( 'NONE',  ( -4.000000000000000000, 4.898587196589412829E-16, 0.000000000000000000 ) ) ;
#148 = AXIS2_PLACEMENT_3D ( 'NONE', #365, #322, #324 ) ;
#149 = DIRECTION ( 'NONE',  ( -0.000000000000000000, -0.000000000000000000, -1.000000000000000000 ) ) ;
#150 = FACE_OUTER_BOUND ( 'NONE', #405, .T. ) ;
#151 = CARTESIAN_POINT ( 'NONE',  ( 4.000000000000000000, 0.000000000000000000, 0.000000000000000000 ) ) ;
#152 = DATE_AND_TIME ( #211, #431 ) ;
#153 = CIRCLE ( 'NONE', #175, 2.000000000000000000 ) ;
#154 = LINE ( 'NONE', #434, #369 ) ;
#155 = CARTESIAN_POINT ( 'NONE',  ( 2.000000000000000000, 2.449293598294706414E-16, 6.000000000000000000 ) ) ;
#156 = DIRECTION ( 'NONE',  ( 0.5000000000000002220, -0.8660254037844384856, 0.000000000000000000 ) ) ;
#157 = FACE_BOUND ( 'NONE', #98, .T. ) ;
#158 = CARTESIAN_POINT ( 'NONE',  ( 0.000000000000000000, 0.000000000000000000, 6.000000000000000000 ) ) ;
#159 = FACE_OUTER_BOUND ( 'NONE', #225, .T. ) ;
#160 = EDGE_CURVE ( 'NONE', #413, #208, #22, .T. ) ;
#161 = ORIENTED_EDGE ( 'NONE', *, *, #254, .T. ) ;
#162 = LINE ( 'NONE', #267, #427 ) ;
#163 = ORIENTED_EDGE ( 'NONE', *, *, #73, .T. ) ;
#164 = AXIS2_PLACEMENT_3D ( 'NONE', #92, #226, #412 ) ;
#165 = CARTESIAN_POINT ( 'NONE',  ( -2.000000000000000000, 0.000000000000000000, -12.00000000000000000 ) ) ;
#166 = LINE ( 'NONE', #94, #10 ) ;
#167 = ORIENTED_EDGE ( 'NONE', *, *, #73, .F. ) ;
#168 = DIRECTION ( 'NONE',  ( 0.000000000000000000, 0.000000000000000000, -1.000000000000000000 ) ) ;
#169 = EDGE_LOOP ( 'NONE', ( #250, #170, #303, #407 ) ) ;
#170 = ORIENTED_EDGE ( 'NONE', *, *, #75, .F. ) ;
#171 = APPROVAL_STATUS ( 'not_yet_approved' ) ;
#172 = EDGE_CURVE ( 'NONE', #273, #199, #43, .T. ) ;
#173 = EDGE_LOOP ( 'NONE', ( #230, #387, #65, #123 ) ) ;
#174 = ORIENTED_EDGE ( 'NONE', *, *, #172, .T. ) ;
#175 = AXIS2_PLACEMENT_3D ( 'NONE', #27, #408, #443 ) ;
#176 = ORIENTED_EDGE ( 'NONE', *, *, #30, .F. ) ;
#177 = FACE_OUTER_BOUND ( 'NONE', #131, .T. ) ;
#178 = CARTESIAN_POINT ( 'NONE',  ( 4.000000000000000000, 0.000000000000000000, -12.00000000000000000 ) ) ;
#179 = DIRECTION ( 'NONE',  ( -1.000000000000000000, 0.000000000000000000, 0.000000000000000000 ) ) ;
#180 = PLANE ( 'NONE',  #141 ) ;
#181 = VECTOR ( 'NONE', #13, 1000.000000000000000 ) ;
#182 = EDGE_LOOP ( 'NONE', ( #32, #111, #119, #53 ) ) ;
#183 = DIRECTION ( 'NONE',  ( -1.000000000000000000, 0.000000000000000000, 0.000000000000000000 ) ) ;
#184 = DIRECTION ( 'NONE',  ( -0.000000000000000000, -0.000000000000000000, 1.000000000000000000 ) ) ;
#185 = PLANE ( 'NONE',  #148 ) ;
#186 = DIRECTION ( 'NONE',  ( 1.000000000000000000, 0.000000000000000000, -0.000000000000000000 ) ) ;
#187 = CARTESIAN_POINT ( 'NONE',  ( -2.499999999999999556, -4.330127018922193649, 0.000000000000000000 ) ) ;
#188 = CIRCLE ( 'NONE', #395, 4.000000000000000000 ) ;
#189 = ADVANCED_FACE ( 'NONE', ( #16 ), #185, .F. ) ;
#190 = PLANE ( 'NONE',  #138 ) ;
#191 = ORIENTED_EDGE ( 'NONE', *, *, #118, .F. ) ;
#192 = PLANE ( 'NONE',  #164 ) ;
#193 = CARTESIAN_POINT ( 'NONE',  ( 2.499999999999996447, 4.330127018922193649, 6.000000000000000000 ) ) ;
#194 = LOCAL_TIME ( 14, 26, 18.00000000000000000, #319 ) ;
#195 = DIRECTION ( 'NONE',  ( -0.000000000000000000, -0.000000000000000000, -1.000000000000000000 ) ) ;
#196 = ORIENTED_EDGE ( 'NONE', *, *, #203, .F. ) ;
#197 = DIRECTION ( 'NONE',  ( -0.5000000000000002220, 0.8660254037844384856, 0.000000000000000000 ) ) ;
#198 = UNCERTAINTY_MEASURE_WITH_UNIT (LENGTH_MEASURE( 1.000000000000000082E-05 ), #373, 'distance_accuracy_value', 'NONE');
#199 = VERTEX_POINT ( 'NONE', #389 ) ;
#200 = EDGE_CURVE ( 'NONE', #18, #266, #188, .T. ) ;
#201 = PERSON_AND_ORGANIZATION ( #436, #19 ) ;
#202 = ORIENTED_EDGE ( 'NONE', *, *, #213, .T. ) ;
#203 = EDGE_CURVE ( 'NONE', #4, #88, #113, .T. ) ;
#204 = APPLICATION_PROTOCOL_DEFINITION ( 'international standard', 'config_control_design', 1994, #347 ) ;
#205 = ORIENTED_EDGE ( 'NONE', *, *, #145, .F. ) ;
#206 = CC_DESIGN_APPROVAL ( #403, ( #244 ) ) ;
#207 = LOCAL_TIME ( 14, 26, 18.00000000000000000, #101 ) ;
#208 = VERTEX_POINT ( 'NONE', #178 ) ;
#209 = PERSON_AND_ORGANIZATION_ROLE ( 'classification_officer' ) ;
#210 = CARTESIAN_POINT ( 'NONE',  ( -2.499999999999999556, -4.330127018922193649, 6.000000000000000000 ) ) ;
#211 = CALENDAR_DATE ( 2026, 24, 8 ) ;
#212 = CARTESIAN_POINT ( 'NONE',  ( 0.000000000000000000, 0.000000000000000000, 5.656854249492380582 ) ) ;
#213 = EDGE_CURVE ( 'NONE', #4, #380, #110, .T. ) ;
#214 = VECTOR ( 'NONE', #429, 1000.000000000000000 ) ;
#215 = DIRECTION ( 'NONE',  ( -0.000000000000000000, -0.000000000000000000, -1.000000000000000000 ) ) ;
#216 = EDGE_CURVE ( 'NONE', #88, #410, #261, .T. ) ;
#217 = CYLINDRICAL_SURFACE ( 'NONE', #416, 4.000000000000000000 ) ;
#218 = VECTOR ( 'NONE', #74, 1000.000000000000000 ) ;
#219 = DIRECTION ( 'NONE',  ( 0.000000000000000000, 0.000000000000000000, 1.000000000000000000 ) ) ;
#220 = CARTESIAN_POINT ( 'NONE',  ( 0.000000000000000000, 0.000000000000000000, -12.00000000000000000 ) ) ;
#221 = DIRECTION ( 'NONE',  ( -1.000000000000000000, 0.000000000000000000, 0.000000000000000000 ) ) ;
#222 = CARTESIAN_POINT ( 'NONE',  ( -5.000000000000000888, -3.717264591378874669E-16, 6.000000000000000000 ) ) ;
#223 = CARTESIAN_POINT ( 'NONE',  ( -2.499999999999999556, -4.330127018922193649, 0.000000000000000000 ) ) ;
#224 = FACE_OUTER_BOUND ( 'NONE', #455, .T. ) ;
#225 = EDGE_LOOP ( 'NONE', ( #384, #163, #63, #268 ) ) ;
#226 = DIRECTION ( 'NONE',  ( -0.8660254037844384856, 0.5000000000000003331, 0.000000000000000000 ) ) ;
#227 = EDGE_LOOP ( 'NONE', ( #35, #176, #205, #378 ) ) ;
#228 = CARTESIAN_POINT ( 'NONE',  ( 2.000000000000000000, 2.449293598294706414E-16, -12.00000000000000000 ) ) ;
#229 = CC_DESIGN_PERSON_AND_ORGANIZATION_ASSIGNMENT ( #341, #456, ( #82 ) ) ;
#230 = ORIENTED_EDGE ( 'NONE', *, *, #203, .T. ) ;
#231 = DIRECTION ( 'NONE',  ( 1.734723475976807834E-16, -1.000000000000000000, 0.000000000000000000 ) ) ;
#232 = CC_DESIGN_APPROVAL ( #352, ( #299 ) ) ;
#233 = AXIS2_PLACEMENT_3D ( 'NONE', #48, #5, #7 ) ;
#234 = CARTESIAN_POINT ( 'NONE',  ( 0.000000000000000000, 0.000000000000000000, 0.000000000000000000 ) ) ;
#235 = VERTEX_POINT ( 'NONE', #255 ) ;
#236 = LINE ( 'NONE', #269, #34 ) ;
#237 = ADVANCED_FACE ( 'NONE', ( #85, #224 ), #258, .T. ) ;
#238 = ORIENTED_EDGE ( 'NONE', *, *, #62, .F. ) ;
#239 = PERSON_AND_ORGANIZATION_ROLE ( 'design_supplier' ) ;
#240 = ADVANCED_FACE ( 'NONE', ( #329 ), #115, .F. ) ;
#241 = ORIENTED_EDGE ( 'NONE', *, *, #301, .F. ) ;
#242 = MECHANICAL_CONTEXT ( 'NONE', #36, 'mechanical' ) ;
#243 = DATE_AND_TIME ( #105, #207 ) ;
#244 = PRODUCT_DEFINITION ( 'UNKNOWN', '', #328, #125 ) ;
#245 = ORIENTED_EDGE ( 'NONE', *, *, #417, .F. ) ;
#246 = VECTOR ( 'NONE', #79, 1000.000000000000227 ) ;
#247 = APPROVAL_DATE_TIME ( #133, #403 ) ;
#248 = CARTESIAN_POINT ( 'NONE',  ( 2.499999999999996447, 4.330127018922193649, 6.000000000000000000 ) ) ;
#249 = VECTOR ( 'NONE', #318, 1000.000000000000114 ) ;
#250 = ORIENTED_EDGE ( 'NONE', *, *, #301, .T. ) ;
#251 = ADVANCED_FACE ( 'NONE', ( #150 ), #14, .F. ) ;
#252 = CARTESIAN_POINT ( 'NONE',  ( -5.000000000000000888, -3.717264591378874669E-16, 6.000000000000000000 ) ) ;
#253 = ORIENTED_EDGE ( 'NONE', *, *, #56, .T. ) ;
#254 = EDGE_CURVE ( 'NONE', #311, #273, #154, .T. ) ;
#255 = CARTESIAN_POINT ( 'NONE',  ( 2.499999999999999112, -4.330127018922193649, 0.000000000000000000 ) ) ;
#256 = LINE ( 'NONE', #83, #246 ) ;
#257 = APPROVAL_PERSON_ORGANIZATION ( #201, #352, #66 ) ;
#258 = PLANE ( 'NONE',  #233 ) ;
#259 = LINE ( 'NONE', #359, #135 ) ;
#260 = PRODUCT_DEFINITION_SHAPE ( 'NONE', 'NONE',  #244 ) ;
#261 = LINE ( 'NONE', #400, #310 ) ;
#262 = CARTESIAN_POINT ( 'NONE',  ( -2.000000000000000000, 0.000000000000000000, 5.656854249492380582 ) ) ;
#263 = VECTOR ( 'NONE', #288, 1000.000000000000000 ) ;
#264 = DIRECTION ( 'NONE',  ( -1.000000000000000000, -1.734723475976808080E-16, 0.000000000000000000 ) ) ;
#265 = DIRECTION ( 'NONE',  ( -0.000000000000000000, -0.000000000000000000, 1.000000000000000000 ) ) ;
#266 = VERTEX_POINT ( 'NONE', #147 ) ;
#267 = CARTESIAN_POINT ( 'NONE',  ( -5.000000000000000888, -3.717264591378874669E-16, 0.000000000000000000 ) ) ;
#268 = ORIENTED_EDGE ( 'NONE', *, *, #8, .F. ) ;
#269 = CARTESIAN_POINT ( 'NONE',  ( -2.500000000000001332, 4.330127018922192761, 0.000000000000000000 ) ) ;
#270 = ORIENTED_EDGE ( 'NONE', *, *, #321, .T. ) ;
#271 = CARTESIAN_POINT ( 'NONE',  ( 2.499999999999999112, -4.330127018922193649, 6.000000000000000000 ) ) ;
#272 = ADVANCED_FACE ( 'NONE', ( #284, #355 ), #180, .T. ) ;
#273 = VERTEX_POINT ( 'NONE', #430 ) ;
#274 = VERTEX_POINT ( 'NONE', #223 ) ;
#275 = CARTESIAN_POINT ( 'NONE',  ( 0.000000000000000000, 0.000000000000000000, 0.000000000000000000 ) ) ;
#276 = VECTOR ( 'NONE', #81, 1000.000000000000000 ) ;
#277 = ORIENTED_EDGE ( 'NONE', *, *, #30, .T. ) ;
#278 = CALENDAR_DATE ( 2026, 24, 8 ) ;
#279 = ORIENTED_EDGE ( 'NONE', *, *, #216, .F. ) ;
#280 = COORDINATED_UNIVERSAL_TIME_OFFSET ( 5, 30, .AHEAD. ) ;
#281 = CARTESIAN_POINT ( 'NONE',  ( -2.500000000000001332, 4.330127018922192761, 6.000000000000000000 ) ) ;
#282 = DATE_TIME_ROLE ( 'creation_date' ) ;
#283 = CARTESIAN_POINT ( 'NONE',  ( -2.499999999999999556, -4.330127018922193649, 6.000000000000000000 ) ) ;
#284 = FACE_BOUND ( 'NONE', #402, .T. ) ;
#285 = EDGE_CURVE ( 'NONE', #274, #235, #51, .T. ) ;
#286 = CARTESIAN_POINT ( 'NONE',  ( -2.500000000000001332, 4.330127018922192761, 6.000000000000000000 ) ) ;
#287 = CARTESIAN_POINT ( 'NONE',  ( 0.000000000000000000, 0.000000000000000000, -12.00000000000000000 ) ) ;
#288 = DIRECTION ( 'NONE',  ( -0.000000000000000000, -0.000000000000000000, -1.000000000000000000 ) ) ;
#289 = CARTESIAN_POINT ( 'NONE',  ( 0.000000000000000000, 0.000000000000000000, -12.00000000000000000 ) ) ;
#290 = LINE ( 'NONE', #397, #249 ) ;
#291 = SHAPE_DEFINITION_REPRESENTATION ( #260, #372 ) ;
#292 = EDGE_CURVE ( 'NONE', #88, #4, #414, .T. ) ;
#293 = CARTESIAN_POINT ( 'NONE',  ( -2.499999999999999556, -4.330127018922193649, 6.000000000000000000 ) ) ;
#294 = FACE_OUTER_BOUND ( 'NONE', #337, .T. ) ;
#295 = DIRECTION ( 'NONE',  ( 0.000000000000000000, 0.000000000000000000, 1.000000000000000000 ) ) ;
#296 = AXIS2_PLACEMENT_3D ( 'NONE', #367, #195, #87 ) ;
#297 = ORIENTED_EDGE ( 'NONE', *, *, #160, .T. ) ;
#298 = LINE ( 'NONE', #335, #314 ) ;
#299 = SECURITY_CLASSIFICATION ( '', '', #385 ) ;
#300 = EDGE_LOOP ( 'NONE', ( #343, #54, #411, #348 ) ) ;
#301 = EDGE_CURVE ( 'NONE', #316, #274, #162, .T. ) ;
#302 = DIRECTION ( 'NONE',  ( 1.000000000000000000, 0.000000000000000000, 0.000000000000000000 ) ) ;
#303 = ORIENTED_EDGE ( 'NONE', *, *, #56, .F. ) ;
#304 = CC_DESIGN_SECURITY_CLASSIFICATION ( #299, ( #328 ) ) ;
#305 = FACE_OUTER_BOUND ( 'NONE', #300, .T. ) ;
#306 = EDGE_LOOP ( 'NONE', ( #196, #77 ) ) ;
#307 = CARTESIAN_POINT ( 'NONE',  ( -4.000000000000000000, 4.898587196589412829E-16, -12.00000000000000000 ) ) ;
#308 = DIRECTION ( 'NONE',  ( 0.5000000000000002220, -0.8660254037844384856, 0.000000000000000000 ) ) ;
#309 = EDGE_CURVE ( 'NONE', #57, #316, #236, .T. ) ;
#310 = VECTOR ( 'NONE', #392, 1000.000000000000000 ) ;
#311 = VERTEX_POINT ( 'NONE', #271 ) ;
#312 = ORIENTED_EDGE ( 'NONE', *, *, #200, .T. ) ;
#313 = PERSON_AND_ORGANIZATION_ROLE ( 'creator' ) ;
#314 = VECTOR ( 'NONE', #264, 1000.000000000000000 ) ;
#315 = LOCAL_TIME ( 14, 26, 18.00000000000000000, #317 ) ;
#316 = VERTEX_POINT ( 'NONE', #60 ) ;
#317 = COORDINATED_UNIVERSAL_TIME_OFFSET ( 5, 30, .AHEAD. ) ;
#318 = DIRECTION ( 'NONE',  ( -0.5000000000000002220, 0.8660254037844384856, 0.000000000000000000 ) ) ;
#319 = COORDINATED_UNIVERSAL_TIME_OFFSET ( 5, 30, .AHEAD. ) ;
#320 = CARTESIAN_POINT ( 'NONE',  ( -2.000000000000000000, 0.000000000000000000, 6.000000000000000000 ) ) ;
#321 = EDGE_CURVE ( 'NONE', #418, #129, #298, .T. ) ;
#322 = DIRECTION ( 'NONE',  ( 0.8660254037844387076, -0.5000000000000001110, 0.000000000000000000 ) ) ;
#323 = LINE ( 'NONE', #6, #386 ) ;
#324 = DIRECTION ( 'NONE',  ( 0.5000000000000000000, 0.8660254037844385966, 0.000000000000000000 ) ) ;
#325 = DIRECTION ( 'NONE',  ( -0.000000000000000000, -0.000000000000000000, 1.000000000000000000 ) ) ;
#326 = CARTESIAN_POINT ( 'NONE',  ( 4.999999999999999112, -2.230358754827323125E-15, 6.000000000000000000 ) ) ;
#327 = LINE ( 'NONE', #210, #181 ) ;
#328 = PRODUCT_DEFINITION_FORMATION_WITH_SPECIFIED_SOURCE ( 'ANY', '', #82, .NOT_KNOWN. ) ;
#329 = FACE_OUTER_BOUND ( 'NONE', #169, .T. ) ;
#330 = CARTESIAN_POINT ( 'NONE',  ( 0.000000000000000000, 0.000000000000000000, 0.000000000000000000 ) ) ;
#331 = DIRECTION ( 'NONE',  ( 1.000000000000000000, 0.000000000000000000, 0.000000000000000000 ) ) ;
#332 =( GEOMETRIC_REPRESENTATION_CONTEXT ( 3 ) GLOBAL_UNCERTAINTY_ASSIGNED_CONTEXT ( ( #198 ) ) GLOBAL_UNIT_ASSIGNED_CONTEXT ( ( #373, #338, #344 ) ) REPRESENTATION_CONTEXT ( 'NONE', 'WORKASPACE' ) );
#333 = DIRECTION ( 'NONE',  ( -1.000000000000000000, -1.734723475976808080E-16, 0.000000000000000000 ) ) ;
#334 = EDGE_CURVE ( 'NONE', #199, #24, #58, .T. ) ;
#335 = CARTESIAN_POINT ( 'NONE',  ( 2.499999999999996447, 4.330127018922193649, 6.000000000000000000 ) ) ;
#336 = DIRECTION ( 'NONE',  ( 1.000000000000000000, 0.000000000000000000, 0.000000000000000000 ) ) ;
#337 = EDGE_LOOP ( 'NONE', ( #68, #126, #241, #340, #448, #136 ) ) ;
#338 =( NAMED_UNIT ( * ) PLANE_ANGLE_UNIT ( ) SI_UNIT ( $, .RADIAN. ) );
#339 = PRODUCT_RELATED_PRODUCT_CATEGORY ( 'detail', '', ( #82 ) ) ;
#340 = ORIENTED_EDGE ( 'NONE', *, *, #309, .F. ) ;
#341 = PERSON_AND_ORGANIZATION ( #436, #19 ) ;
#342 = VECTOR ( 'NONE', #396, 1000.000000000000114 ) ;
#343 = ORIENTED_EDGE ( 'NONE', *, *, #366, .T. ) ;
#344 =( NAMED_UNIT ( * ) SI_UNIT ( $, .STERADIAN. ) SOLID_ANGLE_UNIT ( ) );
#345 = CC_DESIGN_DATE_AND_TIME_ASSIGNMENT ( #143, #282, ( #244 ) ) ;
#346 = PERSON_AND_ORGANIZATION ( #436, #19 ) ;
#347 = APPLICATION_CONTEXT ( 'configuration controlled 3d designs of mechanical parts and assemblies' ) ;
#348 = ORIENTED_EDGE ( 'NONE', *, *, #118, .T. ) ;
#349 = PERSON_AND_ORGANIZATION ( #436, #19 ) ;
#350 = DIRECTION ( 'NONE',  ( 0.000000000000000000, -0.000000000000000000, 1.000000000000000000 ) ) ;
#351 = APPROVAL_DATE_TIME ( #152, #352 ) ;
#352 = APPROVAL ( #29, 'UNSPECIFIED' ) ;
#353 = AXIS2_PLACEMENT_3D ( 'NONE', #120, #168, #130 ) ;
#354 = ORIENTED_EDGE ( 'NONE', *, *, #254, .F. ) ;
#355 = FACE_OUTER_BOUND ( 'NONE', #419, .T. ) ;
#356 = CARTESIAN_POINT ( 'NONE',  ( 2.499999999999999112, -4.330127018922193649, 6.000000000000000000 ) ) ;
#357 = AXIS2_PLACEMENT_3D ( 'NONE', #212, #41, #179 ) ;
#358 = CARTESIAN_POINT ( 'NONE',  ( 4.999999999999999112, -2.230358754827323125E-15, 6.000000000000000000 ) ) ;
#359 = CARTESIAN_POINT ( 'NONE',  ( -4.000000000000000000, 4.898587196589412829E-16, -12.00000000000000000 ) ) ;
#360 = EDGE_CURVE ( 'NONE', #129, #100, #166, .T. ) ;
#361 = DIRECTION ( 'NONE',  ( 1.000000000000000000, 0.000000000000000000, 0.000000000000000000 ) ) ;
#362 = AXIS2_PLACEMENT_3D ( 'NONE', #234, #447, #61 ) ;
#363 = FACE_OUTER_BOUND ( 'NONE', #227, .T. ) ;
#364 = DIRECTION ( 'NONE',  ( 0.8660254037844384856, 0.5000000000000003331, -0.000000000000000000 ) ) ;
#365 = CARTESIAN_POINT ( 'NONE',  ( -2.500000000000001332, 4.330127018922192761, 6.000000000000000000 ) ) ;
#366 = EDGE_CURVE ( 'NONE', #24, #57, #442, .T. ) ;
#367 = CARTESIAN_POINT ( 'NONE',  ( 0.000000000000000000, 0.000000000000000000, 5.656854249492380582 ) ) ;
#368 = APPROVAL ( #171, 'UNSPECIFIED' ) ;
#369 = VECTOR ( 'NONE', #438, 1000.000000000000114 ) ;
#370 = CARTESIAN_POINT ( 'NONE',  ( -2.499999999999999556, -4.330127018922193649, 6.000000000000000000 ) ) ;
#371 = ORIENTED_EDGE ( 'NONE', *, *, #145, .T. ) ;
#372 = ADVANCED_BREP_SHAPE_REPRESENTATION ( 'wheel_insert_4mm_shaft_sldprt', ( #441, #3 ), #332 ) ;
#373 =( LENGTH_UNIT ( ) NAMED_UNIT ( * ) SI_UNIT ( .MILLI., .METRE. ) );
#374 = AXIS2_PLACEMENT_3D ( 'NONE', #424, #219, #361 ) ;
#375 = CC_DESIGN_PERSON_AND_ORGANIZATION_ASSIGNMENT ( #349, #239, ( #328 ) ) ;
#376 = CYLINDRICAL_SURFACE ( 'NONE', #296, 2.000000000000000000 ) ;
#377 = DATE_AND_TIME ( #379, #194 ) ;
#378 = ORIENTED_EDGE ( 'NONE', *, *, #75, .T. ) ;
#379 = CALENDAR_DATE ( 2026, 24, 8 ) ;
#380 = VERTEX_POINT ( 'NONE', #165 ) ;
#381 = EDGE_CURVE ( 'NONE', #266, #18, #383, .T. ) ;
#382 = DIRECTION ( 'NONE',  ( 0.000000000000000000, 0.000000000000000000, 1.000000000000000000 ) ) ;
#383 = CIRCLE ( 'NONE', #362, 4.000000000000000000 ) ;
#384 = ORIENTED_EDGE ( 'NONE', *, *, #160, .F. ) ;
#385 = SECURITY_CLASSIFICATION_LEVEL ( 'unclassified' ) ;
#386 = VECTOR ( 'NONE', #149, 1000.000000000000000 ) ;
#387 = ORIENTED_EDGE ( 'NONE', *, *, #216, .T. ) ;
#388 = CARTESIAN_POINT ( 'NONE',  ( 0.000000000000000000, 0.000000000000000000, -12.00000000000000000 ) ) ;
#389 = CARTESIAN_POINT ( 'NONE',  ( 4.999999999999999112, -2.230358754827323125E-15, 0.000000000000000000 ) ) ;
#390 = ORIENTED_EDGE ( 'NONE', *, *, #8, .T. ) ;
#391 = COORDINATED_UNIVERSAL_TIME_OFFSET ( 5, 30, .AHEAD. ) ;
#392 = DIRECTION ( 'NONE',  ( -0.000000000000000000, -0.000000000000000000, -1.000000000000000000 ) ) ;
#393 = ADVANCED_FACE ( 'NONE', ( #25 ), #376, .F. ) ;
#394 = ORIENTED_EDGE ( 'NONE', *, *, #200, .F. ) ;
#395 = AXIS2_PLACEMENT_3D ( 'NONE', #428, #117, #183 ) ;
#396 = DIRECTION ( 'NONE',  ( 0.5000000000000003331, 0.8660254037844384856, 0.000000000000000000 ) ) ;
#397 = CARTESIAN_POINT ( 'NONE',  ( 4.999999999999999112, -2.230358754827323125E-15, 6.000000000000000000 ) ) ;
#398 = DIRECTION ( 'NONE',  ( 0.000000000000000000, 0.000000000000000000, -1.000000000000000000 ) ) ;
#399 = CIRCLE ( 'NONE', #353, 2.000000000000000000 ) ;
#400 = CARTESIAN_POINT ( 'NONE',  ( 2.000000000000000000, 2.449293598294706414E-16, 5.656854249492380582 ) ) ;
#401 = EDGE_CURVE ( 'NONE', #410, #380, #399, .T. ) ;
#402 = EDGE_LOOP ( 'NONE', ( #245, #45 ) ) ;
#403 = APPROVAL ( #415, 'UNSPECIFIED' ) ;
#404 = CARTESIAN_POINT ( 'NONE',  ( 2.499999999999996447, 4.330127018922193649, 0.000000000000000000 ) ) ;
#405 = EDGE_LOOP ( 'NONE', ( #139, #191, #452, #174 ) ) ;
#406 = DIRECTION ( 'NONE',  ( 1.000000000000000000, 1.734723475976807834E-16, 0.000000000000000000 ) ) ;
#407 = ORIENTED_EDGE ( 'NONE', *, *, #128, .T. ) ;
#408 = DIRECTION ( 'NONE',  ( 0.000000000000000000, 0.000000000000000000, -1.000000000000000000 ) ) ;
#409 = APPROVAL_PERSON_ORGANIZATION ( #38, #403, #140 ) ;
#410 = VERTEX_POINT ( 'NONE', #228 ) ;
#411 = ORIENTED_EDGE ( 'NONE', *, *, #321, .F. ) ;
#412 = DIRECTION ( 'NONE',  ( -0.5000000000000003331, -0.8660254037844384856, 0.000000000000000000 ) ) ;
#413 = VERTEX_POINT ( 'NONE', #307 ) ;
#414 = CIRCLE ( 'NONE', #451, 2.000000000000000000 ) ;
#415 = APPROVAL_STATUS ( 'not_yet_approved' ) ;
#416 = AXIS2_PLACEMENT_3D ( 'NONE', #388, #47, #114 ) ;
#417 = EDGE_CURVE ( 'NONE', #380, #410, #153, .T. ) ;
#418 = VERTEX_POINT ( 'NONE', #193 ) ;
#419 = EDGE_LOOP ( 'NONE', ( #96, #297 ) ) ;
#420 = ORIENTED_EDGE ( 'NONE', *, *, #292, .T. ) ;
#421 = LINE ( 'NONE', #281, #214 ) ;
#422 = PERSON_AND_ORGANIZATION ( #436, #19 ) ;
#423 = FACE_OUTER_BOUND ( 'NONE', #28, .T. ) ;
#424 = CARTESIAN_POINT ( 'NONE',  ( 0.000000000000000000, 0.000000000000000000, 6.000000000000000000 ) ) ;
#425 = DIRECTION ( 'NONE',  ( -1.000000000000000000, 0.000000000000000000, 0.000000000000000000 ) ) ;
#426 = CC_DESIGN_PERSON_AND_ORGANIZATION_ASSIGNMENT ( #422, #132, ( #244 ) ) ;
#427 = VECTOR ( 'NONE', #308, 1000.000000000000227 ) ;
#428 = CARTESIAN_POINT ( 'NONE',  ( 0.000000000000000000, 0.000000000000000000, 0.000000000000000000 ) ) ;
#429 = DIRECTION ( 'NONE',  ( -0.000000000000000000, -0.000000000000000000, -1.000000000000000000 ) ) ;
#430 = CARTESIAN_POINT ( 'NONE',  ( 4.999999999999999112, -2.230358754827323125E-15, 6.000000000000000000 ) ) ;
#431 = LOCAL_TIME ( 14, 26, 18.00000000000000000, #391 ) ;
#432 = CARTESIAN_POINT ( 'NONE',  ( 4.000000000000000000, 0.000000000000000000, -12.00000000000000000 ) ) ;
#433 = VECTOR ( 'NONE', #215, 1000.000000000000000 ) ;
#434 = CARTESIAN_POINT ( 'NONE',  ( 2.499999999999999112, -4.330127018922193649, 6.000000000000000000 ) ) ;
#435 = ADVANCED_FACE ( 'NONE', ( #17 ), #192, .F. ) ;
#436 = PERSON ( 'UNSPECIFIED', 'UNSPECIFIED', 'UNSPECIFIED', ('UNSPECIFIED'), ('UNSPECIFIED'), ('UNSPECIFIED') ) ;
#437 = PLANE ( 'NONE',  #44 ) ;
#438 = DIRECTION ( 'NONE',  ( 0.5000000000000003331, 0.8660254037844384856, 0.000000000000000000 ) ) ;
#439 = ADVANCED_FACE ( 'NONE', ( #159 ), #127, .T. ) ;
#440 = VECTOR ( 'NONE', #331, 1000.000000000000000 ) ;
#441 = MANIFOLD_SOLID_BREP ( 'Cut-Extrude2', #49 ) ;
#442 = LINE ( 'NONE', #404, #40 ) ;
#443 = DIRECTION ( 'NONE',  ( -1.000000000000000000, 0.000000000000000000, 0.000000000000000000 ) ) ;
#444 = VERTEX_POINT ( 'NONE', #370 ) ;
#445 = CARTESIAN_POINT ( 'NONE',  ( 4.999999999999999112, -2.230358754827323125E-15, 0.000000000000000000 ) ) ;
#446 = APPROVAL_PERSON_ORGANIZATION ( #2, #368, #33 ) ;
#447 = DIRECTION ( 'NONE',  ( 0.000000000000000000, 0.000000000000000000, -1.000000000000000000 ) ) ;
#448 = ORIENTED_EDGE ( 'NONE', *, *, #366, .F. ) ;
#449 = APPLICATION_PROTOCOL_DEFINITION ( 'international standard', 'config_control_design', 1994, #36 ) ;
#450 = ADVANCED_FACE ( 'NONE', ( #305 ), #190, .F. ) ;
#451 = AXIS2_PLACEMENT_3D ( 'NONE', #158, #295, #336 ) ;
#452 = ORIENTED_EDGE ( 'NONE', *, *, #89, .F. ) ;
#453 = CALENDAR_DATE ( 2026, 24, 8 ) ;
#454 = AXIS2_PLACEMENT_3D ( 'NONE', #283, #1, #350 ) ;
#455 = EDGE_LOOP ( 'NONE', ( #161, #86, #270, #95, #253, #371 ) ) ;
#456 = PERSON_AND_ORGANIZATION_ROLE ( 'design_owner' ) ;
#457 = CC_DESIGN_PERSON_AND_ORGANIZATION_ASSIGNMENT ( #69, #209, ( #299 ) ) ;
ENDSEC;
END-ISO-10303-21;
