ISO-10303-21;
HEADER;
FILE_DESCRIPTION (( 'STEP AP203' ),
    '1' );
FILE_NAME ('30DegreeeAngle_Default_sldprt.STEP',
    '2026-08-24T10:32:25',
    ( '' ),
    ( '' ),
    'SwSTEP 2.0',
    'SolidWorks 2020',
    '' );
FILE_SCHEMA (( 'CONFIG_CONTROL_DESIGN' ));
ENDSEC;

DATA;
#1 = CARTESIAN_POINT ( 'NONE',  ( 0.000000000000000000, 0.000000000000000000, 10.00000000000000000 ) ) ;
#2 = DIRECTION ( 'NONE',  ( 0.000000000000000000, 0.000000000000000000, -1.000000000000000000 ) ) ;
#3 = CARTESIAN_POINT ( 'NONE',  ( 1.224646799147353256E-15, 17.32050807568876394, 10.00000000000002309 ) ) ;
#4 = AXIS2_PLACEMENT_3D ( 'NONE', #344, #123, #95 ) ;
#5 = PRODUCT_DEFINITION_FORMATION_WITH_SPECIFIED_SOURCE ( 'ANY', '', #150, .NOT_KNOWN. ) ;
#6 = CARTESIAN_POINT ( 'NONE',  ( 0.000000000000000000, 8.660254037844381969, 5.000000000000010658 ) ) ;
#7 = PRODUCT_RELATED_PRODUCT_CATEGORY ( 'detail', '', ( #150 ) ) ;
#8 = DIRECTION ( 'NONE',  ( 0.000000000000000000, 0.8660254037844380415, 0.5000000000000007772 ) ) ;
#9 = DIRECTION ( 'NONE',  ( 0.000000000000000000, -0.8660254037844380415, -0.5000000000000009992 ) ) ;
#10 = CIRCLE ( 'NONE', #326, 7.500000000000000888 ) ;
#11 = CYLINDRICAL_SURFACE ( 'NONE', #137, 10.00000000000000178 ) ;
#12 = PERSON_AND_ORGANIZATION ( #296, #283 ) ;
#13 = CARTESIAN_POINT ( 'NONE',  ( 0.000000000000000000, 8.660254037844381969, 5.000000000000010658 ) ) ;
#14 = CYLINDRICAL_SURFACE ( 'NONE', #266, 10.00000000000000000 ) ;
#15 = APPROVAL_DATE_TIME ( #87, #85 ) ;
#16 = EDGE_CURVE ( 'NONE', #343, #412, #142, .T. ) ;
#17 = PLANE ( 'NONE',  #96 ) ;
#18 = ORIENTED_EDGE ( 'NONE', *, *, #366, .F. ) ;
#19 = COORDINATED_UNIVERSAL_TIME_OFFSET ( 5, 30, .AHEAD. ) ;
#20 = VERTEX_POINT ( 'NONE', #194 ) ;
#21 = ORIENTED_EDGE ( 'NONE', *, *, #175, .F. ) ;
#22 = PERSON_AND_ORGANIZATION ( #296, #283 ) ;
#23 = ORIENTED_EDGE ( 'NONE', *, *, #24, .T. ) ;
#24 = EDGE_CURVE ( 'NONE', #278, #360, #133, .T. ) ;
#25 = VERTEX_POINT ( 'NONE', #62 ) ;
#26 = CLOSED_SHELL ( 'NONE', ( #132, #47, #114, #99, #227, #36, #71 ) ) ;
#27 = LOCAL_TIME ( 16, 2, 25.00000000000000000, #158 ) ;
#28 = DIRECTION ( 'NONE',  ( 0.000000000000000000, 0.000000000000000000, -1.000000000000000000 ) ) ;
#29 = CC_DESIGN_PERSON_AND_ORGANIZATION_ASSIGNMENT ( #58, #274, ( #5 ) ) ;
#30 = CYLINDRICAL_SURFACE ( 'NONE', #270, 10.00000000000000178 ) ;
#31 = ORIENTED_EDGE ( 'NONE', *, *, #24, .F. ) ;
#32 = CARTESIAN_POINT ( 'NONE',  ( 9.184850993605147944E-16, -5.000000000000000000, 7.500000000000000000 ) ) ;
#33 = ORIENTED_EDGE ( 'NONE', *, *, #175, .T. ) ;
#34 = CLOSED_SHELL ( 'NONE', ( #176, #256, #60, #275, #289, #180, #52 ) ) ;
#35 = DIRECTION ( 'NONE',  ( 0.000000000000000000, 0.000000000000000000, -1.000000000000000000 ) ) ;
#36 = ADVANCED_FACE ( 'NONE', ( #385 ), #223, .F. ) ;
#37 = DIRECTION ( 'NONE',  ( 0.000000000000000000, 0.000000000000000000, 1.000000000000000000 ) ) ;
#38 = CARTESIAN_POINT ( 'NONE',  ( 1.224646799147353256E-15, 27.32050807568878170, -7.320508075688741734 ) ) ;
#39 = CARTESIAN_POINT ( 'NONE',  ( 0.000000000000000000, -10.00000000000000000, 0.000000000000000000 ) ) ;
#40 = AXIS2_PLACEMENT_3D ( 'NONE', #311, #116, #151 ) ;
#41 = CC_DESIGN_APPROVAL ( #371, ( #5 ) ) ;
#42 = CARTESIAN_POINT ( 'NONE',  ( 0.000000000000000000, 10.00000000000002132, -17.32050807568876394 ) ) ;
#43 = ADVANCED_BREP_SHAPE_REPRESENTATION ( '30DegreeeAngle_Default_sldprt', ( #113, #246, #395 ), #73 ) ;
#44 = CARTESIAN_POINT ( 'NONE',  ( 0.000000000000000000, -10.00000000000000000, 0.000000000000000000 ) ) ;
#45 = FACE_OUTER_BOUND ( 'NONE', #57, .T. ) ;
#46 = DATE_AND_TIME ( #54, #232 ) ;
#47 = ADVANCED_FACE ( 'NONE', ( #353 ), #292, .T. ) ;
#48 = CARTESIAN_POINT ( 'NONE',  ( 0.000000000000000000, -5.000000000000000000, -7.500000000000000000 ) ) ;
#49 = COORDINATED_UNIVERSAL_TIME_OFFSET ( 5, 30, .AHEAD. ) ;
#50 = EDGE_LOOP ( 'NONE', ( #264, #189 ) ) ;
#51 = DIRECTION ( 'NONE',  ( 0.000000000000000000, 1.000000000000000000, 0.000000000000000000 ) ) ;
#52 = ADVANCED_FACE ( 'NONE', ( #100 ), #355, .T. ) ;
#53 = FACE_OUTER_BOUND ( 'NONE', #349, .T. ) ;
#54 = CALENDAR_DATE ( 2026, 24, 8 ) ;
#55 = ORIENTED_EDGE ( 'NONE', *, *, #397, .F. ) ;
#56 = ORIENTED_EDGE ( 'NONE', *, *, #300, .T. ) ;
#57 = EDGE_LOOP ( 'NONE', ( #220, #253 ) ) ;
#58 = PERSON_AND_ORGANIZATION ( #296, #283 ) ;
#59 = ORIENTED_EDGE ( 'NONE', *, *, #16, .F. ) ;
#60 = ADVANCED_FACE ( 'NONE', ( #387 ), #30, .T. ) ;
#61 = AXIS2_PLACEMENT_3D ( 'NONE', #167, #259, #28 ) ;
#62 = CARTESIAN_POINT ( 'NONE',  ( 9.184850993605147944E-16, 7.165063509461108815, -7.410254037844380193 ) ) ;
#63 = AXIS2_PLACEMENT_3D ( 'NONE', #377, #273, #269 ) ;
#64 = LOCAL_TIME ( 16, 2, 25.00000000000000000, #19 ) ;
#65 = EDGE_CURVE ( 'NONE', #280, #20, #364, .T. ) ;
#66 = CARTESIAN_POINT ( 'NONE',  ( 0.000000000000000000, 13.66025403784439440, -3.660254037844373531 ) ) ;
#67 = DIRECTION ( 'NONE',  ( 0.000000000000000000, -0.8660254037844380415, -0.5000000000000011102 ) ) ;
#68 = PLANE ( 'NONE',  #102 ) ;
#69 = ORIENTED_EDGE ( 'NONE', *, *, #162, .T. ) ;
#70 = CARTESIAN_POINT ( 'NONE',  ( 0.000000000000000000, -5.000000000000000000, 0.000000000000000000 ) ) ;
#71 = ADVANCED_FACE ( 'NONE', ( #359 ), #68, .T. ) ;
#72 = ORIENTED_EDGE ( 'NONE', *, *, #307, .F. ) ;
#73 =( GEOMETRIC_REPRESENTATION_CONTEXT ( 3 ) GLOBAL_UNCERTAINTY_ASSIGNED_CONTEXT ( ( #115 ) ) GLOBAL_UNIT_ASSIGNED_CONTEXT ( ( #140, #208, #335 ) ) REPRESENTATION_CONTEXT ( 'NONE', 'WORKASPACE' ) );
#74 = DIRECTION ( 'NONE',  ( -0.000000000000000000, -1.000000000000000000, -0.000000000000000000 ) ) ;
#75 = DESIGN_CONTEXT ( 'detailed design', #351, 'design' ) ;
#76 = DIRECTION ( 'NONE',  ( 0.000000000000000000, 0.8660254037844380415, 0.5000000000000008882 ) ) ;
#77 = DIRECTION ( 'NONE',  ( 0.000000000000000000, -0.5000000000000009992, 0.8660254037844380415 ) ) ;
#78 = APPLICATION_PROTOCOL_DEFINITION ( 'international standard', 'config_control_design', 1994, #351 ) ;
#79 = AXIS2_PLACEMENT_3D ( 'NONE', #239, #372, #120 ) ;
#80 = EDGE_CURVE ( 'NONE', #343, #319, #394, .T. ) ;
#81 = FACE_OUTER_BOUND ( 'NONE', #375, .T. ) ;
#82 = CARTESIAN_POINT ( 'NONE',  ( 1.224646799147353256E-15, -10.00000000000000000, -10.00000000000000000 ) ) ;
#83 = CARTESIAN_POINT ( 'NONE',  ( 1.224646799147353256E-15, 0.000000000000000000, -10.00000000000000000 ) ) ;
#84 = VERTEX_POINT ( 'NONE', #32 ) ;
#85 = APPROVAL ( #389, 'UNSPECIFIED' ) ;
#86 = DIRECTION ( 'NONE',  ( 0.000000000000000000, 1.000000000000000000, 0.000000000000000000 ) ) ;
#87 = DATE_AND_TIME ( #318, #178 ) ;
#88 = AXIS2_PLACEMENT_3D ( 'NONE', #70, #393, #206 ) ;
#89 = DIRECTION ( 'NONE',  ( -0.000000000000000000, 0.5000000000000009992, -0.8660254037844381525 ) ) ;
#90 = FACE_OUTER_BOUND ( 'NONE', #316, .T. ) ;
#91 = ORIENTED_EDGE ( 'NONE', *, *, #217, .T. ) ;
#92 = PERSON_AND_ORGANIZATION_ROLE ( 'creator' ) ;
#93 = EDGE_LOOP ( 'NONE', ( #33, #23 ) ) ;
#94 = COORDINATED_UNIVERSAL_TIME_OFFSET ( 5, 30, .AHEAD. ) ;
#95 = DIRECTION ( 'NONE',  ( 0.000000000000000000, 0.000000000000000000, 1.000000000000000000 ) ) ;
#96 = AXIS2_PLACEMENT_3D ( 'NONE', #187, #243, #160 ) ;
#97 = EDGE_CURVE ( 'NONE', #412, #379, #383, .T. ) ;
#98 = DIRECTION ( 'NONE',  ( 0.000000000000000000, 1.000000000000000000, 0.000000000000000000 ) ) ;
#99 = ADVANCED_FACE ( 'NONE', ( #277, #90 ), #17, .F. ) ;
#100 = FACE_OUTER_BOUND ( 'NONE', #202, .T. ) ;
#101 = DIRECTION ( 'NONE',  ( 0.000000000000000000, 0.8660254037844380415, 0.5000000000000007772 ) ) ;
#102 = AXIS2_PLACEMENT_3D ( 'NONE', #226, #357, #198 ) ;
#103 = AXIS2_PLACEMENT_3D ( 'NONE', #13, #124, #9 ) ;
#104 = CARTESIAN_POINT ( 'NONE',  ( 0.000000000000000000, 18.66025403784440329, -12.32050807568875150 ) ) ;
#105 = DIRECTION ( 'NONE',  ( 0.000000000000000000, -0.5000000000000009992, 0.8660254037844380415 ) ) ;
#106 = APPROVAL_ROLE ( '' ) ;
#107 = CC_DESIGN_PERSON_AND_ORGANIZATION_ASSIGNMENT ( #240, #400, ( #312 ) ) ;
#108 = FACE_OUTER_BOUND ( 'NONE', #294, .T. ) ;
#109 = DIRECTION ( 'NONE',  ( 0.000000000000000000, -0.8660254037844380415, -0.5000000000000009992 ) ) ;
#110 = CARTESIAN_POINT ( 'NONE',  ( 0.000000000000000000, -10.00000000000000000, 10.00000000000000000 ) ) ;
#111 = APPROVAL_PERSON_ORGANIZATION ( #12, #418, #413 ) ;
#112 = DIRECTION ( 'NONE',  ( 0.000000000000000000, 1.000000000000000000, 0.000000000000000000 ) ) ;
#113 = MANIFOLD_SOLID_BREP ( 'Cut-Extrude1', #26 ) ;
#114 = ADVANCED_FACE ( 'NONE', ( #53 ), #14, .T. ) ;
#115 = UNCERTAINTY_MEASURE_WITH_UNIT (LENGTH_MEASURE( 1.000000000000000082E-05 ), #140, 'distance_accuracy_value', 'NONE');
#116 = DIRECTION ( 'NONE',  ( 0.000000000000000000, 1.000000000000000000, 0.000000000000000000 ) ) ;
#117 = DIRECTION ( 'NONE',  ( 0.000000000000000000, 0.000000000000000000, -1.000000000000000000 ) ) ;
#118 = PLANE ( 'NONE',  #79 ) ;
#119 = EDGE_CURVE ( 'NONE', #255, #84, #324, .T. ) ;
#120 = DIRECTION ( 'NONE',  ( 0.000000000000000000, -0.8660254037844380415, -0.5000000000000009992 ) ) ;
#121 = DIRECTION ( 'NONE',  ( 0.000000000000000000, -0.8660254037844380415, -0.5000000000000009992 ) ) ;
#122 = PERSON_AND_ORGANIZATION_ROLE ( 'classification_officer' ) ;
#123 = DIRECTION ( 'NONE',  ( 0.000000000000000000, 1.000000000000000000, 0.000000000000000000 ) ) ;
#124 = DIRECTION ( 'NONE',  ( 0.000000000000000000, -0.5000000000000009992, 0.8660254037844380415 ) ) ;
#125 = DIRECTION ( 'NONE',  ( 0.000000000000000000, 0.000000000000000000, 1.000000000000000000 ) ) ;
#126 = EDGE_LOOP ( 'NONE', ( #414, #317, #171, #321 ) ) ;
#127 = ORIENTED_EDGE ( 'NONE', *, *, #139, .F. ) ;
#128 = AXIS2_PLACEMENT_3D ( 'NONE', #237, #247, #8 ) ;
#129 = VECTOR ( 'NONE', #329, 1000.000000000000114 ) ;
#130 = EDGE_LOOP ( 'NONE', ( #323, #419, #218, #69 ) ) ;
#131 = ORIENTED_EDGE ( 'NONE', *, *, #80, .F. ) ;
#132 = ADVANCED_FACE ( 'NONE', ( #145 ), #396, .F. ) ;
#133 = CIRCLE ( 'NONE', #165, 10.00000000000000000 ) ;
#134 = CIRCLE ( 'NONE', #365, 10.00000000000000000 ) ;
#135 = CC_DESIGN_PERSON_AND_ORGANIZATION_ASSIGNMENT ( #236, #367, ( #150 ) ) ;
#136 = DIRECTION ( 'NONE',  ( 0.000000000000000000, 1.000000000000000000, 0.000000000000000000 ) ) ;
#137 = AXIS2_PLACEMENT_3D ( 'NONE', #154, #276, #346 ) ;
#138 = ORIENTED_EDGE ( 'NONE', *, *, #285, .T. ) ;
#139 = EDGE_CURVE ( 'NONE', #319, #379, #173, .T. ) ;
#140 =( LENGTH_UNIT ( ) NAMED_UNIT ( * ) SI_UNIT ( .MILLI., .METRE. ) );
#141 = DIRECTION ( 'NONE',  ( 0.000000000000000000, -0.5000000000000009992, 0.8660254037844381525 ) ) ;
#142 = LINE ( 'NONE', #388, #193 ) ;
#143 = LINE ( 'NONE', #295, #166 ) ;
#144 = APPLICATION_PROTOCOL_DEFINITION ( 'international standard', 'config_control_design', 1994, #309 ) ;
#145 = FACE_OUTER_BOUND ( 'NONE', #126, .T. ) ;
#146 = CIRCLE ( 'NONE', #195, 7.500000000000000000 ) ;
#147 = LOCAL_TIME ( 16, 2, 25.00000000000000000, #49 ) ;
#148 = LINE ( 'NONE', #268, #196 ) ;
#149 = EDGE_CURVE ( 'NONE', #286, #360, #333, .T. ) ;
#150 = PRODUCT ( '30DegreeeAngle_Default_sldprt', '30DegreeeAngle_Default_sldprt', '', ( #209 ) ) ;
#151 = DIRECTION ( 'NONE',  ( 0.000000000000000000, -0.000000000000000000, 1.000000000000000000 ) ) ;
#152 = CYLINDRICAL_SURFACE ( 'NONE', #386, 7.500000000000000888 ) ;
#153 = VECTOR ( 'NONE', #423, 1000.000000000000114 ) ;
#154 = CARTESIAN_POINT ( 'NONE',  ( 0.000000000000000000, 18.66025403784440329, -12.32050807568875150 ) ) ;
#155 = LINE ( 'NONE', #211, #281 ) ;
#156 = CARTESIAN_POINT ( 'NONE',  ( 0.000000000000000000, -10.00000000000000000, 0.000000000000000000 ) ) ;
#157 = ORIENTED_EDGE ( 'NONE', *, *, #366, .T. ) ;
#158 = COORDINATED_UNIVERSAL_TIME_OFFSET ( 5, 30, .AHEAD. ) ;
#159 = EDGE_LOOP ( 'NONE', ( #127, #192, #382, #215 ) ) ;
#160 = DIRECTION ( 'NONE',  ( 0.000000000000000000, -0.000000000000000000, 1.000000000000000000 ) ) ;
#161 = APPROVAL_ROLE ( '' ) ;
#162 = EDGE_CURVE ( 'NONE', #350, #282, #146, .T. ) ;
#163 = ORIENTED_EDGE ( 'NONE', *, *, #162, .F. ) ;
#164 = CC_DESIGN_PERSON_AND_ORGANIZATION_ASSIGNMENT ( #22, #92, ( #5 ) ) ;
#165 = AXIS2_PLACEMENT_3D ( 'NONE', #290, #136, #325 ) ;
#166 = VECTOR ( 'NONE', #74, 1000.000000000000000 ) ;
#167 = CARTESIAN_POINT ( 'NONE',  ( 0.000000000000000000, -5.000000000000000000, 0.000000000000000000 ) ) ;
#168 = CARTESIAN_POINT ( 'NONE',  ( 0.000000000000000000, 18.66025403784440329, -12.32050807568875150 ) ) ;
#169 = VERTEX_POINT ( 'NONE', #82 ) ;
#170 = CIRCLE ( 'NONE', #177, 10.00000000000000178 ) ;
#171 = ORIENTED_EDGE ( 'NONE', *, *, #397, .T. ) ;
#172 = DIRECTION ( 'NONE',  ( 0.000000000000000000, 0.000000000000000000, -1.000000000000000000 ) ) ;
#173 = LINE ( 'NONE', #301, #153 ) ;
#174 = DIRECTION ( 'NONE',  ( 1.000000000000000000, 0.000000000000000000, 0.000000000000000000 ) ) ;
#175 = EDGE_CURVE ( 'NONE', #360, #278, #354, .T. ) ;
#176 = ADVANCED_FACE ( 'NONE', ( #108 ), #362, .F. ) ;
#177 = AXIS2_PLACEMENT_3D ( 'NONE', #341, #339, #308 ) ;
#178 = LOCAL_TIME ( 16, 2, 25.00000000000000000, #182 ) ;
#179 = DIRECTION ( 'NONE',  ( 0.000000000000000000, 0.8660254037844380415, 0.5000000000000008882 ) ) ;
#180 = ADVANCED_FACE ( 'NONE', ( #399 ), #152, .F. ) ;
#181 = PLANE ( 'NONE',  #40 ) ;
#182 = COORDINATED_UNIVERSAL_TIME_OFFSET ( 5, 30, .AHEAD. ) ;
#183 = CARTESIAN_POINT ( 'NONE',  ( 1.224646799147353256E-15, -10.00000000000000000, -10.00000000000000000 ) ) ;
#184 = VECTOR ( 'NONE', #204, 1000.000000000000000 ) ;
#185 = CC_DESIGN_APPROVAL ( #85, ( #312 ) ) ;
#186 = CARTESIAN_POINT ( 'NONE',  ( 0.000000000000000000, -10.00000000000000000, 10.00000000000000000 ) ) ;
#187 = CARTESIAN_POINT ( 'NONE',  ( 0.000000000000000000, -10.00000000000000000, 0.000000000000000000 ) ) ;
#188 = ORIENTED_EDGE ( 'NONE', *, *, #205, .F. ) ;
#189 = ORIENTED_EDGE ( 'NONE', *, *, #65, .F. ) ;
#190 = ORIENTED_EDGE ( 'NONE', *, *, #149, .T. ) ;
#191 = APPROVAL_DATE_TIME ( #46, #371 ) ;
#192 = ORIENTED_EDGE ( 'NONE', *, *, #205, .T. ) ;
#193 = VECTOR ( 'NONE', #105, 1000.000000000000114 ) ;
#194 = CARTESIAN_POINT ( 'NONE',  ( 0.000000000000000000, 25.15544456622769331, -8.570508075688747951 ) ) ;
#195 = AXIS2_PLACEMENT_3D ( 'NONE', #44, #405, #117 ) ;
#196 = VECTOR ( 'NONE', #203, 1000.000000000000000 ) ;
#197 = DIRECTION ( 'NONE',  ( 0.000000000000000000, 0.5000000000000009992, -0.8660254037844380415 ) ) ;
#198 = DIRECTION ( 'NONE',  ( 0.000000000000000000, -0.000000000000000000, -1.000000000000000000 ) ) ;
#199 = EDGE_LOOP ( 'NONE', ( #241, #56 ) ) ;
#200 = CARTESIAN_POINT ( 'NONE',  ( 0.000000000000000000, 13.66025403784439440, -3.660254037844373531 ) ) ;
#201 = AXIS2_PLACEMENT_3D ( 'NONE', #361, #363, #76 ) ;
#202 = EDGE_LOOP ( 'NONE', ( #228, #299 ) ) ;
#203 = DIRECTION ( 'NONE',  ( -0.000000000000000000, -1.000000000000000000, -0.000000000000000000 ) ) ;
#204 = DIRECTION ( 'NONE',  ( 0.000000000000000000, 1.000000000000000000, 0.000000000000000000 ) ) ;
#205 = EDGE_CURVE ( 'NONE', #319, #343, #170, .T. ) ;
#206 = DIRECTION ( 'NONE',  ( 0.000000000000000000, 0.000000000000000000, -1.000000000000000000 ) ) ;
#207 = CARTESIAN_POINT ( 'NONE',  ( 0.000000000000000000, -5.000000000000000000, 0.000000000000000000 ) ) ;
#208 =( NAMED_UNIT ( * ) PLANE_ANGLE_UNIT ( ) SI_UNIT ( $, .RADIAN. ) );
#209 = MECHANICAL_CONTEXT ( 'NONE', #309, 'mechanical' ) ;
#210 = CARTESIAN_POINT ( 'NONE',  ( 0.000000000000000000, -10.00000000000000000, 0.000000000000000000 ) ) ;
#211 = CARTESIAN_POINT ( 'NONE',  ( 0.000000000000000000, 20.15544456622767910, 0.08974596215563382384 ) ) ;
#212 = EDGE_LOOP ( 'NONE', ( #163, #55 ) ) ;
#213 = DIRECTION ( 'NONE',  ( -0.000000000000000000, 0.5000000000000009992, -0.8660254037844380415 ) ) ;
#214 = AXIS2_PLACEMENT_3D ( 'NONE', #168, #293, #417 ) ;
#215 = ORIENTED_EDGE ( 'NONE', *, *, #384, .F. ) ;
#216 = PERSON_AND_ORGANIZATION ( #296, #283 ) ;
#217 = EDGE_CURVE ( 'NONE', #20, #280, #305, .T. ) ;
#218 = ORIENTED_EDGE ( 'NONE', *, *, #415, .T. ) ;
#219 = ORIENTED_EDGE ( 'NONE', *, *, #285, .F. ) ;
#220 = ORIENTED_EDGE ( 'NONE', *, *, #97, .T. ) ;
#221 = EDGE_CURVE ( 'NONE', #169, #278, #369, .T. ) ;
#222 = ORIENTED_EDGE ( 'NONE', *, *, #380, .F. ) ;
#223 = CYLINDRICAL_SURFACE ( 'NONE', #61, 7.500000000000000000 ) ;
#224 = VECTOR ( 'NONE', #86, 1000.000000000000000 ) ;
#225 = CIRCLE ( 'NONE', #88, 7.500000000000000000 ) ;
#226 = CARTESIAN_POINT ( 'NONE',  ( 0.000000000000000000, -5.000000000000000000, 0.000000000000000000 ) ) ;
#227 = ADVANCED_FACE ( 'NONE', ( #401 ), #181, .T. ) ;
#228 = ORIENTED_EDGE ( 'NONE', *, *, #307, .T. ) ;
#229 = DIRECTION ( 'NONE',  ( 0.000000000000000000, 0.8660254037844380415, 0.5000000000000008882 ) ) ;
#230 = EDGE_LOOP ( 'NONE', ( #157, #331, #21, #254 ) ) ;
#231 = CC_DESIGN_DATE_AND_TIME_ASSIGNMENT ( #340, #284, ( #312 ) ) ;
#232 = LOCAL_TIME ( 16, 2, 25.00000000000000000, #94 ) ;
#233 = CARTESIAN_POINT ( 'NONE',  ( 0.000000000000000000, -1.734723475976807094E-15, 2.602085213965210642E-15 ) ) ;
#234 = CARTESIAN_POINT ( 'NONE',  ( 9.184850993605147944E-16, 7.165063509461108815, -7.410254037844380193 ) ) ;
#235 = PRODUCT_DEFINITION_SHAPE ( 'NONE', 'NONE',  #312 ) ;
#236 = PERSON_AND_ORGANIZATION ( #296, #283 ) ;
#237 = CARTESIAN_POINT ( 'NONE',  ( 0.000000000000000000, 18.66025403784440684, -12.32050807568875506 ) ) ;
#238 = APPROVAL_DATE_TIME ( #251, #418 ) ;
#239 = CARTESIAN_POINT ( 'NONE',  ( 0.000000000000000000, 18.66025403784440329, -12.32050807568875150 ) ) ;
#240 = PERSON_AND_ORGANIZATION ( #296, #283 ) ;
#241 = ORIENTED_EDGE ( 'NONE', *, *, #119, .T. ) ;
#242 = CARTESIAN_POINT ( 'NONE',  ( 9.184850993605147944E-16, 12.16506350946111858, -16.07050807568876394 ) ) ;
#243 = DIRECTION ( 'NONE',  ( 0.000000000000000000, 1.000000000000000000, 0.000000000000000000 ) ) ;
#244 = DATE_AND_TIME ( #279, #64 ) ;
#245 = EDGE_CURVE ( 'NONE', #409, #20, #155, .T. ) ;
#246 = MANIFOLD_SOLID_BREP ( 'Cut-Extrude2', #34 ) ;
#247 = DIRECTION ( 'NONE',  ( 0.000000000000000000, 0.5000000000000009992, -0.8660254037844381525 ) ) ;
#248 = CARTESIAN_POINT ( 'NONE',  ( 0.000000000000000000, -5.000000000000000000, 0.000000000000000000 ) ) ;
#249 = ORIENTED_EDGE ( 'NONE', *, *, #291, .F. ) ;
#250 = APPROVAL_PERSON_ORGANIZATION ( #338, #85, #106 ) ;
#251 = DATE_AND_TIME ( #370, #147 ) ;
#252 = ORIENTED_EDGE ( 'NONE', *, *, #221, .F. ) ;
#253 = ORIENTED_EDGE ( 'NONE', *, *, #384, .T. ) ;
#254 = ORIENTED_EDGE ( 'NONE', *, *, #149, .F. ) ;
#255 = VERTEX_POINT ( 'NONE', #48 ) ;
#256 = ADVANCED_FACE ( 'NONE', ( #81 ), #11, .T. ) ;
#257 = ORIENTED_EDGE ( 'NONE', *, *, #97, .F. ) ;
#258 = CIRCLE ( 'NONE', #356, 10.00000000000000178 ) ;
#259 = DIRECTION ( 'NONE',  ( -0.000000000000000000, -1.000000000000000000, -0.000000000000000000 ) ) ;
#260 = DIRECTION ( 'NONE',  ( 0.000000000000000000, 0.000000000000000000, 1.000000000000000000 ) ) ;
#261 = AXIS2_PLACEMENT_3D ( 'NONE', #248, #303, #2 ) ;
#262 = ORIENTED_EDGE ( 'NONE', *, *, #245, .T. ) ;
#263 = DIRECTION ( 'NONE',  ( 0.000000000000000000, 0.5000000000000009992, -0.8660254037844381525 ) ) ;
#264 = ORIENTED_EDGE ( 'NONE', *, *, #217, .F. ) ;
#265 = LINE ( 'NONE', #234, #129 ) ;
#266 = AXIS2_PLACEMENT_3D ( 'NONE', #156, #407, #125 ) ;
#267 = AXIS2_PLACEMENT_3D ( 'NONE', #39, #334, #172 ) ;
#268 = CARTESIAN_POINT ( 'NONE',  ( 0.000000000000000000, -5.000000000000000000, -7.500000000000000000 ) ) ;
#269 = DIRECTION ( 'NONE',  ( 0.000000000000000000, 0.8660254037844380415, 0.5000000000000008882 ) ) ;
#270 = AXIS2_PLACEMENT_3D ( 'NONE', #104, #141, #67 ) ;
#271 = CARTESIAN_POINT ( 'NONE',  ( 0.000000000000000000, 13.66025403784439440, -3.660254037844373531 ) ) ;
#272 = APPROVAL_STATUS ( 'not_yet_approved' ) ;
#273 = DIRECTION ( 'NONE',  ( -0.000000000000000000, 0.5000000000000009992, -0.8660254037844381525 ) ) ;
#274 = PERSON_AND_ORGANIZATION_ROLE ( 'design_supplier' ) ;
#275 = ADVANCED_FACE ( 'NONE', ( #314, #403 ), #118, .F. ) ;
#276 = DIRECTION ( 'NONE',  ( 0.000000000000000000, -0.5000000000000009992, 0.8660254037844381525 ) ) ;
#277 = FACE_BOUND ( 'NONE', #212, .T. ) ;
#278 = VERTEX_POINT ( 'NONE', #83 ) ;
#279 = CALENDAR_DATE ( 2026, 24, 8 ) ;
#280 = VERTEX_POINT ( 'NONE', #242 ) ;
#281 = VECTOR ( 'NONE', #213, 1000.000000000000114 ) ;
#282 = VERTEX_POINT ( 'NONE', #374 ) ;
#283 = ORGANIZATION ( 'UNSPECIFIED', 'UNSPECIFIED', '' ) ;
#284 = DATE_TIME_ROLE ( 'creation_date' ) ;
#285 = EDGE_CURVE ( 'NONE', #169, #286, #420, .T. ) ;
#286 = VERTEX_POINT ( 'NONE', #186 ) ;
#287 = CARTESIAN_POINT ( 'NONE',  ( 0.000000000000000000, -10.00000000000000000, 0.000000000000000000 ) ) ;
#288 = CIRCLE ( 'NONE', #267, 7.500000000000000000 ) ;
#289 = ADVANCED_FACE ( 'NONE', ( #45 ), #406, .T. ) ;
#290 = CARTESIAN_POINT ( 'NONE',  ( 0.000000000000000000, 0.000000000000000000, 0.000000000000000000 ) ) ;
#291 = EDGE_CURVE ( 'NONE', #25, #409, #337, .T. ) ;
#292 = CYLINDRICAL_SURFACE ( 'NONE', #352, 10.00000000000000000 ) ;
#293 = DIRECTION ( 'NONE',  ( 0.000000000000000000, -0.5000000000000009992, 0.8660254037844380415 ) ) ;
#294 = EDGE_LOOP ( 'NONE', ( #249, #373, #390, #422 ) ) ;
#295 = CARTESIAN_POINT ( 'NONE',  ( 9.184850993605147944E-16, -5.000000000000000000, 7.500000000000000000 ) ) ;
#296 = PERSON ( 'UNSPECIFIED', 'UNSPECIFIED', 'UNSPECIFIED', ('UNSPECIFIED'), ('UNSPECIFIED'), ('UNSPECIFIED') ) ;
#297 = AXIS2_PLACEMENT_3D ( 'NONE', #210, #51, #310 ) ;
#298 = CARTESIAN_POINT ( 'NONE',  ( 0.000000000000000000, 18.66025403784440684, -12.32050807568875506 ) ) ;
#299 = ORIENTED_EDGE ( 'NONE', *, *, #291, .T. ) ;
#300 = EDGE_CURVE ( 'NONE', #84, #255, #225, .T. ) ;
#301 = CARTESIAN_POINT ( 'NONE',  ( 1.224646799147353256E-15, 27.32050807568878170, -7.320508075688740846 ) ) ;
#302 = CARTESIAN_POINT ( 'NONE',  ( 0.000000000000000000, -10.00000000000000000, -7.500000000000000000 ) ) ;
#303 = DIRECTION ( 'NONE',  ( 0.000000000000000000, -1.000000000000000000, 0.000000000000000000 ) ) ;
#304 = CARTESIAN_POINT ( 'NONE',  ( 0.000000000000000000, -10.00000000000000000, 0.000000000000000000 ) ) ;
#305 = CIRCLE ( 'NONE', #128, 7.500000000000000888 ) ;
#306 = CC_DESIGN_SECURITY_CLASSIFICATION ( #416, ( #5 ) ) ;
#307 = EDGE_CURVE ( 'NONE', #409, #25, #10, .T. ) ;
#308 = DIRECTION ( 'NONE',  ( 0.000000000000000000, -0.8660254037844380415, -0.5000000000000011102 ) ) ;
#309 = APPLICATION_CONTEXT ( 'configuration controlled 3d designs of mechanical parts and assemblies' ) ;
#310 = DIRECTION ( 'NONE',  ( 0.000000000000000000, 0.000000000000000000, 1.000000000000000000 ) ) ;
#311 = CARTESIAN_POINT ( 'NONE',  ( 0.000000000000000000, 0.000000000000000000, 0.000000000000000000 ) ) ;
#312 = PRODUCT_DEFINITION ( 'UNKNOWN', '', #5, #75 ) ;
#313 = SHAPE_DEFINITION_REPRESENTATION ( #235, #43 ) ;
#314 = FACE_BOUND ( 'NONE', #50, .T. ) ;
#315 = ORIENTED_EDGE ( 'NONE', *, *, #139, .T. ) ;
#316 = EDGE_LOOP ( 'NONE', ( #18, #219 ) ) ;
#317 = ORIENTED_EDGE ( 'NONE', *, *, #358, .T. ) ;
#318 = CALENDAR_DATE ( 2026, 24, 8 ) ;
#319 = VERTEX_POINT ( 'NONE', #38 ) ;
#320 = AXIS2_PLACEMENT_3D ( 'NONE', #298, #263, #101 ) ;
#321 = ORIENTED_EDGE ( 'NONE', *, *, #415, .F. ) ;
#322 = CALENDAR_DATE ( 2026, 24, 8 ) ;
#323 = ORIENTED_EDGE ( 'NONE', *, *, #358, .F. ) ;
#324 = CIRCLE ( 'NONE', #261, 7.500000000000000000 ) ;
#325 = DIRECTION ( 'NONE',  ( 0.000000000000000000, 0.000000000000000000, 1.000000000000000000 ) ) ;
#326 = AXIS2_PLACEMENT_3D ( 'NONE', #200, #421, #229 ) ;
#327 = DIRECTION ( 'NONE',  ( 0.000000000000000000, 0.8660254037844380415, 0.5000000000000009992 ) ) ;
#328 = EDGE_LOOP ( 'NONE', ( #222, #72, #262, #91 ) ) ;
#329 = DIRECTION ( 'NONE',  ( -0.000000000000000000, 0.5000000000000009992, -0.8660254037844380415 ) ) ;
#330 = AXIS2_PLACEMENT_3D ( 'NONE', #207, #392, #35 ) ;
#331 = ORIENTED_EDGE ( 'NONE', *, *, #221, .T. ) ;
#332 = CARTESIAN_POINT ( 'NONE',  ( 0.000000000000000000, 0.000000000000000000, 0.000000000000000000 ) ) ;
#333 = LINE ( 'NONE', #110, #184 ) ;
#334 = DIRECTION ( 'NONE',  ( 0.000000000000000000, -1.000000000000000000, 0.000000000000000000 ) ) ;
#335 =( NAMED_UNIT ( * ) SI_UNIT ( $, .STERADIAN. ) SOLID_ANGLE_UNIT ( ) );
#336 = CC_DESIGN_DATE_AND_TIME_ASSIGNMENT ( #244, #342, ( #416 ) ) ;
#337 = CIRCLE ( 'NONE', #201, 7.500000000000000888 ) ;
#338 = PERSON_AND_ORGANIZATION ( #296, #283 ) ;
#339 = DIRECTION ( 'NONE',  ( 0.000000000000000000, -0.5000000000000009992, 0.8660254037844380415 ) ) ;
#340 = DATE_AND_TIME ( #322, #27 ) ;
#341 = CARTESIAN_POINT ( 'NONE',  ( 0.000000000000000000, 18.66025403784440329, -12.32050807568875150 ) ) ;
#342 = DATE_TIME_ROLE ( 'classification_date' ) ;
#343 = VERTEX_POINT ( 'NONE', #42 ) ;
#344 = CARTESIAN_POINT ( 'NONE',  ( 0.000000000000000000, 0.000000000000000000, 0.000000000000000000 ) ) ;
#345 = APPROVAL_PERSON_ORGANIZATION ( #216, #371, #161 ) ;
#346 = DIRECTION ( 'NONE',  ( 0.000000000000000000, -0.8660254037844380415, -0.5000000000000011102 ) ) ;
#347 = CARTESIAN_POINT ( 'NONE',  ( 0.000000000000000000, 8.660254037844381969, 5.000000000000010658 ) ) ;
#348 = DIRECTION ( 'NONE',  ( 0.000000000000000000, -0.5000000000000009992, 0.8660254037844380415 ) ) ;
#349 = EDGE_LOOP ( 'NONE', ( #252, #138, #190, #31 ) ) ;
#350 = VERTEX_POINT ( 'NONE', #302 ) ;
#351 = APPLICATION_CONTEXT ( 'configuration controlled 3d designs of mechanical parts and assemblies' ) ;
#352 = AXIS2_PLACEMENT_3D ( 'NONE', #287, #98, #260 ) ;
#353 = FACE_OUTER_BOUND ( 'NONE', #230, .T. ) ;
#354 = CIRCLE ( 'NONE', #4, 10.00000000000000000 ) ;
#355 = PLANE ( 'NONE',  #368 ) ;
#356 = AXIS2_PLACEMENT_3D ( 'NONE', #6, #77, #109 ) ;
#357 = DIRECTION ( 'NONE',  ( 0.000000000000000000, -1.000000000000000000, 0.000000000000000000 ) ) ;
#358 = EDGE_CURVE ( 'NONE', #84, #282, #143, .T. ) ;
#359 = FACE_OUTER_BOUND ( 'NONE', #199, .T. ) ;
#360 = VERTEX_POINT ( 'NONE', #1 ) ;
#361 = CARTESIAN_POINT ( 'NONE',  ( 0.000000000000000000, 13.66025403784439440, -3.660254037844373531 ) ) ;
#362 = CYLINDRICAL_SURFACE ( 'NONE', #63, 7.500000000000000888 ) ;
#363 = DIRECTION ( 'NONE',  ( 0.000000000000000000, 0.5000000000000009992, -0.8660254037844381525 ) ) ;
#364 = CIRCLE ( 'NONE', #320, 7.500000000000000888 ) ;
#365 = AXIS2_PLACEMENT_3D ( 'NONE', #304, #112, #391 ) ;
#366 = EDGE_CURVE ( 'NONE', #286, #169, #134, .T. ) ;
#367 = PERSON_AND_ORGANIZATION_ROLE ( 'design_owner' ) ;
#368 = AXIS2_PLACEMENT_3D ( 'NONE', #66, #197, #327 ) ;
#369 = LINE ( 'NONE', #183, #224 ) ;
#370 = CALENDAR_DATE ( 2026, 24, 8 ) ;
#371 = APPROVAL ( #272, 'UNSPECIFIED' ) ;
#372 = DIRECTION ( 'NONE',  ( 0.000000000000000000, -0.5000000000000009992, 0.8660254037844380415 ) ) ;
#373 = ORIENTED_EDGE ( 'NONE', *, *, #380, .T. ) ;
#374 = CARTESIAN_POINT ( 'NONE',  ( 9.184850993605147944E-16, -10.00000000000000000, 7.500000000000000000 ) ) ;
#375 = EDGE_LOOP ( 'NONE', ( #381, #315, #257, #59 ) ) ;
#376 = CC_DESIGN_APPROVAL ( #418, ( #416 ) ) ;
#377 = CARTESIAN_POINT ( 'NONE',  ( 0.000000000000000000, 13.66025403784439440, -3.660254037844373531 ) ) ;
#378 = EDGE_LOOP ( 'NONE', ( #131, #188 ) ) ;
#379 = VERTEX_POINT ( 'NONE', #3 ) ;
#380 = EDGE_CURVE ( 'NONE', #25, #280, #265, .T. ) ;
#381 = ORIENTED_EDGE ( 'NONE', *, *, #80, .T. ) ;
#382 = ORIENTED_EDGE ( 'NONE', *, *, #16, .T. ) ;
#383 = CIRCLE ( 'NONE', #410, 10.00000000000000178 ) ;
#384 = EDGE_CURVE ( 'NONE', #379, #412, #258, .T. ) ;
#385 = FACE_OUTER_BOUND ( 'NONE', #130, .T. ) ;
#386 = AXIS2_PLACEMENT_3D ( 'NONE', #271, #89, #179 ) ;
#387 = FACE_OUTER_BOUND ( 'NONE', #159, .T. ) ;
#388 = CARTESIAN_POINT ( 'NONE',  ( 0.000000000000000000, 10.00000000000002132, -17.32050807568876394 ) ) ;
#389 = APPROVAL_STATUS ( 'not_yet_approved' ) ;
#390 = ORIENTED_EDGE ( 'NONE', *, *, #65, .T. ) ;
#391 = DIRECTION ( 'NONE',  ( 0.000000000000000000, 0.000000000000000000, 1.000000000000000000 ) ) ;
#392 = DIRECTION ( 'NONE',  ( -0.000000000000000000, -1.000000000000000000, -0.000000000000000000 ) ) ;
#393 = DIRECTION ( 'NONE',  ( 0.000000000000000000, -1.000000000000000000, 0.000000000000000000 ) ) ;
#394 = CIRCLE ( 'NONE', #214, 10.00000000000000178 ) ;
#395 = AXIS2_PLACEMENT_3D ( 'NONE', #332, #37, #174 ) ;
#396 = CYLINDRICAL_SURFACE ( 'NONE', #330, 7.500000000000000000 ) ;
#397 = EDGE_CURVE ( 'NONE', #282, #350, #288, .T. ) ;
#398 = CARTESIAN_POINT ( 'NONE',  ( 0.000000000000000000, 20.15544456622767910, 0.08974596215563426793 ) ) ;
#399 = FACE_OUTER_BOUND ( 'NONE', #328, .T. ) ;
#400 = PERSON_AND_ORGANIZATION_ROLE ( 'creator' ) ;
#401 = FACE_OUTER_BOUND ( 'NONE', #93, .T. ) ;
#402 = SECURITY_CLASSIFICATION_LEVEL ( 'unclassified' ) ;
#403 = FACE_OUTER_BOUND ( 'NONE', #378, .T. ) ;
#404 = PERSON_AND_ORGANIZATION ( #296, #283 ) ;
#405 = DIRECTION ( 'NONE',  ( 0.000000000000000000, -1.000000000000000000, 0.000000000000000000 ) ) ;
#406 = PLANE ( 'NONE',  #103 ) ;
#407 = DIRECTION ( 'NONE',  ( 0.000000000000000000, 1.000000000000000000, 0.000000000000000000 ) ) ;
#408 = APPROVAL_STATUS ( 'not_yet_approved' ) ;
#409 = VERTEX_POINT ( 'NONE', #398 ) ;
#410 = AXIS2_PLACEMENT_3D ( 'NONE', #347, #348, #121 ) ;
#411 = CC_DESIGN_PERSON_AND_ORGANIZATION_ASSIGNMENT ( #404, #122, ( #416 ) ) ;
#412 = VERTEX_POINT ( 'NONE', #233 ) ;
#413 = APPROVAL_ROLE ( '' ) ;
#414 = ORIENTED_EDGE ( 'NONE', *, *, #300, .F. ) ;
#415 = EDGE_CURVE ( 'NONE', #255, #350, #148, .T. ) ;
#416 = SECURITY_CLASSIFICATION ( '', '', #402 ) ;
#417 = DIRECTION ( 'NONE',  ( 0.000000000000000000, -0.8660254037844380415, -0.5000000000000011102 ) ) ;
#418 = APPROVAL ( #408, 'UNSPECIFIED' ) ;
#419 = ORIENTED_EDGE ( 'NONE', *, *, #119, .F. ) ;
#420 = CIRCLE ( 'NONE', #297, 10.00000000000000000 ) ;
#421 = DIRECTION ( 'NONE',  ( 0.000000000000000000, 0.5000000000000009992, -0.8660254037844381525 ) ) ;
#422 = ORIENTED_EDGE ( 'NONE', *, *, #245, .F. ) ;
#423 = DIRECTION ( 'NONE',  ( 0.000000000000000000, -0.5000000000000009992, 0.8660254037844380415 ) ) ;
ENDSEC;
END-ISO-10303-21;
