ISO-10303-21;
HEADER;
FILE_DESCRIPTION (( 'STEP AP203' ),
    '1' );
FILE_NAME ('30DegreeeAngle_down_sldprt.STEP',
    '2026-08-24T10:32:29',
    ( '' ),
    ( '' ),
    'SwSTEP 2.0',
    'SolidWorks 2020',
    '' );
FILE_SCHEMA (( 'CONFIG_CONTROL_DESIGN' ));
ENDSEC;

DATA;
#1 = CARTESIAN_POINT ( 'NONE',  ( 0.000000000000000000, 0.000000000000000000, 0.000000000000000000 ) ) ;
#2 = EDGE_CURVE ( 'NONE', #57, #343, #418, .T. ) ;
#3 = CARTESIAN_POINT ( 'NONE',  ( 0.000000000000000000, 0.000000000000000000, 0.000000000000000000 ) ) ;
#4 = CARTESIAN_POINT ( 'NONE',  ( 0.000000000000000000, 8.660254037844381969, 5.000000000000010658 ) ) ;
#5 = VECTOR ( 'NONE', #355, 1000.000000000000000 ) ;
#6 = PERSON_AND_ORGANIZATION ( #116, #408 ) ;
#7 = DIRECTION ( 'NONE',  ( 0.000000000000000000, 1.000000000000000000, 0.000000000000000000 ) ) ;
#8 = CARTESIAN_POINT ( 'NONE',  ( -7.453559924999302311, 0.000000000000000000, 6.666666666666662522 ) ) ;
#9 = PRODUCT_DEFINITION ( 'UNKNOWN', '', #345, #257 ) ;
#10 = CALENDAR_DATE ( 2026, 24, 8 ) ;
#11 = PRODUCT ( '30DegreeeAngle_down_sldprt', '30DegreeeAngle_down_sldprt', '', ( #402 ) ) ;
#12 = CARTESIAN_POINT ( 'NONE',  ( 0.000000000000000000, -5.773502691896279515, 10.00000000000000000 ) ) ;
#13 = AXIS2_PLACEMENT_3D ( 'NONE', #27, #22, #308 ) ;
#14 = FACE_OUTER_BOUND ( 'NONE', #167, .T. ) ;
#15 = APPROVAL_DATE_TIME ( #164, #453 ) ;
#16 = EDGE_CURVE ( 'NONE', #96, #206, #281, .T. ) ;
#17 = DIRECTION ( 'NONE',  ( 0.000000000000000000, -1.000000000000000000, 0.000000000000000000 ) ) ;
#18 = EDGE_LOOP ( 'NONE', ( #100, #227, #393, #314 ) ) ;
#19 = EDGE_LOOP ( 'NONE', ( #226, #109, #272, #378, #302 ) ) ;
#20 = VERTEX_POINT ( 'NONE', #240 ) ;
#21 = ORIENTED_EDGE ( 'NONE', *, *, #203, .F. ) ;
#22 = DIRECTION ( 'NONE',  ( 0.000000000000000000, -0.5000000000000009992, 0.8660254037844381525 ) ) ;
#23 = DIRECTION ( 'NONE',  ( 0.000000000000000000, -0.000000000000000000, 1.000000000000000000 ) ) ;
#24 = AXIS2_PLACEMENT_3D ( 'NONE', #373, #53, #127 ) ;
#25 = DIRECTION ( 'NONE',  ( 0.000000000000000000, 1.000000000000000000, 0.000000000000000000 ) ) ;
#26 = ORIENTED_EDGE ( 'NONE', *, *, #305, .T. ) ;
#27 = CARTESIAN_POINT ( 'NONE',  ( 0.000000000000000000, 3.660254037844370867, 13.66025403784439618 ) ) ;
#28 = DIRECTION ( 'NONE',  ( 0.000000000000000000, -0.8660254037844381525, -0.5000000000000009992 ) ) ;
#29 = EDGE_LOOP ( 'NONE', ( #90, #264, #443, #236, #269, #230 ) ) ;
#30 = DIRECTION ( 'NONE',  ( 0.000000000000000000, 1.000000000000000000, 0.000000000000000000 ) ) ;
#31 = DIRECTION ( 'NONE',  ( 0.000000000000000000, -0.5000000000000009992, 0.8660254037844380415 ) ) ;
#32 = ADVANCED_FACE ( 'NONE', ( #392 ), #389, .F. ) ;
#33 = AXIS2_PLACEMENT_3D ( 'NONE', #115, #151, #428 ) ;
#34 = ORIENTED_EDGE ( 'NONE', *, *, #180, .F. ) ;
#35 = LINE ( 'NONE', #362, #381 ) ;
#36 = DIRECTION ( 'NONE',  ( -0.000000000000000000, -0.5000000000000009992, 0.8660254037844381525 ) ) ;
#37 = EDGE_CURVE ( 'NONE', #57, #346, #176, .T. ) ;
#38 = CARTESIAN_POINT ( 'NONE',  ( 0.000000000000000000, 0.000000000000000000, 0.000000000000000000 ) ) ;
#39 = DATE_AND_TIME ( #435, #83 ) ;
#40 = CARTESIAN_POINT ( 'NONE',  ( -5.527230199078922546, 0.000000000000000000, 2.359262452430158419 ) ) ;
#41 = APPROVAL_STATUS ( 'not_yet_approved' ) ;
#42 = AXIS2_PLACEMENT_3D ( 'NONE', #197, #30, #23 ) ;
#43 = CARTESIAN_POINT ( 'NONE',  ( 0.000000000000000000, 17.32050807568876749, 10.00000000000001954 ) ) ;
#44 = APPROVAL_PERSON_ORGANIZATION ( #185, #433, #252 ) ;
#45 = APPLICATION_PROTOCOL_DEFINITION ( 'international standard', 'config_control_design', 1994, #186 ) ;
#46 = DIRECTION ( 'NONE',  ( 0.000000000000000000, 0.000000000000000000, 1.000000000000000000 ) ) ;
#47 = APPROVAL_STATUS ( 'not_yet_approved' ) ;
#48 = ADVANCED_BREP_SHAPE_REPRESENTATION ( '30DegreeeAngle_down_sldprt', ( #369, #152 ), #372 ) ;
#49 = EDGE_CURVE ( 'NONE', #346, #57, #97, .T. ) ;
#50 = AXIS2_PLACEMENT_3D ( 'NONE', #68, #322, #28 ) ;
#51 = ORIENTED_EDGE ( 'NONE', *, *, #299, .F. ) ;
#52 = EDGE_CURVE ( 'NONE', #452, #20, #386, .T. ) ;
#53 = DIRECTION ( 'NONE',  ( -0.000000000000000000, 0.5000000000000009992, -0.8660254037844381525 ) ) ;
#54 = CIRCLE ( 'NONE', #159, 7.500000000000000000 ) ;
#55 = PERSON_AND_ORGANIZATION_ROLE ( 'design_supplier' ) ;
#56 = EDGE_CURVE ( 'NONE', #360, #278, #161, .T. ) ;
#57 = VERTEX_POINT ( 'NONE', #376 ) ;
#58 = CIRCLE ( 'NONE', #303, 7.500000000000000000 ) ;
#59 = DIRECTION ( 'NONE',  ( 0.000000000000000000, -0.5000000000000009992, 0.8660254037844381525 ) ) ;
#60 = LINE ( 'NONE', #382, #65 ) ;
#61 = ADVANCED_FACE ( 'NONE', ( #163 ), #94, .T. ) ;
#62 = PLANE ( 'NONE',  #397 ) ;
#63 = VERTEX_POINT ( 'NONE', #190 ) ;
#64 = CC_DESIGN_APPROVAL ( #433, ( #9 ) ) ;
#65 = VECTOR ( 'NONE', #241, 1000.000000000000114 ) ;
#66 = CARTESIAN_POINT ( 'NONE',  ( 0.000000000000000000, 3.660254037844370867, 13.66025403784439618 ) ) ;
#67 = ORIENTED_EDGE ( 'NONE', *, *, #391, .T. ) ;
#68 = CARTESIAN_POINT ( 'NONE',  ( 0.000000000000000000, 3.660254037844370867, 13.66025403784439618 ) ) ;
#69 = CC_DESIGN_APPROVAL ( #453, ( #368 ) ) ;
#70 = DIRECTION ( 'NONE',  ( 0.000000000000000000, 1.000000000000000000, 0.000000000000000000 ) ) ;
#71 = UNCERTAINTY_MEASURE_WITH_UNIT (LENGTH_MEASURE( 1.000000000000000082E-05 ), #218, 'distance_accuracy_value', 'NONE');
#72 = CARTESIAN_POINT ( 'NONE',  ( 0.000000000000000000, -1.339745962155639791, 22.32050807568877460 ) ) ;
#73 = ORIENTED_EDGE ( 'NONE', *, *, #260, .T. ) ;
#74 = DIRECTION ( 'NONE',  ( 0.000000000000000000, -0.8660254037844380415, -0.5000000000000009992 ) ) ;
#75 = ADVANCED_FACE ( 'NONE', ( #14 ), #300, .F. ) ;
#76 = AXIS2_PLACEMENT_3D ( 'NONE', #107, #450, #105 ) ;
#77 = ORIENTED_EDGE ( 'NONE', *, *, #158, .T. ) ;
#78 = CARTESIAN_POINT ( 'NONE',  ( 0.000000000000000000, -1.339745962155639791, 22.32050807568877460 ) ) ;
#79 = VECTOR ( 'NONE', #118, 1000.000000000000000 ) ;
#80 =( BOUNDED_CURVE ( )  B_SPLINE_CURVE ( 3, ( #3, #457, #426, #329 ),
 .UNSPECIFIED., .F., .F. ) 
 B_SPLINE_CURVE_WITH_KNOTS ( ( 4, 4 ),
 ( 0.000000000000000000, 0.8410686705679311093 ),
 .UNSPECIFIED. ) 
 CURVE ( )  GEOMETRIC_REPRESENTATION_ITEM ( )  RATIONAL_B_SPLINE_CURVE ( ( 1.000000000000000000, 0.9419139527835176384, 0.9419139527835176384, 1.000000000000000000 ) ) 
 REPRESENTATION_ITEM ( '' )  );
#81 = DIRECTION ( 'NONE',  ( 0.000000000000000000, 1.000000000000000000, 0.000000000000000000 ) ) ;
#82 = APPROVAL_ROLE ( '' ) ;
#83 = LOCAL_TIME ( 16, 2, 29.00000000000000000, #336 ) ;
#84 = DIRECTION ( 'NONE',  ( -0.000000000000000000, 0.5000000000000009992, -0.8660254037844381525 ) ) ;
#85 = CARTESIAN_POINT ( 'NONE',  ( -5.527230199078920769, -3.730321473896978546, 8.820368773784924343 ) ) ;
#86 = DIRECTION ( 'NONE',  ( 1.000000000000000000, 0.000000000000000000, 0.000000000000000000 ) ) ;
#87 = PERSON_AND_ORGANIZATION ( #116, #408 ) ;
#88 = EDGE_CURVE ( 'NONE', #301, #96, #80, .T. ) ;
#89 = COORDINATED_UNIVERSAL_TIME_OFFSET ( 5, 30, .AHEAD. ) ;
#90 = ORIENTED_EDGE ( 'NONE', *, *, #49, .F. ) ;
#91 = EDGE_CURVE ( 'NONE', #206, #354, #247, .T. ) ;
#92 = DIRECTION ( 'NONE',  ( 0.000000000000000000, -0.8660254037844380415, -0.5000000000000007772 ) ) ;
#93 = AXIS2_PLACEMENT_3D ( 'NONE', #454, #135, #351 ) ;
#94 = CYLINDRICAL_SURFACE ( 'NONE', #24, 10.00000000000000178 ) ;
#95 = EDGE_LOOP ( 'NONE', ( #191, #26, #174, #67, #440 ) ) ;
#96 = VERTEX_POINT ( 'NONE', #212 ) ;
#97 = CIRCLE ( 'NONE', #310, 10.00000000000000178 ) ;
#98 = DIRECTION ( 'NONE',  ( 0.000000000000000000, 0.000000000000000000, -1.000000000000000000 ) ) ;
#99 = DIRECTION ( 'NONE',  ( 0.000000000000000000, 0.000000000000000000, 1.000000000000000000 ) ) ;
#100 = ORIENTED_EDGE ( 'NONE', *, *, #219, .F. ) ;
#101 = EDGE_CURVE ( 'NONE', #343, #301, #365, .T. ) ;
#102 = FACE_OUTER_BOUND ( 'NONE', #138, .T. ) ;
#103 = EDGE_LOOP ( 'NONE', ( #312, #210 ) ) ;
#104 = AXIS2_PLACEMENT_3D ( 'NONE', #348, #415, #98 ) ;
#105 = DIRECTION ( 'NONE',  ( 0.000000000000000000, 0.000000000000000000, 1.000000000000000000 ) ) ;
#106 = PLANE ( 'NONE',  #42 ) ;
#107 = CARTESIAN_POINT ( 'NONE',  ( 0.000000000000000000, 0.000000000000000000, 0.000000000000000000 ) ) ;
#108 =( BOUNDED_CURVE ( )  B_SPLINE_CURVE ( 3, ( #425, #40, #251, #1 ),
 .UNSPECIFIED., .F., .F. ) 
 B_SPLINE_CURVE_WITH_KNOTS ( ( 4, 4 ),
 ( 5.442116636611655345, 6.283185307179586232 ),
 .UNSPECIFIED. ) 
 CURVE ( )  GEOMETRIC_REPRESENTATION_ITEM ( )  RATIONAL_B_SPLINE_CURVE ( ( 1.000000000000000000, 0.9419139527835176384, 0.9419139527835176384, 1.000000000000000000 ) ) 
 REPRESENTATION_ITEM ( '' )  );
#109 = ORIENTED_EDGE ( 'NONE', *, *, #412, .T. ) ;
#110 = DIRECTION ( 'NONE',  ( 0.000000000000000000, 0.000000000000000000, -1.000000000000000000 ) ) ;
#111 = CC_DESIGN_PERSON_AND_ORGANIZATION_ASSIGNMENT ( #436, #55, ( #345 ) ) ;
#112 = FACE_OUTER_BOUND ( 'NONE', #347, .T. ) ;
#113 = APPLICATION_CONTEXT ( 'configuration controlled 3d designs of mechanical parts and assemblies' ) ;
#114 = FACE_OUTER_BOUND ( 'NONE', #233, .T. ) ;
#115 = CARTESIAN_POINT ( 'NONE',  ( 0.000000000000000000, 0.000000000000000000, 0.000000000000000000 ) ) ;
#116 = PERSON ( 'UNSPECIFIED', 'UNSPECIFIED', 'UNSPECIFIED', ('UNSPECIFIED'), ('UNSPECIFIED'), ('UNSPECIFIED') ) ;
#117 = DIRECTION ( 'NONE',  ( -0.000000000000000000, 0.5000000000000009992, -0.8660254037844380415 ) ) ;
#118 = DIRECTION ( 'NONE',  ( -0.000000000000000000, -1.000000000000000000, -0.000000000000000000 ) ) ;
#119 = CARTESIAN_POINT ( 'NONE',  ( 0.000000000000000000, -2.834936490538914722, 9.910254037844389075 ) ) ;
#120 = EDGE_CURVE ( 'NONE', #286, #278, #439, .T. ) ;
#121 = PLANE ( 'NONE',  #339 ) ;
#122 = FACE_BOUND ( 'NONE', #130, .T. ) ;
#123 = AXIS2_PLACEMENT_3D ( 'NONE', #4, #213, #74 ) ;
#124 = PERSON_AND_ORGANIZATION_ROLE ( 'creator' ) ;
#125 = LOCAL_TIME ( 16, 2, 29.00000000000000000, #229 ) ;
#126 = ADVANCED_FACE ( 'NONE', ( #122, #112 ), #395, .T. ) ;
#127 = DIRECTION ( 'NONE',  ( 0.000000000000000000, 0.8660254037844380415, 0.5000000000000011102 ) ) ;
#128 = CALENDAR_DATE ( 2026, 24, 8 ) ;
#129 = CARTESIAN_POINT ( 'NONE',  ( 0.000000000000000000, -2.834936490538914722, 9.910254037844389075 ) ) ;
#130 = EDGE_LOOP ( 'NONE', ( #306, #202 ) ) ;
#131 = CLOSED_SHELL ( 'NONE', ( #32, #383, #333, #155, #367, #248, #168, #142, #232, #61, #126, #446, #75, #209 ) ) ;
#132 = ORIENTED_EDGE ( 'NONE', *, *, #158, .F. ) ;
#133 = ORIENTED_EDGE ( 'NONE', *, *, #414, .F. ) ;
#134 = APPROVAL_STATUS ( 'not_yet_approved' ) ;
#135 = DIRECTION ( 'NONE',  ( 0.000000000000000000, 1.000000000000000000, 0.000000000000000000 ) ) ;
#136 = FACE_OUTER_BOUND ( 'NONE', #352, .T. ) ;
#137 = FACE_BOUND ( 'NONE', #319, .T. ) ;
#138 = EDGE_LOOP ( 'NONE', ( #77, #406 ) ) ;
#139 = DIRECTION ( 'NONE',  ( 0.000000000000000000, -0.8660254037844380415, -0.5000000000000009992 ) ) ;
#140 = AXIS2_PLACEMENT_3D ( 'NONE', #449, #25, #277 ) ;
#141 = ORIENTED_EDGE ( 'NONE', *, *, #260, .F. ) ;
#142 = ADVANCED_FACE ( 'NONE', ( #136 ), #204, .F. ) ;
#143 = CARTESIAN_POINT ( 'NONE',  ( 0.000000000000000000, 3.660254037844370867, 13.66025403784439618 ) ) ;
#144 = AXIS2_PLACEMENT_3D ( 'NONE', #78, #84, #207 ) ;
#145 = DIRECTION ( 'NONE',  ( 0.000000000000000000, -0.8660254037844380415, -0.5000000000000011102 ) ) ;
#146 = ORIENTED_EDGE ( 'NONE', *, *, #180, .T. ) ;
#147 = CARTESIAN_POINT ( 'NONE',  ( 1.224646799147353256E-15, -10.00000000000002132, 17.32050807568876394 ) ) ;
#148 = APPROVAL_PERSON_ORGANIZATION ( #370, #416, #82 ) ;
#149 = CYLINDRICAL_SURFACE ( 'NONE', #166, 7.500000000000000000 ) ;
#150 = APPROVAL_DATE_TIME ( #39, #416 ) ;
#151 = DIRECTION ( 'NONE',  ( 0.000000000000000000, 1.000000000000000000, 0.000000000000000000 ) ) ;
#152 = AXIS2_PLACEMENT_3D ( 'NONE', #256, #46, #86 ) ;
#153 = CARTESIAN_POINT ( 'NONE',  ( 1.224646799147353256E-15, -10.00000000000002132, 17.32050807568876394 ) ) ;
#154 = PERSON_AND_ORGANIZATION_ROLE ( 'creator' ) ;
#155 = ADVANCED_FACE ( 'NONE', ( #284 ), #234, .T. ) ;
#156 = DIRECTION ( 'NONE',  ( 0.000000000000000000, 0.000000000000000000, -1.000000000000000000 ) ) ;
#157 = LINE ( 'NONE', #328, #79 ) ;
#158 = EDGE_CURVE ( 'NONE', #360, #177, #296, .T. ) ;
#159 = AXIS2_PLACEMENT_3D ( 'NONE', #217, #398, #156 ) ;
#160 = CALENDAR_DATE ( 2026, 24, 8 ) ;
#161 = LINE ( 'NONE', #129, #208 ) ;
#162 = ORIENTED_EDGE ( 'NONE', *, *, #253, .T. ) ;
#163 = FACE_OUTER_BOUND ( 'NONE', #243, .T. ) ;
#164 = DATE_AND_TIME ( #160, #125 ) ;
#165 = EDGE_CURVE ( 'NONE', #278, #286, #200, .T. ) ;
#166 = AXIS2_PLACEMENT_3D ( 'NONE', #330, #288, #291 ) ;
#167 = EDGE_LOOP ( 'NONE', ( #21, #132, #228, #357 ) ) ;
#168 = ADVANCED_FACE ( 'NONE', ( #137, #235 ), #238, .F. ) ;
#169 = DIRECTION ( 'NONE',  ( 0.000000000000000000, -0.5000000000000009992, 0.8660254037844380415 ) ) ;
#170 = CARTESIAN_POINT ( 'NONE',  ( 9.184850993605147944E-16, 10.15544456622765779, 17.41025403784440329 ) ) ;
#171 = DIRECTION ( 'NONE',  ( 0.000000000000000000, -0.5000000000000009992, 0.8660254037844380415 ) ) ;
#172 = ORIENTED_EDGE ( 'NONE', *, *, #88, .T. ) ;
#173 = DIRECTION ( 'NONE',  ( 0.000000000000000000, -0.8660254037844380415, -0.5000000000000011102 ) ) ;
#174 = ORIENTED_EDGE ( 'NONE', *, *, #16, .F. ) ;
#175 = CARTESIAN_POINT ( 'NONE',  ( 0.000000000000000000, -10.00000000000000000, 0.000000000000000000 ) ) ;
#176 = CIRCLE ( 'NONE', #409, 10.00000000000000178 ) ;
#177 = VERTEX_POINT ( 'NONE', #170 ) ;
#178 = CYLINDRICAL_SURFACE ( 'NONE', #144, 10.00000000000000178 ) ;
#179 = DIRECTION ( 'NONE',  ( 0.000000000000000000, 1.000000000000000000, 0.000000000000000000 ) ) ;
#180 = EDGE_CURVE ( 'NONE', #452, #413, #273, .T. ) ;
#181 = AXIS2_PLACEMENT_3D ( 'NONE', #143, #201, #280 ) ;
#182 = AXIS2_PLACEMENT_3D ( 'NONE', #320, #313, #311 ) ;
#183 = CYLINDRICAL_SURFACE ( 'NONE', #411, 10.00000000000000000 ) ;
#184 = APPROVAL_DATE_TIME ( #331, #433 ) ;
#185 = PERSON_AND_ORGANIZATION ( #116, #408 ) ;
#186 = APPLICATION_CONTEXT ( 'configuration controlled 3d designs of mechanical parts and assemblies' ) ;
#187 = CC_DESIGN_PERSON_AND_ORGANIZATION_ASSIGNMENT ( #6, #154, ( #345 ) ) ;
#188 = AXIS2_PLACEMENT_3D ( 'NONE', #420, #390, #99 ) ;
#189 = ORIENTED_EDGE ( 'NONE', *, *, #101, .F. ) ;
#190 = CARTESIAN_POINT ( 'NONE',  ( 0.000000000000000000, -5.773502691896279515, 10.00000000000000000 ) ) ;
#191 = ORIENTED_EDGE ( 'NONE', *, *, #237, .T. ) ;
#192 = ORIENTED_EDGE ( 'NONE', *, *, #429, .F. ) ;
#193 = ORIENTED_EDGE ( 'NONE', *, *, #91, .T. ) ;
#194 = CARTESIAN_POINT ( 'NONE',  ( 0.000000000000000000, -10.00000000000000000, 10.00000000000000000 ) ) ;
#195 = CC_DESIGN_APPROVAL ( #416, ( #345 ) ) ;
#196 = DIRECTION ( 'NONE',  ( 0.000000000000000000, -0.000000000000000000, -1.000000000000000000 ) ) ;
#197 = CARTESIAN_POINT ( 'NONE',  ( 0.000000000000000000, 0.000000000000000000, 0.000000000000000000 ) ) ;
#198 = CARTESIAN_POINT ( 'NONE',  ( 0.000000000000000000, 7.320508075688741734, 27.32050807568878525 ) ) ;
#199 = LOCAL_TIME ( 16, 2, 29.00000000000000000, #258 ) ;
#200 = CIRCLE ( 'NONE', #337, 7.500000000000000888 ) ;
#201 = DIRECTION ( 'NONE',  ( 0.000000000000000000, -0.5000000000000009992, 0.8660254037844381525 ) ) ;
#202 = ORIENTED_EDGE ( 'NONE', *, *, #120, .F. ) ;
#203 = EDGE_CURVE ( 'NONE', #177, #286, #60, .T. ) ;
#204 = CYLINDRICAL_SURFACE ( 'NONE', #182, 7.500000000000000000 ) ;
#205 = DIRECTION ( 'NONE',  ( 0.000000000000000000, -0.5000000000000009992, 0.8660254037844380415 ) ) ;
#206 = VERTEX_POINT ( 'NONE', #419 ) ;
#207 = DIRECTION ( 'NONE',  ( 0.000000000000000000, 0.8660254037844380415, 0.5000000000000011102 ) ) ;
#208 = VECTOR ( 'NONE', #259, 1000.000000000000114 ) ;
#209 = ADVANCED_FACE ( 'NONE', ( #102 ), #62, .T. ) ;
#210 = ORIENTED_EDGE ( 'NONE', *, *, #412, .F. ) ;
#211 = CARTESIAN_POINT ( 'NONE',  ( 0.000000000000000000, -5.773502691896279515, 10.00000000000000000 ) ) ;
#212 = CARTESIAN_POINT ( 'NONE',  ( 7.453559924999302311, 0.000000000000000000, 6.666666666666662522 ) ) ;
#213 = DIRECTION ( 'NONE',  ( 0.000000000000000000, -0.5000000000000009992, 0.8660254037844380415 ) ) ;
#214 = CARTESIAN_POINT ( 'NONE',  ( 0.000000000000000000, 8.660254037844381969, 5.000000000000010658 ) ) ;
#215 =( BOUNDED_CURVE ( )  B_SPLINE_CURVE ( 3, ( #293, #249, #396, #211 ),
 .UNSPECIFIED., .F., .F. ) 
 B_SPLINE_CURVE_WITH_KNOTS ( ( 4, 4 ),
 ( 2.300523983021862229, 3.141592653589793116 ),
 .UNSPECIFIED. ) 
 CURVE ( )  GEOMETRIC_REPRESENTATION_ITEM ( )  RATIONAL_B_SPLINE_CURVE ( ( 1.000000000000000000, 0.9419139527835176384, 0.9419139527835176384, 1.000000000000000000 ) ) 
 REPRESENTATION_ITEM ( '' )  );
#216 = DIRECTION ( 'NONE',  ( 0.000000000000000000, -0.8660254037844381525, -0.5000000000000009992 ) ) ;
#217 = CARTESIAN_POINT ( 'NONE',  ( 0.000000000000000000, -10.00000000000000000, 0.000000000000000000 ) ) ;
#218 =( LENGTH_UNIT ( ) NAMED_UNIT ( * ) SI_UNIT ( .MILLI., .METRE. ) );
#219 = EDGE_CURVE ( 'NONE', #177, #360, #401, .T. ) ;
#220 = EDGE_CURVE ( 'NONE', #444, #63, #244, .T. ) ;
#221 = LOCAL_TIME ( 16, 2, 29.00000000000000000, #341 ) ;
#222 = PERSON_AND_ORGANIZATION ( #116, #408 ) ;
#223 = PRODUCT_RELATED_PRODUCT_CATEGORY ( 'detail', '', ( #11 ) ) ;
#224 = DATE_TIME_ROLE ( 'creation_date' ) ;
#225 = AXIS2_PLACEMENT_3D ( 'NONE', #275, #169, #349 ) ;
#226 = ORIENTED_EDGE ( 'NONE', *, *, #305, .F. ) ;
#227 = ORIENTED_EDGE ( 'NONE', *, *, #203, .T. ) ;
#228 = ORIENTED_EDGE ( 'NONE', *, *, #56, .T. ) ;
#229 = COORDINATED_UNIVERSAL_TIME_OFFSET ( 5, 30, .AHEAD. ) ;
#230 = ORIENTED_EDGE ( 'NONE', *, *, #2, .F. ) ;
#231 = EDGE_LOOP ( 'NONE', ( #317, #73 ) ) ;
#232 = ADVANCED_FACE ( 'NONE', ( #353 ), #417, .T. ) ;
#233 = EDGE_LOOP ( 'NONE', ( #141, #266, #162, #34 ) ) ;
#234 = CYLINDRICAL_SURFACE ( 'NONE', #93, 10.00000000000000000 ) ;
#235 = FACE_OUTER_BOUND ( 'NONE', #103, .T. ) ;
#236 = ORIENTED_EDGE ( 'NONE', *, *, #88, .F. ) ;
#237 = EDGE_CURVE ( 'NONE', #444, #424, #262, .T. ) ;
#238 = PLANE ( 'NONE',  #140 ) ;
#239 = VECTOR ( 'NONE', #70, 1000.000000000000000 ) ;
#240 = CARTESIAN_POINT ( 'NONE',  ( 9.184850993605147944E-16, -5.000000000000000000, 7.500000000000000000 ) ) ;
#241 = DIRECTION ( 'NONE',  ( -0.000000000000000000, -0.5000000000000009992, 0.8660254037844380415 ) ) ;
#242 = CC_DESIGN_SECURITY_CLASSIFICATION ( #368, ( #345 ) ) ;
#243 = EDGE_LOOP ( 'NONE', ( #388, #455, #342, #374, #276, #133 ) ) ;
#244 = LINE ( 'NONE', #194, #239 ) ;
#245 = ORIENTED_EDGE ( 'NONE', *, *, #267, .T. ) ;
#246 = DIRECTION ( 'NONE',  ( 0.000000000000000000, 0.000000000000000000, 1.000000000000000000 ) ) ;
#247 = CIRCLE ( 'NONE', #33, 10.00000000000000000 ) ;
#248 = ADVANCED_FACE ( 'NONE', ( #384 ), #106, .T. ) ;
#249 = CARTESIAN_POINT ( 'NONE',  ( 5.527230199078922546, -3.730321473896976325, 8.820368773784919014 ) ) ;
#250 =( NAMED_UNIT ( * ) PLANE_ANGLE_UNIT ( ) SI_UNIT ( $, .RADIAN. ) );
#251 = CARTESIAN_POINT ( 'NONE',  ( -2.889494588880575421, 0.000000000000000000, 3.469446951953614189E-15 ) ) ;
#252 = APPROVAL_ROLE ( '' ) ;
#253 = EDGE_CURVE ( 'NONE', #340, #413, #58, .T. ) ;
#254 =( NAMED_UNIT ( * ) SI_UNIT ( $, .STERADIAN. ) SOLID_ANGLE_UNIT ( ) );
#255 = AXIS2_PLACEMENT_3D ( 'NONE', #263, #36, #216 ) ;
#256 = CARTESIAN_POINT ( 'NONE',  ( 0.000000000000000000, 0.000000000000000000, 0.000000000000000000 ) ) ;
#257 = DESIGN_CONTEXT ( 'detailed design', #113, 'design' ) ;
#258 = COORDINATED_UNIVERSAL_TIME_OFFSET ( 5, 30, .AHEAD. ) ;
#259 = DIRECTION ( 'NONE',  ( -0.000000000000000000, -0.5000000000000009992, 0.8660254037844380415 ) ) ;
#260 = EDGE_CURVE ( 'NONE', #20, #452, #321, .T. ) ;
#261 =( BOUNDED_CURVE ( )  B_SPLINE_CURVE ( 3, ( #12, #292, #85, #8 ),
 .UNSPECIFIED., .F., .F. ) 
 B_SPLINE_CURVE_WITH_KNOTS ( ( 4, 4 ),
 ( 3.141592653589793116, 3.982661324157724003 ),
 .UNSPECIFIED. ) 
 CURVE ( )  GEOMETRIC_REPRESENTATION_ITEM ( )  RATIONAL_B_SPLINE_CURVE ( ( 1.000000000000000000, 0.9419139527835176384, 0.9419139527835176384, 1.000000000000000000 ) ) 
 REPRESENTATION_ITEM ( '' )  );
#262 = CIRCLE ( 'NONE', #188, 10.00000000000000000 ) ;
#263 = CARTESIAN_POINT ( 'NONE',  ( 0.000000000000000000, 3.660254037844370867, 13.66025403784439618 ) ) ;
#264 = ORIENTED_EDGE ( 'NONE', *, *, #315, .T. ) ;
#265 = PERSON_AND_ORGANIZATION ( #116, #408 ) ;
#266 = ORIENTED_EDGE ( 'NONE', *, *, #429, .T. ) ;
#267 = EDGE_CURVE ( 'NONE', #354, #301, #108, .T. ) ;
#268 = APPROVAL_PERSON_ORGANIZATION ( #438, #453, #441 ) ;
#269 = ORIENTED_EDGE ( 'NONE', *, *, #299, .T. ) ;
#270 = SHAPE_DEFINITION_REPRESENTATION ( #335, #48 ) ;
#271 = CC_DESIGN_DATE_AND_TIME_ASSIGNMENT ( #334, #224, ( #9 ) ) ;
#272 = ORIENTED_EDGE ( 'NONE', *, *, #220, .T. ) ;
#273 = LINE ( 'NONE', #445, #5 ) ;
#274 = AXIS2_PLACEMENT_3D ( 'NONE', #394, #81, #358 ) ;
#275 = CARTESIAN_POINT ( 'NONE',  ( 0.000000000000000000, -1.339745962155639791, 22.32050807568877460 ) ) ;
#276 = ORIENTED_EDGE ( 'NONE', *, *, #267, .F. ) ;
#277 = DIRECTION ( 'NONE',  ( 0.000000000000000000, -0.000000000000000000, 1.000000000000000000 ) ) ;
#278 = VERTEX_POINT ( 'NONE', #456 ) ;
#279 = CC_DESIGN_PERSON_AND_ORGANIZATION_ASSIGNMENT ( #222, #366, ( #11 ) ) ;
#280 = DIRECTION ( 'NONE',  ( 0.000000000000000000, -0.8660254037844381525, -0.5000000000000009992 ) ) ;
#281 = CIRCLE ( 'NONE', #76, 10.00000000000000000 ) ;
#282 = ORIENTED_EDGE ( 'NONE', *, *, #49, .T. ) ;
#283 = VECTOR ( 'NONE', #117, 1000.000000000000114 ) ;
#284 = FACE_OUTER_BOUND ( 'NONE', #95, .T. ) ;
#285 = CARTESIAN_POINT ( 'NONE',  ( 0.000000000000000000, -5.000000000000000000, 0.000000000000000000 ) ) ;
#286 = VERTEX_POINT ( 'NONE', #427 ) ;
#287 = CARTESIAN_POINT ( 'NONE',  ( 0.000000000000000000, -10.00000000000000000, 0.000000000000000000 ) ) ;
#288 = DIRECTION ( 'NONE',  ( -0.000000000000000000, -1.000000000000000000, -0.000000000000000000 ) ) ;
#289 = DIRECTION ( 'NONE',  ( 0.000000000000000000, -0.5000000000000009992, 0.8660254037844380415 ) ) ;
#290 = AXIS2_PLACEMENT_3D ( 'NONE', #285, #17, #437 ) ;
#291 = DIRECTION ( 'NONE',  ( 0.000000000000000000, 0.000000000000000000, -1.000000000000000000 ) ) ;
#292 = CARTESIAN_POINT ( 'NONE',  ( -2.889494588880574977, -5.773502691896273298, 10.00000000000000178 ) ) ;
#293 = CARTESIAN_POINT ( 'NONE',  ( 7.453559924999302311, 0.000000000000000000, 6.666666666666662522 ) ) ;
#294 = CARTESIAN_POINT ( 'NONE',  ( 0.000000000000000000, -10.00000000000000000, 10.00000000000000000 ) ) ;
#295 = CARTESIAN_POINT ( 'NONE',  ( 0.000000000000000000, -5.000000000000000000, -7.500000000000000000 ) ) ;
#296 = CIRCLE ( 'NONE', #13, 7.499999999999999112 ) ;
#297 = APPLICATION_PROTOCOL_DEFINITION ( 'international standard', 'config_control_design', 1994, #113 ) ;
#298 = CARTESIAN_POINT ( 'NONE',  ( 0.000000000000000000, -1.339745962155639791, 22.32050807568877815 ) ) ;
#299 = EDGE_CURVE ( 'NONE', #301, #343, #434, .T. ) ;
#300 = CYLINDRICAL_SURFACE ( 'NONE', #255, 7.499999999999999112 ) ;
#301 = VERTEX_POINT ( 'NONE', #38 ) ;
#302 = ORIENTED_EDGE ( 'NONE', *, *, #91, .F. ) ;
#303 = AXIS2_PLACEMENT_3D ( 'NONE', #175, #423, #110 ) ;
#304 = ORIENTED_EDGE ( 'NONE', *, *, #52, .F. ) ;
#305 = EDGE_CURVE ( 'NONE', #424, #206, #35, .T. ) ;
#306 = ORIENTED_EDGE ( 'NONE', *, *, #165, .F. ) ;
#307 = SECURITY_CLASSIFICATION_LEVEL ( 'unclassified' ) ;
#308 = DIRECTION ( 'NONE',  ( 0.000000000000000000, -0.8660254037844381525, -0.5000000000000009992 ) ) ;
#309 = LOCAL_TIME ( 16, 2, 29.00000000000000000, #89 ) ;
#310 = AXIS2_PLACEMENT_3D ( 'NONE', #318, #31, #145 ) ;
#311 = DIRECTION ( 'NONE',  ( 0.000000000000000000, 0.000000000000000000, -1.000000000000000000 ) ) ;
#312 = ORIENTED_EDGE ( 'NONE', *, *, #237, .F. ) ;
#313 = DIRECTION ( 'NONE',  ( -0.000000000000000000, -1.000000000000000000, -0.000000000000000000 ) ) ;
#314 = ORIENTED_EDGE ( 'NONE', *, *, #56, .F. ) ;
#315 = EDGE_CURVE ( 'NONE', #346, #63, #327, .T. ) ;
#316 = CARTESIAN_POINT ( 'NONE',  ( 0.000000000000000000, -5.000000000000000000, 0.000000000000000000 ) ) ;
#317 = ORIENTED_EDGE ( 'NONE', *, *, #52, .T. ) ;
#318 = CARTESIAN_POINT ( 'NONE',  ( 0.000000000000000000, -1.339745962155639791, 22.32050807568877460 ) ) ;
#319 = EDGE_LOOP ( 'NONE', ( #410, #323 ) ) ;
#320 = CARTESIAN_POINT ( 'NONE',  ( 0.000000000000000000, -5.000000000000000000, 0.000000000000000000 ) ) ;
#321 = CIRCLE ( 'NONE', #104, 7.500000000000000000 ) ;
#322 = DIRECTION ( 'NONE',  ( -0.000000000000000000, -0.5000000000000009992, 0.8660254037844381525 ) ) ;
#323 = ORIENTED_EDGE ( 'NONE', *, *, #253, .F. ) ;
#324 = CC_DESIGN_PERSON_AND_ORGANIZATION_ASSIGNMENT ( #265, #442, ( #368 ) ) ;
#325 = CARTESIAN_POINT ( 'NONE',  ( 0.000000000000000000, -10.00000000000000000, -7.500000000000000000 ) ) ;
#326 = DIRECTION ( 'NONE',  ( 0.000000000000000000, -0.5000000000000009992, 0.8660254037844380415 ) ) ;
#327 = LINE ( 'NONE', #147, #283 ) ;
#328 = CARTESIAN_POINT ( 'NONE',  ( 9.184850993605147944E-16, -5.000000000000000000, 7.500000000000000000 ) ) ;
#329 = CARTESIAN_POINT ( 'NONE',  ( 7.453559924999302311, 0.000000000000000000, 6.666666666666662522 ) ) ;
#330 = CARTESIAN_POINT ( 'NONE',  ( 0.000000000000000000, -5.000000000000000000, 0.000000000000000000 ) ) ;
#331 = DATE_AND_TIME ( #364, #199 ) ;
#332 = FACE_OUTER_BOUND ( 'NONE', #29, .T. ) ;
#333 = ADVANCED_FACE ( 'NONE', ( #114 ), #149, .F. ) ;
#334 = DATE_AND_TIME ( #10, #309 ) ;
#335 = PRODUCT_DEFINITION_SHAPE ( 'NONE', 'NONE',  #9 ) ;
#336 = COORDINATED_UNIVERSAL_TIME_OFFSET ( 5, 30, .AHEAD. ) ;
#337 = AXIS2_PLACEMENT_3D ( 'NONE', #387, #59, #448 ) ;
#338 = CC_DESIGN_DATE_AND_TIME_ASSIGNMENT ( #377, #379, ( #368 ) ) ;
#339 = AXIS2_PLACEMENT_3D ( 'NONE', #214, #289, #405 ) ;
#340 = VERTEX_POINT ( 'NONE', #363 ) ;
#341 = COORDINATED_UNIVERSAL_TIME_OFFSET ( 5, 30, .AHEAD. ) ;
#342 = ORIENTED_EDGE ( 'NONE', *, *, #2, .T. ) ;
#343 = VERTEX_POINT ( 'NONE', #43 ) ;
#344 = AXIS2_PLACEMENT_3D ( 'NONE', #361, #326, #375 ) ;
#345 = PRODUCT_DEFINITION_FORMATION_WITH_SPECIFIED_SOURCE ( 'ANY', '', #11, .NOT_KNOWN. ) ;
#346 = VERTEX_POINT ( 'NONE', #153 ) ;
#347 = EDGE_LOOP ( 'NONE', ( #385, #282 ) ) ;
#348 = CARTESIAN_POINT ( 'NONE',  ( 0.000000000000000000, -5.000000000000000000, 0.000000000000000000 ) ) ;
#349 = DIRECTION ( 'NONE',  ( 0.000000000000000000, -0.8660254037844380415, -0.5000000000000009992 ) ) ;
#350 = VECTOR ( 'NONE', #421, 1000.000000000000114 ) ;
#351 = DIRECTION ( 'NONE',  ( 0.000000000000000000, 0.000000000000000000, 1.000000000000000000 ) ) ;
#352 = EDGE_LOOP ( 'NONE', ( #192, #304, #146, #407 ) ) ;
#353 = FACE_OUTER_BOUND ( 'NONE', #231, .T. ) ;
#354 = VERTEX_POINT ( 'NONE', #431 ) ;
#355 = DIRECTION ( 'NONE',  ( -0.000000000000000000, -1.000000000000000000, -0.000000000000000000 ) ) ;
#356 = CC_DESIGN_PERSON_AND_ORGANIZATION_ASSIGNMENT ( #87, #124, ( #9 ) ) ;
#357 = ORIENTED_EDGE ( 'NONE', *, *, #165, .T. ) ;
#358 = DIRECTION ( 'NONE',  ( 0.000000000000000000, 0.000000000000000000, 1.000000000000000000 ) ) ;
#359 = AXIS2_PLACEMENT_3D ( 'NONE', #298, #404, #92 ) ;
#360 = VERTEX_POINT ( 'NONE', #119 ) ;
#361 = CARTESIAN_POINT ( 'NONE',  ( 0.000000000000000000, 8.660254037844381969, 5.000000000000010658 ) ) ;
#362 = CARTESIAN_POINT ( 'NONE',  ( 1.224646799147353256E-15, -10.00000000000000000, -10.00000000000000000 ) ) ;
#363 = CARTESIAN_POINT ( 'NONE',  ( 9.184850993605147944E-16, -10.00000000000000000, 7.500000000000000000 ) ) ;
#364 = CALENDAR_DATE ( 2026, 24, 8 ) ;
#365 = CIRCLE ( 'NONE', #344, 10.00000000000000178 ) ;
#366 = PERSON_AND_ORGANIZATION_ROLE ( 'design_owner' ) ;
#367 = ADVANCED_FACE ( 'NONE', ( #399 ), #183, .T. ) ;
#368 = SECURITY_CLASSIFICATION ( '', '', #307 ) ;
#369 = MANIFOLD_SOLID_BREP ( 'Cut-Extrude3', #131 ) ;
#370 = PERSON_AND_ORGANIZATION ( #116, #408 ) ;
#371 = EDGE_LOOP ( 'NONE', ( #51, #189 ) ) ;
#372 =( GEOMETRIC_REPRESENTATION_CONTEXT ( 3 ) GLOBAL_UNCERTAINTY_ASSIGNED_CONTEXT ( ( #71 ) ) GLOBAL_UNIT_ASSIGNED_CONTEXT ( ( #218, #250, #254 ) ) REPRESENTATION_CONTEXT ( 'NONE', 'WORKASPACE' ) );
#373 = CARTESIAN_POINT ( 'NONE',  ( 0.000000000000000000, -1.339745962155639791, 22.32050807568877460 ) ) ;
#374 = ORIENTED_EDGE ( 'NONE', *, *, #101, .T. ) ;
#375 = DIRECTION ( 'NONE',  ( 0.000000000000000000, -0.8660254037844380415, -0.5000000000000009992 ) ) ;
#376 = CARTESIAN_POINT ( 'NONE',  ( 0.000000000000000000, 7.320508075688741734, 27.32050807568878525 ) ) ;
#377 = DATE_AND_TIME ( #128, #221 ) ;
#378 = ORIENTED_EDGE ( 'NONE', *, *, #414, .T. ) ;
#379 = DATE_TIME_ROLE ( 'classification_date' ) ;
#380 = EDGE_LOOP ( 'NONE', ( #245, #172, #422, #193 ) ) ;
#381 = VECTOR ( 'NONE', #179, 1000.000000000000000 ) ;
#382 = CARTESIAN_POINT ( 'NONE',  ( 9.184850993605147944E-16, 10.15544456622765601, 17.41025403784440329 ) ) ;
#383 = ADVANCED_FACE ( 'NONE', ( #332 ), #178, .T. ) ;
#384 = FACE_OUTER_BOUND ( 'NONE', #380, .T. ) ;
#385 = ORIENTED_EDGE ( 'NONE', *, *, #37, .T. ) ;
#386 = CIRCLE ( 'NONE', #290, 7.500000000000000000 ) ;
#387 = CARTESIAN_POINT ( 'NONE',  ( 0.000000000000000000, -1.339745962155639791, 22.32050807568877815 ) ) ;
#388 = ORIENTED_EDGE ( 'NONE', *, *, #315, .F. ) ;
#389 = CYLINDRICAL_SURFACE ( 'NONE', #50, 7.499999999999999112 ) ;
#390 = DIRECTION ( 'NONE',  ( 0.000000000000000000, 1.000000000000000000, 0.000000000000000000 ) ) ;
#391 = EDGE_CURVE ( 'NONE', #96, #63, #215, .T. ) ;
#392 = FACE_OUTER_BOUND ( 'NONE', #18, .T. ) ;
#393 = ORIENTED_EDGE ( 'NONE', *, *, #120, .T. ) ;
#394 = CARTESIAN_POINT ( 'NONE',  ( 0.000000000000000000, -10.00000000000000000, 0.000000000000000000 ) ) ;
#395 = PLANE ( 'NONE',  #225 ) ;
#396 = CARTESIAN_POINT ( 'NONE',  ( 2.889494588880577197, -5.773502691896270633, 10.00000000000000178 ) ) ;
#397 = AXIS2_PLACEMENT_3D ( 'NONE', #66, #171, #139 ) ;
#398 = DIRECTION ( 'NONE',  ( 0.000000000000000000, -1.000000000000000000, 0.000000000000000000 ) ) ;
#399 = FACE_OUTER_BOUND ( 'NONE', #19, .T. ) ;
#400 = CARTESIAN_POINT ( 'NONE',  ( 1.224646799147353256E-15, -10.00000000000000000, -10.00000000000000000 ) ) ;
#401 = CIRCLE ( 'NONE', #181, 7.499999999999999112 ) ;
#402 = MECHANICAL_CONTEXT ( 'NONE', #186, 'mechanical' ) ;
#403 = EDGE_CURVE ( 'NONE', #413, #340, #54, .T. ) ;
#404 = DIRECTION ( 'NONE',  ( 0.000000000000000000, -0.5000000000000009992, 0.8660254037844381525 ) ) ;
#405 = DIRECTION ( 'NONE',  ( 0.000000000000000000, -0.8660254037844380415, -0.5000000000000009992 ) ) ;
#406 = ORIENTED_EDGE ( 'NONE', *, *, #219, .T. ) ;
#407 = ORIENTED_EDGE ( 'NONE', *, *, #403, .T. ) ;
#408 = ORGANIZATION ( 'UNSPECIFIED', 'UNSPECIFIED', '' ) ;
#409 = AXIS2_PLACEMENT_3D ( 'NONE', #72, #205, #173 ) ;
#410 = ORIENTED_EDGE ( 'NONE', *, *, #403, .F. ) ;
#411 = AXIS2_PLACEMENT_3D ( 'NONE', #287, #7, #246 ) ;
#412 = EDGE_CURVE ( 'NONE', #424, #444, #430, .T. ) ;
#413 = VERTEX_POINT ( 'NONE', #325 ) ;
#414 = EDGE_CURVE ( 'NONE', #63, #354, #261, .T. ) ;
#415 = DIRECTION ( 'NONE',  ( 0.000000000000000000, -1.000000000000000000, 0.000000000000000000 ) ) ;
#416 = APPROVAL ( #47, 'UNSPECIFIED' ) ;
#417 = PLANE ( 'NONE',  #451 ) ;
#418 = LINE ( 'NONE', #198, #350 ) ;
#419 = CARTESIAN_POINT ( 'NONE',  ( 1.224646799147353256E-15, 0.000000000000000000, -10.00000000000000000 ) ) ;
#420 = CARTESIAN_POINT ( 'NONE',  ( 0.000000000000000000, -10.00000000000000000, 0.000000000000000000 ) ) ;
#421 = DIRECTION ( 'NONE',  ( -0.000000000000000000, 0.5000000000000009992, -0.8660254037844380415 ) ) ;
#422 = ORIENTED_EDGE ( 'NONE', *, *, #16, .T. ) ;
#423 = DIRECTION ( 'NONE',  ( 0.000000000000000000, -1.000000000000000000, 0.000000000000000000 ) ) ;
#424 = VERTEX_POINT ( 'NONE', #400 ) ;
#425 = CARTESIAN_POINT ( 'NONE',  ( -7.453559924999302311, 0.000000000000000000, 6.666666666666662522 ) ) ;
#426 = CARTESIAN_POINT ( 'NONE',  ( 5.527230199078922546, 0.000000000000000000, 2.359262452430155754 ) ) ;
#427 = CARTESIAN_POINT ( 'NONE',  ( 9.184850993605147944E-16, 5.155444566227646241, 26.07050807568878881 ) ) ;
#428 = DIRECTION ( 'NONE',  ( 0.000000000000000000, 0.000000000000000000, 1.000000000000000000 ) ) ;
#429 = EDGE_CURVE ( 'NONE', #20, #340, #157, .T. ) ;
#430 = CIRCLE ( 'NONE', #274, 10.00000000000000000 ) ;
#431 = CARTESIAN_POINT ( 'NONE',  ( -7.453559924999302311, 0.000000000000000000, 6.666666666666662522 ) ) ;
#432 = FACE_OUTER_BOUND ( 'NONE', #371, .T. ) ;
#433 = APPROVAL ( #41, 'UNSPECIFIED' ) ;
#434 = CIRCLE ( 'NONE', #123, 10.00000000000000178 ) ;
#435 = CALENDAR_DATE ( 2026, 24, 8 ) ;
#436 = PERSON_AND_ORGANIZATION ( #116, #408 ) ;
#437 = DIRECTION ( 'NONE',  ( 0.000000000000000000, 0.000000000000000000, -1.000000000000000000 ) ) ;
#438 = PERSON_AND_ORGANIZATION ( #116, #408 ) ;
#439 = CIRCLE ( 'NONE', #359, 7.500000000000000888 ) ;
#440 = ORIENTED_EDGE ( 'NONE', *, *, #220, .F. ) ;
#441 = APPROVAL_ROLE ( '' ) ;
#442 = PERSON_AND_ORGANIZATION_ROLE ( 'classification_officer' ) ;
#443 = ORIENTED_EDGE ( 'NONE', *, *, #391, .F. ) ;
#444 = VERTEX_POINT ( 'NONE', #294 ) ;
#445 = CARTESIAN_POINT ( 'NONE',  ( 0.000000000000000000, -5.000000000000000000, -7.500000000000000000 ) ) ;
#446 = ADVANCED_FACE ( 'NONE', ( #432 ), #121, .F. ) ;
#447 = DIRECTION ( 'NONE',  ( 0.000000000000000000, -1.000000000000000000, 0.000000000000000000 ) ) ;
#448 = DIRECTION ( 'NONE',  ( 0.000000000000000000, -0.8660254037844380415, -0.5000000000000007772 ) ) ;
#449 = CARTESIAN_POINT ( 'NONE',  ( 0.000000000000000000, -10.00000000000000000, 0.000000000000000000 ) ) ;
#450 = DIRECTION ( 'NONE',  ( 0.000000000000000000, 1.000000000000000000, 0.000000000000000000 ) ) ;
#451 = AXIS2_PLACEMENT_3D ( 'NONE', #316, #447, #196 ) ;
#452 = VERTEX_POINT ( 'NONE', #295 ) ;
#453 = APPROVAL ( #134, 'UNSPECIFIED' ) ;
#454 = CARTESIAN_POINT ( 'NONE',  ( 0.000000000000000000, -10.00000000000000000, 0.000000000000000000 ) ) ;
#455 = ORIENTED_EDGE ( 'NONE', *, *, #37, .F. ) ;
#456 = CARTESIAN_POINT ( 'NONE',  ( 0.000000000000000000, -7.834936490538925824, 18.57050807568877104 ) ) ;
#457 = CARTESIAN_POINT ( 'NONE',  ( 2.889494588880575865, 0.000000000000000000, 3.469446951953614189E-15 ) ) ;
ENDSEC;
END-ISO-10303-21;
