ISO-10303-21;
HEADER;
FILE_DESCRIPTION (( 'STEP AP214' ),
    '1' );
FILE_NAME ('Box.STEP',
    '2026-08-25T09:00:41',
    ( '' ),
    ( '' ),
    'SwSTEP 2.0',
    'SolidWorks 2020',
    '' );
FILE_SCHEMA (( 'AUTOMOTIVE_DESIGN' ));
ENDSEC;

DATA;
#1 = ADVANCED_FACE ( 'NONE', ( #35 ), #137, .F. ) ;
#2 = CARTESIAN_POINT ( 'NONE',  ( -7.500000000000001776, -7.499999999999996447, 0.000000000000000000 ) ) ;
#3 = MECHANICAL_DESIGN_GEOMETRIC_PRESENTATION_REPRESENTATION (  '', ( #124 ), #32 ) ;
#4 = CARTESIAN_POINT ( 'NONE',  ( -7.500000000000003553, 7.500000000000003553, 2000.000000000000000 ) ) ;
#5 = DIRECTION ( 'NONE',  ( -0.000000000000000000, -0.000000000000000000, -1.000000000000000000 ) ) ;
#6 = EDGE_CURVE ( 'NONE', #76, #120, #180, .T. ) ;
#7 = UNCERTAINTY_MEASURE_WITH_UNIT (LENGTH_MEASURE( 1.000000000000000082E-05 ), #114, 'distance_accuracy_value', 'NONE');
#8 = ADVANCED_FACE ( 'NONE', ( #96 ), #171, .F. ) ;
#9 = FILL_AREA_STYLE_COLOUR ( '', #151 ) ;
#10 = VECTOR ( 'NONE', #116, 1000.000000000000000 ) ;
#11 = DIRECTION ( 'NONE',  ( 1.000000000000000000, 0.000000000000000000, 0.000000000000000000 ) ) ;
#12 = FACE_OUTER_BOUND ( 'NONE', #52, .T. ) ;
#13 = SURFACE_SIDE_STYLE ('',( #17 ) ) ;
#14 = PRESENTATION_LAYER_ASSIGNMENT (  '', '', ( #97 ) ) ;
#15 = VERTEX_POINT ( 'NONE', #83 ) ;
#16 = PRODUCT_CONTEXT ( 'NONE', #23, 'mechanical' ) ;
#17 = SURFACE_STYLE_FILL_AREA ( #44 ) ;
#18 = ORIENTED_EDGE ( 'NONE', *, *, #6, .F. ) ;
#19 = VECTOR ( 'NONE', #5, 1000.000000000000000 ) ;
#20 = EDGE_CURVE ( 'NONE', #76, #131, #130, .T. ) ;
#21 = DIRECTION ( 'NONE',  ( -0.000000000000000000, -0.000000000000000000, -1.000000000000000000 ) ) ;
#22 = DIRECTION ( 'NONE',  ( -0.000000000000000000, -0.000000000000000000, -1.000000000000000000 ) ) ;
#23 = APPLICATION_CONTEXT ( 'automotive_design' ) ;
#24 = DIRECTION ( 'NONE',  ( 1.156482317317871478E-16, -1.000000000000000000, 0.000000000000000000 ) ) ;
#25 =( NAMED_UNIT ( * ) SI_UNIT ( $, .STERADIAN. ) SOLID_ANGLE_UNIT ( ) );
#26 = SURFACE_SIDE_STYLE ('',( #37 ) ) ;
#27 = CARTESIAN_POINT ( 'NONE',  ( -7.500000000000003553, 7.500000000000003553, 0.000000000000000000 ) ) ;
#28 =( NAMED_UNIT ( * ) PLANE_ANGLE_UNIT ( ) SI_UNIT ( $, .RADIAN. ) );
#29 = ORIENTED_EDGE ( 'NONE', *, *, #127, .T. ) ;
#30 = EDGE_LOOP ( 'NONE', ( #70, #201, #50, #178 ) ) ;
#31 = EDGE_LOOP ( 'NONE', ( #78, #119, #29, #62 ) ) ;
#32 =( GEOMETRIC_REPRESENTATION_CONTEXT ( 3 ) GLOBAL_UNCERTAINTY_ASSIGNED_CONTEXT ( ( #95 ) ) GLOBAL_UNIT_ASSIGNED_CONTEXT ( ( #194, #28, #75 ) ) REPRESENTATION_CONTEXT ( 'NONE', 'WORKASPACE' ) );
#33 = CARTESIAN_POINT ( 'NONE',  ( -7.500000000000003553, 7.500000000000003553, 2000.000000000000000 ) ) ;
#34 = VECTOR ( 'NONE', #24, 1000.000000000000000 ) ;
#35 = FACE_OUTER_BOUND ( 'NONE', #30, .T. ) ;
#36 = CARTESIAN_POINT ( 'NONE',  ( 7.499999999999996447, 7.500000000000003553, 2000.000000000000000 ) ) ;
#37 = SURFACE_STYLE_FILL_AREA ( #141 ) ;
#38 = DIRECTION ( 'NONE',  ( -1.156482317317871478E-16, 1.000000000000000000, -0.000000000000000000 ) ) ;
#39 = CARTESIAN_POINT ( 'NONE',  ( 7.499999999999998224, -7.499999999999996447, 2000.000000000000000 ) ) ;
#40 = CARTESIAN_POINT ( 'NONE',  ( 0.000000000000000000, 0.000000000000000000, 0.000000000000000000 ) ) ;
#41 = EDGE_CURVE ( 'NONE', #86, #76, #125, .T. ) ;
#42 = CARTESIAN_POINT ( 'NONE',  ( -7.500000000000003553, 7.500000000000003553, 0.000000000000000000 ) ) ;
#43 = VECTOR ( 'NONE', #38, 1000.000000000000000 ) ;
#44 = FILL_AREA_STYLE ('',( #109 ) ) ;
#45 = APPLICATION_CONTEXT ( 'automotive_design' ) ;
#46 = EDGE_CURVE ( 'NONE', #169, #15, #160, .T. ) ;
#47 = CARTESIAN_POINT ( 'NONE',  ( -7.500000000000001776, -7.499999999999996447, 2000.000000000000000 ) ) ;
#48 = VERTEX_POINT ( 'NONE', #174 ) ;
#49 = DIRECTION ( 'NONE',  ( 0.000000000000000000, -0.000000000000000000, 1.000000000000000000 ) ) ;
#50 = ORIENTED_EDGE ( 'NONE', *, *, #155, .F. ) ;
#51 = VECTOR ( 'NONE', #68, 1000.000000000000000 ) ;
#52 = EDGE_LOOP ( 'NONE', ( #135, #170, #190, #118 ) ) ;
#53 =( GEOMETRIC_REPRESENTATION_CONTEXT ( 3 ) GLOBAL_UNCERTAINTY_ASSIGNED_CONTEXT ( ( #7 ) ) GLOBAL_UNIT_ASSIGNED_CONTEXT ( ( #114, #57, #25 ) ) REPRESENTATION_CONTEXT ( 'NONE', 'WORKASPACE' ) );
#54 = PRODUCT_DEFINITION ( 'UNKNOWN', '', #187, #165 ) ;
#55 = AXIS2_PLACEMENT_3D ( 'NONE', #40, #196, #11 ) ;
#56 = CARTESIAN_POINT ( 'NONE',  ( 7.499999999999998224, -7.499999999999996447, 2000.000000000000000 ) ) ;
#57 =( NAMED_UNIT ( * ) PLANE_ANGLE_UNIT ( ) SI_UNIT ( $, .RADIAN. ) );
#58 = CARTESIAN_POINT ( 'NONE',  ( 0.000000000000000000, 0.000000000000000000, 0.000000000000000000 ) ) ;
#59 = VECTOR ( 'NONE', #192, 1000.000000000000000 ) ;
#60 = ORIENTED_EDGE ( 'NONE', *, *, #188, .T. ) ;
#61 = PRODUCT_RELATED_PRODUCT_CATEGORY ( 'part', '', ( #164 ) ) ;
#62 = ORIENTED_EDGE ( 'NONE', *, *, #155, .T. ) ;
#63 = LINE ( 'NONE', #27, #142 ) ;
#64 = ORIENTED_EDGE ( 'NONE', *, *, #127, .F. ) ;
#65 = DIRECTION ( 'NONE',  ( -1.000000000000000000, -0.000000000000000000, -0.000000000000000000 ) ) ;
#66 = LINE ( 'NONE', #103, #132 ) ;
#67 = DIRECTION ( 'NONE',  ( 1.000000000000000000, 1.156482317317871478E-16, -0.000000000000000000 ) ) ;
#68 = DIRECTION ( 'NONE',  ( 1.000000000000000000, 0.000000000000000000, 0.000000000000000000 ) ) ;
#69 = DIRECTION ( 'NONE',  ( -1.156482317317871478E-16, 1.000000000000000000, 0.000000000000000000 ) ) ;
#70 = ORIENTED_EDGE ( 'NONE', *, *, #80, .T. ) ;
#71 = ORIENTED_EDGE ( 'NONE', *, *, #20, .T. ) ;
#72 = DIRECTION ( 'NONE',  ( -0.000000000000000000, 0.000000000000000000, 1.000000000000000000 ) ) ;
#73 = VECTOR ( 'NONE', #21, 1000.000000000000000 ) ;
#74 = EDGE_LOOP ( 'NONE', ( #60, #139, #18, #71 ) ) ;
#75 =( NAMED_UNIT ( * ) SI_UNIT ( $, .STERADIAN. ) SOLID_ANGLE_UNIT ( ) );
#76 = VERTEX_POINT ( 'NONE', #143 ) ;
#77 = CARTESIAN_POINT ( 'NONE',  ( 0.000000000000000000, 0.000000000000000000, 2000.000000000000000 ) ) ;
#78 = ORIENTED_EDGE ( 'NONE', *, *, #41, .T. ) ;
#79 = VECTOR ( 'NONE', #65, 1000.000000000000000 ) ;
#80 = EDGE_CURVE ( 'NONE', #15, #148, #186, .T. ) ;
#81 = CARTESIAN_POINT ( 'NONE',  ( 7.499999999999996447, 7.500000000000003553, 2000.000000000000000 ) ) ;
#82 = FACE_OUTER_BOUND ( 'NONE', #179, .T. ) ;
#83 = CARTESIAN_POINT ( 'NONE',  ( -7.500000000000001776, -7.499999999999996447, 0.000000000000000000 ) ) ;
#84 = CARTESIAN_POINT ( 'NONE',  ( -7.500000000000003553, 7.500000000000003553, 0.000000000000000000 ) ) ;
#85 = LINE ( 'NONE', #100, #181 ) ;
#86 = VERTEX_POINT ( 'NONE', #39 ) ;
#87 = EDGE_CURVE ( 'NONE', #120, #169, #66, .T. ) ;
#88 = DIRECTION ( 'NONE',  ( 1.156482317317871478E-16, -1.000000000000000000, 0.000000000000000000 ) ) ;
#89 = ORIENTED_EDGE ( 'NONE', *, *, #123, .F. ) ;
#90 = DIRECTION ( 'NONE',  ( 1.000000000000000000, 0.000000000000000000, 0.000000000000000000 ) ) ;
#91 = PLANE ( 'NONE',  #101 ) ;
#92 = ORIENTED_EDGE ( 'NONE', *, *, #46, .T. ) ;
#93 = AXIS2_PLACEMENT_3D ( 'NONE', #77, #72, #90 ) ;
#94 = EDGE_CURVE ( 'NONE', #148, #131, #126, .T. ) ;
#95 = UNCERTAINTY_MEASURE_WITH_UNIT (LENGTH_MEASURE( 1.000000000000000082E-05 ), #194, 'distance_accuracy_value', 'NONE');
#96 = FACE_OUTER_BOUND ( 'NONE', #168, .T. ) ;
#97 = STYLED_ITEM ( 'NONE', ( #183 ), #121 ) ;
#98 = PLANE ( 'NONE',  #162 ) ;
#99 = CARTESIAN_POINT ( 'NONE',  ( -7.500000000000001776, -7.499999999999996447, 2000.000000000000000 ) ) ;
#100 = CARTESIAN_POINT ( 'NONE',  ( -7.500000000000003553, 7.500000000000003553, 2000.000000000000000 ) ) ;
#101 = AXIS2_PLACEMENT_3D ( 'NONE', #58, #167, #107 ) ;
#102 = ADVANCED_FACE ( 'NONE', ( #159 ), #184, .F. ) ;
#103 = CARTESIAN_POINT ( 'NONE',  ( -7.500000000000003553, 7.500000000000003553, 2000.000000000000000 ) ) ;
#104 = ADVANCED_BREP_SHAPE_REPRESENTATION ( 'Box', ( #121, #55 ), #145 ) ;
#105 = SURFACE_STYLE_USAGE ( .BOTH. , #26 ) ;
#106 = CARTESIAN_POINT ( 'NONE',  ( 7.499999999999998224, -7.499999999999996447, 0.000000000000000000 ) ) ;
#107 = DIRECTION ( 'NONE',  ( 1.000000000000000000, 0.000000000000000000, 0.000000000000000000 ) ) ;
#108 =( NAMED_UNIT ( * ) SI_UNIT ( $, .STERADIAN. ) SOLID_ANGLE_UNIT ( ) );
#109 = FILL_AREA_STYLE_COLOUR ( '', #152 ) ;
#110 = PRESENTATION_LAYER_ASSIGNMENT (  '', '', ( #124 ) ) ;
#111 =( LENGTH_UNIT ( ) NAMED_UNIT ( * ) SI_UNIT ( .MILLI., .METRE. ) );
#112 = ORIENTED_EDGE ( 'NONE', *, *, #41, .F. ) ;
#113 = LINE ( 'NONE', #99, #73 ) ;
#114 =( LENGTH_UNIT ( ) NAMED_UNIT ( * ) SI_UNIT ( .MILLI., .METRE. ) );
#115 = DIRECTION ( 'NONE',  ( 0.000000000000000000, -0.000000000000000000, -1.000000000000000000 ) ) ;
#116 = DIRECTION ( 'NONE',  ( -0.000000000000000000, -0.000000000000000000, -1.000000000000000000 ) ) ;
#117 = CARTESIAN_POINT ( 'NONE',  ( 7.499999999999996447, 7.500000000000003553, 0.000000000000000000 ) ) ;
#118 = ORIENTED_EDGE ( 'NONE', *, *, #188, .F. ) ;
#119 = ORIENTED_EDGE ( 'NONE', *, *, #6, .T. ) ;
#120 = VERTEX_POINT ( 'NONE', #153 ) ;
#121 = MANIFOLD_SOLID_BREP ( 'Boss-Extrude1', #202 ) ;
#122 = EDGE_CURVE ( 'NONE', #86, #148, #189, .T. ) ;
#123 = EDGE_CURVE ( 'NONE', #48, #15, #113, .T. ) ;
#124 = STYLED_ITEM ( 'NONE', ( #133 ), #104 ) ;
#125 = LINE ( 'NONE', #154, #193 ) ;
#126 = LINE ( 'NONE', #156, #43 ) ;
#127 = EDGE_CURVE ( 'NONE', #120, #48, #85, .T. ) ;
#128 = UNCERTAINTY_MEASURE_WITH_UNIT (LENGTH_MEASURE( 1.000000000000000082E-05 ), #111, 'distance_accuracy_value', 'NONE');
#129 = DIRECTION ( 'NONE',  ( -1.156482317317871478E-16, 1.000000000000000000, -0.000000000000000000 ) ) ;
#130 = LINE ( 'NONE', #36, #19 ) ;
#131 = VERTEX_POINT ( 'NONE', #117 ) ;
#132 = VECTOR ( 'NONE', #22, 1000.000000000000000 ) ;
#133 = PRESENTATION_STYLE_ASSIGNMENT (( #166 ) ) ;
#134 = APPLICATION_PROTOCOL_DEFINITION ( 'draft international standard', 'automotive_design', 1998, #45 ) ;
#135 = ORIENTED_EDGE ( 'NONE', *, *, #94, .F. ) ;
#136 = APPLICATION_PROTOCOL_DEFINITION ( 'draft international standard', 'automotive_design', 1998, #23 ) ;
#137 = PLANE ( 'NONE',  #200 ) ;
#138 = AXIS2_PLACEMENT_3D ( 'NONE', #4, #67, #69 ) ;
#139 = ORIENTED_EDGE ( 'NONE', *, *, #87, .F. ) ;
#140 = DIRECTION ( 'NONE',  ( -1.000000000000000000, -1.156482317317871478E-16, 0.000000000000000000 ) ) ;
#141 = FILL_AREA_STYLE ('',( #9 ) ) ;
#142 = VECTOR ( 'NONE', #163, 1000.000000000000000 ) ;
#143 = CARTESIAN_POINT ( 'NONE',  ( 7.499999999999996447, 7.500000000000003553, 2000.000000000000000 ) ) ;
#144 = DIRECTION ( 'NONE',  ( 1.156482317317871478E-16, -1.000000000000000000, 0.000000000000000000 ) ) ;
#145 =( GEOMETRIC_REPRESENTATION_CONTEXT ( 3 ) GLOBAL_UNCERTAINTY_ASSIGNED_CONTEXT ( ( #128 ) ) GLOBAL_UNIT_ASSIGNED_CONTEXT ( ( #111, #198, #108 ) ) REPRESENTATION_CONTEXT ( 'NONE', 'WORKASPACE' ) );
#146 = ADVANCED_FACE ( 'NONE', ( #82 ), #98, .F. ) ;
#147 = DIRECTION ( 'NONE',  ( 0.000000000000000000, 1.000000000000000000, 0.000000000000000000 ) ) ;
#148 = VERTEX_POINT ( 'NONE', #106 ) ;
#149 = ORIENTED_EDGE ( 'NONE', *, *, #94, .T. ) ;
#150 = ORIENTED_EDGE ( 'NONE', *, *, #122, .T. ) ;
#151 = COLOUR_RGB ( '',0.7921568627450980005, 0.8196078431372548767, 0.9333333333333333481 ) ;
#152 = COLOUR_RGB ( '',0.7921568627450980005, 0.8196078431372548767, 0.9333333333333333481 ) ;
#153 = CARTESIAN_POINT ( 'NONE',  ( -7.500000000000003553, 7.500000000000003553, 2000.000000000000000 ) ) ;
#154 = CARTESIAN_POINT ( 'NONE',  ( 7.499999999999996447, 7.500000000000003553, 2000.000000000000000 ) ) ;
#155 = EDGE_CURVE ( 'NONE', #48, #86, #161, .T. ) ;
#156 = CARTESIAN_POINT ( 'NONE',  ( 7.499999999999996447, 7.500000000000003553, 0.000000000000000000 ) ) ;
#157 = MECHANICAL_DESIGN_GEOMETRIC_PRESENTATION_REPRESENTATION (  '', ( #97 ), #53 ) ;
#158 = PRODUCT_DEFINITION_SHAPE ( 'NONE', 'NONE',  #54 ) ;
#159 = FACE_OUTER_BOUND ( 'NONE', #74, .T. ) ;
#160 = LINE ( 'NONE', #84, #34 ) ;
#161 = LINE ( 'NONE', #47, #59 ) ;
#162 = AXIS2_PLACEMENT_3D ( 'NONE', #81, #140, #88 ) ;
#163 = DIRECTION ( 'NONE',  ( -1.000000000000000000, -0.000000000000000000, -0.000000000000000000 ) ) ;
#164 = PRODUCT ( 'Box', 'Box', '', ( #16 ) ) ;
#165 = PRODUCT_DEFINITION_CONTEXT ( 'detailed design', #45, 'design' ) ;
#166 = SURFACE_STYLE_USAGE ( .BOTH. , #13 ) ;
#167 = DIRECTION ( 'NONE',  ( -0.000000000000000000, 0.000000000000000000, 1.000000000000000000 ) ) ;
#168 = EDGE_LOOP ( 'NONE', ( #92, #89, #64, #195 ) ) ;
#169 = VERTEX_POINT ( 'NONE', #42 ) ;
#170 = ORIENTED_EDGE ( 'NONE', *, *, #80, .F. ) ;
#171 = PLANE ( 'NONE',  #138 ) ;
#172 = AXIS2_PLACEMENT_3D ( 'NONE', #173, #182, #115 ) ;
#173 = CARTESIAN_POINT ( 'NONE',  ( -7.500000000000003553, 7.500000000000003553, 2000.000000000000000 ) ) ;
#174 = CARTESIAN_POINT ( 'NONE',  ( -7.500000000000001776, -7.499999999999996447, 2000.000000000000000 ) ) ;
#175 = PLANE ( 'NONE',  #93 ) ;
#176 = ADVANCED_FACE ( 'NONE', ( #12 ), #91, .F. ) ;
#177 = FACE_OUTER_BOUND ( 'NONE', #31, .T. ) ;
#178 = ORIENTED_EDGE ( 'NONE', *, *, #123, .T. ) ;
#179 = EDGE_LOOP ( 'NONE', ( #149, #197, #112, #150 ) ) ;
#180 = LINE ( 'NONE', #33, #79 ) ;
#181 = VECTOR ( 'NONE', #144, 1000.000000000000000 ) ;
#182 = DIRECTION ( 'NONE',  ( 0.000000000000000000, -1.000000000000000000, 0.000000000000000000 ) ) ;
#183 = PRESENTATION_STYLE_ASSIGNMENT (( #105 ) ) ;
#184 = PLANE ( 'NONE',  #172 ) ;
#185 = ADVANCED_FACE ( 'NONE', ( #177 ), #175, .T. ) ;
#186 = LINE ( 'NONE', #2, #51 ) ;
#187 = PRODUCT_DEFINITION_FORMATION_WITH_SPECIFIED_SOURCE ( 'ANY', '', #164, .NOT_KNOWN. ) ;
#188 = EDGE_CURVE ( 'NONE', #131, #169, #63, .T. ) ;
#189 = LINE ( 'NONE', #56, #10 ) ;
#190 = ORIENTED_EDGE ( 'NONE', *, *, #46, .F. ) ;
#191 = SHAPE_DEFINITION_REPRESENTATION ( #158, #104 ) ;
#192 = DIRECTION ( 'NONE',  ( 1.000000000000000000, 0.000000000000000000, 0.000000000000000000 ) ) ;
#193 = VECTOR ( 'NONE', #129, 1000.000000000000000 ) ;
#194 =( LENGTH_UNIT ( ) NAMED_UNIT ( * ) SI_UNIT ( .MILLI., .METRE. ) );
#195 = ORIENTED_EDGE ( 'NONE', *, *, #87, .T. ) ;
#196 = DIRECTION ( 'NONE',  ( 0.000000000000000000, 0.000000000000000000, 1.000000000000000000 ) ) ;
#197 = ORIENTED_EDGE ( 'NONE', *, *, #20, .F. ) ;
#198 =( NAMED_UNIT ( * ) PLANE_ANGLE_UNIT ( ) SI_UNIT ( $, .RADIAN. ) );
#199 = CARTESIAN_POINT ( 'NONE',  ( -7.500000000000001776, -7.499999999999996447, 2000.000000000000000 ) ) ;
#200 = AXIS2_PLACEMENT_3D ( 'NONE', #199, #147, #49 ) ;
#201 = ORIENTED_EDGE ( 'NONE', *, *, #122, .F. ) ;
#202 = CLOSED_SHELL ( 'NONE', ( #146, #102, #8, #1, #185, #176 ) ) ;
ENDSEC;
END-ISO-10303-21;
