ISO-10303-21;
HEADER;
FILE_DESCRIPTION (( 'STEP AP214' ),
    '1' );
FILE_NAME ('Cable_100cm_30cm_diameter.STEP',
    '2026-08-29T16:37:46',
    ( '' ),
    ( '' ),
    'SwSTEP 2.0',
    'SolidWorks 2020',
    '' );
FILE_SCHEMA (( 'AUTOMOTIVE_DESIGN' ));
ENDSEC;

DATA;
#1 = EDGE_CURVE ( 'NONE', #34, #106, #89, .T. ) ;
#2 = AXIS2_PLACEMENT_3D ( 'NONE', #110, #111, #53 ) ;
#3 = SURFACE_STYLE_USAGE ( .BOTH. , #71 ) ;
#4 = CARTESIAN_POINT ( 'NONE',  ( 0.000000000000000000, 0.000000000000000000, 2000.000000000000000 ) ) ;
#5 = CARTESIAN_POINT ( 'NONE',  ( 15.00000000000000000, 1.836970198721029589E-15, 2000.000000000000000 ) ) ;
#6 = CIRCLE ( 'NONE', #49, 15.00000000000000000 ) ;
#7 = CARTESIAN_POINT ( 'NONE',  ( 0.000000000000000000, 0.000000000000000000, 2000.000000000000000 ) ) ;
#8 =( NAMED_UNIT ( * ) PLANE_ANGLE_UNIT ( ) SI_UNIT ( $, .RADIAN. ) );
#9 = VERTEX_POINT ( 'NONE', #5 ) ;
#10 = ADVANCED_FACE ( 'NONE', ( #50 ), #78, .T. ) ;
#11 = ORIENTED_EDGE ( 'NONE', *, *, #17, .T. ) ;
#12 = ORIENTED_EDGE ( 'NONE', *, *, #1, .F. ) ;
#13 =( LENGTH_UNIT ( ) NAMED_UNIT ( * ) SI_UNIT ( .MILLI., .METRE. ) );
#14 = DIRECTION ( 'NONE',  ( 1.000000000000000000, 0.000000000000000000, 0.000000000000000000 ) ) ;
#15 = CARTESIAN_POINT ( 'NONE',  ( -15.00000000000000000, 0.000000000000000000, 2000.000000000000000 ) ) ;
#16 = LINE ( 'NONE', #80, #108 ) ;
#17 = EDGE_CURVE ( 'NONE', #9, #52, #18, .T. ) ;
#18 = CIRCLE ( 'NONE', #95, 15.00000000000000000 ) ;
#19 = CARTESIAN_POINT ( 'NONE',  ( 0.000000000000000000, 0.000000000000000000, 0.000000000000000000 ) ) ;
#20 = CARTESIAN_POINT ( 'NONE',  ( -15.00000000000000000, 0.000000000000000000, 0.000000000000000000 ) ) ;
#21 = DIRECTION ( 'NONE',  ( 0.000000000000000000, 0.000000000000000000, 1.000000000000000000 ) ) ;
#22 = PRESENTATION_LAYER_ASSIGNMENT (  '', '', ( #77 ) ) ;
#23 = EDGE_LOOP ( 'NONE', ( #12, #33 ) ) ;
#24 = DIRECTION ( 'NONE',  ( -0.000000000000000000, -0.000000000000000000, -1.000000000000000000 ) ) ;
#25 = FACE_OUTER_BOUND ( 'NONE', #97, .T. ) ;
#26 = DIRECTION ( 'NONE',  ( -0.000000000000000000, -0.000000000000000000, -1.000000000000000000 ) ) ;
#27 = DIRECTION ( 'NONE',  ( 1.000000000000000000, 0.000000000000000000, 0.000000000000000000 ) ) ;
#28 = AXIS2_PLACEMENT_3D ( 'NONE', #115, #104, #118 ) ;
#29 = DIRECTION ( 'NONE',  ( -0.000000000000000000, -0.000000000000000000, -1.000000000000000000 ) ) ;
#30 = SURFACE_STYLE_FILL_AREA ( #131 ) ;
#31 = PRESENTATION_LAYER_ASSIGNMENT (  '', '', ( #132 ) ) ;
#32 = ORIENTED_EDGE ( 'NONE', *, *, #40, .T. ) ;
#33 = ORIENTED_EDGE ( 'NONE', *, *, #40, .F. ) ;
#34 = VERTEX_POINT ( 'NONE', #20 ) ;
#35 = PRODUCT_DEFINITION_FORMATION_WITH_SPECIFIED_SOURCE ( 'ANY', '', #45, .NOT_KNOWN. ) ;
#36 = CIRCLE ( 'NONE', #139, 15.00000000000000000 ) ;
#37 = FACE_OUTER_BOUND ( 'NONE', #23, .T. ) ;
#38 = CLOSED_SHELL ( 'NONE', ( #10, #134, #122, #57 ) ) ;
#39 = ORIENTED_EDGE ( 'NONE', *, *, #17, .F. ) ;
#40 = EDGE_CURVE ( 'NONE', #106, #34, #36, .T. ) ;
#41 = VECTOR ( 'NONE', #26, 1000.000000000000000 ) ;
#42 = PRODUCT_RELATED_PRODUCT_CATEGORY ( 'part', '', ( #45 ) ) ;
#43 = CARTESIAN_POINT ( 'NONE',  ( -15.00000000000000000, 0.000000000000000000, 2000.000000000000000 ) ) ;
#44 =( LENGTH_UNIT ( ) NAMED_UNIT ( * ) SI_UNIT ( .MILLI., .METRE. ) );
#45 = PRODUCT ( 'Cable_100cm_30cm_diameter', 'Cable_100cm_30cm_diameter', '', ( #58 ) ) ;
#46 = PLANE ( 'NONE',  #129 ) ;
#47 = ORIENTED_EDGE ( 'NONE', *, *, #112, .T. ) ;
#48 = UNCERTAINTY_MEASURE_WITH_UNIT (LENGTH_MEASURE( 1.000000000000000082E-05 ), #140, 'distance_accuracy_value', 'NONE');
#49 = AXIS2_PLACEMENT_3D ( 'NONE', #138, #65, #27 ) ;
#50 = FACE_OUTER_BOUND ( 'NONE', #96, .T. ) ;
#51 = APPLICATION_PROTOCOL_DEFINITION ( 'draft international standard', 'automotive_design', 1998, #107 ) ;
#52 = VERTEX_POINT ( 'NONE', #15 ) ;
#53 = DIRECTION ( 'NONE',  ( 1.000000000000000000, 0.000000000000000000, 0.000000000000000000 ) ) ;
#54 = DIRECTION ( 'NONE',  ( 0.000000000000000000, 0.000000000000000000, 1.000000000000000000 ) ) ;
#55 = FILL_AREA_STYLE_COLOUR ( '', #136 ) ;
#56 = CYLINDRICAL_SURFACE ( 'NONE', #28, 15.00000000000000000 ) ;
#57 = ADVANCED_FACE ( 'NONE', ( #37 ), #84, .F. ) ;
#58 = PRODUCT_CONTEXT ( 'NONE', #92, 'mechanical' ) ;
#59 = ORIENTED_EDGE ( 'NONE', *, *, #60, .T. ) ;
#60 = EDGE_CURVE ( 'NONE', #9, #106, #16, .T. ) ;
#61 = ORIENTED_EDGE ( 'NONE', *, *, #60, .F. ) ;
#62 = DIRECTION ( 'NONE',  ( -1.000000000000000000, 0.000000000000000000, 0.000000000000000000 ) ) ;
#63 =( GEOMETRIC_REPRESENTATION_CONTEXT ( 3 ) GLOBAL_UNCERTAINTY_ASSIGNED_CONTEXT ( ( #102 ) ) GLOBAL_UNIT_ASSIGNED_CONTEXT ( ( #13, #8, #105 ) ) REPRESENTATION_CONTEXT ( 'NONE', 'WORKASPACE' ) );
#64 = FILL_AREA_STYLE ('',( #55 ) ) ;
#65 = DIRECTION ( 'NONE',  ( 0.000000000000000000, 0.000000000000000000, 1.000000000000000000 ) ) ;
#66 = MECHANICAL_DESIGN_GEOMETRIC_PRESENTATION_REPRESENTATION (  '', ( #77 ), #83 ) ;
#67 =( NAMED_UNIT ( * ) PLANE_ANGLE_UNIT ( ) SI_UNIT ( $, .RADIAN. ) );
#68 = SURFACE_SIDE_STYLE ('',( #113 ) ) ;
#69 = PRODUCT_DEFINITION_CONTEXT ( 'detailed design', #107, 'design' ) ;
#70 = SURFACE_STYLE_USAGE ( .BOTH. , #68 ) ;
#71 = SURFACE_SIDE_STYLE ('',( #30 ) ) ;
#72 = SHAPE_DEFINITION_REPRESENTATION ( #88, #135 ) ;
#73 = PRESENTATION_STYLE_ASSIGNMENT (( #3 ) ) ;
#74 = DIRECTION ( 'NONE',  ( 0.000000000000000000, 0.000000000000000000, 1.000000000000000000 ) ) ;
#75 = APPLICATION_PROTOCOL_DEFINITION ( 'draft international standard', 'automotive_design', 1998, #92 ) ;
#76 = ORIENTED_EDGE ( 'NONE', *, *, #112, .F. ) ;
#77 = STYLED_ITEM ( 'NONE', ( #101 ), #125 ) ;
#78 = CYLINDRICAL_SURFACE ( 'NONE', #79, 15.00000000000000000 ) ;
#79 = AXIS2_PLACEMENT_3D ( 'NONE', #119, #24, #62 ) ;
#80 = CARTESIAN_POINT ( 'NONE',  ( 15.00000000000000000, 1.836970198721029589E-15, 2000.000000000000000 ) ) ;
#81 =( NAMED_UNIT ( * ) SI_UNIT ( $, .STERADIAN. ) SOLID_ANGLE_UNIT ( ) );
#82 = UNCERTAINTY_MEASURE_WITH_UNIT (LENGTH_MEASURE( 1.000000000000000082E-05 ), #44, 'distance_accuracy_value', 'NONE');
#83 =( GEOMETRIC_REPRESENTATION_CONTEXT ( 3 ) GLOBAL_UNCERTAINTY_ASSIGNED_CONTEXT ( ( #48 ) ) GLOBAL_UNIT_ASSIGNED_CONTEXT ( ( #140, #126, #81 ) ) REPRESENTATION_CONTEXT ( 'NONE', 'WORKASPACE' ) );
#84 = PLANE ( 'NONE',  #116 ) ;
#85 = FILL_AREA_STYLE_COLOUR ( '', #121 ) ;
#86 = DIRECTION ( 'NONE',  ( 1.000000000000000000, 0.000000000000000000, 0.000000000000000000 ) ) ;
#87 = EDGE_LOOP ( 'NONE', ( #61, #76, #120, #98 ) ) ;
#88 = PRODUCT_DEFINITION_SHAPE ( 'NONE', 'NONE',  #99 ) ;
#89 = CIRCLE ( 'NONE', #2, 15.00000000000000000 ) ;
#90 = LINE ( 'NONE', #43, #41 ) ;
#91 = CARTESIAN_POINT ( 'NONE',  ( 0.000000000000000000, 0.000000000000000000, 0.000000000000000000 ) ) ;
#92 = APPLICATION_CONTEXT ( 'automotive_design' ) ;
#93 = DIRECTION ( 'NONE',  ( 0.000000000000000000, 0.000000000000000000, 1.000000000000000000 ) ) ;
#94 =( GEOMETRIC_REPRESENTATION_CONTEXT ( 3 ) GLOBAL_UNCERTAINTY_ASSIGNED_CONTEXT ( ( #82 ) ) GLOBAL_UNIT_ASSIGNED_CONTEXT ( ( #44, #67, #114 ) ) REPRESENTATION_CONTEXT ( 'NONE', 'WORKASPACE' ) );
#95 = AXIS2_PLACEMENT_3D ( 'NONE', #4, #74, #86 ) ;
#96 = EDGE_LOOP ( 'NONE', ( #39, #59, #32, #123 ) ) ;
#97 = EDGE_LOOP ( 'NONE', ( #47, #11 ) ) ;
#98 = ORIENTED_EDGE ( 'NONE', *, *, #1, .T. ) ;
#99 = PRODUCT_DEFINITION ( 'UNKNOWN', '', #35, #69 ) ;
#100 = DIRECTION ( 'NONE',  ( 0.000000000000000000, 0.000000000000000000, 1.000000000000000000 ) ) ;
#101 = PRESENTATION_STYLE_ASSIGNMENT (( #70 ) ) ;
#102 = UNCERTAINTY_MEASURE_WITH_UNIT (LENGTH_MEASURE( 1.000000000000000082E-05 ), #13, 'distance_accuracy_value', 'NONE');
#103 = DIRECTION ( 'NONE',  ( 1.000000000000000000, 0.000000000000000000, -0.000000000000000000 ) ) ;
#104 = DIRECTION ( 'NONE',  ( -0.000000000000000000, -0.000000000000000000, -1.000000000000000000 ) ) ;
#105 =( NAMED_UNIT ( * ) SI_UNIT ( $, .STERADIAN. ) SOLID_ANGLE_UNIT ( ) );
#106 = VERTEX_POINT ( 'NONE', #127 ) ;
#107 = APPLICATION_CONTEXT ( 'automotive_design' ) ;
#108 = VECTOR ( 'NONE', #29, 1000.000000000000000 ) ;
#109 = DIRECTION ( 'NONE',  ( 1.000000000000000000, 0.000000000000000000, 0.000000000000000000 ) ) ;
#110 = CARTESIAN_POINT ( 'NONE',  ( 0.000000000000000000, 0.000000000000000000, 0.000000000000000000 ) ) ;
#111 = DIRECTION ( 'NONE',  ( 0.000000000000000000, 0.000000000000000000, 1.000000000000000000 ) ) ;
#112 = EDGE_CURVE ( 'NONE', #52, #9, #6, .T. ) ;
#113 = SURFACE_STYLE_FILL_AREA ( #64 ) ;
#114 =( NAMED_UNIT ( * ) SI_UNIT ( $, .STERADIAN. ) SOLID_ANGLE_UNIT ( ) );
#115 = CARTESIAN_POINT ( 'NONE',  ( 0.000000000000000000, 0.000000000000000000, 2000.000000000000000 ) ) ;
#116 = AXIS2_PLACEMENT_3D ( 'NONE', #19, #54, #130 ) ;
#117 = EDGE_CURVE ( 'NONE', #52, #34, #90, .T. ) ;
#118 = DIRECTION ( 'NONE',  ( -1.000000000000000000, 0.000000000000000000, 0.000000000000000000 ) ) ;
#119 = CARTESIAN_POINT ( 'NONE',  ( 0.000000000000000000, 0.000000000000000000, 2000.000000000000000 ) ) ;
#120 = ORIENTED_EDGE ( 'NONE', *, *, #117, .T. ) ;
#121 = COLOUR_RGB ( '',0.7921568627450980005, 0.8196078431372548767, 0.9333333333333333481 ) ;
#122 = ADVANCED_FACE ( 'NONE', ( #25 ), #46, .T. ) ;
#123 = ORIENTED_EDGE ( 'NONE', *, *, #117, .F. ) ;
#124 = AXIS2_PLACEMENT_3D ( 'NONE', #91, #100, #14 ) ;
#125 = MANIFOLD_SOLID_BREP ( 'Boss-Extrude1', #38 ) ;
#126 =( NAMED_UNIT ( * ) PLANE_ANGLE_UNIT ( ) SI_UNIT ( $, .RADIAN. ) );
#127 = CARTESIAN_POINT ( 'NONE',  ( 15.00000000000000000, 1.836970198721029589E-15, 0.000000000000000000 ) ) ;
#128 = FACE_OUTER_BOUND ( 'NONE', #87, .T. ) ;
#129 = AXIS2_PLACEMENT_3D ( 'NONE', #7, #93, #103 ) ;
#130 = DIRECTION ( 'NONE',  ( 1.000000000000000000, 0.000000000000000000, -0.000000000000000000 ) ) ;
#131 = FILL_AREA_STYLE ('',( #85 ) ) ;
#132 = STYLED_ITEM ( 'NONE', ( #73 ), #135 ) ;
#133 = CARTESIAN_POINT ( 'NONE',  ( 0.000000000000000000, 0.000000000000000000, 0.000000000000000000 ) ) ;
#134 = ADVANCED_FACE ( 'NONE', ( #128 ), #56, .T. ) ;
#135 = ADVANCED_BREP_SHAPE_REPRESENTATION ( 'Cable_100cm_30cm_diameter', ( #125, #124 ), #63 ) ;
#136 = COLOUR_RGB ( '',0.7921568627450980005, 0.8196078431372548767, 0.9333333333333333481 ) ;
#137 = MECHANICAL_DESIGN_GEOMETRIC_PRESENTATION_REPRESENTATION (  '', ( #132 ), #94 ) ;
#138 = CARTESIAN_POINT ( 'NONE',  ( 0.000000000000000000, 0.000000000000000000, 2000.000000000000000 ) ) ;
#139 = AXIS2_PLACEMENT_3D ( 'NONE', #133, #21, #109 ) ;
#140 =( LENGTH_UNIT ( ) NAMED_UNIT ( * ) SI_UNIT ( .MILLI., .METRE. ) );
ENDSEC;
END-ISO-10303-21;
