ISO-10303-21;
HEADER;
FILE_DESCRIPTION (( 'STEP AP203' ),
    '1' );
FILE_NAME ('Cable_100_long_sldprt.STEP',
    '2026-08-24T10:32:31',
    ( '' ),
    ( '' ),
    'SwSTEP 2.0',
    'SolidWorks 2020',
    '' );
FILE_SCHEMA (( 'CONFIG_CONTROL_DESIGN' ));
ENDSEC;

DATA;
#1 = APPLICATION_PROTOCOL_DEFINITION ( 'international standard', 'config_control_design', 1994, #172 ) ;
#2 = APPROVAL_ROLE ( '' ) ;
#3 = CALENDAR_DATE ( 2026, 24, 8 ) ;
#4 = FACE_OUTER_BOUND ( 'NONE', #16, .T. ) ;
#5 = EDGE_LOOP ( 'NONE', ( #7, #163, #79, #93 ) ) ;
#6 = CARTESIAN_POINT ( 'NONE',  ( 7.500000000000000000, 9.184850993605147944E-16, 0.000000000000000000 ) ) ;
#7 = ORIENTED_EDGE ( 'NONE', *, *, #56, .F. ) ;
#8 = CIRCLE ( 'NONE', #113, 7.500000000000000000 ) ;
#9 = PRODUCT_RELATED_PRODUCT_CATEGORY ( 'detail', '', ( #29 ) ) ;
#10 = DIRECTION ( 'NONE',  ( 0.000000000000000000, 0.000000000000000000, 1.000000000000000000 ) ) ;
#11 = APPLICATION_PROTOCOL_DEFINITION ( 'international standard', 'config_control_design', 1994, #25 ) ;
#12 = APPROVAL_DATE_TIME ( #152, #175 ) ;
#13 = LOCAL_TIME ( 16, 2, 31.00000000000000000, #119 ) ;
#14 = FACE_OUTER_BOUND ( 'NONE', #108, .T. ) ;
#15 = APPROVAL_STATUS ( 'not_yet_approved' ) ;
#16 = EDGE_LOOP ( 'NONE', ( #91, #146 ) ) ;
#17 = ADVANCED_FACE ( 'NONE', ( #75 ), #171, .F. ) ;
#18 = DIRECTION ( 'NONE',  ( -0.000000000000000000, -0.000000000000000000, -1.000000000000000000 ) ) ;
#19 = ORIENTED_EDGE ( 'NONE', *, *, #87, .F. ) ;
#20 = APPROVAL_PERSON_ORGANIZATION ( #116, #22, #67 ) ;
#21 = PRODUCT_DEFINITION_FORMATION_WITH_SPECIFIED_SOURCE ( 'ANY', '', #29, .NOT_KNOWN. ) ;
#22 = APPROVAL ( #40, 'UNSPECIFIED' ) ;
#23 = PERSON_AND_ORGANIZATION ( #99, #70 ) ;
#24 = PERSON_AND_ORGANIZATION ( #99, #70 ) ;
#25 = APPLICATION_CONTEXT ( 'configuration controlled 3d designs of mechanical parts and assemblies' ) ;
#26 = CC_DESIGN_PERSON_AND_ORGANIZATION_ASSIGNMENT ( #74, #105, ( #83 ) ) ;
#27 = CYLINDRICAL_SURFACE ( 'NONE', #80, 7.500000000000000000 ) ;
#28 = CC_DESIGN_APPROVAL ( #129, ( #83 ) ) ;
#29 = PRODUCT ( 'Cable_100_long_sldprt', 'Cable_100_long_sldprt', '', ( #32 ) ) ;
#30 = PRODUCT_DEFINITION ( 'UNKNOWN', '', #21, #159 ) ;
#31 = ORIENTED_EDGE ( 'NONE', *, *, #56, .T. ) ;
#32 = MECHANICAL_CONTEXT ( 'NONE', #25, 'mechanical' ) ;
#33 = CIRCLE ( 'NONE', #141, 7.500000000000000000 ) ;
#34 = SHAPE_DEFINITION_REPRESENTATION ( #117, #46 ) ;
#35 = DIRECTION ( 'NONE',  ( 1.000000000000000000, 0.000000000000000000, 0.000000000000000000 ) ) ;
#36 = DIRECTION ( 'NONE',  ( 0.000000000000000000, 0.000000000000000000, 1.000000000000000000 ) ) ;
#37 = CLOSED_SHELL ( 'NONE', ( #150, #155, #100, #17 ) ) ;
#38 = EDGE_CURVE ( 'NONE', #148, #136, #145, .T. ) ;
#39 = APPROVAL_DATE_TIME ( #164, #22 ) ;
#40 = APPROVAL_STATUS ( 'not_yet_approved' ) ;
#41 = APPROVAL_PERSON_ORGANIZATION ( #72, #175, #167 ) ;
#42 = DIRECTION ( 'NONE',  ( -0.000000000000000000, -0.000000000000000000, -1.000000000000000000 ) ) ;
#43 = CC_DESIGN_DATE_AND_TIME_ASSIGNMENT ( #47, #169, ( #83 ) ) ;
#44 = CC_DESIGN_SECURITY_CLASSIFICATION ( #83, ( #21 ) ) ;
#45 = APPROVAL_STATUS ( 'not_yet_approved' ) ;
#46 = ADVANCED_BREP_SHAPE_REPRESENTATION ( 'Cable_100_long_sldprt', ( #54, #174 ), #149 ) ;
#47 = DATE_AND_TIME ( #59, #95 ) ;
#48 = DATE_AND_TIME ( #3, #13 ) ;
#49 = CARTESIAN_POINT ( 'NONE',  ( 0.000000000000000000, 0.000000000000000000, 2000.000000000000000 ) ) ;
#50 = AXIS2_PLACEMENT_3D ( 'NONE', #53, #133, #137 ) ;
#51 = CARTESIAN_POINT ( 'NONE',  ( -7.500000000000000000, 0.000000000000000000, 2000.000000000000000 ) ) ;
#52 = ORIENTED_EDGE ( 'NONE', *, *, #38, .F. ) ;
#53 = CARTESIAN_POINT ( 'NONE',  ( 0.000000000000000000, 0.000000000000000000, 0.000000000000000000 ) ) ;
#54 = MANIFOLD_SOLID_BREP ( 'Boss-Extrude1', #37 ) ;
#55 = DATE_TIME_ROLE ( 'creation_date' ) ;
#56 = EDGE_CURVE ( 'NONE', #96, #148, #160, .T. ) ;
#57 = DIRECTION ( 'NONE',  ( -1.000000000000000000, 0.000000000000000000, 0.000000000000000000 ) ) ;
#58 = VECTOR ( 'NONE', #18, 1000.000000000000000 ) ;
#59 = CALENDAR_DATE ( 2026, 24, 8 ) ;
#60 = DIRECTION ( 'NONE',  ( 0.000000000000000000, 0.000000000000000000, 1.000000000000000000 ) ) ;
#61 = COORDINATED_UNIVERSAL_TIME_OFFSET ( 5, 30, .AHEAD. ) ;
#62 = CARTESIAN_POINT ( 'NONE',  ( 0.000000000000000000, 0.000000000000000000, 0.000000000000000000 ) ) ;
#63 = EDGE_LOOP ( 'NONE', ( #19, #52 ) ) ;
#64 = EDGE_CURVE ( 'NONE', #110, #96, #156, .T. ) ;
#65 = DIRECTION ( 'NONE',  ( 1.000000000000000000, 0.000000000000000000, 0.000000000000000000 ) ) ;
#66 = AXIS2_PLACEMENT_3D ( 'NONE', #166, #101, #57 ) ;
#67 = APPROVAL_ROLE ( '' ) ;
#68 =( LENGTH_UNIT ( ) NAMED_UNIT ( * ) SI_UNIT ( .MILLI., .METRE. ) );
#69 = FACE_OUTER_BOUND ( 'NONE', #5, .T. ) ;
#70 = ORGANIZATION ( 'UNSPECIFIED', 'UNSPECIFIED', '' ) ;
#71 = CC_DESIGN_PERSON_AND_ORGANIZATION_ASSIGNMENT ( #23, #81, ( #21 ) ) ;
#72 = PERSON_AND_ORGANIZATION ( #99, #70 ) ;
#73 = CC_DESIGN_APPROVAL ( #22, ( #21 ) ) ;
#74 = PERSON_AND_ORGANIZATION ( #99, #70 ) ;
#75 = FACE_OUTER_BOUND ( 'NONE', #63, .T. ) ;
#76 = CC_DESIGN_PERSON_AND_ORGANIZATION_ASSIGNMENT ( #97, #151, ( #21 ) ) ;
#77 = CARTESIAN_POINT ( 'NONE',  ( 7.500000000000000000, 9.184850993605147944E-16, 2000.000000000000000 ) ) ;
#78 = ORIENTED_EDGE ( 'NONE', *, *, #38, .T. ) ;
#79 = ORIENTED_EDGE ( 'NONE', *, *, #132, .T. ) ;
#80 = AXIS2_PLACEMENT_3D ( 'NONE', #173, #42, #85 ) ;
#81 = PERSON_AND_ORGANIZATION_ROLE ( 'design_supplier' ) ;
#82 = PERSON_AND_ORGANIZATION_ROLE ( 'creator' ) ;
#83 = SECURITY_CLASSIFICATION ( '', '', #139 ) ;
#84 =( NAMED_UNIT ( * ) SI_UNIT ( $, .STERADIAN. ) SOLID_ANGLE_UNIT ( ) );
#85 = DIRECTION ( 'NONE',  ( -1.000000000000000000, 0.000000000000000000, 0.000000000000000000 ) ) ;
#86 = AXIS2_PLACEMENT_3D ( 'NONE', #49, #10, #112 ) ;
#87 = EDGE_CURVE ( 'NONE', #136, #148, #33, .T. ) ;
#88 = CC_DESIGN_PERSON_AND_ORGANIZATION_ASSIGNMENT ( #24, #82, ( #30 ) ) ;
#89 = DIRECTION ( 'NONE',  ( -0.000000000000000000, -0.000000000000000000, -1.000000000000000000 ) ) ;
#90 = DIRECTION ( 'NONE',  ( 1.000000000000000000, 0.000000000000000000, -0.000000000000000000 ) ) ;
#91 = ORIENTED_EDGE ( 'NONE', *, *, #64, .T. ) ;
#92 = DIRECTION ( 'NONE',  ( 1.000000000000000000, 0.000000000000000000, 0.000000000000000000 ) ) ;
#93 = ORIENTED_EDGE ( 'NONE', *, *, #87, .T. ) ;
#94 = LOCAL_TIME ( 16, 2, 31.00000000000000000, #131 ) ;
#95 = LOCAL_TIME ( 16, 2, 31.00000000000000000, #61 ) ;
#96 = VERTEX_POINT ( 'NONE', #77 ) ;
#97 = PERSON_AND_ORGANIZATION ( #99, #70 ) ;
#98 = CC_DESIGN_DATE_AND_TIME_ASSIGNMENT ( #114, #55, ( #30 ) ) ;
#99 = PERSON ( 'UNSPECIFIED', 'UNSPECIFIED', 'UNSPECIFIED', ('UNSPECIFIED'), ('UNSPECIFIED'), ('UNSPECIFIED') ) ;
#100 = ADVANCED_FACE ( 'NONE', ( #4 ), #123, .T. ) ;
#101 = DIRECTION ( 'NONE',  ( -0.000000000000000000, -0.000000000000000000, -1.000000000000000000 ) ) ;
#102 = APPROVAL_PERSON_ORGANIZATION ( #144, #129, #2 ) ;
#103 = PERSON_AND_ORGANIZATION_ROLE ( 'design_owner' ) ;
#104 = CALENDAR_DATE ( 2026, 24, 8 ) ;
#105 = PERSON_AND_ORGANIZATION_ROLE ( 'classification_officer' ) ;
#106 = APPROVAL_DATE_TIME ( #48, #129 ) ;
#107 = CARTESIAN_POINT ( 'NONE',  ( 0.000000000000000000, 0.000000000000000000, 0.000000000000000000 ) ) ;
#108 = EDGE_LOOP ( 'NONE', ( #122, #31, #78, #143 ) ) ;
#109 = CARTESIAN_POINT ( 'NONE',  ( 0.000000000000000000, 0.000000000000000000, 2000.000000000000000 ) ) ;
#110 = VERTEX_POINT ( 'NONE', #51 ) ;
#111 = LINE ( 'NONE', #147, #58 ) ;
#112 = DIRECTION ( 'NONE',  ( 1.000000000000000000, 0.000000000000000000, 0.000000000000000000 ) ) ;
#113 = AXIS2_PLACEMENT_3D ( 'NONE', #162, #36, #92 ) ;
#114 = DATE_AND_TIME ( #140, #142 ) ;
#115 = EDGE_CURVE ( 'NONE', #96, #110, #8, .T. ) ;
#116 = PERSON_AND_ORGANIZATION ( #99, #70 ) ;
#117 = PRODUCT_DEFINITION_SHAPE ( 'NONE', 'NONE',  #30 ) ;
#118 = PERSON_AND_ORGANIZATION ( #99, #70 ) ;
#119 = COORDINATED_UNIVERSAL_TIME_OFFSET ( 5, 30, .AHEAD. ) ;
#120 = CARTESIAN_POINT ( 'NONE',  ( 7.500000000000000000, 9.184850993605147944E-16, 2000.000000000000000 ) ) ;
#121 = DIRECTION ( 'NONE',  ( 0.000000000000000000, 0.000000000000000000, 1.000000000000000000 ) ) ;
#122 = ORIENTED_EDGE ( 'NONE', *, *, #115, .F. ) ;
#123 = PLANE ( 'NONE',  #130 ) ;
#124 = CALENDAR_DATE ( 2026, 24, 8 ) ;
#125 = COORDINATED_UNIVERSAL_TIME_OFFSET ( 5, 30, .AHEAD. ) ;
#126 = COORDINATED_UNIVERSAL_TIME_OFFSET ( 5, 30, .AHEAD. ) ;
#127 = CC_DESIGN_PERSON_AND_ORGANIZATION_ASSIGNMENT ( #118, #103, ( #29 ) ) ;
#128 = CC_DESIGN_APPROVAL ( #175, ( #30 ) ) ;
#129 = APPROVAL ( #15, 'UNSPECIFIED' ) ;
#130 = AXIS2_PLACEMENT_3D ( 'NONE', #109, #121, #170 ) ;
#131 = COORDINATED_UNIVERSAL_TIME_OFFSET ( 5, 30, .AHEAD. ) ;
#132 = EDGE_CURVE ( 'NONE', #110, #136, #111, .T. ) ;
#133 = DIRECTION ( 'NONE',  ( 0.000000000000000000, 0.000000000000000000, 1.000000000000000000 ) ) ;
#134 = CARTESIAN_POINT ( 'NONE',  ( 0.000000000000000000, 0.000000000000000000, 0.000000000000000000 ) ) ;
#135 = CARTESIAN_POINT ( 'NONE',  ( -7.500000000000000000, 0.000000000000000000, 0.000000000000000000 ) ) ;
#136 = VERTEX_POINT ( 'NONE', #135 ) ;
#137 = DIRECTION ( 'NONE',  ( 1.000000000000000000, 0.000000000000000000, 0.000000000000000000 ) ) ;
#138 = DIRECTION ( 'NONE',  ( 0.000000000000000000, 0.000000000000000000, 1.000000000000000000 ) ) ;
#139 = SECURITY_CLASSIFICATION_LEVEL ( 'unclassified' ) ;
#140 = CALENDAR_DATE ( 2026, 24, 8 ) ;
#141 = AXIS2_PLACEMENT_3D ( 'NONE', #107, #161, #35 ) ;
#142 = LOCAL_TIME ( 16, 2, 31.00000000000000000, #125 ) ;
#143 = ORIENTED_EDGE ( 'NONE', *, *, #132, .F. ) ;
#144 = PERSON_AND_ORGANIZATION ( #99, #70 ) ;
#145 = CIRCLE ( 'NONE', #50, 7.500000000000000000 ) ;
#146 = ORIENTED_EDGE ( 'NONE', *, *, #115, .T. ) ;
#147 = CARTESIAN_POINT ( 'NONE',  ( -7.500000000000000000, 0.000000000000000000, 2000.000000000000000 ) ) ;
#148 = VERTEX_POINT ( 'NONE', #6 ) ;
#149 =( GEOMETRIC_REPRESENTATION_CONTEXT ( 3 ) GLOBAL_UNCERTAINTY_ASSIGNED_CONTEXT ( ( #157 ) ) GLOBAL_UNIT_ASSIGNED_CONTEXT ( ( #68, #154, #84 ) ) REPRESENTATION_CONTEXT ( 'NONE', 'WORKASPACE' ) );
#150 = ADVANCED_FACE ( 'NONE', ( #14 ), #27, .T. ) ;
#151 = PERSON_AND_ORGANIZATION_ROLE ( 'creator' ) ;
#152 = DATE_AND_TIME ( #104, #94 ) ;
#153 = VECTOR ( 'NONE', #89, 1000.000000000000000 ) ;
#154 =( NAMED_UNIT ( * ) PLANE_ANGLE_UNIT ( ) SI_UNIT ( $, .RADIAN. ) );
#155 = ADVANCED_FACE ( 'NONE', ( #69 ), #165, .T. ) ;
#156 = CIRCLE ( 'NONE', #86, 7.500000000000000000 ) ;
#157 = UNCERTAINTY_MEASURE_WITH_UNIT (LENGTH_MEASURE( 1.000000000000000082E-05 ), #68, 'distance_accuracy_value', 'NONE');
#158 = AXIS2_PLACEMENT_3D ( 'NONE', #134, #60, #90 ) ;
#159 = DESIGN_CONTEXT ( 'detailed design', #172, 'design' ) ;
#160 = LINE ( 'NONE', #120, #153 ) ;
#161 = DIRECTION ( 'NONE',  ( 0.000000000000000000, 0.000000000000000000, 1.000000000000000000 ) ) ;
#162 = CARTESIAN_POINT ( 'NONE',  ( 0.000000000000000000, 0.000000000000000000, 2000.000000000000000 ) ) ;
#163 = ORIENTED_EDGE ( 'NONE', *, *, #64, .F. ) ;
#164 = DATE_AND_TIME ( #124, #168 ) ;
#165 = CYLINDRICAL_SURFACE ( 'NONE', #66, 7.500000000000000000 ) ;
#166 = CARTESIAN_POINT ( 'NONE',  ( 0.000000000000000000, 0.000000000000000000, 2000.000000000000000 ) ) ;
#167 = APPROVAL_ROLE ( '' ) ;
#168 = LOCAL_TIME ( 16, 2, 31.00000000000000000, #126 ) ;
#169 = DATE_TIME_ROLE ( 'classification_date' ) ;
#170 = DIRECTION ( 'NONE',  ( 1.000000000000000000, 0.000000000000000000, -0.000000000000000000 ) ) ;
#171 = PLANE ( 'NONE',  #158 ) ;
#172 = APPLICATION_CONTEXT ( 'configuration controlled 3d designs of mechanical parts and assemblies' ) ;
#173 = CARTESIAN_POINT ( 'NONE',  ( 0.000000000000000000, 0.000000000000000000, 2000.000000000000000 ) ) ;
#174 = AXIS2_PLACEMENT_3D ( 'NONE', #62, #138, #65 ) ;
#175 = APPROVAL ( #45, 'UNSPECIFIED' ) ;
ENDSEC;
END-ISO-10303-21;
