ISO-10303-21;
HEADER;
FILE_DESCRIPTION (( 'STEP AP203' ),
    '1' );
FILE_NAME ('Cable_Default_sldprt.STEP',
    '2026-08-24T10:32:36',
    ( '' ),
    ( '' ),
    'SwSTEP 2.0',
    'SolidWorks 2020',
    '' );
FILE_SCHEMA (( 'CONFIG_CONTROL_DESIGN' ));
ENDSEC;

DATA;
#1 = PERSON_AND_ORGANIZATION_ROLE ( 'design_supplier' ) ;
#2 = CARTESIAN_POINT ( 'NONE',  ( 0.000000000000000000, 0.000000000000000000, 1500.000000000000000 ) ) ;
#3 = PRODUCT_DEFINITION_SHAPE ( 'NONE', 'NONE',  #39 ) ;
#4 = DIRECTION ( 'NONE',  ( -1.000000000000000000, 0.000000000000000000, 0.000000000000000000 ) ) ;
#5 = LOCAL_TIME ( 16, 2, 36.00000000000000000, #172 ) ;
#6 = CARTESIAN_POINT ( 'NONE',  ( 0.000000000000000000, 0.000000000000000000, 1500.000000000000000 ) ) ;
#7 = APPROVAL_DATE_TIME ( #141, #150 ) ;
#8 = ORIENTED_EDGE ( 'NONE', *, *, #90, .T. ) ;
#9 = CARTESIAN_POINT ( 'NONE',  ( -7.500000000000000000, 0.000000000000000000, 1500.000000000000000 ) ) ;
#10 = EDGE_LOOP ( 'NONE', ( #153, #128, #54, #38 ) ) ;
#11 = AXIS2_PLACEMENT_3D ( 'NONE', #15, #97, #71 ) ;
#12 = DIRECTION ( 'NONE',  ( 1.000000000000000000, 0.000000000000000000, 0.000000000000000000 ) ) ;
#13 =( GEOMETRIC_REPRESENTATION_CONTEXT ( 3 ) GLOBAL_UNCERTAINTY_ASSIGNED_CONTEXT ( ( #135 ) ) GLOBAL_UNIT_ASSIGNED_CONTEXT ( ( #161, #106, #147 ) ) REPRESENTATION_CONTEXT ( 'NONE', 'WORKASPACE' ) );
#14 = PERSON_AND_ORGANIZATION ( #57, #76 ) ;
#15 = CARTESIAN_POINT ( 'NONE',  ( 0.000000000000000000, 0.000000000000000000, 1500.000000000000000 ) ) ;
#16 = DATE_AND_TIME ( #145, #95 ) ;
#17 = DIRECTION ( 'NONE',  ( 1.000000000000000000, 0.000000000000000000, 0.000000000000000000 ) ) ;
#18 = PERSON_AND_ORGANIZATION_ROLE ( 'classification_officer' ) ;
#19 = PRODUCT_DEFINITION_FORMATION_WITH_SPECIFIED_SOURCE ( 'ANY', '', #48, .NOT_KNOWN. ) ;
#20 = VECTOR ( 'NONE', #130, 1000.000000000000000 ) ;
#21 = FACE_OUTER_BOUND ( 'NONE', #93, .T. ) ;
#22 = CARTESIAN_POINT ( 'NONE',  ( -7.500000000000000000, 0.000000000000000000, 0.000000000000000000 ) ) ;
#23 = APPROVAL_PERSON_ORGANIZATION ( #25, #132, #42 ) ;
#24 = LINE ( 'NONE', #9, #20 ) ;
#25 = PERSON_AND_ORGANIZATION ( #57, #76 ) ;
#26 = APPROVAL_STATUS ( 'not_yet_approved' ) ;
#27 = CALENDAR_DATE ( 2026, 24, 8 ) ;
#28 = DESIGN_CONTEXT ( 'detailed design', #32, 'design' ) ;
#29 = SECURITY_CLASSIFICATION ( '', '', #86 ) ;
#30 = CC_DESIGN_PERSON_AND_ORGANIZATION_ASSIGNMENT ( #158, #44, ( #19 ) ) ;
#31 = FACE_OUTER_BOUND ( 'NONE', #10, .T. ) ;
#32 = APPLICATION_CONTEXT ( 'configuration controlled 3d designs of mechanical parts and assemblies' ) ;
#33 = EDGE_CURVE ( 'NONE', #100, #68, #24, .T. ) ;
#34 = DIRECTION ( 'NONE',  ( 1.000000000000000000, 0.000000000000000000, -0.000000000000000000 ) ) ;
#35 = SHAPE_DEFINITION_REPRESENTATION ( #3, #81 ) ;
#36 = EDGE_LOOP ( 'NONE', ( #101, #112 ) ) ;
#37 = LOCAL_TIME ( 16, 2, 36.00000000000000000, #175 ) ;
#38 = ORIENTED_EDGE ( 'NONE', *, *, #162, .T. ) ;
#39 = PRODUCT_DEFINITION ( 'UNKNOWN', '', #19, #28 ) ;
#40 = MANIFOLD_SOLID_BREP ( 'Boss-Extrude1', #67 ) ;
#41 = PERSON_AND_ORGANIZATION ( #57, #76 ) ;
#42 = APPROVAL_ROLE ( '' ) ;
#43 = PERSON_AND_ORGANIZATION ( #57, #76 ) ;
#44 = PERSON_AND_ORGANIZATION_ROLE ( 'creator' ) ;
#45 = CARTESIAN_POINT ( 'NONE',  ( 7.500000000000000000, 9.184850993605147944E-16, 1500.000000000000000 ) ) ;
#46 = LOCAL_TIME ( 16, 2, 36.00000000000000000, #69 ) ;
#47 = COORDINATED_UNIVERSAL_TIME_OFFSET ( 5, 30, .AHEAD. ) ;
#48 = PRODUCT ( 'Cable_Default_sldprt', 'Cable_Default_sldprt', '', ( #134 ) ) ;
#49 = DIRECTION ( 'NONE',  ( 1.000000000000000000, 0.000000000000000000, 0.000000000000000000 ) ) ;
#50 = CC_DESIGN_PERSON_AND_ORGANIZATION_ASSIGNMENT ( #87, #1, ( #19 ) ) ;
#51 = PLANE ( 'NONE',  #124 ) ;
#52 = CALENDAR_DATE ( 2026, 24, 8 ) ;
#53 = CARTESIAN_POINT ( 'NONE',  ( 0.000000000000000000, 0.000000000000000000, 0.000000000000000000 ) ) ;
#54 = ORIENTED_EDGE ( 'NONE', *, *, #33, .T. ) ;
#55 = VECTOR ( 'NONE', #160, 1000.000000000000000 ) ;
#56 = LINE ( 'NONE', #45, #55 ) ;
#57 = PERSON ( 'UNSPECIFIED', 'UNSPECIFIED', 'UNSPECIFIED', ('UNSPECIFIED'), ('UNSPECIFIED'), ('UNSPECIFIED') ) ;
#58 = PERSON_AND_ORGANIZATION_ROLE ( 'creator' ) ;
#59 = AXIS2_PLACEMENT_3D ( 'NONE', #117, #156, #12 ) ;
#60 = CALENDAR_DATE ( 2026, 24, 8 ) ;
#61 = DIRECTION ( 'NONE',  ( -0.000000000000000000, -0.000000000000000000, -1.000000000000000000 ) ) ;
#62 = APPROVAL_PERSON_ORGANIZATION ( #14, #75, #146 ) ;
#63 = PLANE ( 'NONE',  #149 ) ;
#64 = DIRECTION ( 'NONE',  ( -0.000000000000000000, -0.000000000000000000, -1.000000000000000000 ) ) ;
#65 = PRODUCT_RELATED_PRODUCT_CATEGORY ( 'detail', '', ( #48 ) ) ;
#66 = CARTESIAN_POINT ( 'NONE',  ( 7.500000000000000000, 9.184850993605147944E-16, 0.000000000000000000 ) ) ;
#67 = CLOSED_SHELL ( 'NONE', ( #129, #116, #155, #103 ) ) ;
#68 = VERTEX_POINT ( 'NONE', #22 ) ;
#69 = COORDINATED_UNIVERSAL_TIME_OFFSET ( 5, 30, .AHEAD. ) ;
#70 = DATE_AND_TIME ( #27, #5 ) ;
#71 = DIRECTION ( 'NONE',  ( 1.000000000000000000, 0.000000000000000000, 0.000000000000000000 ) ) ;
#72 = CARTESIAN_POINT ( 'NONE',  ( 7.500000000000000000, 9.184850993605147944E-16, 1500.000000000000000 ) ) ;
#73 = DATE_AND_TIME ( #60, #37 ) ;
#74 = AXIS2_PLACEMENT_3D ( 'NONE', #126, #120, #17 ) ;
#75 = APPROVAL ( #26, 'UNSPECIFIED' ) ;
#76 = ORGANIZATION ( 'UNSPECIFIED', 'UNSPECIFIED', '' ) ;
#77 = CYLINDRICAL_SURFACE ( 'NONE', #92, 7.500000000000000000 ) ;
#78 = DIRECTION ( 'NONE',  ( 0.000000000000000000, 0.000000000000000000, 1.000000000000000000 ) ) ;
#79 = CC_DESIGN_APPROVAL ( #150, ( #29 ) ) ;
#80 = ORIENTED_EDGE ( 'NONE', *, *, #33, .F. ) ;
#81 = ADVANCED_BREP_SHAPE_REPRESENTATION ( 'Cable_Default_sldprt', ( #40, #59 ), #13 ) ;
#82 = APPLICATION_PROTOCOL_DEFINITION ( 'international standard', 'config_control_design', 1994, #32 ) ;
#83 = CC_DESIGN_PERSON_AND_ORGANIZATION_ASSIGNMENT ( #41, #115, ( #48 ) ) ;
#84 = CC_DESIGN_SECURITY_CLASSIFICATION ( #29, ( #19 ) ) ;
#85 = APPROVAL_DATE_TIME ( #119, #132 ) ;
#86 = SECURITY_CLASSIFICATION_LEVEL ( 'unclassified' ) ;
#87 = PERSON_AND_ORGANIZATION ( #57, #76 ) ;
#88 = CC_DESIGN_PERSON_AND_ORGANIZATION_ASSIGNMENT ( #43, #58, ( #39 ) ) ;
#89 = DIRECTION ( 'NONE',  ( -1.000000000000000000, 0.000000000000000000, 0.000000000000000000 ) ) ;
#90 = EDGE_CURVE ( 'NONE', #170, #100, #109, .T. ) ;
#91 = ORIENTED_EDGE ( 'NONE', *, *, #148, .T. ) ;
#92 = AXIS2_PLACEMENT_3D ( 'NONE', #165, #64, #89 ) ;
#93 = EDGE_LOOP ( 'NONE', ( #113, #167, #91, #80 ) ) ;
#94 = CC_DESIGN_PERSON_AND_ORGANIZATION_ASSIGNMENT ( #122, #18, ( #29 ) ) ;
#95 = LOCAL_TIME ( 16, 2, 36.00000000000000000, #96 ) ;
#96 = COORDINATED_UNIVERSAL_TIME_OFFSET ( 5, 30, .AHEAD. ) ;
#97 = DIRECTION ( 'NONE',  ( 0.000000000000000000, 0.000000000000000000, 1.000000000000000000 ) ) ;
#98 = AXIS2_PLACEMENT_3D ( 'NONE', #6, #166, #99 ) ;
#99 = DIRECTION ( 'NONE',  ( 1.000000000000000000, 0.000000000000000000, 0.000000000000000000 ) ) ;
#100 = VERTEX_POINT ( 'NONE', #114 ) ;
#101 = ORIENTED_EDGE ( 'NONE', *, *, #162, .F. ) ;
#102 = CC_DESIGN_DATE_AND_TIME_ASSIGNMENT ( #73, #164, ( #29 ) ) ;
#103 = ADVANCED_FACE ( 'NONE', ( #168 ), #63, .F. ) ;
#104 = CC_DESIGN_APPROVAL ( #75, ( #19 ) ) ;
#105 = APPROVAL_STATUS ( 'not_yet_approved' ) ;
#106 =( NAMED_UNIT ( * ) PLANE_ANGLE_UNIT ( ) SI_UNIT ( $, .RADIAN. ) );
#107 = DATE_TIME_ROLE ( 'creation_date' ) ;
#108 = AXIS2_PLACEMENT_3D ( 'NONE', #2, #61, #4 ) ;
#109 = CIRCLE ( 'NONE', #98, 7.500000000000000000 ) ;
#110 = CARTESIAN_POINT ( 'NONE',  ( 0.000000000000000000, 0.000000000000000000, 0.000000000000000000 ) ) ;
#111 = FACE_OUTER_BOUND ( 'NONE', #131, .T. ) ;
#112 = ORIENTED_EDGE ( 'NONE', *, *, #148, .F. ) ;
#113 = ORIENTED_EDGE ( 'NONE', *, *, #90, .F. ) ;
#114 = CARTESIAN_POINT ( 'NONE',  ( -7.500000000000000000, 0.000000000000000000, 1500.000000000000000 ) ) ;
#115 = PERSON_AND_ORGANIZATION_ROLE ( 'design_owner' ) ;
#116 = ADVANCED_FACE ( 'NONE', ( #31 ), #139, .T. ) ;
#117 = CARTESIAN_POINT ( 'NONE',  ( 0.000000000000000000, 0.000000000000000000, 0.000000000000000000 ) ) ;
#118 = APPROVAL_DATE_TIME ( #70, #75 ) ;
#119 = DATE_AND_TIME ( #144, #46 ) ;
#120 = DIRECTION ( 'NONE',  ( 0.000000000000000000, 0.000000000000000000, 1.000000000000000000 ) ) ;
#121 = APPROVAL_STATUS ( 'not_yet_approved' ) ;
#122 = PERSON_AND_ORGANIZATION ( #57, #76 ) ;
#123 = DIRECTION ( 'NONE',  ( 1.000000000000000000, 0.000000000000000000, -0.000000000000000000 ) ) ;
#124 = AXIS2_PLACEMENT_3D ( 'NONE', #140, #151, #34 ) ;
#125 = DIRECTION ( 'NONE',  ( 0.000000000000000000, 0.000000000000000000, 1.000000000000000000 ) ) ;
#126 = CARTESIAN_POINT ( 'NONE',  ( 0.000000000000000000, 0.000000000000000000, 0.000000000000000000 ) ) ;
#127 = CC_DESIGN_APPROVAL ( #132, ( #39 ) ) ;
#128 = ORIENTED_EDGE ( 'NONE', *, *, #173, .F. ) ;
#129 = ADVANCED_FACE ( 'NONE', ( #21 ), #77, .T. ) ;
#130 = DIRECTION ( 'NONE',  ( -0.000000000000000000, -0.000000000000000000, -1.000000000000000000 ) ) ;
#131 = EDGE_LOOP ( 'NONE', ( #143, #8 ) ) ;
#132 = APPROVAL ( #105, 'UNSPECIFIED' ) ;
#133 = APPLICATION_PROTOCOL_DEFINITION ( 'international standard', 'config_control_design', 1994, #159 ) ;
#134 = MECHANICAL_CONTEXT ( 'NONE', #159, 'mechanical' ) ;
#135 = UNCERTAINTY_MEASURE_WITH_UNIT (LENGTH_MEASURE( 1.000000000000000082E-05 ), #161, 'distance_accuracy_value', 'NONE');
#136 = CC_DESIGN_DATE_AND_TIME_ASSIGNMENT ( #16, #107, ( #39 ) ) ;
#137 = PERSON_AND_ORGANIZATION ( #57, #76 ) ;
#138 = CIRCLE ( 'NONE', #174, 7.500000000000000000 ) ;
#139 = CYLINDRICAL_SURFACE ( 'NONE', #108, 7.500000000000000000 ) ;
#140 = CARTESIAN_POINT ( 'NONE',  ( 0.000000000000000000, 0.000000000000000000, 1500.000000000000000 ) ) ;
#141 = DATE_AND_TIME ( #52, #154 ) ;
#142 = CIRCLE ( 'NONE', #11, 7.500000000000000000 ) ;
#143 = ORIENTED_EDGE ( 'NONE', *, *, #173, .T. ) ;
#144 = CALENDAR_DATE ( 2026, 24, 8 ) ;
#145 = CALENDAR_DATE ( 2026, 24, 8 ) ;
#146 = APPROVAL_ROLE ( '' ) ;
#147 =( NAMED_UNIT ( * ) SI_UNIT ( $, .STERADIAN. ) SOLID_ANGLE_UNIT ( ) );
#148 = EDGE_CURVE ( 'NONE', #152, #68, #138, .T. ) ;
#149 = AXIS2_PLACEMENT_3D ( 'NONE', #53, #78, #123 ) ;
#150 = APPROVAL ( #121, 'UNSPECIFIED' ) ;
#151 = DIRECTION ( 'NONE',  ( 0.000000000000000000, 0.000000000000000000, 1.000000000000000000 ) ) ;
#152 = VERTEX_POINT ( 'NONE', #66 ) ;
#153 = ORIENTED_EDGE ( 'NONE', *, *, #171, .F. ) ;
#154 = LOCAL_TIME ( 16, 2, 36.00000000000000000, #47 ) ;
#155 = ADVANCED_FACE ( 'NONE', ( #111 ), #51, .T. ) ;
#156 = DIRECTION ( 'NONE',  ( 0.000000000000000000, 0.000000000000000000, 1.000000000000000000 ) ) ;
#157 = CIRCLE ( 'NONE', #74, 7.500000000000000000 ) ;
#158 = PERSON_AND_ORGANIZATION ( #57, #76 ) ;
#159 = APPLICATION_CONTEXT ( 'configuration controlled 3d designs of mechanical parts and assemblies' ) ;
#160 = DIRECTION ( 'NONE',  ( -0.000000000000000000, -0.000000000000000000, -1.000000000000000000 ) ) ;
#161 =( LENGTH_UNIT ( ) NAMED_UNIT ( * ) SI_UNIT ( .MILLI., .METRE. ) );
#162 = EDGE_CURVE ( 'NONE', #68, #152, #157, .T. ) ;
#163 = APPROVAL_ROLE ( '' ) ;
#164 = DATE_TIME_ROLE ( 'classification_date' ) ;
#165 = CARTESIAN_POINT ( 'NONE',  ( 0.000000000000000000, 0.000000000000000000, 1500.000000000000000 ) ) ;
#166 = DIRECTION ( 'NONE',  ( 0.000000000000000000, 0.000000000000000000, 1.000000000000000000 ) ) ;
#167 = ORIENTED_EDGE ( 'NONE', *, *, #171, .T. ) ;
#168 = FACE_OUTER_BOUND ( 'NONE', #36, .T. ) ;
#169 = APPROVAL_PERSON_ORGANIZATION ( #137, #150, #163 ) ;
#170 = VERTEX_POINT ( 'NONE', #72 ) ;
#171 = EDGE_CURVE ( 'NONE', #170, #152, #56, .T. ) ;
#172 = COORDINATED_UNIVERSAL_TIME_OFFSET ( 5, 30, .AHEAD. ) ;
#173 = EDGE_CURVE ( 'NONE', #100, #170, #142, .T. ) ;
#174 = AXIS2_PLACEMENT_3D ( 'NONE', #110, #125, #49 ) ;
#175 = COORDINATED_UNIVERSAL_TIME_OFFSET ( 5, 30, .AHEAD. ) ;
ENDSEC;
END-ISO-10303-21;
