ISO-10303-21;
HEADER;
FILE_DESCRIPTION (( 'STEP AP203' ),
    '1' );
FILE_NAME ('Cable_50_long_sldprt.STEP',
    '2026-08-24T10:32:34',
    ( '' ),
    ( '' ),
    'SwSTEP 2.0',
    'SolidWorks 2020',
    '' );
FILE_SCHEMA (( 'CONFIG_CONTROL_DESIGN' ));
ENDSEC;

DATA;
#1 = VERTEX_POINT ( 'NONE', #8 ) ;
#2 = DATE_TIME_ROLE ( 'classification_date' ) ;
#3 = VECTOR ( 'NONE', #88, 1000.000000000000000 ) ;
#4 = VERTEX_POINT ( 'NONE', #87 ) ;
#5 = SHAPE_DEFINITION_REPRESENTATION ( #134, #139 ) ;
#6 = LINE ( 'NONE', #169, #60 ) ;
#7 = CYLINDRICAL_SURFACE ( 'NONE', #44, 7.500000000000000000 ) ;
#8 = CARTESIAN_POINT ( 'NONE',  ( 7.500000000000000000, 9.184850993605147944E-16, 0.000000000000000000 ) ) ;
#9 = CALENDAR_DATE ( 2026, 24, 8 ) ;
#10 = CALENDAR_DATE ( 2026, 24, 8 ) ;
#11 = CARTESIAN_POINT ( 'NONE',  ( 0.000000000000000000, 0.000000000000000000, 0.000000000000000000 ) ) ;
#12 = PERSON_AND_ORGANIZATION ( #165, #152 ) ;
#13 = PERSON_AND_ORGANIZATION_ROLE ( 'classification_officer' ) ;
#14 = ORIENTED_EDGE ( 'NONE', *, *, #131, .F. ) ;
#15 = AXIS2_PLACEMENT_3D ( 'NONE', #11, #93, #64 ) ;
#16 = APPROVAL_PERSON_ORGANIZATION ( #121, #110, #160 ) ;
#17 = PRODUCT_DEFINITION_FORMATION_WITH_SPECIFIED_SOURCE ( 'ANY', '', #118, .NOT_KNOWN. ) ;
#18 = CARTESIAN_POINT ( 'NONE',  ( 0.000000000000000000, 0.000000000000000000, 500.0000000000000000 ) ) ;
#19 = EDGE_CURVE ( 'NONE', #57, #122, #6, .T. ) ;
#20 = PERSON_AND_ORGANIZATION ( #165, #152 ) ;
#21 = AXIS2_PLACEMENT_3D ( 'NONE', #105, #135, #65 ) ;
#22 = PERSON_AND_ORGANIZATION_ROLE ( 'design_owner' ) ;
#23 = PERSON_AND_ORGANIZATION ( #165, #152 ) ;
#24 = APPROVAL ( #132, 'UNSPECIFIED' ) ;
#25 = PERSON_AND_ORGANIZATION ( #165, #152 ) ;
#26 = FACE_OUTER_BOUND ( 'NONE', #107, .T. ) ;
#27 = DIRECTION ( 'NONE',  ( 0.000000000000000000, 0.000000000000000000, 1.000000000000000000 ) ) ;
#28 = DESIGN_CONTEXT ( 'detailed design', #72, 'design' ) ;
#29 = AXIS2_PLACEMENT_3D ( 'NONE', #18, #129, #116 ) ;
#30 = CC_DESIGN_APPROVAL ( #24, ( #91 ) ) ;
#31 = DATE_AND_TIME ( #46, #61 ) ;
#32 = CARTESIAN_POINT ( 'NONE',  ( 0.000000000000000000, 0.000000000000000000, 500.0000000000000000 ) ) ;
#33 = AXIS2_PLACEMENT_3D ( 'NONE', #41, #27, #159 ) ;
#34 = DIRECTION ( 'NONE',  ( 1.000000000000000000, 0.000000000000000000, -0.000000000000000000 ) ) ;
#35 = ADVANCED_FACE ( 'NONE', ( #103 ), #7, .T. ) ;
#36 = CC_DESIGN_PERSON_AND_ORGANIZATION_ASSIGNMENT ( #20, #22, ( #118 ) ) ;
#37 = DIRECTION ( 'NONE',  ( 1.000000000000000000, 0.000000000000000000, 0.000000000000000000 ) ) ;
#38 = CARTESIAN_POINT ( 'NONE',  ( 0.000000000000000000, 0.000000000000000000, 0.000000000000000000 ) ) ;
#39 = DATE_AND_TIME ( #9, #156 ) ;
#40 = APPROVAL_STATUS ( 'not_yet_approved' ) ;
#41 = CARTESIAN_POINT ( 'NONE',  ( 0.000000000000000000, 0.000000000000000000, 0.000000000000000000 ) ) ;
#42 = EDGE_LOOP ( 'NONE', ( #67, #56, #123, #140 ) ) ;
#43 = PERSON_AND_ORGANIZATION ( #165, #152 ) ;
#44 = AXIS2_PLACEMENT_3D ( 'NONE', #109, #86, #168 ) ;
#45 = APPROVAL ( #40, 'UNSPECIFIED' ) ;
#46 = CALENDAR_DATE ( 2026, 24, 8 ) ;
#47 = DIRECTION ( 'NONE',  ( 0.000000000000000000, 0.000000000000000000, 1.000000000000000000 ) ) ;
#48 = DIRECTION ( 'NONE',  ( -0.000000000000000000, -0.000000000000000000, -1.000000000000000000 ) ) ;
#49 = DIRECTION ( 'NONE',  ( -1.000000000000000000, 0.000000000000000000, 0.000000000000000000 ) ) ;
#50 = COORDINATED_UNIVERSAL_TIME_OFFSET ( 5, 30, .AHEAD. ) ;
#51 =( NAMED_UNIT ( * ) SI_UNIT ( $, .STERADIAN. ) SOLID_ANGLE_UNIT ( ) );
#52 = PERSON_AND_ORGANIZATION_ROLE ( 'creator' ) ;
#53 = COORDINATED_UNIVERSAL_TIME_OFFSET ( 5, 30, .AHEAD. ) ;
#54 =( GEOMETRIC_REPRESENTATION_CONTEXT ( 3 ) GLOBAL_UNCERTAINTY_ASSIGNED_CONTEXT ( ( #167 ) ) GLOBAL_UNIT_ASSIGNED_CONTEXT ( ( #174, #79, #51 ) ) REPRESENTATION_CONTEXT ( 'NONE', 'WORKASPACE' ) );
#55 = ADVANCED_FACE ( 'NONE', ( #89 ), #70, .T. ) ;
#56 = ORIENTED_EDGE ( 'NONE', *, *, #59, .T. ) ;
#57 = VERTEX_POINT ( 'NONE', #126 ) ;
#58 = CARTESIAN_POINT ( 'NONE',  ( 7.500000000000000000, 9.184850993605147944E-16, 500.0000000000000000 ) ) ;
#59 = EDGE_CURVE ( 'NONE', #4, #1, #108, .T. ) ;
#60 = VECTOR ( 'NONE', #130, 1000.000000000000000 ) ;
#61 = LOCAL_TIME ( 16, 2, 34.00000000000000000, #53 ) ;
#62 = CIRCLE ( 'NONE', #33, 7.500000000000000000 ) ;
#63 = COORDINATED_UNIVERSAL_TIME_OFFSET ( 5, 30, .AHEAD. ) ;
#64 = DIRECTION ( 'NONE',  ( 1.000000000000000000, 0.000000000000000000, -0.000000000000000000 ) ) ;
#65 = DIRECTION ( 'NONE',  ( 1.000000000000000000, 0.000000000000000000, 0.000000000000000000 ) ) ;
#66 = COORDINATED_UNIVERSAL_TIME_OFFSET ( 5, 30, .AHEAD. ) ;
#67 = ORIENTED_EDGE ( 'NONE', *, *, #124, .F. ) ;
#68 = CC_DESIGN_PERSON_AND_ORGANIZATION_ASSIGNMENT ( #43, #13, ( #74 ) ) ;
#69 = EDGE_LOOP ( 'NONE', ( #127, #97, #71, #163 ) ) ;
#70 = CYLINDRICAL_SURFACE ( 'NONE', #141, 7.500000000000000000 ) ;
#71 = ORIENTED_EDGE ( 'NONE', *, *, #19, .T. ) ;
#72 = APPLICATION_CONTEXT ( 'configuration controlled 3d designs of mechanical parts and assemblies' ) ;
#73 = CC_DESIGN_PERSON_AND_ORGANIZATION_ASSIGNMENT ( #23, #52, ( #91 ) ) ;
#74 = SECURITY_CLASSIFICATION ( '', '', #81 ) ;
#75 = APPLICATION_PROTOCOL_DEFINITION ( 'international standard', 'config_control_design', 1994, #72 ) ;
#76 = AXIS2_PLACEMENT_3D ( 'NONE', #38, #113, #37 ) ;
#77 = PERSON_AND_ORGANIZATION ( #165, #152 ) ;
#78 = PERSON_AND_ORGANIZATION_ROLE ( 'creator' ) ;
#79 =( NAMED_UNIT ( * ) PLANE_ANGLE_UNIT ( ) SI_UNIT ( $, .RADIAN. ) );
#80 = PERSON_AND_ORGANIZATION_ROLE ( 'design_supplier' ) ;
#81 = SECURITY_CLASSIFICATION_LEVEL ( 'unclassified' ) ;
#82 = EDGE_CURVE ( 'NONE', #57, #4, #125, .T. ) ;
#83 = APPLICATION_CONTEXT ( 'configuration controlled 3d designs of mechanical parts and assemblies' ) ;
#84 = PRODUCT_RELATED_PRODUCT_CATEGORY ( 'detail', '', ( #118 ) ) ;
#85 = ORIENTED_EDGE ( 'NONE', *, *, #124, .T. ) ;
#86 = DIRECTION ( 'NONE',  ( -0.000000000000000000, -0.000000000000000000, -1.000000000000000000 ) ) ;
#87 = CARTESIAN_POINT ( 'NONE',  ( 7.500000000000000000, 9.184850993605147944E-16, 500.0000000000000000 ) ) ;
#88 = DIRECTION ( 'NONE',  ( -0.000000000000000000, -0.000000000000000000, -1.000000000000000000 ) ) ;
#89 = FACE_OUTER_BOUND ( 'NONE', #69, .T. ) ;
#90 = MECHANICAL_CONTEXT ( 'NONE', #83, 'mechanical' ) ;
#91 = PRODUCT_DEFINITION ( 'UNKNOWN', '', #17, #28 ) ;
#92 = DATE_TIME_ROLE ( 'creation_date' ) ;
#93 = DIRECTION ( 'NONE',  ( 0.000000000000000000, 0.000000000000000000, 1.000000000000000000 ) ) ;
#94 = CC_DESIGN_PERSON_AND_ORGANIZATION_ASSIGNMENT ( #25, #78, ( #17 ) ) ;
#95 = CLOSED_SHELL ( 'NONE', ( #35, #55, #101, #166 ) ) ;
#96 = MANIFOLD_SOLID_BREP ( 'Boss-Extrude1', #95 ) ;
#97 = ORIENTED_EDGE ( 'NONE', *, *, #82, .F. ) ;
#98 = APPROVAL_PERSON_ORGANIZATION ( #77, #24, #133 ) ;
#99 = DIRECTION ( 'NONE',  ( 1.000000000000000000, 0.000000000000000000, 0.000000000000000000 ) ) ;
#100 = PLANE ( 'NONE',  #145 ) ;
#101 = ADVANCED_FACE ( 'NONE', ( #153 ), #100, .T. ) ;
#102 = CARTESIAN_POINT ( 'NONE',  ( 0.000000000000000000, 0.000000000000000000, 500.0000000000000000 ) ) ;
#103 = FACE_OUTER_BOUND ( 'NONE', #42, .T. ) ;
#104 = APPROVAL_DATE_TIME ( #39, #24 ) ;
#105 = CARTESIAN_POINT ( 'NONE',  ( 0.000000000000000000, 0.000000000000000000, 0.000000000000000000 ) ) ;
#106 = CIRCLE ( 'NONE', #29, 7.500000000000000000 ) ;
#107 = EDGE_LOOP ( 'NONE', ( #14, #151 ) ) ;
#108 = LINE ( 'NONE', #58, #3 ) ;
#109 = CARTESIAN_POINT ( 'NONE',  ( 0.000000000000000000, 0.000000000000000000, 500.0000000000000000 ) ) ;
#110 = APPROVAL ( #120, 'UNSPECIFIED' ) ;
#111 = CARTESIAN_POINT ( 'NONE',  ( 0.000000000000000000, 0.000000000000000000, 500.0000000000000000 ) ) ;
#112 = CIRCLE ( 'NONE', #21, 7.500000000000000000 ) ;
#113 = DIRECTION ( 'NONE',  ( 0.000000000000000000, 0.000000000000000000, 1.000000000000000000 ) ) ;
#114 = AXIS2_PLACEMENT_3D ( 'NONE', #102, #47, #99 ) ;
#115 = COORDINATED_UNIVERSAL_TIME_OFFSET ( 5, 30, .AHEAD. ) ;
#116 = DIRECTION ( 'NONE',  ( 1.000000000000000000, 0.000000000000000000, 0.000000000000000000 ) ) ;
#117 = CC_DESIGN_SECURITY_CLASSIFICATION ( #74, ( #17 ) ) ;
#118 = PRODUCT ( 'Cable_50_long_sldprt', 'Cable_50_long_sldprt', '', ( #90 ) ) ;
#119 = CALENDAR_DATE ( 2026, 24, 8 ) ;
#120 = APPROVAL_STATUS ( 'not_yet_approved' ) ;
#121 = PERSON_AND_ORGANIZATION ( #165, #152 ) ;
#122 = VERTEX_POINT ( 'NONE', #143 ) ;
#123 = ORIENTED_EDGE ( 'NONE', *, *, #150, .T. ) ;
#124 = EDGE_CURVE ( 'NONE', #4, #57, #106, .T. ) ;
#125 = CIRCLE ( 'NONE', #114, 7.500000000000000000 ) ;
#126 = CARTESIAN_POINT ( 'NONE',  ( -7.500000000000000000, 0.000000000000000000, 500.0000000000000000 ) ) ;
#127 = ORIENTED_EDGE ( 'NONE', *, *, #59, .F. ) ;
#128 = LOCAL_TIME ( 16, 2, 34.00000000000000000, #63 ) ;
#129 = DIRECTION ( 'NONE',  ( 0.000000000000000000, 0.000000000000000000, 1.000000000000000000 ) ) ;
#130 = DIRECTION ( 'NONE',  ( -0.000000000000000000, -0.000000000000000000, -1.000000000000000000 ) ) ;
#131 = EDGE_CURVE ( 'NONE', #122, #1, #62, .T. ) ;
#132 = APPROVAL_STATUS ( 'not_yet_approved' ) ;
#133 = APPROVAL_ROLE ( '' ) ;
#134 = PRODUCT_DEFINITION_SHAPE ( 'NONE', 'NONE',  #91 ) ;
#135 = DIRECTION ( 'NONE',  ( 0.000000000000000000, 0.000000000000000000, 1.000000000000000000 ) ) ;
#136 = CALENDAR_DATE ( 2026, 24, 8 ) ;
#137 = EDGE_LOOP ( 'NONE', ( #138, #85 ) ) ;
#138 = ORIENTED_EDGE ( 'NONE', *, *, #82, .T. ) ;
#139 = ADVANCED_BREP_SHAPE_REPRESENTATION ( 'Cable_50_long_sldprt', ( #96, #76 ), #54 ) ;
#140 = ORIENTED_EDGE ( 'NONE', *, *, #19, .F. ) ;
#141 = AXIS2_PLACEMENT_3D ( 'NONE', #111, #48, #49 ) ;
#142 = APPROVAL_DATE_TIME ( #31, #110 ) ;
#143 = CARTESIAN_POINT ( 'NONE',  ( -7.500000000000000000, 0.000000000000000000, 0.000000000000000000 ) ) ;
#144 = APPROVAL_PERSON_ORGANIZATION ( #12, #45, #172 ) ;
#145 = AXIS2_PLACEMENT_3D ( 'NONE', #32, #154, #34 ) ;
#146 = DATE_AND_TIME ( #119, #128 ) ;
#147 = CC_DESIGN_PERSON_AND_ORGANIZATION_ASSIGNMENT ( #161, #80, ( #17 ) ) ;
#148 = APPROVAL_DATE_TIME ( #157, #45 ) ;
#149 = CC_DESIGN_APPROVAL ( #45, ( #17 ) ) ;
#150 = EDGE_CURVE ( 'NONE', #1, #122, #112, .T. ) ;
#151 = ORIENTED_EDGE ( 'NONE', *, *, #150, .F. ) ;
#152 = ORGANIZATION ( 'UNSPECIFIED', 'UNSPECIFIED', '' ) ;
#153 = FACE_OUTER_BOUND ( 'NONE', #137, .T. ) ;
#154 = DIRECTION ( 'NONE',  ( 0.000000000000000000, 0.000000000000000000, 1.000000000000000000 ) ) ;
#155 = APPLICATION_PROTOCOL_DEFINITION ( 'international standard', 'config_control_design', 1994, #83 ) ;
#156 = LOCAL_TIME ( 16, 2, 34.00000000000000000, #50 ) ;
#157 = DATE_AND_TIME ( #10, #164 ) ;
#158 = PLANE ( 'NONE',  #15 ) ;
#159 = DIRECTION ( 'NONE',  ( 1.000000000000000000, 0.000000000000000000, 0.000000000000000000 ) ) ;
#160 = APPROVAL_ROLE ( '' ) ;
#161 = PERSON_AND_ORGANIZATION ( #165, #152 ) ;
#162 = CC_DESIGN_APPROVAL ( #110, ( #74 ) ) ;
#163 = ORIENTED_EDGE ( 'NONE', *, *, #131, .T. ) ;
#164 = LOCAL_TIME ( 16, 2, 34.00000000000000000, #115 ) ;
#165 = PERSON ( 'UNSPECIFIED', 'UNSPECIFIED', 'UNSPECIFIED', ('UNSPECIFIED'), ('UNSPECIFIED'), ('UNSPECIFIED') ) ;
#166 = ADVANCED_FACE ( 'NONE', ( #26 ), #158, .F. ) ;
#167 = UNCERTAINTY_MEASURE_WITH_UNIT (LENGTH_MEASURE( 1.000000000000000082E-05 ), #174, 'distance_accuracy_value', 'NONE');
#168 = DIRECTION ( 'NONE',  ( -1.000000000000000000, 0.000000000000000000, 0.000000000000000000 ) ) ;
#169 = CARTESIAN_POINT ( 'NONE',  ( -7.500000000000000000, 0.000000000000000000, 500.0000000000000000 ) ) ;
#170 = LOCAL_TIME ( 16, 2, 34.00000000000000000, #66 ) ;
#171 = CC_DESIGN_DATE_AND_TIME_ASSIGNMENT ( #146, #92, ( #91 ) ) ;
#172 = APPROVAL_ROLE ( '' ) ;
#173 = CC_DESIGN_DATE_AND_TIME_ASSIGNMENT ( #175, #2, ( #74 ) ) ;
#174 =( LENGTH_UNIT ( ) NAMED_UNIT ( * ) SI_UNIT ( .MILLI., .METRE. ) );
#175 = DATE_AND_TIME ( #136, #170 ) ;
ENDSEC;
END-ISO-10303-21;
