ISO-10303-21;
HEADER;
FILE_DESCRIPTION (( 'STEP AP203' ),
    '1' );
FILE_NAME ('SuppoertBase_Default_sldprt.STEP',
    '2026-08-24T10:32:37',
    ( '' ),
    ( '' ),
    'SwSTEP 2.0',
    'SolidWorks 2020',
    '' );
FILE_SCHEMA (( 'CONFIG_CONTROL_DESIGN' ));
ENDSEC;

DATA;
#1 = ORIENTED_EDGE ( 'NONE', *, *, #180, .T. ) ;
#2 = DIRECTION ( 'NONE',  ( 1.000000000000000000, 0.000000000000000000, 0.000000000000000000 ) ) ;
#3 = CLOSED_SHELL ( 'NONE', ( #299, #292, #285, #133, #152, #312, #329, #327, #15, #27 ) ) ;
#4 = LINE ( 'NONE', #80, #51 ) ;
#5 = DIRECTION ( 'NONE',  ( 0.000000000000000000, 0.000000000000000000, 1.000000000000000000 ) ) ;
#6 = DIRECTION ( 'NONE',  ( 0.000000000000000000, 0.000000000000000000, 1.000000000000000000 ) ) ;
#7 = PRODUCT_DEFINITION ( 'UNKNOWN', '', #190, #19 ) ;
#8 = ORIENTED_EDGE ( 'NONE', *, *, #123, .F. ) ;
#9 = PERSON_AND_ORGANIZATION ( #283, #272 ) ;
#10 = PRODUCT_DEFINITION_SHAPE ( 'NONE', 'NONE',  #7 ) ;
#11 = DATE_AND_TIME ( #236, #325 ) ;
#12 = ORIENTED_EDGE ( 'NONE', *, *, #123, .T. ) ;
#13 = AXIS2_PLACEMENT_3D ( 'NONE', #168, #6, #101 ) ;
#14 = APPROVAL_STATUS ( 'not_yet_approved' ) ;
#15 = ADVANCED_FACE ( 'NONE', ( #231 ), #140, .F. ) ;
#16 = DATE_AND_TIME ( #271, #245 ) ;
#17 = PRODUCT_RELATED_PRODUCT_CATEGORY ( 'detail', '', ( #59 ) ) ;
#18 = CARTESIAN_POINT ( 'NONE',  ( 0.000000000000000000, 0.000000000000000000, 30.00000000000000000 ) ) ;
#19 = DESIGN_CONTEXT ( 'detailed design', #82, 'design' ) ;
#20 = CC_DESIGN_PERSON_AND_ORGANIZATION_ASSIGNMENT ( #200, #156, ( #59 ) ) ;
#21 = CARTESIAN_POINT ( 'NONE',  ( 0.000000000000000000, 0.000000000000000000, 20.00000000000000000 ) ) ;
#22 = EDGE_LOOP ( 'NONE', ( #167, #240, #261, #12 ) ) ;
#23 = FACE_OUTER_BOUND ( 'NONE', #74, .T. ) ;
#24 = EDGE_LOOP ( 'NONE', ( #265, #268, #192, #130 ) ) ;
#25 = DIRECTION ( 'NONE',  ( 1.000000000000000000, 0.000000000000000000, 0.000000000000000000 ) ) ;
#26 = DIRECTION ( 'NONE',  ( -0.000000000000000000, -0.000000000000000000, -1.000000000000000000 ) ) ;
#27 = ADVANCED_FACE ( 'NONE', ( #273 ), #44, .T. ) ;
#28 = CARTESIAN_POINT ( 'NONE',  ( 0.000000000000000000, 0.000000000000000000, 20.00000000000000000 ) ) ;
#29 = ORIENTED_EDGE ( 'NONE', *, *, #301, .F. ) ;
#30 = CARTESIAN_POINT ( 'NONE',  ( 7.500000000000000000, 0.000000000000000000, 19.99999999999999645 ) ) ;
#31 = FACE_OUTER_BOUND ( 'NONE', #260, .T. ) ;
#32 = AXIS2_PLACEMENT_3D ( 'NONE', #83, #170, #282 ) ;
#33 = CARTESIAN_POINT ( 'NONE',  ( 0.000000000000000000, 0.000000000000000000, 19.99999999999999645 ) ) ;
#34 = EDGE_LOOP ( 'NONE', ( #316, #223, #1, #48 ) ) ;
#35 = CIRCLE ( 'NONE', #212, 30.00000000000000000 ) ;
#36 = CALENDAR_DATE ( 2026, 24, 8 ) ;
#37 = APPROVAL_PERSON_ORGANIZATION ( #9, #324, #177 ) ;
#38 = CIRCLE ( 'NONE', #216, 7.500000000000000000 ) ;
#39 = CC_DESIGN_PERSON_AND_ORGANIZATION_ASSIGNMENT ( #125, #107, ( #190 ) ) ;
#40 = AXIS2_PLACEMENT_3D ( 'NONE', #77, #281, #322 ) ;
#41 = COORDINATED_UNIVERSAL_TIME_OFFSET ( 5, 30, .AHEAD. ) ;
#42 = AXIS2_PLACEMENT_3D ( 'NONE', #21, #276, #218 ) ;
#43 = DIRECTION ( 'NONE',  ( 0.000000000000000000, 0.000000000000000000, 1.000000000000000000 ) ) ;
#44 = PLANE ( 'NONE',  #288 ) ;
#45 = PLANE ( 'NONE',  #144 ) ;
#46 = EDGE_CURVE ( 'NONE', #219, #253, #150, .T. ) ;
#47 = DIRECTION ( 'NONE',  ( 1.000000000000000000, 0.000000000000000000, 0.000000000000000000 ) ) ;
#48 = ORIENTED_EDGE ( 'NONE', *, *, #84, .F. ) ;
#49 = LINE ( 'NONE', #193, #297 ) ;
#50 = ORIENTED_EDGE ( 'NONE', *, *, #111, .T. ) ;
#51 = VECTOR ( 'NONE', #147, 1000.000000000000000 ) ;
#52 = FACE_OUTER_BOUND ( 'NONE', #92, .T. ) ;
#53 = DIRECTION ( 'NONE',  ( -0.000000000000000000, -0.000000000000000000, -1.000000000000000000 ) ) ;
#54 = CARTESIAN_POINT ( 'NONE',  ( -30.00000000000000000, 0.000000000000000000, 30.00000000000000000 ) ) ;
#55 = VECTOR ( 'NONE', #249, 1000.000000000000000 ) ;
#56 = CC_DESIGN_SECURITY_CLASSIFICATION ( #154, ( #190 ) ) ;
#57 = CARTESIAN_POINT ( 'NONE',  ( 0.000000000000000000, 0.000000000000000000, 30.00000000000000000 ) ) ;
#58 = EDGE_CURVE ( 'NONE', #307, #330, #68, .T. ) ;
#59 = PRODUCT ( 'SuppoertBase_Default_sldprt', 'SuppoertBase_Default_sldprt', '', ( #104 ) ) ;
#60 = PERSON_AND_ORGANIZATION ( #283, #272 ) ;
#61 = AXIS2_PLACEMENT_3D ( 'NONE', #28, #310, #25 ) ;
#62 = AXIS2_PLACEMENT_3D ( 'NONE', #71, #138, #90 ) ;
#63 = ORIENTED_EDGE ( 'NONE', *, *, #187, .T. ) ;
#64 = EDGE_LOOP ( 'NONE', ( #206, #105 ) ) ;
#65 = CARTESIAN_POINT ( 'NONE',  ( 0.000000000000000000, 0.000000000000000000, 0.000000000000000000 ) ) ;
#66 = CALENDAR_DATE ( 2026, 24, 8 ) ;
#67 = DATE_AND_TIME ( #131, #162 ) ;
#68 = CIRCLE ( 'NONE', #62, 7.500000000000000000 ) ;
#69 = PERSON_AND_ORGANIZATION_ROLE ( 'classification_officer' ) ;
#70 = CARTESIAN_POINT ( 'NONE',  ( 0.000000000000000000, 0.000000000000000000, 30.00000000000000000 ) ) ;
#71 = CARTESIAN_POINT ( 'NONE',  ( 0.000000000000000000, 0.000000000000000000, 30.00000000000000000 ) ) ;
#72 = CARTESIAN_POINT ( 'NONE',  ( 50.00000000000000000, 6.123233995736766085E-15, 20.00000000000000000 ) ) ;
#73 = FACE_BOUND ( 'NONE', #113, .T. ) ;
#74 = EDGE_LOOP ( 'NONE', ( #50, #239 ) ) ;
#75 = PLANE ( 'NONE',  #323 ) ;
#76 = CC_DESIGN_DATE_AND_TIME_ASSIGNMENT ( #16, #160, ( #154 ) ) ;
#77 = CARTESIAN_POINT ( 'NONE',  ( 0.000000000000000000, 0.000000000000000000, 30.00000000000000000 ) ) ;
#78 = ORIENTED_EDGE ( 'NONE', *, *, #180, .F. ) ;
#79 = FACE_OUTER_BOUND ( 'NONE', #115, .T. ) ;
#80 = CARTESIAN_POINT ( 'NONE',  ( 50.00000000000000000, 6.123233995736766085E-15, 20.00000000000000000 ) ) ;
#81 = DIRECTION ( 'NONE',  ( 0.000000000000000000, 0.000000000000000000, 1.000000000000000000 ) ) ;
#82 = APPLICATION_CONTEXT ( 'configuration controlled 3d designs of mechanical parts and assemblies' ) ;
#83 = CARTESIAN_POINT ( 'NONE',  ( 0.000000000000000000, 0.000000000000000000, 30.00000000000000000 ) ) ;
#84 = EDGE_CURVE ( 'NONE', #253, #174, #248, .T. ) ;
#85 = DIRECTION ( 'NONE',  ( -0.000000000000000000, -0.000000000000000000, 1.000000000000000000 ) ) ;
#86 = DIRECTION ( 'NONE',  ( 1.000000000000000000, 0.000000000000000000, 0.000000000000000000 ) ) ;
#87 =( NAMED_UNIT ( * ) SI_UNIT ( $, .STERADIAN. ) SOLID_ANGLE_UNIT ( ) );
#88 = DATE_AND_TIME ( #36, #313 ) ;
#89 = LINE ( 'NONE', #30, #221 ) ;
#90 = DIRECTION ( 'NONE',  ( 1.000000000000000000, 0.000000000000000000, 0.000000000000000000 ) ) ;
#91 = EDGE_CURVE ( 'NONE', #253, #219, #35, .T. ) ;
#92 = EDGE_LOOP ( 'NONE', ( #29, #129, #279, #124 ) ) ;
#93 = CARTESIAN_POINT ( 'NONE',  ( 0.000000000000000000, 0.000000000000000000, 0.000000000000000000 ) ) ;
#94 = CYLINDRICAL_SURFACE ( 'NONE', #331, 50.00000000000000000 ) ;
#95 = EDGE_LOOP ( 'NONE', ( #234, #267, #233, #305 ) ) ;
#96 = DIRECTION ( 'NONE',  ( 1.000000000000000000, 0.000000000000000000, 0.000000000000000000 ) ) ;
#97 = CIRCLE ( 'NONE', #137, 7.500000000000000000 ) ;
#98 = DIRECTION ( 'NONE',  ( 1.000000000000000000, 0.000000000000000000, 0.000000000000000000 ) ) ;
#99 = DIRECTION ( 'NONE',  ( 1.000000000000000000, 0.000000000000000000, -0.000000000000000000 ) ) ;
#100 = CARTESIAN_POINT ( 'NONE',  ( 0.000000000000000000, 0.000000000000000000, 19.99999999999999645 ) ) ;
#101 = DIRECTION ( 'NONE',  ( 1.000000000000000000, 0.000000000000000000, 0.000000000000000000 ) ) ;
#102 = UNCERTAINTY_MEASURE_WITH_UNIT (LENGTH_MEASURE( 1.000000000000000082E-05 ), #202, 'distance_accuracy_value', 'NONE');
#103 = APPLICATION_PROTOCOL_DEFINITION ( 'international standard', 'config_control_design', 1994, #82 ) ;
#104 = MECHANICAL_CONTEXT ( 'NONE', #287, 'mechanical' ) ;
#105 = ORIENTED_EDGE ( 'NONE', *, *, #58, .F. ) ;
#106 = COORDINATED_UNIVERSAL_TIME_OFFSET ( 5, 30, .AHEAD. ) ;
#107 = PERSON_AND_ORGANIZATION_ROLE ( 'design_supplier' ) ;
#108 = CC_DESIGN_PERSON_AND_ORGANIZATION_ASSIGNMENT ( #161, #69, ( #154 ) ) ;
#109 =( GEOMETRIC_REPRESENTATION_CONTEXT ( 3 ) GLOBAL_UNCERTAINTY_ASSIGNED_CONTEXT ( ( #102 ) ) GLOBAL_UNIT_ASSIGNED_CONTEXT ( ( #202, #155, #87 ) ) REPRESENTATION_CONTEXT ( 'NONE', 'WORKASPACE' ) );
#110 = DIRECTION ( 'NONE',  ( -0.000000000000000000, -0.000000000000000000, 1.000000000000000000 ) ) ;
#111 = EDGE_CURVE ( 'NONE', #142, #118, #264, .T. ) ;
#112 = CARTESIAN_POINT ( 'NONE',  ( 0.000000000000000000, 0.000000000000000000, 0.000000000000000000 ) ) ;
#113 = EDGE_LOOP ( 'NONE', ( #315, #78 ) ) ;
#114 = AXIS2_PLACEMENT_3D ( 'NONE', #226, #335, #309 ) ;
#115 = EDGE_LOOP ( 'NONE', ( #145, #251 ) ) ;
#116 = DIRECTION ( 'NONE',  ( -1.000000000000000000, 0.000000000000000000, 0.000000000000000000 ) ) ;
#117 = CARTESIAN_POINT ( 'NONE',  ( -30.00000000000000000, 0.000000000000000000, 20.00000000000000000 ) ) ;
#118 = VERTEX_POINT ( 'NONE', #72 ) ;
#119 = APPROVAL_PERSON_ORGANIZATION ( #60, #277, #321 ) ;
#120 = DIRECTION ( 'NONE',  ( -0.000000000000000000, -0.000000000000000000, -1.000000000000000000 ) ) ;
#121 = CARTESIAN_POINT ( 'NONE',  ( 50.00000000000000000, 6.123233995736766085E-15, 0.000000000000000000 ) ) ;
#122 = DIRECTION ( 'NONE',  ( -1.000000000000000000, 0.000000000000000000, 0.000000000000000000 ) ) ;
#123 = EDGE_CURVE ( 'NONE', #196, #333, #290, .T. ) ;
#124 = ORIENTED_EDGE ( 'NONE', *, *, #230, .T. ) ;
#125 = PERSON_AND_ORGANIZATION ( #283, #272 ) ;
#126 = CC_DESIGN_PERSON_AND_ORGANIZATION_ASSIGNMENT ( #204, #208, ( #7 ) ) ;
#127 = ORIENTED_EDGE ( 'NONE', *, *, #205, .F. ) ;
#128 = APPROVAL_DATE_TIME ( #88, #324 ) ;
#129 = ORIENTED_EDGE ( 'NONE', *, *, #91, .F. ) ;
#130 = ORIENTED_EDGE ( 'NONE', *, *, #187, .F. ) ;
#131 = CALENDAR_DATE ( 2026, 24, 8 ) ;
#132 = CIRCLE ( 'NONE', #61, 30.00000000000000000 ) ;
#133 = ADVANCED_FACE ( 'NONE', ( #222 ), #94, .T. ) ;
#134 = AXIS2_PLACEMENT_3D ( 'NONE', #112, #165, #47 ) ;
#135 = AXIS2_PLACEMENT_3D ( 'NONE', #65, #179, #86 ) ;
#136 = APPROVAL_ROLE ( '' ) ;
#137 = AXIS2_PLACEMENT_3D ( 'NONE', #332, #5, #98 ) ;
#138 = DIRECTION ( 'NONE',  ( 0.000000000000000000, 0.000000000000000000, 1.000000000000000000 ) ) ;
#139 = AXIS2_PLACEMENT_3D ( 'NONE', #57, #229, #116 ) ;
#140 = CYLINDRICAL_SURFACE ( 'NONE', #207, 7.500000000000000000 ) ;
#141 = CARTESIAN_POINT ( 'NONE',  ( 0.000000000000000000, 0.000000000000000000, 20.00000000000000000 ) ) ;
#142 = VERTEX_POINT ( 'NONE', #191 ) ;
#143 = CYLINDRICAL_SURFACE ( 'NONE', #247, 50.00000000000000000 ) ;
#144 = AXIS2_PLACEMENT_3D ( 'NONE', #311, #149, #99 ) ;
#145 = ORIENTED_EDGE ( 'NONE', *, *, #91, .T. ) ;
#146 = CYLINDRICAL_SURFACE ( 'NONE', #238, 30.00000000000000000 ) ;
#147 = DIRECTION ( 'NONE',  ( -0.000000000000000000, -0.000000000000000000, -1.000000000000000000 ) ) ;
#148 = DIRECTION ( 'NONE',  ( 1.000000000000000000, 0.000000000000000000, -0.000000000000000000 ) ) ;
#149 = DIRECTION ( 'NONE',  ( 0.000000000000000000, 0.000000000000000000, 1.000000000000000000 ) ) ;
#150 = CIRCLE ( 'NONE', #199, 30.00000000000000000 ) ;
#151 = CARTESIAN_POINT ( 'NONE',  ( 30.00000000000000000, 3.673940397442059178E-15, 20.00000000000000000 ) ) ;
#152 = ADVANCED_FACE ( 'NONE', ( #73, #23 ), #45, .T. ) ;
#153 = DIRECTION ( 'NONE',  ( 1.000000000000000000, 0.000000000000000000, 0.000000000000000000 ) ) ;
#154 = SECURITY_CLASSIFICATION ( '', '', #300 ) ;
#155 =( NAMED_UNIT ( * ) PLANE_ANGLE_UNIT ( ) SI_UNIT ( $, .RADIAN. ) );
#156 = PERSON_AND_ORGANIZATION_ROLE ( 'design_owner' ) ;
#157 = ADVANCED_BREP_SHAPE_REPRESENTATION ( 'SuppoertBase_Default_sldprt', ( #320, #135 ), #109 ) ;
#158 = ORIENTED_EDGE ( 'NONE', *, *, #215, .F. ) ;
#159 = COORDINATED_UNIVERSAL_TIME_OFFSET ( 5, 30, .AHEAD. ) ;
#160 = DATE_TIME_ROLE ( 'classification_date' ) ;
#161 = PERSON_AND_ORGANIZATION ( #283, #272 ) ;
#162 = LOCAL_TIME ( 16, 2, 37.00000000000000000, #159 ) ;
#163 = CIRCLE ( 'NONE', #13, 50.00000000000000000 ) ;
#164 = DIRECTION ( 'NONE',  ( 1.000000000000000000, 0.000000000000000000, 0.000000000000000000 ) ) ;
#165 = DIRECTION ( 'NONE',  ( 0.000000000000000000, 0.000000000000000000, 1.000000000000000000 ) ) ;
#166 = CC_DESIGN_DATE_AND_TIME_ASSIGNMENT ( #11, #296, ( #7 ) ) ;
#167 = ORIENTED_EDGE ( 'NONE', *, *, #182, .F. ) ;
#168 = CARTESIAN_POINT ( 'NONE',  ( 0.000000000000000000, 0.000000000000000000, 20.00000000000000000 ) ) ;
#169 = ORIENTED_EDGE ( 'NONE', *, *, #259, .T. ) ;
#170 = DIRECTION ( 'NONE',  ( 0.000000000000000000, 0.000000000000000000, 1.000000000000000000 ) ) ;
#171 = EDGE_CURVE ( 'NONE', #142, #196, #255, .T. ) ;
#172 = CARTESIAN_POINT ( 'NONE',  ( 0.000000000000000000, 0.000000000000000000, 20.00000000000000000 ) ) ;
#173 = CARTESIAN_POINT ( 'NONE',  ( -7.500000000000000000, 9.184850993605147944E-16, 30.00000000000000000 ) ) ;
#174 = VERTEX_POINT ( 'NONE', #117 ) ;
#175 = CYLINDRICAL_SURFACE ( 'NONE', #139, 30.00000000000000000 ) ;
#176 = CIRCLE ( 'NONE', #114, 30.00000000000000000 ) ;
#177 = APPROVAL_ROLE ( '' ) ;
#178 = EDGE_LOOP ( 'NONE', ( #158, #188, #63, #295 ) ) ;
#179 = DIRECTION ( 'NONE',  ( 0.000000000000000000, 0.000000000000000000, 1.000000000000000000 ) ) ;
#180 = EDGE_CURVE ( 'NONE', #263, #174, #176, .T. ) ;
#181 = PERSON_AND_ORGANIZATION_ROLE ( 'creator' ) ;
#182 = EDGE_CURVE ( 'NONE', #118, #333, #4, .T. ) ;
#183 = EDGE_CURVE ( 'NONE', #330, #307, #235, .T. ) ;
#184 = VECTOR ( 'NONE', #26, 1000.000000000000000 ) ;
#185 = DIRECTION ( 'NONE',  ( 1.000000000000000000, 0.000000000000000000, -0.000000000000000000 ) ) ;
#186 = CARTESIAN_POINT ( 'NONE',  ( -30.00000000000000000, 0.000000000000000000, 30.00000000000000000 ) ) ;
#187 = EDGE_CURVE ( 'NONE', #257, #330, #89, .T. ) ;
#188 = ORIENTED_EDGE ( 'NONE', *, *, #259, .F. ) ;
#189 = DIRECTION ( 'NONE',  ( -0.000000000000000000, -0.000000000000000000, 1.000000000000000000 ) ) ;
#190 = PRODUCT_DEFINITION_FORMATION_WITH_SPECIFIED_SOURCE ( 'ANY', '', #59, .NOT_KNOWN. ) ;
#191 = CARTESIAN_POINT ( 'NONE',  ( -50.00000000000000000, 0.000000000000000000, 20.00000000000000000 ) ) ;
#192 = ORIENTED_EDGE ( 'NONE', *, *, #58, .T. ) ;
#193 = CARTESIAN_POINT ( 'NONE',  ( 30.00000000000000000, 3.673940397442059178E-15, 30.00000000000000000 ) ) ;
#194 = CARTESIAN_POINT ( 'NONE',  ( -7.500000000000000000, 9.184850993605147944E-16, 19.99999999999999645 ) ) ;
#195 = LINE ( 'NONE', #227, #232 ) ;
#196 = VERTEX_POINT ( 'NONE', #289 ) ;
#197 = CYLINDRICAL_SURFACE ( 'NONE', #274, 7.500000000000000000 ) ;
#198 = VERTEX_POINT ( 'NONE', #194 ) ;
#199 = AXIS2_PLACEMENT_3D ( 'NONE', #70, #302, #164 ) ;
#200 = PERSON_AND_ORGANIZATION ( #283, #272 ) ;
#201 = AXIS2_PLACEMENT_3D ( 'NONE', #252, #258, #2 ) ;
#202 =( LENGTH_UNIT ( ) NAMED_UNIT ( * ) SI_UNIT ( .MILLI., .METRE. ) );
#203 = CC_DESIGN_APPROVAL ( #324, ( #7 ) ) ;
#204 = PERSON_AND_ORGANIZATION ( #283, #272 ) ;
#205 = EDGE_CURVE ( 'NONE', #333, #196, #270, .T. ) ;
#206 = ORIENTED_EDGE ( 'NONE', *, *, #183, .F. ) ;
#207 = AXIS2_PLACEMENT_3D ( 'NONE', #217, #110, #275 ) ;
#208 = PERSON_AND_ORGANIZATION_ROLE ( 'creator' ) ;
#209 = COORDINATED_UNIVERSAL_TIME_OFFSET ( 5, 30, .AHEAD. ) ;
#210 = CC_DESIGN_APPROVAL ( #277, ( #190 ) ) ;
#211 = CC_DESIGN_PERSON_AND_ORGANIZATION_ASSIGNMENT ( #241, #181, ( #190 ) ) ;
#212 = AXIS2_PLACEMENT_3D ( 'NONE', #18, #214, #278 ) ;
#213 = CARTESIAN_POINT ( 'NONE',  ( 0.000000000000000000, 0.000000000000000000, 19.99999999999999645 ) ) ;
#214 = DIRECTION ( 'NONE',  ( 0.000000000000000000, 0.000000000000000000, 1.000000000000000000 ) ) ;
#215 = EDGE_CURVE ( 'NONE', #198, #307, #195, .T. ) ;
#216 = AXIS2_PLACEMENT_3D ( 'NONE', #100, #81, #96 ) ;
#217 = CARTESIAN_POINT ( 'NONE',  ( 0.000000000000000000, 0.000000000000000000, 19.99999999999999645 ) ) ;
#218 = DIRECTION ( 'NONE',  ( 1.000000000000000000, 0.000000000000000000, 0.000000000000000000 ) ) ;
#219 = VERTEX_POINT ( 'NONE', #286 ) ;
#220 = DIRECTION ( 'NONE',  ( -0.000000000000000000, -0.000000000000000000, -1.000000000000000000 ) ) ;
#221 = VECTOR ( 'NONE', #308, 1000.000000000000000 ) ;
#222 = FACE_OUTER_BOUND ( 'NONE', #22, .T. ) ;
#223 = ORIENTED_EDGE ( 'NONE', *, *, #301, .T. ) ;
#224 = APPROVAL ( #246, 'UNSPECIFIED' ) ;
#225 = FACE_OUTER_BOUND ( 'NONE', #24, .T. ) ;
#226 = CARTESIAN_POINT ( 'NONE',  ( 0.000000000000000000, 0.000000000000000000, 20.00000000000000000 ) ) ;
#227 = CARTESIAN_POINT ( 'NONE',  ( -7.500000000000000000, 9.184850993605147944E-16, 19.99999999999999645 ) ) ;
#228 = CARTESIAN_POINT ( 'NONE',  ( -50.00000000000000000, 0.000000000000000000, 20.00000000000000000 ) ) ;
#229 = DIRECTION ( 'NONE',  ( -0.000000000000000000, -0.000000000000000000, -1.000000000000000000 ) ) ;
#230 = EDGE_CURVE ( 'NONE', #174, #263, #132, .T. ) ;
#231 = FACE_OUTER_BOUND ( 'NONE', #178, .T. ) ;
#232 = VECTOR ( 'NONE', #189, 1000.000000000000000 ) ;
#233 = ORIENTED_EDGE ( 'NONE', *, *, #205, .T. ) ;
#234 = ORIENTED_EDGE ( 'NONE', *, *, #250, .F. ) ;
#235 = CIRCLE ( 'NONE', #40, 7.500000000000000000 ) ;
#236 = CALENDAR_DATE ( 2026, 24, 8 ) ;
#237 = EDGE_CURVE ( 'NONE', #198, #257, #97, .T. ) ;
#238 = AXIS2_PLACEMENT_3D ( 'NONE', #254, #53, #122 ) ;
#239 = ORIENTED_EDGE ( 'NONE', *, *, #250, .T. ) ;
#240 = ORIENTED_EDGE ( 'NONE', *, *, #111, .F. ) ;
#241 = PERSON_AND_ORGANIZATION ( #283, #272 ) ;
#242 = APPROVAL_DATE_TIME ( #244, #224 ) ;
#243 = PERSON_AND_ORGANIZATION ( #283, #272 ) ;
#244 = DATE_AND_TIME ( #66, #318 ) ;
#245 = LOCAL_TIME ( 16, 2, 37.00000000000000000, #209 ) ;
#246 = APPROVAL_STATUS ( 'not_yet_approved' ) ;
#247 = AXIS2_PLACEMENT_3D ( 'NONE', #172, #120, #262 ) ;
#248 = LINE ( 'NONE', #186, #55 ) ;
#249 = DIRECTION ( 'NONE',  ( -0.000000000000000000, -0.000000000000000000, -1.000000000000000000 ) ) ;
#250 = EDGE_CURVE ( 'NONE', #118, #142, #163, .T. ) ;
#251 = ORIENTED_EDGE ( 'NONE', *, *, #46, .T. ) ;
#252 = CARTESIAN_POINT ( 'NONE',  ( 0.000000000000000000, 0.000000000000000000, 0.000000000000000000 ) ) ;
#253 = VERTEX_POINT ( 'NONE', #54 ) ;
#254 = CARTESIAN_POINT ( 'NONE',  ( 0.000000000000000000, 0.000000000000000000, 30.00000000000000000 ) ) ;
#255 = LINE ( 'NONE', #228, #184 ) ;
#256 = CARTESIAN_POINT ( 'NONE',  ( 7.500000000000000000, 0.000000000000000000, 30.00000000000000000 ) ) ;
#257 = VERTEX_POINT ( 'NONE', #280 ) ;
#258 = DIRECTION ( 'NONE',  ( 0.000000000000000000, 0.000000000000000000, 1.000000000000000000 ) ) ;
#259 = EDGE_CURVE ( 'NONE', #257, #198, #38, .T. ) ;
#260 = EDGE_LOOP ( 'NONE', ( #8, #127 ) ) ;
#261 = ORIENTED_EDGE ( 'NONE', *, *, #171, .T. ) ;
#262 = DIRECTION ( 'NONE',  ( -1.000000000000000000, 0.000000000000000000, 0.000000000000000000 ) ) ;
#263 = VERTEX_POINT ( 'NONE', #151 ) ;
#264 = CIRCLE ( 'NONE', #42, 50.00000000000000000 ) ;
#265 = ORIENTED_EDGE ( 'NONE', *, *, #237, .F. ) ;
#266 = APPROVAL_STATUS ( 'not_yet_approved' ) ;
#267 = ORIENTED_EDGE ( 'NONE', *, *, #182, .T. ) ;
#268 = ORIENTED_EDGE ( 'NONE', *, *, #215, .T. ) ;
#269 = APPROVAL_PERSON_ORGANIZATION ( #243, #224, #136 ) ;
#270 = CIRCLE ( 'NONE', #201, 50.00000000000000000 ) ;
#271 = CALENDAR_DATE ( 2026, 24, 8 ) ;
#272 = ORGANIZATION ( 'UNSPECIFIED', 'UNSPECIFIED', '' ) ;
#273 = FACE_OUTER_BOUND ( 'NONE', #319, .T. ) ;
#274 = AXIS2_PLACEMENT_3D ( 'NONE', #33, #85, #153 ) ;
#275 = DIRECTION ( 'NONE',  ( 1.000000000000000000, 0.000000000000000000, 0.000000000000000000 ) ) ;
#276 = DIRECTION ( 'NONE',  ( 0.000000000000000000, 0.000000000000000000, 1.000000000000000000 ) ) ;
#277 = APPROVAL ( #14, 'UNSPECIFIED' ) ;
#278 = DIRECTION ( 'NONE',  ( 1.000000000000000000, 0.000000000000000000, 0.000000000000000000 ) ) ;
#279 = ORIENTED_EDGE ( 'NONE', *, *, #84, .T. ) ;
#280 = CARTESIAN_POINT ( 'NONE',  ( 7.500000000000000000, 0.000000000000000000, 19.99999999999999645 ) ) ;
#281 = DIRECTION ( 'NONE',  ( 0.000000000000000000, 0.000000000000000000, 1.000000000000000000 ) ) ;
#282 = DIRECTION ( 'NONE',  ( 1.000000000000000000, 0.000000000000000000, -0.000000000000000000 ) ) ;
#283 = PERSON ( 'UNSPECIFIED', 'UNSPECIFIED', 'UNSPECIFIED', ('UNSPECIFIED'), ('UNSPECIFIED'), ('UNSPECIFIED') ) ;
#284 = DIRECTION ( 'NONE',  ( 0.000000000000000000, 0.000000000000000000, 1.000000000000000000 ) ) ;
#285 = ADVANCED_FACE ( 'NONE', ( #306 ), #143, .T. ) ;
#286 = CARTESIAN_POINT ( 'NONE',  ( 30.00000000000000000, 3.673940397442059178E-15, 30.00000000000000000 ) ) ;
#287 = APPLICATION_CONTEXT ( 'configuration controlled 3d designs of mechanical parts and assemblies' ) ;
#288 = AXIS2_PLACEMENT_3D ( 'NONE', #213, #43, #185 ) ;
#289 = CARTESIAN_POINT ( 'NONE',  ( -50.00000000000000000, 0.000000000000000000, 0.000000000000000000 ) ) ;
#290 = CIRCLE ( 'NONE', #134, 50.00000000000000000 ) ;
#291 = COORDINATED_UNIVERSAL_TIME_OFFSET ( 5, 30, .AHEAD. ) ;
#292 = ADVANCED_FACE ( 'NONE', ( #317 ), #175, .T. ) ;
#293 = APPLICATION_PROTOCOL_DEFINITION ( 'international standard', 'config_control_design', 1994, #287 ) ;
#294 = ORIENTED_EDGE ( 'NONE', *, *, #237, .T. ) ;
#295 = ORIENTED_EDGE ( 'NONE', *, *, #183, .T. ) ;
#296 = DATE_TIME_ROLE ( 'creation_date' ) ;
#297 = VECTOR ( 'NONE', #220, 1000.000000000000000 ) ;
#298 = APPROVAL_DATE_TIME ( #67, #277 ) ;
#299 = ADVANCED_FACE ( 'NONE', ( #225 ), #197, .F. ) ;
#300 = SECURITY_CLASSIFICATION_LEVEL ( 'unclassified' ) ;
#301 = EDGE_CURVE ( 'NONE', #219, #263, #49, .T. ) ;
#302 = DIRECTION ( 'NONE',  ( 0.000000000000000000, 0.000000000000000000, 1.000000000000000000 ) ) ;
#303 = CC_DESIGN_APPROVAL ( #224, ( #154 ) ) ;
#304 = DIRECTION ( 'NONE',  ( -1.000000000000000000, 0.000000000000000000, 0.000000000000000000 ) ) ;
#305 = ORIENTED_EDGE ( 'NONE', *, *, #171, .F. ) ;
#306 = FACE_OUTER_BOUND ( 'NONE', #95, .T. ) ;
#307 = VERTEX_POINT ( 'NONE', #173 ) ;
#308 = DIRECTION ( 'NONE',  ( -0.000000000000000000, -0.000000000000000000, 1.000000000000000000 ) ) ;
#309 = DIRECTION ( 'NONE',  ( 1.000000000000000000, 0.000000000000000000, 0.000000000000000000 ) ) ;
#310 = DIRECTION ( 'NONE',  ( 0.000000000000000000, 0.000000000000000000, 1.000000000000000000 ) ) ;
#311 = CARTESIAN_POINT ( 'NONE',  ( 0.000000000000000000, 0.000000000000000000, 20.00000000000000000 ) ) ;
#312 = ADVANCED_FACE ( 'NONE', ( #31 ), #75, .F. ) ;
#313 = LOCAL_TIME ( 16, 2, 37.00000000000000000, #106 ) ;
#314 = PLANE ( 'NONE',  #32 ) ;
#315 = ORIENTED_EDGE ( 'NONE', *, *, #230, .F. ) ;
#316 = ORIENTED_EDGE ( 'NONE', *, *, #46, .F. ) ;
#317 = FACE_OUTER_BOUND ( 'NONE', #34, .T. ) ;
#318 = LOCAL_TIME ( 16, 2, 37.00000000000000000, #41 ) ;
#319 = EDGE_LOOP ( 'NONE', ( #169, #294 ) ) ;
#320 = MANIFOLD_SOLID_BREP ( 'Cut-Extrude1', #3 ) ;
#321 = APPROVAL_ROLE ( '' ) ;
#322 = DIRECTION ( 'NONE',  ( 1.000000000000000000, 0.000000000000000000, 0.000000000000000000 ) ) ;
#323 = AXIS2_PLACEMENT_3D ( 'NONE', #93, #284, #148 ) ;
#324 = APPROVAL ( #266, 'UNSPECIFIED' ) ;
#325 = LOCAL_TIME ( 16, 2, 37.00000000000000000, #291 ) ;
#326 = SHAPE_DEFINITION_REPRESENTATION ( #10, #157 ) ;
#327 = ADVANCED_FACE ( 'NONE', ( #334, #79 ), #314, .T. ) ;
#328 = DIRECTION ( 'NONE',  ( -0.000000000000000000, -0.000000000000000000, -1.000000000000000000 ) ) ;
#329 = ADVANCED_FACE ( 'NONE', ( #52 ), #146, .T. ) ;
#330 = VERTEX_POINT ( 'NONE', #256 ) ;
#331 = AXIS2_PLACEMENT_3D ( 'NONE', #141, #328, #304 ) ;
#332 = CARTESIAN_POINT ( 'NONE',  ( 0.000000000000000000, 0.000000000000000000, 19.99999999999999645 ) ) ;
#333 = VERTEX_POINT ( 'NONE', #121 ) ;
#334 = FACE_BOUND ( 'NONE', #64, .T. ) ;
#335 = DIRECTION ( 'NONE',  ( 0.000000000000000000, 0.000000000000000000, 1.000000000000000000 ) ) ;
ENDSEC;
END-ISO-10303-21;
