ISO-10303-21;
HEADER;
FILE_DESCRIPTION (( 'STEP AP203' ),
    '1' );
FILE_NAME ('30DegreeeAngle_Default_sldprt.STEP',
    '2026-08-23T21:09:48',
    ( '' ),
    ( '' ),
    'SwSTEP 2.0',
    'SolidWorks 2020',
    '' );
FILE_SCHEMA (( 'CONFIG_CONTROL_DESIGN' ));
ENDSEC;

DATA;
#1 = EDGE_LOOP ( 'NONE', ( #399, #42 ) ) ;
#2 = DATE_AND_TIME ( #292, #207 ) ;
#3 = AXIS2_PLACEMENT_3D ( 'NONE', #21, #137, #82 ) ;
#4 = ADVANCED_FACE ( 'NONE', ( #94 ), #301, .T. ) ;
#5 = ORIENTED_EDGE ( 'NONE', *, *, #97, .T. ) ;
#6 = CARTESIAN_POINT ( 'NONE',  ( 0.000000000000000000, -5.000000000000000000, 0.000000000000000000 ) ) ;
#7 = ORIENTED_EDGE ( 'NONE', *, *, #172, .F. ) ;
#8 = PRODUCT_DEFINITION_SHAPE ( 'NONE', 'NONE',  #363 ) ;
#9 = DIRECTION ( 'NONE',  ( 0.000000000000000000, -0.8660254037844380415, -0.5000000000000011102 ) ) ;
#10 = EDGE_CURVE ( 'NONE', #390, #11, #293, .T. ) ;
#11 = VERTEX_POINT ( 'NONE', #332 ) ;
#12 = CARTESIAN_POINT ( 'NONE',  ( 0.000000000000000000, 0.000000000000000000, 0.000000000000000000 ) ) ;
#13 = DIRECTION ( 'NONE',  ( 0.000000000000000000, 0.5000000000000009992, -0.8660254037844380415 ) ) ;
#14 = DIRECTION ( 'NONE',  ( 0.000000000000000000, 1.000000000000000000, 0.000000000000000000 ) ) ;
#15 = CARTESIAN_POINT ( 'NONE',  ( 0.000000000000000000, -5.000000000000000000, -7.500000000000000000 ) ) ;
#16 = CARTESIAN_POINT ( 'NONE',  ( 0.000000000000000000, -10.00000000000000000, 0.000000000000000000 ) ) ;
#17 = AXIS2_PLACEMENT_3D ( 'NONE', #338, #13, #129 ) ;
#18 = CARTESIAN_POINT ( 'NONE',  ( 0.000000000000000000, -10.00000000000000000, 0.000000000000000000 ) ) ;
#19 = CARTESIAN_POINT ( 'NONE',  ( 1.224646799147353256E-15, 0.000000000000000000, -10.00000000000000000 ) ) ;
#20 = CARTESIAN_POINT ( 'NONE',  ( 0.000000000000000000, -5.000000000000000000, 0.000000000000000000 ) ) ;
#21 = CARTESIAN_POINT ( 'NONE',  ( 0.000000000000000000, 18.66025403784440684, -12.32050807568875506 ) ) ;
#22 = CIRCLE ( 'NONE', #58, 10.00000000000000000 ) ;
#23 = ORGANIZATION ( 'UNSPECIFIED', 'UNSPECIFIED', '' ) ;
#24 = APPLICATION_CONTEXT ( 'configuration controlled 3d designs of mechanical parts and assemblies' ) ;
#25 = FACE_OUTER_BOUND ( 'NONE', #218, .T. ) ;
#26 = EDGE_CURVE ( 'NONE', #319, #340, #248, .T. ) ;
#27 = COORDINATED_UNIVERSAL_TIME_OFFSET ( 5, 30, .AHEAD. ) ;
#28 = DIRECTION ( 'NONE',  ( 0.000000000000000000, -0.8660254037844380415, -0.5000000000000009992 ) ) ;
#29 = DIRECTION ( 'NONE',  ( 0.000000000000000000, -0.8660254037844380415, -0.5000000000000011102 ) ) ;
#30 = ORIENTED_EDGE ( 'NONE', *, *, #93, .F. ) ;
#31 = CALENDAR_DATE ( 2026, 24, 8 ) ;
#32 = ORIENTED_EDGE ( 'NONE', *, *, #212, .F. ) ;
#33 = AXIS2_PLACEMENT_3D ( 'NONE', #86, #353, #28 ) ;
#34 = ORIENTED_EDGE ( 'NONE', *, *, #388, .T. ) ;
#35 = CARTESIAN_POINT ( 'NONE',  ( 1.224646799147353256E-15, 27.32050807568878170, -7.320508075688740846 ) ) ;
#36 = APPROVAL_DATE_TIME ( #70, #322 ) ;
#37 = DIRECTION ( 'NONE',  ( 0.000000000000000000, -0.5000000000000009992, 0.8660254037844380415 ) ) ;
#38 = CARTESIAN_POINT ( 'NONE',  ( 0.000000000000000000, -10.00000000000000000, 0.000000000000000000 ) ) ;
#39 = VERTEX_POINT ( 'NONE', #15 ) ;
#40 = ADVANCED_FACE ( 'NONE', ( #261 ), #391, .T. ) ;
#41 = PRODUCT_DEFINITION_FORMATION_WITH_SPECIFIED_SOURCE ( 'ANY', '', #343, .NOT_KNOWN. ) ;
#42 = ORIENTED_EDGE ( 'NONE', *, *, #406, .T. ) ;
#43 = CYLINDRICAL_SURFACE ( 'NONE', #273, 7.500000000000000000 ) ;
#44 = ADVANCED_FACE ( 'NONE', ( #162, #25 ), #210, .F. ) ;
#45 = CARTESIAN_POINT ( 'NONE',  ( 0.000000000000000000, 13.66025403784439440, -3.660254037844373531 ) ) ;
#46 = DIRECTION ( 'NONE',  ( 0.000000000000000000, 0.000000000000000000, 1.000000000000000000 ) ) ;
#47 = CIRCLE ( 'NONE', #251, 10.00000000000000000 ) ;
#48 = APPLICATION_PROTOCOL_DEFINITION ( 'international standard', 'config_control_design', 1994, #24 ) ;
#49 = CARTESIAN_POINT ( 'NONE',  ( 0.000000000000000000, 18.66025403784440684, -12.32050807568875506 ) ) ;
#50 = DIRECTION ( 'NONE',  ( 0.000000000000000000, 1.000000000000000000, 0.000000000000000000 ) ) ;
#51 = FACE_OUTER_BOUND ( 'NONE', #64, .T. ) ;
#52 = APPROVAL_DATE_TIME ( #249, #254 ) ;
#53 = VERTEX_POINT ( 'NONE', #307 ) ;
#54 = CC_DESIGN_PERSON_AND_ORGANIZATION_ASSIGNMENT ( #386, #115, ( #363 ) ) ;
#55 = DIRECTION ( 'NONE',  ( 0.000000000000000000, -0.5000000000000009992, 0.8660254037844381525 ) ) ;
#56 = EDGE_LOOP ( 'NONE', ( #317, #200, #127, #291 ) ) ;
#57 = CALENDAR_DATE ( 2026, 24, 8 ) ;
#58 = AXIS2_PLACEMENT_3D ( 'NONE', #280, #50, #374 ) ;
#59 = CIRCLE ( 'NONE', #110, 7.500000000000000000 ) ;
#60 = APPROVAL_PERSON_ORGANIZATION ( #302, #254, #352 ) ;
#61 = ORIENTED_EDGE ( 'NONE', *, *, #220, .F. ) ;
#62 = DIRECTION ( 'NONE',  ( 1.000000000000000000, 0.000000000000000000, 0.000000000000000000 ) ) ;
#63 = EDGE_CURVE ( 'NONE', #264, #252, #191, .T. ) ;
#64 = EDGE_LOOP ( 'NONE', ( #201, #34 ) ) ;
#65 = VERTEX_POINT ( 'NONE', #80 ) ;
#66 = AXIS2_PLACEMENT_3D ( 'NONE', #16, #341, #262 ) ;
#67 = CIRCLE ( 'NONE', #174, 7.500000000000000888 ) ;
#68 = ORIENTED_EDGE ( 'NONE', *, *, #244, .F. ) ;
#69 = CARTESIAN_POINT ( 'NONE',  ( 0.000000000000000000, -5.000000000000000000, -7.500000000000000000 ) ) ;
#70 = DATE_AND_TIME ( #31, #151 ) ;
#71 = ORIENTED_EDGE ( 'NONE', *, *, #406, .F. ) ;
#72 = CYLINDRICAL_SURFACE ( 'NONE', #66, 10.00000000000000000 ) ;
#73 = UNCERTAINTY_MEASURE_WITH_UNIT (LENGTH_MEASURE( 1.000000000000000082E-05 ), #165, 'distance_accuracy_value', 'NONE');
#74 = EDGE_LOOP ( 'NONE', ( #258, #157 ) ) ;
#75 = CIRCLE ( 'NONE', #3, 7.500000000000000888 ) ;
#76 = DIRECTION ( 'NONE',  ( 0.000000000000000000, -0.000000000000000000, 1.000000000000000000 ) ) ;
#77 = CARTESIAN_POINT ( 'NONE',  ( 0.000000000000000000, -5.000000000000000000, 0.000000000000000000 ) ) ;
#78 = EDGE_CURVE ( 'NONE', #11, #390, #285, .T. ) ;
#79 = LINE ( 'NONE', #169, #413 ) ;
#80 = CARTESIAN_POINT ( 'NONE',  ( 9.184850993605147944E-16, -10.00000000000000000, 7.500000000000000000 ) ) ;
#81 = CARTESIAN_POINT ( 'NONE',  ( 0.000000000000000000, 0.000000000000000000, 0.000000000000000000 ) ) ;
#82 = DIRECTION ( 'NONE',  ( 0.000000000000000000, 0.8660254037844380415, 0.5000000000000007772 ) ) ;
#83 = PERSON_AND_ORGANIZATION_ROLE ( 'design_owner' ) ;
#84 = AXIS2_PLACEMENT_3D ( 'NONE', #163, #202, #154 ) ;
#85 = PRODUCT_RELATED_PRODUCT_CATEGORY ( 'detail', '', ( #343 ) ) ;
#86 = CARTESIAN_POINT ( 'NONE',  ( 0.000000000000000000, 8.660254037844381969, 5.000000000000010658 ) ) ;
#87 = PERSON_AND_ORGANIZATION ( #346, #23 ) ;
#88 = COORDINATED_UNIVERSAL_TIME_OFFSET ( 5, 30, .AHEAD. ) ;
#89 = DIRECTION ( 'NONE',  ( 0.000000000000000000, -0.8660254037844380415, -0.5000000000000009992 ) ) ;
#90 = CC_DESIGN_APPROVAL ( #254, ( #41 ) ) ;
#91 = PERSON_AND_ORGANIZATION_ROLE ( 'classification_officer' ) ;
#92 = VERTEX_POINT ( 'NONE', #314 ) ;
#93 = EDGE_CURVE ( 'NONE', #39, #102, #378, .T. ) ;
#94 = FACE_OUTER_BOUND ( 'NONE', #271, .T. ) ;
#95 = CARTESIAN_POINT ( 'NONE',  ( 0.000000000000000000, 25.15544456622769331, -8.570508075688747951 ) ) ;
#96 = CC_DESIGN_APPROVAL ( #322, ( #168 ) ) ;
#97 = EDGE_CURVE ( 'NONE', #102, #65, #241, .T. ) ;
#98 = ORIENTED_EDGE ( 'NONE', *, *, #63, .F. ) ;
#99 = LINE ( 'NONE', #303, #193 ) ;
#100 = ORIENTED_EDGE ( 'NONE', *, *, #312, .T. ) ;
#101 = CARTESIAN_POINT ( 'NONE',  ( 1.224646799147353256E-15, -10.00000000000000000, -10.00000000000000000 ) ) ;
#102 = VERTEX_POINT ( 'NONE', #276 ) ;
#103 = AXIS2_PLACEMENT_3D ( 'NONE', #120, #37, #232 ) ;
#104 = ORIENTED_EDGE ( 'NONE', *, *, #170, .F. ) ;
#105 = CARTESIAN_POINT ( 'NONE',  ( 0.000000000000000000, -10.00000000000000000, 0.000000000000000000 ) ) ;
#106 = DIRECTION ( 'NONE',  ( 0.000000000000000000, 0.5000000000000009992, -0.8660254037844381525 ) ) ;
#107 = DIRECTION ( 'NONE',  ( 0.000000000000000000, -0.000000000000000000, -1.000000000000000000 ) ) ;
#108 = CIRCLE ( 'NONE', #369, 10.00000000000000000 ) ;
#109 = FACE_OUTER_BOUND ( 'NONE', #74, .T. ) ;
#110 = AXIS2_PLACEMENT_3D ( 'NONE', #77, #204, #380 ) ;
#111 = LOCAL_TIME ( 2, 39, 48.00000000000000000, #286 ) ;
#112 = DIRECTION ( 'NONE',  ( 0.000000000000000000, 0.000000000000000000, 1.000000000000000000 ) ) ;
#113 = CARTESIAN_POINT ( 'NONE',  ( 9.184850993605147944E-16, 7.165063509461108815, -7.410254037844380193 ) ) ;
#114 = CIRCLE ( 'NONE', #133, 7.500000000000000888 ) ;
#115 = PERSON_AND_ORGANIZATION_ROLE ( 'creator' ) ;
#116 = CARTESIAN_POINT ( 'NONE',  ( 0.000000000000000000, 18.66025403784440329, -12.32050807568875150 ) ) ;
#117 = ADVANCED_FACE ( 'NONE', ( #412 ), #407, .F. ) ;
#118 = ORIENTED_EDGE ( 'NONE', *, *, #361, .F. ) ;
#119 = CARTESIAN_POINT ( 'NONE',  ( 0.000000000000000000, 0.000000000000000000, 0.000000000000000000 ) ) ;
#120 = CARTESIAN_POINT ( 'NONE',  ( 0.000000000000000000, 8.660254037844381969, 5.000000000000010658 ) ) ;
#121 = FACE_OUTER_BOUND ( 'NONE', #56, .T. ) ;
#122 = MANIFOLD_SOLID_BREP ( 'Cut-Extrude2', #179 ) ;
#123 = EDGE_LOOP ( 'NONE', ( #287, #223 ) ) ;
#124 = DIRECTION ( 'NONE',  ( 0.000000000000000000, 0.5000000000000009992, -0.8660254037844381525 ) ) ;
#125 = AXIS2_PLACEMENT_3D ( 'NONE', #105, #367, #233 ) ;
#126 = DIRECTION ( 'NONE',  ( 0.000000000000000000, 0.5000000000000009992, -0.8660254037844381525 ) ) ;
#127 = ORIENTED_EDGE ( 'NONE', *, *, #385, .T. ) ;
#128 = DIRECTION ( 'NONE',  ( 0.000000000000000000, -0.5000000000000009992, 0.8660254037844381525 ) ) ;
#129 = DIRECTION ( 'NONE',  ( 0.000000000000000000, 0.8660254037844380415, 0.5000000000000009992 ) ) ;
#130 = LINE ( 'NONE', #270, #379 ) ;
#131 = ORIENTED_EDGE ( 'NONE', *, *, #310, .T. ) ;
#132 = LINE ( 'NONE', #35, #250 ) ;
#133 = AXIS2_PLACEMENT_3D ( 'NONE', #225, #124, #373 ) ;
#134 = ADVANCED_FACE ( 'NONE', ( #109 ), #410, .T. ) ;
#135 = DIRECTION ( 'NONE',  ( -0.000000000000000000, 0.5000000000000009992, -0.8660254037844381525 ) ) ;
#136 = CARTESIAN_POINT ( 'NONE',  ( 0.000000000000000000, -5.000000000000000000, 0.000000000000000000 ) ) ;
#137 = DIRECTION ( 'NONE',  ( 0.000000000000000000, 0.5000000000000009992, -0.8660254037844381525 ) ) ;
#138 = FACE_OUTER_BOUND ( 'NONE', #323, .T. ) ;
#139 = CARTESIAN_POINT ( 'NONE',  ( 0.000000000000000000, -5.000000000000000000, 0.000000000000000000 ) ) ;
#140 = ORIENTED_EDGE ( 'NONE', *, *, #361, .T. ) ;
#141 = APPROVAL_DATE_TIME ( #2, #387 ) ;
#142 = AXIS2_PLACEMENT_3D ( 'NONE', #155, #370, #76 ) ;
#143 = ORIENTED_EDGE ( 'NONE', *, *, #212, .T. ) ;
#144 = CIRCLE ( 'NONE', #33, 10.00000000000000178 ) ;
#145 = PERSON_AND_ORGANIZATION ( #346, #23 ) ;
#146 = FACE_BOUND ( 'NONE', #161, .T. ) ;
#147 = ORIENTED_EDGE ( 'NONE', *, *, #172, .T. ) ;
#148 = APPLICATION_PROTOCOL_DEFINITION ( 'international standard', 'config_control_design', 1994, #420 ) ;
#149 = APPROVAL_ROLE ( '' ) ;
#150 = AXIS2_PLACEMENT_3D ( 'NONE', #274, #208, #245 ) ;
#151 = LOCAL_TIME ( 2, 39, 48.00000000000000000, #393 ) ;
#152 = EDGE_CURVE ( 'NONE', #53, #394, #22, .T. ) ;
#153 = CARTESIAN_POINT ( 'NONE',  ( 0.000000000000000000, 18.66025403784440329, -12.32050807568875150 ) ) ;
#154 = DIRECTION ( 'NONE',  ( 0.000000000000000000, 0.000000000000000000, -1.000000000000000000 ) ) ;
#155 = CARTESIAN_POINT ( 'NONE',  ( 0.000000000000000000, 0.000000000000000000, 0.000000000000000000 ) ) ;
#156 = CARTESIAN_POINT ( 'NONE',  ( 0.000000000000000000, 20.15544456622767910, 0.08974596215563426793 ) ) ;
#157 = ORIENTED_EDGE ( 'NONE', *, *, #26, .T. ) ;
#158 = CARTESIAN_POINT ( 'NONE',  ( 0.000000000000000000, 18.66025403784440329, -12.32050807568875150 ) ) ;
#159 = AXIS2_PLACEMENT_3D ( 'NONE', #239, #135, #309 ) ;
#160 = APPROVAL_PERSON_ORGANIZATION ( #288, #387, #255 ) ;
#161 = EDGE_LOOP ( 'NONE', ( #98, #104 ) ) ;
#162 = FACE_BOUND ( 'NONE', #299, .T. ) ;
#163 = CARTESIAN_POINT ( 'NONE',  ( 0.000000000000000000, -10.00000000000000000, 0.000000000000000000 ) ) ;
#164 = DIRECTION ( 'NONE',  ( 0.000000000000000000, -1.000000000000000000, 0.000000000000000000 ) ) ;
#165 =( LENGTH_UNIT ( ) NAMED_UNIT ( * ) SI_UNIT ( .MILLI., .METRE. ) );
#166 = AXIS2_PLACEMENT_3D ( 'NONE', #417, #348, #278 ) ;
#167 = VECTOR ( 'NONE', #398, 1000.000000000000114 ) ;
#168 = SECURITY_CLASSIFICATION ( '', '', #275 ) ;
#169 = CARTESIAN_POINT ( 'NONE',  ( 0.000000000000000000, 20.15544456622767910, 0.08974596215563382384 ) ) ;
#170 = EDGE_CURVE ( 'NONE', #252, #264, #75, .T. ) ;
#171 = DIRECTION ( 'NONE',  ( 0.000000000000000000, -0.5000000000000009992, 0.8660254037844380415 ) ) ;
#172 = EDGE_CURVE ( 'NONE', #394, #53, #108, .T. ) ;
#173 = CYLINDRICAL_SURFACE ( 'NONE', #217, 7.500000000000000000 ) ;
#174 = AXIS2_PLACEMENT_3D ( 'NONE', #45, #126, #334 ) ;
#175 = LOCAL_TIME ( 2, 39, 48.00000000000000000, #88 ) ;
#176 =( NAMED_UNIT ( * ) PLANE_ANGLE_UNIT ( ) SI_UNIT ( $, .RADIAN. ) );
#177 = ADVANCED_FACE ( 'NONE', ( #213 ), #173, .F. ) ;
#178 = ORIENTED_EDGE ( 'NONE', *, *, #63, .T. ) ;
#179 = CLOSED_SHELL ( 'NONE', ( #418, #238, #304, #247, #134, #117, #4 ) ) ;
#180 = AXIS2_PLACEMENT_3D ( 'NONE', #20, #164, #203 ) ;
#181 = EDGE_LOOP ( 'NONE', ( #366, #229, #68, #215 ) ) ;
#182 = CIRCLE ( 'NONE', #84, 7.500000000000000000 ) ;
#183 = DATE_AND_TIME ( #57, #175 ) ;
#184 = CC_DESIGN_PERSON_AND_ORGANIZATION_ASSIGNMENT ( #87, #408, ( #41 ) ) ;
#185 = COORDINATED_UNIVERSAL_TIME_OFFSET ( 5, 30, .AHEAD. ) ;
#186 = ORIENTED_EDGE ( 'NONE', *, *, #97, .F. ) ;
#187 = MECHANICAL_CONTEXT ( 'NONE', #24, 'mechanical' ) ;
#188 = VERTEX_POINT ( 'NONE', #113 ) ;
#189 = DIRECTION ( 'NONE',  ( 0.000000000000000000, 0.000000000000000000, 1.000000000000000000 ) ) ;
#190 = SHAPE_DEFINITION_REPRESENTATION ( #8, #237 ) ;
#191 = CIRCLE ( 'NONE', #360, 7.500000000000000888 ) ;
#192 = ORIENTED_EDGE ( 'NONE', *, *, #354, .T. ) ;
#193 = VECTOR ( 'NONE', #14, 1000.000000000000000 ) ;
#194 =( GEOMETRIC_REPRESENTATION_CONTEXT ( 3 ) GLOBAL_UNCERTAINTY_ASSIGNED_CONTEXT ( ( #73 ) ) GLOBAL_UNIT_ASSIGNED_CONTEXT ( ( #165, #176, #375 ) ) REPRESENTATION_CONTEXT ( 'NONE', 'WORKASPACE' ) );
#195 = VERTEX_POINT ( 'NONE', #246 ) ;
#196 = LINE ( 'NONE', #101, #419 ) ;
#197 = DATE_AND_TIME ( #221, #405 ) ;
#198 = ORIENTED_EDGE ( 'NONE', *, *, #170, .T. ) ;
#199 = LINE ( 'NONE', #371, #167 ) ;
#200 = ORIENTED_EDGE ( 'NONE', *, *, #78, .T. ) ;
#201 = ORIENTED_EDGE ( 'NONE', *, *, #93, .T. ) ;
#202 = DIRECTION ( 'NONE',  ( 0.000000000000000000, -1.000000000000000000, 0.000000000000000000 ) ) ;
#203 = DIRECTION ( 'NONE',  ( 0.000000000000000000, 0.000000000000000000, -1.000000000000000000 ) ) ;
#204 = DIRECTION ( 'NONE',  ( 0.000000000000000000, -1.000000000000000000, 0.000000000000000000 ) ) ;
#205 = DIRECTION ( 'NONE',  ( 0.000000000000000000, 0.8660254037844380415, 0.5000000000000007772 ) ) ;
#206 = PERSON_AND_ORGANIZATION ( #346, #23 ) ;
#207 = LOCAL_TIME ( 2, 39, 48.00000000000000000, #27 ) ;
#208 = DIRECTION ( 'NONE',  ( 0.000000000000000000, 1.000000000000000000, 0.000000000000000000 ) ) ;
#209 = DIRECTION ( 'NONE',  ( 0.000000000000000000, 0.8660254037844380415, 0.5000000000000008882 ) ) ;
#210 = PLANE ( 'NONE',  #150 ) ;
#211 = DIRECTION ( 'NONE',  ( 0.000000000000000000, 1.000000000000000000, 0.000000000000000000 ) ) ;
#212 = EDGE_CURVE ( 'NONE', #335, #264, #79, .T. ) ;
#213 = FACE_OUTER_BOUND ( 'NONE', #227, .T. ) ;
#214 = VERTEX_POINT ( 'NONE', #19 ) ;
#215 = ORIENTED_EDGE ( 'NONE', *, *, #385, .F. ) ;
#216 = AXIS2_PLACEMENT_3D ( 'NONE', #153, #364, #269 ) ;
#217 = AXIS2_PLACEMENT_3D ( 'NONE', #139, #344, #282 ) ;
#218 = EDGE_LOOP ( 'NONE', ( #7, #372 ) ) ;
#219 = AXIS2_PLACEMENT_3D ( 'NONE', #136, #347, #107 ) ;
#220 = EDGE_CURVE ( 'NONE', #188, #335, #67, .T. ) ;
#221 = CALENDAR_DATE ( 2026, 24, 8 ) ;
#222 = ORIENTED_EDGE ( 'NONE', *, *, #354, .F. ) ;
#223 = ORIENTED_EDGE ( 'NONE', *, *, #78, .F. ) ;
#224 = AXIS2_PLACEMENT_3D ( 'NONE', #12, #265, #331 ) ;
#225 = CARTESIAN_POINT ( 'NONE',  ( 0.000000000000000000, 13.66025403784439440, -3.660254037844373531 ) ) ;
#226 = PERSON_AND_ORGANIZATION ( #346, #23 ) ;
#227 = EDGE_LOOP ( 'NONE', ( #186, #30, #192, #402 ) ) ;
#228 = CYLINDRICAL_SURFACE ( 'NONE', #328, 10.00000000000000178 ) ;
#229 = ORIENTED_EDGE ( 'NONE', *, *, #350, .T. ) ;
#230 = EDGE_CURVE ( 'NONE', #195, #65, #279, .T. ) ;
#231 = DIRECTION ( 'NONE',  ( 0.000000000000000000, 1.000000000000000000, 0.000000000000000000 ) ) ;
#232 = DIRECTION ( 'NONE',  ( 0.000000000000000000, -0.8660254037844380415, -0.5000000000000009992 ) ) ;
#233 = DIRECTION ( 'NONE',  ( 0.000000000000000000, 0.000000000000000000, 1.000000000000000000 ) ) ;
#234 = DESIGN_CONTEXT ( 'detailed design', #420, 'design' ) ;
#235 = ORIENTED_EDGE ( 'NONE', *, *, #382, .F. ) ;
#236 = DIRECTION ( 'NONE',  ( -0.000000000000000000, -1.000000000000000000, -0.000000000000000000 ) ) ;
#237 = ADVANCED_BREP_SHAPE_REPRESENTATION ( '30DegreeeAngle_Default_sldprt', ( #277, #122, #395 ), #194 ) ;
#238 = ADVANCED_FACE ( 'NONE', ( #359 ), #325, .T. ) ;
#239 = CARTESIAN_POINT ( 'NONE',  ( 0.000000000000000000, 13.66025403784439440, -3.660254037844373531 ) ) ;
#240 = DIRECTION ( 'NONE',  ( -0.000000000000000000, 0.5000000000000009992, -0.8660254037844381525 ) ) ;
#241 = LINE ( 'NONE', #377, #337 ) ;
#242 = AXIS2_PLACEMENT_3D ( 'NONE', #311, #171, #243 ) ;
#243 = DIRECTION ( 'NONE',  ( 0.000000000000000000, -0.8660254037844380415, -0.5000000000000009992 ) ) ;
#244 = EDGE_CURVE ( 'NONE', #340, #319, #144, .T. ) ;
#245 = DIRECTION ( 'NONE',  ( 0.000000000000000000, -0.000000000000000000, 1.000000000000000000 ) ) ;
#246 = CARTESIAN_POINT ( 'NONE',  ( 0.000000000000000000, -10.00000000000000000, -7.500000000000000000 ) ) ;
#247 = ADVANCED_FACE ( 'NONE', ( #146, #289 ), #422, .F. ) ;
#248 = CIRCLE ( 'NONE', #103, 10.00000000000000178 ) ;
#249 = DATE_AND_TIME ( #315, #111 ) ;
#250 = VECTOR ( 'NONE', #392, 1000.000000000000114 ) ;
#251 = AXIS2_PLACEMENT_3D ( 'NONE', #81, #211, #46 ) ;
#252 = VERTEX_POINT ( 'NONE', #358 ) ;
#253 = DIRECTION ( 'NONE',  ( 0.000000000000000000, 0.000000000000000000, -1.000000000000000000 ) ) ;
#254 = APPROVAL ( #329, 'UNSPECIFIED' ) ;
#255 = APPROVAL_ROLE ( '' ) ;
#256 = DIRECTION ( 'NONE',  ( 0.000000000000000000, -0.5000000000000009992, 0.8660254037844380415 ) ) ;
#257 = DATE_TIME_ROLE ( 'classification_date' ) ;
#258 = ORIENTED_EDGE ( 'NONE', *, *, #244, .T. ) ;
#259 = DATE_TIME_ROLE ( 'creation_date' ) ;
#260 = AXIS2_PLACEMENT_3D ( 'NONE', #409, #240, #209 ) ;
#261 = FACE_OUTER_BOUND ( 'NONE', #1, .T. ) ;
#262 = DIRECTION ( 'NONE',  ( 0.000000000000000000, 0.000000000000000000, 1.000000000000000000 ) ) ;
#263 = ADVANCED_FACE ( 'NONE', ( #300 ), #43, .F. ) ;
#264 = VERTEX_POINT ( 'NONE', #95 ) ;
#265 = DIRECTION ( 'NONE',  ( 0.000000000000000000, 1.000000000000000000, 0.000000000000000000 ) ) ;
#266 = CC_DESIGN_PERSON_AND_ORGANIZATION_ASSIGNMENT ( #403, #308, ( #41 ) ) ;
#267 = ORIENTED_EDGE ( 'NONE', *, *, #312, .F. ) ;
#268 = LINE ( 'NONE', #69, #362 ) ;
#269 = DIRECTION ( 'NONE',  ( 0.000000000000000000, -0.8660254037844380415, -0.5000000000000011102 ) ) ;
#270 = CARTESIAN_POINT ( 'NONE',  ( 0.000000000000000000, 10.00000000000002132, -17.32050807568876394 ) ) ;
#271 = EDGE_LOOP ( 'NONE', ( #100, #283 ) ) ;
#272 = CYLINDRICAL_SURFACE ( 'NONE', #125, 10.00000000000000000 ) ;
#273 = AXIS2_PLACEMENT_3D ( 'NONE', #6, #236, #333 ) ;
#274 = CARTESIAN_POINT ( 'NONE',  ( 0.000000000000000000, -10.00000000000000000, 0.000000000000000000 ) ) ;
#275 = SECURITY_CLASSIFICATION_LEVEL ( 'unclassified' ) ;
#276 = CARTESIAN_POINT ( 'NONE',  ( 9.184850993605147944E-16, -5.000000000000000000, 7.500000000000000000 ) ) ;
#277 = MANIFOLD_SOLID_BREP ( 'Cut-Extrude1', #383 ) ;
#278 = DIRECTION ( 'NONE',  ( 0.000000000000000000, -0.8660254037844380415, -0.5000000000000011102 ) ) ;
#279 = CIRCLE ( 'NONE', #351, 7.500000000000000000 ) ;
#280 = CARTESIAN_POINT ( 'NONE',  ( 0.000000000000000000, -10.00000000000000000, 0.000000000000000000 ) ) ;
#281 = CYLINDRICAL_SURFACE ( 'NONE', #260, 7.500000000000000888 ) ;
#282 = DIRECTION ( 'NONE',  ( 0.000000000000000000, 0.000000000000000000, -1.000000000000000000 ) ) ;
#283 = ORIENTED_EDGE ( 'NONE', *, *, #220, .T. ) ;
#284 = CC_DESIGN_PERSON_AND_ORGANIZATION_ASSIGNMENT ( #206, #91, ( #168 ) ) ;
#285 = CIRCLE ( 'NONE', #166, 10.00000000000000178 ) ;
#286 = COORDINATED_UNIVERSAL_TIME_OFFSET ( 5, 30, .AHEAD. ) ;
#287 = ORIENTED_EDGE ( 'NONE', *, *, #10, .F. ) ;
#288 = PERSON_AND_ORGANIZATION ( #346, #23 ) ;
#289 = FACE_OUTER_BOUND ( 'NONE', #123, .T. ) ;
#290 = EDGE_LOOP ( 'NONE', ( #147, #327, #355, #368 ) ) ;
#291 = ORIENTED_EDGE ( 'NONE', *, *, #26, .F. ) ;
#292 = CALENDAR_DATE ( 2026, 24, 8 ) ;
#293 = CIRCLE ( 'NONE', #216, 10.00000000000000178 ) ;
#294 = ORIENTED_EDGE ( 'NONE', *, *, #388, .F. ) ;
#295 = CC_DESIGN_SECURITY_CLASSIFICATION ( #168, ( #41 ) ) ;
#296 = ORIENTED_EDGE ( 'NONE', *, *, #230, .F. ) ;
#297 = ORIENTED_EDGE ( 'NONE', *, *, #310, .F. ) ;
#298 = FACE_OUTER_BOUND ( 'NONE', #290, .T. ) ;
#299 = EDGE_LOOP ( 'NONE', ( #296, #297 ) ) ;
#300 = FACE_OUTER_BOUND ( 'NONE', #357, .T. ) ;
#301 = PLANE ( 'NONE',  #17 ) ;
#302 = PERSON_AND_ORGANIZATION ( #346, #23 ) ;
#303 = CARTESIAN_POINT ( 'NONE',  ( 0.000000000000000000, -10.00000000000000000, 10.00000000000000000 ) ) ;
#304 = ADVANCED_FACE ( 'NONE', ( #121 ), #228, .T. ) ;
#305 = EDGE_LOOP ( 'NONE', ( #118, #267, #143, #178 ) ) ;
#306 = FACE_OUTER_BOUND ( 'NONE', #389, .T. ) ;
#307 = CARTESIAN_POINT ( 'NONE',  ( 1.224646799147353256E-15, -10.00000000000000000, -10.00000000000000000 ) ) ;
#308 = PERSON_AND_ORGANIZATION_ROLE ( 'design_supplier' ) ;
#309 = DIRECTION ( 'NONE',  ( 0.000000000000000000, 0.8660254037844380415, 0.5000000000000008882 ) ) ;
#310 = EDGE_CURVE ( 'NONE', #65, #195, #182, .T. ) ;
#311 = CARTESIAN_POINT ( 'NONE',  ( 0.000000000000000000, 8.660254037844381969, 5.000000000000010658 ) ) ;
#312 = EDGE_CURVE ( 'NONE', #335, #188, #114, .T. ) ;
#313 = DIRECTION ( 'NONE',  ( -0.000000000000000000, -1.000000000000000000, -0.000000000000000000 ) ) ;
#314 = CARTESIAN_POINT ( 'NONE',  ( 0.000000000000000000, 0.000000000000000000, 10.00000000000000000 ) ) ;
#315 = CALENDAR_DATE ( 2026, 24, 8 ) ;
#316 = EDGE_CURVE ( 'NONE', #92, #214, #320, .T. ) ;
#317 = ORIENTED_EDGE ( 'NONE', *, *, #350, .F. ) ;
#318 = DIRECTION ( 'NONE',  ( 0.000000000000000000, -1.000000000000000000, 0.000000000000000000 ) ) ;
#319 = VERTEX_POINT ( 'NONE', #396 ) ;
#320 = CIRCLE ( 'NONE', #224, 10.00000000000000000 ) ;
#321 = APPROVAL_STATUS ( 'not_yet_approved' ) ;
#322 = APPROVAL ( #321, 'UNSPECIFIED' ) ;
#323 = EDGE_LOOP ( 'NONE', ( #61, #140, #198, #32 ) ) ;
#324 = APPROVAL_STATUS ( 'not_yet_approved' ) ;
#325 = CYLINDRICAL_SURFACE ( 'NONE', #404, 10.00000000000000178 ) ;
#326 = ADVANCED_FACE ( 'NONE', ( #298 ), #272, .T. ) ;
#327 = ORIENTED_EDGE ( 'NONE', *, *, #382, .T. ) ;
#328 = AXIS2_PLACEMENT_3D ( 'NONE', #158, #128, #9 ) ;
#329 = APPROVAL_STATUS ( 'not_yet_approved' ) ;
#330 = CC_DESIGN_APPROVAL ( #387, ( #363 ) ) ;
#331 = DIRECTION ( 'NONE',  ( 0.000000000000000000, 0.000000000000000000, 1.000000000000000000 ) ) ;
#332 = CARTESIAN_POINT ( 'NONE',  ( 1.224646799147353256E-15, 27.32050807568878170, -7.320508075688741734 ) ) ;
#333 = DIRECTION ( 'NONE',  ( 0.000000000000000000, 0.000000000000000000, -1.000000000000000000 ) ) ;
#334 = DIRECTION ( 'NONE',  ( 0.000000000000000000, 0.8660254037844380415, 0.5000000000000008882 ) ) ;
#335 = VERTEX_POINT ( 'NONE', #156 ) ;
#336 = DIRECTION ( 'NONE',  ( -0.000000000000000000, -1.000000000000000000, -0.000000000000000000 ) ) ;
#337 = VECTOR ( 'NONE', #313, 1000.000000000000000 ) ;
#338 = CARTESIAN_POINT ( 'NONE',  ( 0.000000000000000000, 13.66025403784439440, -3.660254037844373531 ) ) ;
#339 = EDGE_CURVE ( 'NONE', #394, #92, #99, .T. ) ;
#340 = VERTEX_POINT ( 'NONE', #365 ) ;
#341 = DIRECTION ( 'NONE',  ( 0.000000000000000000, 1.000000000000000000, 0.000000000000000000 ) ) ;
#342 = DIRECTION ( 'NONE',  ( -0.000000000000000000, 0.5000000000000009992, -0.8660254037844380415 ) ) ;
#343 = PRODUCT ( '30DegreeeAngle_Default_sldprt', '30DegreeeAngle_Default_sldprt', '', ( #187 ) ) ;
#344 = DIRECTION ( 'NONE',  ( -0.000000000000000000, -1.000000000000000000, -0.000000000000000000 ) ) ;
#345 = ADVANCED_FACE ( 'NONE', ( #306 ), #72, .T. ) ;
#346 = PERSON ( 'UNSPECIFIED', 'UNSPECIFIED', 'UNSPECIFIED', ('UNSPECIFIED'), ('UNSPECIFIED'), ('UNSPECIFIED') ) ;
#347 = DIRECTION ( 'NONE',  ( 0.000000000000000000, -1.000000000000000000, 0.000000000000000000 ) ) ;
#348 = DIRECTION ( 'NONE',  ( 0.000000000000000000, -0.5000000000000009992, 0.8660254037844380415 ) ) ;
#349 = CARTESIAN_POINT ( 'NONE',  ( 0.000000000000000000, -10.00000000000000000, 10.00000000000000000 ) ) ;
#350 = EDGE_CURVE ( 'NONE', #11, #319, #132, .T. ) ;
#351 = AXIS2_PLACEMENT_3D ( 'NONE', #38, #318, #253 ) ;
#352 = APPROVAL_ROLE ( '' ) ;
#353 = DIRECTION ( 'NONE',  ( 0.000000000000000000, -0.5000000000000009992, 0.8660254037844380415 ) ) ;
#354 = EDGE_CURVE ( 'NONE', #39, #195, #268, .T. ) ;
#355 = ORIENTED_EDGE ( 'NONE', *, *, #316, .F. ) ;
#356 = APPROVAL_PERSON_ORGANIZATION ( #226, #322, #149 ) ;
#357 = EDGE_LOOP ( 'NONE', ( #294, #5, #131, #222 ) ) ;
#358 = CARTESIAN_POINT ( 'NONE',  ( 9.184850993605147944E-16, 12.16506350946111858, -16.07050807568876394 ) ) ;
#359 = FACE_OUTER_BOUND ( 'NONE', #181, .T. ) ;
#360 = AXIS2_PLACEMENT_3D ( 'NONE', #49, #106, #205 ) ;
#361 = EDGE_CURVE ( 'NONE', #188, #252, #199, .T. ) ;
#362 = VECTOR ( 'NONE', #336, 1000.000000000000000 ) ;
#363 = PRODUCT_DEFINITION ( 'UNKNOWN', '', #41, #234 ) ;
#364 = DIRECTION ( 'NONE',  ( 0.000000000000000000, -0.5000000000000009992, 0.8660254037844380415 ) ) ;
#365 = CARTESIAN_POINT ( 'NONE',  ( 0.000000000000000000, -1.734723475976807094E-15, 2.602085213965210642E-15 ) ) ;
#366 = ORIENTED_EDGE ( 'NONE', *, *, #10, .T. ) ;
#367 = DIRECTION ( 'NONE',  ( 0.000000000000000000, 1.000000000000000000, 0.000000000000000000 ) ) ;
#368 = ORIENTED_EDGE ( 'NONE', *, *, #339, .F. ) ;
#369 = AXIS2_PLACEMENT_3D ( 'NONE', #18, #415, #112 ) ;
#370 = DIRECTION ( 'NONE',  ( 0.000000000000000000, 1.000000000000000000, 0.000000000000000000 ) ) ;
#371 = CARTESIAN_POINT ( 'NONE',  ( 9.184850993605147944E-16, 7.165063509461108815, -7.410254037844380193 ) ) ;
#372 = ORIENTED_EDGE ( 'NONE', *, *, #152, .F. ) ;
#373 = DIRECTION ( 'NONE',  ( 0.000000000000000000, 0.8660254037844380415, 0.5000000000000008882 ) ) ;
#374 = DIRECTION ( 'NONE',  ( 0.000000000000000000, 0.000000000000000000, 1.000000000000000000 ) ) ;
#375 =( NAMED_UNIT ( * ) SI_UNIT ( $, .STERADIAN. ) SOLID_ANGLE_UNIT ( ) );
#376 = CC_DESIGN_DATE_AND_TIME_ASSIGNMENT ( #183, #259, ( #363 ) ) ;
#377 = CARTESIAN_POINT ( 'NONE',  ( 9.184850993605147944E-16, -5.000000000000000000, 7.500000000000000000 ) ) ;
#378 = CIRCLE ( 'NONE', #180, 7.500000000000000000 ) ;
#379 = VECTOR ( 'NONE', #401, 1000.000000000000114 ) ;
#380 = DIRECTION ( 'NONE',  ( 0.000000000000000000, 0.000000000000000000, -1.000000000000000000 ) ) ;
#381 = PLANE ( 'NONE',  #219 ) ;
#382 = EDGE_CURVE ( 'NONE', #53, #214, #196, .T. ) ;
#383 = CLOSED_SHELL ( 'NONE', ( #263, #326, #345, #44, #40, #177, #416 ) ) ;
#384 = CARTESIAN_POINT ( 'NONE',  ( 0.000000000000000000, 18.66025403784440329, -12.32050807568875150 ) ) ;
#385 = EDGE_CURVE ( 'NONE', #390, #340, #130, .T. ) ;
#386 = PERSON_AND_ORGANIZATION ( #346, #23 ) ;
#387 = APPROVAL ( #324, 'UNSPECIFIED' ) ;
#388 = EDGE_CURVE ( 'NONE', #102, #39, #59, .T. ) ;
#389 = EDGE_LOOP ( 'NONE', ( #235, #421, #397, #71 ) ) ;
#390 = VERTEX_POINT ( 'NONE', #411 ) ;
#391 = PLANE ( 'NONE',  #142 ) ;
#392 = DIRECTION ( 'NONE',  ( 0.000000000000000000, -0.5000000000000009992, 0.8660254037844380415 ) ) ;
#393 = COORDINATED_UNIVERSAL_TIME_OFFSET ( 5, 30, .AHEAD. ) ;
#394 = VERTEX_POINT ( 'NONE', #349 ) ;
#395 = AXIS2_PLACEMENT_3D ( 'NONE', #119, #189, #62 ) ;
#396 = CARTESIAN_POINT ( 'NONE',  ( 1.224646799147353256E-15, 17.32050807568876394, 10.00000000000002309 ) ) ;
#397 = ORIENTED_EDGE ( 'NONE', *, *, #339, .T. ) ;
#398 = DIRECTION ( 'NONE',  ( -0.000000000000000000, 0.5000000000000009992, -0.8660254037844380415 ) ) ;
#399 = ORIENTED_EDGE ( 'NONE', *, *, #316, .T. ) ;
#400 = CC_DESIGN_DATE_AND_TIME_ASSIGNMENT ( #197, #257, ( #168 ) ) ;
#401 = DIRECTION ( 'NONE',  ( 0.000000000000000000, -0.5000000000000009992, 0.8660254037844380415 ) ) ;
#402 = ORIENTED_EDGE ( 'NONE', *, *, #230, .T. ) ;
#403 = PERSON_AND_ORGANIZATION ( #346, #23 ) ;
#404 = AXIS2_PLACEMENT_3D ( 'NONE', #384, #55, #29 ) ;
#405 = LOCAL_TIME ( 2, 39, 48.00000000000000000, #185 ) ;
#406 = EDGE_CURVE ( 'NONE', #214, #92, #47, .T. ) ;
#407 = CYLINDRICAL_SURFACE ( 'NONE', #159, 7.500000000000000888 ) ;
#408 = PERSON_AND_ORGANIZATION_ROLE ( 'creator' ) ;
#409 = CARTESIAN_POINT ( 'NONE',  ( 0.000000000000000000, 13.66025403784439440, -3.660254037844373531 ) ) ;
#410 = PLANE ( 'NONE',  #242 ) ;
#411 = CARTESIAN_POINT ( 'NONE',  ( 0.000000000000000000, 10.00000000000002132, -17.32050807568876394 ) ) ;
#412 = FACE_OUTER_BOUND ( 'NONE', #305, .T. ) ;
#413 = VECTOR ( 'NONE', #342, 1000.000000000000114 ) ;
#414 = AXIS2_PLACEMENT_3D ( 'NONE', #116, #256, #89 ) ;
#415 = DIRECTION ( 'NONE',  ( 0.000000000000000000, 1.000000000000000000, 0.000000000000000000 ) ) ;
#416 = ADVANCED_FACE ( 'NONE', ( #51 ), #381, .T. ) ;
#417 = CARTESIAN_POINT ( 'NONE',  ( 0.000000000000000000, 18.66025403784440329, -12.32050807568875150 ) ) ;
#418 = ADVANCED_FACE ( 'NONE', ( #138 ), #281, .F. ) ;
#419 = VECTOR ( 'NONE', #231, 1000.000000000000000 ) ;
#420 = APPLICATION_CONTEXT ( 'configuration controlled 3d designs of mechanical parts and assemblies' ) ;
#421 = ORIENTED_EDGE ( 'NONE', *, *, #152, .T. ) ;
#422 = PLANE ( 'NONE',  #414 ) ;
#423 = CC_DESIGN_PERSON_AND_ORGANIZATION_ASSIGNMENT ( #145, #83, ( #343 ) ) ;
ENDSEC;
END-ISO-10303-21;
