ISO-10303-21;
HEADER;
FILE_DESCRIPTION (( 'STEP AP203' ),
    '1' );
FILE_NAME ('30DegreeeAngle_down_sldprt.STEP',
    '2026-08-23T21:09:51',
    ( '' ),
    ( '' ),
    'SwSTEP 2.0',
    'SolidWorks 2020',
    '' );
FILE_SCHEMA (( 'CONFIG_CONTROL_DESIGN' ));
ENDSEC;

DATA;
#1 = VERTEX_POINT ( 'NONE', #288 ) ;
#2 = LOCAL_TIME ( 2, 39, 51.00000000000000000, #117 ) ;
#3 = CALENDAR_DATE ( 2026, 24, 8 ) ;
#4 = AXIS2_PLACEMENT_3D ( 'NONE', #102, #133, #103 ) ;
#5 = ADVANCED_FACE ( 'NONE', ( #322 ), #51, .T. ) ;
#6 = VERTEX_POINT ( 'NONE', #218 ) ;
#7 =( BOUNDED_CURVE ( )  B_SPLINE_CURVE ( 3, ( #135, #438, #374, #23 ),
 .UNSPECIFIED., .F., .F. ) 
 B_SPLINE_CURVE_WITH_KNOTS ( ( 4, 4 ),
 ( 5.442116636611655345, 6.283185307179586232 ),
 .UNSPECIFIED. ) 
 CURVE ( )  GEOMETRIC_REPRESENTATION_ITEM ( )  RATIONAL_B_SPLINE_CURVE ( ( 1.000000000000000000, 0.9419139527835176384, 0.9419139527835176384, 1.000000000000000000 ) ) 
 REPRESENTATION_ITEM ( '' )  );
#8 = CARTESIAN_POINT ( 'NONE',  ( 0.000000000000000000, -2.834936490538914722, 9.910254037844389075 ) ) ;
#9 = FACE_BOUND ( 'NONE', #212, .T. ) ;
#10 = DIRECTION ( 'NONE',  ( 0.000000000000000000, -0.8660254037844380415, -0.5000000000000009992 ) ) ;
#11 = ADVANCED_FACE ( 'NONE', ( #178 ), #126, .T. ) ;
#12 = CIRCLE ( 'NONE', #264, 10.00000000000000000 ) ;
#13 = DIRECTION ( 'NONE',  ( 0.000000000000000000, 0.000000000000000000, 1.000000000000000000 ) ) ;
#14 = VECTOR ( 'NONE', #336, 1000.000000000000114 ) ;
#15 = CARTESIAN_POINT ( 'NONE',  ( 5.527230199078922546, 0.000000000000000000, 2.359262452430155754 ) ) ;
#16 = APPLICATION_CONTEXT ( 'configuration controlled 3d designs of mechanical parts and assemblies' ) ;
#17 = ORGANIZATION ( 'UNSPECIFIED', 'UNSPECIFIED', '' ) ;
#18 = CYLINDRICAL_SURFACE ( 'NONE', #213, 7.499999999999999112 ) ;
#19 = DIRECTION ( 'NONE',  ( -0.000000000000000000, -0.5000000000000009992, 0.8660254037844381525 ) ) ;
#20 = CARTESIAN_POINT ( 'NONE',  ( 1.224646799147353256E-15, 0.000000000000000000, -10.00000000000000000 ) ) ;
#21 = AXIS2_PLACEMENT_3D ( 'NONE', #105, #141, #167 ) ;
#22 = EDGE_CURVE ( 'NONE', #6, #45, #255, .T. ) ;
#23 = CARTESIAN_POINT ( 'NONE',  ( 0.000000000000000000, 0.000000000000000000, 0.000000000000000000 ) ) ;
#24 = FACE_OUTER_BOUND ( 'NONE', #350, .T. ) ;
#25 = CYLINDRICAL_SURFACE ( 'NONE', #100, 10.00000000000000000 ) ;
#26 = ADVANCED_FACE ( 'NONE', ( #154 ), #18, .F. ) ;
#27 = CARTESIAN_POINT ( 'NONE',  ( 0.000000000000000000, 0.000000000000000000, 0.000000000000000000 ) ) ;
#28 = CIRCLE ( 'NONE', #285, 7.500000000000000000 ) ;
#29 = CARTESIAN_POINT ( 'NONE',  ( 0.000000000000000000, -5.773502691896279515, 10.00000000000000000 ) ) ;
#30 = PLANE ( 'NONE',  #305 ) ;
#31 = DIRECTION ( 'NONE',  ( 0.000000000000000000, 0.000000000000000000, 1.000000000000000000 ) ) ;
#32 = EDGE_CURVE ( 'NONE', #276, #311, #182, .T. ) ;
#33 = ORIENTED_EDGE ( 'NONE', *, *, #191, .T. ) ;
#34 = FACE_OUTER_BOUND ( 'NONE', #223, .T. ) ;
#35 = ORIENTED_EDGE ( 'NONE', *, *, #365, .T. ) ;
#36 = CIRCLE ( 'NONE', #429, 7.499999999999999112 ) ;
#37 = APPROVAL ( #43, 'UNSPECIFIED' ) ;
#38 = VERTEX_POINT ( 'NONE', #158 ) ;
#39 = CC_DESIGN_PERSON_AND_ORGANIZATION_ASSIGNMENT ( #147, #455, ( #177 ) ) ;
#40 = EDGE_CURVE ( 'NONE', #49, #6, #36, .T. ) ;
#41 = VECTOR ( 'NONE', #234, 1000.000000000000000 ) ;
#42 = FACE_OUTER_BOUND ( 'NONE', #86, .T. ) ;
#43 = APPROVAL_STATUS ( 'not_yet_approved' ) ;
#44 = CALENDAR_DATE ( 2026, 24, 8 ) ;
#45 = VERTEX_POINT ( 'NONE', #323 ) ;
#46 = ORIENTED_EDGE ( 'NONE', *, *, #450, .F. ) ;
#47 = APPROVAL_ROLE ( '' ) ;
#48 = EDGE_LOOP ( 'NONE', ( #202, #156, #397, #283 ) ) ;
#49 = VERTEX_POINT ( 'NONE', #181 ) ;
#50 = AXIS2_PLACEMENT_3D ( 'NONE', #184, #60, #428 ) ;
#51 = PLANE ( 'NONE',  #50 ) ;
#52 = ORIENTED_EDGE ( 'NONE', *, *, #123, .F. ) ;
#53 = VERTEX_POINT ( 'NONE', #395 ) ;
#54 = PERSON_AND_ORGANIZATION ( #221, #17 ) ;
#55 = EDGE_LOOP ( 'NONE', ( #149, #254 ) ) ;
#56 = CC_DESIGN_DATE_AND_TIME_ASSIGNMENT ( #198, #419, ( #177 ) ) ;
#57 = CIRCLE ( 'NONE', #222, 10.00000000000000000 ) ;
#58 = CARTESIAN_POINT ( 'NONE',  ( 1.224646799147353256E-15, -10.00000000000002132, 17.32050807568876394 ) ) ;
#59 =( BOUNDED_CURVE ( )  B_SPLINE_CURVE ( 3, ( #159, #324, #15, #124 ),
 .UNSPECIFIED., .F., .F. ) 
 B_SPLINE_CURVE_WITH_KNOTS ( ( 4, 4 ),
 ( 0.000000000000000000, 0.8410686705679311093 ),
 .UNSPECIFIED. ) 
 CURVE ( )  GEOMETRIC_REPRESENTATION_ITEM ( )  RATIONAL_B_SPLINE_CURVE ( ( 1.000000000000000000, 0.9419139527835176384, 0.9419139527835176384, 1.000000000000000000 ) ) 
 REPRESENTATION_ITEM ( '' )  );
#60 = DIRECTION ( 'NONE',  ( 0.000000000000000000, -1.000000000000000000, 0.000000000000000000 ) ) ;
#61 = DIRECTION ( 'NONE',  ( 0.000000000000000000, -0.5000000000000009992, 0.8660254037844380415 ) ) ;
#62 = UNCERTAINTY_MEASURE_WITH_UNIT (LENGTH_MEASURE( 1.000000000000000082E-05 ), #349, 'distance_accuracy_value', 'NONE');
#63 = EDGE_CURVE ( 'NONE', #352, #96, #59, .T. ) ;
#64 = FACE_OUTER_BOUND ( 'NONE', #392, .T. ) ;
#65 = ADVANCED_FACE ( 'NONE', ( #9, #185 ), #298, .F. ) ;
#66 = AXIS2_PLACEMENT_3D ( 'NONE', #157, #329, #330 ) ;
#67 = AXIS2_PLACEMENT_3D ( 'NONE', #98, #61, #10 ) ;
#68 = CIRCLE ( 'NONE', #152, 10.00000000000000178 ) ;
#69 = CYLINDRICAL_SURFACE ( 'NONE', #291, 7.500000000000000000 ) ;
#70 = DIRECTION ( 'NONE',  ( 0.000000000000000000, 0.8660254037844380415, 0.5000000000000011102 ) ) ;
#71 = CARTESIAN_POINT ( 'NONE',  ( 9.184850993605147944E-16, -5.000000000000000000, 7.500000000000000000 ) ) ;
#72 = DIRECTION ( 'NONE',  ( 0.000000000000000000, -0.5000000000000009992, 0.8660254037844381525 ) ) ;
#73 = DIRECTION ( 'NONE',  ( 0.000000000000000000, 1.000000000000000000, 0.000000000000000000 ) ) ;
#74 = APPROVAL_PERSON_ORGANIZATION ( #256, #37, #77 ) ;
#75 = DIRECTION ( 'NONE',  ( 0.000000000000000000, -0.5000000000000009992, 0.8660254037844380415 ) ) ;
#76 = DIRECTION ( 'NONE',  ( 0.000000000000000000, -0.8660254037844381525, -0.5000000000000009992 ) ) ;
#77 = APPROVAL_ROLE ( '' ) ;
#78 = ORIENTED_EDGE ( 'NONE', *, *, #79, .F. ) ;
#79 = EDGE_CURVE ( 'NONE', #96, #205, #362, .T. ) ;
#80 = ORIENTED_EDGE ( 'NONE', *, *, #229, .T. ) ;
#81 = DIRECTION ( 'NONE',  ( 0.000000000000000000, -0.8660254037844380415, -0.5000000000000009992 ) ) ;
#82 = ORIENTED_EDGE ( 'NONE', *, *, #110, .F. ) ;
#83 = VECTOR ( 'NONE', #326, 1000.000000000000114 ) ;
#84 =( BOUNDED_CURVE ( )  B_SPLINE_CURVE ( 3, ( #447, #140, #416, #233 ),
 .UNSPECIFIED., .F., .F. ) 
 B_SPLINE_CURVE_WITH_KNOTS ( ( 4, 4 ),
 ( 3.141592653589793116, 3.982661324157724003 ),
 .UNSPECIFIED. ) 
 CURVE ( )  GEOMETRIC_REPRESENTATION_ITEM ( )  RATIONAL_B_SPLINE_CURVE ( ( 1.000000000000000000, 0.9419139527835176384, 0.9419139527835176384, 1.000000000000000000 ) ) 
 REPRESENTATION_ITEM ( '' )  );
#85 = PERSON_AND_ORGANIZATION ( #221, #17 ) ;
#86 = EDGE_LOOP ( 'NONE', ( #366, #282 ) ) ;
#87 = PERSON_AND_ORGANIZATION ( #221, #17 ) ;
#88 = ORIENTED_EDGE ( 'NONE', *, *, #393, .T. ) ;
#89 = PERSON_AND_ORGANIZATION_ROLE ( 'creator' ) ;
#90 = ORIENTED_EDGE ( 'NONE', *, *, #339, .F. ) ;
#91 = PERSON_AND_ORGANIZATION ( #221, #17 ) ;
#92 = ORIENTED_EDGE ( 'NONE', *, *, #341, .F. ) ;
#93 = DATE_AND_TIME ( #252, #378 ) ;
#94 = CARTESIAN_POINT ( 'NONE',  ( 7.453559924999302311, 0.000000000000000000, 6.666666666666662522 ) ) ;
#95 = EDGE_LOOP ( 'NONE', ( #319, #35 ) ) ;
#96 = VERTEX_POINT ( 'NONE', #94 ) ;
#97 = CARTESIAN_POINT ( 'NONE',  ( 2.889494588880577197, -5.773502691896270633, 10.00000000000000178 ) ) ;
#98 = CARTESIAN_POINT ( 'NONE',  ( 0.000000000000000000, 8.660254037844381969, 5.000000000000010658 ) ) ;
#99 = CARTESIAN_POINT ( 'NONE',  ( 9.184850993605147944E-16, 10.15544456622765601, 17.41025403784440329 ) ) ;
#100 = AXIS2_PLACEMENT_3D ( 'NONE', #225, #369, #188 ) ;
#101 = ADVANCED_FACE ( 'NONE', ( #216 ), #361, .F. ) ;
#102 = CARTESIAN_POINT ( 'NONE',  ( 0.000000000000000000, -10.00000000000000000, 0.000000000000000000 ) ) ;
#103 = DIRECTION ( 'NONE',  ( 0.000000000000000000, 0.000000000000000000, -1.000000000000000000 ) ) ;
#104 = DIRECTION ( 'NONE',  ( 0.000000000000000000, 1.000000000000000000, 0.000000000000000000 ) ) ;
#105 = CARTESIAN_POINT ( 'NONE',  ( 0.000000000000000000, -1.339745962155639791, 22.32050807568877460 ) ) ;
#106 = CC_DESIGN_APPROVAL ( #439, ( #242 ) ) ;
#107 = FACE_OUTER_BOUND ( 'NONE', #95, .T. ) ;
#108 = AXIS2_PLACEMENT_3D ( 'NONE', #266, #132, #306 ) ;
#109 = VECTOR ( 'NONE', #368, 1000.000000000000114 ) ;
#110 = EDGE_CURVE ( 'NONE', #38, #45, #299, .T. ) ;
#111 = ADVANCED_FACE ( 'NONE', ( #272 ), #300, .F. ) ;
#112 = DIRECTION ( 'NONE',  ( 0.000000000000000000, -0.8660254037844380415, -0.5000000000000009992 ) ) ;
#113 = DIRECTION ( 'NONE',  ( 0.000000000000000000, 0.000000000000000000, 1.000000000000000000 ) ) ;
#114 = ORIENTED_EDGE ( 'NONE', *, *, #437, .T. ) ;
#115 = CALENDAR_DATE ( 2026, 24, 8 ) ;
#116 = CARTESIAN_POINT ( 'NONE',  ( 0.000000000000000000, -1.339745962155639791, 22.32050807568877460 ) ) ;
#117 = COORDINATED_UNIVERSAL_TIME_OFFSET ( 5, 30, .AHEAD. ) ;
#118 = ORIENTED_EDGE ( 'NONE', *, *, #63, .F. ) ;
#119 = AXIS2_PLACEMENT_3D ( 'NONE', #232, #271, #441 ) ;
#120 = ORIENTED_EDGE ( 'NONE', *, *, #259, .T. ) ;
#121 = ORIENTED_EDGE ( 'NONE', *, *, #32, .T. ) ;
#122 = APPROVAL_DATE_TIME ( #315, #439 ) ;
#123 = EDGE_CURVE ( 'NONE', #215, #205, #442, .T. ) ;
#124 = CARTESIAN_POINT ( 'NONE',  ( 7.453559924999302311, 0.000000000000000000, 6.666666666666662522 ) ) ;
#125 = DIRECTION ( 'NONE',  ( 0.000000000000000000, 0.000000000000000000, 1.000000000000000000 ) ) ;
#126 = PLANE ( 'NONE',  #161 ) ;
#127 = APPLICATION_PROTOCOL_DEFINITION ( 'international standard', 'config_control_design', 1994, #16 ) ;
#128 = DIRECTION ( 'NONE',  ( 0.000000000000000000, 1.000000000000000000, 0.000000000000000000 ) ) ;
#129 = CARTESIAN_POINT ( 'NONE',  ( 0.000000000000000000, 0.000000000000000000, 0.000000000000000000 ) ) ;
#130 = LOCAL_TIME ( 2, 39, 51.00000000000000000, #200 ) ;
#131 = CARTESIAN_POINT ( 'NONE',  ( 5.527230199078922546, -3.730321473896976325, 8.820368773784919014 ) ) ;
#132 = DIRECTION ( 'NONE',  ( 0.000000000000000000, -0.5000000000000009992, 0.8660254037844381525 ) ) ;
#133 = DIRECTION ( 'NONE',  ( 0.000000000000000000, -1.000000000000000000, 0.000000000000000000 ) ) ;
#134 = CC_DESIGN_APPROVAL ( #37, ( #206 ) ) ;
#135 = CARTESIAN_POINT ( 'NONE',  ( -7.453559924999302311, 0.000000000000000000, 6.666666666666662522 ) ) ;
#136 = DIRECTION ( 'NONE',  ( -0.000000000000000000, -0.5000000000000009992, 0.8660254037844381525 ) ) ;
#137 = CARTESIAN_POINT ( 'NONE',  ( 0.000000000000000000, -1.339745962155639791, 22.32050807568877460 ) ) ;
#138 = EDGE_CURVE ( 'NONE', #381, #352, #7, .T. ) ;
#139 = AXIS2_PLACEMENT_3D ( 'NONE', #358, #290, #125 ) ;
#140 = CARTESIAN_POINT ( 'NONE',  ( -2.889494588880574977, -5.773502691896273298, 10.00000000000000178 ) ) ;
#141 = DIRECTION ( 'NONE',  ( 0.000000000000000000, -0.5000000000000009992, 0.8660254037844380415 ) ) ;
#142 = ORIENTED_EDGE ( 'NONE', *, *, #63, .T. ) ;
#143 = CARTESIAN_POINT ( 'NONE',  ( 9.184850993605147944E-16, -10.00000000000000000, 7.500000000000000000 ) ) ;
#144 = DATE_AND_TIME ( #345, #130 ) ;
#145 = EDGE_LOOP ( 'NONE', ( #207, #82 ) ) ;
#146 = ORIENTED_EDGE ( 'NONE', *, *, #437, .F. ) ;
#147 = PERSON_AND_ORGANIZATION ( #221, #17 ) ;
#148 = EDGE_LOOP ( 'NONE', ( #235, #312, #433, #277 ) ) ;
#149 = ORIENTED_EDGE ( 'NONE', *, *, #384, .F. ) ;
#150 = VECTOR ( 'NONE', #104, 1000.000000000000000 ) ;
#151 = APPROVAL_ROLE ( '' ) ;
#152 = AXIS2_PLACEMENT_3D ( 'NONE', #163, #302, #371 ) ;
#153 = CARTESIAN_POINT ( 'NONE',  ( 0.000000000000000000, 0.000000000000000000, 0.000000000000000000 ) ) ;
#154 = FACE_OUTER_BOUND ( 'NONE', #148, .T. ) ;
#155 = DIRECTION ( 'NONE',  ( 0.000000000000000000, -0.000000000000000000, 1.000000000000000000 ) ) ;
#156 = ORIENTED_EDGE ( 'NONE', *, *, #450, .T. ) ;
#157 = CARTESIAN_POINT ( 'NONE',  ( 0.000000000000000000, -5.000000000000000000, 0.000000000000000000 ) ) ;
#158 = CARTESIAN_POINT ( 'NONE',  ( 9.184850993605147944E-16, 5.155444566227646241, 26.07050807568878881 ) ) ;
#159 = CARTESIAN_POINT ( 'NONE',  ( 0.000000000000000000, 0.000000000000000000, 0.000000000000000000 ) ) ;
#160 = CC_DESIGN_APPROVAL ( #190, ( #177 ) ) ;
#161 = AXIS2_PLACEMENT_3D ( 'NONE', #129, #128, #359 ) ;
#162 = ADVANCED_FACE ( 'NONE', ( #227 ), #303, .T. ) ;
#163 = CARTESIAN_POINT ( 'NONE',  ( 0.000000000000000000, 8.660254037844381969, 5.000000000000010658 ) ) ;
#164 = CARTESIAN_POINT ( 'NONE',  ( 0.000000000000000000, -5.773502691896279515, 10.00000000000000000 ) ) ;
#165 = DIRECTION ( 'NONE',  ( 0.000000000000000000, -0.5000000000000009992, 0.8660254037844380415 ) ) ;
#166 = LINE ( 'NONE', #99, #109 ) ;
#167 = DIRECTION ( 'NONE',  ( 0.000000000000000000, -0.8660254037844380415, -0.5000000000000011102 ) ) ;
#168 = LINE ( 'NONE', #58, #376 ) ;
#169 = EDGE_LOOP ( 'NONE', ( #90, #387, #174, #418, #281, #287 ) ) ;
#170 = APPROVAL_PERSON_ORGANIZATION ( #85, #439, #47 ) ;
#171 = FACE_OUTER_BOUND ( 'NONE', #385, .T. ) ;
#172 = ORIENTED_EDGE ( 'NONE', *, *, #138, .T. ) ;
#173 = VERTEX_POINT ( 'NONE', #335 ) ;
#174 = ORIENTED_EDGE ( 'NONE', *, *, #356, .T. ) ;
#175 = EDGE_LOOP ( 'NONE', ( #355, #121 ) ) ;
#176 = VERTEX_POINT ( 'NONE', #164 ) ;
#177 = SECURITY_CLASSIFICATION ( '', '', #278 ) ;
#178 = FACE_OUTER_BOUND ( 'NONE', #391, .T. ) ;
#179 = CC_DESIGN_PERSON_AND_ORGANIZATION_ASSIGNMENT ( #388, #320, ( #242 ) ) ;
#180 = ORIENTED_EDGE ( 'NONE', *, *, #402, .F. ) ;
#181 = CARTESIAN_POINT ( 'NONE',  ( 9.184850993605147944E-16, 10.15544456622765779, 17.41025403784440329 ) ) ;
#182 = CIRCLE ( 'NONE', #448, 7.500000000000000000 ) ;
#183 = AXIS2_PLACEMENT_3D ( 'NONE', #137, #275, #189 ) ;
#184 = CARTESIAN_POINT ( 'NONE',  ( 0.000000000000000000, -5.000000000000000000, 0.000000000000000000 ) ) ;
#185 = FACE_OUTER_BOUND ( 'NONE', #55, .T. ) ;
#186 = PERSON_AND_ORGANIZATION_ROLE ( 'creator' ) ;
#187 = DIRECTION ( 'NONE',  ( 0.000000000000000000, -0.8660254037844381525, -0.5000000000000009992 ) ) ;
#188 = DIRECTION ( 'NONE',  ( 0.000000000000000000, 0.000000000000000000, 1.000000000000000000 ) ) ;
#189 = DIRECTION ( 'NONE',  ( 0.000000000000000000, 0.8660254037844380415, 0.5000000000000011102 ) ) ;
#190 = APPROVAL ( #415, 'UNSPECIFIED' ) ;
#191 = EDGE_CURVE ( 'NONE', #45, #38, #413, .T. ) ;
#192 = DIRECTION ( 'NONE',  ( 0.000000000000000000, 0.000000000000000000, 1.000000000000000000 ) ) ;
#193 = DIRECTION ( 'NONE',  ( 0.000000000000000000, 0.000000000000000000, -1.000000000000000000 ) ) ;
#194 = DIRECTION ( 'NONE',  ( -0.000000000000000000, -1.000000000000000000, -0.000000000000000000 ) ) ;
#195 = EDGE_CURVE ( 'NONE', #205, #381, #12, .T. ) ;
#196 = CARTESIAN_POINT ( 'NONE',  ( 1.224646799147353256E-15, -10.00000000000000000, -10.00000000000000000 ) ) ;
#197 = CYLINDRICAL_SURFACE ( 'NONE', #405, 10.00000000000000000 ) ;
#198 = DATE_AND_TIME ( #3, #250 ) ;
#199 = DIRECTION ( 'NONE',  ( 0.000000000000000000, 1.000000000000000000, 0.000000000000000000 ) ) ;
#200 = COORDINATED_UNIVERSAL_TIME_OFFSET ( 5, 30, .AHEAD. ) ;
#201 = EDGE_CURVE ( 'NONE', #173, #342, #386, .T. ) ;
#202 = ORIENTED_EDGE ( 'NONE', *, *, #32, .F. ) ;
#203 = AXIS2_PLACEMENT_3D ( 'NONE', #301, #333, #70 ) ;
#204 = CARTESIAN_POINT ( 'NONE',  ( 0.000000000000000000, -5.000000000000000000, -7.500000000000000000 ) ) ;
#205 = VERTEX_POINT ( 'NONE', #20 ) ;
#206 = PRODUCT_DEFINITION ( 'UNKNOWN', '', #242, #296 ) ;
#207 = ORIENTED_EDGE ( 'NONE', *, *, #191, .F. ) ;
#208 = SHAPE_DEFINITION_REPRESENTATION ( #297, #408 ) ;
#209 = ORIENTED_EDGE ( 'NONE', *, *, #384, .T. ) ;
#210 = AXIS2_PLACEMENT_3D ( 'NONE', #270, #136, #187 ) ;
#211 = LOCAL_TIME ( 2, 39, 51.00000000000000000, #351 ) ;
#212 = EDGE_LOOP ( 'NONE', ( #180, #456 ) ) ;
#213 = AXIS2_PLACEMENT_3D ( 'NONE', #363, #19, #401 ) ;
#214 = CIRCLE ( 'NONE', #21, 10.00000000000000178 ) ;
#215 = VERTEX_POINT ( 'NONE', #444 ) ;
#216 = FACE_OUTER_BOUND ( 'NONE', #294, .T. ) ;
#217 =( NAMED_UNIT ( * ) SI_UNIT ( $, .STERADIAN. ) SOLID_ANGLE_UNIT ( ) );
#218 = CARTESIAN_POINT ( 'NONE',  ( 0.000000000000000000, -2.834936490538914722, 9.910254037844389075 ) ) ;
#219 =( GEOMETRIC_REPRESENTATION_CONTEXT ( 3 ) GLOBAL_UNCERTAINTY_ASSIGNED_CONTEXT ( ( #62 ) ) GLOBAL_UNIT_ASSIGNED_CONTEXT ( ( #349, #383, #217 ) ) REPRESENTATION_CONTEXT ( 'NONE', 'WORKASPACE' ) );
#220 = CIRCLE ( 'NONE', #317, 7.499999999999999112 ) ;
#221 = PERSON ( 'UNSPECIFIED', 'UNSPECIFIED', 'UNSPECIFIED', ('UNSPECIFIED'), ('UNSPECIFIED'), ('UNSPECIFIED') ) ;
#222 = AXIS2_PLACEMENT_3D ( 'NONE', #375, #73, #31 ) ;
#223 = EDGE_LOOP ( 'NONE', ( #146, #92 ) ) ;
#224 = DIRECTION ( 'NONE',  ( 0.000000000000000000, -0.8660254037844380415, -0.5000000000000007772 ) ) ;
#225 = CARTESIAN_POINT ( 'NONE',  ( 0.000000000000000000, -10.00000000000000000, 0.000000000000000000 ) ) ;
#226 = DIRECTION ( 'NONE',  ( 0.000000000000000000, 1.000000000000000000, 0.000000000000000000 ) ) ;
#227 = FACE_OUTER_BOUND ( 'NONE', #169, .T. ) ;
#228 = CARTESIAN_POINT ( 'NONE',  ( 0.000000000000000000, -10.00000000000000000, 0.000000000000000000 ) ) ;
#229 = EDGE_CURVE ( 'NONE', #96, #176, #425, .T. ) ;
#230 = LINE ( 'NONE', #409, #14 ) ;
#231 = PLANE ( 'NONE',  #430 ) ;
#232 = CARTESIAN_POINT ( 'NONE',  ( 0.000000000000000000, -5.000000000000000000, 0.000000000000000000 ) ) ;
#233 = CARTESIAN_POINT ( 'NONE',  ( -7.453559924999302311, 0.000000000000000000, 6.666666666666662522 ) ) ;
#234 = DIRECTION ( 'NONE',  ( -0.000000000000000000, -1.000000000000000000, -0.000000000000000000 ) ) ;
#235 = ORIENTED_EDGE ( 'NONE', *, *, #40, .F. ) ;
#236 = PLANE ( 'NONE',  #357 ) ;
#237 = EDGE_CURVE ( 'NONE', #49, #38, #166, .T. ) ;
#238 = ORIENTED_EDGE ( 'NONE', *, *, #398, .F. ) ;
#239 = DATE_TIME_ROLE ( 'creation_date' ) ;
#240 = APPROVAL_PERSON_ORGANIZATION ( #87, #190, #151 ) ;
#241 = AXIS2_PLACEMENT_3D ( 'NONE', #228, #268, #113 ) ;
#242 = PRODUCT_DEFINITION_FORMATION_WITH_SPECIFIED_SOURCE ( 'ANY', '', #248, .NOT_KNOWN. ) ;
#243 = ORIENTED_EDGE ( 'NONE', *, *, #402, .T. ) ;
#244 = APPROVAL_DATE_TIME ( #246, #190 ) ;
#245 = ADVANCED_FACE ( 'NONE', ( #64 ), #25, .T. ) ;
#246 = DATE_AND_TIME ( #115, #2 ) ;
#247 = EDGE_LOOP ( 'NONE', ( #454, #353, #340, #33 ) ) ;
#248 = PRODUCT ( '30DegreeeAngle_down_sldprt', '30DegreeeAngle_down_sldprt', '', ( #432 ) ) ;
#249 = PERSON_AND_ORGANIZATION_ROLE ( 'design_owner' ) ;
#250 = LOCAL_TIME ( 2, 39, 51.00000000000000000, #343 ) ;
#251 = DIRECTION ( 'NONE',  ( 0.000000000000000000, 1.000000000000000000, 0.000000000000000000 ) ) ;
#252 = CALENDAR_DATE ( 2026, 24, 8 ) ;
#253 = CIRCLE ( 'NONE', #119, 7.500000000000000000 ) ;
#254 = ORIENTED_EDGE ( 'NONE', *, *, #393, .F. ) ;
#255 = LINE ( 'NONE', #8, #83 ) ;
#256 = PERSON_AND_ORGANIZATION ( #221, #17 ) ;
#257 = DIRECTION ( 'NONE',  ( 0.000000000000000000, -0.5000000000000009992, 0.8660254037844381525 ) ) ;
#258 = CARTESIAN_POINT ( 'NONE',  ( 0.000000000000000000, -10.00000000000000000, 0.000000000000000000 ) ) ;
#259 = EDGE_CURVE ( 'NONE', #1, #176, #262, .T. ) ;
#260 = CC_DESIGN_PERSON_AND_ORGANIZATION_ASSIGNMENT ( #91, #186, ( #206 ) ) ;
#261 = CARTESIAN_POINT ( 'NONE',  ( 0.000000000000000000, -1.339745962155639791, 22.32050807568877460 ) ) ;
#262 = LINE ( 'NONE', #404, #347 ) ;
#263 = CARTESIAN_POINT ( 'NONE',  ( 0.000000000000000000, -5.000000000000000000, -7.500000000000000000 ) ) ;
#264 = AXIS2_PLACEMENT_3D ( 'NONE', #27, #445, #192 ) ;
#265 = CIRCLE ( 'NONE', #241, 10.00000000000000000 ) ;
#266 = CARTESIAN_POINT ( 'NONE',  ( 0.000000000000000000, -1.339745962155639791, 22.32050807568877815 ) ) ;
#267 = EDGE_CURVE ( 'NONE', #6, #49, #220, .T. ) ;
#268 = DIRECTION ( 'NONE',  ( 0.000000000000000000, 1.000000000000000000, 0.000000000000000000 ) ) ;
#269 = APPLICATION_CONTEXT ( 'configuration controlled 3d designs of mechanical parts and assemblies' ) ;
#270 = CARTESIAN_POINT ( 'NONE',  ( 0.000000000000000000, 3.660254037844370867, 13.66025403784439618 ) ) ;
#271 = DIRECTION ( 'NONE',  ( 0.000000000000000000, -1.000000000000000000, 0.000000000000000000 ) ) ;
#272 = FACE_OUTER_BOUND ( 'NONE', #247, .T. ) ;
#273 = CARTESIAN_POINT ( 'NONE',  ( -7.453559924999302311, 0.000000000000000000, 6.666666666666662522 ) ) ;
#274 = DIRECTION ( 'NONE',  ( 0.000000000000000000, -0.5000000000000009992, 0.8660254037844381525 ) ) ;
#275 = DIRECTION ( 'NONE',  ( -0.000000000000000000, 0.5000000000000009992, -0.8660254037844381525 ) ) ;
#276 = VERTEX_POINT ( 'NONE', #380 ) ;
#277 = ORIENTED_EDGE ( 'NONE', *, *, #22, .F. ) ;
#278 = SECURITY_CLASSIFICATION_LEVEL ( 'unclassified' ) ;
#279 = ADVANCED_FACE ( 'NONE', ( #171 ), #197, .T. ) ;
#280 = CARTESIAN_POINT ( 'NONE',  ( 0.000000000000000000, -10.00000000000000000, 0.000000000000000000 ) ) ;
#281 = ORIENTED_EDGE ( 'NONE', *, *, #138, .F. ) ;
#282 = ORIENTED_EDGE ( 'NONE', *, *, #40, .T. ) ;
#283 = ORIENTED_EDGE ( 'NONE', *, *, #410, .F. ) ;
#284 = AXIS2_PLACEMENT_3D ( 'NONE', #258, #251, #155 ) ;
#285 = AXIS2_PLACEMENT_3D ( 'NONE', #379, #443, #307 ) ;
#286 = ORIENTED_EDGE ( 'NONE', *, *, #229, .F. ) ;
#287 = ORIENTED_EDGE ( 'NONE', *, *, #332, .F. ) ;
#288 = CARTESIAN_POINT ( 'NONE',  ( 0.000000000000000000, -10.00000000000000000, 10.00000000000000000 ) ) ;
#289 = ADVANCED_FACE ( 'NONE', ( #348, #107 ), #231, .T. ) ;
#290 = DIRECTION ( 'NONE',  ( 0.000000000000000000, 1.000000000000000000, 0.000000000000000000 ) ) ;
#291 = AXIS2_PLACEMENT_3D ( 'NONE', #373, #331, #193 ) ;
#292 = CC_DESIGN_PERSON_AND_ORGANIZATION_ASSIGNMENT ( #423, #89, ( #242 ) ) ;
#293 = CC_DESIGN_DATE_AND_TIME_ASSIGNMENT ( #93, #239, ( #206 ) ) ;
#294 = EDGE_LOOP ( 'NONE', ( #46, #238, #295, #243 ) ) ;
#295 = ORIENTED_EDGE ( 'NONE', *, *, #410, .T. ) ;
#296 = DESIGN_CONTEXT ( 'detailed design', #16, 'design' ) ;
#297 = PRODUCT_DEFINITION_SHAPE ( 'NONE', 'NONE',  #206 ) ;
#298 = PLANE ( 'NONE',  #284 ) ;
#299 = CIRCLE ( 'NONE', #108, 7.500000000000000888 ) ;
#300 = CYLINDRICAL_SURFACE ( 'NONE', #210, 7.499999999999999112 ) ;
#301 = CARTESIAN_POINT ( 'NONE',  ( 0.000000000000000000, -1.339745962155639791, 22.32050807568877460 ) ) ;
#302 = DIRECTION ( 'NONE',  ( 0.000000000000000000, -0.5000000000000009992, 0.8660254037844380415 ) ) ;
#303 = CYLINDRICAL_SURFACE ( 'NONE', #203, 10.00000000000000178 ) ;
#304 = CARTESIAN_POINT ( 'NONE',  ( 1.224646799147353256E-15, -10.00000000000002132, 17.32050807568876394 ) ) ;
#305 = AXIS2_PLACEMENT_3D ( 'NONE', #411, #75, #112 ) ;
#306 = DIRECTION ( 'NONE',  ( 0.000000000000000000, -0.8660254037844380415, -0.5000000000000007772 ) ) ;
#307 = DIRECTION ( 'NONE',  ( 0.000000000000000000, 0.000000000000000000, -1.000000000000000000 ) ) ;
#308 = VERTEX_POINT ( 'NONE', #377 ) ;
#309 = ADVANCED_FACE ( 'NONE', ( #34 ), #236, .F. ) ;
#310 = DIRECTION ( 'NONE',  ( 0.000000000000000000, -0.8660254037844380415, -0.5000000000000009992 ) ) ;
#311 = VERTEX_POINT ( 'NONE', #204 ) ;
#312 = ORIENTED_EDGE ( 'NONE', *, *, #237, .T. ) ;
#313 = VERTEX_POINT ( 'NONE', #143 ) ;
#314 = ORIENTED_EDGE ( 'NONE', *, *, #123, .T. ) ;
#315 = DATE_AND_TIME ( #44, #211 ) ;
#316 = CC_DESIGN_SECURITY_CLASSIFICATION ( #177, ( #242 ) ) ;
#317 = AXIS2_PLACEMENT_3D ( 'NONE', #338, #274, #76 ) ;
#318 = CLOSED_SHELL ( 'NONE', ( #26, #370, #420, #245, #279, #11, #65, #101, #5, #162, #289, #309, #111, #327 ) ) ;
#319 = ORIENTED_EDGE ( 'NONE', *, *, #201, .T. ) ;
#320 = PERSON_AND_ORGANIZATION_ROLE ( 'design_supplier' ) ;
#321 = ORIENTED_EDGE ( 'NONE', *, *, #356, .F. ) ;
#322 = FACE_OUTER_BOUND ( 'NONE', #175, .T. ) ;
#323 = CARTESIAN_POINT ( 'NONE',  ( 0.000000000000000000, -7.834936490538925824, 18.57050807568877104 ) ) ;
#324 = CARTESIAN_POINT ( 'NONE',  ( 2.889494588880575865, 0.000000000000000000, 3.469446951953614189E-15 ) ) ;
#325 = DIRECTION ( 'NONE',  ( 1.000000000000000000, 0.000000000000000000, 0.000000000000000000 ) ) ;
#326 = DIRECTION ( 'NONE',  ( -0.000000000000000000, -0.5000000000000009992, 0.8660254037844380415 ) ) ;
#327 = ADVANCED_FACE ( 'NONE', ( #42 ), #30, .T. ) ;
#328 = CARTESIAN_POINT ( 'NONE',  ( 0.000000000000000000, -5.000000000000000000, 0.000000000000000000 ) ) ;
#329 = DIRECTION ( 'NONE',  ( -0.000000000000000000, -1.000000000000000000, -0.000000000000000000 ) ) ;
#330 = DIRECTION ( 'NONE',  ( 0.000000000000000000, 0.000000000000000000, -1.000000000000000000 ) ) ;
#331 = DIRECTION ( 'NONE',  ( -0.000000000000000000, -1.000000000000000000, -0.000000000000000000 ) ) ;
#332 = EDGE_CURVE ( 'NONE', #176, #381, #84, .T. ) ;
#333 = DIRECTION ( 'NONE',  ( -0.000000000000000000, 0.5000000000000009992, -0.8660254037844381525 ) ) ;
#334 = LINE ( 'NONE', #71, #400 ) ;
#335 = CARTESIAN_POINT ( 'NONE',  ( 0.000000000000000000, 7.320508075688741734, 27.32050807568878525 ) ) ;
#336 = DIRECTION ( 'NONE',  ( -0.000000000000000000, 0.5000000000000009992, -0.8660254037844380415 ) ) ;
#337 = CARTESIAN_POINT ( 'NONE',  ( 7.453559924999302311, 0.000000000000000000, 6.666666666666662522 ) ) ;
#338 = CARTESIAN_POINT ( 'NONE',  ( 0.000000000000000000, 3.660254037844370867, 13.66025403784439618 ) ) ;
#339 = EDGE_CURVE ( 'NONE', #342, #176, #168, .T. ) ;
#340 = ORIENTED_EDGE ( 'NONE', *, *, #22, .T. ) ;
#341 = EDGE_CURVE ( 'NONE', #53, #352, #414, .T. ) ;
#342 = VERTEX_POINT ( 'NONE', #304 ) ;
#343 = COORDINATED_UNIVERSAL_TIME_OFFSET ( 5, 30, .AHEAD. ) ;
#344 = DIRECTION ( 'NONE',  ( 0.000000000000000000, -0.5000000000000009992, 0.8660254037844380415 ) ) ;
#345 = CALENDAR_DATE ( 2026, 24, 8 ) ;
#346 = ORIENTED_EDGE ( 'NONE', *, *, #259, .F. ) ;
#347 = VECTOR ( 'NONE', #226, 1000.000000000000000 ) ;
#348 = FACE_BOUND ( 'NONE', #145, .T. ) ;
#349 =( LENGTH_UNIT ( ) NAMED_UNIT ( * ) SI_UNIT ( .MILLI., .METRE. ) );
#350 = EDGE_LOOP ( 'NONE', ( #426, #389, #286, #118, #114, #321 ) ) ;
#351 = COORDINATED_UNIVERSAL_TIME_OFFSET ( 5, 30, .AHEAD. ) ;
#352 = VERTEX_POINT ( 'NONE', #412 ) ;
#353 = ORIENTED_EDGE ( 'NONE', *, *, #267, .F. ) ;
#354 = APPROVAL_STATUS ( 'not_yet_approved' ) ;
#355 = ORIENTED_EDGE ( 'NONE', *, *, #398, .T. ) ;
#356 = EDGE_CURVE ( 'NONE', #173, #53, #230, .T. ) ;
#357 = AXIS2_PLACEMENT_3D ( 'NONE', #382, #451, #310 ) ;
#358 = CARTESIAN_POINT ( 'NONE',  ( 0.000000000000000000, 0.000000000000000000, 0.000000000000000000 ) ) ;
#359 = DIRECTION ( 'NONE',  ( 0.000000000000000000, -0.000000000000000000, 1.000000000000000000 ) ) ;
#360 = ORIENTED_EDGE ( 'NONE', *, *, #79, .T. ) ;
#361 = CYLINDRICAL_SURFACE ( 'NONE', #66, 7.500000000000000000 ) ;
#362 = CIRCLE ( 'NONE', #139, 10.00000000000000000 ) ;
#363 = CARTESIAN_POINT ( 'NONE',  ( 0.000000000000000000, 3.660254037844370867, 13.66025403784439618 ) ) ;
#364 = CIRCLE ( 'NONE', #4, 7.500000000000000000 ) ;
#365 = EDGE_CURVE ( 'NONE', #342, #173, #214, .T. ) ;
#366 = ORIENTED_EDGE ( 'NONE', *, *, #267, .T. ) ;
#367 = DIRECTION ( 'NONE',  ( -0.000000000000000000, 0.5000000000000009992, -0.8660254037844380415 ) ) ;
#368 = DIRECTION ( 'NONE',  ( -0.000000000000000000, -0.5000000000000009992, 0.8660254037844380415 ) ) ;
#369 = DIRECTION ( 'NONE',  ( 0.000000000000000000, 1.000000000000000000, 0.000000000000000000 ) ) ;
#370 = ADVANCED_FACE ( 'NONE', ( #24 ), #446, .T. ) ;
#371 = DIRECTION ( 'NONE',  ( 0.000000000000000000, -0.8660254037844380415, -0.5000000000000009992 ) ) ;
#372 = COORDINATED_UNIVERSAL_TIME_OFFSET ( 5, 30, .AHEAD. ) ;
#373 = CARTESIAN_POINT ( 'NONE',  ( 0.000000000000000000, -5.000000000000000000, 0.000000000000000000 ) ) ;
#374 = CARTESIAN_POINT ( 'NONE',  ( -2.889494588880575421, 0.000000000000000000, 3.469446951953614189E-15 ) ) ;
#375 = CARTESIAN_POINT ( 'NONE',  ( 0.000000000000000000, -10.00000000000000000, 0.000000000000000000 ) ) ;
#376 = VECTOR ( 'NONE', #367, 1000.000000000000114 ) ;
#377 = CARTESIAN_POINT ( 'NONE',  ( 0.000000000000000000, -10.00000000000000000, -7.500000000000000000 ) ) ;
#378 = LOCAL_TIME ( 2, 39, 51.00000000000000000, #372 ) ;
#379 = CARTESIAN_POINT ( 'NONE',  ( 0.000000000000000000, -10.00000000000000000, 0.000000000000000000 ) ) ;
#380 = CARTESIAN_POINT ( 'NONE',  ( 9.184850993605147944E-16, -5.000000000000000000, 7.500000000000000000 ) ) ;
#381 = VERTEX_POINT ( 'NONE', #273 ) ;
#382 = CARTESIAN_POINT ( 'NONE',  ( 0.000000000000000000, 8.660254037844381969, 5.000000000000010658 ) ) ;
#383 =( NAMED_UNIT ( * ) PLANE_ANGLE_UNIT ( ) SI_UNIT ( $, .RADIAN. ) );
#384 = EDGE_CURVE ( 'NONE', #1, #215, #265, .T. ) ;
#385 = EDGE_LOOP ( 'NONE', ( #52, #88, #120, #453, #390 ) ) ;
#386 = CIRCLE ( 'NONE', #449, 10.00000000000000178 ) ;
#387 = ORIENTED_EDGE ( 'NONE', *, *, #201, .F. ) ;
#388 = PERSON_AND_ORGANIZATION ( #221, #17 ) ;
#389 = ORIENTED_EDGE ( 'NONE', *, *, #339, .T. ) ;
#390 = ORIENTED_EDGE ( 'NONE', *, *, #195, .F. ) ;
#391 = EDGE_LOOP ( 'NONE', ( #172, #142, #360, #424 ) ) ;
#392 = EDGE_LOOP ( 'NONE', ( #209, #314, #78, #80, #346 ) ) ;
#393 = EDGE_CURVE ( 'NONE', #215, #1, #57, .T. ) ;
#394 = APPROVAL_DATE_TIME ( #144, #37 ) ;
#395 = CARTESIAN_POINT ( 'NONE',  ( 0.000000000000000000, 17.32050807568876749, 10.00000000000001954 ) ) ;
#396 = DIRECTION ( 'NONE',  ( 0.000000000000000000, 0.000000000000000000, -1.000000000000000000 ) ) ;
#397 = ORIENTED_EDGE ( 'NONE', *, *, #422, .T. ) ;
#398 = EDGE_CURVE ( 'NONE', #311, #276, #253, .T. ) ;
#399 = AXIS2_PLACEMENT_3D ( 'NONE', #440, #72, #224 ) ;
#400 = VECTOR ( 'NONE', #194, 1000.000000000000000 ) ;
#401 = DIRECTION ( 'NONE',  ( 0.000000000000000000, -0.8660254037844381525, -0.5000000000000009992 ) ) ;
#402 = EDGE_CURVE ( 'NONE', #308, #313, #28, .T. ) ;
#403 = DIRECTION ( 'NONE',  ( 0.000000000000000000, -0.8660254037844380415, -0.5000000000000011102 ) ) ;
#404 = CARTESIAN_POINT ( 'NONE',  ( 0.000000000000000000, -10.00000000000000000, 10.00000000000000000 ) ) ;
#405 = AXIS2_PLACEMENT_3D ( 'NONE', #280, #199, #421 ) ;
#406 = AXIS2_PLACEMENT_3D ( 'NONE', #153, #13, #325 ) ;
#407 = FACE_OUTER_BOUND ( 'NONE', #48, .T. ) ;
#408 = ADVANCED_BREP_SHAPE_REPRESENTATION ( '30DegreeeAngle_down_sldprt', ( #457, #406 ), #219 ) ;
#409 = CARTESIAN_POINT ( 'NONE',  ( 0.000000000000000000, 7.320508075688741734, 27.32050807568878525 ) ) ;
#410 = EDGE_CURVE ( 'NONE', #311, #308, #417, .T. ) ;
#411 = CARTESIAN_POINT ( 'NONE',  ( 0.000000000000000000, 3.660254037844370867, 13.66025403784439618 ) ) ;
#412 = CARTESIAN_POINT ( 'NONE',  ( 0.000000000000000000, 0.000000000000000000, 0.000000000000000000 ) ) ;
#413 = CIRCLE ( 'NONE', #399, 7.500000000000000888 ) ;
#414 = CIRCLE ( 'NONE', #67, 10.00000000000000178 ) ;
#415 = APPROVAL_STATUS ( 'not_yet_approved' ) ;
#416 = CARTESIAN_POINT ( 'NONE',  ( -5.527230199078920769, -3.730321473896978546, 8.820368773784924343 ) ) ;
#417 = LINE ( 'NONE', #263, #41 ) ;
#418 = ORIENTED_EDGE ( 'NONE', *, *, #341, .T. ) ;
#419 = DATE_TIME_ROLE ( 'classification_date' ) ;
#420 = ADVANCED_FACE ( 'NONE', ( #407 ), #69, .F. ) ;
#421 = DIRECTION ( 'NONE',  ( 0.000000000000000000, 0.000000000000000000, 1.000000000000000000 ) ) ;
#422 = EDGE_CURVE ( 'NONE', #313, #308, #364, .T. ) ;
#423 = PERSON_AND_ORGANIZATION ( #221, #17 ) ;
#424 = ORIENTED_EDGE ( 'NONE', *, *, #195, .T. ) ;
#425 =( BOUNDED_CURVE ( )  B_SPLINE_CURVE ( 3, ( #337, #131, #97, #29 ),
 .UNSPECIFIED., .F., .F. ) 
 B_SPLINE_CURVE_WITH_KNOTS ( ( 4, 4 ),
 ( 2.300523983021862229, 3.141592653589793116 ),
 .UNSPECIFIED. ) 
 CURVE ( )  GEOMETRIC_REPRESENTATION_ITEM ( )  RATIONAL_B_SPLINE_CURVE ( ( 1.000000000000000000, 0.9419139527835176384, 0.9419139527835176384, 1.000000000000000000 ) ) 
 REPRESENTATION_ITEM ( '' )  );
#426 = ORIENTED_EDGE ( 'NONE', *, *, #365, .F. ) ;
#427 = CC_DESIGN_PERSON_AND_ORGANIZATION_ASSIGNMENT ( #54, #249, ( #248 ) ) ;
#428 = DIRECTION ( 'NONE',  ( 0.000000000000000000, -0.000000000000000000, -1.000000000000000000 ) ) ;
#429 = AXIS2_PLACEMENT_3D ( 'NONE', #431, #257, #434 ) ;
#430 = AXIS2_PLACEMENT_3D ( 'NONE', #116, #344, #81 ) ;
#431 = CARTESIAN_POINT ( 'NONE',  ( 0.000000000000000000, 3.660254037844370867, 13.66025403784439618 ) ) ;
#432 = MECHANICAL_CONTEXT ( 'NONE', #269, 'mechanical' ) ;
#433 = ORIENTED_EDGE ( 'NONE', *, *, #110, .T. ) ;
#434 = DIRECTION ( 'NONE',  ( 0.000000000000000000, -0.8660254037844381525, -0.5000000000000009992 ) ) ;
#435 = PRODUCT_RELATED_PRODUCT_CATEGORY ( 'detail', '', ( #248 ) ) ;
#436 = DIRECTION ( 'NONE',  ( 0.000000000000000000, -1.000000000000000000, 0.000000000000000000 ) ) ;
#437 = EDGE_CURVE ( 'NONE', #352, #53, #68, .T. ) ;
#438 = CARTESIAN_POINT ( 'NONE',  ( -5.527230199078922546, 0.000000000000000000, 2.359262452430158419 ) ) ;
#439 = APPROVAL ( #354, 'UNSPECIFIED' ) ;
#440 = CARTESIAN_POINT ( 'NONE',  ( 0.000000000000000000, -1.339745962155639791, 22.32050807568877815 ) ) ;
#441 = DIRECTION ( 'NONE',  ( 0.000000000000000000, 0.000000000000000000, -1.000000000000000000 ) ) ;
#442 = LINE ( 'NONE', #196, #150 ) ;
#443 = DIRECTION ( 'NONE',  ( 0.000000000000000000, -1.000000000000000000, 0.000000000000000000 ) ) ;
#444 = CARTESIAN_POINT ( 'NONE',  ( 1.224646799147353256E-15, -10.00000000000000000, -10.00000000000000000 ) ) ;
#445 = DIRECTION ( 'NONE',  ( 0.000000000000000000, 1.000000000000000000, 0.000000000000000000 ) ) ;
#446 = CYLINDRICAL_SURFACE ( 'NONE', #183, 10.00000000000000178 ) ;
#447 = CARTESIAN_POINT ( 'NONE',  ( 0.000000000000000000, -5.773502691896279515, 10.00000000000000000 ) ) ;
#448 = AXIS2_PLACEMENT_3D ( 'NONE', #328, #436, #396 ) ;
#449 = AXIS2_PLACEMENT_3D ( 'NONE', #261, #165, #403 ) ;
#450 = EDGE_CURVE ( 'NONE', #276, #313, #334, .T. ) ;
#451 = DIRECTION ( 'NONE',  ( 0.000000000000000000, -0.5000000000000009992, 0.8660254037844380415 ) ) ;
#452 = APPLICATION_PROTOCOL_DEFINITION ( 'international standard', 'config_control_design', 1994, #269 ) ;
#453 = ORIENTED_EDGE ( 'NONE', *, *, #332, .T. ) ;
#454 = ORIENTED_EDGE ( 'NONE', *, *, #237, .F. ) ;
#455 = PERSON_AND_ORGANIZATION_ROLE ( 'classification_officer' ) ;
#456 = ORIENTED_EDGE ( 'NONE', *, *, #422, .F. ) ;
#457 = MANIFOLD_SOLID_BREP ( 'Cut-Extrude3', #318 ) ;
ENDSEC;
END-ISO-10303-21;
