ISO-10303-21;
HEADER;
FILE_DESCRIPTION (( 'STEP AP203' ),
    '1' );
FILE_NAME ('back_Default_sldprt.STEP',
    '2026-08-23T21:10:28',
    ( '' ),
    ( '' ),
    'SwSTEP 2.0',
    'SolidWorks 2020',
    '' );
FILE_SCHEMA (( 'CONFIG_CONTROL_DESIGN' ));
ENDSEC;

DATA;
#1 = VERTEX_POINT ( 'NONE', #8 ) ;
#2 = CALENDAR_DATE ( 2026, 24, 8 ) ;
#3 = PERSON ( 'UNSPECIFIED', 'UNSPECIFIED', 'UNSPECIFIED', ('UNSPECIFIED'), ('UNSPECIFIED'), ('UNSPECIFIED') ) ;
#4 = ORIENTED_EDGE ( 'NONE', *, *, #81, .T. ) ;
#5 = COORDINATED_UNIVERSAL_TIME_OFFSET ( 5, 30, .AHEAD. ) ;
#6 = LINE ( 'NONE', #109, #105 ) ;
#7 = CC_DESIGN_PERSON_AND_ORGANIZATION_ASSIGNMENT ( #198, #34, ( #41 ) ) ;
#8 = CARTESIAN_POINT ( 'NONE',  ( 19.99999999999999289, -5.000000000000000000, 0.000000000000000000 ) ) ;
#9 = CARTESIAN_POINT ( 'NONE',  ( 2.499999999999989786, 1.173523437775242009E-15, 0.000000000000000000 ) ) ;
#10 = DIRECTION ( 'NONE',  ( 1.000000000000000000, 0.000000000000000000, 0.000000000000000000 ) ) ;
#11 = CALENDAR_DATE ( 2026, 24, 8 ) ;
#12 = VECTOR ( 'NONE', #208, 1000.000000000000000 ) ;
#13 = LINE ( 'NONE', #27, #219 ) ;
#14 = CC_DESIGN_DATE_AND_TIME_ASSIGNMENT ( #111, #296, ( #41 ) ) ;
#15 = CARTESIAN_POINT ( 'NONE',  ( -20.00000000000000711, -5.000000000000000000, 0.000000000000000000 ) ) ;
#16 = LINE ( 'NONE', #97, #218 ) ;
#17 = APPLICATION_CONTEXT ( 'configuration controlled 3d designs of mechanical parts and assemblies' ) ;
#18 = CARTESIAN_POINT ( 'NONE',  ( 0.000000000000000000, 0.000000000000000000, 0.000000000000000000 ) ) ;
#19 = PERSON_AND_ORGANIZATION ( #3, #89 ) ;
#20 = CARTESIAN_POINT ( 'NONE',  ( -20.00000000000000711, 5.000000000000000888, 8.000000000000000000 ) ) ;
#21 = ORIENTED_EDGE ( 'NONE', *, *, #196, .T. ) ;
#22 = EDGE_CURVE ( 'NONE', #142, #252, #103, .T. ) ;
#23 = ORIENTED_EDGE ( 'NONE', *, *, #258, .F. ) ;
#24 = APPROVAL_STATUS ( 'not_yet_approved' ) ;
#25 = ORIENTED_EDGE ( 'NONE', *, *, #241, .F. ) ;
#26 = ORIENTED_EDGE ( 'NONE', *, *, #299, .F. ) ;
#27 = CARTESIAN_POINT ( 'NONE',  ( -2.500000000000010658, 8.673617379884035472E-16, 8.000000000000000000 ) ) ;
#28 = FACE_BOUND ( 'NONE', #29, .T. ) ;
#29 = EDGE_LOOP ( 'NONE', ( #126, #86 ) ) ;
#30 = DIRECTION ( 'NONE',  ( 1.000000000000000000, 0.000000000000000000, 0.000000000000000000 ) ) ;
#31 = EDGE_CURVE ( 'NONE', #215, #252, #6, .T. ) ;
#32 = ORIENTED_EDGE ( 'NONE', *, *, #31, .T. ) ;
#33 = LOCAL_TIME ( 2, 40, 28.00000000000000000, #174 ) ;
#34 = PERSON_AND_ORGANIZATION_ROLE ( 'classification_officer' ) ;
#35 = CARTESIAN_POINT ( 'NONE',  ( 19.99999999999999645, 5.000000000000000000, 0.000000000000000000 ) ) ;
#36 = PERSON_AND_ORGANIZATION_ROLE ( 'design_supplier' ) ;
#37 = CARTESIAN_POINT ( 'NONE',  ( -1.040834085586084257E-14, 8.673617379884035472E-16, 8.000000000000000000 ) ) ;
#38 = CIRCLE ( 'NONE', #128, 2.500000000000000000 ) ;
#39 = CARTESIAN_POINT ( 'NONE',  ( -20.00000000000000711, -5.000000000000000000, 8.000000000000000000 ) ) ;
#40 = PRODUCT_DEFINITION ( 'UNKNOWN', '', #92, #116 ) ;
#41 = SECURITY_CLASSIFICATION ( '', '', #254 ) ;
#42 = EDGE_CURVE ( 'NONE', #1, #217, #68, .T. ) ;
#43 = APPROVAL_STATUS ( 'not_yet_approved' ) ;
#44 = CARTESIAN_POINT ( 'NONE',  ( 19.99999999999999645, 5.000000000000000000, 8.000000000000000000 ) ) ;
#45 = EDGE_CURVE ( 'NONE', #293, #127, #256, .T. ) ;
#46 = PLANE ( 'NONE',  #56 ) ;
#47 = DIRECTION ( 'NONE',  ( 1.000000000000000000, 0.000000000000000000, 0.000000000000000000 ) ) ;
#48 = CARTESIAN_POINT ( 'NONE',  ( -20.00000000000000711, 5.000000000000000888, 8.000000000000000000 ) ) ;
#49 = ORIENTED_EDGE ( 'NONE', *, *, #57, .F. ) ;
#50 = CARTESIAN_POINT ( 'NONE',  ( -20.00000000000000711, 5.000000000000000888, 8.000000000000000000 ) ) ;
#51 = VERTEX_POINT ( 'NONE', #175 ) ;
#52 = CC_DESIGN_PERSON_AND_ORGANIZATION_ASSIGNMENT ( #201, #171, ( #92 ) ) ;
#53 = LINE ( 'NONE', #129, #149 ) ;
#54 = ORIENTED_EDGE ( 'NONE', *, *, #159, .F. ) ;
#55 = DIRECTION ( 'NONE',  ( 1.000000000000000000, 0.000000000000000000, 0.000000000000000000 ) ) ;
#56 = AXIS2_PLACEMENT_3D ( 'NONE', #44, #138, #239 ) ;
#57 = EDGE_CURVE ( 'NONE', #273, #104, #53, .T. ) ;
#58 = ORIENTED_EDGE ( 'NONE', *, *, #181, .F. ) ;
#59 = ORIENTED_EDGE ( 'NONE', *, *, #84, .F. ) ;
#60 = CC_DESIGN_DATE_AND_TIME_ASSIGNMENT ( #280, #151, ( #40 ) ) ;
#61 = APPROVAL_STATUS ( 'not_yet_approved' ) ;
#62 = CARTESIAN_POINT ( 'NONE',  ( -20.00000000000000711, 5.000000000000000888, 0.000000000000000000 ) ) ;
#63 = ORIENTED_EDGE ( 'NONE', *, *, #173, .F. ) ;
#64 = DIRECTION ( 'NONE',  ( -0.000000000000000000, -0.000000000000000000, -1.000000000000000000 ) ) ;
#65 = CIRCLE ( 'NONE', #145, 2.500000000000000000 ) ;
#66 = APPROVAL_ROLE ( '' ) ;
#67 = DIRECTION ( 'NONE',  ( -1.000000000000000000, 2.168404344971008560E-17, -0.000000000000000000 ) ) ;
#68 = LINE ( 'NONE', #35, #290 ) ;
#69 = VECTOR ( 'NONE', #180, 1000.000000000000000 ) ;
#70 = PERSON_AND_ORGANIZATION ( #3, #89 ) ;
#71 = DIRECTION ( 'NONE',  ( -1.000000000000000000, 0.000000000000000000, 0.000000000000000000 ) ) ;
#72 = CC_DESIGN_PERSON_AND_ORGANIZATION_ASSIGNMENT ( #226, #222, ( #40 ) ) ;
#73 = ADVANCED_FACE ( 'NONE', ( #179 ), #143, .F. ) ;
#74 = CARTESIAN_POINT ( 'NONE',  ( -20.00000000000000711, 5.000000000000000888, 0.000000000000000000 ) ) ;
#75 =( GEOMETRIC_REPRESENTATION_CONTEXT ( 3 ) GLOBAL_UNCERTAINTY_ASSIGNED_CONTEXT ( ( #261 ) ) GLOBAL_UNIT_ASSIGNED_CONTEXT ( ( #269, #189, #264 ) ) REPRESENTATION_CONTEXT ( 'NONE', 'WORKASPACE' ) );
#76 = PRODUCT_RELATED_PRODUCT_CATEGORY ( 'detail', '', ( #153 ) ) ;
#77 = APPROVAL_DATE_TIME ( #94, #185 ) ;
#78 = CARTESIAN_POINT ( 'NONE',  ( -20.00000000000000711, 5.000000000000000888, 8.000000000000000000 ) ) ;
#79 = PERSON_AND_ORGANIZATION_ROLE ( 'design_owner' ) ;
#80 = CARTESIAN_POINT ( 'NONE',  ( -1.040834085586084257E-14, 8.673617379884035472E-16, 0.000000000000000000 ) ) ;
#81 = EDGE_CURVE ( 'NONE', #293, #51, #13, .T. ) ;
#82 = AXIS2_PLACEMENT_3D ( 'NONE', #48, #288, #83 ) ;
#83 = DIRECTION ( 'NONE',  ( -0.000000000000000000, 0.000000000000000000, -1.000000000000000000 ) ) ;
#84 = EDGE_CURVE ( 'NONE', #240, #142, #91, .T. ) ;
#85 = EDGE_LOOP ( 'NONE', ( #220, #195, #247, #292 ) ) ;
#86 = ORIENTED_EDGE ( 'NONE', *, *, #159, .T. ) ;
#87 = DIRECTION ( 'NONE',  ( -0.000000000000000000, 0.000000000000000000, 1.000000000000000000 ) ) ;
#88 = DIRECTION ( 'NONE',  ( 3.469446951953614189E-16, 1.000000000000000000, -0.000000000000000000 ) ) ;
#89 = ORGANIZATION ( 'UNSPECIFIED', 'UNSPECIFIED', '' ) ;
#90 = APPROVAL_DATE_TIME ( #278, #295 ) ;
#91 = LINE ( 'NONE', #279, #69 ) ;
#92 = PRODUCT_DEFINITION_FORMATION_WITH_SPECIFIED_SOURCE ( 'ANY', '', #153, .NOT_KNOWN. ) ;
#93 = APPROVAL_ROLE ( '' ) ;
#94 = DATE_AND_TIME ( #250, #248 ) ;
#95 = CARTESIAN_POINT ( 'NONE',  ( -1.040834085586084257E-14, 8.673617379884035472E-16, 8.000000000000000000 ) ) ;
#96 = CARTESIAN_POINT ( 'NONE',  ( -20.00000000000000711, -5.000000000000000000, 0.000000000000000000 ) ) ;
#97 = CARTESIAN_POINT ( 'NONE',  ( 19.99999999999999645, 5.000000000000000000, 8.000000000000000000 ) ) ;
#98 = EDGE_CURVE ( 'NONE', #240, #215, #246, .T. ) ;
#99 = PLANE ( 'NONE',  #301 ) ;
#100 = ORIENTED_EDGE ( 'NONE', *, *, #45, .T. ) ;
#101 = AXIS2_PLACEMENT_3D ( 'NONE', #18, #211, #125 ) ;
#102 = APPROVAL_ROLE ( '' ) ;
#103 = LINE ( 'NONE', #294, #163 ) ;
#104 = VERTEX_POINT ( 'NONE', #141 ) ;
#105 = VECTOR ( 'NONE', #216, 1000.000000000000000 ) ;
#106 = EDGE_LOOP ( 'NONE', ( #26, #122, #4, #54 ) ) ;
#107 = EDGE_LOOP ( 'NONE', ( #277, #197, #58, #311 ) ) ;
#108 = MANIFOLD_SOLID_BREP ( 'Boss-Extrude1', #310 ) ;
#109 = CARTESIAN_POINT ( 'NONE',  ( -20.00000000000000711, 5.000000000000000888, 0.000000000000000000 ) ) ;
#110 = DIRECTION ( 'NONE',  ( -0.000000000000000000, -0.000000000000000000, -1.000000000000000000 ) ) ;
#111 = DATE_AND_TIME ( #11, #255 ) ;
#112 = ADVANCED_FACE ( 'NONE', ( #242, #308 ), #134, .T. ) ;
#113 = EDGE_CURVE ( 'NONE', #217, #215, #176, .T. ) ;
#114 = COORDINATED_UNIVERSAL_TIME_OFFSET ( 5, 30, .AHEAD. ) ;
#115 = AXIS2_PLACEMENT_3D ( 'NONE', #272, #150, #10 ) ;
#116 = DESIGN_CONTEXT ( 'detailed design', #17, 'design' ) ;
#117 = FACE_OUTER_BOUND ( 'NONE', #107, .T. ) ;
#118 = DATE_AND_TIME ( #205, #154 ) ;
#119 = PLANE ( 'NONE',  #229 ) ;
#120 = LINE ( 'NONE', #96, #162 ) ;
#121 = CARTESIAN_POINT ( 'NONE',  ( -20.00000000000000711, -5.000000000000000000, 8.000000000000000000 ) ) ;
#122 = ORIENTED_EDGE ( 'NONE', *, *, #173, .T. ) ;
#123 = APPLICATION_PROTOCOL_DEFINITION ( 'international standard', 'config_control_design', 1994, #17 ) ;
#124 = ORIENTED_EDGE ( 'NONE', *, *, #98, .T. ) ;
#125 = DIRECTION ( 'NONE',  ( 1.000000000000000000, 0.000000000000000000, 0.000000000000000000 ) ) ;
#126 = ORIENTED_EDGE ( 'NONE', *, *, #241, .T. ) ;
#127 = VERTEX_POINT ( 'NONE', #168 ) ;
#128 = AXIS2_PLACEMENT_3D ( 'NONE', #95, #214, #184 ) ;
#129 = CARTESIAN_POINT ( 'NONE',  ( 19.99999999999999645, 5.000000000000000000, 8.000000000000000000 ) ) ;
#130 = COORDINATED_UNIVERSAL_TIME_OFFSET ( 5, 30, .AHEAD. ) ;
#131 = DIRECTION ( 'NONE',  ( -0.000000000000000000, -0.000000000000000000, -1.000000000000000000 ) ) ;
#132 = ADVANCED_FACE ( 'NONE', ( #249, #28 ), #291, .F. ) ;
#133 = ADVANCED_BREP_SHAPE_REPRESENTATION ( 'back_Default_sldprt', ( #108, #101 ), #75 ) ;
#134 = PLANE ( 'NONE',  #298 ) ;
#135 = CARTESIAN_POINT ( 'NONE',  ( -20.00000000000000711, -5.000000000000000000, 8.000000000000000000 ) ) ;
#136 = ADVANCED_FACE ( 'NONE', ( #223 ), #227, .F. ) ;
#137 = FACE_OUTER_BOUND ( 'NONE', #244, .T. ) ;
#138 = DIRECTION ( 'NONE',  ( -1.000000000000000000, 3.469446951953614189E-16, 0.000000000000000000 ) ) ;
#139 = CC_DESIGN_PERSON_AND_ORGANIZATION_ASSIGNMENT ( #19, #79, ( #153 ) ) ;
#140 = APPLICATION_CONTEXT ( 'configuration controlled 3d designs of mechanical parts and assemblies' ) ;
#141 = CARTESIAN_POINT ( 'NONE',  ( 19.99999999999999645, 5.000000000000000000, 8.000000000000000000 ) ) ;
#142 = VERTEX_POINT ( 'NONE', #39 ) ;
#143 = CYLINDRICAL_SURFACE ( 'NONE', #207, 2.500000000000000000 ) ;
#144 = ORIENTED_EDGE ( 'NONE', *, *, #22, .F. ) ;
#145 = AXIS2_PLACEMENT_3D ( 'NONE', #80, #158, #289 ) ;
#146 = VERTEX_POINT ( 'NONE', #9 ) ;
#147 = EDGE_LOOP ( 'NONE', ( #100, #167, #25, #309 ) ) ;
#148 = AXIS2_PLACEMENT_3D ( 'NONE', #303, #286, #237 ) ;
#149 = VECTOR ( 'NONE', #297, 1000.000000000000000 ) ;
#150 = DIRECTION ( 'NONE',  ( 0.000000000000000000, 0.000000000000000000, 1.000000000000000000 ) ) ;
#151 = DATE_TIME_ROLE ( 'creation_date' ) ;
#152 = CARTESIAN_POINT ( 'NONE',  ( -1.040834085586084257E-14, 8.673617379884035472E-16, 8.000000000000000000 ) ) ;
#153 = PRODUCT ( 'back_Default_sldprt', 'back_Default_sldprt', '', ( #245 ) ) ;
#154 = LOCAL_TIME ( 2, 40, 28.00000000000000000, #114 ) ;
#155 = AXIS2_PLACEMENT_3D ( 'NONE', #275, #253, #30 ) ;
#156 = ADVANCED_FACE ( 'NONE', ( #137 ), #119, .F. ) ;
#157 = APPLICATION_PROTOCOL_DEFINITION ( 'international standard', 'config_control_design', 1994, #140 ) ;
#158 = DIRECTION ( 'NONE',  ( 0.000000000000000000, 0.000000000000000000, 1.000000000000000000 ) ) ;
#159 = EDGE_CURVE ( 'NONE', #146, #51, #65, .T. ) ;
#160 = DIRECTION ( 'NONE',  ( -0.000000000000000000, -0.000000000000000000, -1.000000000000000000 ) ) ;
#161 = LINE ( 'NONE', #209, #268 ) ;
#162 = VECTOR ( 'NONE', #47, 1000.000000000000000 ) ;
#163 = VECTOR ( 'NONE', #110, 1000.000000000000000 ) ;
#164 = CARTESIAN_POINT ( 'NONE',  ( -20.00000000000000711, 5.000000000000000888, 8.000000000000000000 ) ) ;
#165 = ORIENTED_EDGE ( 'NONE', *, *, #42, .T. ) ;
#166 = EDGE_LOOP ( 'NONE', ( #200, #63 ) ) ;
#167 = ORIENTED_EDGE ( 'NONE', *, *, #299, .T. ) ;
#168 = CARTESIAN_POINT ( 'NONE',  ( 2.499999999999989786, 1.173523437775242009E-15, 8.000000000000000000 ) ) ;
#169 = EDGE_LOOP ( 'NONE', ( #32, #144, #59, #124 ) ) ;
#170 = APPROVAL_PERSON_ORGANIZATION ( #177, #295, #66 ) ;
#171 = PERSON_AND_ORGANIZATION_ROLE ( 'creator' ) ;
#172 = ORIENTED_EDGE ( 'NONE', *, *, #113, .T. ) ;
#173 = EDGE_CURVE ( 'NONE', #127, #293, #38, .T. ) ;
#174 = COORDINATED_UNIVERSAL_TIME_OFFSET ( 5, 30, .AHEAD. ) ;
#175 = CARTESIAN_POINT ( 'NONE',  ( -2.500000000000010658, 8.673617379884035472E-16, 0.000000000000000000 ) ) ;
#176 = LINE ( 'NONE', #62, #178 ) ;
#177 = PERSON_AND_ORGANIZATION ( #3, #89 ) ;
#178 = VECTOR ( 'NONE', #67, 1000.000000000000000 ) ;
#179 = FACE_OUTER_BOUND ( 'NONE', #106, .T. ) ;
#180 = DIRECTION ( 'NONE',  ( 0.000000000000000000, -1.000000000000000000, 0.000000000000000000 ) ) ;
#181 = EDGE_CURVE ( 'NONE', #142, #273, #235, .T. ) ;
#182 = DIRECTION ( 'NONE',  ( 0.000000000000000000, -0.000000000000000000, 1.000000000000000000 ) ) ;
#183 = APPROVAL_PERSON_ORGANIZATION ( #203, #224, #93 ) ;
#184 = DIRECTION ( 'NONE',  ( 1.000000000000000000, 0.000000000000000000, 0.000000000000000000 ) ) ;
#185 = APPROVAL ( #24, 'UNSPECIFIED' ) ;
#186 = DIRECTION ( 'NONE',  ( -2.168404344971008560E-17, -1.000000000000000000, 0.000000000000000000 ) ) ;
#187 = LINE ( 'NONE', #236, #199 ) ;
#188 = DIRECTION ( 'NONE',  ( 0.000000000000000000, 1.000000000000000000, 0.000000000000000000 ) ) ;
#189 =( NAMED_UNIT ( * ) PLANE_ANGLE_UNIT ( ) SI_UNIT ( $, .RADIAN. ) );
#190 = DIRECTION ( 'NONE',  ( -0.000000000000000000, -0.000000000000000000, -1.000000000000000000 ) ) ;
#191 = EDGE_LOOP ( 'NONE', ( #165, #276, #49, #225 ) ) ;
#192 = COORDINATED_UNIVERSAL_TIME_OFFSET ( 5, 30, .AHEAD. ) ;
#193 = ORIENTED_EDGE ( 'NONE', *, *, #84, .T. ) ;
#194 = ADVANCED_FACE ( 'NONE', ( #117 ), #99, .F. ) ;
#195 = ORIENTED_EDGE ( 'NONE', *, *, #306, .F. ) ;
#196 = EDGE_CURVE ( 'NONE', #104, #217, #16, .T. ) ;
#197 = ORIENTED_EDGE ( 'NONE', *, *, #234, .F. ) ;
#198 = PERSON_AND_ORGANIZATION ( #3, #89 ) ;
#199 = VECTOR ( 'NONE', #305, 1000.000000000000000 ) ;
#200 = ORIENTED_EDGE ( 'NONE', *, *, #45, .F. ) ;
#201 = PERSON_AND_ORGANIZATION ( #3, #89 ) ;
#202 = AXIS2_PLACEMENT_3D ( 'NONE', #37, #260, #71 ) ;
#203 = PERSON_AND_ORGANIZATION ( #3, #89 ) ;
#204 = DIRECTION ( 'NONE',  ( -0.000000000000000000, -0.000000000000000000, -1.000000000000000000 ) ) ;
#205 = CALENDAR_DATE ( 2026, 24, 8 ) ;
#206 = VECTOR ( 'NONE', #307, 1000.000000000000000 ) ;
#207 = AXIS2_PLACEMENT_3D ( 'NONE', #152, #131, #230 ) ;
#208 = DIRECTION ( 'NONE',  ( -1.000000000000000000, 2.168404344971008560E-17, -0.000000000000000000 ) ) ;
#209 = CARTESIAN_POINT ( 'NONE',  ( 19.99999999999999289, -5.000000000000000000, 8.000000000000000000 ) ) ;
#210 = CC_DESIGN_APPROVAL ( #295, ( #92 ) ) ;
#211 = DIRECTION ( 'NONE',  ( 0.000000000000000000, 0.000000000000000000, 1.000000000000000000 ) ) ;
#212 = ADVANCED_FACE ( 'NONE', ( #267 ), #232, .F. ) ;
#213 = PERSON_AND_ORGANIZATION ( #3, #89 ) ;
#214 = DIRECTION ( 'NONE',  ( 0.000000000000000000, 0.000000000000000000, 1.000000000000000000 ) ) ;
#215 = VERTEX_POINT ( 'NONE', #74 ) ;
#216 = DIRECTION ( 'NONE',  ( 0.000000000000000000, -1.000000000000000000, 0.000000000000000000 ) ) ;
#217 = VERTEX_POINT ( 'NONE', #262 ) ;
#218 = VECTOR ( 'NONE', #190, 1000.000000000000000 ) ;
#219 = VECTOR ( 'NONE', #204, 1000.000000000000000 ) ;
#220 = ORIENTED_EDGE ( 'NONE', *, *, #42, .F. ) ;
#221 = ORIENTED_EDGE ( 'NONE', *, *, #98, .F. ) ;
#222 = PERSON_AND_ORGANIZATION_ROLE ( 'creator' ) ;
#223 = FACE_OUTER_BOUND ( 'NONE', #147, .T. ) ;
#224 = APPROVAL ( #43, 'UNSPECIFIED' ) ;
#225 = ORIENTED_EDGE ( 'NONE', *, *, #234, .T. ) ;
#226 = PERSON_AND_ORGANIZATION ( #3, #89 ) ;
#227 = CYLINDRICAL_SURFACE ( 'NONE', #202, 2.500000000000000000 ) ;
#228 = CC_DESIGN_APPROVAL ( #185, ( #40 ) ) ;
#229 = AXIS2_PLACEMENT_3D ( 'NONE', #20, #186, #287 ) ;
#230 = DIRECTION ( 'NONE',  ( -1.000000000000000000, 0.000000000000000000, 0.000000000000000000 ) ) ;
#231 = CC_DESIGN_PERSON_AND_ORGANIZATION_ASSIGNMENT ( #70, #36, ( #92 ) ) ;
#232 = PLANE ( 'NONE',  #82 ) ;
#233 = VECTOR ( 'NONE', #64, 1000.000000000000000 ) ;
#234 = EDGE_CURVE ( 'NONE', #273, #1, #161, .T. ) ;
#235 = LINE ( 'NONE', #121, #206 ) ;
#236 = CARTESIAN_POINT ( 'NONE',  ( 2.499999999999989786, 1.173523437775242009E-15, 8.000000000000000000 ) ) ;
#237 = DIRECTION ( 'NONE',  ( 1.000000000000000000, 0.000000000000000000, 0.000000000000000000 ) ) ;
#238 = CC_DESIGN_APPROVAL ( #224, ( #41 ) ) ;
#239 = DIRECTION ( 'NONE',  ( -3.469446951953614189E-16, -1.000000000000000000, 0.000000000000000000 ) ) ;
#240 = VERTEX_POINT ( 'NONE', #164 ) ;
#241 = EDGE_CURVE ( 'NONE', #51, #146, #304, .T. ) ;
#242 = FACE_OUTER_BOUND ( 'NONE', #251, .T. ) ;
#243 = ORIENTED_EDGE ( 'NONE', *, *, #181, .T. ) ;
#244 = EDGE_LOOP ( 'NONE', ( #172, #221, #23, #21 ) ) ;
#245 = MECHANICAL_CONTEXT ( 'NONE', #140, 'mechanical' ) ;
#246 = LINE ( 'NONE', #50, #233 ) ;
#247 = ORIENTED_EDGE ( 'NONE', *, *, #31, .F. ) ;
#248 = LOCAL_TIME ( 2, 40, 28.00000000000000000, #192 ) ;
#249 = FACE_OUTER_BOUND ( 'NONE', #85, .T. ) ;
#250 = CALENDAR_DATE ( 2026, 24, 8 ) ;
#251 = EDGE_LOOP ( 'NONE', ( #271, #274, #193, #243 ) ) ;
#252 = VERTEX_POINT ( 'NONE', #15 ) ;
#253 = DIRECTION ( 'NONE',  ( -0.000000000000000000, 0.000000000000000000, 1.000000000000000000 ) ) ;
#254 = SECURITY_CLASSIFICATION_LEVEL ( 'unclassified' ) ;
#255 = LOCAL_TIME ( 2, 40, 28.00000000000000000, #130 ) ;
#256 = CIRCLE ( 'NONE', #115, 2.500000000000000000 ) ;
#257 = CALENDAR_DATE ( 2026, 24, 8 ) ;
#258 = EDGE_CURVE ( 'NONE', #104, #240, #270, .T. ) ;
#259 = CC_DESIGN_SECURITY_CLASSIFICATION ( #41, ( #92 ) ) ;
#260 = DIRECTION ( 'NONE',  ( -0.000000000000000000, -0.000000000000000000, -1.000000000000000000 ) ) ;
#261 = UNCERTAINTY_MEASURE_WITH_UNIT (LENGTH_MEASURE( 1.000000000000000082E-05 ), #269, 'distance_accuracy_value', 'NONE');
#262 = CARTESIAN_POINT ( 'NONE',  ( 19.99999999999999645, 5.000000000000000000, 0.000000000000000000 ) ) ;
#263 = CARTESIAN_POINT ( 'NONE',  ( 0.000000000000000000, 0.000000000000000000, 8.000000000000000000 ) ) ;
#264 =( NAMED_UNIT ( * ) SI_UNIT ( $, .STERADIAN. ) SOLID_ANGLE_UNIT ( ) );
#265 = CARTESIAN_POINT ( 'NONE',  ( 19.99999999999999289, -5.000000000000000000, 8.000000000000000000 ) ) ;
#266 = CARTESIAN_POINT ( 'NONE',  ( -2.500000000000010658, 8.673617379884035472E-16, 8.000000000000000000 ) ) ;
#267 = FACE_OUTER_BOUND ( 'NONE', #169, .T. ) ;
#268 = VECTOR ( 'NONE', #160, 1000.000000000000000 ) ;
#269 =( LENGTH_UNIT ( ) NAMED_UNIT ( * ) SI_UNIT ( .MILLI., .METRE. ) );
#270 = LINE ( 'NONE', #78, #12 ) ;
#271 = ORIENTED_EDGE ( 'NONE', *, *, #57, .T. ) ;
#272 = CARTESIAN_POINT ( 'NONE',  ( -1.040834085586084257E-14, 8.673617379884035472E-16, 8.000000000000000000 ) ) ;
#273 = VERTEX_POINT ( 'NONE', #265 ) ;
#274 = ORIENTED_EDGE ( 'NONE', *, *, #258, .T. ) ;
#275 = CARTESIAN_POINT ( 'NONE',  ( 0.000000000000000000, 0.000000000000000000, 0.000000000000000000 ) ) ;
#276 = ORIENTED_EDGE ( 'NONE', *, *, #196, .F. ) ;
#277 = ORIENTED_EDGE ( 'NONE', *, *, #306, .T. ) ;
#278 = DATE_AND_TIME ( #2, #33 ) ;
#279 = CARTESIAN_POINT ( 'NONE',  ( -20.00000000000000711, 5.000000000000000888, 8.000000000000000000 ) ) ;
#280 = DATE_AND_TIME ( #257, #285 ) ;
#281 = APPROVAL_PERSON_ORGANIZATION ( #213, #185, #102 ) ;
#282 = APPROVAL_DATE_TIME ( #118, #224 ) ;
#283 = PRODUCT_DEFINITION_SHAPE ( 'NONE', 'NONE',  #40 ) ;
#284 = ADVANCED_FACE ( 'NONE', ( #302 ), #46, .F. ) ;
#285 = LOCAL_TIME ( 2, 40, 28.00000000000000000, #5 ) ;
#286 = DIRECTION ( 'NONE',  ( 0.000000000000000000, 0.000000000000000000, 1.000000000000000000 ) ) ;
#287 = DIRECTION ( 'NONE',  ( 1.000000000000000000, -2.168404344971008560E-17, 0.000000000000000000 ) ) ;
#288 = DIRECTION ( 'NONE',  ( 1.000000000000000000, 0.000000000000000000, -0.000000000000000000 ) ) ;
#289 = DIRECTION ( 'NONE',  ( 1.000000000000000000, 0.000000000000000000, 0.000000000000000000 ) ) ;
#290 = VECTOR ( 'NONE', #88, 1000.000000000000000 ) ;
#291 = PLANE ( 'NONE',  #155 ) ;
#292 = ORIENTED_EDGE ( 'NONE', *, *, #113, .F. ) ;
#293 = VERTEX_POINT ( 'NONE', #266 ) ;
#294 = CARTESIAN_POINT ( 'NONE',  ( -20.00000000000000711, -5.000000000000000000, 8.000000000000000000 ) ) ;
#295 = APPROVAL ( #61, 'UNSPECIFIED' ) ;
#296 = DATE_TIME_ROLE ( 'classification_date' ) ;
#297 = DIRECTION ( 'NONE',  ( 3.469446951953614189E-16, 1.000000000000000000, -0.000000000000000000 ) ) ;
#298 = AXIS2_PLACEMENT_3D ( 'NONE', #263, #87, #55 ) ;
#299 = EDGE_CURVE ( 'NONE', #127, #146, #187, .T. ) ;
#300 = SHAPE_DEFINITION_REPRESENTATION ( #283, #133 ) ;
#301 = AXIS2_PLACEMENT_3D ( 'NONE', #135, #188, #182 ) ;
#302 = FACE_OUTER_BOUND ( 'NONE', #191, .T. ) ;
#303 = CARTESIAN_POINT ( 'NONE',  ( -1.040834085586084257E-14, 8.673617379884035472E-16, 0.000000000000000000 ) ) ;
#304 = CIRCLE ( 'NONE', #148, 2.500000000000000000 ) ;
#305 = DIRECTION ( 'NONE',  ( -0.000000000000000000, -0.000000000000000000, -1.000000000000000000 ) ) ;
#306 = EDGE_CURVE ( 'NONE', #252, #1, #120, .T. ) ;
#307 = DIRECTION ( 'NONE',  ( 1.000000000000000000, 0.000000000000000000, 0.000000000000000000 ) ) ;
#308 = FACE_BOUND ( 'NONE', #166, .T. ) ;
#309 = ORIENTED_EDGE ( 'NONE', *, *, #81, .F. ) ;
#310 = CLOSED_SHELL ( 'NONE', ( #136, #112, #132, #284, #156, #212, #194, #73 ) ) ;
#311 = ORIENTED_EDGE ( 'NONE', *, *, #22, .T. ) ;
ENDSEC;
END-ISO-10303-21;
