ISO-10303-21;
HEADER;
FILE_DESCRIPTION (( 'STEP AP203' ),
    '1' );
FILE_NAME ('back_Front_sldprt.STEP',
    '2026-08-23T21:10:29',
    ( '' ),
    ( '' ),
    'SwSTEP 2.0',
    'SolidWorks 2020',
    '' );
FILE_SCHEMA (( 'CONFIG_CONTROL_DESIGN' ));
ENDSEC;

DATA;
#1 = DIRECTION ( 'NONE',  ( 3.469446951953614189E-16, 1.000000000000000000, -0.000000000000000000 ) ) ;
#2 = APPROVAL_STATUS ( 'not_yet_approved' ) ;
#3 = LINE ( 'NONE', #195, #234 ) ;
#4 = LINE ( 'NONE', #146, #84 ) ;
#5 = CC_DESIGN_PERSON_AND_ORGANIZATION_ASSIGNMENT ( #232, #12, ( #217 ) ) ;
#6 = ADVANCED_FACE ( 'NONE', ( #39 ), #140, .F. ) ;
#7 =( LENGTH_UNIT ( ) NAMED_UNIT ( * ) SI_UNIT ( .MILLI., .METRE. ) );
#8 = DIRECTION ( 'NONE',  ( -0.000000000000000000, 0.000000000000000000, 1.000000000000000000 ) ) ;
#9 = ADVANCED_FACE ( 'NONE', ( #211 ), #264, .F. ) ;
#10 = DIRECTION ( 'NONE',  ( -1.000000000000000000, -0.000000000000000000, -0.000000000000000000 ) ) ;
#11 = VERTEX_POINT ( 'NONE', #292 ) ;
#12 = PERSON_AND_ORGANIZATION_ROLE ( 'design_supplier' ) ;
#13 = EDGE_LOOP ( 'NONE', ( #91, #70, #111, #73 ) ) ;
#14 = ADVANCED_FACE ( 'NONE', ( #193 ), #247, .F. ) ;
#15 = VERTEX_POINT ( 'NONE', #215 ) ;
#16 =( GEOMETRIC_REPRESENTATION_CONTEXT ( 3 ) GLOBAL_UNCERTAINTY_ASSIGNED_CONTEXT ( ( #127 ) ) GLOBAL_UNIT_ASSIGNED_CONTEXT ( ( #7, #33, #135 ) ) REPRESENTATION_CONTEXT ( 'NONE', 'WORKASPACE' ) );
#17 = EDGE_LOOP ( 'NONE', ( #114, #88, #97, #110 ) ) ;
#18 = DIRECTION ( 'NONE',  ( 1.000000000000000000, 0.000000000000000000, 0.000000000000000000 ) ) ;
#19 = EDGE_LOOP ( 'NONE', ( #142, #134, #208, #62 ) ) ;
#20 = CARTESIAN_POINT ( 'NONE',  ( -12.00000000000000355, -4.999999999999998224, 0.000000000000000000 ) ) ;
#21 = VECTOR ( 'NONE', #58, 1000.000000000000000 ) ;
#22 = EDGE_LOOP ( 'NONE', ( #298, #282 ) ) ;
#23 = PLANE ( 'NONE',  #137 ) ;
#24 = DIRECTION ( 'NONE',  ( -0.000000000000000000, 0.000000000000000000, 1.000000000000000000 ) ) ;
#25 = LINE ( 'NONE', #196, #201 ) ;
#26 = CARTESIAN_POINT ( 'NONE',  ( -2.500000000000010658, 8.673617379884035472E-16, 0.000000000000000000 ) ) ;
#27 = COORDINATED_UNIVERSAL_TIME_OFFSET ( 5, 30, .AHEAD. ) ;
#28 = DIRECTION ( 'NONE',  ( -1.000000000000000000, 0.000000000000000000, 0.000000000000000000 ) ) ;
#29 = CIRCLE ( 'NONE', #216, 2.500000000000000000 ) ;
#30 = PLANE ( 'NONE',  #56 ) ;
#31 = CIRCLE ( 'NONE', #103, 2.500000000000000000 ) ;
#32 = APPROVAL_PERSON_ORGANIZATION ( #310, #169, #78 ) ;
#33 =( NAMED_UNIT ( * ) PLANE_ANGLE_UNIT ( ) SI_UNIT ( $, .RADIAN. ) );
#34 = CC_DESIGN_DATE_AND_TIME_ASSIGNMENT ( #249, #100, ( #291 ) ) ;
#35 = VECTOR ( 'NONE', #241, 1000.000000000000000 ) ;
#36 = ADVANCED_FACE ( 'NONE', ( #189 ), #119, .F. ) ;
#37 = DATE_AND_TIME ( #160, #254 ) ;
#38 = COORDINATED_UNIVERSAL_TIME_OFFSET ( 5, 30, .AHEAD. ) ;
#39 = FACE_OUTER_BOUND ( 'NONE', #231, .T. ) ;
#40 = CALENDAR_DATE ( 2026, 24, 8 ) ;
#41 = VERTEX_POINT ( 'NONE', #47 ) ;
#42 = LINE ( 'NONE', #240, #108 ) ;
#43 = DIRECTION ( 'NONE',  ( -0.000000000000000000, -0.000000000000000000, -1.000000000000000000 ) ) ;
#44 = EDGE_CURVE ( 'NONE', #202, #45, #99, .T. ) ;
#45 = VERTEX_POINT ( 'NONE', #165 ) ;
#46 = DIRECTION ( 'NONE',  ( -0.000000000000000000, -0.000000000000000000, -1.000000000000000000 ) ) ;
#47 = CARTESIAN_POINT ( 'NONE',  ( 12.00000000000000000, 5.000000000000001776, 0.000000000000000000 ) ) ;
#48 = FACE_OUTER_BOUND ( 'NONE', #17, .T. ) ;
#49 = EDGE_CURVE ( 'NONE', #130, #262, #25, .T. ) ;
#50 = DIRECTION ( 'NONE',  ( -0.000000000000000000, -0.000000000000000000, -1.000000000000000000 ) ) ;
#51 = CALENDAR_DATE ( 2026, 24, 8 ) ;
#52 = LINE ( 'NONE', #117, #104 ) ;
#53 = DIRECTION ( 'NONE',  ( -1.000000000000000000, 0.000000000000000000, 0.000000000000000000 ) ) ;
#54 = DIRECTION ( 'NONE',  ( 1.000000000000000000, 0.000000000000000000, 0.000000000000000000 ) ) ;
#55 = CARTESIAN_POINT ( 'NONE',  ( -12.00000000000000355, -4.999999999999998224, 8.000000000000000000 ) ) ;
#56 = AXIS2_PLACEMENT_3D ( 'NONE', #265, #124, #177 ) ;
#57 = ORGANIZATION ( 'UNSPECIFIED', 'UNSPECIFIED', '' ) ;
#58 = DIRECTION ( 'NONE',  ( -0.000000000000000000, -0.000000000000000000, -1.000000000000000000 ) ) ;
#59 = DIRECTION ( 'NONE',  ( 1.000000000000000000, 0.000000000000000000, 0.000000000000000000 ) ) ;
#60 = CIRCLE ( 'NONE', #302, 2.500000000000000000 ) ;
#61 = CC_DESIGN_SECURITY_CLASSIFICATION ( #291, ( #217 ) ) ;
#62 = ORIENTED_EDGE ( 'NONE', *, *, #253, .F. ) ;
#63 = CC_DESIGN_PERSON_AND_ORGANIZATION_ASSIGNMENT ( #109, #136, ( #217 ) ) ;
#64 = EDGE_CURVE ( 'NONE', #192, #15, #246, .T. ) ;
#65 = DESIGN_CONTEXT ( 'detailed design', #274, 'design' ) ;
#66 = DATE_AND_TIME ( #162, #197 ) ;
#67 = AXIS2_PLACEMENT_3D ( 'NONE', #248, #24, #288 ) ;
#68 = COORDINATED_UNIVERSAL_TIME_OFFSET ( 5, 30, .AHEAD. ) ;
#69 = PERSON_AND_ORGANIZATION ( #186, #57 ) ;
#70 = ORIENTED_EDGE ( 'NONE', *, *, #283, .F. ) ;
#71 = VECTOR ( 'NONE', #18, 1000.000000000000000 ) ;
#72 = LOCAL_TIME ( 2, 40, 29.00000000000000000, #27 ) ;
#73 = ORIENTED_EDGE ( 'NONE', *, *, #64, .T. ) ;
#74 = APPROVAL_ROLE ( '' ) ;
#75 = EDGE_CURVE ( 'NONE', #228, #130, #60, .T. ) ;
#76 = SHAPE_DEFINITION_REPRESENTATION ( #176, #263 ) ;
#77 = DIRECTION ( 'NONE',  ( 0.000000000000000000, -0.000000000000000000, -1.000000000000000000 ) ) ;
#78 = APPROVAL_ROLE ( '' ) ;
#79 = EDGE_CURVE ( 'NONE', #130, #228, #31, .T. ) ;
#80 = DIRECTION ( 'NONE',  ( 1.000000000000000000, 0.000000000000000000, 0.000000000000000000 ) ) ;
#81 = AXIS2_PLACEMENT_3D ( 'NONE', #287, #235, #77 ) ;
#82 = CARTESIAN_POINT ( 'NONE',  ( -12.00000000000000355, 5.000000000000001776, 0.000000000000000000 ) ) ;
#83 = DIRECTION ( 'NONE',  ( 0.000000000000000000, -1.000000000000000000, 0.000000000000000000 ) ) ;
#84 = VECTOR ( 'NONE', #46, 1000.000000000000000 ) ;
#85 = LOCAL_TIME ( 2, 40, 29.00000000000000000, #164 ) ;
#86 = PRODUCT_RELATED_PRODUCT_CATEGORY ( 'detail', '', ( #157 ) ) ;
#87 = CARTESIAN_POINT ( 'NONE',  ( 0.000000000000000000, 0.000000000000000000, 0.000000000000000000 ) ) ;
#88 = ORIENTED_EDGE ( 'NONE', *, *, #257, .T. ) ;
#89 = ORIENTED_EDGE ( 'NONE', *, *, #172, .F. ) ;
#90 = DATE_AND_TIME ( #301, #85 ) ;
#91 = ORIENTED_EDGE ( 'NONE', *, *, #184, .T. ) ;
#92 = PERSON_AND_ORGANIZATION ( #186, #57 ) ;
#93 = ORIENTED_EDGE ( 'NONE', *, *, #267, .F. ) ;
#94 = EDGE_CURVE ( 'NONE', #11, #304, #268, .T. ) ;
#95 = PERSON_AND_ORGANIZATION ( #186, #57 ) ;
#96 = DIRECTION ( 'NONE',  ( 0.000000000000000000, 0.000000000000000000, 1.000000000000000000 ) ) ;
#97 = ORIENTED_EDGE ( 'NONE', *, *, #278, .T. ) ;
#98 = CARTESIAN_POINT ( 'NONE',  ( 2.499999999999989786, 1.173523437775242009E-15, 0.000000000000000000 ) ) ;
#99 = LINE ( 'NONE', #20, #233 ) ;
#100 = DATE_TIME_ROLE ( 'classification_date' ) ;
#101 = CARTESIAN_POINT ( 'NONE',  ( 2.499999999999989786, 1.173523437775242009E-15, 8.000000000000000000 ) ) ;
#102 = CARTESIAN_POINT ( 'NONE',  ( -12.00000000000000355, -4.999999999999998224, 8.000000000000000000 ) ) ;
#103 = AXIS2_PLACEMENT_3D ( 'NONE', #123, #311, #80 ) ;
#104 = VECTOR ( 'NONE', #1, 1000.000000000000000 ) ;
#105 = CC_DESIGN_APPROVAL ( #169, ( #291 ) ) ;
#106 = LINE ( 'NONE', #293, #120 ) ;
#107 = CARTESIAN_POINT ( 'NONE',  ( -12.00000000000000355, -4.999999999999998224, 0.000000000000000000 ) ) ;
#108 = VECTOR ( 'NONE', #10, 1000.000000000000000 ) ;
#109 = PERSON_AND_ORGANIZATION ( #186, #57 ) ;
#110 = ORIENTED_EDGE ( 'NONE', *, *, #172, .T. ) ;
#111 = ORIENTED_EDGE ( 'NONE', *, *, #278, .F. ) ;
#112 = AXIS2_PLACEMENT_3D ( 'NONE', #309, #147, #244 ) ;
#113 = AXIS2_PLACEMENT_3D ( 'NONE', #279, #115, #183 ) ;
#114 = ORIENTED_EDGE ( 'NONE', *, *, #94, .T. ) ;
#115 = DIRECTION ( 'NONE',  ( 0.000000000000000000, 0.000000000000000000, 1.000000000000000000 ) ) ;
#116 = ORIENTED_EDGE ( 'NONE', *, *, #283, .T. ) ;
#117 = CARTESIAN_POINT ( 'NONE',  ( 12.00000000000000000, 5.000000000000001776, 0.000000000000000000 ) ) ;
#118 = ORIENTED_EDGE ( 'NONE', *, *, #133, .F. ) ;
#119 = PLANE ( 'NONE',  #275 ) ;
#120 = VECTOR ( 'NONE', #83, 1000.000000000000000 ) ;
#121 = PERSON_AND_ORGANIZATION_ROLE ( 'classification_officer' ) ;
#122 = CARTESIAN_POINT ( 'NONE',  ( -1.040834085586084257E-14, 8.673617379884035472E-16, 8.000000000000000000 ) ) ;
#123 = CARTESIAN_POINT ( 'NONE',  ( -1.040834085586084257E-14, 8.673617379884035472E-16, 8.000000000000000000 ) ) ;
#124 = DIRECTION ( 'NONE',  ( 0.000000000000000000, 1.000000000000000000, 0.000000000000000000 ) ) ;
#125 = EDGE_CURVE ( 'NONE', #11, #45, #170, .T. ) ;
#126 = CARTESIAN_POINT ( 'NONE',  ( -12.00000000000000355, 5.000000000000001776, 0.000000000000000000 ) ) ;
#127 = UNCERTAINTY_MEASURE_WITH_UNIT (LENGTH_MEASURE( 1.000000000000000082E-05 ), #7, 'distance_accuracy_value', 'NONE');
#128 = CARTESIAN_POINT ( 'NONE',  ( -1.040834085586084257E-14, 8.673617379884035472E-16, 8.000000000000000000 ) ) ;
#129 = ORIENTED_EDGE ( 'NONE', *, *, #125, .T. ) ;
#130 = VERTEX_POINT ( 'NONE', #101 ) ;
#131 = APPROVAL_DATE_TIME ( #90, #159 ) ;
#132 = APPROVAL_PERSON_ORGANIZATION ( #69, #238, #299 ) ;
#133 = EDGE_CURVE ( 'NONE', #262, #303, #290, .T. ) ;
#134 = ORIENTED_EDGE ( 'NONE', *, *, #44, .F. ) ;
#135 =( NAMED_UNIT ( * ) SI_UNIT ( $, .STERADIAN. ) SOLID_ANGLE_UNIT ( ) );
#136 = PERSON_AND_ORGANIZATION_ROLE ( 'creator' ) ;
#137 = AXIS2_PLACEMENT_3D ( 'NONE', #87, #8, #59 ) ;
#138 = CC_DESIGN_APPROVAL ( #159, ( #217 ) ) ;
#139 = CC_DESIGN_PERSON_AND_ORGANIZATION_ASSIGNMENT ( #92, #285, ( #150 ) ) ;
#140 = PLANE ( 'NONE',  #81 ) ;
#141 = PERSON_AND_ORGANIZATION ( #186, #57 ) ;
#142 = ORIENTED_EDGE ( 'NONE', *, *, #181, .F. ) ;
#143 = DIRECTION ( 'NONE',  ( 1.000000000000000000, 0.000000000000000000, 0.000000000000000000 ) ) ;
#144 = CARTESIAN_POINT ( 'NONE',  ( 12.00000000000000000, 5.000000000000001776, 8.000000000000000000 ) ) ;
#145 = CARTESIAN_POINT ( 'NONE',  ( 12.00000000000000000, 5.000000000000001776, 8.000000000000000000 ) ) ;
#146 = CARTESIAN_POINT ( 'NONE',  ( 12.00000000000000000, 5.000000000000001776, 8.000000000000000000 ) ) ;
#147 = DIRECTION ( 'NONE',  ( 0.000000000000000000, 0.000000000000000000, 1.000000000000000000 ) ) ;
#148 = CARTESIAN_POINT ( 'NONE',  ( 11.99999999999999645, -4.999999999999998224, 8.000000000000000000 ) ) ;
#149 = DIRECTION ( 'NONE',  ( -0.000000000000000000, -0.000000000000000000, -1.000000000000000000 ) ) ;
#150 = PRODUCT_DEFINITION ( 'UNKNOWN', '', #217, #65 ) ;
#151 = CC_DESIGN_APPROVAL ( #238, ( #150 ) ) ;
#152 = FACE_OUTER_BOUND ( 'NONE', #260, .T. ) ;
#153 = EDGE_CURVE ( 'NONE', #228, #303, #3, .T. ) ;
#154 = CARTESIAN_POINT ( 'NONE',  ( -1.040834085586084257E-14, 8.673617379884035472E-16, 0.000000000000000000 ) ) ;
#155 = CC_DESIGN_PERSON_AND_ORGANIZATION_ASSIGNMENT ( #141, #121, ( #291 ) ) ;
#156 = ORIENTED_EDGE ( 'NONE', *, *, #257, .F. ) ;
#157 = PRODUCT ( 'back_Front_sldprt', 'back_Front_sldprt', '', ( #281 ) ) ;
#158 = ORIENTED_EDGE ( 'NONE', *, *, #181, .T. ) ;
#159 = APPROVAL ( #188, 'UNSPECIFIED' ) ;
#160 = CALENDAR_DATE ( 2026, 24, 8 ) ;
#161 = ORIENTED_EDGE ( 'NONE', *, *, #75, .T. ) ;
#162 = CALENDAR_DATE ( 2026, 24, 8 ) ;
#163 = ORIENTED_EDGE ( 'NONE', *, *, #79, .F. ) ;
#164 = COORDINATED_UNIVERSAL_TIME_OFFSET ( 5, 30, .AHEAD. ) ;
#165 = CARTESIAN_POINT ( 'NONE',  ( 11.99999999999999645, -4.999999999999998224, 0.000000000000000000 ) ) ;
#166 = EDGE_LOOP ( 'NONE', ( #182, #204, #239, #118 ) ) ;
#167 = DIRECTION ( 'NONE',  ( -0.000000000000000000, -0.000000000000000000, -1.000000000000000000 ) ) ;
#168 = LINE ( 'NONE', #174, #21 ) ;
#169 = APPROVAL ( #2, 'UNSPECIFIED' ) ;
#170 = LINE ( 'NONE', #148, #209 ) ;
#171 = DIRECTION ( 'NONE',  ( -3.469446951953614189E-16, -1.000000000000000000, 0.000000000000000000 ) ) ;
#172 = EDGE_CURVE ( 'NONE', #187, #11, #198, .T. ) ;
#173 = FACE_OUTER_BOUND ( 'NONE', #166, .T. ) ;
#174 = CARTESIAN_POINT ( 'NONE',  ( -12.00000000000000355, -4.999999999999998224, 8.000000000000000000 ) ) ;
#175 = AXIS2_PLACEMENT_3D ( 'NONE', #145, #242, #171 ) ;
#176 = PRODUCT_DEFINITION_SHAPE ( 'NONE', 'NONE',  #150 ) ;
#177 = DIRECTION ( 'NONE',  ( 0.000000000000000000, -0.000000000000000000, 1.000000000000000000 ) ) ;
#178 = CARTESIAN_POINT ( 'NONE',  ( -2.500000000000010658, 8.673617379884035472E-16, 8.000000000000000000 ) ) ;
#179 = ORIENTED_EDGE ( 'NONE', *, *, #267, .T. ) ;
#180 = APPLICATION_PROTOCOL_DEFINITION ( 'international standard', 'config_control_design', 1994, #274 ) ;
#181 = EDGE_CURVE ( 'NONE', #45, #41, #52, .T. ) ;
#182 = ORIENTED_EDGE ( 'NONE', *, *, #49, .F. ) ;
#183 = DIRECTION ( 'NONE',  ( 1.000000000000000000, 0.000000000000000000, 0.000000000000000000 ) ) ;
#184 = EDGE_CURVE ( 'NONE', #15, #202, #289, .T. ) ;
#185 = ORIENTED_EDGE ( 'NONE', *, *, #44, .T. ) ;
#186 = PERSON ( 'UNSPECIFIED', 'UNSPECIFIED', 'UNSPECIFIED', ('UNSPECIFIED'), ('UNSPECIFIED'), ('UNSPECIFIED') ) ;
#187 = VERTEX_POINT ( 'NONE', #55 ) ;
#188 = APPROVAL_STATUS ( 'not_yet_approved' ) ;
#189 = FACE_OUTER_BOUND ( 'NONE', #13, .T. ) ;
#190 = VECTOR ( 'NONE', #50, 1000.000000000000000 ) ;
#191 = COORDINATED_UNIVERSAL_TIME_OFFSET ( 5, 30, .AHEAD. ) ;
#192 = VERTEX_POINT ( 'NONE', #200 ) ;
#193 = FACE_OUTER_BOUND ( 'NONE', #213, .T. ) ;
#194 = ADVANCED_FACE ( 'NONE', ( #295, #214 ), #23, .F. ) ;
#195 = CARTESIAN_POINT ( 'NONE',  ( -2.500000000000010658, 8.673617379884035472E-16, 8.000000000000000000 ) ) ;
#196 = CARTESIAN_POINT ( 'NONE',  ( 2.499999999999989786, 1.173523437775242009E-15, 8.000000000000000000 ) ) ;
#197 = LOCAL_TIME ( 2, 40, 29.00000000000000000, #38 ) ;
#198 = LINE ( 'NONE', #102, #71 ) ;
#199 = AXIS2_PLACEMENT_3D ( 'NONE', #128, #256, #53 ) ;
#200 = CARTESIAN_POINT ( 'NONE',  ( -12.00000000000000355, 5.000000000000001776, 8.000000000000000000 ) ) ;
#201 = VECTOR ( 'NONE', #43, 1000.000000000000000 ) ;
#202 = VERTEX_POINT ( 'NONE', #107 ) ;
#203 = MANIFOLD_SOLID_BREP ( 'Boss-Extrude1', #296 ) ;
#204 = ORIENTED_EDGE ( 'NONE', *, *, #79, .T. ) ;
#205 = SECURITY_CLASSIFICATION_LEVEL ( 'unclassified' ) ;
#206 = APPROVAL_DATE_TIME ( #37, #238 ) ;
#207 = ADVANCED_FACE ( 'NONE', ( #152 ), #30, .F. ) ;
#208 = ORIENTED_EDGE ( 'NONE', *, *, #184, .F. ) ;
#209 = VECTOR ( 'NONE', #149, 1000.000000000000000 ) ;
#210 = ORIENTED_EDGE ( 'NONE', *, *, #125, .F. ) ;
#211 = FACE_OUTER_BOUND ( 'NONE', #229, .T. ) ;
#212 = CARTESIAN_POINT ( 'NONE',  ( -1.040834085586084257E-14, 8.673617379884035472E-16, 8.000000000000000000 ) ) ;
#213 = EDGE_LOOP ( 'NONE', ( #161, #252, #226, #300 ) ) ;
#214 = FACE_BOUND ( 'NONE', #22, .T. ) ;
#215 = CARTESIAN_POINT ( 'NONE',  ( -12.00000000000000355, 5.000000000000001776, 0.000000000000000000 ) ) ;
#216 = AXIS2_PLACEMENT_3D ( 'NONE', #154, #308, #143 ) ;
#217 = PRODUCT_DEFINITION_FORMATION_WITH_SPECIFIED_SOURCE ( 'ANY', '', #157, .NOT_KNOWN. ) ;
#218 = CARTESIAN_POINT ( 'NONE',  ( -12.00000000000000355, 5.000000000000001776, 8.000000000000000000 ) ) ;
#219 = DIRECTION ( 'NONE',  ( 1.000000000000000000, 0.000000000000000000, -0.000000000000000000 ) ) ;
#220 = CARTESIAN_POINT ( 'NONE',  ( 12.00000000000000000, 5.000000000000001776, 8.000000000000000000 ) ) ;
#221 = EDGE_CURVE ( 'NONE', #303, #262, #29, .T. ) ;
#222 = DIRECTION ( 'NONE',  ( 0.000000000000000000, -1.000000000000000000, 0.000000000000000000 ) ) ;
#223 = LOCAL_TIME ( 2, 40, 29.00000000000000000, #191 ) ;
#224 = CC_DESIGN_PERSON_AND_ORGANIZATION_ASSIGNMENT ( #255, #261, ( #157 ) ) ;
#225 = DIRECTION ( 'NONE',  ( -1.000000000000000000, -0.000000000000000000, -0.000000000000000000 ) ) ;
#226 = ORIENTED_EDGE ( 'NONE', *, *, #221, .F. ) ;
#227 = APPROVAL_PERSON_ORGANIZATION ( #95, #159, #74 ) ;
#228 = VERTEX_POINT ( 'NONE', #178 ) ;
#229 = EDGE_LOOP ( 'NONE', ( #158, #93, #307, #129 ) ) ;
#230 = APPROVAL_STATUS ( 'not_yet_approved' ) ;
#231 = EDGE_LOOP ( 'NONE', ( #277, #297, #156, #179 ) ) ;
#232 = PERSON_AND_ORGANIZATION ( #186, #57 ) ;
#233 = VECTOR ( 'NONE', #54, 1000.000000000000000 ) ;
#234 = VECTOR ( 'NONE', #236, 1000.000000000000000 ) ;
#235 = DIRECTION ( 'NONE',  ( 0.000000000000000000, -1.000000000000000000, 0.000000000000000000 ) ) ;
#236 = DIRECTION ( 'NONE',  ( -0.000000000000000000, -0.000000000000000000, -1.000000000000000000 ) ) ;
#237 = APPROVAL_DATE_TIME ( #286, #169 ) ;
#238 = APPROVAL ( #230, 'UNSPECIFIED' ) ;
#239 = ORIENTED_EDGE ( 'NONE', *, *, #153, .T. ) ;
#240 = CARTESIAN_POINT ( 'NONE',  ( -12.00000000000000355, 5.000000000000001776, 8.000000000000000000 ) ) ;
#241 = DIRECTION ( 'NONE',  ( 3.469446951953614189E-16, 1.000000000000000000, -0.000000000000000000 ) ) ;
#242 = DIRECTION ( 'NONE',  ( -1.000000000000000000, 3.469446951953614189E-16, 0.000000000000000000 ) ) ;
#243 = LINE ( 'NONE', #126, #250 ) ;
#244 = DIRECTION ( 'NONE',  ( 1.000000000000000000, 0.000000000000000000, 0.000000000000000000 ) ) ;
#245 = PLANE ( 'NONE',  #67 ) ;
#246 = LINE ( 'NONE', #272, #190 ) ;
#247 = CYLINDRICAL_SURFACE ( 'NONE', #269, 2.500000000000000000 ) ;
#248 = CARTESIAN_POINT ( 'NONE',  ( 0.000000000000000000, 0.000000000000000000, 8.000000000000000000 ) ) ;
#249 = DATE_AND_TIME ( #51, #223 ) ;
#250 = VECTOR ( 'NONE', #225, 1000.000000000000000 ) ;
#251 = CC_DESIGN_DATE_AND_TIME_ASSIGNMENT ( #66, #258, ( #150 ) ) ;
#252 = ORIENTED_EDGE ( 'NONE', *, *, #49, .T. ) ;
#253 = EDGE_CURVE ( 'NONE', #41, #15, #243, .T. ) ;
#254 = LOCAL_TIME ( 2, 40, 29.00000000000000000, #68 ) ;
#255 = PERSON_AND_ORGANIZATION ( #186, #57 ) ;
#256 = DIRECTION ( 'NONE',  ( -0.000000000000000000, -0.000000000000000000, -1.000000000000000000 ) ) ;
#257 = EDGE_CURVE ( 'NONE', #304, #192, #42, .T. ) ;
#258 = DATE_TIME_ROLE ( 'creation_date' ) ;
#259 = APPLICATION_PROTOCOL_DEFINITION ( 'international standard', 'config_control_design', 1994, #305 ) ;
#260 = EDGE_LOOP ( 'NONE', ( #185, #210, #89, #116 ) ) ;
#261 = PERSON_AND_ORGANIZATION_ROLE ( 'design_owner' ) ;
#262 = VERTEX_POINT ( 'NONE', #98 ) ;
#263 = ADVANCED_BREP_SHAPE_REPRESENTATION ( 'back_Front_sldprt', ( #203, #113 ), #16 ) ;
#264 = PLANE ( 'NONE',  #175 ) ;
#265 = CARTESIAN_POINT ( 'NONE',  ( -12.00000000000000355, -4.999999999999998224, 8.000000000000000000 ) ) ;
#266 = DIRECTION ( 'NONE',  ( -0.000000000000000000, 0.000000000000000000, -1.000000000000000000 ) ) ;
#267 = EDGE_CURVE ( 'NONE', #304, #41, #4, .T. ) ;
#268 = LINE ( 'NONE', #144, #35 ) ;
#269 = AXIS2_PLACEMENT_3D ( 'NONE', #122, #167, #28 ) ;
#270 = FACE_BOUND ( 'NONE', #284, .T. ) ;
#271 = DIRECTION ( 'NONE',  ( 1.000000000000000000, 0.000000000000000000, 0.000000000000000000 ) ) ;
#272 = CARTESIAN_POINT ( 'NONE',  ( -12.00000000000000355, 5.000000000000001776, 8.000000000000000000 ) ) ;
#273 = CYLINDRICAL_SURFACE ( 'NONE', #199, 2.500000000000000000 ) ;
#274 = APPLICATION_CONTEXT ( 'configuration controlled 3d designs of mechanical parts and assemblies' ) ;
#275 = AXIS2_PLACEMENT_3D ( 'NONE', #218, #219, #266 ) ;
#276 = VECTOR ( 'NONE', #222, 1000.000000000000000 ) ;
#277 = ORIENTED_EDGE ( 'NONE', *, *, #253, .T. ) ;
#278 = EDGE_CURVE ( 'NONE', #192, #187, #106, .T. ) ;
#279 = CARTESIAN_POINT ( 'NONE',  ( 0.000000000000000000, 0.000000000000000000, 0.000000000000000000 ) ) ;
#280 = ADVANCED_FACE ( 'NONE', ( #173 ), #273, .F. ) ;
#281 = MECHANICAL_CONTEXT ( 'NONE', #305, 'mechanical' ) ;
#282 = ORIENTED_EDGE ( 'NONE', *, *, #133, .T. ) ;
#283 = EDGE_CURVE ( 'NONE', #187, #202, #168, .T. ) ;
#284 = EDGE_LOOP ( 'NONE', ( #306, #163 ) ) ;
#285 = PERSON_AND_ORGANIZATION_ROLE ( 'creator' ) ;
#286 = DATE_AND_TIME ( #40, #72 ) ;
#287 = CARTESIAN_POINT ( 'NONE',  ( -12.00000000000000355, 5.000000000000001776, 8.000000000000000000 ) ) ;
#288 = DIRECTION ( 'NONE',  ( 1.000000000000000000, 0.000000000000000000, 0.000000000000000000 ) ) ;
#289 = LINE ( 'NONE', #82, #276 ) ;
#290 = CIRCLE ( 'NONE', #112, 2.500000000000000000 ) ;
#291 = SECURITY_CLASSIFICATION ( '', '', #205 ) ;
#292 = CARTESIAN_POINT ( 'NONE',  ( 11.99999999999999645, -4.999999999999998224, 8.000000000000000000 ) ) ;
#293 = CARTESIAN_POINT ( 'NONE',  ( -12.00000000000000355, 5.000000000000001776, 8.000000000000000000 ) ) ;
#294 = ADVANCED_FACE ( 'NONE', ( #48, #270 ), #245, .T. ) ;
#295 = FACE_OUTER_BOUND ( 'NONE', #19, .T. ) ;
#296 = CLOSED_SHELL ( 'NONE', ( #14, #294, #194, #9, #6, #36, #207, #280 ) ) ;
#297 = ORIENTED_EDGE ( 'NONE', *, *, #64, .F. ) ;
#298 = ORIENTED_EDGE ( 'NONE', *, *, #221, .T. ) ;
#299 = APPROVAL_ROLE ( '' ) ;
#300 = ORIENTED_EDGE ( 'NONE', *, *, #153, .F. ) ;
#301 = CALENDAR_DATE ( 2026, 24, 8 ) ;
#302 = AXIS2_PLACEMENT_3D ( 'NONE', #212, #96, #271 ) ;
#303 = VERTEX_POINT ( 'NONE', #26 ) ;
#304 = VERTEX_POINT ( 'NONE', #220 ) ;
#305 = APPLICATION_CONTEXT ( 'configuration controlled 3d designs of mechanical parts and assemblies' ) ;
#306 = ORIENTED_EDGE ( 'NONE', *, *, #75, .F. ) ;
#307 = ORIENTED_EDGE ( 'NONE', *, *, #94, .F. ) ;
#308 = DIRECTION ( 'NONE',  ( 0.000000000000000000, 0.000000000000000000, 1.000000000000000000 ) ) ;
#309 = CARTESIAN_POINT ( 'NONE',  ( -1.040834085586084257E-14, 8.673617379884035472E-16, 0.000000000000000000 ) ) ;
#310 = PERSON_AND_ORGANIZATION ( #186, #57 ) ;
#311 = DIRECTION ( 'NONE',  ( 0.000000000000000000, 0.000000000000000000, 1.000000000000000000 ) ) ;
ENDSEC;
END-ISO-10303-21;
