ISO-10303-21;
HEADER;
FILE_DESCRIPTION (( 'STEP AP203' ),
    '1' );
FILE_NAME ('Cable_Default_sldprt.STEP',
    '2026-08-23T21:10:00',
    ( '' ),
    ( '' ),
    'SwSTEP 2.0',
    'SolidWorks 2020',
    '' );
FILE_SCHEMA (( 'CONFIG_CONTROL_DESIGN' ));
ENDSEC;

DATA;
#1 = APPROVAL_STATUS ( 'not_yet_approved' ) ;
#2 = PERSON_AND_ORGANIZATION_ROLE ( 'classification_officer' ) ;
#3 = CLOSED_SHELL ( 'NONE', ( #158, #71, #139, #12 ) ) ;
#4 = ORIENTED_EDGE ( 'NONE', *, *, #128, .T. ) ;
#5 = DIRECTION ( 'NONE',  ( -0.000000000000000000, -0.000000000000000000, -1.000000000000000000 ) ) ;
#6 = CC_DESIGN_DATE_AND_TIME_ASSIGNMENT ( #26, #159, ( #134 ) ) ;
#7 = CYLINDRICAL_SURFACE ( 'NONE', #137, 7.500000000000000000 ) ;
#8 = AXIS2_PLACEMENT_3D ( 'NONE', #23, #113, #166 ) ;
#9 = LINE ( 'NONE', #127, #30 ) ;
#10 = CARTESIAN_POINT ( 'NONE',  ( 0.000000000000000000, 0.000000000000000000, 0.000000000000000000 ) ) ;
#11 = CARTESIAN_POINT ( 'NONE',  ( 0.000000000000000000, 0.000000000000000000, 1500.000000000000000 ) ) ;
#12 = ADVANCED_FACE ( 'NONE', ( #114 ), #126, .F. ) ;
#13 = EDGE_LOOP ( 'NONE', ( #175, #42, #91, #4 ) ) ;
#14 = PRODUCT_RELATED_PRODUCT_CATEGORY ( 'detail', '', ( #31 ) ) ;
#15 = ORIENTED_EDGE ( 'NONE', *, *, #144, .T. ) ;
#16 = ORIENTED_EDGE ( 'NONE', *, *, #160, .F. ) ;
#17 = APPLICATION_CONTEXT ( 'configuration controlled 3d designs of mechanical parts and assemblies' ) ;
#18 = CIRCLE ( 'NONE', #161, 7.500000000000000000 ) ;
#19 = EDGE_LOOP ( 'NONE', ( #141, #15 ) ) ;
#20 = LOCAL_TIME ( 2, 40, 0.000000000000000000, #150 ) ;
#21 = APPROVAL_PERSON_ORGANIZATION ( #133, #78, #172 ) ;
#22 =( LENGTH_UNIT ( ) NAMED_UNIT ( * ) SI_UNIT ( .MILLI., .METRE. ) );
#23 = CARTESIAN_POINT ( 'NONE',  ( 0.000000000000000000, 0.000000000000000000, 1500.000000000000000 ) ) ;
#24 = DIRECTION ( 'NONE',  ( -0.000000000000000000, -0.000000000000000000, -1.000000000000000000 ) ) ;
#25 = COORDINATED_UNIVERSAL_TIME_OFFSET ( 5, 30, .AHEAD. ) ;
#26 = DATE_AND_TIME ( #152, #83 ) ;
#27 = UNCERTAINTY_MEASURE_WITH_UNIT (LENGTH_MEASURE( 1.000000000000000082E-05 ), #22, 'distance_accuracy_value', 'NONE');
#28 = DATE_TIME_ROLE ( 'creation_date' ) ;
#29 = CALENDAR_DATE ( 2026, 24, 8 ) ;
#30 = VECTOR ( 'NONE', #47, 1000.000000000000000 ) ;
#31 = PRODUCT ( 'Cable_Default_sldprt', 'Cable_Default_sldprt', '', ( #100 ) ) ;
#32 = ORIENTED_EDGE ( 'NONE', *, *, #163, .T. ) ;
#33 = APPROVAL_PERSON_ORGANIZATION ( #174, #125, #41 ) ;
#34 = DIRECTION ( 'NONE',  ( -0.000000000000000000, -0.000000000000000000, -1.000000000000000000 ) ) ;
#35 = CC_DESIGN_APPROVAL ( #78, ( #59 ) ) ;
#36 = PLANE ( 'NONE',  #170 ) ;
#37 = DIRECTION ( 'NONE',  ( 1.000000000000000000, 0.000000000000000000, 0.000000000000000000 ) ) ;
#38 = EDGE_CURVE ( 'NONE', #164, #153, #142, .T. ) ;
#39 = APPROVAL_STATUS ( 'not_yet_approved' ) ;
#40 = CALENDAR_DATE ( 2026, 24, 8 ) ;
#41 = APPROVAL_ROLE ( '' ) ;
#42 = ORIENTED_EDGE ( 'NONE', *, *, #38, .F. ) ;
#43 = LOCAL_TIME ( 2, 40, 0.000000000000000000, #25 ) ;
#44 = CARTESIAN_POINT ( 'NONE',  ( 7.500000000000000000, 9.184850993605147944E-16, 0.000000000000000000 ) ) ;
#45 = VECTOR ( 'NONE', #24, 1000.000000000000000 ) ;
#46 = DIRECTION ( 'NONE',  ( 1.000000000000000000, 0.000000000000000000, 0.000000000000000000 ) ) ;
#47 = DIRECTION ( 'NONE',  ( -0.000000000000000000, -0.000000000000000000, -1.000000000000000000 ) ) ;
#48 = DIRECTION ( 'NONE',  ( 0.000000000000000000, 0.000000000000000000, 1.000000000000000000 ) ) ;
#49 = DIRECTION ( 'NONE',  ( 1.000000000000000000, 0.000000000000000000, 0.000000000000000000 ) ) ;
#50 = APPROVAL_DATE_TIME ( #72, #78 ) ;
#51 = DATE_AND_TIME ( #73, #20 ) ;
#52 = CC_DESIGN_APPROVAL ( #125, ( #134 ) ) ;
#53 = ORIENTED_EDGE ( 'NONE', *, *, #93, .F. ) ;
#54 = DIRECTION ( 'NONE',  ( 1.000000000000000000, 0.000000000000000000, 0.000000000000000000 ) ) ;
#55 = DIRECTION ( 'NONE',  ( 1.000000000000000000, 0.000000000000000000, -0.000000000000000000 ) ) ;
#56 = DIRECTION ( 'NONE',  ( 0.000000000000000000, 0.000000000000000000, 1.000000000000000000 ) ) ;
#57 = APPLICATION_PROTOCOL_DEFINITION ( 'international standard', 'config_control_design', 1994, #17 ) ;
#58 = PERSON_AND_ORGANIZATION_ROLE ( 'creator' ) ;
#59 = PRODUCT_DEFINITION ( 'UNKNOWN', '', #154, #132 ) ;
#60 = CC_DESIGN_APPROVAL ( #140, ( #154 ) ) ;
#61 = ORIENTED_EDGE ( 'NONE', *, *, #128, .F. ) ;
#62 = CC_DESIGN_PERSON_AND_ORGANIZATION_ASSIGNMENT ( #135, #122, ( #154 ) ) ;
#63 = ORGANIZATION ( 'UNSPECIFIED', 'UNSPECIFIED', '' ) ;
#64 = PRODUCT_DEFINITION_SHAPE ( 'NONE', 'NONE',  #59 ) ;
#65 =( GEOMETRIC_REPRESENTATION_CONTEXT ( 3 ) GLOBAL_UNCERTAINTY_ASSIGNED_CONTEXT ( ( #27 ) ) GLOBAL_UNIT_ASSIGNED_CONTEXT ( ( #22, #66, #117 ) ) REPRESENTATION_CONTEXT ( 'NONE', 'WORKASPACE' ) );
#66 =( NAMED_UNIT ( * ) PLANE_ANGLE_UNIT ( ) SI_UNIT ( $, .RADIAN. ) );
#67 = DIRECTION ( 'NONE',  ( 0.000000000000000000, 0.000000000000000000, 1.000000000000000000 ) ) ;
#68 = CC_DESIGN_DATE_AND_TIME_ASSIGNMENT ( #147, #28, ( #59 ) ) ;
#69 = FACE_OUTER_BOUND ( 'NONE', #13, .T. ) ;
#70 = FACE_OUTER_BOUND ( 'NONE', #19, .T. ) ;
#71 = ADVANCED_FACE ( 'NONE', ( #69 ), #7, .T. ) ;
#72 = DATE_AND_TIME ( #86, #43 ) ;
#73 = CALENDAR_DATE ( 2026, 24, 8 ) ;
#74 = PERSON_AND_ORGANIZATION ( #107, #63 ) ;
#75 = PERSON_AND_ORGANIZATION_ROLE ( 'design_supplier' ) ;
#76 = APPROVAL_DATE_TIME ( #92, #140 ) ;
#77 = VERTEX_POINT ( 'NONE', #44 ) ;
#78 = APPROVAL ( #39, 'UNSPECIFIED' ) ;
#79 = CC_DESIGN_PERSON_AND_ORGANIZATION_ASSIGNMENT ( #87, #2, ( #134 ) ) ;
#80 = CIRCLE ( 'NONE', #88, 7.500000000000000000 ) ;
#81 = VERTEX_POINT ( 'NONE', #129 ) ;
#82 = CARTESIAN_POINT ( 'NONE',  ( 0.000000000000000000, 0.000000000000000000, 0.000000000000000000 ) ) ;
#83 = LOCAL_TIME ( 2, 40, 0.000000000000000000, #148 ) ;
#84 = LINE ( 'NONE', #145, #45 ) ;
#85 = PERSON_AND_ORGANIZATION ( #107, #63 ) ;
#86 = CALENDAR_DATE ( 2026, 24, 8 ) ;
#87 = PERSON_AND_ORGANIZATION ( #107, #63 ) ;
#88 = AXIS2_PLACEMENT_3D ( 'NONE', #82, #56, #37 ) ;
#89 = DIRECTION ( 'NONE',  ( 0.000000000000000000, 0.000000000000000000, 1.000000000000000000 ) ) ;
#90 = COORDINATED_UNIVERSAL_TIME_OFFSET ( 5, 30, .AHEAD. ) ;
#91 = ORIENTED_EDGE ( 'NONE', *, *, #93, .T. ) ;
#92 = DATE_AND_TIME ( #29, #116 ) ;
#93 = EDGE_CURVE ( 'NONE', #164, #81, #9, .T. ) ;
#94 = CARTESIAN_POINT ( 'NONE',  ( 7.500000000000000000, 9.184850993605147944E-16, 1500.000000000000000 ) ) ;
#95 = AXIS2_PLACEMENT_3D ( 'NONE', #96, #34, #143 ) ;
#96 = CARTESIAN_POINT ( 'NONE',  ( 0.000000000000000000, 0.000000000000000000, 1500.000000000000000 ) ) ;
#97 = FACE_OUTER_BOUND ( 'NONE', #120, .T. ) ;
#98 = DIRECTION ( 'NONE',  ( 0.000000000000000000, 0.000000000000000000, 1.000000000000000000 ) ) ;
#99 = CYLINDRICAL_SURFACE ( 'NONE', #95, 7.500000000000000000 ) ;
#100 = MECHANICAL_CONTEXT ( 'NONE', #108, 'mechanical' ) ;
#101 = MANIFOLD_SOLID_BREP ( 'Boss-Extrude1', #3 ) ;
#102 = PERSON_AND_ORGANIZATION ( #107, #63 ) ;
#103 = SHAPE_DEFINITION_REPRESENTATION ( #64, #155 ) ;
#104 = APPROVAL_PERSON_ORGANIZATION ( #74, #140, #119 ) ;
#105 = EDGE_LOOP ( 'NONE', ( #61, #16 ) ) ;
#106 = APPROVAL_STATUS ( 'not_yet_approved' ) ;
#107 = PERSON ( 'UNSPECIFIED', 'UNSPECIFIED', 'UNSPECIFIED', ('UNSPECIFIED'), ('UNSPECIFIED'), ('UNSPECIFIED') ) ;
#108 = APPLICATION_CONTEXT ( 'configuration controlled 3d designs of mechanical parts and assemblies' ) ;
#109 = DIRECTION ( 'NONE',  ( -1.000000000000000000, 0.000000000000000000, 0.000000000000000000 ) ) ;
#110 = CARTESIAN_POINT ( 'NONE',  ( 0.000000000000000000, 0.000000000000000000, 1500.000000000000000 ) ) ;
#111 = LOCAL_TIME ( 2, 40, 0.000000000000000000, #157 ) ;
#112 = CARTESIAN_POINT ( 'NONE',  ( 0.000000000000000000, 0.000000000000000000, 1500.000000000000000 ) ) ;
#113 = DIRECTION ( 'NONE',  ( 0.000000000000000000, 0.000000000000000000, 1.000000000000000000 ) ) ;
#114 = FACE_OUTER_BOUND ( 'NONE', #105, .T. ) ;
#115 = CC_DESIGN_SECURITY_CLASSIFICATION ( #134, ( #154 ) ) ;
#116 = LOCAL_TIME ( 2, 40, 0.000000000000000000, #90 ) ;
#117 =( NAMED_UNIT ( * ) SI_UNIT ( $, .STERADIAN. ) SOLID_ANGLE_UNIT ( ) );
#118 = CARTESIAN_POINT ( 'NONE',  ( 0.000000000000000000, 0.000000000000000000, 0.000000000000000000 ) ) ;
#119 = APPROVAL_ROLE ( '' ) ;
#120 = EDGE_LOOP ( 'NONE', ( #138, #32, #167, #53 ) ) ;
#121 = APPROVAL_DATE_TIME ( #51, #125 ) ;
#122 = PERSON_AND_ORGANIZATION_ROLE ( 'creator' ) ;
#123 = CC_DESIGN_PERSON_AND_ORGANIZATION_ASSIGNMENT ( #85, #156, ( #31 ) ) ;
#124 = AXIS2_PLACEMENT_3D ( 'NONE', #10, #67, #55 ) ;
#125 = APPROVAL ( #106, 'UNSPECIFIED' ) ;
#126 = PLANE ( 'NONE',  #124 ) ;
#127 = CARTESIAN_POINT ( 'NONE',  ( -7.500000000000000000, 0.000000000000000000, 1500.000000000000000 ) ) ;
#128 = EDGE_CURVE ( 'NONE', #81, #77, #18, .T. ) ;
#129 = CARTESIAN_POINT ( 'NONE',  ( -7.500000000000000000, 0.000000000000000000, 0.000000000000000000 ) ) ;
#130 = DIRECTION ( 'NONE',  ( 1.000000000000000000, 0.000000000000000000, -0.000000000000000000 ) ) ;
#131 = CARTESIAN_POINT ( 'NONE',  ( -7.500000000000000000, 0.000000000000000000, 1500.000000000000000 ) ) ;
#132 = DESIGN_CONTEXT ( 'detailed design', #17, 'design' ) ;
#133 = PERSON_AND_ORGANIZATION ( #107, #63 ) ;
#134 = SECURITY_CLASSIFICATION ( '', '', #136 ) ;
#135 = PERSON_AND_ORGANIZATION ( #107, #63 ) ;
#136 = SECURITY_CLASSIFICATION_LEVEL ( 'unclassified' ) ;
#137 = AXIS2_PLACEMENT_3D ( 'NONE', #11, #5, #109 ) ;
#138 = ORIENTED_EDGE ( 'NONE', *, *, #144, .F. ) ;
#139 = ADVANCED_FACE ( 'NONE', ( #70 ), #36, .T. ) ;
#140 = APPROVAL ( #1, 'UNSPECIFIED' ) ;
#141 = ORIENTED_EDGE ( 'NONE', *, *, #38, .T. ) ;
#142 = CIRCLE ( 'NONE', #8, 7.500000000000000000 ) ;
#143 = DIRECTION ( 'NONE',  ( -1.000000000000000000, 0.000000000000000000, 0.000000000000000000 ) ) ;
#144 = EDGE_CURVE ( 'NONE', #153, #164, #165, .T. ) ;
#145 = CARTESIAN_POINT ( 'NONE',  ( 7.500000000000000000, 9.184850993605147944E-16, 1500.000000000000000 ) ) ;
#146 = AXIS2_PLACEMENT_3D ( 'NONE', #118, #89, #49 ) ;
#147 = DATE_AND_TIME ( #40, #111 ) ;
#148 = COORDINATED_UNIVERSAL_TIME_OFFSET ( 5, 30, .AHEAD. ) ;
#149 = CC_DESIGN_PERSON_AND_ORGANIZATION_ASSIGNMENT ( #102, #58, ( #59 ) ) ;
#150 = COORDINATED_UNIVERSAL_TIME_OFFSET ( 5, 30, .AHEAD. ) ;
#151 = AXIS2_PLACEMENT_3D ( 'NONE', #112, #48, #46 ) ;
#152 = CALENDAR_DATE ( 2026, 24, 8 ) ;
#153 = VERTEX_POINT ( 'NONE', #94 ) ;
#154 = PRODUCT_DEFINITION_FORMATION_WITH_SPECIFIED_SOURCE ( 'ANY', '', #31, .NOT_KNOWN. ) ;
#155 = ADVANCED_BREP_SHAPE_REPRESENTATION ( 'Cable_Default_sldprt', ( #101, #146 ), #65 ) ;
#156 = PERSON_AND_ORGANIZATION_ROLE ( 'design_owner' ) ;
#157 = COORDINATED_UNIVERSAL_TIME_OFFSET ( 5, 30, .AHEAD. ) ;
#158 = ADVANCED_FACE ( 'NONE', ( #97 ), #99, .T. ) ;
#159 = DATE_TIME_ROLE ( 'classification_date' ) ;
#160 = EDGE_CURVE ( 'NONE', #77, #81, #80, .T. ) ;
#161 = AXIS2_PLACEMENT_3D ( 'NONE', #169, #168, #54 ) ;
#162 = CC_DESIGN_PERSON_AND_ORGANIZATION_ASSIGNMENT ( #173, #75, ( #154 ) ) ;
#163 = EDGE_CURVE ( 'NONE', #153, #77, #84, .T. ) ;
#164 = VERTEX_POINT ( 'NONE', #131 ) ;
#165 = CIRCLE ( 'NONE', #151, 7.500000000000000000 ) ;
#166 = DIRECTION ( 'NONE',  ( 1.000000000000000000, 0.000000000000000000, 0.000000000000000000 ) ) ;
#167 = ORIENTED_EDGE ( 'NONE', *, *, #160, .T. ) ;
#168 = DIRECTION ( 'NONE',  ( 0.000000000000000000, 0.000000000000000000, 1.000000000000000000 ) ) ;
#169 = CARTESIAN_POINT ( 'NONE',  ( 0.000000000000000000, 0.000000000000000000, 0.000000000000000000 ) ) ;
#170 = AXIS2_PLACEMENT_3D ( 'NONE', #110, #98, #130 ) ;
#171 = APPLICATION_PROTOCOL_DEFINITION ( 'international standard', 'config_control_design', 1994, #108 ) ;
#172 = APPROVAL_ROLE ( '' ) ;
#173 = PERSON_AND_ORGANIZATION ( #107, #63 ) ;
#174 = PERSON_AND_ORGANIZATION ( #107, #63 ) ;
#175 = ORIENTED_EDGE ( 'NONE', *, *, #163, .F. ) ;
ENDSEC;
END-ISO-10303-21;
