ISO-10303-21;
HEADER;
FILE_DESCRIPTION (( 'STEP AP203' ),
    '1' );
FILE_NAME ('Cable_100_long_sldprt.STEP',
    '2026-08-23T21:09:56',
    ( '' ),
    ( '' ),
    'SwSTEP 2.0',
    'SolidWorks 2020',
    '' );
FILE_SCHEMA (( 'CONFIG_CONTROL_DESIGN' ));
ENDSEC;

DATA;
#1 = AXIS2_PLACEMENT_3D ( 'NONE', #115, #168, #65 ) ;
#2 = ORIENTED_EDGE ( 'NONE', *, *, #28, .F. ) ;
#3 = APPLICATION_PROTOCOL_DEFINITION ( 'international standard', 'config_control_design', 1994, #54 ) ;
#4 = DIRECTION ( 'NONE',  ( 0.000000000000000000, 0.000000000000000000, 1.000000000000000000 ) ) ;
#5 = CARTESIAN_POINT ( 'NONE',  ( -7.500000000000000000, 0.000000000000000000, 2000.000000000000000 ) ) ;
#6 =( NAMED_UNIT ( * ) PLANE_ANGLE_UNIT ( ) SI_UNIT ( $, .RADIAN. ) );
#7 = DIRECTION ( 'NONE',  ( 1.000000000000000000, 0.000000000000000000, 0.000000000000000000 ) ) ;
#8 = PERSON_AND_ORGANIZATION ( #113, #89 ) ;
#9 = APPROVAL_PERSON_ORGANIZATION ( #13, #49, #163 ) ;
#10 = APPROVAL_DATE_TIME ( #136, #48 ) ;
#11 = PERSON_AND_ORGANIZATION_ROLE ( 'creator' ) ;
#12 = PERSON_AND_ORGANIZATION_ROLE ( 'classification_officer' ) ;
#13 = PERSON_AND_ORGANIZATION ( #113, #89 ) ;
#14 = VERTEX_POINT ( 'NONE', #110 ) ;
#15 = DIRECTION ( 'NONE',  ( -0.000000000000000000, -0.000000000000000000, -1.000000000000000000 ) ) ;
#16 = ADVANCED_FACE ( 'NONE', ( #17 ), #151, .T. ) ;
#17 = FACE_OUTER_BOUND ( 'NONE', #63, .T. ) ;
#18 = CC_DESIGN_APPROVAL ( #48, ( #37 ) ) ;
#19 = EDGE_LOOP ( 'NONE', ( #122, #60 ) ) ;
#20 = DIRECTION ( 'NONE',  ( 1.000000000000000000, 0.000000000000000000, -0.000000000000000000 ) ) ;
#21 = LINE ( 'NONE', #5, #108 ) ;
#22 = DIRECTION ( 'NONE',  ( 0.000000000000000000, 0.000000000000000000, 1.000000000000000000 ) ) ;
#23 = CIRCLE ( 'NONE', #99, 7.500000000000000000 ) ;
#24 = APPROVAL_STATUS ( 'not_yet_approved' ) ;
#25 = EDGE_CURVE ( 'NONE', #14, #138, #129, .T. ) ;
#26 = DIRECTION ( 'NONE',  ( 0.000000000000000000, 0.000000000000000000, 1.000000000000000000 ) ) ;
#27 = DIRECTION ( 'NONE',  ( 1.000000000000000000, 0.000000000000000000, 0.000000000000000000 ) ) ;
#28 = EDGE_CURVE ( 'NONE', #92, #40, #150, .T. ) ;
#29 = COORDINATED_UNIVERSAL_TIME_OFFSET ( 5, 30, .AHEAD. ) ;
#30 = AXIS2_PLACEMENT_3D ( 'NONE', #68, #116, #169 ) ;
#31 = APPLICATION_CONTEXT ( 'configuration controlled 3d designs of mechanical parts and assemblies' ) ;
#32 = CARTESIAN_POINT ( 'NONE',  ( 0.000000000000000000, 0.000000000000000000, 2000.000000000000000 ) ) ;
#33 = COORDINATED_UNIVERSAL_TIME_OFFSET ( 5, 30, .AHEAD. ) ;
#34 = PERSON_AND_ORGANIZATION ( #113, #89 ) ;
#35 = LOCAL_TIME ( 2, 39, 56.00000000000000000, #107 ) ;
#36 = CALENDAR_DATE ( 2026, 24, 8 ) ;
#37 = PRODUCT_DEFINITION ( 'UNKNOWN', '', #106, #117 ) ;
#38 = ORIENTED_EDGE ( 'NONE', *, *, #166, .F. ) ;
#39 = AXIS2_PLACEMENT_3D ( 'NONE', #132, #133, #7 ) ;
#40 = VERTEX_POINT ( 'NONE', #102 ) ;
#41 = CC_DESIGN_APPROVAL ( #93, ( #106 ) ) ;
#42 = AXIS2_PLACEMENT_3D ( 'NONE', #126, #22, #69 ) ;
#43 = FACE_OUTER_BOUND ( 'NONE', #19, .T. ) ;
#44 = APPROVAL_ROLE ( '' ) ;
#45 = AXIS2_PLACEMENT_3D ( 'NONE', #61, #15, #112 ) ;
#46 = PERSON_AND_ORGANIZATION ( #113, #89 ) ;
#47 = APPROVAL_STATUS ( 'not_yet_approved' ) ;
#48 = APPROVAL ( #24, 'UNSPECIFIED' ) ;
#49 = APPROVAL ( #47, 'UNSPECIFIED' ) ;
#50 = ORIENTED_EDGE ( 'NONE', *, *, #166, .T. ) ;
#51 = DIRECTION ( 'NONE',  ( -0.000000000000000000, -0.000000000000000000, -1.000000000000000000 ) ) ;
#52 = APPROVAL_PERSON_ORGANIZATION ( #134, #48, #87 ) ;
#53 =( NAMED_UNIT ( * ) SI_UNIT ( $, .STERADIAN. ) SOLID_ANGLE_UNIT ( ) );
#54 = APPLICATION_CONTEXT ( 'configuration controlled 3d designs of mechanical parts and assemblies' ) ;
#55 = CARTESIAN_POINT ( 'NONE',  ( 0.000000000000000000, 0.000000000000000000, 0.000000000000000000 ) ) ;
#56 = CALENDAR_DATE ( 2026, 24, 8 ) ;
#57 = DATE_AND_TIME ( #56, #78 ) ;
#58 = ADVANCED_FACE ( 'NONE', ( #171 ), #154, .T. ) ;
#59 = CC_DESIGN_PERSON_AND_ORGANIZATION_ASSIGNMENT ( #46, #160, ( #106 ) ) ;
#60 = ORIENTED_EDGE ( 'NONE', *, *, #152, .F. ) ;
#61 = CARTESIAN_POINT ( 'NONE',  ( 0.000000000000000000, 0.000000000000000000, 2000.000000000000000 ) ) ;
#62 = VECTOR ( 'NONE', #81, 1000.000000000000000 ) ;
#63 = EDGE_LOOP ( 'NONE', ( #139, #128, #124, #38 ) ) ;
#64 = ORIENTED_EDGE ( 'NONE', *, *, #101, .T. ) ;
#65 = DIRECTION ( 'NONE',  ( 1.000000000000000000, 0.000000000000000000, -0.000000000000000000 ) ) ;
#66 = CC_DESIGN_PERSON_AND_ORGANIZATION_ASSIGNMENT ( #34, #172, ( #125 ) ) ;
#67 = CARTESIAN_POINT ( 'NONE',  ( 7.500000000000000000, 9.184850993605147944E-16, 2000.000000000000000 ) ) ;
#68 = CARTESIAN_POINT ( 'NONE',  ( 0.000000000000000000, 0.000000000000000000, 2000.000000000000000 ) ) ;
#69 = DIRECTION ( 'NONE',  ( 1.000000000000000000, 0.000000000000000000, 0.000000000000000000 ) ) ;
#70 = EDGE_CURVE ( 'NONE', #40, #138, #85, .T. ) ;
#71 = APPROVAL_DATE_TIME ( #144, #93 ) ;
#72 = CARTESIAN_POINT ( 'NONE',  ( 0.000000000000000000, 0.000000000000000000, 0.000000000000000000 ) ) ;
#73 = CALENDAR_DATE ( 2026, 24, 8 ) ;
#74 = DATE_TIME_ROLE ( 'classification_date' ) ;
#75 = PERSON_AND_ORGANIZATION ( #113, #89 ) ;
#76 = CALENDAR_DATE ( 2026, 24, 8 ) ;
#77 = ORIENTED_EDGE ( 'NONE', *, *, #28, .T. ) ;
#78 = LOCAL_TIME ( 2, 39, 56.00000000000000000, #156 ) ;
#79 = CC_DESIGN_DATE_AND_TIME_ASSIGNMENT ( #119, #74, ( #111 ) ) ;
#80 = CARTESIAN_POINT ( 'NONE',  ( 7.500000000000000000, 9.184850993605147944E-16, 0.000000000000000000 ) ) ;
#81 = DIRECTION ( 'NONE',  ( -0.000000000000000000, -0.000000000000000000, -1.000000000000000000 ) ) ;
#82 = LOCAL_TIME ( 2, 39, 56.00000000000000000, #33 ) ;
#83 = PLANE ( 'NONE',  #1 ) ;
#84 = FACE_OUTER_BOUND ( 'NONE', #127, .T. ) ;
#85 = LINE ( 'NONE', #67, #62 ) ;
#86 = CALENDAR_DATE ( 2026, 24, 8 ) ;
#87 = APPROVAL_ROLE ( '' ) ;
#88 = DATE_AND_TIME ( #36, #162 ) ;
#89 = ORGANIZATION ( 'UNSPECIFIED', 'UNSPECIFIED', '' ) ;
#90 = SHAPE_DEFINITION_REPRESENTATION ( #141, #137 ) ;
#91 = APPROVAL_DATE_TIME ( #88, #49 ) ;
#92 = VERTEX_POINT ( 'NONE', #130 ) ;
#93 = APPROVAL ( #145, 'UNSPECIFIED' ) ;
#94 = ORIENTED_EDGE ( 'NONE', *, *, #25, .T. ) ;
#95 = ORIENTED_EDGE ( 'NONE', *, *, #70, .F. ) ;
#96 = DIRECTION ( 'NONE',  ( 0.000000000000000000, 0.000000000000000000, 1.000000000000000000 ) ) ;
#97 = CYLINDRICAL_SURFACE ( 'NONE', #30, 7.500000000000000000 ) ;
#98 = CC_DESIGN_APPROVAL ( #49, ( #111 ) ) ;
#99 = AXIS2_PLACEMENT_3D ( 'NONE', #55, #96, #103 ) ;
#100 = DIRECTION ( 'NONE',  ( 1.000000000000000000, 0.000000000000000000, 0.000000000000000000 ) ) ;
#101 = EDGE_CURVE ( 'NONE', #40, #92, #121, .T. ) ;
#102 = CARTESIAN_POINT ( 'NONE',  ( 7.500000000000000000, 9.184850993605147944E-16, 2000.000000000000000 ) ) ;
#103 = DIRECTION ( 'NONE',  ( 1.000000000000000000, 0.000000000000000000, 0.000000000000000000 ) ) ;
#104 = APPROVAL_PERSON_ORGANIZATION ( #105, #93, #44 ) ;
#105 = PERSON_AND_ORGANIZATION ( #113, #89 ) ;
#106 = PRODUCT_DEFINITION_FORMATION_WITH_SPECIFIED_SOURCE ( 'ANY', '', #125, .NOT_KNOWN. ) ;
#107 = COORDINATED_UNIVERSAL_TIME_OFFSET ( 5, 30, .AHEAD. ) ;
#108 = VECTOR ( 'NONE', #51, 1000.000000000000000 ) ;
#109 = MANIFOLD_SOLID_BREP ( 'Boss-Extrude1', #158 ) ;
#110 = CARTESIAN_POINT ( 'NONE',  ( -7.500000000000000000, 0.000000000000000000, 0.000000000000000000 ) ) ;
#111 = SECURITY_CLASSIFICATION ( '', '', #149 ) ;
#112 = DIRECTION ( 'NONE',  ( -1.000000000000000000, 0.000000000000000000, 0.000000000000000000 ) ) ;
#113 = PERSON ( 'UNSPECIFIED', 'UNSPECIFIED', 'UNSPECIFIED', ('UNSPECIFIED'), ('UNSPECIFIED'), ('UNSPECIFIED') ) ;
#114 = EDGE_LOOP ( 'NONE', ( #77, #64 ) ) ;
#115 = CARTESIAN_POINT ( 'NONE',  ( 0.000000000000000000, 0.000000000000000000, 0.000000000000000000 ) ) ;
#116 = DIRECTION ( 'NONE',  ( -0.000000000000000000, -0.000000000000000000, -1.000000000000000000 ) ) ;
#117 = DESIGN_CONTEXT ( 'detailed design', #31, 'design' ) ;
#118 = DATE_TIME_ROLE ( 'creation_date' ) ;
#119 = DATE_AND_TIME ( #76, #35 ) ;
#120 = PERSON_AND_ORGANIZATION ( #113, #89 ) ;
#121 = CIRCLE ( 'NONE', #39, 7.500000000000000000 ) ;
#122 = ORIENTED_EDGE ( 'NONE', *, *, #25, .F. ) ;
#123 = ADVANCED_FACE ( 'NONE', ( #43 ), #83, .F. ) ;
#124 = ORIENTED_EDGE ( 'NONE', *, *, #152, .T. ) ;
#125 = PRODUCT ( 'Cable_100_long_sldprt', 'Cable_100_long_sldprt', '', ( #135 ) ) ;
#126 = CARTESIAN_POINT ( 'NONE',  ( 0.000000000000000000, 0.000000000000000000, 0.000000000000000000 ) ) ;
#127 = EDGE_LOOP ( 'NONE', ( #95, #2, #50, #94 ) ) ;
#128 = ORIENTED_EDGE ( 'NONE', *, *, #70, .T. ) ;
#129 = CIRCLE ( 'NONE', #42, 7.500000000000000000 ) ;
#130 = CARTESIAN_POINT ( 'NONE',  ( -7.500000000000000000, 0.000000000000000000, 2000.000000000000000 ) ) ;
#131 = CC_DESIGN_DATE_AND_TIME_ASSIGNMENT ( #57, #118, ( #37 ) ) ;
#132 = CARTESIAN_POINT ( 'NONE',  ( 0.000000000000000000, 0.000000000000000000, 2000.000000000000000 ) ) ;
#133 = DIRECTION ( 'NONE',  ( 0.000000000000000000, 0.000000000000000000, 1.000000000000000000 ) ) ;
#134 = PERSON_AND_ORGANIZATION ( #113, #89 ) ;
#135 = MECHANICAL_CONTEXT ( 'NONE', #54, 'mechanical' ) ;
#136 = DATE_AND_TIME ( #73, #157 ) ;
#137 = ADVANCED_BREP_SHAPE_REPRESENTATION ( 'Cable_100_long_sldprt', ( #109, #155 ), #170 ) ;
#138 = VERTEX_POINT ( 'NONE', #80 ) ;
#139 = ORIENTED_EDGE ( 'NONE', *, *, #101, .F. ) ;
#140 = CC_DESIGN_SECURITY_CLASSIFICATION ( #111, ( #106 ) ) ;
#141 = PRODUCT_DEFINITION_SHAPE ( 'NONE', 'NONE',  #37 ) ;
#142 = CARTESIAN_POINT ( 'NONE',  ( 0.000000000000000000, 0.000000000000000000, 2000.000000000000000 ) ) ;
#143 = DIRECTION ( 'NONE',  ( 0.000000000000000000, 0.000000000000000000, 1.000000000000000000 ) ) ;
#144 = DATE_AND_TIME ( #86, #82 ) ;
#145 = APPROVAL_STATUS ( 'not_yet_approved' ) ;
#146 = COORDINATED_UNIVERSAL_TIME_OFFSET ( 5, 30, .AHEAD. ) ;
#147 = CC_DESIGN_PERSON_AND_ORGANIZATION_ASSIGNMENT ( #120, #174, ( #106 ) ) ;
#148 = AXIS2_PLACEMENT_3D ( 'NONE', #32, #143, #100 ) ;
#149 = SECURITY_CLASSIFICATION_LEVEL ( 'unclassified' ) ;
#150 = CIRCLE ( 'NONE', #148, 7.500000000000000000 ) ;
#151 = CYLINDRICAL_SURFACE ( 'NONE', #45, 7.500000000000000000 ) ;
#152 = EDGE_CURVE ( 'NONE', #138, #14, #23, .T. ) ;
#153 =( LENGTH_UNIT ( ) NAMED_UNIT ( * ) SI_UNIT ( .MILLI., .METRE. ) );
#154 = PLANE ( 'NONE',  #173 ) ;
#155 = AXIS2_PLACEMENT_3D ( 'NONE', #72, #26, #27 ) ;
#156 = COORDINATED_UNIVERSAL_TIME_OFFSET ( 5, 30, .AHEAD. ) ;
#157 = LOCAL_TIME ( 2, 39, 56.00000000000000000, #146 ) ;
#158 = CLOSED_SHELL ( 'NONE', ( #16, #164, #58, #123 ) ) ;
#159 = APPLICATION_PROTOCOL_DEFINITION ( 'international standard', 'config_control_design', 1994, #31 ) ;
#160 = PERSON_AND_ORGANIZATION_ROLE ( 'design_supplier' ) ;
#161 = CC_DESIGN_PERSON_AND_ORGANIZATION_ASSIGNMENT ( #8, #11, ( #37 ) ) ;
#162 = LOCAL_TIME ( 2, 39, 56.00000000000000000, #29 ) ;
#163 = APPROVAL_ROLE ( '' ) ;
#164 = ADVANCED_FACE ( 'NONE', ( #84 ), #97, .T. ) ;
#165 = PRODUCT_RELATED_PRODUCT_CATEGORY ( 'detail', '', ( #125 ) ) ;
#166 = EDGE_CURVE ( 'NONE', #92, #14, #21, .T. ) ;
#167 = CC_DESIGN_PERSON_AND_ORGANIZATION_ASSIGNMENT ( #75, #12, ( #111 ) ) ;
#168 = DIRECTION ( 'NONE',  ( 0.000000000000000000, 0.000000000000000000, 1.000000000000000000 ) ) ;
#169 = DIRECTION ( 'NONE',  ( -1.000000000000000000, 0.000000000000000000, 0.000000000000000000 ) ) ;
#170 =( GEOMETRIC_REPRESENTATION_CONTEXT ( 3 ) GLOBAL_UNCERTAINTY_ASSIGNED_CONTEXT ( ( #175 ) ) GLOBAL_UNIT_ASSIGNED_CONTEXT ( ( #153, #6, #53 ) ) REPRESENTATION_CONTEXT ( 'NONE', 'WORKASPACE' ) );
#171 = FACE_OUTER_BOUND ( 'NONE', #114, .T. ) ;
#172 = PERSON_AND_ORGANIZATION_ROLE ( 'design_owner' ) ;
#173 = AXIS2_PLACEMENT_3D ( 'NONE', #142, #4, #20 ) ;
#174 = PERSON_AND_ORGANIZATION_ROLE ( 'creator' ) ;
#175 = UNCERTAINTY_MEASURE_WITH_UNIT (LENGTH_MEASURE( 1.000000000000000082E-05 ), #153, 'distance_accuracy_value', 'NONE');
ENDSEC;
END-ISO-10303-21;
