ISO-10303-21;
HEADER;
FILE_DESCRIPTION (( 'STEP AP203' ),
    '1' );
FILE_NAME ('Cable_50_long_sldprt.STEP',
    '2026-08-23T21:09:58',
    ( '' ),
    ( '' ),
    'SwSTEP 2.0',
    'SolidWorks 2020',
    '' );
FILE_SCHEMA (( 'CONFIG_CONTROL_DESIGN' ));
ENDSEC;

DATA;
#1 = DIRECTION ( 'NONE',  ( 0.000000000000000000, 0.000000000000000000, 1.000000000000000000 ) ) ;
#2 = PERSON_AND_ORGANIZATION ( #60, #133 ) ;
#3 = CLOSED_SHELL ( 'NONE', ( #31, #137, #140, #110 ) ) ;
#4 = SECURITY_CLASSIFICATION ( '', '', #16 ) ;
#5 = DIRECTION ( 'NONE',  ( 1.000000000000000000, 0.000000000000000000, 0.000000000000000000 ) ) ;
#6 = DIRECTION ( 'NONE',  ( -0.000000000000000000, -0.000000000000000000, -1.000000000000000000 ) ) ;
#7 = ORIENTED_EDGE ( 'NONE', *, *, #77, .T. ) ;
#8 = PRODUCT_DEFINITION_FORMATION_WITH_SPECIFIED_SOURCE ( 'ANY', '', #141, .NOT_KNOWN. ) ;
#9 = FACE_OUTER_BOUND ( 'NONE', #46, .T. ) ;
#10 = APPROVAL_STATUS ( 'not_yet_approved' ) ;
#11 = PERSON_AND_ORGANIZATION ( #60, #133 ) ;
#12 = DATE_TIME_ROLE ( 'creation_date' ) ;
#13 = PERSON_AND_ORGANIZATION_ROLE ( 'creator' ) ;
#14 = PERSON_AND_ORGANIZATION ( #60, #133 ) ;
#15 = LOCAL_TIME ( 2, 39, 58.00000000000000000, #67 ) ;
#16 = SECURITY_CLASSIFICATION_LEVEL ( 'unclassified' ) ;
#17 = CC_DESIGN_PERSON_AND_ORGANIZATION_ASSIGNMENT ( #11, #151, ( #141 ) ) ;
#18 = CIRCLE ( 'NONE', #99, 7.500000000000000000 ) ;
#19 = LOCAL_TIME ( 2, 39, 58.00000000000000000, #156 ) ;
#20 = DIRECTION ( 'NONE',  ( -0.000000000000000000, -0.000000000000000000, -1.000000000000000000 ) ) ;
#21 = DIRECTION ( 'NONE',  ( 0.000000000000000000, 0.000000000000000000, 1.000000000000000000 ) ) ;
#22 = CARTESIAN_POINT ( 'NONE',  ( 0.000000000000000000, 0.000000000000000000, 500.0000000000000000 ) ) ;
#23 = PRODUCT_RELATED_PRODUCT_CATEGORY ( 'detail', '', ( #141 ) ) ;
#24 = VERTEX_POINT ( 'NONE', #47 ) ;
#25 = CIRCLE ( 'NONE', #58, 7.500000000000000000 ) ;
#26 = PERSON_AND_ORGANIZATION ( #60, #133 ) ;
#27 = CARTESIAN_POINT ( 'NONE',  ( 7.500000000000000000, 9.184850993605147944E-16, 500.0000000000000000 ) ) ;
#28 = CARTESIAN_POINT ( 'NONE',  ( 0.000000000000000000, 0.000000000000000000, 500.0000000000000000 ) ) ;
#29 = LOCAL_TIME ( 2, 39, 58.00000000000000000, #42 ) ;
#30 = APPROVAL_DATE_TIME ( #149, #160 ) ;
#31 = ADVANCED_FACE ( 'NONE', ( #143 ), #62, .T. ) ;
#32 = COORDINATED_UNIVERSAL_TIME_OFFSET ( 5, 30, .AHEAD. ) ;
#33 = CALENDAR_DATE ( 2026, 24, 8 ) ;
#34 = DIRECTION ( 'NONE',  ( 0.000000000000000000, 0.000000000000000000, 1.000000000000000000 ) ) ;
#35 = AXIS2_PLACEMENT_3D ( 'NONE', #69, #175, #109 ) ;
#36 = ORIENTED_EDGE ( 'NONE', *, *, #48, .F. ) ;
#37 = DIRECTION ( 'NONE',  ( 0.000000000000000000, 0.000000000000000000, 1.000000000000000000 ) ) ;
#38 = UNCERTAINTY_MEASURE_WITH_UNIT (LENGTH_MEASURE( 1.000000000000000082E-05 ), #146, 'distance_accuracy_value', 'NONE');
#39 = AXIS2_PLACEMENT_3D ( 'NONE', #88, #21, #5 ) ;
#40 = DATE_AND_TIME ( #106, #19 ) ;
#41 = CARTESIAN_POINT ( 'NONE',  ( 0.000000000000000000, 0.000000000000000000, 500.0000000000000000 ) ) ;
#42 = COORDINATED_UNIVERSAL_TIME_OFFSET ( 5, 30, .AHEAD. ) ;
#43 = CARTESIAN_POINT ( 'NONE',  ( 0.000000000000000000, 0.000000000000000000, 0.000000000000000000 ) ) ;
#44 = APPROVAL_STATUS ( 'not_yet_approved' ) ;
#45 = APPROVAL_PERSON_ORGANIZATION ( #26, #130, #119 ) ;
#46 = EDGE_LOOP ( 'NONE', ( #36, #145, #74, #153 ) ) ;
#47 = CARTESIAN_POINT ( 'NONE',  ( 7.500000000000000000, 9.184850993605147944E-16, 0.000000000000000000 ) ) ;
#48 = EDGE_CURVE ( 'NONE', #168, #24, #61, .T. ) ;
#49 = VERTEX_POINT ( 'NONE', #128 ) ;
#50 = DESIGN_CONTEXT ( 'detailed design', #161, 'design' ) ;
#51 = AXIS2_PLACEMENT_3D ( 'NONE', #43, #37, #52 ) ;
#52 = DIRECTION ( 'NONE',  ( 1.000000000000000000, 0.000000000000000000, -0.000000000000000000 ) ) ;
#53 = PERSON_AND_ORGANIZATION ( #60, #133 ) ;
#54 = CC_DESIGN_DATE_AND_TIME_ASSIGNMENT ( #132, #12, ( #148 ) ) ;
#55 = APPROVAL_ROLE ( '' ) ;
#56 = CC_DESIGN_PERSON_AND_ORGANIZATION_ASSIGNMENT ( #135, #13, ( #8 ) ) ;
#57 = PLANE ( 'NONE',  #51 ) ;
#58 = AXIS2_PLACEMENT_3D ( 'NONE', #64, #1, #118 ) ;
#59 = ORIENTED_EDGE ( 'NONE', *, *, #144, .T. ) ;
#60 = PERSON ( 'UNSPECIFIED', 'UNSPECIFIED', 'UNSPECIFIED', ('UNSPECIFIED'), ('UNSPECIFIED'), ('UNSPECIFIED') ) ;
#61 = LINE ( 'NONE', #152, #112 ) ;
#62 = CYLINDRICAL_SURFACE ( 'NONE', #173, 7.500000000000000000 ) ;
#63 = PLANE ( 'NONE',  #114 ) ;
#64 = CARTESIAN_POINT ( 'NONE',  ( 0.000000000000000000, 0.000000000000000000, 0.000000000000000000 ) ) ;
#65 = VECTOR ( 'NONE', #157, 1000.000000000000000 ) ;
#66 = DIRECTION ( 'NONE',  ( -0.000000000000000000, -0.000000000000000000, -1.000000000000000000 ) ) ;
#67 = COORDINATED_UNIVERSAL_TIME_OFFSET ( 5, 30, .AHEAD. ) ;
#68 = APPLICATION_PROTOCOL_DEFINITION ( 'international standard', 'config_control_design', 1994, #134 ) ;
#69 = CARTESIAN_POINT ( 'NONE',  ( 0.000000000000000000, 0.000000000000000000, 0.000000000000000000 ) ) ;
#70 = AXIS2_PLACEMENT_3D ( 'NONE', #28, #66, #136 ) ;
#71 = ORIENTED_EDGE ( 'NONE', *, *, #165, .F. ) ;
#72 = LOCAL_TIME ( 2, 39, 58.00000000000000000, #32 ) ;
#73 = EDGE_LOOP ( 'NONE', ( #91, #98 ) ) ;
#74 = ORIENTED_EDGE ( 'NONE', *, *, #165, .T. ) ;
#75 = CC_DESIGN_PERSON_AND_ORGANIZATION_ASSIGNMENT ( #2, #138, ( #8 ) ) ;
#76 = FACE_OUTER_BOUND ( 'NONE', #169, .T. ) ;
#77 = EDGE_CURVE ( 'NONE', #111, #168, #18, .T. ) ;
#78 = DIRECTION ( 'NONE',  ( 0.000000000000000000, 0.000000000000000000, 1.000000000000000000 ) ) ;
#79 = CALENDAR_DATE ( 2026, 24, 8 ) ;
#80 = LINE ( 'NONE', #104, #65 ) ;
#81 = PERSON_AND_ORGANIZATION ( #60, #133 ) ;
#82 = CYLINDRICAL_SURFACE ( 'NONE', #70, 7.500000000000000000 ) ;
#83 = CC_DESIGN_PERSON_AND_ORGANIZATION_ASSIGNMENT ( #53, #131, ( #4 ) ) ;
#84 = DATE_AND_TIME ( #79, #72 ) ;
#85 = CC_DESIGN_PERSON_AND_ORGANIZATION_ASSIGNMENT ( #81, #159, ( #148 ) ) ;
#86 = CIRCLE ( 'NONE', #125, 7.500000000000000000 ) ;
#87 = ORIENTED_EDGE ( 'NONE', *, *, #48, .T. ) ;
#88 = CARTESIAN_POINT ( 'NONE',  ( 0.000000000000000000, 0.000000000000000000, 500.0000000000000000 ) ) ;
#89 = DIRECTION ( 'NONE',  ( 1.000000000000000000, 0.000000000000000000, 0.000000000000000000 ) ) ;
#90 =( GEOMETRIC_REPRESENTATION_CONTEXT ( 3 ) GLOBAL_UNCERTAINTY_ASSIGNED_CONTEXT ( ( #38 ) ) GLOBAL_UNIT_ASSIGNED_CONTEXT ( ( #146, #103, #167 ) ) REPRESENTATION_CONTEXT ( 'NONE', 'WORKASPACE' ) );
#91 = ORIENTED_EDGE ( 'NONE', *, *, #170, .F. ) ;
#92 = DIRECTION ( 'NONE',  ( 1.000000000000000000, 0.000000000000000000, -0.000000000000000000 ) ) ;
#93 = CALENDAR_DATE ( 2026, 24, 8 ) ;
#94 = CALENDAR_DATE ( 2026, 24, 8 ) ;
#95 = APPLICATION_PROTOCOL_DEFINITION ( 'international standard', 'config_control_design', 1994, #161 ) ;
#96 = CIRCLE ( 'NONE', #39, 7.500000000000000000 ) ;
#97 = EDGE_CURVE ( 'NONE', #168, #111, #96, .T. ) ;
#98 = ORIENTED_EDGE ( 'NONE', *, *, #144, .F. ) ;
#99 = AXIS2_PLACEMENT_3D ( 'NONE', #116, #34, #89 ) ;
#100 = DIRECTION ( 'NONE',  ( -1.000000000000000000, 0.000000000000000000, 0.000000000000000000 ) ) ;
#101 = ORIENTED_EDGE ( 'NONE', *, *, #97, .T. ) ;
#102 = APPROVAL_PERSON_ORGANIZATION ( #122, #160, #55 ) ;
#103 =( NAMED_UNIT ( * ) PLANE_ANGLE_UNIT ( ) SI_UNIT ( $, .RADIAN. ) );
#104 = CARTESIAN_POINT ( 'NONE',  ( -7.500000000000000000, 0.000000000000000000, 500.0000000000000000 ) ) ;
#105 = APPROVAL_DATE_TIME ( #84, #158 ) ;
#106 = CALENDAR_DATE ( 2026, 24, 8 ) ;
#107 = CARTESIAN_POINT ( 'NONE',  ( 0.000000000000000000, 0.000000000000000000, 0.000000000000000000 ) ) ;
#108 = APPROVAL_PERSON_ORGANIZATION ( #14, #158, #120 ) ;
#109 = DIRECTION ( 'NONE',  ( 1.000000000000000000, 0.000000000000000000, 0.000000000000000000 ) ) ;
#110 = ADVANCED_FACE ( 'NONE', ( #113 ), #57, .F. ) ;
#111 = VERTEX_POINT ( 'NONE', #129 ) ;
#112 = VECTOR ( 'NONE', #20, 1000.000000000000000 ) ;
#113 = FACE_OUTER_BOUND ( 'NONE', #73, .T. ) ;
#114 = AXIS2_PLACEMENT_3D ( 'NONE', #41, #123, #92 ) ;
#115 = CC_DESIGN_SECURITY_CLASSIFICATION ( #4, ( #8 ) ) ;
#116 = CARTESIAN_POINT ( 'NONE',  ( 0.000000000000000000, 0.000000000000000000, 500.0000000000000000 ) ) ;
#117 = DATE_AND_TIME ( #33, #142 ) ;
#118 = DIRECTION ( 'NONE',  ( 1.000000000000000000, 0.000000000000000000, 0.000000000000000000 ) ) ;
#119 = APPROVAL_ROLE ( '' ) ;
#120 = APPROVAL_ROLE ( '' ) ;
#121 = CC_DESIGN_APPROVAL ( #130, ( #4 ) ) ;
#122 = PERSON_AND_ORGANIZATION ( #60, #133 ) ;
#123 = DIRECTION ( 'NONE',  ( 0.000000000000000000, 0.000000000000000000, 1.000000000000000000 ) ) ;
#124 = MECHANICAL_CONTEXT ( 'NONE', #134, 'mechanical' ) ;
#125 = AXIS2_PLACEMENT_3D ( 'NONE', #107, #78, #126 ) ;
#126 = DIRECTION ( 'NONE',  ( 1.000000000000000000, 0.000000000000000000, 0.000000000000000000 ) ) ;
#127 = CC_DESIGN_DATE_AND_TIME_ASSIGNMENT ( #40, #147, ( #4 ) ) ;
#128 = CARTESIAN_POINT ( 'NONE',  ( -7.500000000000000000, 0.000000000000000000, 0.000000000000000000 ) ) ;
#129 = CARTESIAN_POINT ( 'NONE',  ( -7.500000000000000000, 0.000000000000000000, 500.0000000000000000 ) ) ;
#130 = APPROVAL ( #10, 'UNSPECIFIED' ) ;
#131 = PERSON_AND_ORGANIZATION_ROLE ( 'classification_officer' ) ;
#132 = DATE_AND_TIME ( #93, #29 ) ;
#133 = ORGANIZATION ( 'UNSPECIFIED', 'UNSPECIFIED', '' ) ;
#134 = APPLICATION_CONTEXT ( 'configuration controlled 3d designs of mechanical parts and assemblies' ) ;
#135 = PERSON_AND_ORGANIZATION ( #60, #133 ) ;
#136 = DIRECTION ( 'NONE',  ( -1.000000000000000000, 0.000000000000000000, 0.000000000000000000 ) ) ;
#137 = ADVANCED_FACE ( 'NONE', ( #9 ), #82, .T. ) ;
#138 = PERSON_AND_ORGANIZATION_ROLE ( 'design_supplier' ) ;
#139 = ORIENTED_EDGE ( 'NONE', *, *, #97, .F. ) ;
#140 = ADVANCED_FACE ( 'NONE', ( #76 ), #63, .T. ) ;
#141 = PRODUCT ( 'Cable_50_long_sldprt', 'Cable_50_long_sldprt', '', ( #124 ) ) ;
#142 = LOCAL_TIME ( 2, 39, 58.00000000000000000, #172 ) ;
#143 = FACE_OUTER_BOUND ( 'NONE', #155, .T. ) ;
#144 = EDGE_CURVE ( 'NONE', #24, #49, #25, .T. ) ;
#145 = ORIENTED_EDGE ( 'NONE', *, *, #77, .F. ) ;
#146 =( LENGTH_UNIT ( ) NAMED_UNIT ( * ) SI_UNIT ( .MILLI., .METRE. ) );
#147 = DATE_TIME_ROLE ( 'classification_date' ) ;
#148 = PRODUCT_DEFINITION ( 'UNKNOWN', '', #8, #50 ) ;
#149 = DATE_AND_TIME ( #94, #15 ) ;
#150 = CC_DESIGN_APPROVAL ( #160, ( #8 ) ) ;
#151 = PERSON_AND_ORGANIZATION_ROLE ( 'design_owner' ) ;
#152 = CARTESIAN_POINT ( 'NONE',  ( 7.500000000000000000, 9.184850993605147944E-16, 500.0000000000000000 ) ) ;
#153 = ORIENTED_EDGE ( 'NONE', *, *, #170, .T. ) ;
#154 = CC_DESIGN_APPROVAL ( #158, ( #148 ) ) ;
#155 = EDGE_LOOP ( 'NONE', ( #139, #87, #59, #71 ) ) ;
#156 = COORDINATED_UNIVERSAL_TIME_OFFSET ( 5, 30, .AHEAD. ) ;
#157 = DIRECTION ( 'NONE',  ( -0.000000000000000000, -0.000000000000000000, -1.000000000000000000 ) ) ;
#158 = APPROVAL ( #163, 'UNSPECIFIED' ) ;
#159 = PERSON_AND_ORGANIZATION_ROLE ( 'creator' ) ;
#160 = APPROVAL ( #44, 'UNSPECIFIED' ) ;
#161 = APPLICATION_CONTEXT ( 'configuration controlled 3d designs of mechanical parts and assemblies' ) ;
#162 = PRODUCT_DEFINITION_SHAPE ( 'NONE', 'NONE',  #148 ) ;
#163 = APPROVAL_STATUS ( 'not_yet_approved' ) ;
#164 = APPROVAL_DATE_TIME ( #117, #130 ) ;
#165 = EDGE_CURVE ( 'NONE', #111, #49, #80, .T. ) ;
#166 = MANIFOLD_SOLID_BREP ( 'Boss-Extrude1', #3 ) ;
#167 =( NAMED_UNIT ( * ) SI_UNIT ( $, .STERADIAN. ) SOLID_ANGLE_UNIT ( ) );
#168 = VERTEX_POINT ( 'NONE', #27 ) ;
#169 = EDGE_LOOP ( 'NONE', ( #7, #101 ) ) ;
#170 = EDGE_CURVE ( 'NONE', #49, #24, #86, .T. ) ;
#171 = SHAPE_DEFINITION_REPRESENTATION ( #162, #174 ) ;
#172 = COORDINATED_UNIVERSAL_TIME_OFFSET ( 5, 30, .AHEAD. ) ;
#173 = AXIS2_PLACEMENT_3D ( 'NONE', #22, #6, #100 ) ;
#174 = ADVANCED_BREP_SHAPE_REPRESENTATION ( 'Cable_50_long_sldprt', ( #166, #35 ), #90 ) ;
#175 = DIRECTION ( 'NONE',  ( 0.000000000000000000, 0.000000000000000000, 1.000000000000000000 ) ) ;
ENDSEC;
END-ISO-10303-21;
