ISO-10303-21;
HEADER;
FILE_DESCRIPTION (( 'STEP AP203' ),
    '1' );
FILE_NAME ('Cameraside1_Default_sldprt.STEP',
    '2026-08-23T21:10:01',
    ( '' ),
    ( '' ),
    'SwSTEP 2.0',
    'SolidWorks 2020',
    '' );
FILE_SCHEMA (( 'CONFIG_CONTROL_DESIGN' ));
ENDSEC;

DATA;
#1 = DATE_TIME_ROLE ( 'creation_date' ) ;
#2 = CALENDAR_DATE ( 2026, 24, 8 ) ;
#3 = LOCAL_TIME ( 2, 40, 1.000000000000000000, #76 ) ;
#4 = CC_DESIGN_PERSON_AND_ORGANIZATION_ASSIGNMENT ( #109, #91, ( #203 ) ) ;
#5 = VERTEX_POINT ( 'NONE', #26 ) ;
#6 = ORIENTED_EDGE ( 'NONE', *, *, #220, .F. ) ;
#7 = DIRECTION ( 'NONE',  ( -0.000000000000000000, -0.000000000000000000, -1.000000000000000000 ) ) ;
#8 = CC_DESIGN_APPROVAL ( #90, ( #154 ) ) ;
#9 = PLANE ( 'NONE',  #205 ) ;
#10 = ORIENTED_EDGE ( 'NONE', *, *, #175, .T. ) ;
#11 = ADVANCED_FACE ( 'NONE', ( #27 ), #132, .F. ) ;
#12 = CARTESIAN_POINT ( 'NONE',  ( 5.000000000000000000, 8.999999999999992895, 5.000000000000000000 ) ) ;
#13 =( NAMED_UNIT ( * ) PLANE_ANGLE_UNIT ( ) SI_UNIT ( $, .RADIAN. ) );
#14 = DIRECTION ( 'NONE',  ( 1.000000000000000000, 0.000000000000000000, 0.000000000000000000 ) ) ;
#15 = CARTESIAN_POINT ( 'NONE',  ( 5.000000000000000000, 8.999999999999992895, 5.000000000000000000 ) ) ;
#16 = LINE ( 'NONE', #124, #164 ) ;
#17 = DIRECTION ( 'NONE',  ( -0.000000000000000000, 0.000000000000000000, 1.000000000000000000 ) ) ;
#18 = PERSON_AND_ORGANIZATION_ROLE ( 'creator' ) ;
#19 = EDGE_CURVE ( 'NONE', #219, #141, #183, .T. ) ;
#20 = ORIENTED_EDGE ( 'NONE', *, *, #79, .F. ) ;
#21 = PRODUCT_RELATED_PRODUCT_CATEGORY ( 'detail', '', ( #203 ) ) ;
#22 = PERSON_AND_ORGANIZATION ( #127, #178 ) ;
#23 = FACE_OUTER_BOUND ( 'NONE', #160, .T. ) ;
#24 = LINE ( 'NONE', #231, #32 ) ;
#25 = EDGE_CURVE ( 'NONE', #60, #159, #188, .T. ) ;
#26 = CARTESIAN_POINT ( 'NONE',  ( -4.999999999999993783, 8.999999999999992895, 0.000000000000000000 ) ) ;
#27 = FACE_OUTER_BOUND ( 'NONE', #185, .T. ) ;
#28 = CARTESIAN_POINT ( 'NONE',  ( -4.999999999999993783, 8.999999999999992895, 0.000000000000000000 ) ) ;
#29 = ADVANCED_BREP_SHAPE_REPRESENTATION ( 'Cameraside1_Default_sldprt', ( #68, #52 ), #140 ) ;
#30 = PLANE ( 'NONE',  #66 ) ;
#31 = SECURITY_CLASSIFICATION_LEVEL ( 'unclassified' ) ;
#32 = VECTOR ( 'NONE', #121, 1000.000000000000000 ) ;
#33 = CARTESIAN_POINT ( 'NONE',  ( 0.000000000000000000, 0.000000000000000000, 0.000000000000000000 ) ) ;
#34 = MECHANICAL_CONTEXT ( 'NONE', #202, 'mechanical' ) ;
#35 = EDGE_CURVE ( 'NONE', #141, #60, #189, .T. ) ;
#36 = APPROVAL_STATUS ( 'not_yet_approved' ) ;
#37 = VECTOR ( 'NONE', #64, 1000.000000000000000 ) ;
#38 = LOCAL_TIME ( 2, 40, 1.000000000000000000, #184 ) ;
#39 = CC_DESIGN_PERSON_AND_ORGANIZATION_ASSIGNMENT ( #192, #18, ( #176 ) ) ;
#40 = LINE ( 'NONE', #116, #133 ) ;
#41 = DATE_TIME_ROLE ( 'classification_date' ) ;
#42 = AXIS2_PLACEMENT_3D ( 'NONE', #12, #235, #233 ) ;
#43 = PLANE ( 'NONE',  #232 ) ;
#44 = LINE ( 'NONE', #120, #88 ) ;
#45 = VECTOR ( 'NONE', #100, 1000.000000000000000 ) ;
#46 = PRODUCT_DEFINITION_FORMATION_WITH_SPECIFIED_SOURCE ( 'ANY', '', #203, .NOT_KNOWN. ) ;
#47 = CARTESIAN_POINT ( 'NONE',  ( 0.000000000000000000, 0.000000000000000000, 5.000000000000000000 ) ) ;
#48 = CARTESIAN_POINT ( 'NONE',  ( 5.000000000000000888, -9.000000000000005329, 5.000000000000000000 ) ) ;
#49 = ORIENTED_EDGE ( 'NONE', *, *, #72, .F. ) ;
#50 = COORDINATED_UNIVERSAL_TIME_OFFSET ( 5, 30, .AHEAD. ) ;
#51 = PERSON_AND_ORGANIZATION ( #127, #178 ) ;
#52 = AXIS2_PLACEMENT_3D ( 'NONE', #126, #106, #167 ) ;
#53 = PERSON_AND_ORGANIZATION ( #127, #178 ) ;
#54 = DATE_AND_TIME ( #2, #3 ) ;
#55 = ADVANCED_FACE ( 'NONE', ( #148 ), #147, .T. ) ;
#56 = VECTOR ( 'NONE', #70, 1000.000000000000000 ) ;
#57 = ORIENTED_EDGE ( 'NONE', *, *, #94, .F. ) ;
#58 = FACE_OUTER_BOUND ( 'NONE', #114, .T. ) ;
#59 = ORIENTED_EDGE ( 'NONE', *, *, #194, .T. ) ;
#60 = VERTEX_POINT ( 'NONE', #83 ) ;
#61 = DIRECTION ( 'NONE',  ( 0.000000000000000000, 1.000000000000000000, 0.000000000000000000 ) ) ;
#62 = CC_DESIGN_DATE_AND_TIME_ASSIGNMENT ( #230, #41, ( #154 ) ) ;
#63 = VERTEX_POINT ( 'NONE', #87 ) ;
#64 = DIRECTION ( 'NONE',  ( 0.000000000000000000, -1.000000000000000000, 0.000000000000000000 ) ) ;
#65 = DIRECTION ( 'NONE',  ( -1.000000000000000000, -0.000000000000000000, -0.000000000000000000 ) ) ;
#66 = AXIS2_PLACEMENT_3D ( 'NONE', #33, #77, #181 ) ;
#67 = CARTESIAN_POINT ( 'NONE',  ( -4.999999999999993783, -9.000000000000005329, 0.000000000000000000 ) ) ;
#68 = MANIFOLD_SOLID_BREP ( 'Boss-Extrude1', #104 ) ;
#69 = DIRECTION ( 'NONE',  ( 1.000000000000000000, 0.000000000000000000, 0.000000000000000000 ) ) ;
#70 = DIRECTION ( 'NONE',  ( -1.000000000000000000, -0.000000000000000000, -0.000000000000000000 ) ) ;
#71 = CALENDAR_DATE ( 2026, 24, 8 ) ;
#72 = EDGE_CURVE ( 'NONE', #60, #5, #125, .T. ) ;
#73 = VECTOR ( 'NONE', #234, 1000.000000000000000 ) ;
#74 = EDGE_CURVE ( 'NONE', #5, #63, #229, .T. ) ;
#75 = APPROVAL_ROLE ( '' ) ;
#76 = COORDINATED_UNIVERSAL_TIME_OFFSET ( 5, 30, .AHEAD. ) ;
#77 = DIRECTION ( 'NONE',  ( -0.000000000000000000, 0.000000000000000000, 1.000000000000000000 ) ) ;
#78 = ORIENTED_EDGE ( 'NONE', *, *, #35, .F. ) ;
#79 = EDGE_CURVE ( 'NONE', #219, #96, #165, .T. ) ;
#80 = VECTOR ( 'NONE', #65, 1000.000000000000000 ) ;
#81 = CARTESIAN_POINT ( 'NONE',  ( -4.999999999999993783, 8.999999999999992895, 5.000000000000000000 ) ) ;
#82 = APPROVAL ( #36, 'UNSPECIFIED' ) ;
#83 = CARTESIAN_POINT ( 'NONE',  ( -4.999999999999993783, 8.999999999999992895, 5.000000000000000000 ) ) ;
#84 =( LENGTH_UNIT ( ) NAMED_UNIT ( * ) SI_UNIT ( .MILLI., .METRE. ) );
#85 = DESIGN_CONTEXT ( 'detailed design', #92, 'design' ) ;
#86 = CARTESIAN_POINT ( 'NONE',  ( -4.999999999999993783, 8.999999999999992895, 5.000000000000000000 ) ) ;
#87 = CARTESIAN_POINT ( 'NONE',  ( -4.999999999999993783, -9.000000000000005329, 0.000000000000000000 ) ) ;
#88 = VECTOR ( 'NONE', #206, 1000.000000000000000 ) ;
#89 = COORDINATED_UNIVERSAL_TIME_OFFSET ( 5, 30, .AHEAD. ) ;
#90 = APPROVAL ( #224, 'UNSPECIFIED' ) ;
#91 = PERSON_AND_ORGANIZATION_ROLE ( 'design_owner' ) ;
#92 = APPLICATION_CONTEXT ( 'configuration controlled 3d designs of mechanical parts and assemblies' ) ;
#93 = APPROVAL_DATE_TIME ( #111, #82 ) ;
#94 = EDGE_CURVE ( 'NONE', #63, #96, #166, .T. ) ;
#95 = AXIS2_PLACEMENT_3D ( 'NONE', #182, #212, #198 ) ;
#96 = VERTEX_POINT ( 'NONE', #209 ) ;
#97 = EDGE_CURVE ( 'NONE', #159, #219, #44, .T. ) ;
#98 = CC_DESIGN_APPROVAL ( #82, ( #176 ) ) ;
#99 = CARTESIAN_POINT ( 'NONE',  ( 5.000000000000000000, 8.999999999999992895, 0.000000000000000000 ) ) ;
#100 = DIRECTION ( 'NONE',  ( -4.818676322157798854E-17, 1.000000000000000000, -0.000000000000000000 ) ) ;
#101 = ORIENTED_EDGE ( 'NONE', *, *, #79, .T. ) ;
#102 = ADVANCED_FACE ( 'NONE', ( #23 ), #30, .F. ) ;
#103 = ORIENTED_EDGE ( 'NONE', *, *, #35, .T. ) ;
#104 = CLOSED_SHELL ( 'NONE', ( #11, #115, #149, #119, #55, #102 ) ) ;
#105 = APPROVAL ( #153, 'UNSPECIFIED' ) ;
#106 = DIRECTION ( 'NONE',  ( 0.000000000000000000, 0.000000000000000000, 1.000000000000000000 ) ) ;
#107 = VERTEX_POINT ( 'NONE', #99 ) ;
#108 = APPROVAL_PERSON_ORGANIZATION ( #22, #90, #113 ) ;
#109 = PERSON_AND_ORGANIZATION ( #127, #178 ) ;
#110 = CALENDAR_DATE ( 2026, 24, 8 ) ;
#111 = DATE_AND_TIME ( #110, #237 ) ;
#112 = APPROVAL_PERSON_ORGANIZATION ( #53, #82, #75 ) ;
#113 = APPROVAL_ROLE ( '' ) ;
#114 = EDGE_LOOP ( 'NONE', ( #59, #49, #78, #10 ) ) ;
#115 = ADVANCED_FACE ( 'NONE', ( #58 ), #137, .F. ) ;
#116 = CARTESIAN_POINT ( 'NONE',  ( -4.999999999999993783, -9.000000000000005329, 5.000000000000000000 ) ) ;
#117 = CC_DESIGN_SECURITY_CLASSIFICATION ( #154, ( #46 ) ) ;
#118 = CARTESIAN_POINT ( 'NONE',  ( -4.999999999999993783, -9.000000000000005329, 5.000000000000000000 ) ) ;
#119 = ADVANCED_FACE ( 'NONE', ( #213 ), #43, .F. ) ;
#120 = CARTESIAN_POINT ( 'NONE',  ( -4.999999999999993783, -9.000000000000005329, 5.000000000000000000 ) ) ;
#121 = DIRECTION ( 'NONE',  ( -4.818676322157798854E-17, 1.000000000000000000, -0.000000000000000000 ) ) ;
#122 = CARTESIAN_POINT ( 'NONE',  ( -4.999999999999993783, 8.999999999999992895, 5.000000000000000000 ) ) ;
#123 = APPROVAL_DATE_TIME ( #197, #105 ) ;
#124 = CARTESIAN_POINT ( 'NONE',  ( 5.000000000000000000, 8.999999999999992895, 5.000000000000000000 ) ) ;
#125 = LINE ( 'NONE', #122, #186 ) ;
#126 = CARTESIAN_POINT ( 'NONE',  ( 0.000000000000000000, 0.000000000000000000, 0.000000000000000000 ) ) ;
#127 = PERSON ( 'UNSPECIFIED', 'UNSPECIFIED', 'UNSPECIFIED', ('UNSPECIFIED'), ('UNSPECIFIED'), ('UNSPECIFIED') ) ;
#128 = EDGE_CURVE ( 'NONE', #159, #63, #40, .T. ) ;
#129 = ORIENTED_EDGE ( 'NONE', *, *, #19, .T. ) ;
#130 = LINE ( 'NONE', #28, #80 ) ;
#131 = CC_DESIGN_APPROVAL ( #105, ( #46 ) ) ;
#132 = PLANE ( 'NONE',  #42 ) ;
#133 = VECTOR ( 'NONE', #7, 1000.000000000000000 ) ;
#134 = COORDINATED_UNIVERSAL_TIME_OFFSET ( 5, 30, .AHEAD. ) ;
#135 = CC_DESIGN_PERSON_AND_ORGANIZATION_ASSIGNMENT ( #171, #211, ( #46 ) ) ;
#136 = CC_DESIGN_PERSON_AND_ORGANIZATION_ASSIGNMENT ( #51, #228, ( #154 ) ) ;
#137 = PLANE ( 'NONE',  #95 ) ;
#138 = APPROVAL_DATE_TIME ( #54, #90 ) ;
#139 = ORIENTED_EDGE ( 'NONE', *, *, #128, .T. ) ;
#140 =( GEOMETRIC_REPRESENTATION_CONTEXT ( 3 ) GLOBAL_UNCERTAINTY_ASSIGNED_CONTEXT ( ( #172 ) ) GLOBAL_UNIT_ASSIGNED_CONTEXT ( ( #84, #13, #208 ) ) REPRESENTATION_CONTEXT ( 'NONE', 'WORKASPACE' ) );
#141 = VERTEX_POINT ( 'NONE', #199 ) ;
#142 = DIRECTION ( 'NONE',  ( 0.000000000000000000, -0.000000000000000000, 1.000000000000000000 ) ) ;
#143 = ORIENTED_EDGE ( 'NONE', *, *, #74, .F. ) ;
#144 = ORIENTED_EDGE ( 'NONE', *, *, #128, .F. ) ;
#145 = AXIS2_PLACEMENT_3D ( 'NONE', #47, #17, #14 ) ;
#146 = CARTESIAN_POINT ( 'NONE',  ( -4.999999999999993783, 8.999999999999992895, 0.000000000000000000 ) ) ;
#147 = PLANE ( 'NONE',  #145 ) ;
#148 = FACE_OUTER_BOUND ( 'NONE', #180, .T. ) ;
#149 = ADVANCED_FACE ( 'NONE', ( #158 ), #9, .F. ) ;
#150 = CARTESIAN_POINT ( 'NONE',  ( -4.999999999999993783, 8.999999999999992895, 5.000000000000000000 ) ) ;
#151 = CARTESIAN_POINT ( 'NONE',  ( 5.000000000000000888, -9.000000000000005329, 5.000000000000000000 ) ) ;
#152 = PERSON_AND_ORGANIZATION_ROLE ( 'design_supplier' ) ;
#153 = APPROVAL_STATUS ( 'not_yet_approved' ) ;
#154 = SECURITY_CLASSIFICATION ( '', '', #31 ) ;
#155 = CALENDAR_DATE ( 2026, 24, 8 ) ;
#156 = SHAPE_DEFINITION_REPRESENTATION ( #226, #29 ) ;
#157 = ORIENTED_EDGE ( 'NONE', *, *, #175, .F. ) ;
#158 = FACE_OUTER_BOUND ( 'NONE', #163, .T. ) ;
#159 = VERTEX_POINT ( 'NONE', #221 ) ;
#160 = EDGE_LOOP ( 'NONE', ( #6, #57, #143, #227 ) ) ;
#161 = DIRECTION ( 'NONE',  ( -0.000000000000000000, -0.000000000000000000, -1.000000000000000000 ) ) ;
#162 = CALENDAR_DATE ( 2026, 24, 8 ) ;
#163 = EDGE_LOOP ( 'NONE', ( #215, #144, #207, #201 ) ) ;
#164 = VECTOR ( 'NONE', #210, 1000.000000000000000 ) ;
#165 = LINE ( 'NONE', #151, #73 ) ;
#166 = LINE ( 'NONE', #67, #191 ) ;
#167 = DIRECTION ( 'NONE',  ( 1.000000000000000000, 0.000000000000000000, 0.000000000000000000 ) ) ;
#168 = EDGE_LOOP ( 'NONE', ( #187, #20, #196, #139 ) ) ;
#169 = DIRECTION ( 'NONE',  ( -0.000000000000000000, 0.000000000000000000, -1.000000000000000000 ) ) ;
#170 = APPROVAL_PERSON_ORGANIZATION ( #173, #105, #223 ) ;
#171 = PERSON_AND_ORGANIZATION ( #127, #178 ) ;
#172 = UNCERTAINTY_MEASURE_WITH_UNIT (LENGTH_MEASURE( 1.000000000000000082E-05 ), #84, 'distance_accuracy_value', 'NONE');
#173 = PERSON_AND_ORGANIZATION ( #127, #178 ) ;
#174 = DATE_AND_TIME ( #71, #216 ) ;
#175 = EDGE_CURVE ( 'NONE', #141, #107, #16, .T. ) ;
#176 = PRODUCT_DEFINITION ( 'UNKNOWN', '', #46, #85 ) ;
#177 = ORIENTED_EDGE ( 'NONE', *, *, #25, .T. ) ;
#178 = ORGANIZATION ( 'UNSPECIFIED', 'UNSPECIFIED', '' ) ;
#179 = ORIENTED_EDGE ( 'NONE', *, *, #19, .F. ) ;
#180 = EDGE_LOOP ( 'NONE', ( #129, #103, #177, #236 ) ) ;
#181 = DIRECTION ( 'NONE',  ( 1.000000000000000000, 0.000000000000000000, 0.000000000000000000 ) ) ;
#182 = CARTESIAN_POINT ( 'NONE',  ( -4.999999999999993783, 8.999999999999992895, 5.000000000000000000 ) ) ;
#183 = LINE ( 'NONE', #15, #45 ) ;
#184 = COORDINATED_UNIVERSAL_TIME_OFFSET ( 5, 30, .AHEAD. ) ;
#185 = EDGE_LOOP ( 'NONE', ( #214, #157, #179, #101 ) ) ;
#186 = VECTOR ( 'NONE', #161, 1000.000000000000000 ) ;
#187 = ORIENTED_EDGE ( 'NONE', *, *, #94, .T. ) ;
#188 = LINE ( 'NONE', #150, #37 ) ;
#189 = LINE ( 'NONE', #86, #56 ) ;
#190 = PERSON_AND_ORGANIZATION ( #127, #178 ) ;
#191 = VECTOR ( 'NONE', #69, 1000.000000000000000 ) ;
#192 = PERSON_AND_ORGANIZATION ( #127, #178 ) ;
#193 = LOCAL_TIME ( 2, 40, 1.000000000000000000, #134 ) ;
#194 = EDGE_CURVE ( 'NONE', #107, #5, #130, .T. ) ;
#195 = APPLICATION_PROTOCOL_DEFINITION ( 'international standard', 'config_control_design', 1994, #92 ) ;
#196 = ORIENTED_EDGE ( 'NONE', *, *, #97, .F. ) ;
#197 = DATE_AND_TIME ( #155, #193 ) ;
#198 = DIRECTION ( 'NONE',  ( 0.000000000000000000, -0.000000000000000000, -1.000000000000000000 ) ) ;
#199 = CARTESIAN_POINT ( 'NONE',  ( 5.000000000000000000, 8.999999999999992895, 5.000000000000000000 ) ) ;
#200 = DIRECTION ( 'NONE',  ( 1.000000000000000000, 0.000000000000000000, -0.000000000000000000 ) ) ;
#201 = ORIENTED_EDGE ( 'NONE', *, *, #72, .T. ) ;
#202 = APPLICATION_CONTEXT ( 'configuration controlled 3d designs of mechanical parts and assemblies' ) ;
#203 = PRODUCT ( 'Cameraside1_Default_sldprt', 'Cameraside1_Default_sldprt', '', ( #34 ) ) ;
#204 = VECTOR ( 'NONE', #217, 1000.000000000000000 ) ;
#205 = AXIS2_PLACEMENT_3D ( 'NONE', #81, #200, #169 ) ;
#206 = DIRECTION ( 'NONE',  ( 1.000000000000000000, 0.000000000000000000, 0.000000000000000000 ) ) ;
#207 = ORIENTED_EDGE ( 'NONE', *, *, #25, .F. ) ;
#208 =( NAMED_UNIT ( * ) SI_UNIT ( $, .STERADIAN. ) SOLID_ANGLE_UNIT ( ) );
#209 = CARTESIAN_POINT ( 'NONE',  ( 5.000000000000000888, -9.000000000000005329, 0.000000000000000000 ) ) ;
#210 = DIRECTION ( 'NONE',  ( -0.000000000000000000, -0.000000000000000000, -1.000000000000000000 ) ) ;
#211 = PERSON_AND_ORGANIZATION_ROLE ( 'creator' ) ;
#212 = DIRECTION ( 'NONE',  ( 0.000000000000000000, -1.000000000000000000, 0.000000000000000000 ) ) ;
#213 = FACE_OUTER_BOUND ( 'NONE', #168, .T. ) ;
#214 = ORIENTED_EDGE ( 'NONE', *, *, #220, .T. ) ;
#215 = ORIENTED_EDGE ( 'NONE', *, *, #74, .T. ) ;
#216 = LOCAL_TIME ( 2, 40, 1.000000000000000000, #89 ) ;
#217 = DIRECTION ( 'NONE',  ( 0.000000000000000000, -1.000000000000000000, 0.000000000000000000 ) ) ;
#218 = APPLICATION_PROTOCOL_DEFINITION ( 'international standard', 'config_control_design', 1994, #202 ) ;
#219 = VERTEX_POINT ( 'NONE', #48 ) ;
#220 = EDGE_CURVE ( 'NONE', #96, #107, #24, .T. ) ;
#221 = CARTESIAN_POINT ( 'NONE',  ( -4.999999999999993783, -9.000000000000005329, 5.000000000000000000 ) ) ;
#222 = CC_DESIGN_PERSON_AND_ORGANIZATION_ASSIGNMENT ( #190, #152, ( #46 ) ) ;
#223 = APPROVAL_ROLE ( '' ) ;
#224 = APPROVAL_STATUS ( 'not_yet_approved' ) ;
#225 = CC_DESIGN_DATE_AND_TIME_ASSIGNMENT ( #174, #1, ( #176 ) ) ;
#226 = PRODUCT_DEFINITION_SHAPE ( 'NONE', 'NONE',  #176 ) ;
#227 = ORIENTED_EDGE ( 'NONE', *, *, #194, .F. ) ;
#228 = PERSON_AND_ORGANIZATION_ROLE ( 'classification_officer' ) ;
#229 = LINE ( 'NONE', #146, #204 ) ;
#230 = DATE_AND_TIME ( #162, #38 ) ;
#231 = CARTESIAN_POINT ( 'NONE',  ( 5.000000000000000000, 8.999999999999992895, 0.000000000000000000 ) ) ;
#232 = AXIS2_PLACEMENT_3D ( 'NONE', #118, #61, #142 ) ;
#233 = DIRECTION ( 'NONE',  ( 4.818676322157798854E-17, -1.000000000000000000, 0.000000000000000000 ) ) ;
#234 = DIRECTION ( 'NONE',  ( -0.000000000000000000, -0.000000000000000000, -1.000000000000000000 ) ) ;
#235 = DIRECTION ( 'NONE',  ( -1.000000000000000000, -4.818676322157798854E-17, 0.000000000000000000 ) ) ;
#236 = ORIENTED_EDGE ( 'NONE', *, *, #97, .T. ) ;
#237 = LOCAL_TIME ( 2, 40, 1.000000000000000000, #50 ) ;
ENDSEC;
END-ISO-10303-21;
