ISO-10303-21;
HEADER;
FILE_DESCRIPTION (( 'STEP AP203' ),
    '1' );
FILE_NAME ('Cameraside2_Default_sldprt.STEP',
    '2026-08-23T21:10:02',
    ( '' ),
    ( '' ),
    'SwSTEP 2.0',
    'SolidWorks 2020',
    '' );
FILE_SCHEMA (( 'CONFIG_CONTROL_DESIGN' ));
ENDSEC;

DATA;
#1 = VERTEX_POINT ( 'NONE', #201 ) ;
#2 = APPROVAL_DATE_TIME ( #224, #250 ) ;
#3 = LINE ( 'NONE', #276, #27 ) ;
#4 = EDGE_CURVE ( 'NONE', #43, #51, #3, .T. ) ;
#5 = CARTESIAN_POINT ( 'NONE',  ( 0.000000000000000000, 0.000000000000000000, 2.000000000000000000 ) ) ;
#6 = CIRCLE ( 'NONE', #188, 1.230000000000000204 ) ;
#7 = CC_DESIGN_PERSON_AND_ORGANIZATION_ASSIGNMENT ( #262, #194, ( #130 ) ) ;
#8 = ADVANCED_FACE ( 'NONE', ( #26 ), #30, .F. ) ;
#9 = FACE_BOUND ( 'NONE', #263, .T. ) ;
#10 = DIRECTION ( 'NONE',  ( 0.000000000000000000, -0.000000000000000000, 1.000000000000000000 ) ) ;
#11 = APPLICATION_CONTEXT ( 'configuration controlled 3d designs of mechanical parts and assemblies' ) ;
#12 = DIRECTION ( 'NONE',  ( -0.000000000000000000, -0.000000000000000000, -1.000000000000000000 ) ) ;
#13 = AXIS2_PLACEMENT_3D ( 'NONE', #197, #292, #171 ) ;
#14 = LINE ( 'NONE', #114, #305 ) ;
#15 = CARTESIAN_POINT ( 'NONE',  ( 14.72999999999999510, -10.99999999999999822, 0.000000000000000000 ) ) ;
#16 = APPROVAL_STATUS ( 'not_yet_approved' ) ;
#17 = DIRECTION ( 'NONE',  ( 0.000000000000000000, 0.000000000000000000, 1.000000000000000000 ) ) ;
#18 = DIRECTION ( 'NONE',  ( 1.000000000000000000, 0.000000000000000000, 0.000000000000000000 ) ) ;
#19 = VERTEX_POINT ( 'NONE', #222 ) ;
#20 = CARTESIAN_POINT ( 'NONE',  ( 13.49999999999999467, -10.99999999999999822, 2.000000000000000000 ) ) ;
#21 = CC_DESIGN_DATE_AND_TIME_ASSIGNMENT ( #169, #176, ( #46 ) ) ;
#22 = ORIENTED_EDGE ( 'NONE', *, *, #280, .T. ) ;
#23 = ORIENTED_EDGE ( 'NONE', *, *, #50, .T. ) ;
#24 = ORIENTED_EDGE ( 'NONE', *, *, #4, .F. ) ;
#25 = PERSON_AND_ORGANIZATION_ROLE ( 'creator' ) ;
#26 = FACE_OUTER_BOUND ( 'NONE', #175, .T. ) ;
#27 = VECTOR ( 'NONE', #152, 1000.000000000000000 ) ;
#28 = AXIS2_PLACEMENT_3D ( 'NONE', #33, #279, #89 ) ;
#29 = PERSON_AND_ORGANIZATION ( #161, #242 ) ;
#30 = PLANE ( 'NONE',  #209 ) ;
#31 = CARTESIAN_POINT ( 'NONE',  ( 17.49999999999999645, -14.99999999999999822, 2.000000000000000000 ) ) ;
#32 = CC_DESIGN_PERSON_AND_ORGANIZATION_ASSIGNMENT ( #286, #252, ( #46 ) ) ;
#33 = CARTESIAN_POINT ( 'NONE',  ( 13.49999999999999467, -10.99999999999999822, 2.000000000000000000 ) ) ;
#34 = AXIS2_PLACEMENT_3D ( 'NONE', #191, #17, #18 ) ;
#35 = DIRECTION ( 'NONE',  ( 1.000000000000000000, 0.000000000000000000, 0.000000000000000000 ) ) ;
#36 = DIRECTION ( 'NONE',  ( 0.000000000000000000, 1.000000000000000000, 0.000000000000000000 ) ) ;
#37 = VECTOR ( 'NONE', #88, 1000.000000000000000 ) ;
#38 = AXIS2_PLACEMENT_3D ( 'NONE', #5, #212, #186 ) ;
#39 = APPLICATION_PROTOCOL_DEFINITION ( 'international standard', 'config_control_design', 1994, #220 ) ;
#40 = CC_DESIGN_DATE_AND_TIME_ASSIGNMENT ( #311, #293, ( #267 ) ) ;
#41 = AXIS2_PLACEMENT_3D ( 'NONE', #110, #255, #82 ) ;
#42 = CARTESIAN_POINT ( 'NONE',  ( 0.000000000000000000, 0.000000000000000000, 0.000000000000000000 ) ) ;
#43 = VERTEX_POINT ( 'NONE', #270 ) ;
#44 = COORDINATED_UNIVERSAL_TIME_OFFSET ( 5, 30, .AHEAD. ) ;
#45 = ORIENTED_EDGE ( 'NONE', *, *, #284, .T. ) ;
#46 = SECURITY_CLASSIFICATION ( '', '', #55 ) ;
#47 = ORIENTED_EDGE ( 'NONE', *, *, #115, .F. ) ;
#48 = ORIENTED_EDGE ( 'NONE', *, *, #57, .F. ) ;
#49 = DIRECTION ( 'NONE',  ( -1.000000000000000000, -0.000000000000000000, -0.000000000000000000 ) ) ;
#50 = EDGE_CURVE ( 'NONE', #1, #19, #6, .T. ) ;
#51 = VERTEX_POINT ( 'NONE', #202 ) ;
#52 = COORDINATED_UNIVERSAL_TIME_OFFSET ( 5, 30, .AHEAD. ) ;
#53 = DIRECTION ( 'NONE',  ( -0.000000000000000000, -1.000000000000000000, -0.000000000000000000 ) ) ;
#54 = VECTOR ( 'NONE', #53, 1000.000000000000000 ) ;
#55 = SECURITY_CLASSIFICATION_LEVEL ( 'unclassified' ) ;
#56 = DIRECTION ( 'NONE',  ( 0.000000000000000000, -0.000000000000000000, -1.000000000000000000 ) ) ;
#57 = EDGE_CURVE ( 'NONE', #51, #285, #219, .T. ) ;
#58 = DIRECTION ( 'NONE',  ( -0.000000000000000000, -1.000000000000000000, -0.000000000000000000 ) ) ;
#59 = CYLINDRICAL_SURFACE ( 'NONE', #137, 1.230000000000000204 ) ;
#60 = PRODUCT_DEFINITION_FORMATION_WITH_SPECIFIED_SOURCE ( 'ANY', '', #130, .NOT_KNOWN. ) ;
#61 = CARTESIAN_POINT ( 'NONE',  ( -17.50000000000000711, -14.99999999999999822, 2.000000000000000000 ) ) ;
#62 = CARTESIAN_POINT ( 'NONE',  ( 12.26999999999999424, -10.99999999999999822, 0.000000000000000000 ) ) ;
#63 =( NAMED_UNIT ( * ) PLANE_ANGLE_UNIT ( ) SI_UNIT ( $, .RADIAN. ) );
#64 = VECTOR ( 'NONE', #135, 1000.000000000000000 ) ;
#65 =( NAMED_UNIT ( * ) SI_UNIT ( $, .STERADIAN. ) SOLID_ANGLE_UNIT ( ) );
#66 = EDGE_CURVE ( 'NONE', #245, #170, #111, .T. ) ;
#67 = EDGE_CURVE ( 'NONE', #306, #285, #99, .T. ) ;
#68 = VECTOR ( 'NONE', #96, 1000.000000000000000 ) ;
#69 = APPROVAL_PERSON_ORGANIZATION ( #29, #250, #74 ) ;
#70 = CARTESIAN_POINT ( 'NONE',  ( 17.49999999999999645, 15.00000000000000178, 0.000000000000000000 ) ) ;
#71 = EDGE_LOOP ( 'NONE', ( #179, #307, #23, #73 ) ) ;
#72 = COORDINATED_UNIVERSAL_TIME_OFFSET ( 5, 30, .AHEAD. ) ;
#73 = ORIENTED_EDGE ( 'NONE', *, *, #136, .F. ) ;
#74 = APPROVAL_ROLE ( '' ) ;
#75 = ORIENTED_EDGE ( 'NONE', *, *, #154, .F. ) ;
#76 = LOCAL_TIME ( 2, 40, 2.000000000000000000, #138 ) ;
#77 = APPROVAL_DATE_TIME ( #94, #288 ) ;
#78 = ORIENTED_EDGE ( 'NONE', *, *, #180, .T. ) ;
#79 = DIRECTION ( 'NONE',  ( 1.000000000000000000, 0.000000000000000000, 0.000000000000000000 ) ) ;
#80 = PERSON_AND_ORGANIZATION ( #161, #242 ) ;
#81 = CC_DESIGN_APPROVAL ( #250, ( #46 ) ) ;
#82 = DIRECTION ( 'NONE',  ( 0.000000000000000000, 0.000000000000000000, -1.000000000000000000 ) ) ;
#83 = DIRECTION ( 'NONE',  ( 0.000000000000000000, 0.000000000000000000, 1.000000000000000000 ) ) ;
#84 = DIRECTION ( 'NONE',  ( -1.000000000000000000, 0.000000000000000000, 0.000000000000000000 ) ) ;
#85 = ADVANCED_BREP_SHAPE_REPRESENTATION ( 'Cameraside2_Default_sldprt', ( #105, #101 ), #211 ) ;
#86 = AXIS2_PLACEMENT_3D ( 'NONE', #181, #295, #10 ) ;
#87 = EDGE_CURVE ( 'NONE', #285, #269, #273, .T. ) ;
#88 = DIRECTION ( 'NONE',  ( -0.000000000000000000, -0.000000000000000000, 1.000000000000000000 ) ) ;
#89 = DIRECTION ( 'NONE',  ( 1.000000000000000000, 0.000000000000000000, 0.000000000000000000 ) ) ;
#90 = VECTOR ( 'NONE', #304, 1000.000000000000000 ) ;
#91 = DESIGN_CONTEXT ( 'detailed design', #11, 'design' ) ;
#92 = LINE ( 'NONE', #238, #90 ) ;
#93 = CARTESIAN_POINT ( 'NONE',  ( -17.50000000000000711, 15.00000000000000178, 0.000000000000000000 ) ) ;
#94 = DATE_AND_TIME ( #187, #76 ) ;
#95 = ORIENTED_EDGE ( 'NONE', *, *, #214, .F. ) ;
#96 = DIRECTION ( 'NONE',  ( -0.000000000000000000, -0.000000000000000000, -1.000000000000000000 ) ) ;
#97 = ADVANCED_FACE ( 'NONE', ( #235 ), #59, .F. ) ;
#98 = ORIENTED_EDGE ( 'NONE', *, *, #284, .F. ) ;
#99 = LINE ( 'NONE', #200, #192 ) ;
#100 = CALENDAR_DATE ( 2026, 24, 8 ) ;
#101 = AXIS2_PLACEMENT_3D ( 'NONE', #42, #190, #302 ) ;
#102 = ORIENTED_EDGE ( 'NONE', *, *, #66, .T. ) ;
#103 = CALENDAR_DATE ( 2026, 24, 8 ) ;
#104 = CARTESIAN_POINT ( 'NONE',  ( -17.50000000000000711, 15.00000000000000178, 2.000000000000000000 ) ) ;
#105 = MANIFOLD_SOLID_BREP ( 'Cut-Extrude1', #144 ) ;
#106 = CARTESIAN_POINT ( 'NONE',  ( 17.49999999999999645, -14.99999999999999822, 2.000000000000000000 ) ) ;
#107 = APPROVAL_PERSON_ORGANIZATION ( #80, #296, #177 ) ;
#108 = LINE ( 'NONE', #61, #64 ) ;
#109 = DIRECTION ( 'NONE',  ( -0.000000000000000000, -0.000000000000000000, 1.000000000000000000 ) ) ;
#110 = CARTESIAN_POINT ( 'NONE',  ( -17.50000000000000711, -14.99999999999999822, 2.000000000000000000 ) ) ;
#111 = CIRCLE ( 'NONE', #13, 1.230000000000000204 ) ;
#112 = LOCAL_TIME ( 2, 40, 2.000000000000000000, #44 ) ;
#113 = UNCERTAINTY_MEASURE_WITH_UNIT (LENGTH_MEASURE( 1.000000000000000082E-05 ), #162, 'distance_accuracy_value', 'NONE');
#114 = CARTESIAN_POINT ( 'NONE',  ( 12.26999999999999424, -10.99999999999999822, 0.000000000000000000 ) ) ;
#115 = EDGE_CURVE ( 'NONE', #254, #306, #256, .T. ) ;
#116 = DIRECTION ( 'NONE',  ( 1.000000000000000000, 0.000000000000000000, 0.000000000000000000 ) ) ;
#117 = EDGE_CURVE ( 'NONE', #170, #1, #14, .T. ) ;
#118 = CC_DESIGN_APPROVAL ( #288, ( #267 ) ) ;
#119 = ORIENTED_EDGE ( 'NONE', *, *, #50, .F. ) ;
#120 = DIRECTION ( 'NONE',  ( 0.000000000000000000, 0.000000000000000000, 1.000000000000000000 ) ) ;
#121 = EDGE_CURVE ( 'NONE', #123, #254, #133, .T. ) ;
#122 = ADVANCED_FACE ( 'NONE', ( #231, #208 ), #207, .F. ) ;
#123 = VERTEX_POINT ( 'NONE', #31 ) ;
#124 = EDGE_LOOP ( 'NONE', ( #221, #143, #290, #45 ) ) ;
#125 = CALENDAR_DATE ( 2026, 24, 8 ) ;
#126 = ORIENTED_EDGE ( 'NONE', *, *, #159, .F. ) ;
#127 = CALENDAR_DATE ( 2026, 24, 8 ) ;
#128 = ORIENTED_EDGE ( 'NONE', *, *, #57, .T. ) ;
#129 = FACE_OUTER_BOUND ( 'NONE', #218, .T. ) ;
#130 = PRODUCT ( 'Cameraside2_Default_sldprt', 'Cameraside2_Default_sldprt', '', ( #166 ) ) ;
#131 = CARTESIAN_POINT ( 'NONE',  ( 13.49999999999999467, -10.99999999999999822, 0.000000000000000000 ) ) ;
#132 = CARTESIAN_POINT ( 'NONE',  ( 17.49999999999999645, -14.99999999999999822, 0.000000000000000000 ) ) ;
#133 = LINE ( 'NONE', #157, #178 ) ;
#134 = PRODUCT_DEFINITION_SHAPE ( 'NONE', 'NONE',  #267 ) ;
#135 = DIRECTION ( 'NONE',  ( -0.000000000000000000, -0.000000000000000000, -1.000000000000000000 ) ) ;
#136 = EDGE_CURVE ( 'NONE', #245, #19, #301, .T. ) ;
#137 = AXIS2_PLACEMENT_3D ( 'NONE', #131, #109, #35 ) ;
#138 = COORDINATED_UNIVERSAL_TIME_OFFSET ( 5, 30, .AHEAD. ) ;
#139 = LINE ( 'NONE', #237, #253 ) ;
#140 = CYLINDRICAL_SURFACE ( 'NONE', #261, 1.230000000000000204 ) ;
#141 = ADVANCED_FACE ( 'NONE', ( #9, #299 ), #259, .T. ) ;
#142 = APPLICATION_PROTOCOL_DEFINITION ( 'international standard', 'config_control_design', 1994, #11 ) ;
#143 = ORIENTED_EDGE ( 'NONE', *, *, #4, .T. ) ;
#144 = CLOSED_SHELL ( 'NONE', ( #97, #165, #8, #182, #193, #122, #141, #264 ) ) ;
#145 = CIRCLE ( 'NONE', #34, 1.230000000000000204 ) ;
#146 = EDGE_LOOP ( 'NONE', ( #173, #75, #244, #128 ) ) ;
#147 = PRODUCT_RELATED_PRODUCT_CATEGORY ( 'detail', '', ( #130 ) ) ;
#148 = ORIENTED_EDGE ( 'NONE', *, *, #117, .F. ) ;
#149 = CARTESIAN_POINT ( 'NONE',  ( -17.50000000000000711, -14.99999999999999822, 0.000000000000000000 ) ) ;
#150 = EDGE_LOOP ( 'NONE', ( #223, #95, #126, #199 ) ) ;
#151 = DATE_AND_TIME ( #100, #189 ) ;
#152 = DIRECTION ( 'NONE',  ( -1.000000000000000000, -0.000000000000000000, -0.000000000000000000 ) ) ;
#153 = LINE ( 'NONE', #106, #167 ) ;
#154 = EDGE_CURVE ( 'NONE', #241, #269, #108, .T. ) ;
#155 = DIRECTION ( 'NONE',  ( -1.000000000000000000, 0.000000000000000000, -0.000000000000000000 ) ) ;
#156 = CC_DESIGN_PERSON_AND_ORGANIZATION_ASSIGNMENT ( #198, #309, ( #267 ) ) ;
#157 = CARTESIAN_POINT ( 'NONE',  ( 17.49999999999999645, -14.99999999999999822, 2.000000000000000000 ) ) ;
#158 = PLANE ( 'NONE',  #303 ) ;
#159 = EDGE_CURVE ( 'NONE', #123, #43, #153, .T. ) ;
#160 = FACE_OUTER_BOUND ( 'NONE', #146, .T. ) ;
#161 = PERSON ( 'UNSPECIFIED', 'UNSPECIFIED', 'UNSPECIFIED', ('UNSPECIFIED'), ('UNSPECIFIED'), ('UNSPECIFIED') ) ;
#162 =( LENGTH_UNIT ( ) NAMED_UNIT ( * ) SI_UNIT ( .MILLI., .METRE. ) );
#163 = DIRECTION ( 'NONE',  ( -0.000000000000000000, -0.000000000000000000, 1.000000000000000000 ) ) ;
#164 = CARTESIAN_POINT ( 'NONE',  ( -17.50000000000000711, -14.99999999999999822, 0.000000000000000000 ) ) ;
#165 = ADVANCED_FACE ( 'NONE', ( #232 ), #158, .F. ) ;
#166 = MECHANICAL_CONTEXT ( 'NONE', #220, 'mechanical' ) ;
#167 = VECTOR ( 'NONE', #36, 1000.000000000000000 ) ;
#168 = EDGE_LOOP ( 'NONE', ( #148, #196, #248, #78 ) ) ;
#169 = DATE_AND_TIME ( #103, #230 ) ;
#170 = VERTEX_POINT ( 'NONE', #62 ) ;
#171 = DIRECTION ( 'NONE',  ( 1.000000000000000000, 0.000000000000000000, 0.000000000000000000 ) ) ;
#172 = VECTOR ( 'NONE', #58, 1000.000000000000000 ) ;
#173 = ORIENTED_EDGE ( 'NONE', *, *, #87, .T. ) ;
#174 = DIRECTION ( 'NONE',  ( 0.000000000000000000, -1.000000000000000000, 0.000000000000000000 ) ) ;
#175 = EDGE_LOOP ( 'NONE', ( #227, #48, #24, #204 ) ) ;
#176 = DATE_TIME_ROLE ( 'classification_date' ) ;
#177 = APPROVAL_ROLE ( '' ) ;
#178 = VECTOR ( 'NONE', #257, 1000.000000000000000 ) ;
#179 = ORIENTED_EDGE ( 'NONE', *, *, #298, .F. ) ;
#180 = EDGE_CURVE ( 'NONE', #19, #1, #282, .T. ) ;
#181 = CARTESIAN_POINT ( 'NONE',  ( -17.50000000000000711, -14.99999999999999822, 2.000000000000000000 ) ) ;
#182 = ADVANCED_FACE ( 'NONE', ( #160 ), #297, .F. ) ;
#183 = LINE ( 'NONE', #277, #291 ) ;
#184 = CARTESIAN_POINT ( 'NONE',  ( 17.49999999999999645, -14.99999999999999822, 2.000000000000000000 ) ) ;
#185 = DIRECTION ( 'NONE',  ( 0.000000000000000000, 0.000000000000000000, -1.000000000000000000 ) ) ;
#186 = DIRECTION ( 'NONE',  ( -1.000000000000000000, 0.000000000000000000, -0.000000000000000000 ) ) ;
#187 = CALENDAR_DATE ( 2026, 24, 8 ) ;
#188 = AXIS2_PLACEMENT_3D ( 'NONE', #20, #120, #79 ) ;
#189 = LOCAL_TIME ( 2, 40, 2.000000000000000000, #72 ) ;
#190 = DIRECTION ( 'NONE',  ( 0.000000000000000000, 0.000000000000000000, 1.000000000000000000 ) ) ;
#191 = CARTESIAN_POINT ( 'NONE',  ( 13.49999999999999467, -10.99999999999999822, 0.000000000000000000 ) ) ;
#192 = VECTOR ( 'NONE', #49, 1000.000000000000000 ) ;
#193 = ADVANCED_FACE ( 'NONE', ( #129 ), #206, .F. ) ;
#194 = PERSON_AND_ORGANIZATION_ROLE ( 'design_owner' ) ;
#195 = APPROVAL_STATUS ( 'not_yet_approved' ) ;
#196 = ORIENTED_EDGE ( 'NONE', *, *, #66, .F. ) ;
#197 = CARTESIAN_POINT ( 'NONE',  ( 13.49999999999999467, -10.99999999999999822, 0.000000000000000000 ) ) ;
#198 = PERSON_AND_ORGANIZATION ( #161, #242 ) ;
#199 = ORIENTED_EDGE ( 'NONE', *, *, #121, .T. ) ;
#200 = CARTESIAN_POINT ( 'NONE',  ( -17.50000000000000711, 15.00000000000000178, 0.000000000000000000 ) ) ;
#201 = CARTESIAN_POINT ( 'NONE',  ( 12.26999999999999424, -10.99999999999999822, 2.000000000000000000 ) ) ;
#202 = CARTESIAN_POINT ( 'NONE',  ( -17.50000000000000711, 15.00000000000000178, 2.000000000000000000 ) ) ;
#203 = PERSON_AND_ORGANIZATION ( #161, #242 ) ;
#204 = ORIENTED_EDGE ( 'NONE', *, *, #214, .T. ) ;
#205 = CC_DESIGN_APPROVAL ( #296, ( #60 ) ) ;
#206 = PLANE ( 'NONE',  #86 ) ;
#207 = PLANE ( 'NONE',  #38 ) ;
#208 = FACE_OUTER_BOUND ( 'NONE', #124, .T. ) ;
#209 = AXIS2_PLACEMENT_3D ( 'NONE', #104, #174, #56 ) ;
#210 = CARTESIAN_POINT ( 'NONE',  ( -17.50000000000000711, -14.99999999999999822, 2.000000000000000000 ) ) ;
#211 =( GEOMETRIC_REPRESENTATION_CONTEXT ( 3 ) GLOBAL_UNCERTAINTY_ASSIGNED_CONTEXT ( ( #113 ) ) GLOBAL_UNIT_ASSIGNED_CONTEXT ( ( #162, #63, #65 ) ) REPRESENTATION_CONTEXT ( 'NONE', 'WORKASPACE' ) );
#212 = DIRECTION ( 'NONE',  ( 0.000000000000000000, 0.000000000000000000, -1.000000000000000000 ) ) ;
#213 = DIRECTION ( 'NONE',  ( 1.000000000000000000, 0.000000000000000000, 0.000000000000000000 ) ) ;
#214 = EDGE_CURVE ( 'NONE', #43, #306, #183, .T. ) ;
#215 = CARTESIAN_POINT ( 'NONE',  ( 17.49999999999999645, -14.99999999999999822, 0.000000000000000000 ) ) ;
#216 = CARTESIAN_POINT ( 'NONE',  ( -17.50000000000000711, -14.99999999999999822, 2.000000000000000000 ) ) ;
#217 = AXIS2_PLACEMENT_3D ( 'NONE', #281, #185, #155 ) ;
#218 = EDGE_LOOP ( 'NONE', ( #22, #266, #98, #272 ) ) ;
#219 = LINE ( 'NONE', #308, #68 ) ;
#220 = APPLICATION_CONTEXT ( 'configuration controlled 3d designs of mechanical parts and assemblies' ) ;
#221 = ORIENTED_EDGE ( 'NONE', *, *, #159, .T. ) ;
#222 = CARTESIAN_POINT ( 'NONE',  ( 14.72999999999999510, -10.99999999999999822, 2.000000000000000000 ) ) ;
#223 = ORIENTED_EDGE ( 'NONE', *, *, #115, .T. ) ;
#224 = DATE_AND_TIME ( #127, #112 ) ;
#225 = CC_DESIGN_SECURITY_CLASSIFICATION ( #46, ( #60 ) ) ;
#226 = ORIENTED_EDGE ( 'NONE', *, *, #67, .F. ) ;
#227 = ORIENTED_EDGE ( 'NONE', *, *, #67, .T. ) ;
#228 = CC_DESIGN_PERSON_AND_ORGANIZATION_ASSIGNMENT ( #249, #25, ( #60 ) ) ;
#229 = DIRECTION ( 'NONE',  ( 0.000000000000000000, 1.000000000000000000, 0.000000000000000000 ) ) ;
#230 = LOCAL_TIME ( 2, 40, 2.000000000000000000, #289 ) ;
#231 = FACE_BOUND ( 'NONE', #294, .T. ) ;
#232 = FACE_OUTER_BOUND ( 'NONE', #150, .T. ) ;
#233 = LINE ( 'NONE', #210, #172 ) ;
#234 = EDGE_CURVE ( 'NONE', #51, #241, #233, .T. ) ;
#235 = FACE_OUTER_BOUND ( 'NONE', #71, .T. ) ;
#236 = FACE_OUTER_BOUND ( 'NONE', #168, .T. ) ;
#237 = CARTESIAN_POINT ( 'NONE',  ( -17.50000000000000711, -14.99999999999999822, 0.000000000000000000 ) ) ;
#238 = CARTESIAN_POINT ( 'NONE',  ( -17.50000000000000711, -14.99999999999999822, 2.000000000000000000 ) ) ;
#239 = APPROVAL_ROLE ( '' ) ;
#240 = EDGE_LOOP ( 'NONE', ( #47, #287, #247, #226 ) ) ;
#241 = VERTEX_POINT ( 'NONE', #216 ) ;
#242 = ORGANIZATION ( 'UNSPECIFIED', 'UNSPECIFIED', '' ) ;
#243 = SHAPE_DEFINITION_REPRESENTATION ( #134, #85 ) ;
#244 = ORIENTED_EDGE ( 'NONE', *, *, #234, .F. ) ;
#245 = VERTEX_POINT ( 'NONE', #15 ) ;
#246 = CC_DESIGN_PERSON_AND_ORGANIZATION_ASSIGNMENT ( #203, #275, ( #60 ) ) ;
#247 = ORIENTED_EDGE ( 'NONE', *, *, #87, .F. ) ;
#248 = ORIENTED_EDGE ( 'NONE', *, *, #136, .T. ) ;
#249 = PERSON_AND_ORGANIZATION ( #161, #242 ) ;
#250 = APPROVAL ( #265, 'UNSPECIFIED' ) ;
#251 = ORIENTED_EDGE ( 'NONE', *, *, #298, .T. ) ;
#252 = PERSON_AND_ORGANIZATION_ROLE ( 'classification_officer' ) ;
#253 = VECTOR ( 'NONE', #116, 1000.000000000000000 ) ;
#254 = VERTEX_POINT ( 'NONE', #215 ) ;
#255 = DIRECTION ( 'NONE',  ( 1.000000000000000000, 0.000000000000000000, 0.000000000000000000 ) ) ;
#256 = LINE ( 'NONE', #132, #274 ) ;
#257 = DIRECTION ( 'NONE',  ( -0.000000000000000000, -0.000000000000000000, -1.000000000000000000 ) ) ;
#258 = DIRECTION ( 'NONE',  ( -0.000000000000000000, -0.000000000000000000, 1.000000000000000000 ) ) ;
#259 = PLANE ( 'NONE',  #217 ) ;
#260 = CARTESIAN_POINT ( 'NONE',  ( 13.49999999999999467, -10.99999999999999822, 0.000000000000000000 ) ) ;
#261 = AXIS2_PLACEMENT_3D ( 'NONE', #260, #163, #213 ) ;
#262 = PERSON_AND_ORGANIZATION ( #161, #242 ) ;
#263 = EDGE_LOOP ( 'NONE', ( #102, #251 ) ) ;
#264 = ADVANCED_FACE ( 'NONE', ( #236 ), #140, .F. ) ;
#265 = APPROVAL_STATUS ( 'not_yet_approved' ) ;
#266 = ORIENTED_EDGE ( 'NONE', *, *, #121, .F. ) ;
#267 = PRODUCT_DEFINITION ( 'UNKNOWN', '', #60, #91 ) ;
#268 = APPROVAL_PERSON_ORGANIZATION ( #283, #288, #239 ) ;
#269 = VERTEX_POINT ( 'NONE', #164 ) ;
#270 = CARTESIAN_POINT ( 'NONE',  ( 17.49999999999999645, 15.00000000000000178, 2.000000000000000000 ) ) ;
#271 = APPROVAL_DATE_TIME ( #151, #296 ) ;
#272 = ORIENTED_EDGE ( 'NONE', *, *, #154, .T. ) ;
#273 = LINE ( 'NONE', #149, #54 ) ;
#274 = VECTOR ( 'NONE', #229, 1000.000000000000000 ) ;
#275 = PERSON_AND_ORGANIZATION_ROLE ( 'design_supplier' ) ;
#276 = CARTESIAN_POINT ( 'NONE',  ( -17.50000000000000711, 15.00000000000000178, 2.000000000000000000 ) ) ;
#277 = CARTESIAN_POINT ( 'NONE',  ( 17.49999999999999645, 15.00000000000000178, 2.000000000000000000 ) ) ;
#278 = LOCAL_TIME ( 2, 40, 2.000000000000000000, #52 ) ;
#279 = DIRECTION ( 'NONE',  ( 0.000000000000000000, 0.000000000000000000, 1.000000000000000000 ) ) ;
#280 = EDGE_CURVE ( 'NONE', #269, #254, #139, .T. ) ;
#281 = CARTESIAN_POINT ( 'NONE',  ( 0.000000000000000000, 0.000000000000000000, 0.000000000000000000 ) ) ;
#282 = CIRCLE ( 'NONE', #28, 1.230000000000000204 ) ;
#283 = PERSON_AND_ORGANIZATION ( #161, #242 ) ;
#284 = EDGE_CURVE ( 'NONE', #241, #123, #92, .T. ) ;
#285 = VERTEX_POINT ( 'NONE', #93 ) ;
#286 = PERSON_AND_ORGANIZATION ( #161, #242 ) ;
#287 = ORIENTED_EDGE ( 'NONE', *, *, #280, .F. ) ;
#288 = APPROVAL ( #16, 'UNSPECIFIED' ) ;
#289 = COORDINATED_UNIVERSAL_TIME_OFFSET ( 5, 30, .AHEAD. ) ;
#290 = ORIENTED_EDGE ( 'NONE', *, *, #234, .T. ) ;
#291 = VECTOR ( 'NONE', #12, 1000.000000000000000 ) ;
#292 = DIRECTION ( 'NONE',  ( 0.000000000000000000, 0.000000000000000000, 1.000000000000000000 ) ) ;
#293 = DATE_TIME_ROLE ( 'creation_date' ) ;
#294 = EDGE_LOOP ( 'NONE', ( #310, #119 ) ) ;
#295 = DIRECTION ( 'NONE',  ( 0.000000000000000000, 1.000000000000000000, 0.000000000000000000 ) ) ;
#296 = APPROVAL ( #195, 'UNSPECIFIED' ) ;
#297 = PLANE ( 'NONE',  #41 ) ;
#298 = EDGE_CURVE ( 'NONE', #170, #245, #145, .T. ) ;
#299 = FACE_OUTER_BOUND ( 'NONE', #240, .T. ) ;
#300 = CARTESIAN_POINT ( 'NONE',  ( 14.72999999999999510, -10.99999999999999822, 0.000000000000000000 ) ) ;
#301 = LINE ( 'NONE', #300, #37 ) ;
#302 = DIRECTION ( 'NONE',  ( 1.000000000000000000, 0.000000000000000000, 0.000000000000000000 ) ) ;
#303 = AXIS2_PLACEMENT_3D ( 'NONE', #184, #84, #83 ) ;
#304 = DIRECTION ( 'NONE',  ( 1.000000000000000000, 0.000000000000000000, 0.000000000000000000 ) ) ;
#305 = VECTOR ( 'NONE', #258, 1000.000000000000000 ) ;
#306 = VERTEX_POINT ( 'NONE', #70 ) ;
#307 = ORIENTED_EDGE ( 'NONE', *, *, #117, .T. ) ;
#308 = CARTESIAN_POINT ( 'NONE',  ( -17.50000000000000711, 15.00000000000000178, 2.000000000000000000 ) ) ;
#309 = PERSON_AND_ORGANIZATION_ROLE ( 'creator' ) ;
#310 = ORIENTED_EDGE ( 'NONE', *, *, #180, .F. ) ;
#311 = DATE_AND_TIME ( #125, #278 ) ;
ENDSEC;
END-ISO-10303-21;
