ISO-10303-21;
HEADER;
FILE_DESCRIPTION (( 'STEP AP203' ),
    '1' );
FILE_NAME ('DummyBuckConverter_Default_sldprt.STEP',
    '2026-08-23T21:10:05',
    ( '' ),
    ( '' ),
    'SwSTEP 2.0',
    'SolidWorks 2020',
    '' );
FILE_SCHEMA (( 'CONFIG_CONTROL_DESIGN' ));
ENDSEC;

DATA;
#1 = LINE ( 'NONE', #37, #5 ) ;
#2 = CALENDAR_DATE ( 2026, 24, 8 ) ;
#3 = EDGE_CURVE ( 'NONE', #139, #80, #229, .T. ) ;
#4 = CALENDAR_DATE ( 2026, 24, 8 ) ;
#5 = VECTOR ( 'NONE', #104, 1000.000000000000000 ) ;
#6 = ADVANCED_FACE ( 'NONE', ( #63 ), #231, .T. ) ;
#7 = CC_DESIGN_PERSON_AND_ORGANIZATION_ASSIGNMENT ( #208, #166, ( #194 ) ) ;
#8 = COORDINATED_UNIVERSAL_TIME_OFFSET ( 5, 30, .AHEAD. ) ;
#9 = DATE_AND_TIME ( #27, #14 ) ;
#10 = APPROVAL_ROLE ( '' ) ;
#11 = EDGE_LOOP ( 'NONE', ( #52, #173, #137, #122 ) ) ;
#12 = DIRECTION ( 'NONE',  ( -2.168404344971008868E-16, 1.000000000000000000, 0.000000000000000000 ) ) ;
#13 = ORIENTED_EDGE ( 'NONE', *, *, #76, .T. ) ;
#14 = LOCAL_TIME ( 2, 40, 5.000000000000000000, #8 ) ;
#15 = ORIENTED_EDGE ( 'NONE', *, *, #99, .F. ) ;
#16 = DIRECTION ( 'NONE',  ( 0.000000000000000000, -1.000000000000000000, 0.000000000000000000 ) ) ;
#17 = DIRECTION ( 'NONE',  ( 1.000000000000000000, 0.000000000000000000, 0.000000000000000000 ) ) ;
#18 = CARTESIAN_POINT ( 'NONE',  ( -30.00000000000000000, 16.00000000000000000, 0.000000000000000000 ) ) ;
#19 = AXIS2_PLACEMENT_3D ( 'NONE', #55, #87, #145 ) ;
#20 =( LENGTH_UNIT ( ) NAMED_UNIT ( * ) SI_UNIT ( .MILLI., .METRE. ) );
#21 = LINE ( 'NONE', #38, #36 ) ;
#22 = ADVANCED_FACE ( 'NONE', ( #100 ), #79, .T. ) ;
#23 = FACE_OUTER_BOUND ( 'NONE', #47, .T. ) ;
#24 = PLANE ( 'NONE',  #56 ) ;
#25 = AXIS2_PLACEMENT_3D ( 'NONE', #53, #182, #159 ) ;
#26 = PERSON_AND_ORGANIZATION ( #226, #30 ) ;
#27 = CALENDAR_DATE ( 2026, 24, 8 ) ;
#28 = CARTESIAN_POINT ( 'NONE',  ( -29.99999999999999645, -16.00000000000000000, -40.00000000000000000 ) ) ;
#29 = CC_DESIGN_PERSON_AND_ORGANIZATION_ASSIGNMENT ( #167, #43, ( #98 ) ) ;
#30 = ORGANIZATION ( 'UNSPECIFIED', 'UNSPECIFIED', '' ) ;
#31 = ORIENTED_EDGE ( 'NONE', *, *, #32, .F. ) ;
#32 = EDGE_CURVE ( 'NONE', #154, #97, #138, .T. ) ;
#33 = ORIENTED_EDGE ( 'NONE', *, *, #201, .F. ) ;
#34 = LINE ( 'NONE', #102, #151 ) ;
#35 = CARTESIAN_POINT ( 'NONE',  ( -30.00000000000000000, 16.00000000000000000, -40.00000000000000000 ) ) ;
#36 = VECTOR ( 'NONE', #54, 1000.000000000000000 ) ;
#37 = CARTESIAN_POINT ( 'NONE',  ( -30.00000000000000000, 16.00000000000000000, -40.00000000000000000 ) ) ;
#38 = CARTESIAN_POINT ( 'NONE',  ( 30.00000000000000711, -16.00000000000000000, -40.00000000000000000 ) ) ;
#39 = PERSON_AND_ORGANIZATION ( #226, #30 ) ;
#40 = APPROVAL ( #92, 'UNSPECIFIED' ) ;
#41 =( NAMED_UNIT ( * ) SI_UNIT ( $, .STERADIAN. ) SOLID_ANGLE_UNIT ( ) );
#42 = ORIENTED_EDGE ( 'NONE', *, *, #189, .T. ) ;
#43 = PERSON_AND_ORGANIZATION_ROLE ( 'creator' ) ;
#44 = VECTOR ( 'NONE', #205, 1000.000000000000000 ) ;
#45 = CALENDAR_DATE ( 2026, 24, 8 ) ;
#46 = LINE ( 'NONE', #28, #213 ) ;
#47 = EDGE_LOOP ( 'NONE', ( #230, #196, #227, #78 ) ) ;
#48 = CC_DESIGN_PERSON_AND_ORGANIZATION_ASSIGNMENT ( #93, #148, ( #98 ) ) ;
#49 = APPROVAL ( #186, 'UNSPECIFIED' ) ;
#50 = APPROVAL_PERSON_ORGANIZATION ( #191, #40, #10 ) ;
#51 = UNCERTAINTY_MEASURE_WITH_UNIT (LENGTH_MEASURE( 1.000000000000000082E-05 ), #20, 'distance_accuracy_value', 'NONE');
#52 = ORIENTED_EDGE ( 'NONE', *, *, #3, .F. ) ;
#53 = CARTESIAN_POINT ( 'NONE',  ( -30.00000000000000000, 16.00000000000000000, -40.00000000000000000 ) ) ;
#54 = DIRECTION ( 'NONE',  ( 0.000000000000000000, 0.000000000000000000, 1.000000000000000000 ) ) ;
#55 = CARTESIAN_POINT ( 'NONE',  ( 0.000000000000000000, 0.000000000000000000, 0.000000000000000000 ) ) ;
#56 = AXIS2_PLACEMENT_3D ( 'NONE', #57, #128, #89 ) ;
#57 = CARTESIAN_POINT ( 'NONE',  ( 0.000000000000000000, 0.000000000000000000, -40.00000000000000000 ) ) ;
#58 = VECTOR ( 'NONE', #143, 1000.000000000000000 ) ;
#59 = ORIENTED_EDGE ( 'NONE', *, *, #91, .T. ) ;
#60 = AXIS2_PLACEMENT_3D ( 'NONE', #197, #195, #12 ) ;
#61 = CALENDAR_DATE ( 2026, 24, 8 ) ;
#62 = DIRECTION ( 'NONE',  ( 1.000000000000000000, 0.000000000000000000, 0.000000000000000000 ) ) ;
#63 = FACE_OUTER_BOUND ( 'NONE', #11, .T. ) ;
#64 = VERTEX_POINT ( 'NONE', #158 ) ;
#65 = CARTESIAN_POINT ( 'NONE',  ( 30.00000000000000000, 16.00000000000000000, -40.00000000000000000 ) ) ;
#66 = DIRECTION ( 'NONE',  ( 0.000000000000000000, -0.000000000000000000, 1.000000000000000000 ) ) ;
#67 = CARTESIAN_POINT ( 'NONE',  ( 30.00000000000000000, 16.00000000000000000, 0.000000000000000000 ) ) ;
#68 = PLANE ( 'NONE',  #19 ) ;
#69 = VECTOR ( 'NONE', #217, 1000.000000000000000 ) ;
#70 = DIRECTION ( 'NONE',  ( 0.000000000000000000, 0.000000000000000000, 1.000000000000000000 ) ) ;
#71 = VECTOR ( 'NONE', #62, 1000.000000000000000 ) ;
#72 = MANIFOLD_SOLID_BREP ( 'Boss-Extrude1', #124 ) ;
#73 = CC_DESIGN_PERSON_AND_ORGANIZATION_ASSIGNMENT ( #26, #106, ( #85 ) ) ;
#74 = COORDINATED_UNIVERSAL_TIME_OFFSET ( 5, 30, .AHEAD. ) ;
#75 = CC_DESIGN_APPROVAL ( #40, ( #98 ) ) ;
#76 = EDGE_CURVE ( 'NONE', #140, #211, #232, .T. ) ;
#77 = VECTOR ( 'NONE', #103, 1000.000000000000000 ) ;
#78 = ORIENTED_EDGE ( 'NONE', *, *, #216, .T. ) ;
#79 = PLANE ( 'NONE',  #60 ) ;
#80 = VERTEX_POINT ( 'NONE', #120 ) ;
#81 = APPLICATION_CONTEXT ( 'configuration controlled 3d designs of mechanical parts and assemblies' ) ;
#82 = LOCAL_TIME ( 2, 40, 5.000000000000000000, #74 ) ;
#83 = CARTESIAN_POINT ( 'NONE',  ( -29.99999999999999645, -16.00000000000000000, -40.00000000000000000 ) ) ;
#84 = APPLICATION_PROTOCOL_DEFINITION ( 'international standard', 'config_control_design', 1994, #81 ) ;
#85 = PRODUCT_DEFINITION ( 'UNKNOWN', '', #98, #117 ) ;
#86 = CC_DESIGN_PERSON_AND_ORGANIZATION_ASSIGNMENT ( #39, #163, ( #206 ) ) ;
#87 = DIRECTION ( 'NONE',  ( -0.000000000000000000, 0.000000000000000000, 1.000000000000000000 ) ) ;
#88 = LINE ( 'NONE', #131, #44 ) ;
#89 = DIRECTION ( 'NONE',  ( 1.000000000000000000, 0.000000000000000000, 0.000000000000000000 ) ) ;
#90 = APPROVAL_STATUS ( 'not_yet_approved' ) ;
#91 = EDGE_CURVE ( 'NONE', #154, #139, #46, .T. ) ;
#92 = APPROVAL_STATUS ( 'not_yet_approved' ) ;
#93 = PERSON_AND_ORGANIZATION ( #226, #30 ) ;
#94 = ADVANCED_FACE ( 'NONE', ( #210 ), #68, .T. ) ;
#95 = DIRECTION ( 'NONE',  ( 0.000000000000000000, 0.000000000000000000, 1.000000000000000000 ) ) ;
#96 = ORIENTED_EDGE ( 'NONE', *, *, #3, .T. ) ;
#97 = VERTEX_POINT ( 'NONE', #200 ) ;
#98 = PRODUCT_DEFINITION_FORMATION_WITH_SPECIFIED_SOURCE ( 'ANY', '', #206, .NOT_KNOWN. ) ;
#99 = EDGE_CURVE ( 'NONE', #140, #109, #234, .T. ) ;
#100 = FACE_OUTER_BOUND ( 'NONE', #157, .T. ) ;
#101 = ORIENTED_EDGE ( 'NONE', *, *, #116, .F. ) ;
#102 = CARTESIAN_POINT ( 'NONE',  ( -30.00000000000000000, 16.00000000000000000, 0.000000000000000000 ) ) ;
#103 = DIRECTION ( 'NONE',  ( 1.084202172485504434E-16, -1.000000000000000000, 0.000000000000000000 ) ) ;
#104 = DIRECTION ( 'NONE',  ( 0.000000000000000000, 0.000000000000000000, 1.000000000000000000 ) ) ;
#105 = CARTESIAN_POINT ( 'NONE',  ( -30.00000000000000000, 16.00000000000000000, -40.00000000000000000 ) ) ;
#106 = PERSON_AND_ORGANIZATION_ROLE ( 'creator' ) ;
#107 = APPROVAL_ROLE ( '' ) ;
#108 = APPROVAL_DATE_TIME ( #9, #110 ) ;
#109 = VERTEX_POINT ( 'NONE', #198 ) ;
#110 = APPROVAL ( #90, 'UNSPECIFIED' ) ;
#111 = DATE_AND_TIME ( #61, #82 ) ;
#112 = LOCAL_TIME ( 2, 40, 5.000000000000000000, #187 ) ;
#113 = ORIENTED_EDGE ( 'NONE', *, *, #216, .F. ) ;
#114 = SECURITY_CLASSIFICATION_LEVEL ( 'unclassified' ) ;
#115 = APPLICATION_CONTEXT ( 'configuration controlled 3d designs of mechanical parts and assemblies' ) ;
#116 = EDGE_CURVE ( 'NONE', #109, #154, #203, .T. ) ;
#117 = DESIGN_CONTEXT ( 'detailed design', #115, 'design' ) ;
#118 = DATE_AND_TIME ( #4, #112 ) ;
#119 = ORIENTED_EDGE ( 'NONE', *, *, #181, .T. ) ;
#120 = CARTESIAN_POINT ( 'NONE',  ( 30.00000000000000711, -16.00000000000000000, 0.000000000000000000 ) ) ;
#121 = ORIENTED_EDGE ( 'NONE', *, *, #223, .F. ) ;
#122 = ORIENTED_EDGE ( 'NONE', *, *, #135, .T. ) ;
#123 = DIRECTION ( 'NONE',  ( 0.000000000000000000, -0.000000000000000000, -1.000000000000000000 ) ) ;
#124 = CLOSED_SHELL ( 'NONE', ( #22, #6, #132, #165, #199, #94 ) ) ;
#125 = CARTESIAN_POINT ( 'NONE',  ( -29.99999999999999645, -16.00000000000000000, 0.000000000000000000 ) ) ;
#126 = CARTESIAN_POINT ( 'NONE',  ( -29.99999999999999645, -16.00000000000000000, 0.000000000000000000 ) ) ;
#127 = CARTESIAN_POINT ( 'NONE',  ( 30.00000000000000000, 16.00000000000000000, -40.00000000000000000 ) ) ;
#128 = DIRECTION ( 'NONE',  ( -0.000000000000000000, 0.000000000000000000, 1.000000000000000000 ) ) ;
#129 = FACE_OUTER_BOUND ( 'NONE', #192, .T. ) ;
#130 = PERSON_AND_ORGANIZATION ( #226, #30 ) ;
#131 = CARTESIAN_POINT ( 'NONE',  ( 30.00000000000000000, 16.00000000000000000, 0.000000000000000000 ) ) ;
#132 = ADVANCED_FACE ( 'NONE', ( #129 ), #179, .T. ) ;
#133 = CARTESIAN_POINT ( 'NONE',  ( 30.00000000000000000, 16.00000000000000000, -40.00000000000000000 ) ) ;
#134 = PRODUCT_DEFINITION_SHAPE ( 'NONE', 'NONE',  #85 ) ;
#135 = EDGE_CURVE ( 'NONE', #97, #80, #21, .T. ) ;
#136 = VECTOR ( 'NONE', #220, 1000.000000000000000 ) ;
#137 = ORIENTED_EDGE ( 'NONE', *, *, #32, .T. ) ;
#138 = LINE ( 'NONE', #177, #237 ) ;
#139 = VERTEX_POINT ( 'NONE', #126 ) ;
#140 = VERTEX_POINT ( 'NONE', #127 ) ;
#141 = ORIENTED_EDGE ( 'NONE', *, *, #201, .T. ) ;
#142 = ADVANCED_BREP_SHAPE_REPRESENTATION ( 'DummyBuckConverter_Default_sldprt', ( #72, #175 ), #202 ) ;
#143 = DIRECTION ( 'NONE',  ( 0.000000000000000000, 0.000000000000000000, 1.000000000000000000 ) ) ;
#144 = DIRECTION ( 'NONE',  ( -1.000000000000000000, -0.000000000000000000, -0.000000000000000000 ) ) ;
#145 = DIRECTION ( 'NONE',  ( 1.000000000000000000, 0.000000000000000000, 0.000000000000000000 ) ) ;
#146 = CC_DESIGN_APPROVAL ( #110, ( #194 ) ) ;
#147 = APPROVAL_DATE_TIME ( #184, #49 ) ;
#148 = PERSON_AND_ORGANIZATION_ROLE ( 'design_supplier' ) ;
#149 = SHAPE_DEFINITION_REPRESENTATION ( #134, #142 ) ;
#150 = DATE_TIME_ROLE ( 'creation_date' ) ;
#151 = VECTOR ( 'NONE', #178, 1000.000000000000000 ) ;
#152 = APPROVAL_ROLE ( '' ) ;
#153 = CARTESIAN_POINT ( 'NONE',  ( -29.99999999999999645, -16.00000000000000000, -40.00000000000000000 ) ) ;
#154 = VERTEX_POINT ( 'NONE', #83 ) ;
#155 = CC_DESIGN_SECURITY_CLASSIFICATION ( #194, ( #98 ) ) ;
#156 = ORIENTED_EDGE ( 'NONE', *, *, #181, .F. ) ;
#157 = EDGE_LOOP ( 'NONE', ( #121, #188, #141, #13 ) ) ;
#158 = CARTESIAN_POINT ( 'NONE',  ( -30.00000000000000000, 16.00000000000000000, 0.000000000000000000 ) ) ;
#159 = DIRECTION ( 'NONE',  ( 1.084202172485504434E-16, -1.000000000000000000, 0.000000000000000000 ) ) ;
#160 = MECHANICAL_CONTEXT ( 'NONE', #81, 'mechanical' ) ;
#161 = LINE ( 'NONE', #18, #209 ) ;
#162 = APPLICATION_PROTOCOL_DEFINITION ( 'international standard', 'config_control_design', 1994, #115 ) ;
#163 = PERSON_AND_ORGANIZATION_ROLE ( 'design_owner' ) ;
#164 = CARTESIAN_POINT ( 'NONE',  ( 0.000000000000000000, 0.000000000000000000, 0.000000000000000000 ) ) ;
#165 = ADVANCED_FACE ( 'NONE', ( #23 ), #233, .T. ) ;
#166 = PERSON_AND_ORGANIZATION_ROLE ( 'classification_officer' ) ;
#167 = PERSON_AND_ORGANIZATION ( #226, #30 ) ;
#168 = DATE_TIME_ROLE ( 'classification_date' ) ;
#169 = PRODUCT_RELATED_PRODUCT_CATEGORY ( 'detail', '', ( #206 ) ) ;
#170 = EDGE_LOOP ( 'NONE', ( #33, #31, #101, #15 ) ) ;
#171 = PERSON_AND_ORGANIZATION ( #226, #30 ) ;
#172 = EDGE_LOOP ( 'NONE', ( #174, #42, #119, #96 ) ) ;
#173 = ORIENTED_EDGE ( 'NONE', *, *, #91, .F. ) ;
#174 = ORIENTED_EDGE ( 'NONE', *, *, #223, .T. ) ;
#175 = AXIS2_PLACEMENT_3D ( 'NONE', #164, #70, #236 ) ;
#176 = ORIENTED_EDGE ( 'NONE', *, *, #116, .T. ) ;
#177 = CARTESIAN_POINT ( 'NONE',  ( -29.99999999999999645, -16.00000000000000000, -40.00000000000000000 ) ) ;
#178 = DIRECTION ( 'NONE',  ( 1.084202172485504434E-16, -1.000000000000000000, 0.000000000000000000 ) ) ;
#179 = PLANE ( 'NONE',  #25 ) ;
#180 =( NAMED_UNIT ( * ) PLANE_ANGLE_UNIT ( ) SI_UNIT ( $, .RADIAN. ) );
#181 = EDGE_CURVE ( 'NONE', #64, #139, #34, .T. ) ;
#182 = DIRECTION ( 'NONE',  ( -1.000000000000000000, -1.084202172485504434E-16, 0.000000000000000000 ) ) ;
#183 = COORDINATED_UNIVERSAL_TIME_OFFSET ( 5, 30, .AHEAD. ) ;
#184 = DATE_AND_TIME ( #2, #207 ) ;
#185 = LOCAL_TIME ( 2, 40, 5.000000000000000000, #183 ) ;
#186 = APPROVAL_STATUS ( 'not_yet_approved' ) ;
#187 = COORDINATED_UNIVERSAL_TIME_OFFSET ( 5, 30, .AHEAD. ) ;
#188 = ORIENTED_EDGE ( 'NONE', *, *, #135, .F. ) ;
#189 = EDGE_CURVE ( 'NONE', #211, #64, #161, .T. ) ;
#190 = AXIS2_PLACEMENT_3D ( 'NONE', #153, #16, #123 ) ;
#191 = PERSON_AND_ORGANIZATION ( #226, #30 ) ;
#192 = EDGE_LOOP ( 'NONE', ( #156, #113, #176, #59 ) ) ;
#193 = DATE_AND_TIME ( #45, #185 ) ;
#194 = SECURITY_CLASSIFICATION ( '', '', #114 ) ;
#195 = DIRECTION ( 'NONE',  ( 1.000000000000000000, 2.168404344971008868E-16, -0.000000000000000000 ) ) ;
#196 = ORIENTED_EDGE ( 'NONE', *, *, #76, .F. ) ;
#197 = CARTESIAN_POINT ( 'NONE',  ( 30.00000000000000000, 16.00000000000000000, -40.00000000000000000 ) ) ;
#198 = CARTESIAN_POINT ( 'NONE',  ( -30.00000000000000000, 16.00000000000000000, -40.00000000000000000 ) ) ;
#199 = ADVANCED_FACE ( 'NONE', ( #219 ), #24, .F. ) ;
#200 = CARTESIAN_POINT ( 'NONE',  ( 30.00000000000000711, -16.00000000000000000, -40.00000000000000000 ) ) ;
#201 = EDGE_CURVE ( 'NONE', #97, #140, #235, .T. ) ;
#202 =( GEOMETRIC_REPRESENTATION_CONTEXT ( 3 ) GLOBAL_UNCERTAINTY_ASSIGNED_CONTEXT ( ( #51 ) ) GLOBAL_UNIT_ASSIGNED_CONTEXT ( ( #20, #180, #41 ) ) REPRESENTATION_CONTEXT ( 'NONE', 'WORKASPACE' ) );
#203 = LINE ( 'NONE', #35, #77 ) ;
#204 = COORDINATED_UNIVERSAL_TIME_OFFSET ( 5, 30, .AHEAD. ) ;
#205 = DIRECTION ( 'NONE',  ( -2.168404344971008868E-16, 1.000000000000000000, -0.000000000000000000 ) ) ;
#206 = PRODUCT ( 'DummyBuckConverter_Default_sldprt', 'DummyBuckConverter_Default_sldprt', '', ( #160 ) ) ;
#207 = LOCAL_TIME ( 2, 40, 5.000000000000000000, #204 ) ;
#208 = PERSON_AND_ORGANIZATION ( #226, #30 ) ;
#209 = VECTOR ( 'NONE', #144, 1000.000000000000000 ) ;
#210 = FACE_OUTER_BOUND ( 'NONE', #172, .T. ) ;
#211 = VERTEX_POINT ( 'NONE', #67 ) ;
#212 = CC_DESIGN_DATE_AND_TIME_ASSIGNMENT ( #193, #150, ( #85 ) ) ;
#213 = VECTOR ( 'NONE', #95, 1000.000000000000000 ) ;
#214 = DIRECTION ( 'NONE',  ( 0.000000000000000000, 1.000000000000000000, 0.000000000000000000 ) ) ;
#215 = CARTESIAN_POINT ( 'NONE',  ( -30.00000000000000000, 16.00000000000000000, -40.00000000000000000 ) ) ;
#216 = EDGE_CURVE ( 'NONE', #109, #64, #1, .T. ) ;
#217 = DIRECTION ( 'NONE',  ( -1.000000000000000000, -0.000000000000000000, -0.000000000000000000 ) ) ;
#218 = AXIS2_PLACEMENT_3D ( 'NONE', #215, #214, #66 ) ;
#219 = FACE_OUTER_BOUND ( 'NONE', #170, .T. ) ;
#220 = DIRECTION ( 'NONE',  ( -2.168404344971008868E-16, 1.000000000000000000, -0.000000000000000000 ) ) ;
#221 = APPROVAL_PERSON_ORGANIZATION ( #171, #110, #152 ) ;
#222 = CC_DESIGN_DATE_AND_TIME_ASSIGNMENT ( #111, #168, ( #194 ) ) ;
#223 = EDGE_CURVE ( 'NONE', #80, #211, #88, .T. ) ;
#224 = APPROVAL_PERSON_ORGANIZATION ( #130, #49, #107 ) ;
#225 = APPROVAL_DATE_TIME ( #118, #40 ) ;
#226 = PERSON ( 'UNSPECIFIED', 'UNSPECIFIED', 'UNSPECIFIED', ('UNSPECIFIED'), ('UNSPECIFIED'), ('UNSPECIFIED') ) ;
#227 = ORIENTED_EDGE ( 'NONE', *, *, #99, .T. ) ;
#228 = CC_DESIGN_APPROVAL ( #49, ( #85 ) ) ;
#229 = LINE ( 'NONE', #125, #71 ) ;
#230 = ORIENTED_EDGE ( 'NONE', *, *, #189, .F. ) ;
#231 = PLANE ( 'NONE',  #190 ) ;
#232 = LINE ( 'NONE', #65, #58 ) ;
#233 = PLANE ( 'NONE',  #218 ) ;
#234 = LINE ( 'NONE', #105, #69 ) ;
#235 = LINE ( 'NONE', #133, #136 ) ;
#236 = DIRECTION ( 'NONE',  ( 1.000000000000000000, 0.000000000000000000, 0.000000000000000000 ) ) ;
#237 = VECTOR ( 'NONE', #17, 1000.000000000000000 ) ;
ENDSEC;
END-ISO-10303-21;
