ISO-10303-21;
HEADER;
FILE_DESCRIPTION (( 'STEP AP203' ),
    '1' );
FILE_NAME ('DummyBattery_Default_sldprt.STEP',
    '2026-08-23T21:10:04',
    ( '' ),
    ( '' ),
    'SwSTEP 2.0',
    'SolidWorks 2020',
    '' );
FILE_SCHEMA (( 'CONFIG_CONTROL_DESIGN' ));
ENDSEC;

DATA;
#1 = ORIENTED_EDGE ( 'NONE', *, *, #63, .F. ) ;
#2 = PERSON_AND_ORGANIZATION ( #171, #164 ) ;
#3 = ORIENTED_EDGE ( 'NONE', *, *, #181, .T. ) ;
#4 = ADVANCED_FACE ( 'NONE', ( #145 ), #130, .T. ) ;
#5 = DIRECTION ( 'NONE',  ( -0.000000000000000000, 0.000000000000000000, 1.000000000000000000 ) ) ;
#6 = CC_DESIGN_PERSON_AND_ORGANIZATION_ASSIGNMENT ( #66, #122, ( #172 ) ) ;
#7 = LINE ( 'NONE', #98, #101 ) ;
#8 = CARTESIAN_POINT ( 'NONE',  ( -36.00000000000000711, -16.00000000000000711, 0.000000000000000000 ) ) ;
#9 = LINE ( 'NONE', #75, #229 ) ;
#10 = CC_DESIGN_APPROVAL ( #37, ( #172 ) ) ;
#11 = CARTESIAN_POINT ( 'NONE',  ( -36.00000000000000711, -16.00000000000000711, -40.00000000000000000 ) ) ;
#12 = DATE_AND_TIME ( #163, #149 ) ;
#13 = APPROVAL_DATE_TIME ( #100, #88 ) ;
#14 = PERSON_AND_ORGANIZATION_ROLE ( 'design_owner' ) ;
#15 = ORIENTED_EDGE ( 'NONE', *, *, #178, .F. ) ;
#16 = LINE ( 'NONE', #196, #143 ) ;
#17 = COORDINATED_UNIVERSAL_TIME_OFFSET ( 5, 30, .AHEAD. ) ;
#18 = ORIENTED_EDGE ( 'NONE', *, *, #199, .F. ) ;
#19 = ORIENTED_EDGE ( 'NONE', *, *, #22, .F. ) ;
#20 = DIRECTION ( 'NONE',  ( -1.000000000000000000, -0.000000000000000000, -0.000000000000000000 ) ) ;
#21 = VERTEX_POINT ( 'NONE', #35 ) ;
#22 = EDGE_CURVE ( 'NONE', #21, #34, #16, .T. ) ;
#23 = DIRECTION ( 'NONE',  ( -1.000000000000000000, -0.000000000000000000, -0.000000000000000000 ) ) ;
#24 = CARTESIAN_POINT ( 'NONE',  ( 35.99999999999998579, 15.99999999999999289, 0.000000000000000000 ) ) ;
#25 = AXIS2_PLACEMENT_3D ( 'NONE', #97, #176, #155 ) ;
#26 =( GEOMETRIC_REPRESENTATION_CONTEXT ( 3 ) GLOBAL_UNCERTAINTY_ASSIGNED_CONTEXT ( ( #236 ) ) GLOBAL_UNIT_ASSIGNED_CONTEXT ( ( #94, #217, #43 ) ) REPRESENTATION_CONTEXT ( 'NONE', 'WORKASPACE' ) );
#27 = DATE_TIME_ROLE ( 'creation_date' ) ;
#28 = DATE_AND_TIME ( #32, #189 ) ;
#29 = EDGE_CURVE ( 'NONE', #226, #54, #109, .T. ) ;
#30 = VECTOR ( 'NONE', #23, 1000.000000000000000 ) ;
#31 = APPROVAL_STATUS ( 'not_yet_approved' ) ;
#32 = CALENDAR_DATE ( 2026, 24, 8 ) ;
#33 = ORIENTED_EDGE ( 'NONE', *, *, #117, .T. ) ;
#34 = VERTEX_POINT ( 'NONE', #187 ) ;
#35 = CARTESIAN_POINT ( 'NONE',  ( 36.00000000000000000, -16.00000000000000711, -40.00000000000000000 ) ) ;
#36 = CARTESIAN_POINT ( 'NONE',  ( -36.00000000000001421, 15.99999999999999289, -40.00000000000000000 ) ) ;
#37 = APPROVAL ( #31, 'UNSPECIFIED' ) ;
#38 = DIRECTION ( 'NONE',  ( -1.000000000000000000, -2.168404344971008868E-16, 0.000000000000000000 ) ) ;
#39 = CALENDAR_DATE ( 2026, 24, 8 ) ;
#40 = DIRECTION ( 'NONE',  ( 1.000000000000000000, 4.336808689942017736E-16, -0.000000000000000000 ) ) ;
#41 = PRODUCT_DEFINITION_FORMATION_WITH_SPECIFIED_SOURCE ( 'ANY', '', #137, .NOT_KNOWN. ) ;
#42 = EDGE_LOOP ( 'NONE', ( #19, #18, #208, #144 ) ) ;
#43 =( NAMED_UNIT ( * ) SI_UNIT ( $, .STERADIAN. ) SOLID_ANGLE_UNIT ( ) );
#44 = LINE ( 'NONE', #173, #183 ) ;
#45 = CLOSED_SHELL ( 'NONE', ( #115, #132, #81, #220, #142, #4 ) ) ;
#46 = DIRECTION ( 'NONE',  ( 0.000000000000000000, 0.000000000000000000, 1.000000000000000000 ) ) ;
#47 = SECURITY_CLASSIFICATION ( '', '', #49 ) ;
#48 = CC_DESIGN_PERSON_AND_ORGANIZATION_ASSIGNMENT ( #140, #219, ( #41 ) ) ;
#49 = SECURITY_CLASSIFICATION_LEVEL ( 'unclassified' ) ;
#50 = DESIGN_CONTEXT ( 'detailed design', #185, 'design' ) ;
#51 = PERSON_AND_ORGANIZATION ( #171, #164 ) ;
#52 = EDGE_LOOP ( 'NONE', ( #55, #193, #89, #223 ) ) ;
#53 = DATE_AND_TIME ( #39, #56 ) ;
#54 = VERTEX_POINT ( 'NONE', #90 ) ;
#55 = ORIENTED_EDGE ( 'NONE', *, *, #134, .F. ) ;
#56 = LOCAL_TIME ( 2, 40, 4.000000000000000000, #17 ) ;
#57 = ORIENTED_EDGE ( 'NONE', *, *, #178, .T. ) ;
#58 = APPROVAL_STATUS ( 'not_yet_approved' ) ;
#59 = CARTESIAN_POINT ( 'NONE',  ( 36.00000000000000000, -16.00000000000000711, 0.000000000000000000 ) ) ;
#60 = CC_DESIGN_PERSON_AND_ORGANIZATION_ASSIGNMENT ( #51, #14, ( #137 ) ) ;
#61 = APPROVAL_PERSON_ORGANIZATION ( #182, #37, #221 ) ;
#62 = LINE ( 'NONE', #202, #153 ) ;
#63 = EDGE_CURVE ( 'NONE', #34, #68, #72, .T. ) ;
#64 = DIRECTION ( 'NONE',  ( 0.000000000000000000, 0.000000000000000000, 1.000000000000000000 ) ) ;
#65 = PERSON_AND_ORGANIZATION_ROLE ( 'creator' ) ;
#66 = PERSON_AND_ORGANIZATION ( #171, #164 ) ;
#67 = ORIENTED_EDGE ( 'NONE', *, *, #199, .T. ) ;
#68 = VERTEX_POINT ( 'NONE', #152 ) ;
#69 = DATE_AND_TIME ( #141, #76 ) ;
#70 = LINE ( 'NONE', #147, #95 ) ;
#71 = AXIS2_PLACEMENT_3D ( 'NONE', #11, #203, #177 ) ;
#72 = LINE ( 'NONE', #167, #86 ) ;
#73 = FACE_OUTER_BOUND ( 'NONE', #52, .T. ) ;
#74 = APPROVAL_ROLE ( '' ) ;
#75 = CARTESIAN_POINT ( 'NONE',  ( -36.00000000000001421, 15.99999999999999289, 0.000000000000000000 ) ) ;
#76 = LOCAL_TIME ( 2, 40, 4.000000000000000000, #121 ) ;
#77 = PLANE ( 'NONE',  #156 ) ;
#78 = EDGE_CURVE ( 'NONE', #21, #106, #70, .T. ) ;
#79 = PLANE ( 'NONE',  #124 ) ;
#80 = CARTESIAN_POINT ( 'NONE',  ( -36.00000000000001421, 15.99999999999999289, -40.00000000000000000 ) ) ;
#81 = ADVANCED_FACE ( 'NONE', ( #129 ), #212, .T. ) ;
#82 = CC_DESIGN_PERSON_AND_ORGANIZATION_ASSIGNMENT ( #205, #162, ( #47 ) ) ;
#83 = APPROVAL_ROLE ( '' ) ;
#84 = APPROVAL_DATE_TIME ( #28, #37 ) ;
#85 = EDGE_CURVE ( 'NONE', #34, #226, #194, .T. ) ;
#86 = VECTOR ( 'NONE', #235, 1000.000000000000000 ) ;
#87 = VERTEX_POINT ( 'NONE', #93 ) ;
#88 = APPROVAL ( #234, 'UNSPECIFIED' ) ;
#89 = ORIENTED_EDGE ( 'NONE', *, *, #22, .T. ) ;
#90 = CARTESIAN_POINT ( 'NONE',  ( -36.00000000000000711, -16.00000000000000711, -40.00000000000000000 ) ) ;
#91 = ORIENTED_EDGE ( 'NONE', *, *, #29, .T. ) ;
#92 = CC_DESIGN_APPROVAL ( #88, ( #41 ) ) ;
#93 = CARTESIAN_POINT ( 'NONE',  ( -36.00000000000001421, 15.99999999999999289, 0.000000000000000000 ) ) ;
#94 =( LENGTH_UNIT ( ) NAMED_UNIT ( * ) SI_UNIT ( .MILLI., .METRE. ) );
#95 = VECTOR ( 'NONE', #237, 1000.000000000000000 ) ;
#96 = MECHANICAL_CONTEXT ( 'NONE', #125, 'mechanical' ) ;
#97 = CARTESIAN_POINT ( 'NONE',  ( 0.000000000000000000, 0.000000000000000000, 0.000000000000000000 ) ) ;
#98 = CARTESIAN_POINT ( 'NONE',  ( -36.00000000000000711, -16.00000000000000711, 0.000000000000000000 ) ) ;
#99 = CARTESIAN_POINT ( 'NONE',  ( 0.000000000000000000, 0.000000000000000000, -40.00000000000000000 ) ) ;
#100 = DATE_AND_TIME ( #232, #233 ) ;
#101 = VECTOR ( 'NONE', #180, 1000.000000000000000 ) ;
#102 = ADVANCED_BREP_SHAPE_REPRESENTATION ( 'DummyBattery_Default_sldprt', ( #160, #25 ), #26 ) ;
#103 = APPROVAL ( #58, 'UNSPECIFIED' ) ;
#104 = COORDINATED_UNIVERSAL_TIME_OFFSET ( 5, 30, .AHEAD. ) ;
#105 = COORDINATED_UNIVERSAL_TIME_OFFSET ( 5, 30, .AHEAD. ) ;
#106 = VERTEX_POINT ( 'NONE', #59 ) ;
#107 = VECTOR ( 'NONE', #195, 1000.000000000000000 ) ;
#108 = APPROVAL_PERSON_ORGANIZATION ( #123, #88, #83 ) ;
#109 = LINE ( 'NONE', #191, #107 ) ;
#110 = DIRECTION ( 'NONE',  ( 2.168404344971008868E-16, -1.000000000000000000, 0.000000000000000000 ) ) ;
#111 = CARTESIAN_POINT ( 'NONE',  ( -36.00000000000001421, 15.99999999999999289, -40.00000000000000000 ) ) ;
#112 = APPROVAL_DATE_TIME ( #53, #103 ) ;
#113 = EDGE_LOOP ( 'NONE', ( #190, #1, #166, #33 ) ) ;
#114 = DIRECTION ( 'NONE',  ( 0.000000000000000000, -0.000000000000000000, 1.000000000000000000 ) ) ;
#115 = ADVANCED_FACE ( 'NONE', ( #73 ), #225, .T. ) ;
#116 = FACE_OUTER_BOUND ( 'NONE', #42, .T. ) ;
#117 = EDGE_CURVE ( 'NONE', #226, #87, #44, .T. ) ;
#118 = PLANE ( 'NONE',  #71 ) ;
#119 = VECTOR ( 'NONE', #231, 1000.000000000000000 ) ;
#120 = APPLICATION_PROTOCOL_DEFINITION ( 'international standard', 'config_control_design', 1994, #185 ) ;
#121 = COORDINATED_UNIVERSAL_TIME_OFFSET ( 5, 30, .AHEAD. ) ;
#122 = PERSON_AND_ORGANIZATION_ROLE ( 'creator' ) ;
#123 = PERSON_AND_ORGANIZATION ( #171, #164 ) ;
#124 = AXIS2_PLACEMENT_3D ( 'NONE', #99, #5, #201 ) ;
#125 = APPLICATION_CONTEXT ( 'configuration controlled 3d designs of mechanical parts and assemblies' ) ;
#126 = ORIENTED_EDGE ( 'NONE', *, *, #78, .T. ) ;
#127 = DIRECTION ( 'NONE',  ( -0.000000000000000000, 0.000000000000000000, 1.000000000000000000 ) ) ;
#128 = ORIENTED_EDGE ( 'NONE', *, *, #207, .T. ) ;
#129 = FACE_OUTER_BOUND ( 'NONE', #224, .T. ) ;
#130 = PLANE ( 'NONE',  #131 ) ;
#131 = AXIS2_PLACEMENT_3D ( 'NONE', #213, #127, #151 ) ;
#132 = ADVANCED_FACE ( 'NONE', ( #228 ), #118, .T. ) ;
#133 = VERTEX_POINT ( 'NONE', #8 ) ;
#134 = EDGE_CURVE ( 'NONE', #106, #68, #197, .T. ) ;
#135 = FACE_OUTER_BOUND ( 'NONE', #113, .T. ) ;
#136 = CARTESIAN_POINT ( 'NONE',  ( -36.00000000000001421, 15.99999999999999289, 0.000000000000000000 ) ) ;
#137 = PRODUCT ( 'DummyBattery_Default_sldprt', 'DummyBattery_Default_sldprt', '', ( #96 ) ) ;
#138 = APPLICATION_PROTOCOL_DEFINITION ( 'international standard', 'config_control_design', 1994, #125 ) ;
#139 = DIRECTION ( 'NONE',  ( 0.000000000000000000, 1.000000000000000000, 0.000000000000000000 ) ) ;
#140 = PERSON_AND_ORGANIZATION ( #171, #164 ) ;
#141 = CALENDAR_DATE ( 2026, 24, 8 ) ;
#142 = ADVANCED_FACE ( 'NONE', ( #116 ), #79, .F. ) ;
#143 = VECTOR ( 'NONE', #216, 1000.000000000000000 ) ;
#144 = ORIENTED_EDGE ( 'NONE', *, *, #85, .F. ) ;
#145 = FACE_OUTER_BOUND ( 'NONE', #146, .T. ) ;
#146 = EDGE_LOOP ( 'NONE', ( #186, #128, #211, #57 ) ) ;
#147 = CARTESIAN_POINT ( 'NONE',  ( 36.00000000000000000, -16.00000000000000711, -40.00000000000000000 ) ) ;
#148 = SHAPE_DEFINITION_REPRESENTATION ( #175, #102 ) ;
#149 = LOCAL_TIME ( 2, 40, 4.000000000000000000, #206 ) ;
#150 = ORIENTED_EDGE ( 'NONE', *, *, #181, .F. ) ;
#151 = DIRECTION ( 'NONE',  ( 1.000000000000000000, 0.000000000000000000, 0.000000000000000000 ) ) ;
#152 = CARTESIAN_POINT ( 'NONE',  ( 35.99999999999998579, 15.99999999999999289, 0.000000000000000000 ) ) ;
#153 = VECTOR ( 'NONE', #230, 1000.000000000000000 ) ;
#154 = DIRECTION ( 'NONE',  ( 2.168404344971008868E-16, -1.000000000000000000, 0.000000000000000000 ) ) ;
#155 = DIRECTION ( 'NONE',  ( 1.000000000000000000, 0.000000000000000000, 0.000000000000000000 ) ) ;
#156 = AXIS2_PLACEMENT_3D ( 'NONE', #80, #139, #114 ) ;
#157 = CARTESIAN_POINT ( 'NONE',  ( -36.00000000000000711, -16.00000000000000711, -40.00000000000000000 ) ) ;
#158 = CC_DESIGN_SECURITY_CLASSIFICATION ( #47, ( #41 ) ) ;
#159 = LINE ( 'NONE', #157, #204 ) ;
#160 = MANIFOLD_SOLID_BREP ( 'Boss-Extrude1', #45 ) ;
#161 = AXIS2_PLACEMENT_3D ( 'NONE', #36, #38, #110 ) ;
#162 = PERSON_AND_ORGANIZATION_ROLE ( 'classification_officer' ) ;
#163 = CALENDAR_DATE ( 2026, 24, 8 ) ;
#164 = ORGANIZATION ( 'UNSPECIFIED', 'UNSPECIFIED', '' ) ;
#165 = ORIENTED_EDGE ( 'NONE', *, *, #214, .F. ) ;
#166 = ORIENTED_EDGE ( 'NONE', *, *, #85, .T. ) ;
#167 = CARTESIAN_POINT ( 'NONE',  ( 35.99999999999998579, 15.99999999999999289, -40.00000000000000000 ) ) ;
#168 = ORIENTED_EDGE ( 'NONE', *, *, #117, .F. ) ;
#169 = EDGE_LOOP ( 'NONE', ( #15, #150, #67, #126 ) ) ;
#170 = DIRECTION ( 'NONE',  ( -4.336808689942017736E-16, 1.000000000000000000, 0.000000000000000000 ) ) ;
#171 = PERSON ( 'UNSPECIFIED', 'UNSPECIFIED', 'UNSPECIFIED', ('UNSPECIFIED'), ('UNSPECIFIED'), ('UNSPECIFIED') ) ;
#172 = PRODUCT_DEFINITION ( 'UNKNOWN', '', #41, #50 ) ;
#173 = CARTESIAN_POINT ( 'NONE',  ( -36.00000000000001421, 15.99999999999999289, -40.00000000000000000 ) ) ;
#174 = CARTESIAN_POINT ( 'NONE',  ( -36.00000000000001421, 15.99999999999999289, -40.00000000000000000 ) ) ;
#175 = PRODUCT_DEFINITION_SHAPE ( 'NONE', 'NONE',  #172 ) ;
#176 = DIRECTION ( 'NONE',  ( 0.000000000000000000, 0.000000000000000000, 1.000000000000000000 ) ) ;
#177 = DIRECTION ( 'NONE',  ( 0.000000000000000000, -0.000000000000000000, -1.000000000000000000 ) ) ;
#178 = EDGE_CURVE ( 'NONE', #133, #106, #7, .T. ) ;
#179 = AXIS2_PLACEMENT_3D ( 'NONE', #215, #40, #170 ) ;
#180 = DIRECTION ( 'NONE',  ( 1.000000000000000000, 0.000000000000000000, 0.000000000000000000 ) ) ;
#181 = EDGE_CURVE ( 'NONE', #54, #133, #159, .T. ) ;
#182 = PERSON_AND_ORGANIZATION ( #171, #164 ) ;
#183 = VECTOR ( 'NONE', #46, 1000.000000000000000 ) ;
#184 = CC_DESIGN_APPROVAL ( #103, ( #47 ) ) ;
#185 = APPLICATION_CONTEXT ( 'configuration controlled 3d designs of mechanical parts and assemblies' ) ;
#186 = ORIENTED_EDGE ( 'NONE', *, *, #134, .T. ) ;
#187 = CARTESIAN_POINT ( 'NONE',  ( 35.99999999999998579, 15.99999999999999289, -40.00000000000000000 ) ) ;
#188 = DATE_TIME_ROLE ( 'classification_date' ) ;
#189 = LOCAL_TIME ( 2, 40, 4.000000000000000000, #105 ) ;
#190 = ORIENTED_EDGE ( 'NONE', *, *, #207, .F. ) ;
#191 = CARTESIAN_POINT ( 'NONE',  ( -36.00000000000001421, 15.99999999999999289, -40.00000000000000000 ) ) ;
#192 = CC_DESIGN_PERSON_AND_ORGANIZATION_ASSIGNMENT ( #222, #65, ( #41 ) ) ;
#193 = ORIENTED_EDGE ( 'NONE', *, *, #78, .F. ) ;
#194 = LINE ( 'NONE', #111, #200 ) ;
#195 = DIRECTION ( 'NONE',  ( 2.168404344971008868E-16, -1.000000000000000000, 0.000000000000000000 ) ) ;
#196 = CARTESIAN_POINT ( 'NONE',  ( 35.99999999999998579, 15.99999999999999289, -40.00000000000000000 ) ) ;
#197 = LINE ( 'NONE', #24, #119 ) ;
#198 = LINE ( 'NONE', #136, #30 ) ;
#199 = EDGE_CURVE ( 'NONE', #54, #21, #62, .T. ) ;
#200 = VECTOR ( 'NONE', #20, 1000.000000000000000 ) ;
#201 = DIRECTION ( 'NONE',  ( 1.000000000000000000, 0.000000000000000000, 0.000000000000000000 ) ) ;
#202 = CARTESIAN_POINT ( 'NONE',  ( -36.00000000000000711, -16.00000000000000711, -40.00000000000000000 ) ) ;
#203 = DIRECTION ( 'NONE',  ( 0.000000000000000000, -1.000000000000000000, 0.000000000000000000 ) ) ;
#204 = VECTOR ( 'NONE', #64, 1000.000000000000000 ) ;
#205 = PERSON_AND_ORGANIZATION ( #171, #164 ) ;
#206 = COORDINATED_UNIVERSAL_TIME_OFFSET ( 5, 30, .AHEAD. ) ;
#207 = EDGE_CURVE ( 'NONE', #68, #87, #198, .T. ) ;
#208 = ORIENTED_EDGE ( 'NONE', *, *, #29, .F. ) ;
#209 = CC_DESIGN_DATE_AND_TIME_ASSIGNMENT ( #69, #188, ( #47 ) ) ;
#210 = APPROVAL_PERSON_ORGANIZATION ( #2, #103, #74 ) ;
#211 = ORIENTED_EDGE ( 'NONE', *, *, #214, .T. ) ;
#212 = PLANE ( 'NONE',  #161 ) ;
#213 = CARTESIAN_POINT ( 'NONE',  ( 0.000000000000000000, 0.000000000000000000, 0.000000000000000000 ) ) ;
#214 = EDGE_CURVE ( 'NONE', #87, #133, #9, .T. ) ;
#215 = CARTESIAN_POINT ( 'NONE',  ( 35.99999999999998579, 15.99999999999999289, -40.00000000000000000 ) ) ;
#216 = DIRECTION ( 'NONE',  ( -4.336808689942017736E-16, 1.000000000000000000, -0.000000000000000000 ) ) ;
#217 =( NAMED_UNIT ( * ) PLANE_ANGLE_UNIT ( ) SI_UNIT ( $, .RADIAN. ) );
#218 = CC_DESIGN_DATE_AND_TIME_ASSIGNMENT ( #12, #27, ( #172 ) ) ;
#219 = PERSON_AND_ORGANIZATION_ROLE ( 'design_supplier' ) ;
#220 = ADVANCED_FACE ( 'NONE', ( #135 ), #77, .T. ) ;
#221 = APPROVAL_ROLE ( '' ) ;
#222 = PERSON_AND_ORGANIZATION ( #171, #164 ) ;
#223 = ORIENTED_EDGE ( 'NONE', *, *, #63, .T. ) ;
#224 = EDGE_LOOP ( 'NONE', ( #165, #168, #91, #3 ) ) ;
#225 = PLANE ( 'NONE',  #179 ) ;
#226 = VERTEX_POINT ( 'NONE', #174 ) ;
#227 = PRODUCT_RELATED_PRODUCT_CATEGORY ( 'detail', '', ( #137 ) ) ;
#228 = FACE_OUTER_BOUND ( 'NONE', #169, .T. ) ;
#229 = VECTOR ( 'NONE', #154, 1000.000000000000000 ) ;
#230 = DIRECTION ( 'NONE',  ( 1.000000000000000000, 0.000000000000000000, 0.000000000000000000 ) ) ;
#231 = DIRECTION ( 'NONE',  ( -4.336808689942017736E-16, 1.000000000000000000, -0.000000000000000000 ) ) ;
#232 = CALENDAR_DATE ( 2026, 24, 8 ) ;
#233 = LOCAL_TIME ( 2, 40, 4.000000000000000000, #104 ) ;
#234 = APPROVAL_STATUS ( 'not_yet_approved' ) ;
#235 = DIRECTION ( 'NONE',  ( 0.000000000000000000, 0.000000000000000000, 1.000000000000000000 ) ) ;
#236 = UNCERTAINTY_MEASURE_WITH_UNIT (LENGTH_MEASURE( 1.000000000000000082E-05 ), #94, 'distance_accuracy_value', 'NONE');
#237 = DIRECTION ( 'NONE',  ( 0.000000000000000000, 0.000000000000000000, 1.000000000000000000 ) ) ;
ENDSEC;
END-ISO-10303-21;
