ISO-10303-21;
HEADER;
FILE_DESCRIPTION (( 'STEP AP203' ),
    '1' );
FILE_NAME ('Lid_Default_sldprt.STEP',
    '2026-08-23T21:10:06',
    ( '' ),
    ( '' ),
    'SwSTEP 2.0',
    'SolidWorks 2020',
    '' );
FILE_SCHEMA (( 'CONFIG_CONTROL_DESIGN' ));
ENDSEC;

DATA;
#1 = LINE ( 'NONE', #70, #193 ) ;
#2 = ADVANCED_FACE ( 'NONE', ( #182 ), #36, .F. ) ;
#3 = ORIENTED_EDGE ( 'NONE', *, *, #144, .F. ) ;
#4 = PLANE ( 'NONE',  #215 ) ;
#5 = VERTEX_POINT ( 'NONE', #176 ) ;
#6 = VERTEX_POINT ( 'NONE', #28 ) ;
#7 = CARTESIAN_POINT ( 'NONE',  ( -25.00000000000000355, -19.99999999999998934, 8.000000000000000000 ) ) ;
#8 = LINE ( 'NONE', #74, #175 ) ;
#9 = DIRECTION ( 'NONE',  ( -0.000000000000000000, 1.000000000000000000, -0.000000000000000000 ) ) ;
#10 = APPROVAL_PERSON_ORGANIZATION ( #146, #30, #223 ) ;
#11 = MECHANICAL_CONTEXT ( 'NONE', #80, 'mechanical' ) ;
#12 = LINE ( 'NONE', #188, #185 ) ;
#13 = DATE_AND_TIME ( #190, #150 ) ;
#14 = CARTESIAN_POINT ( 'NONE',  ( -25.00000000000000355, -19.99999999999998934, 8.000000000000000000 ) ) ;
#15 = SECURITY_CLASSIFICATION_LEVEL ( 'unclassified' ) ;
#16 =( GEOMETRIC_REPRESENTATION_CONTEXT ( 3 ) GLOBAL_UNCERTAINTY_ASSIGNED_CONTEXT ( ( #155 ) ) GLOBAL_UNIT_ASSIGNED_CONTEXT ( ( #104, #79, #152 ) ) REPRESENTATION_CONTEXT ( 'NONE', 'WORKASPACE' ) );
#17 = COORDINATED_UNIVERSAL_TIME_OFFSET ( 5, 30, .AHEAD. ) ;
#18 = DIRECTION ( 'NONE',  ( -8.673617379884035472E-17, 1.000000000000000000, 0.000000000000000000 ) ) ;
#19 = CARTESIAN_POINT ( 'NONE',  ( -25.00000000000000355, -19.99999999999998934, 0.000000000000000000 ) ) ;
#20 = DIRECTION ( 'NONE',  ( 8.673617379884035472E-17, -1.000000000000000000, 0.000000000000000000 ) ) ;
#21 = EDGE_CURVE ( 'NONE', #56, #6, #43, .T. ) ;
#22 = VECTOR ( 'NONE', #167, 1000.000000000000000 ) ;
#23 = CARTESIAN_POINT ( 'NONE',  ( -25.00000000000000355, -19.99999999999998934, 8.000000000000000000 ) ) ;
#24 = VERTEX_POINT ( 'NONE', #205 ) ;
#25 = CARTESIAN_POINT ( 'NONE',  ( 24.99999999999999289, 20.00000000000001066, 8.000000000000000000 ) ) ;
#26 = DIRECTION ( 'NONE',  ( 8.673617379884035472E-17, -1.000000000000000000, 0.000000000000000000 ) ) ;
#27 = APPLICATION_PROTOCOL_DEFINITION ( 'international standard', 'config_control_design', 1994, #105 ) ;
#28 = CARTESIAN_POINT ( 'NONE',  ( 24.99999999999999289, 20.00000000000001066, 8.000000000000000000 ) ) ;
#29 = DIRECTION ( 'NONE',  ( -1.000000000000000000, -0.000000000000000000, -0.000000000000000000 ) ) ;
#30 = APPROVAL ( #166, 'UNSPECIFIED' ) ;
#31 = CALENDAR_DATE ( 2026, 24, 8 ) ;
#32 = VECTOR ( 'NONE', #20, 1000.000000000000000 ) ;
#33 = EDGE_CURVE ( 'NONE', #6, #212, #147, .T. ) ;
#34 = APPROVAL_DATE_TIME ( #102, #172 ) ;
#35 = LOCAL_TIME ( 2, 40, 6.000000000000000000, #101 ) ;
#36 = PLANE ( 'NONE',  #46 ) ;
#37 = EDGE_CURVE ( 'NONE', #161, #56, #61, .T. ) ;
#38 = CARTESIAN_POINT ( 'NONE',  ( 24.99999999999999289, 20.00000000000001066, 0.000000000000000000 ) ) ;
#39 = CC_DESIGN_PERSON_AND_ORGANIZATION_ASSIGNMENT ( #151, #62, ( #171 ) ) ;
#40 = CARTESIAN_POINT ( 'NONE',  ( -25.00000000000000711, 20.00000000000001066, 0.000000000000000000 ) ) ;
#41 = VECTOR ( 'NONE', #89, 1000.000000000000000 ) ;
#42 = ORIENTED_EDGE ( 'NONE', *, *, #33, .T. ) ;
#43 = LINE ( 'NONE', #219, #192 ) ;
#44 = FACE_OUTER_BOUND ( 'NONE', #195, .T. ) ;
#45 = COORDINATED_UNIVERSAL_TIME_OFFSET ( 5, 30, .AHEAD. ) ;
#46 = AXIS2_PLACEMENT_3D ( 'NONE', #111, #194, #18 ) ;
#47 = CARTESIAN_POINT ( 'NONE',  ( -25.00000000000000355, -19.99999999999998934, 8.000000000000000000 ) ) ;
#48 = DIRECTION ( 'NONE',  ( 0.000000000000000000, 0.000000000000000000, 1.000000000000000000 ) ) ;
#49 = COORDINATED_UNIVERSAL_TIME_OFFSET ( 5, 30, .AHEAD. ) ;
#50 = DATE_AND_TIME ( #31, #227 ) ;
#51 = EDGE_CURVE ( 'NONE', #212, #161, #124, .T. ) ;
#52 = SECURITY_CLASSIFICATION ( '', '', #15 ) ;
#53 = ORIENTED_EDGE ( 'NONE', *, *, #131, .T. ) ;
#54 = DIRECTION ( 'NONE',  ( -0.000000000000000000, -0.000000000000000000, -1.000000000000000000 ) ) ;
#55 = LINE ( 'NONE', #38, #103 ) ;
#56 = VERTEX_POINT ( 'NONE', #122 ) ;
#57 = ORIENTED_EDGE ( 'NONE', *, *, #109, .F. ) ;
#58 = VERTEX_POINT ( 'NONE', #184 ) ;
#59 = FACE_OUTER_BOUND ( 'NONE', #163, .T. ) ;
#60 = CC_DESIGN_DATE_AND_TIME_ASSIGNMENT ( #13, #170, ( #52 ) ) ;
#61 = LINE ( 'NONE', #47, #22 ) ;
#62 = PERSON_AND_ORGANIZATION_ROLE ( 'design_supplier' ) ;
#63 = SHAPE_DEFINITION_REPRESENTATION ( #90, #83 ) ;
#64 = APPLICATION_PROTOCOL_DEFINITION ( 'international standard', 'config_control_design', 1994, #80 ) ;
#65 = AXIS2_PLACEMENT_3D ( 'NONE', #14, #217, #201 ) ;
#66 = CC_DESIGN_PERSON_AND_ORGANIZATION_ASSIGNMENT ( #126, #127, ( #52 ) ) ;
#67 = VECTOR ( 'NONE', #54, 1000.000000000000000 ) ;
#68 = ADVANCED_FACE ( 'NONE', ( #59 ), #97, .F. ) ;
#69 = ADVANCED_FACE ( 'NONE', ( #44 ), #123, .T. ) ;
#70 = CARTESIAN_POINT ( 'NONE',  ( -25.00000000000000355, -19.99999999999998934, 0.000000000000000000 ) ) ;
#71 = ORIENTED_EDGE ( 'NONE', *, *, #21, .T. ) ;
#72 = DIRECTION ( 'NONE',  ( -1.000000000000000000, 0.000000000000000000, 0.000000000000000000 ) ) ;
#73 = ORIENTED_EDGE ( 'NONE', *, *, #107, .F. ) ;
#74 = CARTESIAN_POINT ( 'NONE',  ( -25.00000000000000711, 20.00000000000001066, 8.000000000000000000 ) ) ;
#75 = CARTESIAN_POINT ( 'NONE',  ( -25.00000000000000711, 20.00000000000001066, 8.000000000000000000 ) ) ;
#76 = EDGE_CURVE ( 'NONE', #24, #58, #12, .T. ) ;
#77 = CC_DESIGN_PERSON_AND_ORGANIZATION_ASSIGNMENT ( #108, #153, ( #171 ) ) ;
#78 = DIRECTION ( 'NONE',  ( -1.000000000000000000, -0.000000000000000000, -0.000000000000000000 ) ) ;
#79 =( NAMED_UNIT ( * ) PLANE_ANGLE_UNIT ( ) SI_UNIT ( $, .RADIAN. ) );
#80 = APPLICATION_CONTEXT ( 'configuration controlled 3d designs of mechanical parts and assemblies' ) ;
#81 = APPROVAL_PERSON_ORGANIZATION ( #168, #214, #189 ) ;
#82 = CARTESIAN_POINT ( 'NONE',  ( 0.000000000000000000, 0.000000000000000000, 0.000000000000000000 ) ) ;
#83 = ADVANCED_BREP_SHAPE_REPRESENTATION ( 'Lid_Default_sldprt', ( #160, #186 ), #16 ) ;
#84 = COORDINATED_UNIVERSAL_TIME_OFFSET ( 5, 30, .AHEAD. ) ;
#85 = PERSON_AND_ORGANIZATION ( #135, #204 ) ;
#86 = LOCAL_TIME ( 2, 40, 6.000000000000000000, #45 ) ;
#87 = ADVANCED_FACE ( 'NONE', ( #148 ), #100, .F. ) ;
#88 = ORIENTED_EDGE ( 'NONE', *, *, #107, .T. ) ;
#89 = DIRECTION ( 'NONE',  ( -0.000000000000000000, -0.000000000000000000, -1.000000000000000000 ) ) ;
#90 = PRODUCT_DEFINITION_SHAPE ( 'NONE', 'NONE',  #117 ) ;
#91 = ORIENTED_EDGE ( 'NONE', *, *, #202, .F. ) ;
#92 = LOCAL_TIME ( 2, 40, 6.000000000000000000, #49 ) ;
#93 = PRODUCT_RELATED_PRODUCT_CATEGORY ( 'detail', '', ( #211 ) ) ;
#94 = PLANE ( 'NONE',  #98 ) ;
#95 = ORIENTED_EDGE ( 'NONE', *, *, #221, .T. ) ;
#96 = CARTESIAN_POINT ( 'NONE',  ( -25.00000000000000711, 20.00000000000001066, 8.000000000000000000 ) ) ;
#97 = PLANE ( 'NONE',  #169 ) ;
#98 = AXIS2_PLACEMENT_3D ( 'NONE', #25, #72, #162 ) ;
#99 = CARTESIAN_POINT ( 'NONE',  ( -25.00000000000000711, 20.00000000000001066, 8.000000000000000000 ) ) ;
#100 = PLANE ( 'NONE',  #65 ) ;
#101 = COORDINATED_UNIVERSAL_TIME_OFFSET ( 5, 30, .AHEAD. ) ;
#102 = DATE_AND_TIME ( #106, #92 ) ;
#103 = VECTOR ( 'NONE', #115, 1000.000000000000000 ) ;
#104 =( LENGTH_UNIT ( ) NAMED_UNIT ( * ) SI_UNIT ( .MILLI., .METRE. ) );
#105 = APPLICATION_CONTEXT ( 'configuration controlled 3d designs of mechanical parts and assemblies' ) ;
#106 = CALENDAR_DATE ( 2026, 24, 8 ) ;
#107 = EDGE_CURVE ( 'NONE', #230, #5, #1, .T. ) ;
#108 = PERSON_AND_ORGANIZATION ( #135, #204 ) ;
#109 = EDGE_CURVE ( 'NONE', #6, #24, #213, .T. ) ;
#110 = VECTOR ( 'NONE', #29, 1000.000000000000000 ) ;
#111 = CARTESIAN_POINT ( 'NONE',  ( -25.00000000000000711, 20.00000000000001066, 8.000000000000000000 ) ) ;
#112 = CARTESIAN_POINT ( 'NONE',  ( 24.99999999999999289, 20.00000000000001066, 8.000000000000000000 ) ) ;
#113 = ORIENTED_EDGE ( 'NONE', *, *, #21, .F. ) ;
#114 = PERSON_AND_ORGANIZATION_ROLE ( 'creator' ) ;
#115 = DIRECTION ( 'NONE',  ( -0.000000000000000000, 1.000000000000000000, -0.000000000000000000 ) ) ;
#116 = CARTESIAN_POINT ( 'NONE',  ( 0.000000000000000000, 0.000000000000000000, 0.000000000000000000 ) ) ;
#117 = PRODUCT_DEFINITION ( 'UNKNOWN', '', #171, #233 ) ;
#118 = ORIENTED_EDGE ( 'NONE', *, *, #76, .F. ) ;
#119 = DIRECTION ( 'NONE',  ( -0.000000000000000000, 0.000000000000000000, 1.000000000000000000 ) ) ;
#120 = AXIS2_PLACEMENT_3D ( 'NONE', #203, #235, #187 ) ;
#121 = EDGE_LOOP ( 'NONE', ( #198, #3, #231, #95 ) ) ;
#122 = CARTESIAN_POINT ( 'NONE',  ( 24.99999999999999289, -19.99999999999998934, 8.000000000000000000 ) ) ;
#123 = PLANE ( 'NONE',  #120 ) ;
#124 = LINE ( 'NONE', #75, #222 ) ;
#125 = DIRECTION ( 'NONE',  ( 1.000000000000000000, 0.000000000000000000, 0.000000000000000000 ) ) ;
#126 = PERSON_AND_ORGANIZATION ( #135, #204 ) ;
#127 = PERSON_AND_ORGANIZATION_ROLE ( 'classification_officer' ) ;
#128 = VECTOR ( 'NONE', #210, 1000.000000000000000 ) ;
#129 = DATE_TIME_ROLE ( 'creation_date' ) ;
#130 = EDGE_CURVE ( 'NONE', #58, #230, #229, .T. ) ;
#131 = EDGE_CURVE ( 'NONE', #56, #5, #179, .T. ) ;
#132 = CC_DESIGN_PERSON_AND_ORGANIZATION_ASSIGNMENT ( #191, #177, ( #211 ) ) ;
#133 = APPROVAL_ROLE ( '' ) ;
#134 = APPROVAL_PERSON_ORGANIZATION ( #85, #172, #133 ) ;
#135 = PERSON ( 'UNSPECIFIED', 'UNSPECIFIED', 'UNSPECIFIED', ('UNSPECIFIED'), ('UNSPECIFIED'), ('UNSPECIFIED') ) ;
#136 = ORIENTED_EDGE ( 'NONE', *, *, #33, .F. ) ;
#137 = LINE ( 'NONE', #23, #128 ) ;
#138 = ORIENTED_EDGE ( 'NONE', *, *, #144, .T. ) ;
#139 = FACE_OUTER_BOUND ( 'NONE', #209, .T. ) ;
#140 = ADVANCED_FACE ( 'NONE', ( #199 ), #4, .F. ) ;
#141 = ORIENTED_EDGE ( 'NONE', *, *, #37, .F. ) ;
#142 = ORIENTED_EDGE ( 'NONE', *, *, #131, .F. ) ;
#143 = CLOSED_SHELL ( 'NONE', ( #207, #68, #2, #87, #69, #140 ) ) ;
#144 = EDGE_CURVE ( 'NONE', #161, #230, #137, .T. ) ;
#145 = ORIENTED_EDGE ( 'NONE', *, *, #202, .T. ) ;
#146 = PERSON_AND_ORGANIZATION ( #135, #204 ) ;
#147 = LINE ( 'NONE', #99, #110 ) ;
#148 = FACE_OUTER_BOUND ( 'NONE', #224, .T. ) ;
#149 = APPROVAL_STATUS ( 'not_yet_approved' ) ;
#150 = LOCAL_TIME ( 2, 40, 6.000000000000000000, #84 ) ;
#151 = PERSON_AND_ORGANIZATION ( #135, #204 ) ;
#152 =( NAMED_UNIT ( * ) SI_UNIT ( $, .STERADIAN. ) SOLID_ANGLE_UNIT ( ) );
#153 = PERSON_AND_ORGANIZATION_ROLE ( 'creator' ) ;
#154 = CC_DESIGN_APPROVAL ( #30, ( #117 ) ) ;
#155 = UNCERTAINTY_MEASURE_WITH_UNIT (LENGTH_MEASURE( 1.000000000000000082E-05 ), #104, 'distance_accuracy_value', 'NONE');
#156 = EDGE_LOOP ( 'NONE', ( #91, #73, #228, #118 ) ) ;
#157 = CALENDAR_DATE ( 2026, 24, 8 ) ;
#158 = CC_DESIGN_PERSON_AND_ORGANIZATION_ASSIGNMENT ( #200, #114, ( #117 ) ) ;
#159 = ORIENTED_EDGE ( 'NONE', *, *, #221, .F. ) ;
#160 = MANIFOLD_SOLID_BREP ( 'Boss-Extrude1', #143 ) ;
#161 = VERTEX_POINT ( 'NONE', #7 ) ;
#162 = DIRECTION ( 'NONE',  ( 0.000000000000000000, 0.000000000000000000, 1.000000000000000000 ) ) ;
#163 = EDGE_LOOP ( 'NONE', ( #181, #159, #136, #178 ) ) ;
#164 = DIRECTION ( 'NONE',  ( -0.000000000000000000, -0.000000000000000000, -1.000000000000000000 ) ) ;
#165 = CARTESIAN_POINT ( 'NONE',  ( -25.00000000000000711, 20.00000000000001066, 8.000000000000000000 ) ) ;
#166 = APPROVAL_STATUS ( 'not_yet_approved' ) ;
#167 = DIRECTION ( 'NONE',  ( 1.000000000000000000, 0.000000000000000000, 0.000000000000000000 ) ) ;
#168 = PERSON_AND_ORGANIZATION ( #135, #204 ) ;
#169 = AXIS2_PLACEMENT_3D ( 'NONE', #165, #234, #218 ) ;
#170 = DATE_TIME_ROLE ( 'classification_date' ) ;
#171 = PRODUCT_DEFINITION_FORMATION_WITH_SPECIFIED_SOURCE ( 'ANY', '', #211, .NOT_KNOWN. ) ;
#172 = APPROVAL ( #220, 'UNSPECIFIED' ) ;
#173 = CALENDAR_DATE ( 2026, 24, 8 ) ;
#174 = CC_DESIGN_DATE_AND_TIME_ASSIGNMENT ( #50, #129, ( #117 ) ) ;
#175 = VECTOR ( 'NONE', #164, 1000.000000000000000 ) ;
#176 = CARTESIAN_POINT ( 'NONE',  ( 24.99999999999999289, -19.99999999999998934, 0.000000000000000000 ) ) ;
#177 = PERSON_AND_ORGANIZATION_ROLE ( 'design_owner' ) ;
#178 = ORIENTED_EDGE ( 'NONE', *, *, #109, .T. ) ;
#179 = LINE ( 'NONE', #226, #67 ) ;
#180 = ORIENTED_EDGE ( 'NONE', *, *, #51, .T. ) ;
#181 = ORIENTED_EDGE ( 'NONE', *, *, #76, .T. ) ;
#182 = FACE_OUTER_BOUND ( 'NONE', #121, .T. ) ;
#183 = DATE_AND_TIME ( #157, #86 ) ;
#184 = CARTESIAN_POINT ( 'NONE',  ( -25.00000000000000711, 20.00000000000001066, 0.000000000000000000 ) ) ;
#185 = VECTOR ( 'NONE', #78, 1000.000000000000000 ) ;
#186 = AXIS2_PLACEMENT_3D ( 'NONE', #82, #48, #125 ) ;
#187 = DIRECTION ( 'NONE',  ( 1.000000000000000000, 0.000000000000000000, 0.000000000000000000 ) ) ;
#188 = CARTESIAN_POINT ( 'NONE',  ( -25.00000000000000711, 20.00000000000001066, 0.000000000000000000 ) ) ;
#189 = APPROVAL_ROLE ( '' ) ;
#190 = CALENDAR_DATE ( 2026, 24, 8 ) ;
#191 = PERSON_AND_ORGANIZATION ( #135, #204 ) ;
#192 = VECTOR ( 'NONE', #9, 1000.000000000000000 ) ;
#193 = VECTOR ( 'NONE', #216, 1000.000000000000000 ) ;
#194 = DIRECTION ( 'NONE',  ( 1.000000000000000000, 8.673617379884035472E-17, -0.000000000000000000 ) ) ;
#195 = EDGE_LOOP ( 'NONE', ( #71, #42, #180, #232 ) ) ;
#196 = CC_DESIGN_APPROVAL ( #214, ( #52 ) ) ;
#197 = DIRECTION ( 'NONE',  ( 1.000000000000000000, 0.000000000000000000, 0.000000000000000000 ) ) ;
#198 = ORIENTED_EDGE ( 'NONE', *, *, #130, .T. ) ;
#199 = FACE_OUTER_BOUND ( 'NONE', #156, .T. ) ;
#200 = PERSON_AND_ORGANIZATION ( #135, #204 ) ;
#201 = DIRECTION ( 'NONE',  ( 0.000000000000000000, -0.000000000000000000, 1.000000000000000000 ) ) ;
#202 = EDGE_CURVE ( 'NONE', #5, #24, #55, .T. ) ;
#203 = CARTESIAN_POINT ( 'NONE',  ( 0.000000000000000000, 0.000000000000000000, 8.000000000000000000 ) ) ;
#204 = ORGANIZATION ( 'UNSPECIFIED', 'UNSPECIFIED', '' ) ;
#205 = CARTESIAN_POINT ( 'NONE',  ( 24.99999999999999289, 20.00000000000001066, 0.000000000000000000 ) ) ;
#206 = APPROVAL_DATE_TIME ( #237, #214 ) ;
#207 = ADVANCED_FACE ( 'NONE', ( #139 ), #94, .F. ) ;
#208 = CC_DESIGN_APPROVAL ( #172, ( #171 ) ) ;
#209 = EDGE_LOOP ( 'NONE', ( #145, #57, #113, #53 ) ) ;
#210 = DIRECTION ( 'NONE',  ( -0.000000000000000000, -0.000000000000000000, -1.000000000000000000 ) ) ;
#211 = PRODUCT ( 'Lid_Default_sldprt', 'Lid_Default_sldprt', '', ( #11 ) ) ;
#212 = VERTEX_POINT ( 'NONE', #96 ) ;
#213 = LINE ( 'NONE', #112, #41 ) ;
#214 = APPROVAL ( #149, 'UNSPECIFIED' ) ;
#215 = AXIS2_PLACEMENT_3D ( 'NONE', #116, #119, #197 ) ;
#216 = DIRECTION ( 'NONE',  ( 1.000000000000000000, 0.000000000000000000, 0.000000000000000000 ) ) ;
#217 = DIRECTION ( 'NONE',  ( 0.000000000000000000, 1.000000000000000000, 0.000000000000000000 ) ) ;
#218 = DIRECTION ( 'NONE',  ( 0.000000000000000000, -0.000000000000000000, -1.000000000000000000 ) ) ;
#219 = CARTESIAN_POINT ( 'NONE',  ( 24.99999999999999289, 20.00000000000001066, 8.000000000000000000 ) ) ;
#220 = APPROVAL_STATUS ( 'not_yet_approved' ) ;
#221 = EDGE_CURVE ( 'NONE', #212, #58, #8, .T. ) ;
#222 = VECTOR ( 'NONE', #26, 1000.000000000000000 ) ;
#223 = APPROVAL_ROLE ( '' ) ;
#224 = EDGE_LOOP ( 'NONE', ( #88, #142, #141, #138 ) ) ;
#225 = APPROVAL_DATE_TIME ( #183, #30 ) ;
#226 = CARTESIAN_POINT ( 'NONE',  ( 24.99999999999999289, -19.99999999999998934, 8.000000000000000000 ) ) ;
#227 = LOCAL_TIME ( 2, 40, 6.000000000000000000, #17 ) ;
#228 = ORIENTED_EDGE ( 'NONE', *, *, #130, .F. ) ;
#229 = LINE ( 'NONE', #40, #32 ) ;
#230 = VERTEX_POINT ( 'NONE', #19 ) ;
#231 = ORIENTED_EDGE ( 'NONE', *, *, #51, .F. ) ;
#232 = ORIENTED_EDGE ( 'NONE', *, *, #37, .T. ) ;
#233 = DESIGN_CONTEXT ( 'detailed design', #105, 'design' ) ;
#234 = DIRECTION ( 'NONE',  ( 0.000000000000000000, -1.000000000000000000, 0.000000000000000000 ) ) ;
#235 = DIRECTION ( 'NONE',  ( -0.000000000000000000, 0.000000000000000000, 1.000000000000000000 ) ) ;
#236 = CC_DESIGN_SECURITY_CLASSIFICATION ( #52, ( #171 ) ) ;
#237 = DATE_AND_TIME ( #173, #35 ) ;
ENDSEC;
END-ISO-10303-21;
