ISO-10303-21;
HEADER;
FILE_DESCRIPTION (( 'STEP AP203' ),
    '1' );
FILE_NAME ('LinkGripperToArm_cover_top_sldprt.STEP',
    '2026-08-23T21:10:09',
    ( '' ),
    ( '' ),
    'SwSTEP 2.0',
    'SolidWorks 2020',
    '' );
FILE_SCHEMA (( 'CONFIG_CONTROL_DESIGN' ));
ENDSEC;

DATA;
#1 = CYLINDRICAL_SURFACE ( 'NONE', #479, 2.000000000000001776 ) ;
#2 = ORIENTED_EDGE ( 'NONE', *, *, #824, .T. ) ;
#3 = LINE ( 'NONE', #776, #966 ) ;
#4 = EDGE_LOOP ( 'NONE', ( #209, #30 ) ) ;
#5 = EDGE_LOOP ( 'NONE', ( #454, #901, #364, #759, #1144, #2 ) ) ;
#6 = ORIENTED_EDGE ( 'NONE', *, *, #1077, .F. ) ;
#7 = DIRECTION ( 'NONE',  ( 1.000000000000000000, -0.000000000000000000, -0.000000000000000000 ) ) ;
#8 = AXIS2_PLACEMENT_3D ( 'NONE', #47, #412, #26 ) ;
#9 = DIRECTION ( 'NONE',  ( 0.000000000000000000, 0.000000000000000000, -1.000000000000000000 ) ) ;
#10 = VECTOR ( 'NONE', #944, 1000.000000000000000 ) ;
#11 = EDGE_LOOP ( 'NONE', ( #489, #1139, #146, #210 ) ) ;
#12 = CARTESIAN_POINT ( 'NONE',  ( -2.000000000000000888, 14.50000000000000533, 39.00000000000000000 ) ) ;
#13 = VECTOR ( 'NONE', #886, 1000.000000000000000 ) ;
#14 = DIRECTION ( 'NONE',  ( 0.000000000000000000, 0.000000000000000000, -1.000000000000000000 ) ) ;
#15 = DIRECTION ( 'NONE',  ( 1.000000000000000000, 0.000000000000000000, 0.000000000000000000 ) ) ;
#16 = ADVANCED_FACE ( 'NONE', ( #495 ), #25, .T. ) ;
#17 = LINE ( 'NONE', #959, #424 ) ;
#18 = EDGE_CURVE ( 'NONE', #1020, #751, #176, .T. ) ;
#19 = ORIENTED_EDGE ( 'NONE', *, *, #51, .T. ) ;
#20 = CARTESIAN_POINT ( 'NONE',  ( -2.000000000000000000, 17.49999999999999645, 61.50000000000000000 ) ) ;
#21 = CARTESIAN_POINT ( 'NONE',  ( -14.50099999999999767, 14.50000000000000000, -2.000000000000000000 ) ) ;
#22 = DIRECTION ( 'NONE',  ( -1.000000000000000000, 0.000000000000000000, 0.000000000000000000 ) ) ;
#23 = CYLINDRICAL_SURFACE ( 'NONE', #1111, 3.500000000000000000 ) ;
#24 = EDGE_CURVE ( 'NONE', #686, #414, #119, .T. ) ;
#25 = PLANE ( 'NONE',  #813 ) ;
#26 = DIRECTION ( 'NONE',  ( 0.000000000000000000, 0.000000000000000000, -1.000000000000000000 ) ) ;
#27 = PRODUCT_DEFINITION_FORMATION_WITH_SPECIFIED_SOURCE ( 'ANY', '', #486, .NOT_KNOWN. ) ;
#28 = VERTEX_POINT ( 'NONE', #873 ) ;
#29 = PLANE ( 'NONE',  #641 ) ;
#30 = ORIENTED_EDGE ( 'NONE', *, *, #899, .T. ) ;
#31 = CARTESIAN_POINT ( 'NONE',  ( 0.000000000000000000, -17.49999999999999645, 61.50000000000000000 ) ) ;
#32 = AXIS2_PLACEMENT_3D ( 'NONE', #1160, #1068, #220 ) ;
#33 = EDGE_CURVE ( 'NONE', #467, #631, #410, .T. ) ;
#34 = CARTESIAN_POINT ( 'NONE',  ( -14.50099999999999767, -17.49999999999999645, 43.00000000000000000 ) ) ;
#35 = CARTESIAN_POINT ( 'NONE',  ( 3.142333204958820020E-14, 3.499999999999999556, 0.000000000000000000 ) ) ;
#36 = CARTESIAN_POINT ( 'NONE',  ( -14.50099999999999767, 17.49999999999999645, 61.50000000000000000 ) ) ;
#37 = FACE_OUTER_BOUND ( 'NONE', #746, .T. ) ;
#38 = EDGE_CURVE ( 'NONE', #86, #28, #1153, .T. ) ;
#39 = DIRECTION ( 'NONE',  ( 1.000000000000000000, -0.000000000000000000, -0.000000000000000000 ) ) ;
#40 = CYLINDRICAL_SURFACE ( 'NONE', #404, 2.000000000000001776 ) ;
#41 = EDGE_LOOP ( 'NONE', ( #948, #730 ) ) ;
#42 = DIRECTION ( 'NONE',  ( 0.000000000000000000, 0.000000000000000000, -1.000000000000000000 ) ) ;
#43 = CIRCLE ( 'NONE', #732, 12.50000000000000000 ) ;
#44 = LOCAL_TIME ( 2, 40, 9.000000000000000000, #455 ) ;
#45 = CARTESIAN_POINT ( 'NONE',  ( -2.000000000000000000, -17.49999999999999645, 43.00000000000000000 ) ) ;
#46 = AXIS2_PLACEMENT_3D ( 'NONE', #226, #874, #610 ) ;
#47 = CARTESIAN_POINT ( 'NONE',  ( -14.50099999999999767, -17.49999999999999645, 43.00000000000000000 ) ) ;
#48 = FACE_OUTER_BOUND ( 'NONE', #992, .T. ) ;
#49 = EDGE_LOOP ( 'NONE', ( #837, #994, #253, #289 ) ) ;
#50 = DIRECTION ( 'NONE',  ( 0.000000000000000000, 0.000000000000000000, -1.000000000000000000 ) ) ;
#51 = EDGE_CURVE ( 'NONE', #162, #998, #600, .T. ) ;
#52 = APPROVAL_ROLE ( '' ) ;
#53 = DIRECTION ( 'NONE',  ( 0.000000000000000000, 1.000000000000000000, 0.000000000000000000 ) ) ;
#54 = CARTESIAN_POINT ( 'NONE',  ( -3.500000000000000000, 0.000000000000000000, -2.000000000000000000 ) ) ;
#55 = EDGE_LOOP ( 'NONE', ( #587, #184, #1156, #257 ) ) ;
#56 = ORIENTED_EDGE ( 'NONE', *, *, #1175, .T. ) ;
#57 = CYLINDRICAL_SURFACE ( 'NONE', #1130, 2.000000000000001776 ) ;
#58 = VERTEX_POINT ( 'NONE', #580 ) ;
#59 = LINE ( 'NONE', #67, #701 ) ;
#60 = ORIENTED_EDGE ( 'NONE', *, *, #189, .T. ) ;
#61 = EDGE_CURVE ( 'NONE', #636, #162, #155, .T. ) ;
#62 = AXIS2_PLACEMENT_3D ( 'NONE', #760, #681, #951 ) ;
#63 = ADVANCED_FACE ( 'NONE', ( #922 ), #930, .T. ) ;
#64 = ORIENTED_EDGE ( 'NONE', *, *, #170, .T. ) ;
#65 = CARTESIAN_POINT ( 'NONE',  ( -7.250000000000000888, 1.530808498934190831E-16, 200.0010000000000048 ) ) ;
#66 = VERTEX_POINT ( 'NONE', #126 ) ;
#67 = CARTESIAN_POINT ( 'NONE',  ( 0.000000000000000000, -14.49999999999999822, 80.00000000000000000 ) ) ;
#68 = ORIENTED_EDGE ( 'NONE', *, *, #846, .F. ) ;
#69 = EDGE_CURVE ( 'NONE', #631, #395, #695, .T. ) ;
#70 = DIRECTION ( 'NONE',  ( 1.000000000000000000, -0.000000000000000000, -0.000000000000000000 ) ) ;
#71 = CARTESIAN_POINT ( 'NONE',  ( -14.50099999999999767, -17.49999999999999645, 75.00000000000000000 ) ) ;
#72 = ORIENTED_EDGE ( 'NONE', *, *, #1086, .T. ) ;
#73 = CARTESIAN_POINT ( 'NONE',  ( -14.50099999999999767, 17.49999999999999645, 59.50000000000000000 ) ) ;
#74 = EDGE_CURVE ( 'NONE', #488, #1064, #713, .T. ) ;
#75 = EDGE_CURVE ( 'NONE', #822, #998, #891, .T. ) ;
#76 = CARTESIAN_POINT ( 'NONE',  ( -9.750000000000000000, 0.000000000000000000, 200.0010000000000048 ) ) ;
#77 = ORIENTED_EDGE ( 'NONE', *, *, #303, .T. ) ;
#78 = DIRECTION ( 'NONE',  ( 0.000000000000000000, 1.000000000000000000, -1.269309860470834477E-16 ) ) ;
#79 = APPROVAL_DATE_TIME ( #377, #271 ) ;
#80 = CIRCLE ( 'NONE', #1053, 2.000000000000001776 ) ;
#81 = VECTOR ( 'NONE', #1140, 1000.000000000000000 ) ;
#82 = CARTESIAN_POINT ( 'NONE',  ( -3.500000000000000000, 0.000000000000000000, 0.000000000000000000 ) ) ;
#83 = AXIS2_PLACEMENT_3D ( 'NONE', #1141, #481, #14 ) ;
#84 = DIRECTION ( 'NONE',  ( -0.000000000000000000, -0.000000000000000000, 1.000000000000000000 ) ) ;
#85 = VERTEX_POINT ( 'NONE', #396 ) ;
#86 = VERTEX_POINT ( 'NONE', #31 ) ;
#87 = EDGE_CURVE ( 'NONE', #573, #205, #1049, .T. ) ;
#88 = AXIS2_PLACEMENT_3D ( 'NONE', #794, #1150, #1161 ) ;
#89 = CARTESIAN_POINT ( 'NONE',  ( 0.000000000000000000, -17.49999999999999645, 40.99999999999999289 ) ) ;
#90 = LINE ( 'NONE', #498, #541 ) ;
#91 = ORIENTED_EDGE ( 'NONE', *, *, #1061, .T. ) ;
#92 = ORIENTED_EDGE ( 'NONE', *, *, #354, .T. ) ;
#93 = CARTESIAN_POINT ( 'NONE',  ( -2.000000000000000000, 17.49999999999999645, 45.00000000000000000 ) ) ;
#94 = APPROVAL_STATUS ( 'not_yet_approved' ) ;
#95 = DIRECTION ( 'NONE',  ( 1.000000000000000000, -0.000000000000000000, -0.000000000000000000 ) ) ;
#96 = DIRECTION ( 'NONE',  ( -1.000000000000000000, 0.000000000000000000, 0.000000000000000000 ) ) ;
#97 = ORIENTED_EDGE ( 'NONE', *, *, #51, .F. ) ;
#98 = CARTESIAN_POINT ( 'NONE',  ( -2.000000000000000000, -17.49999999999999645, 79.00000000000000000 ) ) ;
#99 = CIRCLE ( 'NONE', #615, 2.000000000000001776 ) ;
#100 = EDGE_CURVE ( 'NONE', #718, #66, #335, .T. ) ;
#101 = APPLICATION_CONTEXT ( 'configuration controlled 3d designs of mechanical parts and assemblies' ) ;
#102 = CARTESIAN_POINT ( 'NONE',  ( -2.000000000000000000, 17.49999999999999645, 40.99999999999999289 ) ) ;
#103 = EDGE_CURVE ( 'NONE', #693, #904, #567, .T. ) ;
#104 = ORIENTED_EDGE ( 'NONE', *, *, #303, .F. ) ;
#105 = DIRECTION ( 'NONE',  ( 0.000000000000000000, 0.000000000000000000, 1.000000000000000000 ) ) ;
#106 = ORIENTED_EDGE ( 'NONE', *, *, #282, .F. ) ;
#107 = AXIS2_PLACEMENT_3D ( 'NONE', #864, #471, #477 ) ;
#108 = DIRECTION ( 'NONE',  ( -1.000000000000000000, 0.000000000000000000, 0.000000000000000000 ) ) ;
#109 = CARTESIAN_POINT ( 'NONE',  ( -2.000000000000000888, 20.49999999999999645, 80.00000000000000000 ) ) ;
#110 = DIRECTION ( 'NONE',  ( 0.000000000000000000, 0.000000000000000000, -1.000000000000000000 ) ) ;
#111 = AXIS2_PLACEMENT_3D ( 'NONE', #715, #1009, #819 ) ;
#112 = DIRECTION ( 'NONE',  ( 0.000000000000000000, 0.000000000000000000, -1.000000000000000000 ) ) ;
#113 = ORIENTED_EDGE ( 'NONE', *, *, #1093, .T. ) ;
#114 = MECHANICAL_CONTEXT ( 'NONE', #101, 'mechanical' ) ;
#115 = EDGE_LOOP ( 'NONE', ( #943, #401 ) ) ;
#116 = CARTESIAN_POINT ( 'NONE',  ( -2.000000000000001332, 14.36140661634506976, 80.00000000000001421 ) ) ;
#117 = CARTESIAN_POINT ( 'NONE',  ( -3.500000000000000000, 0.000000000000000000, 200.0010000000000048 ) ) ;
#118 = CYLINDRICAL_SURFACE ( 'NONE', #88, 3.500000000000000000 ) ;
#119 = LINE ( 'NONE', #1159, #483 ) ;
#120 = DIRECTION ( 'NONE',  ( 1.000000000000000000, -0.000000000000000000, -0.000000000000000000 ) ) ;
#121 = CIRCLE ( 'NONE', #238, 1.249999999999999334 ) ;
#122 = ADVANCED_FACE ( 'NONE', ( #586 ), #23, .F. ) ;
#123 = CARTESIAN_POINT ( 'NONE',  ( 3.491481338843130200E-15, -12.50000000000000000, 0.000000000000000000 ) ) ;
#124 = CYLINDRICAL_SURFACE ( 'NONE', #601, 2.000000000000001776 ) ;
#125 = LINE ( 'NONE', #36, #1168 ) ;
#126 = CARTESIAN_POINT ( 'NONE',  ( -9.750000000000000000, 0.000000000000000000, -2.000000000000000000 ) ) ;
#127 = APPROVAL ( #1017, 'UNSPECIFIED' ) ;
#128 = CARTESIAN_POINT ( 'NONE',  ( -2.000000000000000000, -17.49999999999999645, 45.00000000000000000 ) ) ;
#129 = VERTEX_POINT ( 'NONE', #93 ) ;
#130 = CYLINDRICAL_SURFACE ( 'NONE', #981, 1.249999999999999334 ) ;
#131 = DIRECTION ( 'NONE',  ( 1.000000000000000000, 0.000000000000000000, 0.000000000000000000 ) ) ;
#132 = ADVANCED_FACE ( 'NONE', ( #473 ), #937, .T. ) ;
#133 = EDGE_CURVE ( 'NONE', #745, #904, #778, .T. ) ;
#134 = LINE ( 'NONE', #1145, #542 ) ;
#135 = AXIS2_PLACEMENT_3D ( 'NONE', #34, #425, #319 ) ;
#136 = ORIENTED_EDGE ( 'NONE', *, *, #24, .F. ) ;
#137 = FACE_OUTER_BOUND ( 'NONE', #11, .T. ) ;
#138 = VECTOR ( 'NONE', #499, 1000.000000000000000 ) ;
#139 = ORIENTED_EDGE ( 'NONE', *, *, #284, .T. ) ;
#140 = CARTESIAN_POINT ( 'NONE',  ( -14.50099999999999767, 17.49999999999999645, 43.00000000000000000 ) ) ;
#141 = APPROVAL ( #174, 'UNSPECIFIED' ) ;
#142 = CARTESIAN_POINT ( 'NONE',  ( 0.000000000000000000, -17.49999999999999645, 77.00000000000000000 ) ) ;
#143 = CARTESIAN_POINT ( 'NONE',  ( 0.000000000000000000, -14.49999999999999822, 80.00000000000000000 ) ) ;
#144 = ORIENTED_EDGE ( 'NONE', *, *, #103, .F. ) ;
#145 = CARTESIAN_POINT ( 'NONE',  ( 0.000000000000000000, 3.500000000000000000, -2.000000000000000000 ) ) ;
#146 = ORIENTED_EDGE ( 'NONE', *, *, #475, .T. ) ;
#147 = EDGE_CURVE ( 'NONE', #28, #86, #540, .T. ) ;
#148 = EDGE_LOOP ( 'NONE', ( #163, #207, #194, #136 ) ) ;
#149 = VERTEX_POINT ( 'NONE', #853 ) ;
#150 = CARTESIAN_POINT ( 'NONE',  ( 0.000000000000000000, -17.49999999999999645, 45.00000000000000000 ) ) ;
#151 = ORIENTED_EDGE ( 'NONE', *, *, #469, .T. ) ;
#152 = DIRECTION ( 'NONE',  ( -0.000000000000000000, -0.000000000000000000, -1.000000000000000000 ) ) ;
#153 = ORGANIZATION ( 'UNSPECIFIED', 'UNSPECIFIED', '' ) ;
#154 = EDGE_CURVE ( 'NONE', #172, #659, #441, .T. ) ;
#155 = CIRCLE ( 'NONE', #964, 12.50000000000000000 ) ;
#156 = AXIS2_PLACEMENT_3D ( 'NONE', #171, #84, #1001 ) ;
#157 = VECTOR ( 'NONE', #585, 1000.000000000000000 ) ;
#158 = ORIENTED_EDGE ( 'NONE', *, *, #765, .T. ) ;
#159 = CARTESIAN_POINT ( 'NONE',  ( 0.000000000000000000, 20.49999999999999645, 39.00000000000000000 ) ) ;
#160 = CARTESIAN_POINT ( 'NONE',  ( 0.000000000000000000, -14.49999999999999822, -2.000000000000000000 ) ) ;
#161 = EDGE_LOOP ( 'NONE', ( #932, #958, #387, #19 ) ) ;
#162 = VERTEX_POINT ( 'NONE', #490 ) ;
#163 = ORIENTED_EDGE ( 'NONE', *, *, #1129, .T. ) ;
#164 = PLANE ( 'NONE',  #838 ) ;
#165 = CARTESIAN_POINT ( 'NONE',  ( 0.000000000000000000, 17.49999999999999645, 77.00000000000000000 ) ) ;
#166 = ORIENTED_EDGE ( 'NONE', *, *, #809, .T. ) ;
#167 = PERSON_AND_ORGANIZATION_ROLE ( 'design_supplier' ) ;
#168 = ORIENTED_EDGE ( 'NONE', *, *, #982, .T. ) ;
#169 = LINE ( 'NONE', #556, #251 ) ;
#170 = EDGE_CURVE ( 'NONE', #467, #468, #859, .T. ) ;
#171 = CARTESIAN_POINT ( 'NONE',  ( 0.000000000000000000, 0.000000000000000000, 0.000000000000000000 ) ) ;
#172 = VERTEX_POINT ( 'NONE', #98 ) ;
#173 = AXIS2_PLACEMENT_3D ( 'NONE', #109, #954, #200 ) ;
#174 = APPROVAL_STATUS ( 'not_yet_approved' ) ;
#175 = SECURITY_CLASSIFICATION ( '', '', #349 ) ;
#176 = CIRCLE ( 'NONE', #219, 2.000000000000001776 ) ;
#177 = FACE_BOUND ( 'NONE', #4, .T. ) ;
#178 = VECTOR ( 'NONE', #592, 1000.000000000000000 ) ;
#179 = DIRECTION ( 'NONE',  ( 0.000000000000000000, -0.000000000000000000, 1.000000000000000000 ) ) ;
#180 = VERTEX_POINT ( 'NONE', #20 ) ;
#181 = VERTEX_POINT ( 'NONE', #305 ) ;
#182 = PERSON_AND_ORGANIZATION ( #329, #153 ) ;
#183 = CARTESIAN_POINT ( 'NONE',  ( -7.347880794884123680E-16, -20.49999999999999645, 80.00000000000000000 ) ) ;
#184 = ORIENTED_EDGE ( 'NONE', *, *, #833, .F. ) ;
#185 = CARTESIAN_POINT ( 'NONE',  ( -14.50099999999999767, -20.49999999999999645, 39.00000000000000000 ) ) ;
#186 = ORIENTED_EDGE ( 'NONE', *, *, #557, .T. ) ;
#187 = ORIENTED_EDGE ( 'NONE', *, *, #189, .F. ) ;
#188 = CARTESIAN_POINT ( 'NONE',  ( -7.347880794884123680E-16, 20.49999999999999645, 80.00000000000000000 ) ) ;
#189 = EDGE_CURVE ( 'NONE', #817, #298, #854, .T. ) ;
#190 = EDGE_CURVE ( 'NONE', #129, #817, #290, .T. ) ;
#191 = DIRECTION ( 'NONE',  ( 0.000000000000000000, -1.000000000000000000, -0.000000000000000000 ) ) ;
#192 = DIRECTION ( 'NONE',  ( 0.000000000000000000, 0.000000000000000000, -1.000000000000000000 ) ) ;
#193 = ORIENTED_EDGE ( 'NONE', *, *, #709, .F. ) ;
#194 = ORIENTED_EDGE ( 'NONE', *, *, #982, .F. ) ;
#195 = ORIENTED_EDGE ( 'NONE', *, *, #557, .F. ) ;
#196 = CARTESIAN_POINT ( 'NONE',  ( 0.000000000000000000, -17.49999999999999645, 59.50000000000000000 ) ) ;
#197 = CIRCLE ( 'NONE', #887, 2.000000000000001776 ) ;
#198 = EDGE_CURVE ( 'NONE', #773, #85, #301, .T. ) ;
#199 = LOCAL_TIME ( 2, 40, 9.000000000000000000, #832 ) ;
#200 = DIRECTION ( 'NONE',  ( 0.000000000000000000, 0.000000000000000000, -1.000000000000000000 ) ) ;
#201 = VECTOR ( 'NONE', #786, 1000.000000000000000 ) ;
#202 = ORIENTED_EDGE ( 'NONE', *, *, #748, .F. ) ;
#203 = LINE ( 'NONE', #955, #484 ) ;
#204 = CARTESIAN_POINT ( 'NONE',  ( -8.500000000000000000, 0.000000000000000000, 200.0010000000000048 ) ) ;
#205 = VERTEX_POINT ( 'NONE', #769 ) ;
#206 = DIRECTION ( 'NONE',  ( -1.000000000000000000, 8.881784197001252323E-16, 0.000000000000000000 ) ) ;
#207 = ORIENTED_EDGE ( 'NONE', *, *, #884, .F. ) ;
#208 = CARTESIAN_POINT ( 'NONE',  ( -2.000000000000000888, 20.49999999999999645, 80.00000000000000000 ) ) ;
#209 = ORIENTED_EDGE ( 'NONE', *, *, #719, .T. ) ;
#210 = ORIENTED_EDGE ( 'NONE', *, *, #429, .T. ) ;
#211 = DIRECTION ( 'NONE',  ( 1.000000000000000000, 0.000000000000000000, -0.000000000000000000 ) ) ;
#212 = CARTESIAN_POINT ( 'NONE',  ( -2.000000000000000000, 17.49999999999999645, 59.50000000000000000 ) ) ;
#213 = CARTESIAN_POINT ( 'NONE',  ( -2.000000000000000000, -14.50000000000000000, -2.000000000000000000 ) ) ;
#214 = EDGE_CURVE ( 'NONE', #549, #249, #694, .T. ) ;
#215 = CARTESIAN_POINT ( 'NONE',  ( -2.000000000000000888, -14.36140661634506799, 80.00000000000000000 ) ) ;
#216 = CARTESIAN_POINT ( 'NONE',  ( 2.531323970661271367E-14, 0.000000000000000000, -2.000000000000000000 ) ) ;
#217 = AXIS2_PLACEMENT_3D ( 'NONE', #212, #311, #230 ) ;
#218 = CARTESIAN_POINT ( 'NONE',  ( 0.000000000000000000, 17.49999999999999645, 77.00000000000000000 ) ) ;
#219 = AXIS2_PLACEMENT_3D ( 'NONE', #1083, #1146, #703 ) ;
#220 = DIRECTION ( 'NONE',  ( 0.000000000000000000, 0.000000000000000000, -1.000000000000000000 ) ) ;
#221 = PRODUCT_RELATED_PRODUCT_CATEGORY ( 'detail', '', ( #486 ) ) ;
#222 = CIRCLE ( 'NONE', #462, 2.000000000000001776 ) ;
#223 = DIRECTION ( 'NONE',  ( 0.000000000000000000, 0.000000000000000000, -1.000000000000000000 ) ) ;
#224 = DESIGN_CONTEXT ( 'detailed design', #227, 'design' ) ;
#225 = DIRECTION ( 'NONE',  ( 1.000000000000000000, 0.000000000000000000, -0.000000000000000000 ) ) ;
#226 = CARTESIAN_POINT ( 'NONE',  ( -2.000000000000000000, 17.49999999999999645, 77.00000000000000000 ) ) ;
#227 = APPLICATION_CONTEXT ( 'configuration controlled 3d designs of mechanical parts and assemblies' ) ;
#228 = ADVANCED_FACE ( 'NONE', ( #494 ), #1122, .F. ) ;
#229 = EDGE_CURVE ( 'NONE', #1022, #322, #687, .T. ) ;
#230 = DIRECTION ( 'NONE',  ( 0.000000000000000000, 0.000000000000000000, -1.000000000000000000 ) ) ;
#231 = ORIENTED_EDGE ( 'NONE', *, *, #514, .F. ) ;
#232 = CARTESIAN_POINT ( 'NONE',  ( -2.000000000000000000, 17.49999999999999645, 43.00000000000000000 ) ) ;
#233 = ORIENTED_EDGE ( 'NONE', *, *, #356, .F. ) ;
#234 = CARTESIAN_POINT ( 'NONE',  ( -14.50099999999999767, 17.49999999999999645, 77.00000000000000000 ) ) ;
#235 = DIRECTION ( 'NONE',  ( 0.000000000000000000, -1.000000000000000000, -0.000000000000000000 ) ) ;
#236 =( GEOMETRIC_REPRESENTATION_CONTEXT ( 3 ) GLOBAL_UNCERTAINTY_ASSIGNED_CONTEXT ( ( #648 ) ) GLOBAL_UNIT_ASSIGNED_CONTEXT ( ( #1050, #1058, #696 ) ) REPRESENTATION_CONTEXT ( 'NONE', 'WORKASPACE' ) );
#237 = FACE_OUTER_BOUND ( 'NONE', #49, .T. ) ;
#238 = AXIS2_PLACEMENT_3D ( 'NONE', #737, #1098, #989 ) ;
#239 = EDGE_LOOP ( 'NONE', ( #1173, #916, #92, #843 ) ) ;
#240 = ORIENTED_EDGE ( 'NONE', *, *, #857, .F. ) ;
#241 = ORIENTED_EDGE ( 'NONE', *, *, #314, .T. ) ;
#242 = DIRECTION ( 'NONE',  ( 0.000000000000000000, 0.000000000000000000, -1.000000000000000000 ) ) ;
#243 = VERTEX_POINT ( 'NONE', #881 ) ;
#244 = CARTESIAN_POINT ( 'NONE',  ( 0.000000000000000000, -17.49999999999999645, 77.00000000000000000 ) ) ;
#245 = VERTEX_POINT ( 'NONE', #791 ) ;
#246 = DIRECTION ( 'NONE',  ( 0.000000000000000000, 0.000000000000000000, -1.000000000000000000 ) ) ;
#247 = DIRECTION ( 'NONE',  ( 0.000000000000000000, 0.000000000000000000, 1.000000000000000000 ) ) ;
#248 = EDGE_CURVE ( 'NONE', #751, #1020, #281, .T. ) ;
#249 = VERTEX_POINT ( 'NONE', #1060 ) ;
#250 = CARTESIAN_POINT ( 'NONE',  ( 0.000000000000000000, 14.50000000000000000, -2.000000000000000000 ) ) ;
#251 = VECTOR ( 'NONE', #53, 1000.000000000000000 ) ;
#252 = CARTESIAN_POINT ( 'NONE',  ( -2.000000000000000888, 20.49999999999999645, -2.000000000000000000 ) ) ;
#253 = ORIENTED_EDGE ( 'NONE', *, *, #38, .T. ) ;
#254 = ORIENTED_EDGE ( 'NONE', *, *, #248, .F. ) ;
#255 = PERSON_AND_ORGANIZATION_ROLE ( 'creator' ) ;
#256 = VECTOR ( 'NONE', #295, 1000.000000000000000 ) ;
#257 = ORIENTED_EDGE ( 'NONE', *, *, #307, .T. ) ;
#258 = ORIENTED_EDGE ( 'NONE', *, *, #133, .F. ) ;
#259 = DIRECTION ( 'NONE',  ( 0.000000000000000000, -1.269309860470834477E-16, 1.000000000000000000 ) ) ;
#260 = CARTESIAN_POINT ( 'NONE',  ( 0.000000000000000000, -14.50000000000000000, -2.000000000000000000 ) ) ;
#261 = ORIENTED_EDGE ( 'NONE', *, *, #1086, .F. ) ;
#262 = ORIENTED_EDGE ( 'NONE', *, *, #38, .F. ) ;
#263 = CALENDAR_DATE ( 2026, 24, 8 ) ;
#264 = ADVANCED_FACE ( 'NONE', ( #1152 ), #40, .F. ) ;
#265 = EDGE_LOOP ( 'NONE', ( #233, #767, #1037, #480 ) ) ;
#266 = CARTESIAN_POINT ( 'NONE',  ( -14.50099999999999767, -14.50000000000000000, -2.000000000000000000 ) ) ;
#267 = DIRECTION ( 'NONE',  ( 0.000000000000000000, -1.000000000000000000, 0.000000000000000000 ) ) ;
#268 = ORIENTED_EDGE ( 'NONE', *, *, #1031, .T. ) ;
#269 = ORIENTED_EDGE ( 'NONE', *, *, #905, .T. ) ;
#270 = PERSON_AND_ORGANIZATION ( #329, #153 ) ;
#271 = APPROVAL ( #94, 'UNSPECIFIED' ) ;
#272 = CARTESIAN_POINT ( 'NONE',  ( 0.000000000000000000, 17.49999999999999645, 59.50000000000000000 ) ) ;
#273 = DIRECTION ( 'NONE',  ( -1.000000000000000000, 0.000000000000000000, 0.000000000000000000 ) ) ;
#274 = VERTEX_POINT ( 'NONE', #411 ) ;
#275 = EDGE_LOOP ( 'NONE', ( #626, #755, #269, #1011 ) ) ;
#276 = CARTESIAN_POINT ( 'NONE',  ( -14.50099999999999767, 14.50000000000000000, -2.000000000000000000 ) ) ;
#277 = CC_DESIGN_APPROVAL ( #271, ( #27 ) ) ;
#278 = AXIS2_PLACEMENT_3D ( 'NONE', #196, #405, #579 ) ;
#279 = AXIS2_PLACEMENT_3D ( 'NONE', #276, #78, #568 ) ;
#280 = PLANE ( 'NONE',  #1166 ) ;
#281 = CIRCLE ( 'NONE', #952, 2.000000000000001776 ) ;
#282 = EDGE_CURVE ( 'NONE', #180, #149, #125, .T. ) ;
#283 = CARTESIAN_POINT ( 'NONE',  ( 0.000000000000000000, 17.49999999999999645, 43.00000000000000000 ) ) ;
#284 = EDGE_CURVE ( 'NONE', #773, #950, #581, .T. ) ;
#285 = ORIENTED_EDGE ( 'NONE', *, *, #74, .T. ) ;
#286 = DIRECTION ( 'NONE',  ( -1.000000000000000000, 0.000000000000000000, 0.000000000000000000 ) ) ;
#287 = PLANE ( 'NONE',  #173 ) ;
#288 = DIRECTION ( 'NONE',  ( -1.000000000000000000, 0.000000000000000000, -0.000000000000000000 ) ) ;
#289 = ORIENTED_EDGE ( 'NONE', *, *, #905, .F. ) ;
#290 = LINE ( 'NONE', #961, #178 ) ;
#291 = ADVANCED_FACE ( 'NONE', ( #714 ), #513, .F. ) ;
#292 = PRODUCT_DEFINITION_SHAPE ( 'NONE', 'NONE',  #805 ) ;
#293 = LINE ( 'NONE', #1025, #1182 ) ;
#294 = FACE_OUTER_BOUND ( 'NONE', #738, .T. ) ;
#295 = DIRECTION ( 'NONE',  ( 1.000000000000000000, 0.000000000000000000, -0.000000000000000000 ) ) ;
#296 = CC_DESIGN_PERSON_AND_ORGANIZATION_ASSIGNMENT ( #270, #569, ( #805 ) ) ;
#297 = CARTESIAN_POINT ( 'NONE',  ( 0.000000000000000000, 0.000000000000000000, 200.0000000000000000 ) ) ;
#298 = VERTEX_POINT ( 'NONE', #315 ) ;
#299 = PLANE ( 'NONE',  #107 ) ;
#300 = ORIENTED_EDGE ( 'NONE', *, *, #18, .T. ) ;
#301 = LINE ( 'NONE', #385, #256 ) ;
#302 = CARTESIAN_POINT ( 'NONE',  ( -2.000000000000000000, -14.50000000000000533, 39.00000000000000000 ) ) ;
#303 = EDGE_CURVE ( 'NONE', #745, #686, #505, .T. ) ;
#304 = CARTESIAN_POINT ( 'NONE',  ( -12.50000000000000000, 0.000000000000000000, 80.00000000000000000 ) ) ;
#305 = CARTESIAN_POINT ( 'NONE',  ( 0.000000000000000000, 17.49999999999999645, 79.00000000000000000 ) ) ;
#306 = DIRECTION ( 'NONE',  ( 0.000000000000000000, 0.000000000000000000, -1.000000000000000000 ) ) ;
#307 = EDGE_CURVE ( 'NONE', #631, #243, #973, .T. ) ;
#308 = DIRECTION ( 'NONE',  ( 1.000000000000000000, 0.000000000000000000, 0.000000000000000000 ) ) ;
#309 = DIRECTION ( 'NONE',  ( 0.000000000000000000, 0.000000000000000000, -1.000000000000000000 ) ) ;
#310 = FACE_OUTER_BOUND ( 'NONE', #608, .T. ) ;
#311 = DIRECTION ( 'NONE',  ( 1.000000000000000000, 0.000000000000000000, 0.000000000000000000 ) ) ;
#312 = EDGE_LOOP ( 'NONE', ( #852, #673, #782, #530 ) ) ;
#313 = CARTESIAN_POINT ( 'NONE',  ( -7.347880794884123680E-16, 20.49999999999999645, 80.00000000000000000 ) ) ;
#314 = EDGE_CURVE ( 'NONE', #58, #1169, #704, .T. ) ;
#315 = CARTESIAN_POINT ( 'NONE',  ( 0.000000000000000000, 17.49999999999999645, 40.99999999999999289 ) ) ;
#316 = AXIS2_PLACEMENT_3D ( 'NONE', #807, #434, #1074 ) ;
#317 = ADVANCED_FACE ( 'NONE', ( #310 ), #130, .F. ) ;
#318 = CIRCLE ( 'NONE', #584, 2.000000000000001776 ) ;
#319 = DIRECTION ( 'NONE',  ( 0.000000000000000000, 0.000000000000000000, -1.000000000000000000 ) ) ;
#320 = AXIS2_PLACEMENT_3D ( 'NONE', #218, #326, #42 ) ;
#321 = CARTESIAN_POINT ( 'NONE',  ( -2.000000000000000000, 20.49999999999999645, 39.00000000000000000 ) ) ;
#322 = VERTEX_POINT ( 'NONE', #54 ) ;
#323 = CARTESIAN_POINT ( 'NONE',  ( -2.000000000000000000, 20.49999999999999645, 39.00000000000000000 ) ) ;
#324 = CARTESIAN_POINT ( 'NONE',  ( 0.000000000000000000, 14.50000000000000000, -2.000000000000000000 ) ) ;
#325 = ORIENTED_EDGE ( 'NONE', *, *, #899, .F. ) ;
#326 = DIRECTION ( 'NONE',  ( -1.000000000000000000, -0.000000000000000000, -0.000000000000000000 ) ) ;
#327 = ORIENTED_EDGE ( 'NONE', *, *, #229, .T. ) ;
#328 = DIRECTION ( 'NONE',  ( 1.000000000000000000, 0.000000000000000000, 0.000000000000000000 ) ) ;
#329 = PERSON ( 'UNSPECIFIED', 'UNSPECIFIED', 'UNSPECIFIED', ('UNSPECIFIED'), ('UNSPECIFIED'), ('UNSPECIFIED') ) ;
#330 = ORIENTED_EDGE ( 'NONE', *, *, #649, .T. ) ;
#331 = VECTOR ( 'NONE', #1101, 1000.000000000000000 ) ;
#332 = LINE ( 'NONE', #250, #1121 ) ;
#333 = VECTOR ( 'NONE', #1047, 1000.000000000000000 ) ;
#334 = DIRECTION ( 'NONE',  ( 1.000000000000000000, 0.000000000000000000, -0.000000000000000000 ) ) ;
#335 = CIRCLE ( 'NONE', #1016, 1.249999999999999334 ) ;
#336 = CIRCLE ( 'NONE', #562, 2.000000000000001776 ) ;
#337 = ORIENTED_EDGE ( 'NONE', *, *, #884, .T. ) ;
#338 = ORIENTED_EDGE ( 'NONE', *, *, #824, .F. ) ;
#339 = EDGE_CURVE ( 'NONE', #395, #589, #1054, .T. ) ;
#340 = DIRECTION ( 'NONE',  ( 0.000000000000000000, 1.269309860470834477E-16, 1.000000000000000000 ) ) ;
#341 = FACE_BOUND ( 'NONE', #392, .T. ) ;
#342 = EDGE_LOOP ( 'NONE', ( #1178, #285, #613, #338 ) ) ;
#343 = ORIENTED_EDGE ( 'NONE', *, *, #918, .T. ) ;
#344 = DIRECTION ( 'NONE',  ( 0.000000000000000000, 0.000000000000000000, -1.000000000000000000 ) ) ;
#345 = EDGE_CURVE ( 'NONE', #1124, #1064, #422, .T. ) ;
#346 = DIRECTION ( 'NONE',  ( 0.000000000000000000, 0.000000000000000000, -1.000000000000000000 ) ) ;
#347 = EDGE_LOOP ( 'NONE', ( #258, #840, #510, #472 ) ) ;
#348 = ORIENTED_EDGE ( 'NONE', *, *, #214, .F. ) ;
#349 = SECURITY_CLASSIFICATION_LEVEL ( 'unclassified' ) ;
#350 = CARTESIAN_POINT ( 'NONE',  ( -14.50099999999999767, -14.50000000000000000, -2.000000000000000000 ) ) ;
#351 = CIRCLE ( 'NONE', #397, 2.000000000000001776 ) ;
#352 = AXIS2_PLACEMENT_3D ( 'NONE', #882, #974, #1142 ) ;
#353 = CARTESIAN_POINT ( 'NONE',  ( -2.000000000000000000, 17.49999999999999645, 57.49999999999999289 ) ) ;
#354 = EDGE_CURVE ( 'NONE', #915, #436, #336, .T. ) ;
#355 = LOCAL_TIME ( 2, 40, 9.000000000000000000, #980 ) ;
#356 = EDGE_CURVE ( 'NONE', #950, #773, #598, .T. ) ;
#357 = VECTOR ( 'NONE', #391, 1000.000000000000000 ) ;
#358 = VECTOR ( 'NONE', #267, 1000.000000000000000 ) ;
#359 = CIRCLE ( 'NONE', #763, 2.000000000000001776 ) ;
#360 = EDGE_LOOP ( 'NONE', ( #300, #478 ) ) ;
#361 = ORIENTED_EDGE ( 'NONE', *, *, #1129, .F. ) ;
#362 = PLANE ( 'NONE',  #578 ) ;
#363 = CARTESIAN_POINT ( 'NONE',  ( -12.50000000000000000, 0.000000000000000000, 80.00000000000000000 ) ) ;
#364 = ORIENTED_EDGE ( 'NONE', *, *, #69, .T. ) ;
#365 = EDGE_LOOP ( 'NONE', ( #337, #894, #144, #497, #97, #812, #1044, #555 ) ) ;
#366 = DIRECTION ( 'NONE',  ( 0.000000000000000000, 0.000000000000000000, -1.000000000000000000 ) ) ;
#367 = COORDINATED_UNIVERSAL_TIME_OFFSET ( 5, 30, .AHEAD. ) ;
#368 = DIRECTION ( 'NONE',  ( -1.000000000000000000, 0.000000000000000000, 0.000000000000000000 ) ) ;
#369 = LINE ( 'NONE', #825, #682 ) ;
#370 = ORIENTED_EDGE ( 'NONE', *, *, #74, .F. ) ;
#371 = ORIENTED_EDGE ( 'NONE', *, *, #450, .T. ) ;
#372 = ADVANCED_FACE ( 'NONE', ( #137 ), #895, .F. ) ;
#373 = CYLINDRICAL_SURFACE ( 'NONE', #924, 14.49999999999999822 ) ;
#374 = CARTESIAN_POINT ( 'NONE',  ( -2.000000000000000888, -14.36140661634506799, -2.000000000000000000 ) ) ;
#375 = ORIENTED_EDGE ( 'NONE', *, *, #1110, .T. ) ;
#376 = CARTESIAN_POINT ( 'NONE',  ( -14.50099999999999767, 20.49999999999999645, 39.00000000000000000 ) ) ;
#377 = DATE_AND_TIME ( #731, #44 ) ;
#378 = AXIS2_PLACEMENT_3D ( 'NONE', #216, #690, #890 ) ;
#379 = CIRCLE ( 'NONE', #639, 14.49999999999999822 ) ;
#380 = CARTESIAN_POINT ( 'NONE',  ( -14.50099999999999767, 17.49999999999999645, 43.00000000000000000 ) ) ;
#381 = EDGE_CURVE ( 'NONE', #1124, #243, #428, .T. ) ;
#382 = CARTESIAN_POINT ( 'NONE',  ( 2.531323970661271367E-14, 0.000000000000000000, -2.000000000000000000 ) ) ;
#383 = ORIENTED_EDGE ( 'NONE', *, *, #100, .T. ) ;
#384 = ORIENTED_EDGE ( 'NONE', *, *, #719, .F. ) ;
#385 = CARTESIAN_POINT ( 'NONE',  ( -14.50099999999999767, 17.49999999999999645, 75.00000000000000000 ) ) ;
#386 = DIRECTION ( 'NONE',  ( -1.000000000000000000, 0.000000000000000000, 0.000000000000000000 ) ) ;
#387 = ORIENTED_EDGE ( 'NONE', *, *, #61, .T. ) ;
#388 = DIRECTION ( 'NONE',  ( -1.000000000000000000, 0.000000000000000000, 0.000000000000000000 ) ) ;
#389 = CIRCLE ( 'NONE', #1062, 2.000000000000001776 ) ;
#390 = DIRECTION ( 'NONE',  ( -0.000000000000000000, -0.000000000000000000, -1.000000000000000000 ) ) ;
#391 = DIRECTION ( 'NONE',  ( 0.000000000000000000, 0.000000000000000000, -1.000000000000000000 ) ) ;
#392 = EDGE_LOOP ( 'NONE', ( #842, #1181 ) ) ;
#393 = FACE_OUTER_BOUND ( 'NONE', #836, .T. ) ;
#394 = CARTESIAN_POINT ( 'NONE',  ( -14.50099999999999767, 17.49999999999999645, 79.00000000000000000 ) ) ;
#395 = VERTEX_POINT ( 'NONE', #804 ) ;
#396 = CARTESIAN_POINT ( 'NONE',  ( 0.000000000000000000, 17.49999999999999645, 75.00000000000000000 ) ) ;
#397 = AXIS2_PLACEMENT_3D ( 'NONE', #272, #571, #1118 ) ;
#398 = ADVANCED_FACE ( 'NONE', ( #237 ), #620, .F. ) ;
#399 = LOCAL_TIME ( 2, 40, 9.000000000000000000, #923 ) ;
#400 = PERSON_AND_ORGANIZATION_ROLE ( 'design_owner' ) ;
#401 = ORIENTED_EDGE ( 'NONE', *, *, #100, .F. ) ;
#402 = LINE ( 'NONE', #783, #526 ) ;
#403 = EDGE_LOOP ( 'NONE', ( #106, #554, #516, #1174 ) ) ;
#404 = AXIS2_PLACEMENT_3D ( 'NONE', #234, #334, #716 ) ;
#405 = DIRECTION ( 'NONE',  ( 1.000000000000000000, 0.000000000000000000, 0.000000000000000000 ) ) ;
#406 = CARTESIAN_POINT ( 'NONE',  ( -2.000000000000000888, -20.49999999999999645, 80.00000000000000000 ) ) ;
#407 = CIRCLE ( 'NONE', #320, 2.000000000000001776 ) ;
#408 = CARTESIAN_POINT ( 'NONE',  ( -7.250000000000000888, 1.530808498934190831E-16, 0.000000000000000000 ) ) ;
#409 = VECTOR ( 'NONE', #246, 1000.000000000000000 ) ;
#410 = LINE ( 'NONE', #866, #81 ) ;
#411 = CARTESIAN_POINT ( 'NONE',  ( -14.49999999999997335, 0.000000000000000000, -2.000000000000000000 ) ) ;
#412 = DIRECTION ( 'NONE',  ( 1.000000000000000000, -0.000000000000000000, -0.000000000000000000 ) ) ;
#413 = EDGE_CURVE ( 'NONE', #245, #66, #1102, .T. ) ;
#414 = VERTEX_POINT ( 'NONE', #1192 ) ;
#415 = CARTESIAN_POINT ( 'NONE',  ( -7.250000000000000888, 1.530808498934190831E-16, -2.000000000000000000 ) ) ;
#416 = DIRECTION ( 'NONE',  ( 0.000000000000000000, 0.000000000000000000, 1.000000000000000000 ) ) ;
#417 = CARTESIAN_POINT ( 'NONE',  ( 0.000000000000000000, -3.500000000000000000, 200.0010000000000048 ) ) ;
#418 = APPLICATION_PROTOCOL_DEFINITION ( 'international standard', 'config_control_design', 1994, #101 ) ;
#419 = AXIS2_PLACEMENT_3D ( 'NONE', #1012, #485, #388 ) ;
#420 = CARTESIAN_POINT ( 'NONE',  ( -14.50099999999999767, 17.49999999999999645, 77.00000000000000000 ) ) ;
#421 = EDGE_CURVE ( 'NONE', #243, #988, #551, .T. ) ;
#422 = LINE ( 'NONE', #801, #1075 ) ;
#423 = AXIS2_PLACEMENT_3D ( 'NONE', #602, #963, #50 ) ;
#424 = VECTOR ( 'NONE', #390, 1000.000000000000000 ) ;
#425 = DIRECTION ( 'NONE',  ( 1.000000000000000000, -0.000000000000000000, -0.000000000000000000 ) ) ;
#426 = ORIENTED_EDGE ( 'NONE', *, *, #818, .F. ) ;
#427 = DIRECTION ( 'NONE',  ( 1.000000000000000000, 0.000000000000000000, -0.000000000000000000 ) ) ;
#428 = LINE ( 'NONE', #969, #1039 ) ;
#429 = EDGE_CURVE ( 'NONE', #436, #915, #442, .T. ) ;
#430 = AXIS2_PLACEMENT_3D ( 'NONE', #909, #70, #344 ) ;
#431 = ORIENTED_EDGE ( 'NONE', *, *, #314, .F. ) ;
#432 = CARTESIAN_POINT ( 'NONE',  ( -2.000000000000000000, 17.49999999999999645, 79.00000000000000000 ) ) ;
#433 = EDGE_LOOP ( 'NONE', ( #535, #371, #623, #912, #929, #77 ) ) ;
#434 = DIRECTION ( 'NONE',  ( 1.000000000000000000, 0.000000000000000000, -0.000000000000000000 ) ) ;
#435 = ADVANCED_FACE ( 'NONE', ( #341, #835, #1087, #1177 ), #722, .F. ) ;
#436 = VERTEX_POINT ( 'NONE', #1005 ) ;
#437 = DIRECTION ( 'NONE',  ( -1.000000000000000000, 0.000000000000000000, 0.000000000000000000 ) ) ;
#438 = ORIENTED_EDGE ( 'NONE', *, *, #1061, .F. ) ;
#439 = DIRECTION ( 'NONE',  ( -0.000000000000000000, -0.000000000000000000, -1.000000000000000000 ) ) ;
#440 = ORIENTED_EDGE ( 'NONE', *, *, #1151, .F. ) ;
#441 = CIRCLE ( 'NONE', #62, 2.000000000000001776 ) ;
#442 = CIRCLE ( 'NONE', #1000, 2.000000000000001776 ) ;
#443 = AXIS2_PLACEMENT_3D ( 'NONE', #487, #941, #288 ) ;
#444 = CC_DESIGN_PERSON_AND_ORGANIZATION_ASSIGNMENT ( #182, #1183, ( #175 ) ) ;
#445 = ORIENTED_EDGE ( 'NONE', *, *, #190, .F. ) ;
#446 = FACE_BOUND ( 'NONE', #710, .T. ) ;
#447 = ORIENTED_EDGE ( 'NONE', *, *, #1069, .F. ) ;
#448 = DIRECTION ( 'NONE',  ( 0.000000000000000000, 1.000000000000000000, 0.000000000000000000 ) ) ;
#449 = ORIENTED_EDGE ( 'NONE', *, *, #570, .T. ) ;
#450 = EDGE_CURVE ( 'NONE', #414, #205, #821, .T. ) ;
#451 = FACE_OUTER_BOUND ( 'NONE', #275, .T. ) ;
#452 = EDGE_CURVE ( 'NONE', #822, #636, #630, .T. ) ;
#453 = CARTESIAN_POINT ( 'NONE',  ( 0.000000000000000000, 17.49999999999999645, 59.50000000000000000 ) ) ;
#454 = ORIENTED_EDGE ( 'NONE', *, *, #381, .T. ) ;
#455 = COORDINATED_UNIVERSAL_TIME_OFFSET ( 5, 30, .AHEAD. ) ;
#456 = VERTEX_POINT ( 'NONE', #145 ) ;
#457 = DIRECTION ( 'NONE',  ( -1.000000000000000000, 0.000000000000000000, 0.000000000000000000 ) ) ;
#458 = CIRCLE ( 'NONE', #500, 2.000000000000001776 ) ;
#459 = CARTESIAN_POINT ( 'NONE',  ( -14.50099999999999767, -20.49999999999999645, 39.00000000000000000 ) ) ;
#460 = EDGE_LOOP ( 'NONE', ( #113, #670, #383, #1071 ) ) ;
#461 = PERSON_AND_ORGANIZATION ( #329, #153 ) ;
#462 = AXIS2_PLACEMENT_3D ( 'NONE', #453, #651, #531 ) ;
#463 = CIRCLE ( 'NONE', #622, 2.000000000000001776 ) ;
#464 = EDGE_LOOP ( 'NONE', ( #343, #712 ) ) ;
#465 = CARTESIAN_POINT ( 'NONE',  ( 0.000000000000000000, 12.50000000000000000, 80.00000000000001421 ) ) ;
#466 = LINE ( 'NONE', #160, #910 ) ;
#467 = VERTEX_POINT ( 'NONE', #744 ) ;
#468 = VERTEX_POINT ( 'NONE', #539 ) ;
#469 = EDGE_CURVE ( 'NONE', #149, #249, #222, .T. ) ;
#470 = DIRECTION ( 'NONE',  ( 1.000000000000000000, 0.000000000000000000, -0.000000000000000000 ) ) ;
#471 = DIRECTION ( 'NONE',  ( 0.000000000000000000, 0.000000000000000000, -1.000000000000000000 ) ) ;
#472 = ORIENTED_EDGE ( 'NONE', *, *, #103, .T. ) ;
#473 = FACE_OUTER_BOUND ( 'NONE', #740, .T. ) ;
#474 = PERSON_AND_ORGANIZATION ( #329, #153 ) ;
#475 = EDGE_CURVE ( 'NONE', #659, #436, #927, .T. ) ;
#476 = DIRECTION ( 'NONE',  ( 1.000000000000000000, -0.000000000000000000, -0.000000000000000000 ) ) ;
#477 = DIRECTION ( 'NONE',  ( -1.000000000000000000, 0.000000000000000000, -0.000000000000000000 ) ) ;
#478 = ORIENTED_EDGE ( 'NONE', *, *, #248, .T. ) ;
#479 = AXIS2_PLACEMENT_3D ( 'NONE', #380, #470, #856 ) ;
#480 = ORIENTED_EDGE ( 'NONE', *, *, #198, .F. ) ;
#481 = DIRECTION ( 'NONE',  ( -1.000000000000000000, -0.000000000000000000, -0.000000000000000000 ) ) ;
#482 = ORIENTED_EDGE ( 'NONE', *, *, #721, .T. ) ;
#483 = VECTOR ( 'NONE', #609, 1000.000000000000000 ) ;
#484 = VECTOR ( 'NONE', #766, 1000.000000000000000 ) ;
#485 = DIRECTION ( 'NONE',  ( -0.000000000000000000, -0.000000000000000000, 1.000000000000000000 ) ) ;
#486 = PRODUCT ( 'LinkGripperToArm_cover_top_sldprt', 'LinkGripperToArm_cover_top_sldprt', '', ( #114 ) ) ;
#487 = CARTESIAN_POINT ( 'NONE',  ( 0.000000000000000000, 0.000000000000000000, 80.00000000000000000 ) ) ;
#488 = VERTEX_POINT ( 'NONE', #260 ) ;
#489 = ORIENTED_EDGE ( 'NONE', *, *, #603, .F. ) ;
#490 = CARTESIAN_POINT ( 'NONE',  ( 0.000000000000000000, 12.50000000000000000, 0.000000000000000000 ) ) ;
#491 = LINE ( 'NONE', #21, #808 ) ;
#492 = CARTESIAN_POINT ( 'NONE',  ( -2.000000000000000888, 20.49999999999999645, 80.00000000000000000 ) ) ;
#493 = EDGE_CURVE ( 'NONE', #1169, #488, #369, .T. ) ;
#494 = FACE_OUTER_BOUND ( 'NONE', #460, .T. ) ;
#495 = FACE_OUTER_BOUND ( 'NONE', #723, .T. ) ;
#496 = PERSON_AND_ORGANIZATION ( #329, #153 ) ;
#497 = ORIENTED_EDGE ( 'NONE', *, *, #508, .F. ) ;
#498 = CARTESIAN_POINT ( 'NONE',  ( 0.000000000000000000, -20.49999999999999645, 39.00000000000000000 ) ) ;
#499 = DIRECTION ( 'NONE',  ( -0.000000000000000000, -0.000000000000000000, -1.000000000000000000 ) ) ;
#500 = AXIS2_PLACEMENT_3D ( 'NONE', #594, #1155, #306 ) ;
#501 = CARTESIAN_POINT ( 'NONE',  ( 1.920314736363723345E-14, -3.499999999999999556, -2.000000000000000000 ) ) ;
#502 = VECTOR ( 'NONE', #112, 1000.000000000000000 ) ;
#503 = DIRECTION ( 'NONE',  ( 1.000000000000000000, -0.000000000000000000, -0.000000000000000000 ) ) ;
#504 = CIRCLE ( 'NONE', #661, 3.500000000000000000 ) ;
#505 = LINE ( 'NONE', #323, #741 ) ;
#506 = ADVANCED_FACE ( 'NONE', ( #1172 ), #1010, .F. ) ;
#507 = CIRCLE ( 'NONE', #666, 1.249999999999999334 ) ;
#508 = EDGE_CURVE ( 'NONE', #998, #693, #59, .T. ) ;
#509 = FACE_OUTER_BOUND ( 'NONE', #787, .T. ) ;
#510 = ORIENTED_EDGE ( 'NONE', *, *, #583, .F. ) ;
#511 = LINE ( 'NONE', #612, #1117 ) ;
#512 = AXIS2_PLACEMENT_3D ( 'NONE', #811, #993, #829 ) ;
#513 = CYLINDRICAL_SURFACE ( 'NONE', #316, 2.000000000000001776 ) ;
#514 = EDGE_CURVE ( 'NONE', #1169, #322, #504, .T. ) ;
#515 = DIRECTION ( 'NONE',  ( -1.000000000000000000, 0.000000000000000000, -0.000000000000000000 ) ) ;
#516 = ORIENTED_EDGE ( 'NONE', *, *, #214, .T. ) ;
#517 = DIRECTION ( 'NONE',  ( -0.000000000000000000, -0.000000000000000000, -1.000000000000000000 ) ) ;
#518 = AXIS2_PLACEMENT_3D ( 'NONE', #1033, #940, #15 ) ;
#519 = CARTESIAN_POINT ( 'NONE',  ( 0.000000000000000000, 0.000000000000000000, -2.000000000000000000 ) ) ;
#520 = FACE_OUTER_BOUND ( 'NONE', #1045, .T. ) ;
#521 = DIRECTION ( 'NONE',  ( 1.000000000000000000, -0.000000000000000000, -0.000000000000000000 ) ) ;
#522 = VECTOR ( 'NONE', #914, 1000.000000000000000 ) ;
#523 = APPROVAL_DATE_TIME ( #931, #141 ) ;
#524 = DIRECTION ( 'NONE',  ( 0.000000000000000000, 0.000000000000000000, -1.000000000000000000 ) ) ;
#525 = CARTESIAN_POINT ( 'NONE',  ( -8.500000000000000000, 0.000000000000000000, 200.0010000000000048 ) ) ;
#526 = VECTOR ( 'NONE', #1138, 1000.000000000000000 ) ;
#527 = EDGE_CURVE ( 'NONE', #1022, #58, #780, .T. ) ;
#528 = EDGE_LOOP ( 'NONE', ( #752, #64, #793, #1006, #757, #1184, #820, #91, #879, #827 ) ) ;
#529 = FACE_BOUND ( 'NONE', #672, .T. ) ;
#530 = ORIENTED_EDGE ( 'NONE', *, *, #800, .F. ) ;
#531 = DIRECTION ( 'NONE',  ( 0.000000000000000000, 0.000000000000000000, -1.000000000000000000 ) ) ;
#532 = EDGE_LOOP ( 'NONE', ( #900, #986, #6, #447, #663, #1091 ) ) ;
#533 = CC_DESIGN_PERSON_AND_ORGANIZATION_ASSIGNMENT ( #474, #167, ( #27 ) ) ;
#534 = CIRCLE ( 'NONE', #997, 2.000000000000001776 ) ;
#535 = ORIENTED_EDGE ( 'NONE', *, *, #24, .T. ) ;
#536 = EDGE_LOOP ( 'NONE', ( #828, #327, #375, #193 ) ) ;
#537 = CYLINDRICAL_SURFACE ( 'NONE', #430, 2.000000000000001776 ) ;
#538 = ORIENTED_EDGE ( 'NONE', *, *, #452, .F. ) ;
#539 = CARTESIAN_POINT ( 'NONE',  ( 0.000000000000000000, -12.50000000000000000, 80.00000000000000000 ) ) ;
#540 = CIRCLE ( 'NONE', #278, 2.000000000000001776 ) ;
#541 = VECTOR ( 'NONE', #756, 1000.000000000000000 ) ;
#542 = VECTOR ( 'NONE', #872, 1000.000000000000000 ) ;
#543 = EDGE_CURVE ( 'NONE', #85, #181, #855, .T. ) ;
#544 = EDGE_CURVE ( 'NONE', #1189, #456, #466, .T. ) ;
#545 = ORIENTED_EDGE ( 'NONE', *, *, #170, .F. ) ;
#546 = DIRECTION ( 'NONE',  ( -0.000000000000000000, -0.000000000000000000, -1.000000000000000000 ) ) ;
#547 = DIRECTION ( 'NONE',  ( -1.745740669421566678E-15, -1.000000000000000000, -0.000000000000000000 ) ) ;
#548 = ORIENTED_EDGE ( 'NONE', *, *, #691, .F. ) ;
#549 = VERTEX_POINT ( 'NONE', #353 ) ;
#550 = CARTESIAN_POINT ( 'NONE',  ( 0.000000000000000000, -17.49999999999999645, 79.00000000000000000 ) ) ;
#551 = LINE ( 'NONE', #459, #762 ) ;
#552 = ORIENTED_EDGE ( 'NONE', *, *, #1055, .T. ) ;
#553 = SHAPE_DEFINITION_REPRESENTATION ( #292, #985 ) ;
#554 = ORIENTED_EDGE ( 'NONE', *, *, #1164, .F. ) ;
#555 = ORIENTED_EDGE ( 'NONE', *, *, #544, .F. ) ;
#556 = CARTESIAN_POINT ( 'NONE',  ( -2.000000000000000888, -20.49999999999999645, -2.000000000000000000 ) ) ;
#557 = EDGE_CURVE ( 'NONE', #771, #245, #121, .T. ) ;
#558 = AXIS2_PLACEMENT_3D ( 'NONE', #519, #223, #871 ) ;
#559 = DIRECTION ( 'NONE',  ( 0.000000000000000000, 0.000000000000000000, -1.000000000000000000 ) ) ;
#560 = DATE_TIME_ROLE ( 'classification_date' ) ;
#561 = AXIS2_PLACEMENT_3D ( 'NONE', #784, #790, #309 ) ;
#562 = AXIS2_PLACEMENT_3D ( 'NONE', #142, #328, #596 ) ;
#563 = DIRECTION ( 'NONE',  ( -1.000000000000000000, 0.000000000000000000, 0.000000000000000000 ) ) ;
#564 = FACE_BOUND ( 'NONE', #684, .T. ) ;
#565 = ORIENTED_EDGE ( 'NONE', *, *, #1013, .F. ) ;
#566 = VERTEX_POINT ( 'NONE', #645 ) ;
#567 = LINE ( 'NONE', #188, #502 ) ;
#568 = DIRECTION ( 'NONE',  ( 0.000000000000000000, 1.269309860470834477E-16, 1.000000000000000000 ) ) ;
#569 = PERSON_AND_ORGANIZATION_ROLE ( 'creator' ) ;
#570 = EDGE_CURVE ( 'NONE', #58, #1120, #203, .T. ) ;
#571 = DIRECTION ( 'NONE',  ( -1.000000000000000000, -0.000000000000000000, -0.000000000000000000 ) ) ;
#572 = CARTESIAN_POINT ( 'NONE',  ( 0.000000000000000000, 14.50000000000000533, 39.00000000000000000 ) ) ;
#573 = VERTEX_POINT ( 'NONE', #116 ) ;
#574 = CARTESIAN_POINT ( 'NONE',  ( 0.000000000000000000, -14.49999999999999822, 80.00000000000000000 ) ) ;
#575 = DIRECTION ( 'NONE',  ( -0.000000000000000000, -0.000000000000000000, 1.000000000000000000 ) ) ;
#576 = CARTESIAN_POINT ( 'NONE',  ( -2.000000000000000000, -17.49999999999999645, 75.00000000000000000 ) ) ;
#577 = ORIENTED_EDGE ( 'NONE', *, *, #1143, .T. ) ;
#578 = AXIS2_PLACEMENT_3D ( 'NONE', #350, #987, #259 ) ;
#579 = DIRECTION ( 'NONE',  ( 0.000000000000000000, 0.000000000000000000, -1.000000000000000000 ) ) ;
#580 = CARTESIAN_POINT ( 'NONE',  ( 0.000000000000000000, -3.500000000000000000, 0.000000000000000000 ) ) ;
#581 = CIRCLE ( 'NONE', #46, 2.000000000000001776 ) ;
#582 = FACE_OUTER_BOUND ( 'NONE', #1108, .T. ) ;
#583 = EDGE_CURVE ( 'NONE', #693, #619, #3, .T. ) ;
#584 = AXIS2_PLACEMENT_3D ( 'NONE', #232, #308, #789 ) ;
#585 = DIRECTION ( 'NONE',  ( 0.000000000000000000, -1.000000000000000000, 0.000000000000000000 ) ) ;
#586 = FACE_OUTER_BOUND ( 'NONE', #536, .T. ) ;
#587 = ORIENTED_EDGE ( 'NONE', *, *, #421, .T. ) ;
#588 = EDGE_CURVE ( 'NONE', #274, #205, #379, .T. ) ;
#589 = VERTEX_POINT ( 'NONE', #374 ) ;
#590 = FACE_BOUND ( 'NONE', #464, .T. ) ;
#591 = ORIENTED_EDGE ( 'NONE', *, *, #514, .T. ) ;
#592 = DIRECTION ( 'NONE',  ( 1.000000000000000000, 0.000000000000000000, -0.000000000000000000 ) ) ;
#593 = DIRECTION ( 'NONE',  ( -0.000000000000000000, 0.000000000000000000, -1.000000000000000000 ) ) ;
#594 = CARTESIAN_POINT ( 'NONE',  ( 0.000000000000000000, -17.49999999999999645, 43.00000000000000000 ) ) ;
#595 = DIRECTION ( 'NONE',  ( 0.000000000000000000, -1.269309860470834477E-16, 1.000000000000000000 ) ) ;
#596 = DIRECTION ( 'NONE',  ( 0.000000000000000000, 0.000000000000000000, -1.000000000000000000 ) ) ;
#597 = CYLINDRICAL_SURFACE ( 'NONE', #8, 2.000000000000001776 ) ;
#598 = CIRCLE ( 'NONE', #32, 2.000000000000001776 ) ;
#599 = PLANE ( 'NONE',  #875 ) ;
#600 = LINE ( 'NONE', #968, #870 ) ;
#601 = AXIS2_PLACEMENT_3D ( 'NONE', #420, #427, #524 ) ;
#602 = CARTESIAN_POINT ( 'NONE',  ( -14.50099999999999767, -17.49999999999999645, 77.00000000000000000 ) ) ;
#603 = EDGE_CURVE ( 'NONE', #172, #915, #664, .T. ) ;
#604 = ORIENTED_EDGE ( 'NONE', *, *, #493, .T. ) ;
#605 = FACE_OUTER_BOUND ( 'NONE', #643, .T. ) ;
#606 = EDGE_LOOP ( 'NONE', ( #707, #652 ) ) ;
#607 = AXIS2_PLACEMENT_3D ( 'NONE', #625, #634, #457 ) ;
#608 = EDGE_LOOP ( 'NONE', ( #68, #186, #1113, #166 ) ) ;
#609 = DIRECTION ( 'NONE',  ( 0.000000000000000000, -1.269309860470834477E-16, -1.000000000000000000 ) ) ;
#610 = DIRECTION ( 'NONE',  ( 0.000000000000000000, 0.000000000000000000, -1.000000000000000000 ) ) ;
#611 = ADVANCED_FACE ( 'NONE', ( #841 ), #678, .F. ) ;
#612 = CARTESIAN_POINT ( 'NONE',  ( 0.000000000000000000, 3.500000000000000000, 200.0010000000000048 ) ) ;
#613 = ORIENTED_EDGE ( 'NONE', *, *, #345, .F. ) ;
#614 = DIRECTION ( 'NONE',  ( 0.000000000000000000, -1.000000000000000000, 0.000000000000000000 ) ) ;
#615 = AXIS2_PLACEMENT_3D ( 'NONE', #1041, #95, #847 ) ;
#616 = CIRCLE ( 'NONE', #558, 3.500000000000000000 ) ;
#617 = EDGE_CURVE ( 'NONE', #1064, #988, #90, .T. ) ;
#618 = DIRECTION ( 'NONE',  ( -1.000000000000000000, 0.000000000000000000, 0.000000000000000000 ) ) ;
#619 = VERTEX_POINT ( 'NONE', #1112 ) ;
#620 = CYLINDRICAL_SURFACE ( 'NONE', #892, 2.000000000000001776 ) ;
#621 = AXIS2_PLACEMENT_3D ( 'NONE', #911, #439, #814 ) ;
#622 = AXIS2_PLACEMENT_3D ( 'NONE', #283, #1019, #192 ) ;
#623 = ORIENTED_EDGE ( 'NONE', *, *, #87, .F. ) ;
#624 = AXIS2_PLACEMENT_3D ( 'NONE', #313, #235, #1059 ) ;
#625 = CARTESIAN_POINT ( 'NONE',  ( 0.000000000000000000, 0.000000000000000000, 80.00000000000000000 ) ) ;
#626 = ORIENTED_EDGE ( 'NONE', *, *, #729, .F. ) ;
#627 = CARTESIAN_POINT ( 'NONE',  ( 0.000000000000000000, 0.000000000000000000, -2.000000000000000000 ) ) ;
#628 = ORIENTED_EDGE ( 'NONE', *, *, #765, .F. ) ;
#629 = LINE ( 'NONE', #65, #1081 ) ;
#630 = LINE ( 'NONE', #363, #1134 ) ;
#631 = VERTEX_POINT ( 'NONE', #685 ) ;
#632 = ADVANCED_FACE ( 'NONE', ( #861, #656 ), #299, .F. ) ;
#633 = EDGE_CURVE ( 'NONE', #619, #745, #1043, .T. ) ;
#634 = DIRECTION ( 'NONE',  ( -0.000000000000000000, -0.000000000000000000, -1.000000000000000000 ) ) ;
#635 = DIRECTION ( 'NONE',  ( -1.745740669421566678E-15, -1.000000000000000000, -0.000000000000000000 ) ) ;
#636 = VERTEX_POINT ( 'NONE', #1014 ) ;
#637 = AXIS2_PLACEMENT_3D ( 'NONE', #1133, #1023, #286 ) ;
#638 = VERTEX_POINT ( 'NONE', #572 ) ;
#639 = AXIS2_PLACEMENT_3D ( 'NONE', #382, #110, #273 ) ;
#640 = CALENDAR_DATE ( 2026, 24, 8 ) ;
#641 = AXIS2_PLACEMENT_3D ( 'NONE', #185, #179, #750 ) ;
#642 = EDGE_CURVE ( 'NONE', #950, #181, #1027, .T. ) ;
#643 = EDGE_LOOP ( 'NONE', ( #826, #168, #996, #1082, #231, #604, #942, #850, #56, #917 ) ) ;
#644 = CARTESIAN_POINT ( 'NONE',  ( -7.347880794884123680E-16, -20.49999999999999645, 80.00000000000000000 ) ) ;
#645 = CARTESIAN_POINT ( 'NONE',  ( -2.000000000000000000, -17.49999999999999645, 57.49999999999999289 ) ) ;
#646 = ORIENTED_EDGE ( 'NONE', *, *, #345, .T. ) ;
#647 = DATE_AND_TIME ( #640, #399 ) ;
#648 = UNCERTAINTY_MEASURE_WITH_UNIT (LENGTH_MEASURE( 1.000000000000000082E-05 ), #1050, 'distance_accuracy_value', 'NONE');
#649 = EDGE_CURVE ( 'NONE', #298, #817, #463, .T. ) ;
#650 = CARTESIAN_POINT ( 'NONE',  ( -2.000000000000000000, -17.49999999999999645, 77.00000000000000000 ) ) ;
#651 = DIRECTION ( 'NONE',  ( -1.000000000000000000, -0.000000000000000000, -0.000000000000000000 ) ) ;
#652 = ORIENTED_EDGE ( 'NONE', *, *, #1196, .T. ) ;
#653 = DATE_AND_TIME ( #263, #758 ) ;
#654 = CARTESIAN_POINT ( 'NONE',  ( 0.000000000000000000, 0.000000000000000000, 0.000000000000000000 ) ) ;
#655 = ADVANCED_FACE ( 'NONE', ( #294 ), #29, .F. ) ;
#656 = FACE_OUTER_BOUND ( 'NONE', #532, .T. ) ;
#657 = ORIENTED_EDGE ( 'NONE', *, *, #190, .T. ) ;
#658 = EDGE_LOOP ( 'NONE', ( #936, #907, #370, #1026, #431, #449, #628, #545 ) ) ;
#659 = VERTEX_POINT ( 'NONE', #576 ) ;
#660 = CALENDAR_DATE ( 2026, 24, 8 ) ;
#661 = AXIS2_PLACEMENT_3D ( 'NONE', #627, #346, #727 ) ;
#662 = DIRECTION ( 'NONE',  ( -1.745740669421566678E-15, -1.000000000000000000, -0.000000000000000000 ) ) ;
#663 = ORIENTED_EDGE ( 'NONE', *, *, #61, .F. ) ;
#664 = LINE ( 'NONE', #1106, #1056 ) ;
#665 = CC_DESIGN_DATE_AND_TIME_ASSIGNMENT ( #1007, #1104, ( #805 ) ) ;
#666 = AXIS2_PLACEMENT_3D ( 'NONE', #885, #1065, #618 ) ;
#667 = ORIENTED_EDGE ( 'NONE', *, *, #421, .F. ) ;
#668 = CARTESIAN_POINT ( 'NONE',  ( -14.50099999999999767, 17.49999999999999645, 57.49999999999999289 ) ) ;
#669 = CARTESIAN_POINT ( 'NONE',  ( 0.000000000000000000, -14.50000000000000533, 39.00000000000000000 ) ) ;
#670 = ORIENTED_EDGE ( 'NONE', *, *, #846, .T. ) ;
#671 = DIRECTION ( 'NONE',  ( 0.000000000000000000, 0.000000000000000000, -1.000000000000000000 ) ) ;
#672 = EDGE_LOOP ( 'NONE', ( #1158, #1085 ) ) ;
#673 = ORIENTED_EDGE ( 'NONE', *, *, #284, .F. ) ;
#674 = DIRECTION ( 'NONE',  ( -1.000000000000000000, 0.000000000000000000, 0.000000000000000000 ) ) ;
#675 = ADVANCED_FACE ( 'NONE', ( #590, #564, #1119, #934 ), #858, .T. ) ;
#676 = EDGE_CURVE ( 'NONE', #619, #573, #851, .T. ) ;
#677 = DIRECTION ( 'NONE',  ( 0.000000000000000000, 0.000000000000000000, -1.000000000000000000 ) ) ;
#678 = PLANE ( 'NONE',  #443 ) ;
#679 = AXIS2_PLACEMENT_3D ( 'NONE', #839, #834, #563 ) ;
#680 = VECTOR ( 'NONE', #1063, 1000.000000000000000 ) ;
#681 = DIRECTION ( 'NONE',  ( 1.000000000000000000, -0.000000000000000000, -0.000000000000000000 ) ) ;
#682 = VECTOR ( 'NONE', #635, 1000.000000000000000 ) ;
#683 = CARTESIAN_POINT ( 'NONE',  ( 0.000000000000000000, 0.000000000000000000, 0.000000000000000000 ) ) ;
#684 = EDGE_LOOP ( 'NONE', ( #1002, #482 ) ) ;
#685 = CARTESIAN_POINT ( 'NONE',  ( -2.000000000000000888, -20.49999999999999645, 80.00000000000000000 ) ) ;
#686 = VERTEX_POINT ( 'NONE', #12 ) ;
#687 = LINE ( 'NONE', #117, #138 ) ;
#688 = CARTESIAN_POINT ( 'NONE',  ( -14.50099999999999767, 20.49999999999999645, 39.00000000000000000 ) ) ;
#689 = VECTOR ( 'NONE', #595, 1000.000000000000000 ) ;
#690 = DIRECTION ( 'NONE',  ( 0.000000000000000000, 0.000000000000000000, -1.000000000000000000 ) ) ;
#691 = EDGE_CURVE ( 'NONE', #1107, #274, #17, .T. ) ;
#692 = LINE ( 'NONE', #213, #689 ) ;
#693 = VERTEX_POINT ( 'NONE', #772 ) ;
#694 = LINE ( 'NONE', #668, #816 ) ;
#695 = LINE ( 'NONE', #406, #201 ) ;
#696 =( NAMED_UNIT ( * ) SI_UNIT ( $, .STERADIAN. ) SOLID_ANGLE_UNIT ( ) );
#697 = FACE_OUTER_BOUND ( 'NONE', #347, .T. ) ;
#698 = ADVANCED_FACE ( 'NONE', ( #1125 ), #124, .F. ) ;
#699 = DIRECTION ( 'NONE',  ( 1.000000000000000000, 0.000000000000000000, -0.000000000000000000 ) ) ;
#700 = DIRECTION ( 'NONE',  ( 0.000000000000000000, 0.000000000000000000, -1.000000000000000000 ) ) ;
#701 = VECTOR ( 'NONE', #448, 1000.000000000000000 ) ;
#702 = DIRECTION ( 'NONE',  ( -0.000000000000000000, -0.000000000000000000, -1.000000000000000000 ) ) ;
#703 = DIRECTION ( 'NONE',  ( 0.000000000000000000, 0.000000000000000000, 1.000000000000000000 ) ) ;
#704 = LINE ( 'NONE', #417, #965 ) ;
#705 = LINE ( 'NONE', #971, #680 ) ;
#706 = DIRECTION ( 'NONE',  ( 0.000000000000000000, 0.000000000000000000, -1.000000000000000000 ) ) ;
#707 = ORIENTED_EDGE ( 'NONE', *, *, #1164, .T. ) ;
#708 = DIRECTION ( 'NONE',  ( 0.000000000000000000, 0.000000000000000000, -1.000000000000000000 ) ) ;
#709 = EDGE_CURVE ( 'NONE', #725, #456, #511, .T. ) ;
#710 = EDGE_LOOP ( 'NONE', ( #552, #151 ) ) ;
#711 = CARTESIAN_POINT ( 'NONE',  ( -14.50099999999999767, 17.49999999999999645, 40.99999999999999289 ) ) ;
#712 = ORIENTED_EDGE ( 'NONE', *, *, #154, .T. ) ;
#713 = LINE ( 'NONE', #889, #761 ) ;
#714 = FACE_OUTER_BOUND ( 'NONE', #1149, .T. ) ;
#715 = CARTESIAN_POINT ( 'NONE',  ( -14.50099999999999767, -17.49999999999999645, 77.00000000000000000 ) ) ;
#716 = DIRECTION ( 'NONE',  ( 0.000000000000000000, 0.000000000000000000, -1.000000000000000000 ) ) ;
#717 = VECTOR ( 'NONE', #1187, 1000.000000000000000 ) ;
#718 = VERTEX_POINT ( 'NONE', #415 ) ;
#719 = EDGE_CURVE ( 'NONE', #1090, #129, #318, .T. ) ;
#720 = DIRECTION ( 'NONE',  ( 0.000000000000000000, 0.000000000000000000, 1.000000000000000000 ) ) ;
#721 = EDGE_CURVE ( 'NONE', #1028, #566, #359, .T. ) ;
#722 = PLANE ( 'NONE',  #1154 ) ;
#723 = EDGE_LOOP ( 'NONE', ( #1103, #440, #361, #104 ) ) ;
#724 = ORIENTED_EDGE ( 'NONE', *, *, #1055, .F. ) ;
#725 = VERTEX_POINT ( 'NONE', #35 ) ;
#726 = FACE_OUTER_BOUND ( 'NONE', #365, .T. ) ;
#727 = DIRECTION ( 'NONE',  ( -1.000000000000000000, 0.000000000000000000, 0.000000000000000000 ) ) ;
#728 = ORIENTED_EDGE ( 'NONE', *, *, #1175, .F. ) ;
#729 = EDGE_CURVE ( 'NONE', #1028, #86, #803, .T. ) ;
#730 = ORIENTED_EDGE ( 'NONE', *, *, #1042, .F. ) ;
#731 = CALENDAR_DATE ( 2026, 24, 8 ) ;
#732 = AXIS2_PLACEMENT_3D ( 'NONE', #683, #9, #368 ) ;
#733 = ORIENTED_EDGE ( 'NONE', *, *, #1196, .F. ) ;
#734 = EDGE_LOOP ( 'NONE', ( #1015, #262 ) ) ;
#735 = DIRECTION ( 'NONE',  ( 1.000000000000000000, -0.000000000000000000, -0.000000000000000000 ) ) ;
#736 = VECTOR ( 'NONE', #946, 1000.000000000000000 ) ;
#737 = CARTESIAN_POINT ( 'NONE',  ( -8.500000000000000000, 0.000000000000000000, 0.000000000000000000 ) ) ;
#738 = EDGE_LOOP ( 'NONE', ( #646, #742, #667, #1162 ) ) ;
#739 = CLOSED_SHELL ( 'NONE', ( #264, #291, #991, #862, #398, #1127, #228, #122, #506, #132, #1024, #869, #802, #788, #970, #883, #435, #632, #779, #317, #675, #960, #611, #655, #920, #1190, #876, #372, #63, #16, #768, #938, #698 ) ) ;
#740 = EDGE_LOOP ( 'NONE', ( #240, #1194, #728, #777 ) ) ;
#741 = VECTOR ( 'NONE', #614, 1000.000000000000000 ) ;
#742 = ORIENTED_EDGE ( 'NONE', *, *, #617, .T. ) ;
#743 = FACE_BOUND ( 'NONE', #1008, .T. ) ;
#744 = CARTESIAN_POINT ( 'NONE',  ( -7.347880794884123680E-16, -20.49999999999999645, 80.00000000000000000 ) ) ;
#745 = VERTEX_POINT ( 'NONE', #321 ) ;
#746 = EDGE_LOOP ( 'NONE', ( #426, #1170, #72, #577 ) ) ;
#747 = PERSON_AND_ORGANIZATION ( #329, #153 ) ;
#748 = EDGE_CURVE ( 'NONE', #1090, #298, #799, .T. ) ;
#749 = FACE_BOUND ( 'NONE', #606, .T. ) ;
#750 = DIRECTION ( 'NONE',  ( 1.000000000000000000, 0.000000000000000000, -0.000000000000000000 ) ) ;
#751 = VERTEX_POINT ( 'NONE', #128 ) ;
#752 = ORIENTED_EDGE ( 'NONE', *, *, #33, .F. ) ;
#753 = CC_DESIGN_PERSON_AND_ORGANIZATION_ASSIGNMENT ( #461, #255, ( #27 ) ) ;
#754 = CARTESIAN_POINT ( 'NONE',  ( -2.000000000000000000, -17.49999999999999645, 61.50000000000000000 ) ) ;
#755 = ORIENTED_EDGE ( 'NONE', *, *, #1003, .F. ) ;
#756 = DIRECTION ( 'NONE',  ( -0.000000000000000000, -1.000000000000000000, -0.000000000000000000 ) ) ;
#757 = ORIENTED_EDGE ( 'NONE', *, *, #508, .T. ) ;
#758 = LOCAL_TIME ( 2, 40, 9.000000000000000000, #367 ) ;
#759 = ORIENTED_EDGE ( 'NONE', *, *, #339, .T. ) ;
#760 = CARTESIAN_POINT ( 'NONE',  ( -2.000000000000000000, -17.49999999999999645, 77.00000000000000000 ) ) ;
#761 = VECTOR ( 'NONE', #1116, 1000.000000000000000 ) ;
#762 = VECTOR ( 'NONE', #830, 1000.000000000000000 ) ;
#763 = AXIS2_PLACEMENT_3D ( 'NONE', #1048, #39, #976 ) ;
#764 = CARTESIAN_POINT ( 'NONE',  ( -2.000000000000000888, -14.50000000000000178, -2.000000000000000000 ) ) ;
#765 = EDGE_CURVE ( 'NONE', #468, #1120, #134, .T. ) ;
#766 = DIRECTION ( 'NONE',  ( -1.745740669421566678E-15, -1.000000000000000000, -0.000000000000000000 ) ) ;
#767 = ORIENTED_EDGE ( 'NONE', *, *, #642, .T. ) ;
#768 = ADVANCED_FACE ( 'NONE', ( #520 ), #897, .F. ) ;
#769 = CARTESIAN_POINT ( 'NONE',  ( -2.000000000000000888, 14.36140661634506799, -2.000000000000000000 ) ) ;
#770 = FACE_BOUND ( 'NONE', #1067, .T. ) ;
#771 = VERTEX_POINT ( 'NONE', #408 ) ;
#772 = CARTESIAN_POINT ( 'NONE',  ( -7.347880794884123680E-16, 20.49999999999999645, 80.00000000000000000 ) ) ;
#773 = VERTEX_POINT ( 'NONE', #893 ) ;
#774 = DIRECTION ( 'NONE',  ( -0.000000000000000000, -0.000000000000000000, -1.000000000000000000 ) ) ;
#775 = DIRECTION ( 'NONE',  ( -1.000000000000000000, 0.000000000000000000, 0.000000000000000000 ) ) ;
#776 = CARTESIAN_POINT ( 'NONE',  ( -7.347880794884123680E-16, 20.49999999999999645, 80.00000000000000000 ) ) ;
#777 = ORIENTED_EDGE ( 'NONE', *, *, #339, .F. ) ;
#778 = LINE ( 'NONE', #376, #810 ) ;
#779 = ADVANCED_FACE ( 'NONE', ( #48 ), #118, .F. ) ;
#780 = CIRCLE ( 'NONE', #156, 3.500000000000000000 ) ;
#781 = APPLICATION_PROTOCOL_DEFINITION ( 'international standard', 'config_control_design', 1994, #227 ) ;
#782 = ORIENTED_EDGE ( 'NONE', *, *, #198, .T. ) ;
#783 = CARTESIAN_POINT ( 'NONE',  ( -14.50099999999999767, -17.49999999999999645, 45.00000000000000000 ) ) ;
#784 = CARTESIAN_POINT ( 'NONE',  ( 0.000000000000000000, -17.49999999999999645, 59.50000000000000000 ) ) ;
#785 = DIRECTION ( 'NONE',  ( -1.000000000000000000, 0.000000000000000000, 0.000000000000000000 ) ) ;
#786 = DIRECTION ( 'NONE',  ( 0.000000000000000000, 1.000000000000000000, 0.000000000000000000 ) ) ;
#787 = EDGE_LOOP ( 'NONE', ( #254, #956, #1100, #261 ) ) ;
#788 = ADVANCED_FACE ( 'NONE', ( #697 ), #1052, .F. ) ;
#789 = DIRECTION ( 'NONE',  ( 0.000000000000000000, 0.000000000000000000, -1.000000000000000000 ) ) ;
#790 = DIRECTION ( 'NONE',  ( 1.000000000000000000, 0.000000000000000000, 0.000000000000000000 ) ) ;
#791 = CARTESIAN_POINT ( 'NONE',  ( -9.750000000000000000, 0.000000000000000000, 0.000000000000000000 ) ) ;
#792 = CARTESIAN_POINT ( 'NONE',  ( -2.000000000000000000, 17.49999999999999645, 59.50000000000000000 ) ) ;
#793 = ORIENTED_EDGE ( 'NONE', *, *, #1013, .T. ) ;
#794 = CARTESIAN_POINT ( 'NONE',  ( 0.000000000000000000, 0.000000000000000000, 200.0010000000000048 ) ) ;
#795 = DIRECTION ( 'NONE',  ( -0.000000000000000000, -0.000000000000000000, -1.000000000000000000 ) ) ;
#796 = CIRCLE ( 'NONE', #679, 12.50000000000000000 ) ;
#797 = LINE ( 'NONE', #1148, #333 ) ;
#798 = VECTOR ( 'NONE', #671, 1000.000000000000000 ) ;
#799 = LINE ( 'NONE', #711, #1040 ) ;
#800 = EDGE_CURVE ( 'NONE', #181, #85, #407, .T. ) ;
#801 = CARTESIAN_POINT ( 'NONE',  ( -14.50099999999999767, -14.50000000000000533, 39.00000000000000000 ) ) ;
#802 = ADVANCED_FACE ( 'NONE', ( #1157, #605 ), #599, .T. ) ;
#803 = LINE ( 'NONE', #1072, #1057 ) ;
#804 = CARTESIAN_POINT ( 'NONE',  ( -2.000000000000001332, -14.36140661634506976, 80.00000000000001421 ) ) ;
#805 = PRODUCT_DEFINITION ( 'UNKNOWN', '', #27, #224 ) ;
#806 = FACE_OUTER_BOUND ( 'NONE', #342, .T. ) ;
#807 = CARTESIAN_POINT ( 'NONE',  ( -14.50099999999999767, 17.49999999999999645, 59.50000000000000000 ) ) ;
#808 = VECTOR ( 'NONE', #476, 1000.000000000000000 ) ;
#809 = EDGE_CURVE ( 'NONE', #66, #718, #507, .T. ) ;
#810 = VECTOR ( 'NONE', #7, 1000.000000000000000 ) ;
#811 = CARTESIAN_POINT ( 'NONE',  ( 0.000000000000000000, 0.000000000000000000, 80.00000000000001421 ) ) ;
#812 = ORIENTED_EDGE ( 'NONE', *, *, #1069, .T. ) ;
#813 = AXIS2_PLACEMENT_3D ( 'NONE', #688, #593, #1076 ) ;
#814 = DIRECTION ( 'NONE',  ( -1.000000000000000000, 0.000000000000000000, 0.000000000000000000 ) ) ;
#815 = ORIENTED_EDGE ( 'NONE', *, *, #527, .T. ) ;
#816 = VECTOR ( 'NONE', #211, 1000.000000000000000 ) ;
#817 = VERTEX_POINT ( 'NONE', #983 ) ;
#818 = EDGE_CURVE ( 'NONE', #751, #865, #402, .T. ) ;
#819 = DIRECTION ( 'NONE',  ( 0.000000000000000000, 0.000000000000000000, -1.000000000000000000 ) ) ;
#820 = ORIENTED_EDGE ( 'NONE', *, *, #676, .T. ) ;
#821 = LINE ( 'NONE', #252, #358 ) ;
#822 = VERTEX_POINT ( 'NONE', #304 ) ;
#823 = LINE ( 'NONE', #902, #331 ) ;
#824 = EDGE_CURVE ( 'NONE', #1035, #1124, #692, .T. ) ;
#825 = CARTESIAN_POINT ( 'NONE',  ( 0.000000000000000000, -14.49999999999999822, -2.000000000000000000 ) ) ;
#826 = ORIENTED_EDGE ( 'NONE', *, *, #450, .F. ) ;
#827 = ORIENTED_EDGE ( 'NONE', *, *, #69, .F. ) ;
#828 = ORIENTED_EDGE ( 'NONE', *, *, #1077, .T. ) ;
#829 = DIRECTION ( 'NONE',  ( 1.000000000000000000, 0.000000000000000000, 0.000000000000000000 ) ) ;
#830 = DIRECTION ( 'NONE',  ( 1.000000000000000000, -0.000000000000000000, -0.000000000000000000 ) ) ;
#831 = AXIS2_PLACEMENT_3D ( 'NONE', #165, #903, #1180 ) ;
#832 = COORDINATED_UNIVERSAL_TIME_OFFSET ( 5, 30, .AHEAD. ) ;
#833 = EDGE_CURVE ( 'NONE', #467, #988, #962, .T. ) ;
#834 = DIRECTION ( 'NONE',  ( 0.000000000000000000, 0.000000000000000000, -1.000000000000000000 ) ) ;
#835 = FACE_BOUND ( 'NONE', #734, .T. ) ;
#836 = EDGE_LOOP ( 'NONE', ( #325, #657, #925, #202 ) ) ;
#837 = ORIENTED_EDGE ( 'NONE', *, *, #721, .F. ) ;
#838 = AXIS2_PLACEMENT_3D ( 'NONE', #143, #437, #720 ) ;
#839 = CARTESIAN_POINT ( 'NONE',  ( 0.000000000000000000, 0.000000000000000000, 80.00000000000000000 ) ) ;
#840 = ORIENTED_EDGE ( 'NONE', *, *, #633, .F. ) ;
#841 = FACE_OUTER_BOUND ( 'NONE', #528, .T. ) ;
#842 = ORIENTED_EDGE ( 'NONE', *, *, #429, .F. ) ;
#843 = ORIENTED_EDGE ( 'NONE', *, *, #475, .F. ) ;
#844 = CARTESIAN_POINT ( 'NONE',  ( 0.000000000000000000, 0.000000000000000000, 200.0010000000000048 ) ) ;
#845 = PERSON_AND_ORGANIZATION ( #329, #153 ) ;
#846 = EDGE_CURVE ( 'NONE', #771, #718, #629, .T. ) ;
#847 = DIRECTION ( 'NONE',  ( 0.000000000000000000, 0.000000000000000000, 1.000000000000000000 ) ) ;
#848 = EDGE_CURVE ( 'NONE', #1035, #488, #1004, .T. ) ;
#849 = APPROVAL_PERSON_ORGANIZATION ( #1137, #141, #896 ) ;
#850 = ORIENTED_EDGE ( 'NONE', *, *, #945, .T. ) ;
#851 = LINE ( 'NONE', #492, #157 ) ;
#852 = ORIENTED_EDGE ( 'NONE', *, *, #642, .F. ) ;
#853 = CARTESIAN_POINT ( 'NONE',  ( 0.000000000000000000, 17.49999999999999645, 61.50000000000000000 ) ) ;
#854 = CIRCLE ( 'NONE', #83, 2.000000000000001776 ) ;
#855 = CIRCLE ( 'NONE', #831, 2.000000000000001776 ) ;
#856 = DIRECTION ( 'NONE',  ( 0.000000000000000000, 0.000000000000000000, -1.000000000000000000 ) ) ;
#857 = EDGE_CURVE ( 'NONE', #1107, #395, #1021, .T. ) ;
#858 = PLANE ( 'NONE',  #953 ) ;
#859 = LINE ( 'NONE', #574, #10 ) ;
#860 = FACE_OUTER_BOUND ( 'NONE', #433, .T. ) ;
#861 = FACE_BOUND ( 'NONE', #1029, .T. ) ;
#862 = ADVANCED_FACE ( 'NONE', ( #913 ), #1176, .F. ) ;
#863 = DIRECTION ( 'NONE',  ( -0.000000000000000000, -0.000000000000000000, -1.000000000000000000 ) ) ;
#864 = CARTESIAN_POINT ( 'NONE',  ( 2.531323970661271367E-14, 0.000000000000000000, 0.000000000000000000 ) ) ;
#865 = VERTEX_POINT ( 'NONE', #150 ) ;
#866 = CARTESIAN_POINT ( 'NONE',  ( -7.347880794884123680E-16, -20.49999999999999645, 80.00000000000000000 ) ) ;
#867 = CIRCLE ( 'NONE', #217, 2.000000000000001776 ) ;
#868 = CARTESIAN_POINT ( 'NONE',  ( 0.000000000000000000, 0.000000000000000000, 200.0000000000000000 ) ) ;
#869 = ADVANCED_FACE ( 'NONE', ( #529, #446, #743, #726 ), #164, .F. ) ;
#870 = VECTOR ( 'NONE', #416, 1000.000000000000000 ) ;
#871 = DIRECTION ( 'NONE',  ( -1.000000000000000000, 0.000000000000000000, 0.000000000000000000 ) ) ;
#872 = DIRECTION ( 'NONE',  ( -0.000000000000000000, -0.000000000000000000, -1.000000000000000000 ) ) ;
#873 = CARTESIAN_POINT ( 'NONE',  ( 0.000000000000000000, -17.49999999999999645, 57.49999999999999289 ) ) ;
#874 = DIRECTION ( 'NONE',  ( 1.000000000000000000, 0.000000000000000000, 0.000000000000000000 ) ) ;
#875 = AXIS2_PLACEMENT_3D ( 'NONE', #967, #972, #515 ) ;
#876 = ADVANCED_FACE ( 'NONE', ( #451 ), #537, .F. ) ;
#877 = VECTOR ( 'NONE', #1179, 1000.000000000000000 ) ;
#878 = CYLINDRICAL_SURFACE ( 'NONE', #135, 2.000000000000001776 ) ;
#879 = ORIENTED_EDGE ( 'NONE', *, *, #857, .T. ) ;
#880 = DIRECTION ( 'NONE',  ( 1.000000000000000000, 0.000000000000000000, -0.000000000000000000 ) ) ;
#881 = CARTESIAN_POINT ( 'NONE',  ( -2.000000000000000888, -20.49999999999999645, 39.00000000000000000 ) ) ;
#882 = CARTESIAN_POINT ( 'NONE',  ( 0.000000000000000000, 0.000000000000000000, 0.000000000000000000 ) ) ;
#883 = ADVANCED_FACE ( 'NONE', ( #1171 ), #1088, .F. ) ;
#884 = EDGE_CURVE ( 'NONE', #1189, #638, #332, .T. ) ;
#885 = CARTESIAN_POINT ( 'NONE',  ( -8.500000000000000000, 0.000000000000000000, -2.000000000000000000 ) ) ;
#886 = DIRECTION ( 'NONE',  ( 0.000000000000000000, 0.000000000000000000, -1.000000000000000000 ) ) ;
#887 = AXIS2_PLACEMENT_3D ( 'NONE', #1109, #1123, #677 ) ;
#888 = AXIS2_PLACEMENT_3D ( 'NONE', #654, #575, #206 ) ;
#889 = CARTESIAN_POINT ( 'NONE',  ( 0.000000000000000000, -14.50000000000000000, -2.000000000000000000 ) ) ;
#890 = DIRECTION ( 'NONE',  ( -1.000000000000000000, 0.000000000000000000, 0.000000000000000000 ) ) ;
#891 = CIRCLE ( 'NONE', #637, 12.50000000000000000 ) ;
#892 = AXIS2_PLACEMENT_3D ( 'NONE', #984, #120, #1089 ) ;
#893 = CARTESIAN_POINT ( 'NONE',  ( -2.000000000000000000, 17.49999999999999645, 75.00000000000000000 ) ) ;
#894 = ORIENTED_EDGE ( 'NONE', *, *, #1151, .T. ) ;
#895 = CYLINDRICAL_SURFACE ( 'NONE', #423, 2.000000000000001776 ) ;
#896 = APPROVAL_ROLE ( '' ) ;
#897 = CYLINDRICAL_SURFACE ( 'NONE', #1097, 2.000000000000001776 ) ;
#898 = CARTESIAN_POINT ( 'NONE',  ( -2.000000000000000888, -20.49999999999999645, 80.00000000000000000 ) ) ;
#899 = EDGE_CURVE ( 'NONE', #129, #1090, #389, .T. ) ;
#900 = ORIENTED_EDGE ( 'NONE', *, *, #570, .F. ) ;
#901 = ORIENTED_EDGE ( 'NONE', *, *, #307, .F. ) ;
#902 = CARTESIAN_POINT ( 'NONE',  ( -14.50099999999999767, -17.49999999999999645, 57.49999999999999289 ) ) ;
#903 = DIRECTION ( 'NONE',  ( -1.000000000000000000, -0.000000000000000000, -0.000000000000000000 ) ) ;
#904 = VERTEX_POINT ( 'NONE', #159 ) ;
#905 = EDGE_CURVE ( 'NONE', #566, #28, #823, .T. ) ;
#906 = CIRCLE ( 'NONE', #378, 14.49999999999999822 ) ;
#907 = ORIENTED_EDGE ( 'NONE', *, *, #617, .F. ) ;
#908 = AXIS2_PLACEMENT_3D ( 'NONE', #868, #1126, #674 ) ;
#909 = CARTESIAN_POINT ( 'NONE',  ( -14.50099999999999767, -17.49999999999999645, 59.50000000000000000 ) ) ;
#910 = VECTOR ( 'NONE', #547, 1000.000000000000000 ) ;
#911 = CARTESIAN_POINT ( 'NONE',  ( 0.000000000000000000, 0.000000000000000000, 80.00000000000000000 ) ) ;
#912 = ORIENTED_EDGE ( 'NONE', *, *, #676, .F. ) ;
#913 = FACE_OUTER_BOUND ( 'NONE', #239, .T. ) ;
#914 = DIRECTION ( 'NONE',  ( 1.000000000000000000, -0.000000000000000000, -0.000000000000000000 ) ) ;
#915 = VERTEX_POINT ( 'NONE', #550 ) ;
#916 = ORIENTED_EDGE ( 'NONE', *, *, #603, .T. ) ;
#917 = ORIENTED_EDGE ( 'NONE', *, *, #588, .T. ) ;
#918 = EDGE_CURVE ( 'NONE', #659, #172, #534, .T. ) ;
#919 = FACE_OUTER_BOUND ( 'NONE', #403, .T. ) ;
#920 = ADVANCED_FACE ( 'NONE', ( #806 ), #362, .F. ) ;
#921 = CARTESIAN_POINT ( 'NONE',  ( 0.000000000000000000, -14.49999999999999822, 80.00000000000000000 ) ) ;
#922 = FACE_OUTER_BOUND ( 'NONE', #148, .T. ) ;
#923 = COORDINATED_UNIVERSAL_TIME_OFFSET ( 5, 30, .AHEAD. ) ;
#924 = AXIS2_PLACEMENT_3D ( 'NONE', #297, #1131, #775 ) ;
#925 = ORIENTED_EDGE ( 'NONE', *, *, #649, .F. ) ;
#926 = CARTESIAN_POINT ( 'NONE',  ( -7.347880794884123680E-16, -20.49999999999999645, 39.00000000000000000 ) ) ;
#927 = LINE ( 'NONE', #71, #522 ) ;
#928 = CC_DESIGN_DATE_AND_TIME_ASSIGNMENT ( #647, #560, ( #175 ) ) ;
#929 = ORIENTED_EDGE ( 'NONE', *, *, #633, .T. ) ;
#930 = PLANE ( 'NONE',  #279 ) ;
#931 = DATE_AND_TIME ( #660, #199 ) ;
#932 = ORIENTED_EDGE ( 'NONE', *, *, #75, .F. ) ;
#933 = CARTESIAN_POINT ( 'NONE',  ( -2.000000000000000000, -17.49999999999999645, 40.99999999999999289 ) ) ;
#934 = FACE_OUTER_BOUND ( 'NONE', #5, .T. ) ;
#935 = ORIENTED_EDGE ( 'NONE', *, *, #748, .T. ) ;
#936 = ORIENTED_EDGE ( 'NONE', *, *, #833, .T. ) ;
#937 = CYLINDRICAL_SURFACE ( 'NONE', #908, 14.49999999999999822 ) ;
#938 = ADVANCED_FACE ( 'NONE', ( #919 ), #57, .F. ) ;
#939 = APPROVAL_DATE_TIME ( #653, #127 ) ;
#940 = DIRECTION ( 'NONE',  ( 0.000000000000000000, 0.000000000000000000, 1.000000000000000000 ) ) ;
#941 = DIRECTION ( 'NONE',  ( 0.000000000000000000, 0.000000000000000000, -1.000000000000000000 ) ) ;
#942 = ORIENTED_EDGE ( 'NONE', *, *, #848, .F. ) ;
#943 = ORIENTED_EDGE ( 'NONE', *, *, #809, .F. ) ;
#944 = DIRECTION ( 'NONE',  ( 0.000000000000000000, 1.000000000000000000, 0.000000000000000000 ) ) ;
#945 = EDGE_CURVE ( 'NONE', #1035, #589, #169, .T. ) ;
#946 = DIRECTION ( 'NONE',  ( 1.000000000000000000, -0.000000000000000000, -0.000000000000000000 ) ) ;
#947 = CIRCLE ( 'NONE', #419, 1.249999999999999334 ) ;
#948 = ORIENTED_EDGE ( 'NONE', *, *, #1143, .F. ) ;
#949 = DIRECTION ( 'NONE',  ( 1.000000000000000000, 0.000000000000000000, -0.000000000000000000 ) ) ;
#950 = VERTEX_POINT ( 'NONE', #432 ) ;
#951 = DIRECTION ( 'NONE',  ( 0.000000000000000000, 0.000000000000000000, 1.000000000000000000 ) ) ;
#952 = AXIS2_PLACEMENT_3D ( 'NONE', #45, #521, #1167 ) ;
#953 = AXIS2_PLACEMENT_3D ( 'NONE', #1036, #96, #105 ) ;
#954 = DIRECTION ( 'NONE',  ( 1.000000000000000000, 0.000000000000000000, 0.000000000000000000 ) ) ;
#955 = CARTESIAN_POINT ( 'NONE',  ( 0.000000000000000000, -14.49999999999999822, 0.000000000000000000 ) ) ;
#956 = ORIENTED_EDGE ( 'NONE', *, *, #818, .T. ) ;
#957 = DIRECTION ( 'NONE',  ( -1.000000000000000000, 0.000000000000000000, 0.000000000000000000 ) ) ;
#958 = ORIENTED_EDGE ( 'NONE', *, *, #452, .T. ) ;
#959 = CARTESIAN_POINT ( 'NONE',  ( -14.49999999999999822, 0.000000000000000000, 200.0000000000000000 ) ) ;
#960 = ADVANCED_FACE ( 'NONE', ( #1165 ), #280, .T. ) ;
#961 = CARTESIAN_POINT ( 'NONE',  ( -14.50099999999999767, 17.49999999999999645, 45.00000000000000000 ) ) ;
#962 = LINE ( 'NONE', #644, #409 ) ;
#963 = DIRECTION ( 'NONE',  ( 1.000000000000000000, -0.000000000000000000, -0.000000000000000000 ) ) ;
#964 = AXIS2_PLACEMENT_3D ( 'NONE', #1128, #366, #386 ) ;
#965 = VECTOR ( 'NONE', #795, 1000.000000000000000 ) ;
#966 = VECTOR ( 'NONE', #22, 1000.000000000000000 ) ;
#967 = CARTESIAN_POINT ( 'NONE',  ( 2.531323970661271367E-14, 0.000000000000000000, -2.000000000000000000 ) ) ;
#968 = CARTESIAN_POINT ( 'NONE',  ( 0.000000000000000000, 12.50000000000000000, 80.00000000000000000 ) ) ;
#969 = CARTESIAN_POINT ( 'NONE',  ( -2.000000000000000000, -20.49999999999999645, 39.00000000000000000 ) ) ;
#970 = ADVANCED_FACE ( 'NONE', ( #770, #749, #177, #860 ), #287, .F. ) ;
#971 = CARTESIAN_POINT ( 'NONE',  ( 0.000000000000000000, 20.49999999999999645, 39.00000000000000000 ) ) ;
#972 = DIRECTION ( 'NONE',  ( 0.000000000000000000, 0.000000000000000000, -1.000000000000000000 ) ) ;
#973 = LINE ( 'NONE', #898, #13 ) ;
#974 = DIRECTION ( 'NONE',  ( 0.000000000000000000, 0.000000000000000000, 1.000000000000000000 ) ) ;
#975 = VERTEX_POINT ( 'NONE', #89 ) ;
#976 = DIRECTION ( 'NONE',  ( 0.000000000000000000, 0.000000000000000000, 1.000000000000000000 ) ) ;
#977 = DIRECTION ( 'NONE',  ( 1.000000000000000000, -0.000000000000000000, -0.000000000000000000 ) ) ;
#978 = CC_DESIGN_APPROVAL ( #141, ( #805 ) ) ;
#979 = CC_DESIGN_SECURITY_CLASSIFICATION ( #175, ( #27 ) ) ;
#980 = COORDINATED_UNIVERSAL_TIME_OFFSET ( 5, 30, .AHEAD. ) ;
#981 = AXIS2_PLACEMENT_3D ( 'NONE', #525, #517, #1147 ) ;
#982 = EDGE_CURVE ( 'NONE', #414, #1189, #491, .T. ) ;
#983 = CARTESIAN_POINT ( 'NONE',  ( 0.000000000000000000, 17.49999999999999645, 45.00000000000000000 ) ) ;
#984 = CARTESIAN_POINT ( 'NONE',  ( -14.50099999999999767, -17.49999999999999645, 59.50000000000000000 ) ) ;
#985 = ADVANCED_BREP_SHAPE_REPRESENTATION ( 'LinkGripperToArm_cover_top_sldprt', ( #1066, #352 ), #236 ) ;
#986 = ORIENTED_EDGE ( 'NONE', *, *, #527, .F. ) ;
#987 = DIRECTION ( 'NONE',  ( 0.000000000000000000, 1.000000000000000000, 1.269309860470834477E-16 ) ) ;
#988 = VERTEX_POINT ( 'NONE', #926 ) ;
#989 = DIRECTION ( 'NONE',  ( -1.000000000000000000, 0.000000000000000000, 0.000000000000000000 ) ) ;
#990 = ORIENTED_EDGE ( 'NONE', *, *, #588, .F. ) ;
#991 = ADVANCED_FACE ( 'NONE', ( #393 ), #1, .F. ) ;
#992 = EDGE_LOOP ( 'NONE', ( #1099, #815, #241, #591 ) ) ;
#993 = DIRECTION ( 'NONE',  ( 0.000000000000000000, 0.000000000000000000, 1.000000000000000000 ) ) ;
#994 = ORIENTED_EDGE ( 'NONE', *, *, #729, .T. ) ;
#995 = DIRECTION ( 'NONE',  ( -1.000000000000000000, 0.000000000000000000, 0.000000000000000000 ) ) ;
#996 = ORIENTED_EDGE ( 'NONE', *, *, #544, .T. ) ;
#997 = AXIS2_PLACEMENT_3D ( 'NONE', #650, #735, #1078 ) ;
#998 = VERTEX_POINT ( 'NONE', #465 ) ;
#999 = DIRECTION ( 'NONE',  ( 0.000000000000000000, 0.000000000000000000, -1.000000000000000000 ) ) ;
#1000 = AXIS2_PLACEMENT_3D ( 'NONE', #244, #1080, #559 ) ;
#1001 = DIRECTION ( 'NONE',  ( -1.000000000000000000, 0.000000000000000000, 0.000000000000000000 ) ) ;
#1002 = ORIENTED_EDGE ( 'NONE', *, *, #1003, .T. ) ;
#1003 = EDGE_CURVE ( 'NONE', #566, #1028, #99, .T. ) ;
#1004 = LINE ( 'NONE', #266, #877 ) ;
#1005 = CARTESIAN_POINT ( 'NONE',  ( 0.000000000000000000, -17.49999999999999645, 75.00000000000000000 ) ) ;
#1006 = ORIENTED_EDGE ( 'NONE', *, *, #75, .T. ) ;
#1007 = DATE_AND_TIME ( #1092, #355 ) ;
#1008 = EDGE_LOOP ( 'NONE', ( #330, #60 ) ) ;
#1009 = DIRECTION ( 'NONE',  ( 1.000000000000000000, -0.000000000000000000, -0.000000000000000000 ) ) ;
#1010 = CYLINDRICAL_SURFACE ( 'NONE', #621, 12.50000000000000000 ) ;
#1011 = ORIENTED_EDGE ( 'NONE', *, *, #147, .T. ) ;
#1012 = CARTESIAN_POINT ( 'NONE',  ( -8.500000000000000000, 0.000000000000000000, 0.000000000000000000 ) ) ;
#1013 = EDGE_CURVE ( 'NONE', #468, #822, #796, .T. ) ;
#1014 = CARTESIAN_POINT ( 'NONE',  ( -12.50000000000000000, 0.000000000000000000, 0.000000000000000000 ) ) ;
#1015 = ORIENTED_EDGE ( 'NONE', *, *, #147, .F. ) ;
#1016 = AXIS2_PLACEMENT_3D ( 'NONE', #1046, #1030, #108 ) ;
#1017 = APPROVAL_STATUS ( 'not_yet_approved' ) ;
#1018 = DIRECTION ( 'NONE',  ( 0.000000000000000000, 0.000000000000000000, -1.000000000000000000 ) ) ;
#1019 = DIRECTION ( 'NONE',  ( -1.000000000000000000, -0.000000000000000000, -0.000000000000000000 ) ) ;
#1020 = VERTEX_POINT ( 'NONE', #933 ) ;
#1021 = CIRCLE ( 'NONE', #512, 14.49999999999999822 ) ;
#1022 = VERTEX_POINT ( 'NONE', #82 ) ;
#1023 = DIRECTION ( 'NONE',  ( 0.000000000000000000, 0.000000000000000000, -1.000000000000000000 ) ) ;
#1024 = ADVANCED_FACE ( 'NONE', ( #582 ), #373, .T. ) ;
#1025 = CARTESIAN_POINT ( 'NONE',  ( 0.000000000000000000, -14.49999999999999822, 0.000000000000000000 ) ) ;
#1026 = ORIENTED_EDGE ( 'NONE', *, *, #493, .F. ) ;
#1027 = LINE ( 'NONE', #394, #1188 ) ;
#1028 = VERTEX_POINT ( 'NONE', #754 ) ;
#1029 = EDGE_LOOP ( 'NONE', ( #1095, #195 ) ) ;
#1030 = DIRECTION ( 'NONE',  ( 0.000000000000000000, 0.000000000000000000, -1.000000000000000000 ) ) ;
#1031 = EDGE_CURVE ( 'NONE', #1120, #636, #43, .T. ) ;
#1032 = CIRCLE ( 'NONE', #518, 14.49999999999999822 ) ;
#1033 = CARTESIAN_POINT ( 'NONE',  ( 0.000000000000000000, 0.000000000000000000, 80.00000000000001421 ) ) ;
#1034 = APPROVAL_PERSON_ORGANIZATION ( #845, #127, #52 ) ;
#1035 = VERTEX_POINT ( 'NONE', #764 ) ;
#1036 = CARTESIAN_POINT ( 'NONE',  ( -2.000000000000000888, -20.49999999999999645, 80.00000000000000000 ) ) ;
#1037 = ORIENTED_EDGE ( 'NONE', *, *, #543, .F. ) ;
#1038 = CARTESIAN_POINT ( 'NONE',  ( -2.000000000000000888, 14.36140661634506799, 80.00000000000000000 ) ) ;
#1039 = VECTOR ( 'NONE', #1163, 1000.000000000000000 ) ;
#1040 = VECTOR ( 'NONE', #880, 1000.000000000000000 ) ;
#1041 = CARTESIAN_POINT ( 'NONE',  ( -2.000000000000000000, -17.49999999999999645, 59.50000000000000000 ) ) ;
#1042 = EDGE_CURVE ( 'NONE', #865, #975, #197, .T. ) ;
#1043 = LINE ( 'NONE', #208, #798 ) ;
#1044 = ORIENTED_EDGE ( 'NONE', *, *, #709, .T. ) ;
#1045 = EDGE_LOOP ( 'NONE', ( #445, #384, #935, #187 ) ) ;
#1046 = CARTESIAN_POINT ( 'NONE',  ( -8.500000000000000000, 0.000000000000000000, -2.000000000000000000 ) ) ;
#1047 = DIRECTION ( 'NONE',  ( 1.000000000000000000, -0.000000000000000000, -0.000000000000000000 ) ) ;
#1048 = CARTESIAN_POINT ( 'NONE',  ( -2.000000000000000000, -17.49999999999999645, 59.50000000000000000 ) ) ;
#1049 = LINE ( 'NONE', #1038, #357 ) ;
#1050 =( LENGTH_UNIT ( ) NAMED_UNIT ( * ) SI_UNIT ( .MILLI., .METRE. ) );
#1051 = CC_DESIGN_APPROVAL ( #127, ( #175 ) ) ;
#1052 = PLANE ( 'NONE',  #624 ) ;
#1053 = AXIS2_PLACEMENT_3D ( 'NONE', #792, #131, #700 ) ;
#1054 = LINE ( 'NONE', #215, #1186 ) ;
#1055 = EDGE_CURVE ( 'NONE', #249, #149, #351, .T. ) ;
#1056 = VECTOR ( 'NONE', #1132, 1000.000000000000000 ) ;
#1057 = VECTOR ( 'NONE', #503, 1000.000000000000000 ) ;
#1058 =( NAMED_UNIT ( * ) PLANE_ANGLE_UNIT ( ) SI_UNIT ( $, .RADIAN. ) );
#1059 = DIRECTION ( 'NONE',  ( 0.000000000000000000, 0.000000000000000000, -1.000000000000000000 ) ) ;
#1060 = CARTESIAN_POINT ( 'NONE',  ( 0.000000000000000000, 17.49999999999999645, 57.49999999999999289 ) ) ;
#1061 = EDGE_CURVE ( 'NONE', #573, #1107, #1032, .T. ) ;
#1062 = AXIS2_PLACEMENT_3D ( 'NONE', #1185, #1084, #999 ) ;
#1063 = DIRECTION ( 'NONE',  ( -0.000000000000000000, 1.000000000000000000, -0.000000000000000000 ) ) ;
#1064 = VERTEX_POINT ( 'NONE', #669 ) ;
#1065 = DIRECTION ( 'NONE',  ( 0.000000000000000000, 0.000000000000000000, -1.000000000000000000 ) ) ;
#1066 = MANIFOLD_SOLID_BREP ( 'Cut-Extrude8', #739 ) ;
#1067 = EDGE_LOOP ( 'NONE', ( #139, #1079 ) ) ;
#1068 = DIRECTION ( 'NONE',  ( 1.000000000000000000, 0.000000000000000000, 0.000000000000000000 ) ) ;
#1069 = EDGE_CURVE ( 'NONE', #162, #725, #293, .T. ) ;
#1070 = CARTESIAN_POINT ( 'NONE',  ( -14.49999999999999822, 0.000000000000000000, 80.00000000000001421 ) ) ;
#1071 = ORIENTED_EDGE ( 'NONE', *, *, #413, .F. ) ;
#1072 = CARTESIAN_POINT ( 'NONE',  ( -14.50099999999999767, -17.49999999999999645, 61.50000000000000000 ) ) ;
#1073 = CIRCLE ( 'NONE', #888, 3.500000000000000000 ) ;
#1074 = DIRECTION ( 'NONE',  ( 0.000000000000000000, 0.000000000000000000, -1.000000000000000000 ) ) ;
#1075 = VECTOR ( 'NONE', #977, 1000.000000000000000 ) ;
#1076 = DIRECTION ( 'NONE',  ( -1.000000000000000000, 0.000000000000000000, 0.000000000000000000 ) ) ;
#1077 = EDGE_CURVE ( 'NONE', #725, #1022, #1073, .T. ) ;
#1078 = DIRECTION ( 'NONE',  ( 0.000000000000000000, 0.000000000000000000, 1.000000000000000000 ) ) ;
#1079 = ORIENTED_EDGE ( 'NONE', *, *, #356, .T. ) ;
#1080 = DIRECTION ( 'NONE',  ( 1.000000000000000000, 0.000000000000000000, 0.000000000000000000 ) ) ;
#1081 = VECTOR ( 'NONE', #546, 1000.000000000000000 ) ;
#1082 = ORIENTED_EDGE ( 'NONE', *, *, #1110, .F. ) ;
#1083 = CARTESIAN_POINT ( 'NONE',  ( -2.000000000000000000, -17.49999999999999645, 43.00000000000000000 ) ) ;
#1084 = DIRECTION ( 'NONE',  ( 1.000000000000000000, 0.000000000000000000, 0.000000000000000000 ) ) ;
#1085 = ORIENTED_EDGE ( 'NONE', *, *, #800, .T. ) ;
#1086 = EDGE_CURVE ( 'NONE', #1020, #975, #1191, .T. ) ;
#1087 = FACE_BOUND ( 'NONE', #41, .T. ) ;
#1088 = CYLINDRICAL_SURFACE ( 'NONE', #607, 12.50000000000000000 ) ;
#1089 = DIRECTION ( 'NONE',  ( 0.000000000000000000, 0.000000000000000000, -1.000000000000000000 ) ) ;
#1090 = VERTEX_POINT ( 'NONE', #102 ) ;
#1091 = ORIENTED_EDGE ( 'NONE', *, *, #1031, .F. ) ;
#1092 = CALENDAR_DATE ( 2026, 24, 8 ) ;
#1093 = EDGE_CURVE ( 'NONE', #245, #771, #947, .T. ) ;
#1094 = APPROVAL_PERSON_ORGANIZATION ( #747, #271, #1195 ) ;
#1095 = ORIENTED_EDGE ( 'NONE', *, *, #1093, .F. ) ;
#1096 = DIRECTION ( 'NONE',  ( 1.000000000000000000, 0.000000000000000000, -0.000000000000000000 ) ) ;
#1097 = AXIS2_PLACEMENT_3D ( 'NONE', #140, #225, #706 ) ;
#1098 = DIRECTION ( 'NONE',  ( -0.000000000000000000, -0.000000000000000000, 1.000000000000000000 ) ) ;
#1099 = ORIENTED_EDGE ( 'NONE', *, *, #229, .F. ) ;
#1100 = ORIENTED_EDGE ( 'NONE', *, *, #1042, .T. ) ;
#1101 = DIRECTION ( 'NONE',  ( 1.000000000000000000, -0.000000000000000000, -0.000000000000000000 ) ) ;
#1102 = LINE ( 'NONE', #76, #717 ) ;
#1103 = ORIENTED_EDGE ( 'NONE', *, *, #133, .T. ) ;
#1104 = DATE_TIME_ROLE ( 'creation_date' ) ;
#1105 = CARTESIAN_POINT ( 'NONE',  ( -14.50099999999999767, -17.49999999999999645, 40.99999999999999289 ) ) ;
#1106 = CARTESIAN_POINT ( 'NONE',  ( -14.50099999999999767, -17.49999999999999645, 79.00000000000000000 ) ) ;
#1107 = VERTEX_POINT ( 'NONE', #1070 ) ;
#1108 = EDGE_LOOP ( 'NONE', ( #548, #438, #1115, #990 ) ) ;
#1109 = CARTESIAN_POINT ( 'NONE',  ( 0.000000000000000000, -17.49999999999999645, 43.00000000000000000 ) ) ;
#1110 = EDGE_CURVE ( 'NONE', #322, #456, #616, .T. ) ;
#1111 = AXIS2_PLACEMENT_3D ( 'NONE', #844, #774, #957 ) ;
#1112 = CARTESIAN_POINT ( 'NONE',  ( -2.000000000000000888, 20.49999999999999645, 80.00000000000000000 ) ) ;
#1113 = ORIENTED_EDGE ( 'NONE', *, *, #413, .T. ) ;
#1114 = AXIS2_PLACEMENT_3D ( 'NONE', #204, #863, #785 ) ;
#1115 = ORIENTED_EDGE ( 'NONE', *, *, #87, .T. ) ;
#1116 = DIRECTION ( 'NONE',  ( 0.000000000000000000, -1.269309860470834477E-16, 1.000000000000000000 ) ) ;
#1117 = VECTOR ( 'NONE', #702, 1000.000000000000000 ) ;
#1118 = DIRECTION ( 'NONE',  ( 0.000000000000000000, 0.000000000000000000, -1.000000000000000000 ) ) ;
#1119 = FACE_BOUND ( 'NONE', #360, .T. ) ;
#1120 = VERTEX_POINT ( 'NONE', #123 ) ;
#1121 = VECTOR ( 'NONE', #340, 1000.000000000000000 ) ;
#1122 = CYLINDRICAL_SURFACE ( 'NONE', #1114, 1.249999999999999334 ) ;
#1123 = DIRECTION ( 'NONE',  ( 1.000000000000000000, 0.000000000000000000, 0.000000000000000000 ) ) ;
#1124 = VERTEX_POINT ( 'NONE', #302 ) ;
#1125 = FACE_OUTER_BOUND ( 'NONE', #312, .T. ) ;
#1126 = DIRECTION ( 'NONE',  ( -0.000000000000000000, -0.000000000000000000, -1.000000000000000000 ) ) ;
#1127 = ADVANCED_FACE ( 'NONE', ( #509 ), #878, .F. ) ;
#1128 = CARTESIAN_POINT ( 'NONE',  ( 0.000000000000000000, 0.000000000000000000, 0.000000000000000000 ) ) ;
#1129 = EDGE_CURVE ( 'NONE', #686, #638, #797, .T. ) ;
#1130 = AXIS2_PLACEMENT_3D ( 'NONE', #73, #1096, #242 ) ;
#1131 = DIRECTION ( 'NONE',  ( -0.000000000000000000, -0.000000000000000000, -1.000000000000000000 ) ) ;
#1132 = DIRECTION ( 'NONE',  ( 1.000000000000000000, -0.000000000000000000, -0.000000000000000000 ) ) ;
#1133 = CARTESIAN_POINT ( 'NONE',  ( 0.000000000000000000, 0.000000000000000000, 80.00000000000000000 ) ) ;
#1134 = VECTOR ( 'NONE', #152, 1000.000000000000000 ) ;
#1135 = EDGE_LOOP ( 'NONE', ( #538, #565, #158, #268 ) ) ;
#1136 = CC_DESIGN_PERSON_AND_ORGANIZATION_ASSIGNMENT ( #496, #400, ( #486 ) ) ;
#1137 = PERSON_AND_ORGANIZATION ( #329, #153 ) ;
#1138 = DIRECTION ( 'NONE',  ( 1.000000000000000000, -0.000000000000000000, -0.000000000000000000 ) ) ;
#1139 = ORIENTED_EDGE ( 'NONE', *, *, #918, .F. ) ;
#1140 = DIRECTION ( 'NONE',  ( -1.000000000000000000, 0.000000000000000000, 0.000000000000000000 ) ) ;
#1141 = CARTESIAN_POINT ( 'NONE',  ( 0.000000000000000000, 17.49999999999999645, 43.00000000000000000 ) ) ;
#1142 = DIRECTION ( 'NONE',  ( 1.000000000000000000, 0.000000000000000000, 0.000000000000000000 ) ) ;
#1143 = EDGE_CURVE ( 'NONE', #975, #865, #458, .T. ) ;
#1144 = ORIENTED_EDGE ( 'NONE', *, *, #945, .F. ) ;
#1145 = CARTESIAN_POINT ( 'NONE',  ( 0.000000000000000000, -12.50000000000000000, 80.00000000000000000 ) ) ;
#1146 = DIRECTION ( 'NONE',  ( 1.000000000000000000, -0.000000000000000000, -0.000000000000000000 ) ) ;
#1147 = DIRECTION ( 'NONE',  ( -1.000000000000000000, 0.000000000000000000, 0.000000000000000000 ) ) ;
#1148 = CARTESIAN_POINT ( 'NONE',  ( -14.50099999999999767, 14.50000000000000533, 39.00000000000000000 ) ) ;
#1149 = EDGE_LOOP ( 'NONE', ( #733, #1193, #724, #348 ) ) ;
#1150 = DIRECTION ( 'NONE',  ( -0.000000000000000000, -0.000000000000000000, -1.000000000000000000 ) ) ;
#1151 = EDGE_CURVE ( 'NONE', #638, #904, #705, .T. ) ;
#1152 = FACE_OUTER_BOUND ( 'NONE', #265, .T. ) ;
#1153 = CIRCLE ( 'NONE', #561, 2.000000000000001776 ) ;
#1154 = AXIS2_PLACEMENT_3D ( 'NONE', #921, #995, #247 ) ;
#1155 = DIRECTION ( 'NONE',  ( 1.000000000000000000, 0.000000000000000000, 0.000000000000000000 ) ) ;
#1156 = ORIENTED_EDGE ( 'NONE', *, *, #33, .T. ) ;
#1157 = FACE_BOUND ( 'NONE', #115, .T. ) ;
#1158 = ORIENTED_EDGE ( 'NONE', *, *, #543, .T. ) ;
#1159 = CARTESIAN_POINT ( 'NONE',  ( -2.000000000000000000, 14.50000000000000000, -2.000000000000000000 ) ) ;
#1160 = CARTESIAN_POINT ( 'NONE',  ( -2.000000000000000000, 17.49999999999999645, 77.00000000000000000 ) ) ;
#1161 = DIRECTION ( 'NONE',  ( -1.000000000000000000, 0.000000000000000000, 0.000000000000000000 ) ) ;
#1162 = ORIENTED_EDGE ( 'NONE', *, *, #381, .F. ) ;
#1163 = DIRECTION ( 'NONE',  ( 0.000000000000000000, -1.000000000000000000, 0.000000000000000000 ) ) ;
#1164 = EDGE_CURVE ( 'NONE', #549, #180, #867, .T. ) ;
#1165 = FACE_OUTER_BOUND ( 'NONE', #55, .T. ) ;
#1166 = AXIS2_PLACEMENT_3D ( 'NONE', #183, #191, #1018 ) ;
#1167 = DIRECTION ( 'NONE',  ( 0.000000000000000000, 0.000000000000000000, 1.000000000000000000 ) ) ;
#1168 = VECTOR ( 'NONE', #699, 1000.000000000000000 ) ;
#1169 = VERTEX_POINT ( 'NONE', #501 ) ;
#1170 = ORIENTED_EDGE ( 'NONE', *, *, #18, .F. ) ;
#1171 = FACE_OUTER_BOUND ( 'NONE', #1135, .T. ) ;
#1172 = FACE_OUTER_BOUND ( 'NONE', #161, .T. ) ;
#1173 = ORIENTED_EDGE ( 'NONE', *, *, #154, .F. ) ;
#1174 = ORIENTED_EDGE ( 'NONE', *, *, #469, .F. ) ;
#1175 = EDGE_CURVE ( 'NONE', #589, #274, #906, .T. ) ;
#1176 = CYLINDRICAL_SURFACE ( 'NONE', #111, 2.000000000000001776 ) ;
#1177 = FACE_OUTER_BOUND ( 'NONE', #658, .T. ) ;
#1178 = ORIENTED_EDGE ( 'NONE', *, *, #848, .T. ) ;
#1179 = DIRECTION ( 'NONE',  ( 1.000000000000000000, -0.000000000000000000, -0.000000000000000000 ) ) ;
#1180 = DIRECTION ( 'NONE',  ( 0.000000000000000000, 0.000000000000000000, -1.000000000000000000 ) ) ;
#1181 = ORIENTED_EDGE ( 'NONE', *, *, #354, .F. ) ;
#1182 = VECTOR ( 'NONE', #662, 1000.000000000000000 ) ;
#1183 = PERSON_AND_ORGANIZATION_ROLE ( 'classification_officer' ) ;
#1184 = ORIENTED_EDGE ( 'NONE', *, *, #583, .T. ) ;
#1185 = CARTESIAN_POINT ( 'NONE',  ( -2.000000000000000000, 17.49999999999999645, 43.00000000000000000 ) ) ;
#1186 = VECTOR ( 'NONE', #708, 1000.000000000000000 ) ;
#1187 = DIRECTION ( 'NONE',  ( -0.000000000000000000, -0.000000000000000000, -1.000000000000000000 ) ) ;
#1188 = VECTOR ( 'NONE', #949, 1000.000000000000000 ) ;
#1189 = VERTEX_POINT ( 'NONE', #324 ) ;
#1190 = ADVANCED_FACE ( 'NONE', ( #37 ), #597, .F. ) ;
#1191 = LINE ( 'NONE', #1105, #736 ) ;
#1192 = CARTESIAN_POINT ( 'NONE',  ( -2.000000000000000888, 14.50000000000000178, -2.000000000000000000 ) ) ;
#1193 = ORIENTED_EDGE ( 'NONE', *, *, #282, .T. ) ;
#1194 = ORIENTED_EDGE ( 'NONE', *, *, #691, .T. ) ;
#1195 = APPROVAL_ROLE ( '' ) ;
#1196 = EDGE_CURVE ( 'NONE', #180, #549, #80, .T. ) ;
ENDSEC;
END-ISO-10303-21;
