ISO-10303-21;
HEADER;
FILE_DESCRIPTION (( 'STEP AP203' ),
    '1' );
FILE_NAME ('M2.5 x 16.STEP_Default_sldprt.STEP',
    '2026-08-23T21:10:11',
    ( '' ),
    ( '' ),
    'SwSTEP 2.0',
    'SolidWorks 2020',
    '' );
FILE_SCHEMA (( 'CONFIG_CONTROL_DESIGN' ));
ENDSEC;

DATA;
#1 = PERSON_AND_ORGANIZATION ( #22, #157 ) ;
#2 = DIRECTION ( 'NONE',  ( 0.7923367461350611096, -0.09062675200891021077, -0.6033152348021879607 ) ) ;
#3 = CYLINDRICAL_SURFACE ( 'NONE', #295, 0.09842519685039370636 ) ;
#4 = CARTESIAN_POINT ( 'NONE',  ( -1.000000000000000000, 6.026805113914134012E-18, -0.04921259842519685318 ) ) ;
#5 = CARTESIAN_POINT ( 'NONE',  ( 0.000000000000000000, -0.01377952755905492190, -0.05275590551181102983 ) ) ;
#6 = LINE ( 'NONE', #388, #451 ) ;
#7 = ORIENTED_EDGE ( 'NONE', *, *, #33, .T. ) ;
#8 = EDGE_CURVE ( 'NONE', #88, #322, #649, .T. ) ;
#9 = CARTESIAN_POINT ( 'NONE',  ( 0.06023622047244094058, -0.006889763779527558960, -0.006889763779527558960 ) ) ;
#10 = AXIS2_PLACEMENT_3D ( 'NONE', #439, #274, #663 ) ;
#11 = COORDINATED_UNIVERSAL_TIME_OFFSET ( 5, 30, .AHEAD. ) ;
#12 = ORIENTED_EDGE ( 'NONE', *, *, #167, .T. ) ;
#13 = ORIENTED_EDGE ( 'NONE', *, *, #312, .T. ) ;
#14 = CARTESIAN_POINT ( 'NONE',  ( 0.06023622047244094058, -0.006889763779527558960, -0.006889763779527558960 ) ) ;
#15 = DIRECTION ( 'NONE',  ( -1.000000000000000000, 0.000000000000000000, 0.000000000000000000 ) ) ;
#16 = EDGE_CURVE ( 'NONE', #318, #88, #311, .T. ) ;
#17 = ORIENTED_EDGE ( 'NONE', *, *, #644, .T. ) ;
#18 = VECTOR ( 'NONE', #277, 39.37007874015748143 ) ;
#19 = UNCERTAINTY_MEASURE_WITH_UNIT (LENGTH_MEASURE( 1.000000000000000082E-05 ), #140, 'distance_accuracy_value', 'NONE');
#20 = FACE_OUTER_BOUND ( 'NONE', #87, .T. ) ;
#21 = AXIS2_PLACEMENT_3D ( 'NONE', #346, #570, #539 ) ;
#22 = PERSON ( 'UNSPECIFIED', 'UNSPECIFIED', 'UNSPECIFIED', ('UNSPECIFIED'), ('UNSPECIFIED'), ('UNSPECIFIED') ) ;
#23 = VERTEX_POINT ( 'NONE', #176 ) ;
#24 = VERTEX_POINT ( 'NONE', #455 ) ;
#25 = CARTESIAN_POINT ( 'NONE',  ( 0.06023622047244094058, 0.006889763779527558960, -0.006889763779527558960 ) ) ;
#26 = CIRCLE ( 'NONE', #582, 0.01181102362204724046 ) ;
#27 = SECURITY_CLASSIFICATION ( '', '', #543 ) ;
#28 = ORIENTED_EDGE ( 'NONE', *, *, #627, .F. ) ;
#29 = DIRECTION ( 'NONE',  ( -1.000000000000000000, 0.000000000000000000, 0.000000000000000000 ) ) ;
#30 = DIRECTION ( 'NONE',  ( 0.9871686829601515889, 0.1129114506653771666, -0.1129114506653765559 ) ) ;
#31 = DIRECTION ( 'NONE',  ( -1.000000000000000000, 0.000000000000000000, 0.000000000000000000 ) ) ;
#32 = EDGE_CURVE ( 'NONE', #577, #650, #384, .T. ) ;
#33 = EDGE_CURVE ( 'NONE', #81, #577, #493, .T. ) ;
#34 = VERTEX_POINT ( 'NONE', #14 ) ;
#35 = ORIENTED_EDGE ( 'NONE', *, *, #62, .F. ) ;
#36 = VERTEX_POINT ( 'NONE', #341 ) ;
#37 = DIRECTION ( 'NONE',  ( 0.000000000000000000, 1.548860246407864815E-16, -1.000000000000000000 ) ) ;
#38 = PLANE ( 'NONE',  #510 ) ;
#39 = DIMENSIONAL_EXPONENTS ( 1.000000000000000000, 0.000000000000000000, 0.000000000000000000, 0.000000000000000000, 0.000000000000000000, 0.000000000000000000, 0.000000000000000000 ) ;
#40 = VERTEX_POINT ( 'NONE', #442 ) ;
#41 = ORIENTED_EDGE ( 'NONE', *, *, #239, .T. ) ;
#42 = EDGE_CURVE ( 'NONE', #102, #60, #564, .T. ) ;
#43 = DIRECTION ( 'NONE',  ( -0.1136381605096604408, 0.000000000000000000, 0.9935222033130315378 ) ) ;
#44 = CARTESIAN_POINT ( 'NONE',  ( 0.08267716535433070058, 0.000000000000000000, 0.000000000000000000 ) ) ;
#45 = CARTESIAN_POINT ( 'NONE',  ( 0.03086210018605220831, 0.000000000000000000, 0.000000000000000000 ) ) ;
#46 = VERTEX_POINT ( 'NONE', #61 ) ;
#47 = ORIENTED_EDGE ( 'NONE', *, *, #189, .T. ) ;
#48 = DIRECTION ( 'NONE',  ( 0.7923367461350613317, -0.09062675200891444349, 0.6033152348021871836 ) ) ;
#49 = PLANE ( 'NONE',  #624 ) ;
#50 = ORIENTED_EDGE ( 'NONE', *, *, #574, .F. ) ;
#51 = CARTESIAN_POINT ( 'NONE',  ( 0.1251121671308748073, -1.665757761450228362E-16, 0.04250924135581582441 ) ) ;
#52 = LINE ( 'NONE', #551, #305 ) ;
#53 = CARTESIAN_POINT ( 'NONE',  ( 0.06993717359243366294, -0.005780177638351906115, -0.005780177638351929534 ) ) ;
#54 = CIRCLE ( 'NONE', #241, 0.04921259842519685318 ) ;
#55 = CIRCLE ( 'NONE', #471, 0.1481395187163887239 ) ;
#56 = EDGE_CURVE ( 'NONE', #34, #46, #6, .T. ) ;
#57 = DIRECTION ( 'NONE',  ( -0.1136381605096604547, 0.9935222033130315378, 3.598658718911462097E-15 ) ) ;
#58 = CARTESIAN_POINT ( 'NONE',  ( 0.06023622047244094058, -0.006889763779527558960, -0.006889763779527558960 ) ) ;
#59 = PERSON_AND_ORGANIZATION_ROLE ( 'design_supplier' ) ;
#60 = VERTEX_POINT ( 'NONE', #287 ) ;
#61 = CARTESIAN_POINT ( 'NONE',  ( 0.06023622047244094058, 0.006889763779527558960, -0.006889763779527558960 ) ) ;
#62 = EDGE_CURVE ( 'NONE', #209, #255, #112, .T. ) ;
#63 = CIRCLE ( 'NONE', #557, 0.09842519685039370636 ) ;
#64 = EDGE_LOOP ( 'NONE', ( #75, #370 ) ) ;
#65 = DIRECTION ( 'NONE',  ( -1.000000000000000000, 0.000000000000000000, 0.000000000000000000 ) ) ;
#66 = EDGE_LOOP ( 'NONE', ( #94, #28 ) ) ;
#67 = LINE ( 'NONE', #234, #354 ) ;
#68 = APPROVAL_PERSON_ORGANIZATION ( #715, #186, #227 ) ;
#69 = VECTOR ( 'NONE', #217, 39.37007874015748143 ) ;
#70 = EDGE_CURVE ( 'NONE', #81, #193, #693, .T. ) ;
#71 = CIRCLE ( 'NONE', #410, 0.1481395187163887239 ) ;
#72 = FACE_OUTER_BOUND ( 'NONE', #66, .T. ) ;
#73 = ORIENTED_EDGE ( 'NONE', *, *, #345, .F. ) ;
#74 = DIRECTION ( 'NONE',  ( 3.166769598145284884E-14, 0.000000000000000000, 1.000000000000000000 ) ) ;
#75 = ORIENTED_EDGE ( 'NONE', *, *, #594, .T. ) ;
#76 = CARTESIAN_POINT ( 'NONE',  ( 0.06928457977087637554, 0.005854820722516976966, 2.044199729494011898E-17 ) ) ;
#77 = DIRECTION ( 'NONE',  ( 0.6058081784656141888, 0.7956107408175022710, 0.000000000000000000 ) ) ;
#78 = ADVANCED_FACE ( 'NONE', ( #72 ), #134, .T. ) ;
#79 = AXIS2_PLACEMENT_3D ( 'NONE', #642, #707, #581 ) ;
#80 = ORIENTED_EDGE ( 'NONE', *, *, #8, .F. ) ;
#81 = VERTEX_POINT ( 'NONE', #686 ) ;
#82 = CARTESIAN_POINT ( 'NONE',  ( 0.000000000000000000, 0.05275590551181102983, -0.01377952755905511792 ) ) ;
#83 = DIRECTION ( 'NONE',  ( 0.000000000000000000, 0.000000000000000000, 1.000000000000000000 ) ) ;
#84 = VERTEX_POINT ( 'NONE', #628 ) ;
#85 = CARTESIAN_POINT ( 'NONE',  ( 0.03086210018605220831, 1.176041430336759792E-17, -0.09363694403064487526 ) ) ;
#86 = DIRECTION ( 'NONE',  ( 0.6058081784656141888, 0.7956107408175022710, 0.000000000000000000 ) ) ;
#87 = EDGE_LOOP ( 'NONE', ( #200, #114, #394 ) ) ;
#88 = VERTEX_POINT ( 'NONE', #184 ) ;
#89 = ORIENTED_EDGE ( 'NONE', *, *, #571, .T. ) ;
#90 = DIRECTION ( 'NONE',  ( 0.000000000000000000, 0.000000000000000000, 1.000000000000000000 ) ) ;
#91 = CARTESIAN_POINT ( 'NONE',  ( 0.000000000000000000, -0.01377952755905529486, 0.05275590551181102983 ) ) ;
#92 = DIRECTION ( 'NONE',  ( 0.000000000000000000, 0.000000000000000000, 1.000000000000000000 ) ) ;
#93 = ORIENTED_EDGE ( 'NONE', *, *, #337, .T. ) ;
#94 = ORIENTED_EDGE ( 'NONE', *, *, #164, .F. ) ;
#95 = CARTESIAN_POINT ( 'NONE',  ( 0.1251121671308748073, 0.04250924135581582441, 6.584087404098031282E-18 ) ) ;
#96 = AXIS2_PLACEMENT_3D ( 'NONE', #172, #597, #408 ) ;
#97 = COORDINATED_UNIVERSAL_TIME_OFFSET ( 5, 30, .AHEAD. ) ;
#98 = DIRECTION ( 'NONE',  ( 0.000000000000000000, 0.000000000000000000, -1.000000000000000000 ) ) ;
#99 = CYLINDRICAL_SURFACE ( 'NONE', #267, 0.09842519685039370636 ) ;
#100 = ADVANCED_BREP_SHAPE_REPRESENTATION ( 'M2.5 x 16.STEP_Default_sldprt', ( #123, #362 ), #660 ) ;
#101 = CARTESIAN_POINT ( 'NONE',  ( 0.1570024089121033473, -1.157146581871515875E-17, 0.004178264309976291273 ) ) ;
#102 = VERTEX_POINT ( 'NONE', #145 ) ;
#103 = CARTESIAN_POINT ( 'NONE',  ( 0.04035846629414551606, 0.000000000000000000, 0.09842519685039370636 ) ) ;
#104 = CARTESIAN_POINT ( 'NONE',  ( 0.06928457977087637554, 0.005854820722516976966, 2.044199729494011898E-17 ) ) ;
#105 = ADVANCED_FACE ( 'NONE', ( #545 ), #49, .T. ) ;
#106 = EDGE_CURVE ( 'NONE', #318, #34, #272, .T. ) ;
#107 = TOROIDAL_SURFACE ( 'NONE', #351, 0.08661417322834646937, 0.01181102362204724393 ) ;
#108 = DIRECTION ( 'NONE',  ( 0.000000000000000000, 0.000000000000000000, 1.000000000000000000 ) ) ;
#109 = DIRECTION ( 'NONE',  ( 0.6058081784656141888, 0.7956107408175022710, 0.000000000000000000 ) ) ;
#110 = DIRECTION ( 'NONE',  ( -0.1136381605096604547, -0.9935222033130315378, -3.468864232593766920E-15 ) ) ;
#111 = FACE_OUTER_BOUND ( 'NONE', #569, .T. ) ;
#112 = CIRCLE ( 'NONE', #182, 0.1574241509847328357 ) ;
#113 = AXIS2_PLACEMENT_3D ( 'NONE', #538, #43, #212 ) ;
#114 = ORIENTED_EDGE ( 'NONE', *, *, #552, .T. ) ;
#115 = PERSON_AND_ORGANIZATION_ROLE ( 'creator' ) ;
#116 = CARTESIAN_POINT ( 'NONE',  ( 0.1570024089121033473, -0.004178264309976299079, -1.458833186703647850E-17 ) ) ;
#117 = ORIENTED_EDGE ( 'NONE', *, *, #629, .T. ) ;
#118 = VECTOR ( 'NONE', #2, 39.37007874015748854 ) ;
#119 = ORIENTED_EDGE ( 'NONE', *, *, #208, .T. ) ;
#120 = ADVANCED_FACE ( 'NONE', ( #151 ), #269, .F. ) ;
#121 = DIRECTION ( 'NONE',  ( 0.000000000000000000, -1.000000000000000000, -2.323290369611795004E-16 ) ) ;
#122 = CARTESIAN_POINT ( 'NONE',  ( 0.1570024089121033473, -0.004178264309976299079, -1.458833186703647850E-17 ) ) ;
#123 = MANIFOLD_SOLID_BREP ( 'NONE', #243 ) ;
#124 = AXIS2_PLACEMENT_3D ( 'NONE', #95, #160, #223 ) ;
#125 = APPROVAL ( #216, 'UNSPECIFIED' ) ;
#126 = EDGE_LOOP ( 'NONE', ( #152, #358, #117 ) ) ;
#127 = EDGE_CURVE ( 'NONE', #36, #575, #52, .T. ) ;
#128 = CARTESIAN_POINT ( 'NONE',  ( 0.06928457977087637554, 0.000000000000000000, -0.005854820722516976966 ) ) ;
#129 = AXIS2_PLACEMENT_3D ( 'NONE', #9, #485, #37 ) ;
#130 = EDGE_LOOP ( 'NONE', ( #578, #245, #263 ) ) ;
#131 = CARTESIAN_POINT ( 'NONE',  ( 0.06928457977087637554, -0.005854820722516976966, -2.044199729494011898E-17 ) ) ;
#132 = DIRECTION ( 'NONE',  ( -0.1136381605096604547, 0.9935222033130315378, 3.598658718911462097E-15 ) ) ;
#133 = CARTESIAN_POINT ( 'NONE',  ( 0.06023622047244094058, -0.006889763779527558960, 0.006889763779527558960 ) ) ;
#134 = PLANE ( 'NONE',  #353 ) ;
#135 = ADVANCED_FACE ( 'NONE', ( #669 ), #99, .T. ) ;
#136 = ORIENTED_EDGE ( 'NONE', *, *, #106, .T. ) ;
#137 = DIRECTION ( 'NONE',  ( 0.000000000000000000, 0.000000000000000000, 1.000000000000000000 ) ) ;
#138 = ORIENTED_EDGE ( 'NONE', *, *, #127, .T. ) ;
#139 = EDGE_LOOP ( 'NONE', ( #50, #41, #119, #477 ) ) ;
#140 =( CONVERSION_BASED_UNIT ( 'INCH', #639 ) LENGTH_UNIT ( ) NAMED_UNIT ( #39 ) );
#141 = AXIS2_PLACEMENT_3D ( 'NONE', #682, #235, #459 ) ;
#142 = DIRECTION ( 'NONE',  ( 0.7923367461350608876, -0.6033152348021878497, 0.09062675200891229244 ) ) ;
#143 = CARTESIAN_POINT ( 'NONE',  ( 0.06993717359243366294, -0.005780177638351952953, 0.005780177638351929534 ) ) ;
#144 = CIRCLE ( 'NONE', #560, 0.09842519685039370636 ) ;
#145 = CARTESIAN_POINT ( 'NONE',  ( 0.007698422835822540423, 0.04689403452897882713, -0.01289898899940222429 ) ) ;
#146 = ORIENTED_EDGE ( 'NONE', *, *, #454, .T. ) ;
#147 = ORIENTED_EDGE ( 'NONE', *, *, #644, .F. ) ;
#148 = ORIENTED_EDGE ( 'NONE', *, *, #56, .T. ) ;
#149 = DIRECTION ( 'NONE',  ( -1.000000000000000000, 0.000000000000000000, 0.000000000000000000 ) ) ;
#150 = CARTESIAN_POINT ( 'NONE',  ( 0.000000000000000000, -0.05275590551181102983, -0.01377952755905511792 ) ) ;
#151 = FACE_OUTER_BOUND ( 'NONE', #360, .T. ) ;
#152 = ORIENTED_EDGE ( 'NONE', *, *, #714, .T. ) ;
#153 = CARTESIAN_POINT ( 'NONE',  ( 0.007698422835822540423, -0.01289898899940238215, 0.04689403452897873692 ) ) ;
#154 = APPROVAL_DATE_TIME ( #656, #610 ) ;
#155 = DIRECTION ( 'NONE',  ( 0.000000000000000000, 0.000000000000000000, 1.000000000000000000 ) ) ;
#156 = CARTESIAN_POINT ( 'NONE',  ( 0.04035846629414551606, 1.060717700048887703E-17, -0.08661417322834646937 ) ) ;
#157 = ORGANIZATION ( 'UNSPECIFIED', 'UNSPECIFIED', '' ) ;
#158 = CIRCLE ( 'NONE', #708, 0.09363694403064487526 ) ;
#159 = PERSON_AND_ORGANIZATION ( #22, #157 ) ;
#160 = DIRECTION ( 'NONE',  ( 0.6058081784656141888, -0.7956107408175022710, -1.232289848067340264E-16 ) ) ;
#161 = FACE_OUTER_BOUND ( 'NONE', #420, .T. ) ;
#162 = AXIS2_PLACEMENT_3D ( 'NONE', #104, #556, #203 ) ;
#163 = DIRECTION ( 'NONE',  ( -0.1136381605096602604, 1.297944863177000830E-16, -0.9935222033130315378 ) ) ;
#164 = EDGE_CURVE ( 'NONE', #36, #467, #355, .T. ) ;
#165 = APPLICATION_PROTOCOL_DEFINITION ( 'international standard', 'config_control_design', 1994, #680 ) ;
#166 = ORIENTED_EDGE ( 'NONE', *, *, #438, .F. ) ;
#167 = EDGE_CURVE ( 'NONE', #84, #690, #288, .T. ) ;
#168 = DIRECTION ( 'NONE',  ( -1.000000000000000000, 0.000000000000000000, 0.000000000000000000 ) ) ;
#169 = DATE_AND_TIME ( #674, #659 ) ;
#170 = DIRECTION ( 'NONE',  ( -0.7956107408175021600, 0.000000000000000000, -0.6058081784656141888 ) ) ;
#171 = CC_DESIGN_PERSON_AND_ORGANIZATION_ASSIGNMENT ( #159, #387, ( #27 ) ) ;
#172 = CARTESIAN_POINT ( 'NONE',  ( 0.08267716535433070058, 0.000000000000000000, 0.000000000000000000 ) ) ;
#173 = ORIENTED_EDGE ( 'NONE', *, *, #56, .F. ) ;
#174 = CIRCLE ( 'NONE', #718, 0.1574241509847327802 ) ;
#175 = APPROVAL_DATE_TIME ( #222, #186 ) ;
#176 = CARTESIAN_POINT ( 'NONE',  ( 0.03086210018605220831, -0.09363694403064487526, -1.146721837890691087E-17 ) ) ;
#177 = VECTOR ( 'NONE', #121, 39.37007874015748143 ) ;
#178 = LINE ( 'NONE', #4, #601 ) ;
#179 = CC_DESIGN_DATE_AND_TIME_ASSIGNMENT ( #604, #441, ( #27 ) ) ;
#180 = ORIENTED_EDGE ( 'NONE', *, *, #683, .T. ) ;
#181 = DIRECTION ( 'NONE',  ( 0.9871686829601515889, -0.1129114506653771666, 0.1129114506653767641 ) ) ;
#182 = AXIS2_PLACEMENT_3D ( 'NONE', #562, #57, #675 ) ;
#183 = AXIS2_PLACEMENT_3D ( 'NONE', #367, #378, #496 ) ;
#184 = CARTESIAN_POINT ( 'NONE',  ( 0.001186545375970110301, -0.01364381158467939219, -0.01364381158467944943 ) ) ;
#185 = ADVANCED_FACE ( 'NONE', ( #646 ), #609, .T. ) ;
#186 = APPROVAL ( #284, 'UNSPECIFIED' ) ;
#187 = DESIGN_CONTEXT ( 'detailed design', #512, 'design' ) ;
#188 = DIRECTION ( 'NONE',  ( -0.9935222033130314268, 0.000000000000000000, 0.1136381605096604408 ) ) ;
#189 = EDGE_CURVE ( 'NONE', #696, #365, #205, .T. ) ;
#190 = CARTESIAN_POINT ( 'NONE',  ( 0.1570024089121033473, 0.004178264309976283467, 1.513418345244098302E-17 ) ) ;
#191 = AXIS2_PLACEMENT_3D ( 'NONE', #431, #254, #596 ) ;
#192 = AXIS2_PLACEMENT_3D ( 'NONE', #315, #469, #83 ) ;
#193 = VERTEX_POINT ( 'NONE', #534 ) ;
#194 = DIRECTION ( 'NONE',  ( -0.1136381605096604547, 1.297944863177000337E-16, -0.9935222033130315378 ) ) ;
#195 = ORIENTED_EDGE ( 'NONE', *, *, #505, .T. ) ;
#196 = DIRECTION ( 'NONE',  ( -1.000000000000000000, 0.000000000000000000, 0.000000000000000000 ) ) ;
#197 = ADVANCED_FACE ( 'NONE', ( #20 ), #563, .T. ) ;
#198 = DIRECTION ( 'NONE',  ( 1.000000000000000000, 0.000000000000000000, 0.000000000000000000 ) ) ;
#199 = ORIENTED_EDGE ( 'NONE', *, *, #260, .F. ) ;
#200 = ORIENTED_EDGE ( 'NONE', *, *, #42, .T. ) ;
#201 = PLANE ( 'NONE',  #618 ) ;
#202 = SPHERICAL_SURFACE ( 'NONE', #191, 0.1574803149606299191 ) ;
#203 = DIRECTION ( 'NONE',  ( -0.9935222033130314268, 0.1136381605096604269, 0.000000000000000000 ) ) ;
#204 = ORIENTED_EDGE ( 'NONE', *, *, #62, .T. ) ;
#205 = CIRCLE ( 'NONE', #617, 0.1481395187163887517 ) ;
#206 = LINE ( 'NONE', #253, #645 ) ;
#207 = EDGE_CURVE ( 'NONE', #40, #209, #409, .T. ) ;
#208 = EDGE_CURVE ( 'NONE', #529, #433, #688, .T. ) ;
#209 = VERTEX_POINT ( 'NONE', #348 ) ;
#210 = EDGE_LOOP ( 'NONE', ( #300, #537, #138, #579 ) ) ;
#211 = PLANE ( 'NONE',  #395 ) ;
#212 = DIRECTION ( 'NONE',  ( 0.000000000000000000, 1.000000000000000000, 0.000000000000000000 ) ) ;
#213 = DIRECTION ( 'NONE',  ( -4.585378925690980395E-15, -1.000000000000000000, 0.000000000000000000 ) ) ;
#214 = CARTESIAN_POINT ( 'NONE',  ( -1.000000000000000000, 0.000000000000000000, 0.000000000000000000 ) ) ;
#215 = PLANE ( 'NONE',  #587 ) ;
#216 = APPROVAL_STATUS ( 'not_yet_approved' ) ;
#217 = DIRECTION ( 'NONE',  ( 0.000000000000000000, 0.000000000000000000, -1.000000000000000000 ) ) ;
#218 = CARTESIAN_POINT ( 'NONE',  ( 0.7125984251968504601, 0.000000000000000000, 0.000000000000000000 ) ) ;
#219 = EDGE_CURVE ( 'NONE', #577, #193, #224, .T. ) ;
#220 = APPROVAL_STATUS ( 'not_yet_approved' ) ;
#221 = DIRECTION ( 'NONE',  ( 3.166769598145284884E-14, 0.000000000000000000, 1.000000000000000000 ) ) ;
#222 = DATE_AND_TIME ( #565, #229 ) ;
#223 = DIRECTION ( 'NONE',  ( 0.7956107408175021600, 0.6058081784656142998, 0.000000000000000000 ) ) ;
#224 = LINE ( 'NONE', #279, #586 ) ;
#225 = FACE_OUTER_BOUND ( 'NONE', #126, .T. ) ;
#226 = EDGE_LOOP ( 'NONE', ( #204, #17, #342 ) ) ;
#227 = APPROVAL_ROLE ( '' ) ;
#228 = ORIENTED_EDGE ( 'NONE', *, *, #454, .F. ) ;
#229 = LOCAL_TIME ( 2, 40, 11.00000000000000000, #448 ) ;
#230 = DIRECTION ( 'NONE',  ( 0.000000000000000000, 0.000000000000000000, 1.000000000000000000 ) ) ;
#231 = CIRCLE ( 'NONE', #307, 0.09842519685039370636 ) ;
#232 = DIRECTION ( 'NONE',  ( -0.1136381605096604547, -0.9935222033130315378, -3.468864232593766920E-15 ) ) ;
#233 = DIRECTION ( 'NONE',  ( 0.000000000000000000, 0.000000000000000000, 1.000000000000000000 ) ) ;
#234 = CARTESIAN_POINT ( 'NONE',  ( -1.000000000000000000, 1.205361022782826802E-17, -0.09842519685039370636 ) ) ;
#235 = DIRECTION ( 'NONE',  ( -1.000000000000000000, 0.000000000000000000, 0.000000000000000000 ) ) ;
#236 = CIRCLE ( 'NONE', #568, 0.1481395187163887517 ) ;
#237 = ADVANCED_FACE ( 'NONE', ( #111 ), #283, .F. ) ;
#238 = DIRECTION ( 'NONE',  ( 1.000000000000000000, 0.000000000000000000, 0.000000000000000000 ) ) ;
#239 = EDGE_CURVE ( 'NONE', #286, #529, #63, .T. ) ;
#240 = AXIS2_PLACEMENT_3D ( 'NONE', #698, #155, #198 ) ;
#241 = AXIS2_PLACEMENT_3D ( 'NONE', #44, #15, #230 ) ;
#242 = CIRCLE ( 'NONE', #678, 0.09363694403064487526 ) ;
#243 = CLOSED_SHELL ( 'NONE', ( #105, #185, #285, #703, #676, #120, #687, #237, #464, #78, #375, #135, #291, #363, #466, #572, #658, #197, #324, #364, #414, #516, #522 ) ) ;
#244 = AXIS2_PLACEMENT_3D ( 'NONE', #101, #567, #500 ) ;
#245 = ORIENTED_EDGE ( 'NONE', *, *, #498, .F. ) ;
#246 = DIRECTION ( 'NONE',  ( -0.1136381605096604547, 1.297944863177000337E-16, -0.9935222033130315378 ) ) ;
#247 = EDGE_CURVE ( 'NONE', #84, #433, #506, .T. ) ;
#248 = CARTESIAN_POINT ( 'NONE',  ( 0.7125984251968504601, 0.04921259842519685318, 0.000000000000000000 ) ) ;
#249 = ORIENTED_EDGE ( 'NONE', *, *, #290, .F. ) ;
#250 = DIRECTION ( 'NONE',  ( 0.7923367461350614427, 0.6033152348021872946, 0.09062675200891223692 ) ) ;
#251 = AXIS2_PLACEMENT_3D ( 'NONE', #621, #452, #233 ) ;
#252 = ORIENTED_EDGE ( 'NONE', *, *, #401, .F. ) ;
#253 = CARTESIAN_POINT ( 'NONE',  ( 0.000000000000000000, 0.05275590551181102983, 0.01377952755905511792 ) ) ;
#254 = DIRECTION ( 'NONE',  ( 1.000000000000000000, -0.000000000000000000, 0.000000000000000000 ) ) ;
#255 = VERTEX_POINT ( 'NONE', #153 ) ;
#256 = ORIENTED_EDGE ( 'NONE', *, *, #247, .T. ) ;
#257 = DIRECTION ( 'NONE',  ( -0.9935222033130314268, 0.000000000000000000, 0.1136381605096604408 ) ) ;
#258 = LINE ( 'NONE', #316, #344 ) ;
#259 = ORIENTED_EDGE ( 'NONE', *, *, #438, .T. ) ;
#260 = EDGE_CURVE ( 'NONE', #690, #23, #158, .T. ) ;
#261 = AXIS2_PLACEMENT_3D ( 'NONE', #555, #109, #282 ) ;
#262 = CARTESIAN_POINT ( 'NONE',  ( 0.007698422835822540423, -0.01289898899940204735, -0.04689403452897890345 ) ) ;
#263 = ORIENTED_EDGE ( 'NONE', *, *, #106, .F. ) ;
#264 = AXIS2_PLACEMENT_3D ( 'NONE', #440, #437, #664 ) ;
#265 = VERTEX_POINT ( 'NONE', #361 ) ;
#266 = CIRCLE ( 'NONE', #21, 0.09363694403064487526 ) ;
#267 = AXIS2_PLACEMENT_3D ( 'NONE', #214, #168, #368 ) ;
#268 = CARTESIAN_POINT ( 'NONE',  ( 0.03086210018605220831, 0.09363694403064487526, 0.000000000000000000 ) ) ;
#269 = PLANE ( 'NONE',  #632 ) ;
#270 = ORIENTED_EDGE ( 'NONE', *, *, #273, .T. ) ;
#271 = FACE_OUTER_BOUND ( 'NONE', #475, .T. ) ;
#272 = LINE ( 'NONE', #5, #379 ) ;
#273 = EDGE_CURVE ( 'NONE', #102, #46, #711, .T. ) ;
#274 = DIRECTION ( 'NONE',  ( -0.1136381605096602604, 1.297944863177000830E-16, -0.9935222033130315378 ) ) ;
#275 = CIRCLE ( 'NONE', #240, 0.1574803149606299191 ) ;
#276 = PERSON_AND_ORGANIZATION ( #22, #157 ) ;
#277 = DIRECTION ( 'NONE',  ( -0.9871686829601518109, -0.1129114506653761951, -0.1129114506653767780 ) ) ;
#278 = CIRCLE ( 'NONE', #96, 0.04921259842519685318 ) ;
#279 = CARTESIAN_POINT ( 'NONE',  ( 0.06993717359243366294, 0.005780177638351906115, 0.005780177638351929534 ) ) ;
#280 = DIRECTION ( 'NONE',  ( 0.6058081784656141888, -2.777860054547467703E-15, 0.7956107408175022710 ) ) ;
#281 = AXIS2_PLACEMENT_3D ( 'NONE', #190, #132, #449 ) ;
#282 = DIRECTION ( 'NONE',  ( 0.000000000000000000, 0.000000000000000000, -1.000000000000000000 ) ) ;
#283 = PLANE ( 'NONE',  #129 ) ;
#284 = APPROVAL_STATUS ( 'not_yet_approved' ) ;
#285 = ADVANCED_FACE ( 'NONE', ( #309 ), #211, .F. ) ;
#286 = VERTEX_POINT ( 'NONE', #474 ) ;
#287 = CARTESIAN_POINT ( 'NONE',  ( 0.001186545375970110301, 0.01364381158467950841, -0.01364381158467944943 ) ) ;
#288 = CIRCLE ( 'NONE', #453, 0.01181102362204724046 ) ;
#289 = VERTEX_POINT ( 'NONE', #423 ) ;
#290 = EDGE_CURVE ( 'NONE', #265, #46, #258, .T. ) ;
#291 = ADVANCED_FACE ( 'NONE', ( #321, #271 ), #533, .F. ) ;
#292 = DIRECTION ( 'NONE',  ( -0.1136381605096604408, 0.000000000000000000, 0.9935222033130315378 ) ) ;
#293 = ORIENTED_EDGE ( 'NONE', *, *, #558, .T. ) ;
#294 = PRODUCT_DEFINITION ( 'UNKNOWN', '', #705, #187 ) ;
#295 = AXIS2_PLACEMENT_3D ( 'NONE', #443, #672, #334 ) ;
#296 = LOCAL_TIME ( 2, 40, 11.00000000000000000, #548 ) ;
#297 = EDGE_LOOP ( 'NONE', ( #605, #301, #494 ) ) ;
#298 = ORIENTED_EDGE ( 'NONE', *, *, #558, .F. ) ;
#299 = DIRECTION ( 'NONE',  ( 0.7956107408175021600, 0.6058081784656142998, 0.000000000000000000 ) ) ;
#300 = ORIENTED_EDGE ( 'NONE', *, *, #417, .F. ) ;
#301 = ORIENTED_EDGE ( 'NONE', *, *, #498, .T. ) ;
#302 = DIRECTION ( 'NONE',  ( -0.9935222033130314268, 0.1136381605096604269, 0.000000000000000000 ) ) ;
#303 = CARTESIAN_POINT ( 'NONE',  ( 0.007698422835822540423, -0.04689403452897882713, -0.01289898899940220521 ) ) ;
#304 = VECTOR ( 'NONE', #515, 39.37007874015748143 ) ;
#305 = VECTOR ( 'NONE', #489, 39.37007874015748143 ) ;
#306 = TOROIDAL_SURFACE ( 'NONE', #183, 0.08661417322834646937, 0.01181102362204724393 ) ;
#307 = AXIS2_PLACEMENT_3D ( 'NONE', #386, #490, #331 ) ;
#308 = ORIENTED_EDGE ( 'NONE', *, *, #536, .F. ) ;
#309 = FACE_OUTER_BOUND ( 'NONE', #593, .T. ) ;
#310 = LINE ( 'NONE', #91, #426 ) ;
#311 = CIRCLE ( 'NONE', #281, 0.1574241509847328357 ) ;
#312 = EDGE_CURVE ( 'NONE', #577, #46, #488, .T. ) ;
#313 = ORIENTED_EDGE ( 'NONE', *, *, #497, .F. ) ;
#314 = EDGE_LOOP ( 'NONE', ( #701, #12, #298, #308, #228 ) ) ;
#315 = CARTESIAN_POINT ( 'NONE',  ( 0.7125984251968504601, 0.000000000000000000, 0.000000000000000000 ) ) ;
#316 = CARTESIAN_POINT ( 'NONE',  ( 0.000000000000000000, 0.01377952755905529486, -0.05275590551181102983 ) ) ;
#317 = DIRECTION ( 'NONE',  ( -0.7956107408175021600, 0.6058081784656141888, 0.000000000000000000 ) ) ;
#318 = VERTEX_POINT ( 'NONE', #262 ) ;
#319 = ORIENTED_EDGE ( 'NONE', *, *, #417, .T. ) ;
#320 = DIRECTION ( 'NONE',  ( 0.7923367461350613317, 0.09062675200891444349, -0.6033152348021871836 ) ) ;
#321 = FACE_BOUND ( 'NONE', #64, .T. ) ;
#322 = VERTEX_POINT ( 'NONE', #303 ) ;
#323 = ORIENTED_EDGE ( 'NONE', *, *, #32, .T. ) ;
#324 = ADVANCED_FACE ( 'NONE', ( #161 ), #657, .T. ) ;
#325 = APPROVAL_DATE_TIME ( #169, #125 ) ;
#326 = CALENDAR_DATE ( 2026, 24, 8 ) ;
#327 = DIRECTION ( 'NONE',  ( 0.7923367461350614427, 0.6033152348021872946, -0.09062675200891213978 ) ) ;
#328 = DIRECTION ( 'NONE',  ( -0.1136381605096602604, 0.9935222033130315378, 3.598658718911462097E-15 ) ) ;
#329 = DIRECTION ( 'NONE',  ( -0.9935222033130314268, 0.000000000000000000, 0.1136381605096602465 ) ) ;
#330 = PLANE ( 'NONE',  #261 ) ;
#331 = DIRECTION ( 'NONE',  ( 0.000000000000000000, 0.000000000000000000, 1.000000000000000000 ) ) ;
#332 = AXIS2_PLACEMENT_3D ( 'NONE', #704, #77, #585 ) ;
#333 = PERSON_AND_ORGANIZATION ( #22, #157 ) ;
#334 = DIRECTION ( 'NONE',  ( 0.000000000000000000, 0.000000000000000000, 1.000000000000000000 ) ) ;
#335 = AXIS2_PLACEMENT_3D ( 'NONE', #595, #194, #257 ) ;
#336 = DIRECTION ( 'NONE',  ( -1.000000000000000000, 0.000000000000000000, 0.000000000000000000 ) ) ;
#337 = EDGE_CURVE ( 'NONE', #637, #696, #275, .T. ) ;
#338 = PRODUCT_RELATED_PRODUCT_CATEGORY ( 'detail', '', ( #392 ) ) ;
#339 = APPLICATION_PROTOCOL_DEFINITION ( 'international standard', 'config_control_design', 1994, #512 ) ;
#340 = ORIENTED_EDGE ( 'NONE', *, *, #497, .T. ) ;
#341 = CARTESIAN_POINT ( 'NONE',  ( 0.7125984251968504601, 0.000000000000000000, 0.04921259842519685318 ) ) ;
#342 = ORIENTED_EDGE ( 'NONE', *, *, #700, .F. ) ;
#343 = CC_DESIGN_APPROVAL ( #125, ( #705 ) ) ;
#344 = VECTOR ( 'NONE', #48, 39.37007874015748143 ) ;
#345 = EDGE_CURVE ( 'NONE', #102, #696, #643, .T. ) ;
#346 = CARTESIAN_POINT ( 'NONE',  ( 0.03086210018605220831, 0.000000000000000000, 0.000000000000000000 ) ) ;
#347 = CC_DESIGN_PERSON_AND_ORGANIZATION_ASSIGNMENT ( #1, #661, ( #392 ) ) ;
#348 = CARTESIAN_POINT ( 'NONE',  ( 0.001186545375970110301, -0.01364381158467950841, 0.01364381158467944943 ) ) ;
#349 = FACE_OUTER_BOUND ( 'NONE', #434, .T. ) ;
#350 = CARTESIAN_POINT ( 'NONE',  ( 0.06993717359243366294, 0.005780177638351946014, -0.005780177638351929534 ) ) ;
#351 = AXIS2_PLACEMENT_3D ( 'NONE', #405, #65, #513 ) ;
#352 = CIRCLE ( 'NONE', #141, 0.09363694403064487526 ) ;
#353 = AXIS2_PLACEMENT_3D ( 'NONE', #248, #238, #461 ) ;
#354 = VECTOR ( 'NONE', #457, 39.37007874015748143 ) ;
#355 = CIRCLE ( 'NONE', #517, 0.04921259842519685318 ) ;
#356 = LINE ( 'NONE', #150, #463 ) ;
#357 = ORIENTED_EDGE ( 'NONE', *, *, #32, .F. ) ;
#358 = ORIENTED_EDGE ( 'NONE', *, *, #219, .T. ) ;
#359 = CARTESIAN_POINT ( 'NONE',  ( 0.007250774900580414691, 0.04723489063653244641, 0.000000000000000000 ) ) ;
#360 = EDGE_LOOP ( 'NONE', ( #136, #148, #249, #397 ) ) ;
#361 = CARTESIAN_POINT ( 'NONE',  ( 0.007698422835822540423, 0.01289898899940238215, -0.04689403452897873692 ) ) ;
#362 = AXIS2_PLACEMENT_3D ( 'NONE', #487, #108, #492 ) ;
#363 = ADVANCED_FACE ( 'NONE', ( #373 ), #527, .T. ) ;
#364 = ADVANCED_FACE ( 'NONE', ( #481 ), #202, .T. ) ;
#365 = VERTEX_POINT ( 'NONE', #653 ) ;
#366 = DIRECTION ( 'NONE',  ( 0.6058081784656141888, -0.7956107408175022710, -1.232289848067340264E-16 ) ) ;
#367 = CARTESIAN_POINT ( 'NONE',  ( 0.04035846629414551606, 0.000000000000000000, 0.000000000000000000 ) ) ;
#368 = DIRECTION ( 'NONE',  ( 0.000000000000000000, 0.000000000000000000, 1.000000000000000000 ) ) ;
#369 = ORIENTED_EDGE ( 'NONE', *, *, #337, .F. ) ;
#370 = ORIENTED_EDGE ( 'NONE', *, *, #393, .T. ) ;
#371 = CARTESIAN_POINT ( 'NONE',  ( 0.03086210018605220831, 0.000000000000000000, 0.000000000000000000 ) ) ;
#372 = DIRECTION ( 'NONE',  ( 0.000000000000000000, 0.000000000000000000, 1.000000000000000000 ) ) ;
#373 = FACE_OUTER_BOUND ( 'NONE', #210, .T. ) ;
#374 = ORIENTED_EDGE ( 'NONE', *, *, #592, .F. ) ;
#375 = ADVANCED_FACE ( 'NONE', ( #531 ), #306, .T. ) ;
#376 = SHAPE_DEFINITION_REPRESENTATION ( #465, #100 ) ;
#377 = EDGE_LOOP ( 'NONE', ( #709, #256, #146, #535, #199 ) ) ;
#378 = DIRECTION ( 'NONE',  ( -1.000000000000000000, 0.000000000000000000, 0.000000000000000000 ) ) ;
#379 = VECTOR ( 'NONE', #445, 39.37007874015748854 ) ;
#380 = CALENDAR_DATE ( 2026, 24, 8 ) ;
#381 = CARTESIAN_POINT ( 'NONE',  ( 0.000000000000000000, -0.05275590551181102983, 0.01377952755905511792 ) ) ;
#382 = CARTESIAN_POINT ( 'NONE',  ( 0.04035846629414551606, 0.000000000000000000, 0.08661417322834646937 ) ) ;
#383 = CARTESIAN_POINT ( 'NONE',  ( 0.06928457977087637554, -0.005854820722516976966, -2.044199729494011898E-17 ) ) ;
#384 = LINE ( 'NONE', #398, #177 ) ;
#385 = DIRECTION ( 'NONE',  ( 0.000000000000000000, 1.000000000000000000, 1.224646799147353947E-16 ) ) ;
#386 = CARTESIAN_POINT ( 'NONE',  ( 0.04035846629414551606, 0.000000000000000000, 0.000000000000000000 ) ) ;
#387 = PERSON_AND_ORGANIZATION_ROLE ( 'classification_officer' ) ;
#388 = CARTESIAN_POINT ( 'NONE',  ( 0.06023622047244094058, -0.006889763779527558960, -0.006889763779527558960 ) ) ;
#389 = FACE_OUTER_BOUND ( 'NONE', #484, .T. ) ;
#390 = DIRECTION ( 'NONE',  ( 0.000000000000000000, 1.224646799147351975E-16, -1.000000000000000000 ) ) ;
#391 = AXIS2_PLACEMENT_3D ( 'NONE', #623, #390, #613 ) ;
#392 = PRODUCT ( 'M2.5 x 16.STEP_Default_sldprt', 'M2.5 x 16.STEP_Default_sldprt', '', ( #435 ) ) ;
#393 = EDGE_CURVE ( 'NONE', #523, #575, #54, .T. ) ;
#394 = ORIENTED_EDGE ( 'NONE', *, *, #273, .F. ) ;
#395 = AXIS2_PLACEMENT_3D ( 'NONE', #133, #280, #213 ) ;
#396 = PERSON_AND_ORGANIZATION ( #22, #157 ) ;
#397 = ORIENTED_EDGE ( 'NONE', *, *, #505, .F. ) ;
#398 = CARTESIAN_POINT ( 'NONE',  ( 0.06023622047244094058, 0.006889763779527558960, 0.006889763779527558960 ) ) ;
#399 = DIRECTION ( 'NONE',  ( -1.000000000000000000, 0.000000000000000000, 0.000000000000000000 ) ) ;
#400 = ORIENTED_EDGE ( 'NONE', *, *, #189, .F. ) ;
#401 = EDGE_CURVE ( 'NONE', #34, #650, #566, .T. ) ;
#402 = CARTESIAN_POINT ( 'NONE',  ( 0.08267716535433070058, 0.000000000000000000, 0.04921259842519685318 ) ) ;
#403 = ORIENTED_EDGE ( 'NONE', *, *, #700, .T. ) ;
#404 = CC_DESIGN_APPROVAL ( #186, ( #294 ) ) ;
#405 = CARTESIAN_POINT ( 'NONE',  ( 0.04035846629414551606, 0.000000000000000000, 0.000000000000000000 ) ) ;
#406 = ORIENTED_EDGE ( 'NONE', *, *, #536, .T. ) ;
#407 = CARTESIAN_POINT ( 'NONE',  ( -1.000000000000000000, 0.000000000000000000, 0.09842519685039370636 ) ) ;
#408 = DIRECTION ( 'NONE',  ( 0.000000000000000000, 0.000000000000000000, 1.000000000000000000 ) ) ;
#409 = CIRCLE ( 'NONE', #528, 0.1574241509847328357 ) ;
#410 = AXIS2_PLACEMENT_3D ( 'NONE', #526, #366, #299 ) ;
#411 = ORIENTED_EDGE ( 'NONE', *, *, #33, .F. ) ;
#412 = CARTESIAN_POINT ( 'NONE',  ( 0.06023622047244094058, -0.006889763779527558960, 0.006889763779527558960 ) ) ;
#413 = ORIENTED_EDGE ( 'NONE', *, *, #345, .T. ) ;
#414 = ADVANCED_FACE ( 'NONE', ( #508 ), #450, .T. ) ;
#415 = ORIENTED_EDGE ( 'NONE', *, *, #714, .F. ) ;
#416 = APPROVAL_PERSON_ORGANIZATION ( #333, #610, #561 ) ;
#417 = EDGE_CURVE ( 'NONE', #467, #523, #178, .T. ) ;
#418 = CARTESIAN_POINT ( 'NONE',  ( -1.000000000000000000, 0.000000000000000000, 0.000000000000000000 ) ) ;
#419 = ORIENTED_EDGE ( 'NONE', *, *, #260, .T. ) ;
#420 = EDGE_LOOP ( 'NONE', ( #166, #89, #406, #93, #47, #638, #458, #427, #35, #616, #640 ) ) ;
#421 = CARTESIAN_POINT ( 'NONE',  ( 0.08267716535433070058, 0.000000000000000000, 0.000000000000000000 ) ) ;
#422 = LINE ( 'NONE', #143, #444 ) ;
#423 = CARTESIAN_POINT ( 'NONE',  ( 0.007250774900580414691, -0.04723489063653244641, -5.784605762610473035E-18 ) ) ;
#424 = CC_DESIGN_DATE_AND_TIME_ASSIGNMENT ( #503, #619, ( #294 ) ) ;
#425 = CARTESIAN_POINT ( 'NONE',  ( 0.1251121671308748073, -0.04250924135581582441, 0.000000000000000000 ) ) ;
#426 = VECTOR ( 'NONE', #320, 39.37007874015748143 ) ;
#427 = ORIENTED_EDGE ( 'NONE', *, *, #603, .T. ) ;
#428 = ORIENTED_EDGE ( 'NONE', *, *, #603, .F. ) ;
#429 = CARTESIAN_POINT ( 'NONE',  ( 0.04035846629414551606, 0.000000000000000000, 0.000000000000000000 ) ) ;
#430 = AXIS2_PLACEMENT_3D ( 'NONE', #478, #483, #547 ) ;
#431 = CARTESIAN_POINT ( 'NONE',  ( 0.1574803149606299191, -1.157146581871515875E-17, 0.000000000000000000 ) ) ;
#432 = DIRECTION ( 'NONE',  ( -1.000000000000000000, 0.000000000000000000, 0.000000000000000000 ) ) ;
#433 = VERTEX_POINT ( 'NONE', #103 ) ;
#434 = EDGE_LOOP ( 'NONE', ( #270, #588, #415, #400, #73 ) ) ;
#435 = MECHANICAL_CONTEXT ( 'NONE', #680, 'mechanical' ) ;
#436 = FACE_OUTER_BOUND ( 'NONE', #599, .T. ) ;
#437 = DIRECTION ( 'NONE',  ( 1.000000000000000000, -0.000000000000000000, 0.000000000000000000 ) ) ;
#438 = EDGE_CURVE ( 'NONE', #23, #289, #666, .T. ) ;
#439 = CARTESIAN_POINT ( 'NONE',  ( 0.06928457977087637554, 0.000000000000000000, 0.005854820722516976966 ) ) ;
#440 = CARTESIAN_POINT ( 'NONE',  ( 0.1574803149606299191, -1.157146581871515875E-17, 0.000000000000000000 ) ) ;
#441 = DATE_TIME_ROLE ( 'classification_date' ) ;
#442 = CARTESIAN_POINT ( 'NONE',  ( 0.007698422835822540423, -0.04689403452897882713, 0.01289898899940220521 ) ) ;
#443 = CARTESIAN_POINT ( 'NONE',  ( -1.000000000000000000, 0.000000000000000000, 0.000000000000000000 ) ) ;
#444 = VECTOR ( 'NONE', #30, 39.37007874015748854 ) ;
#445 = DIRECTION ( 'NONE',  ( 0.7923367461350611096, 0.09062675200891000260, 0.6033152348021879607 ) ) ;
#446 = EDGE_CURVE ( 'NONE', #60, #265, #174, .T. ) ;
#447 = DIRECTION ( 'NONE',  ( 0.6058081784656141888, 2.901089039354206265E-15, -0.7956107408175022710 ) ) ;
#448 = COORDINATED_UNIVERSAL_TIME_OFFSET ( 5, 30, .AHEAD. ) ;
#449 = DIRECTION ( 'NONE',  ( -0.9935222033130314268, -0.1136381605096604408, 0.000000000000000000 ) ) ;
#450 = CYLINDRICAL_SURFACE ( 'NONE', #251, 0.04921259842519685318 ) ;
#451 = VECTOR ( 'NONE', #612, 39.37007874015748143 ) ;
#452 = DIRECTION ( 'NONE',  ( -1.000000000000000000, 0.000000000000000000, 0.000000000000000000 ) ) ;
#453 = AXIS2_PLACEMENT_3D ( 'NONE', #156, #385, #654 ) ;
#454 = EDGE_CURVE ( 'NONE', #433, #24, #26, .T. ) ;
#455 = CARTESIAN_POINT ( 'NONE',  ( 0.03086210018605220831, 0.000000000000000000, 0.09363694403064487526 ) ) ;
#456 = CARTESIAN_POINT ( 'NONE',  ( 0.08267716535433070058, 6.026805113914134012E-18, -0.04921259842519685318 ) ) ;
#457 = DIRECTION ( 'NONE',  ( -1.000000000000000000, 0.000000000000000000, 0.000000000000000000 ) ) ;
#458 = ORIENTED_EDGE ( 'NONE', *, *, #70, .F. ) ;
#459 = DIRECTION ( 'NONE',  ( 0.000000000000000000, 0.000000000000000000, 1.000000000000000000 ) ) ;
#460 = VECTOR ( 'NONE', #327, 39.37007874015748854 ) ;
#461 = DIRECTION ( 'NONE',  ( 0.000000000000000000, 1.000000000000000000, 0.000000000000000000 ) ) ;
#462 = AXIS2_PLACEMENT_3D ( 'NONE', #418, #31, #92 ) ;
#463 = VECTOR ( 'NONE', #250, 39.37007874015748854 ) ;
#464 = ADVANCED_FACE ( 'NONE', ( #349 ), #330, .F. ) ;
#465 = PRODUCT_DEFINITION_SHAPE ( 'NONE', 'NONE',  #294 ) ;
#466 = ADVANCED_FACE ( 'NONE', ( #436 ), #608, .T. ) ;
#467 = VERTEX_POINT ( 'NONE', #668 ) ;
#468 = ORIENTED_EDGE ( 'NONE', *, *, #625, .F. ) ;
#469 = DIRECTION ( 'NONE',  ( -1.000000000000000000, 0.000000000000000000, 0.000000000000000000 ) ) ;
#470 = AXIS2_PLACEMENT_3D ( 'NONE', #429, #29, #697 ) ;
#471 = AXIS2_PLACEMENT_3D ( 'NONE', #518, #702, #486 ) ;
#472 = EDGE_CURVE ( 'NONE', #40, #289, #504, .T. ) ;
#473 = DIRECTION ( 'NONE',  ( 0.7923367461350614427, -0.6033152348021872946, -0.09062675200891223692 ) ) ;
#474 = CARTESIAN_POINT ( 'NONE',  ( 0.08267716535433070058, 1.205361022782828805E-17, -0.09842519685039370636 ) ) ;
#475 = EDGE_LOOP ( 'NONE', ( #584, #482 ) ) ;
#476 =( LENGTH_UNIT ( ) NAMED_UNIT ( * ) SI_UNIT ( $, .METRE. ) );
#477 = ORIENTED_EDGE ( 'NONE', *, *, #247, .F. ) ;
#478 = CARTESIAN_POINT ( 'NONE',  ( 0.1570024089121033473, -1.157146581871515875E-17, 0.004178264309976291273 ) ) ;
#479 = EDGE_LOOP ( 'NONE', ( #651, #679, #411 ) ) ;
#480 = CARTESIAN_POINT ( 'NONE',  ( 0.08267716535433070058, 0.000000000000000000, 0.000000000000000000 ) ) ;
#481 = FACE_OUTER_BOUND ( 'NONE', #520, .T. ) ;
#482 = ORIENTED_EDGE ( 'NONE', *, *, #239, .F. ) ;
#483 = DIRECTION ( 'NONE',  ( -0.1136381605096604547, 0.000000000000000000, 0.9935222033130315378 ) ) ;
#484 = EDGE_LOOP ( 'NONE', ( #501, #491, #374, #524 ) ) ;
#485 = DIRECTION ( 'NONE',  ( 0.6058081784656141888, -0.7956107408175022710, -1.232289848067340510E-16 ) ) ;
#486 = DIRECTION ( 'NONE',  ( 0.7956107408175021600, 0.000000000000000000, -0.6058081784656142998 ) ) ;
#487 = CARTESIAN_POINT ( 'NONE',  ( 0.000000000000000000, 0.000000000000000000, 0.000000000000000000 ) ) ;
#488 = LINE ( 'NONE', #716, #69 ) ;
#489 = DIRECTION ( 'NONE',  ( -1.000000000000000000, 0.000000000000000000, 0.000000000000000000 ) ) ;
#490 = DIRECTION ( 'NONE',  ( -1.000000000000000000, 0.000000000000000000, 0.000000000000000000 ) ) ;
#491 = ORIENTED_EDGE ( 'NONE', *, *, #574, .T. ) ;
#492 = DIRECTION ( 'NONE',  ( 1.000000000000000000, 0.000000000000000000, 0.000000000000000000 ) ) ;
#493 = LINE ( 'NONE', #620, #118 ) ;
#494 = ORIENTED_EDGE ( 'NONE', *, *, #8, .T. ) ;
#495 = LINE ( 'NONE', #53, #18 ) ;
#496 = DIRECTION ( 'NONE',  ( 0.000000000000000000, 0.000000000000000000, 1.000000000000000000 ) ) ;
#497 = EDGE_CURVE ( 'NONE', #40, #650, #550, .T. ) ;
#498 = EDGE_CURVE ( 'NONE', #34, #88, #495, .T. ) ;
#499 = PERSON_AND_ORGANIZATION_ROLE ( 'creator' ) ;
#500 = DIRECTION ( 'NONE',  ( 0.9935222033130314268, 0.000000000000000000, 0.1136381605096604547 ) ) ;
#501 = ORIENTED_EDGE ( 'NONE', *, *, #626, .T. ) ;
#502 = DIRECTION ( 'NONE',  ( 0.000000000000000000, -1.548860246407864815E-16, 1.000000000000000000 ) ) ;
#503 = DATE_AND_TIME ( #380, #296 ) ;
#504 = CIRCLE ( 'NONE', #124, 0.1481395187163887239 ) ;
#505 = EDGE_CURVE ( 'NONE', #318, #265, #236, .T. ) ;
#506 = CIRCLE ( 'NONE', #470, 0.09842519685039370636 ) ;
#507 = VECTOR ( 'NONE', #502, 39.37007874015748143 ) ;
#508 = FACE_OUTER_BOUND ( 'NONE', #635, .T. ) ;
#509 = CARTESIAN_POINT ( 'NONE',  ( 0.08267716535433070058, 0.000000000000000000, 0.09842519685039370636 ) ) ;
#510 = AXIS2_PLACEMENT_3D ( 'NONE', #25, #694, #137 ) ;
#511 = ORIENTED_EDGE ( 'NONE', *, *, #552, .F. ) ;
#512 = APPLICATION_CONTEXT ( 'configuration controlled 3d designs of mechanical parts and assemblies' ) ;
#513 = DIRECTION ( 'NONE',  ( 0.000000000000000000, 0.000000000000000000, 1.000000000000000000 ) ) ;
#514 = CC_DESIGN_APPROVAL ( #610, ( #27 ) ) ;
#515 = DIRECTION ( 'NONE',  ( -1.000000000000000000, 0.000000000000000000, 0.000000000000000000 ) ) ;
#516 = ADVANCED_FACE ( 'NONE', ( #389 ), #3, .T. ) ;
#517 = AXIS2_PLACEMENT_3D ( 'NONE', #218, #432, #591 ) ;
#518 = CARTESIAN_POINT ( 'NONE',  ( 0.1251121671308748073, 1.368487571034944951E-16, -0.04250924135581582441 ) ) ;
#519 = ORIENTED_EDGE ( 'NONE', *, *, #164, .T. ) ;
#520 = EDGE_LOOP ( 'NONE', ( #293, #419, #259, #180, #80, #652, #195, #673, #583, #413, #369 ) ) ;
#521 = FACE_OUTER_BOUND ( 'NONE', #710, .T. ) ;
#522 = ADVANCED_FACE ( 'NONE', ( #689 ), #107, .T. ) ;
#523 = VERTEX_POINT ( 'NONE', #456 ) ;
#524 = ORIENTED_EDGE ( 'NONE', *, *, #208, .F. ) ;
#525 = DIRECTION ( 'NONE',  ( 0.000000000000000000, 0.000000000000000000, 1.000000000000000000 ) ) ;
#526 = CARTESIAN_POINT ( 'NONE',  ( 0.1251121671308748073, 0.04250924135581582441, 6.584087404098031282E-18 ) ) ;
#527 = CYLINDRICAL_SURFACE ( 'NONE', #462, 0.04921259842519685318 ) ;
#528 = AXIS2_PLACEMENT_3D ( 'NONE', #631, #246, #188 ) ;
#529 = VERTEX_POINT ( 'NONE', #509 ) ;
#530 =( NAMED_UNIT ( * ) PLANE_ANGLE_UNIT ( ) SI_UNIT ( $, .RADIAN. ) );
#531 = FACE_OUTER_BOUND ( 'NONE', #377, .T. ) ;
#532 =( NAMED_UNIT ( * ) SI_UNIT ( $, .STERADIAN. ) SOLID_ANGLE_UNIT ( ) );
#533 = PLANE ( 'NONE',  #79 ) ;
#534 = CARTESIAN_POINT ( 'NONE',  ( 0.001186545375970110301, 0.01364381158467941127, 0.01364381158467944943 ) ) ;
#535 = ORIENTED_EDGE ( 'NONE', *, *, #571, .F. ) ;
#536 = EDGE_CURVE ( 'NONE', #24, #637, #352, .T. ) ;
#537 = ORIENTED_EDGE ( 'NONE', *, *, #627, .T. ) ;
#538 = CARTESIAN_POINT ( 'NONE',  ( 0.06928457977087637554, 0.000000000000000000, -0.005854820722516976966 ) ) ;
#539 = DIRECTION ( 'NONE',  ( 0.000000000000000000, 0.000000000000000000, 1.000000000000000000 ) ) ;
#540 = VECTOR ( 'NONE', #181, 39.37007874015748854 ) ;
#541 = ORIENTED_EDGE ( 'NONE', *, *, #401, .T. ) ;
#542 = ORIENTED_EDGE ( 'NONE', *, *, #290, .T. ) ;
#543 = SECURITY_CLASSIFICATION_LEVEL ( 'unclassified' ) ;
#544 = ORIENTED_EDGE ( 'NONE', *, *, #683, .F. ) ;
#545 = FACE_OUTER_BOUND ( 'NONE', #226, .T. ) ;
#546 = CARTESIAN_POINT ( 'NONE',  ( 0.06928457977087637554, 0.000000000000000000, 0.005854820722516976966 ) ) ;
#547 = DIRECTION ( 'NONE',  ( 0.9935222033130314268, 0.000000000000000000, 0.1136381605096604547 ) ) ;
#548 = COORDINATED_UNIVERSAL_TIME_OFFSET ( 5, 30, .AHEAD. ) ;
#549 = LOCAL_TIME ( 2, 40, 11.00000000000000000, #553 ) ;
#550 = LINE ( 'NONE', #381, #460 ) ;
#551 = CARTESIAN_POINT ( 'NONE',  ( -1.000000000000000000, 0.000000000000000000, 0.04921259842519685318 ) ) ;
#552 = EDGE_CURVE ( 'NONE', #60, #46, #685, .T. ) ;
#553 = COORDINATED_UNIVERSAL_TIME_OFFSET ( 5, 30, .AHEAD. ) ;
#554 = ORIENTED_EDGE ( 'NONE', *, *, #594, .F. ) ;
#555 = CARTESIAN_POINT ( 'NONE',  ( 0.06023622047244094058, 0.006889763779527558960, 0.006889763779527558960 ) ) ;
#556 = DIRECTION ( 'NONE',  ( -0.1136381605096604408, -0.9935222033130315378, -3.468864232593767314E-15 ) ) ;
#557 = AXIS2_PLACEMENT_3D ( 'NONE', #421, #149, #525 ) ;
#558 = EDGE_CURVE ( 'NONE', #637, #690, #266, .T. ) ;
#559 = AXIS2_PLACEMENT_3D ( 'NONE', #76, #641, #302 ) ;
#560 = AXIS2_PLACEMENT_3D ( 'NONE', #480, #712, #372 ) ;
#561 = APPROVAL_ROLE ( '' ) ;
#562 = CARTESIAN_POINT ( 'NONE',  ( 0.1570024089121033473, 0.004178264309976283467, 1.513418345244098302E-17 ) ) ;
#563 = PLANE ( 'NONE',  #648 ) ;
#564 = CIRCLE ( 'NONE', #244, 0.1574241509847327802 ) ;
#565 = CALENDAR_DATE ( 2026, 24, 8 ) ;
#566 = LINE ( 'NONE', #58, #507 ) ;
#567 = DIRECTION ( 'NONE',  ( -0.1136381605096604547, 0.000000000000000000, 0.9935222033130315378 ) ) ;
#568 = AXIS2_PLACEMENT_3D ( 'NONE', #51, #447, #170 ) ;
#569 = EDGE_LOOP ( 'NONE', ( #340, #252, #468, #544, #692 ) ) ;
#570 = DIRECTION ( 'NONE',  ( -1.000000000000000000, 0.000000000000000000, 0.000000000000000000 ) ) ;
#571 = EDGE_CURVE ( 'NONE', #23, #24, #242, .T. ) ;
#572 = ADVANCED_FACE ( 'NONE', ( #225 ), #215, .T. ) ;
#573 = DIRECTION ( 'NONE',  ( 0.000000000000000000, 1.000000000000000000, 0.000000000000000000 ) ) ;
#574 = EDGE_CURVE ( 'NONE', #286, #84, #67, .T. ) ;
#575 = VERTEX_POINT ( 'NONE', #402 ) ;
#576 = DIRECTION ( 'NONE',  ( -0.1136381605096602604, 0.9935222033130315378, 3.598658718911462097E-15 ) ) ;
#577 = VERTEX_POINT ( 'NONE', #615 ) ;
#578 = ORIENTED_EDGE ( 'NONE', *, *, #16, .T. ) ;
#579 = ORIENTED_EDGE ( 'NONE', *, *, #393, .F. ) ;
#580 = PLANE ( 'NONE',  #559 ) ;
#581 = DIRECTION ( 'NONE',  ( 0.000000000000000000, 0.000000000000000000, 1.000000000000000000 ) ) ;
#582 = AXIS2_PLACEMENT_3D ( 'NONE', #382, #606, #98 ) ;
#583 = ORIENTED_EDGE ( 'NONE', *, *, #42, .F. ) ;
#584 = ORIENTED_EDGE ( 'NONE', *, *, #626, .F. ) ;
#585 = DIRECTION ( 'NONE',  ( -0.7956107408175021600, 0.6058081784656141888, 0.000000000000000000 ) ) ;
#586 = VECTOR ( 'NONE', #614, 39.37007874015748143 ) ;
#587 = AXIS2_PLACEMENT_3D ( 'NONE', #546, #163, #329 ) ;
#588 = ORIENTED_EDGE ( 'NONE', *, *, #312, .F. ) ;
#589 = ORIENTED_EDGE ( 'NONE', *, *, #207, .T. ) ;
#590 = FACE_OUTER_BOUND ( 'NONE', #598, .T. ) ;
#591 = DIRECTION ( 'NONE',  ( 0.000000000000000000, 0.000000000000000000, 1.000000000000000000 ) ) ;
#592 = EDGE_CURVE ( 'NONE', #433, #84, #231, .T. ) ;
#593 = EDGE_LOOP ( 'NONE', ( #7, #323, #147, #428 ) ) ;
#594 = EDGE_CURVE ( 'NONE', #575, #523, #278, .T. ) ;
#595 = CARTESIAN_POINT ( 'NONE',  ( 0.1570024089121033473, -1.102561423331070815E-17, -0.004178264309976283467 ) ) ;
#596 = DIRECTION ( 'NONE',  ( 0.000000000000000000, 1.000000000000000000, 0.000000000000000000 ) ) ;
#597 = DIRECTION ( 'NONE',  ( -1.000000000000000000, 0.000000000000000000, 0.000000000000000000 ) ) ;
#598 = EDGE_LOOP ( 'NONE', ( #662, #542, #511 ) ) ;
#599 = EDGE_LOOP ( 'NONE', ( #589, #403, #313 ) ) ;
#600 = DIRECTION ( 'NONE',  ( 0.6058081784656141888, 2.901089039354204293E-15, -0.7956107408175022710 ) ) ;
#601 = VECTOR ( 'NONE', #399, 39.37007874015748143 ) ;
#602 = AXIS2_PLACEMENT_3D ( 'NONE', #116, #232, #684 ) ;
#603 = EDGE_CURVE ( 'NONE', #81, #255, #55, .T. ) ;
#604 = DATE_AND_TIME ( #607, #670 ) ;
#605 = ORIENTED_EDGE ( 'NONE', *, *, #625, .T. ) ;
#606 = DIRECTION ( 'NONE',  ( 0.000000000000000000, -1.000000000000000000, 0.000000000000000000 ) ) ;
#607 = CALENDAR_DATE ( 2026, 24, 8 ) ;
#608 = PLANE ( 'NONE',  #10 ) ;
#609 = PLANE ( 'NONE',  #162 ) ;
#610 = APPROVAL ( #220, 'UNSPECIFIED' ) ;
#611 = PERSON_AND_ORGANIZATION ( #22, #157 ) ;
#612 = DIRECTION ( 'NONE',  ( 0.000000000000000000, 1.000000000000000000, 7.744301232039319147E-17 ) ) ;
#613 = DIRECTION ( 'NONE',  ( 0.000000000000000000, 1.000000000000000000, 1.224646799147351975E-16 ) ) ;
#614 = DIRECTION ( 'NONE',  ( -0.9871686829601518109, 0.1129114506653763755, 0.1129114506653765698 ) ) ;
#615 = CARTESIAN_POINT ( 'NONE',  ( 0.06023622047244094058, 0.006889763779527558960, 0.006889763779527558960 ) ) ;
#616 = ORIENTED_EDGE ( 'NONE', *, *, #207, .F. ) ;
#617 = AXIS2_PLACEMENT_3D ( 'NONE', #425, #86, #317 ) ;
#618 = AXIS2_PLACEMENT_3D ( 'NONE', #131, #576, #74 ) ;
#619 = DATE_TIME_ROLE ( 'creation_date' ) ;
#620 = CARTESIAN_POINT ( 'NONE',  ( 0.000000000000000000, 0.01377952755905494098, 0.05275590551181102983 ) ) ;
#621 = CARTESIAN_POINT ( 'NONE',  ( -1.000000000000000000, 0.000000000000000000, 0.000000000000000000 ) ) ;
#622 = CC_DESIGN_PERSON_AND_ORGANIZATION_ASSIGNMENT ( #396, #499, ( #705 ) ) ;
#623 = CARTESIAN_POINT ( 'NONE',  ( 0.1574803149606299191, -1.157146581871515875E-17, 0.000000000000000000 ) ) ;
#624 = AXIS2_PLACEMENT_3D ( 'NONE', #383, #328, #221 ) ;
#625 = EDGE_CURVE ( 'NONE', #322, #34, #356, .T. ) ;
#626 = EDGE_CURVE ( 'NONE', #529, #286, #144, .T. ) ;
#627 = EDGE_CURVE ( 'NONE', #467, #36, #634, .T. ) ;
#628 = CARTESIAN_POINT ( 'NONE',  ( 0.04035846629414551606, 1.205361022782826802E-17, -0.09842519685039370636 ) ) ;
#629 = EDGE_CURVE ( 'NONE', #193, #365, #695, .T. ) ;
#630 = APPROVAL_PERSON_ORGANIZATION ( #667, #125, #671 ) ;
#631 = CARTESIAN_POINT ( 'NONE',  ( 0.1570024089121033473, -1.102561423331070815E-17, -0.004178264309976283467 ) ) ;
#632 = AXIS2_PLACEMENT_3D ( 'NONE', #717, #600, #713 ) ;
#633 = FACE_OUTER_BOUND ( 'NONE', #130, .T. ) ;
#634 = CIRCLE ( 'NONE', #192, 0.04921259842519685318 ) ;
#635 = EDGE_LOOP ( 'NONE', ( #519, #319, #554, #699 ) ) ;
#636 = FACE_OUTER_BOUND ( 'NONE', #297, .T. ) ;
#637 = VERTEX_POINT ( 'NONE', #268 ) ;
#638 = ORIENTED_EDGE ( 'NONE', *, *, #629, .F. ) ;
#639 = LENGTH_MEASURE_WITH_UNIT ( LENGTH_MEASURE( 0.02539999999999999897 ), #476 );
#640 = ORIENTED_EDGE ( 'NONE', *, *, #472, .T. ) ;
#641 = DIRECTION ( 'NONE',  ( -0.1136381605096604408, -0.9935222033130315378, -3.468864232593767314E-15 ) ) ;
#642 = CARTESIAN_POINT ( 'NONE',  ( 0.08267716535433070058, 0.04921259842519685318, 0.000000000000000000 ) ) ;
#643 = CIRCLE ( 'NONE', #332, 0.1481395187163887517 ) ;
#644 = EDGE_CURVE ( 'NONE', #255, #650, #310, .T. ) ;
#645 = VECTOR ( 'NONE', #473, 39.37007874015748854 ) ;
#646 = FACE_OUTER_BOUND ( 'NONE', #479, .T. ) ;
#647 = CC_DESIGN_PERSON_AND_ORGANIZATION_ASSIGNMENT ( #276, #59, ( #705 ) ) ;
#648 = AXIS2_PLACEMENT_3D ( 'NONE', #128, #292, #573 ) ;
#649 = CIRCLE ( 'NONE', #430, 0.1574241509847327802 ) ;
#650 = VERTEX_POINT ( 'NONE', #412 ) ;
#651 = ORIENTED_EDGE ( 'NONE', *, *, #70, .T. ) ;
#652 = ORIENTED_EDGE ( 'NONE', *, *, #16, .F. ) ;
#653 = CARTESIAN_POINT ( 'NONE',  ( 0.007698422835822540423, 0.04689403452897882713, 0.01289898899940222429 ) ) ;
#654 = DIRECTION ( 'NONE',  ( 0.000000000000000000, -1.224646799147354933E-16, 1.000000000000000000 ) ) ;
#655 = CC_DESIGN_SECURITY_CLASSIFICATION ( #27, ( #705 ) ) ;
#656 = DATE_AND_TIME ( #326, #549 ) ;
#657 = SPHERICAL_SURFACE ( 'NONE', #264, 0.1574803149606299191 ) ;
#658 = ADVANCED_FACE ( 'NONE', ( #636 ), #706, .T. ) ;
#659 = LOCAL_TIME ( 2, 40, 11.00000000000000000, #97 ) ;
#660 =( GEOMETRIC_REPRESENTATION_CONTEXT ( 3 ) GLOBAL_UNCERTAINTY_ASSIGNED_CONTEXT ( ( #19 ) ) GLOBAL_UNIT_ASSIGNED_CONTEXT ( ( #140, #530, #532 ) ) REPRESENTATION_CONTEXT ( 'NONE', 'WORKASPACE' ) );
#661 = PERSON_AND_ORGANIZATION_ROLE ( 'design_owner' ) ;
#662 = ORIENTED_EDGE ( 'NONE', *, *, #446, .T. ) ;
#663 = DIRECTION ( 'NONE',  ( -0.9935222033130314268, 0.000000000000000000, 0.1136381605096602465 ) ) ;
#664 = DIRECTION ( 'NONE',  ( 0.000000000000000000, 1.000000000000000000, 0.000000000000000000 ) ) ;
#665 = VECTOR ( 'NONE', #142, 39.37007874015748854 ) ;
#666 = CIRCLE ( 'NONE', #391, 0.1574803149606299191 ) ;
#667 = PERSON_AND_ORGANIZATION ( #22, #157 ) ;
#668 = CARTESIAN_POINT ( 'NONE',  ( 0.7125984251968504601, 6.026805113914134012E-18, -0.04921259842519685318 ) ) ;
#669 = FACE_OUTER_BOUND ( 'NONE', #139, .T. ) ;
#670 = LOCAL_TIME ( 2, 40, 11.00000000000000000, #11 ) ;
#671 = APPROVAL_ROLE ( '' ) ;
#672 = DIRECTION ( 'NONE',  ( -1.000000000000000000, 0.000000000000000000, 0.000000000000000000 ) ) ;
#673 = ORIENTED_EDGE ( 'NONE', *, *, #446, .F. ) ;
#674 = CALENDAR_DATE ( 2026, 24, 8 ) ;
#675 = DIRECTION ( 'NONE',  ( -0.9935222033130314268, -0.1136381605096604408, 0.000000000000000000 ) ) ;
#676 = ADVANCED_FACE ( 'NONE', ( #633 ), #201, .T. ) ;
#677 = DIRECTION ( 'NONE',  ( 0.000000000000000000, 0.000000000000000000, 1.000000000000000000 ) ) ;
#678 = AXIS2_PLACEMENT_3D ( 'NONE', #45, #336, #677 ) ;
#679 = ORIENTED_EDGE ( 'NONE', *, *, #219, .F. ) ;
#680 = APPLICATION_CONTEXT ( 'configuration controlled 3d designs of mechanical parts and assemblies' ) ;
#681 = DIRECTION ( 'NONE',  ( 0.9935222033130314268, -0.1136381605096604824, 0.000000000000000000 ) ) ;
#682 = CARTESIAN_POINT ( 'NONE',  ( 0.03086210018605220831, 0.000000000000000000, 0.000000000000000000 ) ) ;
#683 = EDGE_CURVE ( 'NONE', #289, #322, #71, .T. ) ;
#684 = DIRECTION ( 'NONE',  ( 0.9935222033130314268, -0.1136381605096604824, 0.000000000000000000 ) ) ;
#685 = LINE ( 'NONE', #350, #540 ) ;
#686 = CARTESIAN_POINT ( 'NONE',  ( 0.007698422835822540423, 0.01289898899940206817, 0.04689403452897890345 ) ) ;
#687 = ADVANCED_FACE ( 'NONE', ( #521 ), #38, .T. ) ;
#688 = LINE ( 'NONE', #407, #304 ) ;
#689 = FACE_OUTER_BOUND ( 'NONE', #314, .T. ) ;
#690 = VERTEX_POINT ( 'NONE', #85 ) ;
#691 = CC_DESIGN_PERSON_AND_ORGANIZATION_ASSIGNMENT ( #611, #115, ( #294 ) ) ;
#692 = ORIENTED_EDGE ( 'NONE', *, *, #472, .F. ) ;
#693 = CIRCLE ( 'NONE', #602, 0.1574241509847327802 ) ;
#694 = DIRECTION ( 'NONE',  ( -1.000000000000000000, 0.000000000000000000, 0.000000000000000000 ) ) ;
#695 = CIRCLE ( 'NONE', #335, 0.1574241509847328357 ) ;
#696 = VERTEX_POINT ( 'NONE', #359 ) ;
#697 = DIRECTION ( 'NONE',  ( 0.000000000000000000, 0.000000000000000000, 1.000000000000000000 ) ) ;
#698 = CARTESIAN_POINT ( 'NONE',  ( 0.1574803149606299191, -1.157146581871515875E-17, 0.000000000000000000 ) ) ;
#699 = ORIENTED_EDGE ( 'NONE', *, *, #127, .F. ) ;
#700 = EDGE_CURVE ( 'NONE', #209, #650, #422, .T. ) ;
#701 = ORIENTED_EDGE ( 'NONE', *, *, #592, .T. ) ;
#702 = DIRECTION ( 'NONE',  ( 0.6058081784656141888, -2.777860054547471253E-15, 0.7956107408175022710 ) ) ;
#703 = ADVANCED_FACE ( 'NONE', ( #590 ), #580, .T. ) ;
#704 = CARTESIAN_POINT ( 'NONE',  ( 0.1251121671308748073, -0.04250924135581582441, 0.000000000000000000 ) ) ;
#705 = PRODUCT_DEFINITION_FORMATION_WITH_SPECIFIED_SOURCE ( 'ANY', '', #392, .NOT_KNOWN. ) ;
#706 = PLANE ( 'NONE',  #113 ) ;
#707 = DIRECTION ( 'NONE',  ( -1.000000000000000000, 0.000000000000000000, 0.000000000000000000 ) ) ;
#708 = AXIS2_PLACEMENT_3D ( 'NONE', #371, #196, #90 ) ;
#709 = ORIENTED_EDGE ( 'NONE', *, *, #167, .F. ) ;
#710 = EDGE_LOOP ( 'NONE', ( #173, #541, #357, #13 ) ) ;
#711 = LINE ( 'NONE', #82, #665 ) ;
#712 = DIRECTION ( 'NONE',  ( -1.000000000000000000, 0.000000000000000000, 0.000000000000000000 ) ) ;
#713 = DIRECTION ( 'NONE',  ( 0.000000000000000000, -1.000000000000000000, -3.646367363483920379E-15 ) ) ;
#714 = EDGE_CURVE ( 'NONE', #365, #577, #206, .T. ) ;
#715 = PERSON_AND_ORGANIZATION ( #22, #157 ) ;
#716 = CARTESIAN_POINT ( 'NONE',  ( 0.06023622047244094058, 0.006889763779527558960, 0.006889763779527558960 ) ) ;
#717 = CARTESIAN_POINT ( 'NONE',  ( 0.06023622047244094058, 0.006889763779527558960, -0.006889763779527558960 ) ) ;
#718 = AXIS2_PLACEMENT_3D ( 'NONE', #122, #110, #681 ) ;
ENDSEC;
END-ISO-10303-21;
