ISO-10303-21;
HEADER;
FILE_DESCRIPTION (( 'STEP AP203' ),
    '1' );
FILE_NAME ('pinionlock_Default_sldprt.STEP',
    '2026-08-23T21:10:34',
    ( '' ),
    ( '' ),
    'SwSTEP 2.0',
    'SolidWorks 2020',
    '' );
FILE_SCHEMA (( 'CONFIG_CONTROL_DESIGN' ));
ENDSEC;

DATA;
#1 = CARTESIAN_POINT ( 'NONE',  ( 3.499999999999975131, 2.000000000000057288, 3.000000000000113687 ) ) ;
#2 = APPROVAL_ROLE ( '' ) ;
#3 = ADVANCED_BREP_SHAPE_REPRESENTATION ( 'pinionlock_Default_sldprt', ( #4, #250 ), #196 ) ;
#4 = MANIFOLD_SOLID_BREP ( 'Cut-Extrude1', #257 ) ;
#5 = EDGE_CURVE ( 'NONE', #222, #336, #239, .T. ) ;
#6 = DIRECTION ( 'NONE',  ( 4.553649124439197509E-15, -7.589415207398661989E-15, 1.000000000000000000 ) ) ;
#7 = COORDINATED_UNIVERSAL_TIME_OFFSET ( 5, 30, .AHEAD. ) ;
#8 = ORIENTED_EDGE ( 'NONE', *, *, #163, .F. ) ;
#9 = VECTOR ( 'NONE', #233, 1000.000000000000000 ) ;
#10 = AXIS2_PLACEMENT_3D ( 'NONE', #189, #343, #280 ) ;
#11 = ORIENTED_EDGE ( 'NONE', *, *, #103, .T. ) ;
#12 = ADVANCED_FACE ( 'NONE', ( #126 ), #148, .T. ) ;
#13 = EDGE_LOOP ( 'NONE', ( #266, #87, #130, #138 ) ) ;
#14 = PERSON_AND_ORGANIZATION ( #49, #164 ) ;
#15 = ORIENTED_EDGE ( 'NONE', *, *, #228, .T. ) ;
#16 = CARTESIAN_POINT ( 'NONE',  ( 7.000000000000079048, 2.000000000000501377, 32.99999999999991473 ) ) ;
#17 = CIRCLE ( 'NONE', #236, 1.999999999999967137 ) ;
#18 = SECURITY_CLASSIFICATION ( '', '', #50 ) ;
#19 = DIRECTION ( 'NONE',  ( -4.558853294867131086E-15, 7.660538869913717391E-15, -1.000000000000000000 ) ) ;
#20 = CIRCLE ( 'NONE', #249, 1.999999999999992228 ) ;
#21 = PRODUCT_DEFINITION_FORMATION_WITH_SPECIFIED_SOURCE ( 'ANY', '', #106, .NOT_KNOWN. ) ;
#22 = DIRECTION ( 'NONE',  ( -1.000000000000000000, 2.949029909160585003E-17, -3.491998357141327669E-15 ) ) ;
#23 = APPLICATION_PROTOCOL_DEFINITION ( 'international standard', 'config_control_design', 1994, #115 ) ;
#24 = DIRECTION ( 'NONE',  ( 0.000000000000000000, 0.000000000000000000, 1.000000000000000000 ) ) ;
#25 = LINE ( 'NONE', #60, #379 ) ;
#26 = ORIENTED_EDGE ( 'NONE', *, *, #203, .T. ) ;
#27 = EDGE_CURVE ( 'NONE', #143, #336, #329, .T. ) ;
#28 = CARTESIAN_POINT ( 'NONE',  ( 3.499999999999987566, -0.0009999999997358788306, 1.000000000000592859 ) ) ;
#29 = PLANE ( 'NONE',  #313 ) ;
#30 = CC_DESIGN_DATE_AND_TIME_ASSIGNMENT ( #373, #349, ( #18 ) ) ;
#31 = CARTESIAN_POINT ( 'NONE',  ( 3.499999999999984457, 2.000000000000042188, 5.000000000000079048 ) ) ;
#32 = DIRECTION ( 'NONE',  ( -1.075528555105647639E-16, 1.000000000000000000, -6.827871601444885484E-15 ) ) ;
#33 = DIRECTION ( 'NONE',  ( 4.553649124439197509E-15, -7.660565974968024795E-15, 1.000000000000000000 ) ) ;
#34 = EDGE_LOOP ( 'NONE', ( #199, #110 ) ) ;
#35 = ORIENTED_EDGE ( 'NONE', *, *, #232, .F. ) ;
#36 = LINE ( 'NONE', #188, #333 ) ;
#37 = ORIENTED_EDGE ( 'NONE', *, *, #168, .F. ) ;
#38 = DIRECTION ( 'NONE',  ( 4.553649124439197509E-15, -7.589415207398661989E-15, 1.000000000000000000 ) ) ;
#39 = DATE_TIME_ROLE ( 'creation_date' ) ;
#40 = CIRCLE ( 'NONE', #218, 1.999999999999965361 ) ;
#41 = ORIENTED_EDGE ( 'NONE', *, *, #253, .F. ) ;
#42 = PRODUCT_RELATED_PRODUCT_CATEGORY ( 'detail', '', ( #106 ) ) ;
#43 = DATE_AND_TIME ( #195, #200 ) ;
#44 = VERTEX_POINT ( 'NONE', #357 ) ;
#45 = ORIENTED_EDGE ( 'NONE', *, *, #203, .F. ) ;
#46 = AXIS2_PLACEMENT_3D ( 'NONE', #181, #97, #297 ) ;
#47 = VECTOR ( 'NONE', #300, 1000.000000000000000 ) ;
#48 = EDGE_CURVE ( 'NONE', #279, #152, #17, .T. ) ;
#49 = PERSON ( 'UNSPECIFIED', 'UNSPECIFIED', 'UNSPECIFIED', ('UNSPECIFIED'), ('UNSPECIFIED'), ('UNSPECIFIED') ) ;
#50 = SECURITY_CLASSIFICATION_LEVEL ( 'unclassified' ) ;
#51 = FACE_OUTER_BOUND ( 'NONE', #81, .T. ) ;
#52 = CC_DESIGN_SECURITY_CLASSIFICATION ( #18, ( #21 ) ) ;
#53 = LINE ( 'NONE', #202, #116 ) ;
#54 = ORIENTED_EDGE ( 'NONE', *, *, #337, .F. ) ;
#55 = CYLINDRICAL_SURFACE ( 'NONE', #361, 1.999999999999965361 ) ;
#56 = EDGE_LOOP ( 'NONE', ( #82, #15, #119, #8 ) ) ;
#57 = PRODUCT_DEFINITION_SHAPE ( 'NONE', 'NONE',  #124 ) ;
#58 = UNCERTAINTY_MEASURE_WITH_UNIT (LENGTH_MEASURE( 1.000000000000000082E-05 ), #180, 'distance_accuracy_value', 'NONE');
#59 = FACE_OUTER_BOUND ( 'NONE', #322, .T. ) ;
#60 = CARTESIAN_POINT ( 'NONE',  ( 3.500000000000133227, -0.0009999999999579234355, 28.00000000000028066 ) ) ;
#61 = VECTOR ( 'NONE', #292, 1000.000000000000000 ) ;
#62 = DIRECTION ( 'NONE',  ( -1.000000000000000000, 2.949029909159873179E-17, -3.469446951953626811E-15 ) ) ;
#63 = ORIENTED_EDGE ( 'NONE', *, *, #253, .T. ) ;
#64 = DIRECTION ( 'NONE',  ( 1.769417945496388103E-16, -1.000000000000000000, 6.827871601444885484E-15 ) ) ;
#65 = VECTOR ( 'NONE', #246, 1000.000000000000000 ) ;
#66 = DESIGN_CONTEXT ( 'detailed design', #140, 'design' ) ;
#67 = FACE_BOUND ( 'NONE', #34, .T. ) ;
#68 = ORIENTED_EDGE ( 'NONE', *, *, #269, .F. ) ;
#69 = CARTESIAN_POINT ( 'NONE',  ( 3.500000000000003109, 0.000000000000000000, 2.999999999999891642 ) ) ;
#70 = ORIENTED_EDGE ( 'NONE', *, *, #48, .T. ) ;
#71 = CARTESIAN_POINT ( 'NONE',  ( 1.595945597898662527E-13, 2.000000000000390354, 33.00000000000014211 ) ) ;
#72 = CC_DESIGN_DATE_AND_TIME_ASSIGNMENT ( #368, #39, ( #124 ) ) ;
#73 = LINE ( 'NONE', #28, #217 ) ;
#74 = VECTOR ( 'NONE', #113, 1000.000000000000000 ) ;
#75 = APPROVAL_DATE_TIME ( #255, #345 ) ;
#76 = ORIENTED_EDGE ( 'NONE', *, *, #370, .F. ) ;
#77 = DIRECTION ( 'NONE',  ( -1.000000000000000000, 9.020562075079432636E-17, -3.676746407332857625E-15 ) ) ;
#78 = ORIENTED_EDGE ( 'NONE', *, *, #168, .T. ) ;
#79 = COORDINATED_UNIVERSAL_TIME_OFFSET ( 5, 30, .AHEAD. ) ;
#80 = ORIENTED_EDGE ( 'NONE', *, *, #376, .T. ) ;
#81 = EDGE_LOOP ( 'NONE', ( #383, #165, #172, #346 ) ) ;
#82 = ORIENTED_EDGE ( 'NONE', *, *, #232, .T. ) ;
#83 = CALENDAR_DATE ( 2026, 24, 8 ) ;
#84 = CC_DESIGN_APPROVAL ( #345, ( #124 ) ) ;
#85 = DIRECTION ( 'NONE',  ( -4.558853294867131086E-15, 7.660538869913717391E-15, -1.000000000000000000 ) ) ;
#86 = EDGE_CURVE ( 'NONE', #309, #143, #173, .T. ) ;
#87 = ORIENTED_EDGE ( 'NONE', *, *, #103, .F. ) ;
#88 = AXIS2_PLACEMENT_3D ( 'NONE', #243, #355, #206 ) ;
#89 = VECTOR ( 'NONE', #212, 1000.000000000000000 ) ;
#90 = ADVANCED_FACE ( 'NONE', ( #231, #321, #51 ), #174, .F. ) ;
#91 = CARTESIAN_POINT ( 'NONE',  ( -8.326672684688674053E-14, 2.000000000000279332, 6.661338147750939243E-13 ) ) ;
#92 = PERSON_AND_ORGANIZATION ( #49, #164 ) ;
#93 = PERSON_AND_ORGANIZATION_ROLE ( 'classification_officer' ) ;
#94 = CARTESIAN_POINT ( 'NONE',  ( 7.000000000000172307, 0.000000000000000000, 33.00000000000058265 ) ) ;
#95 = ORIENTED_EDGE ( 'NONE', *, *, #163, .T. ) ;
#96 = PLANE ( 'NONE',  #291 ) ;
#97 = DIRECTION ( 'NONE',  ( -1.075528555105647639E-16, 1.000000000000000000, -6.827871601444885484E-15 ) ) ;
#98 = VERTEX_POINT ( 'NONE', #94 ) ;
#99 = CARTESIAN_POINT ( 'NONE',  ( 1.665334536937734811E-13, 4.996003610813204432E-13, 33.00000000000014211 ) ) ;
#100 = EDGE_CURVE ( 'NONE', #222, #98, #53, .T. ) ;
#101 = VECTOR ( 'NONE', #153, 1000.000000000000000 ) ;
#102 = APPROVAL_PERSON_ORGANIZATION ( #344, #311, #347 ) ;
#103 = EDGE_CURVE ( 'NONE', #340, #309, #316, .T. ) ;
#104 = LINE ( 'NONE', #285, #47 ) ;
#105 = DIRECTION ( 'NONE',  ( -1.000000000000000000, 2.949029909160585003E-17, -3.469446951953627599E-15 ) ) ;
#106 = PRODUCT ( 'pinionlock_Default_sldprt', 'pinionlock_Default_sldprt', '', ( #149 ) ) ;
#107 = ORIENTED_EDGE ( 'NONE', *, *, #5, .F. ) ;
#108 = ORIENTED_EDGE ( 'NONE', *, *, #353, .F. ) ;
#109 = PERSON_AND_ORGANIZATION ( #49, #164 ) ;
#110 = ORIENTED_EDGE ( 'NONE', *, *, #376, .F. ) ;
#111 = ORIENTED_EDGE ( 'NONE', *, *, #145, .T. ) ;
#112 = EDGE_CURVE ( 'NONE', #340, #312, #198, .T. ) ;
#113 = DIRECTION ( 'NONE',  ( -1.000000000000000000, 9.020562075079432636E-17, -3.676746407332857625E-15 ) ) ;
#114 = PERSON_AND_ORGANIZATION ( #49, #164 ) ;
#115 = APPLICATION_CONTEXT ( 'configuration controlled 3d designs of mechanical parts and assemblies' ) ;
#116 = VECTOR ( 'NONE', #294, 1000.000000000000000 ) ;
#117 = AXIS2_PLACEMENT_3D ( 'NONE', #201, #234, #62 ) ;
#118 = CC_DESIGN_PERSON_AND_ORGANIZATION_ASSIGNMENT ( #260, #144, ( #21 ) ) ;
#119 = ORIENTED_EDGE ( 'NONE', *, *, #269, .T. ) ;
#120 = CARTESIAN_POINT ( 'NONE',  ( 3.499999999999987566, 2.000000000000043965, 1.000000000000112799 ) ) ;
#121 = APPROVAL_STATUS ( 'not_yet_approved' ) ;
#122 = DIRECTION ( 'NONE',  ( -1.000000000000000000, 2.949029909159873179E-17, -3.469446951953626811E-15 ) ) ;
#123 = EDGE_LOOP ( 'NONE', ( #275, #284, #380, #111 ) ) ;
#124 = PRODUCT_DEFINITION ( 'UNKNOWN', '', #21, #66 ) ;
#125 = CYLINDRICAL_SURFACE ( 'NONE', #46, 1.999999999999967137 ) ;
#126 = FACE_OUTER_BOUND ( 'NONE', #318, .T. ) ;
#127 = CARTESIAN_POINT ( 'NONE',  ( 7.000000000000002665, 2.000000000000445866, 4.440892098500626162E-13 ) ) ;
#128 = DIRECTION ( 'NONE',  ( -1.075528555105647639E-16, 1.000000000000000000, -6.827871601444885484E-15 ) ) ;
#129 = FACE_OUTER_BOUND ( 'NONE', #56, .T. ) ;
#130 = ORIENTED_EDGE ( 'NONE', *, *, #264, .F. ) ;
#131 = LINE ( 'NONE', #282, #89 ) ;
#132 = DATE_AND_TIME ( #161, #314 ) ;
#133 = ADVANCED_FACE ( 'NONE', ( #320 ), #265, .F. ) ;
#134 = CIRCLE ( 'NONE', #175, 1.999999999999992228 ) ;
#135 = CC_DESIGN_APPROVAL ( #311, ( #21 ) ) ;
#136 = CARTESIAN_POINT ( 'NONE',  ( 3.499999999999987566, -1.365574320288238723E-14, 0.9999999999998907541 ) ) ;
#137 = FACE_OUTER_BOUND ( 'NONE', #123, .T. ) ;
#138 = ORIENTED_EDGE ( 'NONE', *, *, #378, .T. ) ;
#139 = LOCAL_TIME ( 2, 40, 34.00000000000000000, #7 ) ;
#140 = APPLICATION_CONTEXT ( 'configuration controlled 3d designs of mechanical parts and assemblies' ) ;
#141 = ORIENTED_EDGE ( 'NONE', *, *, #259, .F. ) ;
#142 = PERSON_AND_ORGANIZATION_ROLE ( 'creator' ) ;
#143 = VERTEX_POINT ( 'NONE', #245 ) ;
#144 = PERSON_AND_ORGANIZATION_ROLE ( 'design_supplier' ) ;
#145 = EDGE_CURVE ( 'NONE', #312, #222, #358, .T. ) ;
#146 = DIRECTION ( 'NONE',  ( -1.075528555105647639E-16, 1.000000000000000000, -6.827871601444885484E-15 ) ) ;
#147 = PERSON_AND_ORGANIZATION ( #49, #164 ) ;
#148 = PLANE ( 'NONE',  #88 ) ;
#149 = MECHANICAL_CONTEXT ( 'NONE', #115, 'mechanical' ) ;
#150 = APPROVAL_ROLE ( '' ) ;
#151 = ADVANCED_FACE ( 'NONE', ( #334 ), #29, .F. ) ;
#152 = VERTEX_POINT ( 'NONE', #273 ) ;
#153 = DIRECTION ( 'NONE',  ( 1.075528555105647639E-16, -1.000000000000000000, 6.827871601444885484E-15 ) ) ;
#154 = CARTESIAN_POINT ( 'NONE',  ( 7.000000000000079048, 2.000000000000501377, 32.99999999999991473 ) ) ;
#155 = CARTESIAN_POINT ( 'NONE',  ( 7.000000000000079048, 2.000000000000501377, 32.99999999999991473 ) ) ;
#156 = DIRECTION ( 'NONE',  ( 4.553649124439193565E-15, -7.589415207398655678E-15, 1.000000000000000000 ) ) ;
#157 = FACE_OUTER_BOUND ( 'NONE', #213, .T. ) ;
#158 = ADVANCED_FACE ( 'NONE', ( #184 ), #381, .F. ) ;
#159 = CARTESIAN_POINT ( 'NONE',  ( 7.000000000000079048, 2.000000000000501377, 32.99999999999991473 ) ) ;
#160 = CC_DESIGN_PERSON_AND_ORGANIZATION_ASSIGNMENT ( #14, #142, ( #21 ) ) ;
#161 = CALENDAR_DATE ( 2026, 24, 8 ) ;
#162 = DIRECTION ( 'NONE',  ( 3.676746407332858414E-15, 7.660538869913717391E-15, -1.000000000000000000 ) ) ;
#163 = EDGE_CURVE ( 'NONE', #44, #367, #330, .T. ) ;
#164 = ORGANIZATION ( 'UNSPECIFIED', 'UNSPECIFIED', '' ) ;
#165 = ORIENTED_EDGE ( 'NONE', *, *, #378, .F. ) ;
#166 = APPROVAL_DATE_TIME ( #43, #311 ) ;
#167 = ORIENTED_EDGE ( 'NONE', *, *, #27, .F. ) ;
#168 = EDGE_CURVE ( 'NONE', #204, #152, #25, .T. ) ;
#169 = EDGE_LOOP ( 'NONE', ( #225, #287, #95, #63 ) ) ;
#170 = AXIS2_PLACEMENT_3D ( 'NONE', #356, #211, #277 ) ;
#171 = VECTOR ( 'NONE', #32, 1000.000000000000000 ) ;
#172 = ORIENTED_EDGE ( 'NONE', *, *, #100, .F. ) ;
#173 = LINE ( 'NONE', #91, #61 ) ;
#174 = PLANE ( 'NONE',  #360 ) ;
#175 = AXIS2_PLACEMENT_3D ( 'NONE', #190, #296, #105 ) ;
#176 = AXIS2_PLACEMENT_3D ( 'NONE', #335, #298, #156 ) ;
#177 = CARTESIAN_POINT ( 'NONE',  ( 1.665334536937734811E-13, 4.996003610813204432E-13, 33.00000000000014211 ) ) ;
#178 = ADVANCED_FACE ( 'NONE', ( #67, #354, #241 ), #96, .F. ) ;
#179 = DIRECTION ( 'NONE',  ( -1.075528555105647639E-16, 1.000000000000000000, -6.827871601444885484E-15 ) ) ;
#180 =( LENGTH_UNIT ( ) NAMED_UNIT ( * ) SI_UNIT ( .MILLI., .METRE. ) );
#181 = CARTESIAN_POINT ( 'NONE',  ( 3.500000000000142109, -0.0009999999999732445133, 30.00000000000024869 ) ) ;
#182 = EDGE_LOOP ( 'NONE', ( #319, #107, #369, #26 ) ) ;
#183 = CARTESIAN_POINT ( 'NONE',  ( 1.665334536937734811E-13, 4.996003610813204432E-13, 33.00000000000014211 ) ) ;
#184 = FACE_OUTER_BOUND ( 'NONE', #182, .T. ) ;
#185 = APPROVAL ( #121, 'UNSPECIFIED' ) ;
#186 = CARTESIAN_POINT ( 'NONE',  ( 7.000000000000172307, 0.000000000000000000, 33.00000000000058265 ) ) ;
#187 = ORIENTED_EDGE ( 'NONE', *, *, #86, .F. ) ;
#188 = CARTESIAN_POINT ( 'NONE',  ( 6.999999999999984013, -5.551115123125782702E-14, 2.220446049250313081E-13 ) ) ;
#189 = CARTESIAN_POINT ( 'NONE',  ( 3.500000000000142109, -0.0009999999999732445133, 30.00000000000024869 ) ) ;
#190 = CARTESIAN_POINT ( 'NONE',  ( 3.500000000000003109, 0.000000000000000000, 2.999999999999891642 ) ) ;
#191 = ADVANCED_FACE ( 'NONE', ( #59 ), #125, .F. ) ;
#192 = ORIENTED_EDGE ( 'NONE', *, *, #317, .F. ) ;
#193 = VECTOR ( 'NONE', #338, 1000.000000000000000 ) ;
#194 = VECTOR ( 'NONE', #179, 1000.000000000000000 ) ;
#195 = CALENDAR_DATE ( 2026, 24, 8 ) ;
#196 =( GEOMETRIC_REPRESENTATION_CONTEXT ( 3 ) GLOBAL_UNCERTAINTY_ASSIGNED_CONTEXT ( ( #58 ) ) GLOBAL_UNIT_ASSIGNED_CONTEXT ( ( #180, #242, #238 ) ) REPRESENTATION_CONTEXT ( 'NONE', 'WORKASPACE' ) );
#197 = EDGE_LOOP ( 'NONE', ( #41, #68 ) ) ;
#198 = LINE ( 'NONE', #262, #74 ) ;
#199 = ORIENTED_EDGE ( 'NONE', *, *, #48, .F. ) ;
#200 = LOCAL_TIME ( 2, 40, 34.00000000000000000, #79 ) ;
#201 = CARTESIAN_POINT ( 'NONE',  ( 3.500000000000089706, 4.996003610813204432E-13, 30.00000000000069278 ) ) ;
#202 = CARTESIAN_POINT ( 'NONE',  ( 7.000000000000172307, 0.000000000000000000, 33.00000000000058265 ) ) ;
#203 = EDGE_CURVE ( 'NONE', #312, #143, #341, .T. ) ;
#204 = VERTEX_POINT ( 'NONE', #254 ) ;
#205 = CARTESIAN_POINT ( 'NONE',  ( 1.595945597898662527E-13, 2.000000000000390354, 33.00000000000014211 ) ) ;
#206 = DIRECTION ( 'NONE',  ( -1.000000000000000000, 9.020562075079432636E-17, -3.676746407332857625E-15 ) ) ;
#207 = DIRECTION ( 'NONE',  ( -4.558853294867131086E-15, 7.660538869913717391E-15, -1.000000000000000000 ) ) ;
#208 = CARTESIAN_POINT ( 'NONE',  ( 3.500000000000142109, 2.000000000000334843, 30.00000000000002842 ) ) ;
#209 = DIRECTION ( 'NONE',  ( -1.000000000000000000, 2.949029909160585003E-17, -3.469446951953627599E-15 ) ) ;
#210 = AXIS2_PLACEMENT_3D ( 'NONE', #183, #162, #77 ) ;
#211 = DIRECTION ( 'NONE',  ( 1.000000000000000000, -9.020562075073124214E-17, -4.558853294867131875E-15 ) ) ;
#212 = DIRECTION ( 'NONE',  ( -1.075528555105647639E-16, 1.000000000000000000, -6.827871601444885484E-15 ) ) ;
#213 = EDGE_LOOP ( 'NONE', ( #235, #78, #80, #54 ) ) ;
#214 = LINE ( 'NONE', #154, #171 ) ;
#215 = PERSON_AND_ORGANIZATION_ROLE ( 'creator' ) ;
#216 = CC_DESIGN_PERSON_AND_ORGANIZATION_ASSIGNMENT ( #92, #258, ( #106 ) ) ;
#217 = VECTOR ( 'NONE', #252, 1000.000000000000000 ) ;
#218 = AXIS2_PLACEMENT_3D ( 'NONE', #1, #308, #38 ) ;
#219 = DIRECTION ( 'NONE',  ( -1.075528555105647639E-16, 1.000000000000000000, -6.827871601444885484E-15 ) ) ;
#220 = CALENDAR_DATE ( 2026, 24, 8 ) ;
#221 = VERTEX_POINT ( 'NONE', #136 ) ;
#222 = VERTEX_POINT ( 'NONE', #385 ) ;
#223 = EDGE_CURVE ( 'NONE', #221, #44, #20, .T. ) ;
#224 = COORDINATED_UNIVERSAL_TIME_OFFSET ( 5, 30, .AHEAD. ) ;
#225 = ORIENTED_EDGE ( 'NONE', *, *, #228, .F. ) ;
#226 = CC_DESIGN_PERSON_AND_ORGANIZATION_ASSIGNMENT ( #310, #215, ( #124 ) ) ;
#227 = EDGE_LOOP ( 'NONE', ( #35, #289 ) ) ;
#228 = EDGE_CURVE ( 'NONE', #221, #377, #73, .T. ) ;
#229 = CIRCLE ( 'NONE', #371, 1.999999999999965361 ) ;
#230 = DIRECTION ( 'NONE',  ( -1.075528555105647639E-16, 1.000000000000000000, -6.827871601444885484E-15 ) ) ;
#231 = FACE_BOUND ( 'NONE', #375, .T. ) ;
#232 = EDGE_CURVE ( 'NONE', #44, #221, #134, .T. ) ;
#233 = DIRECTION ( 'NONE',  ( 1.075528555105647639E-16, -1.000000000000000000, 6.827871601444885484E-15 ) ) ;
#234 = DIRECTION ( 'NONE',  ( 1.769417945496388103E-16, -1.000000000000000000, 6.827871601444885484E-15 ) ) ;
#235 = ORIENTED_EDGE ( 'NONE', *, *, #370, .T. ) ;
#236 = AXIS2_PLACEMENT_3D ( 'NONE', #208, #146, #350 ) ;
#237 = CIRCLE ( 'NONE', #176, 1.999999999999967137 ) ;
#238 =( NAMED_UNIT ( * ) SI_UNIT ( $, .STERADIAN. ) SOLID_ANGLE_UNIT ( ) );
#239 = LINE ( 'NONE', #177, #351 ) ;
#240 = ADVANCED_FACE ( 'NONE', ( #137 ), #364, .F. ) ;
#241 = FACE_OUTER_BOUND ( 'NONE', #299, .T. ) ;
#242 =( NAMED_UNIT ( * ) PLANE_ANGLE_UNIT ( ) SI_UNIT ( $, .RADIAN. ) );
#243 = CARTESIAN_POINT ( 'NONE',  ( 0.000000000000000000, 0.000000000000000000, 0.000000000000000000 ) ) ;
#244 = CARTESIAN_POINT ( 'NONE',  ( 0.000000000000000000, 0.000000000000000000, 0.000000000000000000 ) ) ;
#245 = CARTESIAN_POINT ( 'NONE',  ( -8.326672684688674053E-14, 2.000000000000279332, 6.661338147750939243E-13 ) ) ;
#246 = DIRECTION ( 'NONE',  ( -4.558853294867131086E-15, 7.660538869913717391E-15, -1.000000000000000000 ) ) ;
#247 = CARTESIAN_POINT ( 'NONE',  ( 6.999999999999984013, -5.551115123125782702E-14, 2.220446049250313081E-13 ) ) ;
#248 = COORDINATED_UNIVERSAL_TIME_OFFSET ( 5, 30, .AHEAD. ) ;
#249 = AXIS2_PLACEMENT_3D ( 'NONE', #69, #64, #209 ) ;
#250 = AXIS2_PLACEMENT_3D ( 'NONE', #325, #24, #271 ) ;
#251 = APPROVAL_PERSON_ORGANIZATION ( #109, #345, #2 ) ;
#252 = DIRECTION ( 'NONE',  ( -1.075528555105647639E-16, 1.000000000000000000, -6.827871601444885484E-15 ) ) ;
#253 = EDGE_CURVE ( 'NONE', #367, #377, #40, .T. ) ;
#254 = CARTESIAN_POINT ( 'NONE',  ( 3.500000000000133227, 4.859446178784314216E-13, 28.00000000000068923 ) ) ;
#255 = DATE_AND_TIME ( #83, #268 ) ;
#256 = CARTESIAN_POINT ( 'NONE',  ( 3.500000000000150990, 2.000000000000319744, 31.99999999999999289 ) ) ;
#257 = CLOSED_SHELL ( 'NONE', ( #290, #365, #90, #151, #178, #158, #240, #12, #133, #191 ) ) ;
#258 = PERSON_AND_ORGANIZATION_ROLE ( 'design_owner' ) ;
#259 = EDGE_CURVE ( 'NONE', #261, #309, #104, .T. ) ;
#260 = PERSON_AND_ORGANIZATION ( #49, #164 ) ;
#261 = VERTEX_POINT ( 'NONE', #247 ) ;
#262 = CARTESIAN_POINT ( 'NONE',  ( 1.595945597898662527E-13, 2.000000000000390354, 33.00000000000014211 ) ) ;
#263 = CALENDAR_DATE ( 2026, 24, 8 ) ;
#264 = EDGE_CURVE ( 'NONE', #98, #340, #214, .T. ) ;
#265 = CYLINDRICAL_SURFACE ( 'NONE', #267, 1.999999999999965361 ) ;
#266 = ORIENTED_EDGE ( 'NONE', *, *, #259, .T. ) ;
#267 = AXIS2_PLACEMENT_3D ( 'NONE', #374, #230, #33 ) ;
#268 = LOCAL_TIME ( 2, 40, 34.00000000000000000, #224 ) ;
#269 = EDGE_CURVE ( 'NONE', #377, #367, #229, .T. ) ;
#270 = CARTESIAN_POINT ( 'NONE',  ( 0.000000000000000000, 0.000000000000000000, 0.000000000000000000 ) ) ;
#271 = DIRECTION ( 'NONE',  ( 1.000000000000000000, 0.000000000000000000, 0.000000000000000000 ) ) ;
#272 = CC_DESIGN_APPROVAL ( #185, ( #18 ) ) ;
#273 = CARTESIAN_POINT ( 'NONE',  ( 3.500000000000133227, 2.000000000000321521, 28.00000000000002487 ) ) ;
#274 = DIRECTION ( 'NONE',  ( -1.075528555105647639E-16, 1.000000000000000000, -6.827871601444885484E-15 ) ) ;
#275 = ORIENTED_EDGE ( 'NONE', *, *, #100, .T. ) ;
#276 = CARTESIAN_POINT ( 'NONE',  ( 3.500000000000150990, 5.132561042842095657E-13, 32.00000000000069633 ) ) ;
#277 = DIRECTION ( 'NONE',  ( -4.558853294867131086E-15, 7.660538869913717391E-15, -1.000000000000000000 ) ) ;
#278 = LINE ( 'NONE', #186, #65 ) ;
#279 = VERTEX_POINT ( 'NONE', #256 ) ;
#280 = DIRECTION ( 'NONE',  ( 4.553649124439193565E-15, -7.660565974968018484E-15, 1.000000000000000000 ) ) ;
#281 = DIRECTION ( 'NONE',  ( 1.769417945496388103E-16, -1.000000000000000000, 6.827871601444885484E-15 ) ) ;
#282 = CARTESIAN_POINT ( 'NONE',  ( 3.500000000000150990, -0.0009999999999885655910, 32.00000000000021316 ) ) ;
#283 = APPROVAL_STATUS ( 'not_yet_approved' ) ;
#284 = ORIENTED_EDGE ( 'NONE', *, *, #264, .T. ) ;
#285 = CARTESIAN_POINT ( 'NONE',  ( 7.000000000000002665, 2.000000000000445866, 4.440892098500626162E-13 ) ) ;
#286 = APPLICATION_PROTOCOL_DEFINITION ( 'international standard', 'config_control_design', 1994, #140 ) ;
#287 = ORIENTED_EDGE ( 'NONE', *, *, #223, .T. ) ;
#288 = CC_DESIGN_PERSON_AND_ORGANIZATION_ASSIGNMENT ( #147, #93, ( #18 ) ) ;
#289 = ORIENTED_EDGE ( 'NONE', *, *, #223, .F. ) ;
#290 = ADVANCED_FACE ( 'NONE', ( #157 ), #306, .F. ) ;
#291 = AXIS2_PLACEMENT_3D ( 'NONE', #205, #327, #207 ) ;
#292 = DIRECTION ( 'NONE',  ( -1.000000000000000000, 9.020562075079432636E-17, -3.676746407332857625E-15 ) ) ;
#293 = DIRECTION ( 'NONE',  ( 2.949029909162969458E-17, 1.000000000000000000, -6.827871601444885484E-15 ) ) ;
#294 = DIRECTION ( 'NONE',  ( 1.000000000000000000, -2.949029909160585619E-17, 3.491998357141328064E-15 ) ) ;
#295 = DIRECTION ( 'NONE',  ( 4.558853294867131086E-15, -7.660538869913717391E-15, 1.000000000000000000 ) ) ;
#296 = DIRECTION ( 'NONE',  ( 1.769417945496388103E-16, -1.000000000000000000, 6.827871601444885484E-15 ) ) ;
#297 = DIRECTION ( 'NONE',  ( 4.553649124439193565E-15, -7.660565974968018484E-15, 1.000000000000000000 ) ) ;
#298 = DIRECTION ( 'NONE',  ( -1.075528555105647639E-16, 1.000000000000000000, -6.827871601444885484E-15 ) ) ;
#299 = EDGE_LOOP ( 'NONE', ( #352, #45, #362, #11 ) ) ;
#300 = DIRECTION ( 'NONE',  ( -1.075528555105647639E-16, 1.000000000000000000, -6.827871601444885484E-15 ) ) ;
#301 = DIRECTION ( 'NONE',  ( -1.000000000000000000, 9.020562075073124214E-17, 4.558853294867131875E-15 ) ) ;
#302 = CARTESIAN_POINT ( 'NONE',  ( 3.499999999999996003, -0.0009999999997511999084, 3.000000000000557776 ) ) ;
#303 = ORIENTED_EDGE ( 'NONE', *, *, #353, .T. ) ;
#304 = CARTESIAN_POINT ( 'NONE',  ( 3.499999999999975131, 2.000000000000057288, 3.000000000000113687 ) ) ;
#305 = VERTEX_POINT ( 'NONE', #276 ) ;
#306 = CYLINDRICAL_SURFACE ( 'NONE', #10, 1.999999999999967137 ) ;
#307 = AXIS2_PLACEMENT_3D ( 'NONE', #363, #281, #122 ) ;
#308 = DIRECTION ( 'NONE',  ( -1.075528555105647639E-16, 1.000000000000000000, -6.827871601444885484E-15 ) ) ;
#309 = VERTEX_POINT ( 'NONE', #127 ) ;
#310 = PERSON_AND_ORGANIZATION ( #49, #164 ) ;
#311 = APPROVAL ( #315, 'UNSPECIFIED' ) ;
#312 = VERTEX_POINT ( 'NONE', #339 ) ;
#313 = AXIS2_PLACEMENT_3D ( 'NONE', #155, #301, #295 ) ;
#314 = LOCAL_TIME ( 2, 40, 34.00000000000000000, #248 ) ;
#315 = APPROVAL_STATUS ( 'not_yet_approved' ) ;
#316 = LINE ( 'NONE', #16, #332 ) ;
#317 = EDGE_CURVE ( 'NONE', #336, #261, #36, .T. ) ;
#318 = EDGE_LOOP ( 'NONE', ( #192, #167, #187, #141 ) ) ;
#319 = ORIENTED_EDGE ( 'NONE', *, *, #27, .T. ) ;
#320 = FACE_OUTER_BOUND ( 'NONE', #169, .T. ) ;
#321 = FACE_BOUND ( 'NONE', #227, .T. ) ;
#322 = EDGE_LOOP ( 'NONE', ( #37, #303, #326, #70 ) ) ;
#323 = CARTESIAN_POINT ( 'NONE',  ( 7.000000000000172307, 0.000000000000000000, 33.00000000000058265 ) ) ;
#324 = CIRCLE ( 'NONE', #117, 1.999999999999992673 ) ;
#325 = CARTESIAN_POINT ( 'NONE',  ( 0.000000000000000000, 0.000000000000000000, 0.000000000000000000 ) ) ;
#326 = ORIENTED_EDGE ( 'NONE', *, *, #337, .T. ) ;
#327 = DIRECTION ( 'NONE',  ( 1.075528555104987214E-16, -1.000000000000000000, -7.660538869913717391E-15 ) ) ;
#328 = DIRECTION ( 'NONE',  ( 4.553649124439197509E-15, -7.660565974968024795E-15, 1.000000000000000000 ) ) ;
#329 = LINE ( 'NONE', #270, #9 ) ;
#330 = LINE ( 'NONE', #382, #194 ) ;
#331 = SHAPE_DEFINITION_REPRESENTATION ( #57, #3 ) ;
#332 = VECTOR ( 'NONE', #85, 1000.000000000000000 ) ;
#333 = VECTOR ( 'NONE', #384, 1000.000000000000000 ) ;
#334 = FACE_OUTER_BOUND ( 'NONE', #13, .T. ) ;
#335 = CARTESIAN_POINT ( 'NONE',  ( 3.500000000000142109, 2.000000000000334843, 30.00000000000002842 ) ) ;
#336 = VERTEX_POINT ( 'NONE', #244 ) ;
#337 = EDGE_CURVE ( 'NONE', #305, #279, #131, .T. ) ;
#338 = DIRECTION ( 'NONE',  ( -4.558853294867131086E-15, 7.660538869913717391E-15, -1.000000000000000000 ) ) ;
#339 = CARTESIAN_POINT ( 'NONE',  ( 1.595945597898662527E-13, 2.000000000000390354, 33.00000000000014211 ) ) ;
#340 = VERTEX_POINT ( 'NONE', #159 ) ;
#341 = LINE ( 'NONE', #71, #193 ) ;
#342 = LOCAL_TIME ( 2, 40, 34.00000000000000000, #372 ) ;
#343 = DIRECTION ( 'NONE',  ( -1.075528555105647639E-16, 1.000000000000000000, -6.827871601444885484E-15 ) ) ;
#344 = PERSON_AND_ORGANIZATION ( #49, #164 ) ;
#345 = APPROVAL ( #283, 'UNSPECIFIED' ) ;
#346 = ORIENTED_EDGE ( 'NONE', *, *, #5, .T. ) ;
#347 = APPROVAL_ROLE ( '' ) ;
#348 = APPROVAL_PERSON_ORGANIZATION ( #114, #185, #150 ) ;
#349 = DATE_TIME_ROLE ( 'classification_date' ) ;
#350 = DIRECTION ( 'NONE',  ( 4.553649124439193565E-15, -7.589415207398655678E-15, 1.000000000000000000 ) ) ;
#351 = VECTOR ( 'NONE', #19, 1000.000000000000000 ) ;
#352 = ORIENTED_EDGE ( 'NONE', *, *, #86, .T. ) ;
#353 = EDGE_CURVE ( 'NONE', #204, #305, #366, .T. ) ;
#354 = FACE_BOUND ( 'NONE', #197, .T. ) ;
#355 = DIRECTION ( 'NONE',  ( 3.676746407332858414E-15, 7.660538869913717391E-15, -1.000000000000000000 ) ) ;
#356 = CARTESIAN_POINT ( 'NONE',  ( 1.665334536937734811E-13, 4.996003610813204432E-13, 33.00000000000014211 ) ) ;
#357 = CARTESIAN_POINT ( 'NONE',  ( 3.500000000000005329, 1.365574320289500585E-14, 4.999999999999892530 ) ) ;
#358 = LINE ( 'NONE', #99, #101 ) ;
#359 = APPROVAL_DATE_TIME ( #132, #185 ) ;
#360 = AXIS2_PLACEMENT_3D ( 'NONE', #323, #293, #22 ) ;
#361 = AXIS2_PLACEMENT_3D ( 'NONE', #302, #274, #328 ) ;
#362 = ORIENTED_EDGE ( 'NONE', *, *, #112, .F. ) ;
#363 = CARTESIAN_POINT ( 'NONE',  ( 3.500000000000089706, 4.996003610813204432E-13, 30.00000000000069278 ) ) ;
#364 = PLANE ( 'NONE',  #210 ) ;
#365 = ADVANCED_FACE ( 'NONE', ( #129 ), #55, .F. ) ;
#366 = CIRCLE ( 'NONE', #307, 1.999999999999992673 ) ;
#367 = VERTEX_POINT ( 'NONE', #31 ) ;
#368 = DATE_AND_TIME ( #220, #139 ) ;
#369 = ORIENTED_EDGE ( 'NONE', *, *, #145, .F. ) ;
#370 = EDGE_CURVE ( 'NONE', #305, #204, #324, .T. ) ;
#371 = AXIS2_PLACEMENT_3D ( 'NONE', #304, #219, #6 ) ;
#372 = COORDINATED_UNIVERSAL_TIME_OFFSET ( 5, 30, .AHEAD. ) ;
#373 = DATE_AND_TIME ( #263, #342 ) ;
#374 = CARTESIAN_POINT ( 'NONE',  ( 3.499999999999996003, -0.0009999999997511999084, 3.000000000000557776 ) ) ;
#375 = EDGE_LOOP ( 'NONE', ( #76, #108 ) ) ;
#376 = EDGE_CURVE ( 'NONE', #152, #279, #237, .T. ) ;
#377 = VERTEX_POINT ( 'NONE', #120 ) ;
#378 = EDGE_CURVE ( 'NONE', #98, #261, #278, .T. ) ;
#379 = VECTOR ( 'NONE', #128, 1000.000000000000000 ) ;
#380 = ORIENTED_EDGE ( 'NONE', *, *, #112, .T. ) ;
#381 = PLANE ( 'NONE',  #170 ) ;
#382 = CARTESIAN_POINT ( 'NONE',  ( 3.500000000000005329, -0.0009999999997665209861, 5.000000000000523137 ) ) ;
#383 = ORIENTED_EDGE ( 'NONE', *, *, #317, .T. ) ;
#384 = DIRECTION ( 'NONE',  ( 1.000000000000000000, -2.949029909160585619E-17, 3.491998357141328064E-15 ) ) ;
#385 = CARTESIAN_POINT ( 'NONE',  ( 1.665334536937734811E-13, 4.996003610813204432E-13, 33.00000000000014211 ) ) ;
ENDSEC;
END-ISO-10303-21;
