ISO-10303-21;
HEADER;
FILE_DESCRIPTION (( 'STEP AP203' ),
    '1' );
FILE_NAME ('PinionMount_Default_sldprt.STEP',
    '2026-08-23T21:10:16',
    ( '' ),
    ( '' ),
    'SwSTEP 2.0',
    'SolidWorks 2020',
    '' );
FILE_SCHEMA (( 'CONFIG_CONTROL_DESIGN' ));
ENDSEC;

DATA;
#1 = AXIS2_PLACEMENT_3D ( 'NONE', #3, #336, #52 ) ;
#2 = AXIS2_PLACEMENT_3D ( 'NONE', #183, #85, #366 ) ;
#3 = CARTESIAN_POINT ( 'NONE',  ( 9.999999999999998224, -0.001000000000004903217, 3.000000000000000000 ) ) ;
#4 = COORDINATED_UNIVERSAL_TIME_OFFSET ( 5, 30, .AHEAD. ) ;
#5 = PLANE ( 'NONE',  #89 ) ;
#6 = DIRECTION ( 'NONE',  ( 0.000000000000000000, 0.000000000000000000, 1.000000000000000000 ) ) ;
#7 = CARTESIAN_POINT ( 'NONE',  ( 7.999999999999998224, 1.999999999999999112, 3.000000000000000000 ) ) ;
#8 = VERTEX_POINT ( 'NONE', #353 ) ;
#9 = EDGE_CURVE ( 'NONE', #450, #419, #314, .T. ) ;
#10 = DIRECTION ( 'NONE',  ( -1.156482317317871478E-16, 1.000000000000000000, -0.000000000000000000 ) ) ;
#11 = EDGE_LOOP ( 'NONE', ( #349, #436, #148, #343, #513, #485 ) ) ;
#12 = VERTEX_POINT ( 'NONE', #64 ) ;
#13 = FACE_OUTER_BOUND ( 'NONE', #35, .T. ) ;
#14 = CARTESIAN_POINT ( 'NONE',  ( 11.99999999999999822, -1.875813507576520853E-15, 30.00000000000000355 ) ) ;
#15 = EDGE_CURVE ( 'NONE', #278, #54, #435, .T. ) ;
#16 = ORIENTED_EDGE ( 'NONE', *, *, #367, .F. ) ;
#17 = CC_DESIGN_PERSON_AND_ORGANIZATION_ASSIGNMENT ( #460, #481, ( #115 ) ) ;
#18 = LINE ( 'NONE', #210, #49 ) ;
#19 = AXIS2_PLACEMENT_3D ( 'NONE', #352, #401, #155 ) ;
#20 = EDGE_CURVE ( 'NONE', #427, #60, #465, .T. ) ;
#21 = PRODUCT_DEFINITION_SHAPE ( 'NONE', 'NONE',  #209 ) ;
#22 = VERTEX_POINT ( 'NONE', #357 ) ;
#23 = LOCAL_TIME ( 2, 40, 16.00000000000000000, #409 ) ;
#24 = CC_DESIGN_PERSON_AND_ORGANIZATION_ASSIGNMENT ( #138, #40, ( #346 ) ) ;
#25 = EDGE_LOOP ( 'NONE', ( #142, #139, #294, #168 ) ) ;
#26 = CARTESIAN_POINT ( 'NONE',  ( 7.999999999999998224, -1.250585100739101698E-15, 3.000000000000000000 ) ) ;
#27 = LINE ( 'NONE', #230, #259 ) ;
#28 = DIRECTION ( 'NONE',  ( 0.000000000000000000, -1.000000000000000000, 0.000000000000000000 ) ) ;
#29 = LINE ( 'NONE', #197, #44 ) ;
#30 = ORIENTED_EDGE ( 'NONE', *, *, #194, .F. ) ;
#31 = DIRECTION ( 'NONE',  ( -1.563071017093548135E-16, -1.000000000000000000, 0.000000000000000000 ) ) ;
#32 = EDGE_LOOP ( 'NONE', ( #266, #428, #252, #311 ) ) ;
#33 = DIRECTION ( 'NONE',  ( -1.000000000000000000, 1.563071017093548628E-16, 0.000000000000000000 ) ) ;
#34 = CALENDAR_DATE ( 2026, 24, 8 ) ;
#35 = EDGE_LOOP ( 'NONE', ( #264, #299, #190, #469 ) ) ;
#36 = CLOSED_SHELL ( 'NONE', ( #126, #175, #188, #429, #165, #420, #110, #453, #146, #499, #464, #334, #298, #493 ) ) ;
#37 = EDGE_LOOP ( 'NONE', ( #69, #123 ) ) ;
#38 = DIRECTION ( 'NONE',  ( -0.000000000000000000, -0.000000000000000000, -1.000000000000000000 ) ) ;
#39 = DIRECTION ( 'NONE',  ( 1.000000000000000000, 1.156482317317871478E-16, -0.000000000000000000 ) ) ;
#40 = PERSON_AND_ORGANIZATION_ROLE ( 'design_owner' ) ;
#41 = VERTEX_POINT ( 'NONE', #229 ) ;
#42 = PERSON_AND_ORGANIZATION ( #463, #309 ) ;
#43 = DIRECTION ( 'NONE',  ( -1.000000000000000000, 0.000000000000000000, 0.000000000000000000 ) ) ;
#44 = VECTOR ( 'NONE', #161, 1000.000000000000000 ) ;
#45 = FACE_OUTER_BOUND ( 'NONE', #292, .T. ) ;
#46 = CARTESIAN_POINT ( 'NONE',  ( 0.000000000000000000, 0.000000000000000000, 33.00000000000000000 ) ) ;
#47 = APPLICATION_PROTOCOL_DEFINITION ( 'international standard', 'config_control_design', 1994, #184 ) ;
#48 = LOCAL_TIME ( 2, 40, 16.00000000000000000, #406 ) ;
#49 = VECTOR ( 'NONE', #10, 1000.000000000000000 ) ;
#50 = COORDINATED_UNIVERSAL_TIME_OFFSET ( 5, 30, .AHEAD. ) ;
#51 = ORIENTED_EDGE ( 'NONE', *, *, #97, .T. ) ;
#52 = DIRECTION ( 'NONE',  ( -1.000000000000000000, 3.098023004582603490E-16, 0.000000000000000000 ) ) ;
#53 = ADVANCED_BREP_SHAPE_REPRESENTATION ( 'PinionMount_Default_sldprt', ( #98, #250 ), #468 ) ;
#54 = VERTEX_POINT ( 'NONE', #167 ) ;
#55 = ORIENTED_EDGE ( 'NONE', *, *, #153, .F. ) ;
#56 = AXIS2_PLACEMENT_3D ( 'NONE', #407, #39, #338 ) ;
#57 = EDGE_CURVE ( 'NONE', #387, #364, #327, .T. ) ;
#58 = AXIS2_PLACEMENT_3D ( 'NONE', #267, #31, #321 ) ;
#59 = LINE ( 'NONE', #192, #268 ) ;
#60 = VERTEX_POINT ( 'NONE', #26 ) ;
#61 = EDGE_CURVE ( 'NONE', #419, #439, #151, .T. ) ;
#62 = VERTEX_POINT ( 'NONE', #310 ) ;
#63 = DIRECTION ( 'NONE',  ( -1.000000000000000000, 3.097720492815729631E-16, -0.000000000000000000 ) ) ;
#64 = CARTESIAN_POINT ( 'NONE',  ( 0.000000000000000000, 32.00000000000000000, 0.000000000000000000 ) ) ;
#65 = EDGE_LOOP ( 'NONE', ( #193, #358 ) ) ;
#66 = DIRECTION ( 'NONE',  ( -0.000000000000000000, 1.000000000000000000, -0.000000000000000000 ) ) ;
#67 = VECTOR ( 'NONE', #129, 1000.000000000000000 ) ;
#68 = AXIS2_PLACEMENT_3D ( 'NONE', #395, #232, #239 ) ;
#69 = ORIENTED_EDGE ( 'NONE', *, *, #471, .F. ) ;
#70 = CYLINDRICAL_SURFACE ( 'NONE', #56, 6.000000000000001776 ) ;
#71 = VECTOR ( 'NONE', #245, 1000.000000000000000 ) ;
#72 = CARTESIAN_POINT ( 'NONE',  ( 6.000000000000003553, 2.000000000000000000, 33.00000000000000000 ) ) ;
#73 = VERTEX_POINT ( 'NONE', #390 ) ;
#74 = DIRECTION ( 'NONE',  ( -1.000000000000000000, 3.098023004582603490E-16, 0.000000000000000000 ) ) ;
#75 = FACE_OUTER_BOUND ( 'NONE', #156, .T. ) ;
#76 = APPROVAL_STATUS ( 'not_yet_approved' ) ;
#77 = EDGE_CURVE ( 'NONE', #198, #278, #29, .T. ) ;
#78 = ORIENTED_EDGE ( 'NONE', *, *, #512, .T. ) ;
#79 = ORIENTED_EDGE ( 'NONE', *, *, #57, .T. ) ;
#80 = DATE_AND_TIME ( #328, #326 ) ;
#81 = CARTESIAN_POINT ( 'NONE',  ( -0.001000000000002561340, 23.00000000000000000, 20.00000000000000355 ) ) ;
#82 = EDGE_CURVE ( 'NONE', #22, #450, #345, .T. ) ;
#83 = DIRECTION ( 'NONE',  ( 0.000000000000000000, 0.000000000000000000, -1.000000000000000000 ) ) ;
#84 = VERTEX_POINT ( 'NONE', #111 ) ;
#85 = DIRECTION ( 'NONE',  ( -1.563071017093548135E-16, -1.000000000000000000, 0.000000000000000000 ) ) ;
#86 = DIRECTION ( 'NONE',  ( 0.000000000000000000, 0.000000000000000000, -1.000000000000000000 ) ) ;
#87 = CIRCLE ( 'NONE', #483, 2.000000000000000000 ) ;
#88 = DIRECTION ( 'NONE',  ( 0.000000000000000000, 0.000000000000000000, -1.000000000000000000 ) ) ;
#89 = AXIS2_PLACEMENT_3D ( 'NONE', #46, #454, #282 ) ;
#90 = CYLINDRICAL_SURFACE ( 'NONE', #293, 2.000000000000000000 ) ;
#91 = ORIENTED_EDGE ( 'NONE', *, *, #287, .F. ) ;
#92 = DIRECTION ( 'NONE',  ( 1.156482317317871478E-16, -1.000000000000000000, 0.000000000000000000 ) ) ;
#93 = ORIENTED_EDGE ( 'NONE', *, *, #256, .T. ) ;
#94 = EDGE_LOOP ( 'NONE', ( #449, #354, #472, #501, #319, #303 ) ) ;
#95 = DIRECTION ( 'NONE',  ( 3.097720492815729138E-16, 1.000000000000000000, -0.000000000000000000 ) ) ;
#96 = CARTESIAN_POINT ( 'NONE',  ( 12.99999999999999822, 1.999999999999997780, 33.00000000000000000 ) ) ;
#97 = EDGE_CURVE ( 'NONE', #114, #8, #324, .T. ) ;
#98 = MANIFOLD_SOLID_BREP ( 'Cut-Extrude2', #36 ) ;
#99 = APPROVAL ( #246, 'UNSPECIFIED' ) ;
#100 = VECTOR ( 'NONE', #511, 1000.000000000000000 ) ;
#101 = AXIS2_PLACEMENT_3D ( 'NONE', #169, #316, #359 ) ;
#102 = DATE_AND_TIME ( #456, #23 ) ;
#103 = APPROVAL_PERSON_ORGANIZATION ( #443, #507, #413 ) ;
#104 = VERTEX_POINT ( 'NONE', #7 ) ;
#105 = EDGE_CURVE ( 'NONE', #427, #73, #451, .T. ) ;
#106 = DIRECTION ( 'NONE',  ( 1.000000000000000000, -1.563071017093548135E-16, -0.000000000000000000 ) ) ;
#107 = CC_DESIGN_PERSON_AND_ORGANIZATION_ASSIGNMENT ( #42, #332, ( #115 ) ) ;
#108 = ORIENTED_EDGE ( 'NONE', *, *, #15, .F. ) ;
#109 = CIRCLE ( 'NONE', #331, 2.000000000000000000 ) ;
#110 = ADVANCED_FACE ( 'NONE', ( #408, #45 ), #144, .F. ) ;
#111 = CARTESIAN_POINT ( 'NONE',  ( 0.000000000000000000, 0.000000000000000000, 33.00000000000000000 ) ) ;
#112 = CARTESIAN_POINT ( 'NONE',  ( 12.99999999999999822, -2.031992322221612255E-15, 0.000000000000000000 ) ) ;
#113 = LINE ( 'NONE', #500, #348 ) ;
#114 = VERTEX_POINT ( 'NONE', #296 ) ;
#115 = PRODUCT_DEFINITION_FORMATION_WITH_SPECIFIED_SOURCE ( 'ANY', '', #346, .NOT_KNOWN. ) ;
#116 = DIRECTION ( 'NONE',  ( -0.000000000000000000, -0.000000000000000000, -1.000000000000000000 ) ) ;
#117 = ORIENTED_EDGE ( 'NONE', *, *, #82, .T. ) ;
#118 = LINE ( 'NONE', #521, #67 ) ;
#119 = CARTESIAN_POINT ( 'NONE',  ( 6.000000000000003553, 2.000000000000000000, 0.000000000000000000 ) ) ;
#120 = CIRCLE ( 'NONE', #381, 2.000000000000000000 ) ;
#121 = DIRECTION ( 'NONE',  ( -0.000000000000000000, 1.000000000000000000, -0.000000000000000000 ) ) ;
#122 = EDGE_LOOP ( 'NONE', ( #421, #470, #263, #91 ) ) ;
#123 = ORIENTED_EDGE ( 'NONE', *, *, #61, .F. ) ;
#124 = DIRECTION ( 'NONE',  ( 3.097720492815729631E-16, 1.000000000000000000, 0.000000000000000000 ) ) ;
#125 = CARTESIAN_POINT ( 'NONE',  ( 12.99999999999999822, -2.031992322221612255E-15, 33.00000000000000000 ) ) ;
#126 = ADVANCED_FACE ( 'NONE', ( #253 ), #414, .F. ) ;
#127 = DATE_TIME_ROLE ( 'creation_date' ) ;
#128 = LINE ( 'NONE', #81, #71 ) ;
#129 = DIRECTION ( 'NONE',  ( 3.097720492815729138E-16, 1.000000000000000000, -0.000000000000000000 ) ) ;
#130 = FACE_BOUND ( 'NONE', #181, .T. ) ;
#131 = CARTESIAN_POINT ( 'NONE',  ( 7.999999999999998224, -1.250585100739101501E-15, 30.00000000000000355 ) ) ;
#132 = CIRCLE ( 'NONE', #2, 2.000000000000000000 ) ;
#133 = AXIS2_PLACEMENT_3D ( 'NONE', #150, #43, #6 ) ;
#134 = COORDINATED_UNIVERSAL_TIME_OFFSET ( 5, 30, .AHEAD. ) ;
#135 = PLANE ( 'NONE',  #160 ) ;
#136 = DATE_AND_TIME ( #34, #418 ) ;
#137 = AXIS2_PLACEMENT_3D ( 'NONE', #389, #28, #196 ) ;
#138 = PERSON_AND_ORGANIZATION ( #463, #309 ) ;
#139 = ORIENTED_EDGE ( 'NONE', *, *, #20, .T. ) ;
#140 = DIRECTION ( 'NONE',  ( 3.097720492815729631E-16, 1.000000000000000000, 0.000000000000000000 ) ) ;
#141 = ORIENTED_EDGE ( 'NONE', *, *, #280, .F. ) ;
#142 = ORIENTED_EDGE ( 'NONE', *, *, #105, .F. ) ;
#143 = AXIS2_PLACEMENT_3D ( 'NONE', #341, #145, #297 ) ;
#144 = PLANE ( 'NONE',  #255 ) ;
#145 = DIRECTION ( 'NONE',  ( 3.097720492815729138E-16, 1.000000000000000000, -0.000000000000000000 ) ) ;
#146 = ADVANCED_FACE ( 'NONE', ( #216, #13 ), #186, .F. ) ;
#147 = CC_DESIGN_APPROVAL ( #99, ( #262 ) ) ;
#148 = ORIENTED_EDGE ( 'NONE', *, *, #77, .T. ) ;
#149 = EDGE_CURVE ( 'NONE', #492, #84, #59, .T. ) ;
#150 = CARTESIAN_POINT ( 'NONE',  ( 12.99999999999999822, 1.999999999999997780, 33.00000000000000000 ) ) ;
#151 = CIRCLE ( 'NONE', #272, 6.000000000000001776 ) ;
#152 = CC_DESIGN_APPROVAL ( #234, ( #115 ) ) ;
#153 = EDGE_CURVE ( 'NONE', #492, #12, #113, .T. ) ;
#154 = DIRECTION ( 'NONE',  ( -0.000000000000000000, -0.000000000000000000, -1.000000000000000000 ) ) ;
#155 = DIRECTION ( 'NONE',  ( 0.000000000000000000, 0.000000000000000000, -1.000000000000000000 ) ) ;
#156 = EDGE_LOOP ( 'NONE', ( #520, #55, #415, #225 ) ) ;
#157 = DIRECTION ( 'NONE',  ( -1.445602896647338917E-16, 1.000000000000000000, 0.000000000000000000 ) ) ;
#158 = CYLINDRICAL_SURFACE ( 'NONE', #101, 6.000000000000001776 ) ;
#159 = FACE_OUTER_BOUND ( 'NONE', #94, .T. ) ;
#160 = AXIS2_PLACEMENT_3D ( 'NONE', #174, #515, #228 ) ;
#161 = DIRECTION ( 'NONE',  ( -1.000000000000000000, 3.097720492815729631E-16, -0.000000000000000000 ) ) ;
#162 = EDGE_LOOP ( 'NONE', ( #300, #237, #51, #30 ) ) ;
#163 = DIRECTION ( 'NONE',  ( 1.563071017093548135E-16, 1.000000000000000000, -0.000000000000000000 ) ) ;
#164 = FACE_OUTER_BOUND ( 'NONE', #162, .T. ) ;
#165 = ADVANCED_FACE ( 'NONE', ( #344 ), #502, .F. ) ;
#166 = ORIENTED_EDGE ( 'NONE', *, *, #61, .T. ) ;
#167 = CARTESIAN_POINT ( 'NONE',  ( 6.000000000000003553, 2.000000000000000000, 0.000000000000000000 ) ) ;
#168 = ORIENTED_EDGE ( 'NONE', *, *, #170, .T. ) ;
#169 = CARTESIAN_POINT ( 'NONE',  ( -0.001000000000001867451, 16.99999999999999645, 20.00000000000000355 ) ) ;
#170 = EDGE_CURVE ( 'NONE', #104, #73, #380, .T. ) ;
#171 = LINE ( 'NONE', #206, #356 ) ;
#172 = DIRECTION ( 'NONE',  ( 3.097720492815729138E-16, 1.000000000000000000, -0.000000000000000000 ) ) ;
#173 = DIRECTION ( 'NONE',  ( 1.000000000000000000, 0.000000000000000000, 0.000000000000000000 ) ) ;
#174 = CARTESIAN_POINT ( 'NONE',  ( 6.000000000000003553, 2.000000000000000000, 33.00000000000000000 ) ) ;
#175 = ADVANCED_FACE ( 'NONE', ( #164 ), #437, .F. ) ;
#176 = DIRECTION ( 'NONE',  ( -1.000000000000000000, -0.000000000000000000, -0.000000000000000000 ) ) ;
#177 = DIRECTION ( 'NONE',  ( 0.000000000000000000, 0.000000000000000000, 1.000000000000000000 ) ) ;
#178 = CARTESIAN_POINT ( 'NONE',  ( 9.999999999999998224, 1.999999999999998668, 3.000000000000000000 ) ) ;
#179 = CARTESIAN_POINT ( 'NONE',  ( 12.99999999999999822, -2.031992322221612255E-15, 33.00000000000000000 ) ) ;
#180 = VERTEX_POINT ( 'NONE', #131 ) ;
#181 = EDGE_LOOP ( 'NONE', ( #417, #504 ) ) ;
#182 = AXIS2_PLACEMENT_3D ( 'NONE', #342, #285, #83 ) ;
#183 = CARTESIAN_POINT ( 'NONE',  ( 9.999999999999998224, -1.563199304157811276E-15, 3.000000000000000000 ) ) ;
#184 = APPLICATION_CONTEXT ( 'configuration controlled 3d designs of mechanical parts and assemblies' ) ;
#185 = APPROVAL_STATUS ( 'not_yet_approved' ) ;
#186 = PLANE ( 'NONE',  #182 ) ;
#187 = FACE_OUTER_BOUND ( 'NONE', #25, .T. ) ;
#188 = ADVANCED_FACE ( 'NONE', ( #479 ), #70, .F. ) ;
#189 = DIRECTION ( 'NONE',  ( -0.000000000000000000, -0.000000000000000000, -1.000000000000000000 ) ) ;
#190 = ORIENTED_EDGE ( 'NONE', *, *, #149, .F. ) ;
#191 = DIRECTION ( 'NONE',  ( -0.000000000000000000, -0.000000000000000000, -1.000000000000000000 ) ) ;
#192 = CARTESIAN_POINT ( 'NONE',  ( 0.000000000000000000, 0.000000000000000000, 33.00000000000000000 ) ) ;
#193 = ORIENTED_EDGE ( 'NONE', *, *, #308, .F. ) ;
#194 = EDGE_CURVE ( 'NONE', #180, #8, #394, .T. ) ;
#195 = CARTESIAN_POINT ( 'NONE',  ( 6.000000000000001776, 16.99999999999999645, 20.00000000000000355 ) ) ;
#196 = DIRECTION ( 'NONE',  ( 0.000000000000000000, -0.000000000000000000, -1.000000000000000000 ) ) ;
#197 = CARTESIAN_POINT ( 'NONE',  ( 6.000000000000003553, 2.000000000000000000, 33.00000000000000000 ) ) ;
#198 = VERTEX_POINT ( 'NONE', #474 ) ;
#199 = CARTESIAN_POINT ( 'NONE',  ( 6.000000000000002665, 10.99999999999999645, 20.00000000000000355 ) ) ;
#200 = AXIS2_PLACEMENT_3D ( 'NONE', #125, #163, #333 ) ;
#201 = CARTESIAN_POINT ( 'NONE',  ( 0.000000000000000000, 10.99999999999999645, 20.00000000000000355 ) ) ;
#202 = DIRECTION ( 'NONE',  ( 1.000000000000000000, 1.156482317317871478E-16, -0.000000000000000000 ) ) ;
#203 = DIRECTION ( 'NONE',  ( -1.000000000000000000, 2.168404344971008868E-16, 0.000000000000000000 ) ) ;
#204 = EDGE_LOOP ( 'NONE', ( #307, #108, #217, #78 ) ) ;
#205 = VECTOR ( 'NONE', #462, 1000.000000000000000 ) ;
#206 = CARTESIAN_POINT ( 'NONE',  ( 0.000000000000000000, 0.000000000000000000, 33.00000000000000000 ) ) ;
#207 = LINE ( 'NONE', #362, #461 ) ;
#208 = APPROVAL_ROLE ( '' ) ;
#209 = PRODUCT_DEFINITION ( 'UNKNOWN', '', #115, #508 ) ;
#210 = CARTESIAN_POINT ( 'NONE',  ( 6.000000000000000000, 32.00000000000000000, 0.000000000000000000 ) ) ;
#211 =( NAMED_UNIT ( * ) SI_UNIT ( $, .STERADIAN. ) SOLID_ANGLE_UNIT ( ) );
#212 = CARTESIAN_POINT ( 'NONE',  ( 9.999999999999998224, -1.563199304157811276E-15, 30.00000000000000355 ) ) ;
#213 = DIRECTION ( 'NONE',  ( 3.097720492815729138E-16, 1.000000000000000000, -0.000000000000000000 ) ) ;
#214 = APPROVAL_PERSON_ORGANIZATION ( #281, #99, #208 ) ;
#215 = EDGE_LOOP ( 'NONE', ( #425, #223 ) ) ;
#216 = FACE_BOUND ( 'NONE', #215, .T. ) ;
#217 = ORIENTED_EDGE ( 'NONE', *, *, #77, .F. ) ;
#218 = EDGE_CURVE ( 'NONE', #396, #198, #207, .T. ) ;
#219 = LINE ( 'NONE', #179, #480 ) ;
#220 = VECTOR ( 'NONE', #154, 1000.000000000000000 ) ;
#221 = PRODUCT_RELATED_PRODUCT_CATEGORY ( 'detail', '', ( #346 ) ) ;
#222 = ORIENTED_EDGE ( 'NONE', *, *, #249, .T. ) ;
#223 = ORIENTED_EDGE ( 'NONE', *, *, #231, .F. ) ;
#224 = EDGE_CURVE ( 'NONE', #41, #12, #524, .T. ) ;
#225 = ORIENTED_EDGE ( 'NONE', *, *, #280, .T. ) ;
#226 = CARTESIAN_POINT ( 'NONE',  ( -0.001000000000001173561, 10.99999999999999645, 20.00000000000000355 ) ) ;
#227 = EDGE_LOOP ( 'NONE', ( #411, #16 ) ) ;
#228 = DIRECTION ( 'NONE',  ( 1.000000000000000000, -3.097720492815729631E-16, 0.000000000000000000 ) ) ;
#229 = CARTESIAN_POINT ( 'NONE',  ( 6.000000000000000000, 32.00000000000000000, 0.000000000000000000 ) ) ;
#230 = CARTESIAN_POINT ( 'NONE',  ( 12.99999999999999822, 1.999999999999997780, 0.000000000000000000 ) ) ;
#231 = EDGE_CURVE ( 'NONE', #450, #22, #312, .T. ) ;
#232 = DIRECTION ( 'NONE',  ( -1.563071017093548135E-16, -1.000000000000000000, 0.000000000000000000 ) ) ;
#233 = CARTESIAN_POINT ( 'NONE',  ( 12.99999999999999822, 1.999999999999997780, 0.000000000000000000 ) ) ;
#234 = APPROVAL ( #76, 'UNSPECIFIED' ) ;
#235 = CARTESIAN_POINT ( 'NONE',  ( 0.000000000000000000, 0.000000000000000000, 0.000000000000000000 ) ) ;
#236 = UNCERTAINTY_MEASURE_WITH_UNIT (LENGTH_MEASURE( 1.000000000000000082E-05 ), #525, 'distance_accuracy_value', 'NONE');
#237 = ORIENTED_EDGE ( 'NONE', *, *, #350, .T. ) ;
#238 = PLANE ( 'NONE',  #137 ) ;
#239 = DIRECTION ( 'NONE',  ( -1.000000000000000000, 1.563071017093547642E-16, 0.000000000000000000 ) ) ;
#240 = EDGE_LOOP ( 'NONE', ( #383, #476 ) ) ;
#241 = MECHANICAL_CONTEXT ( 'NONE', #184, 'mechanical' ) ;
#242 = EDGE_CURVE ( 'NONE', #12, #387, #283, .T. ) ;
#243 = CC_DESIGN_SECURITY_CLASSIFICATION ( #262, ( #115 ) ) ;
#244 = PERSON_AND_ORGANIZATION_ROLE ( 'classification_officer' ) ;
#245 = DIRECTION ( 'NONE',  ( 1.000000000000000000, 1.156482317317871478E-16, -0.000000000000000000 ) ) ;
#246 = APPROVAL_STATUS ( 'not_yet_approved' ) ;
#247 = APPLICATION_CONTEXT ( 'configuration controlled 3d designs of mechanical parts and assemblies' ) ;
#248 = SECURITY_CLASSIFICATION_LEVEL ( 'unclassified' ) ;
#249 = EDGE_CURVE ( 'NONE', #22, #439, #128, .T. ) ;
#250 = AXIS2_PLACEMENT_3D ( 'NONE', #360, #177, #173 ) ;
#251 = VECTOR ( 'NONE', #440, 1000.000000000000000 ) ;
#252 = ORIENTED_EDGE ( 'NONE', *, *, #194, .T. ) ;
#253 = FACE_OUTER_BOUND ( 'NONE', #122, .T. ) ;
#254 = ORIENTED_EDGE ( 'NONE', *, *, #9, .F. ) ;
#255 = AXIS2_PLACEMENT_3D ( 'NONE', #363, #494, #92 ) ;
#256 = EDGE_CURVE ( 'NONE', #396, #364, #404, .T. ) ;
#257 = APPROVAL_DATE_TIME ( #102, #234 ) ;
#258 = LINE ( 'NONE', #306, #205 ) ;
#259 = VECTOR ( 'NONE', #66, 1000.000000000000000 ) ;
#260 = EDGE_CURVE ( 'NONE', #54, #41, #18, .T. ) ;
#261 = VECTOR ( 'NONE', #116, 1000.000000000000000 ) ;
#262 = SECURITY_CLASSIFICATION ( '', '', #248 ) ;
#263 = ORIENTED_EDGE ( 'NONE', *, *, #379, .T. ) ;
#264 = ORIENTED_EDGE ( 'NONE', *, *, #242, .T. ) ;
#265 = EDGE_CURVE ( 'NONE', #84, #396, #219, .T. ) ;
#266 = ORIENTED_EDGE ( 'NONE', *, *, #350, .F. ) ;
#267 = CARTESIAN_POINT ( 'NONE',  ( 9.999999999999998224, -1.563199304157811276E-15, 30.00000000000000355 ) ) ;
#268 = VECTOR ( 'NONE', #459, 1000.000000000000000 ) ;
#269 = PLANE ( 'NONE',  #372 ) ;
#270 = ORIENTED_EDGE ( 'NONE', *, *, #256, .F. ) ;
#271 = DIRECTION ( 'NONE',  ( -1.563071017093548135E-16, -1.000000000000000000, 0.000000000000000000 ) ) ;
#272 = AXIS2_PLACEMENT_3D ( 'NONE', #195, #509, #157 ) ;
#273 = CARTESIAN_POINT ( 'NONE',  ( 0.000000000000000000, 16.99999999999999645, 20.00000000000000355 ) ) ;
#274 = LOCAL_TIME ( 2, 40, 16.00000000000000000, #4 ) ;
#275 = EDGE_LOOP ( 'NONE', ( #466, #369, #424, #93 ) ) ;
#276 = FACE_OUTER_BOUND ( 'NONE', #497, .T. ) ;
#277 = CARTESIAN_POINT ( 'NONE',  ( 6.000000000000000888, 23.00000000000000000, 20.00000000000000355 ) ) ;
#278 = VERTEX_POINT ( 'NONE', #503 ) ;
#279 = FACE_BOUND ( 'NONE', #227, .T. ) ;
#280 = EDGE_CURVE ( 'NONE', #62, #41, #378, .T. ) ;
#281 = PERSON_AND_ORGANIZATION ( #463, #309 ) ;
#282 = DIRECTION ( 'NONE',  ( -1.000000000000000000, 0.000000000000000000, -0.000000000000000000 ) ) ;
#283 = LINE ( 'NONE', #235, #377 ) ;
#284 = APPLICATION_PROTOCOL_DEFINITION ( 'international standard', 'config_control_design', 1994, #247 ) ;
#285 = DIRECTION ( 'NONE',  ( 1.000000000000000000, 0.000000000000000000, 0.000000000000000000 ) ) ;
#286 = DIRECTION ( 'NONE',  ( -1.000000000000000000, 3.098023004582603490E-16, 0.000000000000000000 ) ) ;
#287 = EDGE_CURVE ( 'NONE', #60, #104, #258, .T. ) ;
#288 = DIRECTION ( 'NONE',  ( 3.097720492815729631E-16, 1.000000000000000000, 0.000000000000000000 ) ) ;
#289 = SHAPE_DEFINITION_REPRESENTATION ( #21, #53 ) ;
#290 = DIRECTION ( 'NONE',  ( -1.000000000000000000, 0.000000000000000000, -0.000000000000000000 ) ) ;
#291 = VECTOR ( 'NONE', #172, 1000.000000000000000 ) ;
#292 = EDGE_LOOP ( 'NONE', ( #398, #141, #315, #305 ) ) ;
#293 = AXIS2_PLACEMENT_3D ( 'NONE', #410, #213, #74 ) ;
#294 = ORIENTED_EDGE ( 'NONE', *, *, #287, .T. ) ;
#295 = CC_DESIGN_DATE_AND_TIME_ASSIGNMENT ( #478, #127, ( #209 ) ) ;
#296 = CARTESIAN_POINT ( 'NONE',  ( 11.99999999999999822, 1.999999999999998224, 30.00000000000000355 ) ) ;
#297 = DIRECTION ( 'NONE',  ( -1.000000000000000000, 3.098023004582603490E-16, 0.000000000000000000 ) ) ;
#298 = ADVANCED_FACE ( 'NONE', ( #448 ), #90, .F. ) ;
#299 = ORIENTED_EDGE ( 'NONE', *, *, #373, .F. ) ;
#300 = ORIENTED_EDGE ( 'NONE', *, *, #304, .T. ) ;
#301 = CC_DESIGN_PERSON_AND_ORGANIZATION_ASSIGNMENT ( #393, #444, ( #209 ) ) ;
#302 = AXIS2_PLACEMENT_3D ( 'NONE', #178, #140, #203 ) ;
#303 = ORIENTED_EDGE ( 'NONE', *, *, #330, .F. ) ;
#304 = EDGE_CURVE ( 'NONE', #180, #514, #519, .T. ) ;
#305 = ORIENTED_EDGE ( 'NONE', *, *, #15, .T. ) ;
#306 = CARTESIAN_POINT ( 'NONE',  ( 7.999999999999998224, -0.001000000000004283704, 3.000000000000000000 ) ) ;
#307 = ORIENTED_EDGE ( 'NONE', *, *, #438, .T. ) ;
#308 = EDGE_CURVE ( 'NONE', #8, #114, #87, .T. ) ;
#309 = ORGANIZATION ( 'UNSPECIFIED', 'UNSPECIFIED', '' ) ;
#310 = CARTESIAN_POINT ( 'NONE',  ( 6.000000000000000000, 32.00000000000000000, 33.00000000000000000 ) ) ;
#311 = ORIENTED_EDGE ( 'NONE', *, *, #308, .T. ) ;
#312 = CIRCLE ( 'NONE', #402, 6.000000000000001776 ) ;
#313 = CARTESIAN_POINT ( 'NONE',  ( 11.99999999999999822, -1.875813507576520853E-15, 3.000000000000000444 ) ) ;
#314 = LINE ( 'NONE', #226, #442 ) ;
#315 = ORIENTED_EDGE ( 'NONE', *, *, #457, .F. ) ;
#316 = DIRECTION ( 'NONE',  ( 1.000000000000000000, 1.156482317317871478E-16, -0.000000000000000000 ) ) ;
#317 = CARTESIAN_POINT ( 'NONE',  ( 6.000000000000000000, 32.00000000000000000, 33.00000000000000000 ) ) ;
#318 = CARTESIAN_POINT ( 'NONE',  ( 7.999999999999998224, -0.001000000000004283704, 30.00000000000000355 ) ) ;
#319 = ORIENTED_EDGE ( 'NONE', *, *, #438, .F. ) ;
#320 = ORIENTED_EDGE ( 'NONE', *, *, #9, .T. ) ;
#321 = DIRECTION ( 'NONE',  ( -1.000000000000000000, 1.563071017093548628E-16, 0.000000000000000000 ) ) ;
#322 = LINE ( 'NONE', #355, #458 ) ;
#323 = CALENDAR_DATE ( 2026, 24, 8 ) ;
#324 = CIRCLE ( 'NONE', #382, 2.000000000000000000 ) ;
#325 = DIRECTION ( 'NONE',  ( -1.000000000000000000, -0.000000000000000000, -0.000000000000000000 ) ) ;
#326 = LOCAL_TIME ( 2, 40, 16.00000000000000000, #134 ) ;
#327 = LINE ( 'NONE', #397, #371 ) ;
#328 = CALENDAR_DATE ( 2026, 24, 8 ) ;
#329 = DIRECTION ( 'NONE',  ( 3.097720492815729631E-16, 1.000000000000000000, 0.000000000000000000 ) ) ;
#330 = EDGE_CURVE ( 'NONE', #364, #385, #27, .T. ) ;
#331 = AXIS2_PLACEMENT_3D ( 'NONE', #523, #329, #473 ) ;
#332 = PERSON_AND_ORGANIZATION_ROLE ( 'design_supplier' ) ;
#333 = DIRECTION ( 'NONE',  ( -1.000000000000000000, 1.563071017093548135E-16, 0.000000000000000000 ) ) ;
#334 = ADVANCED_FACE ( 'NONE', ( #276 ), #158, .F. ) ;
#335 =( NAMED_UNIT ( * ) PLANE_ANGLE_UNIT ( ) SI_UNIT ( $, .RADIAN. ) );
#336 = DIRECTION ( 'NONE',  ( 3.097720492815729138E-16, 1.000000000000000000, -0.000000000000000000 ) ) ;
#337 = DATE_AND_TIME ( #365, #274 ) ;
#338 = DIRECTION ( 'NONE',  ( -1.156552903396808926E-16, 1.000000000000000000, 0.000000000000000000 ) ) ;
#339 = CARTESIAN_POINT ( 'NONE',  ( 11.99999999999999822, -0.001000000000005522730, 3.000000000000000444 ) ) ;
#340 = LINE ( 'NONE', #96, #251 ) ;
#341 = CARTESIAN_POINT ( 'NONE',  ( 9.999999999999998224, -0.001000000000004903217, 3.000000000000000000 ) ) ;
#342 = CARTESIAN_POINT ( 'NONE',  ( 0.000000000000000000, 0.000000000000000000, 33.00000000000000000 ) ) ;
#343 = ORIENTED_EDGE ( 'NONE', *, *, #457, .T. ) ;
#344 = FACE_OUTER_BOUND ( 'NONE', #275, .T. ) ;
#345 = CIRCLE ( 'NONE', #19, 6.000000000000001776 ) ;
#346 = PRODUCT ( 'PinionMount_Default_sldprt', 'PinionMount_Default_sldprt', '', ( #241 ) ) ;
#347 = ORIENTED_EDGE ( 'NONE', *, *, #471, .T. ) ;
#348 = VECTOR ( 'NONE', #189, 1000.000000000000000 ) ;
#349 = ORIENTED_EDGE ( 'NONE', *, *, #265, .T. ) ;
#350 = EDGE_CURVE ( 'NONE', #514, #114, #118, .T. ) ;
#351 = LINE ( 'NONE', #317, #100 ) ;
#352 = CARTESIAN_POINT ( 'NONE',  ( 0.000000000000000000, 16.99999999999999645, 20.00000000000000355 ) ) ;
#353 = CARTESIAN_POINT ( 'NONE',  ( 7.999999999999998224, 1.999999999999999112, 30.00000000000000355 ) ) ;
#354 = ORIENTED_EDGE ( 'NONE', *, *, #242, .F. ) ;
#355 = CARTESIAN_POINT ( 'NONE',  ( 0.000000000000000000, 32.00000000000000000, 33.00000000000000000 ) ) ;
#356 = VECTOR ( 'NONE', #38, 1000.000000000000000 ) ;
#357 = CARTESIAN_POINT ( 'NONE',  ( 0.000000000000000000, 23.00000000000000000, 20.00000000000000355 ) ) ;
#358 = ORIENTED_EDGE ( 'NONE', *, *, #97, .F. ) ;
#359 = DIRECTION ( 'NONE',  ( -1.156552903396808926E-16, 1.000000000000000000, 0.000000000000000000 ) ) ;
#360 = CARTESIAN_POINT ( 'NONE',  ( 0.000000000000000000, 0.000000000000000000, 0.000000000000000000 ) ) ;
#361 = FACE_OUTER_BOUND ( 'NONE', #506, .T. ) ;
#362 = CARTESIAN_POINT ( 'NONE',  ( 12.99999999999999822, 1.999999999999997780, 33.00000000000000000 ) ) ;
#363 = CARTESIAN_POINT ( 'NONE',  ( 6.000000000000000000, 32.00000000000000000, 33.00000000000000000 ) ) ;
#364 = VERTEX_POINT ( 'NONE', #112 ) ;
#365 = CALENDAR_DATE ( 2026, 24, 8 ) ;
#366 = DIRECTION ( 'NONE',  ( -1.000000000000000000, 1.563071017093547642E-16, 0.000000000000000000 ) ) ;
#367 = EDGE_CURVE ( 'NONE', #514, #180, #120, .T. ) ;
#368 = CARTESIAN_POINT ( 'NONE',  ( 9.999999999999998224, 1.999999999999998668, 30.00000000000000355 ) ) ;
#369 = ORIENTED_EDGE ( 'NONE', *, *, #512, .F. ) ;
#370 = DIRECTION ( 'NONE',  ( -1.445602896647338917E-16, 1.000000000000000000, 0.000000000000000000 ) ) ;
#371 = VECTOR ( 'NONE', #386, 1000.000000000000000 ) ;
#372 = AXIS2_PLACEMENT_3D ( 'NONE', #426, #88, #290 ) ;
#373 = EDGE_CURVE ( 'NONE', #84, #387, #171, .T. ) ;
#374 = CYLINDRICAL_SURFACE ( 'NONE', #143, 2.000000000000000000 ) ;
#375 = VECTOR ( 'NONE', #63, 1000.000000000000000 ) ;
#376 = ORIENTED_EDGE ( 'NONE', *, *, #231, .T. ) ;
#377 = VECTOR ( 'NONE', #430, 1000.000000000000000 ) ;
#378 = LINE ( 'NONE', #416, #220 ) ;
#379 = EDGE_CURVE ( 'NONE', #73, #104, #109, .T. ) ;
#380 = CIRCLE ( 'NONE', #302, 2.000000000000000000 ) ;
#381 = AXIS2_PLACEMENT_3D ( 'NONE', #212, #271, #33 ) ;
#382 = AXIS2_PLACEMENT_3D ( 'NONE', #368, #288, #446 ) ;
#383 = ORIENTED_EDGE ( 'NONE', *, *, #170, .F. ) ;
#384 = EDGE_CURVE ( 'NONE', #62, #492, #322, .T. ) ;
#385 = VERTEX_POINT ( 'NONE', #233 ) ;
#386 = DIRECTION ( 'NONE',  ( 1.000000000000000000, -1.563071017093548135E-16, -0.000000000000000000 ) ) ;
#387 = VERTEX_POINT ( 'NONE', #433 ) ;
#388 = DIRECTION ( 'NONE',  ( -1.000000000000000000, 2.168404344971008868E-16, 0.000000000000000000 ) ) ;
#389 = CARTESIAN_POINT ( 'NONE',  ( 0.000000000000000000, 32.00000000000000000, 33.00000000000000000 ) ) ;
#390 = CARTESIAN_POINT ( 'NONE',  ( 11.99999999999999822, 1.999999999999998224, 3.000000000000000444 ) ) ;
#391 = CARTESIAN_POINT ( 'NONE',  ( 12.99999999999999822, -2.031992322221612255E-15, 33.00000000000000000 ) ) ;
#392 = FACE_BOUND ( 'NONE', #240, .T. ) ;
#393 = PERSON_AND_ORGANIZATION ( #463, #309 ) ;
#394 = LINE ( 'NONE', #318, #291 ) ;
#395 = CARTESIAN_POINT ( 'NONE',  ( 9.999999999999998224, -1.563199304157811276E-15, 3.000000000000000000 ) ) ;
#396 = VERTEX_POINT ( 'NONE', #391 ) ;
#397 = CARTESIAN_POINT ( 'NONE',  ( 12.99999999999999822, -2.031992322221612255E-15, 0.000000000000000000 ) ) ;
#398 = ORIENTED_EDGE ( 'NONE', *, *, #260, .T. ) ;
#399 = ORIENTED_EDGE ( 'NONE', *, *, #373, .T. ) ;
#400 = DIRECTION ( 'NONE',  ( 3.097720492815729138E-16, 1.000000000000000000, -0.000000000000000000 ) ) ;
#401 = DIRECTION ( 'NONE',  ( -1.000000000000000000, -0.000000000000000000, -0.000000000000000000 ) ) ;
#402 = AXIS2_PLACEMENT_3D ( 'NONE', #273, #325, #86 ) ;
#403 = DATE_TIME_ROLE ( 'classification_date' ) ;
#404 = LINE ( 'NONE', #445, #432 ) ;
#405 = ORIENTED_EDGE ( 'NONE', *, *, #249, .F. ) ;
#406 = COORDINATED_UNIVERSAL_TIME_OFFSET ( 5, 30, .AHEAD. ) ;
#407 = CARTESIAN_POINT ( 'NONE',  ( -0.001000000000001867451, 16.99999999999999645, 20.00000000000000355 ) ) ;
#408 = FACE_BOUND ( 'NONE', #37, .T. ) ;
#409 = COORDINATED_UNIVERSAL_TIME_OFFSET ( 5, 30, .AHEAD. ) ;
#410 = CARTESIAN_POINT ( 'NONE',  ( 9.999999999999998224, -0.001000000000004903217, 30.00000000000000355 ) ) ;
#411 = ORIENTED_EDGE ( 'NONE', *, *, #304, .F. ) ;
#412 = FACE_OUTER_BOUND ( 'NONE', #11, .T. ) ;
#413 = APPROVAL_ROLE ( '' ) ;
#414 = CYLINDRICAL_SURFACE ( 'NONE', #1, 2.000000000000000000 ) ;
#415 = ORIENTED_EDGE ( 'NONE', *, *, #384, .F. ) ;
#416 = CARTESIAN_POINT ( 'NONE',  ( 6.000000000000000000, 32.00000000000000000, 33.00000000000000000 ) ) ;
#417 = ORIENTED_EDGE ( 'NONE', *, *, #488, .F. ) ;
#418 = LOCAL_TIME ( 2, 40, 16.00000000000000000, #50 ) ;
#419 = VERTEX_POINT ( 'NONE', #199 ) ;
#420 = ADVANCED_FACE ( 'NONE', ( #392, #518, #482 ), #135, .F. ) ;
#421 = ORIENTED_EDGE ( 'NONE', *, *, #488, .T. ) ;
#422 = EDGE_LOOP ( 'NONE', ( #117, #320, #166, #405 ) ) ;
#423 = PLANE ( 'NONE',  #200 ) ;
#424 = ORIENTED_EDGE ( 'NONE', *, *, #218, .F. ) ;
#425 = ORIENTED_EDGE ( 'NONE', *, *, #82, .F. ) ;
#426 = CARTESIAN_POINT ( 'NONE',  ( 0.000000000000000000, 0.000000000000000000, 0.000000000000000000 ) ) ;
#427 = VERTEX_POINT ( 'NONE', #313 ) ;
#428 = ORIENTED_EDGE ( 'NONE', *, *, #367, .T. ) ;
#429 = ADVANCED_FACE ( 'NONE', ( #130, #279, #361 ), #423, .F. ) ;
#430 = DIRECTION ( 'NONE',  ( -0.000000000000000000, -1.000000000000000000, -0.000000000000000000 ) ) ;
#431 = APPROVAL_PERSON_ORGANIZATION ( #434, #234, #496 ) ;
#432 = VECTOR ( 'NONE', #191, 1000.000000000000000 ) ;
#433 = CARTESIAN_POINT ( 'NONE',  ( 0.000000000000000000, 0.000000000000000000, 0.000000000000000000 ) ) ;
#434 = PERSON_AND_ORGANIZATION ( #463, #309 ) ;
#435 = LINE ( 'NONE', #72, #261 ) ;
#436 = ORIENTED_EDGE ( 'NONE', *, *, #218, .T. ) ;
#437 = CYLINDRICAL_SURFACE ( 'NONE', #517, 2.000000000000000000 ) ;
#438 = EDGE_CURVE ( 'NONE', #385, #54, #487, .T. ) ;
#439 = VERTEX_POINT ( 'NONE', #277 ) ;
#440 = DIRECTION ( 'NONE',  ( -0.000000000000000000, -0.000000000000000000, -1.000000000000000000 ) ) ;
#441 = APPROVAL_DATE_TIME ( #136, #507 ) ;
#442 = VECTOR ( 'NONE', #202, 1000.000000000000000 ) ;
#443 = PERSON_AND_ORGANIZATION ( #463, #309 ) ;
#444 = PERSON_AND_ORGANIZATION_ROLE ( 'creator' ) ;
#445 = CARTESIAN_POINT ( 'NONE',  ( 12.99999999999999822, -2.031992322221612255E-15, 33.00000000000000000 ) ) ;
#446 = DIRECTION ( 'NONE',  ( -1.000000000000000000, 2.168404344971008868E-16, 0.000000000000000000 ) ) ;
#447 = CARTESIAN_POINT ( 'NONE',  ( 0.000000000000000000, 32.00000000000000000, 33.00000000000000000 ) ) ;
#448 = FACE_OUTER_BOUND ( 'NONE', #32, .T. ) ;
#449 = ORIENTED_EDGE ( 'NONE', *, *, #57, .F. ) ;
#450 = VERTEX_POINT ( 'NONE', #201 ) ;
#451 = LINE ( 'NONE', #339, #484 ) ;
#452 = CARTESIAN_POINT ( 'NONE',  ( 6.000000000000001776, 16.99999999999999645, 20.00000000000000355 ) ) ;
#453 = ADVANCED_FACE ( 'NONE', ( #75 ), #238, .F. ) ;
#454 = DIRECTION ( 'NONE',  ( 0.000000000000000000, 0.000000000000000000, -1.000000000000000000 ) ) ;
#455 = AXIS2_PLACEMENT_3D ( 'NONE', #452, #498, #370 ) ;
#456 = CALENDAR_DATE ( 2026, 24, 8 ) ;
#457 = EDGE_CURVE ( 'NONE', #278, #62, #351, .T. ) ;
#458 = VECTOR ( 'NONE', #477, 1000.000000000000000 ) ;
#459 = DIRECTION ( 'NONE',  ( -0.000000000000000000, -1.000000000000000000, -0.000000000000000000 ) ) ;
#460 = PERSON_AND_ORGANIZATION ( #463, #309 ) ;
#461 = VECTOR ( 'NONE', #121, 1000.000000000000000 ) ;
#462 = DIRECTION ( 'NONE',  ( 3.097720492815729138E-16, 1.000000000000000000, -0.000000000000000000 ) ) ;
#463 = PERSON ( 'UNSPECIFIED', 'UNSPECIFIED', 'UNSPECIFIED', ('UNSPECIFIED'), ('UNSPECIFIED'), ('UNSPECIFIED') ) ;
#464 = ADVANCED_FACE ( 'NONE', ( #159 ), #269, .T. ) ;
#465 = CIRCLE ( 'NONE', #68, 2.000000000000000000 ) ;
#466 = ORIENTED_EDGE ( 'NONE', *, *, #330, .T. ) ;
#467 = CC_DESIGN_APPROVAL ( #507, ( #209 ) ) ;
#468 =( GEOMETRIC_REPRESENTATION_CONTEXT ( 3 ) GLOBAL_UNCERTAINTY_ASSIGNED_CONTEXT ( ( #236 ) ) GLOBAL_UNIT_ASSIGNED_CONTEXT ( ( #525, #335, #211 ) ) REPRESENTATION_CONTEXT ( 'NONE', 'WORKASPACE' ) );
#469 = ORIENTED_EDGE ( 'NONE', *, *, #153, .T. ) ;
#470 = ORIENTED_EDGE ( 'NONE', *, *, #105, .T. ) ;
#471 = EDGE_CURVE ( 'NONE', #439, #419, #505, .T. ) ;
#472 = ORIENTED_EDGE ( 'NONE', *, *, #224, .F. ) ;
#473 = DIRECTION ( 'NONE',  ( -1.000000000000000000, 2.168404344971008868E-16, 0.000000000000000000 ) ) ;
#474 = CARTESIAN_POINT ( 'NONE',  ( 12.99999999999999822, 1.999999999999997780, 33.00000000000000000 ) ) ;
#475 = ORIENTED_EDGE ( 'NONE', *, *, #265, .F. ) ;
#476 = ORIENTED_EDGE ( 'NONE', *, *, #379, .F. ) ;
#477 = DIRECTION ( 'NONE',  ( -1.000000000000000000, -0.000000000000000000, -0.000000000000000000 ) ) ;
#478 = DATE_AND_TIME ( #323, #48 ) ;
#479 = FACE_OUTER_BOUND ( 'NONE', #422, .T. ) ;
#480 = VECTOR ( 'NONE', #106, 1000.000000000000000 ) ;
#481 = PERSON_AND_ORGANIZATION_ROLE ( 'creator' ) ;
#482 = FACE_OUTER_BOUND ( 'NONE', #204, .T. ) ;
#483 = AXIS2_PLACEMENT_3D ( 'NONE', #510, #124, #388 ) ;
#484 = VECTOR ( 'NONE', #95, 1000.000000000000000 ) ;
#485 = ORIENTED_EDGE ( 'NONE', *, *, #149, .T. ) ;
#486 = PERSON_AND_ORGANIZATION ( #463, #309 ) ;
#487 = LINE ( 'NONE', #119, #375 ) ;
#488 = EDGE_CURVE ( 'NONE', #60, #427, #132, .T. ) ;
#489 = APPROVAL_DATE_TIME ( #337, #99 ) ;
#490 = CARTESIAN_POINT ( 'NONE',  ( 0.000000000000000000, 32.00000000000000000, 0.000000000000000000 ) ) ;
#491 = VECTOR ( 'NONE', #176, 1000.000000000000000 ) ;
#492 = VERTEX_POINT ( 'NONE', #447 ) ;
#493 = ADVANCED_FACE ( 'NONE', ( #187 ), #374, .F. ) ;
#494 = DIRECTION ( 'NONE',  ( -1.000000000000000000, -1.156482317317871478E-16, 0.000000000000000000 ) ) ;
#495 = CC_DESIGN_PERSON_AND_ORGANIZATION_ASSIGNMENT ( #486, #244, ( #262 ) ) ;
#496 = APPROVAL_ROLE ( '' ) ;
#497 = EDGE_LOOP ( 'NONE', ( #254, #376, #222, #347 ) ) ;
#498 = DIRECTION ( 'NONE',  ( 1.000000000000000000, 1.156482317317871478E-16, 0.000000000000000000 ) ) ;
#499 = ADVANCED_FACE ( 'NONE', ( #412 ), #5, .F. ) ;
#500 = CARTESIAN_POINT ( 'NONE',  ( 0.000000000000000000, 32.00000000000000000, 33.00000000000000000 ) ) ;
#501 = ORIENTED_EDGE ( 'NONE', *, *, #260, .F. ) ;
#502 = PLANE ( 'NONE',  #133 ) ;
#503 = CARTESIAN_POINT ( 'NONE',  ( 6.000000000000003553, 2.000000000000000000, 33.00000000000000000 ) ) ;
#504 = ORIENTED_EDGE ( 'NONE', *, *, #20, .F. ) ;
#505 = CIRCLE ( 'NONE', #455, 6.000000000000001776 ) ;
#506 = EDGE_LOOP ( 'NONE', ( #79, #270, #475, #399 ) ) ;
#507 = APPROVAL ( #185, 'UNSPECIFIED' ) ;
#508 = DESIGN_CONTEXT ( 'detailed design', #247, 'design' ) ;
#509 = DIRECTION ( 'NONE',  ( 1.000000000000000000, 1.156482317317871478E-16, 0.000000000000000000 ) ) ;
#510 = CARTESIAN_POINT ( 'NONE',  ( 9.999999999999998224, 1.999999999999998668, 30.00000000000000355 ) ) ;
#511 = DIRECTION ( 'NONE',  ( -1.156482317317871478E-16, 1.000000000000000000, -0.000000000000000000 ) ) ;
#512 = EDGE_CURVE ( 'NONE', #198, #385, #340, .T. ) ;
#513 = ORIENTED_EDGE ( 'NONE', *, *, #384, .T. ) ;
#514 = VERTEX_POINT ( 'NONE', #14 ) ;
#515 = DIRECTION ( 'NONE',  ( -3.097720492815729631E-16, -1.000000000000000000, 0.000000000000000000 ) ) ;
#516 = CC_DESIGN_DATE_AND_TIME_ASSIGNMENT ( #80, #403, ( #262 ) ) ;
#517 = AXIS2_PLACEMENT_3D ( 'NONE', #522, #400, #286 ) ;
#518 = FACE_BOUND ( 'NONE', #65, .T. ) ;
#519 = CIRCLE ( 'NONE', #58, 2.000000000000000000 ) ;
#520 = ORIENTED_EDGE ( 'NONE', *, *, #224, .T. ) ;
#521 = CARTESIAN_POINT ( 'NONE',  ( 11.99999999999999822, -0.001000000000005522730, 30.00000000000000355 ) ) ;
#522 = CARTESIAN_POINT ( 'NONE',  ( 9.999999999999998224, -0.001000000000004903217, 30.00000000000000355 ) ) ;
#523 = CARTESIAN_POINT ( 'NONE',  ( 9.999999999999998224, 1.999999999999998668, 3.000000000000000000 ) ) ;
#524 = LINE ( 'NONE', #490, #491 ) ;
#525 =( LENGTH_UNIT ( ) NAMED_UNIT ( * ) SI_UNIT ( .MILLI., .METRE. ) );
ENDSEC;
END-ISO-10303-21;
