ISO-10303-21;
HEADER;
FILE_DESCRIPTION (( 'STEP AP203' ),
    '1' );
FILE_NAME ('Roll2_Default_sldprt.STEP',
    '2026-08-23T21:10:19',
    ( '' ),
    ( '' ),
    'SwSTEP 2.0',
    'SolidWorks 2020',
    '' );
FILE_SCHEMA (( 'CONFIG_CONTROL_DESIGN' ));
ENDSEC;

DATA;
#1 = AXIS2_PLACEMENT_3D ( 'NONE', #128, #378, #282 ) ;
#2 = LINE ( 'NONE', #363, #320 ) ;
#3 = AXIS2_PLACEMENT_3D ( 'NONE', #231, #233, #381 ) ;
#4 = CARTESIAN_POINT ( 'NONE',  ( 0.000000000000000000, 0.000000000000000000, 29.00000000000027001 ) ) ;
#5 = CARTESIAN_POINT ( 'NONE',  ( -10.00000000000000000, 2.059984127755729558E-17, -1.479114197289426387E-30 ) ) ;
#6 = VERTEX_POINT ( 'NONE', #376 ) ;
#7 = ORIENTED_EDGE ( 'NONE', *, *, #273, .F. ) ;
#8 = EDGE_CURVE ( 'NONE', #25, #32, #328, .T. ) ;
#9 = EDGE_LOOP ( 'NONE', ( #330, #324 ) ) ;
#10 = VECTOR ( 'NONE', #331, 1000.000000000000000 ) ;
#11 = ORIENTED_EDGE ( 'NONE', *, *, #177, .F. ) ;
#12 = DIRECTION ( 'NONE',  ( -1.000000000000000000, 2.059984127722458425E-18, -9.860761315262647568E-32 ) ) ;
#13 = ORIENTED_EDGE ( 'NONE', *, *, #400, .F. ) ;
#14 = EDGE_LOOP ( 'NONE', ( #296, #71, #396, #301 ) ) ;
#15 = AXIS2_PLACEMENT_3D ( 'NONE', #265, #209, #336 ) ;
#16 = FACE_OUTER_BOUND ( 'NONE', #361, .T. ) ;
#17 = ADVANCED_FACE ( 'NONE', ( #379 ), #308, .T. ) ;
#18 = DIRECTION ( 'NONE',  ( 1.000000000000000000, -2.059984127722458425E-18, 0.000000000000000000 ) ) ;
#19 = AXIS2_PLACEMENT_3D ( 'NONE', #353, #193, #196 ) ;
#20 = CIRCLE ( 'NONE', #180, 5.000000000000000000 ) ;
#21 = FACE_OUTER_BOUND ( 'NONE', #40, .T. ) ;
#22 = PERSON_AND_ORGANIZATION ( #222, #278 ) ;
#23 = EDGE_CURVE ( 'NONE', #6, #212, #248, .T. ) ;
#24 = DIRECTION ( 'NONE',  ( -1.000000000000000000, 2.059984127722458425E-18, 0.000000000000000000 ) ) ;
#25 = VERTEX_POINT ( 'NONE', #226 ) ;
#26 = CARTESIAN_POINT ( 'NONE',  ( 0.000000000000000000, 0.000000000000000000, 29.00000000000027001 ) ) ;
#27 = CALENDAR_DATE ( 2026, 24, 8 ) ;
#28 = CARTESIAN_POINT ( 'NONE',  ( 10.00000000000000000, 1.204046957870471630E-15, 1.479114197289406944E-30 ) ) ;
#29 = EDGE_CURVE ( 'NONE', #410, #148, #184, .T. ) ;
#30 = PERSON_AND_ORGANIZATION_ROLE ( 'design_supplier' ) ;
#31 = ORIENTED_EDGE ( 'NONE', *, *, #93, .F. ) ;
#32 = VERTEX_POINT ( 'NONE', #51 ) ;
#33 = DATE_AND_TIME ( #314, #168 ) ;
#34 = FACE_OUTER_BOUND ( 'NONE', #14, .T. ) ;
#35 = CC_DESIGN_DATE_AND_TIME_ASSIGNMENT ( #258, #160, ( #124 ) ) ;
#36 = ORIENTED_EDGE ( 'NONE', *, *, #273, .T. ) ;
#37 = CARTESIAN_POINT ( 'NONE',  ( 0.000000000000000000, -1.054711873393898713E-12, 10.00000000000009948 ) ) ;
#38 = CARTESIAN_POINT ( 'NONE',  ( -10.00000000000000000, 2.059984127755729558E-17, 25.00000000000026645 ) ) ;
#39 = AXIS2_PLACEMENT_3D ( 'NONE', #89, #188, #18 ) ;
#40 = EDGE_LOOP ( 'NONE', ( #383, #389, #236, #67 ) ) ;
#41 = CARTESIAN_POINT ( 'NONE',  ( -10.00000000000000000, 2.059984127722458425E-17, 41.00000000000027001 ) ) ;
#42 = CIRCLE ( 'NONE', #223, 5.000000000000000000 ) ;
#43 = CIRCLE ( 'NONE', #173, 5.000000000000000000 ) ;
#44 = ORIENTED_EDGE ( 'NONE', *, *, #205, .T. ) ;
#45 = CC_DESIGN_PERSON_AND_ORGANIZATION_ASSIGNMENT ( #411, #102, ( #230 ) ) ;
#46 = ORIENTED_EDGE ( 'NONE', *, *, #195, .F. ) ;
#47 = PRODUCT_DEFINITION_SHAPE ( 'NONE', 'NONE',  #230 ) ;
#48 = CIRCLE ( 'NONE', #15, 3.500000000000000000 ) ;
#49 = EDGE_CURVE ( 'NONE', #94, #237, #388, .T. ) ;
#50 = CARTESIAN_POINT ( 'NONE',  ( 0.000000000000000000, 0.000000000000000000, 41.00000000000027001 ) ) ;
#51 = CARTESIAN_POINT ( 'NONE',  ( -3.500000000000000000, 4.358363241485357531E-16, 41.00000000000027001 ) ) ;
#52 = DIRECTION ( 'NONE',  ( -1.479114197289384655E-31, -1.167397620965452235E-29, 1.000000000000000000 ) ) ;
#53 = CALENDAR_DATE ( 2026, 24, 8 ) ;
#54 = AXIS2_PLACEMENT_3D ( 'NONE', #232, #115, #238 ) ;
#55 = DIRECTION ( 'NONE',  ( 1.479114197289384655E-31, 1.167397620965452235E-29, -1.000000000000000000 ) ) ;
#56 = FACE_BOUND ( 'NONE', #109, .T. ) ;
#57 = LINE ( 'NONE', #255, #74 ) ;
#58 = DIRECTION ( 'NONE',  ( -9.860761315262649757E-32, -1.167397620965452235E-29, 1.000000000000000000 ) ) ;
#59 = CLOSED_SHELL ( 'NONE', ( #241, #17, #364, #155, #189, #108, #370, #395, #413, #125, #186, #392, #386 ) ) ;
#60 = DIRECTION ( 'NONE',  ( 1.000000000000000000, -2.059984127722458425E-18, 0.000000000000000000 ) ) ;
#61 = VERTEX_POINT ( 'NONE', #136 ) ;
#62 = COORDINATED_UNIVERSAL_TIME_OFFSET ( 5, 30, .AHEAD. ) ;
#63 = ORIENTED_EDGE ( 'NONE', *, *, #183, .F. ) ;
#64 = UNCERTAINTY_MEASURE_WITH_UNIT (LENGTH_MEASURE( 1.000000000000000082E-05 ), #215, 'distance_accuracy_value', 'NONE');
#65 = ORIENTED_EDGE ( 'NONE', *, *, #337, .T. ) ;
#66 = CC_DESIGN_APPROVAL ( #86, ( #243 ) ) ;
#67 = ORIENTED_EDGE ( 'NONE', *, *, #153, .T. ) ;
#68 = ORIENTED_EDGE ( 'NONE', *, *, #263, .F. ) ;
#69 = DIRECTION ( 'NONE',  ( 1.000000000000000000, -2.059984127722458425E-18, 0.000000000000000000 ) ) ;
#70 = DIRECTION ( 'NONE',  ( -1.479114197289384655E-31, -1.167397620965452235E-29, 1.000000000000000000 ) ) ;
#71 = ORIENTED_EDGE ( 'NONE', *, *, #23, .F. ) ;
#72 = CARTESIAN_POINT ( 'NONE',  ( -5.000000000000000000, 6.226233202122940480E-16, 25.00000000000026645 ) ) ;
#73 =( GEOMETRIC_REPRESENTATION_CONTEXT ( 3 ) GLOBAL_UNCERTAINTY_ASSIGNED_CONTEXT ( ( #64 ) ) GLOBAL_UNIT_ASSIGNED_CONTEXT ( ( #215, #87, #340 ) ) REPRESENTATION_CONTEXT ( 'NONE', 'WORKASPACE' ) );
#74 = VECTOR ( 'NONE', #318, 1000.000000000000000 ) ;
#75 = ORIENTED_EDGE ( 'NONE', *, *, #49, .T. ) ;
#76 = VERTEX_POINT ( 'NONE', #127 ) ;
#77 = DIRECTION ( 'NONE',  ( 1.479114197289384655E-31, 1.167397620965452235E-29, -1.000000000000000000 ) ) ;
#78 = EDGE_LOOP ( 'NONE', ( #302, #65, #44, #206 ) ) ;
#79 = ORIENTED_EDGE ( 'NONE', *, *, #195, .T. ) ;
#80 = DIRECTION ( 'NONE',  ( -1.000000000000000000, 2.059984127722458425E-18, -9.860761315262647568E-32 ) ) ;
#81 = EDGE_CURVE ( 'NONE', #212, #32, #277, .T. ) ;
#82 = CC_DESIGN_SECURITY_CLASSIFICATION ( #124, ( #243 ) ) ;
#83 = CC_DESIGN_APPROVAL ( #275, ( #124 ) ) ;
#84 = CIRCLE ( 'NONE', #367, 10.00000000000000000 ) ;
#85 = ORIENTED_EDGE ( 'NONE', *, *, #129, .F. ) ;
#86 = APPROVAL ( #167, 'UNSPECIFIED' ) ;
#87 =( NAMED_UNIT ( * ) PLANE_ANGLE_UNIT ( ) SI_UNIT ( $, .RADIAN. ) );
#88 = APPROVAL_PERSON_ORGANIZATION ( #22, #214, #98 ) ;
#89 = CARTESIAN_POINT ( 'NONE',  ( 0.000000000000000000, 0.000000000000000000, 25.00000000000026645 ) ) ;
#90 = DIRECTION ( 'NONE',  ( 1.000000000000000000, -2.059984127722458425E-18, 9.860761315262647568E-32 ) ) ;
#91 = CALENDAR_DATE ( 2026, 24, 8 ) ;
#92 = DIRECTION ( 'NONE',  ( -1.479114197289384655E-31, -1.167397620965452235E-29, 1.000000000000000000 ) ) ;
#93 = EDGE_CURVE ( 'NONE', #94, #61, #247, .T. ) ;
#94 = VERTEX_POINT ( 'NONE', #306 ) ;
#95 = FACE_OUTER_BOUND ( 'NONE', #78, .T. ) ;
#96 = CARTESIAN_POINT ( 'NONE',  ( 0.000000000000000000, 0.000000000000000000, 0.000000000000000000 ) ) ;
#97 = EDGE_CURVE ( 'NONE', #237, #297, #187, .T. ) ;
#98 = APPROVAL_ROLE ( '' ) ;
#99 = PLANE ( 'NONE',  #192 ) ;
#100 = DIRECTION ( 'NONE',  ( -1.479114197289384655E-31, -1.167397620965452235E-29, 1.000000000000000000 ) ) ;
#101 = DIRECTION ( 'NONE',  ( 1.479114197289384655E-31, 1.167397620965452235E-29, -1.000000000000000000 ) ) ;
#102 = PERSON_AND_ORGANIZATION_ROLE ( 'creator' ) ;
#103 = FACE_OUTER_BOUND ( 'NONE', #323, .T. ) ;
#104 = APPROVAL_DATE_TIME ( #257, #214 ) ;
#105 = CYLINDRICAL_SURFACE ( 'NONE', #158, 5.000000000000000000 ) ;
#106 = CIRCLE ( 'NONE', #1, 10.00000000000000000 ) ;
#107 = DATE_TIME_ROLE ( 'creation_date' ) ;
#108 = ADVANCED_FACE ( 'NONE', ( #56, #16 ), #404, .F. ) ;
#109 = EDGE_LOOP ( 'NONE', ( #112, #68 ) ) ;
#110 = DIRECTION ( 'NONE',  ( -1.000000000000000000, 2.059984127722458425E-18, -9.860761315262647568E-32 ) ) ;
#111 = CC_DESIGN_PERSON_AND_ORGANIZATION_ASSIGNMENT ( #141, #317, ( #243 ) ) ;
#112 = ORIENTED_EDGE ( 'NONE', *, *, #270, .F. ) ;
#113 = AXIS2_PLACEMENT_3D ( 'NONE', #122, #92, #397 ) ;
#114 = AXIS2_PLACEMENT_3D ( 'NONE', #345, #159, #343 ) ;
#115 = DIRECTION ( 'NONE',  ( -1.479114197289384655E-31, -1.167397620965452235E-29, 1.000000000000000000 ) ) ;
#116 = PRODUCT_RELATED_PRODUCT_CATEGORY ( 'detail', '', ( #390 ) ) ;
#117 = ADVANCED_BREP_SHAPE_REPRESENTATION ( 'Roll2_Default_sldprt', ( #150, #332 ), #73 ) ;
#118 = ORIENTED_EDGE ( 'NONE', *, *, #81, .T. ) ;
#119 = ORIENTED_EDGE ( 'NONE', *, *, #166, .T. ) ;
#120 = LOCAL_TIME ( 2, 40, 19.00000000000000000, #62 ) ;
#121 = ORIENTED_EDGE ( 'NONE', *, *, #304, .F. ) ;
#122 = CARTESIAN_POINT ( 'NONE',  ( 0.000000000000000000, 0.000000000000000000, 25.00000000000026645 ) ) ;
#123 = CC_DESIGN_PERSON_AND_ORGANIZATION_ASSIGNMENT ( #311, #220, ( #390 ) ) ;
#124 = SECURITY_CLASSIFICATION ( '', '', #291 ) ;
#125 = ADVANCED_FACE ( 'NONE', ( #401 ), #344, .T. ) ;
#126 = DIRECTION ( 'NONE',  ( -1.479114197289384655E-31, -1.167397620965452235E-29, 1.000000000000000000 ) ) ;
#127 = CARTESIAN_POINT ( 'NONE',  ( -5.000000000000000000, 6.226233202122006665E-16, 41.00000000000027001 ) ) ;
#128 = CARTESIAN_POINT ( 'NONE',  ( 0.000000000000000000, 0.000000000000000000, 0.000000000000000000 ) ) ;
#129 = EDGE_CURVE ( 'NONE', #237, #94, #402, .T. ) ;
#130 = COORDINATED_UNIVERSAL_TIME_OFFSET ( 5, 30, .AHEAD. ) ;
#131 = VECTOR ( 'NONE', #372, 1000.000000000000000 ) ;
#132 = CARTESIAN_POINT ( 'NONE',  ( 0.000000000000000000, 0.000000000000000000, 25.00000000000026645 ) ) ;
#133 = CARTESIAN_POINT ( 'NONE',  ( 0.000000000000000000, 0.000000000000000000, 25.00000000000026645 ) ) ;
#134 = CALENDAR_DATE ( 2026, 24, 8 ) ;
#135 = CARTESIAN_POINT ( 'NONE',  ( -5.000000000000000000, 6.226233202122006665E-16, 25.00000000000026645 ) ) ;
#136 = CARTESIAN_POINT ( 'NONE',  ( -5.000000000000000000, 1.029992063861229212E-17, -4.930380657631323784E-31 ) ) ;
#137 = CC_DESIGN_DATE_AND_TIME_ASSIGNMENT ( #176, #107, ( #230 ) ) ;
#138 = CARTESIAN_POINT ( 'NONE',  ( 0.000000000000000000, 0.000000000000000000, 25.00000000000026645 ) ) ;
#139 = ORIENTED_EDGE ( 'NONE', *, *, #97, .T. ) ;
#140 = DIRECTION ( 'NONE',  ( 0.000000000000000000, 0.000000000000000000, 1.000000000000000000 ) ) ;
#141 = PERSON_AND_ORGANIZATION ( #222, #278 ) ;
#142 = PLANE ( 'NONE',  #229 ) ;
#143 = COORDINATED_UNIVERSAL_TIME_OFFSET ( 5, 30, .AHEAD. ) ;
#144 = DIRECTION ( 'NONE',  ( -1.479114197289384655E-31, -1.167397620965452235E-29, 1.000000000000000000 ) ) ;
#145 = DIRECTION ( 'NONE',  ( 1.479114197289384655E-31, 1.167397620965452235E-29, -1.000000000000000000 ) ) ;
#146 = EDGE_LOOP ( 'NONE', ( #354, #63 ) ) ;
#147 = ORIENTED_EDGE ( 'NONE', *, *, #263, .T. ) ;
#148 = VERTEX_POINT ( 'NONE', #190 ) ;
#149 = CIRCLE ( 'NONE', #264, 5.000000000000000000 ) ;
#150 = MANIFOLD_SOLID_BREP ( 'Cut-Extrude3', #59 ) ;
#151 = DIRECTION ( 'NONE',  ( 1.479114197289384655E-31, 1.167397620965452235E-29, -1.000000000000000000 ) ) ;
#152 = CARTESIAN_POINT ( 'NONE',  ( 5.000000000000000000, -1.054109849914963726E-12, -1.170965406187439399E-28 ) ) ;
#153 = EDGE_CURVE ( 'NONE', #272, #182, #106, .T. ) ;
#154 = CARTESIAN_POINT ( 'NONE',  ( -5.000000000000000000, -1.054701573473260101E-12, 10.00000000000009948 ) ) ;
#155 = ADVANCED_FACE ( 'NONE', ( #95 ), #217, .T. ) ;
#156 = DIRECTION ( 'NONE',  ( 1.000000000000000000, -2.059984127722458425E-18, 0.000000000000000000 ) ) ;
#157 = DIRECTION ( 'NONE',  ( -1.479114197289384655E-31, -1.167397620965452235E-29, 1.000000000000000000 ) ) ;
#158 = AXIS2_PLACEMENT_3D ( 'NONE', #329, #170, #350 ) ;
#159 = DIRECTION ( 'NONE',  ( 1.479114197289384655E-31, 1.167397620965452235E-29, -1.000000000000000000 ) ) ;
#160 = DATE_TIME_ROLE ( 'classification_date' ) ;
#161 = DIRECTION ( 'NONE',  ( 1.000000000000000000, -2.059984127722458425E-18, 0.000000000000000000 ) ) ;
#162 = CARTESIAN_POINT ( 'NONE',  ( 0.000000000000000000, 0.000000000000000000, 41.00000000000027001 ) ) ;
#163 = AXIS2_PLACEMENT_3D ( 'NONE', #224, #349, #283 ) ;
#164 = EDGE_LOOP ( 'NONE', ( #79, #342, #11, #357 ) ) ;
#165 = ORIENTED_EDGE ( 'NONE', *, *, #270, .T. ) ;
#166 = EDGE_CURVE ( 'NONE', #148, #178, #57, .T. ) ;
#167 = APPROVAL_STATUS ( 'not_yet_approved' ) ;
#168 = LOCAL_TIME ( 2, 40, 19.00000000000000000, #143 ) ;
#169 = DIRECTION ( 'NONE',  ( -9.860761315262649757E-32, -1.167397620965452235E-29, 1.000000000000000000 ) ) ;
#170 = DIRECTION ( 'NONE',  ( 1.479114197289384655E-31, 1.167397620965452235E-29, -1.000000000000000000 ) ) ;
#171 = FACE_BOUND ( 'NONE', #146, .T. ) ;
#172 = AXIS2_PLACEMENT_3D ( 'NONE', #133, #251, #242 ) ;
#173 = AXIS2_PLACEMENT_3D ( 'NONE', #138, #245, #161 ) ;
#174 = PERSON_AND_ORGANIZATION_ROLE ( 'classification_officer' ) ;
#175 = CYLINDRICAL_SURFACE ( 'NONE', #3, 5.000000000000000000 ) ;
#176 = DATE_AND_TIME ( #91, #120 ) ;
#177 = EDGE_CURVE ( 'NONE', #178, #76, #366, .T. ) ;
#178 = VERTEX_POINT ( 'NONE', #280 ) ;
#179 = DIRECTION ( 'NONE',  ( 1.479114197289384655E-31, 1.167397620965452235E-29, -1.000000000000000000 ) ) ;
#180 = AXIS2_PLACEMENT_3D ( 'NONE', #333, #77, #12 ) ;
#181 = AXIS2_PLACEMENT_3D ( 'NONE', #260, #405, #24 ) ;
#182 = VERTEX_POINT ( 'NONE', #28 ) ;
#183 = EDGE_CURVE ( 'NONE', #32, #25, #211, .T. ) ;
#184 = CIRCLE ( 'NONE', #172, 5.000000000000000000 ) ;
#185 = ORIENTED_EDGE ( 'NONE', *, *, #49, .F. ) ;
#186 = ADVANCED_FACE ( 'NONE', ( #171, #408 ), #321, .T. ) ;
#187 = LINE ( 'NONE', #375, #131 ) ;
#188 = DIRECTION ( 'NONE',  ( -1.479114197289384655E-31, -1.167397620965452235E-29, 1.000000000000000000 ) ) ;
#189 = ADVANCED_FACE ( 'NONE', ( #21 ), #286, .T. ) ;
#190 = CARTESIAN_POINT ( 'NONE',  ( 5.000000000000000000, -1.029992063861229212E-17, 25.00000000000026645 ) ) ;
#191 = DIRECTION ( 'NONE',  ( 1.000000000000000000, -2.059984127722458425E-18, 0.000000000000000000 ) ) ;
#192 = AXIS2_PLACEMENT_3D ( 'NONE', #225, #58, #197 ) ;
#193 = DIRECTION ( 'NONE',  ( -1.479114197289384655E-31, -1.167397620965452235E-29, 1.000000000000000000 ) ) ;
#194 = APPLICATION_PROTOCOL_DEFINITION ( 'international standard', 'config_control_design', 1994, #307 ) ;
#195 = EDGE_CURVE ( 'NONE', #148, #410, #43, .T. ) ;
#196 = DIRECTION ( 'NONE',  ( 1.000000000000000000, -2.059984127722458425E-18, 0.000000000000000000 ) ) ;
#197 = DIRECTION ( 'NONE',  ( 1.000000000000000000, -2.059984127722458425E-18, 9.860761315262647568E-32 ) ) ;
#198 = EDGE_LOOP ( 'NONE', ( #7, #118, #201, #268 ) ) ;
#199 = AXIS2_PLACEMENT_3D ( 'NONE', #415, #144, #69 ) ;
#200 = DIRECTION ( 'NONE',  ( -1.000000000000000000, 2.059984127708258928E-18, 0.000000000000000000 ) ) ;
#201 = ORIENTED_EDGE ( 'NONE', *, *, #183, .T. ) ;
#202 = EDGE_CURVE ( 'NONE', #294, #235, #84, .T. ) ;
#203 = FACE_OUTER_BOUND ( 'NONE', #240, .T. ) ;
#204 = EDGE_LOOP ( 'NONE', ( #290, #208 ) ) ;
#205 = EDGE_CURVE ( 'NONE', #182, #272, #373, .T. ) ;
#206 = ORIENTED_EDGE ( 'NONE', *, *, #281, .F. ) ;
#207 = AXIS2_PLACEMENT_3D ( 'NONE', #309, #100, #60 ) ;
#208 = ORIENTED_EDGE ( 'NONE', *, *, #304, .T. ) ;
#209 = DIRECTION ( 'NONE',  ( -1.479114197289384655E-31, -1.167397620965452235E-29, 1.000000000000000000 ) ) ;
#210 = EDGE_LOOP ( 'NONE', ( #46, #362 ) ) ;
#211 = CIRCLE ( 'NONE', #19, 3.500000000000000000 ) ;
#212 = VERTEX_POINT ( 'NONE', #359 ) ;
#213 = APPROVAL_PERSON_ORGANIZATION ( #261, #275, #279 ) ;
#214 = APPROVAL ( #288, 'UNSPECIFIED' ) ;
#215 =( LENGTH_UNIT ( ) NAMED_UNIT ( * ) SI_UNIT ( .MILLI., .METRE. ) );
#216 = AXIS2_PLACEMENT_3D ( 'NONE', #316, #169, #374 ) ;
#217 = CYLINDRICAL_SURFACE ( 'NONE', #114, 10.00000000000000000 ) ;
#218 = DIRECTION ( 'NONE',  ( 1.000000000000000000, -2.059984127722458425E-18, 0.000000000000000000 ) ) ;
#219 = CARTESIAN_POINT ( 'NONE',  ( 0.000000000000000000, -1.054711873393898713E-12, 10.00000000000009948 ) ) ;
#220 = PERSON_AND_ORGANIZATION_ROLE ( 'design_owner' ) ;
#221 = PERSON_AND_ORGANIZATION ( #222, #278 ) ;
#222 = PERSON ( 'UNSPECIFIED', 'UNSPECIFIED', 'UNSPECIFIED', ('UNSPECIFIED'), ('UNSPECIFIED'), ('UNSPECIFIED') ) ;
#223 = AXIS2_PLACEMENT_3D ( 'NONE', #50, #369, #156 ) ;
#224 = CARTESIAN_POINT ( 'NONE',  ( 0.000000000000000000, -1.054711873393898713E-12, 10.00000000000009948 ) ) ;
#225 = CARTESIAN_POINT ( 'NONE',  ( 0.000000000000000000, 0.000000000000000000, 25.00000000000026645 ) ) ;
#226 = CARTESIAN_POINT ( 'NONE',  ( 3.500000000000000000, -7.209944447028604486E-18, 41.00000000000027001 ) ) ;
#227 = COORDINATED_UNIVERSAL_TIME_OFFSET ( 5, 30, .AHEAD. ) ;
#228 = ORIENTED_EDGE ( 'NONE', *, *, #23, .T. ) ;
#229 = AXIS2_PLACEMENT_3D ( 'NONE', #4, #356, #325 ) ;
#230 = PRODUCT_DEFINITION ( 'UNKNOWN', '', #243, #285 ) ;
#231 = CARTESIAN_POINT ( 'NONE',  ( 0.000000000000000000, -1.054711873393898713E-12, 10.00000000000009948 ) ) ;
#232 = CARTESIAN_POINT ( 'NONE',  ( 0.000000000000000000, 0.000000000000000000, 29.00000000000027001 ) ) ;
#233 = DIRECTION ( 'NONE',  ( 1.479114197289384655E-31, 1.167397620965452235E-29, -1.000000000000000000 ) ) ;
#234 = CYLINDRICAL_SURFACE ( 'NONE', #54, 3.500000000000000000 ) ;
#235 = VERTEX_POINT ( 'NONE', #38 ) ;
#236 = ORIENTED_EDGE ( 'NONE', *, *, #281, .T. ) ;
#237 = VERTEX_POINT ( 'NONE', #295 ) ;
#238 = DIRECTION ( 'NONE',  ( 1.000000000000000000, -2.059984127722458425E-18, 0.000000000000000000 ) ) ;
#239 = ORIENTED_EDGE ( 'NONE', *, *, #205, .F. ) ;
#240 = EDGE_LOOP ( 'NONE', ( #75, #287 ) ) ;
#241 = ADVANCED_FACE ( 'NONE', ( #293 ), #234, .F. ) ;
#242 = DIRECTION ( 'NONE',  ( 1.000000000000000000, -2.059984127722458425E-18, 0.000000000000000000 ) ) ;
#243 = PRODUCT_DEFINITION_FORMATION_WITH_SPECIFIED_SOURCE ( 'ANY', '', #390, .NOT_KNOWN. ) ;
#244 = DIRECTION ( 'NONE',  ( 1.000000000000000000, -2.059984127722458425E-18, 9.860761315262647568E-32 ) ) ;
#245 = DIRECTION ( 'NONE',  ( -1.479114197289384655E-31, -1.167397620965452235E-29, 1.000000000000000000 ) ) ;
#246 = EDGE_CURVE ( 'NONE', #6, #25, #2, .T. ) ;
#247 = LINE ( 'NONE', #154, #368 ) ;
#248 = CIRCLE ( 'NONE', #303, 3.500000000000000000 ) ;
#249 = APPROVAL_ROLE ( '' ) ;
#250 = DIRECTION ( 'NONE',  ( -1.479114197289384655E-31, -1.167397620965452235E-29, 1.000000000000000000 ) ) ;
#251 = DIRECTION ( 'NONE',  ( -1.479114197289384655E-31, -1.167397620965452235E-29, 1.000000000000000000 ) ) ;
#252 = MECHANICAL_CONTEXT ( 'NONE', #352, 'mechanical' ) ;
#253 = APPROVAL_DATE_TIME ( #384, #275 ) ;
#254 = FACE_BOUND ( 'NONE', #210, .T. ) ;
#255 = CARTESIAN_POINT ( 'NONE',  ( 5.000000000000000000, -1.029992063861229212E-17, 25.00000000000026645 ) ) ;
#256 = CARTESIAN_POINT ( 'NONE',  ( -3.500000000000000000, 4.358363241486058632E-16, 29.00000000000027001 ) ) ;
#257 = DATE_AND_TIME ( #27, #305 ) ;
#258 = DATE_AND_TIME ( #53, #385 ) ;
#259 = FACE_OUTER_BOUND ( 'NONE', #298, .T. ) ;
#260 = CARTESIAN_POINT ( 'NONE',  ( 0.000000000000000000, 0.000000000000000000, 41.00000000000027001 ) ) ;
#261 = PERSON_AND_ORGANIZATION ( #222, #278 ) ;
#262 = VECTOR ( 'NONE', #346, 1000.000000000000000 ) ;
#263 = EDGE_CURVE ( 'NONE', #297, #61, #20, .T. ) ;
#264 = AXIS2_PLACEMENT_3D ( 'NONE', #391, #179, #80 ) ;
#265 = CARTESIAN_POINT ( 'NONE',  ( 0.000000000000000000, 0.000000000000000000, 29.00000000000027001 ) ) ;
#266 = PLANE ( 'NONE',  #312 ) ;
#267 = CC_DESIGN_PERSON_AND_ORGANIZATION_ASSIGNMENT ( #414, #174, ( #124 ) ) ;
#268 = ORIENTED_EDGE ( 'NONE', *, *, #246, .F. ) ;
#269 = LINE ( 'NONE', #41, #313 ) ;
#270 = EDGE_CURVE ( 'NONE', #61, #297, #149, .T. ) ;
#271 = CARTESIAN_POINT ( 'NONE',  ( 10.00000000000000000, 1.204046957870471630E-15, 25.00000000000026645 ) ) ;
#272 = VERTEX_POINT ( 'NONE', #5 ) ;
#273 = EDGE_CURVE ( 'NONE', #212, #6, #48, .T. ) ;
#274 = LINE ( 'NONE', #399, #398 ) ;
#275 = APPROVAL ( #380, 'UNSPECIFIED' ) ;
#276 = DIRECTION ( 'NONE',  ( -9.860761315262649757E-32, -1.167397620965452235E-29, 1.000000000000000000 ) ) ;
#277 = LINE ( 'NONE', #256, #262 ) ;
#278 = ORGANIZATION ( 'UNSPECIFIED', 'UNSPECIFIED', '' ) ;
#279 = APPROVAL_ROLE ( '' ) ;
#280 = CARTESIAN_POINT ( 'NONE',  ( 5.000000000000000000, -1.029992063861229212E-17, 41.00000000000027001 ) ) ;
#281 = EDGE_CURVE ( 'NONE', #235, #272, #269, .T. ) ;
#282 = DIRECTION ( 'NONE',  ( 1.000000000000000000, -2.059984127722458425E-18, 9.860761315262647568E-32 ) ) ;
#283 = DIRECTION ( 'NONE',  ( -1.000000000000000000, 2.059984127708258928E-18, 0.000000000000000000 ) ) ;
#284 = SHAPE_DEFINITION_REPRESENTATION ( #47, #117 ) ;
#285 = DESIGN_CONTEXT ( 'detailed design', #307, 'design' ) ;
#286 = CYLINDRICAL_SURFACE ( 'NONE', #181, 10.00000000000000000 ) ;
#287 = ORIENTED_EDGE ( 'NONE', *, *, #129, .T. ) ;
#288 = APPROVAL_STATUS ( 'not_yet_approved' ) ;
#289 = CC_DESIGN_PERSON_AND_ORGANIZATION_ASSIGNMENT ( #407, #30, ( #243 ) ) ;
#290 = ORIENTED_EDGE ( 'NONE', *, *, #177, .T. ) ;
#291 = SECURITY_CLASSIFICATION_LEVEL ( 'unclassified' ) ;
#292 = CYLINDRICAL_SURFACE ( 'NONE', #199, 3.500000000000000000 ) ;
#293 = FACE_OUTER_BOUND ( 'NONE', #198, .T. ) ;
#294 = VERTEX_POINT ( 'NONE', #271 ) ;
#295 = CARTESIAN_POINT ( 'NONE',  ( 5.000000000000000000, -1.054109849914963726E-12, 10.00000000000009948 ) ) ;
#296 = ORIENTED_EDGE ( 'NONE', *, *, #81, .F. ) ;
#297 = VERTEX_POINT ( 'NONE', #152 ) ;
#298 = EDGE_LOOP ( 'NONE', ( #85, #139, #147, #31 ) ) ;
#299 = AXIS2_PLACEMENT_3D ( 'NONE', #310, #52, #191 ) ;
#300 = AXIS2_PLACEMENT_3D ( 'NONE', #96, #276, #244 ) ;
#301 = ORIENTED_EDGE ( 'NONE', *, *, #8, .T. ) ;
#302 = ORIENTED_EDGE ( 'NONE', *, *, #202, .F. ) ;
#303 = AXIS2_PLACEMENT_3D ( 'NONE', #26, #409, #218 ) ;
#304 = EDGE_CURVE ( 'NONE', #76, #178, #42, .T. ) ;
#305 = LOCAL_TIME ( 2, 40, 19.00000000000000000, #227 ) ;
#306 = CARTESIAN_POINT ( 'NONE',  ( -5.000000000000000000, -1.054701573473260101E-12, 10.00000000000009948 ) ) ;
#307 = APPLICATION_CONTEXT ( 'configuration controlled 3d designs of mechanical parts and assemblies' ) ;
#308 = CYLINDRICAL_SURFACE ( 'NONE', #39, 5.000000000000000000 ) ;
#309 = CARTESIAN_POINT ( 'NONE',  ( 0.000000000000000000, 0.000000000000000000, 41.00000000000027001 ) ) ;
#310 = CARTESIAN_POINT ( 'NONE',  ( 0.000000000000000000, 0.000000000000000000, 25.00000000000026645 ) ) ;
#311 = PERSON_AND_ORGANIZATION ( #222, #278 ) ;
#312 = AXIS2_PLACEMENT_3D ( 'NONE', #37, #387, #110 ) ;
#313 = VECTOR ( 'NONE', #151, 1000.000000000000000 ) ;
#314 = CALENDAR_DATE ( 2026, 24, 8 ) ;
#315 = EDGE_CURVE ( 'NONE', #235, #294, #403, .T. ) ;
#316 = CARTESIAN_POINT ( 'NONE',  ( 0.000000000000000000, 0.000000000000000000, 41.00000000000027001 ) ) ;
#317 = PERSON_AND_ORGANIZATION_ROLE ( 'creator' ) ;
#318 = DIRECTION ( 'NONE',  ( -1.479114197289384655E-31, -1.167397620965452235E-29, 1.000000000000000000 ) ) ;
#319 = EDGE_LOOP ( 'NONE', ( #13, #322, #119, #121 ) ) ;
#320 = VECTOR ( 'NONE', #70, 1000.000000000000000 ) ;
#321 = PLANE ( 'NONE',  #216 ) ;
#322 = ORIENTED_EDGE ( 'NONE', *, *, #29, .T. ) ;
#323 = EDGE_LOOP ( 'NONE', ( #228, #36 ) ) ;
#324 = ORIENTED_EDGE ( 'NONE', *, *, #202, .T. ) ;
#325 = DIRECTION ( 'NONE',  ( 1.000000000000000000, -2.059984127722458425E-18, 9.860761315262647568E-32 ) ) ;
#326 = CARTESIAN_POINT ( 'NONE',  ( 0.000000000000000000, 0.000000000000000000, 0.000000000000000000 ) ) ;
#327 = ORIENTED_EDGE ( 'NONE', *, *, #93, .T. ) ;
#328 = CIRCLE ( 'NONE', #351, 3.500000000000000000 ) ;
#329 = CARTESIAN_POINT ( 'NONE',  ( 0.000000000000000000, -1.054711873393898713E-12, 10.00000000000009948 ) ) ;
#330 = ORIENTED_EDGE ( 'NONE', *, *, #315, .T. ) ;
#331 = DIRECTION ( 'NONE',  ( -1.479114197289384655E-31, -1.167397620965452235E-29, 1.000000000000000000 ) ) ;
#332 = AXIS2_PLACEMENT_3D ( 'NONE', #334, #140, #406 ) ;
#333 = CARTESIAN_POINT ( 'NONE',  ( 0.000000000000000000, 0.000000000000000000, 0.000000000000000000 ) ) ;
#334 = CARTESIAN_POINT ( 'NONE',  ( 0.000000000000000000, 0.000000000000000000, 0.000000000000000000 ) ) ;
#335 = EDGE_LOOP ( 'NONE', ( #394, #185, #327, #165 ) ) ;
#336 = DIRECTION ( 'NONE',  ( 1.000000000000000000, -2.059984127722458425E-18, 0.000000000000000000 ) ) ;
#337 = EDGE_CURVE ( 'NONE', #294, #182, #274, .T. ) ;
#338 = CC_DESIGN_APPROVAL ( #214, ( #230 ) ) ;
#339 = ORIENTED_EDGE ( 'NONE', *, *, #153, .F. ) ;
#340 =( NAMED_UNIT ( * ) SI_UNIT ( $, .STERADIAN. ) SOLID_ANGLE_UNIT ( ) );
#341 = DIRECTION ( 'NONE',  ( 1.000000000000000000, -2.059984127722458425E-18, 0.000000000000000000 ) ) ;
#342 = ORIENTED_EDGE ( 'NONE', *, *, #400, .T. ) ;
#343 = DIRECTION ( 'NONE',  ( -1.000000000000000000, 2.059984127722458425E-18, 0.000000000000000000 ) ) ;
#344 = CYLINDRICAL_SURFACE ( 'NONE', #299, 5.000000000000000000 ) ;
#345 = CARTESIAN_POINT ( 'NONE',  ( 0.000000000000000000, 0.000000000000000000, 41.00000000000027001 ) ) ;
#346 = DIRECTION ( 'NONE',  ( -1.479114197289384655E-31, -1.167397620965452235E-29, 1.000000000000000000 ) ) ;
#347 = APPROVAL_DATE_TIME ( #33, #86 ) ;
#348 = DIRECTION ( 'NONE',  ( 1.000000000000000000, -2.059984127722458425E-18, 0.000000000000000000 ) ) ;
#349 = DIRECTION ( 'NONE',  ( 1.479114197289384655E-31, 1.167397620965452235E-29, -1.000000000000000000 ) ) ;
#350 = DIRECTION ( 'NONE',  ( -1.000000000000000000, 2.059984127708258928E-18, 0.000000000000000000 ) ) ;
#351 = AXIS2_PLACEMENT_3D ( 'NONE', #162, #157, #341 ) ;
#352 = APPLICATION_CONTEXT ( 'configuration controlled 3d designs of mechanical parts and assemblies' ) ;
#353 = CARTESIAN_POINT ( 'NONE',  ( 0.000000000000000000, 0.000000000000000000, 41.00000000000027001 ) ) ;
#354 = ORIENTED_EDGE ( 'NONE', *, *, #8, .F. ) ;
#355 = AXIS2_PLACEMENT_3D ( 'NONE', #326, #126, #90 ) ;
#356 = DIRECTION ( 'NONE',  ( -9.860761315262649757E-32, -1.167397620965452235E-29, 1.000000000000000000 ) ) ;
#357 = ORIENTED_EDGE ( 'NONE', *, *, #166, .F. ) ;
#358 = LINE ( 'NONE', #72, #10 ) ;
#359 = CARTESIAN_POINT ( 'NONE',  ( -3.500000000000000000, 4.358363241485357531E-16, 29.00000000000027001 ) ) ;
#360 = APPLICATION_PROTOCOL_DEFINITION ( 'international standard', 'config_control_design', 1994, #352 ) ;
#361 = EDGE_LOOP ( 'NONE', ( #339, #239 ) ) ;
#362 = ORIENTED_EDGE ( 'NONE', *, *, #29, .F. ) ;
#363 = CARTESIAN_POINT ( 'NONE',  ( 3.500000000000000000, -7.209944447028604486E-18, 29.00000000000027001 ) ) ;
#364 = ADVANCED_FACE ( 'NONE', ( #259 ), #105, .F. ) ;
#365 = AXIS2_PLACEMENT_3D ( 'NONE', #219, #55, #200 ) ;
#366 = CIRCLE ( 'NONE', #207, 5.000000000000000000 ) ;
#367 = AXIS2_PLACEMENT_3D ( 'NONE', #132, #250, #348 ) ;
#368 = VECTOR ( 'NONE', #101, 1000.000000000000000 ) ;
#369 = DIRECTION ( 'NONE',  ( -1.479114197289384655E-31, -1.167397620965452235E-29, 1.000000000000000000 ) ) ;
#370 = ADVANCED_FACE ( 'NONE', ( #412 ), #175, .F. ) ;
#371 = APPROVAL_PERSON_ORGANIZATION ( #221, #86, #249 ) ;
#372 = DIRECTION ( 'NONE',  ( 1.479114197289384655E-31, 1.167397620965452235E-29, -1.000000000000000000 ) ) ;
#373 = CIRCLE ( 'NONE', #355, 10.00000000000000000 ) ;
#374 = DIRECTION ( 'NONE',  ( 1.000000000000000000, -2.059984127722458425E-18, 9.860761315262647568E-32 ) ) ;
#375 = CARTESIAN_POINT ( 'NONE',  ( 5.000000000000000000, -1.054109849914963726E-12, 10.00000000000009948 ) ) ;
#376 = CARTESIAN_POINT ( 'NONE',  ( 3.500000000000000000, -7.209944447028604486E-18, 29.00000000000027001 ) ) ;
#377 = FACE_OUTER_BOUND ( 'NONE', #9, .T. ) ;
#378 = DIRECTION ( 'NONE',  ( -1.479114197289384655E-31, -1.167397620965452235E-29, 1.000000000000000000 ) ) ;
#379 = FACE_OUTER_BOUND ( 'NONE', #164, .T. ) ;
#380 = APPROVAL_STATUS ( 'not_yet_approved' ) ;
#381 = DIRECTION ( 'NONE',  ( -1.000000000000000000, 2.059984127708258928E-18, 0.000000000000000000 ) ) ;
#382 = COORDINATED_UNIVERSAL_TIME_OFFSET ( 5, 30, .AHEAD. ) ;
#383 = ORIENTED_EDGE ( 'NONE', *, *, #337, .F. ) ;
#384 = DATE_AND_TIME ( #134, #393 ) ;
#385 = LOCAL_TIME ( 2, 40, 19.00000000000000000, #130 ) ;
#386 = ADVANCED_FACE ( 'NONE', ( #103 ), #142, .T. ) ;
#387 = DIRECTION ( 'NONE',  ( 9.860761315262649757E-32, 1.167397620965452235E-29, -1.000000000000000000 ) ) ;
#388 = CIRCLE ( 'NONE', #163, 5.000000000000000000 ) ;
#389 = ORIENTED_EDGE ( 'NONE', *, *, #315, .F. ) ;
#390 = PRODUCT ( 'Roll2_Default_sldprt', 'Roll2_Default_sldprt', '', ( #252 ) ) ;
#391 = CARTESIAN_POINT ( 'NONE',  ( 0.000000000000000000, 0.000000000000000000, 0.000000000000000000 ) ) ;
#392 = ADVANCED_FACE ( 'NONE', ( #34 ), #292, .F. ) ;
#393 = LOCAL_TIME ( 2, 40, 19.00000000000000000, #382 ) ;
#394 = ORIENTED_EDGE ( 'NONE', *, *, #97, .F. ) ;
#395 = ADVANCED_FACE ( 'NONE', ( #203 ), #266, .T. ) ;
#396 = ORIENTED_EDGE ( 'NONE', *, *, #246, .T. ) ;
#397 = DIRECTION ( 'NONE',  ( 1.000000000000000000, -2.059984127722458425E-18, 0.000000000000000000 ) ) ;
#398 = VECTOR ( 'NONE', #145, 1000.000000000000000 ) ;
#399 = CARTESIAN_POINT ( 'NONE',  ( 10.00000000000000000, 1.204046957870139125E-15, 41.00000000000027001 ) ) ;
#400 = EDGE_CURVE ( 'NONE', #410, #76, #358, .T. ) ;
#401 = FACE_OUTER_BOUND ( 'NONE', #319, .T. ) ;
#402 = CIRCLE ( 'NONE', #365, 5.000000000000000000 ) ;
#403 = CIRCLE ( 'NONE', #113, 10.00000000000000000 ) ;
#404 = PLANE ( 'NONE',  #300 ) ;
#405 = DIRECTION ( 'NONE',  ( 1.479114197289384655E-31, 1.167397620965452235E-29, -1.000000000000000000 ) ) ;
#406 = DIRECTION ( 'NONE',  ( 1.000000000000000000, 0.000000000000000000, 0.000000000000000000 ) ) ;
#407 = PERSON_AND_ORGANIZATION ( #222, #278 ) ;
#408 = FACE_OUTER_BOUND ( 'NONE', #204, .T. ) ;
#409 = DIRECTION ( 'NONE',  ( -1.479114197289384655E-31, -1.167397620965452235E-29, 1.000000000000000000 ) ) ;
#410 = VERTEX_POINT ( 'NONE', #135 ) ;
#411 = PERSON_AND_ORGANIZATION ( #222, #278 ) ;
#412 = FACE_OUTER_BOUND ( 'NONE', #335, .T. ) ;
#413 = ADVANCED_FACE ( 'NONE', ( #254, #377 ), #99, .T. ) ;
#414 = PERSON_AND_ORGANIZATION ( #222, #278 ) ;
#415 = CARTESIAN_POINT ( 'NONE',  ( 0.000000000000000000, 0.000000000000000000, 29.00000000000027001 ) ) ;
ENDSEC;
END-ISO-10303-21;
