ISO-10303-21;
HEADER;
FILE_DESCRIPTION (( 'STEP AP203' ),
    '1' );
FILE_NAME ('Roller1_Default_sldprt.STEP',
    '2026-08-23T21:10:20',
    ( '' ),
    ( '' ),
    'SwSTEP 2.0',
    'SolidWorks 2020',
    '' );
FILE_SCHEMA (( 'CONFIG_CONTROL_DESIGN' ));
ENDSEC;

DATA;
#1 = AXIS2_PLACEMENT_3D ( 'NONE', #105, #142, #103 ) ;
#2 = ORGANIZATION ( 'UNSPECIFIED', 'UNSPECIFIED', '' ) ;
#3 = PERSON_AND_ORGANIZATION_ROLE ( 'creator' ) ;
#4 = ORIENTED_EDGE ( 'NONE', *, *, #16, .F. ) ;
#5 = EDGE_CURVE ( 'NONE', #58, #174, #32, .T. ) ;
#6 = COORDINATED_UNIVERSAL_TIME_OFFSET ( 5, 30, .AHEAD. ) ;
#7 = COORDINATED_UNIVERSAL_TIME_OFFSET ( 5, 30, .AHEAD. ) ;
#8 = DIRECTION ( 'NONE',  ( 0.000000000000000000, 0.000000000000000000, 1.000000000000000000 ) ) ;
#9 = VERTEX_POINT ( 'NONE', #60 ) ;
#10 = DIRECTION ( 'NONE',  ( -1.000000000000000000, 0.000000000000000000, 0.000000000000000000 ) ) ;
#11 = APPROVAL_PERSON_ORGANIZATION ( #207, #90, #56 ) ;
#12 = CARTESIAN_POINT ( 'NONE',  ( 0.000000000000000000, 0.000000000000000000, 0.000000000000000000 ) ) ;
#13 = CARTESIAN_POINT ( 'NONE',  ( 5.000000000000000000, 6.123233995736766282E-16, 33.00000000000000000 ) ) ;
#14 = VECTOR ( 'NONE', #15, 1000.000000000000000 ) ;
#15 = DIRECTION ( 'NONE',  ( -0.000000000000000000, -0.000000000000000000, -1.000000000000000000 ) ) ;
#16 = EDGE_CURVE ( 'NONE', #114, #214, #172, .T. ) ;
#17 = FACE_BOUND ( 'NONE', #109, .T. ) ;
#18 = CARTESIAN_POINT ( 'NONE',  ( 5.000000000000000000, 6.123233995736766282E-16, 0.000000000000000000 ) ) ;
#19 = CARTESIAN_POINT ( 'NONE',  ( 0.000000000000000000, 0.000000000000000000, 33.00000000000000000 ) ) ;
#20 = APPROVAL ( #171, 'UNSPECIFIED' ) ;
#21 = LOCAL_TIME ( 2, 40, 20.00000000000000000, #152 ) ;
#22 = PERSON_AND_ORGANIZATION ( #44, #2 ) ;
#23 = CALENDAR_DATE ( 2026, 24, 8 ) ;
#24 = ORIENTED_EDGE ( 'NONE', *, *, #215, .T. ) ;
#25 = APPROVAL_STATUS ( 'not_yet_approved' ) ;
#26 = VERTEX_POINT ( 'NONE', #153 ) ;
#27 = DIRECTION ( 'NONE',  ( 0.000000000000000000, 0.000000000000000000, 1.000000000000000000 ) ) ;
#28 = PRODUCT_DEFINITION ( 'UNKNOWN', '', #199, #173 ) ;
#29 = CARTESIAN_POINT ( 'NONE',  ( 0.000000000000000000, 0.000000000000000000, 33.00000000000000000 ) ) ;
#30 = FACE_OUTER_BOUND ( 'NONE', #191, .T. ) ;
#31 = DIRECTION ( 'NONE',  ( 1.000000000000000000, 0.000000000000000000, 0.000000000000000000 ) ) ;
#32 = CIRCLE ( 'NONE', #143, 2.500000000000000000 ) ;
#33 = DIRECTION ( 'NONE',  ( 0.000000000000000000, 0.000000000000000000, -1.000000000000000000 ) ) ;
#34 = DATE_TIME_ROLE ( 'creation_date' ) ;
#35 = CALENDAR_DATE ( 2026, 24, 8 ) ;
#36 = DATE_AND_TIME ( #23, #162 ) ;
#37 = PERSON_AND_ORGANIZATION_ROLE ( 'classification_officer' ) ;
#38 = ORIENTED_EDGE ( 'NONE', *, *, #69, .T. ) ;
#39 = APPROVAL_STATUS ( 'not_yet_approved' ) ;
#40 = APPLICATION_PROTOCOL_DEFINITION ( 'international standard', 'config_control_design', 1994, #93 ) ;
#41 = ADVANCED_FACE ( 'NONE', ( #239 ), #62, .F. ) ;
#42 = ORIENTED_EDGE ( 'NONE', *, *, #5, .T. ) ;
#43 = CARTESIAN_POINT ( 'NONE',  ( 0.000000000000000000, 0.000000000000000000, 0.000000000000000000 ) ) ;
#44 = PERSON ( 'UNSPECIFIED', 'UNSPECIFIED', 'UNSPECIFIED', ('UNSPECIFIED'), ('UNSPECIFIED'), ('UNSPECIFIED') ) ;
#45 = AXIS2_PLACEMENT_3D ( 'NONE', #68, #248, #31 ) ;
#46 = DIRECTION ( 'NONE',  ( -0.000000000000000000, -0.000000000000000000, -1.000000000000000000 ) ) ;
#47 = EDGE_CURVE ( 'NONE', #214, #114, #227, .T. ) ;
#48 = PLANE ( 'NONE',  #147 ) ;
#49 = ADVANCED_FACE ( 'NONE', ( #30 ), #122, .F. ) ;
#50 = DIRECTION ( 'NONE',  ( 1.000000000000000000, 0.000000000000000000, -0.000000000000000000 ) ) ;
#51 = DIRECTION ( 'NONE',  ( -1.000000000000000000, 0.000000000000000000, 0.000000000000000000 ) ) ;
#52 = CYLINDRICAL_SURFACE ( 'NONE', #170, 5.000000000000000000 ) ;
#53 = PRODUCT_RELATED_PRODUCT_CATEGORY ( 'detail', '', ( #180 ) ) ;
#54 = AXIS2_PLACEMENT_3D ( 'NONE', #144, #46, #118 ) ;
#55 = CIRCLE ( 'NONE', #45, 5.000000000000000000 ) ;
#56 = APPROVAL_ROLE ( '' ) ;
#57 = SECURITY_CLASSIFICATION_LEVEL ( 'unclassified' ) ;
#58 = VERTEX_POINT ( 'NONE', #82 ) ;
#59 =( GEOMETRIC_REPRESENTATION_CONTEXT ( 3 ) GLOBAL_UNCERTAINTY_ASSIGNED_CONTEXT ( ( #104 ) ) GLOBAL_UNIT_ASSIGNED_CONTEXT ( ( #225, #182, #106 ) ) REPRESENTATION_CONTEXT ( 'NONE', 'WORKASPACE' ) );
#60 = CARTESIAN_POINT ( 'NONE',  ( 5.000000000000000000, 6.123233995736766282E-16, 33.00000000000000000 ) ) ;
#61 = CALENDAR_DATE ( 2026, 24, 8 ) ;
#62 = CYLINDRICAL_SURFACE ( 'NONE', #97, 2.500000000000000000 ) ;
#63 = CARTESIAN_POINT ( 'NONE',  ( 0.000000000000000000, 0.000000000000000000, 33.00000000000000000 ) ) ;
#64 = LINE ( 'NONE', #13, #14 ) ;
#65 = DIRECTION ( 'NONE',  ( 0.000000000000000000, 0.000000000000000000, 1.000000000000000000 ) ) ;
#66 = VECTOR ( 'NONE', #158, 1000.000000000000000 ) ;
#67 = CYLINDRICAL_SURFACE ( 'NONE', #54, 5.000000000000000000 ) ;
#68 = CARTESIAN_POINT ( 'NONE',  ( 0.000000000000000000, 0.000000000000000000, 33.00000000000000000 ) ) ;
#69 = EDGE_CURVE ( 'NONE', #9, #214, #64, .T. ) ;
#70 = CC_DESIGN_DATE_AND_TIME_ASSIGNMENT ( #133, #229, ( #194 ) ) ;
#71 = PERSON_AND_ORGANIZATION ( #44, #2 ) ;
#72 = EDGE_CURVE ( 'NONE', #9, #26, #100, .T. ) ;
#73 = PERSON_AND_ORGANIZATION ( #44, #2 ) ;
#74 = VERTEX_POINT ( 'NONE', #83 ) ;
#75 = ORIENTED_EDGE ( 'NONE', *, *, #5, .F. ) ;
#76 = ORIENTED_EDGE ( 'NONE', *, *, #160, .F. ) ;
#77 = DIRECTION ( 'NONE',  ( 1.000000000000000000, 0.000000000000000000, 0.000000000000000000 ) ) ;
#78 = DIRECTION ( 'NONE',  ( -1.000000000000000000, 0.000000000000000000, 0.000000000000000000 ) ) ;
#79 = EDGE_CURVE ( 'NONE', #232, #74, #228, .T. ) ;
#80 = CC_DESIGN_APPROVAL ( #20, ( #199 ) ) ;
#81 = LINE ( 'NONE', #219, #66 ) ;
#82 = CARTESIAN_POINT ( 'NONE',  ( -2.500000000000000000, 0.000000000000000000, 33.00000000000000000 ) ) ;
#83 = CARTESIAN_POINT ( 'NONE',  ( -2.500000000000000000, 0.000000000000000000, 0.000000000000000000 ) ) ;
#84 = VECTOR ( 'NONE', #201, 1000.000000000000000 ) ;
#85 = DIRECTION ( 'NONE',  ( 0.000000000000000000, 0.000000000000000000, 1.000000000000000000 ) ) ;
#86 = CC_DESIGN_APPROVAL ( #233, ( #28 ) ) ;
#87 = APPROVAL_PERSON_ORGANIZATION ( #113, #233, #91 ) ;
#88 = EDGE_LOOP ( 'NONE', ( #42, #116 ) ) ;
#89 = ORIENTED_EDGE ( 'NONE', *, *, #16, .T. ) ;
#90 = APPROVAL ( #39, 'UNSPECIFIED' ) ;
#91 = APPROVAL_ROLE ( '' ) ;
#92 = ORIENTED_EDGE ( 'NONE', *, *, #72, .T. ) ;
#93 = APPLICATION_CONTEXT ( 'configuration controlled 3d designs of mechanical parts and assemblies' ) ;
#94 = PERSON_AND_ORGANIZATION ( #44, #2 ) ;
#95 = EDGE_LOOP ( 'NONE', ( #234, #38, #209, #211 ) ) ;
#96 = EDGE_CURVE ( 'NONE', #58, #74, #140, .T. ) ;
#97 = AXIS2_PLACEMENT_3D ( 'NONE', #138, #155, #10 ) ;
#98 = CALENDAR_DATE ( 2026, 24, 8 ) ;
#99 = DIRECTION ( 'NONE',  ( 1.000000000000000000, 0.000000000000000000, -0.000000000000000000 ) ) ;
#100 = CIRCLE ( 'NONE', #175, 5.000000000000000000 ) ;
#101 = DIRECTION ( 'NONE',  ( 1.000000000000000000, 0.000000000000000000, 0.000000000000000000 ) ) ;
#102 = CC_DESIGN_APPROVAL ( #90, ( #194 ) ) ;
#103 = DIRECTION ( 'NONE',  ( -1.000000000000000000, 0.000000000000000000, 0.000000000000000000 ) ) ;
#104 = UNCERTAINTY_MEASURE_WITH_UNIT (LENGTH_MEASURE( 1.000000000000000082E-05 ), #225, 'distance_accuracy_value', 'NONE');
#105 = CARTESIAN_POINT ( 'NONE',  ( 0.000000000000000000, 0.000000000000000000, 0.000000000000000000 ) ) ;
#106 =( NAMED_UNIT ( * ) SI_UNIT ( $, .STERADIAN. ) SOLID_ANGLE_UNIT ( ) );
#107 = CALENDAR_DATE ( 2026, 24, 8 ) ;
#108 = DATE_AND_TIME ( #107, #210 ) ;
#109 = EDGE_LOOP ( 'NONE', ( #167, #132 ) ) ;
#110 = ADVANCED_FACE ( 'NONE', ( #17, #139 ), #157, .F. ) ;
#111 = ORIENTED_EDGE ( 'NONE', *, *, #238, .T. ) ;
#112 = AXIS2_PLACEMENT_3D ( 'NONE', #128, #33, #51 ) ;
#113 = PERSON_AND_ORGANIZATION ( #44, #2 ) ;
#114 = VERTEX_POINT ( 'NONE', #244 ) ;
#115 = PERSON_AND_ORGANIZATION_ROLE ( 'design_owner' ) ;
#116 = ORIENTED_EDGE ( 'NONE', *, *, #160, .T. ) ;
#117 = EDGE_LOOP ( 'NONE', ( #216, #151, #192, #89 ) ) ;
#118 = DIRECTION ( 'NONE',  ( -1.000000000000000000, 0.000000000000000000, 0.000000000000000000 ) ) ;
#119 = DIRECTION ( 'NONE',  ( -0.000000000000000000, -0.000000000000000000, -1.000000000000000000 ) ) ;
#120 = CARTESIAN_POINT ( 'NONE',  ( -2.500000000000000000, 0.000000000000000000, 33.00000000000000000 ) ) ;
#121 = CC_DESIGN_PERSON_AND_ORGANIZATION_ASSIGNMENT ( #73, #231, ( #199 ) ) ;
#122 = CYLINDRICAL_SURFACE ( 'NONE', #247, 2.500000000000000000 ) ;
#123 = CARTESIAN_POINT ( 'NONE',  ( 2.500000000000000000, 3.061616997868383141E-16, 33.00000000000000000 ) ) ;
#124 = VECTOR ( 'NONE', #119, 1000.000000000000000 ) ;
#125 = EDGE_CURVE ( 'NONE', #26, #114, #81, .T. ) ;
#126 = DIRECTION ( 'NONE',  ( -0.000000000000000000, -0.000000000000000000, -1.000000000000000000 ) ) ;
#127 = CARTESIAN_POINT ( 'NONE',  ( 2.500000000000000000, 3.061616997868383141E-16, 0.000000000000000000 ) ) ;
#128 = CARTESIAN_POINT ( 'NONE',  ( 0.000000000000000000, 0.000000000000000000, 0.000000000000000000 ) ) ;
#129 = COORDINATED_UNIVERSAL_TIME_OFFSET ( 5, 30, .AHEAD. ) ;
#130 = LOCAL_TIME ( 2, 40, 20.00000000000000000, #200 ) ;
#131 = ADVANCED_FACE ( 'NONE', ( #242, #176 ), #48, .T. ) ;
#132 = ORIENTED_EDGE ( 'NONE', *, *, #79, .F. ) ;
#133 = DATE_AND_TIME ( #98, #130 ) ;
#134 = EDGE_LOOP ( 'NONE', ( #24, #92 ) ) ;
#135 = DATE_AND_TIME ( #35, #230 ) ;
#136 = ORIENTED_EDGE ( 'NONE', *, *, #156, .T. ) ;
#137 = PERSON_AND_ORGANIZATION_ROLE ( 'creator' ) ;
#138 = CARTESIAN_POINT ( 'NONE',  ( 0.000000000000000000, 0.000000000000000000, 33.00000000000000000 ) ) ;
#139 = FACE_OUTER_BOUND ( 'NONE', #154, .T. ) ;
#140 = LINE ( 'NONE', #120, #124 ) ;
#141 = DIRECTION ( 'NONE',  ( 0.000000000000000000, 0.000000000000000000, 1.000000000000000000 ) ) ;
#142 = DIRECTION ( 'NONE',  ( 0.000000000000000000, 0.000000000000000000, -1.000000000000000000 ) ) ;
#143 = AXIS2_PLACEMENT_3D ( 'NONE', #190, #237, #78 ) ;
#144 = CARTESIAN_POINT ( 'NONE',  ( 0.000000000000000000, 0.000000000000000000, 33.00000000000000000 ) ) ;
#145 = APPLICATION_PROTOCOL_DEFINITION ( 'international standard', 'config_control_design', 1994, #149 ) ;
#146 = MANIFOLD_SOLID_BREP ( 'Cut-Extrude1', #187 ) ;
#147 = AXIS2_PLACEMENT_3D ( 'NONE', #243, #65, #50 ) ;
#148 = CC_DESIGN_PERSON_AND_ORGANIZATION_ASSIGNMENT ( #208, #37, ( #194 ) ) ;
#149 = APPLICATION_CONTEXT ( 'configuration controlled 3d designs of mechanical parts and assemblies' ) ;
#150 = ORIENTED_EDGE ( 'NONE', *, *, #47, .F. ) ;
#151 = ORIENTED_EDGE ( 'NONE', *, *, #215, .F. ) ;
#152 = COORDINATED_UNIVERSAL_TIME_OFFSET ( 5, 30, .AHEAD. ) ;
#153 = CARTESIAN_POINT ( 'NONE',  ( -5.000000000000000000, 0.000000000000000000, 33.00000000000000000 ) ) ;
#154 = EDGE_LOOP ( 'NONE', ( #4, #150 ) ) ;
#155 = DIRECTION ( 'NONE',  ( -0.000000000000000000, -0.000000000000000000, -1.000000000000000000 ) ) ;
#156 = EDGE_CURVE ( 'NONE', #174, #232, #222, .T. ) ;
#157 = PLANE ( 'NONE',  #218 ) ;
#158 = DIRECTION ( 'NONE',  ( -0.000000000000000000, -0.000000000000000000, -1.000000000000000000 ) ) ;
#159 = PRODUCT_DEFINITION_SHAPE ( 'NONE', 'NONE',  #28 ) ;
#160 = EDGE_CURVE ( 'NONE', #174, #58, #168, .T. ) ;
#161 = CARTESIAN_POINT ( 'NONE',  ( 0.000000000000000000, 0.000000000000000000, 0.000000000000000000 ) ) ;
#162 = LOCAL_TIME ( 2, 40, 20.00000000000000000, #129 ) ;
#163 = FACE_OUTER_BOUND ( 'NONE', #117, .T. ) ;
#164 = DIRECTION ( 'NONE',  ( 1.000000000000000000, 0.000000000000000000, 0.000000000000000000 ) ) ;
#165 = MECHANICAL_CONTEXT ( 'NONE', #149, 'mechanical' ) ;
#166 = ORIENTED_EDGE ( 'NONE', *, *, #156, .F. ) ;
#167 = ORIENTED_EDGE ( 'NONE', *, *, #238, .F. ) ;
#168 = CIRCLE ( 'NONE', #213, 2.500000000000000000 ) ;
#169 = ORIENTED_EDGE ( 'NONE', *, *, #96, .F. ) ;
#170 = AXIS2_PLACEMENT_3D ( 'NONE', #19, #126, #246 ) ;
#171 = APPROVAL_STATUS ( 'not_yet_approved' ) ;
#172 = CIRCLE ( 'NONE', #203, 5.000000000000000000 ) ;
#173 = DESIGN_CONTEXT ( 'detailed design', #93, 'design' ) ;
#174 = VERTEX_POINT ( 'NONE', #181 ) ;
#175 = AXIS2_PLACEMENT_3D ( 'NONE', #63, #27, #240 ) ;
#176 = FACE_OUTER_BOUND ( 'NONE', #134, .T. ) ;
#177 = DIRECTION ( 'NONE',  ( 0.000000000000000000, 0.000000000000000000, 1.000000000000000000 ) ) ;
#178 = DIRECTION ( 'NONE',  ( -1.000000000000000000, 0.000000000000000000, 0.000000000000000000 ) ) ;
#179 = DIRECTION ( 'NONE',  ( -0.000000000000000000, -0.000000000000000000, -1.000000000000000000 ) ) ;
#180 = PRODUCT ( 'Roller1_Default_sldprt', 'Roller1_Default_sldprt', '', ( #165 ) ) ;
#181 = CARTESIAN_POINT ( 'NONE',  ( 2.500000000000000000, 3.061616997868383141E-16, 33.00000000000000000 ) ) ;
#182 =( NAMED_UNIT ( * ) PLANE_ANGLE_UNIT ( ) SI_UNIT ( $, .RADIAN. ) );
#183 = CC_DESIGN_PERSON_AND_ORGANIZATION_ASSIGNMENT ( #236, #115, ( #180 ) ) ;
#184 = APPROVAL_DATE_TIME ( #108, #20 ) ;
#185 = APPROVAL_DATE_TIME ( #249, #233 ) ;
#186 = APPROVAL_DATE_TIME ( #36, #90 ) ;
#187 = CLOSED_SHELL ( 'NONE', ( #49, #205, #202, #131, #110, #41 ) ) ;
#188 = SHAPE_DEFINITION_REPRESENTATION ( #159, #193 ) ;
#189 = ORIENTED_EDGE ( 'NONE', *, *, #79, .T. ) ;
#190 = CARTESIAN_POINT ( 'NONE',  ( 0.000000000000000000, 0.000000000000000000, 33.00000000000000000 ) ) ;
#191 = EDGE_LOOP ( 'NONE', ( #76, #136, #189, #169 ) ) ;
#192 = ORIENTED_EDGE ( 'NONE', *, *, #125, .T. ) ;
#193 = ADVANCED_BREP_SHAPE_REPRESENTATION ( 'Roller1_Default_sldprt', ( #146, #223 ), #59 ) ;
#194 = SECURITY_CLASSIFICATION ( '', '', #57 ) ;
#195 = ORIENTED_EDGE ( 'NONE', *, *, #96, .T. ) ;
#196 = CC_DESIGN_DATE_AND_TIME_ASSIGNMENT ( #135, #34, ( #28 ) ) ;
#197 = CARTESIAN_POINT ( 'NONE',  ( 0.000000000000000000, 0.000000000000000000, 33.00000000000000000 ) ) ;
#198 = DIRECTION ( 'NONE',  ( 0.000000000000000000, 0.000000000000000000, -1.000000000000000000 ) ) ;
#199 = PRODUCT_DEFINITION_FORMATION_WITH_SPECIFIED_SOURCE ( 'ANY', '', #180, .NOT_KNOWN. ) ;
#200 = COORDINATED_UNIVERSAL_TIME_OFFSET ( 5, 30, .AHEAD. ) ;
#201 = DIRECTION ( 'NONE',  ( -0.000000000000000000, -0.000000000000000000, -1.000000000000000000 ) ) ;
#202 = ADVANCED_FACE ( 'NONE', ( #163 ), #67, .T. ) ;
#203 = AXIS2_PLACEMENT_3D ( 'NONE', #43, #8, #77 ) ;
#204 = APPROVAL_ROLE ( '' ) ;
#205 = ADVANCED_FACE ( 'NONE', ( #226 ), #52, .T. ) ;
#206 = CC_DESIGN_SECURITY_CLASSIFICATION ( #194, ( #199 ) ) ;
#207 = PERSON_AND_ORGANIZATION ( #44, #2 ) ;
#208 = PERSON_AND_ORGANIZATION ( #44, #2 ) ;
#209 = ORIENTED_EDGE ( 'NONE', *, *, #47, .T. ) ;
#210 = LOCAL_TIME ( 2, 40, 20.00000000000000000, #7 ) ;
#211 = ORIENTED_EDGE ( 'NONE', *, *, #125, .F. ) ;
#212 = EDGE_LOOP ( 'NONE', ( #166, #75, #195, #111 ) ) ;
#213 = AXIS2_PLACEMENT_3D ( 'NONE', #197, #198, #241 ) ;
#214 = VERTEX_POINT ( 'NONE', #18 ) ;
#215 = EDGE_CURVE ( 'NONE', #26, #9, #55, .T. ) ;
#216 = ORIENTED_EDGE ( 'NONE', *, *, #69, .F. ) ;
#217 = CIRCLE ( 'NONE', #112, 2.500000000000000000 ) ;
#218 = AXIS2_PLACEMENT_3D ( 'NONE', #161, #177, #99 ) ;
#219 = CARTESIAN_POINT ( 'NONE',  ( -5.000000000000000000, 0.000000000000000000, 33.00000000000000000 ) ) ;
#220 = CC_DESIGN_PERSON_AND_ORGANIZATION_ASSIGNMENT ( #22, #3, ( #199 ) ) ;
#221 = AXIS2_PLACEMENT_3D ( 'NONE', #12, #141, #101 ) ;
#222 = LINE ( 'NONE', #123, #84 ) ;
#223 = AXIS2_PLACEMENT_3D ( 'NONE', #224, #85, #164 ) ;
#224 = CARTESIAN_POINT ( 'NONE',  ( 0.000000000000000000, 0.000000000000000000, 0.000000000000000000 ) ) ;
#225 =( LENGTH_UNIT ( ) NAMED_UNIT ( * ) SI_UNIT ( .MILLI., .METRE. ) );
#226 = FACE_OUTER_BOUND ( 'NONE', #95, .T. ) ;
#227 = CIRCLE ( 'NONE', #221, 5.000000000000000000 ) ;
#228 = CIRCLE ( 'NONE', #1, 2.500000000000000000 ) ;
#229 = DATE_TIME_ROLE ( 'classification_date' ) ;
#230 = LOCAL_TIME ( 2, 40, 20.00000000000000000, #6 ) ;
#231 = PERSON_AND_ORGANIZATION_ROLE ( 'design_supplier' ) ;
#232 = VERTEX_POINT ( 'NONE', #127 ) ;
#233 = APPROVAL ( #25, 'UNSPECIFIED' ) ;
#234 = ORIENTED_EDGE ( 'NONE', *, *, #72, .F. ) ;
#235 = APPROVAL_PERSON_ORGANIZATION ( #94, #20, #204 ) ;
#236 = PERSON_AND_ORGANIZATION ( #44, #2 ) ;
#237 = DIRECTION ( 'NONE',  ( 0.000000000000000000, 0.000000000000000000, -1.000000000000000000 ) ) ;
#238 = EDGE_CURVE ( 'NONE', #74, #232, #217, .T. ) ;
#239 = FACE_OUTER_BOUND ( 'NONE', #212, .T. ) ;
#240 = DIRECTION ( 'NONE',  ( 1.000000000000000000, 0.000000000000000000, 0.000000000000000000 ) ) ;
#241 = DIRECTION ( 'NONE',  ( -1.000000000000000000, 0.000000000000000000, 0.000000000000000000 ) ) ;
#242 = FACE_BOUND ( 'NONE', #88, .T. ) ;
#243 = CARTESIAN_POINT ( 'NONE',  ( 0.000000000000000000, 0.000000000000000000, 33.00000000000000000 ) ) ;
#244 = CARTESIAN_POINT ( 'NONE',  ( -5.000000000000000000, 0.000000000000000000, 0.000000000000000000 ) ) ;
#245 = CC_DESIGN_PERSON_AND_ORGANIZATION_ASSIGNMENT ( #71, #137, ( #28 ) ) ;
#246 = DIRECTION ( 'NONE',  ( -1.000000000000000000, 0.000000000000000000, 0.000000000000000000 ) ) ;
#247 = AXIS2_PLACEMENT_3D ( 'NONE', #29, #179, #178 ) ;
#248 = DIRECTION ( 'NONE',  ( 0.000000000000000000, 0.000000000000000000, 1.000000000000000000 ) ) ;
#249 = DATE_AND_TIME ( #61, #21 ) ;
ENDSEC;
END-ISO-10303-21;
