ISO-10303-21;
HEADER;
FILE_DESCRIPTION (( 'STEP AP203' ),
    '1' );
FILE_NAME ('SideSlider_Default_sldprt.STEP',
    '2026-08-23T21:10:21',
    ( '' ),
    ( '' ),
    'SwSTEP 2.0',
    'SolidWorks 2020',
    '' );
FILE_SCHEMA (( 'CONFIG_CONTROL_DESIGN' ));
ENDSEC;

DATA;
#1 = FACE_OUTER_BOUND ( 'NONE', #162, .T. ) ;
#2 = DIRECTION ( 'NONE',  ( 1.000000000000000000, 0.000000000000000000, 0.000000000000000000 ) ) ;
#3 = CALENDAR_DATE ( 2026, 24, 8 ) ;
#4 = EDGE_CURVE ( 'NONE', #196, #48, #144, .T. ) ;
#5 = PERSON_AND_ORGANIZATION_ROLE ( 'creator' ) ;
#6 = ORIENTED_EDGE ( 'NONE', *, *, #161, .F. ) ;
#7 = DIRECTION ( 'NONE',  ( 0.000000000000000000, -1.000000000000000000, 0.000000000000000000 ) ) ;
#8 = AXIS2_PLACEMENT_3D ( 'NONE', #51, #110, #229 ) ;
#9 = AXIS2_PLACEMENT_3D ( 'NONE', #187, #185, #182 ) ;
#10 = APPROVAL_DATE_TIME ( #101, #142 ) ;
#11 = CALENDAR_DATE ( 2026, 24, 8 ) ;
#12 = APPROVAL_STATUS ( 'not_yet_approved' ) ;
#13 = ORIENTED_EDGE ( 'NONE', *, *, #161, .T. ) ;
#14 = EDGE_LOOP ( 'NONE', ( #199, #68, #135, #123 ) ) ;
#15 = ADVANCED_BREP_SHAPE_REPRESENTATION ( 'SideSlider_Default_sldprt', ( #219, #80 ), #140 ) ;
#16 = APPROVAL ( #79, 'UNSPECIFIED' ) ;
#17 = DIRECTION ( 'NONE',  ( -0.000000000000000000, 0.000000000000000000, -1.000000000000000000 ) ) ;
#18 = CARTESIAN_POINT ( 'NONE',  ( 42.99999999999993605, 0.9999999999999991118, 0.000000000000000000 ) ) ;
#19 = DIRECTION ( 'NONE',  ( -0.000000000000000000, -0.000000000000000000, -1.000000000000000000 ) ) ;
#20 = VERTEX_POINT ( 'NONE', #34 ) ;
#21 = CARTESIAN_POINT ( 'NONE',  ( 42.99999999999993605, 0.9999999999999991118, 3.000000000000000000 ) ) ;
#22 = DIRECTION ( 'NONE',  ( -0.000000000000000000, 0.000000000000000000, 1.000000000000000000 ) ) ;
#23 = COORDINATED_UNIVERSAL_TIME_OFFSET ( 5, 30, .AHEAD. ) ;
#24 = PERSON_AND_ORGANIZATION ( #78, #158 ) ;
#25 = PERSON_AND_ORGANIZATION ( #78, #158 ) ;
#26 = VECTOR ( 'NONE', #128, 1000.000000000000000 ) ;
#27 = VERTEX_POINT ( 'NONE', #145 ) ;
#28 = COORDINATED_UNIVERSAL_TIME_OFFSET ( 5, 30, .AHEAD. ) ;
#29 = ORIENTED_EDGE ( 'NONE', *, *, #93, .F. ) ;
#30 = APPROVAL_ROLE ( '' ) ;
#31 = PRODUCT_DEFINITION_SHAPE ( 'NONE', 'NONE',  #136 ) ;
#32 = CARTESIAN_POINT ( 'NONE',  ( -43.00000000000005684, 0.9999999999999991118, 3.000000000000000000 ) ) ;
#33 = CALENDAR_DATE ( 2026, 24, 8 ) ;
#34 = CARTESIAN_POINT ( 'NONE',  ( 42.99999999999993605, -1.000000000000000888, 0.000000000000000000 ) ) ;
#35 = ADVANCED_FACE ( 'NONE', ( #230 ), #36, .F. ) ;
#36 = PLANE ( 'NONE',  #98 ) ;
#37 = CARTESIAN_POINT ( 'NONE',  ( -43.00000000000005684, -1.000000000000000888, 0.000000000000000000 ) ) ;
#38 = CARTESIAN_POINT ( 'NONE',  ( -43.00000000000005684, 0.9999999999999991118, 0.000000000000000000 ) ) ;
#39 = ORIENTED_EDGE ( 'NONE', *, *, #105, .F. ) ;
#40 = VECTOR ( 'NONE', #133, 1000.000000000000000 ) ;
#41 = DIRECTION ( 'NONE',  ( 0.000000000000000000, 1.000000000000000000, 0.000000000000000000 ) ) ;
#42 = CARTESIAN_POINT ( 'NONE',  ( 42.99999999999993605, 0.9999999999999991118, 3.000000000000000000 ) ) ;
#43 = DIRECTION ( 'NONE',  ( -0.000000000000000000, -0.000000000000000000, -1.000000000000000000 ) ) ;
#44 = CARTESIAN_POINT ( 'NONE',  ( 42.99999999999993605, 0.9999999999999991118, 0.000000000000000000 ) ) ;
#45 = LOCAL_TIME ( 2, 40, 21.00000000000000000, #23 ) ;
#46 = DATE_AND_TIME ( #3, #190 ) ;
#47 = ORIENTED_EDGE ( 'NONE', *, *, #105, .T. ) ;
#48 = VERTEX_POINT ( 'NONE', #55 ) ;
#49 = CLOSED_SHELL ( 'NONE', ( #186, #76, #35, #104, #84, #50 ) ) ;
#50 = ADVANCED_FACE ( 'NONE', ( #141 ), #214, .F. ) ;
#51 = CARTESIAN_POINT ( 'NONE',  ( 0.000000000000000000, 0.000000000000000000, 0.000000000000000000 ) ) ;
#52 = ORIENTED_EDGE ( 'NONE', *, *, #235, .F. ) ;
#53 = AXIS2_PLACEMENT_3D ( 'NONE', #138, #95, #117 ) ;
#54 = CC_DESIGN_APPROVAL ( #142, ( #136 ) ) ;
#55 = CARTESIAN_POINT ( 'NONE',  ( -43.00000000000005684, 0.9999999999999991118, 3.000000000000000000 ) ) ;
#56 = CARTESIAN_POINT ( 'NONE',  ( 42.99999999999993605, -1.000000000000000888, 3.000000000000000000 ) ) ;
#57 = PLANE ( 'NONE',  #228 ) ;
#58 = CC_DESIGN_PERSON_AND_ORGANIZATION_ASSIGNMENT ( #172, #5, ( #136 ) ) ;
#59 = CALENDAR_DATE ( 2026, 24, 8 ) ;
#60 = APPROVAL_ROLE ( '' ) ;
#61 = SECURITY_CLASSIFICATION ( '', '', #156 ) ;
#62 = PERSON_AND_ORGANIZATION_ROLE ( 'creator' ) ;
#63 = CALENDAR_DATE ( 2026, 24, 8 ) ;
#64 = CC_DESIGN_DATE_AND_TIME_ASSIGNMENT ( #157, #227, ( #61 ) ) ;
#65 = CC_DESIGN_APPROVAL ( #222, ( #61 ) ) ;
#66 = APPLICATION_CONTEXT ( 'configuration controlled 3d designs of mechanical parts and assemblies' ) ;
#67 = PRODUCT_RELATED_PRODUCT_CATEGORY ( 'detail', '', ( #102 ) ) ;
#68 = ORIENTED_EDGE ( 'NONE', *, *, #176, .F. ) ;
#69 = APPROVAL_PERSON_ORGANIZATION ( #24, #142, #60 ) ;
#70 = ORIENTED_EDGE ( 'NONE', *, *, #129, .F. ) ;
#71 = ORIENTED_EDGE ( 'NONE', *, *, #115, .F. ) ;
#72 = CARTESIAN_POINT ( 'NONE',  ( 42.99999999999993605, -1.000000000000000888, 3.000000000000000000 ) ) ;
#73 = CC_DESIGN_PERSON_AND_ORGANIZATION_ASSIGNMENT ( #119, #193, ( #88 ) ) ;
#74 = LINE ( 'NONE', #42, #87 ) ;
#75 = PLANE ( 'NONE',  #139 ) ;
#76 = ADVANCED_FACE ( 'NONE', ( #107 ), #181, .F. ) ;
#77 = DIRECTION ( 'NONE',  ( 1.000000000000000000, 0.000000000000000000, 0.000000000000000000 ) ) ;
#78 = PERSON ( 'UNSPECIFIED', 'UNSPECIFIED', 'UNSPECIFIED', ('UNSPECIFIED'), ('UNSPECIFIED'), ('UNSPECIFIED') ) ;
#79 = APPROVAL_STATUS ( 'not_yet_approved' ) ;
#80 = AXIS2_PLACEMENT_3D ( 'NONE', #134, #189, #118 ) ;
#81 =( NAMED_UNIT ( * ) PLANE_ANGLE_UNIT ( ) SI_UNIT ( $, .RADIAN. ) );
#82 = UNCERTAINTY_MEASURE_WITH_UNIT (LENGTH_MEASURE( 1.000000000000000082E-05 ), #100, 'distance_accuracy_value', 'NONE');
#83 = APPLICATION_PROTOCOL_DEFINITION ( 'international standard', 'config_control_design', 1994, #66 ) ;
#84 = ADVANCED_FACE ( 'NONE', ( #97 ), #75, .T. ) ;
#85 = PERSON_AND_ORGANIZATION_ROLE ( 'classification_officer' ) ;
#86 = EDGE_CURVE ( 'NONE', #194, #20, #183, .T. ) ;
#87 = VECTOR ( 'NONE', #205, 1000.000000000000000 ) ;
#88 = PRODUCT_DEFINITION_FORMATION_WITH_SPECIFIED_SOURCE ( 'ANY', '', #102, .NOT_KNOWN. ) ;
#89 = LOCAL_TIME ( 2, 40, 21.00000000000000000, #120 ) ;
#90 = ORIENTED_EDGE ( 'NONE', *, *, #124, .T. ) ;
#91 = ORIENTED_EDGE ( 'NONE', *, *, #225, .T. ) ;
#92 = ORIENTED_EDGE ( 'NONE', *, *, #4, .T. ) ;
#93 = EDGE_CURVE ( 'NONE', #215, #218, #113, .T. ) ;
#94 = CARTESIAN_POINT ( 'NONE',  ( -43.00000000000005684, 0.9999999999999991118, 0.000000000000000000 ) ) ;
#95 = DIRECTION ( 'NONE',  ( 0.000000000000000000, -1.000000000000000000, 0.000000000000000000 ) ) ;
#96 = LINE ( 'NONE', #130, #231 ) ;
#97 = FACE_OUTER_BOUND ( 'NONE', #125, .T. ) ;
#98 = AXIS2_PLACEMENT_3D ( 'NONE', #32, #216, #17 ) ;
#99 = CC_DESIGN_APPROVAL ( #16, ( #88 ) ) ;
#100 =( LENGTH_UNIT ( ) NAMED_UNIT ( * ) SI_UNIT ( .MILLI., .METRE. ) );
#101 = DATE_AND_TIME ( #59, #232 ) ;
#102 = PRODUCT ( 'SideSlider_Default_sldprt', 'SideSlider_Default_sldprt', '', ( #154 ) ) ;
#103 = PERSON_AND_ORGANIZATION ( #78, #158 ) ;
#104 = ADVANCED_FACE ( 'NONE', ( #1 ), #57, .F. ) ;
#105 = EDGE_CURVE ( 'NONE', #27, #194, #96, .T. ) ;
#106 = VECTOR ( 'NONE', #43, 1000.000000000000000 ) ;
#107 = FACE_OUTER_BOUND ( 'NONE', #14, .T. ) ;
#108 = SHAPE_DEFINITION_REPRESENTATION ( #31, #15 ) ;
#109 = ORIENTED_EDGE ( 'NONE', *, *, #129, .T. ) ;
#110 = DIRECTION ( 'NONE',  ( -0.000000000000000000, 0.000000000000000000, 1.000000000000000000 ) ) ;
#111 = LOCAL_TIME ( 2, 40, 21.00000000000000000, #28 ) ;
#112 = CC_DESIGN_PERSON_AND_ORGANIZATION_ASSIGNMENT ( #212, #85, ( #61 ) ) ;
#113 = LINE ( 'NONE', #38, #202 ) ;
#114 = DIRECTION ( 'NONE',  ( 0.000000000000000000, -1.000000000000000000, 0.000000000000000000 ) ) ;
#115 = EDGE_CURVE ( 'NONE', #188, #20, #201, .T. ) ;
#116 = CARTESIAN_POINT ( 'NONE',  ( -43.00000000000005684, 0.9999999999999991118, 0.000000000000000000 ) ) ;
#117 = DIRECTION ( 'NONE',  ( 0.000000000000000000, -0.000000000000000000, -1.000000000000000000 ) ) ;
#118 = DIRECTION ( 'NONE',  ( 1.000000000000000000, 0.000000000000000000, 0.000000000000000000 ) ) ;
#119 = PERSON_AND_ORGANIZATION ( #78, #158 ) ;
#120 = COORDINATED_UNIVERSAL_TIME_OFFSET ( 5, 30, .AHEAD. ) ;
#121 = ORIENTED_EDGE ( 'NONE', *, *, #86, .T. ) ;
#122 = DESIGN_CONTEXT ( 'detailed design', #66, 'design' ) ;
#123 = ORIENTED_EDGE ( 'NONE', *, *, #153, .T. ) ;
#124 = EDGE_CURVE ( 'NONE', #27, #188, #132, .T. ) ;
#125 = EDGE_LOOP ( 'NONE', ( #109, #92, #91, #47 ) ) ;
#126 = VECTOR ( 'NONE', #7, 1000.000000000000000 ) ;
#127 = ORIENTED_EDGE ( 'NONE', *, *, #235, .T. ) ;
#128 = DIRECTION ( 'NONE',  ( -0.000000000000000000, 1.000000000000000000, -0.000000000000000000 ) ) ;
#129 = EDGE_CURVE ( 'NONE', #194, #196, #236, .T. ) ;
#130 = CARTESIAN_POINT ( 'NONE',  ( -43.00000000000005684, -1.000000000000000888, 3.000000000000000000 ) ) ;
#131 = EDGE_LOOP ( 'NONE', ( #52, #71, #6, #29 ) ) ;
#132 = LINE ( 'NONE', #220, #40 ) ;
#133 = DIRECTION ( 'NONE',  ( -0.000000000000000000, -0.000000000000000000, -1.000000000000000000 ) ) ;
#134 = CARTESIAN_POINT ( 'NONE',  ( 0.000000000000000000, 0.000000000000000000, 0.000000000000000000 ) ) ;
#135 = ORIENTED_EDGE ( 'NONE', *, *, #4, .F. ) ;
#136 = PRODUCT_DEFINITION ( 'UNKNOWN', '', #88, #122 ) ;
#137 = PERSON_AND_ORGANIZATION ( #78, #158 ) ;
#138 = CARTESIAN_POINT ( 'NONE',  ( -43.00000000000005684, 0.9999999999999991118, 3.000000000000000000 ) ) ;
#139 = AXIS2_PLACEMENT_3D ( 'NONE', #149, #22, #77 ) ;
#140 =( GEOMETRIC_REPRESENTATION_CONTEXT ( 3 ) GLOBAL_UNCERTAINTY_ASSIGNED_CONTEXT ( ( #82 ) ) GLOBAL_UNIT_ASSIGNED_CONTEXT ( ( #100, #81, #173 ) ) REPRESENTATION_CONTEXT ( 'NONE', 'WORKASPACE' ) );
#141 = FACE_OUTER_BOUND ( 'NONE', #131, .T. ) ;
#142 = APPROVAL ( #208, 'UNSPECIFIED' ) ;
#143 = ORIENTED_EDGE ( 'NONE', *, *, #225, .F. ) ;
#144 = LINE ( 'NONE', #160, #213 ) ;
#145 = CARTESIAN_POINT ( 'NONE',  ( -43.00000000000005684, -1.000000000000000888, 3.000000000000000000 ) ) ;
#146 = CARTESIAN_POINT ( 'NONE',  ( -43.00000000000005684, 0.9999999999999991118, 3.000000000000000000 ) ) ;
#147 = VECTOR ( 'NONE', #209, 1000.000000000000000 ) ;
#148 = CARTESIAN_POINT ( 'NONE',  ( -43.00000000000005684, -1.000000000000000888, 3.000000000000000000 ) ) ;
#149 = CARTESIAN_POINT ( 'NONE',  ( 0.000000000000000000, 0.000000000000000000, 3.000000000000000000 ) ) ;
#150 = DIRECTION ( 'NONE',  ( 1.000000000000000000, 0.000000000000000000, 0.000000000000000000 ) ) ;
#151 = VECTOR ( 'NONE', #19, 1000.000000000000000 ) ;
#152 = CARTESIAN_POINT ( 'NONE',  ( 42.99999999999993605, 0.9999999999999991118, 3.000000000000000000 ) ) ;
#153 = EDGE_CURVE ( 'NONE', #196, #215, #74, .T. ) ;
#154 = MECHANICAL_CONTEXT ( 'NONE', #170, 'mechanical' ) ;
#155 = DATE_AND_TIME ( #11, #111 ) ;
#156 = SECURITY_CLASSIFICATION_LEVEL ( 'unclassified' ) ;
#157 = DATE_AND_TIME ( #63, #45 ) ;
#158 = ORGANIZATION ( 'UNSPECIFIED', 'UNSPECIFIED', '' ) ;
#159 = ORIENTED_EDGE ( 'NONE', *, *, #176, .T. ) ;
#160 = CARTESIAN_POINT ( 'NONE',  ( -43.00000000000005684, 0.9999999999999991118, 3.000000000000000000 ) ) ;
#161 = EDGE_CURVE ( 'NONE', #218, #188, #221, .T. ) ;
#162 = EDGE_LOOP ( 'NONE', ( #178, #234, #39, #90 ) ) ;
#163 = LINE ( 'NONE', #146, #126 ) ;
#164 = DIRECTION ( 'NONE',  ( 0.000000000000000000, -0.000000000000000000, 1.000000000000000000 ) ) ;
#165 = CARTESIAN_POINT ( 'NONE',  ( -43.00000000000005684, 0.9999999999999991118, 3.000000000000000000 ) ) ;
#166 = DIRECTION ( 'NONE',  ( -1.000000000000000000, -0.000000000000000000, -0.000000000000000000 ) ) ;
#167 = ORIENTED_EDGE ( 'NONE', *, *, #153, .F. ) ;
#168 = CARTESIAN_POINT ( 'NONE',  ( -43.00000000000005684, -1.000000000000000888, 0.000000000000000000 ) ) ;
#169 = ORIENTED_EDGE ( 'NONE', *, *, #124, .F. ) ;
#170 = APPLICATION_CONTEXT ( 'configuration controlled 3d designs of mechanical parts and assemblies' ) ;
#171 = COORDINATED_UNIVERSAL_TIME_OFFSET ( 5, 30, .AHEAD. ) ;
#172 = PERSON_AND_ORGANIZATION ( #78, #158 ) ;
#173 =( NAMED_UNIT ( * ) SI_UNIT ( $, .STERADIAN. ) SOLID_ANGLE_UNIT ( ) );
#174 = COORDINATED_UNIVERSAL_TIME_OFFSET ( 5, 30, .AHEAD. ) ;
#175 = PERSON_AND_ORGANIZATION_ROLE ( 'design_owner' ) ;
#176 = EDGE_CURVE ( 'NONE', #48, #218, #184, .T. ) ;
#177 = VECTOR ( 'NONE', #2, 1000.000000000000000 ) ;
#178 = ORIENTED_EDGE ( 'NONE', *, *, #115, .T. ) ;
#179 = EDGE_LOOP ( 'NONE', ( #127, #167, #70, #121 ) ) ;
#180 = APPROVAL_DATE_TIME ( #233, #222 ) ;
#181 = PLANE ( 'NONE',  #53 ) ;
#182 = DIRECTION ( 'NONE',  ( 0.000000000000000000, 0.000000000000000000, 1.000000000000000000 ) ) ;
#183 = LINE ( 'NONE', #56, #151 ) ;
#184 = LINE ( 'NONE', #165, #106 ) ;
#185 = DIRECTION ( 'NONE',  ( -1.000000000000000000, 0.000000000000000000, 0.000000000000000000 ) ) ;
#186 = ADVANCED_FACE ( 'NONE', ( #204 ), #237, .F. ) ;
#187 = CARTESIAN_POINT ( 'NONE',  ( 42.99999999999993605, 0.9999999999999991118, 3.000000000000000000 ) ) ;
#188 = VERTEX_POINT ( 'NONE', #168 ) ;
#189 = DIRECTION ( 'NONE',  ( 0.000000000000000000, 0.000000000000000000, 1.000000000000000000 ) ) ;
#190 = LOCAL_TIME ( 2, 40, 21.00000000000000000, #171 ) ;
#191 = APPROVAL_PERSON_ORGANIZATION ( #137, #222, #30 ) ;
#192 = APPLICATION_PROTOCOL_DEFINITION ( 'international standard', 'config_control_design', 1994, #170 ) ;
#193 = PERSON_AND_ORGANIZATION_ROLE ( 'design_supplier' ) ;
#194 = VERTEX_POINT ( 'NONE', #72 ) ;
#195 = CC_DESIGN_PERSON_AND_ORGANIZATION_ASSIGNMENT ( #25, #175, ( #102 ) ) ;
#196 = VERTEX_POINT ( 'NONE', #21 ) ;
#197 = DIRECTION ( 'NONE',  ( -1.000000000000000000, -0.000000000000000000, -0.000000000000000000 ) ) ;
#198 = EDGE_LOOP ( 'NONE', ( #13, #169, #143, #159 ) ) ;
#199 = ORIENTED_EDGE ( 'NONE', *, *, #93, .T. ) ;
#200 = CC_DESIGN_SECURITY_CLASSIFICATION ( #61, ( #88 ) ) ;
#201 = LINE ( 'NONE', #37, #177 ) ;
#202 = VECTOR ( 'NONE', #166, 1000.000000000000000 ) ;
#203 = CC_DESIGN_DATE_AND_TIME_ASSIGNMENT ( #46, #210, ( #136 ) ) ;
#204 = FACE_OUTER_BOUND ( 'NONE', #179, .T. ) ;
#205 = DIRECTION ( 'NONE',  ( -0.000000000000000000, -0.000000000000000000, -1.000000000000000000 ) ) ;
#206 = PERSON_AND_ORGANIZATION ( #78, #158 ) ;
#207 = VECTOR ( 'NONE', #114, 1000.000000000000000 ) ;
#208 = APPROVAL_STATUS ( 'not_yet_approved' ) ;
#209 = DIRECTION ( 'NONE',  ( -0.000000000000000000, 1.000000000000000000, -0.000000000000000000 ) ) ;
#210 = DATE_TIME_ROLE ( 'creation_date' ) ;
#211 = CC_DESIGN_PERSON_AND_ORGANIZATION_ASSIGNMENT ( #206, #62, ( #88 ) ) ;
#212 = PERSON_AND_ORGANIZATION ( #78, #158 ) ;
#213 = VECTOR ( 'NONE', #197, 1000.000000000000000 ) ;
#214 = PLANE ( 'NONE',  #8 ) ;
#215 = VERTEX_POINT ( 'NONE', #18 ) ;
#216 = DIRECTION ( 'NONE',  ( 1.000000000000000000, 0.000000000000000000, -0.000000000000000000 ) ) ;
#217 = APPROVAL_PERSON_ORGANIZATION ( #103, #16, #223 ) ;
#218 = VERTEX_POINT ( 'NONE', #94 ) ;
#219 = MANIFOLD_SOLID_BREP ( 'Boss-Extrude1', #49 ) ;
#220 = CARTESIAN_POINT ( 'NONE',  ( -43.00000000000005684, -1.000000000000000888, 3.000000000000000000 ) ) ;
#221 = LINE ( 'NONE', #116, #207 ) ;
#222 = APPROVAL ( #12, 'UNSPECIFIED' ) ;
#223 = APPROVAL_ROLE ( '' ) ;
#224 = APPROVAL_DATE_TIME ( #155, #16 ) ;
#225 = EDGE_CURVE ( 'NONE', #48, #27, #163, .T. ) ;
#226 = LINE ( 'NONE', #44, #147 ) ;
#227 = DATE_TIME_ROLE ( 'classification_date' ) ;
#228 = AXIS2_PLACEMENT_3D ( 'NONE', #148, #41, #164 ) ;
#229 = DIRECTION ( 'NONE',  ( 1.000000000000000000, 0.000000000000000000, 0.000000000000000000 ) ) ;
#230 = FACE_OUTER_BOUND ( 'NONE', #198, .T. ) ;
#231 = VECTOR ( 'NONE', #150, 1000.000000000000000 ) ;
#232 = LOCAL_TIME ( 2, 40, 21.00000000000000000, #174 ) ;
#233 = DATE_AND_TIME ( #33, #89 ) ;
#234 = ORIENTED_EDGE ( 'NONE', *, *, #86, .F. ) ;
#235 = EDGE_CURVE ( 'NONE', #20, #215, #226, .T. ) ;
#236 = LINE ( 'NONE', #152, #26 ) ;
#237 = PLANE ( 'NONE',  #9 ) ;
ENDSEC;
END-ISO-10303-21;
