ISO-10303-21;
HEADER;
FILE_DESCRIPTION (( 'STEP AP203' ),
    '1' );
FILE_NAME ('SuppoertBase_Default_sldprt.STEP',
    '2026-08-23T21:10:22',
    ( '' ),
    ( '' ),
    'SwSTEP 2.0',
    'SolidWorks 2020',
    '' );
FILE_SCHEMA (( 'CONFIG_CONTROL_DESIGN' ));
ENDSEC;

DATA;
#1 = ORIENTED_EDGE ( 'NONE', *, *, #46, .F. ) ;
#2 = CALENDAR_DATE ( 2026, 24, 8 ) ;
#3 = VERTEX_POINT ( 'NONE', #21 ) ;
#4 = CALENDAR_DATE ( 2026, 24, 8 ) ;
#5 = AXIS2_PLACEMENT_3D ( 'NONE', #202, #306, #78 ) ;
#6 = CARTESIAN_POINT ( 'NONE',  ( -30.00000000000000000, 0.000000000000000000, 30.00000000000000000 ) ) ;
#7 = ADVANCED_FACE ( 'NONE', ( #83 ), #210, .F. ) ;
#8 = LINE ( 'NONE', #38, #14 ) ;
#9 = DIRECTION ( 'NONE',  ( 0.000000000000000000, 0.000000000000000000, 1.000000000000000000 ) ) ;
#10 = PERSON_AND_ORGANIZATION ( #116, #113 ) ;
#11 = ADVANCED_FACE ( 'NONE', ( #243 ), #165, .T. ) ;
#12 = CIRCLE ( 'NONE', #170, 7.500000000000000000 ) ;
#13 = LINE ( 'NONE', #6, #29 ) ;
#14 = VECTOR ( 'NONE', #72, 1000.000000000000000 ) ;
#15 = DIRECTION ( 'NONE',  ( -0.000000000000000000, -0.000000000000000000, 1.000000000000000000 ) ) ;
#16 = CARTESIAN_POINT ( 'NONE',  ( -30.00000000000000000, 0.000000000000000000, 20.00000000000000000 ) ) ;
#17 = AXIS2_PLACEMENT_3D ( 'NONE', #181, #144, #201 ) ;
#18 = DIRECTION ( 'NONE',  ( 0.000000000000000000, 0.000000000000000000, 1.000000000000000000 ) ) ;
#19 = ORIENTED_EDGE ( 'NONE', *, *, #275, .F. ) ;
#20 = DIRECTION ( 'NONE',  ( -1.000000000000000000, 0.000000000000000000, 0.000000000000000000 ) ) ;
#21 = CARTESIAN_POINT ( 'NONE',  ( -50.00000000000000000, 0.000000000000000000, 0.000000000000000000 ) ) ;
#22 = CARTESIAN_POINT ( 'NONE',  ( 0.000000000000000000, 0.000000000000000000, 20.00000000000000000 ) ) ;
#23 = CIRCLE ( 'NONE', #327, 50.00000000000000000 ) ;
#24 = DIRECTION ( 'NONE',  ( 0.000000000000000000, 0.000000000000000000, 1.000000000000000000 ) ) ;
#25 = CC_DESIGN_PERSON_AND_ORGANIZATION_ASSIGNMENT ( #294, #66, ( #178 ) ) ;
#26 = EDGE_LOOP ( 'NONE', ( #331, #288, #54, #216 ) ) ;
#27 = FACE_OUTER_BOUND ( 'NONE', #212, .T. ) ;
#28 = ORIENTED_EDGE ( 'NONE', *, *, #111, .F. ) ;
#29 = VECTOR ( 'NONE', #164, 1000.000000000000000 ) ;
#30 = EDGE_CURVE ( 'NONE', #235, #189, #13, .T. ) ;
#31 = SECURITY_CLASSIFICATION_LEVEL ( 'unclassified' ) ;
#32 = SECURITY_CLASSIFICATION ( '', '', #31 ) ;
#33 = CARTESIAN_POINT ( 'NONE',  ( 0.000000000000000000, 0.000000000000000000, 19.99999999999999645 ) ) ;
#34 = PERSON_AND_ORGANIZATION ( #116, #113 ) ;
#35 = EDGE_CURVE ( 'NONE', #160, #230, #300, .T. ) ;
#36 = CARTESIAN_POINT ( 'NONE',  ( -7.500000000000000000, 9.184850993605147944E-16, 19.99999999999999645 ) ) ;
#37 = AXIS2_PLACEMENT_3D ( 'NONE', #127, #326, #20 ) ;
#38 = CARTESIAN_POINT ( 'NONE',  ( 50.00000000000000000, 6.123233995736766085E-15, 20.00000000000000000 ) ) ;
#39 = EDGE_CURVE ( 'NONE', #230, #133, #167, .T. ) ;
#40 = AXIS2_PLACEMENT_3D ( 'NONE', #241, #267, #274 ) ;
#41 = PERSON_AND_ORGANIZATION ( #116, #113 ) ;
#42 = CARTESIAN_POINT ( 'NONE',  ( 0.000000000000000000, 0.000000000000000000, 20.00000000000000000 ) ) ;
#43 = DESIGN_CONTEXT ( 'detailed design', #45, 'design' ) ;
#44 = CARTESIAN_POINT ( 'NONE',  ( 0.000000000000000000, 0.000000000000000000, 30.00000000000000000 ) ) ;
#45 = APPLICATION_CONTEXT ( 'configuration controlled 3d designs of mechanical parts and assemblies' ) ;
#46 = EDGE_CURVE ( 'NONE', #133, #333, #253, .T. ) ;
#47 = APPLICATION_PROTOCOL_DEFINITION ( 'international standard', 'config_control_design', 1994, #211 ) ;
#48 = DIRECTION ( 'NONE',  ( 1.000000000000000000, 0.000000000000000000, 0.000000000000000000 ) ) ;
#49 = AXIS2_PLACEMENT_3D ( 'NONE', #67, #185, #58 ) ;
#50 =( NAMED_UNIT ( * ) PLANE_ANGLE_UNIT ( ) SI_UNIT ( $, .RADIAN. ) );
#51 = AXIS2_PLACEMENT_3D ( 'NONE', #22, #87, #193 ) ;
#52 = ORIENTED_EDGE ( 'NONE', *, *, #252, .T. ) ;
#53 = CARTESIAN_POINT ( 'NONE',  ( 7.500000000000000000, 0.000000000000000000, 19.99999999999999645 ) ) ;
#54 = ORIENTED_EDGE ( 'NONE', *, *, #150, .T. ) ;
#55 = EDGE_LOOP ( 'NONE', ( #183, #153 ) ) ;
#56 = FACE_OUTER_BOUND ( 'NONE', #55, .T. ) ;
#57 = ORIENTED_EDGE ( 'NONE', *, *, #35, .T. ) ;
#58 = DIRECTION ( 'NONE',  ( 1.000000000000000000, 0.000000000000000000, -0.000000000000000000 ) ) ;
#59 = ORIENTED_EDGE ( 'NONE', *, *, #104, .T. ) ;
#60 = APPROVAL_PERSON_ORGANIZATION ( #107, #121, #264 ) ;
#61 = EDGE_LOOP ( 'NONE', ( #154, #254, #109, #335 ) ) ;
#62 = DATE_AND_TIME ( #75, #151 ) ;
#63 = CARTESIAN_POINT ( 'NONE',  ( 50.00000000000000000, 6.123233995736766085E-15, 20.00000000000000000 ) ) ;
#64 = ORIENTED_EDGE ( 'NONE', *, *, #73, .T. ) ;
#65 = DIRECTION ( 'NONE',  ( 0.000000000000000000, 0.000000000000000000, 1.000000000000000000 ) ) ;
#66 = PERSON_AND_ORGANIZATION_ROLE ( 'creator' ) ;
#67 = CARTESIAN_POINT ( 'NONE',  ( 0.000000000000000000, 0.000000000000000000, 19.99999999999999645 ) ) ;
#68 = CC_DESIGN_SECURITY_CLASSIFICATION ( #32, ( #178 ) ) ;
#69 = DIRECTION ( 'NONE',  ( -0.000000000000000000, -0.000000000000000000, -1.000000000000000000 ) ) ;
#70 = CALENDAR_DATE ( 2026, 24, 8 ) ;
#71 = ADVANCED_BREP_SHAPE_REPRESENTATION ( 'SuppoertBase_Default_sldprt', ( #222, #5 ), #215 ) ;
#72 = DIRECTION ( 'NONE',  ( -0.000000000000000000, -0.000000000000000000, -1.000000000000000000 ) ) ;
#73 = EDGE_CURVE ( 'NONE', #189, #184, #299, .T. ) ;
#74 = DIRECTION ( 'NONE',  ( 1.000000000000000000, 0.000000000000000000, 0.000000000000000000 ) ) ;
#75 = CALENDAR_DATE ( 2026, 24, 8 ) ;
#76 = DATE_AND_TIME ( #221, #277 ) ;
#77 = FACE_BOUND ( 'NONE', #255, .T. ) ;
#78 = DIRECTION ( 'NONE',  ( 1.000000000000000000, 0.000000000000000000, 0.000000000000000000 ) ) ;
#79 = FACE_OUTER_BOUND ( 'NONE', #182, .T. ) ;
#80 = EDGE_LOOP ( 'NONE', ( #180, #158 ) ) ;
#81 = VECTOR ( 'NONE', #232, 1000.000000000000000 ) ;
#82 = DIRECTION ( 'NONE',  ( 0.000000000000000000, 0.000000000000000000, 1.000000000000000000 ) ) ;
#83 = FACE_OUTER_BOUND ( 'NONE', #61, .T. ) ;
#84 = ORIENTED_EDGE ( 'NONE', *, *, #94, .T. ) ;
#85 = AXIS2_PLACEMENT_3D ( 'NONE', #228, #200, #203 ) ;
#86 = CARTESIAN_POINT ( 'NONE',  ( 0.000000000000000000, 0.000000000000000000, 0.000000000000000000 ) ) ;
#87 = DIRECTION ( 'NONE',  ( 0.000000000000000000, 0.000000000000000000, 1.000000000000000000 ) ) ;
#88 = CARTESIAN_POINT ( 'NONE',  ( 0.000000000000000000, 0.000000000000000000, 30.00000000000000000 ) ) ;
#89 = COORDINATED_UNIVERSAL_TIME_OFFSET ( 5, 30, .AHEAD. ) ;
#90 = LOCAL_TIME ( 2, 40, 22.00000000000000000, #89 ) ;
#91 = PRODUCT_DEFINITION ( 'UNKNOWN', '', #178, #43 ) ;
#92 = DIRECTION ( 'NONE',  ( -1.000000000000000000, 0.000000000000000000, 0.000000000000000000 ) ) ;
#93 = SHAPE_DEFINITION_REPRESENTATION ( #126, #71 ) ;
#94 = EDGE_CURVE ( 'NONE', #230, #160, #135, .T. ) ;
#95 = CIRCLE ( 'NONE', #291, 30.00000000000000000 ) ;
#96 = COORDINATED_UNIVERSAL_TIME_OFFSET ( 5, 30, .AHEAD. ) ;
#97 = DIRECTION ( 'NONE',  ( 1.000000000000000000, 0.000000000000000000, 0.000000000000000000 ) ) ;
#98 = LOCAL_TIME ( 2, 40, 22.00000000000000000, #219 ) ;
#99 = APPROVAL_STATUS ( 'not_yet_approved' ) ;
#100 = FACE_OUTER_BOUND ( 'NONE', #80, .T. ) ;
#101 = EDGE_LOOP ( 'NONE', ( #84, #57 ) ) ;
#102 = CARTESIAN_POINT ( 'NONE',  ( 30.00000000000000000, 3.673940397442059178E-15, 30.00000000000000000 ) ) ;
#103 = EDGE_LOOP ( 'NONE', ( #1, #132 ) ) ;
#104 = EDGE_CURVE ( 'NONE', #160, #333, #114, .T. ) ;
#105 = ADVANCED_FACE ( 'NONE', ( #56 ), #332, .F. ) ;
#106 = AXIS2_PLACEMENT_3D ( 'NONE', #318, #142, #257 ) ;
#107 = PERSON_AND_ORGANIZATION ( #116, #113 ) ;
#108 = DIRECTION ( 'NONE',  ( 0.000000000000000000, 0.000000000000000000, 1.000000000000000000 ) ) ;
#109 = ORIENTED_EDGE ( 'NONE', *, *, #39, .T. ) ;
#110 = ORIENTED_EDGE ( 'NONE', *, *, #73, .F. ) ;
#111 = EDGE_CURVE ( 'NONE', #184, #189, #316, .T. ) ;
#112 = ORIENTED_EDGE ( 'NONE', *, *, #161, .F. ) ;
#113 = ORGANIZATION ( 'UNSPECIFIED', 'UNSPECIFIED', '' ) ;
#114 = LINE ( 'NONE', #155, #81 ) ;
#115 = DIRECTION ( 'NONE',  ( 1.000000000000000000, 0.000000000000000000, 0.000000000000000000 ) ) ;
#116 = PERSON ( 'UNSPECIFIED', 'UNSPECIFIED', 'UNSPECIFIED', ('UNSPECIFIED'), ('UNSPECIFIED'), ('UNSPECIFIED') ) ;
#117 = CC_DESIGN_DATE_AND_TIME_ASSIGNMENT ( #166, #301, ( #32 ) ) ;
#118 = APPROVAL_DATE_TIME ( #195, #198 ) ;
#119 = COORDINATED_UNIVERSAL_TIME_OFFSET ( 5, 30, .AHEAD. ) ;
#120 = EDGE_CURVE ( 'NONE', #156, #292, #226, .T. ) ;
#121 = APPROVAL ( #99, 'UNSPECIFIED' ) ;
#122 = AXIS2_PLACEMENT_3D ( 'NONE', #295, #65, #278 ) ;
#123 = CARTESIAN_POINT ( 'NONE',  ( 0.000000000000000000, 0.000000000000000000, 30.00000000000000000 ) ) ;
#124 = APPROVAL_ROLE ( '' ) ;
#125 = LINE ( 'NONE', #225, #128 ) ;
#126 = PRODUCT_DEFINITION_SHAPE ( 'NONE', 'NONE',  #91 ) ;
#127 = CARTESIAN_POINT ( 'NONE',  ( 0.000000000000000000, 0.000000000000000000, 30.00000000000000000 ) ) ;
#128 = VECTOR ( 'NONE', #148, 1000.000000000000000 ) ;
#129 = PERSON_AND_ORGANIZATION ( #116, #113 ) ;
#130 = DIRECTION ( 'NONE',  ( -1.000000000000000000, 0.000000000000000000, 0.000000000000000000 ) ) ;
#131 = ADVANCED_FACE ( 'NONE', ( #143 ), #194, .T. ) ;
#132 = ORIENTED_EDGE ( 'NONE', *, *, #281, .F. ) ;
#133 = VERTEX_POINT ( 'NONE', #262 ) ;
#134 = EDGE_LOOP ( 'NONE', ( #112, #19, #186, #207 ) ) ;
#135 = CIRCLE ( 'NONE', #323, 7.500000000000000000 ) ;
#136 = DIRECTION ( 'NONE',  ( -0.000000000000000000, -0.000000000000000000, 1.000000000000000000 ) ) ;
#137 = AXIS2_PLACEMENT_3D ( 'NONE', #261, #136, #138 ) ;
#138 = DIRECTION ( 'NONE',  ( 1.000000000000000000, 0.000000000000000000, 0.000000000000000000 ) ) ;
#139 = LOCAL_TIME ( 2, 40, 22.00000000000000000, #237 ) ;
#140 = CARTESIAN_POINT ( 'NONE',  ( 0.000000000000000000, 0.000000000000000000, 30.00000000000000000 ) ) ;
#141 = PERSON_AND_ORGANIZATION_ROLE ( 'creator' ) ;
#142 = DIRECTION ( 'NONE',  ( 0.000000000000000000, 0.000000000000000000, 1.000000000000000000 ) ) ;
#143 = FACE_OUTER_BOUND ( 'NONE', #101, .T. ) ;
#144 = DIRECTION ( 'NONE',  ( 0.000000000000000000, 0.000000000000000000, 1.000000000000000000 ) ) ;
#145 = PLANE ( 'NONE',  #85 ) ;
#146 = CC_DESIGN_PERSON_AND_ORGANIZATION_ASSIGNMENT ( #129, #227, ( #171 ) ) ;
#147 = CARTESIAN_POINT ( 'NONE',  ( 30.00000000000000000, 3.673940397442059178E-15, 30.00000000000000000 ) ) ;
#148 = DIRECTION ( 'NONE',  ( -0.000000000000000000, -0.000000000000000000, -1.000000000000000000 ) ) ;
#149 = MECHANICAL_CONTEXT ( 'NONE', #211, 'mechanical' ) ;
#150 = EDGE_CURVE ( 'NONE', #265, #3, #242, .T. ) ;
#151 = LOCAL_TIME ( 2, 40, 22.00000000000000000, #96 ) ;
#152 = DIRECTION ( 'NONE',  ( 0.000000000000000000, 0.000000000000000000, 1.000000000000000000 ) ) ;
#153 = ORIENTED_EDGE ( 'NONE', *, *, #150, .F. ) ;
#154 = ORIENTED_EDGE ( 'NONE', *, *, #104, .F. ) ;
#155 = CARTESIAN_POINT ( 'NONE',  ( -7.500000000000000000, 9.184850993605147944E-16, 19.99999999999999645 ) ) ;
#156 = VERTEX_POINT ( 'NONE', #63 ) ;
#157 = AXIS2_PLACEMENT_3D ( 'NONE', #86, #24, #314 ) ;
#158 = ORIENTED_EDGE ( 'NONE', *, *, #120, .T. ) ;
#159 = ADVANCED_FACE ( 'NONE', ( #290, #27 ), #238, .T. ) ;
#160 = VERTEX_POINT ( 'NONE', #36 ) ;
#161 = EDGE_CURVE ( 'NONE', #156, #265, #8, .T. ) ;
#162 = AXIS2_PLACEMENT_3D ( 'NONE', #247, #15, #48 ) ;
#163 = CLOSED_SHELL ( 'NONE', ( #286, #11, #168, #179, #175, #105, #334, #159, #7, #131 ) ) ;
#164 = DIRECTION ( 'NONE',  ( -0.000000000000000000, -0.000000000000000000, -1.000000000000000000 ) ) ;
#165 = CYLINDRICAL_SURFACE ( 'NONE', #305, 30.00000000000000000 ) ;
#166 = DATE_AND_TIME ( #70, #90 ) ;
#167 = LINE ( 'NONE', #53, #248 ) ;
#168 = ADVANCED_FACE ( 'NONE', ( #324 ), #174, .T. ) ;
#169 = AXIS2_PLACEMENT_3D ( 'NONE', #173, #307, #308 ) ;
#170 = AXIS2_PLACEMENT_3D ( 'NONE', #44, #18, #74 ) ;
#171 = PRODUCT ( 'SuppoertBase_Default_sldprt', 'SuppoertBase_Default_sldprt', '', ( #149 ) ) ;
#172 = DIRECTION ( 'NONE',  ( -0.000000000000000000, -0.000000000000000000, -1.000000000000000000 ) ) ;
#173 = CARTESIAN_POINT ( 'NONE',  ( 0.000000000000000000, 0.000000000000000000, 30.00000000000000000 ) ) ;
#174 = CYLINDRICAL_SURFACE ( 'NONE', #263, 50.00000000000000000 ) ;
#175 = ADVANCED_FACE ( 'NONE', ( #77, #100 ), #145, .T. ) ;
#176 = UNCERTAINTY_MEASURE_WITH_UNIT (LENGTH_MEASURE( 1.000000000000000082E-05 ), #250, 'distance_accuracy_value', 'NONE');
#177 = FACE_OUTER_BOUND ( 'NONE', #134, .T. ) ;
#178 = PRODUCT_DEFINITION_FORMATION_WITH_SPECIFIED_SOURCE ( 'ANY', '', #171, .NOT_KNOWN. ) ;
#179 = ADVANCED_FACE ( 'NONE', ( #177 ), #280, .T. ) ;
#180 = ORIENTED_EDGE ( 'NONE', *, *, #275, .T. ) ;
#181 = CARTESIAN_POINT ( 'NONE',  ( 0.000000000000000000, 0.000000000000000000, 20.00000000000000000 ) ) ;
#182 = EDGE_LOOP ( 'NONE', ( #236, #59, #233, #293 ) ) ;
#183 = ORIENTED_EDGE ( 'NONE', *, *, #191, .F. ) ;
#184 = VERTEX_POINT ( 'NONE', #249 ) ;
#185 = DIRECTION ( 'NONE',  ( 0.000000000000000000, 0.000000000000000000, 1.000000000000000000 ) ) ;
#186 = ORIENTED_EDGE ( 'NONE', *, *, #289, .T. ) ;
#187 = VECTOR ( 'NONE', #172, 1000.000000000000000 ) ;
#188 = PERSON_AND_ORGANIZATION ( #116, #113 ) ;
#189 = VERTEX_POINT ( 'NONE', #16 ) ;
#190 = DATE_AND_TIME ( #2, #139 ) ;
#191 = EDGE_CURVE ( 'NONE', #3, #265, #23, .T. ) ;
#192 = CC_DESIGN_PERSON_AND_ORGANIZATION_ASSIGNMENT ( #10, #296, ( #32 ) ) ;
#193 = DIRECTION ( 'NONE',  ( 1.000000000000000000, 0.000000000000000000, 0.000000000000000000 ) ) ;
#194 = PLANE ( 'NONE',  #49 ) ;
#195 = DATE_AND_TIME ( #4, #98 ) ;
#196 = DIRECTION ( 'NONE',  ( 1.000000000000000000, 0.000000000000000000, 0.000000000000000000 ) ) ;
#197 = DIRECTION ( 'NONE',  ( 1.000000000000000000, 0.000000000000000000, 0.000000000000000000 ) ) ;
#198 = APPROVAL ( #217, 'UNSPECIFIED' ) ;
#199 = AXIS2_PLACEMENT_3D ( 'NONE', #244, #108, #260 ) ;
#200 = DIRECTION ( 'NONE',  ( 0.000000000000000000, 0.000000000000000000, 1.000000000000000000 ) ) ;
#201 = DIRECTION ( 'NONE',  ( 1.000000000000000000, 0.000000000000000000, 0.000000000000000000 ) ) ;
#202 = CARTESIAN_POINT ( 'NONE',  ( 0.000000000000000000, 0.000000000000000000, 0.000000000000000000 ) ) ;
#203 = DIRECTION ( 'NONE',  ( 1.000000000000000000, 0.000000000000000000, -0.000000000000000000 ) ) ;
#204 = CARTESIAN_POINT ( 'NONE',  ( 7.500000000000000000, 0.000000000000000000, 19.99999999999999645 ) ) ;
#205 = FACE_OUTER_BOUND ( 'NONE', #317, .T. ) ;
#206 = CARTESIAN_POINT ( 'NONE',  ( 0.000000000000000000, 0.000000000000000000, 20.00000000000000000 ) ) ;
#207 = ORIENTED_EDGE ( 'NONE', *, *, #191, .T. ) ;
#208 = CC_DESIGN_APPROVAL ( #303, ( #32 ) ) ;
#209 = ORIENTED_EDGE ( 'NONE', *, *, #111, .T. ) ;
#210 = CYLINDRICAL_SURFACE ( 'NONE', #137, 7.500000000000000000 ) ;
#211 = APPLICATION_CONTEXT ( 'configuration controlled 3d designs of mechanical parts and assemblies' ) ;
#212 = EDGE_LOOP ( 'NONE', ( #52, #330 ) ) ;
#213 = ORIENTED_EDGE ( 'NONE', *, *, #272, .F. ) ;
#214 = DATE_TIME_ROLE ( 'creation_date' ) ;
#215 =( GEOMETRIC_REPRESENTATION_CONTEXT ( 3 ) GLOBAL_UNCERTAINTY_ASSIGNED_CONTEXT ( ( #176 ) ) GLOBAL_UNIT_ASSIGNED_CONTEXT ( ( #250, #50, #231 ) ) REPRESENTATION_CONTEXT ( 'NONE', 'WORKASPACE' ) );
#216 = ORIENTED_EDGE ( 'NONE', *, *, #289, .F. ) ;
#217 = APPROVAL_STATUS ( 'not_yet_approved' ) ;
#218 = CC_DESIGN_APPROVAL ( #198, ( #178 ) ) ;
#219 = COORDINATED_UNIVERSAL_TIME_OFFSET ( 5, 30, .AHEAD. ) ;
#220 = DIRECTION ( 'NONE',  ( -0.000000000000000000, -0.000000000000000000, 1.000000000000000000 ) ) ;
#221 = CALENDAR_DATE ( 2026, 24, 8 ) ;
#222 = MANIFOLD_SOLID_BREP ( 'Cut-Extrude1', #163 ) ;
#223 = AXIS2_PLACEMENT_3D ( 'NONE', #140, #320, #196 ) ;
#224 = DIRECTION ( 'NONE',  ( 1.000000000000000000, 0.000000000000000000, 0.000000000000000000 ) ) ;
#225 = CARTESIAN_POINT ( 'NONE',  ( -50.00000000000000000, 0.000000000000000000, 20.00000000000000000 ) ) ;
#226 = CIRCLE ( 'NONE', #122, 50.00000000000000000 ) ;
#227 = PERSON_AND_ORGANIZATION_ROLE ( 'design_owner' ) ;
#228 = CARTESIAN_POINT ( 'NONE',  ( 0.000000000000000000, 0.000000000000000000, 20.00000000000000000 ) ) ;
#229 = ORIENTED_EDGE ( 'NONE', *, *, #30, .T. ) ;
#230 = VERTEX_POINT ( 'NONE', #204 ) ;
#231 =( NAMED_UNIT ( * ) SI_UNIT ( $, .STERADIAN. ) SOLID_ANGLE_UNIT ( ) );
#232 = DIRECTION ( 'NONE',  ( -0.000000000000000000, -0.000000000000000000, 1.000000000000000000 ) ) ;
#233 = ORIENTED_EDGE ( 'NONE', *, *, #281, .T. ) ;
#234 = CC_DESIGN_PERSON_AND_ORGANIZATION_ASSIGNMENT ( #34, #141, ( #91 ) ) ;
#235 = VERTEX_POINT ( 'NONE', #251 ) ;
#236 = ORIENTED_EDGE ( 'NONE', *, *, #35, .F. ) ;
#237 = COORDINATED_UNIVERSAL_TIME_OFFSET ( 5, 30, .AHEAD. ) ;
#238 = PLANE ( 'NONE',  #40 ) ;
#239 = VERTEX_POINT ( 'NONE', #102 ) ;
#240 = APPROVAL_ROLE ( '' ) ;
#241 = CARTESIAN_POINT ( 'NONE',  ( 0.000000000000000000, 0.000000000000000000, 30.00000000000000000 ) ) ;
#242 = CIRCLE ( 'NONE', #157, 50.00000000000000000 ) ;
#243 = FACE_OUTER_BOUND ( 'NONE', #313, .T. ) ;
#244 = CARTESIAN_POINT ( 'NONE',  ( 0.000000000000000000, 0.000000000000000000, 0.000000000000000000 ) ) ;
#245 = APPROVAL_PERSON_ORGANIZATION ( #188, #198, #240 ) ;
#246 = CC_DESIGN_PERSON_AND_ORGANIZATION_ASSIGNMENT ( #269, #319, ( #178 ) ) ;
#247 = CARTESIAN_POINT ( 'NONE',  ( 0.000000000000000000, 0.000000000000000000, 19.99999999999999645 ) ) ;
#248 = VECTOR ( 'NONE', #220, 1000.000000000000000 ) ;
#249 = CARTESIAN_POINT ( 'NONE',  ( 30.00000000000000000, 3.673940397442059178E-15, 20.00000000000000000 ) ) ;
#250 =( LENGTH_UNIT ( ) NAMED_UNIT ( * ) SI_UNIT ( .MILLI., .METRE. ) );
#251 = CARTESIAN_POINT ( 'NONE',  ( -30.00000000000000000, 0.000000000000000000, 30.00000000000000000 ) ) ;
#252 = EDGE_CURVE ( 'NONE', #235, #239, #312, .T. ) ;
#253 = CIRCLE ( 'NONE', #223, 7.500000000000000000 ) ;
#254 = ORIENTED_EDGE ( 'NONE', *, *, #94, .F. ) ;
#255 = EDGE_LOOP ( 'NONE', ( #110, #28 ) ) ;
#256 = CARTESIAN_POINT ( 'NONE',  ( -50.00000000000000000, 0.000000000000000000, 20.00000000000000000 ) ) ;
#257 = DIRECTION ( 'NONE',  ( 1.000000000000000000, 0.000000000000000000, 0.000000000000000000 ) ) ;
#258 = ORIENTED_EDGE ( 'NONE', *, *, #30, .F. ) ;
#259 = PRODUCT_RELATED_PRODUCT_CATEGORY ( 'detail', '', ( #171 ) ) ;
#260 = DIRECTION ( 'NONE',  ( 1.000000000000000000, 0.000000000000000000, -0.000000000000000000 ) ) ;
#261 = CARTESIAN_POINT ( 'NONE',  ( 0.000000000000000000, 0.000000000000000000, 19.99999999999999645 ) ) ;
#262 = CARTESIAN_POINT ( 'NONE',  ( 7.500000000000000000, 0.000000000000000000, 30.00000000000000000 ) ) ;
#263 = AXIS2_PLACEMENT_3D ( 'NONE', #42, #325, #329 ) ;
#264 = APPROVAL_ROLE ( '' ) ;
#265 = VERTEX_POINT ( 'NONE', #302 ) ;
#266 = ORIENTED_EDGE ( 'NONE', *, *, #298, .T. ) ;
#267 = DIRECTION ( 'NONE',  ( 0.000000000000000000, 0.000000000000000000, 1.000000000000000000 ) ) ;
#268 = CC_DESIGN_DATE_AND_TIME_ASSIGNMENT ( #190, #214, ( #91 ) ) ;
#269 = PERSON_AND_ORGANIZATION ( #116, #113 ) ;
#270 = AXIS2_PLACEMENT_3D ( 'NONE', #206, #284, #130 ) ;
#271 = APPROVAL_DATE_TIME ( #62, #121 ) ;
#272 = EDGE_CURVE ( 'NONE', #239, #235, #95, .T. ) ;
#273 = CIRCLE ( 'NONE', #17, 50.00000000000000000 ) ;
#274 = DIRECTION ( 'NONE',  ( 1.000000000000000000, 0.000000000000000000, -0.000000000000000000 ) ) ;
#275 = EDGE_CURVE ( 'NONE', #292, #156, #273, .T. ) ;
#276 = CYLINDRICAL_SURFACE ( 'NONE', #162, 7.500000000000000000 ) ;
#277 = LOCAL_TIME ( 2, 40, 22.00000000000000000, #119 ) ;
#278 = DIRECTION ( 'NONE',  ( 1.000000000000000000, 0.000000000000000000, 0.000000000000000000 ) ) ;
#279 = CYLINDRICAL_SURFACE ( 'NONE', #37, 30.00000000000000000 ) ;
#280 = CYLINDRICAL_SURFACE ( 'NONE', #270, 50.00000000000000000 ) ;
#281 = EDGE_CURVE ( 'NONE', #333, #133, #12, .T. ) ;
#282 = CARTESIAN_POINT ( 'NONE',  ( 0.000000000000000000, 0.000000000000000000, 0.000000000000000000 ) ) ;
#283 = LINE ( 'NONE', #147, #187 ) ;
#284 = DIRECTION ( 'NONE',  ( -0.000000000000000000, -0.000000000000000000, -1.000000000000000000 ) ) ;
#285 = CC_DESIGN_APPROVAL ( #121, ( #91 ) ) ;
#286 = ADVANCED_FACE ( 'NONE', ( #79 ), #276, .F. ) ;
#287 = CARTESIAN_POINT ( 'NONE',  ( 0.000000000000000000, 0.000000000000000000, 19.99999999999999645 ) ) ;
#288 = ORIENTED_EDGE ( 'NONE', *, *, #161, .T. ) ;
#289 = EDGE_CURVE ( 'NONE', #292, #3, #125, .T. ) ;
#290 = FACE_BOUND ( 'NONE', #103, .T. ) ;
#291 = AXIS2_PLACEMENT_3D ( 'NONE', #123, #311, #224 ) ;
#292 = VERTEX_POINT ( 'NONE', #256 ) ;
#293 = ORIENTED_EDGE ( 'NONE', *, *, #39, .F. ) ;
#294 = PERSON_AND_ORGANIZATION ( #116, #113 ) ;
#295 = CARTESIAN_POINT ( 'NONE',  ( 0.000000000000000000, 0.000000000000000000, 20.00000000000000000 ) ) ;
#296 = PERSON_AND_ORGANIZATION_ROLE ( 'classification_officer' ) ;
#297 = APPROVAL_PERSON_ORGANIZATION ( #41, #303, #124 ) ;
#298 = EDGE_CURVE ( 'NONE', #239, #184, #283, .T. ) ;
#299 = CIRCLE ( 'NONE', #106, 30.00000000000000000 ) ;
#300 = CIRCLE ( 'NONE', #304, 7.500000000000000000 ) ;
#301 = DATE_TIME_ROLE ( 'classification_date' ) ;
#302 = CARTESIAN_POINT ( 'NONE',  ( 50.00000000000000000, 6.123233995736766085E-15, 0.000000000000000000 ) ) ;
#303 = APPROVAL ( #321, 'UNSPECIFIED' ) ;
#304 = AXIS2_PLACEMENT_3D ( 'NONE', #33, #9, #197 ) ;
#305 = AXIS2_PLACEMENT_3D ( 'NONE', #88, #69, #92 ) ;
#306 = DIRECTION ( 'NONE',  ( 0.000000000000000000, 0.000000000000000000, 1.000000000000000000 ) ) ;
#307 = DIRECTION ( 'NONE',  ( 0.000000000000000000, 0.000000000000000000, 1.000000000000000000 ) ) ;
#308 = DIRECTION ( 'NONE',  ( 1.000000000000000000, 0.000000000000000000, 0.000000000000000000 ) ) ;
#309 = ORIENTED_EDGE ( 'NONE', *, *, #298, .F. ) ;
#310 = APPLICATION_PROTOCOL_DEFINITION ( 'international standard', 'config_control_design', 1994, #45 ) ;
#311 = DIRECTION ( 'NONE',  ( 0.000000000000000000, 0.000000000000000000, 1.000000000000000000 ) ) ;
#312 = CIRCLE ( 'NONE', #169, 30.00000000000000000 ) ;
#313 = EDGE_LOOP ( 'NONE', ( #213, #266, #209, #258 ) ) ;
#314 = DIRECTION ( 'NONE',  ( 1.000000000000000000, 0.000000000000000000, 0.000000000000000000 ) ) ;
#315 = ORIENTED_EDGE ( 'NONE', *, *, #252, .F. ) ;
#316 = CIRCLE ( 'NONE', #51, 30.00000000000000000 ) ;
#317 = EDGE_LOOP ( 'NONE', ( #309, #315, #229, #64 ) ) ;
#318 = CARTESIAN_POINT ( 'NONE',  ( 0.000000000000000000, 0.000000000000000000, 20.00000000000000000 ) ) ;
#319 = PERSON_AND_ORGANIZATION_ROLE ( 'design_supplier' ) ;
#320 = DIRECTION ( 'NONE',  ( 0.000000000000000000, 0.000000000000000000, 1.000000000000000000 ) ) ;
#321 = APPROVAL_STATUS ( 'not_yet_approved' ) ;
#322 = APPROVAL_DATE_TIME ( #76, #303 ) ;
#323 = AXIS2_PLACEMENT_3D ( 'NONE', #287, #152, #115 ) ;
#324 = FACE_OUTER_BOUND ( 'NONE', #26, .T. ) ;
#325 = DIRECTION ( 'NONE',  ( -0.000000000000000000, -0.000000000000000000, -1.000000000000000000 ) ) ;
#326 = DIRECTION ( 'NONE',  ( -0.000000000000000000, -0.000000000000000000, -1.000000000000000000 ) ) ;
#327 = AXIS2_PLACEMENT_3D ( 'NONE', #282, #82, #97 ) ;
#328 = CARTESIAN_POINT ( 'NONE',  ( -7.500000000000000000, 9.184850993605147944E-16, 30.00000000000000000 ) ) ;
#329 = DIRECTION ( 'NONE',  ( -1.000000000000000000, 0.000000000000000000, 0.000000000000000000 ) ) ;
#330 = ORIENTED_EDGE ( 'NONE', *, *, #272, .T. ) ;
#331 = ORIENTED_EDGE ( 'NONE', *, *, #120, .F. ) ;
#332 = PLANE ( 'NONE',  #199 ) ;
#333 = VERTEX_POINT ( 'NONE', #328 ) ;
#334 = ADVANCED_FACE ( 'NONE', ( #205 ), #279, .T. ) ;
#335 = ORIENTED_EDGE ( 'NONE', *, *, #46, .T. ) ;
ENDSEC;
END-ISO-10303-21;
