ISO-10303-21;
HEADER;
FILE_DESCRIPTION (( 'STEP AP203' ),
    '1' );
FILE_NAME ('Teeth_Default_sldprt.STEP',
    '2026-08-23T21:10:23',
    ( '' ),
    ( '' ),
    'SwSTEP 2.0',
    'SolidWorks 2020',
    '' );
FILE_SCHEMA (( 'CONFIG_CONTROL_DESIGN' ));
ENDSEC;

DATA;
#1 = CARTESIAN_POINT ( 'NONE',  ( 0.000000000000000000, 0.000000000000000000, 40.00000000000000000 ) ) ;
#2 = CARTESIAN_POINT ( 'NONE',  ( 4.000000000000001776, -4.000000000000000000, 30.00000000000000000 ) ) ;
#3 = AXIS2_PLACEMENT_3D ( 'NONE', #287, #235, #264 ) ;
#4 = DIRECTION ( 'NONE',  ( 0.000000000000000000, -0.000000000000000000, 1.000000000000000000 ) ) ;
#5 = PERSON_AND_ORGANIZATION_ROLE ( 'classification_officer' ) ;
#6 = DIRECTION ( 'NONE',  ( 1.000000000000000000, 0.000000000000000000, 0.000000000000000000 ) ) ;
#7 = CARTESIAN_POINT ( 'NONE',  ( 4.000000000000001776, -4.000000000000000000, 0.000000000000000000 ) ) ;
#8 = PLANE ( 'NONE',  #116 ) ;
#9 = VERTEX_POINT ( 'NONE', #250 ) ;
#10 = DATE_AND_TIME ( #174, #331 ) ;
#11 = EDGE_LOOP ( 'NONE', ( #296, #246, #95, #150 ) ) ;
#12 = DIRECTION ( 'NONE',  ( 0.000000000000000000, -1.000000000000000000, 0.000000000000000000 ) ) ;
#13 = EDGE_CURVE ( 'NONE', #53, #147, #252, .T. ) ;
#14 = ORIENTED_EDGE ( 'NONE', *, *, #218, .T. ) ;
#15 = CARTESIAN_POINT ( 'NONE',  ( 4.000000000000001776, -4.000000000000000000, 0.000000000000000000 ) ) ;
#16 = ORIENTED_EDGE ( 'NONE', *, *, #87, .F. ) ;
#17 = PERSON_AND_ORGANIZATION ( #140, #141 ) ;
#18 = SECURITY_CLASSIFICATION ( '', '', #290 ) ;
#19 = VERTEX_POINT ( 'NONE', #25 ) ;
#20 = PERSON_AND_ORGANIZATION_ROLE ( 'design_owner' ) ;
#21 = DATE_AND_TIME ( #248, #163 ) ;
#22 = DIRECTION ( 'NONE',  ( -0.000000000000000000, -0.000000000000000000, -1.000000000000000000 ) ) ;
#23 = ORIENTED_EDGE ( 'NONE', *, *, #283, .F. ) ;
#24 = PLANE ( 'NONE',  #268 ) ;
#25 = CARTESIAN_POINT ( 'NONE',  ( 4.000000000000001776, -4.000000000000000000, 30.00000000000000000 ) ) ;
#26 = CARTESIAN_POINT ( 'NONE',  ( 4.000000000000001776, 4.000000000000000000, 30.00000000000000000 ) ) ;
#27 = VECTOR ( 'NONE', #245, 1000.000000000000000 ) ;
#28 = CARTESIAN_POINT ( 'NONE',  ( -3.999999999999998224, -2.236730192915346027, 40.00000000000000000 ) ) ;
#29 = LINE ( 'NONE', #286, #181 ) ;
#30 = CARTESIAN_POINT ( 'NONE',  ( -2.236730192915344251, 2.236730192915346027, 40.00000000000000000 ) ) ;
#31 = DIRECTION ( 'NONE',  ( 1.000000000000000000, 0.000000000000000000, 0.000000000000000000 ) ) ;
#32 = APPROVAL ( #240, 'UNSPECIFIED' ) ;
#33 = LOCAL_TIME ( 2, 40, 23.00000000000000000, #148 ) ;
#34 = LINE ( 'NONE', #138, #167 ) ;
#35 = EDGE_CURVE ( 'NONE', #304, #123, #299, .T. ) ;
#36 = CARTESIAN_POINT ( 'NONE',  ( -3.999999999999998224, -4.000000000000000000, 30.00000000000000000 ) ) ;
#37 = VECTOR ( 'NONE', #22, 1000.000000000000000 ) ;
#38 = CC_DESIGN_SECURITY_CLASSIFICATION ( #18, ( #43 ) ) ;
#39 = EDGE_CURVE ( 'NONE', #82, #147, #186, .T. ) ;
#40 = PLANE ( 'NONE',  #149 ) ;
#41 = ORIENTED_EDGE ( 'NONE', *, *, #154, .F. ) ;
#42 = CC_DESIGN_PERSON_AND_ORGANIZATION_ASSIGNMENT ( #72, #266, ( #43 ) ) ;
#43 = PRODUCT_DEFINITION_FORMATION_WITH_SPECIFIED_SOURCE ( 'ANY', '', #142, .NOT_KNOWN. ) ;
#44 = APPROVAL_DATE_TIME ( #247, #47 ) ;
#45 = APPLICATION_CONTEXT ( 'configuration controlled 3d designs of mechanical parts and assemblies' ) ;
#46 = LINE ( 'NONE', #202, #292 ) ;
#47 = APPROVAL ( #319, 'UNSPECIFIED' ) ;
#48 = DIRECTION ( 'NONE',  ( -0.1710878697460358477, 0.1710878697460358477, -0.9702875252478136980 ) ) ;
#49 = ORIENTED_EDGE ( 'NONE', *, *, #97, .T. ) ;
#50 = DIRECTION ( 'NONE',  ( 0.000000000000000000, 0.000000000000000000, -1.000000000000000000 ) ) ;
#51 = SHAPE_DEFINITION_REPRESENTATION ( #316, #120 ) ;
#52 = DIRECTION ( 'NONE',  ( 0.9848077530122080203, 0.000000000000000000, 0.1736481776669307198 ) ) ;
#53 = VERTEX_POINT ( 'NONE', #306 ) ;
#54 = LINE ( 'NONE', #253, #117 ) ;
#55 = CARTESIAN_POINT ( 'NONE',  ( -3.999999999999998224, -4.000000000000000000, 30.00000000000000000 ) ) ;
#56 = LINE ( 'NONE', #28, #168 ) ;
#57 = AXIS2_PLACEMENT_3D ( 'NONE', #1, #102, #31 ) ;
#58 = DIRECTION ( 'NONE',  ( -1.000000000000000000, 0.000000000000000000, 0.000000000000000000 ) ) ;
#59 = VECTOR ( 'NONE', #65, 1000.000000000000114 ) ;
#60 = CARTESIAN_POINT ( 'NONE',  ( -3.999999999999998224, 4.000000000000000000, 30.00000000000000000 ) ) ;
#61 = CARTESIAN_POINT ( 'NONE',  ( 4.000000000000001776, 4.000000000000000000, 30.00000000000000000 ) ) ;
#62 = PLANE ( 'NONE',  #57 ) ;
#63 = PERSON_AND_ORGANIZATION ( #140, #141 ) ;
#64 = FACE_OUTER_BOUND ( 'NONE', #223, .T. ) ;
#65 = DIRECTION ( 'NONE',  ( -0.1710878697460358477, -0.1710878697460358477, -0.9702875252478136980 ) ) ;
#66 = CARTESIAN_POINT ( 'NONE',  ( -3.999999999999998224, -4.000000000000000000, 30.00000000000000000 ) ) ;
#67 = EDGE_CURVE ( 'NONE', #123, #82, #29, .T. ) ;
#68 = VECTOR ( 'NONE', #130, 1000.000000000000000 ) ;
#69 = ORIENTED_EDGE ( 'NONE', *, *, #97, .F. ) ;
#70 = LINE ( 'NONE', #36, #314 ) ;
#71 = ORIENTED_EDGE ( 'NONE', *, *, #161, .F. ) ;
#72 = PERSON_AND_ORGANIZATION ( #140, #141 ) ;
#73 = PERSON_AND_ORGANIZATION ( #140, #141 ) ;
#74 = VECTOR ( 'NONE', #209, 1000.000000000000000 ) ;
#75 = ORIENTED_EDGE ( 'NONE', *, *, #137, .F. ) ;
#76 = DIRECTION ( 'NONE',  ( 1.000000000000000000, 0.000000000000000000, 0.000000000000000000 ) ) ;
#77 = ORIENTED_EDGE ( 'NONE', *, *, #111, .T. ) ;
#78 = APPROVAL_STATUS ( 'not_yet_approved' ) ;
#79 = VECTOR ( 'NONE', #169, 1000.000000000000000 ) ;
#80 = EDGE_LOOP ( 'NONE', ( #277, #16, #183, #199 ) ) ;
#81 = COORDINATED_UNIVERSAL_TIME_OFFSET ( 5, 30, .AHEAD. ) ;
#82 = VERTEX_POINT ( 'NONE', #55 ) ;
#83 = ADVANCED_FACE ( 'NONE', ( #157 ), #263, .T. ) ;
#84 = LINE ( 'NONE', #254, #132 ) ;
#85 = PLANE ( 'NONE',  #110 ) ;
#86 = DIRECTION ( 'NONE',  ( -1.000000000000000000, -0.000000000000000000, -0.000000000000000000 ) ) ;
#87 = EDGE_CURVE ( 'NONE', #98, #279, #84, .T. ) ;
#88 = DIRECTION ( 'NONE',  ( 0.1710878697460358477, -0.1710878697460358477, -0.9702875252478136980 ) ) ;
#89 = CLOSED_SHELL ( 'NONE', ( #122, #310, #205, #143, #198, #293, #103, #83, #91, #129 ) ) ;
#90 = CARTESIAN_POINT ( 'NONE',  ( -3.999999999999998224, -4.000000000000000000, 0.000000000000000000 ) ) ;
#91 = ADVANCED_FACE ( 'NONE', ( #109 ), #24, .T. ) ;
#92 = COORDINATED_UNIVERSAL_TIME_OFFSET ( 5, 30, .AHEAD. ) ;
#93 = EDGE_CURVE ( 'NONE', #19, #279, #288, .T. ) ;
#94 = EDGE_LOOP ( 'NONE', ( #211, #315, #14, #49 ) ) ;
#95 = ORIENTED_EDGE ( 'NONE', *, *, #216, .F. ) ;
#96 = APPROVAL_DATE_TIME ( #185, #301 ) ;
#97 = EDGE_CURVE ( 'NONE', #98, #304, #192, .T. ) ;
#98 = VERTEX_POINT ( 'NONE', #190 ) ;
#99 = PERSON_AND_ORGANIZATION ( #140, #141 ) ;
#100 = ORIENTED_EDGE ( 'NONE', *, *, #67, .F. ) ;
#101 = DIRECTION ( 'NONE',  ( -0.000000000000000000, -1.000000000000000000, -0.000000000000000000 ) ) ;
#102 = DIRECTION ( 'NONE',  ( -0.000000000000000000, 0.000000000000000000, 1.000000000000000000 ) ) ;
#103 = ADVANCED_FACE ( 'NONE', ( #234 ), #85, .T. ) ;
#104 = CC_DESIGN_APPROVAL ( #47, ( #294 ) ) ;
#105 = ORIENTED_EDGE ( 'NONE', *, *, #67, .T. ) ;
#106 = LINE ( 'NONE', #90, #79 ) ;
#107 = CARTESIAN_POINT ( 'NONE',  ( -3.999999999999998224, 2.236730192915346027, 40.00000000000000000 ) ) ;
#108 = FACE_OUTER_BOUND ( 'NONE', #125, .T. ) ;
#109 = FACE_OUTER_BOUND ( 'NONE', #325, .T. ) ;
#110 = AXIS2_PLACEMENT_3D ( 'NONE', #133, #262, #233 ) ;
#111 = EDGE_CURVE ( 'NONE', #123, #53, #333, .T. ) ;
#112 = MANIFOLD_SOLID_BREP ( 'Boss-Extrude2', #89 ) ;
#113 = DATE_AND_TIME ( #297, #210 ) ;
#114 = CARTESIAN_POINT ( 'NONE',  ( -3.999999999999998224, -4.000000000000000000, 0.000000000000000000 ) ) ;
#115 = LINE ( 'NONE', #26, #118 ) ;
#116 = AXIS2_PLACEMENT_3D ( 'NONE', #66, #139, #4 ) ;
#117 = VECTOR ( 'NONE', #159, 1000.000000000000000 ) ;
#118 = VECTOR ( 'NONE', #195, 1000.000000000000000 ) ;
#119 = AXIS2_PLACEMENT_3D ( 'NONE', #184, #326, #76 ) ;
#120 = ADVANCED_BREP_SHAPE_REPRESENTATION ( 'Teeth_Default_sldprt', ( #112, #119 ), #261 ) ;
#121 = DATE_TIME_ROLE ( 'creation_date' ) ;
#122 = ADVANCED_FACE ( 'NONE', ( #108 ), #289, .F. ) ;
#123 = VERTEX_POINT ( 'NONE', #60 ) ;
#124 = AXIS2_PLACEMENT_3D ( 'NONE', #238, #196, #156 ) ;
#125 = EDGE_LOOP ( 'NONE', ( #284, #71, #244, #327 ) ) ;
#126 = DIRECTION ( 'NONE',  ( 0.000000000000000000, -0.000000000000000000, -1.000000000000000000 ) ) ;
#127 = VERTEX_POINT ( 'NONE', #166 ) ;
#128 = DIRECTION ( 'NONE',  ( 0.000000000000000000, 0.000000000000000000, 1.000000000000000000 ) ) ;
#129 = ADVANCED_FACE ( 'NONE', ( #164 ), #62, .T. ) ;
#130 = DIRECTION ( 'NONE',  ( -0.000000000000000000, -1.000000000000000000, -0.000000000000000000 ) ) ;
#131 = DIRECTION ( 'NONE',  ( 0.000000000000000000, 0.9848077530122080203, 0.1736481776669307198 ) ) ;
#132 = VECTOR ( 'NONE', #230, 1000.000000000000114 ) ;
#133 = CARTESIAN_POINT ( 'NONE',  ( -3.999999999999998224, -4.000000000000000000, 30.00000000000000000 ) ) ;
#134 = DIRECTION ( 'NONE',  ( -0.000000000000000000, -0.000000000000000000, -1.000000000000000000 ) ) ;
#135 = PERSON_AND_ORGANIZATION_ROLE ( 'design_supplier' ) ;
#136 = COORDINATED_UNIVERSAL_TIME_OFFSET ( 5, 30, .AHEAD. ) ;
#137 = EDGE_CURVE ( 'NONE', #19, #178, #236, .T. ) ;
#138 = CARTESIAN_POINT ( 'NONE',  ( 3.765831526606109758, -3.765831526606106650, 31.32803540588641056 ) ) ;
#139 = DIRECTION ( 'NONE',  ( 0.000000000000000000, 1.000000000000000000, 0.000000000000000000 ) ) ;
#140 = PERSON ( 'UNSPECIFIED', 'UNSPECIFIED', 'UNSPECIFIED', ('UNSPECIFIED'), ('UNSPECIFIED'), ('UNSPECIFIED') ) ;
#141 = ORGANIZATION ( 'UNSPECIFIED', 'UNSPECIFIED', '' ) ;
#142 = PRODUCT ( 'Teeth_Default_sldprt', 'Teeth_Default_sldprt', '', ( #278 ) ) ;
#143 = ADVANCED_FACE ( 'NONE', ( #217 ), #8, .F. ) ;
#144 = PERSON_AND_ORGANIZATION ( #140, #141 ) ;
#145 = CARTESIAN_POINT ( 'NONE',  ( -3.999999999999998224, 4.000000000000000000, 0.000000000000000000 ) ) ;
#146 = ORIENTED_EDGE ( 'NONE', *, *, #13, .T. ) ;
#147 = VERTEX_POINT ( 'NONE', #114 ) ;
#148 = COORDINATED_UNIVERSAL_TIME_OFFSET ( 5, 30, .AHEAD. ) ;
#149 = AXIS2_PLACEMENT_3D ( 'NONE', #321, #12, #126 ) ;
#150 = ORIENTED_EDGE ( 'NONE', *, *, #161, .T. ) ;
#151 = APPROVAL_ROLE ( '' ) ;
#152 = DESIGN_CONTEXT ( 'detailed design', #311, 'design' ) ;
#153 = EDGE_LOOP ( 'NONE', ( #270, #75, #241, #328 ) ) ;
#154 = EDGE_CURVE ( 'NONE', #147, #178, #106, .T. ) ;
#155 = ORIENTED_EDGE ( 'NONE', *, *, #35, .T. ) ;
#156 = DIRECTION ( 'NONE',  ( 0.000000000000000000, 0.000000000000000000, -1.000000000000000000 ) ) ;
#157 = FACE_OUTER_BOUND ( 'NONE', #80, .T. ) ;
#158 = VERTEX_POINT ( 'NONE', #312 ) ;
#159 = DIRECTION ( 'NONE',  ( -1.000000000000000000, -0.000000000000000000, -0.000000000000000000 ) ) ;
#160 = DIRECTION ( 'NONE',  ( 0.000000000000000000, 1.000000000000000000, 0.000000000000000000 ) ) ;
#161 = EDGE_CURVE ( 'NONE', #279, #158, #115, .T. ) ;
#162 = VECTOR ( 'NONE', #134, 1000.000000000000000 ) ;
#163 = LOCAL_TIME ( 2, 40, 23.00000000000000000, #204 ) ;
#164 = FACE_OUTER_BOUND ( 'NONE', #94, .T. ) ;
#165 = CC_DESIGN_PERSON_AND_ORGANIZATION_ASSIGNMENT ( #300, #280, ( #294 ) ) ;
#166 = CARTESIAN_POINT ( 'NONE',  ( 2.236730192915347804, -2.236730192915346027, 40.00000000000000000 ) ) ;
#167 = VECTOR ( 'NONE', #88, 1000.000000000000114 ) ;
#168 = VECTOR ( 'NONE', #259, 1000.000000000000000 ) ;
#169 = DIRECTION ( 'NONE',  ( 1.000000000000000000, 0.000000000000000000, 0.000000000000000000 ) ) ;
#170 = FACE_OUTER_BOUND ( 'NONE', #295, .T. ) ;
#171 = UNCERTAINTY_MEASURE_WITH_UNIT (LENGTH_MEASURE( 1.000000000000000082E-05 ), #225, 'distance_accuracy_value', 'NONE');
#172 = VECTOR ( 'NONE', #160, 1000.000000000000000 ) ;
#173 = EDGE_CURVE ( 'NONE', #127, #19, #34, .T. ) ;
#174 = CALENDAR_DATE ( 2026, 24, 8 ) ;
#175 = PRODUCT_RELATED_PRODUCT_CATEGORY ( 'detail', '', ( #142 ) ) ;
#176 = VECTOR ( 'NONE', #251, 1000.000000000000000 ) ;
#177 = ORIENTED_EDGE ( 'NONE', *, *, #276, .T. ) ;
#178 = VERTEX_POINT ( 'NONE', #7 ) ;
#179 = APPLICATION_PROTOCOL_DEFINITION ( 'international standard', 'config_control_design', 1994, #45 ) ;
#180 = CARTESIAN_POINT ( 'NONE',  ( -3.999999999999998224, 4.000000000000000000, 30.00000000000000000 ) ) ;
#181 = VECTOR ( 'NONE', #188, 1000.000000000000000 ) ;
#182 = LOCAL_TIME ( 2, 40, 23.00000000000000000, #81 ) ;
#183 = ORIENTED_EDGE ( 'NONE', *, *, #218, .F. ) ;
#184 = CARTESIAN_POINT ( 'NONE',  ( 0.000000000000000000, 0.000000000000000000, 0.000000000000000000 ) ) ;
#185 = DATE_AND_TIME ( #324, #182 ) ;
#186 = LINE ( 'NONE', #212, #37 ) ;
#187 = ORIENTED_EDGE ( 'NONE', *, *, #242, .F. ) ;
#188 = DIRECTION ( 'NONE',  ( -0.000000000000000000, -1.000000000000000000, -0.000000000000000000 ) ) ;
#189 = LINE ( 'NONE', #194, #59 ) ;
#190 = CARTESIAN_POINT ( 'NONE',  ( 2.236730192915347804, 2.236730192915346027, 40.00000000000000000 ) ) ;
#191 = APPROVAL_PERSON_ORGANIZATION ( #99, #47, #151 ) ;
#192 = LINE ( 'NONE', #107, #74 ) ;
#193 = PLANE ( 'NONE',  #124 ) ;
#194 = CARTESIAN_POINT ( 'NONE',  ( -3.999999999999998224, -4.000000000000000000, 30.00000000000000000 ) ) ;
#195 = DIRECTION ( 'NONE',  ( -0.000000000000000000, -0.000000000000000000, -1.000000000000000000 ) ) ;
#196 = DIRECTION ( 'NONE',  ( 1.000000000000000000, 0.000000000000000000, 0.000000000000000000 ) ) ;
#197 = CC_DESIGN_PERSON_AND_ORGANIZATION_ASSIGNMENT ( #272, #135, ( #43 ) ) ;
#198 = ADVANCED_FACE ( 'NONE', ( #170 ), #285, .T. ) ;
#199 = ORIENTED_EDGE ( 'NONE', *, *, #173, .T. ) ;
#200 = APPROVAL_ROLE ( '' ) ;
#201 = EDGE_LOOP ( 'NONE', ( #271, #206, #23, #177 ) ) ;
#202 = CARTESIAN_POINT ( 'NONE',  ( -2.236730192915344251, 4.000000000000000000, 40.00000000000000000 ) ) ;
#203 = CALENDAR_DATE ( 2026, 24, 8 ) ;
#204 = COORDINATED_UNIVERSAL_TIME_OFFSET ( 5, 30, .AHEAD. ) ;
#205 = ADVANCED_FACE ( 'NONE', ( #64 ), #193, .F. ) ;
#206 = ORIENTED_EDGE ( 'NONE', *, *, #173, .F. ) ;
#207 = LINE ( 'NONE', #15, #27 ) ;
#208 = APPROVAL_ROLE ( '' ) ;
#209 = DIRECTION ( 'NONE',  ( -1.000000000000000000, 0.000000000000000000, -0.000000000000000000 ) ) ;
#210 = LOCAL_TIME ( 2, 40, 23.00000000000000000, #136 ) ;
#211 = ORIENTED_EDGE ( 'NONE', *, *, #313, .T. ) ;
#212 = CARTESIAN_POINT ( 'NONE',  ( -3.999999999999998224, -4.000000000000000000, 30.00000000000000000 ) ) ;
#213 = CARTESIAN_POINT ( 'NONE',  ( 4.000000000000001776, -4.000000000000000000, 30.00000000000000000 ) ) ;
#214 = CARTESIAN_POINT ( 'NONE',  ( 4.000000000000001776, 4.000000000000000000, 30.00000000000000000 ) ) ;
#215 = CARTESIAN_POINT ( 'NONE',  ( -3.999999999999998224, 4.000000000000000000, 30.00000000000000000 ) ) ;
#216 = EDGE_CURVE ( 'NONE', #279, #123, #54, .T. ) ;
#217 = FACE_OUTER_BOUND ( 'NONE', #153, .T. ) ;
#218 = EDGE_CURVE ( 'NONE', #127, #98, #291, .T. ) ;
#219 = AXIS2_PLACEMENT_3D ( 'NONE', #214, #52, #258 ) ;
#220 = ORIENTED_EDGE ( 'NONE', *, *, #216, .T. ) ;
#221 = APPLICATION_PROTOCOL_DEFINITION ( 'international standard', 'config_control_design', 1994, #311 ) ;
#222 = ORIENTED_EDGE ( 'NONE', *, *, #313, .F. ) ;
#223 = EDGE_LOOP ( 'NONE', ( #146, #302, #100, #77 ) ) ;
#224 = EDGE_LOOP ( 'NONE', ( #105, #322, #222, #155 ) ) ;
#225 =( LENGTH_UNIT ( ) NAMED_UNIT ( * ) SI_UNIT ( .MILLI., .METRE. ) );
#226 = CARTESIAN_POINT ( 'NONE',  ( 4.000000000000001776, -4.000000000000000000, 30.00000000000000000 ) ) ;
#227 = ORIENTED_EDGE ( 'NONE', *, *, #87, .T. ) ;
#228 = CARTESIAN_POINT ( 'NONE',  ( 0.000000000000000000, 0.000000000000000000, 0.000000000000000000 ) ) ;
#229 = DATE_TIME_ROLE ( 'classification_date' ) ;
#230 = DIRECTION ( 'NONE',  ( 0.1710878697460358477, 0.1710878697460358477, -0.9702875252478136980 ) ) ;
#231 = APPROVAL_PERSON_ORGANIZATION ( #17, #301, #208 ) ;
#232 = CC_DESIGN_DATE_AND_TIME_ASSIGNMENT ( #21, #229, ( #18 ) ) ;
#233 = DIRECTION ( 'NONE',  ( 0.000000000000000000, -0.1736481776669307198, -0.9848077530122080203 ) ) ;
#234 = FACE_OUTER_BOUND ( 'NONE', #201, .T. ) ;
#235 = DIRECTION ( 'NONE',  ( -0.9848077530122080203, 0.000000000000000000, 0.1736481776669307198 ) ) ;
#236 = LINE ( 'NONE', #2, #176 ) ;
#237 = FACE_OUTER_BOUND ( 'NONE', #224, .T. ) ;
#238 = CARTESIAN_POINT ( 'NONE',  ( -3.999999999999998224, -4.000000000000000000, 30.00000000000000000 ) ) ;
#239 = APPROVAL_PERSON_ORGANIZATION ( #144, #32, #200 ) ;
#240 = APPROVAL_STATUS ( 'not_yet_approved' ) ;
#241 = ORIENTED_EDGE ( 'NONE', *, *, #307, .F. ) ;
#242 = EDGE_CURVE ( 'NONE', #158, #53, #275, .T. ) ;
#243 = CC_DESIGN_APPROVAL ( #32, ( #43 ) ) ;
#244 = ORIENTED_EDGE ( 'NONE', *, *, #93, .F. ) ;
#245 = DIRECTION ( 'NONE',  ( 0.000000000000000000, 1.000000000000000000, 0.000000000000000000 ) ) ;
#246 = ORIENTED_EDGE ( 'NONE', *, *, #111, .F. ) ;
#247 = DATE_AND_TIME ( #203, #33 ) ;
#248 = CALENDAR_DATE ( 2026, 24, 8 ) ;
#249 = CC_DESIGN_PERSON_AND_ORGANIZATION_ASSIGNMENT ( #73, #20, ( #142 ) ) ;
#250 = CARTESIAN_POINT ( 'NONE',  ( -2.236730192915344251, -2.236730192915346027, 40.00000000000000000 ) ) ;
#251 = DIRECTION ( 'NONE',  ( -0.000000000000000000, -0.000000000000000000, -1.000000000000000000 ) ) ;
#252 = LINE ( 'NONE', #256, #68 ) ;
#253 = CARTESIAN_POINT ( 'NONE',  ( -3.999999999999998224, 4.000000000000000000, 30.00000000000000000 ) ) ;
#254 = CARTESIAN_POINT ( 'NONE',  ( 3.765831526606108426, 3.765831526606107982, 31.32803540588641056 ) ) ;
#255 = CC_DESIGN_DATE_AND_TIME_ASSIGNMENT ( #10, #121, ( #294 ) ) ;
#256 = CARTESIAN_POINT ( 'NONE',  ( -3.999999999999998224, -4.000000000000000000, 0.000000000000000000 ) ) ;
#257 = DIRECTION ( 'NONE',  ( -0.000000000000000000, 1.000000000000000000, -0.000000000000000000 ) ) ;
#258 = DIRECTION ( 'NONE',  ( 0.1736481776669307198, 0.000000000000000000, -0.9848077530122080203 ) ) ;
#259 = DIRECTION ( 'NONE',  ( 1.000000000000000000, -0.000000000000000000, -0.000000000000000000 ) ) ;
#260 = AXIS2_PLACEMENT_3D ( 'NONE', #213, #58, #128 ) ;
#261 =( GEOMETRIC_REPRESENTATION_CONTEXT ( 3 ) GLOBAL_UNCERTAINTY_ASSIGNED_CONTEXT ( ( #171 ) ) GLOBAL_UNIT_ASSIGNED_CONTEXT ( ( #225, #274, #303 ) ) REPRESENTATION_CONTEXT ( 'NONE', 'WORKASPACE' ) );
#262 = DIRECTION ( 'NONE',  ( 0.000000000000000000, -0.9848077530122080203, 0.1736481776669307198 ) ) ;
#263 = PLANE ( 'NONE',  #219 ) ;
#264 = DIRECTION ( 'NONE',  ( 0.1736481776669307198, 0.000000000000000000, 0.9848077530122080203 ) ) ;
#265 = CC_DESIGN_PERSON_AND_ORGANIZATION_ASSIGNMENT ( #63, #5, ( #18 ) ) ;
#266 = PERSON_AND_ORGANIZATION_ROLE ( 'creator' ) ;
#267 = CC_DESIGN_APPROVAL ( #301, ( #18 ) ) ;
#268 = AXIS2_PLACEMENT_3D ( 'NONE', #215, #131, #330 ) ;
#269 = FACE_OUTER_BOUND ( 'NONE', #11, .T. ) ;
#270 = ORIENTED_EDGE ( 'NONE', *, *, #154, .T. ) ;
#271 = ORIENTED_EDGE ( 'NONE', *, *, #307, .T. ) ;
#272 = PERSON_AND_ORGANIZATION ( #140, #141 ) ;
#273 = VECTOR ( 'NONE', #48, 1000.000000000000114 ) ;
#274 =( NAMED_UNIT ( * ) PLANE_ANGLE_UNIT ( ) SI_UNIT ( $, .RADIAN. ) );
#275 = LINE ( 'NONE', #145, #281 ) ;
#276 = EDGE_CURVE ( 'NONE', #9, #82, #189, .T. ) ;
#277 = ORIENTED_EDGE ( 'NONE', *, *, #93, .T. ) ;
#278 = MECHANICAL_CONTEXT ( 'NONE', #45, 'mechanical' ) ;
#279 = VERTEX_POINT ( 'NONE', #61 ) ;
#280 = PERSON_AND_ORGANIZATION_ROLE ( 'creator' ) ;
#281 = VECTOR ( 'NONE', #86, 1000.000000000000000 ) ;
#282 = ORIENTED_EDGE ( 'NONE', *, *, #332, .F. ) ;
#283 = EDGE_CURVE ( 'NONE', #9, #127, #56, .T. ) ;
#284 = ORIENTED_EDGE ( 'NONE', *, *, #332, .T. ) ;
#285 = PLANE ( 'NONE',  #298 ) ;
#286 = CARTESIAN_POINT ( 'NONE',  ( -3.999999999999998224, -4.000000000000000000, 30.00000000000000000 ) ) ;
#287 = CARTESIAN_POINT ( 'NONE',  ( -3.999999999999998224, 4.000000000000000000, 30.00000000000000000 ) ) ;
#288 = LINE ( 'NONE', #226, #172 ) ;
#289 = PLANE ( 'NONE',  #260 ) ;
#290 = SECURITY_CLASSIFICATION_LEVEL ( 'unclassified' ) ;
#291 = LINE ( 'NONE', #329, #323 ) ;
#292 = VECTOR ( 'NONE', #101, 1000.000000000000000 ) ;
#293 = ADVANCED_FACE ( 'NONE', ( #237 ), #305, .T. ) ;
#294 = PRODUCT_DEFINITION ( 'UNKNOWN', '', #43, #152 ) ;
#295 = EDGE_LOOP ( 'NONE', ( #282, #41, #318, #187 ) ) ;
#296 = ORIENTED_EDGE ( 'NONE', *, *, #242, .T. ) ;
#297 = CALENDAR_DATE ( 2026, 24, 8 ) ;
#298 = AXIS2_PLACEMENT_3D ( 'NONE', #228, #50, #309 ) ;
#299 = LINE ( 'NONE', #180, #273 ) ;
#300 = PERSON_AND_ORGANIZATION ( #140, #141 ) ;
#301 = APPROVAL ( #78, 'UNSPECIFIED' ) ;
#302 = ORIENTED_EDGE ( 'NONE', *, *, #39, .F. ) ;
#303 =( NAMED_UNIT ( * ) SI_UNIT ( $, .STERADIAN. ) SOLID_ANGLE_UNIT ( ) );
#304 = VERTEX_POINT ( 'NONE', #30 ) ;
#305 = PLANE ( 'NONE',  #3 ) ;
#306 = CARTESIAN_POINT ( 'NONE',  ( -3.999999999999998224, 4.000000000000000000, 0.000000000000000000 ) ) ;
#307 = EDGE_CURVE ( 'NONE', #82, #19, #70, .T. ) ;
#308 = CARTESIAN_POINT ( 'NONE',  ( -3.999999999999998224, 4.000000000000000000, 30.00000000000000000 ) ) ;
#309 = DIRECTION ( 'NONE',  ( -1.000000000000000000, 0.000000000000000000, -0.000000000000000000 ) ) ;
#310 = ADVANCED_FACE ( 'NONE', ( #269 ), #40, .F. ) ;
#311 = APPLICATION_CONTEXT ( 'configuration controlled 3d designs of mechanical parts and assemblies' ) ;
#312 = CARTESIAN_POINT ( 'NONE',  ( 4.000000000000001776, 4.000000000000000000, 0.000000000000000000 ) ) ;
#313 = EDGE_CURVE ( 'NONE', #304, #9, #46, .T. ) ;
#314 = VECTOR ( 'NONE', #6, 1000.000000000000000 ) ;
#315 = ORIENTED_EDGE ( 'NONE', *, *, #283, .T. ) ;
#316 = PRODUCT_DEFINITION_SHAPE ( 'NONE', 'NONE',  #294 ) ;
#317 = APPROVAL_DATE_TIME ( #113, #32 ) ;
#318 = ORIENTED_EDGE ( 'NONE', *, *, #13, .F. ) ;
#319 = APPROVAL_STATUS ( 'not_yet_approved' ) ;
#320 = ORIENTED_EDGE ( 'NONE', *, *, #35, .F. ) ;
#321 = CARTESIAN_POINT ( 'NONE',  ( -3.999999999999998224, 4.000000000000000000, 30.00000000000000000 ) ) ;
#322 = ORIENTED_EDGE ( 'NONE', *, *, #276, .F. ) ;
#323 = VECTOR ( 'NONE', #257, 1000.000000000000000 ) ;
#324 = CALENDAR_DATE ( 2026, 24, 8 ) ;
#325 = EDGE_LOOP ( 'NONE', ( #220, #320, #69, #227 ) ) ;
#326 = DIRECTION ( 'NONE',  ( 0.000000000000000000, 0.000000000000000000, 1.000000000000000000 ) ) ;
#327 = ORIENTED_EDGE ( 'NONE', *, *, #137, .T. ) ;
#328 = ORIENTED_EDGE ( 'NONE', *, *, #39, .T. ) ;
#329 = CARTESIAN_POINT ( 'NONE',  ( 2.236730192915347804, 4.000000000000000000, 40.00000000000000000 ) ) ;
#330 = DIRECTION ( 'NONE',  ( 0.000000000000000000, -0.1736481776669307198, 0.9848077530122080203 ) ) ;
#331 = LOCAL_TIME ( 2, 40, 23.00000000000000000, #92 ) ;
#332 = EDGE_CURVE ( 'NONE', #178, #158, #207, .T. ) ;
#333 = LINE ( 'NONE', #308, #162 ) ;
ENDSEC;
END-ISO-10303-21;
