ISO-10303-21;
HEADER;
FILE_DESCRIPTION (( 'STEP AP203' ),
    '1' );
FILE_NAME ('TesthCover_Default_sldprt.STEP',
    '2026-08-23T21:10:25',
    ( '' ),
    ( '' ),
    'SwSTEP 2.0',
    'SolidWorks 2020',
    '' );
FILE_SCHEMA (( 'CONFIG_CONTROL_DESIGN' ));
ENDSEC;

DATA;
#1 = VERTEX_POINT ( 'NONE', #333 ) ;
#2 = CARTESIAN_POINT ( 'NONE',  ( -3.999999999999998224, 4.000000000000000888, 30.00000000000000000 ) ) ;
#3 = CALENDAR_DATE ( 2026, 24, 8 ) ;
#4 = ORIENTED_EDGE ( 'NONE', *, *, #365, .F. ) ;
#5 = DIRECTION ( 'NONE',  ( 2.168404344971008868E-16, 1.000000000000000000, -0.000000000000000000 ) ) ;
#6 = MANIFOLD_SOLID_BREP ( 'Cut-Extrude2', #331 ) ;
#7 = LINE ( 'NONE', #145, #172 ) ;
#8 = CARTESIAN_POINT ( 'NONE',  ( 0.000000000000000000, 0.000000000000000000, -0.001000000000001000089 ) ) ;
#9 = CARTESIAN_POINT ( 'NONE',  ( 5.999999999999997335, 6.000000000000000888, 0.000000000000000000 ) ) ;
#10 = DIRECTION ( 'NONE',  ( -0.000000000000000000, 0.000000000000000000, 1.000000000000000000 ) ) ;
#11 = PERSON_AND_ORGANIZATION ( #208, #83 ) ;
#12 = DIRECTION ( 'NONE',  ( -1.000000000000000000, 2.168404344971009115E-16, 0.000000000000000000 ) ) ;
#13 = VECTOR ( 'NONE', #305, 1000.000000000000000 ) ;
#14 = EDGE_CURVE ( 'NONE', #411, #412, #440, .T. ) ;
#15 = LOCAL_TIME ( 2, 40, 25.00000000000000000, #327 ) ;
#16 = CARTESIAN_POINT ( 'NONE',  ( -2.500000000000000000, 3.061616997868383141E-16, 37.00000000000000000 ) ) ;
#17 = EDGE_CURVE ( 'NONE', #241, #28, #438, .T. ) ;
#18 = CARTESIAN_POINT ( 'NONE',  ( -2.500000000000000000, 3.061616997868383141E-16, 30.00000000000000000 ) ) ;
#19 = DIRECTION ( 'NONE',  ( -0.000000000000000000, -0.000000000000000000, -1.000000000000000000 ) ) ;
#20 = FACE_OUTER_BOUND ( 'NONE', #308, .T. ) ;
#21 = CARTESIAN_POINT ( 'NONE',  ( 0.000000000000000000, 0.000000000000000000, -0.001000000000001000089 ) ) ;
#22 = ORIENTED_EDGE ( 'NONE', *, *, #149, .T. ) ;
#23 = VERTEX_POINT ( 'NONE', #16 ) ;
#24 = CC_DESIGN_DATE_AND_TIME_ASSIGNMENT ( #243, #250, ( #269 ) ) ;
#25 = ORIENTED_EDGE ( 'NONE', *, *, #373, .T. ) ;
#26 = ORIENTED_EDGE ( 'NONE', *, *, #124, .F. ) ;
#27 = LINE ( 'NONE', #99, #314 ) ;
#28 = VERTEX_POINT ( 'NONE', #53 ) ;
#29 = CC_DESIGN_APPROVAL ( #186, ( #269 ) ) ;
#30 = EDGE_LOOP ( 'NONE', ( #270, #65, #448, #446 ) ) ;
#31 = LINE ( 'NONE', #9, #178 ) ;
#32 = DIRECTION ( 'NONE',  ( 0.000000000000000000, -0.000000000000000000, 1.000000000000000000 ) ) ;
#33 = CARTESIAN_POINT ( 'NONE',  ( -2.500000000000000000, 3.061616997868383141E-16, -0.001000000000001000089 ) ) ;
#34 = VECTOR ( 'NONE', #209, 1000.000000000000000 ) ;
#35 = EDGE_LOOP ( 'NONE', ( #59, #72, #130, #352 ) ) ;
#36 = FACE_OUTER_BOUND ( 'NONE', #139, .T. ) ;
#37 = EDGE_LOOP ( 'NONE', ( #94, #277, #132, #265 ) ) ;
#38 = PRODUCT_RELATED_PRODUCT_CATEGORY ( 'detail', '', ( #141 ) ) ;
#39 = DIRECTION ( 'NONE',  ( -0.000000000000000000, -0.000000000000000000, -1.000000000000000000 ) ) ;
#40 = COORDINATED_UNIVERSAL_TIME_OFFSET ( 5, 30, .AHEAD. ) ;
#41 = SHAPE_DEFINITION_REPRESENTATION ( #204, #147 ) ;
#42 = AXIS2_PLACEMENT_3D ( 'NONE', #227, #445, #96 ) ;
#43 = CARTESIAN_POINT ( 'NONE',  ( 5.999999999999999112, -5.999999999999999112, 37.00000000000000000 ) ) ;
#44 = CARTESIAN_POINT ( 'NONE',  ( -3.999999999999998224, 4.000000000000000888, 0.000000000000000000 ) ) ;
#45 = DIRECTION ( 'NONE',  ( -0.000000000000000000, -0.000000000000000000, 1.000000000000000000 ) ) ;
#46 = ADVANCED_FACE ( 'NONE', ( #129 ), #55, .F. ) ;
#47 = VECTOR ( 'NONE', #398, 1000.000000000000000 ) ;
#48 = CARTESIAN_POINT ( 'NONE',  ( 4.000000000000000888, 4.000000000000000888, 30.00000000000000000 ) ) ;
#49 = CIRCLE ( 'NONE', #380, 2.500000000000000000 ) ;
#50 = DIRECTION ( 'NONE',  ( -0.000000000000000000, -0.000000000000000000, -1.000000000000000000 ) ) ;
#51 = CARTESIAN_POINT ( 'NONE',  ( -4.000000000000000000, -3.999999999999999112, 30.00000000000000000 ) ) ;
#52 =( GEOMETRIC_REPRESENTATION_CONTEXT ( 3 ) GLOBAL_UNCERTAINTY_ASSIGNED_CONTEXT ( ( #298 ) ) GLOBAL_UNIT_ASSIGNED_CONTEXT ( ( #205, #452, #140 ) ) REPRESENTATION_CONTEXT ( 'NONE', 'WORKASPACE' ) );
#53 = CARTESIAN_POINT ( 'NONE',  ( -6.000000000000002665, 6.000000000000000888, 0.000000000000000000 ) ) ;
#54 = FACE_OUTER_BOUND ( 'NONE', #37, .T. ) ;
#55 = PLANE ( 'NONE',  #334 ) ;
#56 = EDGE_CURVE ( 'NONE', #238, #1, #156, .T. ) ;
#57 = VERTEX_POINT ( 'NONE', #121 ) ;
#58 = DIRECTION ( 'NONE',  ( 1.000000000000000000, 0.000000000000000000, 0.000000000000000000 ) ) ;
#59 = ORIENTED_EDGE ( 'NONE', *, *, #17, .T. ) ;
#60 = LINE ( 'NONE', #304, #391 ) ;
#61 = FACE_OUTER_BOUND ( 'NONE', #158, .T. ) ;
#62 = ORIENTED_EDGE ( 'NONE', *, *, #159, .T. ) ;
#63 = ORIENTED_EDGE ( 'NONE', *, *, #279, .T. ) ;
#64 = CARTESIAN_POINT ( 'NONE',  ( -4.000000000000000000, -3.999999999999999112, 0.000000000000000000 ) ) ;
#65 = ORIENTED_EDGE ( 'NONE', *, *, #303, .F. ) ;
#66 = ADVANCED_FACE ( 'NONE', ( #261 ), #88, .F. ) ;
#67 = CARTESIAN_POINT ( 'NONE',  ( -6.000000000000000888, -5.999999999999999112, 37.00000000000000000 ) ) ;
#68 = ORIENTED_EDGE ( 'NONE', *, *, #251, .T. ) ;
#69 = PERSON_AND_ORGANIZATION ( #208, #83 ) ;
#70 = AXIS2_PLACEMENT_3D ( 'NONE', #67, #353, #32 ) ;
#71 = COORDINATED_UNIVERSAL_TIME_OFFSET ( 5, 30, .AHEAD. ) ;
#72 = ORIENTED_EDGE ( 'NONE', *, *, #115, .F. ) ;
#73 = DIRECTION ( 'NONE',  ( 1.000000000000000000, 0.000000000000000000, 0.000000000000000000 ) ) ;
#74 = CARTESIAN_POINT ( 'NONE',  ( -6.000000000000002665, 6.000000000000000888, 37.00000000000000000 ) ) ;
#75 = APPROVAL_DATE_TIME ( #288, #186 ) ;
#76 = VERTEX_POINT ( 'NONE', #18 ) ;
#77 = CALENDAR_DATE ( 2026, 24, 8 ) ;
#78 = LINE ( 'NONE', #346, #401 ) ;
#79 = LINE ( 'NONE', #152, #296 ) ;
#80 = PLANE ( 'NONE',  #70 ) ;
#81 = PERSON_AND_ORGANIZATION ( #208, #83 ) ;
#82 = DIRECTION ( 'NONE',  ( -0.000000000000000000, -0.000000000000000000, -1.000000000000000000 ) ) ;
#83 = ORGANIZATION ( 'UNSPECIFIED', 'UNSPECIFIED', '' ) ;
#84 = FACE_BOUND ( 'NONE', #356, .T. ) ;
#85 = APPROVAL_DATE_TIME ( #255, #285 ) ;
#86 = EDGE_CURVE ( 'NONE', #228, #57, #408, .T. ) ;
#87 = CARTESIAN_POINT ( 'NONE',  ( -4.000000000000000000, -3.999999999999999112, 0.000000000000000000 ) ) ;
#88 = PLANE ( 'NONE',  #184 ) ;
#89 = PRODUCT_DEFINITION_FORMATION_WITH_SPECIFIED_SOURCE ( 'ANY', '', #141, .NOT_KNOWN. ) ;
#90 = DIRECTION ( 'NONE',  ( -1.000000000000000000, -1.445602896647339163E-16, 0.000000000000000000 ) ) ;
#91 = PLANE ( 'NONE',  #223 ) ;
#92 = CARTESIAN_POINT ( 'NONE',  ( 4.000000000000000888, 4.000000000000000888, 30.00000000000000000 ) ) ;
#93 = DIRECTION ( 'NONE',  ( -0.000000000000000000, -0.000000000000000000, -1.000000000000000000 ) ) ;
#94 = ORIENTED_EDGE ( 'NONE', *, *, #118, .T. ) ;
#95 = EDGE_CURVE ( 'NONE', #237, #241, #372, .T. ) ;
#96 = DIRECTION ( 'NONE',  ( -1.445602896647339163E-16, 1.000000000000000000, 0.000000000000000000 ) ) ;
#97 = DESIGN_CONTEXT ( 'detailed design', #387, 'design' ) ;
#98 = ORIENTED_EDGE ( 'NONE', *, *, #358, .T. ) ;
#99 = CARTESIAN_POINT ( 'NONE',  ( 4.000000000000000000, -4.000000000000000888, 30.00000000000000000 ) ) ;
#100 = CARTESIAN_POINT ( 'NONE',  ( 2.500000000000000000, 0.000000000000000000, -0.001000000000001000089 ) ) ;
#101 = DIRECTION ( 'NONE',  ( 0.000000000000000000, 0.000000000000000000, 1.000000000000000000 ) ) ;
#102 = VECTOR ( 'NONE', #39, 1000.000000000000000 ) ;
#103 = VERTEX_POINT ( 'NONE', #146 ) ;
#104 = SECURITY_CLASSIFICATION ( '', '', #221 ) ;
#105 = VERTEX_POINT ( 'NONE', #43 ) ;
#106 = LINE ( 'NONE', #239, #188 ) ;
#107 = VECTOR ( 'NONE', #374, 1000.000000000000000 ) ;
#108 = CC_DESIGN_PERSON_AND_ORGANIZATION_ASSIGNMENT ( #69, #404, ( #269 ) ) ;
#109 = PERSON_AND_ORGANIZATION ( #208, #83 ) ;
#110 = LINE ( 'NONE', #252, #47 ) ;
#111 = APPROVAL_PERSON_ORGANIZATION ( #324, #285, #400 ) ;
#112 = LINE ( 'NONE', #2, #189 ) ;
#113 = COORDINATED_UNIVERSAL_TIME_OFFSET ( 5, 30, .AHEAD. ) ;
#114 = AXIS2_PLACEMENT_3D ( 'NONE', #126, #267, #58 ) ;
#115 = EDGE_CURVE ( 'NONE', #379, #28, #429, .T. ) ;
#116 = DIRECTION ( 'NONE',  ( -2.168404344971009115E-16, -1.000000000000000000, 0.000000000000000000 ) ) ;
#117 = LINE ( 'NONE', #406, #362 ) ;
#118 = EDGE_CURVE ( 'NONE', #238, #76, #49, .T. ) ;
#119 = VECTOR ( 'NONE', #219, 1000.000000000000000 ) ;
#120 = CARTESIAN_POINT ( 'NONE',  ( 5.999999999999997335, 6.000000000000000888, 37.00000000000000000 ) ) ;
#121 = CARTESIAN_POINT ( 'NONE',  ( 4.000000000000000888, 4.000000000000000888, 0.000000000000000000 ) ) ;
#122 = VECTOR ( 'NONE', #357, 1000.000000000000000 ) ;
#123 = CARTESIAN_POINT ( 'NONE',  ( 0.000000000000000000, 0.000000000000000000, 0.000000000000000000 ) ) ;
#124 = EDGE_CURVE ( 'NONE', #412, #241, #31, .T. ) ;
#125 = PERSON_AND_ORGANIZATION_ROLE ( 'design_owner' ) ;
#126 = CARTESIAN_POINT ( 'NONE',  ( 0.000000000000000000, 0.000000000000000000, 37.00000000000000000 ) ) ;
#127 = CARTESIAN_POINT ( 'NONE',  ( -6.000000000000002665, 6.000000000000000888, 37.00000000000000000 ) ) ;
#128 = PERSON_AND_ORGANIZATION ( #208, #83 ) ;
#129 = FACE_OUTER_BOUND ( 'NONE', #35, .T. ) ;
#130 = ORIENTED_EDGE ( 'NONE', *, *, #179, .F. ) ;
#131 = ADVANCED_FACE ( 'NONE', ( #61 ), #291, .F. ) ;
#132 = ORIENTED_EDGE ( 'NONE', *, *, #211, .T. ) ;
#133 = CARTESIAN_POINT ( 'NONE',  ( 0.000000000000000000, 0.000000000000000000, 30.00000000000000000 ) ) ;
#134 = DIRECTION ( 'NONE',  ( -1.000000000000000000, 2.168404344971008868E-16, -0.000000000000000000 ) ) ;
#135 = ORIENTED_EDGE ( 'NONE', *, *, #292, .F. ) ;
#136 = VECTOR ( 'NONE', #82, 1000.000000000000000 ) ;
#137 = CARTESIAN_POINT ( 'NONE',  ( 5.999999999999999112, -5.999999999999999112, 0.000000000000000000 ) ) ;
#138 = CIRCLE ( 'NONE', #114, 2.500000000000000000 ) ;
#139 = EDGE_LOOP ( 'NONE', ( #226, #68, #203, #342 ) ) ;
#140 =( NAMED_UNIT ( * ) SI_UNIT ( $, .STERADIAN. ) SOLID_ANGLE_UNIT ( ) );
#141 = PRODUCT ( 'TesthCover_Default_sldprt', 'TesthCover_Default_sldprt', '', ( #300 ) ) ;
#142 = APPROVAL_STATUS ( 'not_yet_approved' ) ;
#143 = ORIENTED_EDGE ( 'NONE', *, *, #86, .F. ) ;
#144 = EDGE_CURVE ( 'NONE', #105, #237, #258, .T. ) ;
#145 = CARTESIAN_POINT ( 'NONE',  ( -6.000000000000002665, 6.000000000000000888, 37.00000000000000000 ) ) ;
#146 = CARTESIAN_POINT ( 'NONE',  ( 4.000000000000000000, -4.000000000000000888, 30.00000000000000000 ) ) ;
#147 = ADVANCED_BREP_SHAPE_REPRESENTATION ( 'TesthCover_Default_sldprt', ( #6, #275 ), #52 ) ;
#148 = PERSON_AND_ORGANIZATION ( #208, #83 ) ;
#149 = EDGE_CURVE ( 'NONE', #103, #394, #78, .T. ) ;
#150 = DIRECTION ( 'NONE',  ( 1.000000000000000000, 0.000000000000000000, 0.000000000000000000 ) ) ;
#151 = PERSON_AND_ORGANIZATION_ROLE ( 'creator' ) ;
#152 = CARTESIAN_POINT ( 'NONE',  ( -6.000000000000000888, -5.999999999999999112, 37.00000000000000000 ) ) ;
#153 = LOCAL_TIME ( 2, 40, 25.00000000000000000, #113 ) ;
#154 = CC_DESIGN_DATE_AND_TIME_ASSIGNMENT ( #244, #286, ( #104 ) ) ;
#155 = AXIS2_PLACEMENT_3D ( 'NONE', #123, #170, #345 ) ;
#156 = LINE ( 'NONE', #100, #294 ) ;
#157 = FACE_OUTER_BOUND ( 'NONE', #317, .T. ) ;
#158 = EDGE_LOOP ( 'NONE', ( #235, #4, #212, #162 ) ) ;
#159 = EDGE_CURVE ( 'NONE', #444, #231, #385, .T. ) ;
#160 = FACE_OUTER_BOUND ( 'NONE', #248, .T. ) ;
#161 = DIRECTION ( 'NONE',  ( -0.000000000000000000, -0.000000000000000000, 1.000000000000000000 ) ) ;
#162 = ORIENTED_EDGE ( 'NONE', *, *, #191, .T. ) ;
#163 = CARTESIAN_POINT ( 'NONE',  ( 4.000000000000000000, -4.000000000000000888, 0.000000000000000000 ) ) ;
#164 = ORIENTED_EDGE ( 'NONE', *, *, #409, .T. ) ;
#165 = ORIENTED_EDGE ( 'NONE', *, *, #329, .F. ) ;
#166 = CARTESIAN_POINT ( 'NONE',  ( 0.000000000000000000, 0.000000000000000000, 0.000000000000000000 ) ) ;
#167 = LINE ( 'NONE', #416, #107 ) ;
#168 = ORIENTED_EDGE ( 'NONE', *, *, #303, .T. ) ;
#169 = CC_DESIGN_APPROVAL ( #197, ( #104 ) ) ;
#170 = DIRECTION ( 'NONE',  ( -0.000000000000000000, 0.000000000000000000, 1.000000000000000000 ) ) ;
#171 = VERTEX_POINT ( 'NONE', #351 ) ;
#172 = VECTOR ( 'NONE', #426, 1000.000000000000000 ) ;
#173 = CARTESIAN_POINT ( 'NONE',  ( 0.000000000000000000, 0.000000000000000000, 30.00000000000000000 ) ) ;
#174 = AXIS2_PLACEMENT_3D ( 'NONE', #120, #90, #322 ) ;
#175 = ORIENTED_EDGE ( 'NONE', *, *, #144, .T. ) ;
#176 = APPROVAL_ROLE ( '' ) ;
#177 = DATE_AND_TIME ( #215, #407 ) ;
#178 = VECTOR ( 'NONE', #330, 1000.000000000000000 ) ;
#179 = EDGE_CURVE ( 'NONE', #237, #379, #7, .T. ) ;
#180 = DIRECTION ( 'NONE',  ( 1.000000000000000000, 0.000000000000000000, 0.000000000000000000 ) ) ;
#181 = LINE ( 'NONE', #427, #450 ) ;
#182 = DIRECTION ( 'NONE',  ( -0.000000000000000000, -0.000000000000000000, -1.000000000000000000 ) ) ;
#183 = CC_DESIGN_APPROVAL ( #285, ( #89 ) ) ;
#184 = AXIS2_PLACEMENT_3D ( 'NONE', #51, #263, #335 ) ;
#185 = DIRECTION ( 'NONE',  ( 0.000000000000000000, 0.000000000000000000, 1.000000000000000000 ) ) ;
#186 = APPROVAL ( #289, 'UNSPECIFIED' ) ;
#187 = ORIENTED_EDGE ( 'NONE', *, *, #348, .F. ) ;
#188 = VECTOR ( 'NONE', #323, 1000.000000000000000 ) ;
#189 = VECTOR ( 'NONE', #290, 1000.000000000000000 ) ;
#190 = ORIENTED_EDGE ( 'NONE', *, *, #211, .F. ) ;
#191 = EDGE_CURVE ( 'NONE', #394, #231, #110, .T. ) ;
#192 = DIRECTION ( 'NONE',  ( -0.000000000000000000, -0.000000000000000000, -1.000000000000000000 ) ) ;
#193 = EDGE_LOOP ( 'NONE', ( #62, #229, #419, #63 ) ) ;
#194 = APPLICATION_PROTOCOL_DEFINITION ( 'international standard', 'config_control_design', 1994, #200 ) ;
#195 = CYLINDRICAL_SURFACE ( 'NONE', #369, 2.500000000000000000 ) ;
#196 = ORIENTED_EDGE ( 'NONE', *, *, #115, .T. ) ;
#197 = APPROVAL ( #142, 'UNSPECIFIED' ) ;
#198 = FACE_OUTER_BOUND ( 'NONE', #206, .T. ) ;
#199 = DIRECTION ( 'NONE',  ( 1.000000000000000000, 0.000000000000000000, 0.000000000000000000 ) ) ;
#200 = APPLICATION_CONTEXT ( 'configuration controlled 3d designs of mechanical parts and assemblies' ) ;
#201 = EDGE_LOOP ( 'NONE', ( #280, #347, #311, #187 ) ) ;
#202 = CARTESIAN_POINT ( 'NONE',  ( 5.999999999999997335, 6.000000000000000888, 37.00000000000000000 ) ) ;
#203 = ORIENTED_EDGE ( 'NONE', *, *, #56, .T. ) ;
#204 = PRODUCT_DEFINITION_SHAPE ( 'NONE', 'NONE',  #269 ) ;
#205 =( LENGTH_UNIT ( ) NAMED_UNIT ( * ) SI_UNIT ( .MILLI., .METRE. ) );
#206 = EDGE_LOOP ( 'NONE', ( #388, #383, #281, #168 ) ) ;
#207 = CARTESIAN_POINT ( 'NONE',  ( 5.999999999999997335, 6.000000000000000888, 37.00000000000000000 ) ) ;
#208 = PERSON ( 'UNSPECIFIED', 'UNSPECIFIED', 'UNSPECIFIED', ('UNSPECIFIED'), ('UNSPECIFIED'), ('UNSPECIFIED') ) ;
#209 = DIRECTION ( 'NONE',  ( -1.000000000000000000, 2.168404344971008868E-16, -0.000000000000000000 ) ) ;
#210 = ORIENTED_EDGE ( 'NONE', *, *, #402, .F. ) ;
#211 = EDGE_CURVE ( 'NONE', #23, #1, #232, .T. ) ;
#212 = ORIENTED_EDGE ( 'NONE', *, *, #373, .F. ) ;
#213 = EDGE_CURVE ( 'NONE', #57, #444, #106, .T. ) ;
#214 = ORIENTED_EDGE ( 'NONE', *, *, #17, .F. ) ;
#215 = CALENDAR_DATE ( 2026, 24, 8 ) ;
#216 = ADVANCED_FACE ( 'NONE', ( #421 ), #80, .F. ) ;
#217 = CARTESIAN_POINT ( 'NONE',  ( -6.000000000000002665, 6.000000000000000888, 37.00000000000000000 ) ) ;
#218 = CARTESIAN_POINT ( 'NONE',  ( -3.999999999999998224, 4.000000000000000888, 30.00000000000000000 ) ) ;
#219 = DIRECTION ( 'NONE',  ( -0.000000000000000000, -0.000000000000000000, -1.000000000000000000 ) ) ;
#220 = EDGE_CURVE ( 'NONE', #379, #423, #389, .T. ) ;
#221 = SECURITY_CLASSIFICATION_LEVEL ( 'unclassified' ) ;
#222 = ADVANCED_FACE ( 'NONE', ( #36 ), #319, .F. ) ;
#223 = AXIS2_PLACEMENT_3D ( 'NONE', #432, #293, #433 ) ;
#224 = CARTESIAN_POINT ( 'NONE',  ( -3.999999999999998224, 4.000000000000000888, 0.000000000000000000 ) ) ;
#225 = DIRECTION ( 'NONE',  ( -0.000000000000000000, -0.000000000000000000, -1.000000000000000000 ) ) ;
#226 = ORIENTED_EDGE ( 'NONE', *, *, #424, .F. ) ;
#227 = CARTESIAN_POINT ( 'NONE',  ( -6.000000000000002665, 6.000000000000000888, 37.00000000000000000 ) ) ;
#228 = VERTEX_POINT ( 'NONE', #48 ) ;
#229 = ORIENTED_EDGE ( 'NONE', *, *, #191, .F. ) ;
#230 = CC_DESIGN_PERSON_AND_ORGANIZATION_ASSIGNMENT ( #390, #320, ( #89 ) ) ;
#231 = VERTEX_POINT ( 'NONE', #87 ) ;
#232 = CIRCLE ( 'NONE', #301, 2.500000000000000000 ) ;
#233 = AXIS2_PLACEMENT_3D ( 'NONE', #173, #240, #307 ) ;
#234 = ORIENTED_EDGE ( 'NONE', *, *, #220, .F. ) ;
#235 = ORIENTED_EDGE ( 'NONE', *, *, #348, .T. ) ;
#236 = DIRECTION ( 'NONE',  ( 1.000000000000000000, 0.000000000000000000, 0.000000000000000000 ) ) ;
#237 = VERTEX_POINT ( 'NONE', #207 ) ;
#238 = VERTEX_POINT ( 'NONE', #264 ) ;
#239 = CARTESIAN_POINT ( 'NONE',  ( 4.000000000000000888, 4.000000000000000888, 0.000000000000000000 ) ) ;
#240 = DIRECTION ( 'NONE',  ( 0.000000000000000000, 0.000000000000000000, 1.000000000000000000 ) ) ;
#241 = VERTEX_POINT ( 'NONE', #443 ) ;
#242 = EDGE_CURVE ( 'NONE', #28, #411, #60, .T. ) ;
#243 = DATE_AND_TIME ( #3, #15 ) ;
#244 = DATE_AND_TIME ( #397, #262 ) ;
#245 = VECTOR ( 'NONE', #225, 1000.000000000000000 ) ;
#246 = CARTESIAN_POINT ( 'NONE',  ( -6.000000000000002665, 6.000000000000000888, 37.00000000000000000 ) ) ;
#247 = COORDINATED_UNIVERSAL_TIME_OFFSET ( 5, 30, .AHEAD. ) ;
#248 = EDGE_LOOP ( 'NONE', ( #164, #143, #268, #344 ) ) ;
#249 = LINE ( 'NONE', #395, #102 ) ;
#250 = DATE_TIME_ROLE ( 'creation_date' ) ;
#251 = EDGE_CURVE ( 'NONE', #76, #238, #442, .T. ) ;
#252 = CARTESIAN_POINT ( 'NONE',  ( -4.000000000000000000, -3.999999999999999112, 30.00000000000000000 ) ) ;
#253 = DIRECTION ( 'NONE',  ( 1.000000000000000000, 0.000000000000000000, 0.000000000000000000 ) ) ;
#254 = LINE ( 'NONE', #218, #315 ) ;
#255 = DATE_AND_TIME ( #77, #153 ) ;
#256 = VECTOR ( 'NONE', #382, 1000.000000000000000 ) ;
#257 = CARTESIAN_POINT ( 'NONE',  ( 0.000000000000000000, 0.000000000000000000, 30.00000000000000000 ) ) ;
#258 = LINE ( 'NONE', #202, #436 ) ;
#259 = ADVANCED_FACE ( 'NONE', ( #160 ), #441, .F. ) ;
#260 = ADVANCED_FACE ( 'NONE', ( #340, #276 ), #336, .F. ) ;
#261 = FACE_OUTER_BOUND ( 'NONE', #193, .T. ) ;
#262 = LOCAL_TIME ( 2, 40, 25.00000000000000000, #71 ) ;
#263 = DIRECTION ( 'NONE',  ( -2.168404344971009115E-16, -1.000000000000000000, 0.000000000000000000 ) ) ;
#264 = CARTESIAN_POINT ( 'NONE',  ( 2.500000000000000000, 0.000000000000000000, 30.00000000000000000 ) ) ;
#265 = ORIENTED_EDGE ( 'NONE', *, *, #56, .F. ) ;
#266 = APPLICATION_PROTOCOL_DEFINITION ( 'international standard', 'config_control_design', 1994, #387 ) ;
#267 = DIRECTION ( 'NONE',  ( 0.000000000000000000, 0.000000000000000000, 1.000000000000000000 ) ) ;
#268 = ORIENTED_EDGE ( 'NONE', *, *, #358, .F. ) ;
#269 = PRODUCT_DEFINITION ( 'UNKNOWN', '', #89, #97 ) ;
#270 = ORIENTED_EDGE ( 'NONE', *, *, #14, .T. ) ;
#271 = DIRECTION ( 'NONE',  ( 1.445602896647339163E-16, -1.000000000000000000, 0.000000000000000000 ) ) ;
#272 = DIRECTION ( 'NONE',  ( 0.000000000000000000, -1.000000000000000000, 0.000000000000000000 ) ) ;
#273 = ORIENTED_EDGE ( 'NONE', *, *, #86, .T. ) ;
#274 = VERTEX_POINT ( 'NONE', #224 ) ;
#275 = AXIS2_PLACEMENT_3D ( 'NONE', #166, #101, #236 ) ;
#276 = FACE_OUTER_BOUND ( 'NONE', #425, .T. ) ;
#277 = ORIENTED_EDGE ( 'NONE', *, *, #424, .T. ) ;
#278 = LINE ( 'NONE', #33, #256 ) ;
#279 = EDGE_CURVE ( 'NONE', #103, #444, #27, .T. ) ;
#280 = ORIENTED_EDGE ( 'NONE', *, *, #159, .F. ) ;
#281 = ORIENTED_EDGE ( 'NONE', *, *, #144, .F. ) ;
#282 = CARTESIAN_POINT ( 'NONE',  ( 0.000000000000000000, 0.000000000000000000, 37.00000000000000000 ) ) ;
#283 = EDGE_LOOP ( 'NONE', ( #175, #316, #306, #415 ) ) ;
#284 = VECTOR ( 'NONE', #375, 1000.000000000000000 ) ;
#285 = APPROVAL ( #396, 'UNSPECIFIED' ) ;
#286 = DATE_TIME_ROLE ( 'classification_date' ) ;
#287 = LINE ( 'NONE', #44, #403 ) ;
#288 = DATE_AND_TIME ( #431, #312 ) ;
#289 = APPROVAL_STATUS ( 'not_yet_approved' ) ;
#290 = DIRECTION ( 'NONE',  ( 1.000000000000000000, 0.000000000000000000, 0.000000000000000000 ) ) ;
#291 = PLANE ( 'NONE',  #437 ) ;
#292 = EDGE_CURVE ( 'NONE', #228, #103, #167, .T. ) ;
#293 = DIRECTION ( 'NONE',  ( 1.000000000000000000, -1.084202172485504311E-16, 0.000000000000000000 ) ) ;
#294 = VECTOR ( 'NONE', #297, 1000.000000000000000 ) ;
#295 = CC_DESIGN_PERSON_AND_ORGANIZATION_ASSIGNMENT ( #81, #428, ( #104 ) ) ;
#296 = VECTOR ( 'NONE', #50, 1000.000000000000000 ) ;
#297 = DIRECTION ( 'NONE',  ( -0.000000000000000000, -0.000000000000000000, 1.000000000000000000 ) ) ;
#298 = UNCERTAINTY_MEASURE_WITH_UNIT (LENGTH_MEASURE( 1.000000000000000082E-05 ), #205, 'distance_accuracy_value', 'NONE');
#299 = ORIENTED_EDGE ( 'NONE', *, *, #251, .F. ) ;
#300 = MECHANICAL_CONTEXT ( 'NONE', #200, 'mechanical' ) ;
#301 = AXIS2_PLACEMENT_3D ( 'NONE', #370, #185, #253 ) ;
#302 = DIRECTION ( 'NONE',  ( 1.000000000000000000, 0.000000000000000000, 0.000000000000000000 ) ) ;
#303 = EDGE_CURVE ( 'NONE', #105, #412, #309, .T. ) ;
#304 = CARTESIAN_POINT ( 'NONE',  ( -6.000000000000002665, 6.000000000000000888, 0.000000000000000000 ) ) ;
#305 = DIRECTION ( 'NONE',  ( -1.000000000000000000, -0.000000000000000000, -0.000000000000000000 ) ) ;
#306 = ORIENTED_EDGE ( 'NONE', *, *, #220, .T. ) ;
#307 = DIRECTION ( 'NONE',  ( 1.000000000000000000, 0.000000000000000000, -0.000000000000000000 ) ) ;
#308 = EDGE_LOOP ( 'NONE', ( #392, #22, #25, #98 ) ) ;
#309 = LINE ( 'NONE', #371, #368 ) ;
#310 = CARTESIAN_POINT ( 'NONE',  ( -3.999999999999998224, 4.000000000000000888, 30.00000000000000000 ) ) ;
#311 = ORIENTED_EDGE ( 'NONE', *, *, #409, .F. ) ;
#312 = LOCAL_TIME ( 2, 40, 25.00000000000000000, #40 ) ;
#313 = ADVANCED_FACE ( 'NONE', ( #54 ), #195, .F. ) ;
#314 = VECTOR ( 'NONE', #93, 1000.000000000000000 ) ;
#315 = VECTOR ( 'NONE', #364, 1000.000000000000000 ) ;
#316 = ORIENTED_EDGE ( 'NONE', *, *, #179, .T. ) ;
#317 = EDGE_LOOP ( 'NONE', ( #386, #381, #135, #273 ) ) ;
#318 = PLANE ( 'NONE',  #430 ) ;
#319 = CYLINDRICAL_SURFACE ( 'NONE', #418, 2.500000000000000000 ) ;
#320 = PERSON_AND_ORGANIZATION_ROLE ( 'design_supplier' ) ;
#321 = EDGE_LOOP ( 'NONE', ( #349, #299 ) ) ;
#322 = DIRECTION ( 'NONE',  ( 1.445602896647339163E-16, -1.000000000000000000, 0.000000000000000000 ) ) ;
#323 = DIRECTION ( 'NONE',  ( -1.084202172485504187E-16, -1.000000000000000000, 0.000000000000000000 ) ) ;
#324 = PERSON_AND_ORGANIZATION ( #208, #83 ) ;
#325 = APPROVAL_DATE_TIME ( #177, #197 ) ;
#326 = CC_DESIGN_PERSON_AND_ORGANIZATION_ASSIGNMENT ( #11, #151, ( #89 ) ) ;
#327 = COORDINATED_UNIVERSAL_TIME_OFFSET ( 5, 30, .AHEAD. ) ;
#328 = CC_DESIGN_SECURITY_CLASSIFICATION ( #104, ( #89 ) ) ;
#329 = EDGE_CURVE ( 'NONE', #1, #23, #138, .T. ) ;
#330 = DIRECTION ( 'NONE',  ( -1.445602896647339163E-16, 1.000000000000000000, -0.000000000000000000 ) ) ;
#331 = CLOSED_SHELL ( 'NONE', ( #313, #332, #46, #453, #216, #339, #260, #405, #259, #131, #66, #439, #222 ) ) ;
#332 = ADVANCED_FACE ( 'NONE', ( #198 ), #354, .F. ) ;
#333 = CARTESIAN_POINT ( 'NONE',  ( 2.500000000000000000, 0.000000000000000000, 37.00000000000000000 ) ) ;
#334 = AXIS2_PLACEMENT_3D ( 'NONE', #127, #272, #417 ) ;
#335 = DIRECTION ( 'NONE',  ( 1.000000000000000000, -2.168404344971009115E-16, 0.000000000000000000 ) ) ;
#336 = PLANE ( 'NONE',  #155 ) ;
#337 = CARTESIAN_POINT ( 'NONE',  ( 5.999999999999997335, 6.000000000000000888, 37.00000000000000000 ) ) ;
#338 = CARTESIAN_POINT ( 'NONE',  ( -6.000000000000000888, -5.999999999999999112, 0.000000000000000000 ) ) ;
#339 = ADVANCED_FACE ( 'NONE', ( #84, #359 ), #318, .T. ) ;
#340 = FACE_BOUND ( 'NONE', #201, .T. ) ;
#341 = FACE_BOUND ( 'NONE', #321, .T. ) ;
#342 = ORIENTED_EDGE ( 'NONE', *, *, #329, .T. ) ;
#343 = ORIENTED_EDGE ( 'NONE', *, *, #242, .F. ) ;
#344 = ORIENTED_EDGE ( 'NONE', *, *, #365, .T. ) ;
#345 = DIRECTION ( 'NONE',  ( 1.000000000000000000, 0.000000000000000000, 0.000000000000000000 ) ) ;
#346 = CARTESIAN_POINT ( 'NONE',  ( -4.000000000000000000, -3.999999999999999112, 30.00000000000000000 ) ) ;
#347 = ORIENTED_EDGE ( 'NONE', *, *, #213, .F. ) ;
#348 = EDGE_CURVE ( 'NONE', #231, #274, #287, .T. ) ;
#349 = ORIENTED_EDGE ( 'NONE', *, *, #118, .F. ) ;
#350 = DIRECTION ( 'NONE',  ( 0.000000000000000000, -0.000000000000000000, 1.000000000000000000 ) ) ;
#351 = CARTESIAN_POINT ( 'NONE',  ( -3.999999999999998224, 4.000000000000000888, 30.00000000000000000 ) ) ;
#352 = ORIENTED_EDGE ( 'NONE', *, *, #95, .T. ) ;
#353 = DIRECTION ( 'NONE',  ( 0.000000000000000000, 1.000000000000000000, 0.000000000000000000 ) ) ;
#354 = PLANE ( 'NONE',  #174 ) ;
#355 = ORIENTED_EDGE ( 'NONE', *, *, #14, .F. ) ;
#356 = EDGE_LOOP ( 'NONE', ( #165, #190 ) ) ;
#357 = DIRECTION ( 'NONE',  ( 1.445602896647339163E-16, -1.000000000000000000, 0.000000000000000000 ) ) ;
#358 = EDGE_CURVE ( 'NONE', #171, #228, #112, .T. ) ;
#359 = FACE_OUTER_BOUND ( 'NONE', #283, .T. ) ;
#360 = APPROVAL_PERSON_ORGANIZATION ( #148, #186, #363 ) ;
#361 = AXIS2_PLACEMENT_3D ( 'NONE', #133, #192, #384 ) ;
#362 = VECTOR ( 'NONE', #199, 1000.000000000000000 ) ;
#363 = APPROVAL_ROLE ( '' ) ;
#364 = DIRECTION ( 'NONE',  ( 2.168404344971008868E-16, 1.000000000000000000, -0.000000000000000000 ) ) ;
#365 = EDGE_CURVE ( 'NONE', #171, #274, #249, .T. ) ;
#366 = DIRECTION ( 'NONE',  ( 1.000000000000000000, 0.000000000000000000, 0.000000000000000000 ) ) ;
#367 = CARTESIAN_POINT ( 'NONE',  ( -6.000000000000000888, -5.999999999999999112, 0.000000000000000000 ) ) ;
#368 = VECTOR ( 'NONE', #19, 1000.000000000000000 ) ;
#369 = AXIS2_PLACEMENT_3D ( 'NONE', #21, #161, #302 ) ;
#370 = CARTESIAN_POINT ( 'NONE',  ( 0.000000000000000000, 0.000000000000000000, 37.00000000000000000 ) ) ;
#371 = CARTESIAN_POINT ( 'NONE',  ( 5.999999999999999112, -5.999999999999999112, 37.00000000000000000 ) ) ;
#372 = LINE ( 'NONE', #337, #136 ) ;
#373 = EDGE_CURVE ( 'NONE', #394, #171, #254, .T. ) ;
#374 = DIRECTION ( 'NONE',  ( -1.084202172485504187E-16, -1.000000000000000000, 0.000000000000000000 ) ) ;
#375 = DIRECTION ( 'NONE',  ( 1.000000000000000000, 0.000000000000000000, 0.000000000000000000 ) ) ;
#376 = PLANE ( 'NONE',  #233 ) ;
#377 = ORIENTED_EDGE ( 'NONE', *, *, #242, .T. ) ;
#378 = CARTESIAN_POINT ( 'NONE',  ( -3.999999999999998224, 4.000000000000000888, 30.00000000000000000 ) ) ;
#379 = VERTEX_POINT ( 'NONE', #246 ) ;
#380 = AXIS2_PLACEMENT_3D ( 'NONE', #257, #182, #180 ) ;
#381 = ORIENTED_EDGE ( 'NONE', *, *, #279, .F. ) ;
#382 = DIRECTION ( 'NONE',  ( -0.000000000000000000, -0.000000000000000000, 1.000000000000000000 ) ) ;
#383 = ORIENTED_EDGE ( 'NONE', *, *, #95, .F. ) ;
#384 = DIRECTION ( 'NONE',  ( 1.000000000000000000, 0.000000000000000000, 0.000000000000000000 ) ) ;
#385 = LINE ( 'NONE', #64, #34 ) ;
#386 = ORIENTED_EDGE ( 'NONE', *, *, #213, .T. ) ;
#387 = APPLICATION_CONTEXT ( 'configuration controlled 3d designs of mechanical parts and assemblies' ) ;
#388 = ORIENTED_EDGE ( 'NONE', *, *, #124, .T. ) ;
#389 = LINE ( 'NONE', #74, #122 ) ;
#390 = PERSON_AND_ORGANIZATION ( #208, #83 ) ;
#391 = VECTOR ( 'NONE', #271, 1000.000000000000000 ) ;
#392 = ORIENTED_EDGE ( 'NONE', *, *, #292, .T. ) ;
#393 = EDGE_CURVE ( 'NONE', #423, #105, #181, .T. ) ;
#394 = VERTEX_POINT ( 'NONE', #399 ) ;
#395 = CARTESIAN_POINT ( 'NONE',  ( -3.999999999999998224, 4.000000000000000888, 30.00000000000000000 ) ) ;
#396 = APPROVAL_STATUS ( 'not_yet_approved' ) ;
#397 = CALENDAR_DATE ( 2026, 24, 8 ) ;
#398 = DIRECTION ( 'NONE',  ( -0.000000000000000000, -0.000000000000000000, -1.000000000000000000 ) ) ;
#399 = CARTESIAN_POINT ( 'NONE',  ( -4.000000000000000000, -3.999999999999999112, 30.00000000000000000 ) ) ;
#400 = APPROVAL_ROLE ( '' ) ;
#401 = VECTOR ( 'NONE', #134, 1000.000000000000000 ) ;
#402 = EDGE_CURVE ( 'NONE', #423, #411, #79, .T. ) ;
#403 = VECTOR ( 'NONE', #5, 1000.000000000000000 ) ;
#404 = PERSON_AND_ORGANIZATION_ROLE ( 'creator' ) ;
#405 = ADVANCED_FACE ( 'NONE', ( #157 ), #91, .F. ) ;
#406 = CARTESIAN_POINT ( 'NONE',  ( -3.999999999999998224, 4.000000000000000888, 0.000000000000000000 ) ) ;
#407 = LOCAL_TIME ( 2, 40, 25.00000000000000000, #247 ) ;
#408 = LINE ( 'NONE', #92, #245 ) ;
#409 = EDGE_CURVE ( 'NONE', #274, #57, #117, .T. ) ;
#410 = DIRECTION ( 'NONE',  ( 0.000000000000000000, 1.000000000000000000, 0.000000000000000000 ) ) ;
#411 = VERTEX_POINT ( 'NONE', #338 ) ;
#412 = VERTEX_POINT ( 'NONE', #137 ) ;
#413 = CARTESIAN_POINT ( 'NONE',  ( -6.000000000000002665, 6.000000000000000888, 0.000000000000000000 ) ) ;
#414 = FACE_OUTER_BOUND ( 'NONE', #451, .T. ) ;
#415 = ORIENTED_EDGE ( 'NONE', *, *, #393, .T. ) ;
#416 = CARTESIAN_POINT ( 'NONE',  ( 4.000000000000000888, 4.000000000000000888, 30.00000000000000000 ) ) ;
#417 = DIRECTION ( 'NONE',  ( 0.000000000000000000, -0.000000000000000000, -1.000000000000000000 ) ) ;
#418 = AXIS2_PLACEMENT_3D ( 'NONE', #8, #45, #366 ) ;
#419 = ORIENTED_EDGE ( 'NONE', *, *, #149, .F. ) ;
#420 = CARTESIAN_POINT ( 'NONE',  ( -6.000000000000000888, -5.999999999999999112, 37.00000000000000000 ) ) ;
#421 = FACE_OUTER_BOUND ( 'NONE', #30, .T. ) ;
#422 = PLANE ( 'NONE',  #42 ) ;
#423 = VERTEX_POINT ( 'NONE', #420 ) ;
#424 = EDGE_CURVE ( 'NONE', #76, #23, #278, .T. ) ;
#425 = EDGE_LOOP ( 'NONE', ( #26, #355, #343, #214 ) ) ;
#426 = DIRECTION ( 'NONE',  ( -1.000000000000000000, -0.000000000000000000, -0.000000000000000000 ) ) ;
#427 = CARTESIAN_POINT ( 'NONE',  ( -6.000000000000000888, -5.999999999999999112, 37.00000000000000000 ) ) ;
#428 = PERSON_AND_ORGANIZATION_ROLE ( 'classification_officer' ) ;
#429 = LINE ( 'NONE', #217, #119 ) ;
#430 = AXIS2_PLACEMENT_3D ( 'NONE', #282, #10, #150 ) ;
#431 = CALENDAR_DATE ( 2026, 24, 8 ) ;
#432 = CARTESIAN_POINT ( 'NONE',  ( 4.000000000000000888, 4.000000000000000888, 30.00000000000000000 ) ) ;
#433 = DIRECTION ( 'NONE',  ( 1.084202172485504311E-16, 1.000000000000000000, 0.000000000000000000 ) ) ;
#434 = CC_DESIGN_PERSON_AND_ORGANIZATION_ASSIGNMENT ( #128, #125, ( #141 ) ) ;
#435 = APPROVAL_PERSON_ORGANIZATION ( #109, #197, #176 ) ;
#436 = VECTOR ( 'NONE', #447, 1000.000000000000000 ) ;
#437 = AXIS2_PLACEMENT_3D ( 'NONE', #310, #12, #116 ) ;
#438 = LINE ( 'NONE', #413, #13 ) ;
#439 = ADVANCED_FACE ( 'NONE', ( #341, #20 ), #376, .F. ) ;
#440 = LINE ( 'NONE', #367, #284 ) ;
#441 = PLANE ( 'NONE',  #449 ) ;
#442 = CIRCLE ( 'NONE', #361, 2.500000000000000000 ) ;
#443 = CARTESIAN_POINT ( 'NONE',  ( 5.999999999999997335, 6.000000000000000888, 0.000000000000000000 ) ) ;
#444 = VERTEX_POINT ( 'NONE', #163 ) ;
#445 = DIRECTION ( 'NONE',  ( 1.000000000000000000, 1.445602896647339163E-16, -0.000000000000000000 ) ) ;
#446 = ORIENTED_EDGE ( 'NONE', *, *, #402, .T. ) ;
#447 = DIRECTION ( 'NONE',  ( -1.445602896647339163E-16, 1.000000000000000000, -0.000000000000000000 ) ) ;
#448 = ORIENTED_EDGE ( 'NONE', *, *, #393, .F. ) ;
#449 = AXIS2_PLACEMENT_3D ( 'NONE', #378, #410, #350 ) ;
#450 = VECTOR ( 'NONE', #73, 1000.000000000000000 ) ;
#451 = EDGE_LOOP ( 'NONE', ( #377, #210, #234, #196 ) ) ;
#452 =( NAMED_UNIT ( * ) PLANE_ANGLE_UNIT ( ) SI_UNIT ( $, .RADIAN. ) );
#453 = ADVANCED_FACE ( 'NONE', ( #414 ), #422, .F. ) ;
ENDSEC;
END-ISO-10303-21;
