ISO-10303-21;
HEADER;
FILE_DESCRIPTION (( 'STEP AP203' ),
    '1' );
FILE_NAME ('wheel_insert_4mm_shaft_sldprt.STEP',
    '2026-08-23T21:10:36',
    ( '' ),
    ( '' ),
    'SwSTEP 2.0',
    'SolidWorks 2020',
    '' );
FILE_SCHEMA (( 'CONFIG_CONTROL_DESIGN' ));
ENDSEC;

DATA;
#1 = CARTESIAN_POINT ( 'NONE',  ( 0.000000000000000000, 0.000000000000000000, -12.00000000000000000 ) ) ;
#2 = DIRECTION ( 'NONE',  ( -0.5000000000000003331, -0.8660254037844384856, 0.000000000000000000 ) ) ;
#3 = CARTESIAN_POINT ( 'NONE',  ( 2.499999999999996447, 4.330127018922193649, 6.000000000000000000 ) ) ;
#4 = VERTEX_POINT ( 'NONE', #224 ) ;
#5 = EDGE_CURVE ( 'NONE', #142, #377, #15, .T. ) ;
#6 = AXIS2_PLACEMENT_3D ( 'NONE', #343, #30, #101 ) ;
#7 = CIRCLE ( 'NONE', #447, 2.000000000000000000 ) ;
#8 = VERTEX_POINT ( 'NONE', #53 ) ;
#9 = ORIENTED_EDGE ( 'NONE', *, *, #445, .F. ) ;
#10 = DIRECTION ( 'NONE',  ( -0.5000000000000000000, -0.8660254037844385966, 0.000000000000000000 ) ) ;
#11 = VERTEX_POINT ( 'NONE', #98 ) ;
#12 = LINE ( 'NONE', #89, #326 ) ;
#13 = CIRCLE ( 'NONE', #119, 4.000000000000000000 ) ;
#14 = DIRECTION ( 'NONE',  ( -0.000000000000000000, -0.000000000000000000, -1.000000000000000000 ) ) ;
#15 = LINE ( 'NONE', #178, #427 ) ;
#16 = LINE ( 'NONE', #442, #367 ) ;
#17 = CC_DESIGN_PERSON_AND_ORGANIZATION_ASSIGNMENT ( #262, #222, ( #331 ) ) ;
#18 = ADVANCED_FACE ( 'NONE', ( #151 ), #293, .F. ) ;
#19 = CARTESIAN_POINT ( 'NONE',  ( 2.499999999999996447, 4.330127018922193649, 0.000000000000000000 ) ) ;
#20 = CARTESIAN_POINT ( 'NONE',  ( -2.499999999999999556, -4.330127018922193649, 6.000000000000000000 ) ) ;
#21 = VECTOR ( 'NONE', #236, 1000.000000000000000 ) ;
#22 = VERTEX_POINT ( 'NONE', #122 ) ;
#23 = FACE_BOUND ( 'NONE', #179, .T. ) ;
#24 = AXIS2_PLACEMENT_3D ( 'NONE', #281, #205, #2 ) ;
#25 = DIRECTION ( 'NONE',  ( -0.000000000000000000, -0.000000000000000000, -1.000000000000000000 ) ) ;
#26 = DIRECTION ( 'NONE',  ( -0.000000000000000000, -0.000000000000000000, -1.000000000000000000 ) ) ;
#27 = CARTESIAN_POINT ( 'NONE',  ( -5.000000000000000888, -3.717264591378874669E-16, 6.000000000000000000 ) ) ;
#28 = ADVANCED_FACE ( 'NONE', ( #213 ), #372, .F. ) ;
#29 = CARTESIAN_POINT ( 'NONE',  ( 0.000000000000000000, 0.000000000000000000, 0.000000000000000000 ) ) ;
#30 = DIRECTION ( 'NONE',  ( 0.000000000000000000, 0.000000000000000000, 1.000000000000000000 ) ) ;
#31 = VERTEX_POINT ( 'NONE', #354 ) ;
#32 = EDGE_LOOP ( 'NONE', ( #234, #115, #172, #396 ) ) ;
#33 = DIRECTION ( 'NONE',  ( 1.000000000000000000, 0.000000000000000000, 0.000000000000000000 ) ) ;
#34 = DIRECTION ( 'NONE',  ( 0.5000000000000003331, 0.8660254037844384856, 0.000000000000000000 ) ) ;
#35 = ORIENTED_EDGE ( 'NONE', *, *, #86, .F. ) ;
#36 = CC_DESIGN_SECURITY_CLASSIFICATION ( #331, ( #88 ) ) ;
#37 = AXIS2_PLACEMENT_3D ( 'NONE', #1, #161, #273 ) ;
#38 = CARTESIAN_POINT ( 'NONE',  ( -5.000000000000000888, -3.717264591378874669E-16, 6.000000000000000000 ) ) ;
#39 = UNCERTAINTY_MEASURE_WITH_UNIT (LENGTH_MEASURE( 1.000000000000000082E-05 ), #96, 'distance_accuracy_value', 'NONE');
#40 = EDGE_CURVE ( 'NONE', #206, #306, #423, .T. ) ;
#41 = CARTESIAN_POINT ( 'NONE',  ( 0.000000000000000000, 0.000000000000000000, -12.00000000000000000 ) ) ;
#42 = COORDINATED_UNIVERSAL_TIME_OFFSET ( 5, 30, .AHEAD. ) ;
#43 = AXIS2_PLACEMENT_3D ( 'NONE', #406, #103, #99 ) ;
#44 = ORIENTED_EDGE ( 'NONE', *, *, #244, .T. ) ;
#45 = DIRECTION ( 'NONE',  ( 0.5000000000000003331, 0.8660254037844384856, 0.000000000000000000 ) ) ;
#46 = ADVANCED_FACE ( 'NONE', ( #277 ), #141, .T. ) ;
#47 = ORIENTED_EDGE ( 'NONE', *, *, #345, .F. ) ;
#48 = ORIENTED_EDGE ( 'NONE', *, *, #381, .T. ) ;
#49 = CIRCLE ( 'NONE', #294, 4.000000000000000000 ) ;
#50 = ORIENTED_EDGE ( 'NONE', *, *, #150, .F. ) ;
#51 = PERSON ( 'UNSPECIFIED', 'UNSPECIFIED', 'UNSPECIFIED', ('UNSPECIFIED'), ('UNSPECIFIED'), ('UNSPECIFIED') ) ;
#52 = VECTOR ( 'NONE', #250, 1000.000000000000227 ) ;
#53 = CARTESIAN_POINT ( 'NONE',  ( -4.000000000000000000, 4.898587196589412829E-16, 0.000000000000000000 ) ) ;
#54 = APPROVAL_ROLE ( '' ) ;
#55 = CC_DESIGN_PERSON_AND_ORGANIZATION_ASSIGNMENT ( #226, #335, ( #88 ) ) ;
#56 = CARTESIAN_POINT ( 'NONE',  ( 2.499999999999999112, -4.330127018922193649, 6.000000000000000000 ) ) ;
#57 = ORIENTED_EDGE ( 'NONE', *, *, #454, .F. ) ;
#58 = DIRECTION ( 'NONE',  ( 0.5000000000000002220, -0.8660254037844384856, 0.000000000000000000 ) ) ;
#59 = FACE_OUTER_BOUND ( 'NONE', #426, .T. ) ;
#60 = ORIENTED_EDGE ( 'NONE', *, *, #97, .T. ) ;
#61 = LINE ( 'NONE', #227, #188 ) ;
#62 = VECTOR ( 'NONE', #58, 1000.000000000000227 ) ;
#63 = DIRECTION ( 'NONE',  ( -1.000000000000000000, 0.000000000000000000, 0.000000000000000000 ) ) ;
#64 = ORIENTED_EDGE ( 'NONE', *, *, #291, .T. ) ;
#65 = DIRECTION ( 'NONE',  ( -1.000000000000000000, 0.000000000000000000, 0.000000000000000000 ) ) ;
#66 = COORDINATED_UNIVERSAL_TIME_OFFSET ( 5, 30, .AHEAD. ) ;
#67 = DIRECTION ( 'NONE',  ( -0.000000000000000000, -0.000000000000000000, 1.000000000000000000 ) ) ;
#68 = VERTEX_POINT ( 'NONE', #167 ) ;
#69 = LINE ( 'NONE', #136, #287 ) ;
#70 = ORIENTED_EDGE ( 'NONE', *, *, #219, .T. ) ;
#71 = PLANE ( 'NONE',  #201 ) ;
#72 = APPROVAL_DATE_TIME ( #117, #318 ) ;
#73 = DESIGN_CONTEXT ( 'detailed design', #248, 'design' ) ;
#74 = CARTESIAN_POINT ( 'NONE',  ( -2.500000000000001332, 4.330127018922192761, 6.000000000000000000 ) ) ;
#75 = DIRECTION ( 'NONE',  ( -1.000000000000000000, 0.000000000000000000, 0.000000000000000000 ) ) ;
#76 = ORIENTED_EDGE ( 'NONE', *, *, #197, .T. ) ;
#77 = LOCAL_TIME ( 2, 40, 36.00000000000000000, #66 ) ;
#78 = CALENDAR_DATE ( 2026, 24, 8 ) ;
#79 = EDGE_CURVE ( 'NONE', #377, #4, #304, .T. ) ;
#80 = DIRECTION ( 'NONE',  ( -0.000000000000000000, -0.000000000000000000, -1.000000000000000000 ) ) ;
#81 = EDGE_LOOP ( 'NONE', ( #421, #435, #145, #328 ) ) ;
#82 = MANIFOLD_SOLID_BREP ( 'Cut-Extrude2', #91 ) ;
#83 = DIRECTION ( 'NONE',  ( 0.5000000000000002220, -0.8660254037844384856, 0.000000000000000000 ) ) ;
#84 = VERTEX_POINT ( 'NONE', #356 ) ;
#85 = ORIENTED_EDGE ( 'NONE', *, *, #228, .T. ) ;
#86 = EDGE_CURVE ( 'NONE', #286, #206, #229, .T. ) ;
#87 = DIRECTION ( 'NONE',  ( 0.000000000000000000, 0.000000000000000000, -1.000000000000000000 ) ) ;
#88 = PRODUCT_DEFINITION_FORMATION_WITH_SPECIFIED_SOURCE ( 'ANY', '', #405, .NOT_KNOWN. ) ;
#89 = CARTESIAN_POINT ( 'NONE',  ( 4.999999999999999112, -2.230358754827323125E-15, 0.000000000000000000 ) ) ;
#90 = EDGE_LOOP ( 'NONE', ( #329, #278, #452, #118, #369, #135 ) ) ;
#91 = CLOSED_SHELL ( 'NONE', ( #420, #366, #441, #18, #284, #28, #112, #160, #319, #365, #46, #149, #355 ) ) ;
#92 = EDGE_CURVE ( 'NONE', #286, #337, #392, .T. ) ;
#93 = VECTOR ( 'NONE', #67, 1000.000000000000000 ) ;
#94 = EDGE_LOOP ( 'NONE', ( #391, #230 ) ) ;
#95 = FACE_OUTER_BOUND ( 'NONE', #81, .T. ) ;
#96 =( LENGTH_UNIT ( ) NAMED_UNIT ( * ) SI_UNIT ( .MILLI., .METRE. ) );
#97 = EDGE_CURVE ( 'NONE', #330, #4, #169, .T. ) ;
#98 = CARTESIAN_POINT ( 'NONE',  ( 2.000000000000000000, 2.449293598294706414E-16, 6.000000000000000000 ) ) ;
#99 = DIRECTION ( 'NONE',  ( 1.000000000000000000, 0.000000000000000000, 0.000000000000000000 ) ) ;
#100 = VERTEX_POINT ( 'NONE', #225 ) ;
#101 = DIRECTION ( 'NONE',  ( 1.000000000000000000, 0.000000000000000000, 0.000000000000000000 ) ) ;
#102 = CARTESIAN_POINT ( 'NONE',  ( 2.000000000000000000, 2.449293598294706414E-16, -12.00000000000000000 ) ) ;
#103 = DIRECTION ( 'NONE',  ( -0.000000000000000000, -0.000000000000000000, 1.000000000000000000 ) ) ;
#104 = EDGE_LOOP ( 'NONE', ( #216, #47, #35, #191 ) ) ;
#105 = ORIENTED_EDGE ( 'NONE', *, *, #132, .T. ) ;
#106 = LINE ( 'NONE', #348, #93 ) ;
#107 = VECTOR ( 'NONE', #83, 1000.000000000000227 ) ;
#108 = APPROVAL_ROLE ( '' ) ;
#109 = FACE_OUTER_BOUND ( 'NONE', #251, .T. ) ;
#110 = APPROVAL_DATE_TIME ( #231, #412 ) ;
#111 = DIRECTION ( 'NONE',  ( 0.000000000000000000, 0.000000000000000000, -1.000000000000000000 ) ) ;
#112 = ADVANCED_FACE ( 'NONE', ( #109 ), #275, .F. ) ;
#113 = ORIENTED_EDGE ( 'NONE', *, *, #257, .F. ) ;
#114 = EDGE_CURVE ( 'NONE', #22, #253, #13, .T. ) ;
#115 = ORIENTED_EDGE ( 'NONE', *, *, #228, .F. ) ;
#116 = CYLINDRICAL_SURFACE ( 'NONE', #204, 2.000000000000000000 ) ;
#117 = DATE_AND_TIME ( #399, #245 ) ;
#118 = ORIENTED_EDGE ( 'NONE', *, *, #454, .T. ) ;
#119 = AXIS2_PLACEMENT_3D ( 'NONE', #165, #111, #65 ) ;
#120 = DIRECTION ( 'NONE',  ( 0.000000000000000000, 0.000000000000000000, -1.000000000000000000 ) ) ;
#121 = DIRECTION ( 'NONE',  ( -0.000000000000000000, -0.000000000000000000, -1.000000000000000000 ) ) ;
#122 = CARTESIAN_POINT ( 'NONE',  ( -4.000000000000000000, 4.898587196589412829E-16, -12.00000000000000000 ) ) ;
#123 = CARTESIAN_POINT ( 'NONE',  ( -2.499999999999999556, -4.330127018922193649, 0.000000000000000000 ) ) ;
#124 = CALENDAR_DATE ( 2026, 24, 8 ) ;
#125 = AXIS2_PLACEMENT_3D ( 'NONE', #417, #338, #163 ) ;
#126 = DIRECTION ( 'NONE',  ( 0.000000000000000000, -0.000000000000000000, 1.000000000000000000 ) ) ;
#127 = EDGE_LOOP ( 'NONE', ( #296, #325, #357, #410 ) ) ;
#128 = APPROVAL_STATUS ( 'not_yet_approved' ) ;
#129 = CARTESIAN_POINT ( 'NONE',  ( 0.000000000000000000, 0.000000000000000000, 6.000000000000000000 ) ) ;
#130 = ORIENTED_EDGE ( 'NONE', *, *, #255, .F. ) ;
#131 = CARTESIAN_POINT ( 'NONE',  ( -2.499999999999999556, -4.330127018922193649, 6.000000000000000000 ) ) ;
#132 = EDGE_CURVE ( 'NONE', #253, #100, #267, .T. ) ;
#133 = CARTESIAN_POINT ( 'NONE',  ( 4.000000000000000000, 0.000000000000000000, -12.00000000000000000 ) ) ;
#134 = DIRECTION ( 'NONE',  ( 0.000000000000000000, 0.000000000000000000, -1.000000000000000000 ) ) ;
#135 = ORIENTED_EDGE ( 'NONE', *, *, #86, .T. ) ;
#136 = CARTESIAN_POINT ( 'NONE',  ( 4.999999999999999112, -2.230358754827323125E-15, 6.000000000000000000 ) ) ;
#137 = LOCAL_TIME ( 2, 40, 36.00000000000000000, #42 ) ;
#138 = DIRECTION ( 'NONE',  ( 0.000000000000000000, 0.000000000000000000, -1.000000000000000000 ) ) ;
#139 = CALENDAR_DATE ( 2026, 24, 8 ) ;
#140 = EDGE_CURVE ( 'NONE', #84, #68, #311, .T. ) ;
#141 = CYLINDRICAL_SURFACE ( 'NONE', #37, 4.000000000000000000 ) ;
#142 = VERTEX_POINT ( 'NONE', #3 ) ;
#143 = VECTOR ( 'NONE', #198, 1000.000000000000000 ) ;
#144 = APPROVAL_PERSON_ORGANIZATION ( #443, #412, #108 ) ;
#145 = ORIENTED_EDGE ( 'NONE', *, *, #445, .T. ) ;
#146 = DATE_TIME_ROLE ( 'classification_date' ) ;
#147 = ORIENTED_EDGE ( 'NONE', *, *, #257, .T. ) ;
#148 = CARTESIAN_POINT ( 'NONE',  ( 0.000000000000000000, 0.000000000000000000, 5.656854249492380582 ) ) ;
#149 = ADVANCED_FACE ( 'NONE', ( #23, #232 ), #310, .T. ) ;
#150 = EDGE_CURVE ( 'NONE', #306, #142, #69, .T. ) ;
#151 = FACE_OUTER_BOUND ( 'NONE', #404, .T. ) ;
#152 = CC_DESIGN_PERSON_AND_ORGANIZATION_ASSIGNMENT ( #416, #457, ( #390 ) ) ;
#153 = VECTOR ( 'NONE', #34, 1000.000000000000114 ) ;
#154 = DIRECTION ( 'NONE',  ( -0.8660254037844385966, -0.5000000000000003331, 0.000000000000000000 ) ) ;
#155 = DIRECTION ( 'NONE',  ( 1.000000000000000000, 0.000000000000000000, 0.000000000000000000 ) ) ;
#156 = CARTESIAN_POINT ( 'NONE',  ( 0.000000000000000000, 0.000000000000000000, 0.000000000000000000 ) ) ;
#157 = ORIENTED_EDGE ( 'NONE', *, *, #202, .T. ) ;
#158 = CC_DESIGN_APPROVAL ( #412, ( #390 ) ) ;
#159 = CARTESIAN_POINT ( 'NONE',  ( 2.499999999999999112, -4.330127018922193649, 6.000000000000000000 ) ) ;
#160 = ADVANCED_FACE ( 'NONE', ( #314 ), #71, .F. ) ;
#161 = DIRECTION ( 'NONE',  ( -0.000000000000000000, -0.000000000000000000, 1.000000000000000000 ) ) ;
#162 = PERSON_AND_ORGANIZATION_ROLE ( 'creator' ) ;
#163 = DIRECTION ( 'NONE',  ( 1.000000000000000000, 1.734723475976807834E-16, 0.000000000000000000 ) ) ;
#164 = DIRECTION ( 'NONE',  ( -1.000000000000000000, -1.734723475976808080E-16, 0.000000000000000000 ) ) ;
#165 = CARTESIAN_POINT ( 'NONE',  ( 0.000000000000000000, 0.000000000000000000, -12.00000000000000000 ) ) ;
#166 = FACE_OUTER_BOUND ( 'NONE', #203, .T. ) ;
#167 = CARTESIAN_POINT ( 'NONE',  ( -5.000000000000000888, -3.717264591378874669E-16, 0.000000000000000000 ) ) ;
#168 = VECTOR ( 'NONE', #25, 1000.000000000000000 ) ;
#169 = LINE ( 'NONE', #74, #143 ) ;
#170 = VECTOR ( 'NONE', #347, 1000.000000000000000 ) ;
#171 = CIRCLE ( 'NONE', #180, 4.000000000000000000 ) ;
#172 = ORIENTED_EDGE ( 'NONE', *, *, #40, .F. ) ;
#173 = LINE ( 'NONE', #428, #393 ) ;
#174 = ORIENTED_EDGE ( 'NONE', *, *, #363, .T. ) ;
#175 = EDGE_CURVE ( 'NONE', #431, #377, #12, .T. ) ;
#176 = ORGANIZATION ( 'UNSPECIFIED', 'UNSPECIFIED', '' ) ;
#177 = EDGE_LOOP ( 'NONE', ( #380, #352 ) ) ;
#178 = CARTESIAN_POINT ( 'NONE',  ( 2.499999999999996447, 4.330127018922193649, 6.000000000000000000 ) ) ;
#179 = EDGE_LOOP ( 'NONE', ( #364, #9 ) ) ;
#180 = AXIS2_PLACEMENT_3D ( 'NONE', #336, #134, #444 ) ;
#181 = DIRECTION ( 'NONE',  ( -1.000000000000000000, 0.000000000000000000, 0.000000000000000000 ) ) ;
#182 = CARTESIAN_POINT ( 'NONE',  ( -2.500000000000001332, 4.330127018922192761, 6.000000000000000000 ) ) ;
#183 = PERSON_AND_ORGANIZATION ( #51, #176 ) ;
#184 = DIRECTION ( 'NONE',  ( -0.000000000000000000, -0.000000000000000000, -1.000000000000000000 ) ) ;
#185 = PLANE ( 'NONE',  #125 ) ;
#186 = FACE_OUTER_BOUND ( 'NONE', #387, .T. ) ;
#187 = DIRECTION ( 'NONE',  ( 0.000000000000000000, 0.000000000000000000, 1.000000000000000000 ) ) ;
#188 = VECTOR ( 'NONE', #301, 1000.000000000000000 ) ;
#189 = AXIS2_PLACEMENT_3D ( 'NONE', #190, #193, #409 ) ;
#190 = CARTESIAN_POINT ( 'NONE',  ( 0.000000000000000000, 0.000000000000000000, -12.00000000000000000 ) ) ;
#191 = ORIENTED_EDGE ( 'NONE', *, *, #92, .T. ) ;
#192 = CARTESIAN_POINT ( 'NONE',  ( 4.000000000000000000, 0.000000000000000000, -12.00000000000000000 ) ) ;
#193 = DIRECTION ( 'NONE',  ( 0.000000000000000000, 0.000000000000000000, -1.000000000000000000 ) ) ;
#194 = PLANE ( 'NONE',  #437 ) ;
#195 = ORIENTED_EDGE ( 'NONE', *, *, #175, .F. ) ;
#196 = DIRECTION ( 'NONE',  ( -0.5000000000000002220, 0.8660254037844384856, 0.000000000000000000 ) ) ;
#197 = EDGE_CURVE ( 'NONE', #436, #309, #7, .T. ) ;
#198 = DIRECTION ( 'NONE',  ( -0.000000000000000000, -0.000000000000000000, -1.000000000000000000 ) ) ;
#199 = VECTOR ( 'NONE', #164, 1000.000000000000000 ) ;
#200 = DIRECTION ( 'NONE',  ( 0.8660254037844384856, 0.5000000000000003331, -0.000000000000000000 ) ) ;
#201 = AXIS2_PLACEMENT_3D ( 'NONE', #351, #455, #362 ) ;
#202 = EDGE_CURVE ( 'NONE', #4, #68, #292, .T. ) ;
#203 = EDGE_LOOP ( 'NONE', ( #130, #64, #350, #76 ) ) ;
#204 = AXIS2_PLACEMENT_3D ( 'NONE', #148, #276, #242 ) ;
#205 = DIRECTION ( 'NONE',  ( -0.8660254037844384856, 0.5000000000000003331, 0.000000000000000000 ) ) ;
#206 = VERTEX_POINT ( 'NONE', #159 ) ;
#207 = CC_DESIGN_PERSON_AND_ORGANIZATION_ASSIGNMENT ( #183, #162, ( #88 ) ) ;
#208 = DIRECTION ( 'NONE',  ( -0.5000000000000002220, 0.8660254037844384856, 0.000000000000000000 ) ) ;
#209 = AXIS2_PLACEMENT_3D ( 'NONE', #256, #154, #440 ) ;
#210 = AXIS2_PLACEMENT_3D ( 'NONE', #41, #87, #75 ) ;
#211 = ORIENTED_EDGE ( 'NONE', *, *, #132, .F. ) ;
#212 = PLANE ( 'NONE',  #418 ) ;
#213 = FACE_OUTER_BOUND ( 'NONE', #303, .T. ) ;
#214 =( GEOMETRIC_REPRESENTATION_CONTEXT ( 3 ) GLOBAL_UNCERTAINTY_ASSIGNED_CONTEXT ( ( #39 ) ) GLOBAL_UNIT_ASSIGNED_CONTEXT ( ( #96, #402, #289 ) ) REPRESENTATION_CONTEXT ( 'NONE', 'WORKASPACE' ) );
#215 = AXIS2_PLACEMENT_3D ( 'NONE', #388, #138, #453 ) ;
#216 = ORIENTED_EDGE ( 'NONE', *, *, #327, .T. ) ;
#217 = DATE_AND_TIME ( #124, #280 ) ;
#218 = PRODUCT_RELATED_PRODUCT_CATEGORY ( 'detail', '', ( #405 ) ) ;
#219 = EDGE_CURVE ( 'NONE', #22, #8, #106, .T. ) ;
#220 = CARTESIAN_POINT ( 'NONE',  ( -2.000000000000000000, 0.000000000000000000, 6.000000000000000000 ) ) ;
#221 = ORIENTED_EDGE ( 'NONE', *, *, #219, .F. ) ;
#222 = PERSON_AND_ORGANIZATION_ROLE ( 'classification_officer' ) ;
#223 = FACE_BOUND ( 'NONE', #177, .T. ) ;
#224 = CARTESIAN_POINT ( 'NONE',  ( -2.500000000000001332, 4.330127018922192761, 0.000000000000000000 ) ) ;
#225 = CARTESIAN_POINT ( 'NONE',  ( 4.000000000000000000, 0.000000000000000000, 0.000000000000000000 ) ) ;
#226 = PERSON_AND_ORGANIZATION ( #51, #176 ) ;
#227 = CARTESIAN_POINT ( 'NONE',  ( 4.999999999999999112, -2.230358754827323125E-15, 6.000000000000000000 ) ) ;
#228 = EDGE_CURVE ( 'NONE', #306, #431, #61, .T. ) ;
#229 = LINE ( 'NONE', #389, #279 ) ;
#230 = ORIENTED_EDGE ( 'NONE', *, *, #363, .F. ) ;
#231 = DATE_AND_TIME ( #373, #342 ) ;
#232 = FACE_OUTER_BOUND ( 'NONE', #415, .T. ) ;
#233 = CARTESIAN_POINT ( 'NONE',  ( -5.000000000000000888, -3.717264591378874669E-16, 6.000000000000000000 ) ) ;
#234 = ORIENTED_EDGE ( 'NONE', *, *, #448, .T. ) ;
#235 = CIRCLE ( 'NONE', #6, 2.000000000000000000 ) ;
#236 = DIRECTION ( 'NONE',  ( -1.000000000000000000, -1.734723475976808080E-16, 0.000000000000000000 ) ) ;
#237 = CARTESIAN_POINT ( 'NONE',  ( -2.000000000000000000, 0.000000000000000000, -12.00000000000000000 ) ) ;
#238 = APPROVAL_ROLE ( '' ) ;
#239 = EDGE_CURVE ( 'NONE', #247, #11, #235, .T. ) ;
#240 = ORIENTED_EDGE ( 'NONE', *, *, #202, .F. ) ;
#241 = ORIENTED_EDGE ( 'NONE', *, *, #327, .F. ) ;
#242 = DIRECTION ( 'NONE',  ( -1.000000000000000000, 0.000000000000000000, 0.000000000000000000 ) ) ;
#243 = ORIENTED_EDGE ( 'NONE', *, *, #5, .F. ) ;
#244 = EDGE_CURVE ( 'NONE', #253, #22, #401, .T. ) ;
#245 = LOCAL_TIME ( 2, 40, 36.00000000000000000, #322 ) ;
#246 = AXIS2_PLACEMENT_3D ( 'NONE', #38, #200, #271 ) ;
#247 = VERTEX_POINT ( 'NONE', #220 ) ;
#248 = APPLICATION_CONTEXT ( 'configuration controlled 3d designs of mechanical parts and assemblies' ) ;
#249 = AXIS2_PLACEMENT_3D ( 'NONE', #129, #385, #264 ) ;
#250 = DIRECTION ( 'NONE',  ( -0.5000000000000000000, -0.8660254037844385966, 0.000000000000000000 ) ) ;
#251 = EDGE_LOOP ( 'NONE', ( #147, #266, #263, #321 ) ) ;
#252 = APPLICATION_CONTEXT ( 'configuration controlled 3d designs of mechanical parts and assemblies' ) ;
#253 = VERTEX_POINT ( 'NONE', #133 ) ;
#254 = CARTESIAN_POINT ( 'NONE',  ( 0.000000000000000000, 0.000000000000000000, 0.000000000000000000 ) ) ;
#255 = EDGE_CURVE ( 'NONE', #11, #309, #307, .T. ) ;
#256 = CARTESIAN_POINT ( 'NONE',  ( 4.999999999999999112, -2.230358754827323125E-15, 6.000000000000000000 ) ) ;
#257 = EDGE_CURVE ( 'NONE', #68, #337, #451, .T. ) ;
#258 = COORDINATED_UNIVERSAL_TIME_OFFSET ( 5, 30, .AHEAD. ) ;
#259 = AXIS2_PLACEMENT_3D ( 'NONE', #29, #187, #33 ) ;
#260 = LINE ( 'NONE', #353, #300 ) ;
#261 = ORIENTED_EDGE ( 'NONE', *, *, #114, .F. ) ;
#262 = PERSON_AND_ORGANIZATION ( #51, #176 ) ;
#263 = ORIENTED_EDGE ( 'NONE', *, *, #429, .F. ) ;
#264 = DIRECTION ( 'NONE',  ( 1.000000000000000000, 0.000000000000000000, 0.000000000000000000 ) ) ;
#265 = CYLINDRICAL_SURFACE ( 'NONE', #383, 2.000000000000000000 ) ;
#266 = ORIENTED_EDGE ( 'NONE', *, *, #92, .F. ) ;
#267 = LINE ( 'NONE', #192, #170 ) ;
#268 = PERSON_AND_ORGANIZATION_ROLE ( 'design_owner' ) ;
#269 = FACE_OUTER_BOUND ( 'NONE', #127, .T. ) ;
#270 = LINE ( 'NONE', #308, #199 ) ;
#271 = DIRECTION ( 'NONE',  ( -0.5000000000000003331, 0.8660254037844384856, 0.000000000000000000 ) ) ;
#272 = CIRCLE ( 'NONE', #210, 2.000000000000000000 ) ;
#273 = DIRECTION ( 'NONE',  ( 1.000000000000000000, 0.000000000000000000, 0.000000000000000000 ) ) ;
#274 = PERSON_AND_ORGANIZATION ( #51, #176 ) ;
#275 = PLANE ( 'NONE',  #246 ) ;
#276 = DIRECTION ( 'NONE',  ( -0.000000000000000000, -0.000000000000000000, -1.000000000000000000 ) ) ;
#277 = FACE_OUTER_BOUND ( 'NONE', #439, .T. ) ;
#278 = ORIENTED_EDGE ( 'NONE', *, *, #150, .T. ) ;
#279 = VECTOR ( 'NONE', #394, 1000.000000000000000 ) ;
#280 = LOCAL_TIME ( 2, 40, 36.00000000000000000, #258 ) ;
#281 = CARTESIAN_POINT ( 'NONE',  ( 2.499999999999999112, -4.330127018922193649, 6.000000000000000000 ) ) ;
#282 = APPROVAL_STATUS ( 'not_yet_approved' ) ;
#283 = PERSON_AND_ORGANIZATION ( #51, #176 ) ;
#284 = ADVANCED_FACE ( 'NONE', ( #269 ), #185, .F. ) ;
#285 = PLANE ( 'NONE',  #24 ) ;
#286 = VERTEX_POINT ( 'NONE', #20 ) ;
#287 = VECTOR ( 'NONE', #196, 1000.000000000000114 ) ;
#288 = CARTESIAN_POINT ( 'NONE',  ( 0.000000000000000000, 0.000000000000000000, -12.00000000000000000 ) ) ;
#289 =( NAMED_UNIT ( * ) SI_UNIT ( $, .STERADIAN. ) SOLID_ANGLE_UNIT ( ) );
#290 = ORIENTED_EDGE ( 'NONE', *, *, #448, .F. ) ;
#291 = EDGE_CURVE ( 'NONE', #11, #247, #408, .T. ) ;
#292 = LINE ( 'NONE', #438, #52 ) ;
#293 = PLANE ( 'NONE',  #209 ) ;
#294 = AXIS2_PLACEMENT_3D ( 'NONE', #156, #299, #63 ) ;
#295 = PRODUCT_DEFINITION_SHAPE ( 'NONE', 'NONE',  #390 ) ;
#296 = ORIENTED_EDGE ( 'NONE', *, *, #79, .T. ) ;
#297 = CC_DESIGN_DATE_AND_TIME_ASSIGNMENT ( #422, #384, ( #390 ) ) ;
#298 = MECHANICAL_CONTEXT ( 'NONE', #252, 'mechanical' ) ;
#299 = DIRECTION ( 'NONE',  ( 0.000000000000000000, 0.000000000000000000, -1.000000000000000000 ) ) ;
#300 = VECTOR ( 'NONE', #121, 1000.000000000000000 ) ;
#301 = DIRECTION ( 'NONE',  ( -0.000000000000000000, -0.000000000000000000, -1.000000000000000000 ) ) ;
#302 = LINE ( 'NONE', #56, #323 ) ;
#303 = EDGE_LOOP ( 'NONE', ( #157, #370, #57, #60 ) ) ;
#304 = LINE ( 'NONE', #424, #21 ) ;
#305 = APPROVAL_DATE_TIME ( #217, #332 ) ;
#306 = VERTEX_POINT ( 'NONE', #413 ) ;
#307 = LINE ( 'NONE', #378, #168 ) ;
#308 = CARTESIAN_POINT ( 'NONE',  ( 2.499999999999996447, 4.330127018922193649, 6.000000000000000000 ) ) ;
#309 = VERTEX_POINT ( 'NONE', #102 ) ;
#310 = PLANE ( 'NONE',  #215 ) ;
#311 = LINE ( 'NONE', #27, #434 ) ;
#312 = APPROVAL_STATUS ( 'not_yet_approved' ) ;
#313 = CC_DESIGN_APPROVAL ( #318, ( #331 ) ) ;
#314 = FACE_OUTER_BOUND ( 'NONE', #104, .T. ) ;
#315 = LINE ( 'NONE', #233, #107 ) ;
#316 = ORIENTED_EDGE ( 'NONE', *, *, #175, .T. ) ;
#317 = DATE_AND_TIME ( #78, #137 ) ;
#318 = APPROVAL ( #282, 'UNSPECIFIED' ) ;
#319 = ADVANCED_FACE ( 'NONE', ( #223, #382 ), #212, .T. ) ;
#320 = DIRECTION ( 'NONE',  ( -0.000000000000000000, -0.000000000000000000, -1.000000000000000000 ) ) ;
#321 = ORIENTED_EDGE ( 'NONE', *, *, #140, .T. ) ;
#322 = COORDINATED_UNIVERSAL_TIME_OFFSET ( 5, 30, .AHEAD. ) ;
#323 = VECTOR ( 'NONE', #184, 1000.000000000000000 ) ;
#324 = EDGE_CURVE ( 'NONE', #142, #330, #270, .T. ) ;
#325 = ORIENTED_EDGE ( 'NONE', *, *, #97, .F. ) ;
#326 = VECTOR ( 'NONE', #208, 1000.000000000000114 ) ;
#327 = EDGE_CURVE ( 'NONE', #337, #31, #16, .T. ) ;
#328 = ORIENTED_EDGE ( 'NONE', *, *, #403, .F. ) ;
#329 = ORIENTED_EDGE ( 'NONE', *, *, #40, .T. ) ;
#330 = VERTEX_POINT ( 'NONE', #371 ) ;
#331 = SECURITY_CLASSIFICATION ( '', '', #376 ) ;
#332 = APPROVAL ( #128, 'UNSPECIFIED' ) ;
#333 = FACE_BOUND ( 'NONE', #94, .T. ) ;
#334 = DIRECTION ( 'NONE',  ( 0.8660254037844387076, -0.5000000000000001110, 0.000000000000000000 ) ) ;
#335 = PERSON_AND_ORGANIZATION_ROLE ( 'design_supplier' ) ;
#336 = CARTESIAN_POINT ( 'NONE',  ( 0.000000000000000000, 0.000000000000000000, 0.000000000000000000 ) ) ;
#337 = VERTEX_POINT ( 'NONE', #123 ) ;
#338 = DIRECTION ( 'NONE',  ( 1.734723475976807834E-16, -1.000000000000000000, 0.000000000000000000 ) ) ;
#339 = CARTESIAN_POINT ( 'NONE',  ( 2.499999999999999112, -4.330127018922193649, 6.000000000000000000 ) ) ;
#340 = VECTOR ( 'NONE', #80, 1000.000000000000000 ) ;
#341 = APPLICATION_PROTOCOL_DEFINITION ( 'international standard', 'config_control_design', 1994, #252 ) ;
#342 = LOCAL_TIME ( 2, 40, 36.00000000000000000, #411 ) ;
#343 = CARTESIAN_POINT ( 'NONE',  ( 0.000000000000000000, 0.000000000000000000, 6.000000000000000000 ) ) ;
#344 = DIRECTION ( 'NONE',  ( 1.000000000000000000, 0.000000000000000000, -0.000000000000000000 ) ) ;
#345 = EDGE_CURVE ( 'NONE', #206, #31, #302, .T. ) ;
#346 = ORIENTED_EDGE ( 'NONE', *, *, #79, .F. ) ;
#347 = DIRECTION ( 'NONE',  ( -0.000000000000000000, -0.000000000000000000, 1.000000000000000000 ) ) ;
#348 = CARTESIAN_POINT ( 'NONE',  ( -4.000000000000000000, 4.898587196589412829E-16, -12.00000000000000000 ) ) ;
#349 = DIRECTION ( 'NONE',  ( 1.000000000000000000, 0.000000000000000000, -0.000000000000000000 ) ) ;
#350 = ORIENTED_EDGE ( 'NONE', *, *, #403, .T. ) ;
#351 = CARTESIAN_POINT ( 'NONE',  ( -2.499999999999999556, -4.330127018922193649, 6.000000000000000000 ) ) ;
#352 = ORIENTED_EDGE ( 'NONE', *, *, #291, .F. ) ;
#353 = CARTESIAN_POINT ( 'NONE',  ( -2.000000000000000000, 0.000000000000000000, 5.656854249492380582 ) ) ;
#354 = CARTESIAN_POINT ( 'NONE',  ( 2.499999999999999112, -4.330127018922193649, 0.000000000000000000 ) ) ;
#355 = ADVANCED_FACE ( 'NONE', ( #166 ), #265, .F. ) ;
#356 = CARTESIAN_POINT ( 'NONE',  ( -5.000000000000000888, -3.717264591378874669E-16, 6.000000000000000000 ) ) ;
#357 = ORIENTED_EDGE ( 'NONE', *, *, #324, .F. ) ;
#358 = CARTESIAN_POINT ( 'NONE',  ( 4.999999999999999112, -2.230358754827323125E-15, 0.000000000000000000 ) ) ;
#359 = VECTOR ( 'NONE', #45, 1000.000000000000114 ) ;
#360 = CARTESIAN_POINT ( 'NONE',  ( 2.499999999999999112, -4.330127018922193649, 0.000000000000000000 ) ) ;
#361 = AXIS2_PLACEMENT_3D ( 'NONE', #182, #334, #407 ) ;
#362 = DIRECTION ( 'NONE',  ( 0.000000000000000000, -0.000000000000000000, 1.000000000000000000 ) ) ;
#363 = EDGE_CURVE ( 'NONE', #8, #100, #171, .T. ) ;
#364 = ORIENTED_EDGE ( 'NONE', *, *, #197, .F. ) ;
#365 = ADVANCED_FACE ( 'NONE', ( #333, #186 ), #194, .F. ) ;
#366 = ADVANCED_FACE ( 'NONE', ( #59 ), #414, .T. ) ;
#367 = VECTOR ( 'NONE', #155, 1000.000000000000000 ) ;
#368 = DIRECTION ( 'NONE',  ( -1.000000000000000000, 0.000000000000000000, 0.000000000000000000 ) ) ;
#369 = ORIENTED_EDGE ( 'NONE', *, *, #429, .T. ) ;
#370 = ORIENTED_EDGE ( 'NONE', *, *, #140, .F. ) ;
#371 = CARTESIAN_POINT ( 'NONE',  ( -2.500000000000001332, 4.330127018922192761, 6.000000000000000000 ) ) ;
#372 = PLANE ( 'NONE',  #361 ) ;
#373 = CALENDAR_DATE ( 2026, 24, 8 ) ;
#374 = CARTESIAN_POINT ( 'NONE',  ( 0.000000000000000000, 0.000000000000000000, 6.000000000000000000 ) ) ;
#375 = ORIENTED_EDGE ( 'NONE', *, *, #114, .T. ) ;
#376 = SECURITY_CLASSIFICATION_LEVEL ( 'unclassified' ) ;
#377 = VERTEX_POINT ( 'NONE', #19 ) ;
#378 = CARTESIAN_POINT ( 'NONE',  ( 2.000000000000000000, 2.449293598294706414E-16, 5.656854249492380582 ) ) ;
#379 = DIRECTION ( 'NONE',  ( 0.000000000000000000, -0.000000000000000000, 1.000000000000000000 ) ) ;
#380 = ORIENTED_EDGE ( 'NONE', *, *, #239, .F. ) ;
#381 = EDGE_CURVE ( 'NONE', #100, #8, #49, .T. ) ;
#382 = FACE_OUTER_BOUND ( 'NONE', #90, .T. ) ;
#383 = AXIS2_PLACEMENT_3D ( 'NONE', #386, #26, #181 ) ;
#384 = DATE_TIME_ROLE ( 'creation_date' ) ;
#385 = DIRECTION ( 'NONE',  ( 0.000000000000000000, 0.000000000000000000, 1.000000000000000000 ) ) ;
#386 = CARTESIAN_POINT ( 'NONE',  ( 0.000000000000000000, 0.000000000000000000, 5.656854249492380582 ) ) ;
#387 = EDGE_LOOP ( 'NONE', ( #290, #241, #113, #240, #346, #195 ) ) ;
#388 = CARTESIAN_POINT ( 'NONE',  ( 0.000000000000000000, 0.000000000000000000, -12.00000000000000000 ) ) ;
#389 = CARTESIAN_POINT ( 'NONE',  ( -2.499999999999999556, -4.330127018922193649, 6.000000000000000000 ) ) ;
#390 = PRODUCT_DEFINITION ( 'UNKNOWN', '', #88, #73 ) ;
#391 = ORIENTED_EDGE ( 'NONE', *, *, #381, .F. ) ;
#392 = LINE ( 'NONE', #131, #340 ) ;
#393 = VECTOR ( 'NONE', #10, 1000.000000000000227 ) ;
#394 = DIRECTION ( 'NONE',  ( 1.000000000000000000, 0.000000000000000000, 0.000000000000000000 ) ) ;
#395 = LINE ( 'NONE', #360, #359 ) ;
#396 = ORIENTED_EDGE ( 'NONE', *, *, #345, .T. ) ;
#397 = FACE_OUTER_BOUND ( 'NONE', #32, .T. ) ;
#398 = SHAPE_DEFINITION_REPRESENTATION ( #295, #430 ) ;
#399 = CALENDAR_DATE ( 2026, 24, 8 ) ;
#400 = CC_DESIGN_DATE_AND_TIME_ASSIGNMENT ( #317, #146, ( #331 ) ) ;
#401 = CIRCLE ( 'NONE', #189, 4.000000000000000000 ) ;
#402 =( NAMED_UNIT ( * ) PLANE_ANGLE_UNIT ( ) SI_UNIT ( $, .RADIAN. ) );
#403 = EDGE_CURVE ( 'NONE', #247, #436, #260, .T. ) ;
#404 = EDGE_LOOP ( 'NONE', ( #316, #243, #50, #85 ) ) ;
#405 = PRODUCT ( 'wheel_insert_4mm_shaft_sldprt', 'wheel_insert_4mm_shaft_sldprt', '', ( #298 ) ) ;
#406 = CARTESIAN_POINT ( 'NONE',  ( 0.000000000000000000, 0.000000000000000000, -12.00000000000000000 ) ) ;
#407 = DIRECTION ( 'NONE',  ( 0.5000000000000000000, 0.8660254037844385966, 0.000000000000000000 ) ) ;
#408 = CIRCLE ( 'NONE', #249, 2.000000000000000000 ) ;
#409 = DIRECTION ( 'NONE',  ( -1.000000000000000000, 0.000000000000000000, 0.000000000000000000 ) ) ;
#410 = ORIENTED_EDGE ( 'NONE', *, *, #5, .T. ) ;
#411 = COORDINATED_UNIVERSAL_TIME_OFFSET ( 5, 30, .AHEAD. ) ;
#412 = APPROVAL ( #312, 'UNSPECIFIED' ) ;
#413 = CARTESIAN_POINT ( 'NONE',  ( 4.999999999999999112, -2.230358754827323125E-15, 6.000000000000000000 ) ) ;
#414 = CYLINDRICAL_SURFACE ( 'NONE', #43, 4.000000000000000000 ) ;
#415 = EDGE_LOOP ( 'NONE', ( #44, #375 ) ) ;
#416 = PERSON_AND_ORGANIZATION ( #51, #176 ) ;
#417 = CARTESIAN_POINT ( 'NONE',  ( 2.499999999999996447, 4.330127018922193649, 6.000000000000000000 ) ) ;
#418 = AXIS2_PLACEMENT_3D ( 'NONE', #374, #379, #344 ) ;
#419 = APPLICATION_PROTOCOL_DEFINITION ( 'international standard', 'config_control_design', 1994, #248 ) ;
#420 = ADVANCED_FACE ( 'NONE', ( #95 ), #116, .F. ) ;
#421 = ORIENTED_EDGE ( 'NONE', *, *, #239, .T. ) ;
#422 = DATE_AND_TIME ( #139, #77 ) ;
#423 = LINE ( 'NONE', #339, #153 ) ;
#424 = CARTESIAN_POINT ( 'NONE',  ( 2.499999999999996447, 4.330127018922193649, 0.000000000000000000 ) ) ;
#425 = APPROVAL_PERSON_ORGANIZATION ( #449, #332, #54 ) ;
#426 = EDGE_LOOP ( 'NONE', ( #261, #70, #174, #211 ) ) ;
#427 = VECTOR ( 'NONE', #14, 1000.000000000000000 ) ;
#428 = CARTESIAN_POINT ( 'NONE',  ( -2.500000000000001332, 4.330127018922192761, 6.000000000000000000 ) ) ;
#429 = EDGE_CURVE ( 'NONE', #84, #286, #315, .T. ) ;
#430 = ADVANCED_BREP_SHAPE_REPRESENTATION ( 'wheel_insert_4mm_shaft_sldprt', ( #82, #259 ), #214 ) ;
#431 = VERTEX_POINT ( 'NONE', #358 ) ;
#432 = CC_DESIGN_APPROVAL ( #332, ( #88 ) ) ;
#433 = CC_DESIGN_PERSON_AND_ORGANIZATION_ASSIGNMENT ( #274, #268, ( #405 ) ) ;
#434 = VECTOR ( 'NONE', #320, 1000.000000000000000 ) ;
#435 = ORIENTED_EDGE ( 'NONE', *, *, #255, .T. ) ;
#436 = VERTEX_POINT ( 'NONE', #237 ) ;
#437 = AXIS2_PLACEMENT_3D ( 'NONE', #254, #126, #349 ) ;
#438 = CARTESIAN_POINT ( 'NONE',  ( -2.500000000000001332, 4.330127018922192761, 0.000000000000000000 ) ) ;
#439 = EDGE_LOOP ( 'NONE', ( #221, #446, #105, #48 ) ) ;
#440 = DIRECTION ( 'NONE',  ( 0.5000000000000002220, -0.8660254037844384856, 0.000000000000000000 ) ) ;
#441 = ADVANCED_FACE ( 'NONE', ( #397 ), #285, .F. ) ;
#442 = CARTESIAN_POINT ( 'NONE',  ( -2.499999999999999556, -4.330127018922193649, 0.000000000000000000 ) ) ;
#443 = PERSON_AND_ORGANIZATION ( #51, #176 ) ;
#444 = DIRECTION ( 'NONE',  ( -1.000000000000000000, 0.000000000000000000, 0.000000000000000000 ) ) ;
#445 = EDGE_CURVE ( 'NONE', #309, #436, #272, .T. ) ;
#446 = ORIENTED_EDGE ( 'NONE', *, *, #244, .F. ) ;
#447 = AXIS2_PLACEMENT_3D ( 'NONE', #288, #120, #368 ) ;
#448 = EDGE_CURVE ( 'NONE', #31, #431, #395, .T. ) ;
#449 = PERSON_AND_ORGANIZATION ( #51, #176 ) ;
#450 = CARTESIAN_POINT ( 'NONE',  ( -5.000000000000000888, -3.717264591378874669E-16, 0.000000000000000000 ) ) ;
#451 = LINE ( 'NONE', #450, #62 ) ;
#452 = ORIENTED_EDGE ( 'NONE', *, *, #324, .T. ) ;
#453 = DIRECTION ( 'NONE',  ( -1.000000000000000000, 0.000000000000000000, -0.000000000000000000 ) ) ;
#454 = EDGE_CURVE ( 'NONE', #330, #84, #173, .T. ) ;
#455 = DIRECTION ( 'NONE',  ( 0.000000000000000000, 1.000000000000000000, 0.000000000000000000 ) ) ;
#456 = APPROVAL_PERSON_ORGANIZATION ( #283, #318, #238 ) ;
#457 = PERSON_AND_ORGANIZATION_ROLE ( 'creator' ) ;
ENDSEC;
END-ISO-10303-21;
