ISO-10303-21;
HEADER;
FILE_DESCRIPTION (( 'STEP AP203' ),
    '1' );
FILE_NAME ('GripperFlatSurface_Default_sldprt.STEP',
    '2026-08-29T13:25:31',
    ( '' ),
    ( '' ),
    'SwSTEP 2.0',
    'SolidWorks 2020',
    '' );
FILE_SCHEMA (( 'CONFIG_CONTROL_DESIGN' ));
ENDSEC;

DATA;
#1 = COORDINATED_UNIVERSAL_TIME_OFFSET ( 5, 30, .AHEAD. ) ;
#2 = EDGE_CURVE ( 'NONE', #234, #374, #99, .T. ) ;
#3 = AXIS2_PLACEMENT_3D ( 'NONE', #33, #83, #80 ) ;
#4 = DATE_AND_TIME ( #6, #366 ) ;
#5 = COORDINATED_UNIVERSAL_TIME_OFFSET ( 5, 30, .AHEAD. ) ;
#6 = CALENDAR_DATE ( 2026, 29, 8 ) ;
#7 = CARTESIAN_POINT ( 'NONE',  ( -27.50000000000000355, 0.000000000000000000, 0.000000000000000000 ) ) ;
#8 = DIRECTION ( 'NONE',  ( -8.673617379884035472E-17, 1.000000000000000000, 0.000000000000000000 ) ) ;
#9 = DIRECTION ( 'NONE',  ( -1.000000000000000000, 0.000000000000000000, 0.000000000000000000 ) ) ;
#10 = CC_DESIGN_PERSON_AND_ORGANIZATION_ASSIGNMENT ( #306, #151, ( #142 ) ) ;
#11 = CARTESIAN_POINT ( 'NONE',  ( -29.00000000000000355, 0.000000000000000000, 2.001000000000000334 ) ) ;
#12 = CARTESIAN_POINT ( 'NONE',  ( -27.50000000000000355, 0.000000000000000000, 2.001000000000000334 ) ) ;
#13 = PRODUCT ( 'GripperFlatSurface_Default_sldprt', 'GripperFlatSurface_Default_sldprt', '', ( #16 ) ) ;
#14 = EDGE_CURVE ( 'NONE', #352, #334, #245, .T. ) ;
#15 = ADVANCED_BREP_SHAPE_REPRESENTATION ( 'GripperFlatSurface_Default_sldprt', ( #185, #302 ), #150 ) ;
#16 = MECHANICAL_CONTEXT ( 'NONE', #215, 'mechanical' ) ;
#17 = AXIS2_PLACEMENT_3D ( 'NONE', #18, #117, #133 ) ;
#18 = CARTESIAN_POINT ( 'NONE',  ( -27.50000000000000355, 0.000000000000000000, 2.000000000000000000 ) ) ;
#19 = ORIENTED_EDGE ( 'NONE', *, *, #218, .T. ) ;
#20 = LINE ( 'NONE', #232, #246 ) ;
#21 = DIRECTION ( 'NONE',  ( -1.000000000000000000, -0.000000000000000000, -0.000000000000000000 ) ) ;
#22 = ORIENTED_EDGE ( 'NONE', *, *, #354, .F. ) ;
#23 = CARTESIAN_POINT ( 'NONE',  ( -26.00000000000000355, 1.836970198721030674E-16, 2.001000000000000334 ) ) ;
#24 = VECTOR ( 'NONE', #190, 1000.000000000000000 ) ;
#25 = CARTESIAN_POINT ( 'NONE',  ( -26.00000000000000355, 1.836970198721029934E-16, 2.000000000000000000 ) ) ;
#26 = EDGE_LOOP ( 'NONE', ( #384, #85, #86, #311 ) ) ;
#27 = CARTESIAN_POINT ( 'NONE',  ( -30.00000000000000711, 20.00000000000000000, 2.000000000000000000 ) ) ;
#28 = ORIENTED_EDGE ( 'NONE', *, *, #124, .F. ) ;
#29 = VECTOR ( 'NONE', #128, 1000.000000000000000 ) ;
#30 = DIRECTION ( 'NONE',  ( -1.000000000000000000, 0.000000000000000000, 0.000000000000000000 ) ) ;
#31 = VERTEX_POINT ( 'NONE', #217 ) ;
#32 = EDGE_CURVE ( 'NONE', #31, #320, #191, .T. ) ;
#33 = CARTESIAN_POINT ( 'NONE',  ( 0.000000000000000000, 0.000000000000000000, 0.000000000000000000 ) ) ;
#34 = CC_DESIGN_APPROVAL ( #292, ( #142 ) ) ;
#35 = VERTEX_POINT ( 'NONE', #156 ) ;
#36 = PERSON_AND_ORGANIZATION_ROLE ( 'creator' ) ;
#37 = APPROVAL_PERSON_ORGANIZATION ( #345, #358, #359 ) ;
#38 = APPROVAL_ROLE ( '' ) ;
#39 = DATE_AND_TIME ( #331, #248 ) ;
#40 = DIRECTION ( 'NONE',  ( 1.000000000000000000, 0.000000000000000000, 0.000000000000000000 ) ) ;
#41 = CARTESIAN_POINT ( 'NONE',  ( 29.99999999999999289, 20.00000000000000000, 2.000000000000000000 ) ) ;
#42 = AXIS2_PLACEMENT_3D ( 'NONE', #106, #317, #30 ) ;
#43 = CARTESIAN_POINT ( 'NONE',  ( 27.49999999999999289, 0.000000000000000000, 0.000000000000000000 ) ) ;
#44 = EDGE_CURVE ( 'NONE', #35, #344, #126, .T. ) ;
#45 = DIRECTION ( 'NONE',  ( -1.000000000000000000, 0.000000000000000000, 0.000000000000000000 ) ) ;
#46 = CIRCLE ( 'NONE', #222, 1.500000000000001332 ) ;
#47 = CARTESIAN_POINT ( 'NONE',  ( -30.00000000000000355, -20.00000000000000000, 0.000000000000000000 ) ) ;
#48 = APPROVAL_PERSON_ORGANIZATION ( #244, #292, #38 ) ;
#49 = CARTESIAN_POINT ( 'NONE',  ( -30.00000000000000355, -20.00000000000000000, 2.000000000000000000 ) ) ;
#50 = ORIENTED_EDGE ( 'NONE', *, *, #2, .T. ) ;
#51 = APPLICATION_PROTOCOL_DEFINITION ( 'international standard', 'config_control_design', 1994, #56 ) ;
#52 = AXIS2_PLACEMENT_3D ( 'NONE', #297, #172, #376 ) ;
#53 = DIRECTION ( 'NONE',  ( -1.000000000000000000, 0.000000000000000000, 0.000000000000000000 ) ) ;
#54 = EDGE_LOOP ( 'NONE', ( #164, #171, #377, #64 ) ) ;
#55 = LINE ( 'NONE', #203, #356 ) ;
#56 = APPLICATION_CONTEXT ( 'configuration controlled 3d designs of mechanical parts and assemblies' ) ;
#57 = CARTESIAN_POINT ( 'NONE',  ( -30.00000000000000711, 20.00000000000000000, 2.000000000000000000 ) ) ;
#58 = ORIENTED_EDGE ( 'NONE', *, *, #2, .F. ) ;
#59 = FACE_BOUND ( 'NONE', #323, .T. ) ;
#60 = EDGE_CURVE ( 'NONE', #344, #31, #314, .T. ) ;
#61 = DIRECTION ( 'NONE',  ( 0.000000000000000000, -0.000000000000000000, 1.000000000000000000 ) ) ;
#62 = VERTEX_POINT ( 'NONE', #364 ) ;
#63 = VECTOR ( 'NONE', #325, 1000.000000000000000 ) ;
#64 = ORIENTED_EDGE ( 'NONE', *, *, #308, .T. ) ;
#65 = VECTOR ( 'NONE', #365, 1000.000000000000000 ) ;
#66 = PERSON_AND_ORGANIZATION ( #266, #132 ) ;
#67 = CALENDAR_DATE ( 2026, 29, 8 ) ;
#68 = FACE_OUTER_BOUND ( 'NONE', #26, .T. ) ;
#69 = CC_DESIGN_DATE_AND_TIME_ASSIGNMENT ( #146, #122, ( #250 ) ) ;
#70 = DIRECTION ( 'NONE',  ( 1.000000000000000000, 0.000000000000000000, 0.000000000000000000 ) ) ;
#71 = CIRCLE ( 'NONE', #17, 1.500000000000001332 ) ;
#72 = ORIENTED_EDGE ( 'NONE', *, *, #130, .T. ) ;
#73 = DIRECTION ( 'NONE',  ( -8.673617379884035472E-17, 1.000000000000000000, -0.000000000000000000 ) ) ;
#74 = ORIENTED_EDGE ( 'NONE', *, *, #186, .T. ) ;
#75 = FACE_OUTER_BOUND ( 'NONE', #347, .T. ) ;
#76 = DIRECTION ( 'NONE',  ( 1.000000000000000000, 0.000000000000000000, 0.000000000000000000 ) ) ;
#77 = CC_DESIGN_PERSON_AND_ORGANIZATION_ASSIGNMENT ( #88, #36, ( #250 ) ) ;
#78 = DIRECTION ( 'NONE',  ( 0.000000000000000000, -0.000000000000000000, -1.000000000000000000 ) ) ;
#79 = ORIENTED_EDGE ( 'NONE', *, *, #282, .T. ) ;
#80 = DIRECTION ( 'NONE',  ( 1.000000000000000000, 0.000000000000000000, 0.000000000000000000 ) ) ;
#81 = FACE_OUTER_BOUND ( 'NONE', #350, .T. ) ;
#82 = ORIENTED_EDGE ( 'NONE', *, *, #96, .F. ) ;
#83 = DIRECTION ( 'NONE',  ( -0.000000000000000000, 0.000000000000000000, 1.000000000000000000 ) ) ;
#84 = DIRECTION ( 'NONE',  ( 8.673617379884035472E-17, -1.000000000000000000, 0.000000000000000000 ) ) ;
#85 = ORIENTED_EDGE ( 'NONE', *, *, #308, .F. ) ;
#86 = ORIENTED_EDGE ( 'NONE', *, *, #339, .F. ) ;
#87 = ORIENTED_EDGE ( 'NONE', *, *, #237, .T. ) ;
#88 = PERSON_AND_ORGANIZATION ( #266, #132 ) ;
#89 = SHAPE_DEFINITION_REPRESENTATION ( #95, #15 ) ;
#90 = EDGE_CURVE ( 'NONE', #320, #196, #281, .T. ) ;
#91 = APPROVAL_STATUS ( 'not_yet_approved' ) ;
#92 = VECTOR ( 'NONE', #131, 1000.000000000000000 ) ;
#93 = DATE_AND_TIME ( #67, #372 ) ;
#94 = CIRCLE ( 'NONE', #278, 1.500000000000001332 ) ;
#95 = PRODUCT_DEFINITION_SHAPE ( 'NONE', 'NONE',  #250 ) ;
#96 = EDGE_CURVE ( 'NONE', #196, #316, #287, .T. ) ;
#97 = ORIENTED_EDGE ( 'NONE', *, *, #237, .F. ) ;
#98 = CC_DESIGN_PERSON_AND_ORGANIZATION_ASSIGNMENT ( #213, #330, ( #127 ) ) ;
#99 = LINE ( 'NONE', #11, #24 ) ;
#100 = CYLINDRICAL_SURFACE ( 'NONE', #224, 1.500000000000001332 ) ;
#101 = AXIS2_PLACEMENT_3D ( 'NONE', #158, #129, #8 ) ;
#102 = DIRECTION ( 'NONE',  ( 0.000000000000000000, 0.000000000000000000, -1.000000000000000000 ) ) ;
#103 = CC_DESIGN_APPROVAL ( #285, ( #127 ) ) ;
#104 = AXIS2_PLACEMENT_3D ( 'NONE', #7, #102, #45 ) ;
#105 = VERTEX_POINT ( 'NONE', #284 ) ;
#106 = CARTESIAN_POINT ( 'NONE',  ( 27.49999999999999289, 0.000000000000000000, 2.001000000000000334 ) ) ;
#107 = CARTESIAN_POINT ( 'NONE',  ( 27.49999999999999289, 0.000000000000000000, 0.000000000000000000 ) ) ;
#108 = DIRECTION ( 'NONE',  ( -0.000000000000000000, -0.000000000000000000, -1.000000000000000000 ) ) ;
#109 = ORIENTED_EDGE ( 'NONE', *, *, #44, .T. ) ;
#110 = DIRECTION ( 'NONE',  ( -1.000000000000000000, 0.000000000000000000, 0.000000000000000000 ) ) ;
#111 = VECTOR ( 'NONE', #223, 1000.000000000000000 ) ;
#112 = DIRECTION ( 'NONE',  ( -1.000000000000000000, -8.673617379884035472E-17, 0.000000000000000000 ) ) ;
#113 = VERTEX_POINT ( 'NONE', #249 ) ;
#114 = CARTESIAN_POINT ( 'NONE',  ( 29.99999999999999289, 20.00000000000000000, 0.000000000000000000 ) ) ;
#115 = DIRECTION ( 'NONE',  ( -1.000000000000000000, 0.000000000000000000, 0.000000000000000000 ) ) ;
#116 = ORIENTED_EDGE ( 'NONE', *, *, #218, .F. ) ;
#117 = DIRECTION ( 'NONE',  ( 0.000000000000000000, -0.000000000000000000, -1.000000000000000000 ) ) ;
#118 = ORIENTED_EDGE ( 'NONE', *, *, #361, .F. ) ;
#119 = APPLICATION_PROTOCOL_DEFINITION ( 'international standard', 'config_control_design', 1994, #215 ) ;
#120 = VECTOR ( 'NONE', #293, 1000.000000000000000 ) ;
#121 = CALENDAR_DATE ( 2026, 29, 8 ) ;
#122 = DATE_TIME_ROLE ( 'creation_date' ) ;
#123 = VECTOR ( 'NONE', #192, 1000.000000000000000 ) ;
#124 = EDGE_CURVE ( 'NONE', #201, #105, #46, .T. ) ;
#125 = CIRCLE ( 'NONE', #52, 1.500000000000001332 ) ;
#126 = LINE ( 'NONE', #333, #123 ) ;
#127 = SECURITY_CLASSIFICATION ( '', '', #147 ) ;
#128 = DIRECTION ( 'NONE',  ( -0.000000000000000000, -0.000000000000000000, -1.000000000000000000 ) ) ;
#129 = DIRECTION ( 'NONE',  ( 1.000000000000000000, 8.673617379884035472E-17, -0.000000000000000000 ) ) ;
#130 = EDGE_CURVE ( 'NONE', #374, #113, #189, .T. ) ;
#131 = DIRECTION ( 'NONE',  ( 8.673617379884035472E-17, -1.000000000000000000, 0.000000000000000000 ) ) ;
#132 = ORGANIZATION ( 'UNSPECIFIED', 'UNSPECIFIED', '' ) ;
#133 = DIRECTION ( 'NONE',  ( 1.000000000000000000, 0.000000000000000000, 0.000000000000000000 ) ) ;
#134 = ORIENTED_EDGE ( 'NONE', *, *, #124, .T. ) ;
#135 = PLANE ( 'NONE',  #315 ) ;
#136 = CARTESIAN_POINT ( 'NONE',  ( 27.49999999999999289, 0.000000000000000000, 2.000000000000000000 ) ) ;
#137 = ORIENTED_EDGE ( 'NONE', *, *, #60, .T. ) ;
#138 = DIRECTION ( 'NONE',  ( 8.673617379884035472E-17, -1.000000000000000000, 0.000000000000000000 ) ) ;
#139 = DIRECTION ( 'NONE',  ( 0.000000000000000000, -0.000000000000000000, -1.000000000000000000 ) ) ;
#140 = EDGE_LOOP ( 'NONE', ( #179, #305, #269, #58 ) ) ;
#141 = CARTESIAN_POINT ( 'NONE',  ( 28.99999999999999289, 1.836970198721029934E-16, 0.000000000000000000 ) ) ;
#142 = PRODUCT_DEFINITION_FORMATION_WITH_SPECIFIED_SOURCE ( 'ANY', '', #13, .NOT_KNOWN. ) ;
#143 = DIRECTION ( 'NONE',  ( 1.000000000000000000, 0.000000000000000000, 0.000000000000000000 ) ) ;
#144 = EDGE_LOOP ( 'NONE', ( #239, #166, #265, #97 ) ) ;
#145 =( NAMED_UNIT ( * ) SI_UNIT ( $, .STERADIAN. ) SOLID_ANGLE_UNIT ( ) );
#146 = DATE_AND_TIME ( #184, #216 ) ;
#147 = SECURITY_CLASSIFICATION_LEVEL ( 'unclassified' ) ;
#148 = ORIENTED_EDGE ( 'NONE', *, *, #181, .T. ) ;
#149 = CC_DESIGN_PERSON_AND_ORGANIZATION_ASSIGNMENT ( #199, #342, ( #13 ) ) ;
#150 =( GEOMETRIC_REPRESENTATION_CONTEXT ( 3 ) GLOBAL_UNCERTAINTY_ASSIGNED_CONTEXT ( ( #242 ) ) GLOBAL_UNIT_ASSIGNED_CONTEXT ( ( #255, #321, #145 ) ) REPRESENTATION_CONTEXT ( 'NONE', 'WORKASPACE' ) );
#151 = PERSON_AND_ORGANIZATION_ROLE ( 'design_supplier' ) ;
#152 = DIRECTION ( 'NONE',  ( -0.000000000000000000, -0.000000000000000000, -1.000000000000000000 ) ) ;
#153 = DIRECTION ( 'NONE',  ( 0.000000000000000000, 0.000000000000000000, -1.000000000000000000 ) ) ;
#154 = EDGE_CURVE ( 'NONE', #316, #62, #157, .T. ) ;
#155 = ADVANCED_FACE ( 'NONE', ( #68 ), #252, .F. ) ;
#156 = CARTESIAN_POINT ( 'NONE',  ( -30.00000000000000355, -20.00000000000000000, 2.000000000000000000 ) ) ;
#157 = LINE ( 'NONE', #47, #159 ) ;
#158 = CARTESIAN_POINT ( 'NONE',  ( -30.00000000000000711, 20.00000000000000000, 2.000000000000000000 ) ) ;
#159 = VECTOR ( 'NONE', #70, 1000.000000000000000 ) ;
#160 = CC_DESIGN_SECURITY_CLASSIFICATION ( #127, ( #142 ) ) ;
#161 = ADVANCED_FACE ( 'NONE', ( #288 ), #100, .F. ) ;
#162 = CC_DESIGN_DATE_AND_TIME_ASSIGNMENT ( #39, #360, ( #127 ) ) ;
#163 = CARTESIAN_POINT ( 'NONE',  ( 0.000000000000000000, 0.000000000000000000, 0.000000000000000000 ) ) ;
#164 = ORIENTED_EDGE ( 'NONE', *, *, #154, .T. ) ;
#165 = PLANE ( 'NONE',  #369 ) ;
#166 = ORIENTED_EDGE ( 'NONE', *, *, #361, .T. ) ;
#167 = AXIS2_PLACEMENT_3D ( 'NONE', #260, #112, #84 ) ;
#168 = FACE_OUTER_BOUND ( 'NONE', #326, .T. ) ;
#169 = EDGE_CURVE ( 'NONE', #31, #363, #309, .T. ) ;
#170 = CARTESIAN_POINT ( 'NONE',  ( -30.00000000000000711, 20.00000000000000000, 0.000000000000000000 ) ) ;
#171 = ORIENTED_EDGE ( 'NONE', *, *, #181, .F. ) ;
#172 = DIRECTION ( 'NONE',  ( 0.000000000000000000, 0.000000000000000000, -1.000000000000000000 ) ) ;
#173 = EDGE_LOOP ( 'NONE', ( #286, #79 ) ) ;
#174 = FACE_BOUND ( 'NONE', #236, .T. ) ;
#175 = DIRECTION ( 'NONE',  ( -0.000000000000000000, -0.000000000000000000, -1.000000000000000000 ) ) ;
#176 = ORIENTED_EDGE ( 'NONE', *, *, #60, .F. ) ;
#177 = ORIENTED_EDGE ( 'NONE', *, *, #169, .T. ) ;
#178 = CIRCLE ( 'NONE', #254, 1.500000000000001332 ) ;
#179 = ORIENTED_EDGE ( 'NONE', *, *, #282, .F. ) ;
#180 = PERSON_AND_ORGANIZATION ( #266, #132 ) ;
#181 = EDGE_CURVE ( 'NONE', #344, #62, #221, .T. ) ;
#182 = APPROVAL_DATE_TIME ( #4, #358 ) ;
#183 = AXIS2_PLACEMENT_3D ( 'NONE', #43, #153, #9 ) ;
#184 = CALENDAR_DATE ( 2026, 29, 8 ) ;
#185 = MANIFOLD_SOLID_BREP ( 'Cut-Extrude1', #193 ) ;
#186 = EDGE_CURVE ( 'NONE', #363, #196, #230, .T. ) ;
#187 = APPROVAL_DATE_TIME ( #93, #285 ) ;
#188 = DIRECTION ( 'NONE',  ( -1.000000000000000000, 0.000000000000000000, 0.000000000000000000 ) ) ;
#189 = CIRCLE ( 'NONE', #104, 1.500000000000001332 ) ;
#190 = DIRECTION ( 'NONE',  ( -0.000000000000000000, -0.000000000000000000, -1.000000000000000000 ) ) ;
#191 = LINE ( 'NONE', #251, #111 ) ;
#192 = DIRECTION ( 'NONE',  ( 1.000000000000000000, 0.000000000000000000, 0.000000000000000000 ) ) ;
#193 = CLOSED_SHELL ( 'NONE', ( #161, #259, #225, #274, #155, #253, #368, #329, #267, #296 ) ) ;
#194 = AXIS2_PLACEMENT_3D ( 'NONE', #341, #175, #115 ) ;
#195 = CARTESIAN_POINT ( 'NONE',  ( -30.00000000000000355, -20.00000000000000000, 0.000000000000000000 ) ) ;
#196 = VERTEX_POINT ( 'NONE', #170 ) ;
#197 = CYLINDRICAL_SURFACE ( 'NONE', #327, 1.500000000000001332 ) ;
#198 = EDGE_CURVE ( 'NONE', #113, #374, #125, .T. ) ;
#199 = PERSON_AND_ORGANIZATION ( #266, #132 ) ;
#200 = CARTESIAN_POINT ( 'NONE',  ( -29.00000000000000355, 0.000000000000000000, 2.000000000000000000 ) ) ;
#201 = VERTEX_POINT ( 'NONE', #379 ) ;
#202 = CC_DESIGN_APPROVAL ( #358, ( #250 ) ) ;
#203 = CARTESIAN_POINT ( 'NONE',  ( -30.00000000000000711, 20.00000000000000000, 2.000000000000000000 ) ) ;
#204 = CYLINDRICAL_SURFACE ( 'NONE', #194, 1.500000000000001332 ) ;
#205 = ORIENTED_EDGE ( 'NONE', *, *, #186, .F. ) ;
#206 = CARTESIAN_POINT ( 'NONE',  ( 28.99999999999999289, 1.836970198721030674E-16, 2.001000000000000334 ) ) ;
#207 = DIRECTION ( 'NONE',  ( 0.000000000000000000, 1.000000000000000000, 0.000000000000000000 ) ) ;
#208 = EDGE_LOOP ( 'NONE', ( #118, #28, #87, #298 ) ) ;
#209 = ORIENTED_EDGE ( 'NONE', *, *, #198, .F. ) ;
#210 = CIRCLE ( 'NONE', #335, 1.500000000000001332 ) ;
#211 = PRODUCT_RELATED_PRODUCT_CATEGORY ( 'detail', '', ( #13 ) ) ;
#212 = DESIGN_CONTEXT ( 'detailed design', #56, 'design' ) ;
#213 = PERSON_AND_ORGANIZATION ( #266, #132 ) ;
#214 = PERSON_AND_ORGANIZATION_ROLE ( 'creator' ) ;
#215 = APPLICATION_CONTEXT ( 'configuration controlled 3d designs of mechanical parts and assemblies' ) ;
#216 = LOCAL_TIME ( 18, 55, 31.00000000000000000, #307 ) ;
#217 = CARTESIAN_POINT ( 'NONE',  ( 29.99999999999999289, 20.00000000000000000, 2.000000000000000000 ) ) ;
#218 = EDGE_CURVE ( 'NONE', #62, #363, #383, .T. ) ;
#219 = CARTESIAN_POINT ( 'NONE',  ( 27.49999999999999289, 0.000000000000000000, 2.000000000000000000 ) ) ;
#220 = EDGE_CURVE ( 'NONE', #105, #201, #210, .T. ) ;
#221 = LINE ( 'NONE', #336, #378 ) ;
#222 = AXIS2_PLACEMENT_3D ( 'NONE', #219, #337, #40 ) ;
#223 = DIRECTION ( 'NONE',  ( -1.000000000000000000, -0.000000000000000000, -0.000000000000000000 ) ) ;
#224 = AXIS2_PLACEMENT_3D ( 'NONE', #12, #152, #188 ) ;
#225 = ADVANCED_FACE ( 'NONE', ( #81 ), #349, .F. ) ;
#226 = FACE_OUTER_BOUND ( 'NONE', #54, .T. ) ;
#227 = DIRECTION ( 'NONE',  ( -0.000000000000000000, -0.000000000000000000, -1.000000000000000000 ) ) ;
#228 = VECTOR ( 'NONE', #73, 1000.000000000000000 ) ;
#229 = VERTEX_POINT ( 'NONE', #25 ) ;
#230 = LINE ( 'NONE', #370, #264 ) ;
#231 = ORIENTED_EDGE ( 'NONE', *, *, #339, .T. ) ;
#232 = CARTESIAN_POINT ( 'NONE',  ( -30.00000000000000355, -20.00000000000000000, 2.000000000000000000 ) ) ;
#233 = CARTESIAN_POINT ( 'NONE',  ( -27.50000000000000355, 0.000000000000000000, 2.000000000000000000 ) ) ;
#234 = VERTEX_POINT ( 'NONE', #200 ) ;
#235 = DIRECTION ( 'NONE',  ( -0.000000000000000000, -0.000000000000000000, -1.000000000000000000 ) ) ;
#236 = EDGE_LOOP ( 'NONE', ( #291, #209 ) ) ;
#237 = EDGE_CURVE ( 'NONE', #201, #352, #373, .T. ) ;
#238 = CARTESIAN_POINT ( 'NONE',  ( 25.99999999999999289, 0.000000000000000000, 2.001000000000000334 ) ) ;
#239 = ORIENTED_EDGE ( 'NONE', *, *, #220, .F. ) ;
#240 = CARTESIAN_POINT ( 'NONE',  ( 29.99999999999999645, -20.00000000000000000, 2.000000000000000000 ) ) ;
#241 = DATE_AND_TIME ( #121, #362 ) ;
#242 = UNCERTAINTY_MEASURE_WITH_UNIT (LENGTH_MEASURE( 1.000000000000000082E-05 ), #255, 'distance_accuracy_value', 'NONE');
#243 = COORDINATED_UNIVERSAL_TIME_OFFSET ( 5, 30, .AHEAD. ) ;
#244 = PERSON_AND_ORGANIZATION ( #266, #132 ) ;
#245 = CIRCLE ( 'NONE', #183, 1.500000000000001332 ) ;
#246 = VECTOR ( 'NONE', #235, 1000.000000000000000 ) ;
#247 = CARTESIAN_POINT ( 'NONE',  ( 29.99999999999999289, 20.00000000000000000, 2.000000000000000000 ) ) ;
#248 = LOCAL_TIME ( 18, 55, 31.00000000000000000, #276 ) ;
#249 = CARTESIAN_POINT ( 'NONE',  ( -26.00000000000000355, 1.836970198721029934E-16, 0.000000000000000000 ) ) ;
#250 = PRODUCT_DEFINITION ( 'UNKNOWN', '', #142, #212 ) ;
#251 = CARTESIAN_POINT ( 'NONE',  ( -30.00000000000000711, 20.00000000000000000, 2.000000000000000000 ) ) ;
#252 = PLANE ( 'NONE',  #101 ) ;
#253 = ADVANCED_FACE ( 'NONE', ( #226 ), #346, .F. ) ;
#254 = AXIS2_PLACEMENT_3D ( 'NONE', #233, #78, #319 ) ;
#255 =( LENGTH_UNIT ( ) NAMED_UNIT ( * ) SI_UNIT ( .MILLI., .METRE. ) );
#256 = CARTESIAN_POINT ( 'NONE',  ( -27.50000000000000355, 0.000000000000000000, 2.001000000000000334 ) ) ;
#257 = ORIENTED_EDGE ( 'NONE', *, *, #275, .F. ) ;
#258 = DIRECTION ( 'NONE',  ( -0.000000000000000000, -0.000000000000000000, -1.000000000000000000 ) ) ;
#259 = ADVANCED_FACE ( 'NONE', ( #263 ), #204, .F. ) ;
#260 = CARTESIAN_POINT ( 'NONE',  ( 29.99999999999999289, 20.00000000000000000, 2.000000000000000000 ) ) ;
#261 = ORIENTED_EDGE ( 'NONE', *, *, #32, .F. ) ;
#262 = DIRECTION ( 'NONE',  ( -0.000000000000000000, 0.000000000000000000, 1.000000000000000000 ) ) ;
#263 = FACE_OUTER_BOUND ( 'NONE', #144, .T. ) ;
#264 = VECTOR ( 'NONE', #21, 1000.000000000000000 ) ;
#265 = ORIENTED_EDGE ( 'NONE', *, *, #354, .T. ) ;
#266 = PERSON ( 'UNSPECIFIED', 'UNSPECIFIED', 'UNSPECIFIED', ('UNSPECIFIED'), ('UNSPECIFIED'), ('UNSPECIFIED') ) ;
#267 = ADVANCED_FACE ( 'NONE', ( #301 ), #322, .F. ) ;
#268 = FACE_BOUND ( 'NONE', #173, .T. ) ;
#269 = ORIENTED_EDGE ( 'NONE', *, *, #198, .T. ) ;
#270 = DIRECTION ( 'NONE',  ( 0.000000000000000000, -1.000000000000000000, 0.000000000000000000 ) ) ;
#271 = ORIENTED_EDGE ( 'NONE', *, *, #90, .F. ) ;
#272 = LINE ( 'NONE', #206, #283 ) ;
#273 = APPROVAL_ROLE ( '' ) ;
#274 = ADVANCED_FACE ( 'NONE', ( #343 ), #165, .F. ) ;
#275 = EDGE_CURVE ( 'NONE', #234, #229, #178, .T. ) ;
#276 = COORDINATED_UNIVERSAL_TIME_OFFSET ( 5, 30, .AHEAD. ) ;
#277 = EDGE_LOOP ( 'NONE', ( #134, #303 ) ) ;
#278 = AXIS2_PLACEMENT_3D ( 'NONE', #107, #385, #110 ) ;
#279 = APPROVAL_STATUS ( 'not_yet_approved' ) ;
#280 = APPROVAL_STATUS ( 'not_yet_approved' ) ;
#281 = LINE ( 'NONE', #313, #65 ) ;
#282 = EDGE_CURVE ( 'NONE', #229, #234, #71, .T. ) ;
#283 = VECTOR ( 'NONE', #258, 1000.000000000000000 ) ;
#284 = CARTESIAN_POINT ( 'NONE',  ( 28.99999999999999289, 1.836970198721029934E-16, 2.000000000000000000 ) ) ;
#285 = APPROVAL ( #279, 'UNSPECIFIED' ) ;
#286 = ORIENTED_EDGE ( 'NONE', *, *, #275, .T. ) ;
#287 = LINE ( 'NONE', #367, #92 ) ;
#288 = FACE_OUTER_BOUND ( 'NONE', #140, .T. ) ;
#289 = DIRECTION ( 'NONE',  ( 1.000000000000000000, 0.000000000000000000, 0.000000000000000000 ) ) ;
#290 = DIRECTION ( 'NONE',  ( 0.000000000000000000, -0.000000000000000000, -1.000000000000000000 ) ) ;
#291 = ORIENTED_EDGE ( 'NONE', *, *, #130, .F. ) ;
#292 = APPROVAL ( #280, 'UNSPECIFIED' ) ;
#293 = DIRECTION ( 'NONE',  ( -8.673617379884035472E-17, 1.000000000000000000, -0.000000000000000000 ) ) ;
#294 = ORIENTED_EDGE ( 'NONE', *, *, #154, .F. ) ;
#295 = DIRECTION ( 'NONE',  ( -0.000000000000000000, -0.000000000000000000, -1.000000000000000000 ) ) ;
#296 = ADVANCED_FACE ( 'NONE', ( #75 ), #197, .F. ) ;
#297 = CARTESIAN_POINT ( 'NONE',  ( -27.50000000000000355, 0.000000000000000000, 0.000000000000000000 ) ) ;
#298 = ORIENTED_EDGE ( 'NONE', *, *, #14, .T. ) ;
#299 = PLANE ( 'NONE',  #3 ) ;
#300 = ORIENTED_EDGE ( 'NONE', *, *, #32, .T. ) ;
#301 = FACE_OUTER_BOUND ( 'NONE', #208, .T. ) ;
#302 = AXIS2_PLACEMENT_3D ( 'NONE', #163, #318, #289 ) ;
#303 = ORIENTED_EDGE ( 'NONE', *, *, #220, .T. ) ;
#304 = ORIENTED_EDGE ( 'NONE', *, *, #169, .F. ) ;
#305 = ORIENTED_EDGE ( 'NONE', *, *, #312, .T. ) ;
#306 = PERSON_AND_ORGANIZATION ( #266, #132 ) ;
#307 = COORDINATED_UNIVERSAL_TIME_OFFSET ( 5, 30, .AHEAD. ) ;
#308 = EDGE_CURVE ( 'NONE', #35, #316, #20, .T. ) ;
#309 = LINE ( 'NONE', #41, #29 ) ;
#310 = VECTOR ( 'NONE', #295, 1000.000000000000000 ) ;
#311 = ORIENTED_EDGE ( 'NONE', *, *, #90, .T. ) ;
#312 = EDGE_CURVE ( 'NONE', #229, #113, #351, .T. ) ;
#313 = CARTESIAN_POINT ( 'NONE',  ( -30.00000000000000711, 20.00000000000000000, 2.000000000000000000 ) ) ;
#314 = LINE ( 'NONE', #247, #228 ) ;
#315 = AXIS2_PLACEMENT_3D ( 'NONE', #324, #262, #76 ) ;
#316 = VERTEX_POINT ( 'NONE', #195 ) ;
#317 = DIRECTION ( 'NONE',  ( -0.000000000000000000, -0.000000000000000000, -1.000000000000000000 ) ) ;
#318 = DIRECTION ( 'NONE',  ( 0.000000000000000000, 0.000000000000000000, 1.000000000000000000 ) ) ;
#319 = DIRECTION ( 'NONE',  ( 1.000000000000000000, 0.000000000000000000, 0.000000000000000000 ) ) ;
#320 = VERTEX_POINT ( 'NONE', #27 ) ;
#321 =( NAMED_UNIT ( * ) PLANE_ANGLE_UNIT ( ) SI_UNIT ( $, .RADIAN. ) );
#322 = CYLINDRICAL_SURFACE ( 'NONE', #42, 1.500000000000001332 ) ;
#323 = EDGE_LOOP ( 'NONE', ( #328, #22 ) ) ;
#324 = CARTESIAN_POINT ( 'NONE',  ( 0.000000000000000000, 0.000000000000000000, 2.000000000000000000 ) ) ;
#325 = DIRECTION ( 'NONE',  ( -0.000000000000000000, -0.000000000000000000, -1.000000000000000000 ) ) ;
#326 = EDGE_LOOP ( 'NONE', ( #116, #294, #82, #205 ) ) ;
#327 = AXIS2_PLACEMENT_3D ( 'NONE', #256, #108, #53 ) ;
#328 = ORIENTED_EDGE ( 'NONE', *, *, #14, .F. ) ;
#329 = ADVANCED_FACE ( 'NONE', ( #174, #59, #168 ), #299, .F. ) ;
#330 = PERSON_AND_ORGANIZATION_ROLE ( 'classification_officer' ) ;
#331 = CALENDAR_DATE ( 2026, 29, 8 ) ;
#332 = APPROVAL_PERSON_ORGANIZATION ( #66, #285, #273 ) ;
#333 = CARTESIAN_POINT ( 'NONE',  ( -30.00000000000000355, -20.00000000000000000, 2.000000000000000000 ) ) ;
#334 = VERTEX_POINT ( 'NONE', #141 ) ;
#335 = AXIS2_PLACEMENT_3D ( 'NONE', #136, #139, #143 ) ;
#336 = CARTESIAN_POINT ( 'NONE',  ( 29.99999999999999645, -20.00000000000000000, 2.000000000000000000 ) ) ;
#337 = DIRECTION ( 'NONE',  ( 0.000000000000000000, -0.000000000000000000, -1.000000000000000000 ) ) ;
#338 = AXIS2_PLACEMENT_3D ( 'NONE', #49, #207, #61 ) ;
#339 = EDGE_CURVE ( 'NONE', #320, #35, #55, .T. ) ;
#340 = CC_DESIGN_PERSON_AND_ORGANIZATION_ASSIGNMENT ( #180, #214, ( #142 ) ) ;
#341 = CARTESIAN_POINT ( 'NONE',  ( 27.49999999999999289, 0.000000000000000000, 2.001000000000000334 ) ) ;
#342 = PERSON_AND_ORGANIZATION_ROLE ( 'design_owner' ) ;
#343 = FACE_OUTER_BOUND ( 'NONE', #380, .T. ) ;
#344 = VERTEX_POINT ( 'NONE', #240 ) ;
#345 = PERSON_AND_ORGANIZATION ( #266, #132 ) ;
#346 = PLANE ( 'NONE',  #338 ) ;
#347 = EDGE_LOOP ( 'NONE', ( #355, #257, #50, #72 ) ) ;
#348 = CARTESIAN_POINT ( 'NONE',  ( -29.00000000000000355, 0.000000000000000000, 0.000000000000000000 ) ) ;
#349 = PLANE ( 'NONE',  #167 ) ;
#350 = EDGE_LOOP ( 'NONE', ( #19, #304, #176, #148 ) ) ;
#351 = LINE ( 'NONE', #23, #310 ) ;
#352 = VERTEX_POINT ( 'NONE', #381 ) ;
#353 = CARTESIAN_POINT ( 'NONE',  ( 29.99999999999999289, 20.00000000000000000, 0.000000000000000000 ) ) ;
#354 = EDGE_CURVE ( 'NONE', #334, #352, #94, .T. ) ;
#355 = ORIENTED_EDGE ( 'NONE', *, *, #312, .F. ) ;
#356 = VECTOR ( 'NONE', #138, 1000.000000000000000 ) ;
#357 = APPROVAL_DATE_TIME ( #241, #292 ) ;
#358 = APPROVAL ( #91, 'UNSPECIFIED' ) ;
#359 = APPROVAL_ROLE ( '' ) ;
#360 = DATE_TIME_ROLE ( 'classification_date' ) ;
#361 = EDGE_CURVE ( 'NONE', #105, #334, #272, .T. ) ;
#362 = LOCAL_TIME ( 18, 55, 31.00000000000000000, #243 ) ;
#363 = VERTEX_POINT ( 'NONE', #114 ) ;
#364 = CARTESIAN_POINT ( 'NONE',  ( 29.99999999999999645, -20.00000000000000000, 0.000000000000000000 ) ) ;
#365 = DIRECTION ( 'NONE',  ( -0.000000000000000000, -0.000000000000000000, -1.000000000000000000 ) ) ;
#366 = LOCAL_TIME ( 18, 55, 31.00000000000000000, #1 ) ;
#367 = CARTESIAN_POINT ( 'NONE',  ( -30.00000000000000711, 20.00000000000000000, 0.000000000000000000 ) ) ;
#368 = ADVANCED_FACE ( 'NONE', ( #268, #371, #375 ), #135, .T. ) ;
#369 = AXIS2_PLACEMENT_3D ( 'NONE', #57, #270, #290 ) ;
#370 = CARTESIAN_POINT ( 'NONE',  ( -30.00000000000000711, 20.00000000000000000, 0.000000000000000000 ) ) ;
#371 = FACE_BOUND ( 'NONE', #277, .T. ) ;
#372 = LOCAL_TIME ( 18, 55, 31.00000000000000000, #5 ) ;
#373 = LINE ( 'NONE', #238, #63 ) ;
#374 = VERTEX_POINT ( 'NONE', #348 ) ;
#375 = FACE_OUTER_BOUND ( 'NONE', #382, .T. ) ;
#376 = DIRECTION ( 'NONE',  ( -1.000000000000000000, 0.000000000000000000, 0.000000000000000000 ) ) ;
#377 = ORIENTED_EDGE ( 'NONE', *, *, #44, .F. ) ;
#378 = VECTOR ( 'NONE', #227, 1000.000000000000000 ) ;
#379 = CARTESIAN_POINT ( 'NONE',  ( 25.99999999999999289, 0.000000000000000000, 2.000000000000000000 ) ) ;
#380 = EDGE_LOOP ( 'NONE', ( #74, #271, #261, #177 ) ) ;
#381 = CARTESIAN_POINT ( 'NONE',  ( 25.99999999999999289, 0.000000000000000000, 0.000000000000000000 ) ) ;
#382 = EDGE_LOOP ( 'NONE', ( #137, #300, #231, #109 ) ) ;
#383 = LINE ( 'NONE', #353, #120 ) ;
#384 = ORIENTED_EDGE ( 'NONE', *, *, #96, .T. ) ;
#385 = DIRECTION ( 'NONE',  ( 0.000000000000000000, 0.000000000000000000, -1.000000000000000000 ) ) ;
ENDSEC;
END-ISO-10303-21;
