ISO-10303-21;
HEADER;
FILE_DESCRIPTION (( 'STEP AP203' ),
    '1' );
FILE_NAME ('RisingFrame_Default_sldprt.STEP',
    '2026-08-29T13:25:33',
    ( '' ),
    ( '' ),
    'SwSTEP 2.0',
    'SolidWorks 2020',
    '' );
FILE_SCHEMA (( 'CONFIG_CONTROL_DESIGN' ));
ENDSEC;

DATA;
#1 = ADVANCED_FACE ( 'NONE', ( #778 ), #1030, .F. ) ;
#2 = CARTESIAN_POINT ( 'NONE',  ( -11.00000000000000000, 0.000000000000000000, 3.000000000000000000 ) ) ;
#3 = ORIENTED_EDGE ( 'NONE', *, *, #1010, .T. ) ;
#4 = CARTESIAN_POINT ( 'NONE',  ( 11.00000000000000000, -18.50000000000000000, 3.000000000000000000 ) ) ;
#5 = AXIS2_PLACEMENT_3D ( 'NONE', #22, #373, #913 ) ;
#6 = ORIENTED_EDGE ( 'NONE', *, *, #177, .F. ) ;
#7 = AXIS2_PLACEMENT_3D ( 'NONE', #258, #620, #276 ) ;
#8 = CARTESIAN_POINT ( 'NONE',  ( 11.00000000000000000, -15.49999999999999645, 3.000000000000000000 ) ) ;
#9 = CARTESIAN_POINT ( 'NONE',  ( 11.00000000000000000, -18.50000000000000000, 0.000000000000000000 ) ) ;
#10 = FACE_BOUND ( 'NONE', #659, .T. ) ;
#11 = EDGE_LOOP ( 'NONE', ( #109, #587, #1071, #206 ) ) ;
#12 = PERSON_AND_ORGANIZATION ( #153, #492 ) ;
#13 = DIRECTION ( 'NONE',  ( 0.000000000000000000, 0.000000000000000000, 1.000000000000000000 ) ) ;
#14 = ORIENTED_EDGE ( 'NONE', *, *, #1124, .F. ) ;
#15 = CARTESIAN_POINT ( 'NONE',  ( -11.00000000000000000, -18.50000000000000000, 3.000000000000000000 ) ) ;
#16 = CARTESIAN_POINT ( 'NONE',  ( -4.999999999999999112, -18.50000000000000000, 0.000000000000000000 ) ) ;
#17 = ORIENTED_EDGE ( 'NONE', *, *, #413, .F. ) ;
#18 = APPROVAL_ROLE ( '' ) ;
#19 = EDGE_CURVE ( 'NONE', #545, #147, #312, .T. ) ;
#20 = DIRECTION ( 'NONE',  ( -1.000000000000000000, 0.000000000000000000, 0.000000000000000000 ) ) ;
#21 = ORIENTED_EDGE ( 'NONE', *, *, #486, .T. ) ;
#22 = CARTESIAN_POINT ( 'NONE',  ( 9.632152712959107716E-13, -8.500000000000000000, 3.000000000000000000 ) ) ;
#23 = VERTEX_POINT ( 'NONE', #503 ) ;
#24 = CALENDAR_DATE ( 2026, 29, 8 ) ;
#25 = VECTOR ( 'NONE', #878, 1000.000000000000000 ) ;
#26 = EDGE_CURVE ( 'NONE', #1111, #156, #1049, .T. ) ;
#27 = LINE ( 'NONE', #1099, #950 ) ;
#28 = CARTESIAN_POINT ( 'NONE',  ( -11.00000000000000000, -18.50000000000000000, 3.000000000000000000 ) ) ;
#29 = ORIENTED_EDGE ( 'NONE', *, *, #1146, .T. ) ;
#30 = EDGE_CURVE ( 'NONE', #266, #607, #471, .T. ) ;
#31 = AXIS2_PLACEMENT_3D ( 'NONE', #1077, #787, #810 ) ;
#32 = LINE ( 'NONE', #736, #644 ) ;
#33 = EDGE_LOOP ( 'NONE', ( #989, #202, #758, #181 ) ) ;
#34 = CARTESIAN_POINT ( 'NONE',  ( 0.000000000000000000, 0.000000000000000000, 0.000000000000000000 ) ) ;
#35 = LINE ( 'NONE', #749, #285 ) ;
#36 = DIRECTION ( 'NONE',  ( 1.000000000000000000, 0.000000000000000000, 0.000000000000000000 ) ) ;
#37 = ORIENTED_EDGE ( 'NONE', *, *, #1068, .F. ) ;
#38 = ADVANCED_FACE ( 'NONE', ( #420 ), #773, .F. ) ;
#39 = AXIS2_PLACEMENT_3D ( 'NONE', #119, #750, #45 ) ;
#40 = CYLINDRICAL_SURFACE ( 'NONE', #752, 1.500000000000000000 ) ;
#41 = CYLINDRICAL_SURFACE ( 'NONE', #242, 1.500000000000686562 ) ;
#42 = ORIENTED_EDGE ( 'NONE', *, *, #538, .F. ) ;
#43 = ADVANCED_FACE ( 'NONE', ( #329, #1126, #247, #608, #671, #325, #1131, #161 ), #1044, .F. ) ;
#44 = FACE_OUTER_BOUND ( 'NONE', #777, .T. ) ;
#45 = DIRECTION ( 'NONE',  ( 1.000000000000000000, 0.000000000000000000, 0.000000000000000000 ) ) ;
#46 = EDGE_LOOP ( 'NONE', ( #734, #106, #601, #14 ) ) ;
#47 = AXIS2_PLACEMENT_3D ( 'NONE', #1082, #217, #394 ) ;
#48 = CARTESIAN_POINT ( 'NONE',  ( -8.499999999999520384, -4.826485854272306472E-13, 0.000000000000000000 ) ) ;
#49 = VERTEX_POINT ( 'NONE', #76 ) ;
#50 = EDGE_LOOP ( 'NONE', ( #277, #955, #1078, #494, #586, #816, #104, #86, #113, #762, #888, #591, #221, #843, #447, #188 ) ) ;
#51 = LINE ( 'NONE', #404, #568 ) ;
#52 = CC_DESIGN_PERSON_AND_ORGANIZATION_ASSIGNMENT ( #12, #456, ( #812 ) ) ;
#53 = ORIENTED_EDGE ( 'NONE', *, *, #222, .F. ) ;
#54 = CARTESIAN_POINT ( 'NONE',  ( -11.00000000000000000, 20.99999999999999645, 3.000000000000000000 ) ) ;
#55 = CARTESIAN_POINT ( 'NONE',  ( 29.99999999999999645, 50.99999999999999289, 0.000000000000000000 ) ) ;
#56 = CIRCLE ( 'NONE', #253, 1.500000000000001332 ) ;
#57 = CARTESIAN_POINT ( 'NONE',  ( 0.000000000000000000, 0.000000000000000000, 3.000000000000000000 ) ) ;
#58 = EDGE_CURVE ( 'NONE', #628, #1019, #760, .T. ) ;
#60 = AXIS2_PLACEMENT_3D ( 'NONE', #2, #959, #163 ) ;
#59 = CARTESIAN_POINT ( 'NONE',  ( -10.99999999999999645, -21.00000000000000000, 0.000000000000000000 ) ) ;
#61 = CARTESIAN_POINT ( 'NONE',  ( 11.00000000000000000, 21.00000000000000000, 0.000000000000000000 ) ) ;
#62 = VECTOR ( 'NONE', #848, 1000.000000000000000 ) ;
#63 = LOCAL_TIME ( 18, 55, 33.00000000000000000, #1076 ) ;
#64 = ORIENTED_EDGE ( 'NONE', *, *, #742, .F. ) ;
#65 = VECTOR ( 'NONE', #804, 1000.000000000000000 ) ;
#66 = DIRECTION ( 'NONE',  ( -0.000000000000000000, -0.000000000000000000, -1.000000000000000000 ) ) ;
#67 = DIRECTION ( 'NONE',  ( 1.387778780781444492E-15, -1.000000000000000000, 0.000000000000000000 ) ) ;
#68 = EDGE_LOOP ( 'NONE', ( #665, #1107, #412, #527 ) ) ;
#69 = CARTESIAN_POINT ( 'NONE',  ( 0.000000000000000000, 8.500000000000000000, 0.000000000000000000 ) ) ;
#70 = ADVANCED_FACE ( 'NONE', ( #613 ), #340, .F. ) ;
#71 = EDGE_LOOP ( 'NONE', ( #125, #458, #287, #646 ) ) ;
#72 = CARTESIAN_POINT ( 'NONE',  ( -8.499999999999520384, -4.826485854272306472E-13, 3.000000000000000000 ) ) ;
#73 = DIRECTION ( 'NONE',  ( 0.000000000000000000, 0.000000000000000000, 1.000000000000000000 ) ) ;
#74 = ORIENTED_EDGE ( 'NONE', *, *, #410, .T. ) ;
#75 = EDGE_CURVE ( 'NONE', #49, #210, #539, .T. ) ;
#76 = CARTESIAN_POINT ( 'NONE',  ( -10.99999999999999822, -15.50000000000000000, 3.000000000000000000 ) ) ;
#77 = CARTESIAN_POINT ( 'NONE',  ( -10.99999999999999822, -15.50000000000000000, 3.000000000000000000 ) ) ;
#78 = DIRECTION ( 'NONE',  ( -0.000000000000000000, -0.000000000000000000, -1.000000000000000000 ) ) ;
#79 = EDGE_LOOP ( 'NONE', ( #307, #1119, #42, #1130 ) ) ;
#80 = CARTESIAN_POINT ( 'NONE',  ( -4.999999999999998224, -15.50000000000000000, 0.000000000000000000 ) ) ;
#81 = VECTOR ( 'NONE', #579, 1000.000000000000000 ) ;
#82 = FACE_OUTER_BOUND ( 'NONE', #334, .T. ) ;
#83 = DIRECTION ( 'NONE',  ( -0.000000000000000000, -0.000000000000000000, -1.000000000000000000 ) ) ;
#84 = AXIS2_PLACEMENT_3D ( 'NONE', #72, #775, #166 ) ;
#85 = FACE_OUTER_BOUND ( 'NONE', #284, .T. ) ;
#86 = ORIENTED_EDGE ( 'NONE', *, *, #744, .T. ) ;
#87 = DIRECTION ( 'NONE',  ( -1.000000000000000000, 0.000000000000000000, 0.000000000000000000 ) ) ;
#88 = DIRECTION ( 'NONE',  ( 0.000000000000000000, 0.000000000000000000, 1.000000000000000000 ) ) ;
#89 = DIRECTION ( 'NONE',  ( 1.000000000000000000, 0.000000000000000000, 0.000000000000000000 ) ) ;
#90 = EDGE_CURVE ( 'NONE', #136, #1019, #165, .T. ) ;
#91 = DIRECTION ( 'NONE',  ( -0.000000000000000000, -0.000000000000000000, -1.000000000000000000 ) ) ;
#92 = VERTEX_POINT ( 'NONE', #354 ) ;
#93 = APPROVAL_STATUS ( 'not_yet_approved' ) ;
#94 = DIRECTION ( 'NONE',  ( 0.000000000000000000, -1.000000000000000000, 0.000000000000000000 ) ) ;
#95 = DIRECTION ( 'NONE',  ( -1.000000000000000000, 0.000000000000000000, 0.000000000000000000 ) ) ;
#96 =( LENGTH_UNIT ( ) NAMED_UNIT ( * ) SI_UNIT ( .MILLI., .METRE. ) );
#97 = FACE_OUTER_BOUND ( 'NONE', #71, .T. ) ;
#98 = VERTEX_POINT ( 'NONE', #813 ) ;
#99 = APPROVAL_ROLE ( '' ) ;
#100 = CARTESIAN_POINT ( 'NONE',  ( 30.00000000000000355, 20.99999999999999645, 0.000000000000000000 ) ) ;
#101 = ORIENTED_EDGE ( 'NONE', *, *, #114, .T. ) ;
#102 = CARTESIAN_POINT ( 'NONE',  ( 5.000000000000001776, -18.49999999999999645, 3.000000000000000000 ) ) ;
#103 = DIRECTION ( 'NONE',  ( -0.000000000000000000, -0.000000000000000000, -1.000000000000000000 ) ) ;
#104 = ORIENTED_EDGE ( 'NONE', *, *, #479, .T. ) ;
#105 = CARTESIAN_POINT ( 'NONE',  ( 8.500000000000483169, 4.816076356479553858E-13, 3.000000000000000000 ) ) ;
#106 = ORIENTED_EDGE ( 'NONE', *, *, #19, .T. ) ;
#107 = EDGE_CURVE ( 'NONE', #695, #175, #546, .T. ) ;
#108 = CARTESIAN_POINT ( 'NONE',  ( -10.99999999999999645, -21.00000000000000000, 3.000000000000000000 ) ) ;
#109 = ORIENTED_EDGE ( 'NONE', *, *, #1068, .T. ) ;
#110 = DATE_TIME_ROLE ( 'creation_date' ) ;
#111 = CARTESIAN_POINT ( 'NONE',  ( -4.999999999999999112, -18.50000000000000000, 0.000000000000000000 ) ) ;
#112 = CARTESIAN_POINT ( 'NONE',  ( 5.000000000000001776, -18.49999999999999645, 0.000000000000000000 ) ) ;
#113 = ORIENTED_EDGE ( 'NONE', *, *, #759, .T. ) ;
#114 = EDGE_CURVE ( 'NONE', #338, #414, #56, .T. ) ;
#115 = CARTESIAN_POINT ( 'NONE',  ( -30.00000000000000355, 50.99999999999999289, 3.000000000000000000 ) ) ;
#116 = VERTEX_POINT ( 'NONE', #445 ) ;
#117 = VECTOR ( 'NONE', #271, 1000.000000000000000 ) ;
#118 = DIRECTION ( 'NONE',  ( 1.387778780781444492E-15, 1.000000000000000000, 0.000000000000000000 ) ) ;
#119 = CARTESIAN_POINT ( 'NONE',  ( 9.632152712959107716E-13, -8.500000000000000000, 0.000000000000000000 ) ) ;
#120 = ORIENTED_EDGE ( 'NONE', *, *, #675, .T. ) ;
#121 = VECTOR ( 'NONE', #1118, 1000.000000000000000 ) ;
#122 = CARTESIAN_POINT ( 'NONE',  ( 26.00000000000000711, 35.99999999999999289, 0.000000000000000000 ) ) ;
#123 = CARTESIAN_POINT ( 'NONE',  ( -30.00000000000000355, 50.99999999999999289, 3.000000000000000000 ) ) ;
#124 = SECURITY_CLASSIFICATION ( '', '', #466 ) ;
#125 = ORIENTED_EDGE ( 'NONE', *, *, #616, .F. ) ;
#126 = EDGE_CURVE ( 'NONE', #1087, #489, #965, .T. ) ;
#127 = VECTOR ( 'NONE', #66, 1000.000000000000000 ) ;
#128 = ADVANCED_FACE ( 'NONE', ( #82 ), #1055, .F. ) ;
#129 = CYLINDRICAL_SURFACE ( 'NONE', #47, 1.500000000000001332 ) ;
#130 = CARTESIAN_POINT ( 'NONE',  ( -4.999999999999998224, -15.50000000000000000, 3.000000000000000000 ) ) ;
#131 = ORIENTED_EDGE ( 'NONE', *, *, #488, .T. ) ;
#132 = CARTESIAN_POINT ( 'NONE',  ( 10.00000000000083134, 4.817913326678274254E-13, 3.000000000000000000 ) ) ;
#133 = VERTEX_POINT ( 'NONE', #891 ) ;
#134 = AXIS2_PLACEMENT_3D ( 'NONE', #818, #345, #190 ) ;
#135 = CARTESIAN_POINT ( 'NONE',  ( -1.500000000000000000, 8.500000000000000000, 0.000000000000000000 ) ) ;
#136 = VERTEX_POINT ( 'NONE', #8 ) ;
#137 = LOCAL_TIME ( 18, 55, 33.00000000000000000, #281 ) ;
#138 = AXIS2_PLACEMENT_3D ( 'NONE', #940, #145, #89 ) ;
#139 = EDGE_CURVE ( 'NONE', #489, #426, #898, .T. ) ;
#140 = ORIENTED_EDGE ( 'NONE', *, *, #934, .F. ) ;
#141 = VERTEX_POINT ( 'NONE', #1061 ) ;
#142 = CARTESIAN_POINT ( 'NONE',  ( -6.999999999998833822, -4.824648884073584056E-13, 3.000000000000000000 ) ) ;
#143 = ADVANCED_FACE ( 'NONE', ( #1072 ), #623, .F. ) ;
#144 = EDGE_LOOP ( 'NONE', ( #826, #434, #786, #866 ) ) ;
#145 = DIRECTION ( 'NONE',  ( 0.000000000000000000, 0.000000000000000000, 1.000000000000000000 ) ) ;
#146 = DIRECTION ( 'NONE',  ( -2.312964634635743450E-16, 1.000000000000000000, -0.000000000000000000 ) ) ;
#147 = VERTEX_POINT ( 'NONE', #178 ) ;
#148 = ORIENTED_EDGE ( 'NONE', *, *, #225, .F. ) ;
#150 = VECTOR ( 'NONE', #67, 1000.000000000000000 ) ;
#149 = DIRECTION ( 'NONE',  ( 1.000000000000000000, 0.000000000000000000, 0.000000000000000000 ) ) ;
#151 = LINE ( 'NONE', #1028, #572 ) ;
#152 = ORIENTED_EDGE ( 'NONE', *, *, #139, .T. ) ;
#153 = PERSON ( 'UNSPECIFIED', 'UNSPECIFIED', 'UNSPECIFIED', ('UNSPECIFIED'), ('UNSPECIFIED'), ('UNSPECIFIED') ) ;
#154 = AXIS2_PLACEMENT_3D ( 'NONE', #251, #976, #176 ) ;
#155 = ADVANCED_FACE ( 'NONE', ( #629 ), #365, .F. ) ;
#156 = VERTEX_POINT ( 'NONE', #15 ) ;
#157 = DIRECTION ( 'NONE',  ( -1.000000000000000000, 0.000000000000000000, 0.000000000000000000 ) ) ;
#158 = EDGE_CURVE ( 'NONE', #1047, #367, #531, .T. ) ;
#159 = CARTESIAN_POINT ( 'NONE',  ( 11.00000000000000000, 21.00000000000000000, 3.000000000000000000 ) ) ;
#160 = ORIENTED_EDGE ( 'NONE', *, *, #559, .T. ) ;
#161 = FACE_BOUND ( 'NONE', #801, .T. ) ;
#162 = DIRECTION ( 'NONE',  ( -0.000000000000000000, -0.000000000000000000, -1.000000000000000000 ) ) ;
#163 = DIRECTION ( 'NONE',  ( -1.119176436114069085E-16, 1.000000000000000000, 0.000000000000000000 ) ) ;
#164 = EDGE_LOOP ( 'NONE', ( #74, #924, #554, #1113 ) ) ;
#165 = LINE ( 'NONE', #962, #117 ) ;
#166 = DIRECTION ( 'NONE',  ( 1.000000000000000000, 0.000000000000000000, 0.000000000000000000 ) ) ;
#167 = AXIS2_PLACEMENT_3D ( 'NONE', #881, #91, #618 ) ;
#168 = LINE ( 'NONE', #454, #475 ) ;
#169 = ORIENTED_EDGE ( 'NONE', *, *, #969, .F. ) ;
#170 = DIRECTION ( 'NONE',  ( 0.000000000000000000, 0.000000000000000000, 1.000000000000000000 ) ) ;
#171 = AXIS2_PLACEMENT_3D ( 'NONE', #130, #733, #922 ) ;
#172 = DIRECTION ( 'NONE',  ( 1.826024711554533174E-16, 1.000000000000000000, -0.000000000000000000 ) ) ;
#173 = VECTOR ( 'NONE', #157, 1000.000000000000000 ) ;
#174 = FACE_BOUND ( 'NONE', #478, .T. ) ;
#175 = VERTEX_POINT ( 'NONE', #112 ) ;
#176 = DIRECTION ( 'NONE',  ( 1.000000000000000000, 0.000000000000000000, 0.000000000000000000 ) ) ;
#177 = EDGE_CURVE ( 'NONE', #49, #985, #653, .T. ) ;
#178 = CARTESIAN_POINT ( 'NONE',  ( -4.000000000000000000, 0.000000000000000000, 3.000000000000000000 ) ) ;
#179 = DIRECTION ( 'NONE',  ( -0.000000000000000000, -0.000000000000000000, -1.000000000000000000 ) ) ;
#180 = CYLINDRICAL_SURFACE ( 'NONE', #167, 1.500000000000977440 ) ;
#181 = ORIENTED_EDGE ( 'NONE', *, *, #796, .F. ) ;
#182 = DATE_AND_TIME ( #1066, #621 ) ;
#183 = LINE ( 'NONE', #448, #436 ) ;
#184 = VERTEX_POINT ( 'NONE', #740 ) ;
#185 = DIRECTION ( 'NONE',  ( 1.000000000000000000, 0.000000000000000000, 0.000000000000000000 ) ) ;
#186 = LINE ( 'NONE', #9, #65 ) ;
#187 = FACE_BOUND ( 'NONE', #935, .T. ) ;
#188 = ORIENTED_EDGE ( 'NONE', *, *, #885, .T. ) ;
#189 = PERSON_AND_ORGANIZATION ( #153, #492 ) ;
#190 = DIRECTION ( 'NONE',  ( 1.000000000000000000, 0.000000000000000000, 0.000000000000000000 ) ) ;
#191 = EDGE_LOOP ( 'NONE', ( #491, #514, #402, #29 ) ) ;
#192 = EDGE_CURVE ( 'NONE', #798, #116, #1017, .T. ) ;
#193 = VECTOR ( 'NONE', #484, 1000.000000000000000 ) ;
#194 = PLANE ( 'NONE',  #703 ) ;
#195 = VERTEX_POINT ( 'NONE', #199 ) ;
#196 = APPROVAL_STATUS ( 'not_yet_approved' ) ;
#197 = EDGE_CURVE ( 'NONE', #489, #1087, #865, .T. ) ;
#198 = DIRECTION ( 'NONE',  ( -1.000000000000000000, 0.000000000000000000, 0.000000000000000000 ) ) ;
#199 = CARTESIAN_POINT ( 'NONE',  ( -11.00000000000000000, -18.50000000000000000, 0.000000000000000000 ) ) ;
#200 = ORIENTED_EDGE ( 'NONE', *, *, #1108, .T. ) ;
#201 = DIRECTION ( 'NONE',  ( 1.000000000000000000, 0.000000000000000000, 0.000000000000000000 ) ) ;
#202 = ORIENTED_EDGE ( 'NONE', *, *, #197, .T. ) ;
#203 = CARTESIAN_POINT ( 'NONE',  ( 10.99999999999999645, -21.00000000000000000, 3.000000000000000000 ) ) ;
#204 = CARTESIAN_POINT ( 'NONE',  ( 8.500000000000483169, 4.816076356479553858E-13, 3.000000000000000000 ) ) ;
#205 = ADVANCED_FACE ( 'NONE', ( #209 ), #41, .F. ) ;
#206 = ORIENTED_EDGE ( 'NONE', *, *, #107, .T. ) ;
#207 = EDGE_CURVE ( 'NONE', #23, #768, #836, .T. ) ;
#208 = DIRECTION ( 'NONE',  ( -1.000000000000000000, -0.000000000000000000, -0.000000000000000000 ) ) ;
#209 = FACE_OUTER_BOUND ( 'NONE', #751, .T. ) ;
#210 = VERTEX_POINT ( 'NONE', #469 ) ;
#211 = VECTOR ( 'NONE', #400, 1000.000000000000000 ) ;
#212 = AXIS2_PLACEMENT_3D ( 'NONE', #996, #648, #841 ) ;
#213 = VECTOR ( 'NONE', #584, 1000.000000000000000 ) ;
#214 = DIRECTION ( 'NONE',  ( -0.000000000000000000, -0.000000000000000000, -1.000000000000000000 ) ) ;
#215 = DIRECTION ( 'NONE',  ( -0.000000000000000000, -0.000000000000000000, -1.000000000000000000 ) ) ;
#216 = EDGE_LOOP ( 'NONE', ( #931, #793, #407, #309 ) ) ;
#217 = DIRECTION ( 'NONE',  ( -0.000000000000000000, -0.000000000000000000, -1.000000000000000000 ) ) ;
#218 = ORIENTED_EDGE ( 'NONE', *, *, #126, .T. ) ;
#219 = CC_DESIGN_DATE_AND_TIME_ASSIGNMENT ( #1094, #110, ( #943 ) ) ;
#220 = DIRECTION ( 'NONE',  ( -1.000000000000000000, -2.312964634635743450E-16, 0.000000000000000000 ) ) ;
#221 = ORIENTED_EDGE ( 'NONE', *, *, #403, .T. ) ;
#222 = EDGE_CURVE ( 'NONE', #1002, #443, #839, .T. ) ;
#223 = VECTOR ( 'NONE', #208, 1000.000000000000000 ) ;
#224 = DIRECTION ( 'NONE',  ( -1.000000000000000000, -0.000000000000000000, -0.000000000000000000 ) ) ;
#225 = EDGE_CURVE ( 'NONE', #156, #195, #395, .T. ) ;
#226 = AXIS2_PLACEMENT_3D ( 'NONE', #784, #512, #769 ) ;
#227 = DIRECTION ( 'NONE',  ( 0.000000000000000000, 0.000000000000000000, 1.000000000000000000 ) ) ;
#228 = LINE ( 'NONE', #1036, #319 ) ;
#229 = ADVANCED_FACE ( 'NONE', ( #477 ), #377, .F. ) ;
#230 = DIRECTION ( 'NONE',  ( 0.000000000000000000, 1.000000000000000000, 0.000000000000000000 ) ) ;
#231 = ORIENTED_EDGE ( 'NONE', *, *, #956, .F. ) ;
#232 = CARTESIAN_POINT ( 'NONE',  ( 7.000000000000135003, 4.816076356479553858E-13, 3.000000000000000000 ) ) ;
#233 = CARTESIAN_POINT ( 'NONE',  ( 5.000000000000001776, -15.49999999999999645, 0.000000000000000000 ) ) ;
#234 = EDGE_CURVE ( 'NONE', #718, #798, #387, .T. ) ;
#235 = DIRECTION ( 'NONE',  ( -5.782411586589359611E-16, -1.000000000000000000, 0.000000000000000000 ) ) ;
#236 = ORIENTED_EDGE ( 'NONE', *, *, #796, .T. ) ;
#238 = AXIS2_PLACEMENT_3D ( 'NONE', #1074, #887, #694 ) ;
#237 = DIRECTION ( 'NONE',  ( 1.000000000000000000, 0.000000000000000000, 0.000000000000000000 ) ) ;
#239 = DIRECTION ( 'NONE',  ( 0.000000000000000000, 0.000000000000000000, 1.000000000000000000 ) ) ;
#240 = ORIENTED_EDGE ( 'NONE', *, *, #877, .F. ) ;
#241 = VECTOR ( 'NONE', #386, 1000.000000000000000 ) ;
#242 = AXIS2_PLACEMENT_3D ( 'NONE', #570, #481, #557 ) ;
#243 = DIRECTION ( 'NONE',  ( 0.000000000000000000, -0.000000000000000000, 1.000000000000000000 ) ) ;
#244 = LINE ( 'NONE', #423, #1093 ) ;
#245 = FACE_BOUND ( 'NONE', #882, .T. ) ;
#246 = ORIENTED_EDGE ( 'NONE', *, *, #774, .F. ) ;
#247 = FACE_BOUND ( 'NONE', #313, .T. ) ;
#248 = CYLINDRICAL_SURFACE ( 'NONE', #226, 1.500000000000001332 ) ;
#249 = LINE ( 'NONE', #699, #1117 ) ;
#250 = ORIENTED_EDGE ( 'NONE', *, *, #30, .F. ) ;
#251 = CARTESIAN_POINT ( 'NONE',  ( 27.50000000000000711, 35.99999999999999289, 0.000000000000000000 ) ) ;
#252 = ADVANCED_FACE ( 'NONE', ( #1097 ), #842, .F. ) ;
#253 = AXIS2_PLACEMENT_3D ( 'NONE', #262, #88, #185 ) ;
#254 = CARTESIAN_POINT ( 'NONE',  ( 8.500000000000483169, 4.816076356479553858E-13, 3.000000000000000000 ) ) ;
#255 = CIRCLE ( 'NONE', #656, 1.500000000000001332 ) ;
#256 = FACE_BOUND ( 'NONE', #634, .T. ) ;
#257 = EDGE_LOOP ( 'NONE', ( #756, #148, #577, #691 ) ) ;
#258 = CARTESIAN_POINT ( 'NONE',  ( 27.50000000000000711, 35.99999999999999289, 3.000000000000000000 ) ) ;
#259 = EDGE_CURVE ( 'NONE', #684, #23, #825, .T. ) ;
#260 = AXIS2_PLACEMENT_3D ( 'NONE', #1037, #938, #1109 ) ;
#261 = APPLICATION_CONTEXT ( 'configuration controlled 3d designs of mechanical parts and assemblies' ) ;
#262 = CARTESIAN_POINT ( 'NONE',  ( 27.50000000000000711, 35.99999999999999289, 0.000000000000000000 ) ) ;
#263 = DIRECTION ( 'NONE',  ( 1.000000000000000000, 0.000000000000000000, 0.000000000000000000 ) ) ;
#264 = VECTOR ( 'NONE', #179, 1000.000000000000000 ) ;
#265 = CARTESIAN_POINT ( 'NONE',  ( 10.99999999999999645, -21.00000000000000000, 3.000000000000000000 ) ) ;
#266 = VERTEX_POINT ( 'NONE', #649 ) ;
#267 = PERSON_AND_ORGANIZATION_ROLE ( 'creator' ) ;
#268 = AXIS2_PLACEMENT_3D ( 'NONE', #917, #564, #1005 ) ;
#269 = DIRECTION ( 'NONE',  ( 1.000000000000000000, 0.000000000000000000, 0.000000000000000000 ) ) ;
#270 = ORIENTED_EDGE ( 'NONE', *, *, #934, .T. ) ;
#271 = DIRECTION ( 'NONE',  ( -0.000000000000000000, -0.000000000000000000, -1.000000000000000000 ) ) ;
#272 = LINE ( 'NONE', #630, #416 ) ;
#273 = ORIENTED_EDGE ( 'NONE', *, *, #590, .F. ) ;
#274 = DATE_AND_TIME ( #368, #401 ) ;
#275 = ADVANCED_FACE ( 'NONE', ( #294 ), #1008, .F. ) ;
#276 = DIRECTION ( 'NONE',  ( 1.000000000000000000, 0.000000000000000000, 0.000000000000000000 ) ) ;
#277 = ORIENTED_EDGE ( 'NONE', *, *, #850, .T. ) ;
#278 = EDGE_CURVE ( 'NONE', #463, #427, #879, .T. ) ;
#279 = DIRECTION ( 'NONE',  ( 0.000000000000000000, 1.000000000000000000, 0.000000000000000000 ) ) ;
#280 = EDGE_LOOP ( 'NONE', ( #1101, #363, #64, #918, #273, #1042, #626, #1065, #37, #305, #1009, #737, #849, #231, #908, #1039 ) ) ;
#281 = COORDINATED_UNIVERSAL_TIME_OFFSET ( 5, 30, .AHEAD. ) ;
#282 = FACE_OUTER_BOUND ( 'NONE', #561, .T. ) ;
#283 = DIRECTION ( 'NONE',  ( -1.000000000000000000, 0.000000000000000000, 0.000000000000000000 ) ) ;
#284 = EDGE_LOOP ( 'NONE', ( #160, #392, #611, #946 ) ) ;
#285 = VECTOR ( 'NONE', #640, 1000.000000000000000 ) ;
#286 = CARTESIAN_POINT ( 'NONE',  ( 0.000000000000000000, 8.500000000000000000, 3.000000000000000000 ) ) ;
#287 = ORIENTED_EDGE ( 'NONE', *, *, #234, .T. ) ;
#288 = AXIS2_PLACEMENT_3D ( 'NONE', #34, #909, #831 ) ;
#289 = CARTESIAN_POINT ( 'NONE',  ( 10.00000000000083134, 4.817913326678274254E-13, 0.000000000000000000 ) ) ;
#290 = DIRECTION ( 'NONE',  ( -0.000000000000000000, -0.000000000000000000, -1.000000000000000000 ) ) ;
#291 = EDGE_LOOP ( 'NONE', ( #449, #840 ) ) ;
#292 = SHAPE_DEFINITION_REPRESENTATION ( #770, #920 ) ;
#293 = CARTESIAN_POINT ( 'NONE',  ( 1.500000000000000000, 8.500000000000000000, 3.000000000000000000 ) ) ;
#294 = FACE_OUTER_BOUND ( 'NONE', #68, .T. ) ;
#295 = ORIENTED_EDGE ( 'NONE', *, *, #324, .F. ) ;
#296 = EDGE_CURVE ( 'NONE', #320, #426, #1012, .T. ) ;
#297 = LINE ( 'NONE', #1013, #351 ) ;
#298 = DIRECTION ( 'NONE',  ( 0.000000000000000000, -1.000000000000000000, 0.000000000000000000 ) ) ;
#299 = VERTEX_POINT ( 'NONE', #991 ) ;
#300 = ADVANCED_FACE ( 'NONE', ( #717 ), #529, .F. ) ;
#301 = CIRCLE ( 'NONE', #1062, 4.000000000000000000 ) ;
#302 = VECTOR ( 'NONE', #724, 1000.000000000000000 ) ;
#303 = CYLINDRICAL_SURFACE ( 'NONE', #766, 1.500000000000686562 ) ;
#304 = EDGE_CURVE ( 'NONE', #607, #266, #972, .T. ) ;
#305 = ORIENTED_EDGE ( 'NONE', *, *, #1150, .F. ) ;
#306 = DIRECTION ( 'NONE',  ( 0.000000000000000000, 0.000000000000000000, 1.000000000000000000 ) ) ;
#307 = ORIENTED_EDGE ( 'NONE', *, *, #336, .T. ) ;
#308 = EDGE_CURVE ( 'NONE', #92, #706, #183, .T. ) ;
#309 = ORIENTED_EDGE ( 'NONE', *, *, #114, .F. ) ;
#310 = EDGE_CURVE ( 'NONE', #715, #299, #444, .T. ) ;
#311 = FACE_OUTER_BOUND ( 'NONE', #548, .T. ) ;
#312 = CIRCLE ( 'NONE', #1024, 4.000000000000000000 ) ;
#313 = EDGE_LOOP ( 'NONE', ( #474, #236 ) ) ;
#314 = AXIS2_PLACEMENT_3D ( 'NONE', #673, #1033, #1022 ) ;
#315 = ORIENTED_EDGE ( 'NONE', *, *, #304, .T. ) ;
#316 = LINE ( 'NONE', #880, #357 ) ;
#317 = CIRCLE ( 'NONE', #212, 1.500000000000977440 ) ;
#318 = CARTESIAN_POINT ( 'NONE',  ( -10.00000000000020606, -4.826485854272306472E-13, 0.000000000000000000 ) ) ;
#319 = VECTOR ( 'NONE', #1133, 1000.000000000000000 ) ;
#320 = VERTEX_POINT ( 'NONE', #537 ) ;
#321 = EDGE_CURVE ( 'NONE', #1087, #320, #1149, .T. ) ;
#322 = DIRECTION ( 'NONE',  ( 0.000000000000000000, 0.000000000000000000, 1.000000000000000000 ) ) ;
#323 = CARTESIAN_POINT ( 'NONE',  ( -11.00000000000000000, 20.99999999999999645, 3.000000000000000000 ) ) ;
#324 = EDGE_CURVE ( 'NONE', #846, #1135, #639, .T. ) ;
#325 = FACE_BOUND ( 'NONE', #638, .T. ) ;
#326 = CARTESIAN_POINT ( 'NONE',  ( -11.00000000000000000, -18.50000000000000000, 3.000000000000000000 ) ) ;
#327 = LINE ( 'NONE', #507, #150 ) ;
#328 = EDGE_LOOP ( 'NONE', ( #631, #808, #598, #870 ) ) ;
#329 = FACE_OUTER_BOUND ( 'NONE', #280, .T. ) ;
#330 = FACE_OUTER_BOUND ( 'NONE', #46, .T. ) ;
#331 = LINE ( 'NONE', #785, #949 ) ;
#332 = VERTEX_POINT ( 'NONE', #80 ) ;
#333 = AXIS2_PLACEMENT_3D ( 'NONE', #123, #298, #1014 ) ;
#334 = EDGE_LOOP ( 'NONE', ( #1058, #726, #1026, #819 ) ) ;
#335 = DIRECTION ( 'NONE',  ( 0.000000000000000000, 1.000000000000000000, 0.000000000000000000 ) ) ;
#336 = EDGE_CURVE ( 'NONE', #147, #545, #1137, .T. ) ;
#337 = CARTESIAN_POINT ( 'NONE',  ( 5.000000000000001776, -18.49999999999999645, 3.000000000000000000 ) ) ;
#338 = VERTEX_POINT ( 'NONE', #1070 ) ;
#339 = DIRECTION ( 'NONE',  ( -1.000000000000000000, 0.000000000000000000, 0.000000000000000000 ) ) ;
#340 = PLANE ( 'NONE',  #761 ) ;
#341 = DIRECTION ( 'NONE',  ( -1.000000000000000000, 0.000000000000000000, 0.000000000000000000 ) ) ;
#342 = ADVANCED_FACE ( 'NONE', ( #457 ), #551, .F. ) ;
#343 = PLANE ( 'NONE',  #923 ) ;
#344 = EDGE_LOOP ( 'NONE', ( #295, #240 ) ) ;
#345 = DIRECTION ( 'NONE',  ( 0.000000000000000000, 0.000000000000000000, 1.000000000000000000 ) ) ;
#346 = CARTESIAN_POINT ( 'NONE',  ( 30.00000000000000355, 20.99999999999999645, 3.000000000000000000 ) ) ;
#347 = CIRCLE ( 'NONE', #314, 1.500000000000686562 ) ;
#348 = FACE_BOUND ( 'NONE', #580, .T. ) ;
#349 = ORIENTED_EDGE ( 'NONE', *, *, #590, .T. ) ;
#350 = PERSON_AND_ORGANIZATION ( #153, #492 ) ;
#351 = VECTOR ( 'NONE', #1105, 1000.000000000000000 ) ;
#352 = CARTESIAN_POINT ( 'NONE',  ( 5.000000000000001776, -15.49999999999999645, 3.000000000000000000 ) ) ;
#353 = ORIENTED_EDGE ( 'NONE', *, *, #1138, .F. ) ;
#354 = CARTESIAN_POINT ( 'NONE',  ( 10.99999999999999645, -21.00000000000000000, 3.000000000000000000 ) ) ;
#355 = CC_DESIGN_APPROVAL ( #805, ( #943 ) ) ;
#356 = EDGE_CURVE ( 'NONE', #414, #338, #832, .T. ) ;
#357 = VECTOR ( 'NONE', #83, 1000.000000000000000 ) ;
#358 = CARTESIAN_POINT ( 'NONE',  ( 26.00000000000000711, 35.99999999999999289, 3.000000000000000000 ) ) ;
#359 = ORIENTED_EDGE ( 'NONE', *, *, #660, .F. ) ;
#360 = PERSON_AND_ORGANIZATION ( #153, #492 ) ;
#361 = VECTOR ( 'NONE', #1106, 1000.000000000000000 ) ;
#362 = DIRECTION ( 'NONE',  ( -0.000000000000000000, -0.000000000000000000, -1.000000000000000000 ) ) ;
#363 = ORIENTED_EDGE ( 'NONE', *, *, #858, .F. ) ;
#364 = EDGE_CURVE ( 'NONE', #985, #1111, #890, .T. ) ;
#365 = PLANE ( 'NONE',  #636 ) ;
#366 = CARTESIAN_POINT ( 'NONE',  ( -30.00000000000000355, 20.99999999999999289, 3.000000000000000000 ) ) ;
#367 = VERTEX_POINT ( 'NONE', #100 ) ;
#368 = CALENDAR_DATE ( 2026, 29, 8 ) ;
#369 = DIRECTION ( 'NONE',  ( -0.000000000000000000, -0.000000000000000000, -1.000000000000000000 ) ) ;
#370 = PLANE ( 'NONE',  #688 ) ;
#371 = ORIENTED_EDGE ( 'NONE', *, *, #499, .F. ) ;
#372 = AXIS2_PLACEMENT_3D ( 'NONE', #406, #243, #515 ) ;
#373 = DIRECTION ( 'NONE',  ( -0.000000000000000000, -0.000000000000000000, -1.000000000000000000 ) ) ;
#374 = VERTEX_POINT ( 'NONE', #4 ) ;
#375 = AXIS2_PLACEMENT_3D ( 'NONE', #868, #73, #553 ) ;
#376 = LINE ( 'NONE', #563, #490 ) ;
#377 = PLANE ( 'NONE',  #171 ) ;
#378 = VERTEX_POINT ( 'NONE', #352 ) ;
#379 = AXIS2_PLACEMENT_3D ( 'NONE', #701, #94, #1059 ) ;
#380 = CC_DESIGN_SECURITY_CLASSIFICATION ( #124, ( #812 ) ) ;
#381 = CARTESIAN_POINT ( 'NONE',  ( -11.00000000000000000, 20.99999999999999645, 3.000000000000000000 ) ) ;
#382 = ORIENTED_EDGE ( 'NONE', *, *, #197, .F. ) ;
#383 = APPROVAL_DATE_TIME ( #274, #853 ) ;
#384 = AXIS2_PLACEMENT_3D ( 'NONE', #1140, #162, #677 ) ;
#385 = ADVANCED_FACE ( 'NONE', ( #905 ), #709, .F. ) ;
#386 = DIRECTION ( 'NONE',  ( -2.891205793294679312E-16, -1.000000000000000000, 0.000000000000000000 ) ) ;
#387 = LINE ( 'NONE', #1090, #193 ) ;
#388 = ORIENTED_EDGE ( 'NONE', *, *, #1010, .F. ) ;
#389 = ADVANCED_FACE ( 'NONE', ( #725 ), #370, .F. ) ;
#390 = LINE ( 'NONE', #468, #223 ) ;
#391 = CARTESIAN_POINT ( 'NONE',  ( 0.000000000000000000, 8.500000000000000000, 3.000000000000000000 ) ) ;
#392 = ORIENTED_EDGE ( 'NONE', *, *, #75, .F. ) ;
#393 = CC_DESIGN_PERSON_AND_ORGANIZATION_ASSIGNMENT ( #1081, #915, ( #544 ) ) ;
#394 = DIRECTION ( 'NONE',  ( -1.000000000000000000, 0.000000000000000000, 0.000000000000000000 ) ) ;
#395 = LINE ( 'NONE', #28, #528 ) ;
#396 = ORIENTED_EDGE ( 'NONE', *, *, #685, .F. ) ;
#397 = CIRCLE ( 'NONE', #828, 1.500000000000348166 ) ;
#398 = VECTOR ( 'NONE', #369, 1000.000000000000000 ) ;
#399 = ADVANCED_FACE ( 'NONE', ( #997 ), #521, .F. ) ;
#400 = DIRECTION ( 'NONE',  ( -0.000000000000000000, -0.000000000000000000, -1.000000000000000000 ) ) ;
#401 = LOCAL_TIME ( 18, 55, 33.00000000000000000, #903 ) ;
#402 = ORIENTED_EDGE ( 'NONE', *, *, #364, .F. ) ;
#403 = EDGE_CURVE ( 'NONE', #1084, #495, #696, .T. ) ;
#404 = CARTESIAN_POINT ( 'NONE',  ( -29.00000000000000355, 35.99999999999999289, 3.000000000000000000 ) ) ;
#405 = EDGE_LOOP ( 'NONE', ( #642, #396, #565, #1080 ) ) ;
#406 = CARTESIAN_POINT ( 'NONE',  ( 0.000000000000000000, 0.000000000000000000, 0.000000000000000000 ) ) ;
#407 = ORIENTED_EDGE ( 'NONE', *, *, #499, .T. ) ;
#408 = LINE ( 'NONE', #55, #1102 ) ;
#409 = AXIS2_PLACEMENT_3D ( 'NONE', #697, #702, #977 ) ;
#410 = EDGE_CURVE ( 'NONE', #998, #706, #483, .T. ) ;
#411 = AXIS2_PLACEMENT_3D ( 'NONE', #941, #230, #667 ) ;
#412 = ORIENTED_EDGE ( 'NONE', *, *, #516, .F. ) ;
#413 = EDGE_CURVE ( 'NONE', #98, #718, #317, .T. ) ;
#414 = VERTEX_POINT ( 'NONE', #122 ) ;
#415 = CARTESIAN_POINT ( 'NONE',  ( -30.00000000000000355, 50.99999999999999289, 3.000000000000000000 ) ) ;
#416 = VECTOR ( 'NONE', #988, 1000.000000000000000 ) ;
#417 = LINE ( 'NONE', #323, #62 ) ;
#418 = APPROVAL_PERSON_ORGANIZATION ( #632, #805, #18 ) ;
#419 = CIRCLE ( 'NONE', #735, 1.500000000000977440 ) ;
#420 = FACE_OUTER_BOUND ( 'NONE', #405, .T. ) ;
#421 = ORIENTED_EDGE ( 'NONE', *, *, #1020, .T. ) ;
#422 = AXIS2_PLACEMENT_3D ( 'NONE', #204, #658, #36 ) ;
#423 = CARTESIAN_POINT ( 'NONE',  ( 5.000000000000001776, -15.49999999999999645, 3.000000000000000000 ) ) ;
#424 = CARTESIAN_POINT ( 'NONE',  ( -27.50000000000000355, 35.99999999999999289, 3.000000000000000000 ) ) ;
#425 = ORIENTED_EDGE ( 'NONE', *, *, #310, .T. ) ;
#426 = VERTEX_POINT ( 'NONE', #289 ) ;
#427 = VERTEX_POINT ( 'NONE', #1004 ) ;
#428 = CARTESIAN_POINT ( 'NONE',  ( 9.632152712959107716E-13, -8.500000000000000000, 3.000000000000000000 ) ) ;
#429 = DIRECTION ( 'NONE',  ( -1.000000000000000000, 5.782411586589359611E-16, 0.000000000000000000 ) ) ;
#430 = ORIENTED_EDGE ( 'NONE', *, *, #234, .F. ) ;
#431 = DIRECTION ( 'NONE',  ( -1.000000000000000000, -1.826024711554533174E-16, 0.000000000000000000 ) ) ;
#432 = CARTESIAN_POINT ( 'NONE',  ( 5.000000000000001776, -18.49999999999999645, 0.000000000000000000 ) ) ;
#433 = CARTESIAN_POINT ( 'NONE',  ( -30.00000000000000355, 50.99999999999999289, 0.000000000000000000 ) ) ;
#434 = ORIENTED_EDGE ( 'NONE', *, *, #90, .F. ) ;
#435 = EDGE_CURVE ( 'NONE', #427, #266, #824, .T. ) ;
#436 = VECTOR ( 'NONE', #633, 1000.000000000000000 ) ;
#437 = CARTESIAN_POINT ( 'NONE',  ( -4.999999999999998224, -15.50000000000000000, 3.000000000000000000 ) ) ;
#438 = VECTOR ( 'NONE', #855, 1000.000000000000000 ) ;
#439 = ADVANCED_FACE ( 'NONE', ( #1096 ), #129, .F. ) ;
#440 = DIRECTION ( 'NONE',  ( -1.387778780781444492E-15, 1.000000000000000000, 0.000000000000000000 ) ) ;
#441 = CARTESIAN_POINT ( 'NONE',  ( 9.632152712959107716E-13, -8.500000000000000000, 0.000000000000000000 ) ) ;
#442 = CARTESIAN_POINT ( 'NONE',  ( 8.500000000000483169, 4.816076356479553858E-13, 0.000000000000000000 ) ) ;
#443 = VERTEX_POINT ( 'NONE', #838 ) ;
#444 = LINE ( 'NONE', #794, #806 ) ;
#445 = CARTESIAN_POINT ( 'NONE',  ( 1.500000000001940670, -8.500000000000000000, 0.000000000000000000 ) ) ;
#446 = DIRECTION ( 'NONE',  ( 0.000000000000000000, 1.000000000000000000, 0.000000000000000000 ) ) ;
#447 = ORIENTED_EDGE ( 'NONE', *, *, #222, .T. ) ;
#448 = CARTESIAN_POINT ( 'NONE',  ( 10.99999999999999645, -21.00000000000000000, 3.000000000000000000 ) ) ;
#449 = ORIENTED_EDGE ( 'NONE', *, *, #578, .T. ) ;
#450 = EDGE_CURVE ( 'NONE', #332, #498, #480, .T. ) ;
#451 = DIRECTION ( 'NONE',  ( 1.000000000000000000, 1.387778780781444492E-15, -0.000000000000000000 ) ) ;
#452 =( NAMED_UNIT ( * ) PLANE_ANGLE_UNIT ( ) SI_UNIT ( $, .RADIAN. ) );
#453 = VECTOR ( 'NONE', #679, 1000.000000000000000 ) ;
#454 = CARTESIAN_POINT ( 'NONE',  ( 11.00000000000000000, -18.50000000000000000, 3.000000000000000000 ) ) ;
#455 = ORIENTED_EDGE ( 'NONE', *, *, #616, .T. ) ;
#456 = PERSON_AND_ORGANIZATION_ROLE ( 'design_supplier' ) ;
#457 = FACE_OUTER_BOUND ( 'NONE', #257, .T. ) ;
#458 = ORIENTED_EDGE ( 'NONE', *, *, #413, .T. ) ;
#459 = DIRECTION ( 'NONE',  ( 0.000000000000000000, 0.000000000000000000, 1.000000000000000000 ) ) ;
#460 = LINE ( 'NONE', #16, #173 ) ;
#461 = ORIENTED_EDGE ( 'NONE', *, *, #479, .F. ) ;
#462 = DIRECTION ( 'NONE',  ( -0.000000000000000000, -0.000000000000000000, -1.000000000000000000 ) ) ;
#463 = VERTEX_POINT ( 'NONE', #930 ) ;
#464 = DIRECTION ( 'NONE',  ( 0.000000000000000000, -0.000000000000000000, 1.000000000000000000 ) ) ;
#465 = ORIENTED_EDGE ( 'NONE', *, *, #538, .T. ) ;
#466 = SECURITY_CLASSIFICATION_LEVEL ( 'unclassified' ) ;
#467 = EDGE_CURVE ( 'NONE', #147, #184, #652, .T. ) ;
#468 = CARTESIAN_POINT ( 'NONE',  ( -30.00000000000000355, 50.99999999999999289, 3.000000000000000000 ) ) ;
#469 = CARTESIAN_POINT ( 'NONE',  ( -10.99999999999999822, -15.50000000000000000, 0.000000000000000000 ) ) ;
#470 = ORIENTED_EDGE ( 'NONE', *, *, #983, .F. ) ;
#471 = CIRCLE ( 'NONE', #827, 1.500000000000000000 ) ;
#472 = AXIS2_PLACEMENT_3D ( 'NONE', #789, #451, #440 ) ;
#473 = DIRECTION ( 'NONE',  ( -0.000000000000000000, -0.000000000000000000, -1.000000000000000000 ) ) ;
#474 = ORIENTED_EDGE ( 'NONE', *, *, #296, .T. ) ;
#475 = VECTOR ( 'NONE', #429, 1000.000000000000000 ) ;
#476 = CARTESIAN_POINT ( 'NONE',  ( 0.000000000000000000, 8.500000000000000000, 3.000000000000000000 ) ) ;
#477 = FACE_OUTER_BOUND ( 'NONE', #191, .T. ) ;
#478 = EDGE_LOOP ( 'NONE', ( #508, #17 ) ) ;
#479 = EDGE_CURVE ( 'NONE', #92, #374, #745, .T. ) ;
#480 = LINE ( 'NONE', #569, #241 ) ;
#481 = DIRECTION ( 'NONE',  ( -0.000000000000000000, -0.000000000000000000, -1.000000000000000000 ) ) ;
#482 = ORIENTED_EDGE ( 'NONE', *, *, #356, .F. ) ;
#483 = LINE ( 'NONE', #739, #81 ) ;
#484 = DIRECTION ( 'NONE',  ( -0.000000000000000000, -0.000000000000000000, -1.000000000000000000 ) ) ;
#485 = ORIENTED_EDGE ( 'NONE', *, *, #308, .T. ) ;
#486 = EDGE_CURVE ( 'NONE', #721, #1047, #27, .T. ) ;
#487 = CARTESIAN_POINT ( 'NONE',  ( 29.99999999999999645, 50.99999999999999289, 3.000000000000000000 ) ) ;
#488 = EDGE_CURVE ( 'NONE', #374, #1075, #376, .T. ) ;
#489 = VERTEX_POINT ( 'NONE', #132 ) ;
#490 = VECTOR ( 'NONE', #657, 1000.000000000000000 ) ;
#491 = ORIENTED_EDGE ( 'NONE', *, *, #450, .T. ) ;
#492 = ORGANIZATION ( 'UNSPECIFIED', 'UNSPECIFIED', '' ) ;
#493 = CARTESIAN_POINT ( 'NONE',  ( 29.99999999999999645, 50.99999999999999289, 3.000000000000000000 ) ) ;
#494 = ORIENTED_EDGE ( 'NONE', *, *, #26, .T. ) ;
#495 = VERTEX_POINT ( 'NONE', #487 ) ;
#496 = LINE ( 'NONE', #513, #748 ) ;
#497 = EDGE_LOOP ( 'NONE', ( #936, #681, #461, #485 ) ) ;
#498 = VERTEX_POINT ( 'NONE', #111 ) ;
#499 = EDGE_CURVE ( 'NONE', #846, #414, #1007, .T. ) ;
#500 = FACE_OUTER_BOUND ( 'NONE', #957, .T. ) ;
#501 = CARTESIAN_POINT ( 'NONE',  ( 29.00000000000000711, 35.99999999999999289, 3.000000000000000000 ) ) ;
#502 = AXIS2_PLACEMENT_3D ( 'NONE', #424, #239, #954 ) ;
#503 = CARTESIAN_POINT ( 'NONE',  ( -26.00000000000000355, 35.99999999999999289, 0.000000000000000000 ) ) ;
#504 = AXIS2_PLACEMENT_3D ( 'NONE', #391, #215, #911 ) ;
#505 = ADVANCED_FACE ( 'NONE', ( #282 ), #40, .F. ) ;
#506 = CARTESIAN_POINT ( 'NONE',  ( 30.00000000000000355, 20.99999999999999645, 3.000000000000000000 ) ) ;
#507 = CARTESIAN_POINT ( 'NONE',  ( -11.00000000000000000, -18.50000000000000000, 0.000000000000000000 ) ) ;
#508 = ORIENTED_EDGE ( 'NONE', *, *, #1020, .F. ) ;
#509 = EDGE_CURVE ( 'NONE', #141, #619, #35, .T. ) ;
#510 = EDGE_LOOP ( 'NONE', ( #1029, #960, #992, #980 ) ) ;
#511 = EDGE_LOOP ( 'NONE', ( #421, #455, #1035, #430 ) ) ;
#512 = DIRECTION ( 'NONE',  ( -0.000000000000000000, -0.000000000000000000, -1.000000000000000000 ) ) ;
#513 = CARTESIAN_POINT ( 'NONE',  ( -11.00000000000000000, 0.000000000000000000, 0.000000000000000000 ) ) ;
#514 = ORIENTED_EDGE ( 'NONE', *, *, #847, .F. ) ;
#515 = DIRECTION ( 'NONE',  ( 1.000000000000000000, 0.000000000000000000, -0.000000000000000000 ) ) ;
#516 = EDGE_CURVE ( 'NONE', #495, #1002, #390, .T. ) ;
#517 = LINE ( 'NONE', #326, #975 ) ;
#518 = FACE_BOUND ( 'NONE', #344, .T. ) ;
#519 = EDGE_LOOP ( 'NONE', ( #120, #1142 ) ) ;
#520 = VECTOR ( 'NONE', #886, 1000.000000000000000 ) ;
#521 = CYLINDRICAL_SURFACE ( 'NONE', #1085, 1.500000000000001332 ) ;
#522 = EDGE_CURVE ( 'NONE', #136, #721, #297, .T. ) ;
#523 = CARTESIAN_POINT ( 'NONE',  ( 5.000000000000001776, -18.49999999999999645, 3.000000000000000000 ) ) ;
#524 = CIRCLE ( 'NONE', #857, 1.500000000000000000 ) ;
#525 = DIRECTION ( 'NONE',  ( 1.000000000000000000, 0.000000000000000000, 0.000000000000000000 ) ) ;
#526 = FACE_OUTER_BOUND ( 'NONE', #50, .T. ) ;
#527 = ORIENTED_EDGE ( 'NONE', *, *, #904, .T. ) ;
#528 = VECTOR ( 'NONE', #928, 1000.000000000000000 ) ;
#529 = CYLINDRICAL_SURFACE ( 'NONE', #783, 1.500000000000001332 ) ;
#530 = CIRCLE ( 'NONE', #138, 4.000000000000000000 ) ;
#531 = LINE ( 'NONE', #795, #666 ) ;
#532 = FACE_OUTER_BOUND ( 'NONE', #79, .T. ) ;
#533 = CARTESIAN_POINT ( 'NONE',  ( -11.00000000000000000, 0.000000000000000000, 3.000000000000000000 ) ) ;
#534 = ORIENTED_EDGE ( 'NONE', *, *, #403, .F. ) ;
#535 = PERSON_AND_ORGANIZATION ( #153, #492 ) ;
#536 = ADVANCED_FACE ( 'NONE', ( #44 ), #303, .F. ) ;
#537 = CARTESIAN_POINT ( 'NONE',  ( 7.000000000000135003, 4.816076356479553858E-13, 0.000000000000000000 ) ) ;
#538 = EDGE_CURVE ( 'NONE', #184, #912, #301, .T. ) ;
#539 = LINE ( 'NONE', #802, #520 ) ;
#540 = FACE_OUTER_BOUND ( 'NONE', #497, .T. ) ;
#541 = ORIENTED_EDGE ( 'NONE', *, *, #723, .T. ) ;
#542 = PERSON_AND_ORGANIZATION ( #153, #492 ) ;
#543 = DIRECTION ( 'NONE',  ( -0.000000000000000000, -0.000000000000000000, -1.000000000000000000 ) ) ;
#544 = PRODUCT ( 'RisingFrame_Default_sldprt', 'RisingFrame_Default_sldprt', '', ( #722 ) ) ;
#545 = VERTEX_POINT ( 'NONE', #1089 ) ;
#546 = LINE ( 'NONE', #523, #25 ) ;
#547 = PLANE ( 'NONE',  #1060 ) ;
#548 = EDGE_LOOP ( 'NONE', ( #349, #906, #534, #914 ) ) ;
#549 = APPROVAL_STATUS ( 'not_yet_approved' ) ;
#550 = VECTOR ( 'NONE', #844, 1000.000000000000000 ) ;
#551 = PLANE ( 'NONE',  #379 ) ;
#552 = ORIENTED_EDGE ( 'NONE', *, *, #278, .T. ) ;
#553 = DIRECTION ( 'NONE',  ( 1.000000000000000000, 0.000000000000000000, 0.000000000000000000 ) ) ;
#554 = ORIENTED_EDGE ( 'NONE', *, *, #1021, .F. ) ;
#555 = VECTOR ( 'NONE', #834, 1000.000000000000000 ) ;
#556 = DIRECTION ( 'NONE',  ( 0.000000000000000000, 0.000000000000000000, 1.000000000000000000 ) ) ;
#557 = DIRECTION ( 'NONE',  ( -1.000000000000000000, 0.000000000000000000, 0.000000000000000000 ) ) ;
#558 = ORIENTED_EDGE ( 'NONE', *, *, #435, .T. ) ;
#559 = EDGE_CURVE ( 'NONE', #571, #210, #496, .T. ) ;
#560 = LINE ( 'NONE', #115, #674 ) ;
#561 = EDGE_LOOP ( 'NONE', ( #1023, #270, #1110, #250 ) ) ;
#562 = APPROVAL_DATE_TIME ( #182, #805 ) ;
#563 = CARTESIAN_POINT ( 'NONE',  ( 11.00000000000000000, -18.50000000000000000, 3.000000000000000000 ) ) ;
#564 = DIRECTION ( 'NONE',  ( 0.000000000000000000, 0.000000000000000000, 1.000000000000000000 ) ) ;
#565 = ORIENTED_EDGE ( 'NONE', *, *, #885, .F. ) ;
#566 = ADVANCED_FACE ( 'NONE', ( #311 ), #776, .F. ) ;
#567 = CLOSED_SHELL ( 'NONE', ( #300, #399, #1136, #536, #932, #143, #252, #763, #43, #791, #1015, #229, #342, #128, #897, #820, #1, #70, #655, #389, #155, #566, #275, #926, #38, #505, #385, #728, #205, #1048, #961, #439 ) ) ;
#568 = VECTOR ( 'NONE', #78, 1000.000000000000000 ) ;
#569 = CARTESIAN_POINT ( 'NONE',  ( -4.999999999999998224, -15.50000000000000000, 0.000000000000000000 ) ) ;
#570 = CARTESIAN_POINT ( 'NONE',  ( -8.499999999999520384, -4.826485854272306472E-13, 3.000000000000000000 ) ) ;
#571 = VERTEX_POINT ( 'NONE', #852 ) ;
#572 = VECTOR ( 'NONE', #224, 1000.000000000000000 ) ;
#573 = APPROVAL_PERSON_ORGANIZATION ( #542, #853, #99 ) ;
#574 = AXIS2_PLACEMENT_3D ( 'NONE', #1073, #978, #341 ) ;
#575 = CARTESIAN_POINT ( 'NONE',  ( -4.000000000000000000, 0.000000000000000000, 3.000000000000000000 ) ) ;
#576 = CARTESIAN_POINT ( 'NONE',  ( -10.99999999999999822, -15.50000000000000000, 3.000000000000000000 ) ) ;
#577 = ORIENTED_EDGE ( 'NONE', *, *, #26, .F. ) ;
#578 = EDGE_CURVE ( 'NONE', #768, #23, #255, .T. ) ;
#579 = DIRECTION ( 'NONE',  ( 1.000000000000000000, 0.000000000000000000, 0.000000000000000000 ) ) ;
#580 = EDGE_LOOP ( 'NONE', ( #896, #140 ) ) ;
#581 = LINE ( 'NONE', #501, #453 ) ;
#582 = ORIENTED_EDGE ( 'NONE', *, *, #310, .F. ) ;
#583 = VECTOR ( 'NONE', #290, 1000.000000000000000 ) ;
#584 = DIRECTION ( 'NONE',  ( -0.000000000000000000, 1.000000000000000000, -0.000000000000000000 ) ) ;
#585 = VECTOR ( 'NONE', #335, 1000.000000000000000 ) ;
#586 = ORIENTED_EDGE ( 'NONE', *, *, #1063, .T. ) ;
#587 = ORIENTED_EDGE ( 'NONE', *, *, #710, .F. ) ;
#588 = CARTESIAN_POINT ( 'NONE',  ( -4.999999999999999112, -18.50000000000000000, 3.000000000000000000 ) ) ;
#589 = DIRECTION ( 'NONE',  ( 0.000000000000000000, 0.000000000000000000, 1.000000000000000000 ) ) ;
#590 = EDGE_CURVE ( 'NONE', #367, #1092, #408, .T. ) ;
#591 = ORIENTED_EDGE ( 'NONE', *, *, #774, .T. ) ;
#592 = EDGE_LOOP ( 'NONE', ( #552, #558, #662, #939 ) ) ;
#593 = FACE_OUTER_BOUND ( 'NONE', #869, .T. ) ;
#594 = CARTESIAN_POINT ( 'NONE',  ( 5.000000000000001776, -18.49999999999999645, 3.000000000000000000 ) ) ;
#595 = CIRCLE ( 'NONE', #502, 1.500000000000001332 ) ;
#596 = DIRECTION ( 'NONE',  ( -1.000000000000000000, 0.000000000000000000, 0.000000000000000000 ) ) ;
#597 = VECTOR ( 'NONE', #968, 1000.000000000000000 ) ;
#598 = ORIENTED_EDGE ( 'NONE', *, *, #522, .F. ) ;
#599 = CARTESIAN_POINT ( 'NONE',  ( -10.99999999999999645, -21.00000000000000000, 3.000000000000000000 ) ) ;
#600 = CARTESIAN_POINT ( 'NONE',  ( 1.500000000001940670, -8.500000000000000000, 3.000000000000000000 ) ) ;
#601 = ORIENTED_EDGE ( 'NONE', *, *, #467, .T. ) ;
#602 = EDGE_CURVE ( 'NONE', #1092, #747, #151, .T. ) ;
#603 = CARTESIAN_POINT ( 'NONE',  ( -4.999999999999999112, -18.50000000000000000, 3.000000000000000000 ) ) ;
#604 = PLANE ( 'NONE',  #1031 ) ;
#605 = EDGE_CURVE ( 'NONE', #1135, #338, #581, .T. ) ;
#606 = PLANE ( 'NONE',  #60 ) ;
#607 = VERTEX_POINT ( 'NONE', #135 ) ;
#608 = FACE_BOUND ( 'NONE', #1053, .T. ) ;
#609 = CYLINDRICAL_SURFACE ( 'NONE', #384, 4.000000000000000000 ) ;
#610 = PLANE ( 'NONE',  #238 ) ;
#611 = ORIENTED_EDGE ( 'NONE', *, *, #850, .F. ) ;
#612 = DIRECTION ( 'NONE',  ( 1.000000000000000000, 0.000000000000000000, 0.000000000000000000 ) ) ;
#613 = FACE_OUTER_BOUND ( 'NONE', #11, .T. ) ;
#614 = CIRCLE ( 'NONE', #260, 1.500000000000001332 ) ;
#615 = DIRECTION ( 'NONE',  ( 0.000000000000000000, 0.000000000000000000, 1.000000000000000000 ) ) ;
#616 = EDGE_CURVE ( 'NONE', #98, #116, #764, .T. ) ;
#617 = APPROVAL ( #93, 'UNSPECIFIED' ) ;
#618 = DIRECTION ( 'NONE',  ( -1.000000000000000000, 0.000000000000000000, 0.000000000000000000 ) ) ;
#619 = VERTEX_POINT ( 'NONE', #318 ) ;
#620 = DIRECTION ( 'NONE',  ( 0.000000000000000000, 0.000000000000000000, 1.000000000000000000 ) ) ;
#621 = LOCAL_TIME ( 18, 55, 33.00000000000000000, #809 ) ;
#622 = AXIS2_PLACEMENT_3D ( 'NONE', #892, #615, #263 ) ;
#623 = CYLINDRICAL_SURFACE ( 'NONE', #1132, 1.500000000000348166 ) ;
#624 = LINE ( 'NONE', #1145, #264 ) ;
#625 = DIRECTION ( 'NONE',  ( -0.000000000000000000, -1.000000000000000000, -0.000000000000000000 ) ) ;
#626 = ORIENTED_EDGE ( 'NONE', *, *, #678, .F. ) ;
#627 = CARTESIAN_POINT ( 'NONE',  ( 0.000000000000000000, 8.500000000000000000, 3.000000000000000000 ) ) ;
#628 = VERTEX_POINT ( 'NONE', #233 ) ;
#629 = FACE_OUTER_BOUND ( 'NONE', #700, .T. ) ;
#630 = CARTESIAN_POINT ( 'NONE',  ( -11.00000000000000000, 20.99999999999999645, 0.000000000000000000 ) ) ;
#631 = ORIENTED_EDGE ( 'NONE', *, *, #678, .T. ) ;
#632 = PERSON_AND_ORGANIZATION ( #153, #492 ) ;
#633 = DIRECTION ( 'NONE',  ( -0.000000000000000000, -0.000000000000000000, -1.000000000000000000 ) ) ;
#634 = EDGE_LOOP ( 'NONE', ( #1034, #359 ) ) ;
#635 = PRODUCT_RELATED_PRODUCT_CATEGORY ( 'detail', '', ( #544 ) ) ;
#636 = AXIS2_PLACEMENT_3D ( 'NONE', #346, #172, #986 ) ;
#637 = CARTESIAN_POINT ( 'NONE',  ( 29.99999999999999645, 50.99999999999999289, 3.000000000000000000 ) ) ;
#638 = EDGE_LOOP ( 'NONE', ( #465, #863 ) ) ;
#639 = CIRCLE ( 'NONE', #7, 1.500000000000001332 ) ;
#640 = DIRECTION ( 'NONE',  ( -0.000000000000000000, -0.000000000000000000, -1.000000000000000000 ) ) ;
#641 = DIRECTION ( 'NONE',  ( 0.000000000000000000, 0.000000000000000000, 1.000000000000000000 ) ) ;
#642 = ORIENTED_EDGE ( 'NONE', *, *, #858, .T. ) ;
#643 = EDGE_CURVE ( 'NONE', #141, #715, #347, .T. ) ;
#644 = VECTOR ( 'NONE', #103, 1000.000000000000000 ) ;
#645 = LINE ( 'NONE', #381, #1027 ) ;
#646 = ORIENTED_EDGE ( 'NONE', *, *, #1108, .F. ) ;
#647 = EDGE_CURVE ( 'NONE', #195, #998, #327, .T. ) ;
#648 = DIRECTION ( 'NONE',  ( 0.000000000000000000, 0.000000000000000000, 1.000000000000000000 ) ) ;
#649 = CARTESIAN_POINT ( 'NONE',  ( 1.500000000000000000, 8.500000000000000000, 0.000000000000000000 ) ) ;
#650 = ORIENTED_EDGE ( 'NONE', *, *, #296, .F. ) ;
#651 = CC_DESIGN_PERSON_AND_ORGANIZATION_ASSIGNMENT ( #350, #267, ( #943 ) ) ;
#652 = LINE ( 'NONE', #575, #993 ) ;
#653 = LINE ( 'NONE', #576, #361 ) ;
#654 = ORIENTED_EDGE ( 'NONE', *, *, #643, .F. ) ;
#655 = ADVANCED_FACE ( 'NONE', ( #1123 ), #933, .F. ) ;
#656 = AXIS2_PLACEMENT_3D ( 'NONE', #771, #589, #757 ) ;
#657 = DIRECTION ( 'NONE',  ( -0.000000000000000000, -0.000000000000000000, -1.000000000000000000 ) ) ;
#658 = DIRECTION ( 'NONE',  ( 0.000000000000000000, 0.000000000000000000, 1.000000000000000000 ) ) ;
#659 = EDGE_LOOP ( 'NONE', ( #654, #388 ) ) ;
#660 = EDGE_CURVE ( 'NONE', #684, #730, #595, .T. ) ;
#661 = CARTESIAN_POINT ( 'NONE',  ( -8.499999999999520384, -4.826485854272306472E-13, 3.000000000000000000 ) ) ;
#662 = ORIENTED_EDGE ( 'NONE', *, *, #304, .F. ) ;
#663 = CARTESIAN_POINT ( 'NONE',  ( -1.500000000000014433, -8.500000000000000000, 3.000000000000000000 ) ) ;
#664 = ORIENTED_EDGE ( 'NONE', *, *, #675, .F. ) ;
#665 = ORIENTED_EDGE ( 'NONE', *, *, #602, .T. ) ;
#666 = VECTOR ( 'NONE', #1151, 1000.000000000000000 ) ;
#667 = DIRECTION ( 'NONE',  ( 0.000000000000000000, -0.000000000000000000, 1.000000000000000000 ) ) ;
#668 = AXIS2_PLACEMENT_3D ( 'NONE', #493, #220, #862 ) ;
#669 = ORIENTED_EDGE ( 'NONE', *, *, #942, .T. ) ;
#670 = VECTOR ( 'NONE', #895, 1000.000000000000000 ) ;
#671 = FACE_BOUND ( 'NONE', #519, .T. ) ;
#672 = DIRECTION ( 'NONE',  ( 1.000000000000000000, 0.000000000000000000, 0.000000000000000000 ) ) ;
#673 = CARTESIAN_POINT ( 'NONE',  ( -8.499999999999520384, -4.826485854272306472E-13, 3.000000000000000000 ) ) ;
#674 = VECTOR ( 'NONE', #473, 1000.000000000000000 ) ;
#675 = EDGE_CURVE ( 'NONE', #619, #299, #803, .T. ) ;
#676 = EDGE_LOOP ( 'NONE', ( #1038, #830, #974, #131 ) ) ;
#677 = DIRECTION ( 'NONE',  ( -1.000000000000000000, 0.000000000000000000, 0.000000000000000000 ) ) ;
#678 = EDGE_CURVE ( 'NONE', #1019, #1047, #1129, .T. ) ;
#679 = DIRECTION ( 'NONE',  ( -0.000000000000000000, -0.000000000000000000, -1.000000000000000000 ) ) ;
#680 = MANIFOLD_SOLID_BREP ( 'Boss-Extrude1', #567 ) ;
#681 = ORIENTED_EDGE ( 'NONE', *, *, #488, .F. ) ;
#682 = DIRECTION ( 'NONE',  ( 1.387778780781444492E-15, -1.000000000000000000, 0.000000000000000000 ) ) ;
#683 = CARTESIAN_POINT ( 'NONE',  ( -26.00000000000000355, 35.99999999999999289, 3.000000000000000000 ) ) ;
#684 = VERTEX_POINT ( 'NONE', #683 ) ;
#685 = EDGE_CURVE ( 'NONE', #835, #571, #417, .T. ) ;
#686 = EDGE_CURVE ( 'NONE', #730, #684, #614, .T. ) ;
#687 = DIRECTION ( 'NONE',  ( 0.000000000000000000, 0.000000000000000000, 1.000000000000000000 ) ) ;
#688 = AXIS2_PLACEMENT_3D ( 'NONE', #1083, #283, #641 ) ;
#689 = LINE ( 'NONE', #506, #127 ) ;
#690 = CARTESIAN_POINT ( 'NONE',  ( -30.00000000000000355, 20.99999999999999289, 0.000000000000000000 ) ) ;
#691 = ORIENTED_EDGE ( 'NONE', *, *, #847, .T. ) ;
#692 = ORIENTED_EDGE ( 'NONE', *, *, #509, .F. ) ;
#693 = DIRECTION ( 'NONE',  ( -0.000000000000000000, -0.000000000000000000, -1.000000000000000000 ) ) ;
#694 = DIRECTION ( 'NONE',  ( 1.000000000000000000, 0.000000000000000000, -0.000000000000000000 ) ) ;
#695 = VERTEX_POINT ( 'NONE', #594 ) ;
#696 = LINE ( 'NONE', #1054, #302 ) ;
#697 = CARTESIAN_POINT ( 'NONE',  ( 8.500000000000483169, 4.816076356479553858E-13, 3.000000000000000000 ) ) ;
#698 = APPLICATION_PROTOCOL_DEFINITION ( 'international standard', 'config_control_design', 1994, #982 ) ;
#699 = CARTESIAN_POINT ( 'NONE',  ( -4.999999999999999112, -18.50000000000000000, 3.000000000000000000 ) ) ;
#700 = EDGE_LOOP ( 'NONE', ( #711, #169, #246, #21 ) ) ;
#701 = CARTESIAN_POINT ( 'NONE',  ( -4.999999999999999112, -18.50000000000000000, 3.000000000000000000 ) ) ;
#702 = DIRECTION ( 'NONE',  ( 0.000000000000000000, 0.000000000000000000, 1.000000000000000000 ) ) ;
#703 = AXIS2_PLACEMENT_3D ( 'NONE', #366, #901, #907 ) ;
#704 =( NAMED_UNIT ( * ) SI_UNIT ( $, .STERADIAN. ) SOLID_ANGLE_UNIT ( ) );
#705 = DIRECTION ( 'NONE',  ( -0.000000000000000000, -0.000000000000000000, -1.000000000000000000 ) ) ;
#706 = VERTEX_POINT ( 'NONE', #753 ) ;
#707 = CALENDAR_DATE ( 2026, 29, 8 ) ;
#708 = AXIS2_PLACEMENT_3D ( 'NONE', #48, #306, #856 ) ;
#709 = CYLINDRICAL_SURFACE ( 'NONE', #1043, 1.500000000000348166 ) ;
#710 = EDGE_CURVE ( 'NONE', #378, #628, #948, .T. ) ;
#711 = ORIENTED_EDGE ( 'NONE', *, *, #158, .T. ) ;
#712 = DIRECTION ( 'NONE',  ( -0.000000000000000000, -0.000000000000000000, -1.000000000000000000 ) ) ;
#713 = CYLINDRICAL_SURFACE ( 'NONE', #574, 4.000000000000000000 ) ;
#714 = LINE ( 'NONE', #690, #899 ) ;
#715 = VERTEX_POINT ( 'NONE', #142 ) ;
#716 = CALENDAR_DATE ( 2026, 29, 8 ) ;
#717 = FACE_OUTER_BOUND ( 'NONE', #967, .T. ) ;
#718 = VERTEX_POINT ( 'NONE', #663 ) ;
#719 = DIRECTION ( 'NONE',  ( -1.000000000000000000, 0.000000000000000000, 0.000000000000000000 ) ) ;
#720 = CARTESIAN_POINT ( 'NONE',  ( 4.000000000000000000, 4.898587196589412829E-16, 0.000000000000000000 ) ) ;
#721 = VERTEX_POINT ( 'NONE', #159 ) ;
#722 = MECHANICAL_CONTEXT ( 'NONE', #982, 'mechanical' ) ;
#723 = EDGE_CURVE ( 'NONE', #730, #768, #51, .T. ) ;
#724 = DIRECTION ( 'NONE',  ( -2.312964634635743450E-16, 1.000000000000000000, -0.000000000000000000 ) ) ;
#725 = FACE_OUTER_BOUND ( 'NONE', #328, .T. ) ;
#726 = ORIENTED_EDGE ( 'NONE', *, *, #1051, .F. ) ;
#727 = VECTOR ( 'NONE', #596, 1000.000000000000000 ) ;
#728 = ADVANCED_FACE ( 'NONE', ( #97 ), #180, .F. ) ;
#729 = FACE_OUTER_BOUND ( 'NONE', #511, .T. ) ;
#730 = VERTEX_POINT ( 'NONE', #1046 ) ;
#731 = VECTOR ( 'NONE', #118, 1000.000000000000000 ) ;
#732 = CARTESIAN_POINT ( 'NONE',  ( 26.00000000000000711, 35.99999999999999289, 3.000000000000000000 ) ) ;
#733 = DIRECTION ( 'NONE',  ( 1.000000000000000000, -2.891205793294678819E-16, 0.000000000000000000 ) ) ;
#734 = ORIENTED_EDGE ( 'NONE', *, *, #944, .F. ) ;
#735 = AXIS2_PLACEMENT_3D ( 'NONE', #428, #322, #237 ) ;
#736 = CARTESIAN_POINT ( 'NONE',  ( 4.000000000000000000, 4.898587196589412829E-16, 3.000000000000000000 ) ) ;
#737 = ORIENTED_EDGE ( 'NONE', *, *, #410, .F. ) ;
#738 = DATE_AND_TIME ( #24, #63 ) ;
#739 = CARTESIAN_POINT ( 'NONE',  ( -10.99999999999999645, -21.00000000000000000, 0.000000000000000000 ) ) ;
#740 = CARTESIAN_POINT ( 'NONE',  ( -4.000000000000000000, 0.000000000000000000, 0.000000000000000000 ) ) ;
#741 = VERTEX_POINT ( 'NONE', #807 ) ;
#742 = EDGE_CURVE ( 'NONE', #747, #133, #714, .T. ) ;
#743 = CC_DESIGN_PERSON_AND_ORGANIZATION_ASSIGNMENT ( #535, #1003, ( #812 ) ) ;
#744 = EDGE_CURVE ( 'NONE', #374, #695, #168, .T. ) ;
#745 = LINE ( 'NONE', #203, #731 ) ;
#746 = CARTESIAN_POINT ( 'NONE',  ( -30.00000000000000355, 20.99999999999999289, 3.000000000000000000 ) ) ;
#747 = VERTEX_POINT ( 'NONE', #433 ) ;
#748 = VECTOR ( 'NONE', #1112, 1000.000000000000000 ) ;
#749 = CARTESIAN_POINT ( 'NONE',  ( -10.00000000000020606, -4.826485854272306472E-13, 3.000000000000000000 ) ) ;
#750 = DIRECTION ( 'NONE',  ( 0.000000000000000000, 0.000000000000000000, 1.000000000000000000 ) ) ;
#751 = EDGE_LOOP ( 'NONE', ( #582, #3, #822, #353 ) ) ;
#752 = AXIS2_PLACEMENT_3D ( 'NONE', #476, #833, #927 ) ;
#753 = CARTESIAN_POINT ( 'NONE',  ( 10.99999999999999645, -21.00000000000000000, 0.000000000000000000 ) ) ;
#754 = CC_DESIGN_PERSON_AND_ORGANIZATION_ASSIGNMENT ( #360, #990, ( #124 ) ) ;
#755 = ORIENTED_EDGE ( 'NONE', *, *, #30, .T. ) ;
#756 = ORIENTED_EDGE ( 'NONE', *, *, #956, .T. ) ;
#757 = DIRECTION ( 'NONE',  ( 1.000000000000000000, 0.000000000000000000, 0.000000000000000000 ) ) ;
#758 = ORIENTED_EDGE ( 'NONE', *, *, #321, .T. ) ;
#759 = EDGE_CURVE ( 'NONE', #695, #378, #973, .T. ) ;
#760 = LINE ( 'NONE', #782, #1056 ) ;
#761 = AXIS2_PLACEMENT_3D ( 'NONE', #102, #719, #459 ) ;
#762 = ORIENTED_EDGE ( 'NONE', *, *, #963, .T. ) ;
#763 = ADVANCED_FACE ( 'NONE', ( #256, #10, #187, #526, #348, #174, #245, #518 ), #610, .T. ) ;
#764 = LINE ( 'NONE', #600, #121 ) ;
#765 = VECTOR ( 'NONE', #625, 1000.000000000000000 ) ;
#766 = AXIS2_PLACEMENT_3D ( 'NONE', #661, #916, #198 ) ;
#767 = ORIENTED_EDGE ( 'NONE', *, *, #19, .F. ) ;
#768 = VERTEX_POINT ( 'NONE', #1141 ) ;
#769 = DIRECTION ( 'NONE',  ( -1.000000000000000000, 0.000000000000000000, 0.000000000000000000 ) ) ;
#770 = PRODUCT_DEFINITION_SHAPE ( 'NONE', 'NONE',  #943 ) ;
#771 = CARTESIAN_POINT ( 'NONE',  ( -27.50000000000000355, 35.99999999999999289, 0.000000000000000000 ) ) ;
#772 = AXIS2_PLACEMENT_3D ( 'NONE', #441, #790, #672 ) ;
#773 = PLANE ( 'NONE',  #1114 ) ;
#774 = EDGE_CURVE ( 'NONE', #721, #1084, #331, .T. ) ;
#775 = DIRECTION ( 'NONE',  ( 0.000000000000000000, 0.000000000000000000, 1.000000000000000000 ) ) ;
#776 = PLANE ( 'NONE',  #668 ) ;
#777 = EDGE_LOOP ( 'NONE', ( #860, #425, #664, #692 ) ) ;
#778 = FACE_OUTER_BOUND ( 'NONE', #676, .T. ) ;
#779 = CARTESIAN_POINT ( 'NONE',  ( 11.00000000000000000, -15.49999999999999645, 0.000000000000000000 ) ) ;
#780 = DIRECTION ( 'NONE',  ( 1.387778780781444492E-15, 1.000000000000000000, 0.000000000000000000 ) ) ;
#781 = ORIENTED_EDGE ( 'NONE', *, *, #1146, .F. ) ;
#782 = CARTESIAN_POINT ( 'NONE',  ( 5.000000000000001776, -15.49999999999999645, 0.000000000000000000 ) ) ;
#783 = AXIS2_PLACEMENT_3D ( 'NONE', #884, #362, #87 ) ;
#784 = CARTESIAN_POINT ( 'NONE',  ( -27.50000000000000355, 35.99999999999999289, 3.000000000000000000 ) ) ;
#785 = CARTESIAN_POINT ( 'NONE',  ( 30.00000000000000355, 20.99999999999999645, 3.000000000000000000 ) ) ;
#786 = ORIENTED_EDGE ( 'NONE', *, *, #963, .F. ) ;
#787 = DIRECTION ( 'NONE',  ( 0.000000000000000000, 0.000000000000000000, 1.000000000000000000 ) ) ;
#788 = UNCERTAINTY_MEASURE_WITH_UNIT (LENGTH_MEASURE( 1.000000000000000082E-05 ), #96, 'distance_accuracy_value', 'NONE');
#789 = CARTESIAN_POINT ( 'NONE',  ( -11.00000000000000000, -18.50000000000000000, 3.000000000000000000 ) ) ;
#790 = DIRECTION ( 'NONE',  ( 0.000000000000000000, 0.000000000000000000, 1.000000000000000000 ) ) ;
#791 = ADVANCED_FACE ( 'NONE', ( #85 ), #606, .F. ) ;
#792 = DIRECTION ( 'NONE',  ( 1.000000000000000000, 0.000000000000000000, 0.000000000000000000 ) ) ;
#793 = ORIENTED_EDGE ( 'NONE', *, *, #877, .T. ) ;
#794 = CARTESIAN_POINT ( 'NONE',  ( -6.999999999998833822, -4.824648884073584056E-13, 3.000000000000000000 ) ) ;
#795 = CARTESIAN_POINT ( 'NONE',  ( 30.00000000000000355, 20.99999999999999645, 0.000000000000000000 ) ) ;
#796 = EDGE_CURVE ( 'NONE', #426, #320, #397, .T. ) ;
#797 = CARTESIAN_POINT ( 'NONE',  ( 10.99999999999999645, -21.00000000000000000, 0.000000000000000000 ) ) ;
#798 = VERTEX_POINT ( 'NONE', #873 ) ;
#799 = APPROVAL_DATE_TIME ( #738, #617 ) ;
#800 = CARTESIAN_POINT ( 'NONE',  ( 7.000000000000135003, 4.816076356479553858E-13, 3.000000000000000000 ) ) ;
#801 = EDGE_LOOP ( 'NONE', ( #1148, #101 ) ) ;
#802 = CARTESIAN_POINT ( 'NONE',  ( -10.99999999999999822, -15.50000000000000000, 3.000000000000000000 ) ) ;
#803 = CIRCLE ( 'NONE', #708, 1.500000000000686562 ) ;
#804 = DIRECTION ( 'NONE',  ( -1.000000000000000000, 5.782411586589359611E-16, 0.000000000000000000 ) ) ;
#805 = APPROVAL ( #549, 'UNSPECIFIED' ) ;
#806 = VECTOR ( 'NONE', #543, 1000.000000000000000 ) ;
#807 = CARTESIAN_POINT ( 'NONE',  ( -10.99999999999999645, -21.00000000000000000, 3.000000000000000000 ) ) ;
#808 = ORIENTED_EDGE ( 'NONE', *, *, #486, .F. ) ;
#809 = COORDINATED_UNIVERSAL_TIME_OFFSET ( 5, 30, .AHEAD. ) ;
#810 = DIRECTION ( 'NONE',  ( 1.000000000000000000, 0.000000000000000000, 0.000000000000000000 ) ) ;
#811 = ORIENTED_EDGE ( 'NONE', *, *, #605, .T. ) ;
#812 = PRODUCT_DEFINITION_FORMATION_WITH_SPECIFIED_SOURCE ( 'ANY', '', #544, .NOT_KNOWN. ) ;
#813 = CARTESIAN_POINT ( 'NONE',  ( 1.500000000001940670, -8.500000000000000000, 3.000000000000000000 ) ) ;
#814 = EDGE_CURVE ( 'NONE', #706, #1075, #1147, .T. ) ;
#815 = CYLINDRICAL_SURFACE ( 'NONE', #5, 1.500000000000977440 ) ;
#816 = ORIENTED_EDGE ( 'NONE', *, *, #1021, .T. ) ;
#817 = DATE_AND_TIME ( #716, #137 ) ;
#818 = CARTESIAN_POINT ( 'NONE',  ( 0.000000000000000000, 0.000000000000000000, 3.000000000000000000 ) ) ;
#819 = ORIENTED_EDGE ( 'NONE', *, *, #225, .T. ) ;
#820 = ADVANCED_FACE ( 'NONE', ( #540 ), #343, .F. ) ;
#821 = DIRECTION ( 'NONE',  ( -0.000000000000000000, -0.000000000000000000, -1.000000000000000000 ) ) ;
#822 = ORIENTED_EDGE ( 'NONE', *, *, #509, .T. ) ;
#823 = APPROVAL_ROLE ( '' ) ;
#824 = LINE ( 'NONE', #293, #550 ) ;
#825 = LINE ( 'NONE', #1100, #583 ) ;
#826 = ORIENTED_EDGE ( 'NONE', *, *, #58, .T. ) ;
#827 = AXIS2_PLACEMENT_3D ( 'NONE', #69, #227, #859 ) ;
#828 = AXIS2_PLACEMENT_3D ( 'NONE', #442, #966, #792 ) ;
#829 = FACE_OUTER_BOUND ( 'NONE', #164, .T. ) ;
#830 = ORIENTED_EDGE ( 'NONE', *, *, #107, .F. ) ;
#831 = DIRECTION ( 'NONE',  ( 1.000000000000000000, 0.000000000000000000, 0.000000000000000000 ) ) ;
#832 = CIRCLE ( 'NONE', #154, 1.500000000000001332 ) ;
#833 = DIRECTION ( 'NONE',  ( -0.000000000000000000, -0.000000000000000000, -1.000000000000000000 ) ) ;
#834 = DIRECTION ( 'NONE',  ( -0.000000000000000000, -1.000000000000000000, -0.000000000000000000 ) ) ;
#835 = VERTEX_POINT ( 'NONE', #1052 ) ;
#836 = CIRCLE ( 'NONE', #268, 1.500000000000001332 ) ;
#837 = CIRCLE ( 'NONE', #84, 1.500000000000686562 ) ;
#838 = CARTESIAN_POINT ( 'NONE',  ( -30.00000000000000355, 20.99999999999999289, 3.000000000000000000 ) ) ;
#839 = LINE ( 'NONE', #746, #555 ) ;
#840 = ORIENTED_EDGE ( 'NONE', *, *, #207, .T. ) ;
#841 = DIRECTION ( 'NONE',  ( 1.000000000000000000, 0.000000000000000000, 0.000000000000000000 ) ) ;
#842 = CYLINDRICAL_SURFACE ( 'NONE', #504, 1.500000000000000000 ) ;
#843 = ORIENTED_EDGE ( 'NONE', *, *, #516, .T. ) ;
#844 = DIRECTION ( 'NONE',  ( -0.000000000000000000, -0.000000000000000000, -1.000000000000000000 ) ) ;
#845 = ORIENTED_EDGE ( 'NONE', *, *, #207, .F. ) ;
#846 = VERTEX_POINT ( 'NONE', #358 ) ;
#847 = EDGE_CURVE ( 'NONE', #1111, #498, #249, .T. ) ;
#848 = DIRECTION ( 'NONE',  ( -0.000000000000000000, -0.000000000000000000, -1.000000000000000000 ) ) ;
#849 = ORIENTED_EDGE ( 'NONE', *, *, #647, .F. ) ;
#850 = EDGE_CURVE ( 'NONE', #835, #49, #1057, .T. ) ;
#851 = DIRECTION ( 'NONE',  ( 1.000000000000000000, -5.782411586589359611E-16, 0.000000000000000000 ) ) ;
#852 = CARTESIAN_POINT ( 'NONE',  ( -11.00000000000000000, 20.99999999999999645, 0.000000000000000000 ) ) ;
#853 = APPROVAL ( #196, 'UNSPECIFIED' ) ;
#854 = CARTESIAN_POINT ( 'NONE',  ( 11.00000000000000000, -18.50000000000000000, 3.000000000000000000 ) ) ;
#855 = DIRECTION ( 'NONE',  ( -0.000000000000000000, -0.000000000000000000, -1.000000000000000000 ) ) ;
#856 = DIRECTION ( 'NONE',  ( 1.000000000000000000, 0.000000000000000000, 0.000000000000000000 ) ) ;
#857 = AXIS2_PLACEMENT_3D ( 'NONE', #286, #1079, #201 ) ;
#858 = EDGE_CURVE ( 'NONE', #133, #571, #272, .T. ) ;
#859 = DIRECTION ( 'NONE',  ( 1.000000000000000000, 0.000000000000000000, 0.000000000000000000 ) ) ;
#860 = ORIENTED_EDGE ( 'NONE', *, *, #643, .T. ) ;
#861 = CARTESIAN_POINT ( 'NONE',  ( -10.99999999999999822, -15.50000000000000000, 0.000000000000000000 ) ) ;
#862 = DIRECTION ( 'NONE',  ( 2.312964634635743450E-16, -1.000000000000000000, 0.000000000000000000 ) ) ;
#863 = ORIENTED_EDGE ( 'NONE', *, *, #1124, .T. ) ;
#864 =( GEOMETRIC_REPRESENTATION_CONTEXT ( 3 ) GLOBAL_UNCERTAINTY_ASSIGNED_CONTEXT ( ( #788 ) ) GLOBAL_UNIT_ASSIGNED_CONTEXT ( ( #96, #452, #704 ) ) REPRESENTATION_CONTEXT ( 'NONE', 'WORKASPACE' ) );
#865 = CIRCLE ( 'NONE', #422, 1.500000000000348166 ) ;
#866 = ORIENTED_EDGE ( 'NONE', *, *, #710, .T. ) ;
#867 = CARTESIAN_POINT ( 'NONE',  ( -4.999999999999998224, -15.50000000000000000, 3.000000000000000000 ) ) ;
#868 = CARTESIAN_POINT ( 'NONE',  ( 27.50000000000000711, 35.99999999999999289, 3.000000000000000000 ) ) ;
#869 = EDGE_LOOP ( 'NONE', ( #1006, #781, #6, #952 ) ) ;
#870 = ORIENTED_EDGE ( 'NONE', *, *, #90, .T. ) ;
#871 = LINE ( 'NONE', #432, #585 ) ;
#872 = AXIS2_PLACEMENT_3D ( 'NONE', #854, #235, #851 ) ;
#873 = CARTESIAN_POINT ( 'NONE',  ( -1.500000000000014433, -8.500000000000000000, 0.000000000000000000 ) ) ;
#874 = ORIENTED_EDGE ( 'NONE', *, *, #324, .T. ) ;
#875 = CARTESIAN_POINT ( 'NONE',  ( -27.50000000000000355, 35.99999999999999289, 3.000000000000000000 ) ) ;
#876 = VECTOR ( 'NONE', #780, 1000.000000000000000 ) ;
#877 = EDGE_CURVE ( 'NONE', #1135, #846, #919, .T. ) ;
#878 = DIRECTION ( 'NONE',  ( -0.000000000000000000, -0.000000000000000000, -1.000000000000000000 ) ) ;
#879 = CIRCLE ( 'NONE', #1104, 1.500000000000000000 ) ;
#880 = CARTESIAN_POINT ( 'NONE',  ( -1.500000000000000000, 8.500000000000000000, 3.000000000000000000 ) ) ;
#881 = CARTESIAN_POINT ( 'NONE',  ( 9.632152712959107716E-13, -8.500000000000000000, 3.000000000000000000 ) ) ;
#882 = EDGE_LOOP ( 'NONE', ( #902, #767 ) ) ;
#883 = VECTOR ( 'NONE', #693, 1000.000000000000000 ) ;
#884 = CARTESIAN_POINT ( 'NONE',  ( 27.50000000000000711, 35.99999999999999289, 3.000000000000000000 ) ) ;
#885 = EDGE_CURVE ( 'NONE', #443, #835, #645, .T. ) ;
#886 = DIRECTION ( 'NONE',  ( -0.000000000000000000, -0.000000000000000000, -1.000000000000000000 ) ) ;
#887 = DIRECTION ( 'NONE',  ( 0.000000000000000000, -0.000000000000000000, 1.000000000000000000 ) ) ;
#888 = ORIENTED_EDGE ( 'NONE', *, *, #522, .T. ) ;
#889 = DATE_TIME_ROLE ( 'classification_date' ) ;
#890 = LINE ( 'NONE', #437, #670 ) ;
#891 = CARTESIAN_POINT ( 'NONE',  ( -30.00000000000000355, 20.99999999999999289, 0.000000000000000000 ) ) ;
#892 = CARTESIAN_POINT ( 'NONE',  ( -8.499999999999520384, -4.826485854272306472E-13, 0.000000000000000000 ) ) ;
#893 = DIRECTION ( 'NONE',  ( -1.000000000000000000, 1.387778780781444492E-15, 0.000000000000000000 ) ) ;
#894 = ORIENTED_EDGE ( 'NONE', *, *, #660, .T. ) ;
#895 = DIRECTION ( 'NONE',  ( -2.891205793294679312E-16, -1.000000000000000000, 0.000000000000000000 ) ) ;
#896 = ORIENTED_EDGE ( 'NONE', *, *, #278, .F. ) ;
#897 = ADVANCED_FACE ( 'NONE', ( #829 ), #547, .F. ) ;
#898 = LINE ( 'NONE', #1144, #1025 ) ;
#899 = VECTOR ( 'NONE', #1064, 1000.000000000000000 ) ;
#900 = AXIS2_PLACEMENT_3D ( 'NONE', #984, #13, #612 ) ;
#901 = DIRECTION ( 'NONE',  ( 1.000000000000000000, 0.000000000000000000, 0.000000000000000000 ) ) ;
#902 = ORIENTED_EDGE ( 'NONE', *, *, #336, .F. ) ;
#903 = COORDINATED_UNIVERSAL_TIME_OFFSET ( 5, 30, .AHEAD. ) ;
#904 = EDGE_CURVE ( 'NONE', #495, #1092, #1086, .T. ) ;
#905 = FACE_OUTER_BOUND ( 'NONE', #33, .T. ) ;
#906 = ORIENTED_EDGE ( 'NONE', *, *, #904, .F. ) ;
#907 = DIRECTION ( 'NONE',  ( 0.000000000000000000, 0.000000000000000000, -1.000000000000000000 ) ) ;
#908 = ORIENTED_EDGE ( 'NONE', *, *, #450, .F. ) ;
#909 = DIRECTION ( 'NONE',  ( 0.000000000000000000, 0.000000000000000000, 1.000000000000000000 ) ) ;
#910 = DIRECTION ( 'NONE',  ( 1.000000000000000000, 0.000000000000000000, 0.000000000000000000 ) ) ;
#911 = DIRECTION ( 'NONE',  ( -1.000000000000000000, 0.000000000000000000, 0.000000000000000000 ) ) ;
#912 = VERTEX_POINT ( 'NONE', #720 ) ;
#913 = DIRECTION ( 'NONE',  ( -1.000000000000000000, 0.000000000000000000, 0.000000000000000000 ) ) ;
#914 = ORIENTED_EDGE ( 'NONE', *, *, #969, .T. ) ;
#915 = PERSON_AND_ORGANIZATION_ROLE ( 'design_owner' ) ;
#916 = DIRECTION ( 'NONE',  ( -0.000000000000000000, -0.000000000000000000, -1.000000000000000000 ) ) ;
#917 = CARTESIAN_POINT ( 'NONE',  ( -27.50000000000000355, 35.99999999999999289, 0.000000000000000000 ) ) ;
#918 = ORIENTED_EDGE ( 'NONE', *, *, #602, .F. ) ;
#919 = CIRCLE ( 'NONE', #375, 1.500000000000001332 ) ;
#920 = ADVANCED_BREP_SHAPE_REPRESENTATION ( 'RisingFrame_Default_sldprt', ( #680, #288 ), #864 ) ;
#921 = DIRECTION ( 'NONE',  ( -0.000000000000000000, -0.000000000000000000, -1.000000000000000000 ) ) ;
#922 = DIRECTION ( 'NONE',  ( 2.891205793294678819E-16, 1.000000000000000000, 0.000000000000000000 ) ) ;
#923 = AXIS2_PLACEMENT_3D ( 'NONE', #265, #893, #1134 ) ;
#924 = ORIENTED_EDGE ( 'NONE', *, *, #308, .F. ) ;
#925 = CC_DESIGN_APPROVAL ( #853, ( #812 ) ) ;
#926 = ADVANCED_FACE ( 'NONE', ( #994 ), #194, .F. ) ;
#927 = DIRECTION ( 'NONE',  ( -1.000000000000000000, 0.000000000000000000, 0.000000000000000000 ) ) ;
#928 = DIRECTION ( 'NONE',  ( -0.000000000000000000, -0.000000000000000000, -1.000000000000000000 ) ) ;
#929 = ORIENTED_EDGE ( 'NONE', *, *, #321, .F. ) ;
#930 = CARTESIAN_POINT ( 'NONE',  ( -1.500000000000000000, 8.500000000000000000, 3.000000000000000000 ) ) ;
#931 = ORIENTED_EDGE ( 'NONE', *, *, #605, .F. ) ;
#932 = ADVANCED_FACE ( 'NONE', ( #729 ), #815, .F. ) ;
#933 = PLANE ( 'NONE',  #411 ) ;
#934 = EDGE_CURVE ( 'NONE', #427, #463, #524, .T. ) ;
#935 = EDGE_LOOP ( 'NONE', ( #1127, #382 ) ) ;
#936 = ORIENTED_EDGE ( 'NONE', *, *, #814, .T. ) ;
#937 = CIRCLE ( 'NONE', #622, 1.500000000000686562 ) ;
#938 = DIRECTION ( 'NONE',  ( 0.000000000000000000, 0.000000000000000000, 1.000000000000000000 ) ) ;
#939 = ORIENTED_EDGE ( 'NONE', *, *, #1103, .F. ) ;
#940 = CARTESIAN_POINT ( 'NONE',  ( 0.000000000000000000, 0.000000000000000000, 0.000000000000000000 ) ) ;
#941 = CARTESIAN_POINT ( 'NONE',  ( 5.000000000000001776, -15.49999999999999645, 3.000000000000000000 ) ) ;
#942 = EDGE_CURVE ( 'NONE', #1002, #747, #560, .T. ) ;
#943 = PRODUCT_DEFINITION ( 'UNKNOWN', '', #812, #1125 ) ;
#944 = EDGE_CURVE ( 'NONE', #545, #912, #32, .T. ) ;
#945 = DIRECTION ( 'NONE',  ( 1.000000000000000000, 0.000000000000000000, 0.000000000000000000 ) ) ;
#946 = ORIENTED_EDGE ( 'NONE', *, *, #685, .T. ) ;
#947 = CARTESIAN_POINT ( 'NONE',  ( 11.00000000000000000, -18.50000000000000000, 0.000000000000000000 ) ) ;
#948 = LINE ( 'NONE', #1041, #211 ) ;
#949 = VECTOR ( 'NONE', #979, 1000.000000000000000 ) ;
#950 = VECTOR ( 'NONE', #214, 1000.000000000000000 ) ;
#951 = DIRECTION ( 'NONE',  ( -1.826024711554533174E-16, 1.000000000000000000, 0.000000000000000000 ) ) ;
#952 = ORIENTED_EDGE ( 'NONE', *, *, #75, .T. ) ;
#953 = LINE ( 'NONE', #861, #1121 ) ;
#954 = DIRECTION ( 'NONE',  ( 1.000000000000000000, 0.000000000000000000, 0.000000000000000000 ) ) ;
#955 = ORIENTED_EDGE ( 'NONE', *, *, #177, .T. ) ;
#956 = EDGE_CURVE ( 'NONE', #498, #195, #460, .T. ) ;
#957 = EDGE_LOOP ( 'NONE', ( #1120, #894, #541, #845 ) ) ;
#958 = CARTESIAN_POINT ( 'NONE',  ( 11.00000000000000000, 21.00000000000000000, 0.000000000000000000 ) ) ;
#959 = DIRECTION ( 'NONE',  ( 1.000000000000000000, 1.119176436114069085E-16, -0.000000000000000000 ) ) ;
#960 = ORIENTED_EDGE ( 'NONE', *, *, #259, .T. ) ;
#961 = ADVANCED_FACE ( 'NONE', ( #500 ), #248, .F. ) ;
#962 = CARTESIAN_POINT ( 'NONE',  ( 11.00000000000000000, -15.49999999999999645, 3.000000000000000000 ) ) ;
#963 = EDGE_CURVE ( 'NONE', #378, #136, #244, .T. ) ;
#964 = DIRECTION ( 'NONE',  ( 0.000000000000000000, 1.000000000000000000, 0.000000000000000000 ) ) ;
#965 = CIRCLE ( 'NONE', #409, 1.500000000000348166 ) ;
#966 = DIRECTION ( 'NONE',  ( 0.000000000000000000, 0.000000000000000000, 1.000000000000000000 ) ) ;
#967 = EDGE_LOOP ( 'NONE', ( #874, #811, #482, #371 ) ) ;
#968 = DIRECTION ( 'NONE',  ( -0.000000000000000000, -0.000000000000000000, -1.000000000000000000 ) ) ;
#969 = EDGE_CURVE ( 'NONE', #1084, #367, #689, .T. ) ;
#970 = VECTOR ( 'NONE', #821, 1000.000000000000000 ) ;
#971 = DIRECTION ( 'NONE',  ( -0.000000000000000000, -0.000000000000000000, -1.000000000000000000 ) ) ;
#972 = CIRCLE ( 'NONE', #31, 1.500000000000000000 ) ;
#973 = LINE ( 'NONE', #337, #1011 ) ;
#974 = ORIENTED_EDGE ( 'NONE', *, *, #744, .F. ) ;
#975 = VECTOR ( 'NONE', #682, 1000.000000000000000 ) ;
#976 = DIRECTION ( 'NONE',  ( 0.000000000000000000, 0.000000000000000000, 1.000000000000000000 ) ) ;
#977 = DIRECTION ( 'NONE',  ( 1.000000000000000000, 0.000000000000000000, 0.000000000000000000 ) ) ;
#978 = DIRECTION ( 'NONE',  ( -0.000000000000000000, -0.000000000000000000, -1.000000000000000000 ) ) ;
#979 = DIRECTION ( 'NONE',  ( 1.000000000000000000, -1.826024711554533420E-16, -0.000000000000000000 ) ) ;
#980 = ORIENTED_EDGE ( 'NONE', *, *, #723, .F. ) ;
#981 = COORDINATED_UNIVERSAL_TIME_OFFSET ( 5, 30, .AHEAD. ) ;
#982 = APPLICATION_CONTEXT ( 'configuration controlled 3d designs of mechanical parts and assemblies' ) ;
#983 = EDGE_CURVE ( 'NONE', #443, #133, #1122, .T. ) ;
#984 = CARTESIAN_POINT ( 'NONE',  ( 8.500000000000483169, 4.816076356479553858E-13, 0.000000000000000000 ) ) ;
#985 = VERTEX_POINT ( 'NONE', #867 ) ;
#986 = DIRECTION ( 'NONE',  ( -1.000000000000000000, 1.826024711554533174E-16, 0.000000000000000000 ) ) ;
#987 = CARTESIAN_POINT ( 'NONE',  ( 29.00000000000000711, 35.99999999999999289, 3.000000000000000000 ) ) ;
#988 = DIRECTION ( 'NONE',  ( 1.000000000000000000, 1.826024711554533420E-16, -0.000000000000000000 ) ) ;
#989 = ORIENTED_EDGE ( 'NONE', *, *, #139, .F. ) ;
#990 = PERSON_AND_ORGANIZATION_ROLE ( 'classification_officer' ) ;
#991 = CARTESIAN_POINT ( 'NONE',  ( -6.999999999998833822, -4.824648884073584056E-13, 0.000000000000000000 ) ) ;
#992 = ORIENTED_EDGE ( 'NONE', *, *, #578, .F. ) ;
#993 = VECTOR ( 'NONE', #921, 1000.000000000000000 ) ;
#994 = FACE_OUTER_BOUND ( 'NONE', #1016, .T. ) ;
#995 = ORIENTED_EDGE ( 'NONE', *, *, #192, .T. ) ;
#996 = CARTESIAN_POINT ( 'NONE',  ( 9.632152712959107716E-13, -8.500000000000000000, 3.000000000000000000 ) ) ;
#997 = FACE_OUTER_BOUND ( 'NONE', #510, .T. ) ;
#998 = VERTEX_POINT ( 'NONE', #59 ) ;
#999 = APPROVAL_PERSON_ORGANIZATION ( #189, #617, #823 ) ;
#1000 = CC_DESIGN_DATE_AND_TIME_ASSIGNMENT ( #817, #889, ( #124 ) ) ;
#1001 = DIRECTION ( 'NONE',  ( 1.000000000000000000, 1.826024711554533420E-16, -0.000000000000000000 ) ) ;
#1002 = VERTEX_POINT ( 'NONE', #415 ) ;
#1003 = PERSON_AND_ORGANIZATION_ROLE ( 'creator' ) ;
#1004 = CARTESIAN_POINT ( 'NONE',  ( 1.500000000000000000, 8.500000000000000000, 3.000000000000000000 ) ) ;
#1005 = DIRECTION ( 'NONE',  ( 1.000000000000000000, 0.000000000000000000, 0.000000000000000000 ) ) ;
#1006 = ORIENTED_EDGE ( 'NONE', *, *, #1095, .T. ) ;
#1007 = LINE ( 'NONE', #732, #398 ) ;
#1008 = PLANE ( 'NONE',  #333 ) ;
#1009 = ORIENTED_EDGE ( 'NONE', *, *, #814, .F. ) ;
#1010 = EDGE_CURVE ( 'NONE', #715, #141, #837, .T. ) ;
#1011 = VECTOR ( 'NONE', #446, 1000.000000000000000 ) ;
#1012 = CIRCLE ( 'NONE', #900, 1.500000000000348166 ) ;
#1013 = CARTESIAN_POINT ( 'NONE',  ( 11.00000000000000000, -15.49999999999999645, 3.000000000000000000 ) ) ;
#1014 = DIRECTION ( 'NONE',  ( 0.000000000000000000, -0.000000000000000000, -1.000000000000000000 ) ) ;
#1015 = ADVANCED_FACE ( 'NONE', ( #593 ), #604, .F. ) ;
#1016 = EDGE_LOOP ( 'NONE', ( #1098, #470, #53, #669 ) ) ;
#1017 = CIRCLE ( 'NONE', #39, 1.500000000000977440 ) ;
#1018 = CARTESIAN_POINT ( 'NONE',  ( 0.000000000000000000, 0.000000000000000000, 0.000000000000000000 ) ) ;
#1019 = VERTEX_POINT ( 'NONE', #779 ) ;
#1020 = EDGE_CURVE ( 'NONE', #718, #98, #419, .T. ) ;
#1021 = EDGE_CURVE ( 'NONE', #741, #92, #228, .T. ) ;
#1022 = DIRECTION ( 'NONE',  ( 1.000000000000000000, 0.000000000000000000, 0.000000000000000000 ) ) ;
#1023 = ORIENTED_EDGE ( 'NONE', *, *, #435, .F. ) ;
#1024 = AXIS2_PLACEMENT_3D ( 'NONE', #57, #687, #945 ) ;
#1025 = VECTOR ( 'NONE', #712, 1000.000000000000000 ) ;
#1026 = ORIENTED_EDGE ( 'NONE', *, *, #1063, .F. ) ;
#1027 = VECTOR ( 'NONE', #1001, 1000.000000000000000 ) ;
#1028 = CARTESIAN_POINT ( 'NONE',  ( -30.00000000000000355, 50.99999999999999289, 0.000000000000000000 ) ) ;
#1029 = ORIENTED_EDGE ( 'NONE', *, *, #686, .T. ) ;
#1030 = PLANE ( 'NONE',  #872 ) ;
#1031 = AXIS2_PLACEMENT_3D ( 'NONE', #77, #964, #1032 ) ;
#1032 = DIRECTION ( 'NONE',  ( 0.000000000000000000, -0.000000000000000000, 1.000000000000000000 ) ) ;
#1033 = DIRECTION ( 'NONE',  ( 0.000000000000000000, 0.000000000000000000, 1.000000000000000000 ) ) ;
#1034 = ORIENTED_EDGE ( 'NONE', *, *, #686, .F. ) ;
#1035 = ORIENTED_EDGE ( 'NONE', *, *, #192, .F. ) ;
#1036 = CARTESIAN_POINT ( 'NONE',  ( -10.99999999999999645, -21.00000000000000000, 3.000000000000000000 ) ) ;
#1037 = CARTESIAN_POINT ( 'NONE',  ( -27.50000000000000355, 35.99999999999999289, 3.000000000000000000 ) ) ;
#1038 = ORIENTED_EDGE ( 'NONE', *, *, #1150, .T. ) ;
#1039 = ORIENTED_EDGE ( 'NONE', *, *, #1095, .F. ) ;
#1040 = CARTESIAN_POINT ( 'NONE',  ( 29.99999999999999645, 50.99999999999999289, 0.000000000000000000 ) ) ;
#1041 = CARTESIAN_POINT ( 'NONE',  ( 5.000000000000001776, -15.49999999999999645, 3.000000000000000000 ) ) ;
#1042 = ORIENTED_EDGE ( 'NONE', *, *, #158, .F. ) ;
#1043 = AXIS2_PLACEMENT_3D ( 'NONE', #105, #462, #20 ) ;
#1044 = PLANE ( 'NONE',  #372 ) ;
#1045 = CARTESIAN_POINT ( 'NONE',  ( -30.00000000000000355, 20.99999999999999289, 3.000000000000000000 ) ) ;
#1046 = CARTESIAN_POINT ( 'NONE',  ( -29.00000000000000355, 35.99999999999999289, 3.000000000000000000 ) ) ;
#1047 = VERTEX_POINT ( 'NONE', #958 ) ;
#1048 = ADVANCED_FACE ( 'NONE', ( #330 ), #609, .F. ) ;
#1049 = LINE ( 'NONE', #603, #727 ) ;
#1050 = CARTESIAN_POINT ( 'NONE',  ( 30.00000000000000355, 20.99999999999999645, 3.000000000000000000 ) ) ;
#1051 = EDGE_CURVE ( 'NONE', #741, #998, #1128, .T. ) ;
#1052 = CARTESIAN_POINT ( 'NONE',  ( -11.00000000000000000, 20.99999999999999645, 3.000000000000000000 ) ) ;
#1053 = EDGE_LOOP ( 'NONE', ( #995, #200 ) ) ;
#1054 = CARTESIAN_POINT ( 'NONE',  ( 29.99999999999999645, 50.99999999999999289, 3.000000000000000000 ) ) ;
#1055 = PLANE ( 'NONE',  #472 ) ;
#1056 = VECTOR ( 'NONE', #1115, 1000.000000000000000 ) ;
#1057 = LINE ( 'NONE', #533, #765 ) ;
#1058 = ORIENTED_EDGE ( 'NONE', *, *, #647, .T. ) ;
#1059 = DIRECTION ( 'NONE',  ( 0.000000000000000000, -0.000000000000000000, -1.000000000000000000 ) ) ;
#1060 = AXIS2_PLACEMENT_3D ( 'NONE', #108, #279, #464 ) ;
#1061 = CARTESIAN_POINT ( 'NONE',  ( -10.00000000000020606, -4.826485854272306472E-13, 3.000000000000000000 ) ) ;
#1062 = AXIS2_PLACEMENT_3D ( 'NONE', #1018, #556, #910 ) ;
#1063 = EDGE_CURVE ( 'NONE', #156, #741, #517, .T. ) ;
#1064 = DIRECTION ( 'NONE',  ( -0.000000000000000000, -1.000000000000000000, -0.000000000000000000 ) ) ;
#1065 = ORIENTED_EDGE ( 'NONE', *, *, #58, .F. ) ;
#1066 = CALENDAR_DATE ( 2026, 29, 8 ) ;
#1067 = LOCAL_TIME ( 18, 55, 33.00000000000000000, #981 ) ;
#1068 = EDGE_CURVE ( 'NONE', #175, #628, #871, .T. ) ;
#1069 = CIRCLE ( 'NONE', #772, 1.500000000000977440 ) ;
#1070 = CARTESIAN_POINT ( 'NONE',  ( 29.00000000000000711, 35.99999999999999289, 0.000000000000000000 ) ) ;
#1071 = ORIENTED_EDGE ( 'NONE', *, *, #759, .F. ) ;
#1072 = FACE_OUTER_BOUND ( 'NONE', #1139, .T. ) ;
#1073 = CARTESIAN_POINT ( 'NONE',  ( 0.000000000000000000, 0.000000000000000000, 3.000000000000000000 ) ) ;
#1074 = CARTESIAN_POINT ( 'NONE',  ( 0.000000000000000000, 0.000000000000000000, 3.000000000000000000 ) ) ;
#1075 = VERTEX_POINT ( 'NONE', #947 ) ;
#1076 = COORDINATED_UNIVERSAL_TIME_OFFSET ( 5, 30, .AHEAD. ) ;
#1077 = CARTESIAN_POINT ( 'NONE',  ( 0.000000000000000000, 8.500000000000000000, 0.000000000000000000 ) ) ;
#1078 = ORIENTED_EDGE ( 'NONE', *, *, #364, .T. ) ;
#1079 = DIRECTION ( 'NONE',  ( 0.000000000000000000, 0.000000000000000000, 1.000000000000000000 ) ) ;
#1080 = ORIENTED_EDGE ( 'NONE', *, *, #983, .T. ) ;
#1081 = PERSON_AND_ORGANIZATION ( #153, #492 ) ;
#1082 = CARTESIAN_POINT ( 'NONE',  ( 27.50000000000000711, 35.99999999999999289, 3.000000000000000000 ) ) ;
#1083 = CARTESIAN_POINT ( 'NONE',  ( 11.00000000000000000, 21.00000000000000000, 3.000000000000000000 ) ) ;
#1084 = VERTEX_POINT ( 'NONE', #1050 ) ;
#1085 = AXIS2_PLACEMENT_3D ( 'NONE', #875, #1143, #339 ) ;
#1086 = LINE ( 'NONE', #637, #970 ) ;
#1087 = VERTEX_POINT ( 'NONE', #232 ) ;
#1088 = APPLICATION_PROTOCOL_DEFINITION ( 'international standard', 'config_control_design', 1994, #261 ) ;
#1089 = CARTESIAN_POINT ( 'NONE',  ( 4.000000000000000000, 4.898587196589412829E-16, 3.000000000000000000 ) ) ;
#1090 = CARTESIAN_POINT ( 'NONE',  ( -1.500000000000014433, -8.500000000000000000, 3.000000000000000000 ) ) ;
#1091 = CC_DESIGN_APPROVAL ( #617, ( #124 ) ) ;
#1092 = VERTEX_POINT ( 'NONE', #1040 ) ;
#1093 = VECTOR ( 'NONE', #149, 1000.000000000000000 ) ;
#1094 = DATE_AND_TIME ( #707, #1067 ) ;
#1095 = EDGE_CURVE ( 'NONE', #210, #332, #953, .T. ) ;
#1096 = FACE_OUTER_BOUND ( 'NONE', #216, .T. ) ;
#1097 = FACE_OUTER_BOUND ( 'NONE', #592, .T. ) ;
#1098 = ORIENTED_EDGE ( 'NONE', *, *, #742, .T. ) ;
#1099 = CARTESIAN_POINT ( 'NONE',  ( 11.00000000000000000, 21.00000000000000000, 3.000000000000000000 ) ) ;
#1100 = CARTESIAN_POINT ( 'NONE',  ( -26.00000000000000355, 35.99999999999999289, 3.000000000000000000 ) ) ;
#1101 = ORIENTED_EDGE ( 'NONE', *, *, #559, .F. ) ;
#1102 = VECTOR ( 'NONE', #146, 1000.000000000000000 ) ;
#1103 = EDGE_CURVE ( 'NONE', #463, #607, #316, .T. ) ;
#1104 = AXIS2_PLACEMENT_3D ( 'NONE', #627, #170, #269 ) ;
#1105 = DIRECTION ( 'NONE',  ( 0.000000000000000000, 1.000000000000000000, 0.000000000000000000 ) ) ;
#1106 = DIRECTION ( 'NONE',  ( 1.000000000000000000, 0.000000000000000000, 0.000000000000000000 ) ) ;
#1107 = ORIENTED_EDGE ( 'NONE', *, *, #942, .F. ) ;
#1108 = EDGE_CURVE ( 'NONE', #116, #798, #1069, .T. ) ;
#1109 = DIRECTION ( 'NONE',  ( 1.000000000000000000, 0.000000000000000000, 0.000000000000000000 ) ) ;
#1110 = ORIENTED_EDGE ( 'NONE', *, *, #1103, .T. ) ;
#1111 = VERTEX_POINT ( 'NONE', #588 ) ;
#1112 = DIRECTION ( 'NONE',  ( 1.119176436114069085E-16, -1.000000000000000000, 0.000000000000000000 ) ) ;
#1113 = ORIENTED_EDGE ( 'NONE', *, *, #1051, .T. ) ;
#1114 = AXIS2_PLACEMENT_3D ( 'NONE', #54, #951, #431 ) ;
#1115 = DIRECTION ( 'NONE',  ( 1.000000000000000000, 0.000000000000000000, 0.000000000000000000 ) ) ;
#1116 = EDGE_LOOP ( 'NONE', ( #315, #755 ) ) ;
#1117 = VECTOR ( 'NONE', #705, 1000.000000000000000 ) ;
#1118 = DIRECTION ( 'NONE',  ( -0.000000000000000000, -0.000000000000000000, -1.000000000000000000 ) ) ;
#1119 = ORIENTED_EDGE ( 'NONE', *, *, #944, .T. ) ;
#1120 = ORIENTED_EDGE ( 'NONE', *, *, #259, .F. ) ;
#1121 = VECTOR ( 'NONE', #525, 1000.000000000000000 ) ;
#1122 = LINE ( 'NONE', #1045, #438 ) ;
#1123 = FACE_OUTER_BOUND ( 'NONE', #144, .T. ) ;
#1124 = EDGE_CURVE ( 'NONE', #912, #184, #530, .T. ) ;
#1125 = DESIGN_CONTEXT ( 'detailed design', #261, 'design' ) ;
#1126 = FACE_BOUND ( 'NONE', #1116, .T. ) ;
#1127 = ORIENTED_EDGE ( 'NONE', *, *, #126, .F. ) ;
#1128 = LINE ( 'NONE', #599, #883 ) ;
#1129 = LINE ( 'NONE', #61, #213 ) ;
#1130 = ORIENTED_EDGE ( 'NONE', *, *, #467, .F. ) ;
#1131 = FACE_BOUND ( 'NONE', #291, .T. ) ;
#1132 = AXIS2_PLACEMENT_3D ( 'NONE', #254, #971, #95 ) ;
#1133 = DIRECTION ( 'NONE',  ( 1.000000000000000000, 0.000000000000000000, 0.000000000000000000 ) ) ;
#1134 = DIRECTION ( 'NONE',  ( -1.387778780781444492E-15, -1.000000000000000000, 0.000000000000000000 ) ) ;
#1135 = VERTEX_POINT ( 'NONE', #987 ) ;
#1136 = ADVANCED_FACE ( 'NONE', ( #532 ), #713, .F. ) ;
#1137 = CIRCLE ( 'NONE', #134, 4.000000000000000000 ) ;
#1138 = EDGE_CURVE ( 'NONE', #299, #619, #937, .T. ) ;
#1139 = EDGE_LOOP ( 'NONE', ( #218, #152, #650, #929 ) ) ;
#1140 = CARTESIAN_POINT ( 'NONE',  ( 0.000000000000000000, 0.000000000000000000, 3.000000000000000000 ) ) ;
#1141 = CARTESIAN_POINT ( 'NONE',  ( -29.00000000000000355, 35.99999999999999289, 0.000000000000000000 ) ) ;
#1142 = ORIENTED_EDGE ( 'NONE', *, *, #1138, .T. ) ;
#1143 = DIRECTION ( 'NONE',  ( -0.000000000000000000, -0.000000000000000000, -1.000000000000000000 ) ) ;
#1144 = CARTESIAN_POINT ( 'NONE',  ( 10.00000000000083134, 4.817913326678274254E-13, 3.000000000000000000 ) ) ;
#1145 = CARTESIAN_POINT ( 'NONE',  ( -4.999999999999998224, -15.50000000000000000, 3.000000000000000000 ) ) ;
#1146 = EDGE_CURVE ( 'NONE', #985, #332, #624, .T. ) ;
#1147 = LINE ( 'NONE', #797, #876 ) ;
#1148 = ORIENTED_EDGE ( 'NONE', *, *, #356, .T. ) ;
#1149 = LINE ( 'NONE', #800, #597 ) ;
#1150 = EDGE_CURVE ( 'NONE', #1075, #175, #186, .T. ) ;
#1151 = DIRECTION ( 'NONE',  ( 1.000000000000000000, -1.826024711554533420E-16, -0.000000000000000000 ) ) ;
ENDSEC;
END-ISO-10303-21;
