ISO-10303-21;
HEADER;
FILE_DESCRIPTION (( 'STEP AP203' ),
    '1' );
FILE_NAME ('Teeth_Default_sldprt.STEP',
    '2026-08-29T13:25:34',
    ( '' ),
    ( '' ),
    'SwSTEP 2.0',
    'SolidWorks 2020',
    '' );
FILE_SCHEMA (( 'CONFIG_CONTROL_DESIGN' ));
ENDSEC;

DATA;
#1 = CARTESIAN_POINT ( 'NONE',  ( 0.000000000000000000, 15.00000000000000000, 50.00000000000000000 ) ) ;
#2 = SHAPE_DEFINITION_REPRESENTATION ( #210, #7 ) ;
#3 = AXIS2_PLACEMENT_3D ( 'NONE', #102, #211, #231 ) ;
#4 = CC_DESIGN_PERSON_AND_ORGANIZATION_ASSIGNMENT ( #117, #98, ( #150 ) ) ;
#5 = VECTOR ( 'NONE', #194, 1000.000000000000000 ) ;
#6 = AXIS2_PLACEMENT_3D ( 'NONE', #92, #60, #201 ) ;
#7 = ADVANCED_BREP_SHAPE_REPRESENTATION ( 'Teeth_Default_sldprt', ( #33, #112 ), #46 ) ;
#8 = LINE ( 'NONE', #230, #35 ) ;
#9 = CC_DESIGN_PERSON_AND_ORGANIZATION_ASSIGNMENT ( #115, #207, ( #150 ) ) ;
#10 = CARTESIAN_POINT ( 'NONE',  ( 3.234299287410931534, 15.00000000000000178, 0.000000000000000000 ) ) ;
#11 = PRODUCT_RELATED_PRODUCT_CATEGORY ( 'detail', '', ( #73 ) ) ;
#12 = CARTESIAN_POINT ( 'NONE',  ( 0.000000000000000000, 0.000000000000000000, 50.00000000000000000 ) ) ;
#13 = LINE ( 'NONE', #88, #169 ) ;
#14 = CARTESIAN_POINT ( 'NONE',  ( 0.000000000000000000, 0.000000000000000000, 0.000000000000000000 ) ) ;
#15 = ORIENTED_EDGE ( 'NONE', *, *, #55, .F. ) ;
#16 = LOCAL_TIME ( 18, 55, 34.00000000000000000, #129 ) ;
#17 = PLANE ( 'NONE',  #67 ) ;
#18 = EDGE_CURVE ( 'NONE', #226, #89, #34, .T. ) ;
#19 = ORIENTED_EDGE ( 'NONE', *, *, #171, .T. ) ;
#20 = DATE_AND_TIME ( #26, #70 ) ;
#21 = FACE_OUTER_BOUND ( 'NONE', #76, .T. ) ;
#22 = PERSON_AND_ORGANIZATION ( #205, #190 ) ;
#23 = VERTEX_POINT ( 'NONE', #163 ) ;
#24 = EDGE_CURVE ( 'NONE', #89, #203, #111, .T. ) ;
#25 = CALENDAR_DATE ( 2026, 29, 8 ) ;
#26 = CALENDAR_DATE ( 2026, 29, 8 ) ;
#27 = EDGE_LOOP ( 'NONE', ( #133, #32, #178, #214 ) ) ;
#28 = VECTOR ( 'NONE', #97, 1000.000000000000000 ) ;
#29 = DIRECTION ( 'NONE',  ( 1.000000000000000000, 0.000000000000000000, 0.000000000000000000 ) ) ;
#30 = DIRECTION ( 'NONE',  ( 0.000000000000000000, 0.000000000000000000, 1.000000000000000000 ) ) ;
#31 = ADVANCED_FACE ( 'NONE', ( #108 ), #57, .F. ) ;
#32 = ORIENTED_EDGE ( 'NONE', *, *, #191, .F. ) ;
#33 = MANIFOLD_SOLID_BREP ( 'Boss-Extrude1', #101 ) ;
#34 = LINE ( 'NONE', #219, #233 ) ;
#35 = VECTOR ( 'NONE', #86, 1000.000000000000000 ) ;
#36 = LINE ( 'NONE', #181, #149 ) ;
#37 = CARTESIAN_POINT ( 'NONE',  ( 0.000000000000000000, 15.00000000000000000, 50.00000000000000000 ) ) ;
#38 = COORDINATED_UNIVERSAL_TIME_OFFSET ( 5, 30, .AHEAD. ) ;
#39 = EDGE_CURVE ( 'NONE', #23, #226, #180, .T. ) ;
#40 = ORIENTED_EDGE ( 'NONE', *, *, #18, .F. ) ;
#41 = APPROVAL_DATE_TIME ( #95, #196 ) ;
#42 = CC_DESIGN_SECURITY_CLASSIFICATION ( #158, ( #150 ) ) ;
#43 = PERSON_AND_ORGANIZATION_ROLE ( 'design_owner' ) ;
#44 = VERTEX_POINT ( 'NONE', #156 ) ;
#45 = PERSON_AND_ORGANIZATION ( #205, #190 ) ;
#46 =( GEOMETRIC_REPRESENTATION_CONTEXT ( 3 ) GLOBAL_UNCERTAINTY_ASSIGNED_CONTEXT ( ( #170 ) ) GLOBAL_UNIT_ASSIGNED_CONTEXT ( ( #232, #176, #103 ) ) REPRESENTATION_CONTEXT ( 'NONE', 'WORKASPACE' ) );
#47 = CC_DESIGN_DATE_AND_TIME_ASSIGNMENT ( #202, #68, ( #164 ) ) ;
#48 = ADVANCED_FACE ( 'NONE', ( #114 ), #17, .F. ) ;
#49 = CARTESIAN_POINT ( 'NONE',  ( 3.234299287410931534, 15.00000000000000178, 50.00000000000000000 ) ) ;
#50 = PLANE ( 'NONE',  #3 ) ;
#51 = VECTOR ( 'NONE', #71, 1000.000000000000000 ) ;
#52 = PLANE ( 'NONE',  #107 ) ;
#53 = DIRECTION ( 'NONE',  ( -0.4754077612449050805, 0.8797655713587041459, 0.000000000000000000 ) ) ;
#54 = CC_DESIGN_APPROVAL ( #100, ( #150 ) ) ;
#55 = EDGE_CURVE ( 'NONE', #235, #216, #126, .T. ) ;
#56 = EDGE_LOOP ( 'NONE', ( #90, #189, #199, #87 ) ) ;
#57 = PLANE ( 'NONE',  #6 ) ;
#58 = VERTEX_POINT ( 'NONE', #200 ) ;
#59 = LOCAL_TIME ( 18, 55, 34.00000000000000000, #38 ) ;
#60 = DIRECTION ( 'NONE',  ( 0.000000000000000000, 0.000000000000000000, 1.000000000000000000 ) ) ;
#61 = PERSON_AND_ORGANIZATION_ROLE ( 'creator' ) ;
#62 = EDGE_CURVE ( 'NONE', #44, #235, #36, .T. ) ;
#63 = PLANE ( 'NONE',  #218 ) ;
#64 = CALENDAR_DATE ( 2026, 29, 8 ) ;
#65 = ORIENTED_EDGE ( 'NONE', *, *, #62, .T. ) ;
#66 = ORIENTED_EDGE ( 'NONE', *, *, #69, .F. ) ;
#67 = AXIS2_PLACEMENT_3D ( 'NONE', #144, #141, #91 ) ;
#68 = DATE_TIME_ROLE ( 'creation_date' ) ;
#69 = EDGE_CURVE ( 'NONE', #23, #58, #236, .T. ) ;
#70 = LOCAL_TIME ( 18, 55, 34.00000000000000000, #206 ) ;
#71 = DIRECTION ( 'NONE',  ( -1.000000000000000000, -5.363521807425124974E-16, 0.000000000000000000 ) ) ;
#72 = VECTOR ( 'NONE', #183, 1000.000000000000000 ) ;
#73 = PRODUCT ( 'Teeth_Default_sldprt', 'Teeth_Default_sldprt', '', ( #81 ) ) ;
#74 = DIRECTION ( 'NONE',  ( 1.000000000000000000, 0.000000000000000000, -0.000000000000000000 ) ) ;
#75 = CARTESIAN_POINT ( 'NONE',  ( 11.33999999999999986, 0.000000000000000000, 50.00000000000000000 ) ) ;
#76 = EDGE_LOOP ( 'NONE', ( #116, #40, #204, #143 ) ) ;
#77 = CARTESIAN_POINT ( 'NONE',  ( 3.234299287410931534, 15.00000000000000178, 50.00000000000000000 ) ) ;
#78 = ORIENTED_EDGE ( 'NONE', *, *, #55, .T. ) ;
#79 = DATE_AND_TIME ( #25, #109 ) ;
#80 = DIRECTION ( 'NONE',  ( 1.000000000000000000, 0.000000000000000000, -0.000000000000000000 ) ) ;
#81 = MECHANICAL_CONTEXT ( 'NONE', #217, 'mechanical' ) ;
#82 = COORDINATED_UNIVERSAL_TIME_OFFSET ( 5, 30, .AHEAD. ) ;
#83 = CC_DESIGN_PERSON_AND_ORGANIZATION_ASSIGNMENT ( #237, #43, ( #73 ) ) ;
#84 = DESIGN_CONTEXT ( 'detailed design', #229, 'design' ) ;
#85 = DIRECTION ( 'NONE',  ( -0.000000000000000000, -0.000000000000000000, -1.000000000000000000 ) ) ;
#86 = DIRECTION ( 'NONE',  ( 0.000000000000000000, -1.000000000000000000, 0.000000000000000000 ) ) ;
#87 = ORIENTED_EDGE ( 'NONE', *, *, #18, .T. ) ;
#88 = CARTESIAN_POINT ( 'NONE',  ( 11.33999999999999986, 0.000000000000000000, 50.00000000000000000 ) ) ;
#89 = VERTEX_POINT ( 'NONE', #234 ) ;
#90 = ORIENTED_EDGE ( 'NONE', *, *, #24, .T. ) ;
#91 = DIRECTION ( 'NONE',  ( 1.000000000000000000, 5.363521807425124974E-16, 0.000000000000000000 ) ) ;
#92 = CARTESIAN_POINT ( 'NONE',  ( 0.000000000000000000, 0.000000000000000000, 0.000000000000000000 ) ) ;
#93 = APPROVAL_STATUS ( 'not_yet_approved' ) ;
#94 = PLANE ( 'NONE',  #153 ) ;
#95 = DATE_AND_TIME ( #224, #16 ) ;
#96 = APPROVAL_PERSON_ORGANIZATION ( #165, #100, #135 ) ;
#97 = DIRECTION ( 'NONE',  ( 0.000000000000000000, -1.000000000000000000, 0.000000000000000000 ) ) ;
#98 = PERSON_AND_ORGANIZATION_ROLE ( 'design_supplier' ) ;
#99 = PERSON_AND_ORGANIZATION_ROLE ( 'classification_officer' ) ;
#100 = APPROVAL ( #132, 'UNSPECIFIED' ) ;
#101 = CLOSED_SHELL ( 'NONE', ( #48, #104, #179, #137, #127, #31 ) ) ;
#102 = CARTESIAN_POINT ( 'NONE',  ( 0.000000000000000000, 0.000000000000000000, 50.00000000000000000 ) ) ;
#103 =( NAMED_UNIT ( * ) SI_UNIT ( $, .STERADIAN. ) SOLID_ANGLE_UNIT ( ) );
#104 = ADVANCED_FACE ( 'NONE', ( #21 ), #94, .F. ) ;
#105 = DIRECTION ( 'NONE',  ( 1.000000000000000000, 0.000000000000000000, 0.000000000000000000 ) ) ;
#106 = CC_DESIGN_PERSON_AND_ORGANIZATION_ASSIGNMENT ( #45, #61, ( #164 ) ) ;
#107 = AXIS2_PLACEMENT_3D ( 'NONE', #75, #120, #174 ) ;
#108 = FACE_OUTER_BOUND ( 'NONE', #27, .T. ) ;
#109 = LOCAL_TIME ( 18, 55, 34.00000000000000000, #222 ) ;
#110 = EDGE_LOOP ( 'NONE', ( #160, #15, #215, #19 ) ) ;
#111 = LINE ( 'NONE', #14, #157 ) ;
#112 = AXIS2_PLACEMENT_3D ( 'NONE', #122, #30, #105 ) ;
#113 = ORIENTED_EDGE ( 'NONE', *, *, #142, .F. ) ;
#114 = FACE_OUTER_BOUND ( 'NONE', #223, .T. ) ;
#115 = PERSON_AND_ORGANIZATION ( #205, #190 ) ;
#116 = ORIENTED_EDGE ( 'NONE', *, *, #151, .T. ) ;
#117 = PERSON_AND_ORGANIZATION ( #205, #190 ) ;
#118 = DATE_AND_TIME ( #162, #59 ) ;
#119 = CC_DESIGN_DATE_AND_TIME_ASSIGNMENT ( #20, #182, ( #158 ) ) ;
#120 = DIRECTION ( 'NONE',  ( -0.8797655713587042570, -0.4754077612449050805, 0.000000000000000000 ) ) ;
#121 = ORIENTED_EDGE ( 'NONE', *, *, #39, .T. ) ;
#122 = CARTESIAN_POINT ( 'NONE',  ( 0.000000000000000000, 0.000000000000000000, 0.000000000000000000 ) ) ;
#123 = LINE ( 'NONE', #228, #51 ) ;
#124 = LINE ( 'NONE', #175, #130 ) ;
#125 = DIRECTION ( 'NONE',  ( 1.000000000000000000, 0.000000000000000000, 0.000000000000000000 ) ) ;
#126 = LINE ( 'NONE', #77, #192 ) ;
#127 = ADVANCED_FACE ( 'NONE', ( #221 ), #63, .T. ) ;
#128 = DIRECTION ( 'NONE',  ( -0.000000000000000000, -0.000000000000000000, -1.000000000000000000 ) ) ;
#129 = COORDINATED_UNIVERSAL_TIME_OFFSET ( 5, 30, .AHEAD. ) ;
#130 = VECTOR ( 'NONE', #29, 1000.000000000000000 ) ;
#131 = EDGE_LOOP ( 'NONE', ( #172, #121, #166, #65 ) ) ;
#132 = APPROVAL_STATUS ( 'not_yet_approved' ) ;
#133 = ORIENTED_EDGE ( 'NONE', *, *, #209, .F. ) ;
#134 = CC_DESIGN_APPROVAL ( #188, ( #164 ) ) ;
#135 = APPROVAL_ROLE ( '' ) ;
#136 = VECTOR ( 'NONE', #53, 1000.000000000000227 ) ;
#137 = ADVANCED_FACE ( 'NONE', ( #155 ), #52, .F. ) ;
#138 = CARTESIAN_POINT ( 'NONE',  ( 0.000000000000000000, 0.000000000000000000, 50.00000000000000000 ) ) ;
#139 = CARTESIAN_POINT ( 'NONE',  ( 11.33999999999999986, 0.000000000000000000, 0.000000000000000000 ) ) ;
#140 = CC_DESIGN_APPROVAL ( #196, ( #158 ) ) ;
#141 = DIRECTION ( 'NONE',  ( 5.363521807425124974E-16, -1.000000000000000000, 0.000000000000000000 ) ) ;
#142 = EDGE_CURVE ( 'NONE', #235, #23, #193, .T. ) ;
#143 = ORIENTED_EDGE ( 'NONE', *, *, #69, .T. ) ;
#144 = CARTESIAN_POINT ( 'NONE',  ( 3.234299287410931534, 15.00000000000000178, 50.00000000000000000 ) ) ;
#145 = PERSON_AND_ORGANIZATION ( #205, #190 ) ;
#146 = DIRECTION ( 'NONE',  ( -0.000000000000000000, 0.000000000000000000, -1.000000000000000000 ) ) ;
#147 = APPROVAL_ROLE ( '' ) ;
#148 = APPLICATION_PROTOCOL_DEFINITION ( 'international standard', 'config_control_design', 1994, #229 ) ;
#149 = VECTOR ( 'NONE', #161, 1000.000000000000227 ) ;
#150 = PRODUCT_DEFINITION_FORMATION_WITH_SPECIFIED_SOURCE ( 'ANY', '', #73, .NOT_KNOWN. ) ;
#151 = EDGE_CURVE ( 'NONE', #58, #89, #8, .T. ) ;
#152 = CARTESIAN_POINT ( 'NONE',  ( 11.33999999999999986, 0.000000000000000000, 0.000000000000000000 ) ) ;
#153 = AXIS2_PLACEMENT_3D ( 'NONE', #1, #80, #146 ) ;
#154 = APPLICATION_PROTOCOL_DEFINITION ( 'international standard', 'config_control_design', 1994, #217 ) ;
#155 = FACE_OUTER_BOUND ( 'NONE', #110, .T. ) ;
#156 = CARTESIAN_POINT ( 'NONE',  ( 11.33999999999999986, 0.000000000000000000, 50.00000000000000000 ) ) ;
#157 = VECTOR ( 'NONE', #125, 1000.000000000000000 ) ;
#158 = SECURITY_CLASSIFICATION ( '', '', #184 ) ;
#159 = CC_DESIGN_PERSON_AND_ORGANIZATION_ASSIGNMENT ( #22, #99, ( #158 ) ) ;
#160 = ORIENTED_EDGE ( 'NONE', *, *, #191, .T. ) ;
#161 = DIRECTION ( 'NONE',  ( -0.4754077612449050805, 0.8797655713587041459, 0.000000000000000000 ) ) ;
#162 = CALENDAR_DATE ( 2026, 29, 8 ) ;
#163 = CARTESIAN_POINT ( 'NONE',  ( 0.000000000000000000, 15.00000000000000000, 50.00000000000000000 ) ) ;
#164 = PRODUCT_DEFINITION ( 'UNKNOWN', '', #150, #84 ) ;
#165 = PERSON_AND_ORGANIZATION ( #205, #190 ) ;
#166 = ORIENTED_EDGE ( 'NONE', *, *, #197, .T. ) ;
#167 = DIRECTION ( 'NONE',  ( -0.000000000000000000, -0.000000000000000000, -1.000000000000000000 ) ) ;
#168 = APPROVAL_ROLE ( '' ) ;
#169 = VECTOR ( 'NONE', #85, 1000.000000000000000 ) ;
#170 = UNCERTAINTY_MEASURE_WITH_UNIT (LENGTH_MEASURE( 1.000000000000000082E-05 ), #232, 'distance_accuracy_value', 'NONE');
#171 = EDGE_CURVE ( 'NONE', #44, #203, #13, .T. ) ;
#172 = ORIENTED_EDGE ( 'NONE', *, *, #142, .T. ) ;
#173 = LOCAL_TIME ( 18, 55, 34.00000000000000000, #82 ) ;
#174 = DIRECTION ( 'NONE',  ( 0.4754077612449050250, -0.8797655713587041459, 0.000000000000000000 ) ) ;
#175 = CARTESIAN_POINT ( 'NONE',  ( 0.000000000000000000, 0.000000000000000000, 50.00000000000000000 ) ) ;
#176 =( NAMED_UNIT ( * ) PLANE_ANGLE_UNIT ( ) SI_UNIT ( $, .RADIAN. ) );
#177 = LINE ( 'NONE', #152, #136 ) ;
#178 = ORIENTED_EDGE ( 'NONE', *, *, #24, .F. ) ;
#179 = ADVANCED_FACE ( 'NONE', ( #212 ), #50, .F. ) ;
#180 = LINE ( 'NONE', #185, #28 ) ;
#181 = CARTESIAN_POINT ( 'NONE',  ( 11.33999999999999986, 0.000000000000000000, 50.00000000000000000 ) ) ;
#182 = DATE_TIME_ROLE ( 'classification_date' ) ;
#183 = DIRECTION ( 'NONE',  ( -0.000000000000000000, -0.000000000000000000, -1.000000000000000000 ) ) ;
#184 = SECURITY_CLASSIFICATION_LEVEL ( 'unclassified' ) ;
#185 = CARTESIAN_POINT ( 'NONE',  ( 0.000000000000000000, 15.00000000000000000, 50.00000000000000000 ) ) ;
#186 = APPROVAL_PERSON_ORGANIZATION ( #145, #196, #168 ) ;
#187 = APPROVAL_STATUS ( 'not_yet_approved' ) ;
#188 = APPROVAL ( #93, 'UNSPECIFIED' ) ;
#189 = ORIENTED_EDGE ( 'NONE', *, *, #171, .F. ) ;
#190 = ORGANIZATION ( 'UNSPECIFIED', 'UNSPECIFIED', '' ) ;
#191 = EDGE_CURVE ( 'NONE', #203, #216, #177, .T. ) ;
#192 = VECTOR ( 'NONE', #167, 1000.000000000000000 ) ;
#193 = LINE ( 'NONE', #195, #5 ) ;
#194 = DIRECTION ( 'NONE',  ( -1.000000000000000000, -5.363521807425124974E-16, 0.000000000000000000 ) ) ;
#195 = CARTESIAN_POINT ( 'NONE',  ( 3.234299287410931534, 15.00000000000000178, 50.00000000000000000 ) ) ;
#196 = APPROVAL ( #187, 'UNSPECIFIED' ) ;
#197 = EDGE_CURVE ( 'NONE', #226, #44, #124, .T. ) ;
#198 = ORIENTED_EDGE ( 'NONE', *, *, #209, .T. ) ;
#199 = ORIENTED_EDGE ( 'NONE', *, *, #197, .F. ) ;
#200 = CARTESIAN_POINT ( 'NONE',  ( 0.000000000000000000, 15.00000000000000000, 0.000000000000000000 ) ) ;
#201 = DIRECTION ( 'NONE',  ( 1.000000000000000000, 0.000000000000000000, -0.000000000000000000 ) ) ;
#202 = DATE_AND_TIME ( #64, #173 ) ;
#203 = VERTEX_POINT ( 'NONE', #139 ) ;
#204 = ORIENTED_EDGE ( 'NONE', *, *, #39, .F. ) ;
#205 = PERSON ( 'UNSPECIFIED', 'UNSPECIFIED', 'UNSPECIFIED', ('UNSPECIFIED'), ('UNSPECIFIED'), ('UNSPECIFIED') ) ;
#206 = COORDINATED_UNIVERSAL_TIME_OFFSET ( 5, 30, .AHEAD. ) ;
#207 = PERSON_AND_ORGANIZATION_ROLE ( 'creator' ) ;
#208 = APPROVAL_DATE_TIME ( #79, #188 ) ;
#209 = EDGE_CURVE ( 'NONE', #216, #58, #123, .T. ) ;
#210 = PRODUCT_DEFINITION_SHAPE ( 'NONE', 'NONE',  #164 ) ;
#211 = DIRECTION ( 'NONE',  ( 0.000000000000000000, 1.000000000000000000, 0.000000000000000000 ) ) ;
#212 = FACE_OUTER_BOUND ( 'NONE', #56, .T. ) ;
#213 = DIRECTION ( 'NONE',  ( 0.000000000000000000, 0.000000000000000000, 1.000000000000000000 ) ) ;
#214 = ORIENTED_EDGE ( 'NONE', *, *, #151, .F. ) ;
#215 = ORIENTED_EDGE ( 'NONE', *, *, #62, .F. ) ;
#216 = VERTEX_POINT ( 'NONE', #10 ) ;
#217 = APPLICATION_CONTEXT ( 'configuration controlled 3d designs of mechanical parts and assemblies' ) ;
#218 = AXIS2_PLACEMENT_3D ( 'NONE', #138, #213, #74 ) ;
#219 = CARTESIAN_POINT ( 'NONE',  ( 0.000000000000000000, 0.000000000000000000, 50.00000000000000000 ) ) ;
#220 = APPROVAL_DATE_TIME ( #118, #100 ) ;
#221 = FACE_OUTER_BOUND ( 'NONE', #131, .T. ) ;
#222 = COORDINATED_UNIVERSAL_TIME_OFFSET ( 5, 30, .AHEAD. ) ;
#223 = EDGE_LOOP ( 'NONE', ( #198, #66, #113, #78 ) ) ;
#224 = CALENDAR_DATE ( 2026, 29, 8 ) ;
#225 = PERSON_AND_ORGANIZATION ( #205, #190 ) ;
#226 = VERTEX_POINT ( 'NONE', #12 ) ;
#227 = APPROVAL_PERSON_ORGANIZATION ( #225, #188, #147 ) ;
#228 = CARTESIAN_POINT ( 'NONE',  ( 3.234299287410931534, 15.00000000000000178, 0.000000000000000000 ) ) ;
#229 = APPLICATION_CONTEXT ( 'configuration controlled 3d designs of mechanical parts and assemblies' ) ;
#230 = CARTESIAN_POINT ( 'NONE',  ( 0.000000000000000000, 15.00000000000000000, 0.000000000000000000 ) ) ;
#231 = DIRECTION ( 'NONE',  ( 0.000000000000000000, -0.000000000000000000, 1.000000000000000000 ) ) ;
#232 =( LENGTH_UNIT ( ) NAMED_UNIT ( * ) SI_UNIT ( .MILLI., .METRE. ) );
#233 = VECTOR ( 'NONE', #128, 1000.000000000000000 ) ;
#234 = CARTESIAN_POINT ( 'NONE',  ( 0.000000000000000000, 0.000000000000000000, 0.000000000000000000 ) ) ;
#235 = VERTEX_POINT ( 'NONE', #49 ) ;
#236 = LINE ( 'NONE', #37, #72 ) ;
#237 = PERSON_AND_ORGANIZATION ( #205, #190 ) ;
ENDSEC;
END-ISO-10303-21;
