ISO-10303-21;
HEADER;
FILE_DESCRIPTION (( 'STEP AP203' ),
    '1' );
FILE_NAME ('Base_v2_Default_sldprt.STEP',
    '2026-09-09T04:16:01',
    ( '' ),
    ( '' ),
    'SwSTEP 2.0',
    'SolidWorks 2020',
    '' );
FILE_SCHEMA (( 'CONFIG_CONTROL_DESIGN' ));
ENDSEC;

DATA;
#1 = DIRECTION ( 'NONE',  ( 1.301042606982605567E-16, 1.000000000000000000, -0.000000000000000000 ) ) ;
#2 = EDGE_CURVE ( 'NONE', #1041, #659, #482, .T. ) ;
#3 = CARTESIAN_POINT ( 'NONE',  ( -24.74999999999998579, 7.122590923779331100E-15, 1.499999999999999556 ) ) ;
#4 = PLANE ( 'NONE',  #712 ) ;
#5 = DIRECTION ( 'NONE',  ( -0.000000000000000000, -0.000000000000000000, -1.000000000000000000 ) ) ;
#6 = PLANE ( 'NONE',  #1101 ) ;
#7 = AXIS2_PLACEMENT_3D ( 'NONE', #708, #1084, #1160 ) ;
#8 = ORIENTED_EDGE ( 'NONE', *, *, #1168, .F. ) ;
#9 = VECTOR ( 'NONE', #716, 1000.000000000000000 ) ;
#10 = UNCERTAINTY_MEASURE_WITH_UNIT (LENGTH_MEASURE( 1.000000000000000082E-05 ), #558, 'distance_accuracy_value', 'NONE');
#11 = VECTOR ( 'NONE', #120, 1000.000000000000000 ) ;
#12 = PERSON_AND_ORGANIZATION_ROLE ( 'design_supplier' ) ;
#13 = DIRECTION ( 'NONE',  ( 0.000000000000000000, -1.000000000000000000, 0.000000000000000000 ) ) ;
#14 = FACE_BOUND ( 'NONE', #670, .T. ) ;
#15 = EDGE_CURVE ( 'NONE', #877, #286, #1048, .T. ) ;
#16 = ORIENTED_EDGE ( 'NONE', *, *, #1220, .F. ) ;
#17 = PLANE ( 'NONE',  #466 ) ;
#18 = ORIENTED_EDGE ( 'NONE', *, *, #1168, .T. ) ;
#19 = EDGE_CURVE ( 'NONE', #1192, #926, #962, .T. ) ;
#20 = APPROVAL_DATE_TIME ( #501, #970 ) ;
#21 = LINE ( 'NONE', #1227, #267 ) ;
#22 = CARTESIAN_POINT ( 'NONE',  ( -24.74999999999998579, 7.122590923779331100E-15, 13.00100000000000122 ) ) ;
#23 = DIRECTION ( 'NONE',  ( 1.301042606982605567E-16, -1.000000000000000000, 0.000000000000000000 ) ) ;
#24 = VERTEX_POINT ( 'NONE', #113 ) ;
#25 = CC_DESIGN_PERSON_AND_ORGANIZATION_ASSIGNMENT ( #461, #1161, ( #469 ) ) ;
#26 = CARTESIAN_POINT ( 'NONE',  ( -21.91987298107778770, -2.499999999999997780, 1.500000000000000000 ) ) ;
#27 = LINE ( 'NONE', #332, #604 ) ;
#28 = DIRECTION ( 'NONE',  ( 0.000000000000000000, -1.000000000000000000, 0.000000000000000000 ) ) ;
#29 = AXIS2_PLACEMENT_3D ( 'NONE', #1140, #559, #385 ) ;
#30 = CARTESIAN_POINT ( 'NONE',  ( 30.25000000000001421, -28.24999999999999289, 8.000000000000000000 ) ) ;
#31 = VECTOR ( 'NONE', #725, 1000.000000000000000 ) ;
#32 = DIRECTION ( 'NONE',  ( 1.000000000000000000, 2.086885384633752656E-16, -0.000000000000000000 ) ) ;
#33 = CARTESIAN_POINT ( 'NONE',  ( 21.75000000000001421, 7.428752623566170548E-15, 3.000000000000000000 ) ) ;
#34 = EDGE_CURVE ( 'NONE', #1057, #629, #493, .T. ) ;
#35 = CARTESIAN_POINT ( 'NONE',  ( 0.000000000000000000, 0.000000000000000000, 0.000000000000000000 ) ) ;
#36 = ORIENTED_EDGE ( 'NONE', *, *, #2, .F. ) ;
#37 = DIRECTION ( 'NONE',  ( 0.000000000000000000, 0.000000000000000000, 1.000000000000000000 ) ) ;
#38 = DIRECTION ( 'NONE',  ( -1.000000000000000000, -0.000000000000000000, -0.000000000000000000 ) ) ;
#39 = CC_DESIGN_DATE_AND_TIME_ASSIGNMENT ( #692, #110, ( #1121 ) ) ;
#40 = CARTESIAN_POINT ( 'NONE',  ( -30.58012701892216967, 2.500000000000000888, 1.500000000000000000 ) ) ;
#41 = ORIENTED_EDGE ( 'NONE', *, *, #64, .T. ) ;
#42 = DIRECTION ( 'NONE',  ( 1.000000000000000000, -0.000000000000000000, 0.000000000000000000 ) ) ;
#43 = FACE_OUTER_BOUND ( 'NONE', #302, .T. ) ;
#44 = ORIENTED_EDGE ( 'NONE', *, *, #106, .F. ) ;
#45 = FACE_BOUND ( 'NONE', #812, .T. ) ;
#46 = ORIENTED_EDGE ( 'NONE', *, *, #563, .T. ) ;
#47 = ADVANCED_BREP_SHAPE_REPRESENTATION ( 'Base_v2_Default_sldprt', ( #952, #130 ), #750 ) ;
#48 = CIRCLE ( 'NONE', #418, 2.500000000000000444 ) ;
#49 = LINE ( 'NONE', #793, #1076 ) ;
#50 = VECTOR ( 'NONE', #975, 1000.000000000000000 ) ;
#51 = CYLINDRICAL_SURFACE ( 'NONE', #1033, 2.499999999999998668 ) ;
#52 = EDGE_CURVE ( 'NONE', #286, #637, #1025, .T. ) ;
#53 = FACE_BOUND ( 'NONE', #754, .T. ) ;
#54 = EDGE_LOOP ( 'NONE', ( #581, #1187, #431, #36 ) ) ;
#55 = LINE ( 'NONE', #430, #199 ) ;
#56 = EDGE_CURVE ( 'NONE', #926, #522, #87, .T. ) ;
#57 = CARTESIAN_POINT ( 'NONE',  ( -26.24999999999998934, 6.938893903907228378E-15, 1.499999999999999556 ) ) ;
#58 = DIRECTION ( 'NONE',  ( -1.000000000000000000, 0.000000000000000000, 0.000000000000000000 ) ) ;
#59 = EDGE_LOOP ( 'NONE', ( #229, #434, #337, #73 ) ) ;
#60 = CARTESIAN_POINT ( 'NONE',  ( 4.750000000000015099, 18.25000000000001066, 0.000000000000000000 ) ) ;
#61 = DIRECTION ( 'NONE',  ( -1.000000000000000000, 0.000000000000000000, 0.000000000000000000 ) ) ;
#62 = ORIENTED_EDGE ( 'NONE', *, *, #211, .F. ) ;
#63 = ORIENTED_EDGE ( 'NONE', *, *, #19, .T. ) ;
#64 = EDGE_CURVE ( 'NONE', #144, #290, #568, .T. ) ;
#65 = CIRCLE ( 'NONE', #859, 4.000000000000000000 ) ;
#66 = CARTESIAN_POINT ( 'NONE',  ( -21.91987298107778770, -2.499999999999997780, 1.500000000000000000 ) ) ;
#67 = AXIS2_PLACEMENT_3D ( 'NONE', #177, #81, #455 ) ;
#68 = VERTEX_POINT ( 'NONE', #1134 ) ;
#69 = AXIS2_PLACEMENT_3D ( 'NONE', #35, #519, #796 ) ;
#70 = ADVANCED_FACE ( 'NONE', ( #202 ), #327, .F. ) ;
#71 = DIRECTION ( 'NONE',  ( -2.086885384633752903E-16, 1.000000000000000000, 0.000000000000000000 ) ) ;
#72 = EDGE_LOOP ( 'NONE', ( #1165, #246, #910, #765 ) ) ;
#73 = ORIENTED_EDGE ( 'NONE', *, *, #339, .F. ) ;
#74 = DIRECTION ( 'NONE',  ( 1.000000000000000000, 1.301042606982605567E-16, -0.000000000000000000 ) ) ;
#75 = LINE ( 'NONE', #156, #91 ) ;
#76 = DIRECTION ( 'NONE',  ( 0.000000000000000000, 1.000000000000000000, 0.000000000000000000 ) ) ;
#77 = EDGE_LOOP ( 'NONE', ( #92, #822, #404, #787 ) ) ;
#78 = EDGE_CURVE ( 'NONE', #659, #247, #399, .T. ) ;
#79 = VERTEX_POINT ( 'NONE', #875 ) ;
#80 = DATE_TIME_ROLE ( 'creation_date' ) ;
#81 = DIRECTION ( 'NONE',  ( -0.000000000000000000, -0.000000000000000000, -1.000000000000000000 ) ) ;
#82 = CARTESIAN_POINT ( 'NONE',  ( 30.25000000000001421, -28.24999999999999289, 8.000000000000000000 ) ) ;
#83 = ORIENTED_EDGE ( 'NONE', *, *, #588, .T. ) ;
#84 = EDGE_CURVE ( 'NONE', #79, #24, #27, .T. ) ;
#85 = DATE_AND_TIME ( #927, #326 ) ;
#86 = CARTESIAN_POINT ( 'NONE',  ( -26.24999999999998579, 4.999999999999994671, 3.000000000000000000 ) ) ;
#87 = LINE ( 'NONE', #465, #438 ) ;
#88 = CIRCLE ( 'NONE', #839, 1.500000000000001332 ) ;
#89 = CARTESIAN_POINT ( 'NONE',  ( 21.75000000000001421, 7.428752623566170548E-15, 3.000000000000000000 ) ) ;
#90 = ORIENTED_EDGE ( 'NONE', *, *, #758, .T. ) ;
#91 = VECTOR ( 'NONE', #261, 1000.000000000000000 ) ;
#92 = ORIENTED_EDGE ( 'NONE', *, *, #182, .F. ) ;
#93 = CIRCLE ( 'NONE', #920, 2.499999999999998668 ) ;
#94 = PERSON_AND_ORGANIZATION_ROLE ( 'design_owner' ) ;
#95 = ADVANCED_FACE ( 'NONE', ( #623 ), #51, .F. ) ;
#96 = CARTESIAN_POINT ( 'NONE',  ( 30.25000000000002132, -7.499999999999994671, 8.000000000000000000 ) ) ;
#97 = CARTESIAN_POINT ( 'NONE',  ( 1.750000000000015543, 28.25000000000000711, 0.000000000000000000 ) ) ;
#98 = DIRECTION ( 'NONE',  ( 0.000000000000000000, 0.000000000000000000, -1.000000000000000000 ) ) ;
#99 = CARTESIAN_POINT ( 'NONE',  ( -30.58012701892216967, 2.500000000000000888, 1.500000000000000000 ) ) ;
#100 = CARTESIAN_POINT ( 'NONE',  ( -27.74999999999998934, 6.938893903907228378E-15, 13.00100000000000122 ) ) ;
#101 = EDGE_LOOP ( 'NONE', ( #609, #1199, #1130, #838 ) ) ;
#102 = CARTESIAN_POINT ( 'NONE',  ( -33.24999999999998579, -33.24999999999999289, 3.000000000000000000 ) ) ;
#103 = ADVANCED_FACE ( 'NONE', ( #408 ), #794, .F. ) ;
#104 = CARTESIAN_POINT ( 'NONE',  ( 33.25000000000001421, -28.24999999999999289, 8.000000000000000000 ) ) ;
#105 = CARTESIAN_POINT ( 'NONE',  ( -26.24999999999998579, 4.999999999999994671, 1.500000000000000000 ) ) ;
#106 = EDGE_CURVE ( 'NONE', #906, #797, #526, .T. ) ;
#107 = VECTOR ( 'NONE', #28, 1000.000000000000000 ) ;
#108 = AXIS2_PLACEMENT_3D ( 'NONE', #442, #821, #1108 ) ;
#109 = AXIS2_PLACEMENT_3D ( 'NONE', #586, #98, #1129 ) ;
#110 = DATE_TIME_ROLE ( 'classification_date' ) ;
#111 = APPROVAL_PERSON_ORGANIZATION ( #181, #688, #749 ) ;
#112 = FACE_OUTER_BOUND ( 'NONE', #636, .T. ) ;
#113 = CARTESIAN_POINT ( 'NONE',  ( 33.25000000000001421, 25.74999999999999645, 8.000000000000000000 ) ) ;
#114 = CYLINDRICAL_SURFACE ( 'NONE', #783, 2.500000000000000444 ) ;
#115 = ORIENTED_EDGE ( 'NONE', *, *, #1004, .F. ) ;
#116 = EDGE_CURVE ( 'NONE', #1086, #416, #488, .T. ) ;
#117 = CYLINDRICAL_SURFACE ( 'NONE', #919, 2.499999999999998668 ) ;
#118 = DIRECTION ( 'NONE',  ( -2.086885384633752903E-16, 1.000000000000000000, -0.000000000000000000 ) ) ;
#119 = EDGE_CURVE ( 'NONE', #832, #939, #304, .T. ) ;
#120 = DIRECTION ( 'NONE',  ( -1.000000000000000000, 0.000000000000000000, -0.000000000000000000 ) ) ;
#121 = CARTESIAN_POINT ( 'NONE',  ( -26.24999999999998934, 6.938893903907228378E-15, 1.499999999999999556 ) ) ;
#122 = ORIENTED_EDGE ( 'NONE', *, *, #15, .T. ) ;
#123 = LINE ( 'NONE', #988, #569 ) ;
#124 = VECTOR ( 'NONE', #645, 1000.000000000000000 ) ;
#125 = FACE_BOUND ( 'NONE', #1167, .T. ) ;
#126 = CIRCLE ( 'NONE', #819, 2.500000000000000444 ) ;
#127 = CARTESIAN_POINT ( 'NONE',  ( -26.24999999999998579, 4.999999999999994671, 1.500000000000000000 ) ) ;
#128 = VECTOR ( 'NONE', #364, 1000.000000000000000 ) ;
#129 = EDGE_CURVE ( 'NONE', #612, #1210, #65, .T. ) ;
#130 = AXIS2_PLACEMENT_3D ( 'NONE', #666, #480, #176 ) ;
#131 = DIRECTION ( 'NONE',  ( -0.000000000000000000, -0.000000000000000000, -1.000000000000000000 ) ) ;
#132 = ORIENTED_EDGE ( 'NONE', *, *, #1017, .F. ) ;
#133 = EDGE_LOOP ( 'NONE', ( #760, #678, #188, #846 ) ) ;
#134 = CARTESIAN_POINT ( 'NONE',  ( 4.750000000000015099, -18.25000000000001066, 3.000000000000000000 ) ) ;
#135 = CARTESIAN_POINT ( 'NONE',  ( 1.750000000000015543, 28.25000000000000711, 3.000000000000000888 ) ) ;
#136 = DIRECTION ( 'NONE',  ( -1.000000000000000000, 2.086885384633752903E-16, -0.000000000000000000 ) ) ;
#137 = DIRECTION ( 'NONE',  ( 1.000000000000000000, -2.086885384633752656E-16, -0.000000000000000000 ) ) ;
#138 = LINE ( 'NONE', #249, #546 ) ;
#139 = DIRECTION ( 'NONE',  ( 0.000000000000000000, 1.000000000000000000, 0.000000000000000000 ) ) ;
#140 = FACE_BOUND ( 'NONE', #1039, .T. ) ;
#141 = LINE ( 'NONE', #1166, #802 ) ;
#142 = VERTEX_POINT ( 'NONE', #601 ) ;
#143 = EDGE_CURVE ( 'NONE', #1210, #612, #709, .T. ) ;
#144 = VERTEX_POINT ( 'NONE', #931 ) ;
#145 = VECTOR ( 'NONE', #1030, 1000.000000000000000 ) ;
#146 = CARTESIAN_POINT ( 'NONE',  ( 1.750000000000015543, 28.25000000000000711, 3.000000000000000888 ) ) ;
#147 = AXIS2_PLACEMENT_3D ( 'NONE', #346, #661, #731 ) ;
#148 = AXIS2_PLACEMENT_3D ( 'NONE', #823, #348, #173 ) ;
#149 = DIRECTION ( 'NONE',  ( -0.000000000000000000, -0.000000000000000000, -1.000000000000000000 ) ) ;
#150 = VERTEX_POINT ( 'NONE', #155 ) ;
#151 = ORIENTED_EDGE ( 'NONE', *, *, #453, .T. ) ;
#152 = DIRECTION ( 'NONE',  ( -0.000000000000000000, 0.000000000000000000, -1.000000000000000000 ) ) ;
#153 = EDGE_LOOP ( 'NONE', ( #1098, #166 ) ) ;
#154 = ADVANCED_FACE ( 'NONE', ( #1222 ), #1060, .T. ) ;
#155 = CARTESIAN_POINT ( 'NONE',  ( 30.25000000000001421, -30.74999999999999289, 8.000000000000000000 ) ) ;
#156 = CARTESIAN_POINT ( 'NONE',  ( 4.750000000000015099, 18.25000000000001066, 13.00100000000000122 ) ) ;
#157 = ORIENTED_EDGE ( 'NONE', *, *, #169, .T. ) ;
#158 = CARTESIAN_POINT ( 'NONE',  ( -26.24999999999998934, 6.938893903907228378E-15, 13.00100000000000122 ) ) ;
#159 = EDGE_LOOP ( 'NONE', ( #649, #386, #1186, #1091 ) ) ;
#160 = ORIENTED_EDGE ( 'NONE', *, *, #306, .T. ) ;
#161 = ADVANCED_FACE ( 'NONE', ( #320, #698, #1147, #14, #125 ), #396, .T. ) ;
#162 = DIRECTION ( 'NONE',  ( 0.000000000000000000, -0.000000000000000000, 1.000000000000000000 ) ) ;
#163 = ORIENTED_EDGE ( 'NONE', *, *, #835, .T. ) ;
#164 = LINE ( 'NONE', #450, #1002 ) ;
#165 = ORIENTED_EDGE ( 'NONE', *, *, #208, .F. ) ;
#166 = ORIENTED_EDGE ( 'NONE', *, *, #129, .T. ) ;
#167 = VECTOR ( 'NONE', #224, 1000.000000000000000 ) ;
#168 = LINE ( 'NONE', #547, #124 ) ;
#169 = EDGE_CURVE ( 'NONE', #1192, #741, #1184, .T. ) ;
#170 = AXIS2_PLACEMENT_3D ( 'NONE', #394, #610, #984 ) ;
#171 = ORIENTED_EDGE ( 'NONE', *, *, #1131, .F. ) ;
#172 = VECTOR ( 'NONE', #367, 1000.000000000000114 ) ;
#173 = DIRECTION ( 'NONE',  ( 0.000000000000000000, 0.000000000000000000, 1.000000000000000000 ) ) ;
#174 = LOCAL_TIME ( 9, 46, 1.000000000000000000, #1226 ) ;
#175 = ORIENTED_EDGE ( 'NONE', *, *, #665, .T. ) ;
#176 = DIRECTION ( 'NONE',  ( 1.000000000000000000, 0.000000000000000000, 0.000000000000000000 ) ) ;
#177 = CARTESIAN_POINT ( 'NONE',  ( 17.75000000000001421, 6.938893903907228378E-15, 3.000000000000000000 ) ) ;
#178 = CARTESIAN_POINT ( 'NONE',  ( -21.91987298107778770, 2.499999999999994227, 3.000000000000000000 ) ) ;
#179 = VERTEX_POINT ( 'NONE', #695 ) ;
#180 = ORIENTED_EDGE ( 'NONE', *, *, #331, .T. ) ;
#181 = PERSON_AND_ORGANIZATION ( #183, #1158 ) ;
#182 = EDGE_CURVE ( 'NONE', #68, #479, #611, .T. ) ;
#183 = PERSON ( 'UNSPECIFIED', 'UNSPECIFIED', 'UNSPECIFIED', ('UNSPECIFIED'), ('UNSPECIFIED'), ('UNSPECIFIED') ) ;
#184 = CARTESIAN_POINT ( 'NONE',  ( 13.75000000000001599, 6.938893903907228378E-15, 3.000000000000000000 ) ) ;
#185 = ORIENTED_EDGE ( 'NONE', *, *, #705, .F. ) ;
#186 = CARTESIAN_POINT ( 'NONE',  ( 33.25000000000001421, 30.74999999999999289, 8.000000000000000000 ) ) ;
#187 = ORIENTED_EDGE ( 'NONE', *, *, #284, .F. ) ;
#188 = ORIENTED_EDGE ( 'NONE', *, *, #248, .F. ) ;
#189 = CC_DESIGN_PERSON_AND_ORGANIZATION_ASSIGNMENT ( #1058, #12, ( #469 ) ) ;
#190 = DIRECTION ( 'NONE',  ( 0.8660254037844385966, 0.4999999999999998890, 0.000000000000000000 ) ) ;
#191 = PERSON_AND_ORGANIZATION ( #183, #1158 ) ;
#192 = DIRECTION ( 'NONE',  ( -0.000000000000000000, -1.000000000000000000, -0.000000000000000000 ) ) ;
#193 = DIRECTION ( 'NONE',  ( 0.000000000000000000, 1.000000000000000000, 0.000000000000000000 ) ) ;
#194 = DIRECTION ( 'NONE',  ( 0.000000000000000000, -1.000000000000000000, 0.000000000000000000 ) ) ;
#195 = AXIS2_PLACEMENT_3D ( 'NONE', #602, #693, #190 ) ;
#196 = LINE ( 'NONE', #570, #1054 ) ;
#197 = CIRCLE ( 'NONE', #1016, 1.500000000000001332 ) ;
#198 = ORIENTED_EDGE ( 'NONE', *, *, #1131, .T. ) ;
#199 = VECTOR ( 'NONE', #317, 1000.000000000000000 ) ;
#200 = CARTESIAN_POINT ( 'NONE',  ( 1.750000000000015543, -28.25000000000000711, 13.00100000000000122 ) ) ;
#201 = LINE ( 'NONE', #777, #323 ) ;
#202 = FACE_OUTER_BOUND ( 'NONE', #133, .T. ) ;
#203 = LINE ( 'NONE', #947, #293 ) ;
#204 = ADVANCED_FACE ( 'NONE', ( #43 ), #333, .F. ) ;
#205 = VERTEX_POINT ( 'NONE', #890 ) ;
#206 = PERSON_AND_ORGANIZATION ( #183, #1158 ) ;
#207 = DIRECTION ( 'NONE',  ( -1.000000000000000000, 2.086885384633752903E-16, -0.000000000000000000 ) ) ;
#208 = EDGE_CURVE ( 'NONE', #814, #887, #221, .T. ) ;
#209 = DIRECTION ( 'NONE',  ( -0.000000000000000000, -0.000000000000000000, -1.000000000000000000 ) ) ;
#210 = CYLINDRICAL_SURFACE ( 'NONE', #1216, 4.000000000000000000 ) ;
#211 = EDGE_CURVE ( 'NONE', #336, #1057, #88, .T. ) ;
#212 = CARTESIAN_POINT ( 'NONE',  ( 30.25000000000001421, 33.25000000000000711, 3.000000000000000000 ) ) ;
#213 = AXIS2_PLACEMENT_3D ( 'NONE', #882, #38, #409 ) ;
#214 = ORIENTED_EDGE ( 'NONE', *, *, #273, .F. ) ;
#215 = AXIS2_PLACEMENT_3D ( 'NONE', #905, #533, #335 ) ;
#216 = DIRECTION ( 'NONE',  ( 0.000000000000000000, 0.000000000000000000, -1.000000000000000000 ) ) ;
#217 = CARTESIAN_POINT ( 'NONE',  ( -33.24999999999998579, -33.24999999999999289, 3.000000000000000000 ) ) ;
#218 = ORIENTED_EDGE ( 'NONE', *, *, #1020, .T. ) ;
#219 = EDGE_CURVE ( 'NONE', #366, #763, #781, .T. ) ;
#220 = CARTESIAN_POINT ( 'NONE',  ( 33.25000000000000711, 7.499999999999994671, 8.000000000000000000 ) ) ;
#221 = LINE ( 'NONE', #806, #1074 ) ;
#222 = FACE_BOUND ( 'NONE', #538, .T. ) ;
#223 = EDGE_CURVE ( 'NONE', #571, #763, #881, .T. ) ;
#224 = DIRECTION ( 'NONE',  ( 2.086885384633752903E-16, -1.000000000000000000, 0.000000000000000000 ) ) ;
#225 = CARTESIAN_POINT ( 'NONE',  ( 4.750000000000015099, 18.25000000000001066, 3.000000000000000888 ) ) ;
#226 = CARTESIAN_POINT ( 'NONE',  ( -21.91987298107778770, 2.499999999999994227, 1.500000000000000000 ) ) ;
#227 = ORIENTED_EDGE ( 'NONE', *, *, #908, .T. ) ;
#228 = FACE_OUTER_BOUND ( 'NONE', #72, .T. ) ;
#229 = ORIENTED_EDGE ( 'NONE', *, *, #1083, .T. ) ;
#230 = ORIENTED_EDGE ( 'NONE', *, *, #1211, .T. ) ;
#231 = VECTOR ( 'NONE', #855, 1000.000000000000000 ) ;
#232 = CIRCLE ( 'NONE', #380, 4.000000000000000000 ) ;
#233 = VECTOR ( 'NONE', #118, 1000.000000000000000 ) ;
#234 = DIRECTION ( 'NONE',  ( -1.000000000000000000, -0.000000000000000000, -0.000000000000000000 ) ) ;
#235 = CARTESIAN_POINT ( 'NONE',  ( 30.25000000000001776, -33.24999999999999289, 13.00000000000000178 ) ) ;
#236 = EDGE_LOOP ( 'NONE', ( #826, #491, #218, #175 ) ) ;
#237 = PLANE ( 'NONE',  #215 ) ;
#238 = LINE ( 'NONE', #406, #545 ) ;
#239 = LINE ( 'NONE', #714, #265 ) ;
#240 = EDGE_CURVE ( 'NONE', #393, #1210, #985, .T. ) ;
#241 = VERTEX_POINT ( 'NONE', #624 ) ;
#242 = FACE_OUTER_BOUND ( 'NONE', #54, .T. ) ;
#243 = EDGE_LOOP ( 'NONE', ( #1127, #185, #456, #1180 ) ) ;
#244 = LINE ( 'NONE', #146, #608 ) ;
#245 = LINE ( 'NONE', #997, #1117 ) ;
#246 = ORIENTED_EDGE ( 'NONE', *, *, #419, .F. ) ;
#247 = VERTEX_POINT ( 'NONE', #973 ) ;
#248 = EDGE_CURVE ( 'NONE', #995, #353, #245, .T. ) ;
#249 = CARTESIAN_POINT ( 'NONE',  ( -33.24999999999998579, -33.24999999999999289, 0.000000000000000000 ) ) ;
#250 = ORIENTED_EDGE ( 'NONE', *, *, #2, .T. ) ;
#251 = AXIS2_PLACEMENT_3D ( 'NONE', #328, #702, #886 ) ;
#252 = CIRCLE ( 'NONE', #147, 2.499999999999998668 ) ;
#253 = VECTOR ( 'NONE', #76, 1000.000000000000000 ) ;
#254 = FACE_OUTER_BOUND ( 'NONE', #640, .T. ) ;
#255 = EDGE_LOOP ( 'NONE', ( #937, #904, #122, #1071 ) ) ;
#256 = CARTESIAN_POINT ( 'NONE',  ( 4.750000000000015099, -18.25000000000001066, 13.00100000000000122 ) ) ;
#257 = EDGE_CURVE ( 'NONE', #836, #1111, #239, .T. ) ;
#258 = DIRECTION ( 'NONE',  ( -1.000000000000000000, -0.000000000000000000, -0.000000000000000000 ) ) ;
#259 = DIRECTION ( 'NONE',  ( 0.000000000000000000, 1.000000000000000000, 0.000000000000000000 ) ) ;
#260 = EDGE_CURVE ( 'NONE', #379, #429, #673, .T. ) ;
#261 = DIRECTION ( 'NONE',  ( -0.000000000000000000, -0.000000000000000000, -1.000000000000000000 ) ) ;
#262 = CARTESIAN_POINT ( 'NONE',  ( 4.750000000000015099, 28.25000000000000711, 3.000000000000000000 ) ) ;
#263 = ORIENTED_EDGE ( 'NONE', *, *, #1007, .T. ) ;
#264 = PERSON_AND_ORGANIZATION ( #183, #1158 ) ;
#265 = VECTOR ( 'NONE', #510, 1000.000000000000000 ) ;
#266 = DIRECTION ( 'NONE',  ( -0.000000000000000000, -0.000000000000000000, -1.000000000000000000 ) ) ;
#267 = VECTOR ( 'NONE', #1043, 1000.000000000000000 ) ;
#268 = ORIENTED_EDGE ( 'NONE', *, *, #696, .T. ) ;
#269 = CIRCLE ( 'NONE', #728, 4.000000000000000000 ) ;
#270 = LINE ( 'NONE', #641, #253 ) ;
#271 = CC_DESIGN_APPROVAL ( #688, ( #469 ) ) ;
#272 = VERTEX_POINT ( 'NONE', #1177 ) ;
#273 = EDGE_CURVE ( 'NONE', #1028, #612, #795, .T. ) ;
#274 = APPLICATION_CONTEXT ( 'configuration controlled 3d designs of mechanical parts and assemblies' ) ;
#275 = CARTESIAN_POINT ( 'NONE',  ( 4.750000000000015099, -28.25000000000000711, 13.00100000000000122 ) ) ;
#276 = DIRECTION ( 'NONE',  ( -1.000000000000000000, 0.000000000000000000, 0.000000000000000000 ) ) ;
#277 = DIRECTION ( 'NONE',  ( 0.000000000000000000, 1.000000000000000000, 0.000000000000000000 ) ) ;
#278 = ADVANCED_FACE ( 'NONE', ( #531 ), #414, .T. ) ;
#279 = CARTESIAN_POINT ( 'NONE',  ( 1.750000000000015543, -28.25000000000000711, 0.000000000000000000 ) ) ;
#280 = ORIENTED_EDGE ( 'NONE', *, *, #331, .F. ) ;
#281 = FACE_OUTER_BOUND ( 'NONE', #59, .T. ) ;
#282 = CARTESIAN_POINT ( 'NONE',  ( 4.750000000000015099, -28.25000000000000711, 3.000000000000000888 ) ) ;
#283 = FACE_OUTER_BOUND ( 'NONE', #634, .T. ) ;
#284 = EDGE_CURVE ( 'NONE', #797, #906, #48, .T. ) ;
#285 = VERTEX_POINT ( 'NONE', #617 ) ;
#286 = VERTEX_POINT ( 'NONE', #990 ) ;
#287 = DIRECTION ( 'NONE',  ( -0.8660254037844387076, -0.4999999999999998335, 0.000000000000000000 ) ) ;
#288 = DIRECTION ( 'NONE',  ( 0.000000000000000000, -1.000000000000000000, 0.000000000000000000 ) ) ;
#289 = ADVANCED_FACE ( 'NONE', ( #140, #521, #896, #53, #1171 ), #1078, .F. ) ;
#290 = VERTEX_POINT ( 'NONE', #1104 ) ;
#291 = LINE ( 'NONE', #677, #979 ) ;
#292 = AXIS2_PLACEMENT_3D ( 'NONE', #1080, #403, #152 ) ;
#293 = VECTOR ( 'NONE', #1055, 1000.000000000000114 ) ;
#294 = EDGE_CURVE ( 'NONE', #685, #297, #75, .T. ) ;
#295 = CARTESIAN_POINT ( 'NONE',  ( 1.750000000000014211, -18.25000000000001066, 13.00100000000000122 ) ) ;
#296 = CARTESIAN_POINT ( 'NONE',  ( 33.25000000000000000, 33.25000000000000711, 3.000000000000000000 ) ) ;
#297 = VERTEX_POINT ( 'NONE', #60 ) ;
#298 = EDGE_CURVE ( 'NONE', #1057, #336, #397, .T. ) ;
#299 = CARTESIAN_POINT ( 'NONE',  ( -33.25000000000000000, 33.25000000000000711, 3.000000000000000000 ) ) ;
#300 = DIRECTION ( 'NONE',  ( -1.000000000000000000, -0.000000000000000000, -0.000000000000000000 ) ) ;
#301 = CARTESIAN_POINT ( 'NONE',  ( -33.24999999999998579, -33.24999999999999289, 3.000000000000000000 ) ) ;
#302 = EDGE_LOOP ( 'NONE', ( #1225, #912, #1204, #593 ) ) ;
#303 = CARTESIAN_POINT ( 'NONE',  ( 1.750000000000015543, -28.25000000000000711, 13.00100000000000122 ) ) ;
#304 = LINE ( 'NONE', #476, #1173 ) ;
#305 = FACE_OUTER_BOUND ( 'NONE', #1190, .T. ) ;
#306 = EDGE_CURVE ( 'NONE', #150, #930, #1012, .T. ) ;
#307 = ORIENTED_EDGE ( 'NONE', *, *, #219, .T. ) ;
#308 = AXIS2_PLACEMENT_3D ( 'NONE', #57, #162, #738 ) ;
#309 = VECTOR ( 'NONE', #876, 1000.000000000000000 ) ;
#310 = DIRECTION ( 'NONE',  ( 1.000000000000000000, 2.086885384633752656E-16, -0.000000000000000000 ) ) ;
#311 = CARTESIAN_POINT ( 'NONE',  ( -33.25100000000000477, -28.25000000000000711, 8.000000000000000000 ) ) ;
#312 = CARTESIAN_POINT ( 'NONE',  ( 33.25000000000000711, -9.999999999999994671, 8.000000000000000000 ) ) ;
#313 = EDGE_CURVE ( 'NONE', #1068, #179, #168, .T. ) ;
#314 = ORIENTED_EDGE ( 'NONE', *, *, #1073, .F. ) ;
#315 = CARTESIAN_POINT ( 'NONE',  ( 1.750000000000014211, 18.25000000000001066, 3.000000000000000888 ) ) ;
#316 = DIRECTION ( 'NONE',  ( 0.000000000000000000, 1.000000000000000000, 0.000000000000000000 ) ) ;
#317 = DIRECTION ( 'NONE',  ( 0.000000000000000000, 0.000000000000000000, 1.000000000000000000 ) ) ;
#318 = EDGE_LOOP ( 'NONE', ( #1022, #90, #1126, #560 ) ) ;
#319 = CARTESIAN_POINT ( 'NONE',  ( -30.58012701892216967, -2.499999999999996003, 3.000000000000000000 ) ) ;
#320 = FACE_BOUND ( 'NONE', #1069, .T. ) ;
#321 = CARTESIAN_POINT ( 'NONE',  ( -30.58012701892216967, 2.500000000000000888, 3.000000000000000000 ) ) ;
#322 = PLANE ( 'NONE',  #69 ) ;
#323 = VECTOR ( 'NONE', #1047, 1000.000000000000000 ) ;
#324 = EDGE_CURVE ( 'NONE', #657, #664, #338, .T. ) ;
#325 = LINE ( 'NONE', #713, #50 ) ;
#326 = LOCAL_TIME ( 9, 46, 1.000000000000000000, #652 ) ;
#327 = PLANE ( 'NONE',  #672 ) ;
#328 = CARTESIAN_POINT ( 'NONE',  ( 0.000000000000000000, 0.000000000000000000, 3.000000000000000000 ) ) ;
#329 = DIRECTION ( 'NONE',  ( 0.000000000000000000, -1.000000000000000000, 0.000000000000000000 ) ) ;
#330 = CARTESIAN_POINT ( 'NONE',  ( 1.750000000000015543, 28.25000000000000711, 13.00100000000000122 ) ) ;
#331 = EDGE_CURVE ( 'NONE', #376, #366, #942, .T. ) ;
#332 = CARTESIAN_POINT ( 'NONE',  ( -33.25100000000000477, 25.75000000000001066, 8.000000000000000000 ) ) ;
#333 = CYLINDRICAL_SURFACE ( 'NONE', #378, 2.499999999999998668 ) ;
#334 = EDGE_LOOP ( 'NONE', ( #746, #577 ) ) ;
#335 = DIRECTION ( 'NONE',  ( -0.8660254037844387076, -0.4999999999999998335, 0.000000000000000000 ) ) ;
#336 = VERTEX_POINT ( 'NONE', #913 ) ;
#337 = ORIENTED_EDGE ( 'NONE', *, *, #1151, .F. ) ;
#338 = LINE ( 'NONE', #744, #1099 ) ;
#339 = EDGE_CURVE ( 'NONE', #887, #142, #449, .T. ) ;
#340 = CARTESIAN_POINT ( 'NONE',  ( 1.750000000000015543, -28.25000000000000711, 13.00100000000000122 ) ) ;
#341 = ORIENTED_EDGE ( 'NONE', *, *, #324, .T. ) ;
#342 = AXIS2_PLACEMENT_3D ( 'NONE', #1067, #136, #1164 ) ;
#343 = AXIS2_PLACEMENT_3D ( 'NONE', #487, #207, #13 ) ;
#344 = DIRECTION ( 'NONE',  ( 0.000000000000000000, 1.000000000000000000, 0.000000000000000000 ) ) ;
#345 = AXIS2_PLACEMENT_3D ( 'NONE', #467, #753, #71 ) ;
#346 = CARTESIAN_POINT ( 'NONE',  ( 33.25000000000001421, 28.24999999999999289, 8.000000000000000000 ) ) ;
#347 = ORIENTED_EDGE ( 'NONE', *, *, #639, .T. ) ;
#348 = DIRECTION ( 'NONE',  ( -1.000000000000000000, 0.000000000000000000, 0.000000000000000000 ) ) ;
#349 = EDGE_CURVE ( 'NONE', #410, #629, #818, .T. ) ;
#350 = ORIENTED_EDGE ( 'NONE', *, *, #475, .T. ) ;
#351 = LINE ( 'NONE', #1115, #1155 ) ;
#352 = PLANE ( 'NONE',  #676 ) ;
#353 = VERTEX_POINT ( 'NONE', #355 ) ;
#354 = APPROVAL_STATUS ( 'not_yet_approved' ) ;
#355 = CARTESIAN_POINT ( 'NONE',  ( 4.750000000000015099, 28.25000000000000711, 0.000000000000000000 ) ) ;
#356 = CARTESIAN_POINT ( 'NONE',  ( -33.25100000000000477, -25.75000000000001066, 8.000000000000000000 ) ) ;
#357 = ORIENTED_EDGE ( 'NONE', *, *, #718, .F. ) ;
#358 = ORIENTED_EDGE ( 'NONE', *, *, #941, .F. ) ;
#359 = EDGE_CURVE ( 'NONE', #179, #1041, #351, .T. ) ;
#360 = DIRECTION ( 'NONE',  ( 0.000000000000000000, 0.000000000000000000, -1.000000000000000000 ) ) ;
#361 = VECTOR ( 'NONE', #909, 1000.000000000000000 ) ;
#362 = ORIENTED_EDGE ( 'NONE', *, *, #34, .F. ) ;
#363 = VECTOR ( 'NONE', #1009, 1000.000000000000000 ) ;
#364 = DIRECTION ( 'NONE',  ( -0.000000000000000000, -0.000000000000000000, -1.000000000000000000 ) ) ;
#365 = ORIENTED_EDGE ( 'NONE', *, *, #405, .T. ) ;
#366 = VERTEX_POINT ( 'NONE', #1008 ) ;
#367 = DIRECTION ( 'NONE',  ( 0.8660254037844385966, 0.4999999999999999445, 0.000000000000000000 ) ) ;
#368 = FACE_OUTER_BOUND ( 'NONE', #236, .T. ) ;
#369 = ADVANCED_FACE ( 'NONE', ( #655 ), #1019, .F. ) ;
#370 = CARTESIAN_POINT ( 'NONE',  ( -21.91987298107778770, 2.499999999999994227, 1.500000000000000000 ) ) ;
#371 = PLANE ( 'NONE',  #109 ) ;
#372 = ORIENTED_EDGE ( 'NONE', *, *, #240, .T. ) ;
#373 = FACE_OUTER_BOUND ( 'NONE', #443, .T. ) ;
#374 = DIRECTION ( 'NONE',  ( 2.086885384633752903E-16, -1.000000000000000000, 0.000000000000000000 ) ) ;
#375 = EDGE_CURVE ( 'NONE', #366, #376, #748, .T. ) ;
#376 = VERTEX_POINT ( 'NONE', #1194 ) ;
#377 = CYLINDRICAL_SURFACE ( 'NONE', #630, 1.500000000000001332 ) ;
#378 = AXIS2_PLACEMENT_3D ( 'NONE', #1061, #603, #786 ) ;
#379 = VERTEX_POINT ( 'NONE', #1213 ) ;
#380 = AXIS2_PLACEMENT_3D ( 'NONE', #1181, #37, #1174 ) ;
#381 = CARTESIAN_POINT ( 'NONE',  ( -30.58012701892216967, -2.499999999999996003, 1.500000000000000000 ) ) ;
#382 = EDGE_LOOP ( 'NONE', ( #445, #307, #513, #1003 ) ) ;
#383 = EDGE_CURVE ( 'NONE', #24, #939, #252, .T. ) ;
#384 = CALENDAR_DATE ( 2026, 9, 9 ) ;
#385 = DIRECTION ( 'NONE',  ( -1.301042606982605567E-16, -1.000000000000000000, 0.000000000000000000 ) ) ;
#386 = ORIENTED_EDGE ( 'NONE', *, *, #260, .T. ) ;
#387 = CARTESIAN_POINT ( 'NONE',  ( 33.25000000000001421, 28.24999999999999289, 8.000000000000000000 ) ) ;
#388 = ORIENTED_EDGE ( 'NONE', *, *, #644, .T. ) ;
#389 = PERSON_AND_ORGANIZATION ( #183, #1158 ) ;
#390 = DIRECTION ( 'NONE',  ( -0.000000000000000000, -0.000000000000000000, -1.000000000000000000 ) ) ;
#391 = CARTESIAN_POINT ( 'NONE',  ( -33.25100000000001188, 10.00000000000000888, 8.000000000000000000 ) ) ;
#392 = EDGE_CURVE ( 'NONE', #376, #571, #1201, .T. ) ;
#393 = VERTEX_POINT ( 'NONE', #184 ) ;
#394 = CARTESIAN_POINT ( 'NONE',  ( 30.25000000000001421, 28.24999999999999289, 8.000000000000000000 ) ) ;
#395 = CC_DESIGN_DATE_AND_TIME_ASSIGNMENT ( #85, #80, ( #1102 ) ) ;
#396 = PLANE ( 'NONE',  #251 ) ;
#397 = CIRCLE ( 'NONE', #308, 1.500000000000001332 ) ;
#398 = VECTOR ( 'NONE', #837, 1000.000000000000000 ) ;
#399 = LINE ( 'NONE', #784, #167 ) ;
#400 = LINE ( 'NONE', #497, #1175 ) ;
#401 = DIRECTION ( 'NONE',  ( 1.000000000000000000, 2.086885384633752903E-16, 0.000000000000000000 ) ) ;
#402 = ORIENTED_EDGE ( 'NONE', *, *, #294, .T. ) ;
#403 = DIRECTION ( 'NONE',  ( 1.000000000000000000, 0.000000000000000000, -0.000000000000000000 ) ) ;
#404 = ORIENTED_EDGE ( 'NONE', *, *, #1220, .T. ) ;
#405 = EDGE_CURVE ( 'NONE', #297, #144, #540, .T. ) ;
#406 = CARTESIAN_POINT ( 'NONE',  ( -30.58012701892216967, 2.500000000000000888, 1.500000000000000000 ) ) ;
#407 = CARTESIAN_POINT ( 'NONE',  ( 17.75000000000001421, 6.938893903907228378E-15, 0.000000000000000000 ) ) ;
#408 = FACE_OUTER_BOUND ( 'NONE', #318, .T. ) ;
#409 = DIRECTION ( 'NONE',  ( 0.000000000000000000, 0.000000000000000000, -1.000000000000000000 ) ) ;
#410 = VERTEX_POINT ( 'NONE', #809 ) ;
#411 = CARTESIAN_POINT ( 'NONE',  ( 4.750000000000015099, -28.25000000000000711, 13.00100000000000122 ) ) ;
#412 = ORIENTED_EDGE ( 'NONE', *, *, #1042, .T. ) ;
#413 = DIRECTION ( 'NONE',  ( 1.000000000000000000, 0.000000000000000000, 0.000000000000000000 ) ) ;
#414 = PLANE ( 'NONE',  #7 ) ;
#415 = FACE_BOUND ( 'NONE', #436, .T. ) ;
#416 = VERTEX_POINT ( 'NONE', #1188 ) ;
#417 = ORIENTED_EDGE ( 'NONE', *, *, #169, .F. ) ;
#418 = AXIS2_PLACEMENT_3D ( 'NONE', #312, #401, #316 ) ;
#419 = EDGE_CURVE ( 'NONE', #741, #522, #723, .T. ) ;
#420 = VECTOR ( 'NONE', #1156, 1000.000000000000000 ) ;
#421 = FACE_OUTER_BOUND ( 'NONE', #969, .T. ) ;
#422 = APPROVAL_PERSON_ORGANIZATION ( #792, #970, #1154 ) ;
#423 = DIRECTION ( 'NONE',  ( -0.000000000000000000, -0.000000000000000000, -1.000000000000000000 ) ) ;
#424 = FACE_OUTER_BOUND ( 'NONE', #382, .T. ) ;
#425 = ORIENTED_EDGE ( 'NONE', *, *, #1092, .T. ) ;
#426 = ORIENTED_EDGE ( 'NONE', *, *, #219, .F. ) ;
#427 = ADVANCED_FACE ( 'NONE', ( #254 ), #633, .F. ) ;
#428 = CARTESIAN_POINT ( 'NONE',  ( 1.750000000000014211, 18.25000000000001066, 0.000000000000000000 ) ) ;
#429 = VERTEX_POINT ( 'NONE', #96 ) ;
#430 = CARTESIAN_POINT ( 'NONE',  ( -26.24999999999998579, 4.999999999999994671, 1.500000000000000000 ) ) ;
#431 = ORIENTED_EDGE ( 'NONE', *, *, #78, .F. ) ;
#432 = CARTESIAN_POINT ( 'NONE',  ( -33.25100000000000477, -30.75000000000000711, 8.000000000000000000 ) ) ;
#433 = EDGE_CURVE ( 'NONE', #179, #205, #201, .T. ) ;
#434 = ORIENTED_EDGE ( 'NONE', *, *, #556, .T. ) ;
#435 = CARTESIAN_POINT ( 'NONE',  ( 30.25000000000002132, -9.999999999999994671, 8.000000000000000000 ) ) ;
#436 = EDGE_LOOP ( 'NONE', ( #132, #1072, #1062, #524 ) ) ;
#437 = ORIENTED_EDGE ( 'NONE', *, *, #496, .F. ) ;
#438 = VECTOR ( 'NONE', #194, 1000.000000000000000 ) ;
#439 = AXIS2_PLACEMENT_3D ( 'NONE', #694, #413, #1059 ) ;
#440 = DIRECTION ( 'NONE',  ( 0.000000000000000000, 1.000000000000000000, 0.000000000000000000 ) ) ;
#441 = CC_DESIGN_APPROVAL ( #970, ( #1121 ) ) ;
#442 = CARTESIAN_POINT ( 'NONE',  ( -33.25000000000000000, 33.25000000000000711, 3.000000000000000000 ) ) ;
#443 = EDGE_LOOP ( 'NONE', ( #362, #470, #46, #648 ) ) ;
#444 = CARTESIAN_POINT ( 'NONE',  ( 30.25000000000001776, -33.24999999999999289, 13.00000000000000178 ) ) ;
#445 = ORIENTED_EDGE ( 'NONE', *, *, #375, .F. ) ;
#446 = EDGE_LOOP ( 'NONE', ( #347, #230, #512, #516 ) ) ;
#447 = LINE ( 'NONE', #275, #1198 ) ;
#448 = ADVANCED_FACE ( 'NONE', ( #373 ), #377, .F. ) ;
#449 = LINE ( 'NONE', #928, #898 ) ;
#450 = CARTESIAN_POINT ( 'NONE',  ( 1.750000000000015543, 28.25000000000000711, 0.000000000000000000 ) ) ;
#451 = ORIENTED_EDGE ( 'NONE', *, *, #116, .F. ) ;
#452 = ORIENTED_EDGE ( 'NONE', *, *, #359, .T. ) ;
#453 = EDGE_CURVE ( 'NONE', #205, #845, #1133, .T. ) ;
#454 = APPROVAL_STATUS ( 'not_yet_approved' ) ;
#455 = DIRECTION ( 'NONE',  ( -1.000000000000000000, 0.000000000000000000, 0.000000000000000000 ) ) ;
#456 = ORIENTED_EDGE ( 'NONE', *, *, #257, .F. ) ;
#457 = CYLINDRICAL_SURFACE ( 'NONE', #631, 2.500000000000000444 ) ;
#458 = ORIENTED_EDGE ( 'NONE', *, *, #665, .F. ) ;
#459 = ORIENTED_EDGE ( 'NONE', *, *, #143, .F. ) ;
#460 = ADVANCED_FACE ( 'NONE', ( #762 ), #934, .F. ) ;
#461 = PERSON_AND_ORGANIZATION ( #183, #1158 ) ;
#462 = CARTESIAN_POINT ( 'NONE',  ( 4.750000000000015099, -18.25000000000001066, 0.000000000000000000 ) ) ;
#463 = CIRCLE ( 'NONE', #439, 2.500000000000000444 ) ;
#464 = DIRECTION ( 'NONE',  ( 1.000000000000000000, 2.086885384633752903E-16, 0.000000000000000000 ) ) ;
#465 = CARTESIAN_POINT ( 'NONE',  ( -21.91987298107778770, 2.499999999999994227, 3.000000000000000000 ) ) ;
#466 = AXIS2_PLACEMENT_3D ( 'NONE', #381, #865, #580 ) ;
#467 = CARTESIAN_POINT ( 'NONE',  ( -33.25000000000000000, 33.25000000000000711, 3.000000000000000000 ) ) ;
#468 = ORIENTED_EDGE ( 'NONE', *, *, #724, .T. ) ;
#469 = PRODUCT_DEFINITION_FORMATION_WITH_SPECIFIED_SOURCE ( 'ANY', '', #1081, .NOT_KNOWN. ) ;
#470 = ORIENTED_EDGE ( 'NONE', *, *, #298, .T. ) ;
#471 = ORIENTED_EDGE ( 'NONE', *, *, #941, .T. ) ;
#472 = DESIGN_CONTEXT ( 'detailed design', #1153, 'design' ) ;
#473 = APPROVAL_ROLE ( '' ) ;
#474 = CARTESIAN_POINT ( 'NONE',  ( -26.24999999999997868, -4.999999999999994671, 3.000000000000000000 ) ) ;
#475 = EDGE_CURVE ( 'NONE', #930, #1013, #507, .T. ) ;
#476 = CARTESIAN_POINT ( 'NONE',  ( -33.25100000000000477, 30.75000000000000711, 8.000000000000000000 ) ) ;
#477 = CARTESIAN_POINT ( 'NONE',  ( -26.24999999999997868, -4.999999999999994671, 1.500000000000000000 ) ) ;
#478 = DIRECTION ( 'NONE',  ( 1.301042606982605567E-16, -1.000000000000000000, 0.000000000000000000 ) ) ;
#479 = VERTEX_POINT ( 'NONE', #86 ) ;
#480 = DIRECTION ( 'NONE',  ( 0.000000000000000000, 0.000000000000000000, 1.000000000000000000 ) ) ;
#481 = DIRECTION ( 'NONE',  ( -1.000000000000000000, 0.000000000000000000, 0.000000000000000000 ) ) ;
#482 = LINE ( 'NONE', #1145, #816 ) ;
#483 = EDGE_CURVE ( 'NONE', #615, #637, #679, .T. ) ;
#484 = FACE_OUTER_BOUND ( 'NONE', #1105, .T. ) ;
#485 = VERTEX_POINT ( 'NONE', #462 ) ;
#486 = SHAPE_DEFINITION_REPRESENTATION ( #596, #47 ) ;
#487 = CARTESIAN_POINT ( 'NONE',  ( 33.25000000000000711, 9.999999999999994671, 8.000000000000000000 ) ) ;
#488 = LINE ( 'NONE', #863, #584 ) ;
#489 = AXIS2_PLACEMENT_3D ( 'NONE', #699, #517, #889 ) ;
#490 = DIRECTION ( 'NONE',  ( -0.4999999999999997224, -0.8660254037844388186, 0.000000000000000000 ) ) ;
#491 = ORIENTED_EDGE ( 'NONE', *, *, #628, .T. ) ;
#492 = DIRECTION ( 'NONE',  ( 0.000000000000000000, -0.000000000000000000, -1.000000000000000000 ) ) ;
#493 = LINE ( 'NONE', #22, #145 ) ;
#494 = LINE ( 'NONE', #964, #233 ) ;
#495 = ORIENTED_EDGE ( 'NONE', *, *, #621, .T. ) ;
#496 = EDGE_CURVE ( 'NONE', #629, #410, #197, .T. ) ;
#497 = CARTESIAN_POINT ( 'NONE',  ( -33.25100000000001188, -7.500000000000007994, 8.000000000000000000 ) ) ;
#498 = CARTESIAN_POINT ( 'NONE',  ( 33.25000000000001421, -33.24999999999999289, 13.00000000000000178 ) ) ;
#499 = EDGE_LOOP ( 'NONE', ( #768, #852, #1011, #998 ) ) ;
#500 = VERTEX_POINT ( 'NONE', #282 ) ;
#501 = DATE_AND_TIME ( #878, #729 ) ;
#502 = ADVANCED_FACE ( 'NONE', ( #849 ), #854, .T. ) ;
#503 = CARTESIAN_POINT ( 'NONE',  ( 33.25000000000001421, -33.24999999999999289, 0.000000000000000000 ) ) ;
#504 = DIRECTION ( 'NONE',  ( 0.8660254037844385966, 0.4999999999999999445, 0.000000000000000000 ) ) ;
#505 = ORIENTED_EDGE ( 'NONE', *, *, #737, .F. ) ;
#506 = DIRECTION ( 'NONE',  ( -0.8660254037844387076, -0.4999999999999998335, 0.000000000000000000 ) ) ;
#507 = CIRCLE ( 'NONE', #727, 2.499999999999998668 ) ;
#508 = VECTOR ( 'NONE', #478, 1000.000000000000000 ) ;
#509 = FACE_OUTER_BOUND ( 'NONE', #726, .T. ) ;
#510 = DIRECTION ( 'NONE',  ( 2.086885384633752903E-16, -1.000000000000000000, 0.000000000000000000 ) ) ;
#511 = EDGE_CURVE ( 'NONE', #353, #297, #861, .T. ) ;
#512 = ORIENTED_EDGE ( 'NONE', *, *, #966, .F. ) ;
#513 = ORIENTED_EDGE ( 'NONE', *, *, #223, .F. ) ;
#514 = DIRECTION ( 'NONE',  ( 0.000000000000000000, 1.000000000000000000, 0.000000000000000000 ) ) ;
#515 = ORIENTED_EDGE ( 'NONE', *, *, #359, .F. ) ;
#516 = ORIENTED_EDGE ( 'NONE', *, *, #556, .F. ) ;
#517 = DIRECTION ( 'NONE',  ( 1.000000000000000000, 2.086885384633752903E-16, 0.000000000000000000 ) ) ;
#518 = DIRECTION ( 'NONE',  ( -1.000000000000000000, 0.000000000000000000, -0.000000000000000000 ) ) ;
#519 = DIRECTION ( 'NONE',  ( -0.000000000000000000, 0.000000000000000000, 1.000000000000000000 ) ) ;
#520 = CARTESIAN_POINT ( 'NONE',  ( 33.25000000000001421, -33.24999999999999289, 13.00000000000000178 ) ) ;
#521 = FACE_BOUND ( 'NONE', #992, .T. ) ;
#522 = VERTEX_POINT ( 'NONE', #955 ) ;
#523 = CARTESIAN_POINT ( 'NONE',  ( -33.25100000000001188, 10.00000000000000888, 8.000000000000000000 ) ) ;
#524 = ORIENTED_EDGE ( 'NONE', *, *, #511, .F. ) ;
#525 = ORIENTED_EDGE ( 'NONE', *, *, #1137, .T. ) ;
#526 = CIRCLE ( 'NONE', #916, 2.500000000000000444 ) ;
#527 = VECTOR ( 'NONE', #945, 1000.000000000000000 ) ;
#528 = EDGE_CURVE ( 'NONE', #500, #814, #21, .T. ) ;
#529 = AXIS2_PLACEMENT_3D ( 'NONE', #523, #715, #514 ) ;
#530 = DIRECTION ( 'NONE',  ( 0.000000000000000000, -0.000000000000000000, 1.000000000000000000 ) ) ;
#531 = FACE_OUTER_BOUND ( 'NONE', #255, .T. ) ;
#532 = ORIENTED_EDGE ( 'NONE', *, *, #1114, .T. ) ;
#533 = DIRECTION ( 'NONE',  ( -0.4999999999999998335, 0.8660254037844387076, 0.000000000000000000 ) ) ;
#534 = ORIENTED_EDGE ( 'NONE', *, *, #1114, .F. ) ;
#535 = EDGE_CURVE ( 'NONE', #763, #571, #958, .T. ) ;
#536 = DIRECTION ( 'NONE',  ( 1.000000000000000000, 2.086885384633752656E-16, -0.000000000000000000 ) ) ;
#537 = DIRECTION ( 'NONE',  ( 0.000000000000000000, 0.000000000000000000, -1.000000000000000000 ) ) ;
#538 = EDGE_LOOP ( 'NONE', ( #739, #668, #425, #704 ) ) ;
#539 = DIRECTION ( 'NONE',  ( -0.000000000000000000, -0.000000000000000000, -1.000000000000000000 ) ) ;
#540 = LINE ( 'NONE', #428, #567 ) ;
#541 = DIRECTION ( 'NONE',  ( 0.8660254037844388186, -0.4999999999999997780, 0.000000000000000000 ) ) ;
#542 = ORIENTED_EDGE ( 'NONE', *, *, #15, .F. ) ;
#543 = ORIENTED_EDGE ( 'NONE', *, *, #853, .F. ) ;
#544 = VECTOR ( 'NONE', #149, 1000.000000000000000 ) ;
#545 = VECTOR ( 'NONE', #967, 1000.000000000000000 ) ;
#546 = VECTOR ( 'NONE', #1179, 1000.000000000000000 ) ;
#547 = CARTESIAN_POINT ( 'NONE',  ( 33.25000000000001421, -33.24999999999999289, 13.00000000000000178 ) ) ;
#548 = ADVANCED_FACE ( 'NONE', ( #112 ), #210, .F. ) ;
#549 = CARTESIAN_POINT ( 'NONE',  ( 33.25000000000001421, -30.74999999999999289, 8.000000000000000000 ) ) ;
#550 = ORIENTED_EDGE ( 'NONE', *, *, #483, .T. ) ;
#551 = ORIENTED_EDGE ( 'NONE', *, *, #528, .T. ) ;
#552 = MECHANICAL_CONTEXT ( 'NONE', #274, 'mechanical' ) ;
#553 = DIRECTION ( 'NONE',  ( 1.000000000000000000, 0.000000000000000000, 0.000000000000000000 ) ) ;
#554 = DIRECTION ( 'NONE',  ( 0.000000000000000000, 0.000000000000000000, -1.000000000000000000 ) ) ;
#555 = ORIENTED_EDGE ( 'NONE', *, *, #873, .T. ) ;
#556 = EDGE_CURVE ( 'NONE', #285, #241, #1219, .T. ) ;
#557 = ORIENTED_EDGE ( 'NONE', *, *, #535, .F. ) ;
#558 =( LENGTH_UNIT ( ) NAMED_UNIT ( * ) SI_UNIT ( .MILLI., .METRE. ) );
#559 = DIRECTION ( 'NONE',  ( -1.000000000000000000, 1.301042606982605567E-16, 0.000000000000000000 ) ) ;
#560 = ORIENTED_EDGE ( 'NONE', *, *, #752, .F. ) ;
#561 = LINE ( 'NONE', #256, #128 ) ;
#562 = EDGE_LOOP ( 'NONE', ( #187, #44 ) ) ;
#563 = EDGE_CURVE ( 'NONE', #336, #410, #772, .T. ) ;
#564 = CARTESIAN_POINT ( 'NONE',  ( -21.91987298107778770, -2.499999999999997780, 1.500000000000000000 ) ) ;
#565 = VECTOR ( 'NONE', #799, 1000.000000000000000 ) ;
#566 = DIRECTION ( 'NONE',  ( 0.000000000000000000, 1.000000000000000000, 0.000000000000000000 ) ) ;
#567 = VECTOR ( 'NONE', #258, 1000.000000000000000 ) ;
#568 = LINE ( 'NONE', #97, #1193 ) ;
#569 = VECTOR ( 'NONE', #506, 1000.000000000000000 ) ;
#570 = CARTESIAN_POINT ( 'NONE',  ( 4.750000000000015099, -28.25000000000000711, 0.000000000000000000 ) ) ;
#571 = VERTEX_POINT ( 'NONE', #686 ) ;
#572 =( NAMED_UNIT ( * ) PLANE_ANGLE_UNIT ( ) SI_UNIT ( $, .RADIAN. ) );
#573 = APPROVAL ( #354, 'UNSPECIFIED' ) ;
#574 = DIRECTION ( 'NONE',  ( 0.000000000000000000, 0.000000000000000000, -1.000000000000000000 ) ) ;
#575 = ORIENTED_EDGE ( 'NONE', *, *, #349, .F. ) ;
#576 = PLANE ( 'NONE',  #862 ) ;
#577 = ORIENTED_EDGE ( 'NONE', *, *, #873, .F. ) ;
#578 = DIRECTION ( 'NONE',  ( 1.000000000000000000, 2.086885384633752903E-16, 0.000000000000000000 ) ) ;
#579 = ORIENTED_EDGE ( 'NONE', *, *, #528, .F. ) ;
#580 = DIRECTION ( 'NONE',  ( 0.000000000000000000, 0.000000000000000000, -1.000000000000000000 ) ) ;
#581 = ORIENTED_EDGE ( 'NONE', *, *, #1137, .F. ) ;
#582 = EDGE_CURVE ( 'NONE', #1086, #836, #1144, .T. ) ;
#583 = DIRECTION ( 'NONE',  ( 0.000000000000000000, -1.000000000000000000, 0.000000000000000000 ) ) ;
#584 = VECTOR ( 'NONE', #961, 1000.000000000000000 ) ;
#585 = AXIS2_PLACEMENT_3D ( 'NONE', #1163, #1075, #895 ) ;
#586 = CARTESIAN_POINT ( 'NONE',  ( 0.000000000000000000, 0.000000000000000000, 1.500000000000000000 ) ) ;
#587 = VECTOR ( 'NONE', #287, 1000.000000000000000 ) ;
#588 = EDGE_CURVE ( 'NONE', #657, #144, #766, .T. ) ;
#589 = ORIENTED_EDGE ( 'NONE', *, *, #119, .F. ) ;
#590 = CC_DESIGN_SECURITY_CLASSIFICATION ( #1121, ( #469 ) ) ;
#591 = LINE ( 'NONE', #706, #1138 ) ;
#592 = FACE_BOUND ( 'NONE', #627, .T. ) ;
#593 = ORIENTED_EDGE ( 'NONE', *, *, #383, .F. ) ;
#594 = COORDINATED_UNIVERSAL_TIME_OFFSET ( 5, 30, .AHEAD. ) ;
#595 = LINE ( 'NONE', #972, #11 ) ;
#596 = PRODUCT_DEFINITION_SHAPE ( 'NONE', 'NONE',  #1102 ) ;
#597 = DIRECTION ( 'NONE',  ( -1.000000000000000000, 0.000000000000000000, 0.000000000000000000 ) ) ;
#598 = DIRECTION ( 'NONE',  ( 0.000000000000000000, 1.000000000000000000, 0.000000000000000000 ) ) ;
#599 = ADVANCED_FACE ( 'NONE', ( #368 ), #1128, .F. ) ;
#600 = CARTESIAN_POINT ( 'NONE',  ( -33.25000000000000000, 33.25000000000000711, 0.000000000000000000 ) ) ;
#601 = CARTESIAN_POINT ( 'NONE',  ( 1.750000000000014211, -18.25000000000001066, 0.000000000000000000 ) ) ;
#602 = CARTESIAN_POINT ( 'NONE',  ( -30.58012701892216967, 2.500000000000000888, 1.500000000000000000 ) ) ;
#603 = DIRECTION ( 'NONE',  ( 1.000000000000000000, -2.086885384633752656E-16, -0.000000000000000000 ) ) ;
#604 = VECTOR ( 'NONE', #1088, 1000.000000000000000 ) ;
#605 = ORIENTED_EDGE ( 'NONE', *, *, #588, .F. ) ;
#606 = CIRCLE ( 'NONE', #489, 2.499999999999998668 ) ;
#607 = DIRECTION ( 'NONE',  ( -0.000000000000000000, -0.000000000000000000, -1.000000000000000000 ) ) ;
#608 = VECTOR ( 'NONE', #1087, 1000.000000000000000 ) ;
#609 = ORIENTED_EDGE ( 'NONE', *, *, #116, .T. ) ;
#610 = DIRECTION ( 'NONE',  ( 1.000000000000000000, 0.000000000000000000, 0.000000000000000000 ) ) ;
#611 = LINE ( 'NONE', #321, #1096 ) ;
#612 = VERTEX_POINT ( 'NONE', #874 ) ;
#613 = CARTESIAN_POINT ( 'NONE',  ( 33.25000000000000711, -12.49999999999999467, 8.000000000000000000 ) ) ;
#614 = ORIENTED_EDGE ( 'NONE', *, *, #782, .T. ) ;
#615 = VERTEX_POINT ( 'NONE', #798 ) ;
#616 = DIRECTION ( 'NONE',  ( -0.000000000000000000, -0.000000000000000000, -1.000000000000000000 ) ) ;
#617 = CARTESIAN_POINT ( 'NONE',  ( 1.750000000000015543, -28.25000000000000711, 3.000000000000000888 ) ) ;
#618 = ORIENTED_EDGE ( 'NONE', *, *, #628, .F. ) ;
#619 = CARTESIAN_POINT ( 'NONE',  ( -33.25000000000000000, 33.25000000000000711, 3.000000000000000000 ) ) ;
#620 = ORIENTED_EDGE ( 'NONE', *, *, #19, .F. ) ;
#621 = EDGE_CURVE ( 'NONE', #845, #1068, #805, .T. ) ;
#622 = CARTESIAN_POINT ( 'NONE',  ( 0.000000000000000000, 0.000000000000000000, 13.00000000000000178 ) ) ;
#623 = FACE_OUTER_BOUND ( 'NONE', #1107, .T. ) ;
#624 = CARTESIAN_POINT ( 'NONE',  ( 1.750000000000015543, -28.25000000000000711, 0.000000000000000000 ) ) ;
#625 = ORIENTED_EDGE ( 'NONE', *, *, #511, .T. ) ;
#626 = CARTESIAN_POINT ( 'NONE',  ( 33.25000000000000711, -7.499999999999994671, 8.000000000000000000 ) ) ;
#627 = EDGE_LOOP ( 'NONE', ( #18, #722 ) ) ;
#628 = EDGE_CURVE ( 'NONE', #150, #1010, #126, .T. ) ;
#629 = VERTEX_POINT ( 'NONE', #989 ) ;
#630 = AXIS2_PLACEMENT_3D ( 'NONE', #1150, #959, #1029 ) ;
#631 = AXIS2_PLACEMENT_3D ( 'NONE', #740, #1110, #259 ) ;
#632 = LOCAL_TIME ( 9, 46, 1.000000000000000000, #1122 ) ;
#633 = PLANE ( 'NONE',  #108 ) ;
#634 = EDGE_LOOP ( 'NONE', ( #525, #515, #824, #643 ) ) ;
#635 = CARTESIAN_POINT ( 'NONE',  ( -26.24999999999998579, 4.999999999999994671, 1.500000000000000000 ) ) ;
#636 = EDGE_LOOP ( 'NONE', ( #268, #907, #459, #1116 ) ) ;
#637 = VERTEX_POINT ( 'NONE', #319 ) ;
#638 = CARTESIAN_POINT ( 'NONE',  ( 30.25000000000002132, 9.999999999999994671, 8.000000000000000000 ) ) ;
#639 = EDGE_CURVE ( 'NONE', #285, #500, #591, .T. ) ;
#640 = EDGE_LOOP ( 'NONE', ( #250, #314, #642, #770, #1064, #452 ) ) ;
#641 = CARTESIAN_POINT ( 'NONE',  ( -30.58012701892216967, -2.499999999999996003, 1.500000000000000000 ) ) ;
#642 = ORIENTED_EDGE ( 'NONE', *, *, #582, .F. ) ;
#643 = ORIENTED_EDGE ( 'NONE', *, *, #788, .T. ) ;
#644 = EDGE_CURVE ( 'NONE', #79, #832, #976, .T. ) ;
#645 = DIRECTION ( 'NONE',  ( 0.000000000000000000, 1.000000000000000000, 0.000000000000000000 ) ) ;
#646 = ORIENTED_EDGE ( 'NONE', *, *, #656, .T. ) ;
#647 = CARTESIAN_POINT ( 'NONE',  ( 33.25000000000001421, -25.74999999999999645, 8.000000000000000000 ) ) ;
#648 = ORIENTED_EDGE ( 'NONE', *, *, #349, .T. ) ;
#649 = ORIENTED_EDGE ( 'NONE', *, *, #758, .F. ) ;
#650 = AXIS2_PLACEMENT_3D ( 'NONE', #407, #736, #1112 ) ;
#651 = VECTOR ( 'NONE', #1095, 1000.000000000000000 ) ;
#652 = COORDINATED_UNIVERSAL_TIME_OFFSET ( 5, 30, .AHEAD. ) ;
#653 = AXIS2_PLACEMENT_3D ( 'NONE', #158, #539, #61 ) ;
#654 = LOCAL_TIME ( 9, 46, 1.000000000000000000, #594 ) ;
#655 = FACE_OUTER_BOUND ( 'NONE', #953, .T. ) ;
#656 = EDGE_CURVE ( 'NONE', #832, #79, #463, .T. ) ;
#657 = VERTEX_POINT ( 'NONE', #315 ) ;
#658 = LINE ( 'NONE', #1021, #398 ) ;
#659 = VERTEX_POINT ( 'NONE', #600 ) ;
#660 = CALENDAR_DATE ( 2026, 9, 9 ) ;
#661 = DIRECTION ( 'NONE',  ( -1.000000000000000000, 2.086885384633752903E-16, -0.000000000000000000 ) ) ;
#662 = FACE_OUTER_BOUND ( 'NONE', #1132, .T. ) ;
#663 = ORIENTED_EDGE ( 'NONE', *, *, #84, .T. ) ;
#664 = VERTEX_POINT ( 'NONE', #135 ) ;
#665 = EDGE_CURVE ( 'NONE', #1013, #930, #606, .T. ) ;
#666 = CARTESIAN_POINT ( 'NONE',  ( 0.000000000000000000, 0.000000000000000000, 0.000000000000000000 ) ) ;
#667 = DIRECTION ( 'NONE',  ( -0.000000000000000000, -0.000000000000000000, -1.000000000000000000 ) ) ;
#668 = ORIENTED_EDGE ( 'NONE', *, *, #966, .T. ) ;
#669 = DIRECTION ( 'NONE',  ( -1.000000000000000000, -2.086885384633752903E-16, 0.000000000000000000 ) ) ;
#670 = EDGE_LOOP ( 'NONE', ( #1079, #925, #165, #579 ) ) ;
#671 = CC_DESIGN_PERSON_AND_ORGANIZATION_ASSIGNMENT ( #191, #94, ( #1081 ) ) ;
#672 = AXIS2_PLACEMENT_3D ( 'NONE', #828, #440, #1183 ) ;
#673 = CIRCLE ( 'NONE', #213, 2.500000000000000444 ) ;
#674 = DIRECTION ( 'NONE',  ( -1.000000000000000000, 0.000000000000000000, 0.000000000000000000 ) ) ;
#675 = VECTOR ( 'NONE', #667, 1000.000000000000000 ) ;
#676 = AXIS2_PLACEMENT_3D ( 'NONE', #817, #1214, #911 ) ;
#677 = CARTESIAN_POINT ( 'NONE',  ( 1.750000000000015543, -28.25000000000000711, 0.000000000000000000 ) ) ;
#678 = ORIENTED_EDGE ( 'NONE', *, *, #1017, .T. ) ;
#679 = LINE ( 'NONE', #474, #527 ) ;
#680 = FACE_OUTER_BOUND ( 'NONE', #1215, .T. ) ;
#681 = DIRECTION ( 'NONE',  ( -1.000000000000000000, -0.000000000000000000, -0.000000000000000000 ) ) ;
#682 = ADVANCED_FACE ( 'NONE', ( #421 ), #117, .F. ) ;
#683 = EDGE_LOOP ( 'NONE', ( #551, #263, #773, #864 ) ) ;
#684 = LINE ( 'NONE', #102, #309 ) ;
#685 = VERTEX_POINT ( 'NONE', #225 ) ;
#686 = CARTESIAN_POINT ( 'NONE',  ( 33.25000000000000711, 12.49999999999999467, 8.000000000000000000 ) ) ;
#687 = CLOSED_SHELL ( 'NONE', ( #1050, #682, #815, #95, #103, #548, #161, #825, #1124, #427, #1035, #1066, #369, #289, #776, #986, #599, #1182, #204, #460, #948, #893, #70, #1205, #902, #857, #502, #804, #278, #1162, #154, #1159, #932, #1148, #448 ) ) ;
#688 = APPROVAL ( #454, 'UNSPECIFIED' ) ;
#689 = VECTOR ( 'NONE', #5, 1000.000000000000000 ) ;
#690 = DIRECTION ( 'NONE',  ( 0.000000000000000000, -0.000000000000000000, 1.000000000000000000 ) ) ;
#691 = VECTOR ( 'NONE', #209, 1000.000000000000000 ) ;
#692 = DATE_AND_TIME ( #384, #654 ) ;
#693 = DIRECTION ( 'NONE',  ( 0.4999999999999999445, -0.8660254037844387076, 0.000000000000000000 ) ) ;
#694 = CARTESIAN_POINT ( 'NONE',  ( 30.25000000000001421, 28.24999999999999289, 8.000000000000000000 ) ) ;
#695 = CARTESIAN_POINT ( 'NONE',  ( 33.25000000000001421, 33.25000000000000711, 13.00000000000000178 ) ) ;
#696 = EDGE_CURVE ( 'NONE', #393, #1028, #232, .T. ) ;
#697 = SECURITY_CLASSIFICATION_LEVEL ( 'unclassified' ) ;
#698 = FACE_OUTER_BOUND ( 'NONE', #956, .T. ) ;
#699 = CARTESIAN_POINT ( 'NONE',  ( 33.25000000000001421, -28.24999999999999289, 8.000000000000000000 ) ) ;
#700 = DIRECTION ( 'NONE',  ( 1.000000000000000000, 0.000000000000000000, 0.000000000000000000 ) ) ;
#701 = DIRECTION ( 'NONE',  ( 0.000000000000000000, 1.000000000000000000, 0.000000000000000000 ) ) ;
#702 = DIRECTION ( 'NONE',  ( -0.000000000000000000, 0.000000000000000000, 1.000000000000000000 ) ) ;
#703 = DIRECTION ( 'NONE',  ( 0.000000000000000000, 0.000000000000000000, 1.000000000000000000 ) ) ;
#704 = ORIENTED_EDGE ( 'NONE', *, *, #771, .T. ) ;
#705 = EDGE_CURVE ( 'NONE', #1111, #247, #49, .T. ) ;
#706 = CARTESIAN_POINT ( 'NONE',  ( 1.750000000000015543, -28.25000000000000711, 3.000000000000000888 ) ) ;
#707 = CARTESIAN_POINT ( 'NONE',  ( -33.25100000000001188, -10.00000000000000888, 8.000000000000000000 ) ) ;
#708 = CARTESIAN_POINT ( 'NONE',  ( -26.24999999999997868, -4.999999999999994671, 1.500000000000000000 ) ) ;
#709 = CIRCLE ( 'NONE', #650, 4.000000000000000000 ) ;
#710 = VECTOR ( 'NONE', #681, 1000.000000000000000 ) ;
#711 = PLANE ( 'NONE',  #292 ) ;
#712 = AXIS2_PLACEMENT_3D ( 'NONE', #200, #74, #827 ) ;
#713 = CARTESIAN_POINT ( 'NONE',  ( 1.750000000000014211, 18.25000000000001066, 3.000000000000000888 ) ) ;
#714 = CARTESIAN_POINT ( 'NONE',  ( -33.25000000000000000, 33.25000000000000711, 3.000000000000000000 ) ) ;
#715 = DIRECTION ( 'NONE',  ( 1.000000000000000000, -2.086885384633752656E-16, -0.000000000000000000 ) ) ;
#716 = DIRECTION ( 'NONE',  ( -0.000000000000000000, -0.000000000000000000, -1.000000000000000000 ) ) ;
#717 = CARTESIAN_POINT ( 'NONE',  ( -33.25100000000001188, 7.500000000000007994, 8.000000000000000000 ) ) ;
#718 = EDGE_CURVE ( 'NONE', #685, #657, #325, .T. ) ;
#719 = DIRECTION ( 'NONE',  ( 0.000000000000000000, 0.000000000000000000, 1.000000000000000000 ) ) ;
#720 = ORIENTED_EDGE ( 'NONE', *, *, #433, .T. ) ;
#721 = LINE ( 'NONE', #899, #1037 ) ;
#722 = ORIENTED_EDGE ( 'NONE', *, *, #383, .T. ) ;
#723 = LINE ( 'NONE', #66, #651 ) ;
#724 = EDGE_CURVE ( 'NONE', #847, #68, #238, .T. ) ;
#725 = DIRECTION ( 'NONE',  ( -0.000000000000000000, -0.000000000000000000, -1.000000000000000000 ) ) ;
#726 = EDGE_LOOP ( 'NONE', ( #866, #720, #151, #495 ) ) ;
#727 = AXIS2_PLACEMENT_3D ( 'NONE', #104, #578, #566 ) ;
#728 = AXIS2_PLACEMENT_3D ( 'NONE', #1070, #1172, #807 ) ;
#729 = LOCAL_TIME ( 9, 46, 1.000000000000000000, #954 ) ;
#730 = CARTESIAN_POINT ( 'NONE',  ( 33.25000000000000711, -9.999999999999994671, 8.000000000000000000 ) ) ;
#731 = DIRECTION ( 'NONE',  ( 0.000000000000000000, -1.000000000000000000, 0.000000000000000000 ) ) ;
#732 = ORIENTED_EDGE ( 'NONE', *, *, #535, .T. ) ;
#733 = FACE_OUTER_BOUND ( 'NONE', #159, .T. ) ;
#734 = ORIENTED_EDGE ( 'NONE', *, *, #182, .T. ) ;
#735 = VERTEX_POINT ( 'NONE', #127 ) ;
#736 = DIRECTION ( 'NONE',  ( 0.000000000000000000, 0.000000000000000000, 1.000000000000000000 ) ) ;
#737 = EDGE_CURVE ( 'NONE', #664, #290, #1170, .T. ) ;
#738 = DIRECTION ( 'NONE',  ( -1.000000000000000000, 0.000000000000000000, 0.000000000000000000 ) ) ;
#739 = ORIENTED_EDGE ( 'NONE', *, *, #1151, .T. ) ;
#740 = CARTESIAN_POINT ( 'NONE',  ( -33.25100000000001188, -10.00000000000000888, 8.000000000000000000 ) ) ;
#741 = VERTEX_POINT ( 'NONE', #26 ) ;
#742 = ORIENTED_EDGE ( 'NONE', *, *, #419, .T. ) ;
#743 = APPROVAL_DATE_TIME ( #755, #573 ) ;
#744 = CARTESIAN_POINT ( 'NONE',  ( 1.750000000000015543, 28.25000000000000711, 3.000000000000000888 ) ) ;
#745 = DIRECTION ( 'NONE',  ( 1.000000000000000000, 2.086885384633752656E-16, -0.000000000000000000 ) ) ;
#746 = ORIENTED_EDGE ( 'NONE', *, *, #696, .F. ) ;
#747 = AXIS2_PLACEMENT_3D ( 'NONE', #235, #553, #1005 ) ;
#748 = CIRCLE ( 'NONE', #1119, 2.500000000000000444 ) ;
#749 = APPROVAL_ROLE ( '' ) ;
#750 =( GEOMETRIC_REPRESENTATION_CONTEXT ( 3 ) GLOBAL_UNCERTAINTY_ASSIGNED_CONTEXT ( ( #10 ) ) GLOBAL_UNIT_ASSIGNED_CONTEXT ( ( #558, #572, #848 ) ) REPRESENTATION_CONTEXT ( 'NONE', 'WORKASPACE' ) );
#751 = DIRECTION ( 'NONE',  ( 1.000000000000000000, 0.000000000000000000, 0.000000000000000000 ) ) ;
#752 = EDGE_CURVE ( 'NONE', #429, #797, #400, .T. ) ;
#753 = DIRECTION ( 'NONE',  ( 1.000000000000000000, 2.086885384633752903E-16, -0.000000000000000000 ) ) ;
#754 = EDGE_LOOP ( 'NONE', ( #1001, #1027 ) ) ;
#755 = DATE_AND_TIME ( #1018, #174 ) ;
#756 = CARTESIAN_POINT ( 'NONE',  ( 30.25000000000001776, -33.24999999999999289, 13.00000000000000178 ) ) ;
#757 = DIRECTION ( 'NONE',  ( 0.000000000000000000, 0.000000000000000000, 1.000000000000000000 ) ) ;
#758 = EDGE_CURVE ( 'NONE', #379, #906, #785, .T. ) ;
#759 = DIRECTION ( 'NONE',  ( 0.000000000000000000, 0.000000000000000000, -1.000000000000000000 ) ) ;
#760 = ORIENTED_EDGE ( 'NONE', *, *, #737, .T. ) ;
#761 = ORIENTED_EDGE ( 'NONE', *, *, #294, .F. ) ;
#762 = FACE_OUTER_BOUND ( 'NONE', #1224, .T. ) ;
#763 = VERTEX_POINT ( 'NONE', #220 ) ;
#764 = FACE_BOUND ( 'NONE', #562, .T. ) ;
#765 = ORIENTED_EDGE ( 'NONE', *, *, #950, .T. ) ;
#766 = LINE ( 'NONE', #1053, #675 ) ;
#767 = AXIS2_PLACEMENT_3D ( 'NONE', #217, #1031, #690 ) ;
#768 = ORIENTED_EDGE ( 'NONE', *, *, #211, .T. ) ;
#769 = CARTESIAN_POINT ( 'NONE',  ( 1.750000000000015543, -28.25000000000000711, 3.000000000000000888 ) ) ;
#770 = ORIENTED_EDGE ( 'NONE', *, *, #841, .F. ) ;
#771 = EDGE_CURVE ( 'NONE', #485, #142, #595, .T. ) ;
#772 = LINE ( 'NONE', #100, #689 ) ;
#773 = ORIENTED_EDGE ( 'NONE', *, *, #1092, .F. ) ;
#774 = DIRECTION ( 'NONE',  ( 0.8660254037844388186, -0.4999999999999997224, 0.000000000000000000 ) ) ;
#775 = VERTEX_POINT ( 'NONE', #503 ) ;
#776 = ADVANCED_FACE ( 'NONE', ( #509 ), #885, .T. ) ;
#777 = CARTESIAN_POINT ( 'NONE',  ( 33.25000000000001421, 33.25000000000000711, 13.00000000000000178 ) ) ;
#778 = DIRECTION ( 'NONE',  ( 1.000000000000000000, -2.086885384633752656E-16, -0.000000000000000000 ) ) ;
#779 = CARTESIAN_POINT ( 'NONE',  ( -33.25100000000001188, -12.50000000000000888, 8.000000000000000000 ) ) ;
#780 = AXIS2_PLACEMENT_3D ( 'NONE', #813, #751, #537 ) ;
#781 = LINE ( 'NONE', #717, #565 ) ;
#782 = EDGE_CURVE ( 'NONE', #664, #995, #244, .T. ) ;
#783 = AXIS2_PLACEMENT_3D ( 'NONE', #391, #778, #277 ) ;
#784 = CARTESIAN_POINT ( 'NONE',  ( -33.25000000000000000, 33.25000000000000711, 0.000000000000000000 ) ) ;
#785 = LINE ( 'NONE', #779, #420 ) ;
#786 = DIRECTION ( 'NONE',  ( 0.000000000000000000, 1.000000000000000000, 0.000000000000000000 ) ) ;
#787 = ORIENTED_EDGE ( 'NONE', *, *, #853, .T. ) ;
#788 = EDGE_CURVE ( 'NONE', #1068, #775, #884, .T. ) ;
#789 = DIRECTION ( 'NONE',  ( -0.000000000000000000, -0.000000000000000000, -1.000000000000000000 ) ) ;
#790 = EDGE_LOOP ( 'NONE', ( #965, #625, #761, #983 ) ) ;
#791 = EDGE_LOOP ( 'NONE', ( #62, #946 ) ) ;
#792 = PERSON_AND_ORGANIZATION ( #183, #1158 ) ;
#793 = CARTESIAN_POINT ( 'NONE',  ( -33.24999999999998579, -33.24999999999999289, 3.000000000000000000 ) ) ;
#794 = CYLINDRICAL_SURFACE ( 'NONE', #940, 2.500000000000000444 ) ;
#795 = LINE ( 'NONE', #33, #544 ) ;
#796 = DIRECTION ( 'NONE',  ( 1.000000000000000000, 0.000000000000000000, 0.000000000000000000 ) ) ;
#797 = VERTEX_POINT ( 'NONE', #626 ) ;
#798 = CARTESIAN_POINT ( 'NONE',  ( -26.24999999999997868, -4.999999999999994671, 3.000000000000000000 ) ) ;
#799 = DIRECTION ( 'NONE',  ( 1.000000000000000000, -2.086885384633752656E-16, -0.000000000000000000 ) ) ;
#800 = VECTOR ( 'NONE', #583, 1000.000000000000000 ) ;
#801 = FACE_OUTER_BOUND ( 'NONE', #683, .T. ) ;
#802 = VECTOR ( 'NONE', #329, 1000.000000000000000 ) ;
#803 = CC_DESIGN_APPROVAL ( #573, ( #1102 ) ) ;
#804 = ADVANCED_FACE ( 'NONE', ( #228 ), #237, .T. ) ;
#805 = LINE ( 'NONE', #520, #999 ) ;
#806 = CARTESIAN_POINT ( 'NONE',  ( 1.750000000000014211, -18.25000000000001066, 3.000000000000000888 ) ) ;
#807 = DIRECTION ( 'NONE',  ( 1.000000000000000000, 0.000000000000000000, 0.000000000000000000 ) ) ;
#808 = ORIENTED_EDGE ( 'NONE', *, *, #621, .F. ) ;
#809 = CARTESIAN_POINT ( 'NONE',  ( -27.74999999999998934, 6.938893903907228378E-15, 0.000000000000000000 ) ) ;
#810 = FACE_OUTER_BOUND ( 'NONE', #446, .T. ) ;
#811 = EDGE_LOOP ( 'NONE', ( #987, #732 ) ) ;
#812 = EDGE_LOOP ( 'NONE', ( #575, #437 ) ) ;
#813 = CARTESIAN_POINT ( 'NONE',  ( 30.25000000000002132, 9.999999999999994671, 8.000000000000000000 ) ) ;
#814 = VERTEX_POINT ( 'NONE', #134 ) ;
#815 = ADVANCED_FACE ( 'NONE', ( #424 ), #981, .F. ) ;
#816 = VECTOR ( 'NONE', #300, 1000.000000000000000 ) ;
#817 = CARTESIAN_POINT ( 'NONE',  ( 1.750000000000014211, 18.25000000000001066, 13.00100000000000122 ) ) ;
#818 = CIRCLE ( 'NONE', #1034, 1.500000000000001332 ) ;
#819 = AXIS2_PLACEMENT_3D ( 'NONE', #30, #234, #216 ) ;
#820 = AXIS2_PLACEMENT_3D ( 'NONE', #435, #957, #759 ) ;
#821 = DIRECTION ( 'NONE',  ( 0.000000000000000000, -1.000000000000000000, 0.000000000000000000 ) ) ;
#822 = ORIENTED_EDGE ( 'NONE', *, *, #724, .F. ) ;
#823 = CARTESIAN_POINT ( 'NONE',  ( -21.91987298107778770, 2.499999999999994227, 1.500000000000000000 ) ) ;
#824 = ORIENTED_EDGE ( 'NONE', *, *, #313, .F. ) ;
#825 = ADVANCED_FACE ( 'NONE', ( #45, #994, #242, #415, #222 ), #322, .F. ) ;
#826 = ORIENTED_EDGE ( 'NONE', *, *, #306, .F. ) ;
#827 = DIRECTION ( 'NONE',  ( -1.301042606982605567E-16, 1.000000000000000000, 0.000000000000000000 ) ) ;
#828 = CARTESIAN_POINT ( 'NONE',  ( 1.750000000000015543, 28.25000000000000711, 13.00100000000000122 ) ) ;
#829 = DIRECTION ( 'NONE',  ( 1.301042606982605567E-16, 1.000000000000000000, 0.000000000000000000 ) ) ;
#830 = ORIENTED_EDGE ( 'NONE', *, *, #1007, .F. ) ;
#831 = LINE ( 'NONE', #356, #977 ) ;
#832 = VERTEX_POINT ( 'NONE', #888 ) ;
#833 = APPLICATION_PROTOCOL_DEFINITION ( 'international standard', 'config_control_design', 1994, #274 ) ;
#834 = DIRECTION ( 'NONE',  ( 1.000000000000000000, 0.000000000000000000, 0.000000000000000000 ) ) ;
#835 = EDGE_CURVE ( 'NONE', #995, #685, #141, .T. ) ;
#836 = VERTEX_POINT ( 'NONE', #619 ) ;
#837 = DIRECTION ( 'NONE',  ( 0.000000000000000000, 1.000000000000000000, 0.000000000000000000 ) ) ;
#838 = ORIENTED_EDGE ( 'NONE', *, *, #841, .T. ) ;
#839 = AXIS2_PLACEMENT_3D ( 'NONE', #121, #978, #597 ) ;
#840 = VECTOR ( 'NONE', #192, 1000.000000000000000 ) ;
#841 = EDGE_CURVE ( 'NONE', #205, #1086, #721, .T. ) ;
#842 = CARTESIAN_POINT ( 'NONE',  ( -26.24999999999998934, 6.938893903907228378E-15, 0.000000000000000000 ) ) ;
#843 = EDGE_LOOP ( 'NONE', ( #1142, #618 ) ) ;
#844 = FACE_OUTER_BOUND ( 'NONE', #499, .T. ) ;
#845 = VERTEX_POINT ( 'NONE', #1063 ) ;
#846 = ORIENTED_EDGE ( 'NONE', *, *, #782, .F. ) ;
#847 = VERTEX_POINT ( 'NONE', #40 ) ;
#848 =( NAMED_UNIT ( * ) SI_UNIT ( $, .STERADIAN. ) SOLID_ANGLE_UNIT ( ) );
#849 = FACE_OUTER_BOUND ( 'NONE', #1094, .T. ) ;
#850 = ORIENTED_EDGE ( 'NONE', *, *, #339, .T. ) ;
#851 = LINE ( 'NONE', #1045, #691 ) ;
#852 = ORIENTED_EDGE ( 'NONE', *, *, #34, .T. ) ;
#853 = EDGE_CURVE ( 'NONE', #735, #479, #55, .T. ) ;
#854 = PLANE ( 'NONE',  #860 ) ;
#855 = DIRECTION ( 'NONE',  ( 0.000000000000000000, 0.000000000000000000, 1.000000000000000000 ) ) ;
#856 = LINE ( 'NONE', #769, #508 ) ;
#857 = ADVANCED_FACE ( 'NONE', ( #801 ), #1185, .T. ) ;
#858 = ORIENTED_EDGE ( 'NONE', *, *, #56, .F. ) ;
#859 = AXIS2_PLACEMENT_3D ( 'NONE', #991, #719, #700 ) ;
#860 = AXIS2_PLACEMENT_3D ( 'NONE', #295, #288, #492 ) ;
#861 = LINE ( 'NONE', #1038, #800 ) ;
#862 = AXIS2_PLACEMENT_3D ( 'NONE', #105, #490, #774 ) ;
#863 = CARTESIAN_POINT ( 'NONE',  ( 30.25000000000001776, -33.24999999999999289, 3.000000000000000000 ) ) ;
#864 = ORIENTED_EDGE ( 'NONE', *, *, #1211, .F. ) ;
#865 = DIRECTION ( 'NONE',  ( 1.000000000000000000, 0.000000000000000000, 0.000000000000000000 ) ) ;
#866 = ORIENTED_EDGE ( 'NONE', *, *, #313, .T. ) ;
#867 = EDGE_CURVE ( 'NONE', #247, #775, #138, .T. ) ;
#868 = DIRECTION ( 'NONE',  ( -0.000000000000000000, -0.000000000000000000, -1.000000000000000000 ) ) ;
#869 = DIRECTION ( 'NONE',  ( -0.8660254037844385966, 0.5000000000000001110, 0.000000000000000000 ) ) ;
#870 = FACE_BOUND ( 'NONE', #811, .T. ) ;
#871 = ORIENTED_EDGE ( 'NONE', *, *, #129, .F. ) ;
#872 = ORIENTED_EDGE ( 'NONE', *, *, #56, .T. ) ;
#873 = EDGE_CURVE ( 'NONE', #1028, #393, #269, .T. ) ;
#874 = CARTESIAN_POINT ( 'NONE',  ( 21.75000000000001421, 7.428752623566170548E-15, 0.000000000000000000 ) ) ;
#875 = CARTESIAN_POINT ( 'NONE',  ( 30.25000000000001421, 25.74999999999999645, 8.000000000000000000 ) ) ;
#876 = DIRECTION ( 'NONE',  ( 1.000000000000000000, 0.000000000000000000, 0.000000000000000000 ) ) ;
#877 = VERTEX_POINT ( 'NONE', #1093 ) ;
#878 = CALENDAR_DATE ( 2026, 9, 9 ) ;
#879 = DIRECTION ( 'NONE',  ( 1.000000000000000000, -0.000000000000000000, -0.000000000000000000 ) ) ;
#880 = PRODUCT_RELATED_PRODUCT_CATEGORY ( 'detail', '', ( #1081 ) ) ;
#881 = CIRCLE ( 'NONE', #342, 2.500000000000000444 ) ;
#882 = CARTESIAN_POINT ( 'NONE',  ( 30.25000000000002132, -9.999999999999994671, 8.000000000000000000 ) ) ;
#883 = CIRCLE ( 'NONE', #1077, 2.500000000000000444 ) ;
#884 = LINE ( 'NONE', #892, #1120 ) ;
#885 = PLANE ( 'NONE',  #1157 ) ;
#886 = DIRECTION ( 'NONE',  ( 1.000000000000000000, 0.000000000000000000, 0.000000000000000000 ) ) ;
#887 = VERTEX_POINT ( 'NONE', #1085 ) ;
#888 = CARTESIAN_POINT ( 'NONE',  ( 30.25000000000001421, 30.74999999999999289, 8.000000000000000000 ) ) ;
#889 = DIRECTION ( 'NONE',  ( 0.000000000000000000, 1.000000000000000000, 0.000000000000000000 ) ) ;
#890 = CARTESIAN_POINT ( 'NONE',  ( 30.25000000000001776, 33.25000000000000711, 13.00000000000000178 ) ) ;
#891 = EDGE_LOOP ( 'NONE', ( #1090, #417, #358, #16, #115, #542 ) ) ;
#892 = CARTESIAN_POINT ( 'NONE',  ( 33.25000000000001421, -33.24999999999999289, 3.000000000000000000 ) ) ;
#893 = ADVANCED_FACE ( 'NONE', ( #1000 ), #711, .F. ) ;
#894 = EDGE_LOOP ( 'NONE', ( #402, #365, #605, #357 ) ) ;
#895 = DIRECTION ( 'NONE',  ( 0.000000000000000000, 1.000000000000000000, 0.000000000000000000 ) ) ;
#896 = FACE_BOUND ( 'NONE', #843, .T. ) ;
#897 = VECTOR ( 'NONE', #757, 1000.000000000000000 ) ;
#898 = VECTOR ( 'NONE', #1206, 1000.000000000000000 ) ;
#899 = CARTESIAN_POINT ( 'NONE',  ( 30.25000000000001776, 33.25000000000000711, 13.00000000000000178 ) ) ;
#900 = ORIENTED_EDGE ( 'NONE', *, *, #392, .T. ) ;
#901 = VECTOR ( 'NONE', #541, 1000.000000000000114 ) ;
#902 = ADVANCED_FACE ( 'NONE', ( #810 ), #1191, .T. ) ;
#903 = CARTESIAN_POINT ( 'NONE',  ( -33.25100000000001188, 12.50000000000000888, 8.000000000000000000 ) ) ;
#904 = ORIENTED_EDGE ( 'NONE', *, *, #950, .F. ) ;
#905 = CARTESIAN_POINT ( 'NONE',  ( -21.91987298107778770, -2.499999999999997780, 1.500000000000000000 ) ) ;
#906 = VERTEX_POINT ( 'NONE', #613 ) ;
#907 = ORIENTED_EDGE ( 'NONE', *, *, #273, .T. ) ;
#908 = EDGE_CURVE ( 'NONE', #522, #615, #123, .T. ) ;
#909 = DIRECTION ( 'NONE',  ( 1.000000000000000000, 2.086885384633752656E-16, -0.000000000000000000 ) ) ;
#910 = ORIENTED_EDGE ( 'NONE', *, *, #1200, .T. ) ;
#911 = DIRECTION ( 'NONE',  ( 0.000000000000000000, -0.000000000000000000, -1.000000000000000000 ) ) ;
#912 = ORIENTED_EDGE ( 'NONE', *, *, #656, .F. ) ;
#913 = CARTESIAN_POINT ( 'NONE',  ( -27.74999999999998934, 6.938893903907228378E-15, 1.499999999999999556 ) ) ;
#914 = EDGE_CURVE ( 'NONE', #845, #416, #1197, .T. ) ;
#915 = EDGE_LOOP ( 'NONE', ( #534, #543, #471, #63 ) ) ;
#916 = AXIS2_PLACEMENT_3D ( 'NONE', #730, #464, #193 ) ;
#917 = CARTESIAN_POINT ( 'NONE',  ( -26.24999999999997868, -4.999999999999994671, 1.500000000000000000 ) ) ;
#918 = ORIENTED_EDGE ( 'NONE', *, *, #582, .T. ) ;
#919 = AXIS2_PLACEMENT_3D ( 'NONE', #1082, #1065, #139 ) ;
#920 = AXIS2_PLACEMENT_3D ( 'NONE', #387, #1146, #1049 ) ;
#921 = CARTESIAN_POINT ( 'NONE',  ( 13.75000000000001599, 6.938893903907228378E-15, 0.000000000000000000 ) ) ;
#922 = CARTESIAN_POINT ( 'NONE',  ( -26.24999999999998934, 6.938893903907228378E-15, 0.000000000000000000 ) ) ;
#923 = ORIENTED_EDGE ( 'NONE', *, *, #867, .T. ) ;
#924 = FACE_OUTER_BOUND ( 'NONE', #243, .T. ) ;
#925 = ORIENTED_EDGE ( 'NONE', *, *, #1083, .F. ) ;
#926 = VERTEX_POINT ( 'NONE', #178 ) ;
#927 = CALENDAR_DATE ( 2026, 9, 9 ) ;
#928 = CARTESIAN_POINT ( 'NONE',  ( 1.750000000000014211, -18.25000000000001066, 13.00100000000000122 ) ) ;
#929 = FACE_OUTER_BOUND ( 'NONE', #894, .T. ) ;
#930 = VERTEX_POINT ( 'NONE', #549 ) ;
#931 = CARTESIAN_POINT ( 'NONE',  ( 1.750000000000014211, 18.25000000000001066, 0.000000000000000000 ) ) ;
#932 = ADVANCED_FACE ( 'NONE', ( #662 ), #1106, .T. ) ;
#933 = APPROVAL_DATE_TIME ( #1023, #688 ) ;
#934 = PLANE ( 'NONE',  #29 ) ;
#935 = CARTESIAN_POINT ( 'NONE',  ( -30.58012701892216967, -2.499999999999996003, 1.500000000000000000 ) ) ;
#936 = DIRECTION ( 'NONE',  ( 1.000000000000000000, 0.000000000000000000, 0.000000000000000000 ) ) ;
#937 = ORIENTED_EDGE ( 'NONE', *, *, #483, .F. ) ;
#938 = ORIENTED_EDGE ( 'NONE', *, *, #914, .T. ) ;
#939 = VERTEX_POINT ( 'NONE', #186 ) ;
#940 = AXIS2_PLACEMENT_3D ( 'NONE', #707, #536, #344 ) ;
#941 = EDGE_CURVE ( 'NONE', #735, #1192, #1118, .T. ) ;
#942 = CIRCLE ( 'NONE', #780, 2.500000000000000444 ) ;
#943 = DIRECTION ( 'NONE',  ( -0.000000000000000000, -0.000000000000000000, -1.000000000000000000 ) ) ;
#944 = AXIS2_PLACEMENT_3D ( 'NONE', #411, #58, #703 ) ;
#945 = DIRECTION ( 'NONE',  ( -0.8660254037844385966, 0.5000000000000001110, 0.000000000000000000 ) ) ;
#946 = ORIENTED_EDGE ( 'NONE', *, *, #298, .F. ) ;
#947 = CARTESIAN_POINT ( 'NONE',  ( -26.24999999999998579, 4.999999999999994671, 3.000000000000000000 ) ) ;
#948 = ADVANCED_FACE ( 'NONE', ( #929 ), #352, .F. ) ;
#949 = CARTESIAN_POINT ( 'NONE',  ( 17.75000000000001421, 6.938893903907228378E-15, 3.000000000000000000 ) ) ;
#950 = EDGE_CURVE ( 'NONE', #877, #615, #1026, .T. ) ;
#951 = PLANE ( 'NONE',  #767 ) ;
#952 = MANIFOLD_SOLID_BREP ( 'Cut-Extrude6', #687 ) ;
#953 = EDGE_LOOP ( 'NONE', ( #214, #555, #372, #871 ) ) ;
#954 = COORDINATED_UNIVERSAL_TIME_OFFSET ( 5, 30, .AHEAD. ) ;
#955 = CARTESIAN_POINT ( 'NONE',  ( -21.91987298107778770, -2.499999999999997780, 3.000000000000000000 ) ) ;
#956 = EDGE_LOOP ( 'NONE', ( #451, #918, #1097, #198 ) ) ;
#957 = DIRECTION ( 'NONE',  ( -1.000000000000000000, -0.000000000000000000, -0.000000000000000000 ) ) ;
#958 = CIRCLE ( 'NONE', #343, 2.500000000000000444 ) ;
#959 = DIRECTION ( 'NONE',  ( -0.000000000000000000, -0.000000000000000000, -1.000000000000000000 ) ) ;
#960 = AXIS2_PLACEMENT_3D ( 'NONE', #340, #598, #974 ) ;
#961 = DIRECTION ( 'NONE',  ( -0.000000000000000000, -1.000000000000000000, -0.000000000000000000 ) ) ;
#962 = LINE ( 'NONE', #370, #897 ) ;
#963 = APPROVAL_PERSON_ORGANIZATION ( #206, #573, #473 ) ;
#964 = CARTESIAN_POINT ( 'NONE',  ( 33.25000000000000000, 33.25000000000000711, 0.000000000000000000 ) ) ;
#965 = ORIENTED_EDGE ( 'NONE', *, *, #248, .T. ) ;
#966 = EDGE_CURVE ( 'NONE', #241, #272, #1125, .T. ) ;
#967 = DIRECTION ( 'NONE',  ( 0.000000000000000000, 0.000000000000000000, 1.000000000000000000 ) ) ;
#968 = FACE_BOUND ( 'NONE', #1032, .T. ) ;
#969 = EDGE_LOOP ( 'NONE', ( #1178, #663, #8, #589 ) ) ;
#970 = APPROVAL ( #971, 'UNSPECIFIED' ) ;
#971 = APPROVAL_STATUS ( 'not_yet_approved' ) ;
#972 = CARTESIAN_POINT ( 'NONE',  ( 1.750000000000014211, -18.25000000000001066, 0.000000000000000000 ) ) ;
#973 = CARTESIAN_POINT ( 'NONE',  ( -33.24999999999998579, -33.24999999999999289, 0.000000000000000000 ) ) ;
#974 = DIRECTION ( 'NONE',  ( 0.000000000000000000, -0.000000000000000000, 1.000000000000000000 ) ) ;
#975 = DIRECTION ( 'NONE',  ( -1.000000000000000000, 0.000000000000000000, 0.000000000000000000 ) ) ;
#976 = CIRCLE ( 'NONE', #170, 2.500000000000000444 ) ;
#977 = VECTOR ( 'NONE', #745, 1000.000000000000000 ) ;
#978 = DIRECTION ( 'NONE',  ( 0.000000000000000000, -0.000000000000000000, 1.000000000000000000 ) ) ;
#979 = VECTOR ( 'NONE', #23, 1000.000000000000000 ) ;
#980 = ORIENTED_EDGE ( 'NONE', *, *, #1020, .F. ) ;
#981 = CYLINDRICAL_SURFACE ( 'NONE', #529, 2.500000000000000444 ) ;
#982 = EDGE_CURVE ( 'NONE', #1010, #150, #883, .T. ) ;
#983 = ORIENTED_EDGE ( 'NONE', *, *, #835, .F. ) ;
#984 = DIRECTION ( 'NONE',  ( 0.000000000000000000, 0.000000000000000000, -1.000000000000000000 ) ) ;
#985 = LINE ( 'NONE', #1089, #1195 ) ;
#986 = ADVANCED_FACE ( 'NONE', ( #733 ), #457, .F. ) ;
#987 = ORIENTED_EDGE ( 'NONE', *, *, #223, .T. ) ;
#988 = CARTESIAN_POINT ( 'NONE',  ( -21.91987298107778770, -2.499999999999997780, 3.000000000000000000 ) ) ;
#989 = CARTESIAN_POINT ( 'NONE',  ( -24.74999999999998579, 7.122590923779331100E-15, 0.000000000000000000 ) ) ;
#990 = CARTESIAN_POINT ( 'NONE',  ( -30.58012701892216967, -2.499999999999996003, 1.500000000000000000 ) ) ;
#991 = CARTESIAN_POINT ( 'NONE',  ( 17.75000000000001421, 6.938893903907228378E-15, 0.000000000000000000 ) ) ;
#992 = EDGE_LOOP ( 'NONE', ( #180, #1149 ) ) ;
#993 = CC_DESIGN_PERSON_AND_ORGANIZATION_ASSIGNMENT ( #264, #1212, ( #1102 ) ) ;
#994 = FACE_BOUND ( 'NONE', #153, .T. ) ;
#995 = VERTEX_POINT ( 'NONE', #262 ) ;
#996 = DIRECTION ( 'NONE',  ( 1.000000000000000000, 0.000000000000000000, -0.000000000000000000 ) ) ;
#997 = CARTESIAN_POINT ( 'NONE',  ( 4.750000000000015099, 28.25000000000000711, 13.00100000000000122 ) ) ;
#998 = ORIENTED_EDGE ( 'NONE', *, *, #563, .F. ) ;
#999 = VECTOR ( 'NONE', #879, 1000.000000000000000 ) ;
#1000 = FACE_OUTER_BOUND ( 'NONE', #790, .T. ) ;
#1001 = ORIENTED_EDGE ( 'NONE', *, *, #1056, .F. ) ;
#1002 = VECTOR ( 'NONE', #936, 1000.000000000000000 ) ;
#1003 = ORIENTED_EDGE ( 'NONE', *, *, #392, .F. ) ;
#1004 = EDGE_CURVE ( 'NONE', #286, #847, #270, .T. ) ;
#1005 = DIRECTION ( 'NONE',  ( 0.000000000000000000, 0.000000000000000000, -1.000000000000000000 ) ) ;
#1006 = PLANE ( 'NONE',  #345 ) ;
#1007 = EDGE_CURVE ( 'NONE', #814, #485, #561, .T. ) ;
#1008 = CARTESIAN_POINT ( 'NONE',  ( 30.25000000000002132, 7.499999999999994671, 8.000000000000000000 ) ) ;
#1009 = DIRECTION ( 'NONE',  ( 1.000000000000000000, 0.000000000000000000, 0.000000000000000000 ) ) ;
#1010 = VERTEX_POINT ( 'NONE', #1208 ) ;
#1011 = ORIENTED_EDGE ( 'NONE', *, *, #496, .T. ) ;
#1012 = LINE ( 'NONE', #432, #361 ) ;
#1013 = VERTEX_POINT ( 'NONE', #647 ) ;
#1014 = CARTESIAN_POINT ( 'NONE',  ( 33.25000000000000000, 33.25000000000000711, 0.000000000000000000 ) ) ;
#1015 = ORIENTED_EDGE ( 'NONE', *, *, #52, .F. ) ;
#1016 = AXIS2_PLACEMENT_3D ( 'NONE', #842, #574, #481 ) ;
#1017 = EDGE_CURVE ( 'NONE', #290, #353, #164, .T. ) ;
#1018 = CALENDAR_DATE ( 2026, 9, 9 ) ;
#1019 = CYLINDRICAL_SURFACE ( 'NONE', #67, 4.000000000000000000 ) ;
#1020 = EDGE_CURVE ( 'NONE', #1010, #1013, #831, .T. ) ;
#1021 = CARTESIAN_POINT ( 'NONE',  ( -30.58012701892216967, -2.499999999999996003, 3.000000000000000000 ) ) ;
#1022 = ORIENTED_EDGE ( 'NONE', *, *, #1056, .T. ) ;
#1023 = DATE_AND_TIME ( #660, #632 ) ;
#1024 = DIRECTION ( 'NONE',  ( 1.000000000000000000, -2.086885384633752656E-16, -0.000000000000000000 ) ) ;
#1025 = LINE ( 'NONE', #935, #231 ) ;
#1026 = LINE ( 'NONE', #917, #1176 ) ;
#1027 = ORIENTED_EDGE ( 'NONE', *, *, #260, .F. ) ;
#1028 = VERTEX_POINT ( 'NONE', #89 ) ;
#1029 = DIRECTION ( 'NONE',  ( -1.000000000000000000, 0.000000000000000000, 0.000000000000000000 ) ) ;
#1030 = DIRECTION ( 'NONE',  ( -0.000000000000000000, -0.000000000000000000, -1.000000000000000000 ) ) ;
#1031 = DIRECTION ( 'NONE',  ( 0.000000000000000000, 1.000000000000000000, 0.000000000000000000 ) ) ;
#1032 = EDGE_LOOP ( 'NONE', ( #458, #1221 ) ) ;
#1033 = AXIS2_PLACEMENT_3D ( 'NONE', #311, #32, #701 ) ;
#1034 = AXIS2_PLACEMENT_3D ( 'NONE', #922, #1123, #276 ) ;
#1035 = ADVANCED_FACE ( 'NONE', ( #924 ), #1006, .F. ) ;
#1036 = APPLICATION_PROTOCOL_DEFINITION ( 'international standard', 'config_control_design', 1994, #1153 ) ;
#1037 = VECTOR ( 'NONE', #789, 1000.000000000000000 ) ;
#1038 = CARTESIAN_POINT ( 'NONE',  ( 4.750000000000015099, 28.25000000000000711, 0.000000000000000000 ) ) ;
#1039 = EDGE_LOOP ( 'NONE', ( #646, #388 ) ) ;
#1040 = FACE_OUTER_BOUND ( 'NONE', #915, .T. ) ;
#1041 = VERTEX_POINT ( 'NONE', #1014 ) ;
#1042 = EDGE_CURVE ( 'NONE', #637, #68, #658, .T. ) ;
#1043 = DIRECTION ( 'NONE',  ( 0.000000000000000000, 1.000000000000000000, 0.000000000000000000 ) ) ;
#1044 = ORIENTED_EDGE ( 'NONE', *, *, #1042, .F. ) ;
#1045 = CARTESIAN_POINT ( 'NONE',  ( -33.25000000000000000, 33.25000000000000711, 3.000000000000000000 ) ) ;
#1046 = ORIENTED_EDGE ( 'NONE', *, *, #982, .T. ) ;
#1047 = DIRECTION ( 'NONE',  ( -1.000000000000000000, 0.000000000000000000, 0.000000000000000000 ) ) ;
#1048 = LINE ( 'NONE', #477, #1051 ) ;
#1049 = DIRECTION ( 'NONE',  ( 0.000000000000000000, -1.000000000000000000, 0.000000000000000000 ) ) ;
#1050 = ADVANCED_FACE ( 'NONE', ( #844 ), #1223, .F. ) ;
#1051 = VECTOR ( 'NONE', #869, 1000.000000000000000 ) ;
#1052 = VECTOR ( 'NONE', #1024, 1000.000000000000000 ) ;
#1053 = CARTESIAN_POINT ( 'NONE',  ( 1.750000000000014211, 18.25000000000001066, 13.00100000000000122 ) ) ;
#1054 = VECTOR ( 'NONE', #1141, 1000.000000000000000 ) ;
#1055 = DIRECTION ( 'NONE',  ( 0.8660254037844388186, -0.4999999999999997780, 0.000000000000000000 ) ) ;
#1056 = EDGE_CURVE ( 'NONE', #429, #379, #1217, .T. ) ;
#1057 = VERTEX_POINT ( 'NONE', #3 ) ;
#1058 = PERSON_AND_ORGANIZATION ( #183, #1158 ) ;
#1059 = DIRECTION ( 'NONE',  ( 0.000000000000000000, 0.000000000000000000, -1.000000000000000000 ) ) ;
#1060 = PLANE ( 'NONE',  #195 ) ;
#1061 = CARTESIAN_POINT ( 'NONE',  ( -33.25100000000000477, 28.25000000000000711, 8.000000000000000000 ) ) ;
#1062 = ORIENTED_EDGE ( 'NONE', *, *, #405, .F. ) ;
#1063 = CARTESIAN_POINT ( 'NONE',  ( 30.25000000000001776, -33.24999999999999289, 13.00000000000000178 ) ) ;
#1064 = ORIENTED_EDGE ( 'NONE', *, *, #433, .F. ) ;
#1065 = DIRECTION ( 'NONE',  ( 1.000000000000000000, -2.086885384633752656E-16, -0.000000000000000000 ) ) ;
#1066 = ADVANCED_FACE ( 'NONE', ( #680 ), #951, .F. ) ;
#1067 = CARTESIAN_POINT ( 'NONE',  ( 33.25000000000000711, 9.999999999999994671, 8.000000000000000000 ) ) ;
#1068 = VERTEX_POINT ( 'NONE', #498 ) ;
#1069 = EDGE_LOOP ( 'NONE', ( #341, #614, #163, #1103 ) ) ;
#1070 = CARTESIAN_POINT ( 'NONE',  ( 17.75000000000001421, 6.938893903907228378E-15, 3.000000000000000000 ) ) ;
#1071 = ORIENTED_EDGE ( 'NONE', *, *, #52, .T. ) ;
#1072 = ORIENTED_EDGE ( 'NONE', *, *, #64, .F. ) ;
#1073 = EDGE_CURVE ( 'NONE', #836, #659, #851, .T. ) ;
#1074 = VECTOR ( 'NONE', #518, 1000.000000000000000 ) ;
#1075 = DIRECTION ( 'NONE',  ( 1.000000000000000000, 2.086885384633752656E-16, -0.000000000000000000 ) ) ;
#1076 = VECTOR ( 'NONE', #616, 1000.000000000000000 ) ;
#1077 = AXIS2_PLACEMENT_3D ( 'NONE', #82, #1203, #554 ) ;
#1078 = PLANE ( 'NONE',  #747 ) ;
#1079 = ORIENTED_EDGE ( 'NONE', *, *, #639, .F. ) ;
#1080 = CARTESIAN_POINT ( 'NONE',  ( 4.750000000000015099, 28.25000000000000711, 13.00100000000000122 ) ) ;
#1081 = PRODUCT ( 'Base_v2_Default_sldprt', 'Base_v2_Default_sldprt', '', ( #552 ) ) ;
#1082 = CARTESIAN_POINT ( 'NONE',  ( -33.25100000000000477, 28.25000000000000711, 8.000000000000000000 ) ) ;
#1083 = EDGE_CURVE ( 'NONE', #887, #285, #856, .T. ) ;
#1084 = DIRECTION ( 'NONE',  ( 0.5000000000000001110, 0.8660254037844385966, -0.000000000000000000 ) ) ;
#1085 = CARTESIAN_POINT ( 'NONE',  ( 1.750000000000014211, -18.25000000000001066, 3.000000000000000888 ) ) ;
#1086 = VERTEX_POINT ( 'NONE', #212 ) ;
#1087 = DIRECTION ( 'NONE',  ( 1.000000000000000000, -0.000000000000000000, 0.000000000000000000 ) ) ;
#1088 = DIRECTION ( 'NONE',  ( 1.000000000000000000, -2.086885384633752656E-16, -0.000000000000000000 ) ) ;
#1089 = CARTESIAN_POINT ( 'NONE',  ( 13.75000000000001599, 6.938893903907228378E-15, 3.000000000000000000 ) ) ;
#1090 = ORIENTED_EDGE ( 'NONE', *, *, #1200, .F. ) ;
#1091 = ORIENTED_EDGE ( 'NONE', *, *, #284, .T. ) ;
#1092 = EDGE_CURVE ( 'NONE', #272, #485, #196, .T. ) ;
#1093 = CARTESIAN_POINT ( 'NONE',  ( -26.24999999999997868, -4.999999999999994671, 1.500000000000000000 ) ) ;
#1094 = EDGE_LOOP ( 'NONE', ( #1169, #850, #1136, #830 ) ) ;
#1095 = DIRECTION ( 'NONE',  ( 0.000000000000000000, 0.000000000000000000, 1.000000000000000000 ) ) ;
#1096 = VECTOR ( 'NONE', #504, 1000.000000000000114 ) ;
#1097 = ORIENTED_EDGE ( 'NONE', *, *, #257, .T. ) ;
#1098 = ORIENTED_EDGE ( 'NONE', *, *, #143, .T. ) ;
#1099 = VECTOR ( 'NONE', #829, 1000.000000000000000 ) ;
#1100 = DIRECTION ( 'NONE',  ( 0.000000000000000000, 0.000000000000000000, 1.000000000000000000 ) ) ;
#1101 = AXIS2_PLACEMENT_3D ( 'NONE', #296, #669, #374 ) ;
#1102 = PRODUCT_DEFINITION ( 'UNKNOWN', '', #469, #472 ) ;
#1103 = ORIENTED_EDGE ( 'NONE', *, *, #718, .T. ) ;
#1104 = CARTESIAN_POINT ( 'NONE',  ( 1.750000000000015543, 28.25000000000000711, 0.000000000000000000 ) ) ;
#1105 = EDGE_LOOP ( 'NONE', ( #1044, #1015, #1209, #468 ) ) ;
#1106 = PLANE ( 'NONE',  #148 ) ;
#1107 = EDGE_LOOP ( 'NONE', ( #1046, #160, #350, #980 ) ) ;
#1108 = DIRECTION ( 'NONE',  ( 0.000000000000000000, -0.000000000000000000, -1.000000000000000000 ) ) ;
#1109 = ORIENTED_EDGE ( 'NONE', *, *, #788, .F. ) ;
#1110 = DIRECTION ( 'NONE',  ( 1.000000000000000000, 2.086885384633752656E-16, -0.000000000000000000 ) ) ;
#1111 = VERTEX_POINT ( 'NONE', #301 ) ;
#1112 = DIRECTION ( 'NONE',  ( 1.000000000000000000, 0.000000000000000000, 0.000000000000000000 ) ) ;
#1113 = LINE ( 'NONE', #564, #587 ) ;
#1114 = EDGE_CURVE ( 'NONE', #479, #926, #203, .T. ) ;
#1115 = CARTESIAN_POINT ( 'NONE',  ( 33.25000000000000000, 33.25000000000000711, 3.000000000000000000 ) ) ;
#1116 = ORIENTED_EDGE ( 'NONE', *, *, #240, .F. ) ;
#1117 = VECTOR ( 'NONE', #423, 1000.000000000000000 ) ;
#1118 = LINE ( 'NONE', #635, #901 ) ;
#1119 = AXIS2_PLACEMENT_3D ( 'NONE', #638, #834, #360 ) ;
#1120 = VECTOR ( 'NONE', #607, 1000.000000000000000 ) ;
#1121 = SECURITY_CLASSIFICATION ( '', '', #697 ) ;
#1122 = COORDINATED_UNIVERSAL_TIME_OFFSET ( 5, 30, .AHEAD. ) ;
#1123 = DIRECTION ( 'NONE',  ( 0.000000000000000000, 0.000000000000000000, -1.000000000000000000 ) ) ;
#1124 = ADVANCED_FACE ( 'NONE', ( #592, #870, #968, #764, #283 ), #6, .F. ) ;
#1125 = LINE ( 'NONE', #279, #363 ) ;
#1126 = ORIENTED_EDGE ( 'NONE', *, *, #106, .T. ) ;
#1127 = ORIENTED_EDGE ( 'NONE', *, *, #78, .T. ) ;
#1128 = CYLINDRICAL_SURFACE ( 'NONE', #585, 2.499999999999998668 ) ;
#1129 = DIRECTION ( 'NONE',  ( -1.000000000000000000, 0.000000000000000000, 0.000000000000000000 ) ) ;
#1130 = ORIENTED_EDGE ( 'NONE', *, *, #453, .F. ) ;
#1131 = EDGE_CURVE ( 'NONE', #1111, #416, #684, .T. ) ;
#1132 = EDGE_LOOP ( 'NONE', ( #858, #620, #157, #742 ) ) ;
#1133 = LINE ( 'NONE', #756, #840 ) ;
#1134 = CARTESIAN_POINT ( 'NONE',  ( -30.58012701892216967, 2.500000000000000888, 3.000000000000000000 ) ) ;
#1135 = FACE_OUTER_BOUND ( 'NONE', #891, .T. ) ;
#1136 = ORIENTED_EDGE ( 'NONE', *, *, #771, .F. ) ;
#1137 = EDGE_CURVE ( 'NONE', #775, #1041, #494, .T. ) ;
#1138 = VECTOR ( 'NONE', #42, 1000.000000000000000 ) ;
#1139 = CARTESIAN_POINT ( 'NONE',  ( -21.91987298107778770, 2.499999999999994227, 1.500000000000000000 ) ) ;
#1140 = CARTESIAN_POINT ( 'NONE',  ( 1.750000000000015543, 28.25000000000000711, 13.00100000000000122 ) ) ;
#1141 = DIRECTION ( 'NONE',  ( 0.000000000000000000, 1.000000000000000000, 0.000000000000000000 ) ) ;
#1142 = ORIENTED_EDGE ( 'NONE', *, *, #982, .F. ) ;
#1143 = PERSON_AND_ORGANIZATION_ROLE ( 'classification_officer' ) ;
#1144 = LINE ( 'NONE', #299, #710 ) ;
#1145 = CARTESIAN_POINT ( 'NONE',  ( -33.25000000000000000, 33.25000000000000711, 0.000000000000000000 ) ) ;
#1146 = DIRECTION ( 'NONE',  ( -1.000000000000000000, 2.086885384633752903E-16, -0.000000000000000000 ) ) ;
#1147 = FACE_BOUND ( 'NONE', #334, .T. ) ;
#1148 = ADVANCED_FACE ( 'NONE', ( #1152, #1135 ), #371, .F. ) ;
#1149 = ORIENTED_EDGE ( 'NONE', *, *, #375, .T. ) ;
#1150 = CARTESIAN_POINT ( 'NONE',  ( -26.24999999999998934, 6.938893903907228378E-15, 13.00100000000000122 ) ) ;
#1151 = EDGE_CURVE ( 'NONE', #142, #241, #291, .T. ) ;
#1152 = FACE_BOUND ( 'NONE', #791, .T. ) ;
#1153 = APPLICATION_CONTEXT ( 'configuration controlled 3d designs of mechanical parts and assemblies' ) ;
#1154 = APPROVAL_ROLE ( '' ) ;
#1155 = VECTOR ( 'NONE', #266, 1000.000000000000000 ) ;
#1156 = DIRECTION ( 'NONE',  ( 1.000000000000000000, 2.086885384633752656E-16, -0.000000000000000000 ) ) ;
#1157 = AXIS2_PLACEMENT_3D ( 'NONE', #622, #530, #996 ) ;
#1158 = ORGANIZATION ( 'UNSPECIFIED', 'UNSPECIFIED', '' ) ;
#1159 = ADVANCED_FACE ( 'NONE', ( #1040 ), #576, .T. ) ;
#1160 = DIRECTION ( 'NONE',  ( -0.8660254037844385966, 0.5000000000000001110, 0.000000000000000000 ) ) ;
#1161 = PERSON_AND_ORGANIZATION_ROLE ( 'creator' ) ;
#1162 = ADVANCED_FACE ( 'NONE', ( #484 ), #17, .T. ) ;
#1163 = CARTESIAN_POINT ( 'NONE',  ( -33.25100000000000477, -28.25000000000000711, 8.000000000000000000 ) ) ;
#1164 = DIRECTION ( 'NONE',  ( 0.000000000000000000, -1.000000000000000000, 0.000000000000000000 ) ) ;
#1165 = ORIENTED_EDGE ( 'NONE', *, *, #908, .F. ) ;
#1166 = CARTESIAN_POINT ( 'NONE',  ( 4.750000000000015099, 28.25000000000000711, 3.000000000000000888 ) ) ;
#1167 = EDGE_LOOP ( 'NONE', ( #872, #227, #550, #412, #734, #532 ) ) ;
#1168 = EDGE_CURVE ( 'NONE', #939, #24, #93, .T. ) ;
#1169 = ORIENTED_EDGE ( 'NONE', *, *, #208, .T. ) ;
#1170 = LINE ( 'NONE', #330, #9 ) ;
#1171 = FACE_OUTER_BOUND ( 'NONE', #101, .T. ) ;
#1172 = DIRECTION ( 'NONE',  ( 0.000000000000000000, 0.000000000000000000, 1.000000000000000000 ) ) ;
#1173 = VECTOR ( 'NONE', #137, 1000.000000000000000 ) ;
#1174 = DIRECTION ( 'NONE',  ( 1.000000000000000000, 0.000000000000000000, 0.000000000000000000 ) ) ;
#1175 = VECTOR ( 'NONE', #310, 1000.000000000000000 ) ;
#1176 = VECTOR ( 'NONE', #1100, 1000.000000000000000 ) ;
#1177 = CARTESIAN_POINT ( 'NONE',  ( 4.750000000000015099, -28.25000000000000711, 0.000000000000000000 ) ) ;
#1178 = ORIENTED_EDGE ( 'NONE', *, *, #644, .F. ) ;
#1179 = DIRECTION ( 'NONE',  ( 1.000000000000000000, 0.000000000000000000, 0.000000000000000000 ) ) ;
#1180 = ORIENTED_EDGE ( 'NONE', *, *, #1073, .T. ) ;
#1181 = CARTESIAN_POINT ( 'NONE',  ( 17.75000000000001421, 6.938893903907228378E-15, 3.000000000000000000 ) ) ;
#1182 = ADVANCED_FACE ( 'NONE', ( #305 ), #114, .F. ) ;
#1183 = DIRECTION ( 'NONE',  ( 0.000000000000000000, -0.000000000000000000, 1.000000000000000000 ) ) ;
#1184 = LINE ( 'NONE', #226, #107 ) ;
#1185 = PLANE ( 'NONE',  #944 ) ;
#1186 = ORIENTED_EDGE ( 'NONE', *, *, #752, .T. ) ;
#1187 = ORIENTED_EDGE ( 'NONE', *, *, #867, .F. ) ;
#1188 = CARTESIAN_POINT ( 'NONE',  ( 30.25000000000001776, -33.24999999999999289, 3.000000000000000000 ) ) ;
#1189 = CC_DESIGN_PERSON_AND_ORGANIZATION_ASSIGNMENT ( #389, #1143, ( #1121 ) ) ;
#1190 = EDGE_LOOP ( 'NONE', ( #426, #280, #900, #557 ) ) ;
#1191 = PLANE ( 'NONE',  #960 ) ;
#1192 = VERTEX_POINT ( 'NONE', #1139 ) ;
#1193 = VECTOR ( 'NONE', #1, 1000.000000000000000 ) ;
#1194 = CARTESIAN_POINT ( 'NONE',  ( 30.25000000000002132, 12.49999999999999467, 8.000000000000000000 ) ) ;
#1195 = VECTOR ( 'NONE', #131, 1000.000000000000000 ) ;
#1196 = VECTOR ( 'NONE', #390, 1000.000000000000000 ) ;
#1197 = LINE ( 'NONE', #444, #31 ) ;
#1198 = VECTOR ( 'NONE', #943, 1000.000000000000000 ) ;
#1199 = ORIENTED_EDGE ( 'NONE', *, *, #914, .F. ) ;
#1200 = EDGE_CURVE ( 'NONE', #741, #877, #1113, .T. ) ;
#1201 = LINE ( 'NONE', #903, #1052 ) ;
#1202 = ORIENTED_EDGE ( 'NONE', *, *, #705, .T. ) ;
#1203 = DIRECTION ( 'NONE',  ( -1.000000000000000000, -0.000000000000000000, -0.000000000000000000 ) ) ;
#1204 = ORIENTED_EDGE ( 'NONE', *, *, #119, .T. ) ;
#1205 = ADVANCED_FACE ( 'NONE', ( #281 ), #4, .T. ) ;
#1206 = DIRECTION ( 'NONE',  ( -0.000000000000000000, -0.000000000000000000, -1.000000000000000000 ) ) ;
#1207 = ORIENTED_EDGE ( 'NONE', *, *, #324, .F. ) ;
#1208 = CARTESIAN_POINT ( 'NONE',  ( 30.25000000000001421, -25.74999999999999645, 8.000000000000000000 ) ) ;
#1209 = ORIENTED_EDGE ( 'NONE', *, *, #1004, .T. ) ;
#1210 = VERTEX_POINT ( 'NONE', #921 ) ;
#1211 = EDGE_CURVE ( 'NONE', #500, #272, #447, .T. ) ;
#1212 = PERSON_AND_ORGANIZATION_ROLE ( 'creator' ) ;
#1213 = CARTESIAN_POINT ( 'NONE',  ( 30.25000000000002132, -12.49999999999999467, 8.000000000000000000 ) ) ;
#1214 = DIRECTION ( 'NONE',  ( 0.000000000000000000, -1.000000000000000000, 0.000000000000000000 ) ) ;
#1215 = EDGE_LOOP ( 'NONE', ( #923, #1109, #808, #938, #171, #1202 ) ) ;
#1216 = AXIS2_PLACEMENT_3D ( 'NONE', #949, #868, #674 ) ;
#1217 = CIRCLE ( 'NONE', #820, 2.500000000000000444 ) ;
#1218 = LINE ( 'NONE', #99, #172 ) ;
#1219 = LINE ( 'NONE', #303, #1196 ) ;
#1220 = EDGE_CURVE ( 'NONE', #847, #735, #1218, .T. ) ;
#1221 = ORIENTED_EDGE ( 'NONE', *, *, #475, .F. ) ;
#1222 = FACE_OUTER_BOUND ( 'NONE', #77, .T. ) ;
#1223 = CYLINDRICAL_SURFACE ( 'NONE', #653, 1.500000000000001332 ) ;
#1224 = EDGE_LOOP ( 'NONE', ( #83, #41, #505, #1207 ) ) ;
#1225 = ORIENTED_EDGE ( 'NONE', *, *, #84, .F. ) ;
#1226 = COORDINATED_UNIVERSAL_TIME_OFFSET ( 5, 30, .AHEAD. ) ;
#1227 = CARTESIAN_POINT ( 'NONE',  ( 4.750000000000015099, -28.25000000000000711, 3.000000000000000888 ) ) ;
ENDSEC;
END-ISO-10303-21;
