ISO-10303-21;
HEADER;
FILE_DESCRIPTION (( 'STEP AP203' ),
    '1' );
FILE_NAME ('Coupling_Default_sldprt.STEP',
    '2026-09-09T04:16:04',
    ( '' ),
    ( '' ),
    'SwSTEP 2.0',
    'SolidWorks 2020',
    '' );
FILE_SCHEMA (( 'CONFIG_CONTROL_DESIGN' ));
ENDSEC;

DATA;
#1 = CARTESIAN_POINT ( 'NONE',  ( -5.920671847850514702, -0.9737778612005489887, -6.262636241153495043 ) ) ;
#2 = CARTESIAN_POINT ( 'NONE',  ( 3.953614380922479743, 0.6145853434051686826, 6.799553862224012590 ) ) ;
#3 = CARTESIAN_POINT ( 'NONE',  ( -5.916088184763879987, 0.9999502950802097168, -5.868918508099885578 ) ) ;
#4 = CARTESIAN_POINT ( 'NONE',  ( -3.969858145330399157, -0.5048232406146755391, -5.126987308606508975 ) ) ;
#5 = CARTESIAN_POINT ( 'NONE',  ( -10.00000000000000000, 1.224646799147355179E-16, -4.999999999999998224 ) ) ;
#6 = DIRECTION ( 'NONE',  ( 1.000000000000000000, -0.000000000000000000, -0.000000000000000000 ) ) ;
#7 = CARTESIAN_POINT ( 'NONE',  ( -5.995505046955614148, -0.2619456584322029657, 5.026071939286478774 ) ) ;
#8 = EDGE_CURVE ( 'NONE', #278, #533, #336, .T. ) ;
#9 = LOCAL_TIME ( 9, 46, 4.000000000000000000, #703 ) ;
#10 = CARTESIAN_POINT ( 'NONE',  ( -5.980084330432665851, 0.5031281619707743680, 5.126022727445253224 ) ) ;
#11 = LINE ( 'NONE', #252, #513 ) ;
#12 = EDGE_CURVE ( 'NONE', #110, #366, #637, .T. ) ;
#13 =( NAMED_UNIT ( * ) SI_UNIT ( $, .STERADIAN. ) SOLID_ANGLE_UNIT ( ) );
#14 = CARTESIAN_POINT ( 'NONE',  ( -5.969178481556063787, 0.6144377077729902270, 5.200339668577359298 ) ) ;
#15 = FACE_OUTER_BOUND ( 'NONE', #547, .T. ) ;
#16 = CARTESIAN_POINT ( 'NONE',  ( 3.872993992554537801, -0.9999587668730113288, -5.867770180639414690 ) ) ;
#17 = CARTESIAN_POINT ( 'NONE',  ( 5.936248257219506108, -0.8737888311110053596, 5.496558148587830317 ) ) ;
#18 = CARTESIAN_POINT ( 'NONE',  ( 3.993186561566759440, -0.2628729541220253818, -5.026396860804724476 ) ) ;
#19 = DIRECTION ( 'NONE',  ( 1.000000000000000000, 0.000000000000000000, 0.000000000000000000 ) ) ;
#20 = VECTOR ( 'NONE', #190, 1000.000000000000000 ) ;
#21 = ORIENTED_EDGE ( 'NONE', *, *, #137, .T. ) ;
#22 = B_SPLINE_CURVE_WITH_KNOTS ( 'NONE', 3,
 ( #85, #639, #468, #454, #392, #267, #731, #483, #610, #98, #804, #692, #393, #449, #120, #7, #76, #208 ),
 .UNSPECIFIED., .F., .F.,
 ( 4, 2, 2, 2, 2, 2, 2, 2, 4 ),
 ( 3.379126506159063230E-20, 0.0003914904498596255512, 0.0007829808997192509940, 0.001174471349578876545, 0.001565961799438501988, 0.001957452249298127431, 0.002348942699157753090, 0.002740433149017378316, 0.003131923598877003976 ),
 .UNSPECIFIED. ) ;
#23 = LINE ( 'NONE', #394, #661 ) ;
#24 = EDGE_LOOP ( 'NONE', ( #542, #215, #333, #739, #694, #530, #302, #347, #516, #596, #206, #471 ) ) ;
#25 = PERSON_AND_ORGANIZATION_ROLE ( 'design_supplier' ) ;
#26 = CARTESIAN_POINT ( 'NONE',  ( 6.000000000000000000, -0.1323933160975633572, 4.999999999999998224 ) ) ;
#27 = ORIENTED_EDGE ( 'NONE', *, *, #696, .F. ) ;
#28 = EDGE_LOOP ( 'NONE', ( #102, #440, #339, #796 ) ) ;
#29 = DIRECTION ( 'NONE',  ( 0.000000000000000000, 0.000000000000000000, -1.000000000000000000 ) ) ;
#30 = EDGE_CURVE ( 'NONE', #769, #457, #528, .T. ) ;
#31 = CARTESIAN_POINT ( 'NONE',  ( 4.000000000000000000, 4.898577305309523487E-16, -4.999999999999998224 ) ) ;
#32 = ORIENTED_EDGE ( 'NONE', *, *, #128, .F. ) ;
#33 = CIRCLE ( 'NONE', #348, 4.000000000000000000 ) ;
#34 = ORIENTED_EDGE ( 'NONE', *, *, #313, .T. ) ;
#35 = CYLINDRICAL_SURFACE ( 'NONE', #647, 1.000000000000001776 ) ;
#36 = CARTESIAN_POINT ( 'NONE',  ( 6.000000000000000000, -0.1323602877612180262, -7.000000000000001776 ) ) ;
#37 = CYLINDRICAL_SURFACE ( 'NONE', #163, 1.000000000000001776 ) ;
#38 = PERSON ( 'UNSPECIFIED', 'UNSPECIFIED', 'UNSPECIFIED', ('UNSPECIFIED'), ('UNSPECIFIED'), ('UNSPECIFIED') ) ;
#39 = CARTESIAN_POINT ( 'NONE',  ( 5.999999999999999112, 7.347880794884118750E-16, 10.00000000000000000 ) ) ;
#40 = ORIENTED_EDGE ( 'NONE', *, *, #702, .F. ) ;
#41 = B_SPLINE_CURVE_WITH_KNOTS ( 'NONE', 3,
 ( #116, #438, #508, #10, #14, #66, #612, #667, #749, #673, #755, #378, #193, #447, #62, #621, #554, #371 ),
 .UNSPECIFIED., .F., .F.,
 ( 4, 2, 2, 2, 2, 2, 2, 2, 4 ),
 ( 0.003131923598877003976, 0.003523316383094321751, 0.003914709167311639093, 0.004306101951528956868, 0.004697494735746275511, 0.005088887519963593287, 0.005480280304180910195, 0.005871673088398227970, 0.006263065872615545746 ),
 .UNSPECIFIED. ) ;
#42 = EDGE_CURVE ( 'NONE', #297, #674, #402, .T. ) ;
#43 = CARTESIAN_POINT ( 'NONE',  ( -4.000000000000000000, -9.891274455076596304E-22, -7.000000000000001776 ) ) ;
#44 = CARTESIAN_POINT ( 'NONE',  ( -3.969965223322160952, -0.5040697851665454365, 5.126501535645138219 ) ) ;
#45 = EDGE_CURVE ( 'NONE', #297, #710, #546, .T. ) ;
#46 = CARTESIAN_POINT ( 'NONE',  ( 4.000000000000000000, -4.134078698859513570E-18, 4.999999999999998224 ) ) ;
#47 = VERTEX_POINT ( 'NONE', #158 ) ;
#48 = AXIS2_PLACEMENT_3D ( 'NONE', #569, #381, #498 ) ;
#49 = CARTESIAN_POINT ( 'NONE',  ( -3.903976002541358792, 0.8727396029839832314, 5.494353331437611843 ) ) ;
#50 = CARTESIAN_POINT ( 'NONE',  ( 3.879948393309026855, -0.9740030178010133932, 6.261906783063801996 ) ) ;
#51 = ORIENTED_EDGE ( 'NONE', *, *, #636, .T. ) ;
#52 = CARTESIAN_POINT ( 'NONE',  ( -3.953614380922479743, 0.6145853434051685715, 5.200446137775988298 ) ) ;
#53 = CARTESIAN_POINT ( 'NONE',  ( 3.880024974703066398, 0.9736797867424588082, 5.737322685224671481 ) ) ;
#54 = ORIENTED_EDGE ( 'NONE', *, *, #8, .T. ) ;
#55 = DIRECTION ( 'NONE',  ( 1.000000000000000000, 0.000000000000000000, 0.000000000000000000 ) ) ;
#56 = LINE ( 'NONE', #503, #723 ) ;
#57 = EDGE_LOOP ( 'NONE', ( #645, #54, #219, #162 ) ) ;
#58 = DIRECTION ( 'NONE',  ( -1.000000000000000000, 0.000000000000000000, 0.000000000000000000 ) ) ;
#59 = VECTOR ( 'NONE', #443, 1000.000000000000000 ) ;
#60 = DIRECTION ( 'NONE',  ( 1.000000000000000000, 0.000000000000000000, 0.000000000000000000 ) ) ;
#61 = B_SPLINE_CURVE_WITH_KNOTS ( 'NONE', 3,
 ( #268, #711, #18, #519, #459, #200, #408, #576, #16, #353, #226, #476, #305, #322, #314, #196, #568, #623 ),
 .UNSPECIFIED., .F., .F.,
 ( 4, 2, 2, 2, 2, 2, 2, 2, 4 ),
 ( 0.003138948259726313719, 0.003531211055919537042, 0.003923473852112759931, 0.004315736648305983254, 0.004707999444499206577, 0.005100262240692429901, 0.005492525036885653224, 0.005884787833078876547, 0.006277050629272099870 ),
 .UNSPECIFIED. ) ;
#62 = CARTESIAN_POINT ( 'NONE',  ( -5.979983180450074265, 0.5042987395407719786, 6.873293041799770187 ) ) ;
#63 = CARTESIAN_POINT ( 'NONE',  ( 3.872972725026414320, 1.000041135659531122, 5.868394576239722937 ) ) ;
#64 = CARTESIAN_POINT ( 'NONE',  ( -5.999999999999999112, 0.1323933160975633294, -4.999999999999999112 ) ) ;
#65 = CARTESIAN_POINT ( 'NONE',  ( 0.000000000000000000, 0.000000000000000000, 0.000000000000000000 ) ) ;
#66 = CARTESIAN_POINT ( 'NONE',  ( -5.947301735519283206, 0.7988914244718235969, 5.384562891686183406 ) ) ;
#67 = ADVANCED_FACE ( 'NONE', ( #795 ), #296, .F. ) ;
#68 = CARTESIAN_POINT ( 'NONE',  ( 0.000000000000000000, 0.000000000000000000, -10.00000000000000000 ) ) ;
#69 = DIRECTION ( 'NONE',  ( -0.000000000000000000, -0.000000000000000000, -1.000000000000000000 ) ) ;
#70 = AXIS2_PLACEMENT_3D ( 'NONE', #65, #743, #60 ) ;
#71 = CARTESIAN_POINT ( 'NONE',  ( -5.999999999999999112, 0.000000000000000000, 10.00000000000000000 ) ) ;
#72 = CYLINDRICAL_SURFACE ( 'NONE', #96, 1.000000000000001776 ) ;
#73 = EDGE_CURVE ( 'NONE', #457, #769, #800, .T. ) ;
#74 = CARTESIAN_POINT ( 'NONE',  ( 5.999999999999999112, 3.478057330786736548E-17, 4.999999999999998224 ) ) ;
#75 = ORIENTED_EDGE ( 'NONE', *, *, #12, .T. ) ;
#76 = CARTESIAN_POINT ( 'NONE',  ( -6.000000000000000888, -0.1306497350717332750, 4.999999999999998224 ) ) ;
#77 = CARTESIAN_POINT ( 'NONE',  ( 5.999999999999999112, 7.347881242104880842E-16, 7.000000000000001776 ) ) ;
#78 = ORIENTED_EDGE ( 'NONE', *, *, #90, .T. ) ;
#79 = CARTESIAN_POINT ( 'NONE',  ( 5.969178481556065563, 0.6144377077729914483, 6.799660331422638038 ) ) ;
#80 = PRODUCT_DEFINITION_FORMATION_WITH_SPECIFIED_SOURCE ( 'ANY', '', #729, .NOT_KNOWN. ) ;
#81 = VERTEX_POINT ( 'NONE', #39 ) ;
#82 = ADVANCED_FACE ( 'NONE', ( #536 ), #286, .F. ) ;
#83 = APPROVAL_ROLE ( '' ) ;
#84 = CARTESIAN_POINT ( 'NONE',  ( 5.999999999999999112, 7.347880794884118750E-16, -10.00000000000000000 ) ) ;
#85 = CARTESIAN_POINT ( 'NONE',  ( -5.999999999999999112, 3.478057330786736548E-17, 7.000000000000001776 ) ) ;
#86 = EDGE_LOOP ( 'NONE', ( #469, #524 ) ) ;
#87 = DIRECTION ( 'NONE',  ( -0.000000000000000000, -0.000000000000000000, -1.000000000000000000 ) ) ;
#88 = APPLICATION_CONTEXT ( 'configuration controlled 3d designs of mechanical parts and assemblies' ) ;
#89 = CARTESIAN_POINT ( 'NONE',  ( 3.920467691607483651, 0.7991479083213427481, -6.615009847519799813 ) ) ;
#90 = EDGE_CURVE ( 'NONE', #357, #643, #429, .T. ) ;
#91 = ORIENTED_EDGE ( 'NONE', *, *, #385, .T. ) ;
#92 = CARTESIAN_POINT ( 'NONE',  ( 5.979990686694992341, -0.5044069930203340935, 5.126642567720957722 ) ) ;
#93 = EDGE_LOOP ( 'NONE', ( #405, #369 ) ) ;
#94 = CARTESIAN_POINT ( 'NONE',  ( -3.953670644936868150, -0.6142897454956635084, 5.200116341130044617 ) ) ;
#95 = CARTESIAN_POINT ( 'NONE',  ( -10.00000000000000000, 0.000000000000000000, 4.999999999999998224 ) ) ;
#96 = AXIS2_PLACEMENT_3D ( 'NONE', #758, #258, #327 ) ;
#97 = CC_DESIGN_DATE_AND_TIME_ASSIGNMENT ( #458, #691, ( #708 ) ) ;
#98 = CARTESIAN_POINT ( 'NONE',  ( -5.916071405810141570, -1.000049560716555597, 5.869677990115323318 ) ) ;
#99 = DIRECTION ( 'NONE',  ( 1.000000000000000000, -0.000000000000000000, -0.000000000000000000 ) ) ;
#100 = CARTESIAN_POINT ( 'NONE',  ( 5.999999999999999112, 7.347880347662832066E-16, -4.999999999999998224 ) ) ;
#101 = CARTESIAN_POINT ( 'NONE',  ( 6.000000000000000888, 0.1306497350717336636, -5.000000000000000000 ) ) ;
#102 = ORIENTED_EDGE ( 'NONE', *, *, #137, .F. ) ;
#103 = LINE ( 'NONE', #358, #188 ) ;
#104 = CARTESIAN_POINT ( 'NONE',  ( -3.872997553993024589, -0.9999449734778005361, 6.131452763206869605 ) ) ;
#105 = DIRECTION ( 'NONE',  ( 1.000000000000000000, -0.000000000000000000, -0.000000000000000000 ) ) ;
#106 = ORIENTED_EDGE ( 'NONE', *, *, #741, .T. ) ;
#107 = CARTESIAN_POINT ( 'NONE',  ( 5.999999999999999112, 3.478057330786736548E-17, 4.999999999999998224 ) ) ;
#108 = CARTESIAN_POINT ( 'NONE',  ( -4.000000000000000000, 9.891274455076596304E-22, 4.999999999999998224 ) ) ;
#109 = CARTESIAN_POINT ( 'NONE',  ( 5.969096820685153126, 0.6152055445546381618, -6.799049686702675288 ) ) ;
#110 = VERTEX_POINT ( 'NONE', #499 ) ;
#111 = CARTESIAN_POINT ( 'NONE',  ( -3.969869395575870819, 0.5048887612555239546, -5.126926490991847274 ) ) ;
#112 = DIRECTION ( 'NONE',  ( 0.000000000000000000, 0.000000000000000000, -1.000000000000000000 ) ) ;
#113 = ORIENTED_EDGE ( 'NONE', *, *, #659, .T. ) ;
#114 = EDGE_CURVE ( 'NONE', #674, #297, #135, .T. ) ;
#115 = FACE_OUTER_BOUND ( 'NONE', #745, .T. ) ;
#116 = CARTESIAN_POINT ( 'NONE',  ( -5.999999999999999112, 4.472210243878960127E-23, 4.999999999999998224 ) ) ;
#117 = CARTESIAN_POINT ( 'NONE',  ( 3.969995828464053744, 0.5037600891934793657, 6.873630949082918384 ) ) ;
#118 = ORIENTED_EDGE ( 'NONE', *, *, #298, .F. ) ;
#119 = CARTESIAN_POINT ( 'NONE',  ( 4.000000000000000000, -4.134078698859513570E-18, 4.999999999999998224 ) ) ;
#120 = CARTESIAN_POINT ( 'NONE',  ( -5.980031194523149907, -0.5039079366032431784, 5.126370681098129545 ) ) ;
#121 = CARTESIAN_POINT ( 'NONE',  ( -3.953413208705572224, -0.6157976398963517228, -5.201479720889035541 ) ) ;
#122 = CARTESIAN_POINT ( 'NONE',  ( -4.000000000000000000, -4.134078698859513570E-18, 7.000000000000001776 ) ) ;
#123 = DIRECTION ( 'NONE',  ( 1.000000000000000000, -0.000000000000000000, -0.000000000000000000 ) ) ;
#124 = CARTESIAN_POINT ( 'NONE',  ( -5.936271176698232566, 0.8736516769106875691, -6.503932284213237658 ) ) ;
#125 = AXIS2_PLACEMENT_3D ( 'NONE', #131, #129, #58 ) ;
#126 = DIRECTION ( 'NONE',  ( 0.000000000000000000, 0.000000000000000000, -1.000000000000000000 ) ) ;
#127 = CARTESIAN_POINT ( 'NONE',  ( -5.916093360767513687, -0.9999196734182665969, -6.132740440449313546 ) ) ;
#128 = EDGE_CURVE ( 'NONE', #487, #278, #320, .T. ) ;
#129 = DIRECTION ( 'NONE',  ( -0.000000000000000000, -0.000000000000000000, -1.000000000000000000 ) ) ;
#130 = FACE_BOUND ( 'NONE', #93, .T. ) ;
#131 = CARTESIAN_POINT ( 'NONE',  ( 0.000000000000000000, 0.000000000000000000, 10.00000000000000000 ) ) ;
#132 = DIRECTION ( 'NONE',  ( -0.000000000000000000, -0.000000000000000000, -1.000000000000000000 ) ) ;
#133 = AXIS2_PLACEMENT_3D ( 'NONE', #453, #756, #148 ) ;
#134 = APPROVAL_STATUS ( 'not_yet_approved' ) ;
#135 = B_SPLINE_CURVE_WITH_KNOTS ( 'NONE', 3,
 ( #551, #179, #439, #117, #2, #495, #798, #433, #316, #63, #53, #744, #242, #301, #555, #182, #375, #620 ),
 .UNSPECIFIED., .F., .F.,
 ( 4, 2, 2, 2, 2, 2, 2, 2, 4 ),
 ( 0.003138948259726314586, 0.003531211055919537909, 0.003923473852112760799, 0.004315736648305984122, 0.004707999444499207445, 0.005100262240692430768, 0.005492525036885654091, 0.005884787833078877414, 0.006277050629272099870 ),
 .UNSPECIFIED. ) ;
#136 = CARTESIAN_POINT ( 'NONE',  ( 3.953463112640607680, 0.6154946931554466927, -6.798774545549736814 ) ) ;
#137 = EDGE_CURVE ( 'NONE', #674, #145, #808, .T. ) ;
#138 = PERSON_AND_ORGANIZATION ( #38, #570 ) ;
#139 = CARTESIAN_POINT ( 'NONE',  ( 5.920699391845023030, -0.9735856429312850224, 5.737147160932726919 ) ) ;
#140 = CC_DESIGN_PERSON_AND_ORGANIZATION_ASSIGNMENT ( #210, #25, ( #80 ) ) ;
#141 = CARTESIAN_POINT ( 'NONE',  ( -5.995407492418038053, -0.2638277032948922463, -5.026679447184821292 ) ) ;
#142 = CYLINDRICAL_SURFACE ( 'NONE', #212, 5.999999999999999112 ) ;
#143 = CARTESIAN_POINT ( 'NONE',  ( 5.995472630654517410, 0.2624013748573175708, 6.973714403089177338 ) ) ;
#144 = CARTESIAN_POINT ( 'NONE',  ( 3.953670644936868150, 0.6142897454956636194, -5.200116341130043729 ) ) ;
#145 = VERTEX_POINT ( 'NONE', #386 ) ;
#146 = DATE_TIME_ROLE ( 'classification_date' ) ;
#147 = VECTOR ( 'NONE', #618, 1000.000000000000000 ) ;
#148 = DIRECTION ( 'NONE',  ( 1.000000000000000000, 0.000000000000000000, 0.000000000000000000 ) ) ;
#149 = DIRECTION ( 'NONE',  ( 1.000000000000000000, -0.000000000000000000, -0.000000000000000000 ) ) ;
#150 = CC_DESIGN_SECURITY_CLASSIFICATION ( #199, ( #80 ) ) ;
#151 = FACE_BOUND ( 'NONE', #86, .T. ) ;
#152 = ORIENTED_EDGE ( 'NONE', *, *, #164, .T. ) ;
#153 = ORIENTED_EDGE ( 'NONE', *, *, #407, .F. ) ;
#154 = B_SPLINE_CURVE_WITH_KNOTS ( 'NONE', 3,
 ( #577, #699, #143, #630, #79, #337, #583, #290, #280, #598, #734, #545, #241, #540, #781, #714, #420, #285 ),
 .UNSPECIFIED., .F., .F.,
 ( 4, 2, 2, 2, 2, 2, 2, 2, 4 ),
 ( 0.003131923598877004843, 0.003523316383094322619, 0.003914709167311639960, 0.004306101951528957736, 0.004697494735746275511, 0.005088887519963593287, 0.005480280304180910195, 0.005871673088398227970, 0.006263065872615545746 ),
 .UNSPECIFIED. ) ;
#155 = CARTESIAN_POINT ( 'NONE',  ( 5.995491482261827265, -0.2622916576876613282, 5.026150573531864119 ) ) ;
#156 = ORIENTED_EDGE ( 'NONE', *, *, #313, .F. ) ;
#157 = CARTESIAN_POINT ( 'NONE',  ( -3.903788882833201246, -0.8735372258408632407, 6.503866167886741323 ) ) ;
#158 = CARTESIAN_POINT ( 'NONE',  ( -4.000000000000000000, 4.134078698859513570E-18, -4.999999999999998224 ) ) ;
#159 = CARTESIAN_POINT ( 'NONE',  ( -3.872993992554538245, 0.9999587668730113288, 5.867770180639415578 ) ) ;
#160 = CARTESIAN_POINT ( 'NONE',  ( -4.000000000000000000, 0.000000000000000000, 10.00000000000000000 ) ) ;
#161 = CARTESIAN_POINT ( 'NONE',  ( 5.980031194523150795, 0.5039079366032440666, -5.126370681098129545 ) ) ;
#162 = ORIENTED_EDGE ( 'NONE', *, *, #419, .F. ) ;
#163 = AXIS2_PLACEMENT_3D ( 'NONE', #780, #473, #418 ) ;
#164 = EDGE_CURVE ( 'NONE', #587, #769, #625, .T. ) ;
#165 = CARTESIAN_POINT ( 'NONE',  ( -3.880087007359552587, 0.9734268036074583685, -5.736582730085539872 ) ) ;
#166 = B_SPLINE_CURVE_WITH_KNOTS ( 'NONE', 3,
 ( #720, #535, #171, #656, #228, #479, #157, #425, #104, #725, #601, #300, #550, #94, #44, #430, #794, #108 ),
 .UNSPECIFIED., .F., .F.,
 ( 4, 2, 2, 2, 2, 2, 2, 2, 4 ),
 ( 4.015188034936748514E-21, 0.0003923685324657892690, 0.0007847370649315785381, 0.001177105597397367807, 0.001569474129863157076, 0.001961842662328946128, 0.002354211194794735614, 0.002746579727260525100, 0.003138948259726314152 ),
 .UNSPECIFIED. ) ;
#167 = CARTESIAN_POINT ( 'NONE',  ( 3.872997553993025921, -0.9999449734778007581, 5.868547236793135724 ) ) ;
#168 = CARTESIAN_POINT ( 'NONE',  ( -3.999999999999999112, 0.1327117393334320550, -4.999999999999997335 ) ) ;
#169 = CARTESIAN_POINT ( 'NONE',  ( 3.903862007818519331, -0.8732369880725069367, 6.504712001405122734 ) ) ;
#170 = CARTESIAN_POINT ( 'NONE',  ( -3.920392233738140053, 0.7996175296367108443, -6.614636124423222796 ) ) ;
#171 = CARTESIAN_POINT ( 'NONE',  ( -3.993201599367474763, -0.2629004868407572859, 6.973680310673294080 ) ) ;
#172 = CARTESIAN_POINT ( 'NONE',  ( 3.953463112640606791, -0.6154946931554469147, 5.201225454450264074 ) ) ;
#173 = VERTEX_POINT ( 'NONE', #509 ) ;
#174 = VECTOR ( 'NONE', #149, 1000.000000000000000 ) ;
#175 = ADVANCED_FACE ( 'NONE', ( #15 ), #72, .F. ) ;
#176 = CC_DESIGN_APPROVAL ( #319, ( #199 ) ) ;
#177 = DIRECTION ( 'NONE',  ( -0.000000000000000000, -0.000000000000000000, -1.000000000000000000 ) ) ;
#178 = CARTESIAN_POINT ( 'NONE',  ( -4.000000000000000000, 0.000000000000000000, 10.00000000000000000 ) ) ;
#179 = CARTESIAN_POINT ( 'NONE',  ( 4.000000000000000888, 0.1308039184816920386, 7.000000000000002665 ) ) ;
#180 = CYLINDRICAL_SURFACE ( 'NONE', #125, 5.999999999999999112 ) ;
#181 =( NAMED_UNIT ( * ) PLANE_ANGLE_UNIT ( ) SI_UNIT ( $, .RADIAN. ) );
#182 = CARTESIAN_POINT ( 'NONE',  ( 3.993101993507432557, 0.2641148760630697701, 5.026736933896597925 ) ) ;
#183 = EDGE_LOOP ( 'NONE', ( #807, #274, #518, #350 ) ) ;
#184 = CARTESIAN_POINT ( 'NONE',  ( -5.920699391845023030, 0.9735856429312850224, -5.737147160932726919 ) ) ;
#185 = EDGE_CURVE ( 'NONE', #643, #674, #247, .T. ) ;
#186 = CARTESIAN_POINT ( 'NONE',  ( -5.999999999999999112, -0.1306171417088610176, -7.000000000000001776 ) ) ;
#187 = EDGE_CURVE ( 'NONE', #366, #698, #477, .T. ) ;
#188 = VECTOR ( 'NONE', #600, 1000.000000000000000 ) ;
#189 = CARTESIAN_POINT ( 'NONE',  ( -3.879973766560979254, -0.9739130422342942017, -6.262385887979563748 ) ) ;
#190 = DIRECTION ( 'NONE',  ( -0.000000000000000000, -0.000000000000000000, -1.000000000000000000 ) ) ;
#191 = APPROVAL ( #216, 'UNSPECIFIED' ) ;
#192 = CARTESIAN_POINT ( 'NONE',  ( -10.00000000000000000, 0.000000000000000000, -6.000000000000000000 ) ) ;
#193 = CARTESIAN_POINT ( 'NONE',  ( -5.947211616899245712, 0.7995298244854598391, 6.614560146198586565 ) ) ;
#194 = CARTESIAN_POINT ( 'NONE',  ( -10.00000000000000000, 0.000000000000000000, -7.000000000000001776 ) ) ;
#195 = MECHANICAL_CONTEXT ( 'NONE', #668, 'mechanical' ) ;
#196 = CARTESIAN_POINT ( 'NONE',  ( 3.993101993507429004, -0.2641148760630704917, -6.973263066103405627 ) ) ;
#197 = CARTESIAN_POINT ( 'NONE',  ( -5.995505046955614148, 0.2619456584322029657, -6.973928060713523003 ) ) ;
#198 = AXIS2_PLACEMENT_3D ( 'NONE', #622, #501, #445 ) ;
#199 = SECURITY_CLASSIFICATION ( '', '', #634 ) ;
#200 = CARTESIAN_POINT ( 'NONE',  ( 3.920495757085995070, -0.7990587187661486457, -5.384771028892830103 ) ) ;
#201 = CARTESIAN_POINT ( 'NONE',  ( 5.947135855825864681, -0.8002302970946538752, 6.613982267877005938 ) ) ;
#202 = PRODUCT_RELATED_PRODUCT_CATEGORY ( 'detail', '', ( #729 ) ) ;
#203 = CARTESIAN_POINT ( 'NONE',  ( 3.872969183810250904, 1.000054850733511635, -5.869385780013764098 ) ) ;
#204 = CALENDAR_DATE ( 2026, 9, 9 ) ;
#205 = DIRECTION ( 'NONE',  ( 0.000000000000000000, 0.000000000000000000, -1.000000000000000000 ) ) ;
#206 = ORIENTED_EDGE ( 'NONE', *, *, #266, .F. ) ;
#207 = PERSON_AND_ORGANIZATION_ROLE ( 'creator' ) ;
#208 = CARTESIAN_POINT ( 'NONE',  ( -5.999999999999999112, 4.472210243878960127E-23, 4.999999999999998224 ) ) ;
#209 = DIRECTION ( 'NONE',  ( 1.000000000000000000, 0.000000000000000000, 0.000000000000000000 ) ) ;
#210 = PERSON_AND_ORGANIZATION ( #38, #570 ) ;
#211 = CARTESIAN_POINT ( 'NONE',  ( -5.916066267613697249, -1.000079958708139038, -5.868472611179661236 ) ) ;
#212 = AXIS2_PLACEMENT_3D ( 'NONE', #272, #87, #451 ) ;
#213 = CYLINDRICAL_SURFACE ( 'NONE', #292, 1.000000000000001776 ) ;
#214 = CIRCLE ( 'NONE', #707, 5.999999999999999112 ) ;
#215 = ORIENTED_EDGE ( 'NONE', *, *, #562, .F. ) ;
#216 = APPROVAL_STATUS ( 'not_yet_approved' ) ;
#217 = DIRECTION ( 'NONE',  ( 1.000000000000000000, -0.000000000000000000, -0.000000000000000000 ) ) ;
#218 = CARTESIAN_POINT ( 'NONE',  ( -5.999999999999999112, -4.472210243878960127E-23, -7.000000000000001776 ) ) ;
#219 = ORIENTED_EDGE ( 'NONE', *, *, #452, .T. ) ;
#220 = CARTESIAN_POINT ( 'NONE',  ( 5.999999999999999112, -3.478057330786736548E-17, -7.000000000000001776 ) ) ;
#221 = ORIENTED_EDGE ( 'NONE', *, *, #628, .F. ) ;
#222 = CARTESIAN_POINT ( 'NONE',  ( -3.969995828464051968, 0.5037600891934789216, 5.126369050917082504 ) ) ;
#223 = EDGE_CURVE ( 'NONE', #654, #345, #680, .T. ) ;
#224 = CARTESIAN_POINT ( 'NONE',  ( 5.936271176698235230, 0.8736516769106876801, -5.496067715786760566 ) ) ;
#225 = ORIENTED_EDGE ( 'NONE', *, *, #363, .F. ) ;
#226 = CARTESIAN_POINT ( 'NONE',  ( 3.880024974703065510, -0.9736797867424590303, -6.262677314775328519 ) ) ;
#227 = CARTESIAN_POINT ( 'NONE',  ( -3.880024974703066398, 0.9736797867424589192, 6.262677314775329407 ) ) ;
#228 = CARTESIAN_POINT ( 'NONE',  ( -3.953463112640607680, -0.6154946931554466927, 6.798774545549736814 ) ) ;
#229 = CARTESIAN_POINT ( 'NONE',  ( 0.000000000000000000, 0.000000000000000000, 10.00000000000000000 ) ) ;
#230 = AXIS2_PLACEMENT_3D ( 'NONE', #281, #105, #112 ) ;
#231 = APPROVAL ( #559, 'UNSPECIFIED' ) ;
#232 = ORIENTED_EDGE ( 'NONE', *, *, #702, .T. ) ;
#233 = AXIS2_PLACEMENT_3D ( 'NONE', #240, #490, #478 ) ;
#234 = CARTESIAN_POINT ( 'NONE',  ( -3.872997553993024589, 0.9999449734778005361, -5.868547236793132171 ) ) ;
#235 = CARTESIAN_POINT ( 'NONE',  ( 5.979983180450074265, -0.5042987395407718676, -6.873293041799770187 ) ) ;
#236 = CARTESIAN_POINT ( 'NONE',  ( 4.000000000000000000, 4.134078698859513570E-18, -7.000000000000001776 ) ) ;
#237 = CARTESIAN_POINT ( 'NONE',  ( 5.947240459526507372, 0.7993282387951127221, -6.614843582169574354 ) ) ;
#238 = ORIENTED_EDGE ( 'NONE', *, *, #45, .F. ) ;
#239 = EDGE_CURVE ( 'NONE', #360, #47, #11, .T. ) ;
#240 = CARTESIAN_POINT ( 'NONE',  ( 0.000000000000000000, 0.000000000000000000, 10.00000000000000000 ) ) ;
#241 = CARTESIAN_POINT ( 'NONE',  ( 5.947211616899244824, 0.7995298244854587288, 5.385439853801413435 ) ) ;
#242 = CARTESIAN_POINT ( 'NONE',  ( 3.920449918490174213, 0.7992216017350888269, 5.385112855254421405 ) ) ;
#243 = ORIENTED_EDGE ( 'NONE', *, *, #689, .F. ) ;
#244 = AXIS2_PLACEMENT_3D ( 'NONE', #582, #276, #515 ) ;
#245 = CC_DESIGN_PERSON_AND_ORGANIZATION_ASSIGNMENT ( #317, #207, ( #708 ) ) ;
#246 = CARTESIAN_POINT ( 'NONE',  ( -4.000000000000000000, 9.891274455076596304E-22, 4.999999999999998224 ) ) ;
#247 = LINE ( 'NONE', #750, #20 ) ;
#248 = DIRECTION ( 'NONE',  ( 1.000000000000000000, 0.000000000000000000, -0.000000000000000000 ) ) ;
#249 = CARTESIAN_POINT ( 'NONE',  ( -5.969238533166610239, 0.6139908388540981088, -6.800223720879874811 ) ) ;
#250 = FACE_OUTER_BOUND ( 'NONE', #406, .T. ) ;
#251 = LINE ( 'NONE', #494, #253 ) ;
#252 = CARTESIAN_POINT ( 'NONE',  ( -4.000000000000000000, 0.000000000000000000, 10.00000000000000000 ) ) ;
#253 = VECTOR ( 'NONE', #624, 1000.000000000000000 ) ;
#254 =( GEOMETRIC_REPRESENTATION_CONTEXT ( 3 ) GLOBAL_UNCERTAINTY_ASSIGNED_CONTEXT ( ( #361 ) ) GLOBAL_UNIT_ASSIGNED_CONTEXT ( ( #616, #181, #13 ) ) REPRESENTATION_CONTEXT ( 'NONE', 'WORKASPACE' ) );
#255 = CARTESIAN_POINT ( 'NONE',  ( 4.000000000000000888, 0.1308391772901019434, -4.999999999999999112 ) ) ;
#256 = CARTESIAN_POINT ( 'NONE',  ( 5.999999999999999112, 7.347880794884118750E-16, 10.00000000000000000 ) ) ;
#257 = ADVANCED_FACE ( 'NONE', ( #740 ), #180, .T. ) ;
#258 = DIRECTION ( 'NONE',  ( 1.000000000000000000, -0.000000000000000000, -0.000000000000000000 ) ) ;
#259 = CARTESIAN_POINT ( 'NONE',  ( 5.916088184763879987, -0.9999502950802094947, 5.868918508099886466 ) ) ;
#260 = CARTESIAN_POINT ( 'NONE',  ( -5.969051238897253420, -0.6156307853269497032, -5.201294265893190882 ) ) ;
#261 = VECTOR ( 'NONE', #379, 1000.000000000000000 ) ;
#262 = LOCAL_TIME ( 9, 46, 4.000000000000000000, #575 ) ;
#263 = CARTESIAN_POINT ( 'NONE',  ( 5.920620690450685508, -0.9740807849836142784, 6.261498802993307855 ) ) ;
#264 = ORIENTED_EDGE ( 'NONE', *, *, #525, .F. ) ;
#265 = ORIENTED_EDGE ( 'NONE', *, *, #768, .F. ) ;
#266 = EDGE_CURVE ( 'NONE', #710, #769, #571, .T. ) ;
#267 = CARTESIAN_POINT ( 'NONE',  ( -5.947240459526507372, -0.7993282387951125001, 6.614843582169574354 ) ) ;
#268 = CARTESIAN_POINT ( 'NONE',  ( 4.000000000000000000, 4.898577305309523487E-16, -4.999999999999998224 ) ) ;
#269 = DIRECTION ( 'NONE',  ( 1.000000000000000000, -0.000000000000000000, -0.000000000000000000 ) ) ;
#270 = CARTESIAN_POINT ( 'NONE',  ( -10.00000000000000000, 1.224646799147355179E-16, 7.000000000000001776 ) ) ;
#271 = EDGE_LOOP ( 'NONE', ( #265, #106, #632, #641, #658, #556, #774, #153, #156, #427, #640, #32 ) ) ;
#272 = CARTESIAN_POINT ( 'NONE',  ( 0.000000000000000000, 0.000000000000000000, 10.00000000000000000 ) ) ;
#273 = CARTESIAN_POINT ( 'NONE',  ( -5.980031194523149907, 0.5039079366032431784, -6.873629318901871343 ) ) ;
#274 = ORIENTED_EDGE ( 'NONE', *, *, #328, .F. ) ;
#275 = VECTOR ( 'NONE', #382, 1000.000000000000000 ) ;
#276 = DIRECTION ( 'NONE',  ( 1.000000000000000000, -0.000000000000000000, -0.000000000000000000 ) ) ;
#277 = CARTESIAN_POINT ( 'NONE',  ( 5.999999999999999112, -3.478057330786736548E-17, -7.000000000000001776 ) ) ;
#278 = VERTEX_POINT ( 'NONE', #505 ) ;
#279 = CARTESIAN_POINT ( 'NONE',  ( -10.00000000000000000, 0.000000000000000000, -6.000000000000000000 ) ) ;
#280 = CARTESIAN_POINT ( 'NONE',  ( 5.916093360767513687, 0.9999196734182668189, 6.132740440449312658 ) ) ;
#281 = CARTESIAN_POINT ( 'NONE',  ( -10.00000000000000000, 0.000000000000000000, 6.000000000000000000 ) ) ;
#282 = ORIENTED_EDGE ( 'NONE', *, *, #8, .F. ) ;
#283 = CARTESIAN_POINT ( 'NONE',  ( -3.903788882833201246, 0.8735372258408632407, -5.496133832113258677 ) ) ;
#284 = CC_DESIGN_PERSON_AND_ORGANIZATION_ASSIGNMENT ( #776, #331, ( #80 ) ) ;
#285 = CARTESIAN_POINT ( 'NONE',  ( 5.999999999999999112, 3.478057330786736548E-17, 4.999999999999998224 ) ) ;
#286 = CYLINDRICAL_SURFACE ( 'NONE', #762, 4.000000000000000000 ) ;
#287 = EDGE_LOOP ( 'NONE', ( #282, #722, #588, #232 ) ) ;
#288 = CARTESIAN_POINT ( 'NONE',  ( -5.920636045238165224, -0.9739805876847945632, -5.738286131855774741 ) ) ;
#289 = CARTESIAN_POINT ( 'NONE',  ( -4.000000000000000888, -0.1308039184816915945, -7.000000000000001776 ) ) ;
#290 = CARTESIAN_POINT ( 'NONE',  ( 5.920671847850517366, 0.9737778612005490997, 6.262636241153495043 ) ) ;
#291 = CARTESIAN_POINT ( 'NONE',  ( 3.920467691607482763, -0.7991479083213427481, 5.384990152480200187 ) ) ;
#292 = AXIS2_PLACEMENT_3D ( 'NONE', #390, #529, #205 ) ;
#293 = EDGE_LOOP ( 'NONE', ( #573, #113, #91, #40, #481, #492, #75, #225, #475, #308, #221, #717 ) ) ;
#294 = EDGE_CURVE ( 'NONE', #457, #609, #372, .T. ) ;
#295 = CARTESIAN_POINT ( 'NONE',  ( -3.903780981627171354, 0.8735789483019649193, 6.503896338438821090 ) ) ;
#296 = CYLINDRICAL_SURFACE ( 'NONE', #230, 1.000000000000001776 ) ;
#297 = VERTEX_POINT ( 'NONE', #119 ) ;
#298 = EDGE_CURVE ( 'NONE', #705, #457, #323, .T. ) ;
#299 = CARTESIAN_POINT ( 'NONE',  ( -3.872972725026414320, 1.000041135659531122, 6.131605423760277951 ) ) ;
#300 = CARTESIAN_POINT ( 'NONE',  ( -3.903862007818517998, -0.8732369880725072697, 5.495287998594875489 ) ) ;
#301 = CARTESIAN_POINT ( 'NONE',  ( 3.953413208705574000, 0.6157976398963520559, 5.201479720889036429 ) ) ;
#302 = ORIENTED_EDGE ( 'NONE', *, *, #407, .T. ) ;
#303 = B_SPLINE_CURVE_WITH_KNOTS ( 'NONE', 3,
 ( #597, #168, #733, #111, #362, #648, #283, #165, #234, #354, #548, #424, #170, #428, #534, #593, #662, #797 ),
 .UNSPECIFIED., .F., .F.,
 ( 4, 2, 2, 2, 2, 2, 2, 2, 4 ),
 ( 4.015188034936748514E-21, 0.0003923685324657892690, 0.0007847370649315785381, 0.001177105597397367807, 0.001569474129863157076, 0.001961842662328946128, 0.002354211194794735614, 0.002746579727260525100, 0.003138948259726314152 ),
 .UNSPECIFIED. ) ;
#304 = CC_DESIGN_PERSON_AND_ORGANIZATION_ASSIGNMENT ( #578, #466, ( #199 ) ) ;
#305 = CARTESIAN_POINT ( 'NONE',  ( 3.920449918490174213, -0.7992216017350894930, -6.614887144745578595 ) ) ;
#306 = CARTESIAN_POINT ( 'NONE',  ( -5.995472630654518298, -0.2624013748573165716, -6.973714403089177338 ) ) ;
#307 = DIRECTION ( 'NONE',  ( -1.000000000000000000, 0.000000000000000000, 0.000000000000000000 ) ) ;
#308 = ORIENTED_EDGE ( 'NONE', *, *, #328, .T. ) ;
#309 = VECTOR ( 'NONE', #541, 1000.000000000000000 ) ;
#310 = CARTESIAN_POINT ( 'NONE',  ( -5.995491482261826377, 0.2622916576876613837, -5.026150573531862342 ) ) ;
#311 = AXIS2_PLACEMENT_3D ( 'NONE', #712, #635, #19 ) ;
#312 = PERSON_AND_ORGANIZATION_ROLE ( 'design_owner' ) ;
#313 = EDGE_CURVE ( 'NONE', #345, #591, #384, .T. ) ;
#314 = CARTESIAN_POINT ( 'NONE',  ( 3.969858145330398269, -0.5048232406146760942, -6.873012691393491913 ) ) ;
#315 = CARTESIAN_POINT ( 'NONE',  ( -5.947301735519283206, -0.7988914244718235969, -6.615437108313815706 ) ) ;
#316 = CARTESIAN_POINT ( 'NONE',  ( 3.872993992554538245, 0.9999587668730113288, 6.132229819360587086 ) ) ;
#317 = PERSON_AND_ORGANIZATION ( #38, #570 ) ;
#318 = CARTESIAN_POINT ( 'NONE',  ( -4.000000000000000000, 0.000000000000000000, -10.00000000000000000 ) ) ;
#319 = APPROVAL ( #134, 'UNSPECIFIED' ) ;
#320 = LINE ( 'NONE', #686, #553 ) ;
#321 = CARTESIAN_POINT ( 'NONE',  ( -3.903976002541358792, -0.8727396029839832314, -6.505646668562387269 ) ) ;
#322 = CARTESIAN_POINT ( 'NONE',  ( 3.953413208705572224, -0.6157976398963526110, -6.798520279110966236 ) ) ;
#323 = LINE ( 'NONE', #194, #261 ) ;
#324 = LOCAL_TIME ( 9, 46, 4.000000000000000000, #441 ) ;
#325 = CARTESIAN_POINT ( 'NONE',  ( -4.000000000000000000, 4.134078698859513570E-18, -4.999999999999998224 ) ) ;
#326 = LINE ( 'NONE', #71, #147 ) ;
#327 = DIRECTION ( 'NONE',  ( 0.000000000000000000, 0.000000000000000000, -1.000000000000000000 ) ) ;
#328 = EDGE_CURVE ( 'NONE', #705, #587, #665, .T. ) ;
#329 = CARTESIAN_POINT ( 'NONE',  ( -5.999999999999999112, -3.478057330786736548E-17, -4.999999999999998224 ) ) ;
#330 = CARTESIAN_POINT ( 'NONE',  ( -5.999999999999999112, -4.472210243878960127E-23, -7.000000000000001776 ) ) ;
#331 = PERSON_AND_ORGANIZATION_ROLE ( 'creator' ) ;
#332 = FACE_OUTER_BOUND ( 'NONE', #552, .T. ) ;
#333 = ORIENTED_EDGE ( 'NONE', *, *, #128, .T. ) ;
#334 = CIRCLE ( 'NONE', #48, 4.000000000000000000 ) ;
#335 = CARTESIAN_POINT ( 'NONE',  ( 0.000000000000000000, 0.000000000000000000, -10.00000000000000000 ) ) ;
#336 = LINE ( 'NONE', #270, #174 ) ;
#337 = CARTESIAN_POINT ( 'NONE',  ( 5.947301735519284094, 0.7988914244718244850, 6.615437108313815706 ) ) ;
#338 = CARTESIAN_POINT ( 'NONE',  ( -6.000000000000000888, 0.1306497350717332750, -7.000000000000002665 ) ) ;
#339 = ORIENTED_EDGE ( 'NONE', *, *, #45, .T. ) ;
#340 = APPROVAL_DATE_TIME ( #391, #191 ) ;
#341 = LINE ( 'NONE', #778, #660 ) ;
#342 = ORIENTED_EDGE ( 'NONE', *, *, #687, .F. ) ;
#343 = COORDINATED_UNIVERSAL_TIME_OFFSET ( 5, 30, .AHEAD. ) ;
#344 = FACE_OUTER_BOUND ( 'NONE', #28, .T. ) ;
#345 = VERTEX_POINT ( 'NONE', #682 ) ;
#346 = CARTESIAN_POINT ( 'NONE',  ( 3.969869395575870819, 0.5048887612555237325, -6.873073509008152726 ) ) ;
#347 = ORIENTED_EDGE ( 'NONE', *, *, #696, .T. ) ;
#348 = AXIS2_PLACEMENT_3D ( 'NONE', #467, #399, #586 ) ;
#349 = CARTESIAN_POINT ( 'NONE',  ( 5.947240459526508261, -0.7993282387951125001, 5.385156417830424758 ) ) ;
#350 = ORIENTED_EDGE ( 'NONE', *, *, #73, .T. ) ;
#351 = CARTESIAN_POINT ( 'NONE',  ( 5.936362132114462398, -0.8730424326980924521, -5.495006902185634701 ) ) ;
#352 = CC_DESIGN_DATE_AND_TIME_ASSIGNMENT ( #463, #146, ( #199 ) ) ;
#353 = CARTESIAN_POINT ( 'NONE',  ( 3.872972725026414764, -1.000041135659531122, -6.131605423760276175 ) ) ;
#354 = CARTESIAN_POINT ( 'NONE',  ( -3.872969183810250904, 1.000054850733511635, -6.130614219986236790 ) ) ;
#355 = CARTESIAN_POINT ( 'NONE',  ( 5.999999999999999112, -0.1306171417088606013, -4.999999999999999112 ) ) ;
#356 = CARTESIAN_POINT ( 'NONE',  ( 5.920620690450686396, 0.9740807849836145005, -5.738501197006691257 ) ) ;
#357 = VERTEX_POINT ( 'NONE', #178 ) ;
#358 = CARTESIAN_POINT ( 'NONE',  ( -10.00000000000000000, 0.000000000000000000, -7.000000000000001776 ) ) ;
#359 = CARTESIAN_POINT ( 'NONE',  ( 4.000000000000000000, 4.898597087858433640E-16, 7.000000000000001776 ) ) ;
#360 = VERTEX_POINT ( 'NONE', #246 ) ;
#361 = UNCERTAINTY_MEASURE_WITH_UNIT (LENGTH_MEASURE( 1.000000000000000082E-05 ), #616, 'distance_accuracy_value', 'NONE');
#362 = CARTESIAN_POINT ( 'NONE',  ( -3.953463112640607680, 0.6154946931554466927, -5.201225454450264962 ) ) ;
#363 = EDGE_CURVE ( 'NONE', #698, #366, #334, .T. ) ;
#364 = CARTESIAN_POINT ( 'NONE',  ( 3.903788882833200802, -0.8735372258408634627, 5.496133832113259565 ) ) ;
#365 = CIRCLE ( 'NONE', #311, 5.999999999999999112 ) ;
#366 = VERTEX_POINT ( 'NONE', #318 ) ;
#367 = CARTESIAN_POINT ( 'NONE',  ( -4.000000000000000888, 0.1308039184816915945, 4.999999999999997335 ) ) ;
#368 = CARTESIAN_POINT ( 'NONE',  ( 5.916066267613697249, -1.000079958708139038, -6.131527388820341429 ) ) ;
#369 = ORIENTED_EDGE ( 'NONE', *, *, #363, .T. ) ;
#370 = CARTESIAN_POINT ( 'NONE',  ( -3.872972725026414320, -1.000041135659531122, -5.868394576239723825 ) ) ;
#371 = CARTESIAN_POINT ( 'NONE',  ( -5.999999999999999112, 3.478057330786736548E-17, 7.000000000000001776 ) ) ;
#372 = LINE ( 'NONE', #256, #275 ) ;
#373 = CARTESIAN_POINT ( 'NONE',  ( -3.872993992554538245, -0.9999587668730113288, -6.132229819360587086 ) ) ;
#374 = CARTESIAN_POINT ( 'NONE',  ( -5.999999999999999112, -4.472210243878960127E-23, -7.000000000000001776 ) ) ;
#375 = CARTESIAN_POINT ( 'NONE',  ( 4.000000000000000888, 0.1326759759031825858, 4.999999999999998224 ) ) ;
#376 = CARTESIAN_POINT ( 'NONE',  ( -5.947135855825865569, 0.8002302970946547633, -6.613982267877006826 ) ) ;
#377 = APPROVAL_DATE_TIME ( #676, #231 ) ;
#378 = CARTESIAN_POINT ( 'NONE',  ( -5.936246475285031465, 0.8738118504725681523, 6.503572421742431331 ) ) ;
#379 = DIRECTION ( 'NONE',  ( 1.000000000000000000, -0.000000000000000000, -0.000000000000000000 ) ) ;
#380 = CARTESIAN_POINT ( 'NONE',  ( -3.903780981627171354, -0.8735789483019649193, -5.496103661561179798 ) ) ;
#381 = DIRECTION ( 'NONE',  ( 0.000000000000000000, 0.000000000000000000, 1.000000000000000000 ) ) ;
#382 = DIRECTION ( 'NONE',  ( -0.000000000000000000, -0.000000000000000000, -1.000000000000000000 ) ) ;
#383 = EDGE_CURVE ( 'NONE', #654, #278, #41, .T. ) ;
#384 = B_SPLINE_CURVE_WITH_KNOTS ( 'NONE', 3,
 ( #615, #64, #310, #557, #561, #496, #747, #184, #3, #675, #753, #124, #376, #249, #273, #197, #338, #330 ),
 .UNSPECIFIED., .F., .F.,
 ( 4, 2, 2, 2, 2, 2, 2, 2, 4 ),
 ( 3.379126506159063230E-20, 0.0003914904498596255512, 0.0007829808997192509940, 0.001174471349578876545, 0.001565961799438501988, 0.001957452249298127431, 0.002348942699157753090, 0.002740433149017378316, 0.003131923598877003976 ),
 .UNSPECIFIED. ) ;
#385 = EDGE_CURVE ( 'NONE', #357, #533, #251, .T. ) ;
#386 = CARTESIAN_POINT ( 'NONE',  ( 5.999999999999999112, 7.347881242104880842E-16, 7.000000000000001776 ) ) ;
#387 = AXIS2_PLACEMENT_3D ( 'NONE', #404, #409, #704 ) ;
#388 = CARTESIAN_POINT ( 'NONE',  ( 3.872997553993024589, 0.9999449734778005361, -6.131452763206869605 ) ) ;
#389 = DATE_AND_TIME ( #585, #526 ) ;
#390 = CARTESIAN_POINT ( 'NONE',  ( -10.00000000000000000, 0.000000000000000000, 6.000000000000000000 ) ) ;
#391 = DATE_AND_TIME ( #398, #9 ) ;
#392 = CARTESIAN_POINT ( 'NONE',  ( -5.969096820685153126, -0.6152055445546381618, 6.799049686702675288 ) ) ;
#393 = CARTESIAN_POINT ( 'NONE',  ( -5.947135855825865569, -0.8002302970946547633, 5.386017732122991397 ) ) ;
#394 = CARTESIAN_POINT ( 'NONE',  ( -10.00000000000000000, 1.224646799147355179E-16, -4.999999999999998224 ) ) ;
#395 = EDGE_LOOP ( 'NONE', ( #78, #434, #713, #412, #701, #51, #603, #670, #417, #607, #396, #410 ) ) ;
#396 = ORIENTED_EDGE ( 'NONE', *, *, #452, .F. ) ;
#397 = VECTOR ( 'NONE', #566, 1000.000000000000000 ) ;
#398 = CALENDAR_DATE ( 2026, 9, 9 ) ;
#399 = DIRECTION ( 'NONE',  ( 0.000000000000000000, 0.000000000000000000, 1.000000000000000000 ) ) ;
#400 = ORIENTED_EDGE ( 'NONE', *, *, #764, .F. ) ;
#401 = CARTESIAN_POINT ( 'NONE',  ( 4.000000000000000000, 4.134078698859513570E-18, -7.000000000000001776 ) ) ;
#402 = B_SPLINE_CURVE_WITH_KNOTS ( 'NONE', 3,
 ( #46, #779, #735, #480, #172, #291, #364, #716, #167, #486, #50, #169, #421, #652, #474, #489, #792, #359 ),
 .UNSPECIFIED., .F., .F.,
 ( 4, 2, 2, 2, 2, 2, 2, 2, 4 ),
 ( 4.015188034936748514E-21, 0.0003923685324657891606, 0.0007847370649315784296, 0.001177105597397367807, 0.001569474129863157293, 0.001961842662328946128, 0.002354211194794735614, 0.002746579727260524666, 0.003138948259726314586 ),
 .UNSPECIFIED. ) ;
#403 = CALENDAR_DATE ( 2026, 9, 9 ) ;
#404 = CARTESIAN_POINT ( 'NONE',  ( 0.000000000000000000, 0.000000000000000000, 10.00000000000000000 ) ) ;
#405 = ORIENTED_EDGE ( 'NONE', *, *, #187, .T. ) ;
#406 = EDGE_LOOP ( 'NONE', ( #27, #465 ) ) ;
#407 = EDGE_CURVE ( 'NONE', #591, #173, #326, .T. ) ;
#408 = CARTESIAN_POINT ( 'NONE',  ( 3.903976002541359236, -0.8727396029839827873, -5.494353331437611843 ) ) ;
#409 = DIRECTION ( 'NONE',  ( 0.000000000000000000, 0.000000000000000000, 1.000000000000000000 ) ) ;
#410 = ORIENTED_EDGE ( 'NONE', *, *, #385, .F. ) ;
#411 = CARTESIAN_POINT ( 'NONE',  ( 5.916071405810141570, 1.000049560716555597, -5.869677990115323318 ) ) ;
#412 = ORIENTED_EDGE ( 'NONE', *, *, #628, .T. ) ;
#413 = B_SPLINE_CURVE_WITH_KNOTS ( 'NONE', 3,
 ( #784, #367, #432, #222, #52, #655, #49, #793, #159, #299, #227, #295, #604, #488, #608, #414, #727, #666 ),
 .UNSPECIFIED., .F., .F.,
 ( 4, 2, 2, 2, 2, 2, 2, 2, 4 ),
 ( 0.003138948259726314152, 0.003531211055919537475, 0.003923473852112760799, 0.004315736648305984122, 0.004707999444499207445, 0.005100262240692430768, 0.005492525036885653224, 0.005884787833078876547, 0.006277050629272099870 ),
 .UNSPECIFIED. ) ;
#414 = CARTESIAN_POINT ( 'NONE',  ( -3.993101993507430780, 0.2641148760630696590, 6.973263066103405627 ) ) ;
#415 = DIRECTION ( 'NONE',  ( -0.000000000000000000, -0.000000000000000000, -1.000000000000000000 ) ) ;
#416 = CARTESIAN_POINT ( 'NONE',  ( 5.995407492418038942, -0.2638277032948923018, -6.973320552815179596 ) ) ;
#417 = ORIENTED_EDGE ( 'NONE', *, *, #764, .T. ) ;
#418 = DIRECTION ( 'NONE',  ( 0.000000000000000000, 0.000000000000000000, -1.000000000000000000 ) ) ;
#419 = EDGE_CURVE ( 'NONE', #654, #360, #56, .T. ) ;
#420 = CARTESIAN_POINT ( 'NONE',  ( 6.000000000000000000, 0.1323602877612179984, 4.999999999999998224 ) ) ;
#421 = CARTESIAN_POINT ( 'NONE',  ( 3.920392233738140941, -0.7996175296367102892, 6.614636124423223684 ) ) ;
#422 = ORIENTED_EDGE ( 'NONE', *, *, #42, .T. ) ;
#423 = EDGE_CURVE ( 'NONE', #591, #345, #500, .T. ) ;
#424 = CARTESIAN_POINT ( 'NONE',  ( -3.903862007818517998, 0.8732369880725072697, -6.504712001405124511 ) ) ;
#425 = CARTESIAN_POINT ( 'NONE',  ( -3.880087007359552587, -0.9734268036074583685, 6.263417269914460128 ) ) ;
#426 = CARTESIAN_POINT ( 'NONE',  ( 5.995491482261826377, 0.2622916576876613282, -6.973849426468137658 ) ) ;
#427 = ORIENTED_EDGE ( 'NONE', *, *, #223, .F. ) ;
#428 = CARTESIAN_POINT ( 'NONE',  ( -3.953670644936868150, 0.6142897454956635084, -6.799883658869955383 ) ) ;
#429 = CIRCLE ( 'NONE', #491, 4.000000000000000000 ) ;
#430 = CARTESIAN_POINT ( 'NONE',  ( -3.993212196359559929, -0.2626148844800768045, 5.026285802713307937 ) ) ;
#431 = CARTESIAN_POINT ( 'NONE',  ( 5.936248257219507884, 0.8737888311110051376, -6.503441851412169683 ) ) ;
#432 = CARTESIAN_POINT ( 'NONE',  ( -3.993186561566759440, 0.2628729541220258259, 5.026396860804724476 ) ) ;
#433 = CARTESIAN_POINT ( 'NONE',  ( 3.879973766560979254, 0.9739130422342935356, 6.262385887979563748 ) ) ;
#434 = ORIENTED_EDGE ( 'NONE', *, *, #185, .T. ) ;
#435 = EDGE_CURVE ( 'NONE', #145, #710, #154, .T. ) ;
#436 = CARTESIAN_POINT ( 'NONE',  ( 5.999999999999999112, 7.347880794884118750E-16, 10.00000000000000000 ) ) ;
#437 = APPLICATION_PROTOCOL_DEFINITION ( 'international standard', 'config_control_design', 1994, #88 ) ;
#438 = CARTESIAN_POINT ( 'NONE',  ( -5.999999999999999112, 0.1306171417088610176, 4.999999999999999112 ) ) ;
#439 = CARTESIAN_POINT ( 'NONE',  ( 3.993186561566760329, 0.2628729541220260479, 6.973603139195279965 ) ) ;
#440 = ORIENTED_EDGE ( 'NONE', *, *, #114, .T. ) ;
#441 = COORDINATED_UNIVERSAL_TIME_OFFSET ( 5, 30, .AHEAD. ) ;
#442 = VECTOR ( 'NONE', #415, 1000.000000000000000 ) ;
#443 = DIRECTION ( 'NONE',  ( 1.000000000000000000, -0.000000000000000000, -0.000000000000000000 ) ) ;
#444 = CARTESIAN_POINT ( 'NONE',  ( -4.000000000000000888, -0.1326759759031826968, -4.999999999999997335 ) ) ;
#445 = DIRECTION ( 'NONE',  ( 1.000000000000000000, 0.000000000000000000, 0.000000000000000000 ) ) ;
#446 = CARTESIAN_POINT ( 'NONE',  ( -3.953614380922479743, -0.6145853434051685715, -6.799553862224012590 ) ) ;
#447 = CARTESIAN_POINT ( 'NONE',  ( -5.969051238897253420, 0.6156307853269497032, 6.798705734106810894 ) ) ;
#448 = CARTESIAN_POINT ( 'NONE',  ( -5.999999999999999112, 0.000000000000000000, 10.00000000000000000 ) ) ;
#449 = CARTESIAN_POINT ( 'NONE',  ( -5.969238533166610239, -0.6139908388540981088, 5.199776279120125189 ) ) ;
#450 = COORDINATED_UNIVERSAL_TIME_OFFSET ( 5, 30, .AHEAD. ) ;
#451 = DIRECTION ( 'NONE',  ( -1.000000000000000000, 0.000000000000000000, 0.000000000000000000 ) ) ;
#452 = EDGE_CURVE ( 'NONE', #533, #360, #166, .T. ) ;
#453 = CARTESIAN_POINT ( 'NONE',  ( 0.000000000000000000, 0.000000000000000000, 10.00000000000000000 ) ) ;
#454 = CARTESIAN_POINT ( 'NONE',  ( -5.979990686694992341, -0.5044069930203338714, 6.873357432279043167 ) ) ;
#455 = CARTESIAN_POINT ( 'NONE',  ( -10.00000000000000000, 0.000000000000000000, -6.000000000000000000 ) ) ;
#456 = CARTESIAN_POINT ( 'NONE',  ( 5.980031194523149907, -0.5039079366032428453, 6.873629318901870455 ) ) ;
#457 = VERTEX_POINT ( 'NONE', #791 ) ;
#458 = DATE_AND_TIME ( #204, #504 ) ;
#459 = CARTESIAN_POINT ( 'NONE',  ( 3.953614380922479743, -0.6145853434051681274, -5.200446137775986521 ) ) ;
#460 = CARTESIAN_POINT ( 'NONE',  ( 4.000000000000000000, 4.898587196589412829E-16, 10.00000000000000000 ) ) ;
#461 = VECTOR ( 'NONE', #638, 1000.000000000000000 ) ;
#462 = AXIS2_PLACEMENT_3D ( 'NONE', #192, #6, #126 ) ;
#463 = DATE_AND_TIME ( #403, #262 ) ;
#464 = FACE_OUTER_BOUND ( 'NONE', #24, .T. ) ;
#465 = ORIENTED_EDGE ( 'NONE', *, *, #663, .F. ) ;
#466 = PERSON_AND_ORGANIZATION_ROLE ( 'classification_officer' ) ;
#467 = CARTESIAN_POINT ( 'NONE',  ( 0.000000000000000000, 0.000000000000000000, 10.00000000000000000 ) ) ;
#468 = CARTESIAN_POINT ( 'NONE',  ( -5.995491482261826377, -0.2622916576876613837, 6.973849426468137658 ) ) ;
#469 = ORIENTED_EDGE ( 'NONE', *, *, #90, .F. ) ;
#470 = CARTESIAN_POINT ( 'NONE',  ( 5.999999999999999112, 0.1323933160975633294, -7.000000000000000888 ) ) ;
#471 = ORIENTED_EDGE ( 'NONE', *, *, #689, .T. ) ;
#472 = CARTESIAN_POINT ( 'NONE',  ( 5.947301735519284094, -0.7988914244718235969, -5.384562891686183406 ) ) ;
#473 = DIRECTION ( 'NONE',  ( 1.000000000000000000, -0.000000000000000000, -0.000000000000000000 ) ) ;
#474 = CARTESIAN_POINT ( 'NONE',  ( 3.969965223322160952, -0.5040697851665449924, 6.873498464354864446 ) ) ;
#475 = ORIENTED_EDGE ( 'NONE', *, *, #636, .F. ) ;
#476 = CARTESIAN_POINT ( 'NONE',  ( 3.903780981627170910, -0.8735789483019654744, -6.503896338438820202 ) ) ;
#477 = CIRCLE ( 'NONE', #198, 4.000000000000000000 ) ;
#478 = DIRECTION ( 'NONE',  ( -1.000000000000000000, 0.000000000000000000, 0.000000000000000000 ) ) ;
#479 = CARTESIAN_POINT ( 'NONE',  ( -3.920467691607483651, -0.7991479083213426371, 6.615009847519799813 ) ) ;
#480 = CARTESIAN_POINT ( 'NONE',  ( 3.969869395575870819, -0.5048887612555240656, 5.126926490991849050 ) ) ;
#481 = ORIENTED_EDGE ( 'NONE', *, *, #239, .T. ) ;
#482 = B_SPLINE_CURVE_WITH_KNOTS ( 'NONE', 3,
 ( #43, #289, #538, #790, #446, #801, #321, #189, #373, #370, #688, #380, #611, #121, #4, #497, #444, #325 ),
 .UNSPECIFIED., .F., .F.,
 ( 4, 2, 2, 2, 2, 2, 2, 2, 4 ),
 ( 0.003138948259726314152, 0.003531211055919537475, 0.003923473852112760799, 0.004315736648305984122, 0.004707999444499207445, 0.005100262240692430768, 0.005492525036885653224, 0.005884787833078876547, 0.006277050629272099870 ),
 .UNSPECIFIED. ) ;
#483 = CARTESIAN_POINT ( 'NONE',  ( -5.920699391845023030, -0.9735856429312850224, 6.262852839067272193 ) ) ;
#484 = FACE_OUTER_BOUND ( 'NONE', #395, .T. ) ;
#485 = CARTESIAN_POINT ( 'NONE',  ( -5.999999999999999112, 0.000000000000000000, 10.00000000000000000 ) ) ;
#486 = CARTESIAN_POINT ( 'NONE',  ( 3.872969183810251792, -1.000054850733511635, 6.130614219986238567 ) ) ;
#487 = VERTEX_POINT ( 'NONE', #485 ) ;
#488 = CARTESIAN_POINT ( 'NONE',  ( -3.953413208705572224, 0.6157976398963517228, 6.798520279110967124 ) ) ;
#489 = CARTESIAN_POINT ( 'NONE',  ( 3.993212196359560817, -0.2626148844800766935, 6.973714197286692951 ) ) ;
#490 = DIRECTION ( 'NONE',  ( -0.000000000000000000, -0.000000000000000000, -1.000000000000000000 ) ) ;
#491 = AXIS2_PLACEMENT_3D ( 'NONE', #613, #806, #738 ) ;
#492 = ORIENTED_EDGE ( 'NONE', *, *, #715, .T. ) ;
#493 = PERSON_AND_ORGANIZATION ( #38, #570 ) ;
#494 = CARTESIAN_POINT ( 'NONE',  ( -4.000000000000000000, 0.000000000000000000, 10.00000000000000000 ) ) ;
#495 = CARTESIAN_POINT ( 'NONE',  ( 3.920495757085995070, 0.7990587187661492008, 6.615228971107168121 ) ) ;
#496 = CARTESIAN_POINT ( 'NONE',  ( -5.947240459526507372, 0.7993282387951125001, -5.385156417830424758 ) ) ;
#497 = CARTESIAN_POINT ( 'NONE',  ( -3.993101993507430780, -0.2641148760630696590, -5.026736933896597037 ) ) ;
#498 = DIRECTION ( 'NONE',  ( 1.000000000000000000, 0.000000000000000000, 0.000000000000000000 ) ) ;
#499 = CARTESIAN_POINT ( 'NONE',  ( -4.000000000000000000, -9.891274455076596304E-22, -7.000000000000001776 ) ) ;
#500 = B_SPLINE_CURVE_WITH_KNOTS ( 'NONE', 3,
 ( #374, #186, #306, #803, #678, #315, #560, #1, #127, #211, #288, #543, #777, #260, #514, #141, #626, #329 ),
 .UNSPECIFIED., .F., .F.,
 ( 4, 2, 2, 2, 2, 2, 2, 2, 4 ),
 ( 0.003131923598877003976, 0.003523316383094321751, 0.003914709167311639093, 0.004306101951528956868, 0.004697494735746275511, 0.005088887519963593287, 0.005480280304180910195, 0.005871673088398227970, 0.006263065872615545746 ),
 .UNSPECIFIED. ) ;
#501 = DIRECTION ( 'NONE',  ( 0.000000000000000000, 0.000000000000000000, 1.000000000000000000 ) ) ;
#502 = CALENDAR_DATE ( 2026, 9, 9 ) ;
#503 = CARTESIAN_POINT ( 'NONE',  ( -10.00000000000000000, 0.000000000000000000, 4.999999999999998224 ) ) ;
#504 = LOCAL_TIME ( 9, 46, 4.000000000000000000, #450 ) ;
#505 = CARTESIAN_POINT ( 'NONE',  ( -5.999999999999999112, 3.478057330786736548E-17, 7.000000000000001776 ) ) ;
#506 = VECTOR ( 'NONE', #177, 1000.000000000000000 ) ;
#507 = CARTESIAN_POINT ( 'NONE',  ( 0.000000000000000000, 0.000000000000000000, 10.00000000000000000 ) ) ;
#508 = CARTESIAN_POINT ( 'NONE',  ( -5.995472630654518298, 0.2624013748573165716, 5.026285596910825326 ) ) ;
#509 = CARTESIAN_POINT ( 'NONE',  ( -5.999999999999999112, 0.000000000000000000, -10.00000000000000000 ) ) ;
#510 = SHAPE_DEFINITION_REPRESENTATION ( #653, #742 ) ;
#511 = CARTESIAN_POINT ( 'NONE',  ( 5.916071405810141570, -1.000049560716555153, 6.130322009884675794 ) ) ;
#512 = ADVANCED_FACE ( 'NONE', ( #728 ), #605, .F. ) ;
#513 = VECTOR ( 'NONE', #683, 1000.000000000000000 ) ;
#514 = CARTESIAN_POINT ( 'NONE',  ( -5.979983180450074265, -0.5042987395407719786, -5.126706958200230702 ) ) ;
#515 = DIRECTION ( 'NONE',  ( 0.000000000000000000, 0.000000000000000000, -1.000000000000000000 ) ) ;
#516 = ORIENTED_EDGE ( 'NONE', *, *, #294, .F. ) ;
#517 = CARTESIAN_POINT ( 'NONE',  ( 3.879948393309026855, 0.9740030178010135042, -5.738093216936199781 ) ) ;
#518 = ORIENTED_EDGE ( 'NONE', *, *, #298, .T. ) ;
#519 = CARTESIAN_POINT ( 'NONE',  ( 3.969995828464051968, -0.5037600891934788105, -5.126369050917081616 ) ) ;
#520 = CARTESIAN_POINT ( 'NONE',  ( 4.000000000000000000, 4.898597087858433640E-16, 7.000000000000001776 ) ) ;
#521 = EDGE_LOOP ( 'NONE', ( #342, #34, #594, #786 ) ) ;
#522 = CARTESIAN_POINT ( 'NONE',  ( 5.969178481556065563, -0.6144377077729905601, -5.200339668577361074 ) ) ;
#523 = CYLINDRICAL_SURFACE ( 'NONE', #244, 1.000000000000001776 ) ;
#524 = ORIENTED_EDGE ( 'NONE', *, *, #659, .F. ) ;
#525 = EDGE_CURVE ( 'NONE', #587, #705, #61, .T. ) ;
#526 = LOCAL_TIME ( 9, 46, 4.000000000000000000, #343 ) ;
#527 = APPROVAL_DATE_TIME ( #389, #319 ) ;
#528 = B_SPLINE_CURVE_WITH_KNOTS ( 'NONE', 3,
 ( #100, #355, #719, #650, #522, #472, #351, #726, #602, #368, #595, #644, #782, #606, #235, #416, #36, #277 ),
 .UNSPECIFIED., .F., .F.,
 ( 4, 2, 2, 2, 2, 2, 2, 2, 4 ),
 ( 0.003131923598877003542, 0.003523316383094321318, 0.003914709167311639093, 0.004306101951528956868, 0.004697494735746274644, 0.005088887519963592419, 0.005480280304180910195, 0.005871673088398227970, 0.006263065872615545746 ),
 .UNSPECIFIED. ) ;
#529 = DIRECTION ( 'NONE',  ( 1.000000000000000000, -0.000000000000000000, -0.000000000000000000 ) ) ;
#530 = ORIENTED_EDGE ( 'NONE', *, *, #423, .F. ) ;
#531 = FACE_OUTER_BOUND ( 'NONE', #584, .T. ) ;
#532 = CARTESIAN_POINT ( 'NONE',  ( 5.916088184763879987, 0.9999502950802094947, -6.131081491900115310 ) ) ;
#533 = VERTEX_POINT ( 'NONE', #122 ) ;
#534 = CARTESIAN_POINT ( 'NONE',  ( -3.969965223322160952, 0.5040697851665454365, -6.873498464354864446 ) ) ;
#535 = CARTESIAN_POINT ( 'NONE',  ( -3.999999999999999112, -0.1327117393334320550, 7.000000000000000888 ) ) ;
#536 = FACE_OUTER_BOUND ( 'NONE', #293, .T. ) ;
#537 = AXIS2_PLACEMENT_3D ( 'NONE', #455, #217, #29 ) ;
#538 = CARTESIAN_POINT ( 'NONE',  ( -3.993186561566759440, -0.2628729541220258259, -6.973603139195279077 ) ) ;
#539 = AXIS2_PLACEMENT_3D ( 'NONE', #335, #770, #209 ) ;
#540 = CARTESIAN_POINT ( 'NONE',  ( 5.969051238897252532, 0.6156307853269485930, 5.201294265893188218 ) ) ;
#541 = DIRECTION ( 'NONE',  ( 1.000000000000000000, -0.000000000000000000, -0.000000000000000000 ) ) ;
#542 = ORIENTED_EDGE ( 'NONE', *, *, #741, .F. ) ;
#543 = CARTESIAN_POINT ( 'NONE',  ( -5.936246475285031465, -0.8738118504725681523, -5.496427578257569557 ) ) ;
#544 = CARTESIAN_POINT ( 'NONE',  ( 4.000000000000000000, 4.898587196589412829E-16, -10.00000000000000000 ) ) ;
#545 = CARTESIAN_POINT ( 'NONE',  ( 5.936246475285030577, 0.8738118504725673752, 5.496427578257567781 ) ) ;
#546 = LINE ( 'NONE', #95, #309 ) ;
#547 = EDGE_LOOP ( 'NONE', ( #614, #799, #400, #772 ) ) ;
#548 = CARTESIAN_POINT ( 'NONE',  ( -3.879948393309026855, 0.9740030178010135042, -6.261906783063801107 ) ) ;
#549 = EDGE_CURVE ( 'NONE', #278, #654, #22, .T. ) ;
#550 = CARTESIAN_POINT ( 'NONE',  ( -3.920392233738140053, -0.7996175296367108443, 5.385363875576777204 ) ) ;
#551 = CARTESIAN_POINT ( 'NONE',  ( 4.000000000000000000, 4.898597087858433640E-16, 7.000000000000001776 ) ) ;
#552 = EDGE_LOOP ( 'NONE', ( #766, #730 ) ) ;
#553 = VECTOR ( 'NONE', #132, 1000.000000000000000 ) ;
#554 = CARTESIAN_POINT ( 'NONE',  ( -6.000000000000000000, 0.1323602877612180262, 7.000000000000002665 ) ) ;
#555 = CARTESIAN_POINT ( 'NONE',  ( 3.969858145330399157, 0.5048232406146755391, 5.126987308606507199 ) ) ;
#556 = ORIENTED_EDGE ( 'NONE', *, *, #294, .T. ) ;
#557 = CARTESIAN_POINT ( 'NONE',  ( -5.979990686694992341, 0.5044069930203338714, -5.126642567720957722 ) ) ;
#558 = B_SPLINE_CURVE_WITH_KNOTS ( 'NONE', 3,
 ( #74, #26, #155, #92, #580, #349, #17, #139, #259, #511, #263, #761, #201, #765, #456, #697, #629, #77 ),
 .UNSPECIFIED., .F., .F.,
 ( 4, 2, 2, 2, 2, 2, 2, 2, 4 ),
 ( 3.379126506159063230E-20, 0.0003914904498596257680, 0.0007829808997192512108, 0.001174471349578876545, 0.001565961799438502205, 0.001957452249298127864, 0.002348942699157753090, 0.002740433149017379184, 0.003131923598877004843 ),
 .UNSPECIFIED. ) ;
#559 = APPROVAL_STATUS ( 'not_yet_approved' ) ;
#560 = CARTESIAN_POINT ( 'NONE',  ( -5.936362132114462398, -0.8730424326980924521, -6.504993097814366187 ) ) ;
#561 = CARTESIAN_POINT ( 'NONE',  ( -5.969096820685153126, 0.6152055445546381618, -5.200950313297326488 ) ) ;
#562 = EDGE_CURVE ( 'NONE', #487, #81, #736, .T. ) ;
#563 = DIRECTION ( 'NONE',  ( 0.000000000000000000, 0.000000000000000000, 1.000000000000000000 ) ) ;
#564 = CARTESIAN_POINT ( 'NONE',  ( 3.969965223322160952, 0.5040697851665462137, -5.126501535645138219 ) ) ;
#565 = ADVANCED_FACE ( 'NONE', ( #589 ), #213, .F. ) ;
#566 = DIRECTION ( 'NONE',  ( -0.000000000000000000, -0.000000000000000000, -1.000000000000000000 ) ) ;
#567 = FACE_OUTER_BOUND ( 'NONE', #521, .T. ) ;
#568 = CARTESIAN_POINT ( 'NONE',  ( 4.000000000000000888, -0.1326759759031827524, -7.000000000000001776 ) ) ;
#569 = CARTESIAN_POINT ( 'NONE',  ( 0.000000000000000000, 0.000000000000000000, -10.00000000000000000 ) ) ;
#570 = ORGANIZATION ( 'UNSPECIFIED', 'UNSPECIFIED', '' ) ;
#571 = LINE ( 'NONE', #436, #617 ) ;
#572 = CARTESIAN_POINT ( 'NONE',  ( 4.000000000000000000, 4.898577305309523487E-16, -4.999999999999998224 ) ) ;
#573 = ORIENTED_EDGE ( 'NONE', *, *, #185, .F. ) ;
#574 = DIRECTION ( 'NONE',  ( 1.000000000000000000, -0.000000000000000000, -0.000000000000000000 ) ) ;
#575 = COORDINATED_UNIVERSAL_TIME_OFFSET ( 5, 30, .AHEAD. ) ;
#576 = CARTESIAN_POINT ( 'NONE',  ( 3.879973766560979254, -0.9739130422342940907, -5.737614112020435364 ) ) ;
#577 = CARTESIAN_POINT ( 'NONE',  ( 5.999999999999999112, 7.347881242104880842E-16, 7.000000000000001776 ) ) ;
#578 = PERSON_AND_ORGANIZATION ( #38, #570 ) ;
#579 = CC_DESIGN_PERSON_AND_ORGANIZATION_ASSIGNMENT ( #493, #312, ( #729 ) ) ;
#580 = CARTESIAN_POINT ( 'NONE',  ( 5.969096820685153126, -0.6152055445546379397, 5.200950313297326488 ) ) ;
#581 = PERSON_AND_ORGANIZATION ( #38, #570 ) ;
#582 = CARTESIAN_POINT ( 'NONE',  ( -10.00000000000000000, 0.000000000000000000, 6.000000000000000000 ) ) ;
#583 = CARTESIAN_POINT ( 'NONE',  ( 5.936362132114462398, 0.8730424326980930072, 6.504993097814365299 ) ) ;
#584 = EDGE_LOOP ( 'NONE', ( #422, #21, #243, #238 ) ) ;
#585 = CALENDAR_DATE ( 2026, 9, 9 ) ;
#586 = DIRECTION ( 'NONE',  ( 1.000000000000000000, 0.000000000000000000, 0.000000000000000000 ) ) ;
#587 = VERTEX_POINT ( 'NONE', #31 ) ;
#588 = ORIENTED_EDGE ( 'NONE', *, *, #419, .T. ) ;
#589 = FACE_OUTER_BOUND ( 'NONE', #57, .T. ) ;
#590 = CARTESIAN_POINT ( 'NONE',  ( 3.903788882833201246, 0.8735372258408633517, -6.503866167886741323 ) ) ;
#591 = VERTEX_POINT ( 'NONE', #218 ) ;
#592 = APPROVAL_PERSON_ORGANIZATION ( #672, #231, #809 ) ;
#593 = CARTESIAN_POINT ( 'NONE',  ( -3.993212196359559929, 0.2626148844800768045, -6.973714197286692951 ) ) ;
#594 = ORIENTED_EDGE ( 'NONE', *, *, #757, .T. ) ;
#595 = CARTESIAN_POINT ( 'NONE',  ( 5.920636045238165224, -0.9739805876847945632, -6.261713868144226147 ) ) ;
#596 = ORIENTED_EDGE ( 'NONE', *, *, #30, .F. ) ;
#597 = CARTESIAN_POINT ( 'NONE',  ( -4.000000000000000000, 4.134078698859513570E-18, -4.999999999999998224 ) ) ;
#598 = CARTESIAN_POINT ( 'NONE',  ( 5.916066267613697249, 1.000079958708139038, 5.868472611179659459 ) ) ;
#599 = CARTESIAN_POINT ( 'NONE',  ( 5.999999999999999112, 7.347880347662832066E-16, -4.999999999999998224 ) ) ;
#600 = DIRECTION ( 'NONE',  ( 1.000000000000000000, -0.000000000000000000, -0.000000000000000000 ) ) ;
#601 = CARTESIAN_POINT ( 'NONE',  ( -3.879948393309026855, -0.9740030178010135042, 5.738093216936199781 ) ) ;
#602 = CARTESIAN_POINT ( 'NONE',  ( 5.916093360767513687, -0.9999196734182665969, -5.867259559550686454 ) ) ;
#603 = ORIENTED_EDGE ( 'NONE', *, *, #187, .F. ) ;
#604 = CARTESIAN_POINT ( 'NONE',  ( -3.920449918490174657, 0.7992216017350888269, 6.614887144745580372 ) ) ;
#605 = CYLINDRICAL_SURFACE ( 'NONE', #537, 1.000000000000001776 ) ;
#606 = CARTESIAN_POINT ( 'NONE',  ( 5.969051238897252532, -0.6156307853269494812, -6.798705734106811782 ) ) ;
#607 = ORIENTED_EDGE ( 'NONE', *, *, #239, .F. ) ;
#608 = CARTESIAN_POINT ( 'NONE',  ( -3.969858145330399157, 0.5048232406146755391, 6.873012691393491913 ) ) ;
#609 = VERTEX_POINT ( 'NONE', #84 ) ;
#610 = CARTESIAN_POINT ( 'NONE',  ( -5.916088184763879987, -0.9999502950802097168, 6.131081491900115310 ) ) ;
#611 = CARTESIAN_POINT ( 'NONE',  ( -3.920449918490174657, -0.7992216017350888269, -5.385112855254420516 ) ) ;
#612 = CARTESIAN_POINT ( 'NONE',  ( -5.936362132114462398, 0.8730424326980924521, 5.495006902185635589 ) ) ;
#613 = CARTESIAN_POINT ( 'NONE',  ( 0.000000000000000000, 0.000000000000000000, 10.00000000000000000 ) ) ;
#614 = ORIENTED_EDGE ( 'NONE', *, *, #423, .T. ) ;
#615 = CARTESIAN_POINT ( 'NONE',  ( -5.999999999999999112, -3.478057330786736548E-17, -4.999999999999998224 ) ) ;
#616 =( LENGTH_UNIT ( ) NAMED_UNIT ( * ) SI_UNIT ( .MILLI., .METRE. ) );
#617 = VECTOR ( 'NONE', #69, 1000.000000000000000 ) ;
#618 = DIRECTION ( 'NONE',  ( -0.000000000000000000, -0.000000000000000000, -1.000000000000000000 ) ) ;
#619 = ADVANCED_FACE ( 'NONE', ( #464 ), #142, .T. ) ;
#620 = CARTESIAN_POINT ( 'NONE',  ( 4.000000000000000000, -4.134078698859513570E-18, 4.999999999999998224 ) ) ;
#621 = CARTESIAN_POINT ( 'NONE',  ( -5.995407492418038053, 0.2638277032948922463, 6.973320552815180484 ) ) ;
#622 = CARTESIAN_POINT ( 'NONE',  ( 0.000000000000000000, 0.000000000000000000, -10.00000000000000000 ) ) ;
#623 = CARTESIAN_POINT ( 'NONE',  ( 4.000000000000000000, 4.134078698859513570E-18, -7.000000000000001776 ) ) ;
#624 = DIRECTION ( 'NONE',  ( -0.000000000000000000, -0.000000000000000000, -1.000000000000000000 ) ) ;
#625 = LINE ( 'NONE', #5, #59 ) ;
#626 = CARTESIAN_POINT ( 'NONE',  ( -6.000000000000000000, -0.1323602877612180262, -4.999999999999999112 ) ) ;
#627 = DIRECTION ( 'NONE',  ( -0.000000000000000000, -0.000000000000000000, -1.000000000000000000 ) ) ;
#628 = EDGE_CURVE ( 'NONE', #297, #587, #341, .T. ) ;
#629 = CARTESIAN_POINT ( 'NONE',  ( 6.000000000000000888, -0.1306497350717323869, 7.000000000000002665 ) ) ;
#630 = CARTESIAN_POINT ( 'NONE',  ( 5.980084330432666739, 0.5031281619707748121, 6.873977272554743223 ) ) ;
#631 = ADVANCED_FACE ( 'NONE', ( #332, #151 ), #709, .T. ) ;
#632 = ORIENTED_EDGE ( 'NONE', *, *, #435, .T. ) ;
#633 = APPROVAL_PERSON_ORGANIZATION ( #581, #191, #760 ) ;
#634 = SECURITY_CLASSIFICATION_LEVEL ( 'unclassified' ) ;
#635 = DIRECTION ( 'NONE',  ( 0.000000000000000000, 0.000000000000000000, 1.000000000000000000 ) ) ;
#636 = EDGE_CURVE ( 'NONE', #705, #698, #693, .T. ) ;
#637 = LINE ( 'NONE', #160, #442 ) ;
#638 = DIRECTION ( 'NONE',  ( -0.000000000000000000, -0.000000000000000000, -1.000000000000000000 ) ) ;
#639 = CARTESIAN_POINT ( 'NONE',  ( -5.999999999999999112, -0.1323933160975633294, 7.000000000000000888 ) ) ;
#640 = ORIENTED_EDGE ( 'NONE', *, *, #383, .T. ) ;
#641 = ORIENTED_EDGE ( 'NONE', *, *, #266, .T. ) ;
#642 = CARTESIAN_POINT ( 'NONE',  ( -5.999999999999999112, 4.472210243878960127E-23, 4.999999999999998224 ) ) ;
#643 = VERTEX_POINT ( 'NONE', #771 ) ;
#644 = CARTESIAN_POINT ( 'NONE',  ( 5.936246475285030577, -0.8738118504725680413, -6.503572421742431331 ) ) ;
#645 = ORIENTED_EDGE ( 'NONE', *, *, #549, .F. ) ;
#646 = ADVANCED_FACE ( 'NONE', ( #344 ), #523, .F. ) ;
#647 = AXIS2_PLACEMENT_3D ( 'NONE', #279, #99, #651 ) ;
#648 = CARTESIAN_POINT ( 'NONE',  ( -3.920467691607483651, 0.7991479083213426371, -5.384990152480200187 ) ) ;
#649 = CARTESIAN_POINT ( 'NONE',  ( 5.995505046955614148, 0.2619456584322036319, -5.026071939286478774 ) ) ;
#650 = CARTESIAN_POINT ( 'NONE',  ( 5.980084330432666739, -0.5031281619707738129, -5.126022727445254112 ) ) ;
#651 = DIRECTION ( 'NONE',  ( 0.000000000000000000, 0.000000000000000000, -1.000000000000000000 ) ) ;
#652 = CARTESIAN_POINT ( 'NONE',  ( 3.953670644936869039, -0.6142897454956629533, 6.799883658869957159 ) ) ;
#653 = PRODUCT_DEFINITION_SHAPE ( 'NONE', 'NONE',  #708 ) ;
#654 = VERTEX_POINT ( 'NONE', #642 ) ;
#655 = CARTESIAN_POINT ( 'NONE',  ( -3.920495757085995070, 0.7990587187661492008, 5.384771028892833655 ) ) ;
#656 = CARTESIAN_POINT ( 'NONE',  ( -3.969869395575870819, -0.5048887612555239546, 6.873073509008152726 ) ) ;
#657 = CARTESIAN_POINT ( 'NONE',  ( 5.979990686694992341, 0.5044069930203338714, -6.873357432279043167 ) ) ;
#658 = ORIENTED_EDGE ( 'NONE', *, *, #73, .F. ) ;
#659 = EDGE_CURVE ( 'NONE', #643, #357, #33, .T. ) ;
#660 = VECTOR ( 'NONE', #627, 1000.000000000000000 ) ;
#661 = VECTOR ( 'NONE', #269, 1000.000000000000000 ) ;
#662 = CARTESIAN_POINT ( 'NONE',  ( -4.000000000000000888, 0.1308391772901015826, -7.000000000000002665 ) ) ;
#663 = EDGE_CURVE ( 'NONE', #609, #173, #365, .T. ) ;
#664 = CARTESIAN_POINT ( 'NONE',  ( 5.920699391845023030, 0.9735856429312844673, -6.262852839067273081 ) ) ;
#665 = B_SPLINE_CURVE_WITH_KNOTS ( 'NONE', 3,
 ( #401, #695, #773, #346, #136, #89, #590, #690, #388, #203, #517, #767, #700, #144, #564, #685, #255, #572 ),
 .UNSPECIFIED., .F., .F.,
 ( 4, 2, 2, 2, 2, 2, 2, 2, 4 ),
 ( 4.015188034936748514E-21, 0.0003923685324657892148, 0.0007847370649315784296, 0.001177105597397367590, 0.001569474129863156859, 0.001961842662328946128, 0.002354211194794735180, 0.002746579727260524666, 0.003138948259726313719 ),
 .UNSPECIFIED. ) ;
#666 = CARTESIAN_POINT ( 'NONE',  ( -4.000000000000000000, -4.134078698859513570E-18, 7.000000000000001776 ) ) ;
#667 = CARTESIAN_POINT ( 'NONE',  ( -5.920671847850514702, 0.9737778612005489887, 5.737363758846502293 ) ) ;
#668 = APPLICATION_CONTEXT ( 'configuration controlled 3d designs of mechanical parts and assemblies' ) ;
#669 = DIRECTION ( 'NONE',  ( -0.000000000000000000, -0.000000000000000000, -1.000000000000000000 ) ) ;
#670 = ORIENTED_EDGE ( 'NONE', *, *, #12, .F. ) ;
#671 = CARTESIAN_POINT ( 'NONE',  ( -10.00000000000000000, 1.224646799147355179E-16, 7.000000000000001776 ) ) ;
#672 = PERSON_AND_ORGANIZATION ( #38, #570 ) ;
#673 = CARTESIAN_POINT ( 'NONE',  ( -5.916066267613697249, 1.000079958708139038, 6.131527388820342317 ) ) ;
#674 = VERTEX_POINT ( 'NONE', #520 ) ;
#675 = CARTESIAN_POINT ( 'NONE',  ( -5.916071405810141570, 1.000049560716555597, -6.130322009884676682 ) ) ;
#676 = DATE_AND_TIME ( #502, #324 ) ;
#677 = VECTOR ( 'NONE', #574, 1000.000000000000000 ) ;
#678 = CARTESIAN_POINT ( 'NONE',  ( -5.969178481556063787, -0.6144377077729902270, -6.799660331422638038 ) ) ;
#679 = AXIS2_PLACEMENT_3D ( 'NONE', #68, #684, #248 ) ;
#680 = LINE ( 'NONE', #448, #397 ) ;
#681 = CARTESIAN_POINT ( 'NONE',  ( 5.999999999999999112, 7.347880347662832066E-16, -4.999999999999998224 ) ) ;
#682 = CARTESIAN_POINT ( 'NONE',  ( -5.999999999999999112, -3.478057330786736548E-17, -4.999999999999998224 ) ) ;
#683 = DIRECTION ( 'NONE',  ( -0.000000000000000000, -0.000000000000000000, -1.000000000000000000 ) ) ;
#684 = DIRECTION ( 'NONE',  ( 0.000000000000000000, 0.000000000000000000, 1.000000000000000000 ) ) ;
#685 = CARTESIAN_POINT ( 'NONE',  ( 3.993212196359559929, 0.2626148844800777482, -5.026285802713309714 ) ) ;
#686 = CARTESIAN_POINT ( 'NONE',  ( -5.999999999999999112, 0.000000000000000000, 10.00000000000000000 ) ) ;
#687 = EDGE_CURVE ( 'NONE', #345, #47, #23, .T. ) ;
#688 = CARTESIAN_POINT ( 'NONE',  ( -3.880024974703066398, -0.9736797867424589192, -5.737322685224673258 ) ) ;
#689 = EDGE_CURVE ( 'NONE', #710, #145, #558, .T. ) ;
#690 = CARTESIAN_POINT ( 'NONE',  ( 3.880087007359552587, 0.9734268036074583685, -6.263417269914460128 ) ) ;
#691 = DATE_TIME_ROLE ( 'creation_date' ) ;
#692 = CARTESIAN_POINT ( 'NONE',  ( -5.936271176698232566, -0.8736516769106875691, 5.496067715786762342 ) ) ;
#693 = LINE ( 'NONE', #460, #461 ) ;
#694 = ORIENTED_EDGE ( 'NONE', *, *, #223, .T. ) ;
#695 = CARTESIAN_POINT ( 'NONE',  ( 3.999999999999999112, 0.1327117393334320550, -7.000000000000000888 ) ) ;
#696 = EDGE_CURVE ( 'NONE', #173, #609, #788, .T. ) ;
#697 = CARTESIAN_POINT ( 'NONE',  ( 5.995505046955614148, -0.2619456584322024106, 6.973928060713524779 ) ) ;
#698 = VERTEX_POINT ( 'NONE', #544 ) ;
#699 = CARTESIAN_POINT ( 'NONE',  ( 5.999999999999999112, 0.1306171417088619058, 7.000000000000000000 ) ) ;
#700 = CARTESIAN_POINT ( 'NONE',  ( 3.920392233738140053, 0.7996175296367110663, -5.385363875576777204 ) ) ;
#701 = ORIENTED_EDGE ( 'NONE', *, *, #525, .T. ) ;
#702 = EDGE_CURVE ( 'NONE', #360, #533, #413, .T. ) ;
#703 = COORDINATED_UNIVERSAL_TIME_OFFSET ( 5, 30, .AHEAD. ) ;
#704 = DIRECTION ( 'NONE',  ( 1.000000000000000000, 0.000000000000000000, -0.000000000000000000 ) ) ;
#705 = VERTEX_POINT ( 'NONE', #236 ) ;
#706 = CLOSED_SHELL ( 'NONE', ( #175, #746, #565, #751, #732, #257, #619, #82, #631, #789, #646, #67, #512, #802 ) ) ;
#707 = AXIS2_PLACEMENT_3D ( 'NONE', #507, #563, #55 ) ;
#708 = PRODUCT_DEFINITION ( 'UNKNOWN', '', #80, #787 ) ;
#709 = PLANE ( 'NONE',  #387 ) ;
#710 = VERTEX_POINT ( 'NONE', #107 ) ;
#711 = CARTESIAN_POINT ( 'NONE',  ( 4.000000000000000888, -0.1308039184816911782, -4.999999999999996447 ) ) ;
#712 = CARTESIAN_POINT ( 'NONE',  ( 0.000000000000000000, 0.000000000000000000, -10.00000000000000000 ) ) ;
#713 = ORIENTED_EDGE ( 'NONE', *, *, #42, .F. ) ;
#714 = CARTESIAN_POINT ( 'NONE',  ( 5.995407492418038942, 0.2638277032948923018, 5.026679447184820404 ) ) ;
#715 = EDGE_CURVE ( 'NONE', #47, #110, #303, .T. ) ;
#716 = CARTESIAN_POINT ( 'NONE',  ( 3.880087007359553475, -0.9734268036074587016, 5.736582730085542536 ) ) ;
#717 = ORIENTED_EDGE ( 'NONE', *, *, #114, .F. ) ;
#718 = CARTESIAN_POINT ( 'NONE',  ( 5.999999999999999112, 7.347880794884118750E-16, 10.00000000000000000 ) ) ;
#719 = CARTESIAN_POINT ( 'NONE',  ( 5.995472630654517410, -0.2624013748573162386, -5.026285596910823550 ) ) ;
#720 = CARTESIAN_POINT ( 'NONE',  ( -4.000000000000000000, -4.134078698859513570E-18, 7.000000000000001776 ) ) ;
#721 = CARTESIAN_POINT ( 'NONE',  ( 5.969238533166610239, 0.6139908388540981088, -5.199776279120123412 ) ) ;
#722 = ORIENTED_EDGE ( 'NONE', *, *, #383, .F. ) ;
#723 = VECTOR ( 'NONE', #123, 1000.000000000000000 ) ;
#724 = CYLINDRICAL_SURFACE ( 'NONE', #233, 4.000000000000000000 ) ;
#725 = CARTESIAN_POINT ( 'NONE',  ( -3.872969183810250904, -1.000054850733511635, 5.869385780013764098 ) ) ;
#726 = CARTESIAN_POINT ( 'NONE',  ( 5.920671847850517366, -0.9737778612005492107, -5.737363758846504069 ) ) ;
#727 = CARTESIAN_POINT ( 'NONE',  ( -4.000000000000000888, 0.1326759759031826968, 7.000000000000001776 ) ) ;
#728 = FACE_OUTER_BOUND ( 'NONE', #183, .T. ) ;
#729 = PRODUCT ( 'Coupling_Default_sldprt', 'Coupling_Default_sldprt', '', ( #195 ) ) ;
#730 = ORIENTED_EDGE ( 'NONE', *, *, #768, .T. ) ;
#731 = CARTESIAN_POINT ( 'NONE',  ( -5.936248257219507884, -0.8737888311110058037, 6.503441851412168795 ) ) ;
#732 = ADVANCED_FACE ( 'NONE', ( #484 ), #724, .F. ) ;
#733 = CARTESIAN_POINT ( 'NONE',  ( -3.993201599367474763, 0.2629004868407572859, -5.026319689326707696 ) ) ;
#734 = CARTESIAN_POINT ( 'NONE',  ( 5.920636045238165224, 0.9739805876847941191, 5.738286131855773853 ) ) ;
#735 = CARTESIAN_POINT ( 'NONE',  ( 3.993201599367473875, -0.2629004868407572304, 5.026319689326707696 ) ) ;
#736 = CIRCLE ( 'NONE', #133, 5.999999999999999112 ) ;
#737 = LINE ( 'NONE', #718, #506 ) ;
#738 = DIRECTION ( 'NONE',  ( 1.000000000000000000, 0.000000000000000000, 0.000000000000000000 ) ) ;
#739 = ORIENTED_EDGE ( 'NONE', *, *, #549, .T. ) ;
#740 = FACE_OUTER_BOUND ( 'NONE', #271, .T. ) ;
#741 = EDGE_CURVE ( 'NONE', #81, #145, #737, .T. ) ;
#742 = ADVANCED_BREP_SHAPE_REPRESENTATION ( 'Coupling_Default_sldprt', ( #805, #70 ), #254 ) ;
#743 = DIRECTION ( 'NONE',  ( 0.000000000000000000, 0.000000000000000000, 1.000000000000000000 ) ) ;
#744 = CARTESIAN_POINT ( 'NONE',  ( 3.903780981627170910, 0.8735789483019650303, 5.496103661561181575 ) ) ;
#745 = EDGE_LOOP ( 'NONE', ( #264, #152, #783, #118 ) ) ;
#746 = ADVANCED_FACE ( 'NONE', ( #115 ), #35, .F. ) ;
#747 = CARTESIAN_POINT ( 'NONE',  ( -5.936248257219507884, 0.8737888311110058037, -5.496558148587832093 ) ) ;
#748 = PLANE ( 'NONE',  #679 ) ;
#749 = CARTESIAN_POINT ( 'NONE',  ( -5.916093360767513687, 0.9999196734182665969, 5.867259559550686454 ) ) ;
#750 = CARTESIAN_POINT ( 'NONE',  ( 4.000000000000000000, 4.898587196589412829E-16, 10.00000000000000000 ) ) ;
#751 = ADVANCED_FACE ( 'NONE', ( #531 ), #37, .F. ) ;
#752 = CC_DESIGN_APPROVAL ( #191, ( #80 ) ) ;
#753 = CARTESIAN_POINT ( 'NONE',  ( -5.920620690450686396, 0.9740807849836145005, -6.261498802993309631 ) ) ;
#754 = CYLINDRICAL_SURFACE ( 'NONE', #462, 1.000000000000001776 ) ;
#755 = CARTESIAN_POINT ( 'NONE',  ( -5.920636045238165224, 0.9739805876847945632, 6.261713868144225259 ) ) ;
#756 = DIRECTION ( 'NONE',  ( 0.000000000000000000, 0.000000000000000000, 1.000000000000000000 ) ) ;
#757 = EDGE_CURVE ( 'NONE', #591, #110, #103, .T. ) ;
#758 = CARTESIAN_POINT ( 'NONE',  ( -10.00000000000000000, 0.000000000000000000, -6.000000000000000000 ) ) ;
#759 = APPLICATION_PROTOCOL_DEFINITION ( 'international standard', 'config_control_design', 1994, #668 ) ;
#760 = APPROVAL_ROLE ( '' ) ;
#761 = CARTESIAN_POINT ( 'NONE',  ( 5.936271176698232566, -0.8736516769106876801, 6.503932284213237658 ) ) ;
#762 = AXIS2_PLACEMENT_3D ( 'NONE', #229, #669, #307 ) ;
#763 = CC_DESIGN_APPROVAL ( #231, ( #708 ) ) ;
#764 = EDGE_CURVE ( 'NONE', #110, #47, #482, .T. ) ;
#765 = CARTESIAN_POINT ( 'NONE',  ( 5.969238533166609351, -0.6139908388540969986, 6.800223720879874811 ) ) ;
#766 = ORIENTED_EDGE ( 'NONE', *, *, #562, .T. ) ;
#767 = CARTESIAN_POINT ( 'NONE',  ( 3.903862007818517998, 0.8732369880725072697, -5.495287998594875489 ) ) ;
#768 = EDGE_CURVE ( 'NONE', #81, #487, #214, .T. ) ;
#769 = VERTEX_POINT ( 'NONE', #681 ) ;
#770 = DIRECTION ( 'NONE',  ( 0.000000000000000000, 0.000000000000000000, 1.000000000000000000 ) ) ;
#771 = CARTESIAN_POINT ( 'NONE',  ( 4.000000000000000000, 4.898587196589412829E-16, 10.00000000000000000 ) ) ;
#772 = ORIENTED_EDGE ( 'NONE', *, *, #757, .F. ) ;
#773 = CARTESIAN_POINT ( 'NONE',  ( 3.993201599367474763, 0.2629004868407573414, -6.973680310673294080 ) ) ;
#774 = ORIENTED_EDGE ( 'NONE', *, *, #663, .T. ) ;
#775 = APPROVAL_PERSON_ORGANIZATION ( #138, #319, #83 ) ;
#776 = PERSON_AND_ORGANIZATION ( #38, #570 ) ;
#777 = CARTESIAN_POINT ( 'NONE',  ( -5.947211616899245712, -0.7995298244854598391, -5.385439853801416099 ) ) ;
#778 = CARTESIAN_POINT ( 'NONE',  ( 4.000000000000000000, 4.898587196589412829E-16, 10.00000000000000000 ) ) ;
#779 = CARTESIAN_POINT ( 'NONE',  ( 4.000000000000000000, -0.1327117393334319995, 4.999999999999999112 ) ) ;
#780 = CARTESIAN_POINT ( 'NONE',  ( -10.00000000000000000, 0.000000000000000000, 6.000000000000000000 ) ) ;
#781 = CARTESIAN_POINT ( 'NONE',  ( 5.979983180450074265, 0.5042987395407718676, 5.126706958200229813 ) ) ;
#782 = CARTESIAN_POINT ( 'NONE',  ( 5.947211616899244824, -0.7995298244854596170, -6.614560146198584789 ) ) ;
#783 = ORIENTED_EDGE ( 'NONE', *, *, #30, .T. ) ;
#784 = CARTESIAN_POINT ( 'NONE',  ( -4.000000000000000000, 9.891274455076596304E-22, 4.999999999999998224 ) ) ;
#785 = CARTESIAN_POINT ( 'NONE',  ( 5.947135855825862905, 0.8002302970946546523, -5.386017732122993174 ) ) ;
#786 = ORIENTED_EDGE ( 'NONE', *, *, #715, .F. ) ;
#787 = DESIGN_CONTEXT ( 'detailed design', #88, 'design' ) ;
#788 = CIRCLE ( 'NONE', #539, 5.999999999999999112 ) ;
#789 = ADVANCED_FACE ( 'NONE', ( #250, #130 ), #748, .F. ) ;
#790 = CARTESIAN_POINT ( 'NONE',  ( -3.969995828464051968, -0.5037600891934789216, -6.873630949082915720 ) ) ;
#791 = CARTESIAN_POINT ( 'NONE',  ( 5.999999999999999112, -3.478057330786736548E-17, -7.000000000000001776 ) ) ;
#792 = CARTESIAN_POINT ( 'NONE',  ( 4.000000000000000888, -0.1308391772901010275, 7.000000000000002665 ) ) ;
#793 = CARTESIAN_POINT ( 'NONE',  ( -3.879973766560979254, 0.9739130422342942017, 5.737614112020435364 ) ) ;
#794 = CARTESIAN_POINT ( 'NONE',  ( -4.000000000000000888, -0.1308391772901015826, 4.999999999999999112 ) ) ;
#795 = FACE_OUTER_BOUND ( 'NONE', #287, .T. ) ;
#796 = ORIENTED_EDGE ( 'NONE', *, *, #435, .F. ) ;
#797 = CARTESIAN_POINT ( 'NONE',  ( -4.000000000000000000, -9.891274455076596304E-22, -7.000000000000001776 ) ) ;
#798 = CARTESIAN_POINT ( 'NONE',  ( 3.903976002541358348, 0.8727396029839832314, 6.505646668562388157 ) ) ;
#799 = ORIENTED_EDGE ( 'NONE', *, *, #687, .T. ) ;
#800 = B_SPLINE_CURVE_WITH_KNOTS ( 'NONE', 3,
 ( #220, #470, #426, #657, #109, #237, #431, #664, #532, #411, #356, #224, #785, #721, #161, #649, #101, #599 ),
 .UNSPECIFIED., .F., .F.,
 ( 4, 2, 2, 2, 2, 2, 2, 2, 4 ),
 ( 3.379126506159063230E-20, 0.0003914904498596254970, 0.0007829808997192508856, 0.001174471349578876328, 0.001565961799438501771, 0.001957452249298127431, 0.002348942699157752657, 0.002740433149017377883, 0.003131923598877003542 ),
 .UNSPECIFIED. ) ;
#801 = CARTESIAN_POINT ( 'NONE',  ( -3.920495757085995070, -0.7990587187661492008, -6.615228971107168121 ) ) ;
#802 = ADVANCED_FACE ( 'NONE', ( #567 ), #754, .F. ) ;
#803 = CARTESIAN_POINT ( 'NONE',  ( -5.980084330432665851, -0.5031281619707743680, -6.873977272554742335 ) ) ;
#804 = CARTESIAN_POINT ( 'NONE',  ( -5.920620690450686396, -0.9740807849836145005, 5.738501197006691257 ) ) ;
#805 = MANIFOLD_SOLID_BREP ( 'Mirror1', #706 ) ;
#806 = DIRECTION ( 'NONE',  ( 0.000000000000000000, 0.000000000000000000, 1.000000000000000000 ) ) ;
#807 = ORIENTED_EDGE ( 'NONE', *, *, #164, .F. ) ;
#808 = LINE ( 'NONE', #671, #677 ) ;
#809 = APPROVAL_ROLE ( '' ) ;
ENDSEC;
END-ISO-10303-21;
