ISO-10303-21;
HEADER;
FILE_DESCRIPTION (( 'STEP AP203' ),
    '1' );
FILE_NAME ('GripperFlatSurface_Default_sldprt.STEP',
    '2026-09-09T04:16:06',
    ( '' ),
    ( '' ),
    'SwSTEP 2.0',
    'SolidWorks 2020',
    '' );
FILE_SCHEMA (( 'CONFIG_CONTROL_DESIGN' ));
ENDSEC;

DATA;
#1 = CARTESIAN_POINT ( 'NONE',  ( 25.99999999999999645, 0.000000000000000000, 2.001000000000000334 ) ) ;
#2 = DIRECTION ( 'NONE',  ( 1.000000000000000000, 8.673617379884035472E-17, -0.000000000000000000 ) ) ;
#3 = CARTESIAN_POINT ( 'NONE',  ( -27.50000000000000711, -3.469446951953614189E-15, 2.000000000000000000 ) ) ;
#4 = EDGE_LOOP ( 'NONE', ( #255, #305 ) ) ;
#5 = EDGE_CURVE ( 'NONE', #215, #334, #225, .T. ) ;
#6 = LINE ( 'NONE', #356, #87 ) ;
#7 = EDGE_LOOP ( 'NONE', ( #9, #72, #302, #253 ) ) ;
#8 = CIRCLE ( 'NONE', #278, 1.500000000000001332 ) ;
#9 = ORIENTED_EDGE ( 'NONE', *, *, #34, .F. ) ;
#10 = PRODUCT_DEFINITION ( 'UNKNOWN', '', #57, #143 ) ;
#11 = ORIENTED_EDGE ( 'NONE', *, *, #153, .T. ) ;
#12 = CARTESIAN_POINT ( 'NONE',  ( -27.50000000000000711, -3.469446951953614189E-15, 2.001000000000000334 ) ) ;
#13 = VERTEX_POINT ( 'NONE', #80 ) ;
#14 = CARTESIAN_POINT ( 'NONE',  ( -30.00000000000000355, -20.00000000000000000, 2.000000000000000000 ) ) ;
#15 = PRODUCT_DEFINITION_SHAPE ( 'NONE', 'NONE',  #10 ) ;
#16 = VERTEX_POINT ( 'NONE', #211 ) ;
#17 =( GEOMETRIC_REPRESENTATION_CONTEXT ( 3 ) GLOBAL_UNCERTAINTY_ASSIGNED_CONTEXT ( ( #365 ) ) GLOBAL_UNIT_ASSIGNED_CONTEXT ( ( #62, #186, #163 ) ) REPRESENTATION_CONTEXT ( 'NONE', 'WORKASPACE' ) );
#18 = APPROVAL_DATE_TIME ( #21, #129 ) ;
#19 = CARTESIAN_POINT ( 'NONE',  ( 25.99999999999999645, 0.000000000000000000, 0.000000000000000000 ) ) ;
#20 = EDGE_CURVE ( 'NONE', #248, #372, #46, .T. ) ;
#21 = DATE_AND_TIME ( #175, #105 ) ;
#22 = PLANE ( 'NONE',  #92 ) ;
#23 = CC_DESIGN_APPROVAL ( #129, ( #260 ) ) ;
#24 = DATE_TIME_ROLE ( 'classification_date' ) ;
#25 = CC_DESIGN_PERSON_AND_ORGANIZATION_ASSIGNMENT ( #188, #158, ( #339 ) ) ;
#26 = FACE_OUTER_BOUND ( 'NONE', #254, .T. ) ;
#27 = CYLINDRICAL_SURFACE ( 'NONE', #104, 1.500000000000001332 ) ;
#28 = DIRECTION ( 'NONE',  ( -1.000000000000000000, 0.000000000000000000, 0.000000000000000000 ) ) ;
#29 = CARTESIAN_POINT ( 'NONE',  ( -30.00000000000000355, -20.00000000000000000, 0.000000000000000000 ) ) ;
#30 = CIRCLE ( 'NONE', #182, 1.500000000000001332 ) ;
#31 = ADVANCED_FACE ( 'NONE', ( #206 ), #55, .F. ) ;
#32 = CARTESIAN_POINT ( 'NONE',  ( -30.00000000000000711, 20.00000000000000000, 0.000000000000000000 ) ) ;
#33 = VERTEX_POINT ( 'NONE', #19 ) ;
#34 = EDGE_CURVE ( 'NONE', #372, #16, #236, .T. ) ;
#35 = CARTESIAN_POINT ( 'NONE',  ( 29.99999999999999645, -20.00000000000000000, 2.000000000000000000 ) ) ;
#36 = LOCAL_TIME ( 9, 46, 6.000000000000000000, #313 ) ;
#37 = EDGE_CURVE ( 'NONE', #340, #13, #115, .T. ) ;
#38 = CARTESIAN_POINT ( 'NONE',  ( -27.50000000000000711, -3.469446951953614189E-15, 0.000000000000000000 ) ) ;
#39 = CARTESIAN_POINT ( 'NONE',  ( -29.00000000000000711, -3.469446951953614189E-15, 0.000000000000000000 ) ) ;
#40 = LOCAL_TIME ( 9, 46, 6.000000000000000000, #112 ) ;
#41 = ORIENTED_EDGE ( 'NONE', *, *, #222, .T. ) ;
#42 = ORIENTED_EDGE ( 'NONE', *, *, #310, .T. ) ;
#43 = ORIENTED_EDGE ( 'NONE', *, *, #124, .F. ) ;
#44 = DIRECTION ( 'NONE',  ( 0.000000000000000000, 0.000000000000000000, -1.000000000000000000 ) ) ;
#45 = APPROVAL_ROLE ( '' ) ;
#46 = CIRCLE ( 'NONE', #315, 1.500000000000001332 ) ;
#47 = ORIENTED_EDGE ( 'NONE', *, *, #270, .F. ) ;
#48 = CC_DESIGN_PERSON_AND_ORGANIZATION_ASSIGNMENT ( #287, #203, ( #57 ) ) ;
#49 = FACE_BOUND ( 'NONE', #139, .T. ) ;
#50 = COORDINATED_UNIVERSAL_TIME_OFFSET ( 5, 30, .AHEAD. ) ;
#51 = ORIENTED_EDGE ( 'NONE', *, *, #205, .F. ) ;
#52 = PERSON_AND_ORGANIZATION ( #70, #378 ) ;
#53 = DIRECTION ( 'NONE',  ( -1.000000000000000000, 0.000000000000000000, 0.000000000000000000 ) ) ;
#54 = ADVANCED_FACE ( 'NONE', ( #267 ), #294, .F. ) ;
#55 = CYLINDRICAL_SURFACE ( 'NONE', #56, 1.500000000000001332 ) ;
#56 = AXIS2_PLACEMENT_3D ( 'NONE', #113, #240, #322 ) ;
#57 = PRODUCT_DEFINITION_FORMATION_WITH_SPECIFIED_SOURCE ( 'ANY', '', #339, .NOT_KNOWN. ) ;
#58 = LINE ( 'NONE', #350, #320 ) ;
#59 = FACE_OUTER_BOUND ( 'NONE', #375, .T. ) ;
#60 = DIRECTION ( 'NONE',  ( -0.000000000000000000, -0.000000000000000000, -1.000000000000000000 ) ) ;
#61 = ADVANCED_FACE ( 'NONE', ( #377 ), #27, .F. ) ;
#62 =( LENGTH_UNIT ( ) NAMED_UNIT ( * ) SI_UNIT ( .MILLI., .METRE. ) );
#63 = VECTOR ( 'NONE', #359, 1000.000000000000000 ) ;
#64 = FACE_BOUND ( 'NONE', #288, .T. ) ;
#65 = DIRECTION ( 'NONE',  ( -0.000000000000000000, -0.000000000000000000, -1.000000000000000000 ) ) ;
#66 = ORIENTED_EDGE ( 'NONE', *, *, #247, .T. ) ;
#67 = ADVANCED_FACE ( 'NONE', ( #204 ), #151, .F. ) ;
#68 = VECTOR ( 'NONE', #73, 1000.000000000000000 ) ;
#69 = VECTOR ( 'NONE', #385, 1000.000000000000000 ) ;
#70 = PERSON ( 'UNSPECIFIED', 'UNSPECIFIED', 'UNSPECIFIED', ('UNSPECIFIED'), ('UNSPECIFIED'), ('UNSPECIFIED') ) ;
#71 = ORIENTED_EDGE ( 'NONE', *, *, #159, .F. ) ;
#72 = ORIENTED_EDGE ( 'NONE', *, *, #20, .F. ) ;
#73 = DIRECTION ( 'NONE',  ( 1.000000000000000000, 0.000000000000000000, 0.000000000000000000 ) ) ;
#74 = DIRECTION ( 'NONE',  ( -1.000000000000000000, -0.000000000000000000, -0.000000000000000000 ) ) ;
#75 = ORIENTED_EDGE ( 'NONE', *, *, #37, .T. ) ;
#76 = DIRECTION ( 'NONE',  ( -0.000000000000000000, -0.000000000000000000, -1.000000000000000000 ) ) ;
#77 = DATE_AND_TIME ( #229, #100 ) ;
#78 = ORIENTED_EDGE ( 'NONE', *, *, #281, .T. ) ;
#79 = FACE_BOUND ( 'NONE', #4, .T. ) ;
#80 = CARTESIAN_POINT ( 'NONE',  ( -30.00000000000000711, 20.00000000000000000, 0.000000000000000000 ) ) ;
#81 = PLANE ( 'NONE',  #137 ) ;
#82 = PERSON_AND_ORGANIZATION_ROLE ( 'creator' ) ;
#83 = APPROVAL ( #141, 'UNSPECIFIED' ) ;
#84 = DATE_AND_TIME ( #209, #36 ) ;
#85 = DIRECTION ( 'NONE',  ( -0.000000000000000000, -0.000000000000000000, -1.000000000000000000 ) ) ;
#86 = VECTOR ( 'NONE', #170, 1000.000000000000000 ) ;
#87 = VECTOR ( 'NONE', #354, 1000.000000000000000 ) ;
#88 = CARTESIAN_POINT ( 'NONE',  ( 28.99999999999999645, 1.836970198721029934E-16, 2.000000000000000000 ) ) ;
#89 = CARTESIAN_POINT ( 'NONE',  ( 27.49999999999999645, 0.000000000000000000, 2.001000000000000334 ) ) ;
#90 = ORIENTED_EDGE ( 'NONE', *, *, #310, .F. ) ;
#91 = ADVANCED_FACE ( 'NONE', ( #59 ), #324, .F. ) ;
#92 = AXIS2_PLACEMENT_3D ( 'NONE', #262, #149, #265 ) ;
#93 = APPROVAL_PERSON_ORGANIZATION ( #52, #129, #45 ) ;
#94 = CARTESIAN_POINT ( 'NONE',  ( -29.00000000000000711, -3.469446951953614189E-15, 2.001000000000000334 ) ) ;
#95 = ORIENTED_EDGE ( 'NONE', *, *, #150, .F. ) ;
#96 = EDGE_CURVE ( 'NONE', #334, #221, #58, .T. ) ;
#97 = LINE ( 'NONE', #1, #63 ) ;
#98 = ORIENTED_EDGE ( 'NONE', *, *, #107, .T. ) ;
#99 = MECHANICAL_CONTEXT ( 'NONE', #330, 'mechanical' ) ;
#100 = LOCAL_TIME ( 9, 46, 6.000000000000000000, #50 ) ;
#101 = EDGE_CURVE ( 'NONE', #340, #243, #319, .T. ) ;
#102 = ORIENTED_EDGE ( 'NONE', *, *, #172, .T. ) ;
#103 = ADVANCED_FACE ( 'NONE', ( #26 ), #22, .F. ) ;
#104 = AXIS2_PLACEMENT_3D ( 'NONE', #89, #146, #28 ) ;
#105 = LOCAL_TIME ( 9, 46, 6.000000000000000000, #318 ) ;
#106 = ORIENTED_EDGE ( 'NONE', *, *, #107, .F. ) ;
#107 = EDGE_CURVE ( 'NONE', #282, #272, #116, .T. ) ;
#108 = LINE ( 'NONE', #309, #117 ) ;
#109 = PERSON_AND_ORGANIZATION ( #70, #378 ) ;
#110 = ORIENTED_EDGE ( 'NONE', *, *, #34, .T. ) ;
#111 = CARTESIAN_POINT ( 'NONE',  ( 27.49999999999999645, 0.000000000000000000, 2.000000000000000000 ) ) ;
#112 = COORDINATED_UNIVERSAL_TIME_OFFSET ( 5, 30, .AHEAD. ) ;
#113 = CARTESIAN_POINT ( 'NONE',  ( 27.49999999999999645, 0.000000000000000000, 2.001000000000000334 ) ) ;
#114 = CIRCLE ( 'NONE', #299, 1.500000000000001332 ) ;
#115 = LINE ( 'NONE', #355, #298 ) ;
#116 = LINE ( 'NONE', #275, #156 ) ;
#117 = VECTOR ( 'NONE', #74, 1000.000000000000000 ) ;
#118 = AXIS2_PLACEMENT_3D ( 'NONE', #120, #2, #123 ) ;
#119 = EDGE_CURVE ( 'NONE', #16, #165, #292, .T. ) ;
#120 = CARTESIAN_POINT ( 'NONE',  ( -30.00000000000000711, 20.00000000000000000, 2.000000000000000000 ) ) ;
#121 = CARTESIAN_POINT ( 'NONE',  ( 29.99999999999999289, 20.00000000000000000, 0.000000000000000000 ) ) ;
#122 = ORIENTED_EDGE ( 'NONE', *, *, #297, .F. ) ;
#123 = DIRECTION ( 'NONE',  ( -8.673617379884035472E-17, 1.000000000000000000, 0.000000000000000000 ) ) ;
#124 = EDGE_CURVE ( 'NONE', #165, #16, #145, .T. ) ;
#125 = ORIENTED_EDGE ( 'NONE', *, *, #307, .F. ) ;
#126 = VECTOR ( 'NONE', #60, 1000.000000000000000 ) ;
#127 = DIRECTION ( 'NONE',  ( -8.673617379884035472E-17, 1.000000000000000000, -0.000000000000000000 ) ) ;
#128 = DIRECTION ( 'NONE',  ( 0.000000000000000000, -0.000000000000000000, -1.000000000000000000 ) ) ;
#129 = APPROVAL ( #147, 'UNSPECIFIED' ) ;
#130 = AXIS2_PLACEMENT_3D ( 'NONE', #291, #264, #53 ) ;
#131 = CARTESIAN_POINT ( 'NONE',  ( -27.50000000000000711, -3.469446951953614189E-15, 0.000000000000000000 ) ) ;
#132 = ORIENTED_EDGE ( 'NONE', *, *, #96, .T. ) ;
#133 = LINE ( 'NONE', #14, #86 ) ;
#134 = ORIENTED_EDGE ( 'NONE', *, *, #119, .F. ) ;
#135 = ORIENTED_EDGE ( 'NONE', *, *, #101, .F. ) ;
#136 = CLOSED_SHELL ( 'NONE', ( #219, #31, #103, #91, #381, #54, #224, #379, #61, #67 ) ) ;
#137 = AXIS2_PLACEMENT_3D ( 'NONE', #276, #269, #274 ) ;
#138 = APPROVAL_ROLE ( '' ) ;
#139 = EDGE_LOOP ( 'NONE', ( #277, #42 ) ) ;
#140 = EDGE_LOOP ( 'NONE', ( #102, #106, #71, #78 ) ) ;
#141 = APPROVAL_STATUS ( 'not_yet_approved' ) ;
#142 = DIRECTION ( 'NONE',  ( 0.000000000000000000, -0.000000000000000000, -1.000000000000000000 ) ) ;
#143 = DESIGN_CONTEXT ( 'detailed design', #210, 'design' ) ;
#144 = CALENDAR_DATE ( 2026, 9, 9 ) ;
#145 = CIRCLE ( 'NONE', #368, 1.500000000000001332 ) ;
#146 = DIRECTION ( 'NONE',  ( -0.000000000000000000, -0.000000000000000000, -1.000000000000000000 ) ) ;
#147 = APPROVAL_STATUS ( 'not_yet_approved' ) ;
#148 = CARTESIAN_POINT ( 'NONE',  ( -27.50000000000000711, -3.469446951953614189E-15, 2.000000000000000000 ) ) ;
#149 = DIRECTION ( 'NONE',  ( -1.000000000000000000, -8.673617379884035472E-17, 0.000000000000000000 ) ) ;
#150 = EDGE_CURVE ( 'NONE', #282, #218, #366, .T. ) ;
#151 = CYLINDRICAL_SURFACE ( 'NONE', #130, 1.500000000000001332 ) ;
#152 = PLANE ( 'NONE',  #370 ) ;
#153 = EDGE_CURVE ( 'NONE', #218, #340, #338, .T. ) ;
#154 = CARTESIAN_POINT ( 'NONE',  ( -30.00000000000000355, -20.00000000000000000, 2.000000000000000000 ) ) ;
#155 = LINE ( 'NONE', #217, #216 ) ;
#156 = VECTOR ( 'NONE', #335, 1000.000000000000000 ) ;
#157 = DIRECTION ( 'NONE',  ( 0.000000000000000000, 0.000000000000000000, -1.000000000000000000 ) ) ;
#158 = PERSON_AND_ORGANIZATION_ROLE ( 'design_owner' ) ;
#159 = EDGE_CURVE ( 'NONE', #243, #282, #133, .T. ) ;
#160 = DIRECTION ( 'NONE',  ( -1.000000000000000000, 0.000000000000000000, 0.000000000000000000 ) ) ;
#161 = AXIS2_PLACEMENT_3D ( 'NONE', #252, #363, #367 ) ;
#162 = LINE ( 'NONE', #280, #68 ) ;
#163 =( NAMED_UNIT ( * ) SI_UNIT ( $, .STERADIAN. ) SOLID_ANGLE_UNIT ( ) );
#164 = ORIENTED_EDGE ( 'NONE', *, *, #159, .T. ) ;
#165 = VERTEX_POINT ( 'NONE', #39 ) ;
#166 = DIRECTION ( 'NONE',  ( -1.000000000000000000, 0.000000000000000000, 0.000000000000000000 ) ) ;
#167 = APPLICATION_PROTOCOL_DEFINITION ( 'international standard', 'config_control_design', 1994, #330 ) ;
#168 = ORIENTED_EDGE ( 'NONE', *, *, #222, .F. ) ;
#169 = AXIS2_PLACEMENT_3D ( 'NONE', #295, #234, #178 ) ;
#170 = DIRECTION ( 'NONE',  ( 1.000000000000000000, 0.000000000000000000, 0.000000000000000000 ) ) ;
#171 = EDGE_LOOP ( 'NONE', ( #342, #110, #245, #202 ) ) ;
#172 = EDGE_CURVE ( 'NONE', #283, #272, #162, .T. ) ;
#173 = FACE_OUTER_BOUND ( 'NONE', #337, .T. ) ;
#174 = ORIENTED_EDGE ( 'NONE', *, *, #5, .F. ) ;
#175 = CALENDAR_DATE ( 2026, 9, 9 ) ;
#176 = DIRECTION ( 'NONE',  ( 8.673617379884035472E-17, -1.000000000000000000, 0.000000000000000000 ) ) ;
#177 = APPROVAL_STATUS ( 'not_yet_approved' ) ;
#178 = DIRECTION ( 'NONE',  ( 0.000000000000000000, -0.000000000000000000, 1.000000000000000000 ) ) ;
#179 = COORDINATED_UNIVERSAL_TIME_OFFSET ( 5, 30, .AHEAD. ) ;
#180 = CARTESIAN_POINT ( 'NONE',  ( -30.00000000000000711, 20.00000000000000000, 2.000000000000000000 ) ) ;
#181 = CARTESIAN_POINT ( 'NONE',  ( 27.49999999999999645, 0.000000000000000000, 0.000000000000000000 ) ) ;
#182 = AXIS2_PLACEMENT_3D ( 'NONE', #286, #200, #346 ) ;
#183 = APPROVAL_PERSON_ORGANIZATION ( #321, #347, #138 ) ;
#184 = CARTESIAN_POINT ( 'NONE',  ( 0.000000000000000000, 0.000000000000000000, 0.000000000000000000 ) ) ;
#185 = DIRECTION ( 'NONE',  ( -1.000000000000000000, 0.000000000000000000, 0.000000000000000000 ) ) ;
#186 =( NAMED_UNIT ( * ) PLANE_ANGLE_UNIT ( ) SI_UNIT ( $, .RADIAN. ) );
#187 = APPROVAL_PERSON_ORGANIZATION ( #109, #83, #344 ) ;
#188 = PERSON_AND_ORGANIZATION ( #70, #378 ) ;
#189 = DIRECTION ( 'NONE',  ( -1.000000000000000000, -0.000000000000000000, -0.000000000000000000 ) ) ;
#190 = ORIENTED_EDGE ( 'NONE', *, *, #352, .T. ) ;
#191 = VECTOR ( 'NONE', #176, 1000.000000000000000 ) ;
#192 = AXIS2_PLACEMENT_3D ( 'NONE', #3, #128, #214 ) ;
#193 = CARTESIAN_POINT ( 'NONE',  ( 25.99999999999999645, 0.000000000000000000, 2.000000000000000000 ) ) ;
#194 = EDGE_LOOP ( 'NONE', ( #125, #311, #226, #51 ) ) ;
#195 = CYLINDRICAL_SURFACE ( 'NONE', #249, 1.500000000000001332 ) ;
#196 = ORIENTED_EDGE ( 'NONE', *, *, #270, .T. ) ;
#197 = DIRECTION ( 'NONE',  ( -1.000000000000000000, 0.000000000000000000, 0.000000000000000000 ) ) ;
#198 = PERSON_AND_ORGANIZATION_ROLE ( 'classification_officer' ) ;
#199 = EDGE_LOOP ( 'NONE', ( #66, #314, #135, #75 ) ) ;
#200 = DIRECTION ( 'NONE',  ( 0.000000000000000000, 0.000000000000000000, -1.000000000000000000 ) ) ;
#201 = DATE_TIME_ROLE ( 'creation_date' ) ;
#202 = ORIENTED_EDGE ( 'NONE', *, *, #289, .F. ) ;
#203 = PERSON_AND_ORGANIZATION_ROLE ( 'design_supplier' ) ;
#204 = FACE_OUTER_BOUND ( 'NONE', #7, .T. ) ;
#205 = EDGE_CURVE ( 'NONE', #332, #13, #108, .T. ) ;
#206 = FACE_OUTER_BOUND ( 'NONE', #257, .T. ) ;
#207 = CC_DESIGN_PERSON_AND_ORGANIZATION_ASSIGNMENT ( #374, #82, ( #57 ) ) ;
#208 = VECTOR ( 'NONE', #362, 1000.000000000000000 ) ;
#209 = CALENDAR_DATE ( 2026, 9, 9 ) ;
#210 = APPLICATION_CONTEXT ( 'configuration controlled 3d designs of mechanical parts and assemblies' ) ;
#211 = CARTESIAN_POINT ( 'NONE',  ( -26.00000000000000711, -3.285749932081511072E-15, 0.000000000000000000 ) ) ;
#212 = LINE ( 'NONE', #121, #326 ) ;
#213 = CARTESIAN_POINT ( 'NONE',  ( -30.00000000000000711, 20.00000000000000000, 2.000000000000000000 ) ) ;
#214 = DIRECTION ( 'NONE',  ( 1.000000000000000000, 0.000000000000000000, 0.000000000000000000 ) ) ;
#215 = VERTEX_POINT ( 'NONE', #193 ) ;
#216 = VECTOR ( 'NONE', #65, 1000.000000000000000 ) ;
#217 = CARTESIAN_POINT ( 'NONE',  ( 29.99999999999999289, 20.00000000000000000, 2.000000000000000000 ) ) ;
#218 = VERTEX_POINT ( 'NONE', #227 ) ;
#219 = ADVANCED_FACE ( 'NONE', ( #343 ), #195, .F. ) ;
#220 = LINE ( 'NONE', #94, #126 ) ;
#221 = VERTEX_POINT ( 'NONE', #312 ) ;
#222 = EDGE_CURVE ( 'NONE', #33, #221, #30, .T. ) ;
#223 = ORIENTED_EDGE ( 'NONE', *, *, #307, .T. ) ;
#224 = ADVANCED_FACE ( 'NONE', ( #79, #49, #173 ), #81, .T. ) ;
#225 = CIRCLE ( 'NONE', #266, 1.500000000000001332 ) ;
#226 = ORIENTED_EDGE ( 'NONE', *, *, #247, .F. ) ;
#227 = CARTESIAN_POINT ( 'NONE',  ( 29.99999999999999289, 20.00000000000000000, 2.000000000000000000 ) ) ;
#228 = ADVANCED_BREP_SHAPE_REPRESENTATION ( 'GripperFlatSurface_Default_sldprt', ( #361, #161 ), #17 ) ;
#229 = CALENDAR_DATE ( 2026, 9, 9 ) ;
#230 = ORIENTED_EDGE ( 'NONE', *, *, #297, .T. ) ;
#231 = DIRECTION ( 'NONE',  ( 0.000000000000000000, -0.000000000000000000, -1.000000000000000000 ) ) ;
#232 = CC_DESIGN_APPROVAL ( #347, ( #10 ) ) ;
#233 = DATE_AND_TIME ( #235, #40 ) ;
#234 = DIRECTION ( 'NONE',  ( 0.000000000000000000, 1.000000000000000000, 0.000000000000000000 ) ) ;
#235 = CALENDAR_DATE ( 2026, 9, 9 ) ;
#236 = LINE ( 'NONE', #353, #273 ) ;
#237 = PERSON_AND_ORGANIZATION ( #70, #378 ) ;
#238 = AXIS2_PLACEMENT_3D ( 'NONE', #38, #44, #160 ) ;
#239 = CC_DESIGN_APPROVAL ( #83, ( #57 ) ) ;
#240 = DIRECTION ( 'NONE',  ( -0.000000000000000000, -0.000000000000000000, -1.000000000000000000 ) ) ;
#241 = PLANE ( 'NONE',  #118 ) ;
#242 = CARTESIAN_POINT ( 'NONE',  ( -26.00000000000000711, -3.285749932081511072E-15, 2.000000000000000000 ) ) ;
#243 = VERTEX_POINT ( 'NONE', #154 ) ;
#244 = DIRECTION ( 'NONE',  ( 1.000000000000000000, 0.000000000000000000, 0.000000000000000000 ) ) ;
#245 = ORIENTED_EDGE ( 'NONE', *, *, #119, .T. ) ;
#246 = DIRECTION ( 'NONE',  ( -0.000000000000000000, 0.000000000000000000, 1.000000000000000000 ) ) ;
#247 = EDGE_CURVE ( 'NONE', #13, #283, #296, .T. ) ;
#248 = VERTEX_POINT ( 'NONE', #325 ) ;
#249 = AXIS2_PLACEMENT_3D ( 'NONE', #12, #76, #197 ) ;
#250 = CARTESIAN_POINT ( 'NONE',  ( 29.99999999999999289, 20.00000000000000000, 2.000000000000000000 ) ) ;
#251 = EDGE_CURVE ( 'NONE', #372, #248, #285, .T. ) ;
#252 = CARTESIAN_POINT ( 'NONE',  ( 0.000000000000000000, 0.000000000000000000, 0.000000000000000000 ) ) ;
#253 = ORIENTED_EDGE ( 'NONE', *, *, #124, .T. ) ;
#254 = EDGE_LOOP ( 'NONE', ( #223, #122, #95, #98 ) ) ;
#255 = ORIENTED_EDGE ( 'NONE', *, *, #20, .T. ) ;
#256 = VECTOR ( 'NONE', #189, 1000.000000000000000 ) ;
#257 = EDGE_LOOP ( 'NONE', ( #90, #132, #190, #47 ) ) ;
#258 = ORIENTED_EDGE ( 'NONE', *, *, #101, .T. ) ;
#259 = AXIS2_PLACEMENT_3D ( 'NONE', #213, #380, #293 ) ;
#260 = SECURITY_CLASSIFICATION ( '', '', #316 ) ;
#261 = SHAPE_DEFINITION_REPRESENTATION ( #15, #228 ) ;
#262 = CARTESIAN_POINT ( 'NONE',  ( 29.99999999999999289, 20.00000000000000000, 2.000000000000000000 ) ) ;
#263 = APPROVAL_DATE_TIME ( #77, #83 ) ;
#264 = DIRECTION ( 'NONE',  ( -0.000000000000000000, -0.000000000000000000, -1.000000000000000000 ) ) ;
#265 = DIRECTION ( 'NONE',  ( 8.673617379884035472E-17, -1.000000000000000000, 0.000000000000000000 ) ) ;
#266 = AXIS2_PLACEMENT_3D ( 'NONE', #111, #231, #348 ) ;
#267 = FACE_OUTER_BOUND ( 'NONE', #140, .T. ) ;
#268 = CARTESIAN_POINT ( 'NONE',  ( 29.99999999999999645, -20.00000000000000000, 0.000000000000000000 ) ) ;
#269 = DIRECTION ( 'NONE',  ( -0.000000000000000000, 0.000000000000000000, 1.000000000000000000 ) ) ;
#270 = EDGE_CURVE ( 'NONE', #215, #33, #97, .T. ) ;
#271 = FACE_BOUND ( 'NONE', #369, .T. ) ;
#272 = VERTEX_POINT ( 'NONE', #268 ) ;
#273 = VECTOR ( 'NONE', #384, 1000.000000000000000 ) ;
#274 = DIRECTION ( 'NONE',  ( 1.000000000000000000, 0.000000000000000000, 0.000000000000000000 ) ) ;
#275 = CARTESIAN_POINT ( 'NONE',  ( 29.99999999999999645, -20.00000000000000000, 2.000000000000000000 ) ) ;
#276 = CARTESIAN_POINT ( 'NONE',  ( 0.000000000000000000, 0.000000000000000000, 2.000000000000000000 ) ) ;
#277 = ORIENTED_EDGE ( 'NONE', *, *, #5, .T. ) ;
#278 = AXIS2_PLACEMENT_3D ( 'NONE', #300, #327, #323 ) ;
#279 = ORIENTED_EDGE ( 'NONE', *, *, #352, .F. ) ;
#280 = CARTESIAN_POINT ( 'NONE',  ( -30.00000000000000355, -20.00000000000000000, 0.000000000000000000 ) ) ;
#281 = EDGE_CURVE ( 'NONE', #243, #283, #6, .T. ) ;
#282 = VERTEX_POINT ( 'NONE', #35 ) ;
#283 = VERTEX_POINT ( 'NONE', #29 ) ;
#284 = CC_DESIGN_DATE_AND_TIME_ASSIGNMENT ( #290, #201, ( #10 ) ) ;
#285 = CIRCLE ( 'NONE', #192, 1.500000000000001332 ) ;
#286 = CARTESIAN_POINT ( 'NONE',  ( 27.49999999999999645, 0.000000000000000000, 0.000000000000000000 ) ) ;
#287 = PERSON_AND_ORGANIZATION ( #70, #378 ) ;
#288 = EDGE_LOOP ( 'NONE', ( #43, #134 ) ) ;
#289 = EDGE_CURVE ( 'NONE', #248, #165, #220, .T. ) ;
#290 = DATE_AND_TIME ( #144, #383 ) ;
#291 = CARTESIAN_POINT ( 'NONE',  ( -27.50000000000000711, -3.469446951953614189E-15, 2.001000000000000334 ) ) ;
#292 = CIRCLE ( 'NONE', #238, 1.500000000000001332 ) ;
#293 = DIRECTION ( 'NONE',  ( 0.000000000000000000, -0.000000000000000000, -1.000000000000000000 ) ) ;
#294 = PLANE ( 'NONE',  #169 ) ;
#295 = CARTESIAN_POINT ( 'NONE',  ( -30.00000000000000355, -20.00000000000000000, 2.000000000000000000 ) ) ;
#296 = LINE ( 'NONE', #32, #69 ) ;
#297 = EDGE_CURVE ( 'NONE', #218, #332, #155, .T. ) ;
#298 = VECTOR ( 'NONE', #382, 1000.000000000000000 ) ;
#299 = AXIS2_PLACEMENT_3D ( 'NONE', #181, #157, #185 ) ;
#300 = CARTESIAN_POINT ( 'NONE',  ( 27.49999999999999645, 0.000000000000000000, 2.000000000000000000 ) ) ;
#301 = FACE_OUTER_BOUND ( 'NONE', #199, .T. ) ;
#302 = ORIENTED_EDGE ( 'NONE', *, *, #289, .T. ) ;
#303 = ORIENTED_EDGE ( 'NONE', *, *, #37, .F. ) ;
#304 = PRODUCT_RELATED_PRODUCT_CATEGORY ( 'detail', '', ( #339 ) ) ;
#305 = ORIENTED_EDGE ( 'NONE', *, *, #251, .T. ) ;
#306 = CC_DESIGN_SECURITY_CLASSIFICATION ( #260, ( #57 ) ) ;
#307 = EDGE_CURVE ( 'NONE', #272, #332, #212, .T. ) ;
#308 = DIRECTION ( 'NONE',  ( 0.000000000000000000, 0.000000000000000000, -1.000000000000000000 ) ) ;
#309 = CARTESIAN_POINT ( 'NONE',  ( -30.00000000000000711, 20.00000000000000000, 0.000000000000000000 ) ) ;
#310 = EDGE_CURVE ( 'NONE', #334, #215, #8, .T. ) ;
#311 = ORIENTED_EDGE ( 'NONE', *, *, #172, .F. ) ;
#312 = CARTESIAN_POINT ( 'NONE',  ( 28.99999999999999645, 1.836970198721029934E-16, 0.000000000000000000 ) ) ;
#313 = COORDINATED_UNIVERSAL_TIME_OFFSET ( 5, 30, .AHEAD. ) ;
#314 = ORIENTED_EDGE ( 'NONE', *, *, #281, .F. ) ;
#315 = AXIS2_PLACEMENT_3D ( 'NONE', #148, #142, #317 ) ;
#316 = SECURITY_CLASSIFICATION_LEVEL ( 'unclassified' ) ;
#317 = DIRECTION ( 'NONE',  ( 1.000000000000000000, 0.000000000000000000, 0.000000000000000000 ) ) ;
#318 = COORDINATED_UNIVERSAL_TIME_OFFSET ( 5, 30, .AHEAD. ) ;
#319 = LINE ( 'NONE', #180, #191 ) ;
#320 = VECTOR ( 'NONE', #85, 1000.000000000000000 ) ;
#321 = PERSON_AND_ORGANIZATION ( #70, #378 ) ;
#322 = DIRECTION ( 'NONE',  ( -1.000000000000000000, 0.000000000000000000, 0.000000000000000000 ) ) ;
#323 = DIRECTION ( 'NONE',  ( 1.000000000000000000, 0.000000000000000000, 0.000000000000000000 ) ) ;
#324 = PLANE ( 'NONE',  #259 ) ;
#325 = CARTESIAN_POINT ( 'NONE',  ( -29.00000000000000711, -3.469446951953614189E-15, 2.000000000000000000 ) ) ;
#326 = VECTOR ( 'NONE', #127, 1000.000000000000000 ) ;
#327 = DIRECTION ( 'NONE',  ( 0.000000000000000000, -0.000000000000000000, -1.000000000000000000 ) ) ;
#328 = ORIENTED_EDGE ( 'NONE', *, *, #205, .T. ) ;
#329 = CC_DESIGN_PERSON_AND_ORGANIZATION_ASSIGNMENT ( #237, #198, ( #260 ) ) ;
#330 = APPLICATION_CONTEXT ( 'configuration controlled 3d designs of mechanical parts and assemblies' ) ;
#331 = CARTESIAN_POINT ( 'NONE',  ( 29.99999999999999289, 20.00000000000000000, 0.000000000000000000 ) ) ;
#332 = VERTEX_POINT ( 'NONE', #331 ) ;
#333 = FACE_OUTER_BOUND ( 'NONE', #194, .T. ) ;
#334 = VERTEX_POINT ( 'NONE', #88 ) ;
#335 = DIRECTION ( 'NONE',  ( -0.000000000000000000, -0.000000000000000000, -1.000000000000000000 ) ) ;
#336 = CARTESIAN_POINT ( 'NONE',  ( -30.00000000000000711, 20.00000000000000000, 2.000000000000000000 ) ) ;
#337 = EDGE_LOOP ( 'NONE', ( #360, #11, #258, #164 ) ) ;
#338 = LINE ( 'NONE', #336, #256 ) ;
#339 = PRODUCT ( 'GripperFlatSurface_Default_sldprt', 'GripperFlatSurface_Default_sldprt', '', ( #99 ) ) ;
#340 = VERTEX_POINT ( 'NONE', #357 ) ;
#341 = CC_DESIGN_DATE_AND_TIME_ASSIGNMENT ( #84, #24, ( #260 ) ) ;
#342 = ORIENTED_EDGE ( 'NONE', *, *, #251, .F. ) ;
#343 = FACE_OUTER_BOUND ( 'NONE', #171, .T. ) ;
#344 = APPROVAL_ROLE ( '' ) ;
#345 = EDGE_LOOP ( 'NONE', ( #364, #174, #196, #41 ) ) ;
#346 = DIRECTION ( 'NONE',  ( -1.000000000000000000, 0.000000000000000000, 0.000000000000000000 ) ) ;
#347 = APPROVAL ( #177, 'UNSPECIFIED' ) ;
#348 = DIRECTION ( 'NONE',  ( 1.000000000000000000, 0.000000000000000000, 0.000000000000000000 ) ) ;
#349 = PERSON_AND_ORGANIZATION ( #70, #378 ) ;
#350 = CARTESIAN_POINT ( 'NONE',  ( 28.99999999999999645, 1.836970198721030674E-16, 2.001000000000000334 ) ) ;
#351 = PERSON_AND_ORGANIZATION_ROLE ( 'creator' ) ;
#352 = EDGE_CURVE ( 'NONE', #221, #33, #114, .T. ) ;
#353 = CARTESIAN_POINT ( 'NONE',  ( -26.00000000000000711, -3.285749932081511072E-15, 2.001000000000000334 ) ) ;
#354 = DIRECTION ( 'NONE',  ( -0.000000000000000000, -0.000000000000000000, -1.000000000000000000 ) ) ;
#355 = CARTESIAN_POINT ( 'NONE',  ( -30.00000000000000711, 20.00000000000000000, 2.000000000000000000 ) ) ;
#356 = CARTESIAN_POINT ( 'NONE',  ( -30.00000000000000355, -20.00000000000000000, 2.000000000000000000 ) ) ;
#357 = CARTESIAN_POINT ( 'NONE',  ( -30.00000000000000711, 20.00000000000000000, 2.000000000000000000 ) ) ;
#358 = ORIENTED_EDGE ( 'NONE', *, *, #153, .F. ) ;
#359 = DIRECTION ( 'NONE',  ( -0.000000000000000000, -0.000000000000000000, -1.000000000000000000 ) ) ;
#360 = ORIENTED_EDGE ( 'NONE', *, *, #150, .T. ) ;
#361 = MANIFOLD_SOLID_BREP ( 'Cut-Extrude1', #136 ) ;
#362 = DIRECTION ( 'NONE',  ( -8.673617379884035472E-17, 1.000000000000000000, -0.000000000000000000 ) ) ;
#363 = DIRECTION ( 'NONE',  ( 0.000000000000000000, 0.000000000000000000, 1.000000000000000000 ) ) ;
#364 = ORIENTED_EDGE ( 'NONE', *, *, #96, .F. ) ;
#365 = UNCERTAINTY_MEASURE_WITH_UNIT (LENGTH_MEASURE( 1.000000000000000082E-05 ), #62, 'distance_accuracy_value', 'NONE');
#366 = LINE ( 'NONE', #250, #208 ) ;
#367 = DIRECTION ( 'NONE',  ( 1.000000000000000000, 0.000000000000000000, 0.000000000000000000 ) ) ;
#368 = AXIS2_PLACEMENT_3D ( 'NONE', #131, #308, #166 ) ;
#369 = EDGE_LOOP ( 'NONE', ( #168, #279 ) ) ;
#370 = AXIS2_PLACEMENT_3D ( 'NONE', #184, #246, #244 ) ;
#371 = APPROVAL_DATE_TIME ( #233, #347 ) ;
#372 = VERTEX_POINT ( 'NONE', #242 ) ;
#373 = CC_DESIGN_PERSON_AND_ORGANIZATION_ASSIGNMENT ( #349, #351, ( #10 ) ) ;
#374 = PERSON_AND_ORGANIZATION ( #70, #378 ) ;
#375 = EDGE_LOOP ( 'NONE', ( #328, #303, #358, #230 ) ) ;
#376 = APPLICATION_PROTOCOL_DEFINITION ( 'international standard', 'config_control_design', 1994, #210 ) ;
#377 = FACE_OUTER_BOUND ( 'NONE', #345, .T. ) ;
#378 = ORGANIZATION ( 'UNSPECIFIED', 'UNSPECIFIED', '' ) ;
#379 = ADVANCED_FACE ( 'NONE', ( #64, #271, #333 ), #152, .F. ) ;
#380 = DIRECTION ( 'NONE',  ( 0.000000000000000000, -1.000000000000000000, 0.000000000000000000 ) ) ;
#381 = ADVANCED_FACE ( 'NONE', ( #301 ), #241, .F. ) ;
#382 = DIRECTION ( 'NONE',  ( -0.000000000000000000, -0.000000000000000000, -1.000000000000000000 ) ) ;
#383 = LOCAL_TIME ( 9, 46, 6.000000000000000000, #179 ) ;
#384 = DIRECTION ( 'NONE',  ( -0.000000000000000000, -0.000000000000000000, -1.000000000000000000 ) ) ;
#385 = DIRECTION ( 'NONE',  ( 8.673617379884035472E-17, -1.000000000000000000, 0.000000000000000000 ) ) ;
ENDSEC;
END-ISO-10303-21;
