ISO-10303-21;
HEADER;
FILE_DESCRIPTION (( 'STEP AP203' ),
    '1' );
FILE_NAME ('Lid_Default_sldprt.STEP',
    '2026-09-09T04:16:07',
    ( '' ),
    ( '' ),
    'SwSTEP 2.0',
    'SolidWorks 2020',
    '' );
FILE_SCHEMA (( 'CONFIG_CONTROL_DESIGN' ));
ENDSEC;

DATA;
#1 = ORIENTED_EDGE ( 'NONE', *, *, #90, .F. ) ;
#2 = EDGE_CURVE ( 'NONE', #453, #639, #623, .T. ) ;
#3 = CARTESIAN_POINT ( 'NONE',  ( -9.000000000000001776, -7.749999999999996447, -0.001000000000000132727 ) ) ;
#4 = EDGE_CURVE ( 'NONE', #421, #379, #240, .T. ) ;
#5 = ORIENTED_EDGE ( 'NONE', *, *, #398, .F. ) ;
#6 = VECTOR ( 'NONE', #100, 1000.000000000000000 ) ;
#7 = DIRECTION ( 'NONE',  ( -0.000000000000000000, 0.000000000000000000, 1.000000000000000000 ) ) ;
#8 = CARTESIAN_POINT ( 'NONE',  ( 6.000000000000000888, 16.25000000000000355, 3.000000000000000000 ) ) ;
#9 = AXIS2_PLACEMENT_3D ( 'NONE', #394, #82, #79 ) ;
#10 = ORIENTED_EDGE ( 'NONE', *, *, #708, .T. ) ;
#11 = AXIS2_PLACEMENT_3D ( 'NONE', #831, #824, #723 ) ;
#12 = CIRCLE ( 'NONE', #270, 1.500000000000001332 ) ;
#13 = EDGE_LOOP ( 'NONE', ( #137, #599 ) ) ;
#14 = DIRECTION ( 'NONE',  ( 0.000000000000000000, 0.000000000000000000, 1.000000000000000000 ) ) ;
#15 = ORIENTED_EDGE ( 'NONE', *, *, #597, .T. ) ;
#16 = APPROVAL_STATUS ( 'not_yet_approved' ) ;
#17 = CARTESIAN_POINT ( 'NONE',  ( 18.25000000000001066, 0.2500000000000059397, -4.235164736271501695E-19 ) ) ;
#18 = ORIENTED_EDGE ( 'NONE', *, *, #290, .F. ) ;
#19 = ADVANCED_FACE ( 'NONE', ( #403 ), #266, .T. ) ;
#20 = DIRECTION ( 'NONE',  ( -0.000000000000000000, -0.000000000000000000, 1.000000000000000000 ) ) ;
#21 = FACE_BOUND ( 'NONE', #593, .T. ) ;
#22 = DIRECTION ( 'NONE',  ( 0.000000000000000000, 0.000000000000000000, 1.000000000000000000 ) ) ;
#23 = ORIENTED_EDGE ( 'NONE', *, *, #932, .T. ) ;
#24 = CYLINDRICAL_SURFACE ( 'NONE', #49, 6.000000000000000888 ) ;
#25 = FACE_BOUND ( 'NONE', #434, .T. ) ;
#26 = PERSON_AND_ORGANIZATION_ROLE ( 'design_owner' ) ;
#27 = AXIS2_PLACEMENT_3D ( 'NONE', #43, #575, #339 ) ;
#28 = CARTESIAN_POINT ( 'NONE',  ( -9.000000000000001776, -7.749999999999996447, 3.000000000000000000 ) ) ;
#29 = ORIENTED_EDGE ( 'NONE', *, *, #303, .T. ) ;
#30 = VECTOR ( 'NONE', #131, 1000.000000000000000 ) ;
#31 = CYLINDRICAL_SURFACE ( 'NONE', #11, 1.500000000000001332 ) ;
#32 = DATE_TIME_ROLE ( 'creation_date' ) ;
#33 = EDGE_CURVE ( 'NONE', #990, #677, #194, .T. ) ;
#34 = DIRECTION ( 'NONE',  ( 1.000000000000000000, 0.000000000000000000, 0.000000000000000000 ) ) ;
#35 = ORIENTED_EDGE ( 'NONE', *, *, #51, .T. ) ;
#36 = CYLINDRICAL_SURFACE ( 'NONE', #484, 1.499999999999999556 ) ;
#37 = COORDINATED_UNIVERSAL_TIME_OFFSET ( 5, 30, .AHEAD. ) ;
#38 = VERTEX_POINT ( 'NONE', #898 ) ;
#39 = DIRECTION ( 'NONE',  ( 1.156482317317871331E-15, 1.000000000000000000, 0.000000000000000000 ) ) ;
#40 = EDGE_CURVE ( 'NONE', #206, #828, #817, .T. ) ;
#41 = ORIENTED_EDGE ( 'NONE', *, *, #303, .F. ) ;
#42 = DIRECTION ( 'NONE',  ( 1.996804001124382178E-16, -1.000000000000000000, 0.000000000000000000 ) ) ;
#43 = CARTESIAN_POINT ( 'NONE',  ( -33.25000000000000000, 34.75000000000000000, 3.000000000000000000 ) ) ;
#44 = COORDINATED_UNIVERSAL_TIME_OFFSET ( 5, 30, .AHEAD. ) ;
#45 = ORIENTED_EDGE ( 'NONE', *, *, #993, .T. ) ;
#46 = PRODUCT_DEFINITION_SHAPE ( 'NONE', 'NONE',  #682 ) ;
#47 = CARTESIAN_POINT ( 'NONE',  ( -28.25000000000001421, 0.2500000000000071609, 3.000000000000000000 ) ) ;
#48 = EDGE_LOOP ( 'NONE', ( #544, #99, #375, #634 ) ) ;
#49 = AXIS2_PLACEMENT_3D ( 'NONE', #730, #20, #573 ) ;
#50 = DIRECTION ( 'NONE',  ( 1.156482317317871331E-15, 1.000000000000000000, 0.000000000000000000 ) ) ;
#51 = EDGE_CURVE ( 'NONE', #110, #785, #776, .T. ) ;
#52 = CARTESIAN_POINT ( 'NONE',  ( 27.50000000000000000, -19.74999999999999645, 3.000000000000000000 ) ) ;
#53 = ORIENTED_EDGE ( 'NONE', *, *, #33, .T. ) ;
#54 = CARTESIAN_POINT ( 'NONE',  ( -29.00000000000000000, -19.74999999999999645, -0.001000000000000132727 ) ) ;
#55 = PERSON_AND_ORGANIZATION ( #364, #632 ) ;
#56 = CARTESIAN_POINT ( 'NONE',  ( -10.50000000000000000, -7.749999999999996447, 3.000000000000000000 ) ) ;
#57 = EDGE_LOOP ( 'NONE', ( #101, #153, #681, #18 ) ) ;
#58 =( GEOMETRIC_REPRESENTATION_CONTEXT ( 3 ) GLOBAL_UNCERTAINTY_ASSIGNED_CONTEXT ( ( #112 ) ) GLOBAL_UNIT_ASSIGNED_CONTEXT ( ( #816, #562, #174 ) ) REPRESENTATION_CONTEXT ( 'NONE', 'WORKASPACE' ) );
#59 = CARTESIAN_POINT ( 'NONE',  ( 28.25000000000001066, 3.250000000000007105, -0.001000000000000132727 ) ) ;
#60 = CIRCLE ( 'NONE', #636, 1.499999999999999556 ) ;
#61 = APPROVAL_DATE_TIME ( #374, #603 ) ;
#62 = EDGE_CURVE ( 'NONE', #887, #445, #907, .T. ) ;
#63 = ORIENTED_EDGE ( 'NONE', *, *, #943, .F. ) ;
#64 = CARTESIAN_POINT ( 'NONE',  ( -9.000000000000001776, 25.25000000000000711, 3.000000000000000000 ) ) ;
#65 = FACE_OUTER_BOUND ( 'NONE', #631, .T. ) ;
#66 = ORIENTED_EDGE ( 'NONE', *, *, #540, .F. ) ;
#67 = ADVANCED_FACE ( 'NONE', ( #935 ), #284, .F. ) ;
#68 = DIRECTION ( 'NONE',  ( 1.000000000000000000, 0.000000000000000000, 0.000000000000000000 ) ) ;
#69 = DIRECTION ( 'NONE',  ( 1.000000000000000000, 0.000000000000000000, 0.000000000000000000 ) ) ;
#70 = ORIENTED_EDGE ( 'NONE', *, *, #916, .T. ) ;
#71 = ORIENTED_EDGE ( 'NONE', *, *, #515, .T. ) ;
#72 = ORIENTED_EDGE ( 'NONE', *, *, #458, .T. ) ;
#73 = DIRECTION ( 'NONE',  ( 1.000000000000000000, -1.246832498358329606E-16, 0.000000000000000000 ) ) ;
#74 = CIRCLE ( 'NONE', #549, 1.500000000000001332 ) ;
#75 = CIRCLE ( 'NONE', #221, 1.500000000000001332 ) ;
#76 = DIRECTION ( 'NONE',  ( -1.000000000000000000, 0.000000000000000000, 0.000000000000000000 ) ) ;
#77 = CIRCLE ( 'NONE', #976, 6.000000000000000888 ) ;
#78 = VERTEX_POINT ( 'NONE', #924 ) ;
#79 = DIRECTION ( 'NONE',  ( 1.000000000000000000, 0.000000000000000000, 0.000000000000000000 ) ) ;
#80 = VERTEX_POINT ( 'NONE', #56 ) ;
#81 = ORIENTED_EDGE ( 'NONE', *, *, #331, .F. ) ;
#82 = DIRECTION ( 'NONE',  ( 0.000000000000000000, -0.000000000000000000, -1.000000000000000000 ) ) ;
#83 = EDGE_LOOP ( 'NONE', ( #781, #979 ) ) ;
#84 = AXIS2_PLACEMENT_3D ( 'NONE', #650, #676, #818 ) ;
#85 = PLANE ( 'NONE',  #690 ) ;
#86 = CIRCLE ( 'NONE', #469, 1.499999999999999556 ) ;
#87 = DIRECTION ( 'NONE',  ( 1.000000000000000000, 0.000000000000000000, 0.000000000000000000 ) ) ;
#88 = DATE_AND_TIME ( #332, #809 ) ;
#89 = CIRCLE ( 'NONE', #222, 1.500000000000001332 ) ;
#90 = EDGE_CURVE ( 'NONE', #379, #864, #768, .T. ) ;
#91 = CARTESIAN_POINT ( 'NONE',  ( -33.25000000000000000, 34.75000000000000000, 3.000000000000000000 ) ) ;
#92 = ORIENTED_EDGE ( 'NONE', *, *, #678, .F. ) ;
#93 = FACE_OUTER_BOUND ( 'NONE', #901, .T. ) ;
#94 = CC_DESIGN_PERSON_AND_ORGANIZATION_ASSIGNMENT ( #922, #854, ( #327 ) ) ;
#95 = CARTESIAN_POINT ( 'NONE',  ( 33.25000000000000000, 34.75000000000000000, 0.000000000000000000 ) ) ;
#96 = VERTEX_POINT ( 'NONE', #204 ) ;
#97 = CARTESIAN_POINT ( 'NONE',  ( -10.50000000000000000, -7.749999999999996447, -0.001000000000000132727 ) ) ;
#98 = MECHANICAL_CONTEXT ( 'NONE', #911, 'mechanical' ) ;
#99 = ORIENTED_EDGE ( 'NONE', *, *, #331, .T. ) ;
#100 = DIRECTION ( 'NONE',  ( -1.000000000000000000, -0.000000000000000000, -0.000000000000000000 ) ) ;
#101 = ORIENTED_EDGE ( 'NONE', *, *, #62, .F. ) ;
#102 = PLANE ( 'NONE',  #192 ) ;
#103 = LINE ( 'NONE', #97, #521 ) ;
#104 = AXIS2_PLACEMENT_3D ( 'NONE', #968, #263, #732 ) ;
#105 = COORDINATED_UNIVERSAL_TIME_OFFSET ( 5, 30, .AHEAD. ) ;
#106 = VERTEX_POINT ( 'NONE', #605 ) ;
#107 = DIRECTION ( 'NONE',  ( 1.000000000000000000, 0.000000000000000000, 0.000000000000000000 ) ) ;
#108 = VECTOR ( 'NONE', #715, 1000.000000000000000 ) ;
#109 = CARTESIAN_POINT ( 'NONE',  ( -18.25000000000001066, 0.2500000000000059397, -0.001000000000000132727 ) ) ;
#110 = VERTEX_POINT ( 'NONE', #218 ) ;
#111 = AXIS2_PLACEMENT_3D ( 'NONE', #609, #749, #214 ) ;
#112 = UNCERTAINTY_MEASURE_WITH_UNIT (LENGTH_MEASURE( 1.000000000000000082E-05 ), #816, 'distance_accuracy_value', 'NONE');
#113 = FACE_OUTER_BOUND ( 'NONE', #920, .T. ) ;
#114 = EDGE_CURVE ( 'NONE', #772, #843, #931, .T. ) ;
#115 = DIRECTION ( 'NONE',  ( 0.000000000000000000, 0.000000000000000000, 1.000000000000000000 ) ) ;
#116 = CARTESIAN_POINT ( 'NONE',  ( 28.25000000000001421, 0.2500000000000071609, 0.000000000000000000 ) ) ;
#117 = LINE ( 'NONE', #734, #267 ) ;
#118 = EDGE_LOOP ( 'NONE', ( #717, #948, #837, #510 ) ) ;
#119 = FACE_OUTER_BOUND ( 'NONE', #363, .T. ) ;
#120 = DIRECTION ( 'NONE',  ( -0.000000000000000000, -0.000000000000000000, 1.000000000000000000 ) ) ;
#121 = ORIENTED_EDGE ( 'NONE', *, *, #1003, .F. ) ;
#122 = LINE ( 'NONE', #674, #874 ) ;
#123 = PERSON_AND_ORGANIZATION ( #364, #632 ) ;
#124 = ORIENTED_EDGE ( 'NONE', *, *, #823, .T. ) ;
#125 = DIRECTION ( 'NONE',  ( 1.000000000000000000, 0.000000000000000000, 0.000000000000000000 ) ) ;
#126 = DIRECTION ( 'NONE',  ( -0.000000000000000000, -0.000000000000000000, 1.000000000000000000 ) ) ;
#127 = ORIENTED_EDGE ( 'NONE', *, *, #598, .T. ) ;
#128 = CIRCLE ( 'NONE', #9, 1.499999999999999556 ) ;
#129 = DIRECTION ( 'NONE',  ( 0.000000000000000000, 0.000000000000000000, 1.000000000000000000 ) ) ;
#130 = AXIS2_PLACEMENT_3D ( 'NONE', #489, #820, #414 ) ;
#131 = DIRECTION ( 'NONE',  ( -0.000000000000000000, -0.000000000000000000, 1.000000000000000000 ) ) ;
#132 = ORIENTED_EDGE ( 'NONE', *, *, #413, .T. ) ;
#133 = EDGE_LOOP ( 'NONE', ( #705, #667 ) ) ;
#134 = EDGE_CURVE ( 'NONE', #96, #796, #855, .T. ) ;
#135 = DIRECTION ( 'NONE',  ( -0.000000000000000000, -0.000000000000000000, -1.000000000000000000 ) ) ;
#136 = CARTESIAN_POINT ( 'NONE',  ( -28.25000000000001066, 3.250000000000007105, 3.000000000000000000 ) ) ;
#137 = ORIENTED_EDGE ( 'NONE', *, *, #390, .F. ) ;
#138 = CARTESIAN_POINT ( 'NONE',  ( -33.25000000000000000, 34.75000000000000000, 3.000000000000000000 ) ) ;
#139 = EDGE_CURVE ( 'NONE', #913, #590, #378, .T. ) ;
#140 = DIRECTION ( 'NONE',  ( -0.000000000000000000, -0.000000000000000000, 1.000000000000000000 ) ) ;
#141 = EDGE_LOOP ( 'NONE', ( #1013, #336 ) ) ;
#142 = LOCAL_TIME ( 9, 46, 7.000000000000000000, #105 ) ;
#143 = AXIS2_PLACEMENT_3D ( 'NONE', #1009, #1012, #125 ) ;
#144 = VECTOR ( 'NONE', #644, 1000.000000000000000 ) ;
#145 = LINE ( 'NONE', #542, #830 ) ;
#146 = AXIS2_PLACEMENT_3D ( 'NONE', #376, #461, #787 ) ;
#147 = LINE ( 'NONE', #862, #161 ) ;
#148 = ORIENTED_EDGE ( 'NONE', *, *, #258, .F. ) ;
#149 = ORIENTED_EDGE ( 'NONE', *, *, #134, .T. ) ;
#150 = LINE ( 'NONE', #295, #236 ) ;
#151 = DIRECTION ( 'NONE',  ( 0.000000000000000000, 0.000000000000000000, 1.000000000000000000 ) ) ;
#152 = ORIENTED_EDGE ( 'NONE', *, *, #909, .T. ) ;
#153 = ORIENTED_EDGE ( 'NONE', *, *, #522, .T. ) ;
#154 = EDGE_CURVE ( 'NONE', #558, #80, #371, .T. ) ;
#155 = FACE_OUTER_BOUND ( 'NONE', #906, .T. ) ;
#156 = CARTESIAN_POINT ( 'NONE',  ( 10.50000000000000178, -7.749999999999992006, 0.000000000000000000 ) ) ;
#157 = CARTESIAN_POINT ( 'NONE',  ( -33.25000000000000000, 34.75000000000000000, 3.000000000000000000 ) ) ;
#158 = CARTESIAN_POINT ( 'NONE',  ( -33.25000000000000000, 34.75000000000000000, 0.000000000000000000 ) ) ;
#159 = ORIENTED_EDGE ( 'NONE', *, *, #367, .T. ) ;
#160 = ADVANCED_FACE ( 'NONE', ( #940 ), #535, .T. ) ;
#161 = VECTOR ( 'NONE', #939, 1000.000000000000000 ) ;
#162 = FACE_OUTER_BOUND ( 'NONE', #341, .T. ) ;
#163 = VECTOR ( 'NONE', #769, 1000.000000000000000 ) ;
#164 = EDGE_LOOP ( 'NONE', ( #305, #711, #703, #348 ) ) ;
#165 = VERTEX_POINT ( 'NONE', #359 ) ;
#166 = LINE ( 'NONE', #622, #387 ) ;
#167 = ORIENTED_EDGE ( 'NONE', *, *, #446, .T. ) ;
#168 = CARTESIAN_POINT ( 'NONE',  ( 18.25000000000001066, 3.250000000000005773, -0.001000000000000132727 ) ) ;
#169 = ADVANCED_FACE ( 'NONE', ( #999 ), #512, .F. ) ;
#170 = LINE ( 'NONE', #782, #587 ) ;
#171 = ORIENTED_EDGE ( 'NONE', *, *, #291, .F. ) ;
#172 = APPROVAL_PERSON_ORGANIZATION ( #832, #356, #751 ) ;
#173 = FACE_BOUND ( 'NONE', #118, .T. ) ;
#174 =( NAMED_UNIT ( * ) SI_UNIT ( $, .STERADIAN. ) SOLID_ANGLE_UNIT ( ) );
#175 = CIRCLE ( 'NONE', #798, 1.500000000000001332 ) ;
#176 = EDGE_CURVE ( 'NONE', #852, #269, #580, .T. ) ;
#177 = CARTESIAN_POINT ( 'NONE',  ( 18.25000000000001066, 0.2500000000000059397, 0.000000000000000000 ) ) ;
#178 = EDGE_LOOP ( 'NONE', ( #845, #807, #171, #15 ) ) ;
#179 = CYLINDRICAL_SURFACE ( 'NONE', #130, 1.500000000000001332 ) ;
#180 = CYLINDRICAL_SURFACE ( 'NONE', #104, 1.500000000000001332 ) ;
#181 = LINE ( 'NONE', #199, #220 ) ;
#182 = ORIENTED_EDGE ( 'NONE', *, *, #2, .T. ) ;
#183 = CARTESIAN_POINT ( 'NONE',  ( 9.000000000000001776, -7.749999999999992006, 0.000000000000000000 ) ) ;
#184 = CARTESIAN_POINT ( 'NONE',  ( 27.50000000000000000, -19.74999999999999645, 3.000000000000000000 ) ) ;
#185 = PERSON_AND_ORGANIZATION ( #364, #632 ) ;
#186 = CARTESIAN_POINT ( 'NONE',  ( 9.000000000000001776, 25.25000000000000711, 3.000000000000000000 ) ) ;
#187 = CARTESIAN_POINT ( 'NONE',  ( -28.25000000000001421, 0.2500000000000071609, 3.000000000000000000 ) ) ;
#188 = ORIENTED_EDGE ( 'NONE', *, *, #729, .F. ) ;
#189 = ADVANCED_FACE ( 'NONE', ( #274, #21, #25, #915, #251, #282, #443, #601, #383, #245 ), #399, .T. ) ;
#190 = CARTESIAN_POINT ( 'NONE',  ( 18.25000000000001066, 0.2500000000000059397, -0.001000000000000132727 ) ) ;
#191 = CARTESIAN_POINT ( 'NONE',  ( -10.50000000000000000, -7.749999999999996447, 0.000000000000000000 ) ) ;
#192 = AXIS2_PLACEMENT_3D ( 'NONE', #262, #572, #964 ) ;
#193 = VERTEX_POINT ( 'NONE', #158 ) ;
#194 = CIRCLE ( 'NONE', #250, 1.500000000000001332 ) ;
#195 = PLANE ( 'NONE',  #942 ) ;
#196 = CARTESIAN_POINT ( 'NONE',  ( -7.500000000000001776, 25.25000000000000711, 3.000000000000000000 ) ) ;
#197 = CALENDAR_DATE ( 2026, 9, 9 ) ;
#198 = ORIENTED_EDGE ( 'NONE', *, *, #506, .T. ) ;
#199 = CARTESIAN_POINT ( 'NONE',  ( 28.25000000000001421, 0.2500000000000071609, 0.000000000000000000 ) ) ;
#200 = EDGE_LOOP ( 'NONE', ( #41, #260 ) ) ;
#201 = DIRECTION ( 'NONE',  ( -1.000000000000000000, 1.246832498358329360E-16, 0.000000000000000000 ) ) ;
#202 = EDGE_CURVE ( 'NONE', #206, #38, #592, .T. ) ;
#203 = ORIENTED_EDGE ( 'NONE', *, *, #954, .T. ) ;
#204 = CARTESIAN_POINT ( 'NONE',  ( 29.00000000000000000, -19.74999999999999645, 0.000000000000000000 ) ) ;
#205 = FACE_OUTER_BOUND ( 'NONE', #545, .T. ) ;
#206 = VERTEX_POINT ( 'NONE', #574 ) ;
#207 = CARTESIAN_POINT ( 'NONE',  ( 9.000000000000001776, 25.25000000000000711, 3.000000000000000000 ) ) ;
#208 = VERTEX_POINT ( 'NONE', #493 ) ;
#209 = CC_DESIGN_APPROVAL ( #243, ( #583 ) ) ;
#210 = EDGE_CURVE ( 'NONE', #645, #639, #797, .T. ) ;
#211 = EDGE_LOOP ( 'NONE', ( #881, #334, #428, #868 ) ) ;
#212 = AXIS2_PLACEMENT_3D ( 'NONE', #982, #261, #880 ) ;
#213 = FACE_OUTER_BOUND ( 'NONE', #740, .T. ) ;
#214 = DIRECTION ( 'NONE',  ( 1.000000000000000000, 0.000000000000000000, 0.000000000000000000 ) ) ;
#215 = EDGE_CURVE ( 'NONE', #96, #564, #565, .T. ) ;
#216 = DIRECTION ( 'NONE',  ( 0.000000000000000000, -0.000000000000000000, -1.000000000000000000 ) ) ;
#217 = DIRECTION ( 'NONE',  ( 1.000000000000000000, -1.301042606982605321E-16, 0.000000000000000000 ) ) ;
#218 = CARTESIAN_POINT ( 'NONE',  ( 10.50000000000000178, 25.25000000000000711, 3.000000000000000000 ) ) ;
#219 = ORIENTED_EDGE ( 'NONE', *, *, #838, .T. ) ;
#220 = VECTOR ( 'NONE', #839, 1000.000000000000000 ) ;
#221 = AXIS2_PLACEMENT_3D ( 'NONE', #391, #539, #553 ) ;
#222 = AXIS2_PLACEMENT_3D ( 'NONE', #249, #318, #642 ) ;
#223 = DIRECTION ( 'NONE',  ( 1.000000000000000000, 0.000000000000000000, 0.000000000000000000 ) ) ;
#224 = DIRECTION ( 'NONE',  ( -0.000000000000000000, -0.000000000000000000, 1.000000000000000000 ) ) ;
#225 = ORIENTED_EDGE ( 'NONE', *, *, #932, .F. ) ;
#226 = CARTESIAN_POINT ( 'NONE',  ( 9.000000000000001776, 25.25000000000000711, -0.001000000000000132727 ) ) ;
#227 = DIRECTION ( 'NONE',  ( -0.000000000000000000, -0.000000000000000000, -1.000000000000000000 ) ) ;
#228 = EDGE_CURVE ( 'NONE', #445, #887, #633, .T. ) ;
#229 = ADVANCED_FACE ( 'NONE', ( #155 ), #102, .F. ) ;
#230 = VERTEX_POINT ( 'NONE', #8 ) ;
#231 = DIRECTION ( 'NONE',  ( 1.000000000000000000, 0.000000000000000000, 0.000000000000000000 ) ) ;
#232 = ORIENTED_EDGE ( 'NONE', *, *, #879, .T. ) ;
#233 = ORIENTED_EDGE ( 'NONE', *, *, #202, .T. ) ;
#234 = AXIS2_PLACEMENT_3D ( 'NONE', #422, #746, #530 ) ;
#235 = CARTESIAN_POINT ( 'NONE',  ( 33.25000000000001421, -34.75000000000000000, 0.000000000000000000 ) ) ;
#236 = VECTOR ( 'NONE', #613, 1000.000000000000000 ) ;
#237 = ORIENTED_EDGE ( 'NONE', *, *, #971, .F. ) ;
#238 = EDGE_CURVE ( 'NONE', #897, #453, #128, .T. ) ;
#239 = FACE_BOUND ( 'NONE', #141, .T. ) ;
#240 = LINE ( 'NONE', #556, #352 ) ;
#241 = PLANE ( 'NONE',  #537 ) ;
#242 = ORIENTED_EDGE ( 'NONE', *, *, #228, .T. ) ;
#243 = APPROVAL ( #275, 'UNSPECIFIED' ) ;
#244 = FACE_BOUND ( 'NONE', #856, .T. ) ;
#245 = FACE_BOUND ( 'NONE', #963, .T. ) ;
#246 = FACE_OUTER_BOUND ( 'NONE', #211, .T. ) ;
#247 = ORIENTED_EDGE ( 'NONE', *, *, #346, .T. ) ;
#248 = APPROVAL_PERSON_ORGANIZATION ( #643, #603, #340 ) ;
#249 = CARTESIAN_POINT ( 'NONE',  ( 9.000000000000001776, -7.749999999999992006, 0.000000000000000000 ) ) ;
#250 = AXIS2_PLACEMENT_3D ( 'NONE', #183, #326, #654 ) ;
#251 = FACE_BOUND ( 'NONE', #200, .T. ) ;
#252 = CARTESIAN_POINT ( 'NONE',  ( -18.25000000000001066, 0.2500000000000059397, 0.000000000000000000 ) ) ;
#253 = CIRCLE ( 'NONE', #287, 1.500000000000001332 ) ;
#254 = EDGE_CURVE ( 'NONE', #813, #384, #783, .T. ) ;
#255 = CARTESIAN_POINT ( 'NONE',  ( 33.25000000000000000, 34.75000000000000000, 3.000000000000000000 ) ) ;
#256 = ORIENTED_EDGE ( 'NONE', *, *, #139, .F. ) ;
#257 = DIRECTION ( 'NONE',  ( -0.000000000000000000, -0.000000000000000000, 1.000000000000000000 ) ) ;
#258 = EDGE_CURVE ( 'NONE', #754, #558, #166, .T. ) ;
#259 = DIRECTION ( 'NONE',  ( 0.000000000000000000, -0.000000000000000000, -1.000000000000000000 ) ) ;
#260 = ORIENTED_EDGE ( 'NONE', *, *, #476, .F. ) ;
#261 = DIRECTION ( 'NONE',  ( -0.000000000000000000, -0.000000000000000000, 1.000000000000000000 ) ) ;
#262 = CARTESIAN_POINT ( 'NONE',  ( 33.25000000000000000, 34.75000000000000000, 3.000000000000000000 ) ) ;
#263 = DIRECTION ( 'NONE',  ( -0.000000000000000000, -0.000000000000000000, 1.000000000000000000 ) ) ;
#264 = LINE ( 'NONE', #255, #702 ) ;
#265 = CARTESIAN_POINT ( 'NONE',  ( 9.000000000000001776, -7.749999999999992006, -0.001000000000000132727 ) ) ;
#266 = PLANE ( 'NONE',  #811 ) ;
#267 = VECTOR ( 'NONE', #739, 1000.000000000000000 ) ;
#268 = DIRECTION ( 'NONE',  ( 1.000000000000000000, 0.000000000000000000, 0.000000000000000000 ) ) ;
#269 = VERTEX_POINT ( 'NONE', #1027 ) ;
#270 = AXIS2_PLACEMENT_3D ( 'NONE', #324, #259, #34 ) ;
#271 = EDGE_CURVE ( 'NONE', #975, #208, #958, .T. ) ;
#272 = DIRECTION ( 'NONE',  ( 1.000000000000000000, 0.000000000000000000, 0.000000000000000000 ) ) ;
#273 = ADVANCED_FACE ( 'NONE', ( #712 ), #543, .F. ) ;
#274 = FACE_BOUND ( 'NONE', #520, .T. ) ;
#275 = APPROVAL_STATUS ( 'not_yet_approved' ) ;
#276 = ORIENTED_EDGE ( 'NONE', *, *, #659, .T. ) ;
#277 = LINE ( 'NONE', #177, #518 ) ;
#278 = ORIENTED_EDGE ( 'NONE', *, *, #176, .T. ) ;
#279 = DIRECTION ( 'NONE',  ( 1.000000000000000000, 0.000000000000000000, 0.000000000000000000 ) ) ;
#280 = ORIENTED_EDGE ( 'NONE', *, *, #810, .F. ) ;
#281 = CARTESIAN_POINT ( 'NONE',  ( 7.500000000000000000, 25.25000000000000711, -0.001000000000000132727 ) ) ;
#282 = FACE_BOUND ( 'NONE', #83, .T. ) ;
#283 = SECURITY_CLASSIFICATION_LEVEL ( 'unclassified' ) ;
#284 = CYLINDRICAL_SURFACE ( 'NONE', #585, 1.500000000000001332 ) ;
#285 = ORIENTED_EDGE ( 'NONE', *, *, #390, .T. ) ;
#286 = AXIS2_PLACEMENT_3D ( 'NONE', #548, #871, #217 ) ;
#287 = AXIS2_PLACEMENT_3D ( 'NONE', #373, #557, #68 ) ;
#288 = CYLINDRICAL_SURFACE ( 'NONE', #111, 1.499999999999999556 ) ;
#289 = PERSON_AND_ORGANIZATION_ROLE ( 'classification_officer' ) ;
#290 = EDGE_CURVE ( 'NONE', #445, #975, #377, .T. ) ;
#291 = EDGE_CURVE ( 'NONE', #78, #813, #626, .T. ) ;
#292 = DIRECTION ( 'NONE',  ( -1.996804001124382178E-16, 1.000000000000000000, -0.000000000000000000 ) ) ;
#293 = CARTESIAN_POINT ( 'NONE',  ( 33.25000000000001421, -34.75000000000000000, 3.000000000000000000 ) ) ;
#294 = ORIENTED_EDGE ( 'NONE', *, *, #971, .T. ) ;
#295 = CARTESIAN_POINT ( 'NONE',  ( 6.000000000000000888, 16.25000000000000355, -0.001000000000000132727 ) ) ;
#296 = CARTESIAN_POINT ( 'NONE',  ( -27.50000000000000000, -19.74999999999999645, 3.000000000000000000 ) ) ;
#297 = DIRECTION ( 'NONE',  ( 1.246832498358329606E-16, 1.000000000000000000, 0.000000000000000000 ) ) ;
#298 = VERTEX_POINT ( 'NONE', #795 ) ;
#299 = CC_DESIGN_SECURITY_CLASSIFICATION ( #583, ( #327 ) ) ;
#300 = VECTOR ( 'NONE', #684, 1000.000000000000000 ) ;
#301 = VECTOR ( 'NONE', #561, 1000.000000000000000 ) ;
#302 = CARTESIAN_POINT ( 'NONE',  ( -9.000000000000001776, 25.25000000000000711, 0.000000000000000000 ) ) ;
#303 = EDGE_CURVE ( 'NONE', #726, #720, #673, .T. ) ;
#304 = FACE_OUTER_BOUND ( 'NONE', #714, .T. ) ;
#305 = ORIENTED_EDGE ( 'NONE', *, *, #943, .T. ) ;
#306 = FACE_OUTER_BOUND ( 'NONE', #875, .T. ) ;
#307 = CARTESIAN_POINT ( 'NONE',  ( -26.00000000000000000, -19.74999999999999645, -0.001000000000000132727 ) ) ;
#308 = ORIENTED_EDGE ( 'NONE', *, *, #533, .T. ) ;
#309 = DIRECTION ( 'NONE',  ( 0.000000000000000000, 0.000000000000000000, 1.000000000000000000 ) ) ;
#310 = ORIENTED_EDGE ( 'NONE', *, *, #254, .T. ) ;
#311 = EDGE_LOOP ( 'NONE', ( #951, #448, #159, #872 ) ) ;
#312 = AXIS2_PLACEMENT_3D ( 'NONE', #919, #126, #439 ) ;
#313 = AXIS2_PLACEMENT_3D ( 'NONE', #186, #826, #107 ) ;
#314 = FACE_BOUND ( 'NONE', #13, .T. ) ;
#315 = CIRCLE ( 'NONE', #1008, 1.500000000000001332 ) ;
#316 = ORIENTED_EDGE ( 'NONE', *, *, #4, .F. ) ;
#317 = ORIENTED_EDGE ( 'NONE', *, *, #430, .F. ) ;
#318 = DIRECTION ( 'NONE',  ( 0.000000000000000000, -0.000000000000000000, -1.000000000000000000 ) ) ;
#319 = CARTESIAN_POINT ( 'NONE',  ( -27.50000000000000000, -19.74999999999999645, -0.001000000000000132727 ) ) ;
#320 = LINE ( 'NONE', #941, #372 ) ;
#321 = ORIENTED_EDGE ( 'NONE', *, *, #62, .T. ) ;
#322 = DIRECTION ( 'NONE',  ( 1.000000000000000000, 0.000000000000000000, 0.000000000000000000 ) ) ;
#323 = ADVANCED_FACE ( 'NONE', ( #162 ), #1016, .F. ) ;
#324 = CARTESIAN_POINT ( 'NONE',  ( 27.50000000000000000, -19.74999999999999645, 0.000000000000000000 ) ) ;
#325 = EDGE_LOOP ( 'NONE', ( #1017, #132, #424, #148 ) ) ;
#326 = DIRECTION ( 'NONE',  ( 0.000000000000000000, -0.000000000000000000, -1.000000000000000000 ) ) ;
#327 = PRODUCT_DEFINITION_FORMATION_WITH_SPECIFIED_SOURCE ( 'ANY', '', #851, .NOT_KNOWN. ) ;
#328 = EDGE_CURVE ( 'NONE', #208, #975, #75, .T. ) ;
#329 = CARTESIAN_POINT ( 'NONE',  ( 28.25000000000001421, 0.2500000000000071609, 3.000000000000000000 ) ) ;
#330 = AXIS2_PLACEMENT_3D ( 'NONE', #3, #224, #630 ) ;
#331 = EDGE_CURVE ( 'NONE', #988, #754, #86, .T. ) ;
#332 = CALENDAR_DATE ( 2026, 9, 9 ) ;
#333 = VECTOR ( 'NONE', #135, 1000.000000000000000 ) ;
#334 = ORIENTED_EDGE ( 'NONE', *, *, #582, .T. ) ;
#335 = LINE ( 'NONE', #47, #927 ) ;
#336 = ORIENTED_EDGE ( 'NONE', *, *, #909, .F. ) ;
#337 = DIRECTION ( 'NONE',  ( 0.000000000000000000, 1.000000000000000000, 0.000000000000000000 ) ) ;
#338 = CARTESIAN_POINT ( 'NONE',  ( -9.000000000000001776, 25.25000000000000711, 3.000000000000000000 ) ) ;
#339 = DIRECTION ( 'NONE',  ( -1.996804001124382178E-16, 1.000000000000000000, 0.000000000000000000 ) ) ;
#340 = APPROVAL_ROLE ( '' ) ;
#341 = EDGE_LOOP ( 'NONE', ( #219, #167, #278, #869 ) ) ;
#342 = FACE_OUTER_BOUND ( 'NONE', #164, .T. ) ;
#343 = EDGE_LOOP ( 'NONE', ( #661, #554, #415, #310 ) ) ;
#344 = CARTESIAN_POINT ( 'NONE',  ( 7.500000000000000888, -7.749999999999992006, -0.001000000000000132727 ) ) ;
#345 = CARTESIAN_POINT ( 'NONE',  ( 7.500000000000000000, 25.25000000000000711, 0.000000000000000000 ) ) ;
#346 = EDGE_CURVE ( 'NONE', #384, #379, #147, .T. ) ;
#347 = CARTESIAN_POINT ( 'NONE',  ( -18.25000000000001066, 3.250000000000005773, -0.001000000000000132727 ) ) ;
#348 = ORIENTED_EDGE ( 'NONE', *, *, #708, .F. ) ;
#349 = DIRECTION ( 'NONE',  ( -0.000000000000000000, -0.000000000000000000, 1.000000000000000000 ) ) ;
#350 = LOCAL_TIME ( 9, 46, 7.000000000000000000, #44 ) ;
#351 = PERSON_AND_ORGANIZATION ( #364, #632 ) ;
#352 = VECTOR ( 'NONE', #87, 1000.000000000000000 ) ;
#353 = AXIS2_PLACEMENT_3D ( 'NONE', #207, #596, #511 ) ;
#354 = CARTESIAN_POINT ( 'NONE',  ( 28.25000000000001066, 3.250000000000007105, 3.000000000000000000 ) ) ;
#355 = ORIENTED_EDGE ( 'NONE', *, *, #946, .T. ) ;
#356 = APPROVAL ( #426, 'UNSPECIFIED' ) ;
#357 = ADVANCED_FACE ( 'NONE', ( #65 ), #397, .T. ) ;
#358 = LINE ( 'NONE', #54, #620 ) ;
#359 = CARTESIAN_POINT ( 'NONE',  ( 28.25000000000001421, 0.2500000000000071609, 3.000000000000000000 ) ) ;
#360 = VERTEX_POINT ( 'NONE', #471 ) ;
#361 = DIRECTION ( 'NONE',  ( -0.000000000000000000, -0.000000000000000000, 1.000000000000000000 ) ) ;
#362 = CARTESIAN_POINT ( 'NONE',  ( 33.25000000000000000, 34.75000000000000000, 0.000000000000000000 ) ) ;
#363 = EDGE_LOOP ( 'NONE', ( #595, #280, #459, #92 ) ) ;
#364 = PERSON ( 'UNSPECIFIED', 'UNSPECIFIED', 'UNSPECIFIED', ('UNSPECIFIED'), ('UNSPECIFIED'), ('UNSPECIFIED') ) ;
#365 = LINE ( 'NONE', #344, #1022 ) ;
#366 = DIRECTION ( 'NONE',  ( -1.000000000000000000, 0.000000000000000000, -0.000000000000000000 ) ) ;
#367 = EDGE_CURVE ( 'NONE', #897, #645, #614, .T. ) ;
#368 = CIRCLE ( 'NONE', #858, 6.000000000000000888 ) ;
#369 = DIRECTION ( 'NONE',  ( -0.000000000000000000, -0.000000000000000000, 1.000000000000000000 ) ) ;
#370 = ORIENTED_EDGE ( 'NONE', *, *, #823, .F. ) ;
#371 = CIRCLE ( 'NONE', #143, 1.499999999999999556 ) ;
#372 = VECTOR ( 'NONE', #73, 1000.000000000000000 ) ;
#373 = CARTESIAN_POINT ( 'NONE',  ( 9.000000000000001776, 25.25000000000000711, 0.000000000000000000 ) ) ;
#374 = DATE_AND_TIME ( #1011, #904 ) ;
#375 = ORIENTED_EDGE ( 'NONE', *, *, #258, .T. ) ;
#376 = CARTESIAN_POINT ( 'NONE',  ( 28.25000000000001421, 0.2500000000000071609, -0.001000000000000132727 ) ) ;
#377 = LINE ( 'NONE', #307, #719 ) ;
#378 = LINE ( 'NONE', #689, #437 ) ;
#379 = VERTEX_POINT ( 'NONE', #235 ) ;
#380 = EDGE_CURVE ( 'NONE', #269, #165, #945, .T. ) ;
#381 = CARTESIAN_POINT ( 'NONE',  ( 7.500000000000000000, -7.749999999999992006, 3.000000000000000000 ) ) ;
#382 = DIRECTION ( 'NONE',  ( 1.000000000000000000, 0.000000000000000000, 0.000000000000000000 ) ) ;
#383 = FACE_OUTER_BOUND ( 'NONE', #343, .T. ) ;
#384 = VERTEX_POINT ( 'NONE', #293 ) ;
#385 = ORIENTED_EDGE ( 'NONE', *, *, #134, .F. ) ;
#386 = EDGE_LOOP ( 'NONE', ( #833, #152, #149, #71 ) ) ;
#387 = VECTOR ( 'NONE', #950, 1000.000000000000000 ) ;
#388 = CIRCLE ( 'NONE', #959, 1.499999999999999556 ) ;
#389 = CYLINDRICAL_SURFACE ( 'NONE', #501, 1.500000000000001332 ) ;
#390 = EDGE_CURVE ( 'NONE', #298, #913, #77, .T. ) ;
#391 = CARTESIAN_POINT ( 'NONE',  ( -27.50000000000000000, -19.74999999999999645, 3.000000000000000000 ) ) ;
#392 = DIRECTION ( 'NONE',  ( -0.000000000000000000, 0.000000000000000000, 1.000000000000000000 ) ) ;
#393 = ORIENTED_EDGE ( 'NONE', *, *, #584, .F. ) ;
#394 = CARTESIAN_POINT ( 'NONE',  ( -9.000000000000001776, 25.25000000000000711, 0.000000000000000000 ) ) ;
#395 = EDGE_LOOP ( 'NONE', ( #513, #955 ) ) ;
#396 = ORIENTED_EDGE ( 'NONE', *, *, #398, .T. ) ;
#397 = PLANE ( 'NONE',  #286 ) ;
#398 = EDGE_CURVE ( 'NONE', #230, #590, #655, .T. ) ;
#399 = PLANE ( 'NONE',  #635 ) ;
#400 = EDGE_LOOP ( 'NONE', ( #23, #502, #237, #619 ) ) ;
#401 = VECTOR ( 'NONE', #731, 1000.000000000000000 ) ;
#402 = DIRECTION ( 'NONE',  ( 0.000000000000000000, -0.000000000000000000, 1.000000000000000000 ) ) ;
#403 = FACE_OUTER_BOUND ( 'NONE', #400, .T. ) ;
#404 = CARTESIAN_POINT ( 'NONE',  ( -33.24999999999998579, -34.75000000000000000, 3.000000000000000000 ) ) ;
#405 = CARTESIAN_POINT ( 'NONE',  ( 7.500000000000000000, 25.25000000000000711, 3.000000000000000000 ) ) ;
#406 = ORIENTED_EDGE ( 'NONE', *, *, #756, .F. ) ;
#407 = PLANE ( 'NONE',  #908 ) ;
#408 = CARTESIAN_POINT ( 'NONE',  ( 0.000000000000000000, 0.000000000000000000, 0.000000000000000000 ) ) ;
#409 = CARTESIAN_POINT ( 'NONE',  ( 28.25000000000001066, 3.250000000000007105, -0.001000000000000132727 ) ) ;
#410 = CARTESIAN_POINT ( 'NONE',  ( 26.00000000000000000, -19.74999999999999645, 3.000000000000000000 ) ) ;
#411 = VERTEX_POINT ( 'NONE', #701 ) ;
#412 = ADVANCED_FACE ( 'NONE', ( #304, #314, #579, #744, #425, #637, #239, #967, #244, #173 ), #407, .F. ) ;
#413 = EDGE_CURVE ( 'NONE', #988, #80, #103, .T. ) ;
#414 = DIRECTION ( 'NONE',  ( 1.000000000000000000, 0.000000000000000000, 0.000000000000000000 ) ) ;
#415 = ORIENTED_EDGE ( 'NONE', *, *, #291, .T. ) ;
#416 = CARTESIAN_POINT ( 'NONE',  ( -18.25000000000001066, 3.250000000000005773, 3.000000000000000000 ) ) ;
#417 = ORIENTED_EDGE ( 'NONE', *, *, #863, .F. ) ;
#418 = AXIS2_PLACEMENT_3D ( 'NONE', #757, #120, #432 ) ;
#419 = LINE ( 'NONE', #168, #888 ) ;
#420 = CALENDAR_DATE ( 2026, 9, 9 ) ;
#421 = VERTEX_POINT ( 'NONE', #485 ) ;
#422 = CARTESIAN_POINT ( 'NONE',  ( -27.50000000000000000, -19.74999999999999645, 0.000000000000000000 ) ) ;
#423 = CARTESIAN_POINT ( 'NONE',  ( 0.000000000000000000, 16.25000000000000355, 3.000000000000000000 ) ) ;
#424 = ORIENTED_EDGE ( 'NONE', *, *, #892, .T. ) ;
#425 = FACE_BOUND ( 'NONE', #395, .T. ) ;
#426 = APPROVAL_STATUS ( 'not_yet_approved' ) ;
#427 = LINE ( 'NONE', #347, #672 ) ;
#428 = ORIENTED_EDGE ( 'NONE', *, *, #546, .T. ) ;
#429 = CARTESIAN_POINT ( 'NONE',  ( -33.25000000000000000, 34.75000000000000000, 0.000000000000000000 ) ) ;
#430 = EDGE_CURVE ( 'NONE', #411, #78, #962, .T. ) ;
#431 = ORIENTED_EDGE ( 'NONE', *, *, #582, .F. ) ;
#432 = DIRECTION ( 'NONE',  ( 1.000000000000000000, 0.000000000000000000, 0.000000000000000000 ) ) ;
#433 = ADVANCED_FACE ( 'NONE', ( #479 ), #902, .F. ) ;
#434 = EDGE_LOOP ( 'NONE', ( #748, #895 ) ) ;
#435 = CARTESIAN_POINT ( 'NONE',  ( -6.000000000000000888, 16.25000000000000355, 3.000000000000000000 ) ) ;
#436 = VECTOR ( 'NONE', #973, 1000.000000000000000 ) ;
#437 = VECTOR ( 'NONE', #694, 1000.000000000000000 ) ;
#438 = ORIENTED_EDGE ( 'NONE', *, *, #114, .F. ) ;
#439 = DIRECTION ( 'NONE',  ( 1.000000000000000000, 0.000000000000000000, 0.000000000000000000 ) ) ;
#440 = ORIENTED_EDGE ( 'NONE', *, *, #238, .F. ) ;
#441 = EDGE_CURVE ( 'NONE', #789, #269, #815, .T. ) ;
#442 = DIRECTION ( 'NONE',  ( 0.000000000000000000, 0.000000000000000000, 1.000000000000000000 ) ) ;
#443 = FACE_BOUND ( 'NONE', #1004, .T. ) ;
#444 = ORIENTED_EDGE ( 'NONE', *, *, #522, .F. ) ;
#445 = VERTEX_POINT ( 'NONE', #972 ) ;
#446 = EDGE_CURVE ( 'NONE', #106, #852, #419, .T. ) ;
#447 = LINE ( 'NONE', #986, #163 ) ;
#448 = ORIENTED_EDGE ( 'NONE', *, *, #756, .T. ) ;
#449 = LINE ( 'NONE', #773, #722 ) ;
#450 = DATE_AND_TIME ( #197, #350 ) ;
#451 = CC_DESIGN_APPROVAL ( #603, ( #327 ) ) ;
#452 = VECTOR ( 'NONE', #836, 1000.000000000000000 ) ;
#453 = VERTEX_POINT ( 'NONE', #805 ) ;
#454 = CIRCLE ( 'NONE', #353, 1.500000000000001332 ) ;
#455 = FACE_OUTER_BOUND ( 'NONE', #936, .T. ) ;
#456 = CARTESIAN_POINT ( 'NONE',  ( 0.000000000000000000, 16.25000000000000355, 3.000000000000000000 ) ) ;
#457 = ADVANCED_FACE ( 'NONE', ( #499 ), #31, .F. ) ;
#458 = EDGE_CURVE ( 'NONE', #677, #990, #89, .T. ) ;
#459 = ORIENTED_EDGE ( 'NONE', *, *, #879, .F. ) ;
#460 = ORIENTED_EDGE ( 'NONE', *, *, #546, .F. ) ;
#461 = DIRECTION ( 'NONE',  ( 1.000000000000000000, 1.156482317317871331E-15, 0.000000000000000000 ) ) ;
#462 = DIRECTION ( 'NONE',  ( -0.000000000000000000, -0.000000000000000000, 1.000000000000000000 ) ) ;
#463 = ORIENTED_EDGE ( 'NONE', *, *, #290, .T. ) ;
#464 = ADVANCED_FACE ( 'NONE', ( #113 ), #85, .F. ) ;
#465 = ORIENTED_EDGE ( 'NONE', *, *, #176, .F. ) ;
#466 = LINE ( 'NONE', #794, #848 ) ;
#467 = DIRECTION ( 'NONE',  ( 1.996804001124382178E-16, -1.000000000000000000, 0.000000000000000000 ) ) ;
#468 = EDGE_LOOP ( 'NONE', ( #822, #840, #691, #482 ) ) ;
#469 = AXIS2_PLACEMENT_3D ( 'NONE', #952, #957, #231 ) ;
#470 = AXIS2_PLACEMENT_3D ( 'NONE', #265, #679, #921 ) ;
#471 = CARTESIAN_POINT ( 'NONE',  ( -18.25000000000001066, 3.250000000000005773, 0.000000000000000000 ) ) ;
#472 = DIRECTION ( 'NONE',  ( -0.000000000000000000, -0.000000000000000000, 1.000000000000000000 ) ) ;
#473 = ORIENTED_EDGE ( 'NONE', *, *, #627, .F. ) ;
#474 = ADVANCED_FACE ( 'NONE', ( #93 ), #24, .F. ) ;
#475 = CARTESIAN_POINT ( 'NONE',  ( 28.25000000000001421, 0.2500000000000071609, 3.000000000000000000 ) ) ;
#476 = EDGE_CURVE ( 'NONE', #720, #726, #315, .T. ) ;
#477 = ORIENTED_EDGE ( 'NONE', *, *, #641, .T. ) ;
#478 = ORIENTED_EDGE ( 'NONE', *, *, #228, .F. ) ;
#479 = FACE_OUTER_BOUND ( 'NONE', #311, .T. ) ;
#480 = LINE ( 'NONE', #404, #436 ) ;
#481 = DIRECTION ( 'NONE',  ( 0.000000000000000000, 1.000000000000000000, 0.000000000000000000 ) ) ;
#482 = ORIENTED_EDGE ( 'NONE', *, *, #446, .F. ) ;
#483 = LOCAL_TIME ( 9, 46, 7.000000000000000000, #763 ) ;
#484 = AXIS2_PLACEMENT_3D ( 'NONE', #998, #349, #272 ) ;
#485 = CARTESIAN_POINT ( 'NONE',  ( -33.24999999999998579, -34.75000000000000000, 0.000000000000000000 ) ) ;
#486 = ADVANCED_FACE ( 'NONE', ( #568 ), #179, .F. ) ;
#487 = CARTESIAN_POINT ( 'NONE',  ( -33.25000000000000000, 34.75000000000000000, 0.000000000000000000 ) ) ;
#488 = EDGE_LOOP ( 'NONE', ( #440, #406 ) ) ;
#489 = CARTESIAN_POINT ( 'NONE',  ( 27.50000000000000000, -19.74999999999999645, -0.001000000000000132727 ) ) ;
#490 = CARTESIAN_POINT ( 'NONE',  ( 26.00000000000000000, -19.74999999999999645, -0.001000000000000132727 ) ) ;
#491 = EDGE_LOOP ( 'NONE', ( #417, #81 ) ) ;
#492 = DIRECTION ( 'NONE',  ( 0.000000000000000000, 0.000000000000000000, 1.000000000000000000 ) ) ;
#493 = CARTESIAN_POINT ( 'NONE',  ( -29.00000000000000000, -19.74999999999999645, 3.000000000000000000 ) ) ;
#494 = DIRECTION ( 'NONE',  ( -0.000000000000000000, 0.000000000000000000, 1.000000000000000000 ) ) ;
#495 = DIRECTION ( 'NONE',  ( 1.000000000000000000, 0.000000000000000000, 0.000000000000000000 ) ) ;
#496 = EDGE_LOOP ( 'NONE', ( #473, #53, #203, #29 ) ) ;
#497 = DIRECTION ( 'NONE',  ( 1.246832498358329606E-16, -1.000000000000000000, 0.000000000000000000 ) ) ;
#498 = ORIENTED_EDGE ( 'NONE', *, *, #271, .T. ) ;
#499 = FACE_OUTER_BOUND ( 'NONE', #496, .T. ) ;
#500 = APPLICATION_PROTOCOL_DEFINITION ( 'international standard', 'config_control_design', 1994, #653 ) ;
#501 = AXIS2_PLACEMENT_3D ( 'NONE', #226, #1010, #700 ) ;
#502 = ORIENTED_EDGE ( 'NONE', *, *, #612, .F. ) ;
#503 = DIRECTION ( 'NONE',  ( 1.000000000000000000, 0.000000000000000000, 0.000000000000000000 ) ) ;
#504 = ORIENTED_EDGE ( 'NONE', *, *, #114, .T. ) ;
#505 = DIRECTION ( 'NONE',  ( 1.000000000000000000, 0.000000000000000000, 0.000000000000000000 ) ) ;
#506 = EDGE_CURVE ( 'NONE', #165, #828, #736, .T. ) ;
#507 = DATE_AND_TIME ( #602, #483 ) ;
#508 = EDGE_LOOP ( 'NONE', ( #72, #923, #893, #638 ) ) ;
#509 = DIRECTION ( 'NONE',  ( -0.000000000000000000, -0.000000000000000000, 1.000000000000000000 ) ) ;
#510 = ORIENTED_EDGE ( 'NONE', *, *, #665, .T. ) ;
#511 = DIRECTION ( 'NONE',  ( 1.000000000000000000, 0.000000000000000000, 0.000000000000000000 ) ) ;
#512 = PLANE ( 'NONE',  #27 ) ;
#513 = ORIENTED_EDGE ( 'NONE', *, *, #458, .F. ) ;
#514 = CARTESIAN_POINT ( 'NONE',  ( -26.00000000000000000, -19.74999999999999645, 3.000000000000000000 ) ) ;
#515 = EDGE_CURVE ( 'NONE', #796, #877, #675, .T. ) ;
#516 = ORIENTED_EDGE ( 'NONE', *, *, #202, .F. ) ;
#517 = CYLINDRICAL_SURFACE ( 'NONE', #470, 1.500000000000001332 ) ;
#518 = VECTOR ( 'NONE', #894, 1000.000000000000000 ) ;
#519 = AXIS2_PLACEMENT_3D ( 'NONE', #296, #227, #617 ) ;
#520 = EDGE_LOOP ( 'NONE', ( #792, #997, #465, #121 ) ) ;
#521 = VECTOR ( 'NONE', #257, 1000.000000000000000 ) ;
#522 = EDGE_CURVE ( 'NONE', #887, #208, #358, .T. ) ;
#523 = EDGE_LOOP ( 'NONE', ( #728, #70, #308, #385 ) ) ;
#524 = CARTESIAN_POINT ( 'NONE',  ( -28.25000000000001421, 0.2500000000000071609, 3.000000000000000000 ) ) ;
#525 = SHAPE_DEFINITION_REPRESENTATION ( #46, #528 ) ;
#526 = DIRECTION ( 'NONE',  ( 1.000000000000000000, 0.000000000000000000, 0.000000000000000000 ) ) ;
#527 = ORIENTED_EDGE ( 'NONE', *, *, #367, .F. ) ;
#528 = ADVANCED_BREP_SHAPE_REPRESENTATION ( 'Lid_Default_sldprt', ( #930, #1019 ), #58 ) ;
#529 = PLANE ( 'NONE',  #947 ) ;
#530 = DIRECTION ( 'NONE',  ( 1.000000000000000000, 0.000000000000000000, 0.000000000000000000 ) ) ;
#531 = ORIENTED_EDGE ( 'NONE', *, *, #933, .T. ) ;
#532 = PLANE ( 'NONE',  #146 ) ;
#533 = EDGE_CURVE ( 'NONE', #877, #796, #175, .T. ) ;
#534 = CARTESIAN_POINT ( 'NONE',  ( 0.000000000000000000, 16.25000000000000355, 0.000000000000000000 ) ) ;
#535 = PLANE ( 'NONE',  #536 ) ;
#536 = AXIS2_PLACEMENT_3D ( 'NONE', #698, #297, #918 ) ;
#537 = AXIS2_PLACEMENT_3D ( 'NONE', #91, #563, #969 ) ;
#538 = PLANE ( 'NONE',  #992 ) ;
#539 = DIRECTION ( 'NONE',  ( -0.000000000000000000, -0.000000000000000000, -1.000000000000000000 ) ) ;
#540 = EDGE_CURVE ( 'NONE', #629, #883, #847, .T. ) ;
#541 = ORIENTED_EDGE ( 'NONE', *, *, #933, .F. ) ;
#542 = CARTESIAN_POINT ( 'NONE',  ( -18.25000000000001066, 0.2500000000000059397, 0.000000000000000000 ) ) ;
#543 = CYLINDRICAL_SURFACE ( 'NONE', #330, 1.499999999999999556 ) ;
#544 = ORIENTED_EDGE ( 'NONE', *, *, #413, .F. ) ;
#545 = EDGE_LOOP ( 'NONE', ( #285, #628, #355, #651 ) ) ;
#546 = EDGE_CURVE ( 'NONE', #785, #110, #454, .T. ) ;
#547 = ORIENTED_EDGE ( 'NONE', *, *, #838, .F. ) ;
#548 = CARTESIAN_POINT ( 'NONE',  ( -28.25000000000001066, 3.250000000000007105, -0.001000000000000132727 ) ) ;
#549 = AXIS2_PLACEMENT_3D ( 'NONE', #581, #905, #503 ) ;
#550 = ADVANCED_FACE ( 'NONE', ( #849 ), #517, .F. ) ;
#551 = ORIENTED_EDGE ( 'NONE', *, *, #560, .F. ) ;
#552 = VECTOR ( 'NONE', #771, 1000.000000000000000 ) ;
#553 = DIRECTION ( 'NONE',  ( -1.000000000000000000, 0.000000000000000000, 0.000000000000000000 ) ) ;
#554 = ORIENTED_EDGE ( 'NONE', *, *, #430, .T. ) ;
#555 = CARTESIAN_POINT ( 'NONE',  ( -33.25000000000000000, 34.75000000000000000, 3.000000000000000000 ) ) ;
#556 = CARTESIAN_POINT ( 'NONE',  ( -33.24999999999998579, -34.75000000000000000, 0.000000000000000000 ) ) ;
#557 = DIRECTION ( 'NONE',  ( 0.000000000000000000, -0.000000000000000000, -1.000000000000000000 ) ) ;
#558 = VERTEX_POINT ( 'NONE', #841 ) ;
#559 = DESIGN_CONTEXT ( 'detailed design', #653, 'design' ) ;
#560 = EDGE_CURVE ( 'NONE', #193, #421, #755, .T. ) ;
#561 = DIRECTION ( 'NONE',  ( -1.000000000000000000, -0.000000000000000000, -0.000000000000000000 ) ) ;
#562 =( NAMED_UNIT ( * ) PLANE_ANGLE_UNIT ( ) SI_UNIT ( $, .RADIAN. ) );
#563 = DIRECTION ( 'NONE',  ( 0.000000000000000000, -1.000000000000000000, 0.000000000000000000 ) ) ;
#564 = VERTEX_POINT ( 'NONE', #600 ) ;
#565 = CIRCLE ( 'NONE', #846, 1.500000000000001332 ) ;
#566 = DIRECTION ( 'NONE',  ( 1.000000000000000000, 0.000000000000000000, 0.000000000000000000 ) ) ;
#567 = CIRCLE ( 'NONE', #742, 6.000000000000000888 ) ;
#568 = FACE_OUTER_BOUND ( 'NONE', #523, .T. ) ;
#569 = FACE_OUTER_BOUND ( 'NONE', #386, .T. ) ;
#570 = DIRECTION ( 'NONE',  ( -0.000000000000000000, -0.000000000000000000, -1.000000000000000000 ) ) ;
#571 = ORIENTED_EDGE ( 'NONE', *, *, #238, .T. ) ;
#572 = DIRECTION ( 'NONE',  ( -1.000000000000000000, -1.996804001124382178E-16, 0.000000000000000000 ) ) ;
#573 = DIRECTION ( 'NONE',  ( 1.000000000000000000, 0.000000000000000000, 0.000000000000000000 ) ) ;
#574 = CARTESIAN_POINT ( 'NONE',  ( 28.25000000000001066, 3.250000000000007105, 0.000000000000000000 ) ) ;
#575 = DIRECTION ( 'NONE',  ( 1.000000000000000000, 1.996804001124382178E-16, -0.000000000000000000 ) ) ;
#576 = CARTESIAN_POINT ( 'NONE',  ( 28.25000000000001066, 3.250000000000007105, 3.000000000000000000 ) ) ;
#577 = CARTESIAN_POINT ( 'NONE',  ( -6.000000000000000888, 16.25000000000000355, 0.000000000000000000 ) ) ;
#578 = VERTEX_POINT ( 'NONE', #1007 ) ;
#579 = FACE_BOUND ( 'NONE', #819, .T. ) ;
#580 = LINE ( 'NONE', #663, #401 ) ;
#581 = CARTESIAN_POINT ( 'NONE',  ( 9.000000000000001776, 25.25000000000000711, 0.000000000000000000 ) ) ;
#582 = EDGE_CURVE ( 'NONE', #1023, #785, #1001, .T. ) ;
#583 = SECURITY_CLASSIFICATION ( '', '', #283 ) ;
#584 = EDGE_CURVE ( 'NONE', #106, #206, #122, .T. ) ;
#585 = AXIS2_PLACEMENT_3D ( 'NONE', #610, #140, #526 ) ;
#586 = DIRECTION ( 'NONE',  ( 0.000000000000000000, -0.000000000000000000, -1.000000000000000000 ) ) ;
#587 = VECTOR ( 'NONE', #812, 1000.000000000000000 ) ;
#588 = VECTOR ( 'NONE', #509, 1000.000000000000000 ) ;
#589 = LINE ( 'NONE', #487, #6 ) ;
#590 = VERTEX_POINT ( 'NONE', #435 ) ;
#591 = DIRECTION ( 'NONE',  ( -0.000000000000000000, -0.000000000000000000, 1.000000000000000000 ) ) ;
#592 = LINE ( 'NONE', #116, #452 ) ;
#593 = EDGE_LOOP ( 'NONE', ( #498, #865 ) ) ;
#594 = CARTESIAN_POINT ( 'NONE',  ( 18.25000000000001066, 3.250000000000005773, 3.000000000000000000 ) ) ;
#595 = ORIENTED_EDGE ( 'NONE', *, *, #729, .T. ) ;
#596 = DIRECTION ( 'NONE',  ( 0.000000000000000000, 0.000000000000000000, 1.000000000000000000 ) ) ;
#597 = EDGE_CURVE ( 'NONE', #78, #193, #685, .T. ) ;
#598 = EDGE_CURVE ( 'NONE', #790, #110, #766, .T. ) ;
#599 = ORIENTED_EDGE ( 'NONE', *, *, #641, .F. ) ;
#600 = CARTESIAN_POINT ( 'NONE',  ( 26.00000000000000000, -19.74999999999999645, 0.000000000000000000 ) ) ;
#601 = FACE_BOUND ( 'NONE', #953, .T. ) ;
#602 = CALENDAR_DATE ( 2026, 9, 9 ) ;
#603 = APPROVAL ( #16, 'UNSPECIFIED' ) ;
#604 = AXIS2_PLACEMENT_3D ( 'NONE', #890, #494, #566 ) ;
#605 = CARTESIAN_POINT ( 'NONE',  ( 18.25000000000001066, 3.250000000000005773, 0.000000000000000000 ) ) ;
#606 = AXIS2_PLACEMENT_3D ( 'NONE', #456, #151, #382 ) ;
#607 = ORIENTED_EDGE ( 'NONE', *, *, #810, .T. ) ;
#608 = DIRECTION ( 'NONE',  ( 1.000000000000000000, 0.000000000000000000, 0.000000000000000000 ) ) ;
#609 = CARTESIAN_POINT ( 'NONE',  ( -9.000000000000001776, -7.749999999999996447, -0.001000000000000132727 ) ) ;
#610 = CARTESIAN_POINT ( 'NONE',  ( -27.50000000000000000, -19.74999999999999645, -0.001000000000000132727 ) ) ;
#611 = ORIENTED_EDGE ( 'NONE', *, *, #665, .F. ) ;
#612 = EDGE_CURVE ( 'NONE', #843, #629, #447, .T. ) ;
#613 = DIRECTION ( 'NONE',  ( -0.000000000000000000, -0.000000000000000000, 1.000000000000000000 ) ) ;
#614 = LINE ( 'NONE', #876, #1006 ) ;
#615 = DIRECTION ( 'NONE',  ( -1.156482317317871331E-15, -1.000000000000000000, 0.000000000000000000 ) ) ;
#616 = ADVANCED_FACE ( 'NONE', ( #929 ), #288, .F. ) ;
#617 = DIRECTION ( 'NONE',  ( -1.000000000000000000, 0.000000000000000000, 0.000000000000000000 ) ) ;
#618 = VECTOR ( 'NONE', #985, 1000.000000000000000 ) ;
#619 = ORIENTED_EDGE ( 'NONE', *, *, #710, .F. ) ;
#620 = VECTOR ( 'NONE', #683, 1000.000000000000000 ) ;
#621 = DIRECTION ( 'NONE',  ( -0.000000000000000000, -0.000000000000000000, 1.000000000000000000 ) ) ;
#622 = CARTESIAN_POINT ( 'NONE',  ( -7.500000000000001776, -7.749999999999996447, -0.001000000000000132727 ) ) ;
#623 = LINE ( 'NONE', #713, #760 ) ;
#624 = ADVANCED_FACE ( 'NONE', ( #213 ), #36, .F. ) ;
#625 = DIRECTION ( 'NONE',  ( -1.301042606982605321E-16, 1.000000000000000000, 0.000000000000000000 ) ) ;
#626 = LINE ( 'NONE', #157, #873 ) ;
#627 = EDGE_CURVE ( 'NONE', #990, #720, #365, .T. ) ;
#628 = ORIENTED_EDGE ( 'NONE', *, *, #139, .T. ) ;
#629 = VERTEX_POINT ( 'NONE', #914 ) ;
#630 = DIRECTION ( 'NONE',  ( 1.000000000000000000, 0.000000000000000000, 0.000000000000000000 ) ) ;
#631 = EDGE_LOOP ( 'NONE', ( #294, #438, #188, #611 ) ) ;
#632 = ORGANIZATION ( 'UNSPECIFIED', 'UNSPECIFIED', '' ) ;
#633 = CIRCLE ( 'NONE', #604, 1.500000000000001332 ) ;
#634 = ORIENTED_EDGE ( 'NONE', *, *, #154, .T. ) ;
#635 = AXIS2_PLACEMENT_3D ( 'NONE', #716, #392, #806 ) ;
#636 = AXIS2_PLACEMENT_3D ( 'NONE', #64, #692, #707 ) ;
#637 = FACE_BOUND ( 'NONE', #491, .T. ) ;
#638 = ORIENTED_EDGE ( 'NONE', *, *, #954, .F. ) ;
#639 = VERTEX_POINT ( 'NONE', #934 ) ;
#640 = ADVANCED_FACE ( 'NONE', ( #119 ), #529, .T. ) ;
#641 = EDGE_CURVE ( 'NONE', #913, #298, #567, .T. ) ;
#642 = DIRECTION ( 'NONE',  ( 1.000000000000000000, 0.000000000000000000, 0.000000000000000000 ) ) ;
#643 = PERSON_AND_ORGANIZATION ( #364, #632 ) ;
#644 = DIRECTION ( 'NONE',  ( -0.000000000000000000, -0.000000000000000000, 1.000000000000000000 ) ) ;
#645 = VERTEX_POINT ( 'NONE', #196 ) ;
#646 = CC_DESIGN_PERSON_AND_ORGANIZATION_ASSIGNMENT ( #55, #680, ( #327 ) ) ;
#647 = DIRECTION ( 'NONE',  ( 1.000000000000000000, 0.000000000000000000, 0.000000000000000000 ) ) ;
#648 = EDGE_CURVE ( 'NONE', #790, #1023, #253, .T. ) ;
#649 = APPLICATION_PROTOCOL_DEFINITION ( 'international standard', 'config_control_design', 1994, #911 ) ;
#650 = CARTESIAN_POINT ( 'NONE',  ( -9.000000000000001776, -7.749999999999996447, 0.000000000000000000 ) ) ;
#651 = ORIENTED_EDGE ( 'NONE', *, *, #659, .F. ) ;
#652 = AXIS2_PLACEMENT_3D ( 'NONE', #319, #808, #983 ) ;
#653 = APPLICATION_CONTEXT ( 'configuration controlled 3d designs of mechanical parts and assemblies' ) ;
#654 = DIRECTION ( 'NONE',  ( 1.000000000000000000, 0.000000000000000000, 0.000000000000000000 ) ) ;
#655 = CIRCLE ( 'NONE', #606, 6.000000000000000888 ) ;
#656 = DIRECTION ( 'NONE',  ( -1.156482317317871331E-15, 1.000000000000000000, 0.000000000000000000 ) ) ;
#657 = APPROVAL_DATE_TIME ( #88, #356 ) ;
#658 = EDGE_LOOP ( 'NONE', ( #242, #321 ) ) ;
#659 = EDGE_CURVE ( 'NONE', #298, #230, #150, .T. ) ;
#660 = CARTESIAN_POINT ( 'NONE',  ( -7.500000000000001776, 25.25000000000000711, 0.000000000000000000 ) ) ;
#661 = ORIENTED_EDGE ( 'NONE', *, *, #791, .T. ) ;
#662 = CARTESIAN_POINT ( 'NONE',  ( 9.000000000000001776, -7.749999999999992006, 3.000000000000000000 ) ) ;
#663 = CARTESIAN_POINT ( 'NONE',  ( 18.25000000000001066, 0.2500000000000059397, 3.000000000000000000 ) ) ;
#664 = COORDINATED_UNIVERSAL_TIME_OFFSET ( 5, 30, .AHEAD. ) ;
#665 = EDGE_CURVE ( 'NONE', #360, #578, #170, .T. ) ;
#666 = CARTESIAN_POINT ( 'NONE',  ( 10.50000000000000178, -7.749999999999992006, -0.001000000000000132727 ) ) ;
#667 = ORIENTED_EDGE ( 'NONE', *, *, #892, .F. ) ;
#668 = CARTESIAN_POINT ( 'NONE',  ( 0.000000000000000000, 16.25000000000000355, 0.000000000000000000 ) ) ;
#669 = CARTESIAN_POINT ( 'NONE',  ( 7.500000000000000000, -7.749999999999992006, 0.000000000000000000 ) ) ;
#670 = DIRECTION ( 'NONE',  ( -0.000000000000000000, -0.000000000000000000, 1.000000000000000000 ) ) ;
#671 = ORIENTED_EDGE ( 'NONE', *, *, #597, .F. ) ;
#672 = VECTOR ( 'NONE', #670, 1000.000000000000000 ) ;
#673 = CIRCLE ( 'NONE', #944, 1.500000000000001332 ) ;
#674 = CARTESIAN_POINT ( 'NONE',  ( 28.25000000000001066, 3.250000000000007105, 0.000000000000000000 ) ) ;
#675 = CIRCLE ( 'NONE', #860, 1.500000000000001332 ) ;
#676 = DIRECTION ( 'NONE',  ( 0.000000000000000000, -0.000000000000000000, -1.000000000000000000 ) ) ;
#677 = VERTEX_POINT ( 'NONE', #156 ) ;
#678 = EDGE_CURVE ( 'NONE', #578, #735, #466, .T. ) ;
#679 = DIRECTION ( 'NONE',  ( -0.000000000000000000, -0.000000000000000000, 1.000000000000000000 ) ) ;
#680 = PERSON_AND_ORGANIZATION_ROLE ( 'creator' ) ;
#681 = ORIENTED_EDGE ( 'NONE', *, *, #271, .F. ) ;
#682 = PRODUCT_DEFINITION ( 'UNKNOWN', '', #327, #559 ) ;
#683 = DIRECTION ( 'NONE',  ( -0.000000000000000000, -0.000000000000000000, 1.000000000000000000 ) ) ;
#684 = DIRECTION ( 'NONE',  ( -1.996804001124382178E-16, 1.000000000000000000, -0.000000000000000000 ) ) ;
#685 = LINE ( 'NONE', #138, #333 ) ;
#686 = VECTOR ( 'NONE', #891, 1000.000000000000000 ) ;
#687 = DATE_TIME_ROLE ( 'classification_date' ) ;
#688 = VECTOR ( 'NONE', #733, 1000.000000000000000 ) ;
#689 = CARTESIAN_POINT ( 'NONE',  ( -6.000000000000000888, 16.25000000000000355, -0.001000000000000132727 ) ) ;
#690 = AXIS2_PLACEMENT_3D ( 'NONE', #889, #337, #402 ) ;
#691 = ORIENTED_EDGE ( 'NONE', *, *, #1003, .T. ) ;
#692 = DIRECTION ( 'NONE',  ( 0.000000000000000000, 0.000000000000000000, 1.000000000000000000 ) ) ;
#693 = CARTESIAN_POINT ( 'NONE',  ( -18.25000000000001066, 0.2500000000000059397, -0.001000000000000132727 ) ) ;
#694 = DIRECTION ( 'NONE',  ( -0.000000000000000000, -0.000000000000000000, 1.000000000000000000 ) ) ;
#695 = ORIENTED_EDGE ( 'NONE', *, *, #254, .F. ) ;
#696 = CARTESIAN_POINT ( 'NONE',  ( 28.25000000000001421, 0.2500000000000071609, -0.001000000000000132727 ) ) ;
#697 = DIRECTION ( 'NONE',  ( 1.000000000000000000, 0.000000000000000000, 0.000000000000000000 ) ) ;
#698 = CARTESIAN_POINT ( 'NONE',  ( -28.25000000000001421, 0.2500000000000071609, -0.001000000000000132727 ) ) ;
#699 = EDGE_LOOP ( 'NONE', ( #444, #478, #463, #765 ) ) ;
#700 = DIRECTION ( 'NONE',  ( 1.000000000000000000, 0.000000000000000000, 0.000000000000000000 ) ) ;
#701 = CARTESIAN_POINT ( 'NONE',  ( 33.25000000000000000, 34.75000000000000000, 3.000000000000000000 ) ) ;
#702 = VECTOR ( 'NONE', #570, 1000.000000000000000 ) ;
#703 = ORIENTED_EDGE ( 'NONE', *, *, #380, .T. ) ;
#704 = VECTOR ( 'NONE', #802, 1000.000000000000000 ) ;
#705 = ORIENTED_EDGE ( 'NONE', *, *, #154, .F. ) ;
#706 = VECTOR ( 'NONE', #201, 1000.000000000000000 ) ;
#707 = DIRECTION ( 'NONE',  ( 1.000000000000000000, 0.000000000000000000, 0.000000000000000000 ) ) ;
#708 = EDGE_CURVE ( 'NONE', #38, #165, #1026, .T. ) ;
#709 = CARTESIAN_POINT ( 'NONE',  ( 18.25000000000001066, 0.2500000000000059397, -0.001000000000000132727 ) ) ;
#710 = EDGE_CURVE ( 'NONE', #1000, #360, #145, .T. ) ;
#711 = ORIENTED_EDGE ( 'NONE', *, *, #441, .T. ) ;
#712 = FACE_OUTER_BOUND ( 'NONE', #325, .T. ) ;
#713 = CARTESIAN_POINT ( 'NONE',  ( -10.50000000000000000, 25.25000000000000711, -0.001000000000000132727 ) ) ;
#714 = EDGE_LOOP ( 'NONE', ( #1, #316, #551, #370 ) ) ;
#715 = DIRECTION ( 'NONE',  ( 1.000000000000000000, 1.246832498358329360E-16, -0.000000000000000000 ) ) ;
#716 = CARTESIAN_POINT ( 'NONE',  ( 0.000000000000000000, 0.000000000000000000, 3.000000000000000000 ) ) ;
#717 = ORIENTED_EDGE ( 'NONE', *, *, #678, .T. ) ;
#718 = APPROVAL_PERSON_ORGANIZATION ( #123, #243, #767 ) ;
#719 = VECTOR ( 'NONE', #462, 1000.000000000000000 ) ;
#720 = VERTEX_POINT ( 'NONE', #381 ) ;
#721 = VECTOR ( 'NONE', #621, 1000.000000000000000 ) ;
#722 = VECTOR ( 'NONE', #292, 1000.000000000000000 ) ;
#723 = DIRECTION ( 'NONE',  ( 1.000000000000000000, 0.000000000000000000, 0.000000000000000000 ) ) ;
#724 = EDGE_LOOP ( 'NONE', ( #232, #66, #225, #764 ) ) ;
#725 = DATE_AND_TIME ( #420, #142 ) ;
#726 = VERTEX_POINT ( 'NONE', #882 ) ;
#727 = FACE_OUTER_BOUND ( 'NONE', #468, .T. ) ;
#728 = ORIENTED_EDGE ( 'NONE', *, *, #215, .T. ) ;
#729 = EDGE_CURVE ( 'NONE', #578, #772, #866, .T. ) ;
#730 = CARTESIAN_POINT ( 'NONE',  ( 0.000000000000000000, 16.25000000000000355, -0.001000000000000132727 ) ) ;
#731 = DIRECTION ( 'NONE',  ( -0.000000000000000000, -1.000000000000000000, -0.000000000000000000 ) ) ;
#732 = DIRECTION ( 'NONE',  ( 1.000000000000000000, 0.000000000000000000, 0.000000000000000000 ) ) ;
#733 = DIRECTION ( 'NONE',  ( -0.000000000000000000, -0.000000000000000000, 1.000000000000000000 ) ) ;
#734 = CARTESIAN_POINT ( 'NONE',  ( -28.25000000000001421, 0.2500000000000071609, -0.001000000000000132727 ) ) ;
#735 = VERTEX_POINT ( 'NONE', #1018 ) ;
#736 = LINE ( 'NONE', #329, #814 ) ;
#737 = EDGE_CURVE ( 'NONE', #735, #1000, #320, .T. ) ;
#738 = PERSON_AND_ORGANIZATION ( #364, #632 ) ;
#739 = DIRECTION ( 'NONE',  ( -0.000000000000000000, -0.000000000000000000, 1.000000000000000000 ) ) ;
#740 = EDGE_LOOP ( 'NONE', ( #571, #182, #752, #527 ) ) ;
#741 = CLOSED_SHELL ( 'NONE', ( #1014, #486, #273, #550, #624, #743, #984, #189, #412, #229, #779, #169, #464, #474, #801, #433, #457, #616, #1002, #67, #793, #925, #323, #775, #640, #357, #19, #160 ) ) ;
#742 = AXIS2_PLACEMENT_3D ( 'NONE', #668, #586, #910 ) ;
#743 = ADVANCED_FACE ( 'NONE', ( #246 ), #389, .F. ) ;
#744 = FACE_BOUND ( 'NONE', #488, .T. ) ;
#745 = FACE_OUTER_BOUND ( 'NONE', #57, .T. ) ;
#746 = DIRECTION ( 'NONE',  ( -0.000000000000000000, 0.000000000000000000, 1.000000000000000000 ) ) ;
#747 = LINE ( 'NONE', #666, #618 ) ;
#748 = ORIENTED_EDGE ( 'NONE', *, *, #515, .F. ) ;
#749 = DIRECTION ( 'NONE',  ( -0.000000000000000000, -0.000000000000000000, 1.000000000000000000 ) ) ;
#750 = PRODUCT_RELATED_PRODUCT_CATEGORY ( 'detail', '', ( #851 ) ) ;
#751 = APPROVAL_ROLE ( '' ) ;
#752 = ORIENTED_EDGE ( 'NONE', *, *, #770, .T. ) ;
#753 = DIRECTION ( 'NONE',  ( -0.000000000000000000, -0.000000000000000000, 1.000000000000000000 ) ) ;
#754 = VERTEX_POINT ( 'NONE', #965 ) ;
#755 = LINE ( 'NONE', #429, #762 ) ;
#756 = EDGE_CURVE ( 'NONE', #453, #897, #388, .T. ) ;
#757 = CARTESIAN_POINT ( 'NONE',  ( 9.000000000000001776, 25.25000000000000711, -0.001000000000000132727 ) ) ;
#758 = ORIENTED_EDGE ( 'NONE', *, *, #540, .T. ) ;
#759 = CIRCLE ( 'NONE', #870, 1.499999999999999556 ) ;
#760 = VECTOR ( 'NONE', #472, 1000.000000000000000 ) ;
#761 = CARTESIAN_POINT ( 'NONE',  ( -28.25000000000001421, 0.2500000000000071609, -0.001000000000000132727 ) ) ;
#762 = VECTOR ( 'NONE', #42, 1000.000000000000000 ) ;
#763 = COORDINATED_UNIVERSAL_TIME_OFFSET ( 5, 30, .AHEAD. ) ;
#764 = ORIENTED_EDGE ( 'NONE', *, *, #737, .F. ) ;
#765 = ORIENTED_EDGE ( 'NONE', *, *, #328, .F. ) ;
#766 = LINE ( 'NONE', #835, #777 ) ;
#767 = APPROVAL_ROLE ( '' ) ;
#768 = LINE ( 'NONE', #362, #300 ) ;
#769 = DIRECTION ( 'NONE',  ( 0.000000000000000000, -1.000000000000000000, -0.000000000000000000 ) ) ;
#770 = EDGE_CURVE ( 'NONE', #639, #645, #60, .T. ) ;
#771 = DIRECTION ( 'NONE',  ( 1.000000000000000000, -1.301042606982605074E-16, 0.000000000000000000 ) ) ;
#772 = VERTEX_POINT ( 'NONE', #1015 ) ;
#773 = CARTESIAN_POINT ( 'NONE',  ( 33.25000000000000000, 34.75000000000000000, 3.000000000000000000 ) ) ;
#774 = CC_DESIGN_APPROVAL ( #356, ( #682 ) ) ;
#775 = ADVANCED_FACE ( 'NONE', ( #727 ), #538, .F. ) ;
#776 = CIRCLE ( 'NONE', #313, 1.500000000000001332 ) ;
#777 = VECTOR ( 'NONE', #361, 1000.000000000000000 ) ;
#778 = CARTESIAN_POINT ( 'NONE',  ( 29.00000000000000000, -19.74999999999999645, -0.001000000000000132727 ) ) ;
#779 = ADVANCED_FACE ( 'NONE', ( #306 ), #241, .F. ) ;
#780 = VECTOR ( 'NONE', #896, 1000.000000000000000 ) ;
#781 = ORIENTED_EDGE ( 'NONE', *, *, #210, .F. ) ;
#782 = CARTESIAN_POINT ( 'NONE',  ( -28.25000000000001066, 3.250000000000007105, 0.000000000000000000 ) ) ;
#783 = LINE ( 'NONE', #867, #704 ) ;
#784 = CC_DESIGN_PERSON_AND_ORGANIZATION_ASSIGNMENT ( #351, #289, ( #583 ) ) ;
#785 = VERTEX_POINT ( 'NONE', #405 ) ;
#786 = DIRECTION ( 'NONE',  ( 0.000000000000000000, -0.000000000000000000, -1.000000000000000000 ) ) ;
#787 = DIRECTION ( 'NONE',  ( -1.156482317317871331E-15, 1.000000000000000000, 0.000000000000000000 ) ) ;
#788 = DIRECTION ( 'NONE',  ( -0.000000000000000000, -0.000000000000000000, 1.000000000000000000 ) ) ;
#789 = VERTEX_POINT ( 'NONE', #17 ) ;
#790 = VERTEX_POINT ( 'NONE', #886 ) ;
#791 = EDGE_CURVE ( 'NONE', #384, #411, #449, .T. ) ;
#792 = ORIENTED_EDGE ( 'NONE', *, *, #506, .F. ) ;
#793 = ADVANCED_FACE ( 'NONE', ( #938 ), #532, .F. ) ;
#794 = CARTESIAN_POINT ( 'NONE',  ( -28.25000000000001421, 0.2500000000000071609, 0.000000000000000000 ) ) ;
#795 = CARTESIAN_POINT ( 'NONE',  ( 6.000000000000000888, 16.25000000000000355, 0.000000000000000000 ) ) ;
#796 = VERTEX_POINT ( 'NONE', #857 ) ;
#797 = CIRCLE ( 'NONE', #1020, 1.499999999999999556 ) ;
#798 = AXIS2_PLACEMENT_3D ( 'NONE', #52, #442, #505 ) ;
#799 = CARTESIAN_POINT ( 'NONE',  ( 9.000000000000001776, -7.749999999999992006, 3.000000000000000000 ) ) ;
#800 = ORIENTED_EDGE ( 'NONE', *, *, #51, .F. ) ;
#801 = ADVANCED_FACE ( 'NONE', ( #455 ), #996, .F. ) ;
#802 = DIRECTION ( 'NONE',  ( 1.000000000000000000, 0.000000000000000000, 0.000000000000000000 ) ) ;
#803 = ORIENTED_EDGE ( 'NONE', *, *, #960, .T. ) ;
#804 = ORIENTED_EDGE ( 'NONE', *, *, #946, .F. ) ;
#805 = CARTESIAN_POINT ( 'NONE',  ( -10.50000000000000000, 25.25000000000000711, 0.000000000000000000 ) ) ;
#806 = DIRECTION ( 'NONE',  ( 1.000000000000000000, 0.000000000000000000, 0.000000000000000000 ) ) ;
#807 = ORIENTED_EDGE ( 'NONE', *, *, #993, .F. ) ;
#808 = DIRECTION ( 'NONE',  ( -0.000000000000000000, -0.000000000000000000, 1.000000000000000000 ) ) ;
#809 = LOCAL_TIME ( 9, 46, 7.000000000000000000, #37 ) ;
#810 = EDGE_CURVE ( 'NONE', #883, #772, #335, .T. ) ;
#811 = AXIS2_PLACEMENT_3D ( 'NONE', #693, #366, #995 ) ;
#812 = DIRECTION ( 'NONE',  ( -1.000000000000000000, 1.301042606982605321E-16, 0.000000000000000000 ) ) ;
#813 = VERTEX_POINT ( 'NONE', #989 ) ;
#814 = VECTOR ( 'NONE', #656, 1000.000000000000000 ) ;
#815 = LINE ( 'NONE', #190, #780 ) ;
#816 =( LENGTH_UNIT ( ) NAMED_UNIT ( * ) SI_UNIT ( .MILLI., .METRE. ) );
#817 = LINE ( 'NONE', #409, #688 ) ;
#818 = DIRECTION ( 'NONE',  ( 1.000000000000000000, 0.000000000000000000, 0.000000000000000000 ) ) ;
#819 = EDGE_LOOP ( 'NONE', ( #981, #903 ) ) ;
#820 = DIRECTION ( 'NONE',  ( -0.000000000000000000, -0.000000000000000000, 1.000000000000000000 ) ) ;
#821 = DIRECTION ( 'NONE',  ( 0.000000000000000000, 0.000000000000000000, 1.000000000000000000 ) ) ;
#822 = ORIENTED_EDGE ( 'NONE', *, *, #584, .T. ) ;
#823 = EDGE_CURVE ( 'NONE', #864, #193, #589, .T. ) ;
#824 = DIRECTION ( 'NONE',  ( -0.000000000000000000, -0.000000000000000000, 1.000000000000000000 ) ) ;
#825 = PERSON_AND_ORGANIZATION_ROLE ( 'creator' ) ;
#826 = DIRECTION ( 'NONE',  ( 0.000000000000000000, 0.000000000000000000, 1.000000000000000000 ) ) ;
#827 = LINE ( 'NONE', #109, #1005 ) ;
#828 = VERTEX_POINT ( 'NONE', #354 ) ;
#829 = CC_DESIGN_PERSON_AND_ORGANIZATION_ASSIGNMENT ( #185, #825, ( #682 ) ) ;
#830 = VECTOR ( 'NONE', #481, 1000.000000000000000 ) ;
#831 = CARTESIAN_POINT ( 'NONE',  ( 9.000000000000001776, -7.749999999999992006, -0.001000000000000132727 ) ) ;
#832 = PERSON_AND_ORGANIZATION ( #364, #632 ) ;
#833 = ORIENTED_EDGE ( 'NONE', *, *, #916, .F. ) ;
#834 = DIRECTION ( 'NONE',  ( 1.000000000000000000, 0.000000000000000000, 0.000000000000000000 ) ) ;
#835 = CARTESIAN_POINT ( 'NONE',  ( 10.50000000000000178, 25.25000000000000711, -0.001000000000000132727 ) ) ;
#836 = DIRECTION ( 'NONE',  ( 1.156482317317871331E-15, -1.000000000000000000, 0.000000000000000000 ) ) ;
#837 = ORIENTED_EDGE ( 'NONE', *, *, #710, .T. ) ;
#838 = EDGE_CURVE ( 'NONE', #789, #106, #277, .T. ) ;
#839 = DIRECTION ( 'NONE',  ( -1.000000000000000000, -1.246832498358329606E-16, 0.000000000000000000 ) ) ;
#840 = ORIENTED_EDGE ( 'NONE', *, *, #40, .T. ) ;
#841 = CARTESIAN_POINT ( 'NONE',  ( -7.500000000000001776, -7.749999999999996447, 3.000000000000000000 ) ) ;
#842 = CC_DESIGN_DATE_AND_TIME_ASSIGNMENT ( #725, #32, ( #682 ) ) ;
#843 = VERTEX_POINT ( 'NONE', #416 ) ;
#844 = CYLINDRICAL_SURFACE ( 'NONE', #312, 6.000000000000000888 ) ;
#845 = ORIENTED_EDGE ( 'NONE', *, *, #560, .T. ) ;
#846 = AXIS2_PLACEMENT_3D ( 'NONE', #937, #786, #1024 ) ;
#847 = LINE ( 'NONE', #524, #706 ) ;
#848 = VECTOR ( 'NONE', #615, 1000.000000000000000 ) ;
#849 = FACE_OUTER_BOUND ( 'NONE', #508, .T. ) ;
#850 = APPROVAL_DATE_TIME ( #507, #243 ) ;
#851 = PRODUCT ( 'Lid_Default_sldprt', 'Lid_Default_sldprt', '', ( #98 ) ) ;
#852 = VERTEX_POINT ( 'NONE', #594 ) ;
#853 = DIRECTION ( 'NONE',  ( 1.000000000000000000, -1.156482317317871331E-15, 0.000000000000000000 ) ) ;
#854 = PERSON_AND_ORGANIZATION_ROLE ( 'design_supplier' ) ;
#855 = LINE ( 'NONE', #778, #885 ) ;
#856 = EDGE_LOOP ( 'NONE', ( #63, #516, #393, #547 ) ) ;
#857 = CARTESIAN_POINT ( 'NONE',  ( 29.00000000000000000, -19.74999999999999645, 3.000000000000000000 ) ) ;
#858 = AXIS2_PLACEMENT_3D ( 'NONE', #423, #821, #834 ) ;
#859 = DIRECTION ( 'NONE',  ( 0.000000000000000000, -0.000000000000000000, -1.000000000000000000 ) ) ;
#860 = AXIS2_PLACEMENT_3D ( 'NONE', #184, #492, #279 ) ;
#861 = DIRECTION ( 'NONE',  ( -1.000000000000000000, -1.301042606982605321E-16, 0.000000000000000000 ) ) ;
#862 = CARTESIAN_POINT ( 'NONE',  ( 33.25000000000001421, -34.75000000000000000, 3.000000000000000000 ) ) ;
#863 = EDGE_CURVE ( 'NONE', #754, #988, #956, .T. ) ;
#864 = VERTEX_POINT ( 'NONE', #95 ) ;
#865 = ORIENTED_EDGE ( 'NONE', *, *, #328, .T. ) ;
#866 = LINE ( 'NONE', #949, #721 ) ;
#867 = CARTESIAN_POINT ( 'NONE',  ( -33.24999999999998579, -34.75000000000000000, 3.000000000000000000 ) ) ;
#868 = ORIENTED_EDGE ( 'NONE', *, *, #598, .F. ) ;
#869 = ORIENTED_EDGE ( 'NONE', *, *, #441, .F. ) ;
#870 = AXIS2_PLACEMENT_3D ( 'NONE', #28, #22, #268 ) ;
#871 = DIRECTION ( 'NONE',  ( -1.301042606982605321E-16, -1.000000000000000000, 0.000000000000000000 ) ) ;
#872 = ORIENTED_EDGE ( 'NONE', *, *, #210, .T. ) ;
#873 = VECTOR ( 'NONE', #467, 1000.000000000000000 ) ;
#874 = VECTOR ( 'NONE', #994, 1000.000000000000000 ) ;
#875 = EDGE_LOOP ( 'NONE', ( #124, #671, #317, #531 ) ) ;
#876 = CARTESIAN_POINT ( 'NONE',  ( -7.500000000000001776, 25.25000000000000711, -0.001000000000000132727 ) ) ;
#877 = VERTEX_POINT ( 'NONE', #410 ) ;
#878 = ORIENTED_EDGE ( 'NONE', *, *, #791, .F. ) ;
#879 = EDGE_CURVE ( 'NONE', #735, #883, #117, .T. ) ;
#880 = DIRECTION ( 'NONE',  ( 1.000000000000000000, 0.000000000000000000, 0.000000000000000000 ) ) ;
#881 = ORIENTED_EDGE ( 'NONE', *, *, #648, .T. ) ;
#882 = CARTESIAN_POINT ( 'NONE',  ( 10.50000000000000178, -7.749999999999992006, 3.000000000000000000 ) ) ;
#883 = VERTEX_POINT ( 'NONE', #187 ) ;
#884 = DIRECTION ( 'NONE',  ( -0.000000000000000000, -0.000000000000000000, 1.000000000000000000 ) ) ;
#885 = VECTOR ( 'NONE', #369, 1000.000000000000000 ) ;
#886 = CARTESIAN_POINT ( 'NONE',  ( 10.50000000000000178, 25.25000000000000711, 0.000000000000000000 ) ) ;
#887 = VERTEX_POINT ( 'NONE', #900 ) ;
#888 = VECTOR ( 'NONE', #884, 1000.000000000000000 ) ;
#889 = CARTESIAN_POINT ( 'NONE',  ( -33.24999999999998579, -34.75000000000000000, 3.000000000000000000 ) ) ;
#890 = CARTESIAN_POINT ( 'NONE',  ( -27.50000000000000000, -19.74999999999999645, 0.000000000000000000 ) ) ;
#891 = DIRECTION ( 'NONE',  ( -1.000000000000000000, -1.301042606982605074E-16, 0.000000000000000000 ) ) ;
#892 = EDGE_CURVE ( 'NONE', #80, #558, #759, .T. ) ;
#893 = ORIENTED_EDGE ( 'NONE', *, *, #476, .T. ) ;
#894 = DIRECTION ( 'NONE',  ( 0.000000000000000000, 1.000000000000000000, 0.000000000000000000 ) ) ;
#895 = ORIENTED_EDGE ( 'NONE', *, *, #533, .F. ) ;
#896 = DIRECTION ( 'NONE',  ( -0.000000000000000000, -0.000000000000000000, 1.000000000000000000 ) ) ;
#897 = VERTEX_POINT ( 'NONE', #660 ) ;
#898 = CARTESIAN_POINT ( 'NONE',  ( 28.25000000000001421, 0.2500000000000071609, -4.235164736271501695E-19 ) ) ;
#899 = CC_DESIGN_PERSON_AND_ORGANIZATION_ASSIGNMENT ( #738, #26, ( #851 ) ) ;
#900 = CARTESIAN_POINT ( 'NONE',  ( -29.00000000000000000, -19.74999999999999645, 0.000000000000000000 ) ) ;
#901 = EDGE_LOOP ( 'NONE', ( #256, #477, #276, #396 ) ) ;
#902 = CYLINDRICAL_SURFACE ( 'NONE', #212, 1.499999999999999556 ) ;
#903 = ORIENTED_EDGE ( 'NONE', *, *, #960, .F. ) ;
#904 = LOCAL_TIME ( 9, 46, 7.000000000000000000, #664 ) ;
#905 = DIRECTION ( 'NONE',  ( 0.000000000000000000, -0.000000000000000000, -1.000000000000000000 ) ) ;
#906 = EDGE_LOOP ( 'NONE', ( #961, #541, #878, #247 ) ) ;
#907 = CIRCLE ( 'NONE', #234, 1.500000000000001332 ) ;
#908 = AXIS2_PLACEMENT_3D ( 'NONE', #977, #7, #647 ) ;
#909 = EDGE_CURVE ( 'NONE', #564, #96, #12, .T. ) ;
#910 = DIRECTION ( 'NONE',  ( 1.000000000000000000, 0.000000000000000000, 0.000000000000000000 ) ) ;
#911 = APPLICATION_CONTEXT ( 'configuration controlled 3d designs of mechanical parts and assemblies' ) ;
#912 = LINE ( 'NONE', #490, #588 ) ;
#913 = VERTEX_POINT ( 'NONE', #577 ) ;
#914 = CARTESIAN_POINT ( 'NONE',  ( -18.25000000000001066, 0.2500000000000059397, 3.000000000000000000 ) ) ;
#915 = FACE_BOUND ( 'NONE', #133, .T. ) ;
#916 = EDGE_CURVE ( 'NONE', #564, #877, #912, .T. ) ;
#917 = ORIENTED_EDGE ( 'NONE', *, *, #4, .T. ) ;
#918 = DIRECTION ( 'NONE',  ( -1.000000000000000000, 1.246832498358329606E-16, 0.000000000000000000 ) ) ;
#919 = CARTESIAN_POINT ( 'NONE',  ( 0.000000000000000000, 16.25000000000000355, -0.001000000000000132727 ) ) ;
#920 = EDGE_LOOP ( 'NONE', ( #917, #926, #695, #45 ) ) ;
#921 = DIRECTION ( 'NONE',  ( 1.000000000000000000, 0.000000000000000000, 0.000000000000000000 ) ) ;
#922 = PERSON_AND_ORGANIZATION ( #364, #632 ) ;
#923 = ORIENTED_EDGE ( 'NONE', *, *, #627, .T. ) ;
#924 = CARTESIAN_POINT ( 'NONE',  ( -33.25000000000000000, 34.75000000000000000, 3.000000000000000000 ) ) ;
#925 = ADVANCED_FACE ( 'NONE', ( #342 ), #195, .F. ) ;
#926 = ORIENTED_EDGE ( 'NONE', *, *, #346, .F. ) ;
#927 = VECTOR ( 'NONE', #39, 1000.000000000000000 ) ;
#928 = AXIS2_PLACEMENT_3D ( 'NONE', #709, #76, #309 ) ;
#929 = FACE_OUTER_BOUND ( 'NONE', #48, .T. ) ;
#930 = MANIFOLD_SOLID_BREP ( 'Mirror2', #741 ) ;
#931 = LINE ( 'NONE', #136, #552 ) ;
#932 = EDGE_CURVE ( 'NONE', #1000, #629, #827, .T. ) ;
#933 = EDGE_CURVE ( 'NONE', #411, #864, #264, .T. ) ;
#934 = CARTESIAN_POINT ( 'NONE',  ( -10.50000000000000000, 25.25000000000000711, 3.000000000000000000 ) ) ;
#935 = FACE_OUTER_BOUND ( 'NONE', #699, .T. ) ;
#936 = EDGE_LOOP ( 'NONE', ( #431, #803, #127, #35 ) ) ;
#937 = CARTESIAN_POINT ( 'NONE',  ( 27.50000000000000000, -19.74999999999999645, 0.000000000000000000 ) ) ;
#938 = FACE_OUTER_BOUND ( 'NONE', #970, .T. ) ;
#939 = DIRECTION ( 'NONE',  ( -0.000000000000000000, -0.000000000000000000, -1.000000000000000000 ) ) ;
#940 = FACE_OUTER_BOUND ( 'NONE', #724, .T. ) ;
#941 = CARTESIAN_POINT ( 'NONE',  ( -28.25000000000001421, 0.2500000000000071609, 0.000000000000000000 ) ) ;
#942 = AXIS2_PLACEMENT_3D ( 'NONE', #980, #497, #974 ) ;
#943 = EDGE_CURVE ( 'NONE', #38, #789, #181, .T. ) ;
#944 = AXIS2_PLACEMENT_3D ( 'NONE', #799, #1021, #697 ) ;
#945 = LINE ( 'NONE', #475, #108 ) ;
#946 = EDGE_CURVE ( 'NONE', #590, #230, #368, .T. ) ;
#947 = AXIS2_PLACEMENT_3D ( 'NONE', #761, #853, #50 ) ;
#948 = ORIENTED_EDGE ( 'NONE', *, *, #737, .T. ) ;
#949 = CARTESIAN_POINT ( 'NONE',  ( -28.25000000000001066, 3.250000000000007105, -0.001000000000000132727 ) ) ;
#950 = DIRECTION ( 'NONE',  ( -0.000000000000000000, -0.000000000000000000, 1.000000000000000000 ) ) ;
#951 = ORIENTED_EDGE ( 'NONE', *, *, #2, .F. ) ;
#952 = CARTESIAN_POINT ( 'NONE',  ( -9.000000000000001776, -7.749999999999996447, 0.000000000000000000 ) ) ;
#953 = EDGE_LOOP ( 'NONE', ( #5, #804 ) ) ;
#954 = EDGE_CURVE ( 'NONE', #677, #726, #747, .T. ) ;
#955 = ORIENTED_EDGE ( 'NONE', *, *, #33, .F. ) ;
#956 = CIRCLE ( 'NONE', #84, 1.499999999999999556 ) ;
#957 = DIRECTION ( 'NONE',  ( 0.000000000000000000, -0.000000000000000000, -1.000000000000000000 ) ) ;
#958 = CIRCLE ( 'NONE', #519, 1.500000000000001332 ) ;
#959 = AXIS2_PLACEMENT_3D ( 'NONE', #302, #216, #223 ) ;
#960 = EDGE_CURVE ( 'NONE', #1023, #790, #74, .T. ) ;
#961 = ORIENTED_EDGE ( 'NONE', *, *, #90, .T. ) ;
#962 = LINE ( 'NONE', #555, #301 ) ;
#963 = EDGE_LOOP ( 'NONE', ( #758, #607, #504, #1025 ) ) ;
#964 = DIRECTION ( 'NONE',  ( 1.996804001124382178E-16, -1.000000000000000000, 0.000000000000000000 ) ) ;
#965 = CARTESIAN_POINT ( 'NONE',  ( -7.500000000000001776, -7.749999999999996447, 0.000000000000000000 ) ) ;
#966 = ORIENTED_EDGE ( 'NONE', *, *, #40, .F. ) ;
#967 = FACE_BOUND ( 'NONE', #658, .T. ) ;
#968 = CARTESIAN_POINT ( 'NONE',  ( 27.50000000000000000, -19.74999999999999645, -0.001000000000000132727 ) ) ;
#969 = DIRECTION ( 'NONE',  ( 0.000000000000000000, -0.000000000000000000, -1.000000000000000000 ) ) ;
#970 = EDGE_LOOP ( 'NONE', ( #233, #10, #198, #966 ) ) ;
#971 = EDGE_CURVE ( 'NONE', #360, #843, #427, .T. ) ;
#972 = CARTESIAN_POINT ( 'NONE',  ( -26.00000000000000000, -19.74999999999999645, 0.000000000000000000 ) ) ;
#973 = DIRECTION ( 'NONE',  ( -0.000000000000000000, -0.000000000000000000, -1.000000000000000000 ) ) ;
#974 = DIRECTION ( 'NONE',  ( 1.000000000000000000, 1.246832498358329606E-16, 0.000000000000000000 ) ) ;
#975 = VERTEX_POINT ( 'NONE', #514 ) ;
#976 = AXIS2_PLACEMENT_3D ( 'NONE', #534, #859, #69 ) ;
#977 = CARTESIAN_POINT ( 'NONE',  ( 0.000000000000000000, 0.000000000000000000, 0.000000000000000000 ) ) ;
#978 = CYLINDRICAL_SURFACE ( 'NONE', #652, 1.500000000000001332 ) ;
#979 = ORIENTED_EDGE ( 'NONE', *, *, #770, .F. ) ;
#980 = CARTESIAN_POINT ( 'NONE',  ( 28.25000000000001421, 0.2500000000000071609, -0.001000000000000132727 ) ) ;
#981 = ORIENTED_EDGE ( 'NONE', *, *, #648, .F. ) ;
#982 = CARTESIAN_POINT ( 'NONE',  ( -9.000000000000001776, 25.25000000000000711, -0.001000000000000132727 ) ) ;
#983 = DIRECTION ( 'NONE',  ( 1.000000000000000000, 0.000000000000000000, 0.000000000000000000 ) ) ;
#984 = ADVANCED_FACE ( 'NONE', ( #205 ), #844, .F. ) ;
#985 = DIRECTION ( 'NONE',  ( -0.000000000000000000, -0.000000000000000000, 1.000000000000000000 ) ) ;
#986 = CARTESIAN_POINT ( 'NONE',  ( -18.25000000000001066, 0.2500000000000059397, 3.000000000000000000 ) ) ;
#987 = LINE ( 'NONE', #576, #686 ) ;
#988 = VERTEX_POINT ( 'NONE', #191 ) ;
#989 = CARTESIAN_POINT ( 'NONE',  ( -33.24999999999998579, -34.75000000000000000, 3.000000000000000000 ) ) ;
#990 = VERTEX_POINT ( 'NONE', #669 ) ;
#991 = CC_DESIGN_DATE_AND_TIME_ASSIGNMENT ( #450, #687, ( #583 ) ) ;
#992 = AXIS2_PLACEMENT_3D ( 'NONE', #59, #625, #861 ) ;
#993 = EDGE_CURVE ( 'NONE', #813, #421, #480, .T. ) ;
#994 = DIRECTION ( 'NONE',  ( 1.000000000000000000, 1.301042606982605321E-16, 0.000000000000000000 ) ) ;
#995 = DIRECTION ( 'NONE',  ( -0.000000000000000000, 0.000000000000000000, 1.000000000000000000 ) ) ;
#996 = CYLINDRICAL_SURFACE ( 'NONE', #418, 1.500000000000001332 ) ;
#997 = ORIENTED_EDGE ( 'NONE', *, *, #380, .F. ) ;
#998 = CARTESIAN_POINT ( 'NONE',  ( -9.000000000000001776, 25.25000000000000711, -0.001000000000000132727 ) ) ;
#999 = FACE_OUTER_BOUND ( 'NONE', #178, .T. ) ;
#1000 = VERTEX_POINT ( 'NONE', #252 ) ;
#1001 = LINE ( 'NONE', #281, #30 ) ;
#1002 = ADVANCED_FACE ( 'NONE', ( #569 ), #180, .F. ) ;
#1003 = EDGE_CURVE ( 'NONE', #828, #852, #987, .T. ) ;
#1004 = EDGE_LOOP ( 'NONE', ( #800, #460 ) ) ;
#1005 = VECTOR ( 'NONE', #753, 1000.000000000000000 ) ;
#1006 = VECTOR ( 'NONE', #788, 1000.000000000000000 ) ;
#1007 = CARTESIAN_POINT ( 'NONE',  ( -28.25000000000001066, 3.250000000000007105, 0.000000000000000000 ) ) ;
#1008 = AXIS2_PLACEMENT_3D ( 'NONE', #662, #14, #322 ) ;
#1009 = CARTESIAN_POINT ( 'NONE',  ( -9.000000000000001776, -7.749999999999996447, 3.000000000000000000 ) ) ;
#1010 = DIRECTION ( 'NONE',  ( -0.000000000000000000, -0.000000000000000000, 1.000000000000000000 ) ) ;
#1011 = CALENDAR_DATE ( 2026, 9, 9 ) ;
#1012 = DIRECTION ( 'NONE',  ( 0.000000000000000000, 0.000000000000000000, 1.000000000000000000 ) ) ;
#1013 = ORIENTED_EDGE ( 'NONE', *, *, #215, .F. ) ;
#1014 = ADVANCED_FACE ( 'NONE', ( #745 ), #978, .F. ) ;
#1015 = CARTESIAN_POINT ( 'NONE',  ( -28.25000000000001066, 3.250000000000007105, 3.000000000000000000 ) ) ;
#1016 = PLANE ( 'NONE',  #928 ) ;
#1017 = ORIENTED_EDGE ( 'NONE', *, *, #863, .T. ) ;
#1018 = CARTESIAN_POINT ( 'NONE',  ( -28.25000000000001421, 0.2500000000000071609, 0.000000000000000000 ) ) ;
#1019 = AXIS2_PLACEMENT_3D ( 'NONE', #408, #115, #495 ) ;
#1020 = AXIS2_PLACEMENT_3D ( 'NONE', #338, #129, #608 ) ;
#1021 = DIRECTION ( 'NONE',  ( 0.000000000000000000, 0.000000000000000000, 1.000000000000000000 ) ) ;
#1022 = VECTOR ( 'NONE', #591, 1000.000000000000000 ) ;
#1023 = VERTEX_POINT ( 'NONE', #345 ) ;
#1024 = DIRECTION ( 'NONE',  ( 1.000000000000000000, 0.000000000000000000, 0.000000000000000000 ) ) ;
#1025 = ORIENTED_EDGE ( 'NONE', *, *, #612, .T. ) ;
#1026 = LINE ( 'NONE', #696, #144 ) ;
#1027 = CARTESIAN_POINT ( 'NONE',  ( 18.25000000000001066, 0.2500000000000059397, 3.000000000000000000 ) ) ;
ENDSEC;
END-ISO-10303-21;
