ISO-10303-21;
HEADER;
FILE_DESCRIPTION (( 'STEP AP203' ),
    '1' );
FILE_NAME ('MechanicalLimit_Default_sldprt.STEP',
    '2026-09-09T04:16:09',
    ( '' ),
    ( '' ),
    'SwSTEP 2.0',
    'SolidWorks 2020',
    '' );
FILE_SCHEMA (( 'CONFIG_CONTROL_DESIGN' ));
ENDSEC;

DATA;
#1 = PLANE ( 'NONE',  #323 ) ;
#2 = EDGE_CURVE ( 'NONE', #214, #45, #244, .T. ) ;
#3 = LINE ( 'NONE', #115, #395 ) ;
#4 = DIRECTION ( 'NONE',  ( 0.000000000000000000, -1.000000000000000000, 0.000000000000000000 ) ) ;
#5 = CARTESIAN_POINT ( 'NONE',  ( -10.00000000000000888, 38.50000000000000711, 3.000000000000000000 ) ) ;
#6 = AXIS2_PLACEMENT_3D ( 'NONE', #411, #404, #102 ) ;
#7 = DIRECTION ( 'NONE',  ( -1.000000000000000000, 0.000000000000000000, 0.000000000000000000 ) ) ;
#8 =( GEOMETRIC_REPRESENTATION_CONTEXT ( 3 ) GLOBAL_UNCERTAINTY_ASSIGNED_CONTEXT ( ( #242 ) ) GLOBAL_UNIT_ASSIGNED_CONTEXT ( ( #119, #227, #190 ) ) REPRESENTATION_CONTEXT ( 'NONE', 'WORKASPACE' ) );
#9 = LINE ( 'NONE', #274, #448 ) ;
#10 = CARTESIAN_POINT ( 'NONE',  ( 4.999999999999990230, 41.50000000000000711, 3.000000000000000000 ) ) ;
#11 = DIRECTION ( 'NONE',  ( -9.011550524554840736E-17, 1.000000000000000000, 0.000000000000000000 ) ) ;
#12 = ADVANCED_FACE ( 'NONE', ( #284 ), #399, .F. ) ;
#13 = PRODUCT ( 'MechanicalLimit_Default_sldprt', 'MechanicalLimit_Default_sldprt', '', ( #128 ) ) ;
#14 = AXIS2_PLACEMENT_3D ( 'NONE', #24, #289, #445 ) ;
#15 = ADVANCED_FACE ( 'NONE', ( #96 ), #171, .F. ) ;
#16 = VERTEX_POINT ( 'NONE', #329 ) ;
#17 = VERTEX_POINT ( 'NONE', #326 ) ;
#18 = CC_DESIGN_DATE_AND_TIME_ASSIGNMENT ( #56, #490, ( #51 ) ) ;
#19 = VERTEX_POINT ( 'NONE', #54 ) ;
#20 = ORIENTED_EDGE ( 'NONE', *, *, #43, .T. ) ;
#21 = ORIENTED_EDGE ( 'NONE', *, *, #446, .F. ) ;
#22 = CARTESIAN_POINT ( 'NONE',  ( -4.999999999999998224, -41.49999999999999289, 0.000000000000000000 ) ) ;
#23 = EDGE_LOOP ( 'NONE', ( #97, #188, #217, #31 ) ) ;
#24 = CARTESIAN_POINT ( 'NONE',  ( 4.999999999999990230, 38.50000000000000711, 3.000000000000000000 ) ) ;
#25 = ORIENTED_EDGE ( 'NONE', *, *, #438, .F. ) ;
#26 = APPROVAL_DATE_TIME ( #262, #389 ) ;
#27 = LINE ( 'NONE', #65, #283 ) ;
#28 = VERTEX_POINT ( 'NONE', #174 ) ;
#29 = DIRECTION ( 'NONE',  ( -1.000000000000000000, 0.000000000000000000, -0.000000000000000000 ) ) ;
#30 = EDGE_CURVE ( 'NONE', #16, #214, #134, .T. ) ;
#31 = ORIENTED_EDGE ( 'NONE', *, *, #248, .T. ) ;
#32 = DIRECTION ( 'NONE',  ( -0.000000000000000000, -0.000000000000000000, -1.000000000000000000 ) ) ;
#33 = EDGE_CURVE ( 'NONE', #127, #17, #408, .T. ) ;
#34 = CARTESIAN_POINT ( 'NONE',  ( -5.000000000000007994, -38.49999999999999289, 0.000000000000000000 ) ) ;
#35 = EDGE_CURVE ( 'NONE', #317, #365, #487, .T. ) ;
#36 = CARTESIAN_POINT ( 'NONE',  ( -10.00000000000000178, -38.49999999999999289, 0.000000000000000000 ) ) ;
#37 = CARTESIAN_POINT ( 'NONE',  ( 0.000000000000000000, 0.000000000000000000, 0.000000000000000000 ) ) ;
#38 = DIRECTION ( 'NONE',  ( -6.360652745248286895E-15, 1.000000000000000000, 0.000000000000000000 ) ) ;
#39 = AXIS2_PLACEMENT_3D ( 'NONE', #203, #126, #319 ) ;
#40 = CARTESIAN_POINT ( 'NONE',  ( 4.999999999999990230, 41.50000000000000711, 0.000000000000000000 ) ) ;
#41 = LOCAL_TIME ( 9, 46, 9.000000000000000000, #207 ) ;
#42 = FACE_OUTER_BOUND ( 'NONE', #398, .T. ) ;
#43 = EDGE_CURVE ( 'NONE', #100, #19, #208, .T. ) ;
#44 = PERSON ( 'UNSPECIFIED', 'UNSPECIFIED', 'UNSPECIFIED', ('UNSPECIFIED'), ('UNSPECIFIED'), ('UNSPECIFIED') ) ;
#45 = VERTEX_POINT ( 'NONE', #475 ) ;
#46 = ADVANCED_FACE ( 'NONE', ( #53 ), #211, .F. ) ;
#47 = ORIENTED_EDGE ( 'NONE', *, *, #107, .T. ) ;
#48 = PERSON_AND_ORGANIZATION_ROLE ( 'creator' ) ;
#49 = VECTOR ( 'NONE', #169, 1000.000000000000000 ) ;
#50 = ORIENTED_EDGE ( 'NONE', *, *, #364, .F. ) ;
#51 = PRODUCT_DEFINITION ( 'UNKNOWN', '', #268, #473 ) ;
#52 = ORIENTED_EDGE ( 'NONE', *, *, #356, .F. ) ;
#53 = FACE_OUTER_BOUND ( 'NONE', #443, .T. ) ;
#54 = CARTESIAN_POINT ( 'NONE',  ( 4.999999999999990230, 38.50000000000000711, 0.000000000000000000 ) ) ;
#55 = ORIENTED_EDGE ( 'NONE', *, *, #131, .F. ) ;
#56 = DATE_AND_TIME ( #338, #41 ) ;
#57 = CARTESIAN_POINT ( 'NONE',  ( -10.00000000000000888, 38.50000000000000711, 0.000000000000000000 ) ) ;
#58 = ADVANCED_FACE ( 'NONE', ( #86 ), #241, .F. ) ;
#59 = ORIENTED_EDGE ( 'NONE', *, *, #30, .F. ) ;
#60 = VERTEX_POINT ( 'NONE', #471 ) ;
#61 = CARTESIAN_POINT ( 'NONE',  ( -5.000000000000007994, -38.49999999999999289, 3.000000000000000000 ) ) ;
#62 = ORIENTED_EDGE ( 'NONE', *, *, #463, .F. ) ;
#63 = APPROVAL ( #482, 'UNSPECIFIED' ) ;
#64 = COORDINATED_UNIVERSAL_TIME_OFFSET ( 5, 30, .AHEAD. ) ;
#65 = CARTESIAN_POINT ( 'NONE',  ( 5.000000000000009770, -41.49999999999999289, 3.000000000000000000 ) ) ;
#66 = VERTEX_POINT ( 'NONE', #225 ) ;
#67 = ADVANCED_FACE ( 'NONE', ( #108 ), #215, .F. ) ;
#68 = PERSON_AND_ORGANIZATION_ROLE ( 'classification_officer' ) ;
#69 = DIRECTION ( 'NONE',  ( -1.000000000000000000, -0.000000000000000000, -0.000000000000000000 ) ) ;
#70 = VERTEX_POINT ( 'NONE', #57 ) ;
#71 = AXIS2_PLACEMENT_3D ( 'NONE', #191, #340, #426 ) ;
#72 = VECTOR ( 'NONE', #238, 1000.000000000000000 ) ;
#73 = LINE ( 'NONE', #173, #330 ) ;
#74 = VERTEX_POINT ( 'NONE', #263 ) ;
#75 = FACE_OUTER_BOUND ( 'NONE', #362, .T. ) ;
#76 = ORIENTED_EDGE ( 'NONE', *, *, #170, .T. ) ;
#77 = CARTESIAN_POINT ( 'NONE',  ( -5.000000000000007994, -38.49999999999999289, 3.000000000000000000 ) ) ;
#78 = CARTESIAN_POINT ( 'NONE',  ( -10.00000000000000888, 38.50000000000000711, 3.000000000000000000 ) ) ;
#79 = DIRECTION ( 'NONE',  ( 6.360652745248286106E-15, -1.000000000000000000, 0.000000000000000000 ) ) ;
#80 = CARTESIAN_POINT ( 'NONE',  ( 4.999999999999990230, 38.50000000000000711, 3.000000000000000000 ) ) ;
#81 = CARTESIAN_POINT ( 'NONE',  ( 5.000000000000009770, -41.49999999999999289, 0.000000000000000000 ) ) ;
#82 = EDGE_CURVE ( 'NONE', #317, #100, #483, .T. ) ;
#83 = FACE_OUTER_BOUND ( 'NONE', #481, .T. ) ;
#84 = VECTOR ( 'NONE', #336, 1000.000000000000000 ) ;
#85 = CC_DESIGN_APPROVAL ( #389, ( #104 ) ) ;
#86 = FACE_OUTER_BOUND ( 'NONE', #177, .T. ) ;
#87 = PERSON_AND_ORGANIZATION ( #44, #234 ) ;
#88 = COORDINATED_UNIVERSAL_TIME_OFFSET ( 5, 30, .AHEAD. ) ;
#89 = DIRECTION ( 'NONE',  ( -0.000000000000000000, -0.000000000000000000, -1.000000000000000000 ) ) ;
#90 = ORIENTED_EDGE ( 'NONE', *, *, #451, .T. ) ;
#91 = ORIENTED_EDGE ( 'NONE', *, *, #2, .T. ) ;
#92 = VECTOR ( 'NONE', #118, 1000.000000000000000 ) ;
#93 = AXIS2_PLACEMENT_3D ( 'NONE', #37, #154, #307 ) ;
#94 = ORIENTED_EDGE ( 'NONE', *, *, #2, .F. ) ;
#95 = ORIENTED_EDGE ( 'NONE', *, *, #278, .T. ) ;
#96 = FACE_OUTER_BOUND ( 'NONE', #447, .T. ) ;
#97 = ORIENTED_EDGE ( 'NONE', *, *, #33, .T. ) ;
#98 = PERSON_AND_ORGANIZATION ( #44, #234 ) ;
#99 = PLANE ( 'NONE',  #267 ) ;
#100 = VERTEX_POINT ( 'NONE', #455 ) ;
#101 = ORIENTED_EDGE ( 'NONE', *, *, #495, .F. ) ;
#102 = DIRECTION ( 'NONE',  ( 0.000000000000000000, -0.000000000000000000, 1.000000000000000000 ) ) ;
#103 = CC_DESIGN_PERSON_AND_ORGANIZATION_ASSIGNMENT ( #479, #161, ( #13 ) ) ;
#104 = SECURITY_CLASSIFICATION ( '', '', #370 ) ;
#105 = CARTESIAN_POINT ( 'NONE',  ( 4.999999999999990230, 41.50000000000000711, 3.000000000000000000 ) ) ;
#106 = CARTESIAN_POINT ( 'NONE',  ( -10.00000000000000178, -38.49999999999999289, 3.000000000000000000 ) ) ;
#107 = EDGE_CURVE ( 'NONE', #405, #45, #185, .T. ) ;
#108 = FACE_OUTER_BOUND ( 'NONE', #111, .T. ) ;
#109 = APPROVAL_ROLE ( '' ) ;
#110 = DIRECTION ( 'NONE',  ( -6.360652745248286895E-15, 1.000000000000000000, 0.000000000000000000 ) ) ;
#111 = EDGE_LOOP ( 'NONE', ( #294, #21, #497, #353 ) ) ;
#112 = VECTOR ( 'NONE', #295, 1000.000000000000000 ) ;
#113 = CC_DESIGN_SECURITY_CLASSIFICATION ( #104, ( #268 ) ) ;
#114 = CARTESIAN_POINT ( 'NONE',  ( 4.999999999999990230, -38.49999999999999289, 3.000000000000000000 ) ) ;
#115 = CARTESIAN_POINT ( 'NONE',  ( 4.999999999999990230, -38.49999999999999289, 3.000000000000000000 ) ) ;
#116 = LINE ( 'NONE', #277, #279 ) ;
#117 = ORIENTED_EDGE ( 'NONE', *, *, #373, .F. ) ;
#118 = DIRECTION ( 'NONE',  ( -1.351732578683226234E-16, 1.000000000000000000, -0.000000000000000000 ) ) ;
#119 =( LENGTH_UNIT ( ) NAMED_UNIT ( * ) SI_UNIT ( .MILLI., .METRE. ) );
#120 = APPROVAL_PERSON_ORGANIZATION ( #187, #63, #454 ) ;
#121 = LINE ( 'NONE', #461, #428 ) ;
#122 = LINE ( 'NONE', #382, #397 ) ;
#123 = CARTESIAN_POINT ( 'NONE',  ( 4.999999999999990230, 41.50000000000000711, 3.000000000000000000 ) ) ;
#124 = DIRECTION ( 'NONE',  ( 1.000000000000000000, 2.891205793294675861E-16, -0.000000000000000000 ) ) ;
#125 = ADVANCED_FACE ( 'NONE', ( #222 ), #99, .T. ) ;
#126 = DIRECTION ( 'NONE',  ( 1.000000000000000000, 3.180326372624143053E-15, -0.000000000000000000 ) ) ;
#127 = VERTEX_POINT ( 'NONE', #252 ) ;
#128 = MECHANICAL_CONTEXT ( 'NONE', #303, 'mechanical' ) ;
#129 = LOCAL_TIME ( 9, 46, 9.000000000000000000, #444 ) ;
#130 = EDGE_LOOP ( 'NONE', ( #431, #50, #62, #337 ) ) ;
#131 = EDGE_CURVE ( 'NONE', #245, #74, #179, .T. ) ;
#132 = ORIENTED_EDGE ( 'NONE', *, *, #139, .F. ) ;
#133 = FACE_OUTER_BOUND ( 'NONE', #23, .T. ) ;
#134 = LINE ( 'NONE', #287, #377 ) ;
#135 = PLANE ( 'NONE',  #14 ) ;
#136 = ORIENTED_EDGE ( 'NONE', *, *, #151, .T. ) ;
#137 = CALENDAR_DATE ( 2026, 9, 9 ) ;
#138 = DIRECTION ( 'NONE',  ( 1.000000000000000000, 0.000000000000000000, 0.000000000000000000 ) ) ;
#139 = EDGE_CURVE ( 'NONE', #365, #19, #493, .T. ) ;
#140 = ORIENTED_EDGE ( 'NONE', *, *, #144, .T. ) ;
#141 = AXIS2_PLACEMENT_3D ( 'NONE', #160, #427, #79 ) ;
#142 = ORIENTED_EDGE ( 'NONE', *, *, #313, .F. ) ;
#143 = DIRECTION ( 'NONE',  ( -0.000000000000000000, -0.000000000000000000, -1.000000000000000000 ) ) ;
#144 = EDGE_CURVE ( 'NONE', #360, #17, #145, .T. ) ;
#145 = LINE ( 'NONE', #332, #309 ) ;
#146 = ORIENTED_EDGE ( 'NONE', *, *, #468, .T. ) ;
#147 = PERSON_AND_ORGANIZATION_ROLE ( 'design_supplier' ) ;
#148 = CARTESIAN_POINT ( 'NONE',  ( -10.00000000000000888, 38.50000000000000711, 3.000000000000000000 ) ) ;
#149 = ORIENTED_EDGE ( 'NONE', *, *, #248, .F. ) ;
#150 = VECTOR ( 'NONE', #286, 1000.000000000000000 ) ;
#151 = EDGE_CURVE ( 'NONE', #243, #70, #407, .T. ) ;
#152 = DIRECTION ( 'NONE',  ( 1.000000000000000000, 0.000000000000000000, 0.000000000000000000 ) ) ;
#153 = DIRECTION ( 'NONE',  ( 1.000000000000000000, 9.011550524554840736E-17, -0.000000000000000000 ) ) ;
#154 = DIRECTION ( 'NONE',  ( 0.000000000000000000, 0.000000000000000000, 1.000000000000000000 ) ) ;
#155 = CARTESIAN_POINT ( 'NONE',  ( -5.000000000000008882, 41.50000000000000711, 0.000000000000000000 ) ) ;
#156 = EDGE_CURVE ( 'NONE', #256, #459, #486, .T. ) ;
#157 = VECTOR ( 'NONE', #385, 1000.000000000000000 ) ;
#158 = DIRECTION ( 'NONE',  ( -1.000000000000000000, -0.000000000000000000, -0.000000000000000000 ) ) ;
#159 = LINE ( 'NONE', #77, #255 ) ;
#160 = CARTESIAN_POINT ( 'NONE',  ( 5.000000000000009770, -41.49999999999999289, 3.000000000000000000 ) ) ;
#161 = PERSON_AND_ORGANIZATION_ROLE ( 'design_owner' ) ;
#162 = CLOSED_SHELL ( 'NONE', ( #189, #350, #216, #457, #12, #46, #264, #288, #67, #58, #15, #333, #253, #125 ) ) ;
#163 = PRODUCT_RELATED_PRODUCT_CATEGORY ( 'detail', '', ( #13 ) ) ;
#164 = ORIENTED_EDGE ( 'NONE', *, *, #35, .T. ) ;
#165 = APPLICATION_CONTEXT ( 'configuration controlled 3d designs of mechanical parts and assemblies' ) ;
#166 = ORIENTED_EDGE ( 'NONE', *, *, #378, .F. ) ;
#167 = ADVANCED_BREP_SHAPE_REPRESENTATION ( 'MechanicalLimit_Default_sldprt', ( #301, #93 ), #8 ) ;
#168 = ORIENTED_EDGE ( 'NONE', *, *, #226, .T. ) ;
#169 = DIRECTION ( 'NONE',  ( -0.000000000000000000, -0.000000000000000000, -1.000000000000000000 ) ) ;
#170 = EDGE_CURVE ( 'NONE', #494, #28, #27, .T. ) ;
#171 = PLANE ( 'NONE',  #422 ) ;
#172 = VECTOR ( 'NONE', #138, 1000.000000000000000 ) ;
#173 = CARTESIAN_POINT ( 'NONE',  ( 9.999999999999991118, 38.50000000000000711, 0.000000000000000000 ) ) ;
#174 = CARTESIAN_POINT ( 'NONE',  ( 4.999999999999990230, -38.49999999999999289, 3.000000000000000000 ) ) ;
#175 = PERSON_AND_ORGANIZATION_ROLE ( 'creator' ) ;
#176 = CARTESIAN_POINT ( 'NONE',  ( -5.000000000000007994, 38.50000000000000711, 3.000000000000000000 ) ) ;
#177 = EDGE_LOOP ( 'NONE', ( #430, #55, #369, #334 ) ) ;
#178 = COORDINATED_UNIVERSAL_TIME_OFFSET ( 5, 30, .AHEAD. ) ;
#179 = LINE ( 'NONE', #368, #84 ) ;
#180 = DIRECTION ( 'NONE',  ( 1.000000000000000000, 0.000000000000000000, 0.000000000000000000 ) ) ;
#181 = CARTESIAN_POINT ( 'NONE',  ( 4.999999999999990230, 38.50000000000000711, 0.000000000000000000 ) ) ;
#182 = ORIENTED_EDGE ( 'NONE', *, *, #139, .T. ) ;
#183 = AXIS2_PLACEMENT_3D ( 'NONE', #302, #4, #465 ) ;
#184 = LOCAL_TIME ( 9, 46, 9.000000000000000000, #178 ) ;
#185 = LINE ( 'NONE', #260, #390 ) ;
#186 = VERTEX_POINT ( 'NONE', #61 ) ;
#187 = PERSON_AND_ORGANIZATION ( #44, #234 ) ;
#188 = ORIENTED_EDGE ( 'NONE', *, *, #144, .F. ) ;
#189 = ADVANCED_FACE ( 'NONE', ( #133 ), #293, .F. ) ;
#190 =( NAMED_UNIT ( * ) SI_UNIT ( $, .STERADIAN. ) SOLID_ANGLE_UNIT ( ) );
#191 = CARTESIAN_POINT ( 'NONE',  ( 0.000000000000000000, 0.000000000000000000, 3.000000000000000000 ) ) ;
#192 = ORIENTED_EDGE ( 'NONE', *, *, #364, .T. ) ;
#193 = CARTESIAN_POINT ( 'NONE',  ( 9.999999999999991118, 38.50000000000000711, 0.000000000000000000 ) ) ;
#194 = VECTOR ( 'NONE', #450, 1000.000000000000000 ) ;
#195 = EDGE_CURVE ( 'NONE', #17, #365, #73, .T. ) ;
#196 = APPLICATION_PROTOCOL_DEFINITION ( 'international standard', 'config_control_design', 1994, #303 ) ;
#197 = LINE ( 'NONE', #347, #223 ) ;
#198 = LINE ( 'NONE', #228, #157 ) ;
#199 = VECTOR ( 'NONE', #180, 1000.000000000000000 ) ;
#200 = LINE ( 'NONE', #114, #298 ) ;
#201 = CARTESIAN_POINT ( 'NONE',  ( 9.999999999999991118, 38.50000000000000711, 3.000000000000000000 ) ) ;
#202 = APPROVAL_DATE_TIME ( #394, #314 ) ;
#203 = CARTESIAN_POINT ( 'NONE',  ( -5.000000000000007994, -38.49999999999999289, 3.000000000000000000 ) ) ;
#204 = EDGE_CURVE ( 'NONE', #74, #66, #218, .T. ) ;
#205 = ORIENTED_EDGE ( 'NONE', *, *, #151, .F. ) ;
#206 = ORIENTED_EDGE ( 'NONE', *, *, #170, .F. ) ;
#207 = COORDINATED_UNIVERSAL_TIME_OFFSET ( 5, 30, .AHEAD. ) ;
#208 = LINE ( 'NONE', #246, #49 ) ;
#209 = EDGE_LOOP ( 'NONE', ( #433, #403, #142, #140 ) ) ;
#210 = ORIENTED_EDGE ( 'NONE', *, *, #204, .T. ) ;
#211 = PLANE ( 'NONE',  #413 ) ;
#212 = VERTEX_POINT ( 'NONE', #371 ) ;
#213 = AXIS2_PLACEMENT_3D ( 'NONE', #5, #153, #11 ) ;
#214 = VERTEX_POINT ( 'NONE', #176 ) ;
#215 = PLANE ( 'NONE',  #6 ) ;
#216 = ADVANCED_FACE ( 'NONE', ( #325 ), #135, .F. ) ;
#217 = ORIENTED_EDGE ( 'NONE', *, *, #468, .F. ) ;
#218 = LINE ( 'NONE', #22, #172 ) ;
#219 = ORIENTED_EDGE ( 'NONE', *, *, #235, .F. ) ;
#220 = CARTESIAN_POINT ( 'NONE',  ( 4.999999999999990230, 38.50000000000000711, 3.000000000000000000 ) ) ;
#221 = ORIENTED_EDGE ( 'NONE', *, *, #82, .T. ) ;
#222 = FACE_OUTER_BOUND ( 'NONE', #339, .T. ) ;
#223 = VECTOR ( 'NONE', #276, 1000.000000000000000 ) ;
#224 = ORIENTED_EDGE ( 'NONE', *, *, #195, .F. ) ;
#225 = CARTESIAN_POINT ( 'NONE',  ( 5.000000000000009770, -41.49999999999999289, 0.000000000000000000 ) ) ;
#226 = EDGE_CURVE ( 'NONE', #60, #186, #257, .T. ) ;
#227 =( NAMED_UNIT ( * ) PLANE_ANGLE_UNIT ( ) SI_UNIT ( $, .RADIAN. ) );
#228 = CARTESIAN_POINT ( 'NONE',  ( -5.000000000000007994, -38.49999999999999289, 0.000000000000000000 ) ) ;
#229 = CC_DESIGN_PERSON_AND_ORGANIZATION_ASSIGNMENT ( #292, #175, ( #268 ) ) ;
#230 = FACE_OUTER_BOUND ( 'NONE', #320, .T. ) ;
#231 = CARTESIAN_POINT ( 'NONE',  ( 4.999999999999990230, 38.50000000000000711, 0.000000000000000000 ) ) ;
#232 = FACE_OUTER_BOUND ( 'NONE', #341, .T. ) ;
#233 = VECTOR ( 'NONE', #418, 1000.000000000000000 ) ;
#234 = ORGANIZATION ( 'UNSPECIFIED', 'UNSPECIFIED', '' ) ;
#235 = EDGE_CURVE ( 'NONE', #60, #212, #273, .T. ) ;
#236 = LINE ( 'NONE', #81, #488 ) ;
#237 = EDGE_CURVE ( 'NONE', #19, #459, #305, .T. ) ;
#238 = DIRECTION ( 'NONE',  ( -1.000000000000000000, 0.000000000000000000, 0.000000000000000000 ) ) ;
#239 = DIRECTION ( 'NONE',  ( -0.000000000000000000, -0.000000000000000000, -1.000000000000000000 ) ) ;
#240 = PLANE ( 'NONE',  #141 ) ;
#241 = PLANE ( 'NONE',  #39 ) ;
#242 = UNCERTAINTY_MEASURE_WITH_UNIT (LENGTH_MEASURE( 1.000000000000000082E-05 ), #119, 'distance_accuracy_value', 'NONE');
#243 = VERTEX_POINT ( 'NONE', #148 ) ;
#244 = LINE ( 'NONE', #477, #464 ) ;
#245 = VERTEX_POINT ( 'NONE', #458 ) ;
#246 = CARTESIAN_POINT ( 'NONE',  ( 4.999999999999990230, 38.50000000000000711, 3.000000000000000000 ) ) ;
#247 = ORIENTED_EDGE ( 'NONE', *, *, #393, .F. ) ;
#248 = EDGE_CURVE ( 'NONE', #28, #127, #3, .T. ) ;
#249 = ORIENTED_EDGE ( 'NONE', *, *, #33, .F. ) ;
#250 = CARTESIAN_POINT ( 'NONE',  ( -4.999999999999998224, -41.49999999999999289, 3.000000000000000000 ) ) ;
#251 = ORIENTED_EDGE ( 'NONE', *, *, #30, .T. ) ;
#252 = CARTESIAN_POINT ( 'NONE',  ( 4.999999999999990230, -38.49999999999999289, 0.000000000000000000 ) ) ;
#253 = ADVANCED_FACE ( 'NONE', ( #75 ), #380, .F. ) ;
#254 = DIRECTION ( 'NONE',  ( -0.000000000000000000, -0.000000000000000000, -1.000000000000000000 ) ) ;
#255 = VECTOR ( 'NONE', #462, 1000.000000000000000 ) ;
#256 = VERTEX_POINT ( 'NONE', #123 ) ;
#257 = LINE ( 'NONE', #106, #469 ) ;
#258 = ORIENTED_EDGE ( 'NONE', *, *, #82, .F. ) ;
#259 = APPROVAL_STATUS ( 'not_yet_approved' ) ;
#260 = CARTESIAN_POINT ( 'NONE',  ( -5.000000000000008882, 41.50000000000000711, 0.000000000000000000 ) ) ;
#261 = VERTEX_POINT ( 'NONE', #34 ) ;
#262 = DATE_AND_TIME ( #374, #358 ) ;
#263 = CARTESIAN_POINT ( 'NONE',  ( -4.999999999999998224, -41.49999999999999289, 0.000000000000000000 ) ) ;
#264 = ADVANCED_FACE ( 'NONE', ( #83 ), #467, .F. ) ;
#265 = SHAPE_DEFINITION_REPRESENTATION ( #281, #167 ) ;
#266 = CARTESIAN_POINT ( 'NONE',  ( 4.999999999999990230, -38.49999999999999289, 3.000000000000000000 ) ) ;
#267 = AXIS2_PLACEMENT_3D ( 'NONE', #409, #291, #29 ) ;
#268 = PRODUCT_DEFINITION_FORMATION_WITH_SPECIFIED_SOURCE ( 'ANY', '', #13, .NOT_KNOWN. ) ;
#269 = DIRECTION ( 'NONE',  ( -0.000000000000000000, -0.000000000000000000, -1.000000000000000000 ) ) ;
#270 = ORIENTED_EDGE ( 'NONE', *, *, #356, .T. ) ;
#271 = DIRECTION ( 'NONE',  ( 9.011550524554841969E-17, -1.000000000000000000, 0.000000000000000000 ) ) ;
#272 = LINE ( 'NONE', #78, #384 ) ;
#273 = LINE ( 'NONE', #496, #366 ) ;
#274 = CARTESIAN_POINT ( 'NONE',  ( -5.000000000000008882, 41.50000000000000711, 3.000000000000000000 ) ) ;
#275 = CARTESIAN_POINT ( 'NONE',  ( 9.999999999999991118, 38.50000000000000711, 3.000000000000000000 ) ) ;
#276 = DIRECTION ( 'NONE',  ( 9.011550524554841969E-17, -1.000000000000000000, 0.000000000000000000 ) ) ;
#277 = CARTESIAN_POINT ( 'NONE',  ( -10.00000000000000888, 38.50000000000000711, 0.000000000000000000 ) ) ;
#278 = EDGE_CURVE ( 'NONE', #45, #70, #121, .T. ) ;
#279 = VECTOR ( 'NONE', #271, 1000.000000000000000 ) ;
#280 = ORIENTED_EDGE ( 'NONE', *, *, #495, .T. ) ;
#281 = PRODUCT_DEFINITION_SHAPE ( 'NONE', 'NONE',  #51 ) ;
#282 = CC_DESIGN_PERSON_AND_ORGANIZATION_ASSIGNMENT ( #355, #48, ( #51 ) ) ;
#283 = VECTOR ( 'NONE', #110, 1000.000000000000000 ) ;
#284 = FACE_OUTER_BOUND ( 'NONE', #130, .T. ) ;
#285 = ORIENTED_EDGE ( 'NONE', *, *, #463, .T. ) ;
#286 = DIRECTION ( 'NONE',  ( -1.000000000000000000, -0.000000000000000000, -0.000000000000000000 ) ) ;
#287 = CARTESIAN_POINT ( 'NONE',  ( -5.000000000000008882, 41.50000000000000711, 3.000000000000000000 ) ) ;
#288 = ADVANCED_FACE ( 'NONE', ( #42 ), #308, .F. ) ;
#289 = DIRECTION ( 'NONE',  ( 0.000000000000000000, -1.000000000000000000, 0.000000000000000000 ) ) ;
#290 = PERSON_AND_ORGANIZATION ( #44, #234 ) ;
#291 = DIRECTION ( 'NONE',  ( 0.000000000000000000, 0.000000000000000000, -1.000000000000000000 ) ) ;
#292 = PERSON_AND_ORGANIZATION ( #44, #234 ) ;
#293 = PLANE ( 'NONE',  #383 ) ;
#294 = ORIENTED_EDGE ( 'NONE', *, *, #318, .T. ) ;
#295 = DIRECTION ( 'NONE',  ( -0.000000000000000000, -0.000000000000000000, -1.000000000000000000 ) ) ;
#296 = VECTOR ( 'NONE', #69, 1000.000000000000000 ) ;
#297 = ORIENTED_EDGE ( 'NONE', *, *, #401, .T. ) ;
#298 = VECTOR ( 'NONE', #415, 1000.000000000000000 ) ;
#299 = CARTESIAN_POINT ( 'NONE',  ( -5.000000000000007994, -38.49999999999999289, 3.000000000000000000 ) ) ;
#300 = EDGE_CURVE ( 'NONE', #186, #245, #159, .T. ) ;
#301 = MANIFOLD_SOLID_BREP ( 'Boss-Extrude1', #162 ) ;
#302 = CARTESIAN_POINT ( 'NONE',  ( -10.00000000000000888, 38.50000000000000711, 3.000000000000000000 ) ) ;
#303 = APPLICATION_CONTEXT ( 'configuration controlled 3d designs of mechanical parts and assemblies' ) ;
#304 = DIRECTION ( 'NONE',  ( 0.000000000000000000, 0.000000000000000000, 1.000000000000000000 ) ) ;
#305 = LINE ( 'NONE', #231, #456 ) ;
#306 = CARTESIAN_POINT ( 'NONE',  ( 10.00000000000000178, -38.49999999999999289, 3.000000000000000000 ) ) ;
#307 = DIRECTION ( 'NONE',  ( 1.000000000000000000, 0.000000000000000000, 0.000000000000000000 ) ) ;
#308 = PLANE ( 'NONE',  #213 ) ;
#309 = VECTOR ( 'NONE', #143, 1000.000000000000000 ) ;
#310 = CC_DESIGN_APPROVAL ( #314, ( #51 ) ) ;
#311 = LINE ( 'NONE', #40, #72 ) ;
#312 = DIRECTION ( 'NONE',  ( 1.000000000000000000, 0.000000000000000000, 0.000000000000000000 ) ) ;
#313 = EDGE_CURVE ( 'NONE', #360, #317, #354, .T. ) ;
#314 = APPROVAL ( #432, 'UNSPECIFIED' ) ;
#315 = APPLICATION_PROTOCOL_DEFINITION ( 'international standard', 'config_control_design', 1994, #165 ) ;
#316 = APPROVAL_PERSON_ORGANIZATION ( #87, #314, #359 ) ;
#317 = VERTEX_POINT ( 'NONE', #201 ) ;
#318 = EDGE_CURVE ( 'NONE', #212, #261, #421, .T. ) ;
#319 = DIRECTION ( 'NONE',  ( -3.180326372624143053E-15, 1.000000000000000000, 0.000000000000000000 ) ) ;
#320 = EDGE_LOOP ( 'NONE', ( #367, #420, #117, #20 ) ) ;
#321 = ORIENTED_EDGE ( 'NONE', *, *, #378, .T. ) ;
#322 = AXIS2_PLACEMENT_3D ( 'NONE', #105, #439, #324 ) ;
#323 = AXIS2_PLACEMENT_3D ( 'NONE', #348, #425, #304 ) ;
#324 = DIRECTION ( 'NONE',  ( 0.000000000000000000, -0.000000000000000000, -1.000000000000000000 ) ) ;
#325 = FACE_OUTER_BOUND ( 'NONE', #376, .T. ) ;
#326 = CARTESIAN_POINT ( 'NONE',  ( 10.00000000000000178, -38.49999999999999289, 0.000000000000000000 ) ) ;
#327 = PERSON_AND_ORGANIZATION ( #44, #234 ) ;
#328 = DIRECTION ( 'NONE',  ( 0.000000000000000000, 1.000000000000000000, 0.000000000000000000 ) ) ;
#329 = CARTESIAN_POINT ( 'NONE',  ( -5.000000000000008882, 41.50000000000000711, 3.000000000000000000 ) ) ;
#330 = VECTOR ( 'NONE', #442, 1000.000000000000000 ) ;
#331 = LOCAL_TIME ( 9, 46, 9.000000000000000000, #88 ) ;
#332 = CARTESIAN_POINT ( 'NONE',  ( 10.00000000000000178, -38.49999999999999289, 3.000000000000000000 ) ) ;
#333 = ADVANCED_FACE ( 'NONE', ( #232 ), #240, .F. ) ;
#334 = ORIENTED_EDGE ( 'NONE', *, *, #446, .T. ) ;
#335 = DATE_AND_TIME ( #137, #129 ) ;
#336 = DIRECTION ( 'NONE',  ( -0.000000000000000000, -0.000000000000000000, -1.000000000000000000 ) ) ;
#337 = ORIENTED_EDGE ( 'NONE', *, *, #156, .T. ) ;
#338 = CALENDAR_DATE ( 2026, 9, 9 ) ;
#339 = EDGE_LOOP ( 'NONE', ( #249, #166, #437, #247, #440, #52, #379, #470, #25, #417, #132, #224 ) ) ;
#340 = DIRECTION ( 'NONE',  ( 0.000000000000000000, 0.000000000000000000, -1.000000000000000000 ) ) ;
#341 = EDGE_LOOP ( 'NONE', ( #321, #149, #206, #280 ) ) ;
#342 = LINE ( 'NONE', #501, #435 ) ;
#343 = CC_DESIGN_DATE_AND_TIME_ASSIGNMENT ( #492, #441, ( #104 ) ) ;
#344 = FACE_OUTER_BOUND ( 'NONE', #209, .T. ) ;
#345 = CARTESIAN_POINT ( 'NONE',  ( 9.999999999999991118, 38.50000000000000711, 3.000000000000000000 ) ) ;
#346 = DIRECTION ( 'NONE',  ( -0.000000000000000000, -0.000000000000000000, -1.000000000000000000 ) ) ;
#347 = CARTESIAN_POINT ( 'NONE',  ( -10.00000000000000888, 38.50000000000000711, 3.000000000000000000 ) ) ;
#348 = CARTESIAN_POINT ( 'NONE',  ( 4.999999999999990230, 38.50000000000000711, 3.000000000000000000 ) ) ;
#349 = DIRECTION ( 'NONE',  ( -1.000000000000000000, -0.000000000000000000, -0.000000000000000000 ) ) ;
#350 = ADVANCED_FACE ( 'NONE', ( #344 ), #387, .F. ) ;
#351 = APPROVAL_PERSON_ORGANIZATION ( #98, #389, #109 ) ;
#352 = LINE ( 'NONE', #299, #436 ) ;
#353 = ORIENTED_EDGE ( 'NONE', *, *, #235, .T. ) ;
#354 = LINE ( 'NONE', #423, #92 ) ;
#355 = PERSON_AND_ORGANIZATION ( #44, #234 ) ;
#356 = EDGE_CURVE ( 'NONE', #70, #212, #116, .T. ) ;
#357 = AXIS2_PLACEMENT_3D ( 'NONE', #275, #460, #381 ) ;
#358 = LOCAL_TIME ( 9, 46, 9.000000000000000000, #64 ) ;
#359 = APPROVAL_ROLE ( '' ) ;
#360 = VERTEX_POINT ( 'NONE', #306 ) ;
#361 = ORIENTED_EDGE ( 'NONE', *, *, #401, .F. ) ;
#362 = EDGE_LOOP ( 'NONE', ( #146, #472, #221, #453, #285, #251, #90, #474, #168, #434, #297, #76 ) ) ;
#363 = CARTESIAN_POINT ( 'NONE',  ( -5.000000000000008882, 41.50000000000000711, 3.000000000000000000 ) ) ;
#364 = EDGE_CURVE ( 'NONE', #16, #405, #9, .T. ) ;
#365 = VERTEX_POINT ( 'NONE', #193 ) ;
#366 = VECTOR ( 'NONE', #32, 1000.000000000000000 ) ;
#367 = ORIENTED_EDGE ( 'NONE', *, *, #237, .T. ) ;
#368 = CARTESIAN_POINT ( 'NONE',  ( -4.999999999999998224, -41.49999999999999289, 3.000000000000000000 ) ) ;
#369 = ORIENTED_EDGE ( 'NONE', *, *, #300, .F. ) ;
#370 = SECURITY_CLASSIFICATION_LEVEL ( 'unclassified' ) ;
#371 = CARTESIAN_POINT ( 'NONE',  ( -10.00000000000000178, -38.49999999999999289, 0.000000000000000000 ) ) ;
#372 = CARTESIAN_POINT ( 'NONE',  ( 4.999999999999990230, -38.49999999999999289, 0.000000000000000000 ) ) ;
#373 = EDGE_CURVE ( 'NONE', #100, #256, #391, .T. ) ;
#374 = CALENDAR_DATE ( 2026, 9, 9 ) ;
#375 = DIRECTION ( 'NONE',  ( 2.891205793294675861E-16, -1.000000000000000000, 0.000000000000000000 ) ) ;
#376 = EDGE_LOOP ( 'NONE', ( #182, #410, #258, #164 ) ) ;
#377 = VECTOR ( 'NONE', #484, 1000.000000000000000 ) ;
#378 = EDGE_CURVE ( 'NONE', #66, #127, #236, .T. ) ;
#379 = ORIENTED_EDGE ( 'NONE', *, *, #278, .F. ) ;
#380 = PLANE ( 'NONE',  #71 ) ;
#381 = DIRECTION ( 'NONE',  ( 1.351732578683226234E-16, -1.000000000000000000, 0.000000000000000000 ) ) ;
#382 = CARTESIAN_POINT ( 'NONE',  ( 5.000000000000009770, -41.49999999999999289, 3.000000000000000000 ) ) ;
#383 = AXIS2_PLACEMENT_3D ( 'NONE', #266, #328, #414 ) ;
#384 = VECTOR ( 'NONE', #158, 1000.000000000000000 ) ;
#385 = DIRECTION ( 'NONE',  ( 3.180326372624143447E-15, -1.000000000000000000, 0.000000000000000000 ) ) ;
#386 = LINE ( 'NONE', #10, #489 ) ;
#387 = PLANE ( 'NONE',  #357 ) ;
#388 = DIRECTION ( 'NONE',  ( -0.000000000000000000, -0.000000000000000000, -1.000000000000000000 ) ) ;
#389 = APPROVAL ( #259, 'UNSPECIFIED' ) ;
#390 = VECTOR ( 'NONE', #375, 1000.000000000000000 ) ;
#391 = LINE ( 'NONE', #80, #233 ) ;
#392 = CALENDAR_DATE ( 2026, 9, 9 ) ;
#393 = EDGE_CURVE ( 'NONE', #261, #74, #198, .T. ) ;
#394 = DATE_AND_TIME ( #392, #331 ) ;
#395 = VECTOR ( 'NONE', #269, 1000.000000000000000 ) ;
#396 = DIRECTION ( 'NONE',  ( 0.000000000000000000, 1.000000000000000000, 0.000000000000000000 ) ) ;
#397 = VECTOR ( 'NONE', #388, 1000.000000000000000 ) ;
#398 = EDGE_LOOP ( 'NONE', ( #270, #219, #412, #136 ) ) ;
#399 = PLANE ( 'NONE',  #322 ) ;
#400 = ORIENTED_EDGE ( 'NONE', *, *, #131, .T. ) ;
#401 = EDGE_CURVE ( 'NONE', #245, #494, #342, .T. ) ;
#402 = DIRECTION ( 'NONE',  ( 0.000000000000000000, -0.000000000000000000, 1.000000000000000000 ) ) ;
#403 = ORIENTED_EDGE ( 'NONE', *, *, #35, .F. ) ;
#404 = DIRECTION ( 'NONE',  ( 0.000000000000000000, 1.000000000000000000, 0.000000000000000000 ) ) ;
#405 = VERTEX_POINT ( 'NONE', #155 ) ;
#406 = VECTOR ( 'NONE', #89, 1000.000000000000000 ) ;
#407 = LINE ( 'NONE', #480, #194 ) ;
#408 = LINE ( 'NONE', #372, #199 ) ;
#409 = CARTESIAN_POINT ( 'NONE',  ( 0.000000000000000000, 0.000000000000000000, 0.000000000000000000 ) ) ;
#410 = ORIENTED_EDGE ( 'NONE', *, *, #43, .F. ) ;
#411 = CARTESIAN_POINT ( 'NONE',  ( -10.00000000000000178, -38.49999999999999289, 3.000000000000000000 ) ) ;
#412 = ORIENTED_EDGE ( 'NONE', *, *, #424, .F. ) ;
#413 = AXIS2_PLACEMENT_3D ( 'NONE', #363, #124, #429 ) ;
#414 = DIRECTION ( 'NONE',  ( 0.000000000000000000, -0.000000000000000000, 1.000000000000000000 ) ) ;
#415 = DIRECTION ( 'NONE',  ( 1.000000000000000000, 0.000000000000000000, 0.000000000000000000 ) ) ;
#416 = DIRECTION ( 'NONE',  ( 1.000000000000000000, 0.000000000000000000, 0.000000000000000000 ) ) ;
#417 = ORIENTED_EDGE ( 'NONE', *, *, #237, .F. ) ;
#418 = DIRECTION ( 'NONE',  ( 0.000000000000000000, 1.000000000000000000, 0.000000000000000000 ) ) ;
#419 = CARTESIAN_POINT ( 'NONE',  ( 4.999999999999990230, 41.50000000000000711, 0.000000000000000000 ) ) ;
#420 = ORIENTED_EDGE ( 'NONE', *, *, #156, .F. ) ;
#421 = LINE ( 'NONE', #36, #498 ) ;
#422 = AXIS2_PLACEMENT_3D ( 'NONE', #250, #396, #402 ) ;
#423 = CARTESIAN_POINT ( 'NONE',  ( 9.999999999999991118, 38.50000000000000711, 3.000000000000000000 ) ) ;
#424 = EDGE_CURVE ( 'NONE', #243, #60, #197, .T. ) ;
#425 = DIRECTION ( 'NONE',  ( -1.000000000000000000, 0.000000000000000000, 0.000000000000000000 ) ) ;
#426 = DIRECTION ( 'NONE',  ( -1.000000000000000000, 0.000000000000000000, -0.000000000000000000 ) ) ;
#427 = DIRECTION ( 'NONE',  ( -1.000000000000000000, -6.360652745248286106E-15, 0.000000000000000000 ) ) ;
#428 = VECTOR ( 'NONE', #349, 1000.000000000000000 ) ;
#429 = DIRECTION ( 'NONE',  ( -2.891205793294675861E-16, 1.000000000000000000, 0.000000000000000000 ) ) ;
#430 = ORIENTED_EDGE ( 'NONE', *, *, #393, .T. ) ;
#431 = ORIENTED_EDGE ( 'NONE', *, *, #438, .T. ) ;
#432 = APPROVAL_STATUS ( 'not_yet_approved' ) ;
#433 = ORIENTED_EDGE ( 'NONE', *, *, #195, .T. ) ;
#434 = ORIENTED_EDGE ( 'NONE', *, *, #300, .T. ) ;
#435 = VECTOR ( 'NONE', #152, 1000.000000000000000 ) ;
#436 = VECTOR ( 'NONE', #346, 1000.000000000000000 ) ;
#437 = ORIENTED_EDGE ( 'NONE', *, *, #204, .F. ) ;
#438 = EDGE_CURVE ( 'NONE', #459, #405, #311, .T. ) ;
#439 = DIRECTION ( 'NONE',  ( 0.000000000000000000, -1.000000000000000000, 0.000000000000000000 ) ) ;
#440 = ORIENTED_EDGE ( 'NONE', *, *, #318, .F. ) ;
#441 = DATE_TIME_ROLE ( 'classification_date' ) ;
#442 = DIRECTION ( 'NONE',  ( -1.351732578683226234E-16, 1.000000000000000000, -0.000000000000000000 ) ) ;
#443 = EDGE_LOOP ( 'NONE', ( #47, #94, #59, #192 ) ) ;
#444 = COORDINATED_UNIVERSAL_TIME_OFFSET ( 5, 30, .AHEAD. ) ;
#445 = DIRECTION ( 'NONE',  ( 0.000000000000000000, -0.000000000000000000, -1.000000000000000000 ) ) ;
#446 = EDGE_CURVE ( 'NONE', #186, #261, #352, .T. ) ;
#447 = EDGE_LOOP ( 'NONE', ( #210, #101, #361, #400 ) ) ;
#448 = VECTOR ( 'NONE', #239, 1000.000000000000000 ) ;
#449 = CALENDAR_DATE ( 2026, 9, 9 ) ;
#450 = DIRECTION ( 'NONE',  ( -0.000000000000000000, -0.000000000000000000, -1.000000000000000000 ) ) ;
#451 = EDGE_CURVE ( 'NONE', #214, #243, #272, .T. ) ;
#452 = APPROVAL_DATE_TIME ( #335, #63 ) ;
#453 = ORIENTED_EDGE ( 'NONE', *, *, #373, .T. ) ;
#454 = APPROVAL_ROLE ( '' ) ;
#455 = CARTESIAN_POINT ( 'NONE',  ( 4.999999999999990230, 38.50000000000000711, 3.000000000000000000 ) ) ;
#456 = VECTOR ( 'NONE', #499, 1000.000000000000000 ) ;
#457 = ADVANCED_FACE ( 'NONE', ( #230 ), #1, .F. ) ;
#458 = CARTESIAN_POINT ( 'NONE',  ( -4.999999999999998224, -41.49999999999999289, 3.000000000000000000 ) ) ;
#459 = VERTEX_POINT ( 'NONE', #419 ) ;
#460 = DIRECTION ( 'NONE',  ( -1.000000000000000000, -1.351732578683226234E-16, 0.000000000000000000 ) ) ;
#461 = CARTESIAN_POINT ( 'NONE',  ( -10.00000000000000888, 38.50000000000000711, 0.000000000000000000 ) ) ;
#462 = DIRECTION ( 'NONE',  ( 3.180326372624143447E-15, -1.000000000000000000, 0.000000000000000000 ) ) ;
#463 = EDGE_CURVE ( 'NONE', #256, #16, #386, .T. ) ;
#464 = VECTOR ( 'NONE', #254, 1000.000000000000000 ) ;
#465 = DIRECTION ( 'NONE',  ( 0.000000000000000000, -0.000000000000000000, -1.000000000000000000 ) ) ;
#466 = CARTESIAN_POINT ( 'NONE',  ( 5.000000000000009770, -41.49999999999999289, 3.000000000000000000 ) ) ;
#467 = PLANE ( 'NONE',  #183 ) ;
#468 = EDGE_CURVE ( 'NONE', #28, #360, #200, .T. ) ;
#469 = VECTOR ( 'NONE', #416, 1000.000000000000000 ) ;
#470 = ORIENTED_EDGE ( 'NONE', *, *, #107, .F. ) ;
#471 = CARTESIAN_POINT ( 'NONE',  ( -10.00000000000000178, -38.49999999999999289, 3.000000000000000000 ) ) ;
#472 = ORIENTED_EDGE ( 'NONE', *, *, #313, .T. ) ;
#473 = DESIGN_CONTEXT ( 'detailed design', #165, 'design' ) ;
#474 = ORIENTED_EDGE ( 'NONE', *, *, #424, .T. ) ;
#475 = CARTESIAN_POINT ( 'NONE',  ( -5.000000000000007994, 38.50000000000000711, 0.000000000000000000 ) ) ;
#476 = CC_DESIGN_APPROVAL ( #63, ( #268 ) ) ;
#477 = CARTESIAN_POINT ( 'NONE',  ( -5.000000000000007994, 38.50000000000000711, 3.000000000000000000 ) ) ;
#478 = CC_DESIGN_PERSON_AND_ORGANIZATION_ASSIGNMENT ( #327, #68, ( #104 ) ) ;
#479 = PERSON_AND_ORGANIZATION ( #44, #234 ) ;
#480 = CARTESIAN_POINT ( 'NONE',  ( -10.00000000000000888, 38.50000000000000711, 3.000000000000000000 ) ) ;
#481 = EDGE_LOOP ( 'NONE', ( #95, #205, #500, #91 ) ) ;
#482 = APPROVAL_STATUS ( 'not_yet_approved' ) ;
#483 = LINE ( 'NONE', #220, #296 ) ;
#484 = DIRECTION ( 'NONE',  ( 2.891205793294675861E-16, -1.000000000000000000, 0.000000000000000000 ) ) ;
#485 = CC_DESIGN_PERSON_AND_ORGANIZATION_ASSIGNMENT ( #290, #147, ( #268 ) ) ;
#486 = LINE ( 'NONE', #491, #112 ) ;
#487 = LINE ( 'NONE', #345, #406 ) ;
#488 = VECTOR ( 'NONE', #38, 1000.000000000000000 ) ;
#489 = VECTOR ( 'NONE', #7, 1000.000000000000000 ) ;
#490 = DATE_TIME_ROLE ( 'creation_date' ) ;
#491 = CARTESIAN_POINT ( 'NONE',  ( 4.999999999999990230, 41.50000000000000711, 3.000000000000000000 ) ) ;
#492 = DATE_AND_TIME ( #449, #184 ) ;
#493 = LINE ( 'NONE', #181, #150 ) ;
#494 = VERTEX_POINT ( 'NONE', #466 ) ;
#495 = EDGE_CURVE ( 'NONE', #494, #66, #122, .T. ) ;
#496 = CARTESIAN_POINT ( 'NONE',  ( -10.00000000000000178, -38.49999999999999289, 3.000000000000000000 ) ) ;
#497 = ORIENTED_EDGE ( 'NONE', *, *, #226, .F. ) ;
#498 = VECTOR ( 'NONE', #312, 1000.000000000000000 ) ;
#499 = DIRECTION ( 'NONE',  ( 0.000000000000000000, 1.000000000000000000, 0.000000000000000000 ) ) ;
#500 = ORIENTED_EDGE ( 'NONE', *, *, #451, .F. ) ;
#501 = CARTESIAN_POINT ( 'NONE',  ( -4.999999999999998224, -41.49999999999999289, 3.000000000000000000 ) ) ;
ENDSEC;
END-ISO-10303-21;
