ISO-10303-21;
HEADER;
FILE_DESCRIPTION (( 'STEP AP203' ),
    '1' );
FILE_NAME ('SlidingSheet_Default_sldprt.STEP',
    '2026-09-09T04:16:13',
    ( '' ),
    ( '' ),
    'SwSTEP 2.0',
    'SolidWorks 2020',
    '' );
FILE_SCHEMA (( 'CONFIG_CONTROL_DESIGN' ));
ENDSEC;

DATA;
#1 = SHAPE_DEFINITION_REPRESENTATION ( #11, #64 ) ;
#2 = FACE_OUTER_BOUND ( 'NONE', #140, .T. ) ;
#3 = EDGE_CURVE ( 'NONE', #95, #59, #314, .T. ) ;
#4 = CARTESIAN_POINT ( 'NONE',  ( 0.000000000000000000, 0.000000000000000000, 3.000000000000000000 ) ) ;
#5 = CARTESIAN_POINT ( 'NONE',  ( -14.12000000000000455, 49.99999999999999289, 3.000000000000000000 ) ) ;
#6 = VECTOR ( 'NONE', #71, 1000.000000000000000 ) ;
#7 = LINE ( 'NONE', #249, #38 ) ;
#8 = DIRECTION ( 'NONE',  ( -0.000000000000000000, -0.000000000000000000, -1.000000000000000000 ) ) ;
#9 = EDGE_CURVE ( 'NONE', #243, #335, #112, .T. ) ;
#10 = CC_DESIGN_PERSON_AND_ORGANIZATION_ASSIGNMENT ( #56, #323, ( #376 ) ) ;
#11 = PRODUCT_DEFINITION_SHAPE ( 'NONE', 'NONE',  #23 ) ;
#12 = CIRCLE ( 'NONE', #45, 2.500000000000000444 ) ;
#13 = LINE ( 'NONE', #142, #19 ) ;
#14 = ORIENTED_EDGE ( 'NONE', *, *, #290, .T. ) ;
#15 = CARTESIAN_POINT ( 'NONE',  ( -11.62000000000000277, 45.00000000000000000, 0.000000000000000000 ) ) ;
#16 = ORIENTED_EDGE ( 'NONE', *, *, #248, .F. ) ;
#17 = CC_DESIGN_APPROVAL ( #87, ( #23 ) ) ;
#18 = PRODUCT ( 'SlidingSheet_Default_sldprt', 'SlidingSheet_Default_sldprt', '', ( #241 ) ) ;
#19 = VECTOR ( 'NONE', #265, 1000.000000000000000 ) ;
#20 = FACE_OUTER_BOUND ( 'NONE', #333, .T. ) ;
#21 = PERSON_AND_ORGANIZATION ( #282, #76 ) ;
#22 = CYLINDRICAL_SURFACE ( 'NONE', #195, 2.500000000000000444 ) ;
#23 = PRODUCT_DEFINITION ( 'UNKNOWN', '', #297, #91 ) ;
#24 = ORIENTED_EDGE ( 'NONE', *, *, #348, .T. ) ;
#25 = DIRECTION ( 'NONE',  ( 0.000000000000000000, -0.000000000000000000, 1.000000000000000000 ) ) ;
#26 = APPROVAL_STATUS ( 'not_yet_approved' ) ;
#27 = ORIENTED_EDGE ( 'NONE', *, *, #61, .F. ) ;
#28 = AXIS2_PLACEMENT_3D ( 'NONE', #4, #359, #34 ) ;
#29 = PERSON_AND_ORGANIZATION ( #282, #76 ) ;
#30 = ORIENTED_EDGE ( 'NONE', *, *, #189, .T. ) ;
#31 = EDGE_LOOP ( 'NONE', ( #174, #63, #152, #299 ) ) ;
#32 = CC_DESIGN_PERSON_AND_ORGANIZATION_ASSIGNMENT ( #21, #292, ( #297 ) ) ;
#33 = ORIENTED_EDGE ( 'NONE', *, *, #119, .F. ) ;
#34 = DIRECTION ( 'NONE',  ( 1.000000000000000000, 0.000000000000000000, 0.000000000000000000 ) ) ;
#35 = AXIS2_PLACEMENT_3D ( 'NONE', #274, #166, #163 ) ;
#36 = CARTESIAN_POINT ( 'NONE',  ( -14.11999999999999389, -39.99999999999999289, 3.000000000000000000 ) ) ;
#37 = DIRECTION ( 'NONE',  ( -0.000000000000000000, -0.000000000000000000, -1.000000000000000000 ) ) ;
#38 = VECTOR ( 'NONE', #304, 1000.000000000000000 ) ;
#39 = EDGE_CURVE ( 'NONE', #121, #44, #96, .T. ) ;
#40 = DIRECTION ( 'NONE',  ( 0.000000000000000000, 0.000000000000000000, -1.000000000000000000 ) ) ;
#41 = APPROVAL ( #26, 'UNSPECIFIED' ) ;
#42 = ORIENTED_EDGE ( 'NONE', *, *, #119, .T. ) ;
#43 = EDGE_CURVE ( 'NONE', #300, #77, #179, .T. ) ;
#44 = VERTEX_POINT ( 'NONE', #211 ) ;
#45 = AXIS2_PLACEMENT_3D ( 'NONE', #369, #115, #286 ) ;
#46 = DIRECTION ( 'NONE',  ( -1.000000000000000000, 0.000000000000000000, 0.000000000000000000 ) ) ;
#47 = CARTESIAN_POINT ( 'NONE',  ( -9.120000000000002771, 45.00000000000000000, 3.000000000000000000 ) ) ;
#48 = PLANE ( 'NONE',  #368 ) ;
#49 = LINE ( 'NONE', #75, #255 ) ;
#50 = CARTESIAN_POINT ( 'NONE',  ( 14.11999999999999744, 39.99999999999999289, 3.000000000000000000 ) ) ;
#51 = DATE_AND_TIME ( #315, #316 ) ;
#52 = LINE ( 'NONE', #313, #68 ) ;
#53 = DIRECTION ( 'NONE',  ( 1.000000000000000000, 0.000000000000000000, 0.000000000000000000 ) ) ;
#54 = APPROVAL_ROLE ( '' ) ;
#55 = CARTESIAN_POINT ( 'NONE',  ( 0.000000000000000000, 0.000000000000000000, 0.000000000000000000 ) ) ;
#56 = PERSON_AND_ORGANIZATION ( #282, #76 ) ;
#57 = ORIENTED_EDGE ( 'NONE', *, *, #93, .F. ) ;
#58 = DIRECTION ( 'NONE',  ( 1.000000000000000000, 0.000000000000000000, 0.000000000000000000 ) ) ;
#59 = VERTEX_POINT ( 'NONE', #79 ) ;
#60 = AXIS2_PLACEMENT_3D ( 'NONE', #55, #285, #148 ) ;
#61 = EDGE_CURVE ( 'NONE', #362, #381, #238, .T. ) ;
#62 = COORDINATED_UNIVERSAL_TIME_OFFSET ( 5, 30, .AHEAD. ) ;
#63 = ORIENTED_EDGE ( 'NONE', *, *, #220, .F. ) ;
#64 = ADVANCED_BREP_SHAPE_REPRESENTATION ( 'SlidingSheet_Default_sldprt', ( #135, #108 ), #307 ) ;
#65 = ORIENTED_EDGE ( 'NONE', *, *, #3, .F. ) ;
#66 = DIRECTION ( 'NONE',  ( -1.000000000000000000, 0.000000000000000000, 0.000000000000000000 ) ) ;
#67 = DIRECTION ( 'NONE',  ( -1.000000000000000000, -1.301042606982605567E-16, 0.000000000000000000 ) ) ;
#68 = VECTOR ( 'NONE', #176, 1000.000000000000000 ) ;
#69 = FACE_OUTER_BOUND ( 'NONE', #141, .T. ) ;
#70 = CARTESIAN_POINT ( 'NONE',  ( 6.620000000000002771, 45.00000000000000000, 3.001000000000000334 ) ) ;
#71 = DIRECTION ( 'NONE',  ( -0.000000000000000000, -0.000000000000000000, -1.000000000000000000 ) ) ;
#72 = VECTOR ( 'NONE', #37, 1000.000000000000000 ) ;
#73 = DIRECTION ( 'NONE',  ( -0.000000000000000000, -0.000000000000000000, -1.000000000000000000 ) ) ;
#74 = EDGE_CURVE ( 'NONE', #157, #99, #263, .T. ) ;
#75 = CARTESIAN_POINT ( 'NONE',  ( 11.62000000000000277, 45.00000000000000000, 3.001000000000000334 ) ) ;
#76 = ORGANIZATION ( 'UNSPECIFIED', 'UNSPECIFIED', '' ) ;
#77 = VERTEX_POINT ( 'NONE', #346 ) ;
#78 = AXIS2_PLACEMENT_3D ( 'NONE', #100, #329, #66 ) ;
#79 = CARTESIAN_POINT ( 'NONE',  ( 14.11999999999999744, 49.99999999999999289, 3.000000000000000000 ) ) ;
#80 = ORIENTED_EDGE ( 'NONE', *, *, #178, .F. ) ;
#81 = CARTESIAN_POINT ( 'NONE',  ( -11.62000000000000277, 45.00000000000000000, 3.001000000000000334 ) ) ;
#82 = ADVANCED_FACE ( 'NONE', ( #113, #317, #260 ), #90, .F. ) ;
#83 = EDGE_LOOP ( 'NONE', ( #33, #186, #24, #242 ) ) ;
#84 = APPROVAL_ROLE ( '' ) ;
#85 = CARTESIAN_POINT ( 'NONE',  ( -6.620000000000002771, 45.00000000000000000, 3.001000000000000334 ) ) ;
#86 = CARTESIAN_POINT ( 'NONE',  ( 9.120000000000002771, 45.00000000000000000, 0.000000000000000000 ) ) ;
#87 = APPROVAL ( #350, 'UNSPECIFIED' ) ;
#88 = APPLICATION_PROTOCOL_DEFINITION ( 'international standard', 'config_control_design', 1994, #193 ) ;
#89 = AXIS2_PLACEMENT_3D ( 'NONE', #293, #377, #46 ) ;
#90 = PLANE ( 'NONE',  #60 ) ;
#91 = DESIGN_CONTEXT ( 'detailed design', #193, 'design' ) ;
#92 = PERSON_AND_ORGANIZATION_ROLE ( 'creator' ) ;
#93 = EDGE_CURVE ( 'NONE', #300, #157, #278, .T. ) ;
#94 = PERSON_AND_ORGANIZATION ( #282, #76 ) ;
#95 = VERTEX_POINT ( 'NONE', #308 ) ;
#96 = CIRCLE ( 'NONE', #165, 2.500000000000000444 ) ;
#97 = CARTESIAN_POINT ( 'NONE',  ( -14.11999999999999389, -39.99999999999999289, 0.000000000000000000 ) ) ;
#98 = EDGE_CURVE ( 'NONE', #381, #202, #52, .T. ) ;
#99 = VERTEX_POINT ( 'NONE', #15 ) ;
#100 = CARTESIAN_POINT ( 'NONE',  ( -9.120000000000002771, 45.00000000000000000, 3.001000000000000334 ) ) ;
#101 = AXIS2_PLACEMENT_3D ( 'NONE', #339, #336, #311 ) ;
#102 = CARTESIAN_POINT ( 'NONE',  ( 9.120000000000002771, 45.00000000000000000, 3.000000000000000000 ) ) ;
#103 = LINE ( 'NONE', #228, #137 ) ;
#104 = CC_DESIGN_DATE_AND_TIME_ASSIGNMENT ( #379, #289, ( #23 ) ) ;
#105 = CYLINDRICAL_SURFACE ( 'NONE', #233, 2.500000000000000444 ) ;
#106 = APPROVAL_PERSON_ORGANIZATION ( #29, #87, #54 ) ;
#107 = APPLICATION_CONTEXT ( 'configuration controlled 3d designs of mechanical parts and assemblies' ) ;
#108 = AXIS2_PLACEMENT_3D ( 'NONE', #345, #151, #58 ) ;
#109 = CARTESIAN_POINT ( 'NONE',  ( 9.120000000000002771, 45.00000000000000000, 3.001000000000000334 ) ) ;
#110 = ADVANCED_FACE ( 'NONE', ( #291 ), #22, .F. ) ;
#111 = DIRECTION ( 'NONE',  ( -0.000000000000000000, -0.000000000000000000, -1.000000000000000000 ) ) ;
#112 = CIRCLE ( 'NONE', #328, 2.500000000000000444 ) ;
#113 = FACE_BOUND ( 'NONE', #301, .T. ) ;
#114 = ORIENTED_EDGE ( 'NONE', *, *, #161, .F. ) ;
#115 = DIRECTION ( 'NONE',  ( -0.000000000000000000, -0.000000000000000000, 1.000000000000000000 ) ) ;
#116 = CC_DESIGN_DATE_AND_TIME_ASSIGNMENT ( #185, #370, ( #376 ) ) ;
#117 =( NAMED_UNIT ( * ) PLANE_ANGLE_UNIT ( ) SI_UNIT ( $, .RADIAN. ) );
#118 = DIRECTION ( 'NONE',  ( -0.000000000000000000, -0.000000000000000000, -1.000000000000000000 ) ) ;
#119 = EDGE_CURVE ( 'NONE', #335, #44, #49, .T. ) ;
#120 = APPROVAL_STATUS ( 'not_yet_approved' ) ;
#121 = VERTEX_POINT ( 'NONE', #183 ) ;
#122 = VECTOR ( 'NONE', #235, 1000.000000000000000 ) ;
#123 = CARTESIAN_POINT ( 'NONE',  ( -9.120000000000002771, 45.00000000000000000, 3.000000000000000000 ) ) ;
#124 = PERSON_AND_ORGANIZATION ( #282, #76 ) ;
#125 = EDGE_CURVE ( 'NONE', #99, #77, #378, .T. ) ;
#126 = DATE_AND_TIME ( #210, #199 ) ;
#127 = ORIENTED_EDGE ( 'NONE', *, *, #93, .T. ) ;
#128 = ORIENTED_EDGE ( 'NONE', *, *, #248, .T. ) ;
#129 = LOCAL_TIME ( 9, 46, 13.00000000000000000, #62 ) ;
#130 = VECTOR ( 'NONE', #305, 1000.000000000000000 ) ;
#131 = CC_DESIGN_PERSON_AND_ORGANIZATION_ASSIGNMENT ( #94, #237, ( #297 ) ) ;
#132 = DIRECTION ( 'NONE',  ( 1.000000000000000000, 0.000000000000000000, 0.000000000000000000 ) ) ;
#133 = LINE ( 'NONE', #275, #287 ) ;
#134 = DIRECTION ( 'NONE',  ( -0.000000000000000000, 1.000000000000000000, 0.000000000000000000 ) ) ;
#135 = MANIFOLD_SOLID_BREP ( 'Mirror1', #352 ) ;
#136 = LINE ( 'NONE', #253, #298 ) ;
#137 = VECTOR ( 'NONE', #40, 1000.000000000000000 ) ;
#138 = PLANE ( 'NONE',  #261 ) ;
#139 = CARTESIAN_POINT ( 'NONE',  ( -14.12000000000000455, 49.99999999999999289, 3.000000000000000000 ) ) ;
#140 = EDGE_LOOP ( 'NONE', ( #324, #207, #382, #269 ) ) ;
#141 = EDGE_LOOP ( 'NONE', ( #14, #353, #65, #257 ) ) ;
#142 = CARTESIAN_POINT ( 'NONE',  ( -14.12000000000000455, 39.99999999999999289, 3.000000000000000000 ) ) ;
#143 = CARTESIAN_POINT ( 'NONE',  ( -14.12000000000000455, 39.99999999999999289, 3.000000000000000000 ) ) ;
#144 = DIRECTION ( 'NONE',  ( -1.000000000000000000, 0.000000000000000000, 0.000000000000000000 ) ) ;
#145 = AXIS2_PLACEMENT_3D ( 'NONE', #262, #206, #25 ) ;
#146 = CALENDAR_DATE ( 2026, 9, 9 ) ;
#147 = ADVANCED_FACE ( 'NONE', ( #283 ), #232, .F. ) ;
#148 = DIRECTION ( 'NONE',  ( 1.000000000000000000, 0.000000000000000000, 0.000000000000000000 ) ) ;
#149 = SECURITY_CLASSIFICATION_LEVEL ( 'unclassified' ) ;
#150 = CARTESIAN_POINT ( 'NONE',  ( -14.12000000000000455, 49.99999999999999289, 3.000000000000000000 ) ) ;
#151 = DIRECTION ( 'NONE',  ( 0.000000000000000000, 0.000000000000000000, 1.000000000000000000 ) ) ;
#152 = ORIENTED_EDGE ( 'NONE', *, *, #98, .F. ) ;
#153 = CARTESIAN_POINT ( 'NONE',  ( -11.62000000000000277, 45.00000000000000000, 3.000000000000000000 ) ) ;
#154 = EDGE_CURVE ( 'NONE', #44, #121, #12, .T. ) ;
#155 = APPROVAL_PERSON_ORGANIZATION ( #219, #239, #268 ) ;
#156 = PERSON_AND_ORGANIZATION_ROLE ( 'design_owner' ) ;
#157 = VERTEX_POINT ( 'NONE', #153 ) ;
#158 = COORDINATED_UNIVERSAL_TIME_OFFSET ( 5, 30, .AHEAD. ) ;
#159 = ORIENTED_EDGE ( 'NONE', *, *, #125, .F. ) ;
#160 = EDGE_LOOP ( 'NONE', ( #272, #127 ) ) ;
#161 = EDGE_CURVE ( 'NONE', #362, #267, #13, .T. ) ;
#162 = ORIENTED_EDGE ( 'NONE', *, *, #189, .F. ) ;
#163 = DIRECTION ( 'NONE',  ( -1.000000000000000000, 0.000000000000000000, 0.000000000000000000 ) ) ;
#164 = PRODUCT_RELATED_PRODUCT_CATEGORY ( 'detail', '', ( #18 ) ) ;
#165 = AXIS2_PLACEMENT_3D ( 'NONE', #86, #181, #341 ) ;
#166 = DIRECTION ( 'NONE',  ( 0.000000000000000000, 0.000000000000000000, -1.000000000000000000 ) ) ;
#167 = ADVANCED_FACE ( 'NONE', ( #20 ), #371, .F. ) ;
#168 = CARTESIAN_POINT ( 'NONE',  ( -14.11999999999999389, -39.99999999999999289, 0.000000000000000000 ) ) ;
#169 = APPROVAL_PERSON_ORGANIZATION ( #295, #41, #84 ) ;
#170 = VECTOR ( 'NONE', #373, 1000.000000000000000 ) ;
#171 = LINE ( 'NONE', #280, #252 ) ;
#172 = DIRECTION ( 'NONE',  ( -1.000000000000000000, 0.000000000000000000, 0.000000000000000000 ) ) ;
#173 = ORIENTED_EDGE ( 'NONE', *, *, #256, .F. ) ;
#174 = ORIENTED_EDGE ( 'NONE', *, *, #290, .F. ) ;
#175 =( LENGTH_UNIT ( ) NAMED_UNIT ( * ) SI_UNIT ( .MILLI., .METRE. ) );
#176 = DIRECTION ( 'NONE',  ( 1.301042606982605567E-16, -1.000000000000000000, 0.000000000000000000 ) ) ;
#177 = EDGE_LOOP ( 'NONE', ( #322, #42, #321, #187 ) ) ;
#178 = EDGE_CURVE ( 'NONE', #157, #300, #309, .T. ) ;
#179 = LINE ( 'NONE', #85, #246 ) ;
#180 = DIRECTION ( 'NONE',  ( -1.301042606982605567E-16, 1.000000000000000000, -0.000000000000000000 ) ) ;
#181 = DIRECTION ( 'NONE',  ( -0.000000000000000000, -0.000000000000000000, 1.000000000000000000 ) ) ;
#182 = APPROVAL_DATE_TIME ( #244, #239 ) ;
#183 = CARTESIAN_POINT ( 'NONE',  ( 6.620000000000002771, 45.00000000000000000, 0.000000000000000000 ) ) ;
#184 = ADVANCED_FACE ( 'NONE', ( #223 ), #276, .T. ) ;
#185 = DATE_AND_TIME ( #146, #129 ) ;
#186 = ORIENTED_EDGE ( 'NONE', *, *, #303, .T. ) ;
#187 = ORIENTED_EDGE ( 'NONE', *, *, #348, .F. ) ;
#188 = AXIS2_PLACEMENT_3D ( 'NONE', #102, #225, #385 ) ;
#189 = EDGE_CURVE ( 'NONE', #267, #202, #227, .T. ) ;
#190 =( NAMED_UNIT ( * ) SI_UNIT ( $, .STERADIAN. ) SOLID_ANGLE_UNIT ( ) );
#191 = ORIENTED_EDGE ( 'NONE', *, *, #125, .T. ) ;
#192 = CYLINDRICAL_SURFACE ( 'NONE', #78, 2.500000000000000444 ) ;
#193 = APPLICATION_CONTEXT ( 'configuration controlled 3d designs of mechanical parts and assemblies' ) ;
#194 = CARTESIAN_POINT ( 'NONE',  ( 14.12000000000000810, -39.99999999999999289, 0.000000000000000000 ) ) ;
#195 = AXIS2_PLACEMENT_3D ( 'NONE', #319, #364, #144 ) ;
#196 = DIRECTION ( 'NONE',  ( 1.301042606982605567E-16, -1.000000000000000000, 0.000000000000000000 ) ) ;
#197 = CARTESIAN_POINT ( 'NONE',  ( 14.11999999999999744, 49.99999999999999289, 0.000000000000000000 ) ) ;
#198 = CARTESIAN_POINT ( 'NONE',  ( 6.620000000000002771, 45.00000000000000000, 3.000000000000000000 ) ) ;
#199 = LOCAL_TIME ( 9, 46, 13.00000000000000000, #343 ) ;
#200 = VECTOR ( 'NONE', #180, 1000.000000000000000 ) ;
#201 = DIRECTION ( 'NONE',  ( -1.301042606982605567E-16, 1.000000000000000000, 0.000000000000000000 ) ) ;
#202 = VERTEX_POINT ( 'NONE', #168 ) ;
#203 = DIRECTION ( 'NONE',  ( 0.000000000000000000, -0.000000000000000000, -1.000000000000000000 ) ) ;
#204 = ORIENTED_EDGE ( 'NONE', *, *, #9, .F. ) ;
#205 = FACE_OUTER_BOUND ( 'NONE', #355, .T. ) ;
#206 = DIRECTION ( 'NONE',  ( 0.000000000000000000, 1.000000000000000000, 0.000000000000000000 ) ) ;
#207 = ORIENTED_EDGE ( 'NONE', *, *, #254, .F. ) ;
#208 = DIRECTION ( 'NONE',  ( 0.000000000000000000, -0.000000000000000000, -1.000000000000000000 ) ) ;
#209 = ORIENTED_EDGE ( 'NONE', *, *, #154, .T. ) ;
#210 = CALENDAR_DATE ( 2026, 9, 9 ) ;
#211 = CARTESIAN_POINT ( 'NONE',  ( 11.62000000000000277, 45.00000000000000000, 0.000000000000000000 ) ) ;
#212 = DIRECTION ( 'NONE',  ( -0.000000000000000000, 0.000000000000000000, 1.000000000000000000 ) ) ;
#213 = DIRECTION ( 'NONE',  ( 1.000000000000000000, 0.000000000000000000, 0.000000000000000000 ) ) ;
#214 = UNCERTAINTY_MEASURE_WITH_UNIT (LENGTH_MEASURE( 1.000000000000000082E-05 ), #175, 'distance_accuracy_value', 'NONE');
#215 = CALENDAR_DATE ( 2026, 9, 9 ) ;
#216 = VERTEX_POINT ( 'NONE', #194 ) ;
#217 = PERSON_AND_ORGANIZATION ( #282, #76 ) ;
#218 = ORIENTED_EDGE ( 'NONE', *, *, #229, .F. ) ;
#219 = PERSON_AND_ORGANIZATION ( #282, #76 ) ;
#220 = EDGE_CURVE ( 'NONE', #202, #216, #357, .T. ) ;
#221 = ORIENTED_EDGE ( 'NONE', *, *, #74, .T. ) ;
#222 = LINE ( 'NONE', #330, #130 ) ;
#223 = FACE_OUTER_BOUND ( 'NONE', #326, .T. ) ;
#224 = VERTEX_POINT ( 'NONE', #197 ) ;
#225 = DIRECTION ( 'NONE',  ( -0.000000000000000000, 0.000000000000000000, 1.000000000000000000 ) ) ;
#226 = CIRCLE ( 'NONE', #188, 2.500000000000000444 ) ;
#227 = LINE ( 'NONE', #36, #72 ) ;
#228 = CARTESIAN_POINT ( 'NONE',  ( 14.11999999999999744, 49.99999999999999289, 3.000000000000000000 ) ) ;
#229 = EDGE_CURVE ( 'NONE', #381, #224, #136, .T. ) ;
#230 = CC_DESIGN_PERSON_AND_ORGANIZATION_ASSIGNMENT ( #124, #92, ( #23 ) ) ;
#231 = CC_DESIGN_APPROVAL ( #239, ( #297 ) ) ;
#232 = PLANE ( 'NONE',  #145 ) ;
#233 = AXIS2_PLACEMENT_3D ( 'NONE', #109, #73, #172 ) ;
#234 = CC_DESIGN_SECURITY_CLASSIFICATION ( #376, ( #297 ) ) ;
#235 = DIRECTION ( 'NONE',  ( -0.000000000000000000, -0.000000000000000000, -1.000000000000000000 ) ) ;
#236 = ORIENTED_EDGE ( 'NONE', *, *, #61, .T. ) ;
#237 = PERSON_AND_ORGANIZATION_ROLE ( 'design_supplier' ) ;
#238 = LINE ( 'NONE', #150, #170 ) ;
#239 = APPROVAL ( #120, 'UNSPECIFIED' ) ;
#240 = AXIS2_PLACEMENT_3D ( 'NONE', #5, #134, #325 ) ;
#241 = MECHANICAL_CONTEXT ( 'NONE', #107, 'mechanical' ) ;
#242 = ORIENTED_EDGE ( 'NONE', *, *, #154, .F. ) ;
#243 = VERTEX_POINT ( 'NONE', #198 ) ;
#244 = DATE_AND_TIME ( #380, #340 ) ;
#245 = ORIENTED_EDGE ( 'NONE', *, *, #254, .T. ) ;
#246 = VECTOR ( 'NONE', #118, 1000.000000000000000 ) ;
#247 = DIRECTION ( 'NONE',  ( -1.301042606982605567E-16, 1.000000000000000000, -0.000000000000000000 ) ) ;
#248 = EDGE_CURVE ( 'NONE', #77, #99, #358, .T. ) ;
#249 = CARTESIAN_POINT ( 'NONE',  ( -14.12000000000000455, 49.99999999999999289, 3.000000000000000000 ) ) ;
#250 = LOCAL_TIME ( 9, 46, 13.00000000000000000, #158 ) ;
#251 = CARTESIAN_POINT ( 'NONE',  ( -14.11999999999999389, -39.99999999999999289, 3.000000000000000000 ) ) ;
#252 = VECTOR ( 'NONE', #8, 1000.000000000000000 ) ;
#253 = CARTESIAN_POINT ( 'NONE',  ( -14.12000000000000455, 49.99999999999999289, 0.000000000000000000 ) ) ;
#254 = EDGE_CURVE ( 'NONE', #362, #59, #7, .T. ) ;
#255 = VECTOR ( 'NONE', #111, 1000.000000000000000 ) ;
#256 = EDGE_CURVE ( 'NONE', #267, #95, #222, .T. ) ;
#257 = ORIENTED_EDGE ( 'NONE', *, *, #360, .T. ) ;
#258 = DIRECTION ( 'NONE',  ( 1.000000000000000000, 1.301042606982605567E-16, -0.000000000000000000 ) ) ;
#259 = DIRECTION ( 'NONE',  ( 1.000000000000000000, 0.000000000000000000, 0.000000000000000000 ) ) ;
#260 = FACE_OUTER_BOUND ( 'NONE', #31, .T. ) ;
#261 = AXIS2_PLACEMENT_3D ( 'NONE', #354, #67, #196 ) ;
#262 = CARTESIAN_POINT ( 'NONE',  ( -14.11999999999999389, -39.99999999999999289, 3.000000000000000000 ) ) ;
#263 = LINE ( 'NONE', #81, #122 ) ;
#264 = APPROVAL_DATE_TIME ( #126, #87 ) ;
#265 = DIRECTION ( 'NONE',  ( 1.301042606982605567E-16, -1.000000000000000000, 0.000000000000000000 ) ) ;
#266 = COORDINATED_UNIVERSAL_TIME_OFFSET ( 5, 30, .AHEAD. ) ;
#267 = VERTEX_POINT ( 'NONE', #251 ) ;
#268 = APPROVAL_ROLE ( '' ) ;
#269 = ORIENTED_EDGE ( 'NONE', *, *, #256, .T. ) ;
#270 = ORIENTED_EDGE ( 'NONE', *, *, #220, .T. ) ;
#271 = CC_DESIGN_APPROVAL ( #41, ( #376 ) ) ;
#272 = ORIENTED_EDGE ( 'NONE', *, *, #178, .T. ) ;
#273 = CARTESIAN_POINT ( 'NONE',  ( -6.620000000000002771, 45.00000000000000000, 3.000000000000000000 ) ) ;
#274 = CARTESIAN_POINT ( 'NONE',  ( -9.120000000000002771, 45.00000000000000000, 0.000000000000000000 ) ) ;
#275 = CARTESIAN_POINT ( 'NONE',  ( 14.11999999999999744, 39.99999999999999289, 0.000000000000000000 ) ) ;
#276 = PLANE ( 'NONE',  #240 ) ;
#277 = DIRECTION ( 'NONE',  ( 1.000000000000000000, 0.000000000000000000, 0.000000000000000000 ) ) ;
#278 = CIRCLE ( 'NONE', #332, 2.500000000000000444 ) ;
#279 = EDGE_LOOP ( 'NONE', ( #57, #284, #128, #337 ) ) ;
#280 = CARTESIAN_POINT ( 'NONE',  ( 14.12000000000000810, -39.99999999999999289, 3.000000000000000000 ) ) ;
#281 = VECTOR ( 'NONE', #132, 1000.000000000000000 ) ;
#282 = PERSON ( 'UNSPECIFIED', 'UNSPECIFIED', 'UNSPECIFIED', ('UNSPECIFIED'), ('UNSPECIFIED'), ('UNSPECIFIED') ) ;
#283 = FACE_OUTER_BOUND ( 'NONE', #288, .T. ) ;
#284 = ORIENTED_EDGE ( 'NONE', *, *, #43, .T. ) ;
#285 = DIRECTION ( 'NONE',  ( -0.000000000000000000, 0.000000000000000000, 1.000000000000000000 ) ) ;
#286 = DIRECTION ( 'NONE',  ( 1.000000000000000000, 0.000000000000000000, 0.000000000000000000 ) ) ;
#287 = VECTOR ( 'NONE', #247, 1000.000000000000000 ) ;
#288 = EDGE_LOOP ( 'NONE', ( #270, #296, #173, #30 ) ) ;
#289 = DATE_TIME_ROLE ( 'creation_date' ) ;
#290 = EDGE_CURVE ( 'NONE', #216, #224, #133, .T. ) ;
#291 = FACE_OUTER_BOUND ( 'NONE', #177, .T. ) ;
#292 = PERSON_AND_ORGANIZATION_ROLE ( 'creator' ) ;
#293 = CARTESIAN_POINT ( 'NONE',  ( -9.120000000000002771, 45.00000000000000000, 0.000000000000000000 ) ) ;
#294 = ADVANCED_FACE ( 'NONE', ( #306, #302, #2 ), #327, .T. ) ;
#295 = PERSON_AND_ORGANIZATION ( #282, #76 ) ;
#296 = ORIENTED_EDGE ( 'NONE', *, *, #360, .F. ) ;
#297 = PRODUCT_DEFINITION_FORMATION_WITH_SPECIFIED_SOURCE ( 'ANY', '', #18, .NOT_KNOWN. ) ;
#298 = VECTOR ( 'NONE', #277, 1000.000000000000000 ) ;
#299 = ORIENTED_EDGE ( 'NONE', *, *, #229, .T. ) ;
#300 = VERTEX_POINT ( 'NONE', #273 ) ;
#301 = EDGE_LOOP ( 'NONE', ( #312, #209 ) ) ;
#302 = FACE_BOUND ( 'NONE', #160, .T. ) ;
#303 = EDGE_CURVE ( 'NONE', #335, #243, #226, .T. ) ;
#304 = DIRECTION ( 'NONE',  ( 1.000000000000000000, 0.000000000000000000, 0.000000000000000000 ) ) ;
#305 = DIRECTION ( 'NONE',  ( 1.000000000000000000, 0.000000000000000000, 0.000000000000000000 ) ) ;
#306 = FACE_BOUND ( 'NONE', #375, .T. ) ;
#307 =( GEOMETRIC_REPRESENTATION_CONTEXT ( 3 ) GLOBAL_UNCERTAINTY_ASSIGNED_CONTEXT ( ( #214 ) ) GLOBAL_UNIT_ASSIGNED_CONTEXT ( ( #175, #117, #190 ) ) REPRESENTATION_CONTEXT ( 'NONE', 'WORKASPACE' ) );
#308 = CARTESIAN_POINT ( 'NONE',  ( 14.12000000000000810, -39.99999999999999289, 3.000000000000000000 ) ) ;
#309 = CIRCLE ( 'NONE', #338, 2.500000000000000444 ) ;
#310 = ORIENTED_EDGE ( 'NONE', *, *, #98, .T. ) ;
#311 = DIRECTION ( 'NONE',  ( -1.000000000000000000, 0.000000000000000000, 0.000000000000000000 ) ) ;
#312 = ORIENTED_EDGE ( 'NONE', *, *, #39, .T. ) ;
#313 = CARTESIAN_POINT ( 'NONE',  ( -14.12000000000000455, 39.99999999999999289, 0.000000000000000000 ) ) ;
#314 = LINE ( 'NONE', #50, #200 ) ;
#315 = CALENDAR_DATE ( 2026, 9, 9 ) ;
#316 = LOCAL_TIME ( 9, 46, 13.00000000000000000, #266 ) ;
#317 = FACE_BOUND ( 'NONE', #349, .T. ) ;
#318 = ADVANCED_FACE ( 'NONE', ( #356 ), #192, .F. ) ;
#319 = CARTESIAN_POINT ( 'NONE',  ( 9.120000000000002771, 45.00000000000000000, 3.001000000000000334 ) ) ;
#320 = COORDINATED_UNIVERSAL_TIME_OFFSET ( 5, 30, .AHEAD. ) ;
#321 = ORIENTED_EDGE ( 'NONE', *, *, #39, .F. ) ;
#322 = ORIENTED_EDGE ( 'NONE', *, *, #9, .T. ) ;
#323 = PERSON_AND_ORGANIZATION_ROLE ( 'classification_officer' ) ;
#324 = ORIENTED_EDGE ( 'NONE', *, *, #3, .T. ) ;
#325 = DIRECTION ( 'NONE',  ( 0.000000000000000000, -0.000000000000000000, 1.000000000000000000 ) ) ;
#326 = EDGE_LOOP ( 'NONE', ( #218, #27, #245, #384 ) ) ;
#327 = PLANE ( 'NONE',  #28 ) ;
#328 = AXIS2_PLACEMENT_3D ( 'NONE', #344, #212, #53 ) ;
#329 = DIRECTION ( 'NONE',  ( -0.000000000000000000, -0.000000000000000000, -1.000000000000000000 ) ) ;
#330 = CARTESIAN_POINT ( 'NONE',  ( -14.11999999999999389, -39.99999999999999289, 3.000000000000000000 ) ) ;
#331 = LINE ( 'NONE', #70, #6 ) ;
#332 = AXIS2_PLACEMENT_3D ( 'NONE', #47, #208, #213 ) ;
#333 = EDGE_LOOP ( 'NONE', ( #365, #80, #221, #191 ) ) ;
#334 = ADVANCED_FACE ( 'NONE', ( #69 ), #138, .F. ) ;
#335 = VERTEX_POINT ( 'NONE', #361 ) ;
#336 = DIRECTION ( 'NONE',  ( -0.000000000000000000, -0.000000000000000000, -1.000000000000000000 ) ) ;
#337 = ORIENTED_EDGE ( 'NONE', *, *, #74, .F. ) ;
#338 = AXIS2_PLACEMENT_3D ( 'NONE', #123, #203, #259 ) ;
#339 = CARTESIAN_POINT ( 'NONE',  ( -9.120000000000002771, 45.00000000000000000, 3.001000000000000334 ) ) ;
#340 = LOCAL_TIME ( 9, 46, 13.00000000000000000, #320 ) ;
#341 = DIRECTION ( 'NONE',  ( 1.000000000000000000, 0.000000000000000000, 0.000000000000000000 ) ) ;
#342 = ORIENTED_EDGE ( 'NONE', *, *, #303, .F. ) ;
#343 = COORDINATED_UNIVERSAL_TIME_OFFSET ( 5, 30, .AHEAD. ) ;
#344 = CARTESIAN_POINT ( 'NONE',  ( 9.120000000000002771, 45.00000000000000000, 3.000000000000000000 ) ) ;
#345 = CARTESIAN_POINT ( 'NONE',  ( 0.000000000000000000, 0.000000000000000000, 0.000000000000000000 ) ) ;
#346 = CARTESIAN_POINT ( 'NONE',  ( -6.620000000000002771, 45.00000000000000000, 0.000000000000000000 ) ) ;
#347 = APPLICATION_PROTOCOL_DEFINITION ( 'international standard', 'config_control_design', 1994, #107 ) ;
#348 = EDGE_CURVE ( 'NONE', #243, #121, #331, .T. ) ;
#349 = EDGE_LOOP ( 'NONE', ( #159, #16 ) ) ;
#350 = APPROVAL_STATUS ( 'not_yet_approved' ) ;
#351 = EDGE_CURVE ( 'NONE', #59, #224, #103, .T. ) ;
#352 = CLOSED_SHELL ( 'NONE', ( #110, #318, #334, #374, #147, #294, #82, #184, #167, #383 ) ) ;
#353 = ORIENTED_EDGE ( 'NONE', *, *, #351, .F. ) ;
#354 = CARTESIAN_POINT ( 'NONE',  ( 14.11999999999999744, 39.99999999999999289, 3.000000000000000000 ) ) ;
#355 = EDGE_LOOP ( 'NONE', ( #310, #162, #114, #236 ) ) ;
#356 = FACE_OUTER_BOUND ( 'NONE', #279, .T. ) ;
#357 = LINE ( 'NONE', #97, #281 ) ;
#358 = CIRCLE ( 'NONE', #35, 2.500000000000000444 ) ;
#359 = DIRECTION ( 'NONE',  ( -0.000000000000000000, 0.000000000000000000, 1.000000000000000000 ) ) ;
#360 = EDGE_CURVE ( 'NONE', #95, #216, #171, .T. ) ;
#361 = CARTESIAN_POINT ( 'NONE',  ( 11.62000000000000277, 45.00000000000000000, 3.000000000000000000 ) ) ;
#362 = VERTEX_POINT ( 'NONE', #139 ) ;
#363 = CARTESIAN_POINT ( 'NONE',  ( -14.12000000000000455, 49.99999999999999289, 0.000000000000000000 ) ) ;
#364 = DIRECTION ( 'NONE',  ( -0.000000000000000000, -0.000000000000000000, -1.000000000000000000 ) ) ;
#365 = ORIENTED_EDGE ( 'NONE', *, *, #43, .F. ) ;
#366 = FACE_OUTER_BOUND ( 'NONE', #83, .T. ) ;
#367 = CC_DESIGN_PERSON_AND_ORGANIZATION_ASSIGNMENT ( #217, #156, ( #18 ) ) ;
#368 = AXIS2_PLACEMENT_3D ( 'NONE', #143, #258, #201 ) ;
#369 = CARTESIAN_POINT ( 'NONE',  ( 9.120000000000002771, 45.00000000000000000, 0.000000000000000000 ) ) ;
#370 = DATE_TIME_ROLE ( 'classification_date' ) ;
#371 = CYLINDRICAL_SURFACE ( 'NONE', #101, 2.500000000000000444 ) ;
#372 = APPROVAL_DATE_TIME ( #51, #41 ) ;
#373 = DIRECTION ( 'NONE',  ( 0.000000000000000000, 0.000000000000000000, -1.000000000000000000 ) ) ;
#374 = ADVANCED_FACE ( 'NONE', ( #205 ), #48, .F. ) ;
#375 = EDGE_LOOP ( 'NONE', ( #204, #342 ) ) ;
#376 = SECURITY_CLASSIFICATION ( '', '', #149 ) ;
#377 = DIRECTION ( 'NONE',  ( 0.000000000000000000, 0.000000000000000000, -1.000000000000000000 ) ) ;
#378 = CIRCLE ( 'NONE', #89, 2.500000000000000444 ) ;
#379 = DATE_AND_TIME ( #215, #250 ) ;
#380 = CALENDAR_DATE ( 2026, 9, 9 ) ;
#381 = VERTEX_POINT ( 'NONE', #363 ) ;
#382 = ORIENTED_EDGE ( 'NONE', *, *, #161, .T. ) ;
#383 = ADVANCED_FACE ( 'NONE', ( #366 ), #105, .F. ) ;
#384 = ORIENTED_EDGE ( 'NONE', *, *, #351, .T. ) ;
#385 = DIRECTION ( 'NONE',  ( 1.000000000000000000, 0.000000000000000000, 0.000000000000000000 ) ) ;
ENDSEC;
END-ISO-10303-21;
