ISO-10303-21;
HEADER;
FILE_DESCRIPTION (( 'STEP AP203' ),
    '1' );
FILE_NAME ('Teeth_v2_Default_sldprt.STEP',
    '2026-09-09T04:16:14',
    ( '' ),
    ( '' ),
    'SwSTEP 2.0',
    'SolidWorks 2020',
    '' );
FILE_SCHEMA (( 'CONFIG_CONTROL_DESIGN' ));
ENDSEC;

DATA;
#1 = ORIENTED_EDGE ( 'NONE', *, *, #245, .F. ) ;
#2 = LINE ( 'NONE', #175, #149 ) ;
#3 = CC_DESIGN_APPROVAL ( #18, ( #249 ) ) ;
#4 = FACE_OUTER_BOUND ( 'NONE', #270, .T. ) ;
#5 = DIRECTION ( 'NONE',  ( -3.321104293510159743E-16, 1.000000000000000000, 0.000000000000000000 ) ) ;
#6 = ADVANCED_FACE ( 'NONE', ( #209 ), #63, .F. ) ;
#7 = FACE_OUTER_BOUND ( 'NONE', #43, .T. ) ;
#8 = VECTOR ( 'NONE', #182, 1000.000000000000000 ) ;
#9 = EDGE_CURVE ( 'NONE', #20, #106, #155, .T. ) ;
#10 = CARTESIAN_POINT ( 'NONE',  ( -8.660254037844385522, -3.903127820947815962E-15, 0.000000000000000000 ) ) ;
#11 = COORDINATED_UNIVERSAL_TIME_OFFSET ( 5, 30, .AHEAD. ) ;
#12 = APPROVAL_ROLE ( '' ) ;
#13 = DIRECTION ( 'NONE',  ( -0.000000000000000000, -0.000000000000000000, -1.000000000000000000 ) ) ;
#14 = APPROVAL_PERSON_ORGANIZATION ( #187, #18, #38 ) ;
#15 = APPROVAL_DATE_TIME ( #206, #18 ) ;
#16 = ORIENTED_EDGE ( 'NONE', *, *, #245, .T. ) ;
#17 = SHAPE_DEFINITION_REPRESENTATION ( #73, #222 ) ;
#18 = APPROVAL ( #167, 'UNSPECIFIED' ) ;
#19 = DATE_AND_TIME ( #82, #137 ) ;
#20 = VERTEX_POINT ( 'NONE', #57 ) ;
#21 = VECTOR ( 'NONE', #93, 1000.000000000000000 ) ;
#22 = LINE ( 'NONE', #25, #83 ) ;
#23 = VECTOR ( 'NONE', #164, 1000.000000000000000 ) ;
#24 = EDGE_CURVE ( 'NONE', #56, #226, #128, .T. ) ;
#25 = CARTESIAN_POINT ( 'NONE',  ( -20.00012701892218558, 7.499999999999992006, 10.00000000000000000 ) ) ;
#26 = DIRECTION ( 'NONE',  ( -1.000000000000000000, -3.321104293510159743E-16, 0.000000000000000000 ) ) ;
#27 = DIRECTION ( 'NONE',  ( -1.000000000000000000, 0.000000000000000000, 0.000000000000000000 ) ) ;
#28 = EDGE_CURVE ( 'NONE', #247, #106, #193, .T. ) ;
#29 = APPROVAL_PERSON_ORGANIZATION ( #146, #179, #12 ) ;
#30 = LINE ( 'NONE', #181, #21 ) ;
#31 = PERSON_AND_ORGANIZATION_ROLE ( 'design_owner' ) ;
#32 = DIRECTION ( 'NONE',  ( -0.5516455116545311288, -0.8340786710325415187, 0.000000000000000000 ) ) ;
#33 = AXIS2_PLACEMENT_3D ( 'NONE', #178, #47, #27 ) ;
#34 = LINE ( 'NONE', #10, #142 ) ;
#35 = CALENDAR_DATE ( 2026, 9, 9 ) ;
#36 = ORIENTED_EDGE ( 'NONE', *, *, #84, .F. ) ;
#37 = ORIENTED_EDGE ( 'NONE', *, *, #41, .F. ) ;
#38 = APPROVAL_ROLE ( '' ) ;
#39 = ORIENTED_EDGE ( 'NONE', *, *, #219, .F. ) ;
#40 = APPROVAL_PERSON_ORGANIZATION ( #271, #254, #144 ) ;
#41 = EDGE_CURVE ( 'NONE', #60, #20, #86, .T. ) ;
#42 = PERSON_AND_ORGANIZATION_ROLE ( 'creator' ) ;
#43 = EDGE_LOOP ( 'NONE', ( #241, #133, #227, #1 ) ) ;
#44 = ORIENTED_EDGE ( 'NONE', *, *, #58, .T. ) ;
#45 = ORIENTED_EDGE ( 'NONE', *, *, #169, .F. ) ;
#46 = ADVANCED_FACE ( 'NONE', ( #248 ), #135, .T. ) ;
#47 = DIRECTION ( 'NONE',  ( 0.000000000000000000, 0.000000000000000000, -1.000000000000000000 ) ) ;
#48 = ORIENTED_EDGE ( 'NONE', *, *, #257, .T. ) ;
#49 = CARTESIAN_POINT ( 'NONE',  ( -9.053360633910594757, 0.2599940471481631543, 10.00000000000000000 ) ) ;
#50 = FACE_OUTER_BOUND ( 'NONE', #127, .T. ) ;
#51 = CC_DESIGN_PERSON_AND_ORGANIZATION_ASSIGNMENT ( #77, #42, ( #259 ) ) ;
#52 = VECTOR ( 'NONE', #112, 1000.000000000000000 ) ;
#53 = CARTESIAN_POINT ( 'NONE',  ( -10.15665165721965657, -1.408163294916920272, 10.00000000000000000 ) ) ;
#54 = LINE ( 'NONE', #217, #23 ) ;
#55 = VECTOR ( 'NONE', #13, 1000.000000000000000 ) ;
#56 = VERTEX_POINT ( 'NONE', #252 ) ;
#57 = CARTESIAN_POINT ( 'NONE',  ( -4.330127018922188320, -7.500000000000001776, 10.00000000000000000 ) ) ;
#58 = EDGE_CURVE ( 'NONE', #226, #60, #22, .T. ) ;
#59 = CALENDAR_DATE ( 2026, 9, 9 ) ;
#60 = VERTEX_POINT ( 'NONE', #111 ) ;
#61 = EDGE_CURVE ( 'NONE', #108, #126, #131, .T. ) ;
#62 = PERSON_AND_ORGANIZATION ( #191, #103 ) ;
#63 = PLANE ( 'NONE',  #197 ) ;
#64 = LINE ( 'NONE', #49, #52 ) ;
#65 = DIRECTION ( 'NONE',  ( -0.000000000000000000, -0.000000000000000000, -1.000000000000000000 ) ) ;
#66 = DIRECTION ( 'NONE',  ( -0.000000000000000000, -0.000000000000000000, -1.000000000000000000 ) ) ;
#67 = CC_DESIGN_DATE_AND_TIME_ASSIGNMENT ( #19, #170, ( #249 ) ) ;
#68 = APPLICATION_CONTEXT ( 'configuration controlled 3d designs of mechanical parts and assemblies' ) ;
#69 = VERTEX_POINT ( 'NONE', #90 ) ;
#70 = PLANE ( 'NONE',  #269 ) ;
#71 = CC_DESIGN_PERSON_AND_ORGANIZATION_ASSIGNMENT ( #168, #190, ( #157 ) ) ;
#72 = CARTESIAN_POINT ( 'NONE',  ( -8.424600849650779821, -0.4081632949169192170, 0.000000000000000000 ) ) ;
#73 = PRODUCT_DEFINITION_SHAPE ( 'NONE', 'NONE',  #259 ) ;
#74 = CIRCLE ( 'NONE', #180, 2.000000000000000000 ) ;
#75 =( NAMED_UNIT ( * ) SI_UNIT ( $, .STERADIAN. ) SOLID_ANGLE_UNIT ( ) );
#76 = ADVANCED_FACE ( 'NONE', ( #4 ), #70, .F. ) ;
#77 = PERSON_AND_ORGANIZATION ( #191, #103 ) ;
#78 =( GEOMETRIC_REPRESENTATION_CONTEXT ( 3 ) GLOBAL_UNCERTAINTY_ASSIGNED_CONTEXT ( ( #98 ) ) GLOBAL_UNIT_ASSIGNED_CONTEXT ( ( #140, #258, #75 ) ) REPRESENTATION_CONTEXT ( 'NONE', 'WORKASPACE' ) );
#79 = CC_DESIGN_DATE_AND_TIME_ASSIGNMENT ( #154, #119, ( #259 ) ) ;
#80 = DIRECTION ( 'NONE',  ( 1.000000000000000000, 0.000000000000000000, -0.000000000000000000 ) ) ;
#81 = APPROVAL_DATE_TIME ( #102, #179 ) ;
#82 = CALENDAR_DATE ( 2026, 9, 9 ) ;
#83 = VECTOR ( 'NONE', #253, 1000.000000000000000 ) ;
#84 = EDGE_CURVE ( 'NONE', #108, #267, #74, .T. ) ;
#85 = APPLICATION_CONTEXT ( 'configuration controlled 3d designs of mechanical parts and assemblies' ) ;
#86 = LINE ( 'NONE', #213, #225 ) ;
#87 = DIRECTION ( 'NONE',  ( 1.000000000000000000, 0.000000000000000000, -0.000000000000000000 ) ) ;
#88 = AXIS2_PLACEMENT_3D ( 'NONE', #220, #32, #238 ) ;
#89 = DIRECTION ( 'NONE',  ( -0.8340786710325415187, 0.5516455116545312398, 0.000000000000000000 ) ) ;
#90 = CARTESIAN_POINT ( 'NONE',  ( -8.424600849650779821, -0.4081632949169192170, 10.00000000000000000 ) ) ;
#91 = CARTESIAN_POINT ( 'NONE',  ( 0.000000000000000000, 0.000000000000000000, 10.00000000000000000 ) ) ;
#92 = CARTESIAN_POINT ( 'NONE',  ( -20.00012701892218558, 7.499999999999992006, 10.00000000000000000 ) ) ;
#93 = DIRECTION ( 'NONE',  ( -2.312964634635742957E-16, -1.000000000000000000, 0.000000000000000000 ) ) ;
#94 = ADVANCED_FACE ( 'NONE', ( #50 ), #109, .T. ) ;
#95 = VECTOR ( 'NONE', #251, 1000.000000000000000 ) ;
#96 = DIRECTION ( 'NONE',  ( 1.000000000000000000, 0.000000000000000000, 0.000000000000000000 ) ) ;
#97 = PRODUCT_RELATED_PRODUCT_CATEGORY ( 'detail', '', ( #199 ) ) ;
#98 = UNCERTAINTY_MEASURE_WITH_UNIT (LENGTH_MEASURE( 1.000000000000000082E-05 ), #140, 'distance_accuracy_value', 'NONE');
#99 = CARTESIAN_POINT ( 'NONE',  ( 0.000000000000000000, 0.000000000000000000, 0.000000000000000000 ) ) ;
#100 = CALENDAR_DATE ( 2026, 9, 9 ) ;
#101 = EDGE_CURVE ( 'NONE', #56, #108, #64, .T. ) ;
#102 = DATE_AND_TIME ( #100, #176 ) ;
#103 = ORGANIZATION ( 'UNSPECIFIED', 'UNSPECIFIED', '' ) ;
#104 = CARTESIAN_POINT ( 'NONE',  ( 0.000000000000000000, 0.000000000000000000, 0.000000000000000000 ) ) ;
#105 = ORIENTED_EDGE ( 'NONE', *, *, #58, .F. ) ;
#106 = VERTEX_POINT ( 'NONE', #134 ) ;
#107 = EDGE_LOOP ( 'NONE', ( #171, #231, #243, #145 ) ) ;
#108 = VERTEX_POINT ( 'NONE', #158 ) ;
#109 = PLANE ( 'NONE',  #235 ) ;
#110 = CARTESIAN_POINT ( 'NONE',  ( -20.00012701892218914, -7.500000000000007105, 10.00000000000000000 ) ) ;
#111 = CARTESIAN_POINT ( 'NONE',  ( -20.00012701892218914, -7.500000000000007105, 10.00000000000000000 ) ) ;
#112 = DIRECTION ( 'NONE',  ( 0.000000000000000000, 0.000000000000000000, -1.000000000000000000 ) ) ;
#113 = CARTESIAN_POINT ( 'NONE',  ( -20.00012701892218558, 7.499999999999992006, 0.000000000000000000 ) ) ;
#114 = AXIS2_PLACEMENT_3D ( 'NONE', #99, #136, #186 ) ;
#115 = APPLICATION_PROTOCOL_DEFINITION ( 'international standard', 'config_control_design', 1994, #68 ) ;
#116 = DIRECTION ( 'NONE',  ( 2.312964634635742957E-16, 1.000000000000000000, 0.000000000000000000 ) ) ;
#117 = CC_DESIGN_PERSON_AND_ORGANIZATION_ASSIGNMENT ( #229, #152, ( #249 ) ) ;
#118 = CARTESIAN_POINT ( 'NONE',  ( -20.00012701892218558, 7.499999999999992006, 10.00000000000000000 ) ) ;
#119 = DATE_TIME_ROLE ( 'creation_date' ) ;
#120 = ORIENTED_EDGE ( 'NONE', *, *, #28, .T. ) ;
#121 = DESIGN_CONTEXT ( 'detailed design', #85, 'design' ) ;
#122 = CALENDAR_DATE ( 2026, 9, 9 ) ;
#123 = LOCAL_TIME ( 9, 46, 14.00000000000000000, #202 ) ;
#124 = ORIENTED_EDGE ( 'NONE', *, *, #9, .F. ) ;
#125 = APPROVAL_STATUS ( 'not_yet_approved' ) ;
#126 = VERTEX_POINT ( 'NONE', #113 ) ;
#127 = EDGE_LOOP ( 'NONE', ( #48, #188, #207, #44, #228 ) ) ;
#128 = LINE ( 'NONE', #147, #221 ) ;
#129 = VECTOR ( 'NONE', #256, 1000.000000000000000 ) ;
#130 = CARTESIAN_POINT ( 'NONE',  ( -20.00012701892218914, -7.500000000000007105, 0.000000000000000000 ) ) ;
#131 = LINE ( 'NONE', #196, #260 ) ;
#132 = DIRECTION ( 'NONE',  ( -0.8340786710325415187, 0.5516455116545312398, 0.000000000000000000 ) ) ;
#133 = ORIENTED_EDGE ( 'NONE', *, *, #101, .T. ) ;
#134 = CARTESIAN_POINT ( 'NONE',  ( -4.330127018922188320, -7.500000000000001776, 0.000000000000000000 ) ) ;
#135 = CYLINDRICAL_SURFACE ( 'NONE', #33, 2.000000000000000000 ) ;
#136 = DIRECTION ( 'NONE',  ( 0.000000000000000000, 0.000000000000000000, 1.000000000000000000 ) ) ;
#137 = LOCAL_TIME ( 9, 46, 14.00000000000000000, #224 ) ;
#138 = ORIENTED_EDGE ( 'NONE', *, *, #84, .T. ) ;
#139 = FACE_OUTER_BOUND ( 'NONE', #173, .T. ) ;
#140 =( LENGTH_UNIT ( ) NAMED_UNIT ( * ) SI_UNIT ( .MILLI., .METRE. ) );
#141 = DIRECTION ( 'NONE',  ( 1.000000000000000000, -2.312964634635742957E-16, 0.000000000000000000 ) ) ;
#142 = VECTOR ( 'NONE', #185, 1000.000000000000000 ) ;
#143 = DIRECTION ( 'NONE',  ( 0.000000000000000000, 0.000000000000000000, 1.000000000000000000 ) ) ;
#144 = APPROVAL_ROLE ( '' ) ;
#145 = ORIENTED_EDGE ( 'NONE', *, *, #9, .T. ) ;
#146 = PERSON_AND_ORGANIZATION ( #191, #103 ) ;
#147 = CARTESIAN_POINT ( 'NONE',  ( -8.660254037844385522, -3.903127820947815962E-15, 10.00000000000000000 ) ) ;
#148 = ADVANCED_FACE ( 'NONE', ( #255 ), #215, .F. ) ;
#149 = VECTOR ( 'NONE', #65, 1000.000000000000000 ) ;
#150 = EDGE_LOOP ( 'NONE', ( #192, #138, #203, #174, #39 ) ) ;
#151 = EDGE_CURVE ( 'NONE', #60, #247, #2, .T. ) ;
#152 = PERSON_AND_ORGANIZATION_ROLE ( 'classification_officer' ) ;
#153 = EDGE_LOOP ( 'NONE', ( #45, #244, #36, #189 ) ) ;
#154 = DATE_AND_TIME ( #35, #123 ) ;
#155 = LINE ( 'NONE', #230, #55 ) ;
#156 = DIRECTION ( 'NONE',  ( 0.5000000000000004441, -0.8660254037844383745, 0.000000000000000000 ) ) ;
#157 = PRODUCT_DEFINITION_FORMATION_WITH_SPECIFIED_SOURCE ( 'ANY', '', #199, .NOT_KNOWN. ) ;
#158 = CARTESIAN_POINT ( 'NONE',  ( -9.053360633910594757, 0.2599940471481632098, 0.000000000000000000 ) ) ;
#159 = DIRECTION ( 'NONE',  ( 0.000000000000000000, 0.000000000000000000, 1.000000000000000000 ) ) ;
#160 = CIRCLE ( 'NONE', #162, 2.000000000000000000 ) ;
#161 = CARTESIAN_POINT ( 'NONE',  ( -8.660254037844385522, -3.903127820947815962E-15, 10.00000000000000000 ) ) ;
#162 = AXIS2_PLACEMENT_3D ( 'NONE', #53, #143, #96 ) ;
#163 = PERSON_AND_ORGANIZATION ( #191, #103 ) ;
#164 = DIRECTION ( 'NONE',  ( -0.000000000000000000, -0.000000000000000000, -1.000000000000000000 ) ) ;
#165 = CARTESIAN_POINT ( 'NONE',  ( -8.424600849650779821, -0.4081632949169196611, 10.00000000000000000 ) ) ;
#166 = AXIS2_PLACEMENT_3D ( 'NONE', #92, #141, #116 ) ;
#167 = APPROVAL_STATUS ( 'not_yet_approved' ) ;
#168 = PERSON_AND_ORGANIZATION ( #191, #103 ) ;
#169 = EDGE_CURVE ( 'NONE', #69, #56, #160, .T. ) ;
#170 = DATE_TIME_ROLE ( 'classification_date' ) ;
#171 = ORIENTED_EDGE ( 'NONE', *, *, #172, .T. ) ;
#172 = EDGE_CURVE ( 'NONE', #106, #267, #34, .T. ) ;
#173 = EDGE_LOOP ( 'NONE', ( #212, #210, #105, #16 ) ) ;
#174 = ORIENTED_EDGE ( 'NONE', *, *, #28, .F. ) ;
#175 = CARTESIAN_POINT ( 'NONE',  ( -20.00012701892218914, -7.500000000000007105, 10.00000000000000000 ) ) ;
#176 = LOCAL_TIME ( 9, 46, 14.00000000000000000, #262 ) ;
#177 = DIRECTION ( 'NONE',  ( 1.000000000000000000, 3.321104293510159743E-16, 0.000000000000000000 ) ) ;
#178 = CARTESIAN_POINT ( 'NONE',  ( -10.15665165721965657, -1.408163294916920272, 10.00000000000000000 ) ) ;
#179 = APPROVAL ( #125, 'UNSPECIFIED' ) ;
#180 = AXIS2_PLACEMENT_3D ( 'NONE', #194, #66, #216 ) ;
#181 = CARTESIAN_POINT ( 'NONE',  ( -20.00012701892218558, 7.499999999999992006, 0.000000000000000000 ) ) ;
#182 = DIRECTION ( 'NONE',  ( -0.5000000000000004441, 0.8660254037844383745, -0.000000000000000000 ) ) ;
#183 = CLOSED_SHELL ( 'NONE', ( #250, #266, #76, #148, #94, #6, #46 ) ) ;
#184 = MANIFOLD_SOLID_BREP ( 'Fillet1', #183 ) ;
#185 = DIRECTION ( 'NONE',  ( -0.5000000000000004441, 0.8660254037844383745, -0.000000000000000000 ) ) ;
#186 = DIRECTION ( 'NONE',  ( 1.000000000000000000, 0.000000000000000000, 0.000000000000000000 ) ) ;
#187 = PERSON_AND_ORGANIZATION ( #191, #103 ) ;
#188 = ORIENTED_EDGE ( 'NONE', *, *, #169, .T. ) ;
#189 = ORIENTED_EDGE ( 'NONE', *, *, #101, .F. ) ;
#190 = PERSON_AND_ORGANIZATION_ROLE ( 'creator' ) ;
#191 = PERSON ( 'UNSPECIFIED', 'UNSPECIFIED', 'UNSPECIFIED', ('UNSPECIFIED'), ('UNSPECIFIED'), ('UNSPECIFIED') ) ;
#192 = ORIENTED_EDGE ( 'NONE', *, *, #61, .F. ) ;
#193 = LINE ( 'NONE', #130, #95 ) ;
#194 = CARTESIAN_POINT ( 'NONE',  ( -10.15665165721965657, -1.408163294916920272, 0.000000000000000000 ) ) ;
#195 = CC_DESIGN_SECURITY_CLASSIFICATION ( #249, ( #157 ) ) ;
#196 = CARTESIAN_POINT ( 'NONE',  ( -8.660254037844385522, -3.903127820947815962E-15, 0.000000000000000000 ) ) ;
#197 = AXIS2_PLACEMENT_3D ( 'NONE', #104, #264, #80 ) ;
#198 = MECHANICAL_CONTEXT ( 'NONE', #68, 'mechanical' ) ;
#199 = PRODUCT ( 'Teeth_v2_Default_sldprt', 'Teeth_v2_Default_sldprt', '', ( #198 ) ) ;
#200 = CARTESIAN_POINT ( 'NONE',  ( -20.00012701892218914, -7.500000000000007105, 0.000000000000000000 ) ) ;
#201 = CC_DESIGN_PERSON_AND_ORGANIZATION_ASSIGNMENT ( #62, #208, ( #157 ) ) ;
#202 = COORDINATED_UNIVERSAL_TIME_OFFSET ( 5, 30, .AHEAD. ) ;
#203 = ORIENTED_EDGE ( 'NONE', *, *, #172, .F. ) ;
#204 = LOCAL_TIME ( 9, 46, 14.00000000000000000, #11 ) ;
#205 = AXIS2_PLACEMENT_3D ( 'NONE', #161, #232, #156 ) ;
#206 = DATE_AND_TIME ( #122, #204 ) ;
#207 = ORIENTED_EDGE ( 'NONE', *, *, #24, .T. ) ;
#208 = PERSON_AND_ORGANIZATION_ROLE ( 'design_supplier' ) ;
#209 = FACE_OUTER_BOUND ( 'NONE', #150, .T. ) ;
#210 = ORIENTED_EDGE ( 'NONE', *, *, #151, .F. ) ;
#211 = APPLICATION_PROTOCOL_DEFINITION ( 'international standard', 'config_control_design', 1994, #85 ) ;
#212 = ORIENTED_EDGE ( 'NONE', *, *, #219, .T. ) ;
#213 = CARTESIAN_POINT ( 'NONE',  ( -20.00012701892218914, -7.500000000000007105, 10.00000000000000000 ) ) ;
#214 = CC_DESIGN_APPROVAL ( #254, ( #259 ) ) ;
#215 = PLANE ( 'NONE',  #205 ) ;
#216 = DIRECTION ( 'NONE',  ( 1.000000000000000000, 3.577867169202164632E-15, 0.000000000000000000 ) ) ;
#217 = CARTESIAN_POINT ( 'NONE',  ( -20.00012701892218558, 7.499999999999992006, 10.00000000000000000 ) ) ;
#218 = CC_DESIGN_APPROVAL ( #179, ( #157 ) ) ;
#219 = EDGE_CURVE ( 'NONE', #126, #247, #30, .T. ) ;
#220 = CARTESIAN_POINT ( 'NONE',  ( -8.660254037844385522, -3.903127820947815962E-15, 10.00000000000000000 ) ) ;
#221 = VECTOR ( 'NONE', #132, 1000.000000000000000 ) ;
#222 = ADVANCED_BREP_SHAPE_REPRESENTATION ( 'Teeth_v2_Default_sldprt', ( #184, #114 ), #78 ) ;
#223 = COORDINATED_UNIVERSAL_TIME_OFFSET ( 5, 30, .AHEAD. ) ;
#224 = COORDINATED_UNIVERSAL_TIME_OFFSET ( 5, 30, .AHEAD. ) ;
#225 = VECTOR ( 'NONE', #177, 1000.000000000000000 ) ;
#226 = VERTEX_POINT ( 'NONE', #118 ) ;
#227 = ORIENTED_EDGE ( 'NONE', *, *, #61, .T. ) ;
#228 = ORIENTED_EDGE ( 'NONE', *, *, #41, .T. ) ;
#229 = PERSON_AND_ORGANIZATION ( #191, #103 ) ;
#230 = CARTESIAN_POINT ( 'NONE',  ( -4.330127018922188320, -7.500000000000001776, 10.00000000000000000 ) ) ;
#231 = ORIENTED_EDGE ( 'NONE', *, *, #236, .T. ) ;
#232 = DIRECTION ( 'NONE',  ( -0.8660254037844383745, -0.5000000000000004441, 0.000000000000000000 ) ) ;
#233 = LINE ( 'NONE', #165, #129 ) ;
#234 = CARTESIAN_POINT ( 'NONE',  ( -8.660254037844385522, -3.903127820947815962E-15, 10.00000000000000000 ) ) ;
#235 = AXIS2_PLACEMENT_3D ( 'NONE', #91, #159, #87 ) ;
#236 = EDGE_CURVE ( 'NONE', #267, #69, #233, .T. ) ;
#237 = PLANE ( 'NONE',  #88 ) ;
#238 = DIRECTION ( 'NONE',  ( 0.8340786710325415187, -0.5516455116545311288, 0.000000000000000000 ) ) ;
#239 = PLANE ( 'NONE',  #166 ) ;
#240 = CC_DESIGN_PERSON_AND_ORGANIZATION_ASSIGNMENT ( #163, #31, ( #199 ) ) ;
#241 = ORIENTED_EDGE ( 'NONE', *, *, #24, .F. ) ;
#242 = APPROVAL_STATUS ( 'not_yet_approved' ) ;
#243 = ORIENTED_EDGE ( 'NONE', *, *, #257, .F. ) ;
#244 = ORIENTED_EDGE ( 'NONE', *, *, #236, .F. ) ;
#245 = EDGE_CURVE ( 'NONE', #226, #126, #54, .T. ) ;
#246 = APPROVAL_DATE_TIME ( #268, #254 ) ;
#247 = VERTEX_POINT ( 'NONE', #200 ) ;
#248 = FACE_OUTER_BOUND ( 'NONE', #153, .T. ) ;
#249 = SECURITY_CLASSIFICATION ( '', '', #265 ) ;
#250 = ADVANCED_FACE ( 'NONE', ( #7 ), #237, .F. ) ;
#251 = DIRECTION ( 'NONE',  ( 1.000000000000000000, 3.321104293510159743E-16, 0.000000000000000000 ) ) ;
#252 = CARTESIAN_POINT ( 'NONE',  ( -9.053360633910594757, 0.2599940471481632098, 10.00000000000000000 ) ) ;
#253 = DIRECTION ( 'NONE',  ( -2.312964634635742957E-16, -1.000000000000000000, 0.000000000000000000 ) ) ;
#254 = APPROVAL ( #242, 'UNSPECIFIED' ) ;
#255 = FACE_OUTER_BOUND ( 'NONE', #107, .T. ) ;
#256 = DIRECTION ( 'NONE',  ( -0.000000000000000000, -0.000000000000000000, 1.000000000000000000 ) ) ;
#257 = EDGE_CURVE ( 'NONE', #20, #69, #261, .T. ) ;
#258 =( NAMED_UNIT ( * ) PLANE_ANGLE_UNIT ( ) SI_UNIT ( $, .RADIAN. ) );
#259 = PRODUCT_DEFINITION ( 'UNKNOWN', '', #157, #121 ) ;
#260 = VECTOR ( 'NONE', #89, 1000.000000000000000 ) ;
#261 = LINE ( 'NONE', #234, #8 ) ;
#262 = COORDINATED_UNIVERSAL_TIME_OFFSET ( 5, 30, .AHEAD. ) ;
#263 = LOCAL_TIME ( 9, 46, 14.00000000000000000, #223 ) ;
#264 = DIRECTION ( 'NONE',  ( 0.000000000000000000, 0.000000000000000000, 1.000000000000000000 ) ) ;
#265 = SECURITY_CLASSIFICATION_LEVEL ( 'unclassified' ) ;
#266 = ADVANCED_FACE ( 'NONE', ( #139 ), #239, .F. ) ;
#267 = VERTEX_POINT ( 'NONE', #72 ) ;
#268 = DATE_AND_TIME ( #59, #263 ) ;
#269 = AXIS2_PLACEMENT_3D ( 'NONE', #110, #5, #26 ) ;
#270 = EDGE_LOOP ( 'NONE', ( #120, #124, #37, #272 ) ) ;
#271 = PERSON_AND_ORGANIZATION ( #191, #103 ) ;
#272 = ORIENTED_EDGE ( 'NONE', *, *, #151, .T. ) ;
ENDSEC;
END-ISO-10303-21;
