ISO-10303-21;
HEADER;
FILE_DESCRIPTION (( 'STEP AP203' ),
    '1' );
FILE_NAME ('wheel_insert_4mm_shaft_sldprt.STEP',
    '2026-09-09T04:16:17',
    ( '' ),
    ( '' ),
    'SwSTEP 2.0',
    'SolidWorks 2020',
    '' );
FILE_SCHEMA (( 'CONFIG_CONTROL_DESIGN' ));
ENDSEC;

DATA;
#1 = DIRECTION ( 'NONE',  ( -1.000000000000000000, 0.000000000000000000, 0.000000000000000000 ) ) ;
#2 = PLANE ( 'NONE',  #113 ) ;
#3 = ORIENTED_EDGE ( 'NONE', *, *, #198, .T. ) ;
#4 = ADVANCED_FACE ( 'NONE', ( #104, #220 ), #66, .T. ) ;
#5 = ORIENTED_EDGE ( 'NONE', *, *, #446, .F. ) ;
#6 = EDGE_CURVE ( 'NONE', #162, #153, #279, .T. ) ;
#7 = PLANE ( 'NONE',  #14 ) ;
#8 = EDGE_LOOP ( 'NONE', ( #403, #345, #284, #41 ) ) ;
#9 = CARTESIAN_POINT ( 'NONE',  ( -2.499999999999999556, -4.330127018922193649, 6.000000000000000000 ) ) ;
#10 = CARTESIAN_POINT ( 'NONE',  ( -4.000000000000000000, 4.898587196589412829E-16, -12.00000000000000000 ) ) ;
#11 = VERTEX_POINT ( 'NONE', #212 ) ;
#12 = EDGE_CURVE ( 'NONE', #238, #214, #254, .T. ) ;
#13 = COORDINATED_UNIVERSAL_TIME_OFFSET ( 5, 30, .AHEAD. ) ;
#14 = AXIS2_PLACEMENT_3D ( 'NONE', #142, #414, #95 ) ;
#15 = DATE_TIME_ROLE ( 'classification_date' ) ;
#16 = SECURITY_CLASSIFICATION ( '', '', #51 ) ;
#17 = VECTOR ( 'NONE', #432, 1000.000000000000227 ) ;
#18 = ORIENTED_EDGE ( 'NONE', *, *, #6, .F. ) ;
#19 = CARTESIAN_POINT ( 'NONE',  ( 4.999999999999999112, -2.230358754827323125E-15, 6.000000000000000000 ) ) ;
#20 = EDGE_CURVE ( 'NONE', #98, #126, #229, .T. ) ;
#21 = CARTESIAN_POINT ( 'NONE',  ( 4.999999999999999112, -2.230358754827323125E-15, 6.000000000000000000 ) ) ;
#22 = CC_DESIGN_PERSON_AND_ORGANIZATION_ASSIGNMENT ( #185, #333, ( #189 ) ) ;
#23 = APPROVAL_DATE_TIME ( #163, #221 ) ;
#24 = CARTESIAN_POINT ( 'NONE',  ( 2.499999999999999112, -4.330127018922193649, 6.000000000000000000 ) ) ;
#25 = ORIENTED_EDGE ( 'NONE', *, *, #170, .F. ) ;
#26 = DIRECTION ( 'NONE',  ( 0.000000000000000000, 1.000000000000000000, 0.000000000000000000 ) ) ;
#27 = ORIENTED_EDGE ( 'NONE', *, *, #20, .F. ) ;
#28 = DIRECTION ( 'NONE',  ( 0.8660254037844384856, 0.5000000000000003331, -0.000000000000000000 ) ) ;
#29 = EDGE_CURVE ( 'NONE', #144, #188, #132, .T. ) ;
#30 = DIRECTION ( 'NONE',  ( 0.000000000000000000, 0.000000000000000000, 1.000000000000000000 ) ) ;
#31 = EDGE_LOOP ( 'NONE', ( #335, #377, #419, #40 ) ) ;
#32 = LOCAL_TIME ( 9, 46, 17.00000000000000000, #304 ) ;
#33 = CARTESIAN_POINT ( 'NONE',  ( 2.499999999999996447, 4.330127018922193649, 6.000000000000000000 ) ) ;
#34 = LINE ( 'NONE', #62, #244 ) ;
#35 = LINE ( 'NONE', #416, #203 ) ;
#36 = ORIENTED_EDGE ( 'NONE', *, *, #246, .F. ) ;
#37 = DIRECTION ( 'NONE',  ( 0.000000000000000000, 0.000000000000000000, -1.000000000000000000 ) ) ;
#38 = ORIENTED_EDGE ( 'NONE', *, *, #159, .T. ) ;
#39 = EDGE_CURVE ( 'NONE', #71, #214, #34, .T. ) ;
#40 = ORIENTED_EDGE ( 'NONE', *, *, #39, .T. ) ;
#41 = ORIENTED_EDGE ( 'NONE', *, *, #213, .T. ) ;
#42 = VECTOR ( 'NONE', #117, 1000.000000000000000 ) ;
#43 = APPROVAL_STATUS ( 'not_yet_approved' ) ;
#44 = APPROVAL ( #275, 'UNSPECIFIED' ) ;
#45 = CARTESIAN_POINT ( 'NONE',  ( 4.000000000000000000, 0.000000000000000000, -12.00000000000000000 ) ) ;
#46 = APPROVAL_ROLE ( '' ) ;
#47 = LINE ( 'NONE', #49, #42 ) ;
#48 = LINE ( 'NONE', #197, #167 ) ;
#49 = CARTESIAN_POINT ( 'NONE',  ( -5.000000000000000888, -3.717264591378874669E-16, 6.000000000000000000 ) ) ;
#50 = EDGE_LOOP ( 'NONE', ( #69, #266 ) ) ;
#51 = SECURITY_CLASSIFICATION_LEVEL ( 'unclassified' ) ;
#52 = LINE ( 'NONE', #368, #261 ) ;
#53 = CIRCLE ( 'NONE', #374, 4.000000000000000000 ) ;
#54 = EDGE_LOOP ( 'NONE', ( #61, #226, #262, #406 ) ) ;
#55 = EDGE_CURVE ( 'NONE', #291, #437, #215, .T. ) ;
#56 = LINE ( 'NONE', #436, #115 ) ;
#57 = ORIENTED_EDGE ( 'NONE', *, *, #182, .F. ) ;
#58 = DIRECTION ( 'NONE',  ( 0.5000000000000002220, -0.8660254037844384856, 0.000000000000000000 ) ) ;
#59 = DIRECTION ( 'NONE',  ( -0.5000000000000003331, 0.8660254037844384856, 0.000000000000000000 ) ) ;
#60 = LINE ( 'NONE', #208, #444 ) ;
#61 = ORIENTED_EDGE ( 'NONE', *, *, #198, .F. ) ;
#62 = CARTESIAN_POINT ( 'NONE',  ( 2.499999999999999112, -4.330127018922193649, 6.000000000000000000 ) ) ;
#63 = EDGE_CURVE ( 'NONE', #437, #394, #60, .T. ) ;
#64 = CARTESIAN_POINT ( 'NONE',  ( -2.500000000000001332, 4.330127018922192761, 6.000000000000000000 ) ) ;
#65 = CYLINDRICAL_SURFACE ( 'NONE', #454, 2.000000000000000000 ) ;
#66 = PLANE ( 'NONE',  #367 ) ;
#67 = ORGANIZATION ( 'UNSPECIFIED', 'UNSPECIFIED', '' ) ;
#68 = DIRECTION ( 'NONE',  ( 1.000000000000000000, 0.000000000000000000, -0.000000000000000000 ) ) ;
#69 = ORIENTED_EDGE ( 'NONE', *, *, #94, .F. ) ;
#70 = APPLICATION_CONTEXT ( 'configuration controlled 3d designs of mechanical parts and assemblies' ) ;
#71 = VERTEX_POINT ( 'NONE', #386 ) ;
#72 = DIRECTION ( 'NONE',  ( 1.000000000000000000, 0.000000000000000000, 0.000000000000000000 ) ) ;
#73 = APPLICATION_PROTOCOL_DEFINITION ( 'international standard', 'config_control_design', 1994, #70 ) ;
#74 = DIRECTION ( 'NONE',  ( 0.000000000000000000, -0.000000000000000000, 1.000000000000000000 ) ) ;
#75 = EDGE_CURVE ( 'NONE', #126, #98, #435, .T. ) ;
#76 = ADVANCED_FACE ( 'NONE', ( #216 ), #388, .F. ) ;
#77 = EDGE_LOOP ( 'NONE', ( #84, #178, #18, #38 ) ) ;
#78 = CALENDAR_DATE ( 2026, 9, 9 ) ;
#79 = LINE ( 'NONE', #89, #396 ) ;
#80 = ADVANCED_FACE ( 'NONE', ( #420 ), #456, .F. ) ;
#81 = DIRECTION ( 'NONE',  ( 0.5000000000000003331, 0.8660254037844384856, 0.000000000000000000 ) ) ;
#82 = CC_DESIGN_SECURITY_CLASSIFICATION ( #16, ( #265 ) ) ;
#83 = DIRECTION ( 'NONE',  ( -1.000000000000000000, 0.000000000000000000, 0.000000000000000000 ) ) ;
#84 = ORIENTED_EDGE ( 'NONE', *, *, #393, .T. ) ;
#85 = FACE_OUTER_BOUND ( 'NONE', #295, .T. ) ;
#86 = ORIENTED_EDGE ( 'NONE', *, *, #182, .T. ) ;
#87 = ADVANCED_FACE ( 'NONE', ( #390 ), #65, .F. ) ;
#88 = PERSON_AND_ORGANIZATION_ROLE ( 'creator' ) ;
#89 = CARTESIAN_POINT ( 'NONE',  ( -2.499999999999999556, -4.330127018922193649, 6.000000000000000000 ) ) ;
#90 = AXIS2_PLACEMENT_3D ( 'NONE', #327, #222, #355 ) ;
#91 = LINE ( 'NONE', #387, #253 ) ;
#92 = FACE_OUTER_BOUND ( 'NONE', #77, .T. ) ;
#93 = DIRECTION ( 'NONE',  ( 0.000000000000000000, 0.000000000000000000, 1.000000000000000000 ) ) ;
#94 = EDGE_CURVE ( 'NONE', #437, #291, #302, .T. ) ;
#95 = DIRECTION ( 'NONE',  ( -1.000000000000000000, 0.000000000000000000, -0.000000000000000000 ) ) ;
#96 = ORIENTED_EDGE ( 'NONE', *, *, #405, .F. ) ;
#97 = DIRECTION ( 'NONE',  ( -1.000000000000000000, 0.000000000000000000, 0.000000000000000000 ) ) ;
#98 = VERTEX_POINT ( 'NONE', #10 ) ;
#99 = AXIS2_PLACEMENT_3D ( 'NONE', #325, #181, #1 ) ;
#100 = CARTESIAN_POINT ( 'NONE',  ( 0.000000000000000000, 0.000000000000000000, 6.000000000000000000 ) ) ;
#101 = VERTEX_POINT ( 'NONE', #64 ) ;
#102 = LINE ( 'NONE', #139, #360 ) ;
#103 = DIRECTION ( 'NONE',  ( -1.000000000000000000, 0.000000000000000000, 0.000000000000000000 ) ) ;
#104 = FACE_BOUND ( 'NONE', #50, .T. ) ;
#105 = ADVANCED_FACE ( 'NONE', ( #168, #358 ), #7, .T. ) ;
#106 = FACE_OUTER_BOUND ( 'NONE', #187, .T. ) ;
#107 = APPROVAL_PERSON_ORGANIZATION ( #116, #267, #332 ) ;
#108 = DATE_AND_TIME ( #243, #338 ) ;
#109 = CARTESIAN_POINT ( 'NONE',  ( 4.000000000000000000, 0.000000000000000000, -12.00000000000000000 ) ) ;
#110 = ORIENTED_EDGE ( 'NONE', *, *, #193, .T. ) ;
#111 = EDGE_CURVE ( 'NONE', #394, #294, #150, .T. ) ;
#112 = DIRECTION ( 'NONE',  ( 0.000000000000000000, -0.000000000000000000, 1.000000000000000000 ) ) ;
#113 = AXIS2_PLACEMENT_3D ( 'NONE', #210, #28, #59 ) ;
#114 = AXIS2_PLACEMENT_3D ( 'NONE', #319, #93, #380 ) ;
#115 = VECTOR ( 'NONE', #268, 1000.000000000000000 ) ;
#116 = PERSON_AND_ORGANIZATION ( #413, #67 ) ;
#117 = DIRECTION ( 'NONE',  ( -0.000000000000000000, -0.000000000000000000, -1.000000000000000000 ) ) ;
#118 = EDGE_CURVE ( 'NONE', #381, #206, #148, .T. ) ;
#119 = LINE ( 'NONE', #196, #433 ) ;
#120 = CC_DESIGN_PERSON_AND_ORGANIZATION_ASSIGNMENT ( #440, #239, ( #265 ) ) ;
#121 = DATE_AND_TIME ( #445, #32 ) ;
#122 = CARTESIAN_POINT ( 'NONE',  ( 2.000000000000000000, 2.449293598294706414E-16, 6.000000000000000000 ) ) ;
#123 = VECTOR ( 'NONE', #240, 1000.000000000000000 ) ;
#124 = DIRECTION ( 'NONE',  ( -1.000000000000000000, -1.734723475976808080E-16, 0.000000000000000000 ) ) ;
#125 = EDGE_CURVE ( 'NONE', #126, #204, #225, .T. ) ;
#126 = VERTEX_POINT ( 'NONE', #109 ) ;
#127 = CYLINDRICAL_SURFACE ( 'NONE', #190, 4.000000000000000000 ) ;
#128 = PERSON_AND_ORGANIZATION ( #413, #67 ) ;
#129 = DIRECTION ( 'NONE',  ( 1.000000000000000000, 0.000000000000000000, 0.000000000000000000 ) ) ;
#130 = DIRECTION ( 'NONE',  ( 1.000000000000000000, 0.000000000000000000, -0.000000000000000000 ) ) ;
#131 = ADVANCED_FACE ( 'NONE', ( #430, #106 ), #186, .F. ) ;
#132 = LINE ( 'NONE', #140, #347 ) ;
#133 = ORIENTED_EDGE ( 'NONE', *, *, #270, .T. ) ;
#134 = APPLICATION_PROTOCOL_DEFINITION ( 'international standard', 'config_control_design', 1994, #251 ) ;
#135 = CARTESIAN_POINT ( 'NONE',  ( 0.000000000000000000, 0.000000000000000000, 5.656854249492380582 ) ) ;
#136 = ORIENTED_EDGE ( 'NONE', *, *, #29, .T. ) ;
#137 = ADVANCED_BREP_SHAPE_REPRESENTATION ( 'wheel_insert_4mm_shaft_sldprt', ( #318, #369 ), #366 ) ;
#138 = VECTOR ( 'NONE', #418, 1000.000000000000000 ) ;
#139 = CARTESIAN_POINT ( 'NONE',  ( 2.499999999999996447, 4.330127018922193649, 0.000000000000000000 ) ) ;
#140 = CARTESIAN_POINT ( 'NONE',  ( 4.999999999999999112, -2.230358754827323125E-15, 6.000000000000000000 ) ) ;
#141 = ORIENTED_EDGE ( 'NONE', *, *, #434, .T. ) ;
#142 = CARTESIAN_POINT ( 'NONE',  ( 0.000000000000000000, 0.000000000000000000, -12.00000000000000000 ) ) ;
#143 = ORIENTED_EDGE ( 'NONE', *, *, #12, .T. ) ;
#144 = VERTEX_POINT ( 'NONE', #192 ) ;
#145 = DIRECTION ( 'NONE',  ( 0.000000000000000000, 0.000000000000000000, 1.000000000000000000 ) ) ;
#146 = ADVANCED_FACE ( 'NONE', ( #85 ), #271, .F. ) ;
#147 = APPROVAL_STATUS ( 'not_yet_approved' ) ;
#148 = LINE ( 'NONE', #299, #17 ) ;
#149 = CC_DESIGN_APPROVAL ( #221, ( #349 ) ) ;
#150 = CIRCLE ( 'NONE', #411, 2.000000000000000000 ) ;
#151 = CARTESIAN_POINT ( 'NONE',  ( 0.000000000000000000, 0.000000000000000000, 0.000000000000000000 ) ) ;
#152 = ADVANCED_FACE ( 'NONE', ( #450 ), #127, .T. ) ;
#153 = VERTEX_POINT ( 'NONE', #303 ) ;
#154 = DATE_AND_TIME ( #78, #443 ) ;
#155 = CARTESIAN_POINT ( 'NONE',  ( 4.999999999999999112, -2.230358754827323125E-15, 0.000000000000000000 ) ) ;
#156 = EDGE_CURVE ( 'NONE', #409, #11, #205, .T. ) ;
#157 = DIRECTION ( 'NONE',  ( -0.8660254037844385966, -0.5000000000000003331, 0.000000000000000000 ) ) ;
#158 = UNCERTAINTY_MEASURE_WITH_UNIT (LENGTH_MEASURE( 1.000000000000000082E-05 ), #330, 'distance_accuracy_value', 'NONE');
#159 = EDGE_CURVE ( 'NONE', #162, #206, #47, .T. ) ;
#160 = CC_DESIGN_APPROVAL ( #267, ( #16 ) ) ;
#161 = CARTESIAN_POINT ( 'NONE',  ( -5.000000000000000888, -3.717264591378874669E-16, 6.000000000000000000 ) ) ;
#162 = VERTEX_POINT ( 'NONE', #161 ) ;
#163 = DATE_AND_TIME ( #399, #278 ) ;
#164 = ORIENTED_EDGE ( 'NONE', *, *, #39, .F. ) ;
#165 = LINE ( 'NONE', #9, #234 ) ;
#166 = DIRECTION ( 'NONE',  ( -0.000000000000000000, -0.000000000000000000, 1.000000000000000000 ) ) ;
#167 = VECTOR ( 'NONE', #124, 1000.000000000000000 ) ;
#168 = FACE_BOUND ( 'NONE', #422, .T. ) ;
#169 = ORIENTED_EDGE ( 'NONE', *, *, #434, .F. ) ;
#170 = EDGE_CURVE ( 'NONE', #153, #71, #79, .T. ) ;
#171 = CARTESIAN_POINT ( 'NONE',  ( -2.000000000000000000, 0.000000000000000000, 6.000000000000000000 ) ) ;
#172 = ORIENTED_EDGE ( 'NONE', *, *, #63, .F. ) ;
#173 = DIRECTION ( 'NONE',  ( -0.000000000000000000, -0.000000000000000000, -1.000000000000000000 ) ) ;
#174 = CARTESIAN_POINT ( 'NONE',  ( -2.499999999999999556, -4.330127018922193649, 0.000000000000000000 ) ) ;
#175 = ORIENTED_EDGE ( 'NONE', *, *, #193, .F. ) ;
#176 = EDGE_CURVE ( 'NONE', #204, #415, #410, .T. ) ;
#177 = DIRECTION ( 'NONE',  ( 0.000000000000000000, 0.000000000000000000, -1.000000000000000000 ) ) ;
#178 = ORIENTED_EDGE ( 'NONE', *, *, #421, .F. ) ;
#179 = VECTOR ( 'NONE', #376, 1000.000000000000114 ) ;
#180 = AXIS2_PLACEMENT_3D ( 'NONE', #412, #259, #331 ) ;
#181 = DIRECTION ( 'NONE',  ( 0.000000000000000000, 0.000000000000000000, -1.000000000000000000 ) ) ;
#182 = EDGE_CURVE ( 'NONE', #144, #409, #441, .T. ) ;
#183 = DIRECTION ( 'NONE',  ( -1.000000000000000000, 0.000000000000000000, 0.000000000000000000 ) ) ;
#184 = ORIENTED_EDGE ( 'NONE', *, *, #402, .T. ) ;
#185 = PERSON_AND_ORGANIZATION ( #413, #67 ) ;
#186 = PLANE ( 'NONE',  #273 ) ;
#187 = EDGE_LOOP ( 'NONE', ( #36, #200, #252, #451, #322, #257 ) ) ;
#188 = VERTEX_POINT ( 'NONE', #155 ) ;
#189 = PRODUCT ( 'wheel_insert_4mm_shaft_sldprt', 'wheel_insert_4mm_shaft_sldprt', '', ( #298 ) ) ;
#190 = AXIS2_PLACEMENT_3D ( 'NONE', #408, #277, #401 ) ;
#191 = APPROVAL_ROLE ( '' ) ;
#192 = CARTESIAN_POINT ( 'NONE',  ( 4.999999999999999112, -2.230358754827323125E-15, 6.000000000000000000 ) ) ;
#193 = EDGE_CURVE ( 'NONE', #409, #101, #48, .T. ) ;
#194 = DIRECTION ( 'NONE',  ( -0.000000000000000000, -0.000000000000000000, 1.000000000000000000 ) ) ;
#195 = AXIS2_PLACEMENT_3D ( 'NONE', #312, #26, #371 ) ;
#196 = CARTESIAN_POINT ( 'NONE',  ( -2.500000000000001332, 4.330127018922192761, 6.000000000000000000 ) ) ;
#197 = CARTESIAN_POINT ( 'NONE',  ( 2.499999999999996447, 4.330127018922193649, 6.000000000000000000 ) ) ;
#198 = EDGE_CURVE ( 'NONE', #98, #415, #56, .T. ) ;
#199 = DIRECTION ( 'NONE',  ( 0.5000000000000003331, 0.8660254037844384856, 0.000000000000000000 ) ) ;
#200 = ORIENTED_EDGE ( 'NONE', *, *, #12, .F. ) ;
#201 = AXIS2_PLACEMENT_3D ( 'NONE', #351, #166, #129 ) ;
#202 = DIRECTION ( 'NONE',  ( 0.5000000000000000000, 0.8660254037844385966, 0.000000000000000000 ) ) ;
#203 = VECTOR ( 'NONE', #359, 1000.000000000000227 ) ;
#204 = VERTEX_POINT ( 'NONE', #237 ) ;
#205 = LINE ( 'NONE', #344, #123 ) ;
#206 = VERTEX_POINT ( 'NONE', #398 ) ;
#207 = LINE ( 'NONE', #285, #315 ) ;
#208 = CARTESIAN_POINT ( 'NONE',  ( -2.000000000000000000, 0.000000000000000000, 5.656854249492380582 ) ) ;
#209 = EDGE_LOOP ( 'NONE', ( #27, #3, #141, #448 ) ) ;
#210 = CARTESIAN_POINT ( 'NONE',  ( -5.000000000000000888, -3.717264591378874669E-16, 6.000000000000000000 ) ) ;
#211 = APPROVAL_PERSON_ORGANIZATION ( #365, #221, #191 ) ;
#212 = CARTESIAN_POINT ( 'NONE',  ( 2.499999999999996447, 4.330127018922193649, 0.000000000000000000 ) ) ;
#213 = EDGE_CURVE ( 'NONE', #101, #381, #119, .T. ) ;
#214 = VERTEX_POINT ( 'NONE', #233 ) ;
#215 = CIRCLE ( 'NONE', #114, 2.000000000000000000 ) ;
#216 = FACE_OUTER_BOUND ( 'NONE', #245, .T. ) ;
#217 = ORIENTED_EDGE ( 'NONE', *, *, #421, .T. ) ;
#218 = CYLINDRICAL_SURFACE ( 'NONE', #306, 2.000000000000000000 ) ;
#219 = DIRECTION ( 'NONE',  ( 1.000000000000000000, 0.000000000000000000, 0.000000000000000000 ) ) ;
#220 = FACE_OUTER_BOUND ( 'NONE', #260, .T. ) ;
#221 = APPROVAL ( #43, 'UNSPECIFIED' ) ;
#222 = DIRECTION ( 'NONE',  ( -0.8660254037844384856, 0.5000000000000003331, 0.000000000000000000 ) ) ;
#223 = CARTESIAN_POINT ( 'NONE',  ( 0.000000000000000000, 0.000000000000000000, 6.000000000000000000 ) ) ;
#224 = CC_DESIGN_APPROVAL ( #44, ( #265 ) ) ;
#225 = LINE ( 'NONE', #45, #392 ) ;
#226 = ORIENTED_EDGE ( 'NONE', *, *, #75, .F. ) ;
#227 = PRODUCT_RELATED_PRODUCT_CATEGORY ( 'detail', '', ( #189 ) ) ;
#228 = ORIENTED_EDGE ( 'NONE', *, *, #213, .F. ) ;
#229 = CIRCLE ( 'NONE', #235, 4.000000000000000000 ) ;
#230 = DIRECTION ( 'NONE',  ( 0.000000000000000000, 0.000000000000000000, -1.000000000000000000 ) ) ;
#231 = ORIENTED_EDGE ( 'NONE', *, *, #111, .T. ) ;
#232 = APPROVAL_DATE_TIME ( #397, #267 ) ;
#233 = CARTESIAN_POINT ( 'NONE',  ( 2.499999999999999112, -4.330127018922193649, 0.000000000000000000 ) ) ;
#234 = VECTOR ( 'NONE', #385, 1000.000000000000000 ) ;
#235 = AXIS2_PLACEMENT_3D ( 'NONE', #293, #37, #103 ) ;
#236 = FACE_OUTER_BOUND ( 'NONE', #356, .T. ) ;
#237 = CARTESIAN_POINT ( 'NONE',  ( 4.000000000000000000, 0.000000000000000000, 0.000000000000000000 ) ) ;
#238 = VERTEX_POINT ( 'NONE', #373 ) ;
#239 = PERSON_AND_ORGANIZATION_ROLE ( 'design_supplier' ) ;
#240 = DIRECTION ( 'NONE',  ( -0.000000000000000000, -0.000000000000000000, -1.000000000000000000 ) ) ;
#241 = ORIENTED_EDGE ( 'NONE', *, *, #94, .T. ) ;
#242 = APPROVAL_PERSON_ORGANIZATION ( #342, #44, #46 ) ;
#243 = CALENDAR_DATE ( 2026, 9, 9 ) ;
#244 = VECTOR ( 'NONE', #424, 1000.000000000000000 ) ;
#245 = EDGE_LOOP ( 'NONE', ( #184, #228, #175, #354 ) ) ;
#246 = EDGE_CURVE ( 'NONE', #214, #188, #52, .T. ) ;
#247 = DIRECTION ( 'NONE',  ( -0.5000000000000002220, 0.8660254037844384856, 0.000000000000000000 ) ) ;
#248 = EDGE_LOOP ( 'NONE', ( #241, #328, #384, #172 ) ) ;
#249 = CARTESIAN_POINT ( 'NONE',  ( 0.000000000000000000, 0.000000000000000000, 5.656854249492380582 ) ) ;
#250 = CARTESIAN_POINT ( 'NONE',  ( 2.000000000000000000, 2.449293598294706414E-16, -12.00000000000000000 ) ) ;
#251 = APPLICATION_CONTEXT ( 'configuration controlled 3d designs of mechanical parts and assemblies' ) ;
#252 = ORIENTED_EDGE ( 'NONE', *, *, #393, .F. ) ;
#253 = VECTOR ( 'NONE', #58, 1000.000000000000227 ) ;
#254 = LINE ( 'NONE', #174, #138 ) ;
#255 = ORIENTED_EDGE ( 'NONE', *, *, #55, .T. ) ;
#256 = DIRECTION ( 'NONE',  ( 0.5000000000000002220, -0.8660254037844384856, 0.000000000000000000 ) ) ;
#257 = ORIENTED_EDGE ( 'NONE', *, *, #314, .F. ) ;
#258 = DIRECTION ( 'NONE',  ( -0.000000000000000000, -0.000000000000000000, -1.000000000000000000 ) ) ;
#259 = DIRECTION ( 'NONE',  ( 1.734723475976807834E-16, -1.000000000000000000, 0.000000000000000000 ) ) ;
#260 = EDGE_LOOP ( 'NONE', ( #133, #86, #110, #324, #280, #348 ) ) ;
#261 = VECTOR ( 'NONE', #199, 1000.000000000000114 ) ;
#262 = ORIENTED_EDGE ( 'NONE', *, *, #125, .T. ) ;
#263 = SHAPE_DEFINITION_REPRESENTATION ( #439, #137 ) ;
#264 = VECTOR ( 'NONE', #81, 1000.000000000000114 ) ;
#265 = PRODUCT_DEFINITION_FORMATION_WITH_SPECIFIED_SOURCE ( 'ANY', '', #189, .NOT_KNOWN. ) ;
#266 = ORIENTED_EDGE ( 'NONE', *, *, #55, .F. ) ;
#267 = APPROVAL ( #147, 'UNSPECIFIED' ) ;
#268 = DIRECTION ( 'NONE',  ( -0.000000000000000000, -0.000000000000000000, 1.000000000000000000 ) ) ;
#269 = ORIENTED_EDGE ( 'NONE', *, *, #75, .T. ) ;
#270 = EDGE_CURVE ( 'NONE', #71, #144, #400, .T. ) ;
#271 = PLANE ( 'NONE',  #195 ) ;
#272 = ADVANCED_FACE ( 'NONE', ( #236 ), #343, .F. ) ;
#273 = AXIS2_PLACEMENT_3D ( 'NONE', #391, #74, #68 ) ;
#274 = PLANE ( 'NONE',  #326 ) ;
#275 = APPROVAL_STATUS ( 'not_yet_approved' ) ;
#276 = FACE_OUTER_BOUND ( 'NONE', #8, .T. ) ;
#277 = DIRECTION ( 'NONE',  ( -0.000000000000000000, -0.000000000000000000, 1.000000000000000000 ) ) ;
#278 = LOCAL_TIME ( 9, 46, 17.00000000000000000, #336 ) ;
#279 = LINE ( 'NONE', #361, #329 ) ;
#280 = ORIENTED_EDGE ( 'NONE', *, *, #6, .T. ) ;
#281 = CC_DESIGN_DATE_AND_TIME_ASSIGNMENT ( #108, #15, ( #16 ) ) ;
#282 =( NAMED_UNIT ( * ) SI_UNIT ( $, .STERADIAN. ) SOLID_ANGLE_UNIT ( ) );
#283 = DIRECTION ( 'NONE',  ( -0.000000000000000000, -0.000000000000000000, -1.000000000000000000 ) ) ;
#284 = ORIENTED_EDGE ( 'NONE', *, *, #427, .F. ) ;
#285 = CARTESIAN_POINT ( 'NONE',  ( 2.000000000000000000, 2.449293598294706414E-16, 5.656854249492380582 ) ) ;
#286 = ADVANCED_FACE ( 'NONE', ( #276 ), #274, .F. ) ;
#287 = LINE ( 'NONE', #452, #289 ) ;
#288 = CARTESIAN_POINT ( 'NONE',  ( 0.000000000000000000, 0.000000000000000000, -12.00000000000000000 ) ) ;
#289 = VECTOR ( 'NONE', #247, 1000.000000000000114 ) ;
#290 = DIRECTION ( 'NONE',  ( -1.000000000000000000, 0.000000000000000000, 0.000000000000000000 ) ) ;
#291 = VERTEX_POINT ( 'NONE', #122 ) ;
#292 = CARTESIAN_POINT ( 'NONE',  ( -2.000000000000000000, 0.000000000000000000, -12.00000000000000000 ) ) ;
#293 = CARTESIAN_POINT ( 'NONE',  ( 0.000000000000000000, 0.000000000000000000, -12.00000000000000000 ) ) ;
#294 = VERTEX_POINT ( 'NONE', #250 ) ;
#295 = EDGE_LOOP ( 'NONE', ( #143, #164, #25, #217 ) ) ;
#296 = ADVANCED_FACE ( 'NONE', ( #92 ), #2, .F. ) ;
#297 = LOCAL_TIME ( 9, 46, 17.00000000000000000, #13 ) ;
#298 = MECHANICAL_CONTEXT ( 'NONE', #251, 'mechanical' ) ;
#299 = CARTESIAN_POINT ( 'NONE',  ( -2.500000000000001332, 4.330127018922192761, 0.000000000000000000 ) ) ;
#300 = CALENDAR_DATE ( 2026, 9, 9 ) ;
#301 = CIRCLE ( 'NONE', #99, 2.000000000000000000 ) ;
#302 = CIRCLE ( 'NONE', #375, 2.000000000000000000 ) ;
#303 = CARTESIAN_POINT ( 'NONE',  ( -2.499999999999999556, -4.330127018922193649, 6.000000000000000000 ) ) ;
#304 = COORDINATED_UNIVERSAL_TIME_OFFSET ( 5, 30, .AHEAD. ) ;
#305 = DIRECTION ( 'NONE',  ( 0.5000000000000002220, -0.8660254037844384856, 0.000000000000000000 ) ) ;
#306 = AXIS2_PLACEMENT_3D ( 'NONE', #249, #258, #423 ) ;
#307 = PERSON_AND_ORGANIZATION_ROLE ( 'creator' ) ;
#308 = DIRECTION ( 'NONE',  ( 0.8660254037844387076, -0.5000000000000001110, 0.000000000000000000 ) ) ;
#309 = ORIENTED_EDGE ( 'NONE', *, *, #111, .F. ) ;
#310 = CARTESIAN_POINT ( 'NONE',  ( 0.000000000000000000, 0.000000000000000000, 0.000000000000000000 ) ) ;
#311 = DATE_TIME_ROLE ( 'creation_date' ) ;
#312 = CARTESIAN_POINT ( 'NONE',  ( -2.499999999999999556, -4.330127018922193649, 6.000000000000000000 ) ) ;
#313 = APPROVAL_DATE_TIME ( #154, #44 ) ;
#314 = EDGE_CURVE ( 'NONE', #188, #11, #287, .T. ) ;
#315 = VECTOR ( 'NONE', #173, 1000.000000000000000 ) ;
#316 =( NAMED_UNIT ( * ) PLANE_ANGLE_UNIT ( ) SI_UNIT ( $, .RADIAN. ) );
#317 = CYLINDRICAL_SURFACE ( 'NONE', #201, 4.000000000000000000 ) ;
#318 = MANIFOLD_SOLID_BREP ( 'Cut-Extrude2', #340 ) ;
#319 = CARTESIAN_POINT ( 'NONE',  ( 0.000000000000000000, 0.000000000000000000, 6.000000000000000000 ) ) ;
#320 = CARTESIAN_POINT ( 'NONE',  ( -2.500000000000001332, 4.330127018922192761, 0.000000000000000000 ) ) ;
#321 = DIRECTION ( 'NONE',  ( -0.000000000000000000, -0.000000000000000000, -1.000000000000000000 ) ) ;
#322 = ORIENTED_EDGE ( 'NONE', *, *, #402, .F. ) ;
#323 = DIRECTION ( 'NONE',  ( 0.000000000000000000, 0.000000000000000000, -1.000000000000000000 ) ) ;
#324 = ORIENTED_EDGE ( 'NONE', *, *, #427, .T. ) ;
#325 = CARTESIAN_POINT ( 'NONE',  ( 0.000000000000000000, 0.000000000000000000, -12.00000000000000000 ) ) ;
#326 = AXIS2_PLACEMENT_3D ( 'NONE', #442, #308, #202 ) ;
#327 = CARTESIAN_POINT ( 'NONE',  ( 2.499999999999999112, -4.330127018922193649, 6.000000000000000000 ) ) ;
#328 = ORIENTED_EDGE ( 'NONE', *, *, #405, .T. ) ;
#329 = VECTOR ( 'NONE', #256, 1000.000000000000227 ) ;
#330 =( LENGTH_UNIT ( ) NAMED_UNIT ( * ) SI_UNIT ( .MILLI., .METRE. ) );
#331 = DIRECTION ( 'NONE',  ( 1.000000000000000000, 1.734723475976807834E-16, 0.000000000000000000 ) ) ;
#332 = APPROVAL_ROLE ( '' ) ;
#333 = PERSON_AND_ORGANIZATION_ROLE ( 'design_owner' ) ;
#334 = ADVANCED_FACE ( 'NONE', ( #379 ), #317, .T. ) ;
#335 = ORIENTED_EDGE ( 'NONE', *, *, #246, .T. ) ;
#336 = COORDINATED_UNIVERSAL_TIME_OFFSET ( 5, 30, .AHEAD. ) ;
#337 = DIRECTION ( 'NONE',  ( -1.000000000000000000, 0.000000000000000000, 0.000000000000000000 ) ) ;
#338 = LOCAL_TIME ( 9, 46, 17.00000000000000000, #407 ) ;
#339 = ORIENTED_EDGE ( 'NONE', *, *, #314, .T. ) ;
#340 = CLOSED_SHELL ( 'NONE', ( #87, #152, #80, #272, #76, #286, #296, #146, #4, #131, #334, #105, #353 ) ) ;
#341 = DIRECTION ( 'NONE',  ( 0.000000000000000000, 0.000000000000000000, -1.000000000000000000 ) ) ;
#342 = PERSON_AND_ORGANIZATION ( #413, #67 ) ;
#343 = PLANE ( 'NONE',  #428 ) ;
#344 = CARTESIAN_POINT ( 'NONE',  ( 2.499999999999996447, 4.330127018922193649, 6.000000000000000000 ) ) ;
#345 = ORIENTED_EDGE ( 'NONE', *, *, #159, .F. ) ;
#346 = PERSON_AND_ORGANIZATION ( #413, #67 ) ;
#347 = VECTOR ( 'NONE', #283, 1000.000000000000000 ) ;
#348 = ORIENTED_EDGE ( 'NONE', *, *, #170, .T. ) ;
#349 = PRODUCT_DEFINITION ( 'UNKNOWN', '', #265, #431 ) ;
#350 = EDGE_LOOP ( 'NONE', ( #426, #169 ) ) ;
#351 = CARTESIAN_POINT ( 'NONE',  ( 0.000000000000000000, 0.000000000000000000, -12.00000000000000000 ) ) ;
#352 = DIRECTION ( 'NONE',  ( -0.000000000000000000, -0.000000000000000000, -1.000000000000000000 ) ) ;
#353 = ADVANCED_FACE ( 'NONE', ( #455 ), #218, .F. ) ;
#354 = ORIENTED_EDGE ( 'NONE', *, *, #156, .T. ) ;
#355 = DIRECTION ( 'NONE',  ( -0.5000000000000003331, -0.8660254037844384856, 0.000000000000000000 ) ) ;
#356 = EDGE_LOOP ( 'NONE', ( #339, #364, #57, #136 ) ) ;
#357 = CARTESIAN_POINT ( 'NONE',  ( 0.000000000000000000, 0.000000000000000000, 0.000000000000000000 ) ) ;
#358 = FACE_OUTER_BOUND ( 'NONE', #457, .T. ) ;
#359 = DIRECTION ( 'NONE',  ( -0.5000000000000000000, -0.8660254037844385966, 0.000000000000000000 ) ) ;
#360 = VECTOR ( 'NONE', #389, 1000.000000000000000 ) ;
#361 = CARTESIAN_POINT ( 'NONE',  ( -5.000000000000000888, -3.717264591378874669E-16, 6.000000000000000000 ) ) ;
#362 = AXIS2_PLACEMENT_3D ( 'NONE', #288, #177, #183 ) ;
#363 = ORIENTED_EDGE ( 'NONE', *, *, #63, .T. ) ;
#364 = ORIENTED_EDGE ( 'NONE', *, *, #156, .F. ) ;
#365 = PERSON_AND_ORGANIZATION ( #413, #67 ) ;
#366 =( GEOMETRIC_REPRESENTATION_CONTEXT ( 3 ) GLOBAL_UNCERTAINTY_ASSIGNED_CONTEXT ( ( #158 ) ) GLOBAL_UNIT_ASSIGNED_CONTEXT ( ( #330, #316, #282 ) ) REPRESENTATION_CONTEXT ( 'NONE', 'WORKASPACE' ) );
#367 = AXIS2_PLACEMENT_3D ( 'NONE', #223, #112, #130 ) ;
#368 = CARTESIAN_POINT ( 'NONE',  ( 2.499999999999999112, -4.330127018922193649, 0.000000000000000000 ) ) ;
#369 = AXIS2_PLACEMENT_3D ( 'NONE', #310, #145, #72 ) ;
#370 = DIRECTION ( 'NONE',  ( -0.000000000000000000, -0.000000000000000000, -1.000000000000000000 ) ) ;
#371 = DIRECTION ( 'NONE',  ( 0.000000000000000000, -0.000000000000000000, 1.000000000000000000 ) ) ;
#372 = COORDINATED_UNIVERSAL_TIME_OFFSET ( 5, 30, .AHEAD. ) ;
#373 = CARTESIAN_POINT ( 'NONE',  ( -2.499999999999999556, -4.330127018922193649, 0.000000000000000000 ) ) ;
#374 = AXIS2_PLACEMENT_3D ( 'NONE', #357, #323, #97 ) ;
#375 = AXIS2_PLACEMENT_3D ( 'NONE', #100, #30, #219 ) ;
#376 = DIRECTION ( 'NONE',  ( -0.5000000000000002220, 0.8660254037844384856, 0.000000000000000000 ) ) ;
#377 = ORIENTED_EDGE ( 'NONE', *, *, #29, .F. ) ;
#378 = CARTESIAN_POINT ( 'NONE',  ( -4.000000000000000000, 4.898587196589412829E-16, 0.000000000000000000 ) ) ;
#379 = FACE_OUTER_BOUND ( 'NONE', #54, .T. ) ;
#380 = DIRECTION ( 'NONE',  ( 1.000000000000000000, 0.000000000000000000, 0.000000000000000000 ) ) ;
#381 = VERTEX_POINT ( 'NONE', #320 ) ;
#382 = CC_DESIGN_DATE_AND_TIME_ASSIGNMENT ( #121, #311, ( #349 ) ) ;
#383 = CARTESIAN_POINT ( 'NONE',  ( 0.000000000000000000, 0.000000000000000000, -12.00000000000000000 ) ) ;
#384 = ORIENTED_EDGE ( 'NONE', *, *, #446, .T. ) ;
#385 = DIRECTION ( 'NONE',  ( -0.000000000000000000, -0.000000000000000000, -1.000000000000000000 ) ) ;
#386 = CARTESIAN_POINT ( 'NONE',  ( 2.499999999999999112, -4.330127018922193649, 6.000000000000000000 ) ) ;
#387 = CARTESIAN_POINT ( 'NONE',  ( -5.000000000000000888, -3.717264591378874669E-16, 0.000000000000000000 ) ) ;
#388 = PLANE ( 'NONE',  #180 ) ;
#389 = DIRECTION ( 'NONE',  ( -1.000000000000000000, -1.734723475976808080E-16, 0.000000000000000000 ) ) ;
#390 = FACE_OUTER_BOUND ( 'NONE', #248, .T. ) ;
#391 = CARTESIAN_POINT ( 'NONE',  ( 0.000000000000000000, 0.000000000000000000, 0.000000000000000000 ) ) ;
#392 = VECTOR ( 'NONE', #194, 1000.000000000000000 ) ;
#393 = EDGE_CURVE ( 'NONE', #206, #238, #91, .T. ) ;
#394 = VERTEX_POINT ( 'NONE', #292 ) ;
#395 = CC_DESIGN_PERSON_AND_ORGANIZATION_ASSIGNMENT ( #128, #307, ( #349 ) ) ;
#396 = VECTOR ( 'NONE', #447, 1000.000000000000000 ) ;
#397 = DATE_AND_TIME ( #300, #297 ) ;
#398 = CARTESIAN_POINT ( 'NONE',  ( -5.000000000000000888, -3.717264591378874669E-16, 0.000000000000000000 ) ) ;
#399 = CALENDAR_DATE ( 2026, 9, 9 ) ;
#400 = LINE ( 'NONE', #24, #264 ) ;
#401 = DIRECTION ( 'NONE',  ( 1.000000000000000000, 0.000000000000000000, 0.000000000000000000 ) ) ;
#402 = EDGE_CURVE ( 'NONE', #11, #381, #102, .T. ) ;
#403 = ORIENTED_EDGE ( 'NONE', *, *, #118, .T. ) ;
#404 = PERSON_AND_ORGANIZATION ( #413, #67 ) ;
#405 = EDGE_CURVE ( 'NONE', #291, #294, #207, .T. ) ;
#406 = ORIENTED_EDGE ( 'NONE', *, *, #176, .T. ) ;
#407 = COORDINATED_UNIVERSAL_TIME_OFFSET ( 5, 30, .AHEAD. ) ;
#408 = CARTESIAN_POINT ( 'NONE',  ( 0.000000000000000000, 0.000000000000000000, -12.00000000000000000 ) ) ;
#409 = VERTEX_POINT ( 'NONE', #33 ) ;
#410 = CIRCLE ( 'NONE', #453, 4.000000000000000000 ) ;
#411 = AXIS2_PLACEMENT_3D ( 'NONE', #383, #230, #337 ) ;
#412 = CARTESIAN_POINT ( 'NONE',  ( 2.499999999999996447, 4.330127018922193649, 6.000000000000000000 ) ) ;
#413 = PERSON ( 'UNSPECIFIED', 'UNSPECIFIED', 'UNSPECIFIED', ('UNSPECIFIED'), ('UNSPECIFIED'), ('UNSPECIFIED') ) ;
#414 = DIRECTION ( 'NONE',  ( 0.000000000000000000, 0.000000000000000000, -1.000000000000000000 ) ) ;
#415 = VERTEX_POINT ( 'NONE', #378 ) ;
#416 = CARTESIAN_POINT ( 'NONE',  ( -2.500000000000001332, 4.330127018922192761, 6.000000000000000000 ) ) ;
#417 = CC_DESIGN_PERSON_AND_ORGANIZATION_ASSIGNMENT ( #404, #88, ( #265 ) ) ;
#418 = DIRECTION ( 'NONE',  ( 1.000000000000000000, 0.000000000000000000, 0.000000000000000000 ) ) ;
#419 = ORIENTED_EDGE ( 'NONE', *, *, #270, .F. ) ;
#420 = FACE_OUTER_BOUND ( 'NONE', #31, .T. ) ;
#421 = EDGE_CURVE ( 'NONE', #153, #238, #165, .T. ) ;
#422 = EDGE_LOOP ( 'NONE', ( #309, #5 ) ) ;
#423 = DIRECTION ( 'NONE',  ( -1.000000000000000000, 0.000000000000000000, 0.000000000000000000 ) ) ;
#424 = DIRECTION ( 'NONE',  ( -0.000000000000000000, -0.000000000000000000, -1.000000000000000000 ) ) ;
#425 = EDGE_LOOP ( 'NONE', ( #96, #255, #363, #231 ) ) ;
#426 = ORIENTED_EDGE ( 'NONE', *, *, #176, .F. ) ;
#427 = EDGE_CURVE ( 'NONE', #101, #162, #35, .T. ) ;
#428 = AXIS2_PLACEMENT_3D ( 'NONE', #21, #157, #305 ) ;
#429 = ORIENTED_EDGE ( 'NONE', *, *, #20, .T. ) ;
#430 = FACE_BOUND ( 'NONE', #350, .T. ) ;
#431 = DESIGN_CONTEXT ( 'detailed design', #70, 'design' ) ;
#432 = DIRECTION ( 'NONE',  ( -0.5000000000000000000, -0.8660254037844385966, 0.000000000000000000 ) ) ;
#433 = VECTOR ( 'NONE', #370, 1000.000000000000000 ) ;
#434 = EDGE_CURVE ( 'NONE', #415, #204, #53, .T. ) ;
#435 = CIRCLE ( 'NONE', #362, 4.000000000000000000 ) ;
#436 = CARTESIAN_POINT ( 'NONE',  ( -4.000000000000000000, 4.898587196589412829E-16, -12.00000000000000000 ) ) ;
#437 = VERTEX_POINT ( 'NONE', #171 ) ;
#438 = CC_DESIGN_PERSON_AND_ORGANIZATION_ASSIGNMENT ( #346, #449, ( #16 ) ) ;
#439 = PRODUCT_DEFINITION_SHAPE ( 'NONE', 'NONE',  #349 ) ;
#440 = PERSON_AND_ORGANIZATION ( #413, #67 ) ;
#441 = LINE ( 'NONE', #19, #179 ) ;
#442 = CARTESIAN_POINT ( 'NONE',  ( -2.500000000000001332, 4.330127018922192761, 6.000000000000000000 ) ) ;
#443 = LOCAL_TIME ( 9, 46, 17.00000000000000000, #372 ) ;
#444 = VECTOR ( 'NONE', #321, 1000.000000000000000 ) ;
#445 = CALENDAR_DATE ( 2026, 9, 9 ) ;
#446 = EDGE_CURVE ( 'NONE', #294, #394, #301, .T. ) ;
#447 = DIRECTION ( 'NONE',  ( 1.000000000000000000, 0.000000000000000000, 0.000000000000000000 ) ) ;
#448 = ORIENTED_EDGE ( 'NONE', *, *, #125, .F. ) ;
#449 = PERSON_AND_ORGANIZATION_ROLE ( 'classification_officer' ) ;
#450 = FACE_OUTER_BOUND ( 'NONE', #209, .T. ) ;
#451 = ORIENTED_EDGE ( 'NONE', *, *, #118, .F. ) ;
#452 = CARTESIAN_POINT ( 'NONE',  ( 4.999999999999999112, -2.230358754827323125E-15, 0.000000000000000000 ) ) ;
#453 = AXIS2_PLACEMENT_3D ( 'NONE', #151, #341, #83 ) ;
#454 = AXIS2_PLACEMENT_3D ( 'NONE', #135, #352, #290 ) ;
#455 = FACE_OUTER_BOUND ( 'NONE', #425, .T. ) ;
#456 = PLANE ( 'NONE',  #90 ) ;
#457 = EDGE_LOOP ( 'NONE', ( #269, #429 ) ) ;
ENDSEC;
END-ISO-10303-21;
