ISO-10303-21;
HEADER;
FILE_DESCRIPTION (( 'STEP AP203' ),
    '1' );
FILE_NAME ('GripperFlatSurface_Default_sldprt.STEP',
    '2026-09-01T12:58:31',
    ( '' ),
    ( '' ),
    'SwSTEP 2.0',
    'SolidWorks 2020',
    '' );
FILE_SCHEMA (( 'CONFIG_CONTROL_DESIGN' ));
ENDSEC;

DATA;
#1 = FACE_OUTER_BOUND ( 'NONE', #338, .T. ) ;
#2 = VERTEX_POINT ( 'NONE', #108 ) ;
#3 = CARTESIAN_POINT ( 'NONE',  ( 0.000000000000000000, 0.000000000000000000, 0.000000000000000000 ) ) ;
#4 = ORIENTED_EDGE ( 'NONE', *, *, #364, .T. ) ;
#5 = EDGE_LOOP ( 'NONE', ( #268, #310 ) ) ;
#6 = PERSON_AND_ORGANIZATION ( #366, #285 ) ;
#7 = AXIS2_PLACEMENT_3D ( 'NONE', #290, #138, #378 ) ;
#8 = ORIENTED_EDGE ( 'NONE', *, *, #13, .T. ) ;
#9 = PERSON_AND_ORGANIZATION ( #366, #285 ) ;
#10 = ORIENTED_EDGE ( 'NONE', *, *, #223, .T. ) ;
#11 = DATE_AND_TIME ( #271, #276 ) ;
#12 = DIRECTION ( 'NONE',  ( 8.673617379884035472E-17, -1.000000000000000000, 0.000000000000000000 ) ) ;
#13 = EDGE_CURVE ( 'NONE', #2, #341, #228, .T. ) ;
#14 = DIRECTION ( 'NONE',  ( -1.000000000000000000, 0.000000000000000000, 0.000000000000000000 ) ) ;
#15 = CC_DESIGN_PERSON_AND_ORGANIZATION_ASSIGNMENT ( #6, #122, ( #226 ) ) ;
#16 = DIRECTION ( 'NONE',  ( -1.000000000000000000, 0.000000000000000000, 0.000000000000000000 ) ) ;
#17 = CIRCLE ( 'NONE', #86, 1.500000000000001332 ) ;
#18 = LINE ( 'NONE', #133, #24 ) ;
#19 = CALENDAR_DATE ( 2026, 1, 9 ) ;
#20 = DIRECTION ( 'NONE',  ( -0.000000000000000000, -0.000000000000000000, -1.000000000000000000 ) ) ;
#21 = DIRECTION ( 'NONE',  ( 1.000000000000000000, 0.000000000000000000, 0.000000000000000000 ) ) ;
#22 = VECTOR ( 'NONE', #356, 1000.000000000000000 ) ;
#23 = CARTESIAN_POINT ( 'NONE',  ( -27.50000000000000711, -3.469446951953614189E-15, 0.000000000000000000 ) ) ;
#24 = VECTOR ( 'NONE', #45, 1000.000000000000000 ) ;
#25 = LINE ( 'NONE', #111, #161 ) ;
#26 = FACE_OUTER_BOUND ( 'NONE', #254, .T. ) ;
#27 = CIRCLE ( 'NONE', #47, 1.500000000000001332 ) ;
#28 = DIRECTION ( 'NONE',  ( -0.000000000000000000, 0.000000000000000000, 1.000000000000000000 ) ) ;
#29 = DIRECTION ( 'NONE',  ( 0.000000000000000000, -0.000000000000000000, -1.000000000000000000 ) ) ;
#30 = LINE ( 'NONE', #210, #174 ) ;
#31 = CARTESIAN_POINT ( 'NONE',  ( -30.00000000000000711, 20.00000000000000000, 2.000000000000000000 ) ) ;
#32 = ORIENTED_EDGE ( 'NONE', *, *, #246, .F. ) ;
#33 = ADVANCED_FACE ( 'NONE', ( #376 ), #197, .F. ) ;
#34 = PERSON_AND_ORGANIZATION_ROLE ( 'design_owner' ) ;
#35 = ORIENTED_EDGE ( 'NONE', *, *, #325, .F. ) ;
#36 = ORIENTED_EDGE ( 'NONE', *, *, #69, .F. ) ;
#37 = EDGE_CURVE ( 'NONE', #94, #153, #18, .T. ) ;
#38 = APPROVAL_ROLE ( '' ) ;
#39 = ORIENTED_EDGE ( 'NONE', *, *, #315, .F. ) ;
#40 = LOCAL_TIME ( 18, 28, 31.00000000000000000, #154 ) ;
#41 = DESIGN_CONTEXT ( 'detailed design', #75, 'design' ) ;
#42 = ORIENTED_EDGE ( 'NONE', *, *, #355, .F. ) ;
#43 = APPROVAL_STATUS ( 'not_yet_approved' ) ;
#44 = EDGE_CURVE ( 'NONE', #190, #66, #164, .T. ) ;
#45 = DIRECTION ( 'NONE',  ( -0.000000000000000000, -0.000000000000000000, -1.000000000000000000 ) ) ;
#46 = PERSON_AND_ORGANIZATION ( #366, #285 ) ;
#47 = AXIS2_PLACEMENT_3D ( 'NONE', #381, #57, #298 ) ;
#48 = AXIS2_PLACEMENT_3D ( 'NONE', #79, #131, #224 ) ;
#49 = CARTESIAN_POINT ( 'NONE',  ( -30.00000000000000711, 20.00000000000000000, 2.000000000000000000 ) ) ;
#50 = CARTESIAN_POINT ( 'NONE',  ( 29.99999999999999645, -20.00000000000000000, 0.000000000000000000 ) ) ;
#51 = DIRECTION ( 'NONE',  ( 8.673617379884035472E-17, -1.000000000000000000, 0.000000000000000000 ) ) ;
#52 = CARTESIAN_POINT ( 'NONE',  ( -30.00000000000000711, 20.00000000000000000, 0.000000000000000000 ) ) ;
#53 = CARTESIAN_POINT ( 'NONE',  ( 25.99999999999999645, 0.000000000000000000, 0.000000000000000000 ) ) ;
#54 = AXIS2_PLACEMENT_3D ( 'NONE', #305, #29, #306 ) ;
#55 = FACE_OUTER_BOUND ( 'NONE', #99, .T. ) ;
#56 = PLANE ( 'NONE',  #207 ) ;
#57 = DIRECTION ( 'NONE',  ( 0.000000000000000000, 0.000000000000000000, -1.000000000000000000 ) ) ;
#58 = LINE ( 'NONE', #145, #296 ) ;
#59 = APPROVAL ( #152, 'UNSPECIFIED' ) ;
#60 = CIRCLE ( 'NONE', #189, 1.500000000000001332 ) ;
#61 = DIRECTION ( 'NONE',  ( 1.000000000000000000, 0.000000000000000000, 0.000000000000000000 ) ) ;
#62 = DIRECTION ( 'NONE',  ( -0.000000000000000000, -0.000000000000000000, -1.000000000000000000 ) ) ;
#63 = ADVANCED_FACE ( 'NONE', ( #347, #375, #106 ), #196, .F. ) ;
#64 = ORIENTED_EDGE ( 'NONE', *, *, #266, .T. ) ;
#65 = DIRECTION ( 'NONE',  ( -1.000000000000000000, 0.000000000000000000, 0.000000000000000000 ) ) ;
#66 = VERTEX_POINT ( 'NONE', #281 ) ;
#67 = CALENDAR_DATE ( 2026, 1, 9 ) ;
#68 = CC_DESIGN_SECURITY_CLASSIFICATION ( #137, ( #226 ) ) ;
#69 = EDGE_CURVE ( 'NONE', #307, #66, #248, .T. ) ;
#70 = MANIFOLD_SOLID_BREP ( 'Cut-Extrude1', #377 ) ;
#71 = EDGE_LOOP ( 'NONE', ( #272, #8, #115, #215 ) ) ;
#72 = COORDINATED_UNIVERSAL_TIME_OFFSET ( 5, 30, .AHEAD. ) ;
#73 = ORIENTED_EDGE ( 'NONE', *, *, #203, .T. ) ;
#74 = ORIENTED_EDGE ( 'NONE', *, *, #142, .T. ) ;
#75 = APPLICATION_CONTEXT ( 'configuration controlled 3d designs of mechanical parts and assemblies' ) ;
#76 = CC_DESIGN_PERSON_AND_ORGANIZATION_ASSIGNMENT ( #98, #195, ( #124 ) ) ;
#77 = VECTOR ( 'NONE', #353, 1000.000000000000000 ) ;
#78 = APPROVAL_ROLE ( '' ) ;
#79 = CARTESIAN_POINT ( 'NONE',  ( 0.000000000000000000, 0.000000000000000000, 0.000000000000000000 ) ) ;
#80 = DIRECTION ( 'NONE',  ( -1.000000000000000000, 0.000000000000000000, 0.000000000000000000 ) ) ;
#81 = LINE ( 'NONE', #322, #256 ) ;
#82 = DIRECTION ( 'NONE',  ( -0.000000000000000000, -0.000000000000000000, -1.000000000000000000 ) ) ;
#83 = PLANE ( 'NONE',  #183 ) ;
#84 = LINE ( 'NONE', #52, #22 ) ;
#85 = CARTESIAN_POINT ( 'NONE',  ( -30.00000000000000711, 20.00000000000000000, 0.000000000000000000 ) ) ;
#86 = AXIS2_PLACEMENT_3D ( 'NONE', #23, #140, #259 ) ;
#87 = LINE ( 'NONE', #232, #77 ) ;
#88 = FACE_OUTER_BOUND ( 'NONE', #278, .T. ) ;
#89 = EDGE_CURVE ( 'NONE', #341, #247, #323, .T. ) ;
#90 = APPROVAL ( #43, 'UNSPECIFIED' ) ;
#91 = LINE ( 'NONE', #148, #283 ) ;
#92 =( NAMED_UNIT ( * ) PLANE_ANGLE_UNIT ( ) SI_UNIT ( $, .RADIAN. ) );
#93 = ORIENTED_EDGE ( 'NONE', *, *, #223, .F. ) ;
#94 = VERTEX_POINT ( 'NONE', #166 ) ;
#95 = DATE_AND_TIME ( #367, #361 ) ;
#96 = ORIENTED_EDGE ( 'NONE', *, *, #191, .F. ) ;
#97 = ORIENTED_EDGE ( 'NONE', *, *, #266, .F. ) ;
#98 = PERSON_AND_ORGANIZATION ( #366, #285 ) ;
#99 = EDGE_LOOP ( 'NONE', ( #251, #199, #219, #156 ) ) ;
#100 = ORIENTED_EDGE ( 'NONE', *, *, #342, .F. ) ;
#101 = ADVANCED_FACE ( 'NONE', ( #284 ), #321, .F. ) ;
#102 = APPROVAL_PERSON_ORGANIZATION ( #9, #309, #78 ) ;
#103 = EDGE_LOOP ( 'NONE', ( #185, #120, #188, #100 ) ) ;
#104 = VECTOR ( 'NONE', #105, 1000.000000000000000 ) ;
#105 = DIRECTION ( 'NONE',  ( -0.000000000000000000, -0.000000000000000000, -1.000000000000000000 ) ) ;
#106 = FACE_OUTER_BOUND ( 'NONE', #103, .T. ) ;
#107 = DIRECTION ( 'NONE',  ( -0.000000000000000000, -0.000000000000000000, -1.000000000000000000 ) ) ;
#108 = CARTESIAN_POINT ( 'NONE',  ( 29.99999999999999289, 20.00000000000000000, 2.000000000000000000 ) ) ;
#109 = CARTESIAN_POINT ( 'NONE',  ( -30.00000000000000355, -20.00000000000000000, 2.000000000000000000 ) ) ;
#110 = CARTESIAN_POINT ( 'NONE',  ( -26.00000000000000711, -3.285749932081511072E-15, 2.000000000000000000 ) ) ;
#111 = CARTESIAN_POINT ( 'NONE',  ( -30.00000000000000355, -20.00000000000000000, 0.000000000000000000 ) ) ;
#112 = DIRECTION ( 'NONE',  ( 0.000000000000000000, -0.000000000000000000, 1.000000000000000000 ) ) ;
#113 = LINE ( 'NONE', #265, #344 ) ;
#114 = DIRECTION ( 'NONE',  ( -1.000000000000000000, -0.000000000000000000, -0.000000000000000000 ) ) ;
#115 = ORIENTED_EDGE ( 'NONE', *, *, #89, .T. ) ;
#116 = ORIENTED_EDGE ( 'NONE', *, *, #299, .F. ) ;
#117 = AXIS2_PLACEMENT_3D ( 'NONE', #235, #300, #65 ) ;
#118 = APPROVAL_ROLE ( '' ) ;
#119 = ORIENTED_EDGE ( 'NONE', *, *, #246, .T. ) ;
#120 = ORIENTED_EDGE ( 'NONE', *, *, #203, .F. ) ;
#121 = VERTEX_POINT ( 'NONE', #204 ) ;
#122 = PERSON_AND_ORGANIZATION_ROLE ( 'creator' ) ;
#123 = AXIS2_PLACEMENT_3D ( 'NONE', #49, #172, #373 ) ;
#124 = PRODUCT_DEFINITION ( 'UNKNOWN', '', #226, #41 ) ;
#125 = ORIENTED_EDGE ( 'NONE', *, *, #69, .T. ) ;
#126 = DATE_AND_TIME ( #245, #370 ) ;
#127 = DIRECTION ( 'NONE',  ( -0.000000000000000000, -0.000000000000000000, -1.000000000000000000 ) ) ;
#128 = EDGE_CURVE ( 'NONE', #311, #193, #84, .T. ) ;
#129 = COORDINATED_UNIVERSAL_TIME_OFFSET ( 5, 30, .AHEAD. ) ;
#130 = APPROVAL_PERSON_ORGANIZATION ( #187, #59, #118 ) ;
#131 = DIRECTION ( 'NONE',  ( -0.000000000000000000, 0.000000000000000000, 1.000000000000000000 ) ) ;
#132 = CYLINDRICAL_SURFACE ( 'NONE', #348, 1.500000000000001332 ) ;
#133 = CARTESIAN_POINT ( 'NONE',  ( 28.99999999999999645, 1.836970198721030674E-16, 2.001000000000000334 ) ) ;
#134 = CARTESIAN_POINT ( 'NONE',  ( -27.50000000000000711, -3.469446951953614189E-15, 2.000000000000000000 ) ) ;
#135 = CARTESIAN_POINT ( 'NONE',  ( -27.50000000000000711, -3.469446951953614189E-15, 0.000000000000000000 ) ) ;
#136 = DATE_AND_TIME ( #19, #40 ) ;
#137 = SECURITY_CLASSIFICATION ( '', '', #369 ) ;
#138 = DIRECTION ( 'NONE',  ( 0.000000000000000000, 0.000000000000000000, -1.000000000000000000 ) ) ;
#139 = VECTOR ( 'NONE', #262, 1000.000000000000000 ) ;
#140 = DIRECTION ( 'NONE',  ( 0.000000000000000000, 0.000000000000000000, -1.000000000000000000 ) ) ;
#141 = LINE ( 'NONE', #328, #139 ) ;
#142 = EDGE_CURVE ( 'NONE', #190, #368, #227, .T. ) ;
#143 = AXIS2_PLACEMENT_3D ( 'NONE', #198, #107, #16 ) ;
#144 = DIRECTION ( 'NONE',  ( -8.673617379884035472E-17, 1.000000000000000000, -0.000000000000000000 ) ) ;
#145 = CARTESIAN_POINT ( 'NONE',  ( -30.00000000000000355, -20.00000000000000000, 2.000000000000000000 ) ) ;
#146 = CARTESIAN_POINT ( 'NONE',  ( 29.99999999999999645, -20.00000000000000000, 2.000000000000000000 ) ) ;
#147 = DIRECTION ( 'NONE',  ( 1.000000000000000000, 0.000000000000000000, 0.000000000000000000 ) ) ;
#148 = CARTESIAN_POINT ( 'NONE',  ( -30.00000000000000711, 20.00000000000000000, 0.000000000000000000 ) ) ;
#149 = CIRCLE ( 'NONE', #54, 1.500000000000001332 ) ;
#150 = EDGE_LOOP ( 'NONE', ( #212, #97, #374, #217 ) ) ;
#151 =( GEOMETRIC_REPRESENTATION_CONTEXT ( 3 ) GLOBAL_UNCERTAINTY_ASSIGNED_CONTEXT ( ( #250 ) ) GLOBAL_UNIT_ASSIGNED_CONTEXT ( ( #360, #92, #333 ) ) REPRESENTATION_CONTEXT ( 'NONE', 'WORKASPACE' ) );
#152 = APPROVAL_STATUS ( 'not_yet_approved' ) ;
#153 = VERTEX_POINT ( 'NONE', #261 ) ;
#154 = COORDINATED_UNIVERSAL_TIME_OFFSET ( 5, 30, .AHEAD. ) ;
#155 = ADVANCED_FACE ( 'NONE', ( #55 ), #83, .F. ) ;
#156 = ORIENTED_EDGE ( 'NONE', *, *, #355, .T. ) ;
#157 = CC_DESIGN_DATE_AND_TIME_ASSIGNMENT ( #11, #249, ( #137 ) ) ;
#158 = VERTEX_POINT ( 'NONE', #175 ) ;
#159 = APPROVAL_DATE_TIME ( #126, #90 ) ;
#160 = VECTOR ( 'NONE', #127, 1000.000000000000000 ) ;
#161 = VECTOR ( 'NONE', #179, 1000.000000000000000 ) ;
#162 = ORIENTED_EDGE ( 'NONE', *, *, #364, .F. ) ;
#163 = PERSON_AND_ORGANIZATION ( #366, #285 ) ;
#164 = LINE ( 'NONE', #258, #160 ) ;
#165 = PERSON_AND_ORGANIZATION_ROLE ( 'classification_officer' ) ;
#166 = CARTESIAN_POINT ( 'NONE',  ( 28.99999999999999645, 1.836970198721029934E-16, 2.000000000000000000 ) ) ;
#167 = EDGE_CURVE ( 'NONE', #341, #311, #87, .T. ) ;
#168 = CC_DESIGN_APPROVAL ( #90, ( #137 ) ) ;
#169 = EDGE_LOOP ( 'NONE', ( #36, #116 ) ) ;
#170 = LINE ( 'NONE', #257, #104 ) ;
#171 = LINE ( 'NONE', #329, #358 ) ;
#172 = DIRECTION ( 'NONE',  ( 1.000000000000000000, 8.673617379884035472E-17, -0.000000000000000000 ) ) ;
#173 = DIRECTION ( 'NONE',  ( 0.000000000000000000, -1.000000000000000000, 0.000000000000000000 ) ) ;
#174 = VECTOR ( 'NONE', #62, 1000.000000000000000 ) ;
#175 = CARTESIAN_POINT ( 'NONE',  ( 25.99999999999999645, 0.000000000000000000, 2.000000000000000000 ) ) ;
#176 = EDGE_CURVE ( 'NONE', #244, #153, #292, .T. ) ;
#177 = PRODUCT_DEFINITION_SHAPE ( 'NONE', 'NONE',  #124 ) ;
#178 = DIRECTION ( 'NONE',  ( 0.000000000000000000, -0.000000000000000000, -1.000000000000000000 ) ) ;
#179 = DIRECTION ( 'NONE',  ( 1.000000000000000000, 0.000000000000000000, 0.000000000000000000 ) ) ;
#180 = CARTESIAN_POINT ( 'NONE',  ( -29.00000000000000711, -3.469446951953614189E-15, 2.000000000000000000 ) ) ;
#181 = CC_DESIGN_PERSON_AND_ORGANIZATION_ASSIGNMENT ( #213, #34, ( #209 ) ) ;
#182 = AXIS2_PLACEMENT_3D ( 'NONE', #206, #286, #12 ) ;
#183 = AXIS2_PLACEMENT_3D ( 'NONE', #205, #173, #202 ) ;
#184 = FACE_OUTER_BOUND ( 'NONE', #71, .T. ) ;
#185 = ORIENTED_EDGE ( 'NONE', *, *, #214, .F. ) ;
#186 = ORIENTED_EDGE ( 'NONE', *, *, #282, .F. ) ;
#187 = PERSON_AND_ORGANIZATION ( #366, #285 ) ;
#188 = ORIENTED_EDGE ( 'NONE', *, *, #128, .F. ) ;
#189 = AXIS2_PLACEMENT_3D ( 'NONE', #230, #229, #354 ) ;
#190 = VERTEX_POINT ( 'NONE', #110 ) ;
#191 = EDGE_CURVE ( 'NONE', #94, #158, #60, .T. ) ;
#192 = PERSON_AND_ORGANIZATION ( #366, #285 ) ;
#193 = VERTEX_POINT ( 'NONE', #294 ) ;
#194 = ORIENTED_EDGE ( 'NONE', *, *, #214, .T. ) ;
#195 = PERSON_AND_ORGANIZATION_ROLE ( 'creator' ) ;
#196 = PLANE ( 'NONE',  #48 ) ;
#197 = CYLINDRICAL_SURFACE ( 'NONE', #260, 1.500000000000001332 ) ;
#198 = CARTESIAN_POINT ( 'NONE',  ( 27.49999999999999645, 0.000000000000000000, 2.001000000000000334 ) ) ;
#199 = ORIENTED_EDGE ( 'NONE', *, *, #167, .F. ) ;
#200 = CARTESIAN_POINT ( 'NONE',  ( 27.49999999999999645, 0.000000000000000000, 2.001000000000000334 ) ) ;
#201 = DIRECTION ( 'NONE',  ( 0.000000000000000000, 0.000000000000000000, -1.000000000000000000 ) ) ;
#202 = DIRECTION ( 'NONE',  ( 0.000000000000000000, -0.000000000000000000, -1.000000000000000000 ) ) ;
#203 = EDGE_CURVE ( 'NONE', #193, #269, #25, .T. ) ;
#204 = CARTESIAN_POINT ( 'NONE',  ( 29.99999999999999289, 20.00000000000000000, 0.000000000000000000 ) ) ;
#205 = CARTESIAN_POINT ( 'NONE',  ( -30.00000000000000711, 20.00000000000000000, 2.000000000000000000 ) ) ;
#206 = CARTESIAN_POINT ( 'NONE',  ( 29.99999999999999289, 20.00000000000000000, 2.000000000000000000 ) ) ;
#207 = AXIS2_PLACEMENT_3D ( 'NONE', #109, #291, #112 ) ;
#208 = APPLICATION_PROTOCOL_DEFINITION ( 'international standard', 'config_control_design', 1994, #385 ) ;
#209 = PRODUCT ( 'GripperFlatSurface_Default_sldprt', 'GripperFlatSurface_Default_sldprt', '', ( #240 ) ) ;
#210 = CARTESIAN_POINT ( 'NONE',  ( 25.99999999999999645, 0.000000000000000000, 2.001000000000000334 ) ) ;
#211 = VECTOR ( 'NONE', #252, 1000.000000000000000 ) ;
#212 = ORIENTED_EDGE ( 'NONE', *, *, #128, .T. ) ;
#213 = PERSON_AND_ORGANIZATION ( #366, #285 ) ;
#214 = EDGE_CURVE ( 'NONE', #269, #121, #141, .T. ) ;
#215 = ORIENTED_EDGE ( 'NONE', *, *, #383, .T. ) ;
#216 = APPROVAL_DATE_TIME ( #95, #59 ) ;
#217 = ORIENTED_EDGE ( 'NONE', *, *, #167, .T. ) ;
#218 = EDGE_LOOP ( 'NONE', ( #10, #74 ) ) ;
#219 = ORIENTED_EDGE ( 'NONE', *, *, #13, .F. ) ;
#220 = CARTESIAN_POINT ( 'NONE',  ( -27.50000000000000711, -3.469446951953614189E-15, 2.001000000000000334 ) ) ;
#221 = EDGE_CURVE ( 'NONE', #153, #244, #27, .T. ) ;
#222 = FACE_OUTER_BOUND ( 'NONE', #239, .T. ) ;
#223 = EDGE_CURVE ( 'NONE', #368, #190, #280, .T. ) ;
#224 = DIRECTION ( 'NONE',  ( 1.000000000000000000, 0.000000000000000000, 0.000000000000000000 ) ) ;
#225 = DIRECTION ( 'NONE',  ( 1.000000000000000000, 0.000000000000000000, 0.000000000000000000 ) ) ;
#226 = PRODUCT_DEFINITION_FORMATION_WITH_SPECIFIED_SOURCE ( 'ANY', '', #209, .NOT_KNOWN. ) ;
#227 = CIRCLE ( 'NONE', #238, 1.500000000000001332 ) ;
#228 = LINE ( 'NONE', #349, #211 ) ;
#229 = DIRECTION ( 'NONE',  ( 0.000000000000000000, -0.000000000000000000, -1.000000000000000000 ) ) ;
#230 = CARTESIAN_POINT ( 'NONE',  ( 27.49999999999999645, 0.000000000000000000, 2.000000000000000000 ) ) ;
#231 = CARTESIAN_POINT ( 'NONE',  ( -30.00000000000000355, -20.00000000000000000, 2.000000000000000000 ) ) ;
#232 = CARTESIAN_POINT ( 'NONE',  ( -30.00000000000000711, 20.00000000000000000, 2.000000000000000000 ) ) ;
#233 = DIRECTION ( 'NONE',  ( -0.000000000000000000, -0.000000000000000000, -1.000000000000000000 ) ) ;
#234 = LOCAL_TIME ( 18, 28, 31.00000000000000000, #72 ) ;
#235 = CARTESIAN_POINT ( 'NONE',  ( -27.50000000000000711, -3.469446951953614189E-15, 2.001000000000000334 ) ) ;
#236 = FACE_BOUND ( 'NONE', #218, .T. ) ;
#237 = CC_DESIGN_PERSON_AND_ORGANIZATION_ASSIGNMENT ( #163, #165, ( #137 ) ) ;
#238 = AXIS2_PLACEMENT_3D ( 'NONE', #324, #326, #21 ) ;
#239 = EDGE_LOOP ( 'NONE', ( #371, #35, #4, #275 ) ) ;
#240 = MECHANICAL_CONTEXT ( 'NONE', #385, 'mechanical' ) ;
#241 = ADVANCED_FACE ( 'NONE', ( #222 ), #382, .F. ) ;
#242 = ORIENTED_EDGE ( 'NONE', *, *, #191, .T. ) ;
#243 = COORDINATED_UNIVERSAL_TIME_OFFSET ( 5, 30, .AHEAD. ) ;
#244 = VERTEX_POINT ( 'NONE', #53 ) ;
#245 = CALENDAR_DATE ( 2026, 1, 9 ) ;
#246 = EDGE_CURVE ( 'NONE', #368, #307, #170, .T. ) ;
#247 = VERTEX_POINT ( 'NONE', #231 ) ;
#248 = CIRCLE ( 'NONE', #304, 1.500000000000001332 ) ;
#249 = DATE_TIME_ROLE ( 'classification_date' ) ;
#250 = UNCERTAINTY_MEASURE_WITH_UNIT (LENGTH_MEASURE( 1.000000000000000082E-05 ), #360, 'distance_accuracy_value', 'NONE');
#251 = ORIENTED_EDGE ( 'NONE', *, *, #342, .T. ) ;
#252 = DIRECTION ( 'NONE',  ( -1.000000000000000000, -0.000000000000000000, -0.000000000000000000 ) ) ;
#253 = ADVANCED_FACE ( 'NONE', ( #320 ), #132, .F. ) ;
#254 = EDGE_LOOP ( 'NONE', ( #73, #186, #312, #64 ) ) ;
#255 = EDGE_LOOP ( 'NONE', ( #334, #93, #119, #125 ) ) ;
#256 = VECTOR ( 'NONE', #20, 1000.000000000000000 ) ;
#257 = CARTESIAN_POINT ( 'NONE',  ( -29.00000000000000711, -3.469446951953614189E-15, 2.001000000000000334 ) ) ;
#258 = CARTESIAN_POINT ( 'NONE',  ( -26.00000000000000711, -3.285749932081511072E-15, 2.001000000000000334 ) ) ;
#259 = DIRECTION ( 'NONE',  ( -1.000000000000000000, 0.000000000000000000, 0.000000000000000000 ) ) ;
#260 = AXIS2_PLACEMENT_3D ( 'NONE', #220, #82, #14 ) ;
#261 = CARTESIAN_POINT ( 'NONE',  ( 28.99999999999999645, 1.836970198721029934E-16, 0.000000000000000000 ) ) ;
#262 = DIRECTION ( 'NONE',  ( -8.673617379884035472E-17, 1.000000000000000000, -0.000000000000000000 ) ) ;
#263 = ADVANCED_FACE ( 'NONE', ( #26 ), #56, .F. ) ;
#264 = CYLINDRICAL_SURFACE ( 'NONE', #117, 1.500000000000001332 ) ;
#265 = CARTESIAN_POINT ( 'NONE',  ( 29.99999999999999289, 20.00000000000000000, 2.000000000000000000 ) ) ;
#266 = EDGE_CURVE ( 'NONE', #247, #193, #81, .T. ) ;
#267 = AXIS2_PLACEMENT_3D ( 'NONE', #3, #331, #61 ) ;
#268 = ORIENTED_EDGE ( 'NONE', *, *, #176, .F. ) ;
#269 = VERTEX_POINT ( 'NONE', #50 ) ;
#270 = PRODUCT_RELATED_PRODUCT_CATEGORY ( 'detail', '', ( #209 ) ) ;
#271 = CALENDAR_DATE ( 2026, 1, 9 ) ;
#272 = ORIENTED_EDGE ( 'NONE', *, *, #315, .T. ) ;
#273 = PERSON_AND_ORGANIZATION_ROLE ( 'design_supplier' ) ;
#274 = AXIS2_PLACEMENT_3D ( 'NONE', #330, #28, #147 ) ;
#275 = ORIENTED_EDGE ( 'NONE', *, *, #176, .T. ) ;
#276 = LOCAL_TIME ( 18, 28, 31.00000000000000000, #277 ) ;
#277 = COORDINATED_UNIVERSAL_TIME_OFFSET ( 5, 30, .AHEAD. ) ;
#278 = EDGE_LOOP ( 'NONE', ( #194, #42, #39, #313 ) ) ;
#279 = APPROVAL_DATE_TIME ( #136, #309 ) ;
#280 = CIRCLE ( 'NONE', #335, 1.500000000000001332 ) ;
#281 = CARTESIAN_POINT ( 'NONE',  ( -26.00000000000000711, -3.285749932081511072E-15, 0.000000000000000000 ) ) ;
#282 = EDGE_CURVE ( 'NONE', #340, #269, #171, .T. ) ;
#283 = VECTOR ( 'NONE', #114, 1000.000000000000000 ) ;
#284 = FACE_OUTER_BOUND ( 'NONE', #150, .T. ) ;
#285 = ORGANIZATION ( 'UNSPECIFIED', 'UNSPECIFIED', '' ) ;
#286 = DIRECTION ( 'NONE',  ( -1.000000000000000000, -8.673617379884035472E-17, 0.000000000000000000 ) ) ;
#287 = ORIENTED_EDGE ( 'NONE', *, *, #142, .F. ) ;
#288 = DATE_AND_TIME ( #67, #234 ) ;
#289 = DIRECTION ( 'NONE',  ( -0.000000000000000000, -0.000000000000000000, -1.000000000000000000 ) ) ;
#290 = CARTESIAN_POINT ( 'NONE',  ( 27.49999999999999645, 0.000000000000000000, 0.000000000000000000 ) ) ;
#291 = DIRECTION ( 'NONE',  ( 0.000000000000000000, 1.000000000000000000, 0.000000000000000000 ) ) ;
#292 = CIRCLE ( 'NONE', #7, 1.500000000000001332 ) ;
#293 = CC_DESIGN_PERSON_AND_ORGANIZATION_ASSIGNMENT ( #46, #273, ( #226 ) ) ;
#294 = CARTESIAN_POINT ( 'NONE',  ( -30.00000000000000355, -20.00000000000000000, 0.000000000000000000 ) ) ;
#295 = ADVANCED_BREP_SHAPE_REPRESENTATION ( 'GripperFlatSurface_Default_sldprt', ( #70, #267 ), #151 ) ;
#296 = VECTOR ( 'NONE', #359, 1000.000000000000000 ) ;
#297 = CARTESIAN_POINT ( 'NONE',  ( 29.99999999999999289, 20.00000000000000000, 2.000000000000000000 ) ) ;
#298 = DIRECTION ( 'NONE',  ( -1.000000000000000000, 0.000000000000000000, 0.000000000000000000 ) ) ;
#299 = EDGE_CURVE ( 'NONE', #66, #307, #17, .T. ) ;
#300 = DIRECTION ( 'NONE',  ( -0.000000000000000000, -0.000000000000000000, -1.000000000000000000 ) ) ;
#301 = CC_DESIGN_DATE_AND_TIME_ASSIGNMENT ( #288, #346, ( #124 ) ) ;
#302 = DIRECTION ( 'NONE',  ( -0.000000000000000000, -0.000000000000000000, -1.000000000000000000 ) ) ;
#303 = APPROVAL_PERSON_ORGANIZATION ( #192, #90, #38 ) ;
#304 = AXIS2_PLACEMENT_3D ( 'NONE', #135, #201, #318 ) ;
#305 = CARTESIAN_POINT ( 'NONE',  ( 27.49999999999999645, 0.000000000000000000, 2.000000000000000000 ) ) ;
#306 = DIRECTION ( 'NONE',  ( 1.000000000000000000, 0.000000000000000000, 0.000000000000000000 ) ) ;
#307 = VERTEX_POINT ( 'NONE', #380 ) ;
#308 = PLANE ( 'NONE',  #274 ) ;
#309 = APPROVAL ( #317, 'UNSPECIFIED' ) ;
#310 = ORIENTED_EDGE ( 'NONE', *, *, #221, .F. ) ;
#311 = VERTEX_POINT ( 'NONE', #85 ) ;
#312 = ORIENTED_EDGE ( 'NONE', *, *, #383, .F. ) ;
#313 = ORIENTED_EDGE ( 'NONE', *, *, #282, .T. ) ;
#314 = CC_DESIGN_APPROVAL ( #309, ( #226 ) ) ;
#315 = EDGE_CURVE ( 'NONE', #340, #2, #327, .T. ) ;
#316 = ORIENTED_EDGE ( 'NONE', *, *, #325, .T. ) ;
#317 = APPROVAL_STATUS ( 'not_yet_approved' ) ;
#318 = DIRECTION ( 'NONE',  ( -1.000000000000000000, 0.000000000000000000, 0.000000000000000000 ) ) ;
#319 = ADVANCED_FACE ( 'NONE', ( #88 ), #357, .F. ) ;
#320 = FACE_OUTER_BOUND ( 'NONE', #363, .T. ) ;
#321 = PLANE ( 'NONE',  #123 ) ;
#322 = CARTESIAN_POINT ( 'NONE',  ( -30.00000000000000355, -20.00000000000000000, 2.000000000000000000 ) ) ;
#323 = LINE ( 'NONE', #351, #362 ) ;
#324 = CARTESIAN_POINT ( 'NONE',  ( -27.50000000000000711, -3.469446951953614189E-15, 2.000000000000000000 ) ) ;
#325 = EDGE_CURVE ( 'NONE', #158, #94, #149, .T. ) ;
#326 = DIRECTION ( 'NONE',  ( 0.000000000000000000, -0.000000000000000000, -1.000000000000000000 ) ) ;
#327 = LINE ( 'NONE', #297, #350 ) ;
#328 = CARTESIAN_POINT ( 'NONE',  ( 29.99999999999999289, 20.00000000000000000, 0.000000000000000000 ) ) ;
#329 = CARTESIAN_POINT ( 'NONE',  ( 29.99999999999999645, -20.00000000000000000, 2.000000000000000000 ) ) ;
#330 = CARTESIAN_POINT ( 'NONE',  ( 0.000000000000000000, 0.000000000000000000, 2.000000000000000000 ) ) ;
#331 = DIRECTION ( 'NONE',  ( 0.000000000000000000, 0.000000000000000000, 1.000000000000000000 ) ) ;
#332 = CC_DESIGN_APPROVAL ( #59, ( #124 ) ) ;
#333 =( NAMED_UNIT ( * ) SI_UNIT ( $, .STERADIAN. ) SOLID_ANGLE_UNIT ( ) );
#334 = ORIENTED_EDGE ( 'NONE', *, *, #44, .F. ) ;
#335 = AXIS2_PLACEMENT_3D ( 'NONE', #134, #178, #225 ) ;
#336 = APPLICATION_PROTOCOL_DEFINITION ( 'international standard', 'config_control_design', 1994, #75 ) ;
#337 = ADVANCED_FACE ( 'NONE', ( #236, #384, #184 ), #308, .T. ) ;
#338 = EDGE_LOOP ( 'NONE', ( #287, #365, #345, #32 ) ) ;
#339 = SHAPE_DEFINITION_REPRESENTATION ( #177, #295 ) ;
#340 = VERTEX_POINT ( 'NONE', #146 ) ;
#341 = VERTEX_POINT ( 'NONE', #31 ) ;
#342 = EDGE_CURVE ( 'NONE', #121, #311, #91, .T. ) ;
#343 = EDGE_LOOP ( 'NONE', ( #316, #242 ) ) ;
#344 = VECTOR ( 'NONE', #302, 1000.000000000000000 ) ;
#345 = ORIENTED_EDGE ( 'NONE', *, *, #299, .T. ) ;
#346 = DATE_TIME_ROLE ( 'creation_date' ) ;
#347 = FACE_BOUND ( 'NONE', #169, .T. ) ;
#348 = AXIS2_PLACEMENT_3D ( 'NONE', #200, #233, #80 ) ;
#349 = CARTESIAN_POINT ( 'NONE',  ( -30.00000000000000711, 20.00000000000000000, 2.000000000000000000 ) ) ;
#350 = VECTOR ( 'NONE', #144, 1000.000000000000000 ) ;
#351 = CARTESIAN_POINT ( 'NONE',  ( -30.00000000000000711, 20.00000000000000000, 2.000000000000000000 ) ) ;
#352 = ORIENTED_EDGE ( 'NONE', *, *, #221, .T. ) ;
#353 = DIRECTION ( 'NONE',  ( -0.000000000000000000, -0.000000000000000000, -1.000000000000000000 ) ) ;
#354 = DIRECTION ( 'NONE',  ( 1.000000000000000000, 0.000000000000000000, 0.000000000000000000 ) ) ;
#355 = EDGE_CURVE ( 'NONE', #2, #121, #113, .T. ) ;
#356 = DIRECTION ( 'NONE',  ( 8.673617379884035472E-17, -1.000000000000000000, 0.000000000000000000 ) ) ;
#357 = PLANE ( 'NONE',  #182 ) ;
#358 = VECTOR ( 'NONE', #289, 1000.000000000000000 ) ;
#359 = DIRECTION ( 'NONE',  ( 1.000000000000000000, 0.000000000000000000, 0.000000000000000000 ) ) ;
#360 =( LENGTH_UNIT ( ) NAMED_UNIT ( * ) SI_UNIT ( .MILLI., .METRE. ) );
#361 = LOCAL_TIME ( 18, 28, 31.00000000000000000, #243 ) ;
#362 = VECTOR ( 'NONE', #51, 1000.000000000000000 ) ;
#363 = EDGE_LOOP ( 'NONE', ( #96, #372, #352, #162 ) ) ;
#364 = EDGE_CURVE ( 'NONE', #158, #244, #30, .T. ) ;
#365 = ORIENTED_EDGE ( 'NONE', *, *, #44, .T. ) ;
#366 = PERSON ( 'UNSPECIFIED', 'UNSPECIFIED', 'UNSPECIFIED', ('UNSPECIFIED'), ('UNSPECIFIED'), ('UNSPECIFIED') ) ;
#367 = CALENDAR_DATE ( 2026, 1, 9 ) ;
#368 = VERTEX_POINT ( 'NONE', #180 ) ;
#369 = SECURITY_CLASSIFICATION_LEVEL ( 'unclassified' ) ;
#370 = LOCAL_TIME ( 18, 28, 31.00000000000000000, #129 ) ;
#371 = ORIENTED_EDGE ( 'NONE', *, *, #37, .F. ) ;
#372 = ORIENTED_EDGE ( 'NONE', *, *, #37, .T. ) ;
#373 = DIRECTION ( 'NONE',  ( -8.673617379884035472E-17, 1.000000000000000000, 0.000000000000000000 ) ) ;
#374 = ORIENTED_EDGE ( 'NONE', *, *, #89, .F. ) ;
#375 = FACE_BOUND ( 'NONE', #5, .T. ) ;
#376 = FACE_OUTER_BOUND ( 'NONE', #255, .T. ) ;
#377 = CLOSED_SHELL ( 'NONE', ( #379, #253, #319, #155, #101, #263, #337, #63, #241, #33 ) ) ;
#378 = DIRECTION ( 'NONE',  ( -1.000000000000000000, 0.000000000000000000, 0.000000000000000000 ) ) ;
#379 = ADVANCED_FACE ( 'NONE', ( #1 ), #264, .F. ) ;
#380 = CARTESIAN_POINT ( 'NONE',  ( -29.00000000000000711, -3.469446951953614189E-15, 0.000000000000000000 ) ) ;
#381 = CARTESIAN_POINT ( 'NONE',  ( 27.49999999999999645, 0.000000000000000000, 0.000000000000000000 ) ) ;
#382 = CYLINDRICAL_SURFACE ( 'NONE', #143, 1.500000000000001332 ) ;
#383 = EDGE_CURVE ( 'NONE', #247, #340, #58, .T. ) ;
#384 = FACE_BOUND ( 'NONE', #343, .T. ) ;
#385 = APPLICATION_CONTEXT ( 'configuration controlled 3d designs of mechanical parts and assemblies' ) ;
ENDSEC;
END-ISO-10303-21;
