ISO-10303-21;
HEADER;
FILE_DESCRIPTION (( 'STEP AP203' ),
    '1' );
FILE_NAME ('RisingFrame_Default_sldprt.STEP',
    '2026-09-01T12:58:33',
    ( '' ),
    ( '' ),
    'SwSTEP 2.0',
    'SolidWorks 2020',
    '' );
FILE_SCHEMA (( 'CONFIG_CONTROL_DESIGN' ));
ENDSEC;

DATA;
#1 = DIRECTION ( 'NONE',  ( -1.000000000000000000, 5.782411586589359611E-16, 0.000000000000000000 ) ) ;
#2 = ORIENTED_EDGE ( 'NONE', *, *, #863, .F. ) ;
#3 = EDGE_LOOP ( 'NONE', ( #260, #246 ) ) ;
#4 = CARTESIAN_POINT ( 'NONE',  ( -30.00000000000000355, 50.99999999999999289, 3.000000000000000000 ) ) ;
#5 = DIRECTION ( 'NONE',  ( -1.000000000000000000, 0.000000000000000000, 0.000000000000000000 ) ) ;
#6 = EDGE_LOOP ( 'NONE', ( #777, #985, #99, #1107 ) ) ;
#7 = FACE_OUTER_BOUND ( 'NONE', #755, .T. ) ;
#8 = CIRCLE ( 'NONE', #451, 1.500000000000977440 ) ;
#9 = EDGE_LOOP ( 'NONE', ( #327, #202, #638, #789 ) ) ;
#10 = DIRECTION ( 'NONE',  ( -1.000000000000000000, 0.000000000000000000, 0.000000000000000000 ) ) ;
#11 = AXIS2_PLACEMENT_3D ( 'NONE', #316, #498, #592 ) ;
#12 = EDGE_CURVE ( 'NONE', #538, #264, #291, .T. ) ;
#13 = CARTESIAN_POINT ( 'NONE',  ( 0.000000000000000000, 8.500000000000000000, 0.000000000000000000 ) ) ;
#14 = ORIENTED_EDGE ( 'NONE', *, *, #1026, .T. ) ;
#15 = DIRECTION ( 'NONE',  ( 1.000000000000000000, 0.000000000000000000, 0.000000000000000000 ) ) ;
#16 = ORIENTED_EDGE ( 'NONE', *, *, #549, .F. ) ;
#17 = DIRECTION ( 'NONE',  ( -0.000000000000000000, -0.000000000000000000, -1.000000000000000000 ) ) ;
#18 = VERTEX_POINT ( 'NONE', #1098 ) ;
#19 = EDGE_CURVE ( 'NONE', #250, #477, #977, .T. ) ;
#20 = AXIS2_PLACEMENT_3D ( 'NONE', #567, #472, #374 ) ;
#21 = DIRECTION ( 'NONE',  ( -0.000000000000000000, -0.000000000000000000, -1.000000000000000000 ) ) ;
#22 = VERTEX_POINT ( 'NONE', #32 ) ;
#23 = DIRECTION ( 'NONE',  ( 0.000000000000000000, 0.000000000000000000, -1.000000000000000000 ) ) ;
#24 = CYLINDRICAL_SURFACE ( 'NONE', #719, 1.500000000000348166 ) ;
#25 = CARTESIAN_POINT ( 'NONE',  ( -30.00000000000000355, 20.99999999999999289, 3.000000000000000000 ) ) ;
#26 = ORIENTED_EDGE ( 'NONE', *, *, #744, .T. ) ;
#27 = DIRECTION ( 'NONE',  ( 1.000000000000000000, 0.000000000000000000, 0.000000000000000000 ) ) ;
#28 = APPROVAL_DATE_TIME ( #817, #796 ) ;
#29 = VECTOR ( 'NONE', #853, 1000.000000000000000 ) ;
#30 = LINE ( 'NONE', #458, #91 ) ;
#31 = VERTEX_POINT ( 'NONE', #185 ) ;
#32 = CARTESIAN_POINT ( 'NONE',  ( -30.00000000000000355, 20.99999999999999289, 3.000000000000000000 ) ) ;
#33 = EDGE_CURVE ( 'NONE', #388, #151, #100, .T. ) ;
#34 = COORDINATED_UNIVERSAL_TIME_OFFSET ( 5, 30, .AHEAD. ) ;
#35 = CALENDAR_DATE ( 2026, 1, 9 ) ;
#36 = LOCAL_TIME ( 18, 28, 33.00000000000000000, #306 ) ;
#37 = AXIS2_PLACEMENT_3D ( 'NONE', #115, #916, #302 ) ;
#38 = CARTESIAN_POINT ( 'NONE',  ( -1.500000000000014433, -8.500000000000000000, 3.000000000000000000 ) ) ;
#39 = EDGE_LOOP ( 'NONE', ( #666, #998, #197, #1048 ) ) ;
#40 = ORIENTED_EDGE ( 'NONE', *, *, #1094, .F. ) ;
#41 = CARTESIAN_POINT ( 'NONE',  ( -11.00000000000000000, 0.000000000000000000, 0.000000000000000000 ) ) ;
#42 = VERTEX_POINT ( 'NONE', #193 ) ;
#43 = ORIENTED_EDGE ( 'NONE', *, *, #489, .F. ) ;
#44 = CARTESIAN_POINT ( 'NONE',  ( 30.00000000000000355, 20.99999999999999645, 0.000000000000000000 ) ) ;
#45 = EDGE_CURVE ( 'NONE', #151, #434, #637, .T. ) ;
#46 = AXIS2_PLACEMENT_3D ( 'NONE', #317, #399, #757 ) ;
#47 = PLANE ( 'NONE',  #970 ) ;
#48 = VERTEX_POINT ( 'NONE', #630 ) ;
#49 = ORIENTED_EDGE ( 'NONE', *, *, #769, .F. ) ;
#50 = DIRECTION ( 'NONE',  ( -5.782411586589359611E-16, -1.000000000000000000, 0.000000000000000000 ) ) ;
#51 = DIRECTION ( 'NONE',  ( 1.000000000000000000, 0.000000000000000000, 0.000000000000000000 ) ) ;
#52 = CARTESIAN_POINT ( 'NONE',  ( -4.000000000000000000, 0.000000000000000000, 3.000000000000000000 ) ) ;
#53 = ORIENTED_EDGE ( 'NONE', *, *, #307, .F. ) ;
#54 = CARTESIAN_POINT ( 'NONE',  ( 4.000000000000000000, 4.898587196589412829E-16, 0.000000000000000000 ) ) ;
#55 = DIRECTION ( 'NONE',  ( -0.000000000000000000, -0.000000000000000000, -1.000000000000000000 ) ) ;
#56 = CIRCLE ( 'NONE', #126, 4.000000000000000000 ) ;
#57 = CYLINDRICAL_SURFACE ( 'NONE', #109, 1.500000000000001332 ) ;
#58 = DIRECTION ( 'NONE',  ( 0.000000000000000000, 1.000000000000000000, 0.000000000000000000 ) ) ;
#59 = DIRECTION ( 'NONE',  ( 0.000000000000000000, -0.000000000000000000, 1.000000000000000000 ) ) ;
#60 = EDGE_LOOP ( 'NONE', ( #1133, #403, #1062, #628 ) ) ;
#61 = FACE_OUTER_BOUND ( 'NONE', #748, .T. ) ;
#62 = EDGE_CURVE ( 'NONE', #842, #294, #725, .T. ) ;
#63 = VECTOR ( 'NONE', #1115, 1000.000000000000000 ) ;
#64 = CARTESIAN_POINT ( 'NONE',  ( 5.000000000000001776, -15.49999999999999645, 3.000000000000000000 ) ) ;
#65 = CARTESIAN_POINT ( 'NONE',  ( 27.50000000000000711, 35.99999999999999289, 0.000000000000000000 ) ) ;
#66 = EDGE_CURVE ( 'NONE', #678, #551, #533, .T. ) ;
#67 = ORIENTED_EDGE ( 'NONE', *, *, #1080, .F. ) ;
#68 = CARTESIAN_POINT ( 'NONE',  ( 29.00000000000000711, 35.99999999999999289, 3.000000000000000000 ) ) ;
#69 = CARTESIAN_POINT ( 'NONE',  ( -10.99999999999999645, -21.00000000000000000, 3.000000000000000000 ) ) ;
#70 = FACE_OUTER_BOUND ( 'NONE', #561, .T. ) ;
#71 = VECTOR ( 'NONE', #17, 1000.000000000000000 ) ;
#72 = VERTEX_POINT ( 'NONE', #285 ) ;
#73 = DIRECTION ( 'NONE',  ( -0.000000000000000000, -0.000000000000000000, -1.000000000000000000 ) ) ;
#74 = DIRECTION ( 'NONE',  ( 1.000000000000000000, 0.000000000000000000, 0.000000000000000000 ) ) ;
#75 = LINE ( 'NONE', #161, #323 ) ;
#76 = EDGE_LOOP ( 'NONE', ( #545, #660, #574, #134 ) ) ;
#77 = CARTESIAN_POINT ( 'NONE',  ( -30.00000000000000355, 20.99999999999999289, 0.000000000000000000 ) ) ;
#78 = ADVANCED_FACE ( 'NONE', ( #94 ), #447, .F. ) ;
#79 = AXIS2_PLACEMENT_3D ( 'NONE', #81, #253, #433 ) ;
#80 = FACE_OUTER_BOUND ( 'NONE', #894, .T. ) ;
#81 = CARTESIAN_POINT ( 'NONE',  ( 9.632152712959107716E-13, -8.500000000000000000, 3.000000000000000000 ) ) ;
#82 = VECTOR ( 'NONE', #248, 1000.000000000000000 ) ;
#83 = ORIENTED_EDGE ( 'NONE', *, *, #871, .T. ) ;
#84 = CARTESIAN_POINT ( 'NONE',  ( -29.00000000000000355, 35.99999999999999289, 3.000000000000000000 ) ) ;
#85 = DIRECTION ( 'NONE',  ( -1.000000000000000000, 0.000000000000000000, 0.000000000000000000 ) ) ;
#86 = FACE_OUTER_BOUND ( 'NONE', #784, .T. ) ;
#87 = ORIENTED_EDGE ( 'NONE', *, *, #131, .T. ) ;
#88 = LOCAL_TIME ( 18, 28, 33.00000000000000000, #34 ) ;
#89 = ORIENTED_EDGE ( 'NONE', *, *, #425, .F. ) ;
#90 = FACE_OUTER_BOUND ( 'NONE', #76, .T. ) ;
#91 = VECTOR ( 'NONE', #997, 1000.000000000000000 ) ;
#92 = DIRECTION ( 'NONE',  ( 0.000000000000000000, 1.000000000000000000, 0.000000000000000000 ) ) ;
#93 = EDGE_LOOP ( 'NONE', ( #699, #832 ) ) ;
#94 = FACE_OUTER_BOUND ( 'NONE', #875, .T. ) ;
#95 = ADVANCED_FACE ( 'NONE', ( #7 ), #107, .F. ) ;
#96 = ORIENTED_EDGE ( 'NONE', *, *, #228, .F. ) ;
#97 = EDGE_CURVE ( 'NONE', #622, #42, #112, .T. ) ;
#98 = CARTESIAN_POINT ( 'NONE',  ( -29.00000000000000355, 35.99999999999999289, 0.000000000000000000 ) ) ;
#99 = ORIENTED_EDGE ( 'NONE', *, *, #1038, .F. ) ;
#100 = LINE ( 'NONE', #806, #430 ) ;
#101 = AXIS2_PLACEMENT_3D ( 'NONE', #439, #517, #965 ) ;
#102 = ORIENTED_EDGE ( 'NONE', *, *, #418, .T. ) ;
#103 = APPLICATION_PROTOCOL_DEFINITION ( 'international standard', 'config_control_design', 1994, #158 ) ;
#104 = EDGE_CURVE ( 'NONE', #416, #1018, #823, .T. ) ;
#105 = DIRECTION ( 'NONE',  ( -0.000000000000000000, -0.000000000000000000, -1.000000000000000000 ) ) ;
#106 = ORIENTED_EDGE ( 'NONE', *, *, #749, .F. ) ;
#107 = CYLINDRICAL_SURFACE ( 'NONE', #641, 1.500000000000001332 ) ;
#108 = LINE ( 'NONE', #173, #295 ) ;
#109 = AXIS2_PLACEMENT_3D ( 'NONE', #690, #773, #429 ) ;
#110 = DIRECTION ( 'NONE',  ( -1.000000000000000000, 1.387778780781444492E-15, 0.000000000000000000 ) ) ;
#111 = ORIENTED_EDGE ( 'NONE', *, *, #802, .F. ) ;
#112 = LINE ( 'NONE', #552, #562 ) ;
#113 = PERSON_AND_ORGANIZATION ( #515, #625 ) ;
#114 = EDGE_CURVE ( 'NONE', #462, #31, #412, .T. ) ;
#115 = CARTESIAN_POINT ( 'NONE',  ( 0.000000000000000000, 8.500000000000000000, 3.000000000000000000 ) ) ;
#116 = ORIENTED_EDGE ( 'NONE', *, *, #1080, .T. ) ;
#117 = CARTESIAN_POINT ( 'NONE',  ( -30.00000000000000355, 50.99999999999999289, 0.000000000000000000 ) ) ;
#118 = CALENDAR_DATE ( 2026, 1, 9 ) ;
#119 = EDGE_CURVE ( 'NONE', #831, #538, #543, .T. ) ;
#120 = CIRCLE ( 'NONE', #287, 4.000000000000000000 ) ;
#121 = VECTOR ( 'NONE', #859, 1000.000000000000000 ) ;
#122 = DIRECTION ( 'NONE',  ( 1.000000000000000000, -1.826024711554533420E-16, -0.000000000000000000 ) ) ;
#123 = ORIENTED_EDGE ( 'NONE', *, *, #744, .F. ) ;
#124 = ORIENTED_EDGE ( 'NONE', *, *, #847, .T. ) ;
#125 = SECURITY_CLASSIFICATION ( '', '', #1001 ) ;
#126 = AXIS2_PLACEMENT_3D ( 'NONE', #218, #380, #1101 ) ;
#127 = CARTESIAN_POINT ( 'NONE',  ( -10.00000000000020606, -4.826485854272306472E-13, 3.000000000000000000 ) ) ;
#128 = ORIENTED_EDGE ( 'NONE', *, *, #902, .T. ) ;
#129 = ORIENTED_EDGE ( 'NONE', *, *, #418, .F. ) ;
#130 = FACE_BOUND ( 'NONE', #647, .T. ) ;
#131 = EDGE_CURVE ( 'NONE', #1148, #924, #897, .T. ) ;
#132 = EDGE_CURVE ( 'NONE', #434, #416, #986, .T. ) ;
#133 = CARTESIAN_POINT ( 'NONE',  ( -10.00000000000020606, -4.826485854272306472E-13, 3.000000000000000000 ) ) ;
#134 = ORIENTED_EDGE ( 'NONE', *, *, #887, .F. ) ;
#135 = VERTEX_POINT ( 'NONE', #273 ) ;
#136 = FACE_OUTER_BOUND ( 'NONE', #1036, .T. ) ;
#137 = CARTESIAN_POINT ( 'NONE',  ( 9.632152712959107716E-13, -8.500000000000000000, 3.000000000000000000 ) ) ;
#138 = ADVANCED_FACE ( 'NONE', ( #1000 ), #198, .F. ) ;
#139 = VECTOR ( 'NONE', #203, 1000.000000000000000 ) ;
#140 = VECTOR ( 'NONE', #1046, 1000.000000000000000 ) ;
#141 = DIRECTION ( 'NONE',  ( 1.119176436114069085E-16, -1.000000000000000000, 0.000000000000000000 ) ) ;
#142 = ORIENTED_EDGE ( 'NONE', *, *, #635, .F. ) ;
#143 = DIRECTION ( 'NONE',  ( -0.000000000000000000, -0.000000000000000000, -1.000000000000000000 ) ) ;
#144 = DIRECTION ( 'NONE',  ( 1.000000000000000000, 0.000000000000000000, 0.000000000000000000 ) ) ;
#145 = DIRECTION ( 'NONE',  ( 1.000000000000000000, 0.000000000000000000, 0.000000000000000000 ) ) ;
#146 = CLOSED_SHELL ( 'NONE', ( #1010, #992, #1006, #419, #402, #732, #684, #242, #1078, #286, #766, #1073, #578, #793, #385, #958, #670, #566, #818, #716, #503, #598, #205, #138, #444, #78, #1112, #697, #1008, #1146, #95, #1104 ) ) ;
#147 = LINE ( 'NONE', #673, #1065 ) ;
#148 = LINE ( 'NONE', #319, #63 ) ;
#149 = VECTOR ( 'NONE', #1053, 1000.000000000000000 ) ;
#150 = EDGE_CURVE ( 'NONE', #1143, #842, #376, .T. ) ;
#151 = VERTEX_POINT ( 'NONE', #44 ) ;
#152 = CARTESIAN_POINT ( 'NONE',  ( -11.00000000000000000, 20.99999999999999645, 3.000000000000000000 ) ) ;
#153 = EDGE_CURVE ( 'NONE', #22, #172, #148, .T. ) ;
#154 = DIRECTION ( 'NONE',  ( 2.312964634635743450E-16, -1.000000000000000000, 0.000000000000000000 ) ) ;
#155 = LINE ( 'NONE', #854, #1027 ) ;
#156 = ORIENTED_EDGE ( 'NONE', *, *, #334, .F. ) ;
#157 = CYLINDRICAL_SURFACE ( 'NONE', #947, 1.500000000000001332 ) ;
#158 = APPLICATION_CONTEXT ( 'configuration controlled 3d designs of mechanical parts and assemblies' ) ;
#159 = VECTOR ( 'NONE', #1084, 1000.000000000000000 ) ;
#160 = PLANE ( 'NONE',  #820 ) ;
#161 = CARTESIAN_POINT ( 'NONE',  ( 11.00000000000000000, -15.49999999999999645, 3.000000000000000000 ) ) ;
#162 = ORIENTED_EDGE ( 'NONE', *, *, #749, .T. ) ;
#163 = CARTESIAN_POINT ( 'NONE',  ( 10.99999999999999645, -21.00000000000000000, 3.000000000000000000 ) ) ;
#164 = DIRECTION ( 'NONE',  ( 1.000000000000000000, 0.000000000000000000, 0.000000000000000000 ) ) ;
#165 = CARTESIAN_POINT ( 'NONE',  ( -11.00000000000000000, -18.50000000000000000, 3.000000000000000000 ) ) ;
#166 = ORIENTED_EDGE ( 'NONE', *, *, #1082, .T. ) ;
#167 = DIRECTION ( 'NONE',  ( -1.000000000000000000, -0.000000000000000000, -0.000000000000000000 ) ) ;
#168 = EDGE_CURVE ( 'NONE', #455, #151, #676, .T. ) ;
#169 = EDGE_CURVE ( 'NONE', #982, #462, #932, .T. ) ;
#170 = DIRECTION ( 'NONE',  ( 0.000000000000000000, 0.000000000000000000, 1.000000000000000000 ) ) ;
#171 = CARTESIAN_POINT ( 'NONE',  ( 11.00000000000000000, 21.00000000000000000, 3.000000000000000000 ) ) ;
#172 = VERTEX_POINT ( 'NONE', #1030 ) ;
#173 = CARTESIAN_POINT ( 'NONE',  ( -4.999999999999998224, -15.50000000000000000, 0.000000000000000000 ) ) ;
#174 = VECTOR ( 'NONE', #1022, 1000.000000000000000 ) ;
#175 = FACE_OUTER_BOUND ( 'NONE', #665, .T. ) ;
#176 = LINE ( 'NONE', #263, #786 ) ;
#177 = VECTOR ( 'NONE', #711, 1000.000000000000000 ) ;
#178 = ORIENTED_EDGE ( 'NONE', *, *, #614, .F. ) ;
#179 = ORIENTED_EDGE ( 'NONE', *, *, #752, .F. ) ;
#180 = CARTESIAN_POINT ( 'NONE',  ( 8.500000000000483169, 4.816076356479553858E-13, 3.000000000000000000 ) ) ;
#181 = EDGE_CURVE ( 'NONE', #48, #1089, #155, .T. ) ;
#182 = DIRECTION ( 'NONE',  ( 1.000000000000000000, 0.000000000000000000, 0.000000000000000000 ) ) ;
#183 = ORIENTED_EDGE ( 'NONE', *, *, #834, .T. ) ;
#184 = LOCAL_TIME ( 18, 28, 33.00000000000000000, #645 ) ;
#185 = CARTESIAN_POINT ( 'NONE',  ( -10.00000000000020606, -4.826485854272306472E-13, 0.000000000000000000 ) ) ;
#186 = ORIENTED_EDGE ( 'NONE', *, *, #337, .T. ) ;
#187 = DIRECTION ( 'NONE',  ( 0.000000000000000000, 0.000000000000000000, 1.000000000000000000 ) ) ;
#188 = CC_DESIGN_PERSON_AND_ORGANIZATION_ASSIGNMENT ( #379, #649, ( #384 ) ) ;
#189 = CIRCLE ( 'NONE', #510, 1.500000000000001332 ) ;
#191 = EDGE_CURVE ( 'NONE', #1089, #919, #727, .T. ) ;
#190 = DIRECTION ( 'NONE',  ( 1.000000000000000000, 0.000000000000000000, 0.000000000000000000 ) ) ;
#192 = ORIENTED_EDGE ( 'NONE', *, *, #974, .T. ) ;
#193 = CARTESIAN_POINT ( 'NONE',  ( -10.99999999999999645, -21.00000000000000000, 0.000000000000000000 ) ) ;
#194 = ORIENTED_EDGE ( 'NONE', *, *, #559, .T. ) ;
#195 = CARTESIAN_POINT ( 'NONE',  ( 0.000000000000000000, 0.000000000000000000, 3.000000000000000000 ) ) ;
#196 = LINE ( 'NONE', #717, #532 ) ;
#197 = ORIENTED_EDGE ( 'NONE', *, *, #1082, .F. ) ;
#198 = PLANE ( 'NONE',  #955 ) ;
#199 = VECTOR ( 'NONE', #55, 1000.000000000000000 ) ;
#200 = EDGE_LOOP ( 'NONE', ( #111, #929 ) ) ;
#201 = LINE ( 'NONE', #910, #906 ) ;
#202 = ORIENTED_EDGE ( 'NONE', *, *, #752, .T. ) ;
#203 = DIRECTION ( 'NONE',  ( -0.000000000000000000, -0.000000000000000000, -1.000000000000000000 ) ) ;
#204 = COORDINATED_UNIVERSAL_TIME_OFFSET ( 5, 30, .AHEAD. ) ;
#205 = ADVANCED_FACE ( 'NONE', ( #485 ), #570, .F. ) ;
#206 = AXIS2_PLACEMENT_3D ( 'NONE', #13, #465, #804 ) ;
#207 = CC_DESIGN_PERSON_AND_ORGANIZATION_ASSIGNMENT ( #726, #824, ( #384 ) ) ;
#208 = LINE ( 'NONE', #653, #1054 ) ;
#209 = ORIENTED_EDGE ( 'NONE', *, *, #438, .F. ) ;
#210 = DIRECTION ( 'NONE',  ( 1.000000000000000000, 0.000000000000000000, 0.000000000000000000 ) ) ;
#211 = PERSON_AND_ORGANIZATION_ROLE ( 'classification_officer' ) ;
#212 = LINE ( 'NONE', #825, #276 ) ;
#213 = ORIENTED_EDGE ( 'NONE', *, *, #301, .T. ) ;
#214 = ORIENTED_EDGE ( 'NONE', *, *, #131, .F. ) ;
#215 = DATE_AND_TIME ( #470, #88 ) ;
#216 = CIRCLE ( 'NONE', #340, 1.500000000000977440 ) ;
#217 = AXIS2_PLACEMENT_3D ( 'NONE', #421, #780, #85 ) ;
#218 = CARTESIAN_POINT ( 'NONE',  ( 0.000000000000000000, 0.000000000000000000, 3.000000000000000000 ) ) ;
#219 = EDGE_CURVE ( 'NONE', #643, #294, #216, .T. ) ;
#220 = ORIENTED_EDGE ( 'NONE', *, *, #1129, .T. ) ;
#221 = APPLICATION_CONTEXT ( 'configuration controlled 3d designs of mechanical parts and assemblies' ) ;
#222 = VERTEX_POINT ( 'NONE', #926 ) ;
#223 = CARTESIAN_POINT ( 'NONE',  ( -30.00000000000000355, 50.99999999999999289, 3.000000000000000000 ) ) ;
#224 = AXIS2_PLACEMENT_3D ( 'NONE', #602, #497, #145 ) ;
#225 = CARTESIAN_POINT ( 'NONE',  ( -11.00000000000000000, -18.50000000000000000, 3.000000000000000000 ) ) ;
#226 = ORIENTED_EDGE ( 'NONE', *, *, #540, .T. ) ;
#227 = ORIENTED_EDGE ( 'NONE', *, *, #902, .F. ) ;
#228 = EDGE_CURVE ( 'NONE', #18, #42, #239, .T. ) ;
#229 = CARTESIAN_POINT ( 'NONE',  ( 1.500000000001940670, -8.500000000000000000, 0.000000000000000000 ) ) ;
#230 = PLANE ( 'NONE',  #46 ) ;
#231 = LINE ( 'NONE', #225, #174 ) ;
#232 = VERTEX_POINT ( 'NONE', #586 ) ;
#233 = LINE ( 'NONE', #1034, #915 ) ;
#234 = FACE_BOUND ( 'NONE', #1121, .T. ) ;
#235 = DIRECTION ( 'NONE',  ( 1.387778780781444492E-15, 1.000000000000000000, 0.000000000000000000 ) ) ;
#236 = AXIS2_PLACEMENT_3D ( 'NONE', #582, #59, #326 ) ;
#237 = AXIS2_PLACEMENT_3D ( 'NONE', #839, #50, #1045 ) ;
#238 = CARTESIAN_POINT ( 'NONE',  ( 5.000000000000001776, -15.49999999999999645, 3.000000000000000000 ) ) ;
#239 = LINE ( 'NONE', #499, #990 ) ;
#240 = ORIENTED_EDGE ( 'NONE', *, *, #307, .T. ) ;
#241 = CARTESIAN_POINT ( 'NONE',  ( 0.000000000000000000, 0.000000000000000000, 0.000000000000000000 ) ) ;
#242 = ADVANCED_FACE ( 'NONE', ( #495, #234, #331, #405, #849, #130, #751, #681 ), #479, .T. ) ;
#243 = FACE_OUTER_BOUND ( 'NONE', #363, .T. ) ;
#244 = LINE ( 'NONE', #491, #199 ) ;
#245 = VECTOR ( 'NONE', #550, 1000.000000000000000 ) ;
#246 = ORIENTED_EDGE ( 'NONE', *, *, #903, .F. ) ;
#247 = CARTESIAN_POINT ( 'NONE',  ( 27.50000000000000711, 35.99999999999999289, 3.000000000000000000 ) ) ;
#248 = DIRECTION ( 'NONE',  ( -0.000000000000000000, -0.000000000000000000, -1.000000000000000000 ) ) ;
#249 = DIRECTION ( 'NONE',  ( 1.387778780781444492E-15, -1.000000000000000000, 0.000000000000000000 ) ) ;
#250 = VERTEX_POINT ( 'NONE', #415 ) ;
#251 = DIRECTION ( 'NONE',  ( -0.000000000000000000, -0.000000000000000000, -1.000000000000000000 ) ) ;
#252 = CARTESIAN_POINT ( 'NONE',  ( 10.99999999999999645, -21.00000000000000000, 0.000000000000000000 ) ) ;
#253 = DIRECTION ( 'NONE',  ( -0.000000000000000000, -0.000000000000000000, -1.000000000000000000 ) ) ;
#254 = ORIENTED_EDGE ( 'NONE', *, *, #33, .F. ) ;
#255 = DIRECTION ( 'NONE',  ( -1.000000000000000000, 0.000000000000000000, 0.000000000000000000 ) ) ;
#256 = EDGE_CURVE ( 'NONE', #842, #1143, #8, .T. ) ;
#257 = FACE_OUTER_BOUND ( 'NONE', #496, .T. ) ;
#258 = FACE_OUTER_BOUND ( 'NONE', #397, .T. ) ;
#259 = CIRCLE ( 'NONE', #738, 1.500000000000001332 ) ;
#260 = ORIENTED_EDGE ( 'NONE', *, *, #1044, .F. ) ;
#261 = CYLINDRICAL_SURFACE ( 'NONE', #828, 1.500000000000001332 ) ;
#262 = CARTESIAN_POINT ( 'NONE',  ( -11.00000000000000000, -18.50000000000000000, 3.000000000000000000 ) ) ;
#263 = CARTESIAN_POINT ( 'NONE',  ( 11.00000000000000000, -15.49999999999999645, 3.000000000000000000 ) ) ;
#264 = VERTEX_POINT ( 'NONE', #764 ) ;
#265 = VECTOR ( 'NONE', #949, 1000.000000000000000 ) ;
#266 = CARTESIAN_POINT ( 'NONE',  ( 5.000000000000001776, -18.49999999999999645, 3.000000000000000000 ) ) ;
#267 = VECTOR ( 'NONE', #1114, 1000.000000000000000 ) ;
#268 = ORIENTED_EDGE ( 'NONE', *, *, #868, .T. ) ;
#269 = ORIENTED_EDGE ( 'NONE', *, *, #1043, .F. ) ;
#270 = EDGE_CURVE ( 'NONE', #482, #551, #1025, .T. ) ;
#271 = DIRECTION ( 'NONE',  ( 0.000000000000000000, 1.000000000000000000, 0.000000000000000000 ) ) ;
#272 = ORIENTED_EDGE ( 'NONE', *, *, #1026, .F. ) ;
#273 = CARTESIAN_POINT ( 'NONE',  ( -1.500000000000000000, 8.500000000000000000, 0.000000000000000000 ) ) ;
#274 = ORIENTED_EDGE ( 'NONE', *, *, #114, .T. ) ;
#275 = DIRECTION ( 'NONE',  ( -0.000000000000000000, -0.000000000000000000, -1.000000000000000000 ) ) ;
#276 = VECTOR ( 'NONE', #105, 1000.000000000000000 ) ;
#277 = LINE ( 'NONE', #814, #493 ) ;
#278 = EDGE_LOOP ( 'NONE', ( #595, #40, #724, #448 ) ) ;
#279 = DIRECTION ( 'NONE',  ( -0.000000000000000000, -0.000000000000000000, -1.000000000000000000 ) ) ;
#280 = EDGE_LOOP ( 'NONE', ( #116, #274 ) ) ;
#281 = DIRECTION ( 'NONE',  ( 1.000000000000000000, 0.000000000000000000, 0.000000000000000000 ) ) ;
#282 = DIRECTION ( 'NONE',  ( -0.000000000000000000, -0.000000000000000000, -1.000000000000000000 ) ) ;
#283 = VERTEX_POINT ( 'NONE', #1131 ) ;
#284 = VECTOR ( 'NONE', #377, 1000.000000000000000 ) ;
#285 = CARTESIAN_POINT ( 'NONE',  ( 10.99999999999999645, -21.00000000000000000, 3.000000000000000000 ) ) ;
#286 = ADVANCED_FACE ( 'NONE', ( #312 ), #230, .F. ) ;
#287 = AXIS2_PLACEMENT_3D ( 'NONE', #487, #1106, #401 ) ;
#288 = PERSON_AND_ORGANIZATION_ROLE ( 'creator' ) ;
#289 = CARTESIAN_POINT ( 'NONE',  ( 29.99999999999999645, 50.99999999999999289, 3.000000000000000000 ) ) ;
#290 = ORIENTED_EDGE ( 'NONE', *, *, #925, .F. ) ;
#291 = LINE ( 'NONE', #539, #139 ) ;
#292 = CALENDAR_DATE ( 2026, 1, 9 ) ;
#293 = APPROVAL_PERSON_ORGANIZATION ( #553, #865, #1007 ) ;
#294 = VERTEX_POINT ( 'NONE', #761 ) ;
#295 = VECTOR ( 'NONE', #795, 1000.000000000000000 ) ;
#296 = DIRECTION ( 'NONE',  ( 1.000000000000000000, 0.000000000000000000, 0.000000000000000000 ) ) ;
#297 = ORIENTED_EDGE ( 'NONE', *, *, #168, .T. ) ;
#298 = CARTESIAN_POINT ( 'NONE',  ( 10.00000000000083134, 4.817913326678274254E-13, 3.000000000000000000 ) ) ;
#299 = APPLICATION_PROTOCOL_DEFINITION ( 'international standard', 'config_control_design', 1994, #221 ) ;
#300 = APPROVAL_ROLE ( '' ) ;
#301 = EDGE_CURVE ( 'NONE', #714, #365, #1035, .T. ) ;
#302 = DIRECTION ( 'NONE',  ( 1.000000000000000000, 0.000000000000000000, 0.000000000000000000 ) ) ;
#303 = ORIENTED_EDGE ( 'NONE', *, *, #635, .T. ) ;
#304 = ORIENTED_EDGE ( 'NONE', *, *, #1100, .F. ) ;
#305 = AXIS2_PLACEMENT_3D ( 'NONE', #1090, #713, #1068 ) ;
#306 = COORDINATED_UNIVERSAL_TIME_OFFSET ( 5, 30, .AHEAD. ) ;
#307 = EDGE_CURVE ( 'NONE', #232, #1148, #244, .T. ) ;
#308 = CARTESIAN_POINT ( 'NONE',  ( 11.00000000000000000, -18.50000000000000000, 3.000000000000000000 ) ) ;
#309 = ORIENTED_EDGE ( 'NONE', *, *, #1059, .T. ) ;
#310 = ORIENTED_EDGE ( 'NONE', *, *, #334, .T. ) ;
#311 = DIRECTION ( 'NONE',  ( -1.000000000000000000, 0.000000000000000000, 0.000000000000000000 ) ) ;
#312 = FACE_OUTER_BOUND ( 'NONE', #798, .T. ) ;
#313 = VECTOR ( 'NONE', #904, 1000.000000000000000 ) ;
#314 = DIRECTION ( 'NONE',  ( -1.826024711554533174E-16, 1.000000000000000000, 0.000000000000000000 ) ) ;
#315 = ORIENTED_EDGE ( 'NONE', *, *, #652, .F. ) ;
#316 = CARTESIAN_POINT ( 'NONE',  ( 8.500000000000483169, 4.816076356479553858E-13, 0.000000000000000000 ) ) ;
#317 = CARTESIAN_POINT ( 'NONE',  ( -11.00000000000000000, 0.000000000000000000, 3.000000000000000000 ) ) ;
#318 = DIRECTION ( 'NONE',  ( 1.000000000000000000, 0.000000000000000000, 0.000000000000000000 ) ) ;
#319 = CARTESIAN_POINT ( 'NONE',  ( -11.00000000000000000, 20.99999999999999645, 3.000000000000000000 ) ) ;
#320 = EDGE_CURVE ( 'NONE', #850, #526, #1142, .T. ) ;
#321 = ORIENTED_EDGE ( 'NONE', *, *, #779, .F. ) ;
#322 = FACE_BOUND ( 'NONE', #617, .T. ) ;
#323 = VECTOR ( 'NONE', #860, 1000.000000000000000 ) ;
#324 = VECTOR ( 'NONE', #1, 1000.000000000000000 ) ;
#325 = CARTESIAN_POINT ( 'NONE',  ( -29.00000000000000355, 35.99999999999999289, 3.000000000000000000 ) ) ;
#326 = DIRECTION ( 'NONE',  ( 1.000000000000000000, 0.000000000000000000, -0.000000000000000000 ) ) ;
#327 = ORIENTED_EDGE ( 'NONE', *, *, #19, .F. ) ;
#328 = CARTESIAN_POINT ( 'NONE',  ( -4.999999999999998224, -15.50000000000000000, 3.000000000000000000 ) ) ;
#329 = VECTOR ( 'NONE', #882, 1000.000000000000000 ) ;
#330 = DIRECTION ( 'NONE',  ( 0.000000000000000000, 0.000000000000000000, 1.000000000000000000 ) ) ;
#331 = FACE_BOUND ( 'NONE', #513, .T. ) ;
#332 = ORIENTED_EDGE ( 'NONE', *, *, #953, .F. ) ;
#333 = LINE ( 'NONE', #1134, #554 ) ;
#334 = EDGE_CURVE ( 'NONE', #888, #881, #75, .T. ) ;
#335 = DIRECTION ( 'NONE',  ( 0.000000000000000000, 0.000000000000000000, 1.000000000000000000 ) ) ;
#336 = DIRECTION ( 'NONE',  ( -0.000000000000000000, -0.000000000000000000, -1.000000000000000000 ) ) ;
#337 = EDGE_CURVE ( 'NONE', #622, #72, #698, .T. ) ;
#338 = ORIENTED_EDGE ( 'NONE', *, *, #961, .T. ) ;
#339 = FACE_BOUND ( 'NONE', #918, .T. ) ;
#340 = AXIS2_PLACEMENT_3D ( 'NONE', #668, #939, #674 ) ;
#341 = EDGE_CURVE ( 'NONE', #888, #623, #176, .T. ) ;
#342 = CARTESIAN_POINT ( 'NONE',  ( 11.00000000000000000, 21.00000000000000000, 3.000000000000000000 ) ) ;
#343 = DIRECTION ( 'NONE',  ( -0.000000000000000000, -0.000000000000000000, -1.000000000000000000 ) ) ;
#344 = EDGE_LOOP ( 'NONE', ( #1138, #1102, #123, #453 ) ) ;
#345 = CARTESIAN_POINT ( 'NONE',  ( -8.499999999999520384, -4.826485854272306472E-13, 3.000000000000000000 ) ) ;
#346 = CARTESIAN_POINT ( 'NONE',  ( -8.499999999999520384, -4.826485854272306472E-13, 3.000000000000000000 ) ) ;
#347 = CARTESIAN_POINT ( 'NONE',  ( -8.499999999999520384, -4.826485854272306472E-13, 3.000000000000000000 ) ) ;
#348 = AXIS2_PLACEMENT_3D ( 'NONE', #1095, #362, #296 ) ;
#349 = ORIENTED_EDGE ( 'NONE', *, *, #153, .T. ) ;
#350 = LINE ( 'NONE', #878, #324 ) ;
#351 = ORIENTED_EDGE ( 'NONE', *, *, #228, .T. ) ;
#352 = ORIENTED_EDGE ( 'NONE', *, *, #341, .F. ) ;
#353 = LINE ( 'NONE', #84, #329 ) ;
#354 = EDGE_CURVE ( 'NONE', #881, #455, #776, .T. ) ;
#355 = AXIS2_PLACEMENT_3D ( 'NONE', #364, #359, #812 ) ;
#356 = CARTESIAN_POINT ( 'NONE',  ( 8.500000000000483169, 4.816076356479553858E-13, 3.000000000000000000 ) ) ;
#357 = CIRCLE ( 'NONE', #1011, 1.500000000000686562 ) ;
#358 = ORIENTED_EDGE ( 'NONE', *, *, #354, .F. ) ;
#359 = DIRECTION ( 'NONE',  ( 0.000000000000000000, 0.000000000000000000, 1.000000000000000000 ) ) ;
#360 = ORIENTED_EDGE ( 'NONE', *, *, #847, .F. ) ;
#361 = CARTESIAN_POINT ( 'NONE',  ( 1.500000000001940670, -8.500000000000000000, 3.000000000000000000 ) ) ;
#362 = DIRECTION ( 'NONE',  ( 0.000000000000000000, 0.000000000000000000, 1.000000000000000000 ) ) ;
#363 = EDGE_LOOP ( 'NONE', ( #721, #742, #966, #303 ) ) ;
#364 = CARTESIAN_POINT ( 'NONE',  ( 0.000000000000000000, 0.000000000000000000, 3.000000000000000000 ) ) ;
#365 = VERTEX_POINT ( 'NONE', #879 ) ;
#366 =( LENGTH_UNIT ( ) NAMED_UNIT ( * ) SI_UNIT ( .MILLI., .METRE. ) );
#367 = CIRCLE ( 'NONE', #999, 1.500000000000686562 ) ;
#368 = ORIENTED_EDGE ( 'NONE', *, *, #62, .T. ) ;
#369 = EDGE_CURVE ( 'NONE', #772, #250, #1086, .T. ) ;
#370 = DIRECTION ( 'NONE',  ( 0.000000000000000000, 0.000000000000000000, 1.000000000000000000 ) ) ;
#371 = ORIENTED_EDGE ( 'NONE', *, *, #270, .T. ) ;
#372 = CARTESIAN_POINT ( 'NONE',  ( 9.632152712959107716E-13, -8.500000000000000000, 3.000000000000000000 ) ) ;
#373 = ORIENTED_EDGE ( 'NONE', *, *, #917, .T. ) ;
#374 = DIRECTION ( 'NONE',  ( 1.000000000000000000, 0.000000000000000000, 0.000000000000000000 ) ) ;
#375 = ORIENTED_EDGE ( 'NONE', *, *, #613, .T. ) ;
#376 = CIRCLE ( 'NONE', #659, 1.500000000000977440 ) ;
#377 = DIRECTION ( 'NONE',  ( -1.000000000000000000, -0.000000000000000000, -0.000000000000000000 ) ) ;
#378 = AXIS2_PLACEMENT_3D ( 'NONE', #705, #604, #775 ) ;
#379 = PERSON_AND_ORGANIZATION ( #515, #625 ) ;
#380 = DIRECTION ( 'NONE',  ( 0.000000000000000000, 0.000000000000000000, 1.000000000000000000 ) ) ;
#381 = EDGE_LOOP ( 'NONE', ( #1004, #272, #1031, #956 ) ) ;
#382 = DIRECTION ( 'NONE',  ( 0.000000000000000000, 0.000000000000000000, 1.000000000000000000 ) ) ;
#383 = PERSON_AND_ORGANIZATION ( #515, #625 ) ;
#384 = PRODUCT_DEFINITION_FORMATION_WITH_SPECIFIED_SOURCE ( 'ANY', '', #450, .NOT_KNOWN. ) ;
#385 = ADVANCED_FACE ( 'NONE', ( #86 ), #616, .F. ) ;
#386 = CIRCLE ( 'NONE', #348, 1.500000000000001332 ) ;
#387 = LINE ( 'NONE', #1088, #740 ) ;
#388 = VERTEX_POINT ( 'NONE', #873 ) ;
#389 = VERTEX_POINT ( 'NONE', #1051 ) ;
#390 = PERSON_AND_ORGANIZATION ( #515, #625 ) ;
#391 = CARTESIAN_POINT ( 'NONE',  ( -30.00000000000000355, 50.99999999999999289, 3.000000000000000000 ) ) ;
#392 = EDGE_LOOP ( 'NONE', ( #736, #332, #1070, #478, #707, #1052, #290, #89, #269, #106, #827, #911, #96, #483, #304, #16 ) ) ;
#393 = ORIENTED_EDGE ( 'NONE', *, *, #549, .T. ) ;
#394 = DIRECTION ( 'NONE',  ( 1.000000000000000000, -1.826024711554533420E-16, -0.000000000000000000 ) ) ;
#395 = FACE_OUTER_BOUND ( 'NONE', #654, .T. ) ;
#396 = EDGE_LOOP ( 'NONE', ( #393, #466, #923, #937 ) ) ;
#397 = EDGE_LOOP ( 'NONE', ( #805, #226, #315, #807 ) ) ;
#398 = CARTESIAN_POINT ( 'NONE',  ( 1.500000000000000000, 8.500000000000000000, 3.000000000000000000 ) ) ;
#399 = DIRECTION ( 'NONE',  ( 1.000000000000000000, 1.119176436114069085E-16, -0.000000000000000000 ) ) ;
#400 = CIRCLE ( 'NONE', #20, 1.500000000000001332 ) ;
#401 = DIRECTION ( 'NONE',  ( 1.000000000000000000, 0.000000000000000000, 0.000000000000000000 ) ) ;
#402 = ADVANCED_FACE ( 'NONE', ( #258 ), #427, .F. ) ;
#403 = ORIENTED_EDGE ( 'NONE', *, *, #590, .T. ) ;
#404 = CARTESIAN_POINT ( 'NONE',  ( 4.000000000000000000, 4.898587196589412829E-16, 3.000000000000000000 ) ) ;
#405 = FACE_OUTER_BOUND ( 'NONE', #1014, .T. ) ;
#406 = DIRECTION ( 'NONE',  ( 1.000000000000000000, -2.891205793294678819E-16, 0.000000000000000000 ) ) ;
#407 = EDGE_CURVE ( 'NONE', #72, #678, #788, .T. ) ;
#408 = DIRECTION ( 'NONE',  ( 0.000000000000000000, 0.000000000000000000, 1.000000000000000000 ) ) ;
#409 = CARTESIAN_POINT ( 'NONE',  ( 11.00000000000000000, -18.50000000000000000, 3.000000000000000000 ) ) ;
#410 = EDGE_LOOP ( 'NONE', ( #351, #857, #129, #971 ) ) ;
#411 = DIRECTION ( 'NONE',  ( -0.000000000000000000, -0.000000000000000000, -1.000000000000000000 ) ) ;
#412 = CIRCLE ( 'NONE', #1047, 1.500000000000686562 ) ;
#413 = VECTOR ( 'NONE', #58, 1000.000000000000000 ) ;
#414 = LINE ( 'NONE', #404, #82 ) ;
#415 = CARTESIAN_POINT ( 'NONE',  ( 10.00000000000083134, 4.817913326678274254E-13, 3.000000000000000000 ) ) ;
#416 = VERTEX_POINT ( 'NONE', #688 ) ;
#417 = CYLINDRICAL_SURFACE ( 'NONE', #1116, 4.000000000000000000 ) ;
#418 = EDGE_CURVE ( 'NONE', #718, #622, #960, .T. ) ;
#419 = ADVANCED_FACE ( 'NONE', ( #70 ), #512, .F. ) ;
#420 = VECTOR ( 'NONE', #411, 1000.000000000000000 ) ;
#421 = CARTESIAN_POINT ( 'NONE',  ( 0.000000000000000000, 8.500000000000000000, 3.000000000000000000 ) ) ;
#422 = DIRECTION ( 'NONE',  ( 1.000000000000000000, 0.000000000000000000, 0.000000000000000000 ) ) ;
#423 = ORIENTED_EDGE ( 'NONE', *, *, #19, .T. ) ;
#424 = FACE_OUTER_BOUND ( 'NONE', #278, .T. ) ;
#425 = EDGE_CURVE ( 'NONE', #980, #623, #1056, .T. ) ;
#426 = DIRECTION ( 'NONE',  ( 0.000000000000000000, 0.000000000000000000, 1.000000000000000000 ) ) ;
#427 = CYLINDRICAL_SURFACE ( 'NONE', #79, 1.500000000000977440 ) ;
#428 = ORIENTED_EDGE ( 'NONE', *, *, #407, .F. ) ;
#429 = DIRECTION ( 'NONE',  ( -1.000000000000000000, 0.000000000000000000, 0.000000000000000000 ) ) ;
#430 = VECTOR ( 'NONE', #279, 1000.000000000000000 ) ;
#431 = AXIS2_PLACEMENT_3D ( 'NONE', #505, #330, #318 ) ;
#432 = FACE_OUTER_BOUND ( 'NONE', #410, .T. ) ;
#433 = DIRECTION ( 'NONE',  ( -1.000000000000000000, 0.000000000000000000, 0.000000000000000000 ) ) ;
#434 = VERTEX_POINT ( 'NONE', #600 ) ;
#435 = DIRECTION ( 'NONE',  ( -1.000000000000000000, 0.000000000000000000, 0.000000000000000000 ) ) ;
#436 = APPROVAL_PERSON_ORGANIZATION ( #113, #796, #656 ) ;
#438 = EDGE_CURVE ( 'NONE', #557, #264, #521, .T. ) ;
#437 = CARTESIAN_POINT ( 'NONE',  ( -8.499999999999520384, -4.826485854272306472E-13, 3.000000000000000000 ) ) ;
#439 = CARTESIAN_POINT ( 'NONE',  ( -10.99999999999999645, -21.00000000000000000, 3.000000000000000000 ) ) ;
#440 = EDGE_LOOP ( 'NONE', ( #689, #838 ) ) ;
#441 = AXIS2_PLACEMENT_3D ( 'NONE', #584, #768, #940 ) ;
#442 = ORIENTED_EDGE ( 'NONE', *, *, #987, .T. ) ;
#443 = FACE_OUTER_BOUND ( 'NONE', #547, .T. ) ;
#444 = ADVANCED_FACE ( 'NONE', ( #579 ), #47, .F. ) ;
#445 = DIRECTION ( 'NONE',  ( 0.000000000000000000, -0.000000000000000000, 1.000000000000000000 ) ) ;
#446 = ORIENTED_EDGE ( 'NONE', *, *, #150, .F. ) ;
#447 = CYLINDRICAL_SURFACE ( 'NONE', #803, 1.500000000000000000 ) ;
#448 = ORIENTED_EDGE ( 'NONE', *, *, #633, .T. ) ;
#449 = DIRECTION ( 'NONE',  ( 0.000000000000000000, -0.000000000000000000, 1.000000000000000000 ) ) ;
#450 = PRODUCT ( 'RisingFrame_Default_sldprt', 'RisingFrame_Default_sldprt', '', ( #891 ) ) ;
#451 = AXIS2_PLACEMENT_3D ( 'NONE', #137, #1110, #51 ) ;
#452 = FACE_OUTER_BOUND ( 'NONE', #6, .T. ) ;
#453 = ORIENTED_EDGE ( 'NONE', *, *, #33, .T. ) ;
#454 = CARTESIAN_POINT ( 'NONE',  ( 0.000000000000000000, 8.500000000000000000, 3.000000000000000000 ) ) ;
#455 = VERTEX_POINT ( 'NONE', #1016 ) ;
#456 = EDGE_CURVE ( 'NONE', #518, #31, #935, .T. ) ;
#457 = PRODUCT_RELATED_PRODUCT_CATEGORY ( 'detail', '', ( #450 ) ) ;
#458 = CARTESIAN_POINT ( 'NONE',  ( -4.999999999999998224, -15.50000000000000000, 3.000000000000000000 ) ) ;
#459 = ORIENTED_EDGE ( 'NONE', *, *, #337, .F. ) ;
#460 = DIRECTION ( 'NONE',  ( -0.000000000000000000, -1.000000000000000000, -0.000000000000000000 ) ) ;
#461 = CARTESIAN_POINT ( 'NONE',  ( 29.00000000000000711, 35.99999999999999289, 0.000000000000000000 ) ) ;
#462 = VERTEX_POINT ( 'NONE', #476 ) ;
#463 = CARTESIAN_POINT ( 'NONE',  ( -30.00000000000000355, 20.99999999999999289, 0.000000000000000000 ) ) ;
#464 = APPROVAL_STATUS ( 'not_yet_approved' ) ;
#465 = DIRECTION ( 'NONE',  ( 0.000000000000000000, 0.000000000000000000, 1.000000000000000000 ) ) ;
#466 = ORIENTED_EDGE ( 'NONE', *, *, #633, .F. ) ;
#467 = VECTOR ( 'NONE', #830, 1000.000000000000000 ) ;
#468 = DIRECTION ( 'NONE',  ( -1.000000000000000000, 0.000000000000000000, 0.000000000000000000 ) ) ;
#469 = AXIS2_PLACEMENT_3D ( 'NONE', #437, #170, #190 ) ;
#470 = CALENDAR_DATE ( 2026, 1, 9 ) ;
#471 = CC_DESIGN_DATE_AND_TIME_ASSIGNMENT ( #739, #996, ( #852 ) ) ;
#472 = DIRECTION ( 'NONE',  ( 0.000000000000000000, 0.000000000000000000, 1.000000000000000000 ) ) ;
#473 = VERTEX_POINT ( 'NONE', #759 ) ;
#474 = ORIENTED_EDGE ( 'NONE', *, *, #779, .T. ) ;
#475 = CC_DESIGN_APPROVAL ( #865, ( #852 ) ) ;
#476 = CARTESIAN_POINT ( 'NONE',  ( -6.999999999998833822, -4.824648884073584056E-13, 0.000000000000000000 ) ) ;
#477 = VERTEX_POINT ( 'NONE', #922 ) ;
#478 = ORIENTED_EDGE ( 'NONE', *, *, #132, .F. ) ;
#479 = PLANE ( 'NONE',  #236 ) ;
#480 = DATE_AND_TIME ( #35, #36 ) ;
#481 = CARTESIAN_POINT ( 'NONE',  ( 30.00000000000000355, 20.99999999999999645, 3.000000000000000000 ) ) ;
#482 = VERTEX_POINT ( 'NONE', #308 ) ;
#483 = ORIENTED_EDGE ( 'NONE', *, *, #987, .F. ) ;
#484 = PLANE ( 'NONE',  #237 ) ;
#485 = FACE_OUTER_BOUND ( 'NONE', #880, .T. ) ;
#486 = VECTOR ( 'NONE', #900, 1000.000000000000000 ) ;
#487 = CARTESIAN_POINT ( 'NONE',  ( 0.000000000000000000, 0.000000000000000000, 0.000000000000000000 ) ) ;
#488 = ORIENTED_EDGE ( 'NONE', *, *, #97, .T. ) ;
#489 = EDGE_CURVE ( 'NONE', #718, #18, #231, .T. ) ;
#490 = DIRECTION ( 'NONE',  ( 0.000000000000000000, 0.000000000000000000, 1.000000000000000000 ) ) ;
#491 = CARTESIAN_POINT ( 'NONE',  ( -26.00000000000000355, 35.99999999999999289, 3.000000000000000000 ) ) ;
#492 = PLANE ( 'NONE',  #846 ) ;
#493 = VECTOR ( 'NONE', #723, 1000.000000000000000 ) ;
#494 = LINE ( 'NONE', #64, #728 ) ;
#495 = FACE_BOUND ( 'NONE', #200, .T. ) ;
#496 = EDGE_LOOP ( 'NONE', ( #1057, #358, #156, #861 ) ) ;
#497 = DIRECTION ( 'NONE',  ( 0.000000000000000000, 0.000000000000000000, 1.000000000000000000 ) ) ;
#498 = DIRECTION ( 'NONE',  ( 0.000000000000000000, 0.000000000000000000, 1.000000000000000000 ) ) ;
#499 = CARTESIAN_POINT ( 'NONE',  ( -11.00000000000000000, -18.50000000000000000, 0.000000000000000000 ) ) ;
#500 = ORIENTED_EDGE ( 'NONE', *, *, #12, .T. ) ;
#501 = FACE_OUTER_BOUND ( 'NONE', #60, .T. ) ;
#502 = AXIS2_PLACEMENT_3D ( 'NONE', #781, #954, #422 ) ;
#503 = ADVANCED_FACE ( 'NONE', ( #395 ), #835, .F. ) ;
#504 = AXIS2_PLACEMENT_3D ( 'NONE', #1029, #943, #154 ) ;
#505 = CARTESIAN_POINT ( 'NONE',  ( 0.000000000000000000, 8.500000000000000000, 0.000000000000000000 ) ) ;
#506 = DIRECTION ( 'NONE',  ( 0.000000000000000000, 0.000000000000000000, 1.000000000000000000 ) ) ;
#507 = EDGE_CURVE ( 'NONE', #1108, #416, #753, .T. ) ;
#508 = ORIENTED_EDGE ( 'NONE', *, *, #354, .T. ) ;
#509 = DIRECTION ( 'NONE',  ( 0.000000000000000000, 1.000000000000000000, 0.000000000000000000 ) ) ;
#510 = AXIS2_PLACEMENT_3D ( 'NONE', #893, #1061, #164 ) ;
#511 = PLANE ( 'NONE',  #811 ) ;
#512 = CYLINDRICAL_SURFACE ( 'NONE', #874, 1.500000000000686562 ) ;
#513 = EDGE_LOOP ( 'NONE', ( #792, #179 ) ) ;
#514 = CARTESIAN_POINT ( 'NONE',  ( 0.000000000000000000, 0.000000000000000000, 3.000000000000000000 ) ) ;
#515 = PERSON ( 'UNSPECIFIED', 'UNSPECIFIED', 'UNSPECIFIED', ('UNSPECIFIED'), ('UNSPECIFIED'), ('UNSPECIFIED') ) ;
#516 = CARTESIAN_POINT ( 'NONE',  ( 7.000000000000135003, 4.816076356479553858E-13, 3.000000000000000000 ) ) ;
#517 = DIRECTION ( 'NONE',  ( 0.000000000000000000, 1.000000000000000000, 0.000000000000000000 ) ) ;
#518 = VERTEX_POINT ( 'NONE', #133 ) ;
#519 = LINE ( 'NONE', #536, #71 ) ;
#520 = UNCERTAINTY_MEASURE_WITH_UNIT (LENGTH_MEASURE( 1.000000000000000082E-05 ), #366, 'distance_accuracy_value', 'NONE');
#521 = CIRCLE ( 'NONE', #502, 4.000000000000000000 ) ;
#522 = EDGE_CURVE ( 'NONE', #531, #1079, #1111, .T. ) ;
#523 = AXIS2_PLACEMENT_3D ( 'NONE', #342, #5, #335 ) ;
#524 = CYLINDRICAL_SURFACE ( 'NONE', #217, 1.500000000000000000 ) ;
#525 = CARTESIAN_POINT ( 'NONE',  ( 8.500000000000483169, 4.816076356479553858E-13, 3.000000000000000000 ) ) ;
#526 = VERTEX_POINT ( 'NONE', #745 ) ;
#527 = EDGE_CURVE ( 'NONE', #264, #557, #120, .T. ) ;
#528 = ORIENTED_EDGE ( 'NONE', *, *, #868, .F. ) ;
#529 = LINE ( 'NONE', #983, #149 ) ;
#530 = FACE_OUTER_BOUND ( 'NONE', #1113, .T. ) ;
#531 = VERTEX_POINT ( 'NONE', #841 ) ;
#532 = VECTOR ( 'NONE', #21, 1000.000000000000000 ) ;
#533 = LINE ( 'NONE', #895, #486 ) ;
#534 = LOCAL_TIME ( 18, 28, 33.00000000000000000, #204 ) ;
#535 = ORIENTED_EDGE ( 'NONE', *, *, #1135, .F. ) ;
#536 = CARTESIAN_POINT ( 'NONE',  ( 29.99999999999999645, 50.99999999999999289, 3.000000000000000000 ) ) ;
#537 = DIRECTION ( 'NONE',  ( -0.000000000000000000, -0.000000000000000000, -1.000000000000000000 ) ) ;
#538 = VERTEX_POINT ( 'NONE', #52 ) ;
#539 = CARTESIAN_POINT ( 'NONE',  ( -4.000000000000000000, 0.000000000000000000, 3.000000000000000000 ) ) ;
#540 = EDGE_CURVE ( 'NONE', #1143, #643, #680, .T. ) ;
#541 = ORIENTED_EDGE ( 'NONE', *, *, #802, .T. ) ;
#542 = CC_DESIGN_PERSON_AND_ORGANIZATION_ASSIGNMENT ( #733, #211, ( #125 ) ) ;
#543 = CIRCLE ( 'NONE', #355, 4.000000000000000000 ) ;
#544 = CARTESIAN_POINT ( 'NONE',  ( 11.00000000000000000, -15.49999999999999645, 3.000000000000000000 ) ) ;
#545 = ORIENTED_EDGE ( 'NONE', *, *, #961, .F. ) ;
#546 = CARTESIAN_POINT ( 'NONE',  ( 29.99999999999999645, 50.99999999999999289, 0.000000000000000000 ) ) ;
#547 = EDGE_LOOP ( 'NONE', ( #890, #746, #500, #209 ) ) ;
#548 = DIRECTION ( 'NONE',  ( 0.000000000000000000, 0.000000000000000000, 1.000000000000000000 ) ) ;
#549 = EDGE_CURVE ( 'NONE', #1079, #473, #585, .T. ) ;
#550 = DIRECTION ( 'NONE',  ( 1.000000000000000000, 1.826024711554533420E-16, -0.000000000000000000 ) ) ;
#551 = VERTEX_POINT ( 'NONE', #581 ) ;
#552 = CARTESIAN_POINT ( 'NONE',  ( -10.99999999999999645, -21.00000000000000000, 3.000000000000000000 ) ) ;
#553 = PERSON_AND_ORGANIZATION ( #515, #625 ) ;
#554 = VECTOR ( 'NONE', #589, 1000.000000000000000 ) ;
#555 = CARTESIAN_POINT ( 'NONE',  ( 11.00000000000000000, 21.00000000000000000, 3.000000000000000000 ) ) ;
#556 = ORIENTED_EDGE ( 'NONE', *, *, #597, .T. ) ;
#557 = VERTEX_POINT ( 'NONE', #54 ) ;
#558 = DATE_AND_TIME ( #292, #942 ) ;
#559 = EDGE_CURVE ( 'NONE', #767, #135, #620, .T. ) ;
#560 = LINE ( 'NONE', #642, #245 ) ;
#561 = EDGE_LOOP ( 'NONE', ( #826, #631, #67, #962 ) ) ;
#562 = VECTOR ( 'NONE', #1076, 1000.000000000000000 ) ;
#563 = ORIENTED_EDGE ( 'NONE', *, *, #1059, .F. ) ;
#564 = AXIS2_PLACEMENT_3D ( 'NONE', #575, #408, #763 ) ;
#565 = APPROVAL_DATE_TIME ( #215, #865 ) ;
#566 = ADVANCED_FACE ( 'NONE', ( #243 ), #160, .F. ) ;
#567 = CARTESIAN_POINT ( 'NONE',  ( -27.50000000000000355, 35.99999999999999289, 3.000000000000000000 ) ) ;
#568 = ORIENTED_EDGE ( 'NONE', *, *, #150, .T. ) ;
#569 = ORIENTED_EDGE ( 'NONE', *, *, #813, .T. ) ;
#570 = PLANE ( 'NONE',  #747 ) ;
#571 = CIRCLE ( 'NONE', #224, 1.500000000000348166 ) ;
#572 = DIRECTION ( 'NONE',  ( 1.826024711554533174E-16, 1.000000000000000000, -0.000000000000000000 ) ) ;
#573 = ORIENTED_EDGE ( 'NONE', *, *, #941, .F. ) ;
#574 = ORIENTED_EDGE ( 'NONE', *, *, #181, .T. ) ;
#575 = CARTESIAN_POINT ( 'NONE',  ( 9.632152712959107716E-13, -8.500000000000000000, 0.000000000000000000 ) ) ;
#576 = DIRECTION ( 'NONE',  ( 0.000000000000000000, -1.000000000000000000, 0.000000000000000000 ) ) ;
#577 = APPROVAL_STATUS ( 'not_yet_approved' ) ;
#578 = ADVANCED_FACE ( 'NONE', ( #1024 ), #1039, .F. ) ;
#579 = FACE_OUTER_BOUND ( 'NONE', #381, .T. ) ;
#580 = ORIENTED_EDGE ( 'NONE', *, *, #1094, .T. ) ;
#581 = CARTESIAN_POINT ( 'NONE',  ( 11.00000000000000000, -18.50000000000000000, 0.000000000000000000 ) ) ;
#582 = CARTESIAN_POINT ( 'NONE',  ( 0.000000000000000000, 0.000000000000000000, 3.000000000000000000 ) ) ;
#583 = VECTOR ( 'NONE', #460, 1000.000000000000000 ) ;
#584 = CARTESIAN_POINT ( 'NONE',  ( 27.50000000000000711, 35.99999999999999289, 3.000000000000000000 ) ) ;
#585 = LINE ( 'NONE', #756, #267 ) ;
#586 = CARTESIAN_POINT ( 'NONE',  ( -26.00000000000000355, 35.99999999999999289, 3.000000000000000000 ) ) ;
#587 = ORIENTED_EDGE ( 'NONE', *, *, #181, .F. ) ;
#588 = CC_DESIGN_SECURITY_CLASSIFICATION ( #125, ( #384 ) ) ;
#589 = DIRECTION ( 'NONE',  ( -1.000000000000000000, 0.000000000000000000, 0.000000000000000000 ) ) ;
#590 = EDGE_CURVE ( 'NONE', #831, #557, #414, .T. ) ;
#591 = AXIS2_PLACEMENT_3D ( 'NONE', #984, #370, #1081 ) ;
#592 = DIRECTION ( 'NONE',  ( 1.000000000000000000, 0.000000000000000000, 0.000000000000000000 ) ) ;
#593 = DIRECTION ( 'NONE',  ( 0.000000000000000000, -0.000000000000000000, -1.000000000000000000 ) ) ;
#594 = CC_DESIGN_DATE_AND_TIME_ASSIGNMENT ( #558, #1099, ( #125 ) ) ;
#595 = ORIENTED_EDGE ( 'NONE', *, *, #1100, .T. ) ;
#596 = FACE_BOUND ( 'NONE', #280, .T. ) ;
#597 = EDGE_CURVE ( 'NONE', #693, #283, #770, .T. ) ;
#598 = ADVANCED_FACE ( 'NONE', ( #1119 ), #675, .F. ) ;
#599 = LINE ( 'NONE', #398, #121 ) ;
#600 = CARTESIAN_POINT ( 'NONE',  ( 29.99999999999999645, 50.99999999999999289, 0.000000000000000000 ) ) ;
#601 = ORIENTED_EDGE ( 'NONE', *, *, #320, .F. ) ;
#602 = CARTESIAN_POINT ( 'NONE',  ( 8.500000000000483169, 4.816076356479553858E-13, 0.000000000000000000 ) ) ;
#603 = VECTOR ( 'NONE', #1137, 1000.000000000000000 ) ;
#604 = DIRECTION ( 'NONE',  ( -0.000000000000000000, -0.000000000000000000, -1.000000000000000000 ) ) ;
#605 = CARTESIAN_POINT ( 'NONE',  ( -10.99999999999999645, -21.00000000000000000, 3.000000000000000000 ) ) ;
#606 = ORIENTED_EDGE ( 'NONE', *, *, #559, .F. ) ;
#607 = CYLINDRICAL_SURFACE ( 'NONE', #1072, 1.500000000000686562 ) ;
#608 = VECTOR ( 'NONE', #235, 1000.000000000000000 ) ;
#609 = CARTESIAN_POINT ( 'NONE',  ( -11.00000000000000000, -18.50000000000000000, 3.000000000000000000 ) ) ;
#610 = DIRECTION ( 'NONE',  ( 0.000000000000000000, 0.000000000000000000, 1.000000000000000000 ) ) ;
#611 = EDGE_LOOP ( 'NONE', ( #569, #87 ) ) ;
#612 = CARTESIAN_POINT ( 'NONE',  ( -10.99999999999999822, -15.50000000000000000, 0.000000000000000000 ) ) ;
#613 = EDGE_CURVE ( 'NONE', #477, #1017, #677, .T. ) ;
#614 = EDGE_CURVE ( 'NONE', #526, #767, #599, .T. ) ;
#615 = DIRECTION ( 'NONE',  ( 1.000000000000000000, 1.387778780781444492E-15, -0.000000000000000000 ) ) ;
#616 = PLANE ( 'NONE',  #101 ) ;
#617 = EDGE_LOOP ( 'NONE', ( #1064, #945 ) ) ;
#618 = CARTESIAN_POINT ( 'NONE',  ( 27.50000000000000711, 35.99999999999999289, 3.000000000000000000 ) ) ;
#619 = VECTOR ( 'NONE', #1118, 1000.000000000000000 ) ;
#620 = CIRCLE ( 'NONE', #431, 1.500000000000000000 ) ;
#621 = CARTESIAN_POINT ( 'NONE',  ( -27.50000000000000355, 35.99999999999999289, 0.000000000000000000 ) ) ;
#622 = VERTEX_POINT ( 'NONE', #69 ) ;
#623 = VERTEX_POINT ( 'NONE', #1109 ) ;
#624 = CARTESIAN_POINT ( 'NONE',  ( 0.000000000000000000, 0.000000000000000000, 0.000000000000000000 ) ) ;
#625 = ORGANIZATION ( 'UNSPECIFIED', 'UNSPECIFIED', '' ) ;
#626 = EDGE_CURVE ( 'NONE', #283, #888, #667, .T. ) ;
#627 = CARTESIAN_POINT ( 'NONE',  ( 1.500000000000000000, 8.500000000000000000, 0.000000000000000000 ) ) ;
#628 = ORIENTED_EDGE ( 'NONE', *, *, #12, .F. ) ;
#629 = VECTOR ( 'NONE', #858, 1000.000000000000000 ) ;
#630 = CARTESIAN_POINT ( 'NONE',  ( 26.00000000000000711, 35.99999999999999289, 3.000000000000000000 ) ) ;
#631 = ORIENTED_EDGE ( 'NONE', *, *, #169, .T. ) ;
#632 = CARTESIAN_POINT ( 'NONE',  ( -26.00000000000000355, 35.99999999999999289, 0.000000000000000000 ) ) ;
#633 = EDGE_CURVE ( 'NONE', #365, #473, #233, .T. ) ;
#635 = EDGE_CURVE ( 'NONE', #693, #737, #147, .T. ) ;
#634 = LINE ( 'NONE', #25, #1151 ) ;
#636 = ORIENTED_EDGE ( 'NONE', *, *, #626, .T. ) ;
#637 = LINE ( 'NONE', #546, #934 ) ;
#638 = ORIENTED_EDGE ( 'NONE', *, *, #1002, .T. ) ;
#639 = DIRECTION ( 'NONE',  ( -0.000000000000000000, -0.000000000000000000, -1.000000000000000000 ) ) ;
#640 = ORIENTED_EDGE ( 'NONE', *, *, #614, .T. ) ;
#641 = AXIS2_PLACEMENT_3D ( 'NONE', #648, #799, #468 ) ;
#642 = CARTESIAN_POINT ( 'NONE',  ( -11.00000000000000000, 20.99999999999999645, 0.000000000000000000 ) ) ;
#643 = VERTEX_POINT ( 'NONE', #229 ) ;
#644 = DIRECTION ( 'NONE',  ( -0.000000000000000000, -0.000000000000000000, -1.000000000000000000 ) ) ;
#645 = COORDINATED_UNIVERSAL_TIME_OFFSET ( 5, 30, .AHEAD. ) ;
#646 = DIRECTION ( 'NONE',  ( -0.000000000000000000, -0.000000000000000000, -1.000000000000000000 ) ) ;
#647 = EDGE_LOOP ( 'NONE', ( #754, #446 ) ) ;
#648 = CARTESIAN_POINT ( 'NONE',  ( -27.50000000000000355, 35.99999999999999289, 3.000000000000000000 ) ) ;
#649 = PERSON_AND_ORGANIZATION_ROLE ( 'creator' ) ;
#650 = VECTOR ( 'NONE', #509, 1000.000000000000000 ) ;
#651 = EDGE_CURVE ( 'NONE', #283, #980, #494, .T. ) ;
#652 = EDGE_CURVE ( 'NONE', #294, #643, #661, .T. ) ;
#653 = CARTESIAN_POINT ( 'NONE',  ( 11.00000000000000000, 21.00000000000000000, 0.000000000000000000 ) ) ;
#654 = EDGE_LOOP ( 'NONE', ( #297, #254, #712, #508 ) ) ;
#655 = VERTEX_POINT ( 'NONE', #325 ) ;
#656 = APPROVAL_ROLE ( '' ) ;
#657 = LINE ( 'NONE', #1012, #313 ) ;
#658 = EDGE_LOOP ( 'NONE', ( #1077, #568, #368, #1096 ) ) ;
#659 = AXIS2_PLACEMENT_3D ( 'NONE', #372, #816, #27 ) ;
#660 = ORIENTED_EDGE ( 'NONE', *, *, #903, .T. ) ;
#661 = CIRCLE ( 'NONE', #564, 1.500000000000977440 ) ;
#662 = APPROVAL_DATE_TIME ( #480, #1150 ) ;
#663 = DIRECTION ( 'NONE',  ( -1.000000000000000000, 1.826024711554533174E-16, 0.000000000000000000 ) ) ;
#664 = EDGE_CURVE ( 'NONE', #42, #678, #948, .T. ) ;
#665 = EDGE_LOOP ( 'NONE', ( #1013, #640, #528, #810 ) ) ;
#666 = ORIENTED_EDGE ( 'NONE', *, *, #104, .T. ) ;
#667 = LINE ( 'NONE', #238, #29 ) ;
#668 = CARTESIAN_POINT ( 'NONE',  ( 9.632152712959107716E-13, -8.500000000000000000, 0.000000000000000000 ) ) ;
#669 = CIRCLE ( 'NONE', #441, 1.500000000000001332 ) ;
#670 = ADVANCED_FACE ( 'NONE', ( #136 ), #484, .F. ) ;
#671 = DIRECTION ( 'NONE',  ( -1.000000000000000000, -1.826024711554533174E-16, 0.000000000000000000 ) ) ;
#672 = EDGE_LOOP ( 'NONE', ( #309, #375 ) ) ;
#673 = CARTESIAN_POINT ( 'NONE',  ( 5.000000000000001776, -18.49999999999999645, 3.000000000000000000 ) ) ;
#674 = DIRECTION ( 'NONE',  ( 1.000000000000000000, 0.000000000000000000, 0.000000000000000000 ) ) ;
#675 = PLANE ( 'NONE',  #504 ) ;
#676 = LINE ( 'NONE', #833, #783 ) ;
#677 = CIRCLE ( 'NONE', #11, 1.500000000000348166 ) ;
#678 = VERTEX_POINT ( 'NONE', #252 ) ;
#679 = PLANE ( 'NONE',  #758 ) ;
#680 = LINE ( 'NONE', #848, #936 ) ;
#681 = FACE_BOUND ( 'NONE', #3, .T. ) ;
#682 = EDGE_LOOP ( 'NONE', ( #268, #194 ) ) ;
#683 = CARTESIAN_POINT ( 'NONE',  ( 7.000000000000135003, 4.816076356479553858E-13, 3.000000000000000000 ) ) ;
#684 = ADVANCED_FACE ( 'NONE', ( #175 ), #524, .F. ) ;
#685 = VECTOR ( 'NONE', #972, 1000.000000000000000 ) ;
#686 = APPROVAL_PERSON_ORGANIZATION ( #390, #1150, #300 ) ;
#687 = DIRECTION ( 'NONE',  ( 1.000000000000000000, 0.000000000000000000, 0.000000000000000000 ) ) ;
#688 = CARTESIAN_POINT ( 'NONE',  ( -30.00000000000000355, 50.99999999999999289, 0.000000000000000000 ) ) ;
#689 = ORIENTED_EDGE ( 'NONE', *, *, #883, .F. ) ;
#690 = CARTESIAN_POINT ( 'NONE',  ( -27.50000000000000355, 35.99999999999999289, 3.000000000000000000 ) ) ;
#691 = FACE_OUTER_BOUND ( 'NONE', #396, .T. ) ;
#692 = DIRECTION ( 'NONE',  ( 1.000000000000000000, 0.000000000000000000, 0.000000000000000000 ) ) ;
#693 = VERTEX_POINT ( 'NONE', #266 ) ;
#694 = LINE ( 'NONE', #683, #420 ) ;
#695 = VECTOR ( 'NONE', #144, 1000.000000000000000 ) ;
#697 = ADVANCED_FACE ( 'NONE', ( #979 ), #968, .F. ) ;
#696 = LINE ( 'NONE', #701, #177 ) ;
#698 = LINE ( 'NONE', #605, #140 ) ;
#699 = ORIENTED_EDGE ( 'NONE', *, *, #527, .T. ) ;
#700 = CARTESIAN_POINT ( 'NONE',  ( 5.000000000000001776, -18.49999999999999645, 0.000000000000000000 ) ) ;
#701 = CARTESIAN_POINT ( 'NONE',  ( 29.99999999999999645, 50.99999999999999289, 3.000000000000000000 ) ) ;
#702 = DIRECTION ( 'NONE',  ( -1.000000000000000000, 0.000000000000000000, 0.000000000000000000 ) ) ;
#703 = ORIENTED_EDGE ( 'NONE', *, *, #456, .T. ) ;
#704 = DIRECTION ( 'NONE',  ( 1.000000000000000000, 0.000000000000000000, -0.000000000000000000 ) ) ;
#705 = CARTESIAN_POINT ( 'NONE',  ( 9.632152712959107716E-13, -8.500000000000000000, 3.000000000000000000 ) ) ;
#706 = EDGE_LOOP ( 'NONE', ( #1075, #474, #703, #1041 ) ) ;
#707 = ORIENTED_EDGE ( 'NONE', *, *, #45, .F. ) ;
#708 = PRODUCT_DEFINITION_SHAPE ( 'NONE', 'NONE',  #852 ) ;
#709 = VECTOR ( 'NONE', #1040, 1000.000000000000000 ) ;
#710 = AXIS2_PLACEMENT_3D ( 'NONE', #356, #426, #787 ) ;
#711 = DIRECTION ( 'NONE',  ( -2.312964634635743450E-16, 1.000000000000000000, -0.000000000000000000 ) ) ;
#712 = ORIENTED_EDGE ( 'NONE', *, *, #829, .F. ) ;
#713 = DIRECTION ( 'NONE',  ( 0.000000000000000000, 0.000000000000000000, 1.000000000000000000 ) ) ;
#714 = VERTEX_POINT ( 'NONE', #1136 ) ;
#715 = CYLINDRICAL_SURFACE ( 'NONE', #1132, 4.000000000000000000 ) ;
#716 = ADVANCED_FACE ( 'NONE', ( #257 ), #791, .F. ) ;
#717 = CARTESIAN_POINT ( 'NONE',  ( -1.500000000000000000, 8.500000000000000000, 3.000000000000000000 ) ) ;
#718 = VERTEX_POINT ( 'NONE', #609 ) ;
#719 = AXIS2_PLACEMENT_3D ( 'NONE', #180, #275, #989 ) ;
#720 = CARTESIAN_POINT ( 'NONE',  ( -1.500000000000014433, -8.500000000000000000, 3.000000000000000000 ) ) ;
#721 = ORIENTED_EDGE ( 'NONE', *, *, #1043, .T. ) ;
#722 = DIRECTION ( 'NONE',  ( 1.000000000000000000, 0.000000000000000000, 0.000000000000000000 ) ) ;
#723 = DIRECTION ( 'NONE',  ( -0.000000000000000000, -1.000000000000000000, -0.000000000000000000 ) ) ;
#724 = ORIENTED_EDGE ( 'NONE', *, *, #871, .F. ) ;
#725 = LINE ( 'NONE', #720, #837 ) ;
#726 = PERSON_AND_ORGANIZATION ( #515, #625 ) ;
#727 = CIRCLE ( 'NONE', #1063, 1.500000000000001332 ) ;
#728 = VECTOR ( 'NONE', #143, 1000.000000000000000 ) ;
#729 = CARTESIAN_POINT ( 'NONE',  ( 29.00000000000000711, 35.99999999999999289, 3.000000000000000000 ) ) ;
#730 = ORIENTED_EDGE ( 'NONE', *, *, #369, .T. ) ;
#731 = DIRECTION ( 'NONE',  ( -0.000000000000000000, -0.000000000000000000, -1.000000000000000000 ) ) ;
#732 = ADVANCED_FACE ( 'NONE', ( #80 ), #1066, .F. ) ;
#733 = PERSON_AND_ORGANIZATION ( #515, #625 ) ;
#734 = CC_DESIGN_APPROVAL ( #1150, ( #125 ) ) ;
#735 = CARTESIAN_POINT ( 'NONE',  ( -1.500000000000000000, 8.500000000000000000, 3.000000000000000000 ) ) ;
#736 = ORIENTED_EDGE ( 'NONE', *, *, #522, .F. ) ;
#737 = VERTEX_POINT ( 'NONE', #1145 ) ;
#738 = AXIS2_PLACEMENT_3D ( 'NONE', #621, #975, #182 ) ;
#739 = DATE_AND_TIME ( #118, #184 ) ;
#740 = VECTOR ( 'NONE', #993, 1000.000000000000000 ) ;
#741 = PLANE ( 'NONE',  #927 ) ;
#742 = ORIENTED_EDGE ( 'NONE', *, *, #651, .F. ) ;
#743 = ORIENTED_EDGE ( 'NONE', *, *, #863, .T. ) ;
#744 = EDGE_CURVE ( 'NONE', #388, #896, #696, .T. ) ;
#745 = CARTESIAN_POINT ( 'NONE',  ( 1.500000000000000000, 8.500000000000000000, 3.000000000000000000 ) ) ;
#746 = ORIENTED_EDGE ( 'NONE', *, *, #119, .T. ) ;
#747 = AXIS2_PLACEMENT_3D ( 'NONE', #223, #576, #593 ) ;
#748 = EDGE_LOOP ( 'NONE', ( #541, #240, #981, #535 ) ) ;
#749 = EDGE_CURVE ( 'NONE', #551, #737, #350, .T. ) ;
#750 = CARTESIAN_POINT ( 'NONE',  ( -4.999999999999999112, -18.50000000000000000, 3.000000000000000000 ) ) ;
#751 = FACE_BOUND ( 'NONE', #440, .T. ) ;
#752 = EDGE_CURVE ( 'NONE', #250, #772, #973, .T. ) ;
#753 = LINE ( 'NONE', #391, #467 ) ;
#754 = ORIENTED_EDGE ( 'NONE', *, *, #256, .F. ) ;
#755 = EDGE_LOOP ( 'NONE', ( #53, #373, #950, #214 ) ) ;
#756 = CARTESIAN_POINT ( 'NONE',  ( -10.99999999999999822, -15.50000000000000000, 0.000000000000000000 ) ) ;
#757 = DIRECTION ( 'NONE',  ( -1.119176436114069085E-16, 1.000000000000000000, 0.000000000000000000 ) ) ;
#758 = AXIS2_PLACEMENT_3D ( 'NONE', #241, #449, #704 ) ;
#759 = CARTESIAN_POINT ( 'NONE',  ( -4.999999999999998224, -15.50000000000000000, 0.000000000000000000 ) ) ;
#760 = CARTESIAN_POINT ( 'NONE',  ( 5.000000000000001776, -18.49999999999999645, 3.000000000000000000 ) ) ;
#761 = CARTESIAN_POINT ( 'NONE',  ( -1.500000000000014433, -8.500000000000000000, 0.000000000000000000 ) ) ;
#762 = DIRECTION ( 'NONE',  ( 2.891205793294678819E-16, 1.000000000000000000, 0.000000000000000000 ) ) ;
#763 = DIRECTION ( 'NONE',  ( 1.000000000000000000, 0.000000000000000000, 0.000000000000000000 ) ) ;
#764 = CARTESIAN_POINT ( 'NONE',  ( -4.000000000000000000, 0.000000000000000000, 0.000000000000000000 ) ) ;
#765 = VECTOR ( 'NONE', #1141, 1000.000000000000000 ) ;
#766 = ADVANCED_FACE ( 'NONE', ( #691 ), #1050, .F. ) ;
#767 = VERTEX_POINT ( 'NONE', #627 ) ;
#768 = DIRECTION ( 'NONE',  ( 0.000000000000000000, 0.000000000000000000, 1.000000000000000000 ) ) ;
#769 = EDGE_CURVE ( 'NONE', #518, #982, #1124, .T. ) ;
#770 = LINE ( 'NONE', #760, #413 ) ;
#771 = DIRECTION ( 'NONE',  ( -0.000000000000000000, -0.000000000000000000, -1.000000000000000000 ) ) ;
#772 = VERTEX_POINT ( 'NONE', #516 ) ;
#773 = DIRECTION ( 'NONE',  ( -0.000000000000000000, -0.000000000000000000, -1.000000000000000000 ) ) ;
#774 = AXIS2_PLACEMENT_3D ( 'NONE', #262, #615, #959 ) ;
#775 = DIRECTION ( 'NONE',  ( -1.000000000000000000, 0.000000000000000000, 0.000000000000000000 ) ) ;
#776 = LINE ( 'NONE', #171, #603 ) ;
#777 = ORIENTED_EDGE ( 'NONE', *, *, #66, .T. ) ;
#778 = FACE_BOUND ( 'NONE', #682, .T. ) ;
#779 = EDGE_CURVE ( 'NONE', #982, #518, #357, .T. ) ;
#780 = DIRECTION ( 'NONE',  ( -0.000000000000000000, -0.000000000000000000, -1.000000000000000000 ) ) ;
#781 = CARTESIAN_POINT ( 'NONE',  ( 0.000000000000000000, 0.000000000000000000, 0.000000000000000000 ) ) ;
#782 = ADVANCED_BREP_SHAPE_REPRESENTATION ( 'RisingFrame_Default_sldprt', ( #1069, #885 ), #1033 ) ;
#783 = VECTOR ( 'NONE', #394, 1000.000000000000000 ) ;
#784 = EDGE_LOOP ( 'NONE', ( #815, #428, #459, #488 ) ) ;
#785 = CARTESIAN_POINT ( 'NONE',  ( 7.000000000000135003, 4.816076356479553858E-13, 0.000000000000000000 ) ) ;
#786 = VECTOR ( 'NONE', #336, 1000.000000000000000 ) ;
#787 = DIRECTION ( 'NONE',  ( 1.000000000000000000, 0.000000000000000000, 0.000000000000000000 ) ) ;
#788 = LINE ( 'NONE', #1147, #709 ) ;
#789 = ORIENTED_EDGE ( 'NONE', *, *, #613, .F. ) ;
#790 = CIRCLE ( 'NONE', #206, 1.500000000000000000 ) ;
#791 = PLANE ( 'NONE',  #523 ) ;
#792 = ORIENTED_EDGE ( 'NONE', *, *, #369, .F. ) ;
#793 = ADVANCED_FACE ( 'NONE', ( #432 ), #1055, .F. ) ;
#794 = ORIENTED_EDGE ( 'NONE', *, *, #974, .F. ) ;
#795 = DIRECTION ( 'NONE',  ( -2.891205793294679312E-16, -1.000000000000000000, 0.000000000000000000 ) ) ;
#796 = APPROVAL ( #464, 'UNSPECIFIED' ) ;
#797 = CARTESIAN_POINT ( 'NONE',  ( 8.500000000000483169, 4.816076356479553858E-13, 3.000000000000000000 ) ) ;
#798 = EDGE_LOOP ( 'NONE', ( #905, #573, #360, #14 ) ) ;
#799 = DIRECTION ( 'NONE',  ( -0.000000000000000000, -0.000000000000000000, -1.000000000000000000 ) ) ;
#800 = EDGE_LOOP ( 'NONE', ( #976, #338, #822, #587 ) ) ;
#801 = CARTESIAN_POINT ( 'NONE',  ( -8.499999999999520384, -4.826485854272306472E-13, 0.000000000000000000 ) ) ;
#802 = EDGE_CURVE ( 'NONE', #655, #232, #189, .T. ) ;
#803 = AXIS2_PLACEMENT_3D ( 'NONE', #454, #644, #995 ) ;
#804 = DIRECTION ( 'NONE',  ( 1.000000000000000000, 0.000000000000000000, 0.000000000000000000 ) ) ;
#805 = ORIENTED_EDGE ( 'NONE', *, *, #256, .T. ) ;
#806 = CARTESIAN_POINT ( 'NONE',  ( 30.00000000000000355, 20.99999999999999645, 3.000000000000000000 ) ) ;
#807 = ORIENTED_EDGE ( 'NONE', *, *, #62, .F. ) ;
#808 = FACE_OUTER_BOUND ( 'NONE', #9, .T. ) ;
#809 = LINE ( 'NONE', #729, #864 ) ;
#810 = ORIENTED_EDGE ( 'NONE', *, *, #921, .F. ) ;
#811 = AXIS2_PLACEMENT_3D ( 'NONE', #886, #92, #445 ) ;
#812 = DIRECTION ( 'NONE',  ( 1.000000000000000000, 0.000000000000000000, 0.000000000000000000 ) ) ;
#813 = EDGE_CURVE ( 'NONE', #924, #1148, #259, .T. ) ;
#814 = CARTESIAN_POINT ( 'NONE',  ( -11.00000000000000000, 0.000000000000000000, 3.000000000000000000 ) ) ;
#815 = ORIENTED_EDGE ( 'NONE', *, *, #664, .T. ) ;
#816 = DIRECTION ( 'NONE',  ( 0.000000000000000000, 0.000000000000000000, 1.000000000000000000 ) ) ;
#817 = DATE_AND_TIME ( #920, #534 ) ;
#818 = ADVANCED_FACE ( 'NONE', ( #530 ), #511, .F. ) ;
#819 = AXIS2_PLACEMENT_3D ( 'NONE', #481, #572, #663 ) ;
#820 = AXIS2_PLACEMENT_3D ( 'NONE', #952, #311, #490 ) ;
#821 = CARTESIAN_POINT ( 'NONE',  ( 4.000000000000000000, 4.898587196589412829E-16, 3.000000000000000000 ) ) ;
#822 = ORIENTED_EDGE ( 'NONE', *, *, #191, .F. ) ;
#823 = LINE ( 'NONE', #463, #583 ) ;
#824 = PERSON_AND_ORGANIZATION_ROLE ( 'design_supplier' ) ;
#825 = CARTESIAN_POINT ( 'NONE',  ( -10.99999999999999822, -15.50000000000000000, 3.000000000000000000 ) ) ;
#826 = ORIENTED_EDGE ( 'NONE', *, *, #769, .T. ) ;
#827 = ORIENTED_EDGE ( 'NONE', *, *, #66, .F. ) ;
#828 = AXIS2_PLACEMENT_3D ( 'NONE', #618, #639, #10 ) ;
#829 = EDGE_CURVE ( 'NONE', #881, #388, #201, .T. ) ;
#830 = DIRECTION ( 'NONE',  ( -0.000000000000000000, -0.000000000000000000, -1.000000000000000000 ) ) ;
#831 = VERTEX_POINT ( 'NONE', #821 ) ;
#832 = ORIENTED_EDGE ( 'NONE', *, *, #438, .T. ) ;
#833 = CARTESIAN_POINT ( 'NONE',  ( 30.00000000000000355, 20.99999999999999645, 0.000000000000000000 ) ) ;
#834 = EDGE_CURVE ( 'NONE', #526, #850, #1021, .T. ) ;
#835 = PLANE ( 'NONE',  #819 ) ;
#836 = ORIENTED_EDGE ( 'NONE', *, *, #626, .F. ) ;
#837 = VECTOR ( 'NONE', #731, 1000.000000000000000 ) ;
#838 = ORIENTED_EDGE ( 'NONE', *, *, #119, .F. ) ;
#839 = CARTESIAN_POINT ( 'NONE',  ( 11.00000000000000000, -18.50000000000000000, 3.000000000000000000 ) ) ;
#840 = CARTESIAN_POINT ( 'NONE',  ( -6.999999999998833822, -4.824648884073584056E-13, 3.000000000000000000 ) ) ;
#841 = CARTESIAN_POINT ( 'NONE',  ( -11.00000000000000000, 20.99999999999999645, 0.000000000000000000 ) ) ;
#842 = VERTEX_POINT ( 'NONE', #38 ) ;
#843 = DIRECTION ( 'NONE',  ( 0.000000000000000000, -1.000000000000000000, 0.000000000000000000 ) ) ;
#844 = DIRECTION ( 'NONE',  ( -0.000000000000000000, -0.000000000000000000, -1.000000000000000000 ) ) ;
#845 = LINE ( 'NONE', #152, #629 ) ;
#846 = AXIS2_PLACEMENT_3D ( 'NONE', #328, #406, #762 ) ;
#847 = EDGE_CURVE ( 'NONE', #172, #714, #277, .T. ) ;
#848 = CARTESIAN_POINT ( 'NONE',  ( 1.500000000001940670, -8.500000000000000000, 3.000000000000000000 ) ) ;
#849 = FACE_BOUND ( 'NONE', #1083, .T. ) ;
#850 = VERTEX_POINT ( 'NONE', #735 ) ;
#851 = LINE ( 'NONE', #163, #608 ) ;
#852 = PRODUCT_DEFINITION ( 'UNKNOWN', '', #384, #1060 ) ;
#853 = DIRECTION ( 'NONE',  ( 1.000000000000000000, 0.000000000000000000, 0.000000000000000000 ) ) ;
#854 = CARTESIAN_POINT ( 'NONE',  ( 26.00000000000000711, 35.99999999999999289, 3.000000000000000000 ) ) ;
#855 = AXIS2_PLACEMENT_3D ( 'NONE', #525, #610, #969 ) ;
#856 = AXIS2_PLACEMENT_3D ( 'NONE', #866, #271, #964 ) ;
#857 = ORIENTED_EDGE ( 'NONE', *, *, #97, .F. ) ;
#858 = DIRECTION ( 'NONE',  ( -0.000000000000000000, -0.000000000000000000, -1.000000000000000000 ) ) ;
#859 = DIRECTION ( 'NONE',  ( -0.000000000000000000, -0.000000000000000000, -1.000000000000000000 ) ) ;
#860 = DIRECTION ( 'NONE',  ( 0.000000000000000000, 1.000000000000000000, 0.000000000000000000 ) ) ;
#861 = ORIENTED_EDGE ( 'NONE', *, *, #341, .T. ) ;
#862 = CARTESIAN_POINT ( 'NONE',  ( 5.000000000000001776, -15.49999999999999645, 0.000000000000000000 ) ) ;
#863 = EDGE_CURVE ( 'NONE', #482, #693, #657, .T. ) ;
#864 = VECTOR ( 'NONE', #646, 1000.000000000000000 ) ;
#865 = APPROVAL ( #913, 'UNSPECIFIED' ) ;
#866 = CARTESIAN_POINT ( 'NONE',  ( -10.99999999999999822, -15.50000000000000000, 3.000000000000000000 ) ) ;
#867 = CARTESIAN_POINT ( 'NONE',  ( 5.000000000000001776, -15.49999999999999645, 0.000000000000000000 ) ) ;
#868 = EDGE_CURVE ( 'NONE', #135, #767, #790, .T. ) ;
#869 = ORIENTED_EDGE ( 'NONE', *, *, #219, .T. ) ;
#870 = DIRECTION ( 'NONE',  ( -1.000000000000000000, 0.000000000000000000, 0.000000000000000000 ) ) ;
#871 = EDGE_CURVE ( 'NONE', #365, #389, #30, .T. ) ;
#872 = DIRECTION ( 'NONE',  ( 0.000000000000000000, 0.000000000000000000, 1.000000000000000000 ) ) ;
#873 = CARTESIAN_POINT ( 'NONE',  ( 30.00000000000000355, 20.99999999999999645, 3.000000000000000000 ) ) ;
#874 = AXIS2_PLACEMENT_3D ( 'NONE', #347, #343, #702 ) ;
#875 = EDGE_LOOP ( 'NONE', ( #178, #183, #930, #606 ) ) ;
#876 = DIRECTION ( 'NONE',  ( -0.000000000000000000, -0.000000000000000000, -1.000000000000000000 ) ) ;
#877 = AXIS2_PLACEMENT_3D ( 'NONE', #797, #537, #1140 ) ;
#878 = CARTESIAN_POINT ( 'NONE',  ( 11.00000000000000000, -18.50000000000000000, 0.000000000000000000 ) ) ;
#879 = CARTESIAN_POINT ( 'NONE',  ( -4.999999999999998224, -15.50000000000000000, 3.000000000000000000 ) ) ;
#880 = EDGE_LOOP ( 'NONE', ( #899, #1005, #794, #220 ) ) ;
#881 = VERTEX_POINT ( 'NONE', #555 ) ;
#882 = DIRECTION ( 'NONE',  ( -0.000000000000000000, -0.000000000000000000, -1.000000000000000000 ) ) ;
#883 = EDGE_CURVE ( 'NONE', #538, #831, #56, .T. ) ;
#884 = VECTOR ( 'NONE', #167, 1000.000000000000000 ) ;
#885 = AXIS2_PLACEMENT_3D ( 'NONE', #624, #187, #722 ) ;
#887 = EDGE_CURVE ( 'NONE', #919, #1089, #1097, .T. ) ;
#886 = CARTESIAN_POINT ( 'NONE',  ( 5.000000000000001776, -15.49999999999999645, 3.000000000000000000 ) ) ;
#888 = VERTEX_POINT ( 'NONE', #544 ) ;
#889 = DIRECTION ( 'NONE',  ( -2.312964634635743450E-16, 1.000000000000000000, -0.000000000000000000 ) ) ;
#890 = ORIENTED_EDGE ( 'NONE', *, *, #590, .F. ) ;
#891 = MECHANICAL_CONTEXT ( 'NONE', #158, 'mechanical' ) ;
#892 = EDGE_CURVE ( 'NONE', #22, #1018, #634, .T. ) ;
#893 = CARTESIAN_POINT ( 'NONE',  ( -27.50000000000000355, 35.99999999999999289, 3.000000000000000000 ) ) ;
#894 = EDGE_LOOP ( 'NONE', ( #730, #423, #563, #1127 ) ) ;
#895 = CARTESIAN_POINT ( 'NONE',  ( 10.99999999999999645, -21.00000000000000000, 0.000000000000000000 ) ) ;
#896 = VERTEX_POINT ( 'NONE', #289 ) ;
#897 = CIRCLE ( 'NONE', #305, 1.500000000000001332 ) ;
#898 = DIRECTION ( 'NONE',  ( -1.387778780781444492E-15, -1.000000000000000000, 0.000000000000000000 ) ) ;
#899 = ORIENTED_EDGE ( 'NONE', *, *, #132, .T. ) ;
#900 = DIRECTION ( 'NONE',  ( 1.387778780781444492E-15, 1.000000000000000000, 0.000000000000000000 ) ) ;
#901 = CARTESIAN_POINT ( 'NONE',  ( 26.00000000000000711, 35.99999999999999289, 0.000000000000000000 ) ) ;
#902 = EDGE_CURVE ( 'NONE', #389, #718, #387, .T. ) ;
#903 = EDGE_CURVE ( 'NONE', #988, #48, #386, .T. ) ;
#904 = DIRECTION ( 'NONE',  ( -1.000000000000000000, 5.782411586589359611E-16, 0.000000000000000000 ) ) ;
#905 = ORIENTED_EDGE ( 'NONE', *, *, #522, .T. ) ;
#906 = VECTOR ( 'NONE', #122, 1000.000000000000000 ) ;
#907 = CARTESIAN_POINT ( 'NONE',  ( -30.00000000000000355, 20.99999999999999289, 3.000000000000000000 ) ) ;
#908 = PERSON_AND_ORGANIZATION ( #515, #625 ) ;
#909 = ORIENTED_EDGE ( 'NONE', *, *, #652, .T. ) ;
#910 = CARTESIAN_POINT ( 'NONE',  ( 30.00000000000000355, 20.99999999999999645, 3.000000000000000000 ) ) ;
#911 = ORIENTED_EDGE ( 'NONE', *, *, #664, .F. ) ;
#912 = CARTESIAN_POINT ( 'NONE',  ( -8.499999999999520384, -4.826485854272306472E-13, 0.000000000000000000 ) ) ;
#913 = APPROVAL_STATUS ( 'not_yet_approved' ) ;
#914 = VECTOR ( 'NONE', #249, 1000.000000000000000 ) ;
#915 = VECTOR ( 'NONE', #1019, 1000.000000000000000 ) ;
#916 = DIRECTION ( 'NONE',  ( 0.000000000000000000, 0.000000000000000000, 1.000000000000000000 ) ) ;
#917 = EDGE_CURVE ( 'NONE', #232, #655, #400, .T. ) ;
#918 = EDGE_LOOP ( 'NONE', ( #909, #869 ) ) ;
#919 = VERTEX_POINT ( 'NONE', #461 ) ;
#920 = CALENDAR_DATE ( 2026, 1, 9 ) ;
#921 = EDGE_CURVE ( 'NONE', #850, #135, #196, .T. ) ;
#922 = CARTESIAN_POINT ( 'NONE',  ( 10.00000000000083134, 4.817913326678274254E-13, 0.000000000000000000 ) ) ;
#923 = ORIENTED_EDGE ( 'NONE', *, *, #301, .F. ) ;
#924 = VERTEX_POINT ( 'NONE', #98 ) ;
#925 = EDGE_CURVE ( 'NONE', #623, #455, #208, .T. ) ;
#926 = CARTESIAN_POINT ( 'NONE',  ( -4.999999999999999112, -18.50000000000000000, 0.000000000000000000 ) ) ;
#927 = AXIS2_PLACEMENT_3D ( 'NONE', #1074, #110, #898 ) ;
#928 = CARTESIAN_POINT ( 'NONE',  ( -11.00000000000000000, 20.99999999999999645, 3.000000000000000000 ) ) ;
#929 = ORIENTED_EDGE ( 'NONE', *, *, #917, .F. ) ;
#930 = ORIENTED_EDGE ( 'NONE', *, *, #921, .T. ) ;
#931 = DIRECTION ( 'NONE',  ( 0.000000000000000000, -0.000000000000000000, -1.000000000000000000 ) ) ;
#932 = LINE ( 'NONE', #840, #265 ) ;
#933 = SHAPE_DEFINITION_REPRESENTATION ( #708, #782 ) ;
#934 = VECTOR ( 'NONE', #889, 1000.000000000000000 ) ;
#935 = LINE ( 'NONE', #127, #619 ) ;
#936 = VECTOR ( 'NONE', #1125, 1000.000000000000000 ) ;
#937 = ORIENTED_EDGE ( 'NONE', *, *, #941, .T. ) ;
#938 = DIRECTION ( 'NONE',  ( -0.000000000000000000, -0.000000000000000000, -1.000000000000000000 ) ) ;
#939 = DIRECTION ( 'NONE',  ( 0.000000000000000000, 0.000000000000000000, 1.000000000000000000 ) ) ;
#940 = DIRECTION ( 'NONE',  ( 1.000000000000000000, 0.000000000000000000, 0.000000000000000000 ) ) ;
#941 = EDGE_CURVE ( 'NONE', #714, #1079, #212, .T. ) ;
#942 = LOCAL_TIME ( 18, 28, 33.00000000000000000, #1091 ) ;
#943 = DIRECTION ( 'NONE',  ( -1.000000000000000000, -2.312964634635743450E-16, 0.000000000000000000 ) ) ;
#944 = DIRECTION ( 'NONE',  ( 0.000000000000000000, 0.000000000000000000, 1.000000000000000000 ) ) ;
#945 = ORIENTED_EDGE ( 'NONE', *, *, #887, .T. ) ;
#946 = CARTESIAN_POINT ( 'NONE',  ( -30.00000000000000355, 50.99999999999999289, 3.000000000000000000 ) ) ;
#947 = AXIS2_PLACEMENT_3D ( 'NONE', #247, #251, #870 ) ;
#948 = LINE ( 'NONE', #1130, #1087 ) ;
#949 = DIRECTION ( 'NONE',  ( -0.000000000000000000, -0.000000000000000000, -1.000000000000000000 ) ) ;
#950 = ORIENTED_EDGE ( 'NONE', *, *, #1135, .T. ) ;
#951 = FACE_BOUND ( 'NONE', #93, .T. ) ;
#953 = EDGE_CURVE ( 'NONE', #1018, #531, #560, .T. ) ;
#952 = CARTESIAN_POINT ( 'NONE',  ( 5.000000000000001776, -18.49999999999999645, 3.000000000000000000 ) ) ;
#954 = DIRECTION ( 'NONE',  ( 0.000000000000000000, 0.000000000000000000, 1.000000000000000000 ) ) ;
#955 = AXIS2_PLACEMENT_3D ( 'NONE', #907, #210, #23 ) ;
#956 = ORIENTED_EDGE ( 'NONE', *, *, #892, .T. ) ;
#957 = LINE ( 'NONE', #946, #884 ) ;
#958 = ADVANCED_FACE ( 'NONE', ( #452 ), #741, .F. ) ;
#959 = DIRECTION ( 'NONE',  ( -1.387778780781444492E-15, 1.000000000000000000, 0.000000000000000000 ) ) ;
#960 = LINE ( 'NONE', #165, #914 ) ;
#961 = EDGE_CURVE ( 'NONE', #988, #919, #809, .T. ) ;
#962 = ORIENTED_EDGE ( 'NONE', *, *, #456, .F. ) ;
#963 = FACE_BOUND ( 'NONE', #611, .T. ) ;
#964 = DIRECTION ( 'NONE',  ( 0.000000000000000000, -0.000000000000000000, 1.000000000000000000 ) ) ;
#965 = DIRECTION ( 'NONE',  ( 0.000000000000000000, -0.000000000000000000, 1.000000000000000000 ) ) ;
#966 = ORIENTED_EDGE ( 'NONE', *, *, #597, .F. ) ;
#967 = CARTESIAN_POINT ( 'NONE',  ( -30.00000000000000355, 20.99999999999999289, 3.000000000000000000 ) ) ;
#968 = CYLINDRICAL_SURFACE ( 'NONE', #378, 1.500000000000977440 ) ;
#969 = DIRECTION ( 'NONE',  ( 1.000000000000000000, 0.000000000000000000, 0.000000000000000000 ) ) ;
#970 = AXIS2_PLACEMENT_3D ( 'NONE', #928, #314, #671 ) ;
#971 = ORIENTED_EDGE ( 'NONE', *, *, #489, .T. ) ;
#972 = DIRECTION ( 'NONE',  ( -0.000000000000000000, -1.000000000000000000, -0.000000000000000000 ) ) ;
#973 = CIRCLE ( 'NONE', #710, 1.500000000000348166 ) ;
#974 = EDGE_CURVE ( 'NONE', #896, #1108, #957, .T. ) ;
#975 = DIRECTION ( 'NONE',  ( 0.000000000000000000, 0.000000000000000000, 1.000000000000000000 ) ) ;
#976 = ORIENTED_EDGE ( 'NONE', *, *, #1044, .T. ) ;
#977 = LINE ( 'NONE', #298, #159 ) ;
#978 = ORIENTED_EDGE ( 'NONE', *, *, #1038, .T. ) ;
#979 = FACE_OUTER_BOUND ( 'NONE', #658, .T. ) ;
#980 = VERTEX_POINT ( 'NONE', #862 ) ;
#981 = ORIENTED_EDGE ( 'NONE', *, *, #813, .F. ) ;
#982 = VERTEX_POINT ( 'NONE', #1049 ) ;
#983 = CARTESIAN_POINT ( 'NONE',  ( -4.999999999999999112, -18.50000000000000000, 3.000000000000000000 ) ) ;
#984 = CARTESIAN_POINT ( 'NONE',  ( 27.50000000000000711, 35.99999999999999289, 0.000000000000000000 ) ) ;
#985 = ORIENTED_EDGE ( 'NONE', *, *, #270, .F. ) ;
#986 = LINE ( 'NONE', #117, #284 ) ;
#987 = EDGE_CURVE ( 'NONE', #222, #18, #333, .T. ) ;
#988 = VERTEX_POINT ( 'NONE', #68 ) ;
#989 = DIRECTION ( 'NONE',  ( -1.000000000000000000, 0.000000000000000000, 0.000000000000000000 ) ) ;
#990 = VECTOR ( 'NONE', #1020, 1000.000000000000000 ) ;
#991 = CC_DESIGN_PERSON_AND_ORGANIZATION_ASSIGNMENT ( #383, #1085, ( #450 ) ) ;
#992 = ADVANCED_FACE ( 'NONE', ( #61 ), #57, .F. ) ;
#993 = DIRECTION ( 'NONE',  ( -1.000000000000000000, 0.000000000000000000, 0.000000000000000000 ) ) ;
#994 = EDGE_LOOP ( 'NONE', ( #442, #43, #227, #580 ) ) ;
#995 = DIRECTION ( 'NONE',  ( -1.000000000000000000, 0.000000000000000000, 0.000000000000000000 ) ) ;
#996 = DATE_TIME_ROLE ( 'creation_date' ) ;
#997 = DIRECTION ( 'NONE',  ( -2.891205793294679312E-16, -1.000000000000000000, 0.000000000000000000 ) ) ;
#998 = ORIENTED_EDGE ( 'NONE', *, *, #892, .F. ) ;
#999 = AXIS2_PLACEMENT_3D ( 'NONE', #801, #548, #281 ) ;
#1000 = FACE_OUTER_BOUND ( 'NONE', #39, .T. ) ;
#1001 = SECURITY_CLASSIFICATION_LEVEL ( 'unclassified' ) ;
#1002 = EDGE_CURVE ( 'NONE', #772, #1017, #694, .T. ) ;
#1003 = DIRECTION ( 'NONE',  ( -0.000000000000000000, 1.000000000000000000, -0.000000000000000000 ) ) ;
#1004 = ORIENTED_EDGE ( 'NONE', *, *, #953, .T. ) ;
#1005 = ORIENTED_EDGE ( 'NONE', *, *, #507, .F. ) ;
#1006 = ADVANCED_FACE ( 'NONE', ( #501 ), #417, .F. ) ;
#1007 = APPROVAL_ROLE ( '' ) ;
#1008 = ADVANCED_FACE ( 'NONE', ( #1128 ), #607, .F. ) ;
#1009 = AXIS2_PLACEMENT_3D ( 'NONE', #1120, #506, #692 ) ;
#1010 = ADVANCED_FACE ( 'NONE', ( #1037 ), #157, .F. ) ;
#1011 = AXIS2_PLACEMENT_3D ( 'NONE', #346, #872, #74 ) ;
#1012 = CARTESIAN_POINT ( 'NONE',  ( 11.00000000000000000, -18.50000000000000000, 3.000000000000000000 ) ) ;
#1013 = ORIENTED_EDGE ( 'NONE', *, *, #320, .T. ) ;
#1014 = EDGE_LOOP ( 'NONE', ( #124, #213, #83, #128, #102, #186, #978, #743, #556, #636, #310, #1023, #26, #192, #166, #349 ) ) ;
#1015 = DIRECTION ( 'NONE',  ( 1.000000000000000000, 0.000000000000000000, 0.000000000000000000 ) ) ;
#1016 = CARTESIAN_POINT ( 'NONE',  ( 11.00000000000000000, 21.00000000000000000, 0.000000000000000000 ) ) ;
#1017 = VERTEX_POINT ( 'NONE', #785 ) ;
#1018 = VERTEX_POINT ( 'NONE', #77 ) ;
#1019 = DIRECTION ( 'NONE',  ( -0.000000000000000000, -0.000000000000000000, -1.000000000000000000 ) ) ;
#1020 = DIRECTION ( 'NONE',  ( 1.387778780781444492E-15, -1.000000000000000000, 0.000000000000000000 ) ) ;
#1021 = CIRCLE ( 'NONE', #37, 1.500000000000000000 ) ;
#1022 = DIRECTION ( 'NONE',  ( -0.000000000000000000, -0.000000000000000000, -1.000000000000000000 ) ) ;
#1023 = ORIENTED_EDGE ( 'NONE', *, *, #829, .T. ) ;
#1024 = FACE_OUTER_BOUND ( 'NONE', #994, .T. ) ;
#1025 = LINE ( 'NONE', #409, #1105 ) ;
#1026 = EDGE_CURVE ( 'NONE', #172, #531, #845, .T. ) ;
#1027 = VECTOR ( 'NONE', #844, 1000.000000000000000 ) ;
#1028 = AXIS2_PLACEMENT_3D ( 'NONE', #750, #843, #931 ) ;
#1029 = CARTESIAN_POINT ( 'NONE',  ( 29.99999999999999645, 50.99999999999999289, 3.000000000000000000 ) ) ;
#1030 = CARTESIAN_POINT ( 'NONE',  ( -11.00000000000000000, 20.99999999999999645, 3.000000000000000000 ) ) ;
#1031 = ORIENTED_EDGE ( 'NONE', *, *, #153, .F. ) ;
#1032 = DIRECTION ( 'NONE',  ( -1.000000000000000000, 0.000000000000000000, 0.000000000000000000 ) ) ;
#1033 =( GEOMETRIC_REPRESENTATION_CONTEXT ( 3 ) GLOBAL_UNCERTAINTY_ASSIGNED_CONTEXT ( ( #520 ) ) GLOBAL_UNIT_ASSIGNED_CONTEXT ( ( #366, #1058, #1071 ) ) REPRESENTATION_CONTEXT ( 'NONE', 'WORKASPACE' ) );
#1034 = CARTESIAN_POINT ( 'NONE',  ( -4.999999999999998224, -15.50000000000000000, 3.000000000000000000 ) ) ;
#1035 = LINE ( 'NONE', #1126, #695 ) ;
#1036 = EDGE_LOOP ( 'NONE', ( #162, #142, #2, #371 ) ) ;
#1037 = FACE_OUTER_BOUND ( 'NONE', #800, .T. ) ;
#1038 = EDGE_CURVE ( 'NONE', #72, #482, #851, .T. ) ;
#1039 = PLANE ( 'NONE',  #1028 ) ;
#1040 = DIRECTION ( 'NONE',  ( -0.000000000000000000, -0.000000000000000000, -1.000000000000000000 ) ) ;
#1041 = ORIENTED_EDGE ( 'NONE', *, *, #114, .F. ) ;
#1042 = DIRECTION ( 'NONE',  ( -0.000000000000000000, -0.000000000000000000, -1.000000000000000000 ) ) ;
#1043 = EDGE_CURVE ( 'NONE', #737, #980, #1144, .T. ) ;
#1044 = EDGE_CURVE ( 'NONE', #48, #988, #669, .T. ) ;
#1045 = DIRECTION ( 'NONE',  ( 1.000000000000000000, -5.782411586589359611E-16, 0.000000000000000000 ) ) ;
#1046 = DIRECTION ( 'NONE',  ( 1.000000000000000000, 0.000000000000000000, 0.000000000000000000 ) ) ;
#1047 = AXIS2_PLACEMENT_3D ( 'NONE', #912, #382, #15 ) ;
#1048 = ORIENTED_EDGE ( 'NONE', *, *, #507, .T. ) ;
#1049 = CARTESIAN_POINT ( 'NONE',  ( -6.999999999998833822, -4.824648884073584056E-13, 3.000000000000000000 ) ) ;
#1050 = PLANE ( 'NONE',  #856 ) ;
#1051 = CARTESIAN_POINT ( 'NONE',  ( -4.999999999999999112, -18.50000000000000000, 3.000000000000000000 ) ) ;
#1052 = ORIENTED_EDGE ( 'NONE', *, *, #168, .F. ) ;
#1053 = DIRECTION ( 'NONE',  ( -0.000000000000000000, -0.000000000000000000, -1.000000000000000000 ) ) ;
#1054 = VECTOR ( 'NONE', #1003, 1000.000000000000000 ) ;
#1055 = PLANE ( 'NONE',  #774 ) ;
#1056 = LINE ( 'NONE', #867, #765 ) ;
#1057 = ORIENTED_EDGE ( 'NONE', *, *, #925, .T. ) ;
#1058 =( NAMED_UNIT ( * ) PLANE_ANGLE_UNIT ( ) SI_UNIT ( $, .RADIAN. ) );
#1059 = EDGE_CURVE ( 'NONE', #1017, #477, #571, .T. ) ;
#1060 = DESIGN_CONTEXT ( 'detailed design', #221, 'design' ) ;
#1061 = DIRECTION ( 'NONE',  ( 0.000000000000000000, 0.000000000000000000, 1.000000000000000000 ) ) ;
#1062 = ORIENTED_EDGE ( 'NONE', *, *, #527, .F. ) ;
#1063 = AXIS2_PLACEMENT_3D ( 'NONE', #65, #944, #1015 ) ;
#1064 = ORIENTED_EDGE ( 'NONE', *, *, #191, .T. ) ;
#1065 = VECTOR ( 'NONE', #938, 1000.000000000000000 ) ;
#1066 = CYLINDRICAL_SURFACE ( 'NONE', #877, 1.500000000000348166 ) ;
#1067 = ORIENTED_EDGE ( 'NONE', *, *, #834, .F. ) ;
#1068 = DIRECTION ( 'NONE',  ( 1.000000000000000000, 0.000000000000000000, 0.000000000000000000 ) ) ;
#1069 = MANIFOLD_SOLID_BREP ( 'Boss-Extrude1', #146 ) ;
#1070 = ORIENTED_EDGE ( 'NONE', *, *, #104, .F. ) ;
#1071 =( NAMED_UNIT ( * ) SI_UNIT ( $, .STERADIAN. ) SOLID_ANGLE_UNIT ( ) );
#1072 = AXIS2_PLACEMENT_3D ( 'NONE', #345, #73, #255 ) ;
#1073 = ADVANCED_FACE ( 'NONE', ( #424 ), #492, .F. ) ;
#1074 = CARTESIAN_POINT ( 'NONE',  ( 10.99999999999999645, -21.00000000000000000, 3.000000000000000000 ) ) ;
#1075 = ORIENTED_EDGE ( 'NONE', *, *, #169, .F. ) ;
#1076 = DIRECTION ( 'NONE',  ( -0.000000000000000000, -0.000000000000000000, -1.000000000000000000 ) ) ;
#1077 = ORIENTED_EDGE ( 'NONE', *, *, #540, .F. ) ;
#1078 = ADVANCED_FACE ( 'NONE', ( #1122, #778, #1139, #339, #596, #951, #963, #322 ), #679, .F. ) ;
#1079 = VERTEX_POINT ( 'NONE', #612 ) ;
#1080 = EDGE_CURVE ( 'NONE', #31, #462, #367, .T. ) ;
#1082 = EDGE_CURVE ( 'NONE', #1108, #22, #1149, .T. ) ;
#1081 = DIRECTION ( 'NONE',  ( 1.000000000000000000, 0.000000000000000000, 0.000000000000000000 ) ) ;
#1083 = EDGE_LOOP ( 'NONE', ( #601, #1067 ) ) ;
#1084 = DIRECTION ( 'NONE',  ( -0.000000000000000000, -0.000000000000000000, -1.000000000000000000 ) ) ;
#1085 = PERSON_AND_ORGANIZATION_ROLE ( 'design_owner' ) ;
#1086 = CIRCLE ( 'NONE', #855, 1.500000000000348166 ) ;
#1087 = VECTOR ( 'NONE', #687, 1000.000000000000000 ) ;
#1088 = CARTESIAN_POINT ( 'NONE',  ( -4.999999999999999112, -18.50000000000000000, 3.000000000000000000 ) ) ;
#1089 = VERTEX_POINT ( 'NONE', #901 ) ;
#1090 = CARTESIAN_POINT ( 'NONE',  ( -27.50000000000000355, 35.99999999999999289, 0.000000000000000000 ) ) ;
#1091 = COORDINATED_UNIVERSAL_TIME_OFFSET ( 5, 30, .AHEAD. ) ;
#1092 = ORIENTED_EDGE ( 'NONE', *, *, #425, .T. ) ;
#1093 = CC_DESIGN_APPROVAL ( #796, ( #384 ) ) ;
#1094 = EDGE_CURVE ( 'NONE', #389, #222, #529, .T. ) ;
#1095 = CARTESIAN_POINT ( 'NONE',  ( 27.50000000000000711, 35.99999999999999289, 3.000000000000000000 ) ) ;
#1096 = ORIENTED_EDGE ( 'NONE', *, *, #219, .F. ) ;
#1097 = CIRCLE ( 'NONE', #591, 1.500000000000001332 ) ;
#1098 = CARTESIAN_POINT ( 'NONE',  ( -11.00000000000000000, -18.50000000000000000, 0.000000000000000000 ) ) ;
#1099 = DATE_TIME_ROLE ( 'classification_date' ) ;
#1100 = EDGE_CURVE ( 'NONE', #473, #222, #108, .T. ) ;
#1101 = DIRECTION ( 'NONE',  ( 1.000000000000000000, 0.000000000000000000, 0.000000000000000000 ) ) ;
#1102 = ORIENTED_EDGE ( 'NONE', *, *, #1129, .F. ) ;
#1103 = ORIENTED_EDGE ( 'NONE', *, *, #651, .T. ) ;
#1104 = ADVANCED_FACE ( 'NONE', ( #90 ), #261, .F. ) ;
#1105 = VECTOR ( 'NONE', #771, 1000.000000000000000 ) ;
#1106 = DIRECTION ( 'NONE',  ( 0.000000000000000000, 0.000000000000000000, 1.000000000000000000 ) ) ;
#1107 = ORIENTED_EDGE ( 'NONE', *, *, #407, .T. ) ;
#1108 = VERTEX_POINT ( 'NONE', #4 ) ;
#1109 = CARTESIAN_POINT ( 'NONE',  ( 11.00000000000000000, -15.49999999999999645, 0.000000000000000000 ) ) ;
#1110 = DIRECTION ( 'NONE',  ( 0.000000000000000000, 0.000000000000000000, 1.000000000000000000 ) ) ;
#1111 = LINE ( 'NONE', #41, #1123 ) ;
#1112 = ADVANCED_FACE ( 'NONE', ( #808 ), #24, .F. ) ;
#1113 = EDGE_LOOP ( 'NONE', ( #1092, #352, #836, #1103 ) ) ;
#1114 = DIRECTION ( 'NONE',  ( 1.000000000000000000, 0.000000000000000000, 0.000000000000000000 ) ) ;
#1115 = DIRECTION ( 'NONE',  ( 1.000000000000000000, 1.826024711554533420E-16, -0.000000000000000000 ) ) ;
#1116 = AXIS2_PLACEMENT_3D ( 'NONE', #514, #1042, #1032 ) ;
#1117 = CC_DESIGN_PERSON_AND_ORGANIZATION_ASSIGNMENT ( #908, #288, ( #852 ) ) ;
#1118 = DIRECTION ( 'NONE',  ( -0.000000000000000000, -0.000000000000000000, -1.000000000000000000 ) ) ;
#1119 = FACE_OUTER_BOUND ( 'NONE', #344, .T. ) ;
#1120 = CARTESIAN_POINT ( 'NONE',  ( 0.000000000000000000, 8.500000000000000000, 3.000000000000000000 ) ) ;
#1121 = EDGE_LOOP ( 'NONE', ( #49, #321 ) ) ;
#1122 = FACE_OUTER_BOUND ( 'NONE', #392, .T. ) ;
#1123 = VECTOR ( 'NONE', #141, 1000.000000000000000 ) ;
#1124 = CIRCLE ( 'NONE', #469, 1.500000000000686562 ) ;
#1125 = DIRECTION ( 'NONE',  ( -0.000000000000000000, -0.000000000000000000, -1.000000000000000000 ) ) ;
#1126 = CARTESIAN_POINT ( 'NONE',  ( -10.99999999999999822, -15.50000000000000000, 3.000000000000000000 ) ) ;
#1127 = ORIENTED_EDGE ( 'NONE', *, *, #1002, .F. ) ;
#1128 = FACE_OUTER_BOUND ( 'NONE', #706, .T. ) ;
#1129 = EDGE_CURVE ( 'NONE', #896, #434, #519, .T. ) ;
#1130 = CARTESIAN_POINT ( 'NONE',  ( -10.99999999999999645, -21.00000000000000000, 0.000000000000000000 ) ) ;
#1131 = CARTESIAN_POINT ( 'NONE',  ( 5.000000000000001776, -15.49999999999999645, 3.000000000000000000 ) ) ;
#1132 = AXIS2_PLACEMENT_3D ( 'NONE', #195, #876, #435 ) ;
#1133 = ORIENTED_EDGE ( 'NONE', *, *, #883, .T. ) ;
#1134 = CARTESIAN_POINT ( 'NONE',  ( -4.999999999999999112, -18.50000000000000000, 0.000000000000000000 ) ) ;
#1135 = EDGE_CURVE ( 'NONE', #655, #924, #353, .T. ) ;
#1136 = CARTESIAN_POINT ( 'NONE',  ( -10.99999999999999822, -15.50000000000000000, 3.000000000000000000 ) ) ;
#1137 = DIRECTION ( 'NONE',  ( -0.000000000000000000, -0.000000000000000000, -1.000000000000000000 ) ) ;
#1138 = ORIENTED_EDGE ( 'NONE', *, *, #45, .T. ) ;
#1139 = FACE_BOUND ( 'NONE', #672, .T. ) ;
#1140 = DIRECTION ( 'NONE',  ( -1.000000000000000000, 0.000000000000000000, 0.000000000000000000 ) ) ;
#1141 = DIRECTION ( 'NONE',  ( 1.000000000000000000, 0.000000000000000000, 0.000000000000000000 ) ) ;
#1142 = CIRCLE ( 'NONE', #1009, 1.500000000000000000 ) ;
#1143 = VERTEX_POINT ( 'NONE', #361 ) ;
#1144 = LINE ( 'NONE', #700, #650 ) ;
#1146 = ADVANCED_FACE ( 'NONE', ( #443 ), #715, .F. ) ;
#1145 = CARTESIAN_POINT ( 'NONE',  ( 5.000000000000001776, -18.49999999999999645, 0.000000000000000000 ) ) ;
#1147 = CARTESIAN_POINT ( 'NONE',  ( 10.99999999999999645, -21.00000000000000000, 3.000000000000000000 ) ) ;
#1148 = VERTEX_POINT ( 'NONE', #632 ) ;
#1149 = LINE ( 'NONE', #967, #685 ) ;
#1150 = APPROVAL ( #577, 'UNSPECIFIED' ) ;
#1151 = VECTOR ( 'NONE', #282, 1000.000000000000000 ) ;
ENDSEC;
END-ISO-10303-21;
