ISO-10303-21;
HEADER;
FILE_DESCRIPTION (( 'STEP AP203' ),
    '1' );
FILE_NAME ('Teeth_v2_Default_sldprt.STEP',
    '2026-09-01T12:58:34',
    ( '' ),
    ( '' ),
    'SwSTEP 2.0',
    'SolidWorks 2020',
    '' );
FILE_SCHEMA (( 'CONFIG_CONTROL_DESIGN' ));
ENDSEC;

DATA;
#1 = CC_DESIGN_APPROVAL ( #58, ( #206 ) ) ;
#2 = CARTESIAN_POINT ( 'NONE',  ( -8.660254037844385522, -3.903127820947815962E-15, 10.00000000000000000 ) ) ;
#3 = EDGE_LOOP ( 'NONE', ( #15, #187, #210, #26, #20 ) ) ;
#4 = PLANE ( 'NONE',  #34 ) ;
#5 = ORIENTED_EDGE ( 'NONE', *, *, #148, .F. ) ;
#6 =( GEOMETRIC_REPRESENTATION_CONTEXT ( 3 ) GLOBAL_UNCERTAINTY_ASSIGNED_CONTEXT ( ( #165 ) ) GLOBAL_UNIT_ASSIGNED_CONTEXT ( ( #221, #141, #81 ) ) REPRESENTATION_CONTEXT ( 'NONE', 'WORKASPACE' ) );
#7 = CARTESIAN_POINT ( 'NONE',  ( -9.053360633910594757, 0.2599940471481631543, 10.00000000000000000 ) ) ;
#8 = CLOSED_SHELL ( 'NONE', ( #140, #268, #200, #114, #33, #222, #102 ) ) ;
#9 = CARTESIAN_POINT ( 'NONE',  ( -4.330127018922188320, -7.500000000000001776, 10.00000000000000000 ) ) ;
#10 = PERSON_AND_ORGANIZATION ( #231, #80 ) ;
#11 = DIRECTION ( 'NONE',  ( -0.8660254037844383745, -0.5000000000000004441, 0.000000000000000000 ) ) ;
#12 = PERSON_AND_ORGANIZATION ( #231, #80 ) ;
#13 = CARTESIAN_POINT ( 'NONE',  ( -20.00012701892218558, 7.499999999999992006, 10.00000000000000000 ) ) ;
#14 = DIRECTION ( 'NONE',  ( -2.312964634635742957E-16, -1.000000000000000000, 0.000000000000000000 ) ) ;
#15 = ORIENTED_EDGE ( 'NONE', *, *, #258, .F. ) ;
#16 = AXIS2_PLACEMENT_3D ( 'NONE', #97, #219, #160 ) ;
#17 = CARTESIAN_POINT ( 'NONE',  ( 0.000000000000000000, 0.000000000000000000, 10.00000000000000000 ) ) ;
#18 = LOCAL_TIME ( 18, 28, 34.00000000000000000, #78 ) ;
#19 = CARTESIAN_POINT ( 'NONE',  ( -20.00012701892218914, -7.500000000000007105, 10.00000000000000000 ) ) ;
#20 = ORIENTED_EDGE ( 'NONE', *, *, #43, .F. ) ;
#21 = LINE ( 'NONE', #189, #100 ) ;
#22 = EDGE_LOOP ( 'NONE', ( #211, #166, #259, #62 ) ) ;
#23 = APPROVAL_STATUS ( 'not_yet_approved' ) ;
#24 = CARTESIAN_POINT ( 'NONE',  ( -8.424600849650779821, -0.4081632949169196611, 10.00000000000000000 ) ) ;
#25 = DIRECTION ( 'NONE',  ( 1.000000000000000000, 3.321104293510159743E-16, 0.000000000000000000 ) ) ;
#26 = ORIENTED_EDGE ( 'NONE', *, *, #193, .F. ) ;
#27 = DATE_TIME_ROLE ( 'classification_date' ) ;
#28 = VECTOR ( 'NONE', #110, 1000.000000000000000 ) ;
#29 = CC_DESIGN_PERSON_AND_ORGANIZATION_ASSIGNMENT ( #237, #154, ( #262 ) ) ;
#30 = LINE ( 'NONE', #7, #139 ) ;
#31 = LINE ( 'NONE', #270, #177 ) ;
#32 = PLANE ( 'NONE',  #70 ) ;
#33 = ADVANCED_FACE ( 'NONE', ( #224 ), #125, .T. ) ;
#34 = AXIS2_PLACEMENT_3D ( 'NONE', #2, #47, #254 ) ;
#35 = LINE ( 'NONE', #53, #135 ) ;
#36 = APPROVAL_PERSON_ORGANIZATION ( #255, #58, #106 ) ;
#37 = DATE_AND_TIME ( #56, #239 ) ;
#38 = DIRECTION ( 'NONE',  ( 0.000000000000000000, 0.000000000000000000, -1.000000000000000000 ) ) ;
#39 = COORDINATED_UNIVERSAL_TIME_OFFSET ( 5, 30, .AHEAD. ) ;
#40 = DIRECTION ( 'NONE',  ( 0.000000000000000000, 0.000000000000000000, 1.000000000000000000 ) ) ;
#41 = APPROVAL ( #143, 'UNSPECIFIED' ) ;
#42 = EDGE_LOOP ( 'NONE', ( #192, #257, #151, #92 ) ) ;
#43 = EDGE_CURVE ( 'NONE', #251, #164, #246, .T. ) ;
#44 = AXIS2_PLACEMENT_3D ( 'NONE', #201, #115, #241 ) ;
#45 = COORDINATED_UNIVERSAL_TIME_OFFSET ( 5, 30, .AHEAD. ) ;
#46 = CARTESIAN_POINT ( 'NONE',  ( -10.15665165721965657, -1.408163294916920272, 0.000000000000000000 ) ) ;
#47 = DIRECTION ( 'NONE',  ( -0.5516455116545311288, -0.8340786710325415187, 0.000000000000000000 ) ) ;
#48 = VERTEX_POINT ( 'NONE', #101 ) ;
#49 = AXIS2_PLACEMENT_3D ( 'NONE', #138, #11, #98 ) ;
#50 = ORIENTED_EDGE ( 'NONE', *, *, #120, .T. ) ;
#51 = SECURITY_CLASSIFICATION_LEVEL ( 'unclassified' ) ;
#52 = DIRECTION ( 'NONE',  ( -1.000000000000000000, -3.321104293510159743E-16, 0.000000000000000000 ) ) ;
#53 = CARTESIAN_POINT ( 'NONE',  ( -8.660254037844385522, -3.903127820947815962E-15, 0.000000000000000000 ) ) ;
#54 = APPLICATION_PROTOCOL_DEFINITION ( 'international standard', 'config_control_design', 1994, #65 ) ;
#55 = CARTESIAN_POINT ( 'NONE',  ( -9.053360633910594757, 0.2599940471481632098, 0.000000000000000000 ) ) ;
#56 = CALENDAR_DATE ( 2026, 1, 9 ) ;
#57 = PERSON_AND_ORGANIZATION_ROLE ( 'creator' ) ;
#58 = APPROVAL ( #23, 'UNSPECIFIED' ) ;
#59 = PRODUCT ( 'Teeth_v2_Default_sldprt', 'Teeth_v2_Default_sldprt', '', ( #240 ) ) ;
#60 = VECTOR ( 'NONE', #226, 1000.000000000000000 ) ;
#61 = LINE ( 'NONE', #64, #213 ) ;
#62 = ORIENTED_EDGE ( 'NONE', *, *, #236, .F. ) ;
#63 = VECTOR ( 'NONE', #122, 1000.000000000000000 ) ;
#64 = CARTESIAN_POINT ( 'NONE',  ( -20.00012701892218558, 7.499999999999992006, 10.00000000000000000 ) ) ;
#65 = APPLICATION_CONTEXT ( 'configuration controlled 3d designs of mechanical parts and assemblies' ) ;
#66 = CARTESIAN_POINT ( 'NONE',  ( -8.660254037844385522, -3.903127820947815962E-15, 10.00000000000000000 ) ) ;
#67 = ORIENTED_EDGE ( 'NONE', *, *, #236, .T. ) ;
#68 = PLANE ( 'NONE',  #271 ) ;
#69 = DIRECTION ( 'NONE',  ( 0.000000000000000000, 0.000000000000000000, 1.000000000000000000 ) ) ;
#70 = AXIS2_PLACEMENT_3D ( 'NONE', #198, #159, #52 ) ;
#71 = EDGE_LOOP ( 'NONE', ( #123, #171, #85, #67 ) ) ;
#72 = LOCAL_TIME ( 18, 28, 34.00000000000000000, #45 ) ;
#73 = PRODUCT_DEFINITION ( 'UNKNOWN', '', #262, #124 ) ;
#74 = ADVANCED_BREP_SHAPE_REPRESENTATION ( 'Teeth_v2_Default_sldprt', ( #172, #44 ), #6 ) ;
#75 = PERSON_AND_ORGANIZATION ( #231, #80 ) ;
#76 = FACE_OUTER_BOUND ( 'NONE', #71, .T. ) ;
#77 = CARTESIAN_POINT ( 'NONE',  ( -8.660254037844385522, -3.903127820947815962E-15, 10.00000000000000000 ) ) ;
#78 = COORDINATED_UNIVERSAL_TIME_OFFSET ( 5, 30, .AHEAD. ) ;
#79 = CARTESIAN_POINT ( 'NONE',  ( -8.424600849650779821, -0.4081632949169192170, 0.000000000000000000 ) ) ;
#80 = ORGANIZATION ( 'UNSPECIFIED', 'UNSPECIFIED', '' ) ;
#81 =( NAMED_UNIT ( * ) SI_UNIT ( $, .STERADIAN. ) SOLID_ANGLE_UNIT ( ) );
#82 = CC_DESIGN_PERSON_AND_ORGANIZATION_ASSIGNMENT ( #158, #212, ( #262 ) ) ;
#83 = APPROVAL_PERSON_ORGANIZATION ( #10, #204, #267 ) ;
#84 = CARTESIAN_POINT ( 'NONE',  ( -8.424600849650779821, -0.4081632949169192170, 10.00000000000000000 ) ) ;
#85 = ORIENTED_EDGE ( 'NONE', *, *, #186, .F. ) ;
#86 = DATE_AND_TIME ( #113, #235 ) ;
#87 = DIRECTION ( 'NONE',  ( 1.000000000000000000, 0.000000000000000000, -0.000000000000000000 ) ) ;
#88 = VERTEX_POINT ( 'NONE', #55 ) ;
#89 = CC_DESIGN_DATE_AND_TIME_ASSIGNMENT ( #37, #121, ( #73 ) ) ;
#90 = VERTEX_POINT ( 'NONE', #79 ) ;
#91 = APPROVAL_DATE_TIME ( #216, #58 ) ;
#92 = ORIENTED_EDGE ( 'NONE', *, *, #156, .T. ) ;
#93 = AXIS2_PLACEMENT_3D ( 'NONE', #17, #40, #205 ) ;
#94 = DIRECTION ( 'NONE',  ( 0.000000000000000000, 0.000000000000000000, -1.000000000000000000 ) ) ;
#95 = PERSON_AND_ORGANIZATION_ROLE ( 'design_owner' ) ;
#96 = FACE_OUTER_BOUND ( 'NONE', #190, .T. ) ;
#97 = CARTESIAN_POINT ( 'NONE',  ( -20.00012701892218558, 7.499999999999992006, 10.00000000000000000 ) ) ;
#98 = DIRECTION ( 'NONE',  ( 0.5000000000000004441, -0.8660254037844383745, 0.000000000000000000 ) ) ;
#99 = EDGE_CURVE ( 'NONE', #131, #48, #269, .T. ) ;
#100 = VECTOR ( 'NONE', #25, 1000.000000000000000 ) ;
#101 = CARTESIAN_POINT ( 'NONE',  ( -4.330127018922188320, -7.500000000000001776, 0.000000000000000000 ) ) ;
#102 = ADVANCED_FACE ( 'NONE', ( #161 ), #243, .T. ) ;
#103 = CARTESIAN_POINT ( 'NONE',  ( -20.00012701892218558, 7.499999999999992006, 10.00000000000000000 ) ) ;
#104 = DIRECTION ( 'NONE',  ( -0.000000000000000000, -0.000000000000000000, -1.000000000000000000 ) ) ;
#105 = ORIENTED_EDGE ( 'NONE', *, *, #116, .F. ) ;
#106 = APPROVAL_ROLE ( '' ) ;
#107 = CARTESIAN_POINT ( 'NONE',  ( 0.000000000000000000, 0.000000000000000000, 0.000000000000000000 ) ) ;
#108 = CC_DESIGN_DATE_AND_TIME_ASSIGNMENT ( #149, #27, ( #206 ) ) ;
#109 = VERTEX_POINT ( 'NONE', #13 ) ;
#110 = DIRECTION ( 'NONE',  ( -0.000000000000000000, -0.000000000000000000, 1.000000000000000000 ) ) ;
#111 = CARTESIAN_POINT ( 'NONE',  ( -4.330127018922188320, -7.500000000000001776, 10.00000000000000000 ) ) ;
#112 = ORIENTED_EDGE ( 'NONE', *, *, #217, .F. ) ;
#113 = CALENDAR_DATE ( 2026, 1, 9 ) ;
#114 = ADVANCED_FACE ( 'NONE', ( #96 ), #181, .F. ) ;
#115 = DIRECTION ( 'NONE',  ( 0.000000000000000000, 0.000000000000000000, 1.000000000000000000 ) ) ;
#116 = EDGE_CURVE ( 'NONE', #131, #153, #266, .T. ) ;
#117 = CIRCLE ( 'NONE', #260, 2.000000000000000000 ) ;
#118 = APPLICATION_PROTOCOL_DEFINITION ( 'international standard', 'config_control_design', 1994, #184 ) ;
#119 = PRODUCT_DEFINITION_SHAPE ( 'NONE', 'NONE',  #73 ) ;
#120 = EDGE_CURVE ( 'NONE', #153, #249, #126, .T. ) ;
#121 = DATE_TIME_ROLE ( 'creation_date' ) ;
#122 = DIRECTION ( 'NONE',  ( -0.000000000000000000, -0.000000000000000000, -1.000000000000000000 ) ) ;
#123 = ORIENTED_EDGE ( 'NONE', *, *, #43, .T. ) ;
#124 = DESIGN_CONTEXT ( 'detailed design', #65, 'design' ) ;
#125 = PLANE ( 'NONE',  #93 ) ;
#126 = CIRCLE ( 'NONE', #199, 2.000000000000000000 ) ;
#127 = LINE ( 'NONE', #129, #234 ) ;
#128 = EDGE_CURVE ( 'NONE', #169, #131, #21, .T. ) ;
#129 = CARTESIAN_POINT ( 'NONE',  ( -20.00012701892218914, -7.500000000000007105, 0.000000000000000000 ) ) ;
#130 = DIRECTION ( 'NONE',  ( -0.8340786710325415187, 0.5516455116545312398, 0.000000000000000000 ) ) ;
#131 = VERTEX_POINT ( 'NONE', #111 ) ;
#132 = ORIENTED_EDGE ( 'NONE', *, *, #217, .T. ) ;
#133 = CALENDAR_DATE ( 2026, 1, 9 ) ;
#134 = PERSON_AND_ORGANIZATION_ROLE ( 'classification_officer' ) ;
#135 = VECTOR ( 'NONE', #265, 1000.000000000000000 ) ;
#136 = FACE_OUTER_BOUND ( 'NONE', #42, .T. ) ;
#137 = DIRECTION ( 'NONE',  ( -0.5000000000000004441, 0.8660254037844383745, -0.000000000000000000 ) ) ;
#138 = CARTESIAN_POINT ( 'NONE',  ( -8.660254037844385522, -3.903127820947815962E-15, 10.00000000000000000 ) ) ;
#139 = VECTOR ( 'NONE', #94, 1000.000000000000000 ) ;
#140 = ADVANCED_FACE ( 'NONE', ( #173 ), #4, .F. ) ;
#141 =( NAMED_UNIT ( * ) PLANE_ANGLE_UNIT ( ) SI_UNIT ( $, .RADIAN. ) );
#142 = CARTESIAN_POINT ( 'NONE',  ( -10.15665165721965657, -1.408163294916920272, 10.00000000000000000 ) ) ;
#143 = APPROVAL_STATUS ( 'not_yet_approved' ) ;
#144 = ORIENTED_EDGE ( 'NONE', *, *, #272, .T. ) ;
#145 = DIRECTION ( 'NONE',  ( -0.000000000000000000, -0.000000000000000000, -1.000000000000000000 ) ) ;
#146 = EDGE_CURVE ( 'NONE', #249, #109, #191, .T. ) ;
#147 = DIRECTION ( 'NONE',  ( -2.312964634635742957E-16, -1.000000000000000000, 0.000000000000000000 ) ) ;
#148 = EDGE_CURVE ( 'NONE', #88, #90, #117, .T. ) ;
#149 = DATE_AND_TIME ( #188, #163 ) ;
#150 = CC_DESIGN_SECURITY_CLASSIFICATION ( #206, ( #262 ) ) ;
#151 = ORIENTED_EDGE ( 'NONE', *, *, #128, .F. ) ;
#152 = CARTESIAN_POINT ( 'NONE',  ( -10.15665165721965657, -1.408163294916920272, 10.00000000000000000 ) ) ;
#153 = VERTEX_POINT ( 'NONE', #84 ) ;
#154 = PERSON_AND_ORGANIZATION_ROLE ( 'design_supplier' ) ;
#155 = DIRECTION ( 'NONE',  ( 0.000000000000000000, 0.000000000000000000, 1.000000000000000000 ) ) ;
#156 = EDGE_CURVE ( 'NONE', #169, #164, #248, .T. ) ;
#157 = ORIENTED_EDGE ( 'NONE', *, *, #120, .F. ) ;
#158 = PERSON_AND_ORGANIZATION ( #231, #80 ) ;
#159 = DIRECTION ( 'NONE',  ( -3.321104293510159743E-16, 1.000000000000000000, 0.000000000000000000 ) ) ;
#160 = DIRECTION ( 'NONE',  ( 2.312964634635742957E-16, 1.000000000000000000, 0.000000000000000000 ) ) ;
#161 = FACE_OUTER_BOUND ( 'NONE', #215, .T. ) ;
#162 = DATE_AND_TIME ( #183, #18 ) ;
#163 = LOCAL_TIME ( 18, 28, 34.00000000000000000, #232 ) ;
#164 = VERTEX_POINT ( 'NONE', #250 ) ;
#165 = UNCERTAINTY_MEASURE_WITH_UNIT (LENGTH_MEASURE( 1.000000000000000082E-05 ), #221, 'distance_accuracy_value', 'NONE');
#166 = ORIENTED_EDGE ( 'NONE', *, *, #208, .T. ) ;
#167 = ORIENTED_EDGE ( 'NONE', *, *, #128, .T. ) ;
#168 = DIRECTION ( 'NONE',  ( 1.000000000000000000, 3.577867169202164632E-15, 0.000000000000000000 ) ) ;
#169 = VERTEX_POINT ( 'NONE', #19 ) ;
#170 = CARTESIAN_POINT ( 'NONE',  ( -20.00012701892218914, -7.500000000000007105, 10.00000000000000000 ) ) ;
#171 = ORIENTED_EDGE ( 'NONE', *, *, #156, .F. ) ;
#172 = MANIFOLD_SOLID_BREP ( 'Fillet1', #8 ) ;
#173 = FACE_OUTER_BOUND ( 'NONE', #22, .T. ) ;
#174 = APPROVAL_PERSON_ORGANIZATION ( #12, #41, #223 ) ;
#175 = ORIENTED_EDGE ( 'NONE', *, *, #99, .T. ) ;
#176 = PERSON_AND_ORGANIZATION ( #231, #80 ) ;
#177 = VECTOR ( 'NONE', #137, 1000.000000000000000 ) ;
#178 = CC_DESIGN_PERSON_AND_ORGANIZATION_ASSIGNMENT ( #244, #57, ( #73 ) ) ;
#179 = LINE ( 'NONE', #24, #28 ) ;
#180 = APPROVAL_DATE_TIME ( #162, #204 ) ;
#181 = PLANE ( 'NONE',  #49 ) ;
#182 = APPROVAL_STATUS ( 'not_yet_approved' ) ;
#183 = CALENDAR_DATE ( 2026, 1, 9 ) ;
#184 = APPLICATION_CONTEXT ( 'configuration controlled 3d designs of mechanical parts and assemblies' ) ;
#185 = VECTOR ( 'NONE', #130, 1000.000000000000000 ) ;
#186 = EDGE_CURVE ( 'NONE', #109, #169, #61, .T. ) ;
#187 = ORIENTED_EDGE ( 'NONE', *, *, #148, .T. ) ;
#188 = CALENDAR_DATE ( 2026, 1, 9 ) ;
#189 = CARTESIAN_POINT ( 'NONE',  ( -20.00012701892218914, -7.500000000000007105, 10.00000000000000000 ) ) ;
#190 = EDGE_LOOP ( 'NONE', ( #144, #132, #105, #175 ) ) ;
#191 = LINE ( 'NONE', #66, #185 ) ;
#192 = ORIENTED_EDGE ( 'NONE', *, *, #193, .T. ) ;
#193 = EDGE_CURVE ( 'NONE', #164, #48, #127, .T. ) ;
#194 = ORIENTED_EDGE ( 'NONE', *, *, #146, .T. ) ;
#195 = CARTESIAN_POINT ( 'NONE',  ( -9.053360633910594757, 0.2599940471481632098, 10.00000000000000000 ) ) ;
#196 = VECTOR ( 'NONE', #14, 1000.000000000000000 ) ;
#197 = CARTESIAN_POINT ( 'NONE',  ( -20.00012701892218558, 7.499999999999992006, 0.000000000000000000 ) ) ;
#198 = CARTESIAN_POINT ( 'NONE',  ( -20.00012701892218914, -7.500000000000007105, 10.00000000000000000 ) ) ;
#199 = AXIS2_PLACEMENT_3D ( 'NONE', #152, #69, #229 ) ;
#200 = ADVANCED_FACE ( 'NONE', ( #136 ), #32, .F. ) ;
#201 = CARTESIAN_POINT ( 'NONE',  ( 0.000000000000000000, 0.000000000000000000, 0.000000000000000000 ) ) ;
#202 = DIRECTION ( 'NONE',  ( -1.000000000000000000, 0.000000000000000000, 0.000000000000000000 ) ) ;
#203 = PLANE ( 'NONE',  #16 ) ;
#204 = APPROVAL ( #182, 'UNSPECIFIED' ) ;
#205 = DIRECTION ( 'NONE',  ( 1.000000000000000000, 0.000000000000000000, -0.000000000000000000 ) ) ;
#206 = SECURITY_CLASSIFICATION ( '', '', #51 ) ;
#207 = CARTESIAN_POINT ( 'NONE',  ( -20.00012701892218558, 7.499999999999992006, 0.000000000000000000 ) ) ;
#208 = EDGE_CURVE ( 'NONE', #249, #88, #30, .T. ) ;
#209 = CC_DESIGN_APPROVAL ( #204, ( #73 ) ) ;
#210 = ORIENTED_EDGE ( 'NONE', *, *, #272, .F. ) ;
#211 = ORIENTED_EDGE ( 'NONE', *, *, #146, .F. ) ;
#212 = PERSON_AND_ORGANIZATION_ROLE ( 'creator' ) ;
#213 = VECTOR ( 'NONE', #147, 1000.000000000000000 ) ;
#214 = DIRECTION ( 'NONE',  ( -0.5000000000000004441, 0.8660254037844383745, -0.000000000000000000 ) ) ;
#215 = EDGE_LOOP ( 'NONE', ( #157, #112, #5, #247 ) ) ;
#216 = DATE_AND_TIME ( #133, #72 ) ;
#217 = EDGE_CURVE ( 'NONE', #90, #153, #179, .T. ) ;
#218 = AXIS2_PLACEMENT_3D ( 'NONE', #142, #38, #202 ) ;
#219 = DIRECTION ( 'NONE',  ( 1.000000000000000000, -2.312964634635742957E-16, 0.000000000000000000 ) ) ;
#220 = CC_DESIGN_APPROVAL ( #41, ( #262 ) ) ;
#221 =( LENGTH_UNIT ( ) NAMED_UNIT ( * ) SI_UNIT ( .MILLI., .METRE. ) );
#222 = ADVANCED_FACE ( 'NONE', ( #256 ), #68, .F. ) ;
#223 = APPROVAL_ROLE ( '' ) ;
#224 = FACE_OUTER_BOUND ( 'NONE', #230, .T. ) ;
#225 = ORIENTED_EDGE ( 'NONE', *, *, #186, .T. ) ;
#226 = DIRECTION ( 'NONE',  ( -0.000000000000000000, -0.000000000000000000, -1.000000000000000000 ) ) ;
#227 = SHAPE_DEFINITION_REPRESENTATION ( #119, #74 ) ;
#228 = CC_DESIGN_PERSON_AND_ORGANIZATION_ASSIGNMENT ( #75, #95, ( #59 ) ) ;
#229 = DIRECTION ( 'NONE',  ( 1.000000000000000000, 0.000000000000000000, 0.000000000000000000 ) ) ;
#230 = EDGE_LOOP ( 'NONE', ( #245, #50, #194, #225, #167 ) ) ;
#231 = PERSON ( 'UNSPECIFIED', 'UNSPECIFIED', 'UNSPECIFIED', ('UNSPECIFIED'), ('UNSPECIFIED'), ('UNSPECIFIED') ) ;
#232 = COORDINATED_UNIVERSAL_TIME_OFFSET ( 5, 30, .AHEAD. ) ;
#233 = LINE ( 'NONE', #103, #252 ) ;
#234 = VECTOR ( 'NONE', #238, 1000.000000000000000 ) ;
#235 = LOCAL_TIME ( 18, 28, 34.00000000000000000, #39 ) ;
#236 = EDGE_CURVE ( 'NONE', #109, #251, #233, .T. ) ;
#237 = PERSON_AND_ORGANIZATION ( #231, #80 ) ;
#238 = DIRECTION ( 'NONE',  ( 1.000000000000000000, 3.321104293510159743E-16, 0.000000000000000000 ) ) ;
#239 = LOCAL_TIME ( 18, 28, 34.00000000000000000, #242 ) ;
#240 = MECHANICAL_CONTEXT ( 'NONE', #184, 'mechanical' ) ;
#241 = DIRECTION ( 'NONE',  ( 1.000000000000000000, 0.000000000000000000, 0.000000000000000000 ) ) ;
#242 = COORDINATED_UNIVERSAL_TIME_OFFSET ( 5, 30, .AHEAD. ) ;
#243 = CYLINDRICAL_SURFACE ( 'NONE', #218, 2.000000000000000000 ) ;
#244 = PERSON_AND_ORGANIZATION ( #231, #80 ) ;
#245 = ORIENTED_EDGE ( 'NONE', *, *, #116, .T. ) ;
#246 = LINE ( 'NONE', #207, #196 ) ;
#247 = ORIENTED_EDGE ( 'NONE', *, *, #208, .F. ) ;
#248 = LINE ( 'NONE', #170, #60 ) ;
#249 = VERTEX_POINT ( 'NONE', #195 ) ;
#250 = CARTESIAN_POINT ( 'NONE',  ( -20.00012701892218914, -7.500000000000007105, 0.000000000000000000 ) ) ;
#251 = VERTEX_POINT ( 'NONE', #197 ) ;
#252 = VECTOR ( 'NONE', #145, 1000.000000000000000 ) ;
#253 = CC_DESIGN_PERSON_AND_ORGANIZATION_ASSIGNMENT ( #176, #134, ( #206 ) ) ;
#254 = DIRECTION ( 'NONE',  ( 0.8340786710325415187, -0.5516455116545311288, 0.000000000000000000 ) ) ;
#255 = PERSON_AND_ORGANIZATION ( #231, #80 ) ;
#256 = FACE_OUTER_BOUND ( 'NONE', #3, .T. ) ;
#257 = ORIENTED_EDGE ( 'NONE', *, *, #99, .F. ) ;
#258 = EDGE_CURVE ( 'NONE', #88, #251, #35, .T. ) ;
#259 = ORIENTED_EDGE ( 'NONE', *, *, #258, .T. ) ;
#260 = AXIS2_PLACEMENT_3D ( 'NONE', #46, #104, #168 ) ;
#261 = APPROVAL_DATE_TIME ( #86, #41 ) ;
#262 = PRODUCT_DEFINITION_FORMATION_WITH_SPECIFIED_SOURCE ( 'ANY', '', #59, .NOT_KNOWN. ) ;
#263 = PRODUCT_RELATED_PRODUCT_CATEGORY ( 'detail', '', ( #59 ) ) ;
#264 = VECTOR ( 'NONE', #214, 1000.000000000000000 ) ;
#265 = DIRECTION ( 'NONE',  ( -0.8340786710325415187, 0.5516455116545312398, 0.000000000000000000 ) ) ;
#266 = LINE ( 'NONE', #77, #264 ) ;
#267 = APPROVAL_ROLE ( '' ) ;
#268 = ADVANCED_FACE ( 'NONE', ( #76 ), #203, .F. ) ;
#269 = LINE ( 'NONE', #9, #63 ) ;
#270 = CARTESIAN_POINT ( 'NONE',  ( -8.660254037844385522, -3.903127820947815962E-15, 0.000000000000000000 ) ) ;
#271 = AXIS2_PLACEMENT_3D ( 'NONE', #107, #155, #87 ) ;
#272 = EDGE_CURVE ( 'NONE', #48, #90, #31, .T. ) ;
ENDSEC;
END-ISO-10303-21;
