ISO-10303-21;
HEADER;
FILE_DESCRIPTION (( 'STEP AP203' ),
    '1' );
FILE_NAME ('LinkGripperToArm_cover_top_sldprt.STEP',
    '2026-08-24T07:39:24',
    ( '' ),
    ( '' ),
    'SwSTEP 2.0',
    'SolidWorks 2020',
    '' );
FILE_SCHEMA (( 'CONFIG_CONTROL_DESIGN' ));
ENDSEC;

DATA;
#1 = CC_DESIGN_APPROVAL ( #743, ( #1041 ) ) ;
#2 = AXIS2_PLACEMENT_3D ( 'NONE', #90, #1187, #1090 ) ;
#3 = APPROVAL ( #861, 'UNSPECIFIED' ) ;
#4 = VECTOR ( 'NONE', #281, 1000.000000000000000 ) ;
#5 = DIRECTION ( 'NONE',  ( 0.000000000000000000, 1.269309860470834477E-16, 1.000000000000000000 ) ) ;
#6 = AXIS2_PLACEMENT_3D ( 'NONE', #351, #817, #338 ) ;
#7 = LINE ( 'NONE', #744, #902 ) ;
#8 = CARTESIAN_POINT ( 'NONE',  ( -14.50099999999999767, 17.49999999999999645, 43.00000000000000000 ) ) ;
#9 = VERTEX_POINT ( 'NONE', #318 ) ;
#10 = DIRECTION ( 'NONE',  ( 0.000000000000000000, 0.000000000000000000, 1.000000000000000000 ) ) ;
#11 = ADVANCED_FACE ( 'NONE', ( #431 ), #688, .F. ) ;
#12 = ORIENTED_EDGE ( 'NONE', *, *, #476, .F. ) ;
#13 = DIRECTION ( 'NONE',  ( -1.000000000000000000, 0.000000000000000000, 0.000000000000000000 ) ) ;
#14 = DIRECTION ( 'NONE',  ( -1.745740669421566678E-15, -1.000000000000000000, -0.000000000000000000 ) ) ;
#15 = ORIENTED_EDGE ( 'NONE', *, *, #1025, .F. ) ;
#16 = FACE_OUTER_BOUND ( 'NONE', #959, .T. ) ;
#17 = EDGE_LOOP ( 'NONE', ( #567, #842, #509, #972 ) ) ;
#18 = CC_DESIGN_PERSON_AND_ORGANIZATION_ASSIGNMENT ( #492, #400, ( #143 ) ) ;
#19 = CARTESIAN_POINT ( 'NONE',  ( -7.347880794884123680E-16, -20.49999999999999645, 80.00000000000000000 ) ) ;
#20 = DIRECTION ( 'NONE',  ( 1.000000000000000000, -0.000000000000000000, -0.000000000000000000 ) ) ;
#21 = AXIS2_PLACEMENT_3D ( 'NONE', #560, #383, #207 ) ;
#22 = ORIENTED_EDGE ( 'NONE', *, *, #132, .T. ) ;
#23 = CARTESIAN_POINT ( 'NONE',  ( -7.250000000000000888, 1.530808498934190831E-16, 200.0010000000000048 ) ) ;
#24 = VERTEX_POINT ( 'NONE', #788 ) ;
#25 = PERSON_AND_ORGANIZATION ( #893, #840 ) ;
#26 = VECTOR ( 'NONE', #1106, 1000.000000000000000 ) ;
#27 = CARTESIAN_POINT ( 'NONE',  ( -8.500000000000000000, 0.000000000000000000, 200.0010000000000048 ) ) ;
#28 = EDGE_CURVE ( 'NONE', #224, #1147, #781, .T. ) ;
#29 = ORIENTED_EDGE ( 'NONE', *, *, #969, .F. ) ;
#30 = LINE ( 'NONE', #1020, #766 ) ;
#31 = ORIENTED_EDGE ( 'NONE', *, *, #844, .T. ) ;
#32 = DATE_AND_TIME ( #297, #118 ) ;
#33 = CARTESIAN_POINT ( 'NONE',  ( 0.000000000000000000, 14.50000000000000000, -2.000000000000000000 ) ) ;
#34 = EDGE_LOOP ( 'NONE', ( #694, #923 ) ) ;
#35 = EDGE_LOOP ( 'NONE', ( #322, #228 ) ) ;
#36 = ORIENTED_EDGE ( 'NONE', *, *, #246, .F. ) ;
#37 = DIRECTION ( 'NONE',  ( 0.000000000000000000, 1.269309860470834477E-16, 1.000000000000000000 ) ) ;
#38 = PRODUCT ( 'LinkGripperToArm_cover_top_sldprt', 'LinkGripperToArm_cover_top_sldprt', '', ( #1189 ) ) ;
#39 = CIRCLE ( 'NONE', #946, 2.000000000000001776 ) ;
#40 = EDGE_CURVE ( 'NONE', #1167, #760, #590, .T. ) ;
#41 = AXIS2_PLACEMENT_3D ( 'NONE', #1002, #354, #629 ) ;
#42 = ORIENTED_EDGE ( 'NONE', *, *, #913, .T. ) ;
#43 = ORIENTED_EDGE ( 'NONE', *, *, #1154, .F. ) ;
#44 = DIRECTION ( 'NONE',  ( 0.000000000000000000, 0.000000000000000000, -1.000000000000000000 ) ) ;
#45 = AXIS2_PLACEMENT_3D ( 'NONE', #341, #1163, #523 ) ;
#46 = ORIENTED_EDGE ( 'NONE', *, *, #64, .F. ) ;
#47 = ORIENTED_EDGE ( 'NONE', *, *, #152, .F. ) ;
#48 = EDGE_CURVE ( 'NONE', #140, #1028, #557, .T. ) ;
#49 = CARTESIAN_POINT ( 'NONE',  ( -14.50099999999999767, -17.49999999999999645, 75.00000000000000000 ) ) ;
#50 = CARTESIAN_POINT ( 'NONE',  ( 0.000000000000000000, -14.49999999999999822, 0.000000000000000000 ) ) ;
#51 = VECTOR ( 'NONE', #121, 1000.000000000000000 ) ;
#52 = ORIENTED_EDGE ( 'NONE', *, *, #1000, .F. ) ;
#53 = ORIENTED_EDGE ( 'NONE', *, *, #772, .F. ) ;
#54 = CC_DESIGN_PERSON_AND_ORGANIZATION_ASSIGNMENT ( #206, #116, ( #1041 ) ) ;
#55 = DIRECTION ( 'NONE',  ( 0.000000000000000000, 0.000000000000000000, -1.000000000000000000 ) ) ;
#56 = DIRECTION ( 'NONE',  ( 0.000000000000000000, 0.000000000000000000, -1.000000000000000000 ) ) ;
#57 = AXIS2_PLACEMENT_3D ( 'NONE', #953, #401, #759 ) ;
#58 =( GEOMETRIC_REPRESENTATION_CONTEXT ( 3 ) GLOBAL_UNCERTAINTY_ASSIGNED_CONTEXT ( ( #463 ) ) GLOBAL_UNIT_ASSIGNED_CONTEXT ( ( #371, #655, #733 ) ) REPRESENTATION_CONTEXT ( 'NONE', 'WORKASPACE' ) );
#59 = VERTEX_POINT ( 'NONE', #489 ) ;
#60 = AXIS2_PLACEMENT_3D ( 'NONE', #647, #828, #10 ) ;
#61 = DIRECTION ( 'NONE',  ( -1.000000000000000000, 0.000000000000000000, 0.000000000000000000 ) ) ;
#62 = VECTOR ( 'NONE', #1132, 1000.000000000000000 ) ;
#63 = FACE_BOUND ( 'NONE', #148, .T. ) ;
#64 = EDGE_CURVE ( 'NONE', #584, #834, #112, .T. ) ;
#65 = AXIS2_PLACEMENT_3D ( 'NONE', #552, #732, #456 ) ;
#66 = VERTEX_POINT ( 'NONE', #832 ) ;
#67 = VERTEX_POINT ( 'NONE', #574 ) ;
#68 = CARTESIAN_POINT ( 'NONE',  ( 0.000000000000000000, -3.500000000000000000, 0.000000000000000000 ) ) ;
#69 = DIRECTION ( 'NONE',  ( -0.000000000000000000, -0.000000000000000000, 1.000000000000000000 ) ) ;
#70 = FACE_OUTER_BOUND ( 'NONE', #1021, .T. ) ;
#71 = APPROVAL ( #579, 'UNSPECIFIED' ) ;
#72 = ORIENTED_EDGE ( 'NONE', *, *, #650, .F. ) ;
#73 = ORIENTED_EDGE ( 'NONE', *, *, #737, .T. ) ;
#74 = CARTESIAN_POINT ( 'NONE',  ( 1.920314736363723345E-14, -3.499999999999999556, -2.000000000000000000 ) ) ;
#75 = FACE_OUTER_BOUND ( 'NONE', #1122, .T. ) ;
#76 = CARTESIAN_POINT ( 'NONE',  ( 0.000000000000000000, 3.500000000000000000, 200.0010000000000048 ) ) ;
#77 = CARTESIAN_POINT ( 'NONE',  ( -2.000000000000000000, 17.49999999999999645, 57.49999999999999289 ) ) ;
#78 = ORIENTED_EDGE ( 'NONE', *, *, #761, .T. ) ;
#79 = LINE ( 'NONE', #166, #978 ) ;
#80 = CC_DESIGN_APPROVAL ( #71, ( #143 ) ) ;
#81 = CARTESIAN_POINT ( 'NONE',  ( -2.000000000000000888, 20.49999999999999645, -2.000000000000000000 ) ) ;
#82 = DIRECTION ( 'NONE',  ( -1.000000000000000000, 0.000000000000000000, -0.000000000000000000 ) ) ;
#83 = DIRECTION ( 'NONE',  ( -1.000000000000000000, 0.000000000000000000, 0.000000000000000000 ) ) ;
#84 = ORIENTED_EDGE ( 'NONE', *, *, #575, .T. ) ;
#85 = DIRECTION ( 'NONE',  ( 0.000000000000000000, 0.000000000000000000, -1.000000000000000000 ) ) ;
#86 = EDGE_CURVE ( 'NONE', #1115, #592, #1013, .T. ) ;
#87 = LINE ( 'NONE', #713, #764 ) ;
#88 = DIRECTION ( 'NONE',  ( 1.000000000000000000, 0.000000000000000000, -0.000000000000000000 ) ) ;
#89 = CARTESIAN_POINT ( 'NONE',  ( -2.000000000000001332, 14.36140661634506976, 80.00000000000001421 ) ) ;
#90 = CARTESIAN_POINT ( 'NONE',  ( -14.50099999999999767, -17.49999999999999645, 59.50000000000000000 ) ) ;
#91 = CARTESIAN_POINT ( 'NONE',  ( 0.000000000000000000, 17.49999999999999645, 77.00000000000000000 ) ) ;
#92 = CARTESIAN_POINT ( 'NONE',  ( 0.000000000000000000, 0.000000000000000000, -2.000000000000000000 ) ) ;
#93 = CYLINDRICAL_SURFACE ( 'NONE', #6, 2.000000000000001776 ) ;
#94 = ADVANCED_FACE ( 'NONE', ( #204 ), #921, .F. ) ;
#95 = FACE_OUTER_BOUND ( 'NONE', #1165, .T. ) ;
#96 = DIRECTION ( 'NONE',  ( -1.000000000000000000, 0.000000000000000000, 0.000000000000000000 ) ) ;
#97 = AXIS2_PLACEMENT_3D ( 'NONE', #478, #1098, #382 ) ;
#98 = DIRECTION ( 'NONE',  ( 1.000000000000000000, 0.000000000000000000, -0.000000000000000000 ) ) ;
#99 = AXIS2_PLACEMENT_3D ( 'NONE', #171, #815, #85 ) ;
#100 = EDGE_CURVE ( 'NONE', #1134, #144, #581, .T. ) ;
#101 = AXIS2_PLACEMENT_3D ( 'NONE', #256, #154, #333 ) ;
#102 = CARTESIAN_POINT ( 'NONE',  ( -14.50099999999999767, -17.49999999999999645, 77.00000000000000000 ) ) ;
#103 = AXIS2_PLACEMENT_3D ( 'NONE', #324, #432, #604 ) ;
#104 = VERTEX_POINT ( 'NONE', #475 ) ;
#105 = DIRECTION ( 'NONE',  ( 0.000000000000000000, -1.269309860470834477E-16, -1.000000000000000000 ) ) ;
#106 = EDGE_LOOP ( 'NONE', ( #1066, #306, #951, #323 ) ) ;
#107 = EDGE_CURVE ( 'NONE', #1120, #748, #751, .T. ) ;
#108 = DIRECTION ( 'NONE',  ( 1.000000000000000000, -0.000000000000000000, -0.000000000000000000 ) ) ;
#109 = ORIENTED_EDGE ( 'NONE', *, *, #784, .T. ) ;
#110 = CARTESIAN_POINT ( 'NONE',  ( -8.500000000000000000, 0.000000000000000000, 200.0010000000000048 ) ) ;
#111 = CARTESIAN_POINT ( 'NONE',  ( -14.50099999999999767, 17.49999999999999645, 77.00000000000000000 ) ) ;
#112 = CIRCLE ( 'NONE', #268, 2.000000000000001776 ) ;
#113 = ORIENTED_EDGE ( 'NONE', *, *, #411, .T. ) ;
#114 = CARTESIAN_POINT ( 'NONE',  ( -14.50099999999999767, 17.49999999999999645, 59.50000000000000000 ) ) ;
#115 = EDGE_LOOP ( 'NONE', ( #987, #658, #205, #577 ) ) ;
#116 = PERSON_AND_ORGANIZATION_ROLE ( 'creator' ) ;
#117 = CARTESIAN_POINT ( 'NONE',  ( -2.000000000000000000, 17.49999999999999645, 77.00000000000000000 ) ) ;
#118 = LOCAL_TIME ( 13, 9, 24.00000000000000000, #1123 ) ;
#119 = CIRCLE ( 'NONE', #60, 2.000000000000001776 ) ;
#120 = EDGE_LOOP ( 'NONE', ( #877, #405, #164, #1074, #198, #704, #722, #831 ) ) ;
#121 = DIRECTION ( 'NONE',  ( 1.000000000000000000, -0.000000000000000000, -0.000000000000000000 ) ) ;
#122 = ORIENTED_EDGE ( 'NONE', *, *, #657, .T. ) ;
#123 = PERSON_AND_ORGANIZATION_ROLE ( 'design_owner' ) ;
#124 = VECTOR ( 'NONE', #868, 1000.000000000000000 ) ;
#125 = EDGE_CURVE ( 'NONE', #1156, #144, #1034, .T. ) ;
#126 = CARTESIAN_POINT ( 'NONE',  ( -2.000000000000000888, -20.49999999999999645, 80.00000000000000000 ) ) ;
#127 = ORIENTED_EDGE ( 'NONE', *, *, #1126, .T. ) ;
#128 = EDGE_LOOP ( 'NONE', ( #636, #943, #122, #239, #442, #602, #78, #622, #1113, #950 ) ) ;
#129 = ORIENTED_EDGE ( 'NONE', *, *, #1069, .T. ) ;
#130 = APPROVAL_ROLE ( '' ) ;
#131 = LINE ( 'NONE', #126, #255 ) ;
#132 = EDGE_CURVE ( 'NONE', #353, #693, #119, .T. ) ;
#133 = ORIENTED_EDGE ( 'NONE', *, *, #1110, .F. ) ;
#134 = ORIENTED_EDGE ( 'NONE', *, *, #872, .F. ) ;
#135 = CARTESIAN_POINT ( 'NONE',  ( 0.000000000000000000, -14.49999999999999822, 80.00000000000000000 ) ) ;
#136 = PRODUCT_DEFINITION_SHAPE ( 'NONE', 'NONE',  #143 ) ;
#137 = AXIS2_PLACEMENT_3D ( 'NONE', #887, #350, #1093 ) ;
#138 = EDGE_CURVE ( 'NONE', #522, #775, #30, .T. ) ;
#139 = ORIENTED_EDGE ( 'NONE', *, *, #227, .F. ) ;
#140 = VERTEX_POINT ( 'NONE', #1114 ) ;
#141 = DIRECTION ( 'NONE',  ( 0.000000000000000000, 0.000000000000000000, -1.000000000000000000 ) ) ;
#142 = CARTESIAN_POINT ( 'NONE',  ( 2.531323970661271367E-14, 0.000000000000000000, -2.000000000000000000 ) ) ;
#143 = PRODUCT_DEFINITION ( 'UNKNOWN', '', #1041, #939 ) ;
#144 = VERTEX_POINT ( 'NONE', #569 ) ;
#145 = ORIENTED_EDGE ( 'NONE', *, *, #786, .F. ) ;
#146 = FACE_OUTER_BOUND ( 'NONE', #218, .T. ) ;
#147 = CARTESIAN_POINT ( 'NONE',  ( 0.000000000000000000, -14.49999999999999822, 80.00000000000000000 ) ) ;
#148 = EDGE_LOOP ( 'NONE', ( #679, #541 ) ) ;
#149 = ORIENTED_EDGE ( 'NONE', *, *, #435, .T. ) ;
#150 = ORIENTED_EDGE ( 'NONE', *, *, #993, .F. ) ;
#151 = EDGE_CURVE ( 'NONE', #748, #67, #1101, .T. ) ;
#152 = EDGE_CURVE ( 'NONE', #104, #66, #927, .T. ) ;
#153 = DIRECTION ( 'NONE',  ( -0.000000000000000000, -0.000000000000000000, -1.000000000000000000 ) ) ;
#154 = DIRECTION ( 'NONE',  ( 0.000000000000000000, 0.000000000000000000, 1.000000000000000000 ) ) ;
#155 = AXIS2_PLACEMENT_3D ( 'NONE', #27, #396, #1086 ) ;
#156 = LOCAL_TIME ( 13, 9, 24.00000000000000000, #1125 ) ;
#157 = EDGE_LOOP ( 'NONE', ( #417, #52, #328, #765 ) ) ;
#158 = CYLINDRICAL_SURFACE ( 'NONE', #470, 3.500000000000000000 ) ;
#159 = CIRCLE ( 'NONE', #407, 2.000000000000001776 ) ;
#160 = DIRECTION ( 'NONE',  ( -1.000000000000000000, 0.000000000000000000, 0.000000000000000000 ) ) ;
#161 = LINE ( 'NONE', #458, #846 ) ;
#162 = ADVANCED_FACE ( 'NONE', ( #16 ), #1128, .F. ) ;
#163 = AXIS2_PLACEMENT_3D ( 'NONE', #813, #909, #532 ) ;
#164 = ORIENTED_EDGE ( 'NONE', *, *, #762, .F. ) ;
#165 = EDGE_LOOP ( 'NONE', ( #1155, #129 ) ) ;
#166 = CARTESIAN_POINT ( 'NONE',  ( -14.50099999999999767, 17.49999999999999645, 79.00000000000000000 ) ) ;
#167 = CARTESIAN_POINT ( 'NONE',  ( -14.50099999999999767, -17.49999999999999645, 57.49999999999999289 ) ) ;
#168 = DIRECTION ( 'NONE',  ( -1.000000000000000000, 0.000000000000000000, 0.000000000000000000 ) ) ;
#169 = LINE ( 'NONE', #277, #352 ) ;
#170 = EDGE_LOOP ( 'NONE', ( #798, #1186, #854, #666 ) ) ;
#171 = CARTESIAN_POINT ( 'NONE',  ( -14.50099999999999767, -17.49999999999999645, 43.00000000000000000 ) ) ;
#172 = CARTESIAN_POINT ( 'NONE',  ( 0.000000000000000000, 20.49999999999999645, 39.00000000000000000 ) ) ;
#173 = PLANE ( 'NONE',  #859 ) ;
#174 = CARTESIAN_POINT ( 'NONE',  ( 0.000000000000000000, -17.49999999999999645, 57.49999999999999289 ) ) ;
#175 = EDGE_CURVE ( 'NONE', #1048, #497, #839, .T. ) ;
#176 = VERTEX_POINT ( 'NONE', #723 ) ;
#177 = CARTESIAN_POINT ( 'NONE',  ( -12.50000000000000000, 0.000000000000000000, 80.00000000000000000 ) ) ;
#178 = CIRCLE ( 'NONE', #595, 14.49999999999999822 ) ;
#179 = VECTOR ( 'NONE', #20, 1000.000000000000000 ) ;
#180 = DIRECTION ( 'NONE',  ( 0.000000000000000000, 1.000000000000000000, 0.000000000000000000 ) ) ;
#181 = DIRECTION ( 'NONE',  ( 0.000000000000000000, 0.000000000000000000, 1.000000000000000000 ) ) ;
#182 = DIRECTION ( 'NONE',  ( 0.000000000000000000, 0.000000000000000000, -1.000000000000000000 ) ) ;
#183 = AXIS2_PLACEMENT_3D ( 'NONE', #287, #1023, #917 ) ;
#184 = VERTEX_POINT ( 'NONE', #177 ) ;
#185 = CYLINDRICAL_SURFACE ( 'NONE', #99, 2.000000000000001776 ) ;
#186 = EDGE_CURVE ( 'NONE', #1172, #593, #79, .T. ) ;
#187 = CARTESIAN_POINT ( 'NONE',  ( 0.000000000000000000, -17.49999999999999645, 43.00000000000000000 ) ) ;
#188 = DIRECTION ( 'NONE',  ( 1.000000000000000000, 0.000000000000000000, 0.000000000000000000 ) ) ;
#189 = LINE ( 'NONE', #1181, #390 ) ;
#190 = PLANE ( 'NONE',  #65 ) ;
#191 = CARTESIAN_POINT ( 'NONE',  ( -2.000000000000000000, 17.49999999999999645, 45.00000000000000000 ) ) ;
#192 = LINE ( 'NONE', #202, #332 ) ;
#193 = ADVANCED_FACE ( 'NONE', ( #822 ), #730, .T. ) ;
#194 = DIRECTION ( 'NONE',  ( -1.000000000000000000, 0.000000000000000000, 0.000000000000000000 ) ) ;
#195 = FACE_BOUND ( 'NONE', #711, .T. ) ;
#196 = AXIS2_PLACEMENT_3D ( 'NONE', #717, #1008, #449 ) ;
#197 = ADVANCED_FACE ( 'NONE', ( #95 ), #185, .F. ) ;
#198 = ORIENTED_EDGE ( 'NONE', *, *, #240, .F. ) ;
#199 = CARTESIAN_POINT ( 'NONE',  ( 0.000000000000000000, -17.49999999999999645, 43.00000000000000000 ) ) ;
#200 = AXIS2_PLACEMENT_3D ( 'NONE', #419, #616, #983 ) ;
#201 = EDGE_LOOP ( 'NONE', ( #290, #847, #413, #867, #245, #654 ) ) ;
#202 = CARTESIAN_POINT ( 'NONE',  ( -2.000000000000000000, 14.50000000000000000, -2.000000000000000000 ) ) ;
#203 = ORIENTED_EDGE ( 'NONE', *, *, #1118, .T. ) ;
#204 = FACE_OUTER_BOUND ( 'NONE', #607, .T. ) ;
#205 = ORIENTED_EDGE ( 'NONE', *, *, #627, .T. ) ;
#206 = PERSON_AND_ORGANIZATION ( #893, #840 ) ;
#207 = DIRECTION ( 'NONE',  ( 0.000000000000000000, 0.000000000000000000, 1.000000000000000000 ) ) ;
#208 = ORIENTED_EDGE ( 'NONE', *, *, #428, .T. ) ;
#209 = DIRECTION ( 'NONE',  ( 1.000000000000000000, 0.000000000000000000, -0.000000000000000000 ) ) ;
#210 = ADVANCED_FACE ( 'NONE', ( #1104 ), #811, .F. ) ;
#211 = VERTEX_POINT ( 'NONE', #74 ) ;
#212 = CALENDAR_DATE ( 2026, 24, 8 ) ;
#213 = CIRCLE ( 'NONE', #1081, 1.249999999999999334 ) ;
#214 = CARTESIAN_POINT ( 'NONE',  ( -2.000000000000000000, 17.49999999999999645, 43.00000000000000000 ) ) ;
#215 = AXIS2_PLACEMENT_3D ( 'NONE', #114, #209, #481 ) ;
#216 = EDGE_LOOP ( 'NONE', ( #926, #346, #757, #849 ) ) ;
#217 = CIRCLE ( 'NONE', #521, 14.49999999999999822 ) ;
#218 = EDGE_LOOP ( 'NONE', ( #682, #495, #149, #855 ) ) ;
#219 = EDGE_CURVE ( 'NONE', #184, #860, #675, .T. ) ;
#220 = COORDINATED_UNIVERSAL_TIME_OFFSET ( 5, 30, .AHEAD. ) ;
#221 = VECTOR ( 'NONE', #444, 1000.000000000000000 ) ;
#222 = DIRECTION ( 'NONE',  ( 1.000000000000000000, 0.000000000000000000, 0.000000000000000000 ) ) ;
#223 = ORIENTED_EDGE ( 'NONE', *, *, #28, .F. ) ;
#224 = VERTEX_POINT ( 'NONE', #736 ) ;
#225 = PERSON_AND_ORGANIZATION ( #893, #840 ) ;
#226 = CARTESIAN_POINT ( 'NONE',  ( -14.50099999999999767, -17.49999999999999645, 43.00000000000000000 ) ) ;
#227 = EDGE_CURVE ( 'NONE', #1049, #1048, #534, .T. ) ;
#228 = ORIENTED_EDGE ( 'NONE', *, *, #314, .T. ) ;
#229 = ORIENTED_EDGE ( 'NONE', *, *, #64, .T. ) ;
#230 = CARTESIAN_POINT ( 'NONE',  ( 0.000000000000000000, 0.000000000000000000, 200.0010000000000048 ) ) ;
#231 = CARTESIAN_POINT ( 'NONE',  ( 0.000000000000000000, 0.000000000000000000, 80.00000000000000000 ) ) ;
#232 = ADVANCED_FACE ( 'NONE', ( #267 ), #642, .F. ) ;
#233 = LOCAL_TIME ( 13, 9, 24.00000000000000000, #1130 ) ;
#234 = VERTEX_POINT ( 'NONE', #1192 ) ;
#235 = ORIENTED_EDGE ( 'NONE', *, *, #969, .T. ) ;
#236 = DIRECTION ( 'NONE',  ( -1.000000000000000000, 0.000000000000000000, 0.000000000000000000 ) ) ;
#237 = CARTESIAN_POINT ( 'NONE',  ( -2.000000000000000000, 17.49999999999999645, 43.00000000000000000 ) ) ;
#238 = CYLINDRICAL_SURFACE ( 'NONE', #155, 1.249999999999999334 ) ;
#239 = ORIENTED_EDGE ( 'NONE', *, *, #219, .T. ) ;
#240 = EDGE_CURVE ( 'NONE', #710, #860, #443, .T. ) ;
#241 = ORIENTED_EDGE ( 'NONE', *, *, #776, .F. ) ;
#242 = VERTEX_POINT ( 'NONE', #898 ) ;
#243 = LINE ( 'NONE', #886, #315 ) ;
#244 = DIRECTION ( 'NONE',  ( -1.000000000000000000, 0.000000000000000000, -0.000000000000000000 ) ) ;
#245 = ORIENTED_EDGE ( 'NONE', *, *, #494, .F. ) ;
#246 = EDGE_CURVE ( 'NONE', #834, #584, #903, .T. ) ;
#247 = FACE_OUTER_BOUND ( 'NONE', #115, .T. ) ;
#248 = CARTESIAN_POINT ( 'NONE',  ( -8.500000000000000000, 0.000000000000000000, 0.000000000000000000 ) ) ;
#249 = DIRECTION ( 'NONE',  ( -0.000000000000000000, -0.000000000000000000, -1.000000000000000000 ) ) ;
#250 = AXIS2_PLACEMENT_3D ( 'NONE', #812, #996, #349 ) ;
#251 = EDGE_LOOP ( 'NONE', ( #359, #680 ) ) ;
#252 = AXIS2_PLACEMENT_3D ( 'NONE', #615, #982, #1173 ) ;
#253 = EDGE_CURVE ( 'NONE', #412, #379, #805, .T. ) ;
#254 = CARTESIAN_POINT ( 'NONE',  ( 0.000000000000000000, -12.50000000000000000, 80.00000000000000000 ) ) ;
#255 = VECTOR ( 'NONE', #498, 1000.000000000000000 ) ;
#256 = CARTESIAN_POINT ( 'NONE',  ( 0.000000000000000000, 0.000000000000000000, 80.00000000000001421 ) ) ;
#257 = CARTESIAN_POINT ( 'NONE',  ( -14.49999999999999822, 0.000000000000000000, 80.00000000000001421 ) ) ;
#258 = CIRCLE ( 'NONE', #433, 2.000000000000001776 ) ;
#259 = ORIENTED_EDGE ( 'NONE', *, *, #934, .T. ) ;
#260 = ORIENTED_EDGE ( 'NONE', *, *, #1076, .T. ) ;
#261 = DIRECTION ( 'NONE',  ( 1.000000000000000000, -0.000000000000000000, -0.000000000000000000 ) ) ;
#262 = DIRECTION ( 'NONE',  ( -1.000000000000000000, 0.000000000000000000, 0.000000000000000000 ) ) ;
#263 = CARTESIAN_POINT ( 'NONE',  ( -7.250000000000000888, 1.530808498934190831E-16, -2.000000000000000000 ) ) ;
#264 = DIRECTION ( 'NONE',  ( -0.000000000000000000, -1.000000000000000000, -0.000000000000000000 ) ) ;
#265 = EDGE_CURVE ( 'NONE', #740, #1171, #189, .T. ) ;
#266 = ORIENTED_EDGE ( 'NONE', *, *, #1118, .F. ) ;
#267 = FACE_OUTER_BOUND ( 'NONE', #301, .T. ) ;
#268 = AXIS2_PLACEMENT_3D ( 'NONE', #741, #393, #385 ) ;
#269 = LINE ( 'NONE', #1092, #410 ) ;
#270 = CARTESIAN_POINT ( 'NONE',  ( -7.347880794884123680E-16, 20.49999999999999645, 80.00000000000000000 ) ) ;
#271 = EDGE_CURVE ( 'NONE', #437, #454, #429, .T. ) ;
#272 = EDGE_LOOP ( 'NONE', ( #510, #793 ) ) ;
#273 = CARTESIAN_POINT ( 'NONE',  ( -14.50099999999999767, -17.49999999999999645, 79.00000000000000000 ) ) ;
#274 = VECTOR ( 'NONE', #360, 1000.000000000000000 ) ;
#275 = CARTESIAN_POINT ( 'NONE',  ( 0.000000000000000000, -17.49999999999999645, 59.50000000000000000 ) ) ;
#276 = CARTESIAN_POINT ( 'NONE',  ( 0.000000000000000000, 14.50000000000000533, 39.00000000000000000 ) ) ;
#277 = CARTESIAN_POINT ( 'NONE',  ( 0.000000000000000000, -12.50000000000000000, 80.00000000000000000 ) ) ;
#278 = AXIS2_PLACEMENT_3D ( 'NONE', #342, #524, #518 ) ;
#279 = DIRECTION ( 'NONE',  ( 0.000000000000000000, 0.000000000000000000, -1.000000000000000000 ) ) ;
#280 = EDGE_CURVE ( 'NONE', #740, #1172, #310, .T. ) ;
#281 = DIRECTION ( 'NONE',  ( 1.000000000000000000, -0.000000000000000000, -0.000000000000000000 ) ) ;
#282 = APPLICATION_PROTOCOL_DEFINITION ( 'international standard', 'config_control_design', 1994, #1131 ) ;
#283 = PLANE ( 'NONE',  #21 ) ;
#284 = DIRECTION ( 'NONE',  ( 1.000000000000000000, -0.000000000000000000, -0.000000000000000000 ) ) ;
#285 = EDGE_CURVE ( 'NONE', #871, #834, #1084, .T. ) ;
#286 = CARTESIAN_POINT ( 'NONE',  ( 0.000000000000000000, 0.000000000000000000, -2.000000000000000000 ) ) ;
#287 = CARTESIAN_POINT ( 'NONE',  ( -8.500000000000000000, 0.000000000000000000, -2.000000000000000000 ) ) ;
#288 = EDGE_LOOP ( 'NONE', ( #716, #1055 ) ) ;
#289 = DIRECTION ( 'NONE',  ( -0.000000000000000000, -0.000000000000000000, -1.000000000000000000 ) ) ;
#290 = ORIENTED_EDGE ( 'NONE', *, *, #1154, .T. ) ;
#291 = DIRECTION ( 'NONE',  ( -0.000000000000000000, -0.000000000000000000, -1.000000000000000000 ) ) ;
#292 = VECTOR ( 'NONE', #1061, 1000.000000000000000 ) ;
#293 = FACE_OUTER_BOUND ( 'NONE', #988, .T. ) ;
#294 = EDGE_LOOP ( 'NONE', ( #1142, #746 ) ) ;
#295 = CARTESIAN_POINT ( 'NONE',  ( -14.50099999999999767, 17.49999999999999645, 45.00000000000000000 ) ) ;
#296 = ORIENTED_EDGE ( 'NONE', *, *, #1069, .F. ) ;
#297 = CALENDAR_DATE ( 2026, 24, 8 ) ;
#298 = CARTESIAN_POINT ( 'NONE',  ( -7.347880794884123680E-16, 20.49999999999999645, 80.00000000000000000 ) ) ;
#299 = CALENDAR_DATE ( 2026, 24, 8 ) ;
#300 = EDGE_CURVE ( 'NONE', #379, #224, #637, .T. ) ;
#301 = EDGE_LOOP ( 'NONE', ( #15, #208, #940, #133 ) ) ;
#302 = CARTESIAN_POINT ( 'NONE',  ( 0.000000000000000000, 0.000000000000000000, 0.000000000000000000 ) ) ;
#303 = EDGE_LOOP ( 'NONE', ( #203, #829, #72, #1151, #853, #235, #402, #134 ) ) ;
#304 = CARTESIAN_POINT ( 'NONE',  ( 0.000000000000000000, 12.50000000000000000, 80.00000000000001421 ) ) ;
#305 = ORIENTED_EDGE ( 'NONE', *, *, #494, .T. ) ;
#306 = ORIENTED_EDGE ( 'NONE', *, *, #48, .T. ) ;
#307 = APPROVAL_DATE_TIME ( #945, #71 ) ;
#308 = VECTOR ( 'NONE', #591, 1000.000000000000000 ) ;
#309 = DIRECTION ( 'NONE',  ( 1.000000000000000000, 0.000000000000000000, 0.000000000000000000 ) ) ;
#310 = CIRCLE ( 'NONE', #252, 2.000000000000001776 ) ;
#311 = CIRCLE ( 'NONE', #768, 2.000000000000001776 ) ;
#312 = ORIENTED_EDGE ( 'NONE', *, *, #1088, .F. ) ;
#313 = ORIENTED_EDGE ( 'NONE', *, *, #391, .T. ) ;
#314 = EDGE_CURVE ( 'NONE', #871, #742, #1080, .T. ) ;
#315 = VECTOR ( 'NONE', #892, 1000.000000000000000 ) ;
#316 = DIRECTION ( 'NONE',  ( 0.000000000000000000, 0.000000000000000000, -1.000000000000000000 ) ) ;
#317 = VERTEX_POINT ( 'NONE', #905 ) ;
#318 = CARTESIAN_POINT ( 'NONE',  ( -2.000000000000000000, -17.49999999999999645, 40.99999999999999289 ) ) ;
#319 = EDGE_CURVE ( 'NONE', #515, #412, #468, .T. ) ;
#320 = CARTESIAN_POINT ( 'NONE',  ( -9.750000000000000000, 0.000000000000000000, 200.0010000000000048 ) ) ;
#321 = CARTESIAN_POINT ( 'NONE',  ( -2.000000000000000000, -17.49999999999999645, 43.00000000000000000 ) ) ;
#322 = ORIENTED_EDGE ( 'NONE', *, *, #833, .T. ) ;
#323 = ORIENTED_EDGE ( 'NONE', *, *, #578, .F. ) ;
#324 = CARTESIAN_POINT ( 'NONE',  ( -14.50099999999999767, 20.49999999999999645, 39.00000000000000000 ) ) ;
#325 = CARTESIAN_POINT ( 'NONE',  ( -7.347880794884123680E-16, 20.49999999999999645, 80.00000000000000000 ) ) ;
#326 = APPROVAL_PERSON_ORGANIZATION ( #225, #3, #674 ) ;
#327 = CIRCLE ( 'NONE', #183, 1.249999999999999334 ) ;
#328 = ORIENTED_EDGE ( 'NONE', *, *, #686, .T. ) ;
#329 = ORIENTED_EDGE ( 'NONE', *, *, #391, .F. ) ;
#330 = CARTESIAN_POINT ( 'NONE',  ( 0.000000000000000000, 0.000000000000000000, 80.00000000000000000 ) ) ;
#331 = LINE ( 'NONE', #320, #1024 ) ;
#332 = VECTOR ( 'NONE', #105, 1000.000000000000000 ) ;
#333 = DIRECTION ( 'NONE',  ( 1.000000000000000000, 0.000000000000000000, 0.000000000000000000 ) ) ;
#334 = ADVANCED_FACE ( 'NONE', ( #656 ), #1012, .F. ) ;
#335 = DIRECTION ( 'NONE',  ( 1.000000000000000000, -0.000000000000000000, -0.000000000000000000 ) ) ;
#336 = DIRECTION ( 'NONE',  ( 1.000000000000000000, 0.000000000000000000, -0.000000000000000000 ) ) ;
#337 = DIRECTION ( 'NONE',  ( 0.000000000000000000, 0.000000000000000000, 1.000000000000000000 ) ) ;
#338 = DIRECTION ( 'NONE',  ( 0.000000000000000000, 0.000000000000000000, -1.000000000000000000 ) ) ;
#339 = ORIENTED_EDGE ( 'NONE', *, *, #240, .T. ) ;
#340 = ORIENTED_EDGE ( 'NONE', *, *, #151, .F. ) ;
#341 = CARTESIAN_POINT ( 'NONE',  ( 0.000000000000000000, 17.49999999999999645, 59.50000000000000000 ) ) ;
#342 = CARTESIAN_POINT ( 'NONE',  ( -2.000000000000000000, 17.49999999999999645, 59.50000000000000000 ) ) ;
#343 = DIRECTION ( 'NONE',  ( -1.000000000000000000, 0.000000000000000000, 0.000000000000000000 ) ) ;
#344 = VERTEX_POINT ( 'NONE', #739 ) ;
#345 = AXIS2_PLACEMENT_3D ( 'NONE', #408, #778, #420 ) ;
#346 = ORIENTED_EDGE ( 'NONE', *, *, #650, .T. ) ;
#347 = CARTESIAN_POINT ( 'NONE',  ( -14.50099999999999767, 14.50000000000000000, -2.000000000000000000 ) ) ;
#348 = EDGE_CURVE ( 'NONE', #1115, #779, #1016, .T. ) ;
#349 = DIRECTION ( 'NONE',  ( -1.000000000000000000, 8.881784197001252323E-16, 0.000000000000000000 ) ) ;
#350 = DIRECTION ( 'NONE',  ( 0.000000000000000000, 0.000000000000000000, -1.000000000000000000 ) ) ;
#351 = CARTESIAN_POINT ( 'NONE',  ( -14.50099999999999767, -17.49999999999999645, 59.50000000000000000 ) ) ;
#352 = VECTOR ( 'NONE', #249, 1000.000000000000000 ) ;
#353 = VERTEX_POINT ( 'NONE', #479 ) ;
#354 = DIRECTION ( 'NONE',  ( 1.000000000000000000, -0.000000000000000000, -0.000000000000000000 ) ) ;
#355 = DIRECTION ( 'NONE',  ( 0.000000000000000000, 0.000000000000000000, -1.000000000000000000 ) ) ;
#356 = LINE ( 'NONE', #874, #973 ) ;
#357 = CARTESIAN_POINT ( 'NONE',  ( 3.142333204958820020E-14, 3.499999999999999556, 0.000000000000000000 ) ) ;
#358 = CC_DESIGN_PERSON_AND_ORGANIZATION_ASSIGNMENT ( #1029, #123, ( #38 ) ) ;
#359 = ORIENTED_EDGE ( 'NONE', *, *, #280, .T. ) ;
#360 = DIRECTION ( 'NONE',  ( 0.000000000000000000, 0.000000000000000000, 1.000000000000000000 ) ) ;
#361 = CARTESIAN_POINT ( 'NONE',  ( -2.000000000000000888, -20.49999999999999645, 39.00000000000000000 ) ) ;
#362 = FACE_OUTER_BOUND ( 'NONE', #106, .T. ) ;
#363 = DIRECTION ( 'NONE',  ( 1.000000000000000000, 0.000000000000000000, -0.000000000000000000 ) ) ;
#364 = EDGE_CURVE ( 'NONE', #710, #480, #1117, .T. ) ;
#365 = ADVANCED_FACE ( 'NONE', ( #734, #195, #388, #378 ), #283, .T. ) ;
#366 = DIRECTION ( 'NONE',  ( -1.745740669421566678E-15, -1.000000000000000000, -0.000000000000000000 ) ) ;
#367 = CIRCLE ( 'NONE', #345, 1.249999999999999334 ) ;
#368 = APPROVAL_PERSON_ORGANIZATION ( #672, #71, #130 ) ;
#369 = AXIS2_PLACEMENT_3D ( 'NONE', #1096, #547, #5 ) ;
#370 = CARTESIAN_POINT ( 'NONE',  ( 0.000000000000000000, -14.49999999999999822, 80.00000000000000000 ) ) ;
#371 =( LENGTH_UNIT ( ) NAMED_UNIT ( * ) SI_UNIT ( .MILLI., .METRE. ) );
#372 = LINE ( 'NONE', #1007, #1161 ) ;
#373 = VECTOR ( 'NONE', #37, 1000.000000000000000 ) ;
#374 = AXIS2_PLACEMENT_3D ( 'NONE', #1158, #153, #706 ) ;
#375 = ADVANCED_FACE ( 'NONE', ( #293 ), #830, .F. ) ;
#376 = DIRECTION ( 'NONE',  ( 0.000000000000000000, 0.000000000000000000, -1.000000000000000000 ) ) ;
#377 = DIRECTION ( 'NONE',  ( -1.000000000000000000, 0.000000000000000000, 0.000000000000000000 ) ) ;
#378 = FACE_OUTER_BOUND ( 'NONE', #201, .T. ) ;
#379 = VERTEX_POINT ( 'NONE', #925 ) ;
#380 = DIRECTION ( 'NONE',  ( 0.000000000000000000, 0.000000000000000000, -1.000000000000000000 ) ) ;
#381 = EDGE_LOOP ( 'NONE', ( #527, #109 ) ) ;
#382 = DIRECTION ( 'NONE',  ( 0.000000000000000000, 0.000000000000000000, -1.000000000000000000 ) ) ;
#383 = DIRECTION ( 'NONE',  ( -1.000000000000000000, 0.000000000000000000, 0.000000000000000000 ) ) ;
#384 = ORIENTED_EDGE ( 'NONE', *, *, #300, .F. ) ;
#385 = DIRECTION ( 'NONE',  ( 0.000000000000000000, 0.000000000000000000, -1.000000000000000000 ) ) ;
#386 = ORIENTED_EDGE ( 'NONE', *, *, #635, .T. ) ;
#387 = LOCAL_TIME ( 13, 9, 24.00000000000000000, #220 ) ;
#388 = FACE_BOUND ( 'NONE', #288, .T. ) ;
#389 = SHAPE_DEFINITION_REPRESENTATION ( #136, #606 ) ;
#390 = VECTOR ( 'NONE', #459, 1000.000000000000000 ) ;
#391 = EDGE_CURVE ( 'NONE', #379, #598, #836, .T. ) ;
#392 = EDGE_LOOP ( 'NONE', ( #960, #599, #127, #296 ) ) ;
#393 = DIRECTION ( 'NONE',  ( 1.000000000000000000, 0.000000000000000000, 0.000000000000000000 ) ) ;
#394 = ORIENTED_EDGE ( 'NONE', *, *, #1133, .F. ) ;
#395 = COORDINATED_UNIVERSAL_TIME_OFFSET ( 5, 30, .AHEAD. ) ;
#396 = DIRECTION ( 'NONE',  ( -0.000000000000000000, -0.000000000000000000, -1.000000000000000000 ) ) ;
#397 = EDGE_CURVE ( 'NONE', #1028, #317, #327, .T. ) ;
#398 = ORIENTED_EDGE ( 'NONE', *, *, #107, .F. ) ;
#399 = ORIENTED_EDGE ( 'NONE', *, *, #575, .F. ) ;
#400 = PERSON_AND_ORGANIZATION_ROLE ( 'creator' ) ;
#401 = DIRECTION ( 'NONE',  ( 1.000000000000000000, 0.000000000000000000, 0.000000000000000000 ) ) ;
#402 = ORIENTED_EDGE ( 'NONE', *, *, #499, .F. ) ;
#403 = EDGE_CURVE ( 'NONE', #224, #1049, #192, .T. ) ;
#404 = EDGE_LOOP ( 'NONE', ( #53, #528 ) ) ;
#405 = ORIENTED_EDGE ( 'NONE', *, *, #776, .T. ) ;
#406 = DATE_AND_TIME ( #299, #156 ) ;
#407 = AXIS2_PLACEMENT_3D ( 'NONE', #117, #588, #1153 ) ;
#408 = CARTESIAN_POINT ( 'NONE',  ( -8.500000000000000000, 0.000000000000000000, 0.000000000000000000 ) ) ;
#409 = VECTOR ( 'NONE', #542, 1000.000000000000000 ) ;
#410 = VECTOR ( 'NONE', #1097, 1000.000000000000000 ) ;
#411 = EDGE_CURVE ( 'NONE', #211, #66, #473, .T. ) ;
#412 = VERTEX_POINT ( 'NONE', #566 ) ;
#413 = ORIENTED_EDGE ( 'NONE', *, *, #819, .T. ) ;
#414 = AXIS2_PLACEMENT_3D ( 'NONE', #873, #336, #141 ) ;
#415 = FACE_OUTER_BOUND ( 'NONE', #128, .T. ) ;
#416 = ORIENTED_EDGE ( 'NONE', *, *, #1174, .T. ) ;
#417 = ORIENTED_EDGE ( 'NONE', *, *, #755, .F. ) ;
#418 = ADVANCED_FACE ( 'NONE', ( #930 ), #1124, .T. ) ;
#419 = CARTESIAN_POINT ( 'NONE',  ( 0.000000000000000000, 0.000000000000000000, 80.00000000000000000 ) ) ;
#420 = DIRECTION ( 'NONE',  ( -1.000000000000000000, 0.000000000000000000, 0.000000000000000000 ) ) ;
#421 = AXIS2_PLACEMENT_3D ( 'NONE', #330, #1058, #236 ) ;
#422 = VECTOR ( 'NONE', #289, 1000.000000000000000 ) ;
#423 = ORIENTED_EDGE ( 'NONE', *, *, #786, .T. ) ;
#424 = ORIENTED_EDGE ( 'NONE', *, *, #1110, .T. ) ;
#425 = ORIENTED_EDGE ( 'NONE', *, *, #1043, .F. ) ;
#426 = DIRECTION ( 'NONE',  ( -1.000000000000000000, 0.000000000000000000, 0.000000000000000000 ) ) ;
#427 = CARTESIAN_POINT ( 'NONE',  ( 0.000000000000000000, 14.50000000000000000, -2.000000000000000000 ) ) ;
#428 = EDGE_CURVE ( 'NONE', #491, #1065, #372, .T. ) ;
#429 = CIRCLE ( 'NONE', #821, 14.49999999999999822 ) ;
#430 = VECTOR ( 'NONE', #439, 1000.000000000000000 ) ;
#431 = FACE_OUTER_BOUND ( 'NONE', #890, .T. ) ;
#432 = DIRECTION ( 'NONE',  ( -0.000000000000000000, 0.000000000000000000, -1.000000000000000000 ) ) ;
#433 = AXIS2_PLACEMENT_3D ( 'NONE', #1067, #1077, #701 ) ;
#434 = FACE_BOUND ( 'NONE', #34, .T. ) ;
#435 = EDGE_CURVE ( 'NONE', #437, #570, #977, .T. ) ;
#436 = ORIENTED_EDGE ( 'NONE', *, *, #285, .T. ) ;
#437 = VERTEX_POINT ( 'NONE', #89 ) ;
#438 = CARTESIAN_POINT ( 'NONE',  ( 0.000000000000000000, 17.49999999999999645, 79.00000000000000000 ) ) ;
#439 = DIRECTION ( 'NONE',  ( -0.000000000000000000, -0.000000000000000000, -1.000000000000000000 ) ) ;
#440 = LINE ( 'NONE', #992, #735 ) ;
#441 = EDGE_CURVE ( 'NONE', #760, #59, #161, .T. ) ;
#442 = ORIENTED_EDGE ( 'NONE', *, *, #699, .T. ) ;
#443 = LINE ( 'NONE', #712, #274 ) ;
#444 = DIRECTION ( 'NONE',  ( 0.000000000000000000, -1.269309860470834477E-16, 1.000000000000000000 ) ) ;
#445 = PLANE ( 'NONE',  #727 ) ;
#446 = FACE_BOUND ( 'NONE', #272, .T. ) ;
#447 = LOCAL_TIME ( 13, 9, 24.00000000000000000, #395 ) ;
#448 = VERTEX_POINT ( 'NONE', #525 ) ;
#449 = DIRECTION ( 'NONE',  ( 0.000000000000000000, 0.000000000000000000, -1.000000000000000000 ) ) ;
#450 = ADVANCED_FACE ( 'NONE', ( #715 ), #1099, .F. ) ;
#451 = FACE_OUTER_BOUND ( 'NONE', #216, .T. ) ;
#452 = LINE ( 'NONE', #625, #519 ) ;
#453 = DIRECTION ( 'NONE',  ( -0.000000000000000000, -0.000000000000000000, -1.000000000000000000 ) ) ;
#454 = VERTEX_POINT ( 'NONE', #257 ) ;
#455 = DIRECTION ( 'NONE',  ( -1.000000000000000000, 0.000000000000000000, 0.000000000000000000 ) ) ;
#456 = DIRECTION ( 'NONE',  ( 0.000000000000000000, -1.269309860470834477E-16, 1.000000000000000000 ) ) ;
#457 = CARTESIAN_POINT ( 'NONE',  ( 0.000000000000000000, 0.000000000000000000, 200.0010000000000048 ) ) ;
#458 = CARTESIAN_POINT ( 'NONE',  ( 0.000000000000000000, -20.49999999999999645, 39.00000000000000000 ) ) ;
#459 = DIRECTION ( 'NONE',  ( 1.000000000000000000, 0.000000000000000000, -0.000000000000000000 ) ) ;
#460 = CARTESIAN_POINT ( 'NONE',  ( -2.000000000000000000, 17.49999999999999645, 75.00000000000000000 ) ) ;
#461 = DIRECTION ( 'NONE',  ( 1.000000000000000000, 0.000000000000000000, 0.000000000000000000 ) ) ;
#462 = DIRECTION ( 'NONE',  ( 0.000000000000000000, 0.000000000000000000, -1.000000000000000000 ) ) ;
#463 = UNCERTAINTY_MEASURE_WITH_UNIT (LENGTH_MEASURE( 1.000000000000000082E-05 ), #371, 'distance_accuracy_value', 'NONE');
#464 = CARTESIAN_POINT ( 'NONE',  ( 0.000000000000000000, -17.49999999999999645, 77.00000000000000000 ) ) ;
#465 = VECTOR ( 'NONE', #645, 1000.000000000000000 ) ;
#466 = VECTOR ( 'NONE', #376, 1000.000000000000000 ) ;
#467 = CARTESIAN_POINT ( 'NONE',  ( 0.000000000000000000, -17.49999999999999645, 61.50000000000000000 ) ) ;
#468 = LINE ( 'NONE', #298, #709 ) ;
#469 = VECTOR ( 'NONE', #724, 1000.000000000000000 ) ;
#470 = AXIS2_PLACEMENT_3D ( 'NONE', #230, #507, #426 ) ;
#471 = DIRECTION ( 'NONE',  ( 1.000000000000000000, -0.000000000000000000, -0.000000000000000000 ) ) ;
#472 = ORIENTED_EDGE ( 'NONE', *, *, #737, .F. ) ;
#473 = LINE ( 'NONE', #649, #696 ) ;
#474 = EDGE_LOOP ( 'NONE', ( #932, #589, #260, #339 ) ) ;
#475 = CARTESIAN_POINT ( 'NONE',  ( -2.000000000000000888, -14.50000000000000178, -2.000000000000000000 ) ) ;
#476 = EDGE_CURVE ( 'NONE', #505, #491, #1082, .T. ) ;
#477 = ORIENTED_EDGE ( 'NONE', *, *, #483, .F. ) ;
#478 = CARTESIAN_POINT ( 'NONE',  ( 0.000000000000000000, 17.49999999999999645, 59.50000000000000000 ) ) ;
#479 = CARTESIAN_POINT ( 'NONE',  ( -2.000000000000000000, -17.49999999999999645, 61.50000000000000000 ) ) ;
#480 = VERTEX_POINT ( 'NONE', #357 ) ;
#481 = DIRECTION ( 'NONE',  ( 0.000000000000000000, 0.000000000000000000, -1.000000000000000000 ) ) ;
#482 = VERTEX_POINT ( 'NONE', #703 ) ;
#483 = EDGE_CURVE ( 'NONE', #184, #448, #985, .T. ) ;
#484 = PERSON_AND_ORGANIZATION_ROLE ( 'classification_officer' ) ;
#485 = VECTOR ( 'NONE', #908, 1000.000000000000000 ) ;
#486 = AXIS2_PLACEMENT_3D ( 'NONE', #302, #1014, #194 ) ;
#487 = CARTESIAN_POINT ( 'NONE',  ( -14.49999999999999822, 0.000000000000000000, 200.0000000000000000 ) ) ;
#488 = ORIENTED_EDGE ( 'NONE', *, *, #348, .T. ) ;
#489 = CARTESIAN_POINT ( 'NONE',  ( -7.347880794884123680E-16, -20.49999999999999645, 39.00000000000000000 ) ) ;
#490 = CIRCLE ( 'NONE', #884, 2.000000000000001776 ) ;
#491 = VERTEX_POINT ( 'NONE', #626 ) ;
#492 = PERSON_AND_ORGANIZATION ( #893, #840 ) ;
#493 = DIRECTION ( 'NONE',  ( 0.000000000000000000, 0.000000000000000000, -1.000000000000000000 ) ) ;
#494 = EDGE_CURVE ( 'NONE', #104, #876, #440, .T. ) ;
#495 = ORIENTED_EDGE ( 'NONE', *, *, #271, .F. ) ;
#496 = VERTEX_POINT ( 'NONE', #174 ) ;
#497 = VERTEX_POINT ( 'NONE', #1190 ) ;
#498 = DIRECTION ( 'NONE',  ( 0.000000000000000000, 1.000000000000000000, 0.000000000000000000 ) ) ;
#499 = EDGE_CURVE ( 'NONE', #651, #176, #169, .T. ) ;
#500 = ORIENTED_EDGE ( 'NONE', *, *, #1191, .F. ) ;
#501 = EDGE_LOOP ( 'NONE', ( #1136, #340 ) ) ;
#502 = CIRCLE ( 'NONE', #1175, 2.000000000000001776 ) ;
#503 = DIRECTION ( 'NONE',  ( 1.000000000000000000, -0.000000000000000000, -0.000000000000000000 ) ) ;
#504 = AXIS2_PLACEMENT_3D ( 'NONE', #8, #98, #745 ) ;
#505 = VERTEX_POINT ( 'NONE', #77 ) ;
#506 = ORIENTED_EDGE ( 'NONE', *, *, #705, .T. ) ;
#507 = DIRECTION ( 'NONE',  ( -0.000000000000000000, -0.000000000000000000, -1.000000000000000000 ) ) ;
#508 = DIRECTION ( 'NONE',  ( -1.000000000000000000, 0.000000000000000000, -0.000000000000000000 ) ) ;
#509 = ORIENTED_EDGE ( 'NONE', *, *, #151, .T. ) ;
#510 = ORIENTED_EDGE ( 'NONE', *, *, #792, .F. ) ;
#511 = ADVANCED_FACE ( 'NONE', ( #720, #446, #537, #901 ), #1087, .F. ) ;
#512 = DIRECTION ( 'NONE',  ( 0.000000000000000000, 0.000000000000000000, -1.000000000000000000 ) ) ;
#513 = DIRECTION ( 'NONE',  ( 0.000000000000000000, 0.000000000000000000, -1.000000000000000000 ) ) ;
#514 = ORIENTED_EDGE ( 'NONE', *, *, #827, .F. ) ;
#515 = VERTEX_POINT ( 'NONE', #270 ) ;
#516 = ADVANCED_FACE ( 'NONE', ( #888, #802, #640, #70 ), #1178, .F. ) ;
#517 = DIRECTION ( 'NONE',  ( -0.000000000000000000, -0.000000000000000000, -1.000000000000000000 ) ) ;
#518 = DIRECTION ( 'NONE',  ( 0.000000000000000000, 0.000000000000000000, -1.000000000000000000 ) ) ;
#519 = VECTOR ( 'NONE', #808, 1000.000000000000000 ) ;
#520 = APPROVAL_PERSON_ORGANIZATION ( #843, #743, #952 ) ;
#521 = AXIS2_PLACEMENT_3D ( 'NONE', #142, #316, #582 ) ;
#522 = VERTEX_POINT ( 'NONE', #545 ) ;
#523 = DIRECTION ( 'NONE',  ( 0.000000000000000000, 0.000000000000000000, -1.000000000000000000 ) ) ;
#524 = DIRECTION ( 'NONE',  ( 1.000000000000000000, 0.000000000000000000, 0.000000000000000000 ) ) ;
#525 = CARTESIAN_POINT ( 'NONE',  ( -12.50000000000000000, 0.000000000000000000, 0.000000000000000000 ) ) ;
#526 = ADVANCED_FACE ( 'NONE', ( #912 ), #93, .F. ) ;
#527 = ORIENTED_EDGE ( 'NONE', *, *, #700, .T. ) ;
#528 = ORIENTED_EDGE ( 'NONE', *, *, #397, .F. ) ;
#529 = CARTESIAN_POINT ( 'NONE',  ( -2.000000000000000888, 20.49999999999999645, 80.00000000000000000 ) ) ;
#530 = CARTESIAN_POINT ( 'NONE',  ( 0.000000000000000000, -3.500000000000000000, 200.0010000000000048 ) ) ;
#531 = CARTESIAN_POINT ( 'NONE',  ( 0.000000000000000000, 17.49999999999999645, 43.00000000000000000 ) ) ;
#532 = DIRECTION ( 'NONE',  ( 0.000000000000000000, 0.000000000000000000, -1.000000000000000000 ) ) ;
#533 = ORIENTED_EDGE ( 'NONE', *, *, #578, .T. ) ;
#534 = LINE ( 'NONE', #347, #999 ) ;
#535 = DIRECTION ( 'NONE',  ( 0.000000000000000000, 0.000000000000000000, -1.000000000000000000 ) ) ;
#536 = DIRECTION ( 'NONE',  ( 1.000000000000000000, -0.000000000000000000, -0.000000000000000000 ) ) ;
#537 = FACE_BOUND ( 'NONE', #501, .T. ) ;
#538 = AXIS2_PLACEMENT_3D ( 'NONE', #286, #1006, #1015 ) ;
#539 = ADVANCED_FACE ( 'NONE', ( #1072 ), #611, .F. ) ;
#540 = VECTOR ( 'NONE', #646, 1000.000000000000000 ) ;
#541 = ORIENTED_EDGE ( 'NONE', *, *, #1133, .T. ) ;
#542 = DIRECTION ( 'NONE',  ( 0.000000000000000000, -1.000000000000000000, 0.000000000000000000 ) ) ;
#543 = CARTESIAN_POINT ( 'NONE',  ( -2.000000000000000888, 20.49999999999999645, 80.00000000000000000 ) ) ;
#544 = CYLINDRICAL_SURFACE ( 'NONE', #1119, 3.500000000000000000 ) ;
#545 = CARTESIAN_POINT ( 'NONE',  ( -2.000000000000000888, -20.49999999999999645, 80.00000000000000000 ) ) ;
#546 = AXIS2_PLACEMENT_3D ( 'NONE', #624, #911, #535 ) ;
#547 = DIRECTION ( 'NONE',  ( 0.000000000000000000, 1.000000000000000000, -1.269309860470834477E-16 ) ) ;
#548 = EDGE_CURVE ( 'NONE', #104, #1167, #708, .T. ) ;
#549 = CARTESIAN_POINT ( 'NONE',  ( -7.347880794884123680E-16, -20.49999999999999645, 80.00000000000000000 ) ) ;
#550 = DIRECTION ( 'NONE',  ( 0.000000000000000000, 0.000000000000000000, -1.000000000000000000 ) ) ;
#551 = DIRECTION ( 'NONE',  ( 1.000000000000000000, 0.000000000000000000, 0.000000000000000000 ) ) ;
#552 = CARTESIAN_POINT ( 'NONE',  ( -14.50099999999999767, -14.50000000000000000, -2.000000000000000000 ) ) ;
#553 = CYLINDRICAL_SURFACE ( 'NONE', #690, 1.249999999999999334 ) ;
#554 = CARTESIAN_POINT ( 'NONE',  ( 0.000000000000000000, -14.49999999999999822, 0.000000000000000000 ) ) ;
#555 = ADVANCED_FACE ( 'NONE', ( #795 ), #965, .T. ) ;
#556 = MANIFOLD_SOLID_BREP ( 'Cut-Extrude8', #1091 ) ;
#557 = LINE ( 'NONE', #23, #422 ) ;
#558 = CIRCLE ( 'NONE', #583, 2.000000000000001776 ) ;
#559 = VECTOR ( 'NONE', #366, 1000.000000000000000 ) ;
#560 = CARTESIAN_POINT ( 'NONE',  ( -2.000000000000000888, -20.49999999999999645, 80.00000000000000000 ) ) ;
#561 = EDGE_CURVE ( 'NONE', #1156, #234, #490, .T. ) ;
#562 = ORIENTED_EDGE ( 'NONE', *, *, #364, .F. ) ;
#563 = CIRCLE ( 'NONE', #678, 12.50000000000000000 ) ;
#564 = DIRECTION ( 'NONE',  ( 0.000000000000000000, 0.000000000000000000, -1.000000000000000000 ) ) ;
#565 = ORIENTED_EDGE ( 'NONE', *, *, #761, .F. ) ;
#566 = CARTESIAN_POINT ( 'NONE',  ( -2.000000000000000888, 20.49999999999999645, 80.00000000000000000 ) ) ;
#567 = ORIENTED_EDGE ( 'NONE', *, *, #889, .F. ) ;
#568 = ADVANCED_FACE ( 'NONE', ( #146 ), #970, .T. ) ;
#569 = CARTESIAN_POINT ( 'NONE',  ( 0.000000000000000000, 17.49999999999999645, 45.00000000000000000 ) ) ;
#570 = VERTEX_POINT ( 'NONE', #1168 ) ;
#571 = APPLICATION_PROTOCOL_DEFINITION ( 'international standard', 'config_control_design', 1994, #1036 ) ;
#572 = DIRECTION ( 'NONE',  ( 0.000000000000000000, -1.000000000000000000, -0.000000000000000000 ) ) ;
#573 = ORIENTED_EDGE ( 'NONE', *, *, #906, .T. ) ;
#574 = CARTESIAN_POINT ( 'NONE',  ( 0.000000000000000000, -17.49999999999999645, 40.99999999999999289 ) ) ;
#575 = EDGE_CURVE ( 'NONE', #176, #448, #563, .T. ) ;
#576 = CIRCLE ( 'NONE', #278, 2.000000000000001776 ) ;
#577 = ORIENTED_EDGE ( 'NONE', *, *, #1160, .T. ) ;
#578 = EDGE_CURVE ( 'NONE', #24, #317, #331, .T. ) ;
#579 = APPROVAL_STATUS ( 'not_yet_approved' ) ;
#580 = CIRCLE ( 'NONE', #820, 3.500000000000000000 ) ;
#581 = CIRCLE ( 'NONE', #634, 2.000000000000001776 ) ;
#582 = DIRECTION ( 'NONE',  ( -1.000000000000000000, 0.000000000000000000, 0.000000000000000000 ) ) ;
#583 = AXIS2_PLACEMENT_3D ( 'NONE', #214, #222, #1145 ) ;
#584 = VERTEX_POINT ( 'NONE', #697 ) ;
#585 = ORIENTED_EDGE ( 'NONE', *, *, #227, .T. ) ;
#586 = DATE_TIME_ROLE ( 'creation_date' ) ;
#587 = CC_DESIGN_PERSON_AND_ORGANIZATION_ASSIGNMENT ( #25, #484, ( #673 ) ) ;
#588 = DIRECTION ( 'NONE',  ( 1.000000000000000000, 0.000000000000000000, 0.000000000000000000 ) ) ;
#589 = ORIENTED_EDGE ( 'NONE', *, *, #483, .T. ) ;
#590 = LINE ( 'NONE', #956, #51 ) ;
#591 = DIRECTION ( 'NONE',  ( 0.000000000000000000, 1.000000000000000000, 0.000000000000000000 ) ) ;
#592 = VERTEX_POINT ( 'NONE', #68 ) ;
#593 = VERTEX_POINT ( 'NONE', #438 ) ;
#594 = CARTESIAN_POINT ( 'NONE',  ( -2.000000000000000000, -17.49999999999999645, 57.49999999999999289 ) ) ;
#595 = AXIS2_PLACEMENT_3D ( 'NONE', #738, #1111, #1194 ) ;
#596 = LINE ( 'NONE', #487, #62 ) ;
#597 = EDGE_CURVE ( 'NONE', #242, #1065, #641, .T. ) ;
#598 = VERTEX_POINT ( 'NONE', #879 ) ;
#599 = ORIENTED_EDGE ( 'NONE', *, *, #913, .F. ) ;
#600 = DIRECTION ( 'NONE',  ( 1.000000000000000000, -0.000000000000000000, -0.000000000000000000 ) ) ;
#601 = DIRECTION ( 'NONE',  ( 0.000000000000000000, 0.000000000000000000, -1.000000000000000000 ) ) ;
#602 = ORIENTED_EDGE ( 'NONE', *, *, #319, .T. ) ;
#603 = ORIENTED_EDGE ( 'NONE', *, *, #138, .T. ) ;
#604 = DIRECTION ( 'NONE',  ( -1.000000000000000000, 0.000000000000000000, 0.000000000000000000 ) ) ;
#605 = CARTESIAN_POINT ( 'NONE',  ( 0.000000000000000000, 0.000000000000000000, 200.0000000000000000 ) ) ;
#606 = ADVANCED_BREP_SHAPE_REPRESENTATION ( 'LinkGripperToArm_cover_top_sldprt', ( #556, #728 ), #58 ) ;
#607 = EDGE_LOOP ( 'NONE', ( #671, #436, #1148, #1139 ) ) ;
#608 = ADVANCED_FACE ( 'NONE', ( #790 ), #1060, .F. ) ;
#609 = DIRECTION ( 'NONE',  ( 1.000000000000000000, -0.000000000000000000, -0.000000000000000000 ) ) ;
#610 = CYLINDRICAL_SURFACE ( 'NONE', #883, 14.49999999999999822 ) ;
#611 = CYLINDRICAL_SURFACE ( 'NONE', #769, 12.50000000000000000 ) ;
#612 = CIRCLE ( 'NONE', #97, 2.000000000000001776 ) ;
#613 = AXIS2_PLACEMENT_3D ( 'NONE', #325, #863, #493 ) ;
#614 = ORIENTED_EDGE ( 'NONE', *, *, #186, .F. ) ;
#615 = CARTESIAN_POINT ( 'NONE',  ( -2.000000000000000000, 17.49999999999999645, 77.00000000000000000 ) ) ;
#616 = DIRECTION ( 'NONE',  ( 0.000000000000000000, 0.000000000000000000, -1.000000000000000000 ) ) ;
#617 = VECTOR ( 'NONE', #453, 1000.000000000000000 ) ;
#618 = DIRECTION ( 'NONE',  ( -0.000000000000000000, -0.000000000000000000, -1.000000000000000000 ) ) ;
#619 = CARTESIAN_POINT ( 'NONE',  ( -2.000000000000000000, 17.49999999999999645, 59.50000000000000000 ) ) ;
#620 = EDGE_CURVE ( 'NONE', #9, #1120, #258, .T. ) ;
#621 = EDGE_LOOP ( 'NONE', ( #329, #1150, #1035, #695 ) ) ;
#622 = ORIENTED_EDGE ( 'NONE', *, *, #271, .T. ) ;
#623 = DIRECTION ( 'NONE',  ( 0.000000000000000000, 0.000000000000000000, -1.000000000000000000 ) ) ;
#624 = CARTESIAN_POINT ( 'NONE',  ( 0.000000000000000000, 17.49999999999999645, 77.00000000000000000 ) ) ;
#625 = CARTESIAN_POINT ( 'NONE',  ( -14.50099999999999767, 17.49999999999999645, 57.49999999999999289 ) ) ;
#626 = CARTESIAN_POINT ( 'NONE',  ( -2.000000000000000000, 17.49999999999999645, 61.50000000000000000 ) ) ;
#627 = EDGE_CURVE ( 'NONE', #592, #211, #782, .T. ) ;
#628 = ORIENTED_EDGE ( 'NONE', *, *, #28, .T. ) ;
#629 = DIRECTION ( 'NONE',  ( 0.000000000000000000, 0.000000000000000000, 1.000000000000000000 ) ) ;
#630 = CARTESIAN_POINT ( 'NONE',  ( 0.000000000000000000, -14.50000000000000533, 39.00000000000000000 ) ) ;
#631 = CARTESIAN_POINT ( 'NONE',  ( -14.50099999999999767, 17.49999999999999645, 77.00000000000000000 ) ) ;
#632 = CARTESIAN_POINT ( 'NONE',  ( -2.000000000000000888, 20.49999999999999645, 80.00000000000000000 ) ) ;
#633 = CC_DESIGN_SECURITY_CLASSIFICATION ( #673, ( #1041 ) ) ;
#634 = AXIS2_PLACEMENT_3D ( 'NONE', #660, #848, #652 ) ;
#635 = EDGE_CURVE ( 'NONE', #742, #584, #1070, .T. ) ;
#636 = ORIENTED_EDGE ( 'NONE', *, *, #1141, .F. ) ;
#637 = LINE ( 'NONE', #989, #409 ) ;
#638 = DIRECTION ( 'NONE',  ( 1.000000000000000000, 0.000000000000000000, 0.000000000000000000 ) ) ;
#639 = DIRECTION ( 'NONE',  ( 0.000000000000000000, 0.000000000000000000, -1.000000000000000000 ) ) ;
#640 = FACE_BOUND ( 'NONE', #1129, .T. ) ;
#641 = CIRCLE ( 'NONE', #45, 2.000000000000001776 ) ;
#642 = CYLINDRICAL_SURFACE ( 'NONE', #196, 2.000000000000001776 ) ;
#643 = ADVANCED_FACE ( 'NONE', ( #247 ), #158, .F. ) ;
#644 = DIRECTION ( 'NONE',  ( 0.000000000000000000, -1.000000000000000000, 0.000000000000000000 ) ) ;
#645 = DIRECTION ( 'NONE',  ( 1.000000000000000000, 0.000000000000000000, -0.000000000000000000 ) ) ;
#646 = DIRECTION ( 'NONE',  ( -1.745740669421566678E-15, -1.000000000000000000, -0.000000000000000000 ) ) ;
#647 = CARTESIAN_POINT ( 'NONE',  ( -2.000000000000000000, -17.49999999999999645, 59.50000000000000000 ) ) ;
#648 = FACE_OUTER_BOUND ( 'NONE', #949, .T. ) ;
#649 = CARTESIAN_POINT ( 'NONE',  ( 0.000000000000000000, -14.49999999999999822, -2.000000000000000000 ) ) ;
#650 = EDGE_CURVE ( 'NONE', #66, #760, #243, .T. ) ;
#651 = VERTEX_POINT ( 'NONE', #254 ) ;
#652 = DIRECTION ( 'NONE',  ( 0.000000000000000000, 0.000000000000000000, -1.000000000000000000 ) ) ;
#653 = CIRCLE ( 'NONE', #818, 2.000000000000001776 ) ;
#654 = ORIENTED_EDGE ( 'NONE', *, *, #548, .T. ) ;
#655 =( NAMED_UNIT ( * ) PLANE_ANGLE_UNIT ( ) SI_UNIT ( $, .RADIAN. ) );
#656 = FACE_OUTER_BOUND ( 'NONE', #392, .T. ) ;
#657 = EDGE_CURVE ( 'NONE', #651, #184, #1179, .T. ) ;
#658 = ORIENTED_EDGE ( 'NONE', *, *, #86, .T. ) ;
#659 = VECTOR ( 'NONE', #600, 1000.000000000000000 ) ;
#660 = CARTESIAN_POINT ( 'NONE',  ( 0.000000000000000000, 17.49999999999999645, 43.00000000000000000 ) ) ;
#661 = ORIENTED_EDGE ( 'NONE', *, *, #755, .T. ) ;
#662 = PERSON_AND_ORGANIZATION ( #893, #840 ) ;
#663 = CARTESIAN_POINT ( 'NONE',  ( -7.347880794884123680E-16, -20.49999999999999645, 80.00000000000000000 ) ) ;
#664 = ORIENTED_EDGE ( 'NONE', *, *, #852, .F. ) ;
#665 = DIRECTION ( 'NONE',  ( 0.000000000000000000, 0.000000000000000000, -1.000000000000000000 ) ) ;
#666 = ORIENTED_EDGE ( 'NONE', *, *, #1126, .F. ) ;
#667 = PERSON_AND_ORGANIZATION_ROLE ( 'design_supplier' ) ;
#668 = CARTESIAN_POINT ( 'NONE',  ( -2.000000000000000000, -17.49999999999999645, 79.00000000000000000 ) ) ;
#669 = ORIENTED_EDGE ( 'NONE', *, *, #657, .F. ) ;
#670 = CIRCLE ( 'NONE', #731, 2.000000000000001776 ) ;
#671 = ORIENTED_EDGE ( 'NONE', *, *, #314, .F. ) ;
#672 = PERSON_AND_ORGANIZATION ( #893, #840 ) ;
#673 = SECURITY_CLASSIFICATION ( '', '', #936 ) ;
#674 = APPROVAL_ROLE ( '' ) ;
#675 = CIRCLE ( 'NONE', #942, 12.50000000000000000 ) ;
#676 = LINE ( 'NONE', #135, #308 ) ;
#677 = CIRCLE ( 'NONE', #919, 2.000000000000001776 ) ;
#678 = AXIS2_PLACEMENT_3D ( 'NONE', #689, #512, #61 ) ;
#679 = ORIENTED_EDGE ( 'NONE', *, *, #597, .T. ) ;
#680 = ORIENTED_EDGE ( 'NONE', *, *, #827, .T. ) ;
#681 = FACE_OUTER_BOUND ( 'NONE', #17, .T. ) ;
#682 = ORIENTED_EDGE ( 'NONE', *, *, #844, .F. ) ;
#683 = EDGE_LOOP ( 'NONE', ( #29, #810, #472, #562, #780, #399 ) ) ;
#684 = DIRECTION ( 'NONE',  ( 0.000000000000000000, -0.000000000000000000, 1.000000000000000000 ) ) ;
#685 = LINE ( 'NONE', #33, #373 ) ;
#686 = EDGE_CURVE ( 'NONE', #693, #496, #1152, .T. ) ;
#687 = EDGE_LOOP ( 'NONE', ( #858, #1039, #386, #229 ) ) ;
#688 = CYLINDRICAL_SURFACE ( 'NONE', #421, 12.50000000000000000 ) ;
#689 = CARTESIAN_POINT ( 'NONE',  ( 0.000000000000000000, 0.000000000000000000, 0.000000000000000000 ) ) ;
#690 = AXIS2_PLACEMENT_3D ( 'NONE', #110, #929, #13 ) ;
#691 = DIRECTION ( 'NONE',  ( 1.000000000000000000, -0.000000000000000000, -0.000000000000000000 ) ) ;
#692 = ADVANCED_FACE ( 'NONE', ( #75 ), #777, .F. ) ;
#693 = VERTEX_POINT ( 'NONE', #594 ) ;
#694 = ORIENTED_EDGE ( 'NONE', *, *, #1009, .F. ) ;
#695 = ORIENTED_EDGE ( 'NONE', *, *, #762, .T. ) ;
#696 = VECTOR ( 'NONE', #14, 1000.000000000000000 ) ;
#697 = CARTESIAN_POINT ( 'NONE',  ( 0.000000000000000000, -17.49999999999999645, 75.00000000000000000 ) ) ;
#698 = DIRECTION ( 'NONE',  ( 0.000000000000000000, 0.000000000000000000, -1.000000000000000000 ) ) ;
#699 = EDGE_CURVE ( 'NONE', #860, #515, #961, .T. ) ;
#700 = EDGE_CURVE ( 'NONE', #1171, #593, #1062, .T. ) ;
#701 = DIRECTION ( 'NONE',  ( 0.000000000000000000, 0.000000000000000000, 1.000000000000000000 ) ) ;
#702 = LINE ( 'NONE', #1169, #1040 ) ;
#703 = CARTESIAN_POINT ( 'NONE',  ( -2.000000000000001332, -14.36140661634506976, 80.00000000000001421 ) ) ;
#704 = ORIENTED_EDGE ( 'NONE', *, *, #364, .T. ) ;
#705 = EDGE_CURVE ( 'NONE', #1049, #570, #816, .T. ) ;
#706 = DIRECTION ( 'NONE',  ( -1.000000000000000000, 0.000000000000000000, 0.000000000000000000 ) ) ;
#707 = FACE_OUTER_BOUND ( 'NONE', #771, .T. ) ;
#708 = LINE ( 'NONE', #1079, #221 ) ;
#709 = VECTOR ( 'NONE', #1108, 1000.000000000000000 ) ;
#710 = VERTEX_POINT ( 'NONE', #907 ) ;
#711 = EDGE_LOOP ( 'NONE', ( #1073, #22 ) ) ;
#712 = CARTESIAN_POINT ( 'NONE',  ( 0.000000000000000000, 12.50000000000000000, 80.00000000000000000 ) ) ;
#713 = CARTESIAN_POINT ( 'NONE',  ( -7.347880794884123680E-16, 20.49999999999999645, 80.00000000000000000 ) ) ;
#714 = CARTESIAN_POINT ( 'NONE',  ( -2.000000000000000888, 14.50000000000000178, -2.000000000000000000 ) ) ;
#715 = FACE_OUTER_BOUND ( 'NONE', #687, .T. ) ;
#716 = ORIENTED_EDGE ( 'NONE', *, *, #620, .T. ) ;
#717 = CARTESIAN_POINT ( 'NONE',  ( -14.50099999999999767, 17.49999999999999645, 59.50000000000000000 ) ) ;
#718 = LINE ( 'NONE', #543, #1045 ) ;
#719 = FACE_BOUND ( 'NONE', #165, .T. ) ;
#720 = FACE_BOUND ( 'NONE', #770, .T. ) ;
#721 = ADVANCED_FACE ( 'NONE', ( #451 ), #190, .F. ) ;
#722 = ORIENTED_EDGE ( 'NONE', *, *, #1043, .T. ) ;
#723 = CARTESIAN_POINT ( 'NONE',  ( 3.491481338843130200E-15, -12.50000000000000000, 0.000000000000000000 ) ) ;
#724 = DIRECTION ( 'NONE',  ( -0.000000000000000000, 1.000000000000000000, -0.000000000000000000 ) ) ;
#725 = CARTESIAN_POINT ( 'NONE',  ( -2.000000000000000000, 17.49999999999999645, 79.00000000000000000 ) ) ;
#726 = CARTESIAN_POINT ( 'NONE',  ( 0.000000000000000000, -14.49999999999999822, 80.00000000000000000 ) ) ;
#727 = AXIS2_PLACEMENT_3D ( 'NONE', #147, #168, #791 ) ;
#728 = AXIS2_PLACEMENT_3D ( 'NONE', #997, #181, #461 ) ;
#729 = VECTOR ( 'NONE', #284, 1000.000000000000000 ) ;
#730 = PLANE ( 'NONE',  #369 ) ;
#731 = AXIS2_PLACEMENT_3D ( 'NONE', #856, #851, #1038 ) ;
#732 = DIRECTION ( 'NONE',  ( 0.000000000000000000, 1.000000000000000000, 1.269309860470834477E-16 ) ) ;
#733 =( NAMED_UNIT ( * ) SI_UNIT ( $, .STERADIAN. ) SOLID_ANGLE_UNIT ( ) );
#734 = FACE_BOUND ( 'NONE', #35, .T. ) ;
#735 = VECTOR ( 'NONE', #809, 1000.000000000000000 ) ;
#736 = CARTESIAN_POINT ( 'NONE',  ( -2.000000000000000888, 14.50000000000000533, 39.00000000000000000 ) ) ;
#737 = EDGE_CURVE ( 'NONE', #480, #1115, #1047, .T. ) ;
#738 = CARTESIAN_POINT ( 'NONE',  ( 2.531323970661271367E-14, 0.000000000000000000, -2.000000000000000000 ) ) ;
#739 = CARTESIAN_POINT ( 'NONE',  ( -14.49999999999997335, 0.000000000000000000, -2.000000000000000000 ) ) ;
#740 = VERTEX_POINT ( 'NONE', #460 ) ;
#741 = CARTESIAN_POINT ( 'NONE',  ( 0.000000000000000000, -17.49999999999999645, 77.00000000000000000 ) ) ;
#742 = VERTEX_POINT ( 'NONE', #1010 ) ;
#743 = APPROVAL ( #850, 'UNSPECIFIED' ) ;
#744 = CARTESIAN_POINT ( 'NONE',  ( -2.000000000000000000, -20.49999999999999645, 39.00000000000000000 ) ) ;
#745 = DIRECTION ( 'NONE',  ( 0.000000000000000000, 0.000000000000000000, -1.000000000000000000 ) ) ;
#746 = ORIENTED_EDGE ( 'NONE', *, *, #1025, .T. ) ;
#747 = DIRECTION ( 'NONE',  ( 1.000000000000000000, 0.000000000000000000, 0.000000000000000000 ) ) ;
#748 = VERTEX_POINT ( 'NONE', #1176 ) ;
#749 = DIRECTION ( 'NONE',  ( 0.000000000000000000, 0.000000000000000000, -1.000000000000000000 ) ) ;
#750 = ORIENTED_EDGE ( 'NONE', *, *, #561, .T. ) ;
#751 = LINE ( 'NONE', #1121, #729 ) ;
#752 = ORIENTED_EDGE ( 'NONE', *, *, #784, .F. ) ;
#753 = CALENDAR_DATE ( 2026, 24, 8 ) ;
#754 = LINE ( 'NONE', #1046, #1075 ) ;
#755 = EDGE_CURVE ( 'NONE', #353, #1127, #1193, .T. ) ;
#756 = VERTEX_POINT ( 'NONE', #549 ) ;
#757 = ORIENTED_EDGE ( 'NONE', *, *, #40, .F. ) ;
#758 = APPROVAL_DATE_TIME ( #32, #743 ) ;
#759 = DIRECTION ( 'NONE',  ( 0.000000000000000000, 0.000000000000000000, -1.000000000000000000 ) ) ;
#760 = VERTEX_POINT ( 'NONE', #630 ) ;
#761 = EDGE_CURVE ( 'NONE', #412, #437, #718, .T. ) ;
#762 = EDGE_CURVE ( 'NONE', #515, #598, #87, .T. ) ;
#763 = EDGE_LOOP ( 'NONE', ( #628, #664, #139, #904 ) ) ;
#764 = VECTOR ( 'NONE', #1085, 1000.000000000000000 ) ;
#765 = ORIENTED_EDGE ( 'NONE', *, *, #792, .T. ) ;
#766 = VECTOR ( 'NONE', #380, 1000.000000000000000 ) ;
#767 = CARTESIAN_POINT ( 'NONE',  ( -2.000000000000000888, -14.36140661634506799, -2.000000000000000000 ) ) ;
#768 = AXIS2_PLACEMENT_3D ( 'NONE', #91, #1183, #355 ) ;
#769 = AXIS2_PLACEMENT_3D ( 'NONE', #797, #1170, #343 ) ;
#770 = EDGE_LOOP ( 'NONE', ( #46, #36 ) ) ;
#771 = EDGE_LOOP ( 'NONE', ( #963, #585, #1143, #500, #897, #113, #47, #305, #259, #416 ) ) ;
#772 = EDGE_CURVE ( 'NONE', #317, #1028, #823, .T. ) ;
#773 = DIRECTION ( 'NONE',  ( 0.000000000000000000, 0.000000000000000000, 1.000000000000000000 ) ) ;
#774 = ORIENTED_EDGE ( 'NONE', *, *, #620, .F. ) ;
#775 = VERTEX_POINT ( 'NONE', #361 ) ;
#776 = EDGE_CURVE ( 'NONE', #1147, #598, #990, .T. ) ;
#777 = PLANE ( 'NONE',  #789 ) ;
#778 = DIRECTION ( 'NONE',  ( -0.000000000000000000, -0.000000000000000000, 1.000000000000000000 ) ) ;
#779 = VERTEX_POINT ( 'NONE', #899 ) ;
#780 = ORIENTED_EDGE ( 'NONE', *, *, #1076, .F. ) ;
#781 = LINE ( 'NONE', #1162, #931 ) ;
#782 = LINE ( 'NONE', #530, #124 ) ;
#783 = CARTESIAN_POINT ( 'NONE',  ( -2.000000000000000000, -17.49999999999999645, 45.00000000000000000 ) ) ;
#784 = EDGE_CURVE ( 'NONE', #593, #1171, #311, .T. ) ;
#785 = VECTOR ( 'NONE', #108, 1000.000000000000000 ) ;
#786 = EDGE_CURVE ( 'NONE', #775, #59, #269, .T. ) ;
#787 = ORIENTED_EDGE ( 'NONE', *, *, #686, .F. ) ;
#788 = CARTESIAN_POINT ( 'NONE',  ( -9.750000000000000000, 0.000000000000000000, 0.000000000000000000 ) ) ;
#789 = AXIS2_PLACEMENT_3D ( 'NONE', #800, #684, #1053 ) ;
#790 = FACE_OUTER_BOUND ( 'NONE', #170, .T. ) ;
#791 = DIRECTION ( 'NONE',  ( 0.000000000000000000, 0.000000000000000000, 1.000000000000000000 ) ) ;
#792 = EDGE_CURVE ( 'NONE', #496, #1127, #677, .T. ) ;
#793 = ORIENTED_EDGE ( 'NONE', *, *, #857, .F. ) ;
#794 = ORIENTED_EDGE ( 'NONE', *, *, #265, .T. ) ;
#795 = FACE_OUTER_BOUND ( 'NONE', #866, .T. ) ;
#796 = CARTESIAN_POINT ( 'NONE',  ( 0.000000000000000000, 17.49999999999999645, 61.50000000000000000 ) ) ;
#797 = CARTESIAN_POINT ( 'NONE',  ( 0.000000000000000000, 0.000000000000000000, 80.00000000000000000 ) ) ;
#798 = ORIENTED_EDGE ( 'NONE', *, *, #561, .F. ) ;
#799 = DIRECTION ( 'NONE',  ( 0.000000000000000000, 0.000000000000000000, 1.000000000000000000 ) ) ;
#800 = CARTESIAN_POINT ( 'NONE',  ( -14.50099999999999767, -20.49999999999999645, 39.00000000000000000 ) ) ;
#801 = CARTESIAN_POINT ( 'NONE',  ( 2.531323970661271367E-14, 0.000000000000000000, -2.000000000000000000 ) ) ;
#802 = FACE_BOUND ( 'NONE', #294, .T. ) ;
#803 = AXIS2_PLACEMENT_3D ( 'NONE', #801, #601, #82 ) ;
#804 = ORIENTED_EDGE ( 'NONE', *, *, #1191, .T. ) ;
#805 = LINE ( 'NONE', #529, #466 ) ;
#806 = EDGE_CURVE ( 'NONE', #67, #748, #39, .T. ) ;
#807 = CARTESIAN_POINT ( 'NONE',  ( -8.500000000000000000, 0.000000000000000000, -2.000000000000000000 ) ) ;
#808 = DIRECTION ( 'NONE',  ( 1.000000000000000000, 0.000000000000000000, -0.000000000000000000 ) ) ;
#809 = DIRECTION ( 'NONE',  ( 0.000000000000000000, 1.000000000000000000, 0.000000000000000000 ) ) ;
#810 = ORIENTED_EDGE ( 'NONE', *, *, #86, .F. ) ;
#811 = CYLINDRICAL_SURFACE ( 'NONE', #2, 2.000000000000001776 ) ;
#812 = CARTESIAN_POINT ( 'NONE',  ( 0.000000000000000000, 0.000000000000000000, 0.000000000000000000 ) ) ;
#813 = CARTESIAN_POINT ( 'NONE',  ( -14.50099999999999767, -17.49999999999999645, 77.00000000000000000 ) ) ;
#814 = PRODUCT_RELATED_PRODUCT_CATEGORY ( 'detail', '', ( #38 ) ) ;
#815 = DIRECTION ( 'NONE',  ( 1.000000000000000000, -0.000000000000000000, -0.000000000000000000 ) ) ;
#816 = LINE ( 'NONE', #81, #26 ) ;
#817 = DIRECTION ( 'NONE',  ( 1.000000000000000000, -0.000000000000000000, -0.000000000000000000 ) ) ;
#818 = AXIS2_PLACEMENT_3D ( 'NONE', #531, #1164, #513 ) ;
#819 = EDGE_CURVE ( 'NONE', #522, #482, #131, .T. ) ;
#820 = AXIS2_PLACEMENT_3D ( 'NONE', #92, #916, #96 ) ;
#821 = AXIS2_PLACEMENT_3D ( 'NONE', #1109, #799, #551 ) ;
#822 = FACE_OUTER_BOUND ( 'NONE', #763, .T. ) ;
#823 = CIRCLE ( 'NONE', #1195, 1.249999999999999334 ) ;
#824 = CARTESIAN_POINT ( 'NONE',  ( -2.000000000000000000, -14.50000000000000533, 39.00000000000000000 ) ) ;
#825 = CARTESIAN_POINT ( 'NONE',  ( -3.500000000000000000, 0.000000000000000000, 200.0010000000000048 ) ) ;
#826 = AXIS2_PLACEMENT_3D ( 'NONE', #619, #1185, #182 ) ;
#827 = EDGE_CURVE ( 'NONE', #1172, #740, #159, .T. ) ;
#828 = DIRECTION ( 'NONE',  ( 1.000000000000000000, -0.000000000000000000, -0.000000000000000000 ) ) ;
#829 = ORIENTED_EDGE ( 'NONE', *, *, #441, .F. ) ;
#830 = CYLINDRICAL_SURFACE ( 'NONE', #841, 2.000000000000001776 ) ;
#831 = ORIENTED_EDGE ( 'NONE', *, *, #175, .F. ) ;
#832 = CARTESIAN_POINT ( 'NONE',  ( 0.000000000000000000, -14.50000000000000000, -2.000000000000000000 ) ) ;
#833 = EDGE_CURVE ( 'NONE', #742, #871, #670, .T. ) ;
#834 = VERTEX_POINT ( 'NONE', #1149 ) ;
#835 = LINE ( 'NONE', #19, #485 ) ;
#836 = LINE ( 'NONE', #1196, #179 ) ;
#837 = DATE_TIME_ROLE ( 'classification_date' ) ;
#838 = EDGE_LOOP ( 'NONE', ( #994, #661, #1018, #787 ) ) ;
#839 = LINE ( 'NONE', #941, #559 ) ;
#840 = ORGANIZATION ( 'UNSPECIFIED', 'UNSPECIFIED', '' ) ;
#841 = AXIS2_PLACEMENT_3D ( 'NONE', #111, #1112, #749 ) ;
#842 = ORIENTED_EDGE ( 'NONE', *, *, #107, .T. ) ;
#843 = PERSON_AND_ORGANIZATION ( #893, #840 ) ;
#844 = EDGE_CURVE ( 'NONE', #454, #344, #596, .T. ) ;
#845 = FACE_OUTER_BOUND ( 'NONE', #964, .T. ) ;
#846 = VECTOR ( 'NONE', #264, 1000.000000000000000 ) ;
#847 = ORIENTED_EDGE ( 'NONE', *, *, #138, .F. ) ;
#848 = DIRECTION ( 'NONE',  ( -1.000000000000000000, -0.000000000000000000, -0.000000000000000000 ) ) ;
#849 = ORIENTED_EDGE ( 'NONE', *, *, #548, .F. ) ;
#850 = APPROVAL_STATUS ( 'not_yet_approved' ) ;
#851 = DIRECTION ( 'NONE',  ( 1.000000000000000000, -0.000000000000000000, -0.000000000000000000 ) ) ;
#852 = EDGE_CURVE ( 'NONE', #1048, #1147, #685, .T. ) ;
#853 = ORIENTED_EDGE ( 'NONE', *, *, #627, .F. ) ;
#854 = ORIENTED_EDGE ( 'NONE', *, *, #100, .F. ) ;
#855 = ORIENTED_EDGE ( 'NONE', *, *, #1174, .F. ) ;
#856 = CARTESIAN_POINT ( 'NONE',  ( -2.000000000000000000, -17.49999999999999645, 77.00000000000000000 ) ) ;
#857 = EDGE_CURVE ( 'NONE', #1127, #496, #922, .T. ) ;
#858 = ORIENTED_EDGE ( 'NONE', *, *, #285, .F. ) ;
#859 = AXIS2_PLACEMENT_3D ( 'NONE', #966, #56, #244 ) ;
#860 = VERTEX_POINT ( 'NONE', #304 ) ;
#861 = APPROVAL_STATUS ( 'not_yet_approved' ) ;
#862 = AXIS2_PLACEMENT_3D ( 'NONE', #199, #747, #564 ) ;
#863 = DIRECTION ( 'NONE',  ( 0.000000000000000000, -1.000000000000000000, -0.000000000000000000 ) ) ;
#864 = AXIS2_PLACEMENT_3D ( 'NONE', #663, #572, #937 ) ;
#865 = EDGE_CURVE ( 'NONE', #140, #24, #367, .T. ) ;
#866 = EDGE_LOOP ( 'NONE', ( #313, #241, #223, #384 ) ) ;
#867 = ORIENTED_EDGE ( 'NONE', *, *, #1088, .T. ) ;
#868 = DIRECTION ( 'NONE',  ( -0.000000000000000000, -0.000000000000000000, -1.000000000000000000 ) ) ;
#869 = LINE ( 'NONE', #50, #292 ) ;
#870 = EDGE_LOOP ( 'NONE', ( #73, #488, #804, #425 ) ) ;
#871 = VERTEX_POINT ( 'NONE', #668 ) ;
#872 = EDGE_CURVE ( 'NONE', #756, #651, #676, .T. ) ;
#873 = CARTESIAN_POINT ( 'NONE',  ( -14.50099999999999767, 17.49999999999999645, 43.00000000000000000 ) ) ;
#874 = CARTESIAN_POINT ( 'NONE',  ( -7.347880794884123680E-16, -20.49999999999999645, 80.00000000000000000 ) ) ;
#875 = ORIENTED_EDGE ( 'NONE', *, *, #1141, .T. ) ;
#876 = VERTEX_POINT ( 'NONE', #767 ) ;
#877 = ORIENTED_EDGE ( 'NONE', *, *, #852, .T. ) ;
#878 = AXIS2_PLACEMENT_3D ( 'NONE', #226, #503, #44 ) ;
#879 = CARTESIAN_POINT ( 'NONE',  ( 0.000000000000000000, 20.49999999999999645, 39.00000000000000000 ) ) ;
#880 = AXIS2_PLACEMENT_3D ( 'NONE', #631, #88, #639 ) ;
#881 = CARTESIAN_POINT ( 'NONE',  ( -2.000000000000000000, -17.49999999999999645, 59.50000000000000000 ) ) ;
#882 = AXIS2_PLACEMENT_3D ( 'NONE', #102, #471, #665 ) ;
#883 = AXIS2_PLACEMENT_3D ( 'NONE', #605, #618, #976 ) ;
#884 = AXIS2_PLACEMENT_3D ( 'NONE', #237, #975, #55 ) ;
#885 = EDGE_LOOP ( 'NONE', ( #423, #266, #875, #603 ) ) ;
#886 = CARTESIAN_POINT ( 'NONE',  ( 0.000000000000000000, -14.50000000000000000, -2.000000000000000000 ) ) ;
#887 = CARTESIAN_POINT ( 'NONE',  ( 0.000000000000000000, 0.000000000000000000, 0.000000000000000000 ) ) ;
#888 = FACE_BOUND ( 'NONE', #251, .T. ) ;
#889 = EDGE_CURVE ( 'NONE', #1120, #9, #979, .T. ) ;
#890 = EDGE_LOOP ( 'NONE', ( #477, #669, #967, #84 ) ) ;
#891 = DIRECTION ( 'NONE',  ( 1.000000000000000000, -0.000000000000000000, -0.000000000000000000 ) ) ;
#892 = DIRECTION ( 'NONE',  ( 0.000000000000000000, -1.269309860470834477E-16, 1.000000000000000000 ) ) ;
#893 = PERSON ( 'UNSPECIFIED', 'UNSPECIFIED', 'UNSPECIFIED', ('UNSPECIFIED'), ('UNSPECIFIED'), ('UNSPECIFIED') ) ;
#894 = FACE_OUTER_BOUND ( 'NONE', #683, .T. ) ;
#895 = CARTESIAN_POINT ( 'NONE',  ( -2.000000000000000888, 14.36140661634506799, 80.00000000000000000 ) ) ;
#896 = ADVANCED_FACE ( 'NONE', ( #947 ), #938, .F. ) ;
#897 = ORIENTED_EDGE ( 'NONE', *, *, #1160, .F. ) ;
#898 = CARTESIAN_POINT ( 'NONE',  ( 0.000000000000000000, 17.49999999999999645, 57.49999999999999289 ) ) ;
#899 = CARTESIAN_POINT ( 'NONE',  ( -3.500000000000000000, 0.000000000000000000, -2.000000000000000000 ) ) ;
#900 = FACE_BOUND ( 'NONE', #381, .T. ) ;
#901 = FACE_OUTER_BOUND ( 'NONE', #303, .T. ) ;
#902 = VECTOR ( 'NONE', #1011, 1000.000000000000000 ) ;
#903 = CIRCLE ( 'NONE', #1157, 2.000000000000001776 ) ;
#904 = ORIENTED_EDGE ( 'NONE', *, *, #403, .F. ) ;
#905 = CARTESIAN_POINT ( 'NONE',  ( -9.750000000000000000, 0.000000000000000000, -2.000000000000000000 ) ) ;
#906 = EDGE_CURVE ( 'NONE', #9, #67, #754, .T. ) ;
#907 = CARTESIAN_POINT ( 'NONE',  ( 0.000000000000000000, 12.50000000000000000, 0.000000000000000000 ) ) ;
#908 = DIRECTION ( 'NONE',  ( -1.000000000000000000, 0.000000000000000000, 0.000000000000000000 ) ) ;
#909 = DIRECTION ( 'NONE',  ( 1.000000000000000000, -0.000000000000000000, -0.000000000000000000 ) ) ;
#910 = DIRECTION ( 'NONE',  ( 1.000000000000000000, 0.000000000000000000, 0.000000000000000000 ) ) ;
#911 = DIRECTION ( 'NONE',  ( -1.000000000000000000, -0.000000000000000000, -0.000000000000000000 ) ) ;
#912 = FACE_OUTER_BOUND ( 'NONE', #838, .T. ) ;
#913 = EDGE_CURVE ( 'NONE', #234, #1156, #558, .T. ) ;
#914 = DIRECTION ( 'NONE',  ( 1.000000000000000000, 0.000000000000000000, -0.000000000000000000 ) ) ;
#915 = CARTESIAN_POINT ( 'NONE',  ( -14.50099999999999767, -17.49999999999999645, 61.50000000000000000 ) ) ;
#916 = DIRECTION ( 'NONE',  ( 0.000000000000000000, 0.000000000000000000, -1.000000000000000000 ) ) ;
#917 = DIRECTION ( 'NONE',  ( -1.000000000000000000, 0.000000000000000000, 0.000000000000000000 ) ) ;
#918 = CC_DESIGN_DATE_AND_TIME_ASSIGNMENT ( #1037, #837, ( #673 ) ) ;
#919 = AXIS2_PLACEMENT_3D ( 'NONE', #275, #638, #1005 ) ;
#920 = VECTOR ( 'NONE', #261, 1000.000000000000000 ) ;
#921 = CYLINDRICAL_SURFACE ( 'NONE', #882, 2.000000000000001776 ) ;
#922 = CIRCLE ( 'NONE', #57, 2.000000000000001776 ) ;
#923 = ORIENTED_EDGE ( 'NONE', *, *, #865, .F. ) ;
#924 = CARTESIAN_POINT ( 'NONE',  ( 0.000000000000000000, 17.49999999999999645, 75.00000000000000000 ) ) ;
#925 = CARTESIAN_POINT ( 'NONE',  ( -2.000000000000000000, 20.49999999999999645, 39.00000000000000000 ) ) ;
#926 = ORIENTED_EDGE ( 'NONE', *, *, #152, .T. ) ;
#927 = LINE ( 'NONE', #933, #785 ) ;
#928 = ORIENTED_EDGE ( 'NONE', *, *, #700, .F. ) ;
#929 = DIRECTION ( 'NONE',  ( -0.000000000000000000, -0.000000000000000000, -1.000000000000000000 ) ) ;
#930 = FACE_OUTER_BOUND ( 'NONE', #885, .T. ) ;
#931 = VECTOR ( 'NONE', #335, 1000.000000000000000 ) ;
#932 = ORIENTED_EDGE ( 'NONE', *, *, #219, .F. ) ;
#933 = CARTESIAN_POINT ( 'NONE',  ( -14.50099999999999767, -14.50000000000000000, -2.000000000000000000 ) ) ;
#934 = EDGE_CURVE ( 'NONE', #876, #344, #217, .T. ) ;
#935 = ORIENTED_EDGE ( 'NONE', *, *, #48, .F. ) ;
#936 = SECURITY_CLASSIFICATION_LEVEL ( 'unclassified' ) ;
#937 = DIRECTION ( 'NONE',  ( 0.000000000000000000, 0.000000000000000000, -1.000000000000000000 ) ) ;
#938 = PLANE ( 'NONE',  #613 ) ;
#939 = DESIGN_CONTEXT ( 'detailed design', #1036, 'design' ) ;
#940 = ORIENTED_EDGE ( 'NONE', *, *, #597, .F. ) ;
#941 = CARTESIAN_POINT ( 'NONE',  ( 0.000000000000000000, -14.49999999999999822, -2.000000000000000000 ) ) ;
#942 = AXIS2_PLACEMENT_3D ( 'NONE', #995, #279, #455 ) ;
#943 = ORIENTED_EDGE ( 'NONE', *, *, #872, .T. ) ;
#944 = ADVANCED_FACE ( 'NONE', ( #681 ), #1050, .F. ) ;
#945 = DATE_AND_TIME ( #1137, #387 ) ;
#946 = AXIS2_PLACEMENT_3D ( 'NONE', #187, #309, #957 ) ;
#947 = FACE_OUTER_BOUND ( 'NONE', #621, .T. ) ;
#948 = AXIS2_PLACEMENT_3D ( 'NONE', #632, #188, #550 ) ;
#949 = EDGE_LOOP ( 'NONE', ( #614, #981, #794, #752 ) ) ;
#950 = ORIENTED_EDGE ( 'NONE', *, *, #819, .F. ) ;
#951 = ORIENTED_EDGE ( 'NONE', *, *, #397, .T. ) ;
#952 = APPROVAL_ROLE ( '' ) ;
#953 = CARTESIAN_POINT ( 'NONE',  ( 0.000000000000000000, -17.49999999999999645, 59.50000000000000000 ) ) ;
#954 = ADVANCED_FACE ( 'NONE', ( #415 ), #1054, .F. ) ;
#955 = ORIENTED_EDGE ( 'NONE', *, *, #435, .F. ) ;
#956 = CARTESIAN_POINT ( 'NONE',  ( -14.50099999999999767, -14.50000000000000533, 39.00000000000000000 ) ) ;
#957 = DIRECTION ( 'NONE',  ( 0.000000000000000000, 0.000000000000000000, -1.000000000000000000 ) ) ;
#958 = CC_DESIGN_DATE_AND_TIME_ASSIGNMENT ( #1044, #586, ( #143 ) ) ;
#959 = EDGE_LOOP ( 'NONE', ( #1064, #12, #424, #394 ) ) ;
#960 = ORIENTED_EDGE ( 'NONE', *, *, #125, .F. ) ;
#961 = LINE ( 'NONE', #370, #980 ) ;
#962 = DIRECTION ( 'NONE',  ( 0.000000000000000000, 0.000000000000000000, -1.000000000000000000 ) ) ;
#963 = ORIENTED_EDGE ( 'NONE', *, *, #705, .F. ) ;
#964 = EDGE_LOOP ( 'NONE', ( #935, #1042, #533, #1180 ) ) ;
#965 = PLANE ( 'NONE',  #103 ) ;
#966 = CARTESIAN_POINT ( 'NONE',  ( 2.531323970661271367E-14, 0.000000000000000000, 0.000000000000000000 ) ) ;
#967 = ORIENTED_EDGE ( 'NONE', *, *, #499, .T. ) ;
#968 = ORIENTED_EDGE ( 'NONE', *, *, #300, .T. ) ;
#969 = EDGE_CURVE ( 'NONE', #592, #176, #869, .T. ) ;
#970 = CYLINDRICAL_SURFACE ( 'NONE', #374, 14.49999999999999822 ) ;
#971 = LINE ( 'NONE', #76, #430 ) ;
#972 = ORIENTED_EDGE ( 'NONE', *, *, #906, .F. ) ;
#973 = VECTOR ( 'NONE', #698, 1000.000000000000000 ) ;
#974 = ADVANCED_FACE ( 'NONE', ( #845 ), #238, .F. ) ;
#975 = DIRECTION ( 'NONE',  ( 1.000000000000000000, 0.000000000000000000, 0.000000000000000000 ) ) ;
#976 = DIRECTION ( 'NONE',  ( -1.000000000000000000, 0.000000000000000000, 0.000000000000000000 ) ) ;
#977 = LINE ( 'NONE', #895, #1146 ) ;
#978 = VECTOR ( 'NONE', #914, 1000.000000000000000 ) ;
#979 = CIRCLE ( 'NONE', #1144, 2.000000000000001776 ) ;
#980 = VECTOR ( 'NONE', #180, 1000.000000000000000 ) ;
#981 = ORIENTED_EDGE ( 'NONE', *, *, #280, .F. ) ;
#982 = DIRECTION ( 'NONE',  ( 1.000000000000000000, 0.000000000000000000, 0.000000000000000000 ) ) ;
#983 = DIRECTION ( 'NONE',  ( -1.000000000000000000, 0.000000000000000000, 0.000000000000000000 ) ) ;
#984 = FACE_OUTER_BOUND ( 'NONE', #120, .T. ) ;
#985 = LINE ( 'NONE', #1094, #617 ) ;
#986 = ADVANCED_FACE ( 'NONE', ( #434, #894 ), #173, .F. ) ;
#987 = ORIENTED_EDGE ( 'NONE', *, *, #348, .F. ) ;
#988 = EDGE_LOOP ( 'NONE', ( #514, #1083, #928, #1026 ) ) ;
#989 = CARTESIAN_POINT ( 'NONE',  ( -2.000000000000000000, 20.49999999999999645, 39.00000000000000000 ) ) ;
#990 = LINE ( 'NONE', #172, #469 ) ;
#991 = DIRECTION ( 'NONE',  ( 0.000000000000000000, 0.000000000000000000, -1.000000000000000000 ) ) ;
#992 = CARTESIAN_POINT ( 'NONE',  ( -2.000000000000000888, -20.49999999999999645, -2.000000000000000000 ) ) ;
#993 = EDGE_CURVE ( 'NONE', #454, #482, #1140, .T. ) ;
#994 = ORIENTED_EDGE ( 'NONE', *, *, #132, .F. ) ;
#995 = CARTESIAN_POINT ( 'NONE',  ( 0.000000000000000000, 0.000000000000000000, 80.00000000000000000 ) ) ;
#996 = DIRECTION ( 'NONE',  ( -0.000000000000000000, -0.000000000000000000, 1.000000000000000000 ) ) ;
#997 = CARTESIAN_POINT ( 'NONE',  ( 0.000000000000000000, 0.000000000000000000, 0.000000000000000000 ) ) ;
#998 = DIRECTION ( 'NONE',  ( 0.000000000000000000, 0.000000000000000000, 1.000000000000000000 ) ) ;
#999 = VECTOR ( 'NONE', #891, 1000.000000000000000 ) ;
#1000 = EDGE_CURVE ( 'NONE', #693, #353, #502, .T. ) ;
#1001 = ORIENTED_EDGE ( 'NONE', *, *, #806, .T. ) ;
#1002 = CARTESIAN_POINT ( 'NONE',  ( -2.000000000000000000, -17.49999999999999645, 77.00000000000000000 ) ) ;
#1003 = ADVANCED_FACE ( 'NONE', ( #1177 ), #610, .T. ) ;
#1004 = AXIS2_PLACEMENT_3D ( 'NONE', #726, #83, #998 ) ;
#1005 = DIRECTION ( 'NONE',  ( 0.000000000000000000, 0.000000000000000000, -1.000000000000000000 ) ) ;
#1006 = DIRECTION ( 'NONE',  ( 0.000000000000000000, 0.000000000000000000, -1.000000000000000000 ) ) ;
#1007 = CARTESIAN_POINT ( 'NONE',  ( -14.50099999999999767, 17.49999999999999645, 61.50000000000000000 ) ) ;
#1008 = DIRECTION ( 'NONE',  ( 1.000000000000000000, 0.000000000000000000, -0.000000000000000000 ) ) ;
#1009 = EDGE_CURVE ( 'NONE', #24, #140, #213, .T. ) ;
#1010 = CARTESIAN_POINT ( 'NONE',  ( -2.000000000000000000, -17.49999999999999645, 75.00000000000000000 ) ) ;
#1011 = DIRECTION ( 'NONE',  ( 0.000000000000000000, -1.000000000000000000, 0.000000000000000000 ) ) ;
#1012 = CYLINDRICAL_SURFACE ( 'NONE', #504, 2.000000000000001776 ) ;
#1013 = CIRCLE ( 'NONE', #486, 3.500000000000000000 ) ;
#1014 = DIRECTION ( 'NONE',  ( -0.000000000000000000, -0.000000000000000000, 1.000000000000000000 ) ) ;
#1015 = DIRECTION ( 'NONE',  ( -1.000000000000000000, 0.000000000000000000, 0.000000000000000000 ) ) ;
#1016 = LINE ( 'NONE', #825, #1019 ) ;
#1017 = AXIS2_PLACEMENT_3D ( 'NONE', #231, #962, #508 ) ;
#1018 = ORIENTED_EDGE ( 'NONE', *, *, #857, .T. ) ;
#1019 = VECTOR ( 'NONE', #1030, 1000.000000000000000 ) ;
#1020 = CARTESIAN_POINT ( 'NONE',  ( -2.000000000000000888, -20.49999999999999645, 80.00000000000000000 ) ) ;
#1021 = EDGE_LOOP ( 'NONE', ( #1095, #506, #955, #565, #1056, #968 ) ) ;
#1022 = CYLINDRICAL_SURFACE ( 'NONE', #880, 2.000000000000001776 ) ;
#1023 = DIRECTION ( 'NONE',  ( 0.000000000000000000, 0.000000000000000000, -1.000000000000000000 ) ) ;
#1024 = VECTOR ( 'NONE', #517, 1000.000000000000000 ) ;
#1025 = EDGE_CURVE ( 'NONE', #491, #505, #576, .T. ) ;
#1026 = ORIENTED_EDGE ( 'NONE', *, *, #265, .F. ) ;
#1027 = DIRECTION ( 'NONE',  ( 1.000000000000000000, 0.000000000000000000, -0.000000000000000000 ) ) ;
#1028 = VERTEX_POINT ( 'NONE', #263 ) ;
#1029 = PERSON_AND_ORGANIZATION ( #893, #840 ) ;
#1030 = DIRECTION ( 'NONE',  ( -0.000000000000000000, -0.000000000000000000, -1.000000000000000000 ) ) ;
#1031 = APPROVAL_DATE_TIME ( #406, #3 ) ;
#1032 = ORIENTED_EDGE ( 'NONE', *, *, #934, .F. ) ;
#1033 = CC_DESIGN_PERSON_AND_ORGANIZATION_ASSIGNMENT ( #662, #667, ( #1041 ) ) ;
#1034 = LINE ( 'NONE', #295, #1059 ) ;
#1035 = ORIENTED_EDGE ( 'NONE', *, *, #319, .F. ) ;
#1036 = APPLICATION_CONTEXT ( 'configuration controlled 3d designs of mechanical parts and assemblies' ) ;
#1037 = DATE_AND_TIME ( #753, #447 ) ;
#1038 = DIRECTION ( 'NONE',  ( 0.000000000000000000, 0.000000000000000000, 1.000000000000000000 ) ) ;
#1039 = ORIENTED_EDGE ( 'NONE', *, *, #833, .F. ) ;
#1040 = VECTOR ( 'NONE', #991, 1000.000000000000000 ) ;
#1041 = PRODUCT_DEFINITION_FORMATION_WITH_SPECIFIED_SOURCE ( 'ANY', '', #38, .NOT_KNOWN. ) ;
#1042 = ORIENTED_EDGE ( 'NONE', *, *, #865, .T. ) ;
#1043 = EDGE_CURVE ( 'NONE', #480, #497, #971, .T. ) ;
#1044 = DATE_AND_TIME ( #212, #233 ) ;
#1045 = VECTOR ( 'NONE', #644, 1000.000000000000000 ) ;
#1046 = CARTESIAN_POINT ( 'NONE',  ( -14.50099999999999767, -17.49999999999999645, 40.99999999999999289 ) ) ;
#1047 = CIRCLE ( 'NONE', #250, 3.500000000000000000 ) ;
#1048 = VERTEX_POINT ( 'NONE', #427 ) ;
#1049 = VERTEX_POINT ( 'NONE', #714 ) ;
#1050 = CYLINDRICAL_SURFACE ( 'NONE', #878, 2.000000000000001776 ) ;
#1051 = ORIENTED_EDGE ( 'NONE', *, *, #40, .T. ) ;
#1052 = EDGE_LOOP ( 'NONE', ( #150, #31, #1032, #312 ) ) ;
#1053 = DIRECTION ( 'NONE',  ( 1.000000000000000000, 0.000000000000000000, -0.000000000000000000 ) ) ;
#1054 = PLANE ( 'NONE',  #1017 ) ;
#1055 = ORIENTED_EDGE ( 'NONE', *, *, #889, .T. ) ;
#1056 = ORIENTED_EDGE ( 'NONE', *, *, #253, .T. ) ;
#1057 = CC_DESIGN_APPROVAL ( #3, ( #673 ) ) ;
#1058 = DIRECTION ( 'NONE',  ( -0.000000000000000000, -0.000000000000000000, -1.000000000000000000 ) ) ;
#1059 = VECTOR ( 'NONE', #1027, 1000.000000000000000 ) ;
#1060 = CYLINDRICAL_SURFACE ( 'NONE', #414, 2.000000000000001776 ) ;
#1061 = DIRECTION ( 'NONE',  ( -1.745740669421566678E-15, -1.000000000000000000, -0.000000000000000000 ) ) ;
#1062 = CIRCLE ( 'NONE', #546, 2.000000000000001776 ) ;
#1063 = ADVANCED_FACE ( 'NONE', ( #900, #63, #719, #984 ), #445, .F. ) ;
#1064 = ORIENTED_EDGE ( 'NONE', *, *, #428, .F. ) ;
#1065 = VERTEX_POINT ( 'NONE', #796 ) ;
#1066 = ORIENTED_EDGE ( 'NONE', *, *, #1009, .T. ) ;
#1067 = CARTESIAN_POINT ( 'NONE',  ( -2.000000000000000000, -17.49999999999999645, 43.00000000000000000 ) ) ;
#1068 = CARTESIAN_POINT ( 'NONE',  ( -14.50099999999999767, 17.49999999999999645, 40.99999999999999289 ) ) ;
#1069 = EDGE_CURVE ( 'NONE', #144, #1134, #653, .T. ) ;
#1070 = LINE ( 'NONE', #49, #1105 ) ;
#1071 = FACE_BOUND ( 'NONE', #404, .T. ) ;
#1072 = FACE_OUTER_BOUND ( 'NONE', #474, .T. ) ;
#1073 = ORIENTED_EDGE ( 'NONE', *, *, #1000, .T. ) ;
#1074 = ORIENTED_EDGE ( 'NONE', *, *, #699, .F. ) ;
#1075 = VECTOR ( 'NONE', #691, 1000.000000000000000 ) ;
#1076 = EDGE_CURVE ( 'NONE', #448, #710, #1102, .T. ) ;
#1077 = DIRECTION ( 'NONE',  ( 1.000000000000000000, -0.000000000000000000, -0.000000000000000000 ) ) ;
#1078 = PLANE ( 'NONE',  #803 ) ;
#1079 = CARTESIAN_POINT ( 'NONE',  ( -2.000000000000000000, -14.50000000000000000, -2.000000000000000000 ) ) ;
#1080 = CIRCLE ( 'NONE', #41, 2.000000000000001776 ) ;
#1081 = AXIS2_PLACEMENT_3D ( 'NONE', #248, #69, #160 ) ;
#1082 = CIRCLE ( 'NONE', #826, 2.000000000000001776 ) ;
#1083 = ORIENTED_EDGE ( 'NONE', *, *, #186, .T. ) ;
#1084 = LINE ( 'NONE', #273, #920 ) ;
#1085 = DIRECTION ( 'NONE',  ( 0.000000000000000000, 0.000000000000000000, -1.000000000000000000 ) ) ;
#1086 = DIRECTION ( 'NONE',  ( -1.000000000000000000, 0.000000000000000000, 0.000000000000000000 ) ) ;
#1087 = PLANE ( 'NONE',  #1004 ) ;
#1088 = EDGE_CURVE ( 'NONE', #482, #876, #702, .T. ) ;
#1089 = ORIENTED_EDGE ( 'NONE', *, *, #441, .T. ) ;
#1090 = DIRECTION ( 'NONE',  ( 0.000000000000000000, 0.000000000000000000, -1.000000000000000000 ) ) ;
#1091 = CLOSED_SHELL ( 'NONE', ( #375, #232, #608, #94, #526, #944, #1135, #1166, #539, #1003, #568, #1063, #1103, #896, #516, #11, #511, #986, #643, #974, #365, #418, #954, #692, #721, #197, #210, #450, #193, #555, #334, #162, #1182 ) ) ;
#1092 = CARTESIAN_POINT ( 'NONE',  ( -14.50099999999999767, -20.49999999999999645, 39.00000000000000000 ) ) ;
#1093 = DIRECTION ( 'NONE',  ( -1.000000000000000000, 0.000000000000000000, 0.000000000000000000 ) ) ;
#1094 = CARTESIAN_POINT ( 'NONE',  ( -12.50000000000000000, 0.000000000000000000, 80.00000000000000000 ) ) ;
#1095 = ORIENTED_EDGE ( 'NONE', *, *, #403, .T. ) ;
#1096 = CARTESIAN_POINT ( 'NONE',  ( -14.50099999999999767, 14.50000000000000000, -2.000000000000000000 ) ) ;
#1097 = DIRECTION ( 'NONE',  ( 1.000000000000000000, -0.000000000000000000, -0.000000000000000000 ) ) ;
#1098 = DIRECTION ( 'NONE',  ( -1.000000000000000000, -0.000000000000000000, -0.000000000000000000 ) ) ;
#1099 = CYLINDRICAL_SURFACE ( 'NONE', #163, 2.000000000000001776 ) ;
#1100 = CIRCLE ( 'NONE', #538, 3.500000000000000000 ) ;
#1101 = CIRCLE ( 'NONE', #862, 2.000000000000001776 ) ;
#1102 = CIRCLE ( 'NONE', #137, 12.50000000000000000 ) ;
#1103 = ADVANCED_FACE ( 'NONE', ( #1071, #707 ), #1078, .T. ) ;
#1104 = FACE_OUTER_BOUND ( 'NONE', #157, .T. ) ;
#1105 = VECTOR ( 'NONE', #609, 1000.000000000000000 ) ;
#1106 = DIRECTION ( 'NONE',  ( 0.000000000000000000, -1.000000000000000000, 0.000000000000000000 ) ) ;
#1107 = CARTESIAN_POINT ( 'NONE',  ( 0.000000000000000000, 17.49999999999999645, 40.99999999999999289 ) ) ;
#1108 = DIRECTION ( 'NONE',  ( -1.000000000000000000, 0.000000000000000000, 0.000000000000000000 ) ) ;
#1109 = CARTESIAN_POINT ( 'NONE',  ( 0.000000000000000000, 0.000000000000000000, 80.00000000000001421 ) ) ;
#1110 = EDGE_CURVE ( 'NONE', #505, #242, #452, .T. ) ;
#1111 = DIRECTION ( 'NONE',  ( 0.000000000000000000, 0.000000000000000000, -1.000000000000000000 ) ) ;
#1112 = DIRECTION ( 'NONE',  ( 1.000000000000000000, 0.000000000000000000, -0.000000000000000000 ) ) ;
#1113 = ORIENTED_EDGE ( 'NONE', *, *, #993, .T. ) ;
#1114 = CARTESIAN_POINT ( 'NONE',  ( -7.250000000000000888, 1.530808498934190831E-16, 0.000000000000000000 ) ) ;
#1115 = VERTEX_POINT ( 'NONE', #1184 ) ;
#1116 = FACE_OUTER_BOUND ( 'NONE', #870, .T. ) ;
#1117 = LINE ( 'NONE', #554, #540 ) ;
#1118 = EDGE_CURVE ( 'NONE', #756, #59, #356, .T. ) ;
#1119 = AXIS2_PLACEMENT_3D ( 'NONE', #457, #291, #377 ) ;
#1120 = VERTEX_POINT ( 'NONE', #783 ) ;
#1121 = CARTESIAN_POINT ( 'NONE',  ( -14.50099999999999767, -17.49999999999999645, 45.00000000000000000 ) ) ;
#1122 = EDGE_LOOP ( 'NONE', ( #1051, #1089, #145, #43 ) ) ;
#1123 = COORDINATED_UNIVERSAL_TIME_OFFSET ( 5, 30, .AHEAD. ) ;
#1124 = PLANE ( 'NONE',  #864 ) ;
#1125 = COORDINATED_UNIVERSAL_TIME_OFFSET ( 5, 30, .AHEAD. ) ;
#1126 = EDGE_CURVE ( 'NONE', #234, #1134, #1159, .T. ) ;
#1127 = VERTEX_POINT ( 'NONE', #467 ) ;
#1128 = CYLINDRICAL_SURFACE ( 'NONE', #215, 2.000000000000001776 ) ;
#1129 = EDGE_LOOP ( 'NONE', ( #42, #750 ) ) ;
#1130 = COORDINATED_UNIVERSAL_TIME_OFFSET ( 5, 30, .AHEAD. ) ;
#1131 = APPLICATION_CONTEXT ( 'configuration controlled 3d designs of mechanical parts and assemblies' ) ;
#1132 = DIRECTION ( 'NONE',  ( -0.000000000000000000, -0.000000000000000000, -1.000000000000000000 ) ) ;
#1133 = EDGE_CURVE ( 'NONE', #1065, #242, #612, .T. ) ;
#1134 = VERTEX_POINT ( 'NONE', #1107 ) ;
#1135 = ADVANCED_FACE ( 'NONE', ( #362 ), #553, .F. ) ;
#1136 = ORIENTED_EDGE ( 'NONE', *, *, #806, .F. ) ;
#1137 = CALENDAR_DATE ( 2026, 24, 8 ) ;
#1138 = DIRECTION ( 'NONE',  ( 1.000000000000000000, -0.000000000000000000, -0.000000000000000000 ) ) ;
#1139 = ORIENTED_EDGE ( 'NONE', *, *, #635, .F. ) ;
#1140 = CIRCLE ( 'NONE', #101, 14.49999999999999822 ) ;
#1141 = EDGE_CURVE ( 'NONE', #756, #522, #835, .T. ) ;
#1142 = ORIENTED_EDGE ( 'NONE', *, *, #476, .T. ) ;
#1143 = ORIENTED_EDGE ( 'NONE', *, *, #175, .T. ) ;
#1144 = AXIS2_PLACEMENT_3D ( 'NONE', #321, #1138, #773 ) ;
#1145 = DIRECTION ( 'NONE',  ( 0.000000000000000000, 0.000000000000000000, -1.000000000000000000 ) ) ;
#1146 = VECTOR ( 'NONE', #462, 1000.000000000000000 ) ;
#1147 = VERTEX_POINT ( 'NONE', #276 ) ;
#1148 = ORIENTED_EDGE ( 'NONE', *, *, #246, .T. ) ;
#1149 = CARTESIAN_POINT ( 'NONE',  ( 0.000000000000000000, -17.49999999999999645, 79.00000000000000000 ) ) ;
#1150 = ORIENTED_EDGE ( 'NONE', *, *, #253, .F. ) ;
#1151 = ORIENTED_EDGE ( 'NONE', *, *, #411, .F. ) ;
#1152 = LINE ( 'NONE', #167, #659 ) ;
#1153 = DIRECTION ( 'NONE',  ( 0.000000000000000000, 0.000000000000000000, -1.000000000000000000 ) ) ;
#1154 = EDGE_CURVE ( 'NONE', #1167, #775, #7, .T. ) ;
#1155 = ORIENTED_EDGE ( 'NONE', *, *, #100, .T. ) ;
#1156 = VERTEX_POINT ( 'NONE', #191 ) ;
#1157 = AXIS2_PLACEMENT_3D ( 'NONE', #464, #910, #623 ) ;
#1158 = CARTESIAN_POINT ( 'NONE',  ( 0.000000000000000000, 0.000000000000000000, 200.0000000000000000 ) ) ;
#1159 = LINE ( 'NONE', #1068, #465 ) ;
#1160 = EDGE_CURVE ( 'NONE', #211, #779, #580, .T. ) ;
#1161 = VECTOR ( 'NONE', #363, 1000.000000000000000 ) ;
#1162 = CARTESIAN_POINT ( 'NONE',  ( -14.50099999999999767, 14.50000000000000533, 39.00000000000000000 ) ) ;
#1163 = DIRECTION ( 'NONE',  ( -1.000000000000000000, -0.000000000000000000, -0.000000000000000000 ) ) ;
#1164 = DIRECTION ( 'NONE',  ( -1.000000000000000000, -0.000000000000000000, -0.000000000000000000 ) ) ;
#1165 = EDGE_LOOP ( 'NONE', ( #398, #774, #573, #1001 ) ) ;
#1166 = ADVANCED_FACE ( 'NONE', ( #1116 ), #544, .F. ) ;
#1167 = VERTEX_POINT ( 'NONE', #824 ) ;
#1168 = CARTESIAN_POINT ( 'NONE',  ( -2.000000000000000888, 14.36140661634506799, -2.000000000000000000 ) ) ;
#1169 = CARTESIAN_POINT ( 'NONE',  ( -2.000000000000000888, -14.36140661634506799, 80.00000000000000000 ) ) ;
#1170 = DIRECTION ( 'NONE',  ( -0.000000000000000000, -0.000000000000000000, -1.000000000000000000 ) ) ;
#1171 = VERTEX_POINT ( 'NONE', #924 ) ;
#1172 = VERTEX_POINT ( 'NONE', #725 ) ;
#1173 = DIRECTION ( 'NONE',  ( 0.000000000000000000, 0.000000000000000000, -1.000000000000000000 ) ) ;
#1174 = EDGE_CURVE ( 'NONE', #344, #570, #178, .T. ) ;
#1175 = AXIS2_PLACEMENT_3D ( 'NONE', #881, #536, #337 ) ;
#1176 = CARTESIAN_POINT ( 'NONE',  ( 0.000000000000000000, -17.49999999999999645, 45.00000000000000000 ) ) ;
#1177 = FACE_OUTER_BOUND ( 'NONE', #1052, .T. ) ;
#1178 = PLANE ( 'NONE',  #948 ) ;
#1179 = CIRCLE ( 'NONE', #200, 12.50000000000000000 ) ;
#1180 = ORIENTED_EDGE ( 'NONE', *, *, #772, .T. ) ;
#1181 = CARTESIAN_POINT ( 'NONE',  ( -14.50099999999999767, 17.49999999999999645, 75.00000000000000000 ) ) ;
#1182 = ADVANCED_FACE ( 'NONE', ( #648 ), #1022, .F. ) ;
#1183 = DIRECTION ( 'NONE',  ( -1.000000000000000000, -0.000000000000000000, -0.000000000000000000 ) ) ;
#1184 = CARTESIAN_POINT ( 'NONE',  ( -3.500000000000000000, 0.000000000000000000, 0.000000000000000000 ) ) ;
#1185 = DIRECTION ( 'NONE',  ( 1.000000000000000000, 0.000000000000000000, 0.000000000000000000 ) ) ;
#1186 = ORIENTED_EDGE ( 'NONE', *, *, #125, .T. ) ;
#1187 = DIRECTION ( 'NONE',  ( 1.000000000000000000, -0.000000000000000000, -0.000000000000000000 ) ) ;
#1188 = DIRECTION ( 'NONE',  ( 0.000000000000000000, 0.000000000000000000, -1.000000000000000000 ) ) ;
#1189 = MECHANICAL_CONTEXT ( 'NONE', #1131, 'mechanical' ) ;
#1190 = CARTESIAN_POINT ( 'NONE',  ( 0.000000000000000000, 3.500000000000000000, -2.000000000000000000 ) ) ;
#1191 = EDGE_CURVE ( 'NONE', #779, #497, #1100, .T. ) ;
#1192 = CARTESIAN_POINT ( 'NONE',  ( -2.000000000000000000, 17.49999999999999645, 40.99999999999999289 ) ) ;
#1193 = LINE ( 'NONE', #915, #4 ) ;
#1194 = DIRECTION ( 'NONE',  ( -1.000000000000000000, 0.000000000000000000, 0.000000000000000000 ) ) ;
#1195 = AXIS2_PLACEMENT_3D ( 'NONE', #807, #1188, #262 ) ;
#1196 = CARTESIAN_POINT ( 'NONE',  ( -14.50099999999999767, 20.49999999999999645, 39.00000000000000000 ) ) ;
ENDSEC;
END-ISO-10303-21;
