ISO-10303-21;
HEADER;
FILE_DESCRIPTION (( 'STEP AP203' ),
    '1' );
FILE_NAME ('M2.5 x 16.STEP_Default_sldprt.STEP',
    '2026-08-24T07:39:25',
    ( '' ),
    ( '' ),
    'SwSTEP 2.0',
    'SolidWorks 2020',
    '' );
FILE_SCHEMA (( 'CONFIG_CONTROL_DESIGN' ));
ENDSEC;

DATA;
#1 = DIRECTION ( 'NONE',  ( -1.000000000000000000, 0.000000000000000000, 0.000000000000000000 ) ) ;
#2 = EDGE_CURVE ( 'NONE', #129, #155, #324, .T. ) ;
#3 = CARTESIAN_POINT ( 'NONE',  ( 0.1570024089121033473, 0.004178264309976283467, 1.513418345244098302E-17 ) ) ;
#4 = AXIS2_PLACEMENT_3D ( 'NONE', #11, #512, #78 ) ;
#5 = CYLINDRICAL_SURFACE ( 'NONE', #565, 0.09842519685039370636 ) ;
#6 = CARTESIAN_POINT ( 'NONE',  ( 0.03086210018605220831, 0.000000000000000000, 0.000000000000000000 ) ) ;
#7 = DIRECTION ( 'NONE',  ( 0.000000000000000000, 1.224646799147351975E-16, -1.000000000000000000 ) ) ;
#8 = DIRECTION ( 'NONE',  ( 0.000000000000000000, 0.000000000000000000, 1.000000000000000000 ) ) ;
#9 = EDGE_CURVE ( 'NONE', #587, #383, #713, .T. ) ;
#10 = AXIS2_PLACEMENT_3D ( 'NONE', #280, #441, #117 ) ;
#11 = CARTESIAN_POINT ( 'NONE',  ( 0.1570024089121033473, -0.004178264309976299079, -1.458833186703647850E-17 ) ) ;
#12 = LINE ( 'NONE', #171, #458 ) ;
#13 = ORIENTED_EDGE ( 'NONE', *, *, #684, .F. ) ;
#14 = DIRECTION ( 'NONE',  ( -0.1136381605096604547, -0.9935222033130315378, -3.468864232593766920E-15 ) ) ;
#15 = PERSON_AND_ORGANIZATION ( #586, #163 ) ;
#16 = ORIENTED_EDGE ( 'NONE', *, *, #9, .T. ) ;
#17 = DIRECTION ( 'NONE',  ( 0.7956107408175021600, 0.6058081784656142998, 0.000000000000000000 ) ) ;
#18 = ADVANCED_FACE ( 'NONE', ( #203 ), #43, .T. ) ;
#19 = FACE_OUTER_BOUND ( 'NONE', #627, .T. ) ;
#20 = DIRECTION ( 'NONE',  ( 0.000000000000000000, 0.000000000000000000, 1.000000000000000000 ) ) ;
#21 = VERTEX_POINT ( 'NONE', #381 ) ;
#22 = AXIS2_PLACEMENT_3D ( 'NONE', #667, #499, #69 ) ;
#23 = DIRECTION ( 'NONE',  ( 0.000000000000000000, 1.000000000000000000, 1.224646799147353947E-16 ) ) ;
#24 = CARTESIAN_POINT ( 'NONE',  ( 0.06023622047244094058, 0.006889763779527558960, -0.006889763779527558960 ) ) ;
#25 = CARTESIAN_POINT ( 'NONE',  ( 0.7125984251968504601, 0.000000000000000000, 0.04921259842519685318 ) ) ;
#26 = ORIENTED_EDGE ( 'NONE', *, *, #219, .F. ) ;
#27 = DIRECTION ( 'NONE',  ( 0.000000000000000000, 1.000000000000000000, 0.000000000000000000 ) ) ;
#28 = DIRECTION ( 'NONE',  ( 0.000000000000000000, 0.000000000000000000, 1.000000000000000000 ) ) ;
#29 = ORIENTED_EDGE ( 'NONE', *, *, #313, .T. ) ;
#30 = DIRECTION ( 'NONE',  ( -1.000000000000000000, 0.000000000000000000, 0.000000000000000000 ) ) ;
#31 = APPLICATION_CONTEXT ( 'configuration controlled 3d designs of mechanical parts and assemblies' ) ;
#32 = APPROVAL_ROLE ( '' ) ;
#33 = ADVANCED_FACE ( 'NONE', ( #431 ), #491, .T. ) ;
#34 = ORIENTED_EDGE ( 'NONE', *, *, #151, .F. ) ;
#35 = VECTOR ( 'NONE', #88, 39.37007874015748854 ) ;
#36 =( NAMED_UNIT ( * ) SI_UNIT ( $, .STERADIAN. ) SOLID_ANGLE_UNIT ( ) );
#37 = ORIENTED_EDGE ( 'NONE', *, *, #190, .T. ) ;
#38 = AXIS2_PLACEMENT_3D ( 'NONE', #49, #212, #554 ) ;
#39 = ORIENTED_EDGE ( 'NONE', *, *, #632, .F. ) ;
#40 = COORDINATED_UNIVERSAL_TIME_OFFSET ( 5, 30, .AHEAD. ) ;
#41 = EDGE_LOOP ( 'NONE', ( #412, #255, #536, #522 ) ) ;
#42 = EDGE_CURVE ( 'NONE', #707, #76, #598, .T. ) ;
#43 = PLANE ( 'NONE',  #532 ) ;
#44 = APPROVAL_DATE_TIME ( #543, #423 ) ;
#45 = VERTEX_POINT ( 'NONE', #47 ) ;
#46 = CIRCLE ( 'NONE', #284, 0.09363694403064487526 ) ;
#47 = CARTESIAN_POINT ( 'NONE',  ( 0.007698422835822540423, 0.04689403452897882713, 0.01289898899940222429 ) ) ;
#48 = PERSON_AND_ORGANIZATION ( #586, #163 ) ;
#49 = CARTESIAN_POINT ( 'NONE',  ( 0.08267716535433070058, 0.000000000000000000, 0.000000000000000000 ) ) ;
#50 = EDGE_LOOP ( 'NONE', ( #350, #408, #262 ) ) ;
#51 = CIRCLE ( 'NONE', #259, 0.04921259842519685318 ) ;
#52 = CC_DESIGN_PERSON_AND_ORGANIZATION_ASSIGNMENT ( #530, #510, ( #585 ) ) ;
#53 = AXIS2_PLACEMENT_3D ( 'NONE', #189, #641, #293 ) ;
#54 = PLANE ( 'NONE',  #697 ) ;
#55 = EDGE_CURVE ( 'NONE', #45, #587, #362, .T. ) ;
#56 = DIRECTION ( 'NONE',  ( -1.000000000000000000, 0.000000000000000000, 0.000000000000000000 ) ) ;
#57 = AXIS2_PLACEMENT_3D ( 'NONE', #608, #617, #178 ) ;
#58 = LINE ( 'NONE', #716, #66 ) ;
#59 = CARTESIAN_POINT ( 'NONE',  ( 0.04035846629414551606, 0.000000000000000000, 0.000000000000000000 ) ) ;
#60 = DIRECTION ( 'NONE',  ( 0.6058081784656141888, -2.777860054547471253E-15, 0.7956107408175022710 ) ) ;
#61 = ADVANCED_FACE ( 'NONE', ( #524 ), #515, .T. ) ;
#62 = DIRECTION ( 'NONE',  ( -1.000000000000000000, 0.000000000000000000, 0.000000000000000000 ) ) ;
#63 = CARTESIAN_POINT ( 'NONE',  ( 0.06023622047244094058, -0.006889763779527558960, -0.006889763779527558960 ) ) ;
#64 = DIRECTION ( 'NONE',  ( 0.000000000000000000, 0.000000000000000000, 1.000000000000000000 ) ) ;
#65 = APPLICATION_CONTEXT ( 'configuration controlled 3d designs of mechanical parts and assemblies' ) ;
#66 = VECTOR ( 'NONE', #492, 39.37007874015748143 ) ;
#67 = CARTESIAN_POINT ( 'NONE',  ( 0.04035846629414551606, 1.060717700048887703E-17, -0.08661417322834646937 ) ) ;
#68 = ORIENTED_EDGE ( 'NONE', *, *, #714, .T. ) ;
#69 = DIRECTION ( 'NONE',  ( 0.000000000000000000, 0.000000000000000000, -1.000000000000000000 ) ) ;
#70 = EDGE_CURVE ( 'NONE', #433, #21, #175, .T. ) ;
#71 = ORIENTED_EDGE ( 'NONE', *, *, #599, .F. ) ;
#72 = DIRECTION ( 'NONE',  ( 0.7923367461350611096, -0.09062675200891021077, -0.6033152348021879607 ) ) ;
#73 = DIRECTION ( 'NONE',  ( -1.000000000000000000, 0.000000000000000000, 0.000000000000000000 ) ) ;
#74 = FACE_OUTER_BOUND ( 'NONE', #50, .T. ) ;
#75 = SECURITY_CLASSIFICATION_LEVEL ( 'unclassified' ) ;
#76 = VERTEX_POINT ( 'NONE', #353 ) ;
#77 = EDGE_CURVE ( 'NONE', #104, #642, #573, .T. ) ;
#78 = DIRECTION ( 'NONE',  ( 0.9935222033130314268, -0.1136381605096604824, 0.000000000000000000 ) ) ;
#79 = DIRECTION ( 'NONE',  ( -0.9935222033130314268, 0.1136381605096604269, 0.000000000000000000 ) ) ;
#80 = ORIENTED_EDGE ( 'NONE', *, *, #86, .F. ) ;
#81 = CIRCLE ( 'NONE', #358, 0.1481395187163887239 ) ;
#82 = CARTESIAN_POINT ( 'NONE',  ( 0.06023622047244094058, 0.006889763779527558960, 0.006889763779527558960 ) ) ;
#83 = DIRECTION ( 'NONE',  ( 0.6058081784656141888, 2.901089039354204293E-15, -0.7956107408175022710 ) ) ;
#84 = EDGE_LOOP ( 'NONE', ( #251, #210 ) ) ;
#85 = VECTOR ( 'NONE', #339, 39.37007874015748143 ) ;
#86 = EDGE_CURVE ( 'NONE', #526, #202, #405, .T. ) ;
#87 = DIRECTION ( 'NONE',  ( 0.000000000000000000, -1.000000000000000000, -2.323290369611795004E-16 ) ) ;
#88 = DIRECTION ( 'NONE',  ( 0.7923367461350614427, 0.6033152348021872946, -0.09062675200891213978 ) ) ;
#89 = ORIENTED_EDGE ( 'NONE', *, *, #211, .F. ) ;
#90 = FACE_BOUND ( 'NONE', #84, .T. ) ;
#91 = ADVANCED_FACE ( 'NONE', ( #74 ), #414, .T. ) ;
#92 = ORIENTED_EDGE ( 'NONE', *, *, #326, .F. ) ;
#93 = CIRCLE ( 'NONE', #225, 0.09363694403064487526 ) ;
#94 = EDGE_LOOP ( 'NONE', ( #68, #266, #71, #92 ) ) ;
#95 = ORIENTED_EDGE ( 'NONE', *, *, #714, .F. ) ;
#96 = VERTEX_POINT ( 'NONE', #691 ) ;
#97 = VERTEX_POINT ( 'NONE', #468 ) ;
#98 = ADVANCED_FACE ( 'NONE', ( #90, #136 ), #695, .F. ) ;
#99 = ORIENTED_EDGE ( 'NONE', *, *, #190, .F. ) ;
#100 = MECHANICAL_CONTEXT ( 'NONE', #65, 'mechanical' ) ;
#101 = CIRCLE ( 'NONE', #111, 0.1481395187163887239 ) ;
#102 = ORIENTED_EDGE ( 'NONE', *, *, #55, .T. ) ;
#103 = DIRECTION ( 'NONE',  ( 0.000000000000000000, 0.000000000000000000, 1.000000000000000000 ) ) ;
#104 = VERTEX_POINT ( 'NONE', #636 ) ;
#105 = ADVANCED_FACE ( 'NONE', ( #631 ), #584, .T. ) ;
#106 = CIRCLE ( 'NONE', #450, 0.09842519685039370636 ) ;
#107 = PLANE ( 'NONE',  #126 ) ;
#108 = AXIS2_PLACEMENT_3D ( 'NONE', #6, #226, #443 ) ;
#109 = EDGE_CURVE ( 'NONE', #290, #474, #307, .T. ) ;
#110 = DIRECTION ( 'NONE',  ( -1.000000000000000000, 0.000000000000000000, 0.000000000000000000 ) ) ;
#111 = AXIS2_PLACEMENT_3D ( 'NONE', #112, #509, #672 ) ;
#112 = CARTESIAN_POINT ( 'NONE',  ( 0.1251121671308748073, 0.04250924135581582441, 6.584087404098031282E-18 ) ) ;
#113 = ADVANCED_FACE ( 'NONE', ( #298 ), #471, .T. ) ;
#114 = CARTESIAN_POINT ( 'NONE',  ( 0.1570024089121033473, -1.157146581871515875E-17, 0.004178264309976291273 ) ) ;
#115 = DIRECTION ( 'NONE',  ( 0.000000000000000000, 0.000000000000000000, 1.000000000000000000 ) ) ;
#116 = CARTESIAN_POINT ( 'NONE',  ( 0.000000000000000000, 0.01377952755905529486, -0.05275590551181102983 ) ) ;
#117 = DIRECTION ( 'NONE',  ( 1.000000000000000000, 0.000000000000000000, 0.000000000000000000 ) ) ;
#118 = DIRECTION ( 'NONE',  ( -1.000000000000000000, 0.000000000000000000, 0.000000000000000000 ) ) ;
#119 = AXIS2_PLACEMENT_3D ( 'NONE', #461, #193, #577 ) ;
#120 = CARTESIAN_POINT ( 'NONE',  ( 0.08267716535433070058, 1.205361022782828805E-17, -0.09842519685039370636 ) ) ;
#121 = EDGE_LOOP ( 'NONE', ( #416, #29, #130, #481 ) ) ;
#122 = DIRECTION ( 'NONE',  ( 0.6058081784656141888, -0.7956107408175022710, -1.232289848067340264E-16 ) ) ;
#123 = FACE_OUTER_BOUND ( 'NONE', #592, .T. ) ;
#124 = EDGE_CURVE ( 'NONE', #633, #257, #647, .T. ) ;
#125 = ORIENTED_EDGE ( 'NONE', *, *, #70, .F. ) ;
#126 = AXIS2_PLACEMENT_3D ( 'NONE', #496, #218, #665 ) ;
#127 = DIRECTION ( 'NONE',  ( 0.6058081784656141888, 2.901089039354206265E-15, -0.7956107408175022710 ) ) ;
#128 = DIRECTION ( 'NONE',  ( -1.000000000000000000, 0.000000000000000000, 0.000000000000000000 ) ) ;
#129 = VERTEX_POINT ( 'NONE', #25 ) ;
#130 = ORIENTED_EDGE ( 'NONE', *, *, #475, .F. ) ;
#131 = DIRECTION ( 'NONE',  ( 1.000000000000000000, 0.000000000000000000, 0.000000000000000000 ) ) ;
#132 = DIRECTION ( 'NONE',  ( 0.000000000000000000, 1.000000000000000000, 0.000000000000000000 ) ) ;
#133 = ORIENTED_EDGE ( 'NONE', *, *, #432, .F. ) ;
#134 = CIRCLE ( 'NONE', #504, 0.1574241509847328357 ) ;
#135 = CARTESIAN_POINT ( 'NONE',  ( 0.007698422835822540423, -0.01289898899940204735, -0.04689403452897890345 ) ) ;
#136 = FACE_OUTER_BOUND ( 'NONE', #268, .T. ) ;
#137 = ORIENTED_EDGE ( 'NONE', *, *, #638, .T. ) ;
#138 = APPROVAL_PERSON_ORGANIZATION ( #15, #263, #32 ) ;
#139 = LOCAL_TIME ( 13, 9, 25.00000000000000000, #40 ) ;
#140 = DIRECTION ( 'NONE',  ( -0.9871686829601518109, 0.1129114506653763755, 0.1129114506653765698 ) ) ;
#141 = PLANE ( 'NONE',  #531 ) ;
#142 = PERSON_AND_ORGANIZATION ( #586, #163 ) ;
#143 = EDGE_LOOP ( 'NONE', ( #544, #310, #700 ) ) ;
#144 = CARTESIAN_POINT ( 'NONE',  ( 0.06023622047244094058, 0.006889763779527558960, 0.006889763779527558960 ) ) ;
#145 = DATE_AND_TIME ( #650, #497 ) ;
#146 = ADVANCED_FACE ( 'NONE', ( #410 ), #141, .F. ) ;
#147 = ORIENTED_EDGE ( 'NONE', *, *, #177, .F. ) ;
#148 = AXIS2_PLACEMENT_3D ( 'NONE', #288, #630, #366 ) ;
#149 = VERTEX_POINT ( 'NONE', #505 ) ;
#150 = APPROVAL_ROLE ( '' ) ;
#151 = EDGE_CURVE ( 'NONE', #240, #594, #513, .T. ) ;
#152 = ORIENTED_EDGE ( 'NONE', *, *, #549, .F. ) ;
#153 = DIRECTION ( 'NONE',  ( -0.1136381605096602604, 1.297944863177000830E-16, -0.9935222033130315378 ) ) ;
#154 = DIRECTION ( 'NONE',  ( 1.000000000000000000, 0.000000000000000000, 0.000000000000000000 ) ) ;
#155 = VERTEX_POINT ( 'NONE', #165 ) ;
#156 = DIRECTION ( 'NONE',  ( -1.000000000000000000, 0.000000000000000000, 0.000000000000000000 ) ) ;
#157 = CARTESIAN_POINT ( 'NONE',  ( 0.1574803149606299191, -1.157146581871515875E-17, 0.000000000000000000 ) ) ;
#158 = ADVANCED_FACE ( 'NONE', ( #123 ), #555, .T. ) ;
#159 = AXIS2_PLACEMENT_3D ( 'NONE', #612, #285, #173 ) ;
#160 = CARTESIAN_POINT ( 'NONE',  ( 0.06928457977087637554, 0.000000000000000000, -0.005854820722516976966 ) ) ;
#161 = DIRECTION ( 'NONE',  ( 0.000000000000000000, 0.000000000000000000, 1.000000000000000000 ) ) ;
#162 = EDGE_CURVE ( 'NONE', #433, #383, #228, .T. ) ;
#163 = ORGANIZATION ( 'UNSPECIFIED', 'UNSPECIFIED', '' ) ;
#164 = CARTESIAN_POINT ( 'NONE',  ( 0.7125984251968504601, 0.000000000000000000, 0.000000000000000000 ) ) ;
#165 = CARTESIAN_POINT ( 'NONE',  ( 0.08267716535433070058, 0.000000000000000000, 0.04921259842519685318 ) ) ;
#166 = ADVANCED_FACE ( 'NONE', ( #394 ), #561, .T. ) ;
#167 = DIRECTION ( 'NONE',  ( 0.000000000000000000, 1.000000000000000000, 1.224646799147351975E-16 ) ) ;
#168 = CIRCLE ( 'NONE', #239, 0.1481395187163887517 ) ;
#169 = CARTESIAN_POINT ( 'NONE',  ( 0.04035846629414551606, 0.000000000000000000, 0.09842519685039370636 ) ) ;
#170 = DIRECTION ( 'NONE',  ( -0.9935222033130314268, 0.000000000000000000, 0.1136381605096604408 ) ) ;
#171 = CARTESIAN_POINT ( 'NONE',  ( -1.000000000000000000, 0.000000000000000000, 0.09842519685039370636 ) ) ;
#172 = LOCAL_TIME ( 13, 9, 25.00000000000000000, #595 ) ;
#173 = DIRECTION ( 'NONE',  ( 0.000000000000000000, 1.000000000000000000, 0.000000000000000000 ) ) ;
#174 = ORIENTED_EDGE ( 'NONE', *, *, #2, .T. ) ;
#175 = CIRCLE ( 'NONE', #589, 0.1574241509847327802 ) ;
#176 = CARTESIAN_POINT ( 'NONE',  ( 0.000000000000000000, 0.01377952755905494098, 0.05275590551181102983 ) ) ;
#177 = EDGE_CURVE ( 'NONE', #231, #533, #101, .T. ) ;
#178 = DIRECTION ( 'NONE',  ( 0.000000000000000000, 0.000000000000000000, 1.000000000000000000 ) ) ;
#179 = AXIS2_PLACEMENT_3D ( 'NONE', #192, #237, #79 ) ;
#180 = ORIENTED_EDGE ( 'NONE', *, *, #77, .F. ) ;
#181 = DIRECTION ( 'NONE',  ( 0.000000000000000000, -1.224646799147354933E-16, 1.000000000000000000 ) ) ;
#182 = DIRECTION ( 'NONE',  ( 0.000000000000000000, 1.000000000000000000, 7.744301232039319147E-17 ) ) ;
#183 = DIRECTION ( 'NONE',  ( -0.1136381605096604547, 0.000000000000000000, 0.9935222033130315378 ) ) ;
#184 = ORIENTED_EDGE ( 'NONE', *, *, #151, .T. ) ;
#185 = CIRCLE ( 'NONE', #629, 0.1574241509847328357 ) ;
#186 = DIRECTION ( 'NONE',  ( -1.000000000000000000, 0.000000000000000000, 0.000000000000000000 ) ) ;
#187 = ORIENTED_EDGE ( 'NONE', *, *, #124, .T. ) ;
#188 = FACE_OUTER_BOUND ( 'NONE', #260, .T. ) ;
#189 = CARTESIAN_POINT ( 'NONE',  ( 0.04035846629414551606, 0.000000000000000000, 0.000000000000000000 ) ) ;
#190 = EDGE_CURVE ( 'NONE', #104, #129, #546, .T. ) ;
#191 = EDGE_LOOP ( 'NONE', ( #102, #651, #687 ) ) ;
#192 = CARTESIAN_POINT ( 'NONE',  ( 0.06928457977087637554, 0.005854820722516976966, 2.044199729494011898E-17 ) ) ;
#193 = DIRECTION ( 'NONE',  ( -1.000000000000000000, 0.000000000000000000, 0.000000000000000000 ) ) ;
#194 = ORIENTED_EDGE ( 'NONE', *, *, #42, .T. ) ;
#195 = CIRCLE ( 'NONE', #22, 0.01181102362204724046 ) ;
#196 = DIRECTION ( 'NONE',  ( 0.000000000000000000, 0.000000000000000000, 1.000000000000000000 ) ) ;
#197 = DIRECTION ( 'NONE',  ( -1.000000000000000000, 0.000000000000000000, 0.000000000000000000 ) ) ;
#198 = APPROVAL_DATE_TIME ( #235, #263 ) ;
#199 = ORIENTED_EDGE ( 'NONE', *, *, #318, .F. ) ;
#200 = CIRCLE ( 'NONE', #421, 0.1481395187163887517 ) ;
#201 =( NAMED_UNIT ( * ) PLANE_ANGLE_UNIT ( ) SI_UNIT ( $, .RADIAN. ) );
#202 = VERTEX_POINT ( 'NONE', #388 ) ;
#203 = FACE_OUTER_BOUND ( 'NONE', #466, .T. ) ;
#204 = PERSON_AND_ORGANIZATION ( #586, #163 ) ;
#205 = VERTEX_POINT ( 'NONE', #282 ) ;
#206 = VECTOR ( 'NONE', #252, 39.37007874015748143 ) ;
#207 = ORIENTED_EDGE ( 'NONE', *, *, #444, .T. ) ;
#208 = EDGE_LOOP ( 'NONE', ( #484, #295, #39, #147, #363 ) ) ;
#209 = AXIS2_PLACEMENT_3D ( 'NONE', #157, #7, #167 ) ;
#210 = ORIENTED_EDGE ( 'NONE', *, *, #549, .T. ) ;
#211 = EDGE_CURVE ( 'NONE', #633, #290, #12, .T. ) ;
#212 = DIRECTION ( 'NONE',  ( -1.000000000000000000, 0.000000000000000000, 0.000000000000000000 ) ) ;
#213 = ORIENTED_EDGE ( 'NONE', *, *, #313, .F. ) ;
#214 = AXIS2_PLACEMENT_3D ( 'NONE', #656, #153, #379 ) ;
#215 = APPROVAL ( #538, 'UNSPECIFIED' ) ;
#216 = CARTESIAN_POINT ( 'NONE',  ( 0.03086210018605220831, 0.000000000000000000, 0.000000000000000000 ) ) ;
#217 = PRODUCT_RELATED_PRODUCT_CATEGORY ( 'detail', '', ( #359 ) ) ;
#218 = DIRECTION ( 'NONE',  ( 0.6058081784656141888, -2.777860054547467703E-15, 0.7956107408175022710 ) ) ;
#219 = EDGE_CURVE ( 'NONE', #433, #578, #168, .T. ) ;
#220 = VECTOR ( 'NONE', #72, 39.37007874015748854 ) ;
#221 = DIRECTION ( 'NONE',  ( -0.9935222033130314268, -0.1136381605096604408, 0.000000000000000000 ) ) ;
#222 = CARTESIAN_POINT ( 'NONE',  ( 0.03086210018605220831, 0.000000000000000000, 0.09363694403064487526 ) ) ;
#223 = DIRECTION ( 'NONE',  ( -0.9935222033130314268, 0.000000000000000000, 0.1136381605096604408 ) ) ;
#224 = CARTESIAN_POINT ( 'NONE',  ( 0.06023622047244094058, 0.006889763779527558960, 0.006889763779527558960 ) ) ;
#225 = AXIS2_PLACEMENT_3D ( 'NONE', #356, #30, #248 ) ;
#226 = DIRECTION ( 'NONE',  ( -1.000000000000000000, 0.000000000000000000, 0.000000000000000000 ) ) ;
#227 = LINE ( 'NONE', #453, #407 ) ;
#228 = LINE ( 'NONE', #455, #277 ) ;
#229 = VECTOR ( 'NONE', #668, 39.37007874015748143 ) ;
#230 = AXIS2_PLACEMENT_3D ( 'NONE', #534, #645, #132 ) ;
#231 = VERTEX_POINT ( 'NONE', #676 ) ;
#232 = EDGE_CURVE ( 'NONE', #474, #290, #652, .T. ) ;
#233 = CARTESIAN_POINT ( 'NONE',  ( 0.1251121671308748073, 0.04250924135581582441, 6.584087404098031282E-18 ) ) ;
#234 = DIRECTION ( 'NONE',  ( 0.6058081784656141888, 0.7956107408175022710, 0.000000000000000000 ) ) ;
#235 = DATE_AND_TIME ( #411, #337 ) ;
#236 = ORIENTED_EDGE ( 'NONE', *, *, #243, .F. ) ;
#237 = DIRECTION ( 'NONE',  ( -0.1136381605096604408, -0.9935222033130315378, -3.468864232593767314E-15 ) ) ;
#238 = CARTESIAN_POINT ( 'NONE',  ( -1.000000000000000000, 6.026805113914134012E-18, -0.04921259842519685318 ) ) ;
#239 = AXIS2_PLACEMENT_3D ( 'NONE', #558, #234, #347 ) ;
#240 = VERTEX_POINT ( 'NONE', #680 ) ;
#241 = FACE_OUTER_BOUND ( 'NONE', #322, .T. ) ;
#242 = ORIENTED_EDGE ( 'NONE', *, *, #606, .T. ) ;
#243 = EDGE_CURVE ( 'NONE', #526, #97, #429, .T. ) ;
#244 = LINE ( 'NONE', #583, #373 ) ;
#245 = DIRECTION ( 'NONE',  ( -1.000000000000000000, 0.000000000000000000, 0.000000000000000000 ) ) ;
#246 = EDGE_LOOP ( 'NONE', ( #517, #300, #213, #16 ) ) ;
#247 = AXIS2_PLACEMENT_3D ( 'NONE', #688, #341, #562 ) ;
#248 = DIRECTION ( 'NONE',  ( 0.000000000000000000, 0.000000000000000000, 1.000000000000000000 ) ) ;
#249 = CARTESIAN_POINT ( 'NONE',  ( 0.1570024089121033473, -1.157146581871515875E-17, 0.004178264309976291273 ) ) ;
#250 = EDGE_CURVE ( 'NONE', #304, #578, #415, .T. ) ;
#251 = ORIENTED_EDGE ( 'NONE', *, *, #673, .T. ) ;
#252 = DIRECTION ( 'NONE',  ( -1.000000000000000000, 0.000000000000000000, 0.000000000000000000 ) ) ;
#253 = DIRECTION ( 'NONE',  ( -0.1136381605096602604, 0.9935222033130315378, 3.598658718911462097E-15 ) ) ;
#254 = VECTOR ( 'NONE', #156, 39.37007874015748143 ) ;
#255 = ORIENTED_EDGE ( 'NONE', *, *, #529, .T. ) ;
#256 =( CONVERSION_BASED_UNIT ( 'INCH', #368 ) LENGTH_UNIT ( ) NAMED_UNIT ( #479 ) );
#257 = VERTEX_POINT ( 'NONE', #120 ) ;
#258 = ADVANCED_FACE ( 'NONE', ( #401 ), #340, .T. ) ;
#259 = AXIS2_PLACEMENT_3D ( 'NONE', #164, #110, #103 ) ;
#260 = EDGE_LOOP ( 'NONE', ( #374, #99 ) ) ;
#261 = DATE_AND_TIME ( #376, #139 ) ;
#262 = ORIENTED_EDGE ( 'NONE', *, *, #606, .F. ) ;
#263 = APPROVAL ( #348, 'UNSPECIFIED' ) ;
#264 = DIRECTION ( 'NONE',  ( -0.1136381605096604408, 0.000000000000000000, 0.9935222033130315378 ) ) ;
#265 = PERSON_AND_ORGANIZATION ( #586, #163 ) ;
#266 = ORIENTED_EDGE ( 'NONE', *, *, #371, .T. ) ;
#267 = AXIS2_PLACEMENT_3D ( 'NONE', #114, #335, #435 ) ;
#268 = EDGE_LOOP ( 'NONE', ( #574, #434 ) ) ;
#269 = DIRECTION ( 'NONE',  ( 0.000000000000000000, 0.000000000000000000, 1.000000000000000000 ) ) ;
#270 = CARTESIAN_POINT ( 'NONE',  ( 0.06993717359243366294, -0.005780177638351952953, 0.005780177638351929534 ) ) ;
#271 = CIRCLE ( 'NONE', #385, 0.01181102362204724046 ) ;
#272 = ORIENTED_EDGE ( 'NONE', *, *, #638, .F. ) ;
#273 = EDGE_CURVE ( 'NONE', #97, #96, #134, .T. ) ;
#274 = DIRECTION ( 'NONE',  ( 0.6058081784656141888, -0.7956107408175022710, -1.232289848067340510E-16 ) ) ;
#275 = VECTOR ( 'NONE', #128, 39.37007874015748143 ) ;
#276 = CARTESIAN_POINT ( 'NONE',  ( 0.06023622047244094058, -0.006889763779527558960, -0.006889763779527558960 ) ) ;
#277 = VECTOR ( 'NONE', #502, 39.37007874015748854 ) ;
#278 = DIRECTION ( 'NONE',  ( -1.000000000000000000, 0.000000000000000000, 0.000000000000000000 ) ) ;
#279 = APPROVAL_PERSON_ORGANIZATION ( #204, #423, #150 ) ;
#280 = CARTESIAN_POINT ( 'NONE',  ( 0.1574803149606299191, -1.157146581871515875E-17, 0.000000000000000000 ) ) ;
#281 = DIRECTION ( 'NONE',  ( -0.9935222033130314268, -0.1136381605096604408, 0.000000000000000000 ) ) ;
#282 = CARTESIAN_POINT ( 'NONE',  ( 0.03086210018605220831, 1.176041430336759792E-17, -0.09363694403064487526 ) ) ;
#283 = DIRECTION ( 'NONE',  ( 0.6058081784656141888, 0.7956107408175022710, 0.000000000000000000 ) ) ;
#284 = AXIS2_PLACEMENT_3D ( 'NONE', #216, #56, #438 ) ;
#285 = DIRECTION ( 'NONE',  ( -0.1136381605096604408, 0.000000000000000000, 0.9935222033130315378 ) ) ;
#286 = EDGE_CURVE ( 'NONE', #290, #594, #195, .T. ) ;
#287 = CARTESIAN_POINT ( 'NONE',  ( 0.06023622047244094058, -0.006889763779527558960, -0.006889763779527558960 ) ) ;
#288 = CARTESIAN_POINT ( 'NONE',  ( 0.06928457977087637554, 0.000000000000000000, 0.005854820722516976966 ) ) ;
#289 = VECTOR ( 'NONE', #507, 39.37007874015748854 ) ;
#290 = VERTEX_POINT ( 'NONE', #169 ) ;
#291 = CARTESIAN_POINT ( 'NONE',  ( 0.08267716535433070058, 0.000000000000000000, 0.000000000000000000 ) ) ;
#292 = DIRECTION ( 'NONE',  ( -1.000000000000000000, 0.000000000000000000, 0.000000000000000000 ) ) ;
#293 = DIRECTION ( 'NONE',  ( 0.000000000000000000, 0.000000000000000000, 1.000000000000000000 ) ) ;
#294 = DATE_TIME_ROLE ( 'classification_date' ) ;
#295 = ORIENTED_EDGE ( 'NONE', *, *, #610, .F. ) ;
#296 = CARTESIAN_POINT ( 'NONE',  ( 0.1251121671308748073, -0.04250924135581582441, 0.000000000000000000 ) ) ;
#297 = ADVANCED_FACE ( 'NONE', ( #447 ), #563, .T. ) ;
#298 = FACE_OUTER_BOUND ( 'NONE', #315, .T. ) ;
#299 = VECTOR ( 'NONE', #694, 39.37007874015748854 ) ;
#300 = ORIENTED_EDGE ( 'NONE', *, *, #610, .T. ) ;
#301 = ADVANCED_FACE ( 'NONE', ( #397 ), #621, .T. ) ;
#302 = PLANE ( 'NONE',  #390 ) ;
#303 = DIRECTION ( 'NONE',  ( 0.000000000000000000, -1.000000000000000000, -3.646367363483920379E-15 ) ) ;
#304 = VERTEX_POINT ( 'NONE', #527 ) ;
#305 = CC_DESIGN_APPROVAL ( #263, ( #585 ) ) ;
#306 = DESIGN_CONTEXT ( 'detailed design', #31, 'design' ) ;
#307 = CIRCLE ( 'NONE', #53, 0.09842519685039370636 ) ;
#308 = FACE_OUTER_BOUND ( 'NONE', #143, .T. ) ;
#309 = CARTESIAN_POINT ( 'NONE',  ( 0.06928457977087637554, -0.005854820722516976966, -2.044199729494011898E-17 ) ) ;
#310 = ORIENTED_EDGE ( 'NONE', *, *, #599, .T. ) ;
#311 = DIRECTION ( 'NONE',  ( 0.9935222033130314268, 0.000000000000000000, 0.1136381605096604547 ) ) ;
#312 = PERSON_AND_ORGANIZATION_ROLE ( 'design_owner' ) ;
#313 = EDGE_CURVE ( 'NONE', #587, #202, #643, .T. ) ;
#314 = EDGE_LOOP ( 'NONE', ( #487, #194, #425 ) ) ;
#315 = EDGE_LOOP ( 'NONE', ( #604, #637, #426, #662, #133, #354, #483, #13, #125, #706, #506 ) ) ;
#316 = PERSON_AND_ORGANIZATION_ROLE ( 'creator' ) ;
#317 = ORIENTED_EDGE ( 'NONE', *, *, #286, .F. ) ;
#318 = EDGE_CURVE ( 'NONE', #304, #205, #93, .T. ) ;
#319 = AXIS2_PLACEMENT_3D ( 'NONE', #683, #118, #575 ) ;
#320 = ORIENTED_EDGE ( 'NONE', *, *, #711, .T. ) ;
#321 = CALENDAR_DATE ( 2026, 24, 8 ) ;
#322 = EDGE_LOOP ( 'NONE', ( #452, #597, #95 ) ) ;
#323 = ADVANCED_FACE ( 'NONE', ( #19 ), #519, .T. ) ;
#324 = LINE ( 'NONE', #659, #254 ) ;
#325 = AXIS2_PLACEMENT_3D ( 'NONE', #567, #334, #223 ) ;
#326 = EDGE_CURVE ( 'NONE', #422, #582, #591, .T. ) ;
#327 = ORIENTED_EDGE ( 'NONE', *, *, #444, .F. ) ;
#328 = CARTESIAN_POINT ( 'NONE',  ( 0.007698422835822540423, -0.04689403452897882713, -0.01289898899940220521 ) ) ;
#329 =( GEOMETRIC_REPRESENTATION_CONTEXT ( 3 ) GLOBAL_UNCERTAINTY_ASSIGNED_CONTEXT ( ( #566 ) ) GLOBAL_UNIT_ASSIGNED_CONTEXT ( ( #256, #201, #36 ) ) REPRESENTATION_CONTEXT ( 'NONE', 'WORKASPACE' ) );
#330 = AXIS2_PLACEMENT_3D ( 'NONE', #521, #245, #28 ) ;
#331 = CARTESIAN_POINT ( 'NONE',  ( 0.1251121671308748073, 1.368487571034944951E-16, -0.04250924135581582441 ) ) ;
#332 = CARTESIAN_POINT ( 'NONE',  ( 0.007250774900580414691, 0.04723489063653244641, 0.000000000000000000 ) ) ;
#333 = AXIS2_PLACEMENT_3D ( 'NONE', #59, #73, #8 ) ;
#334 = DIRECTION ( 'NONE',  ( -0.1136381605096604547, 1.297944863177000337E-16, -0.9935222033130315378 ) ) ;
#335 = DIRECTION ( 'NONE',  ( -0.1136381605096604547, 0.000000000000000000, 0.9935222033130315378 ) ) ;
#336 = CC_DESIGN_PERSON_AND_ORGANIZATION_ASSIGNMENT ( #710, #473, ( #596 ) ) ;
#337 = LOCAL_TIME ( 13, 9, 25.00000000000000000, #516 ) ;
#338 = DIRECTION ( 'NONE',  ( -0.1136381605096604408, -0.9935222033130315378, -3.468864232593767314E-15 ) ) ;
#339 = DIRECTION ( 'NONE',  ( 0.000000000000000000, -1.548860246407864815E-16, 1.000000000000000000 ) ) ;
#340 = PLANE ( 'NONE',  #472 ) ;
#341 = DIRECTION ( 'NONE',  ( -0.1136381605096602604, 0.9935222033130315378, 3.598658718911462097E-15 ) ) ;
#342 = VECTOR ( 'NONE', #419, 39.37007874015748854 ) ;
#343 = CC_DESIGN_PERSON_AND_ORGANIZATION_ASSIGNMENT ( #48, #312, ( #359 ) ) ;
#344 = DIRECTION ( 'NONE',  ( -1.000000000000000000, 0.000000000000000000, 0.000000000000000000 ) ) ;
#345 = ORIENTED_EDGE ( 'NONE', *, *, #109, .T. ) ;
#346 = ORIENTED_EDGE ( 'NONE', *, *, #162, .F. ) ;
#347 = DIRECTION ( 'NONE',  ( -0.7956107408175021600, 0.6058081784656141888, 0.000000000000000000 ) ) ;
#348 = APPROVAL_STATUS ( 'not_yet_approved' ) ;
#349 = CIRCLE ( 'NONE', #38, 0.04921259842519685318 ) ;
#350 = ORIENTED_EDGE ( 'NONE', *, *, #273, .T. ) ;
#351 = CARTESIAN_POINT ( 'NONE',  ( 0.08267716535433070058, 6.026805113914134012E-18, -0.04921259842519685318 ) ) ;
#352 = DIRECTION ( 'NONE',  ( -0.7956107408175021600, 0.000000000000000000, -0.6058081784656141888 ) ) ;
#353 = CARTESIAN_POINT ( 'NONE',  ( 0.001186545375970110301, -0.01364381158467939219, -0.01364381158467944943 ) ) ;
#354 = ORIENTED_EDGE ( 'NONE', *, *, #498, .F. ) ;
#355 = ADVANCED_FACE ( 'NONE', ( #308 ), #418, .T. ) ;
#356 = CARTESIAN_POINT ( 'NONE',  ( 0.03086210018605220831, 0.000000000000000000, 0.000000000000000000 ) ) ;
#357 = CARTESIAN_POINT ( 'NONE',  ( 0.000000000000000000, -0.05275590551181102983, 0.01377952755905511792 ) ) ;
#358 = AXIS2_PLACEMENT_3D ( 'NONE', #331, #60, #387 ) ;
#359 = PRODUCT ( 'M2.5 x 16.STEP_Default_sldprt', 'M2.5 x 16.STEP_Default_sldprt', '', ( #100 ) ) ;
#360 = ORIENTED_EDGE ( 'NONE', *, *, #77, .T. ) ;
#361 = LINE ( 'NONE', #640, #206 ) ;
#362 = LINE ( 'NONE', #686, #342 ) ;
#363 = ORIENTED_EDGE ( 'NONE', *, *, #711, .F. ) ;
#364 = AXIS2_PLACEMENT_3D ( 'NONE', #623, #14, #403 ) ;
#365 = EDGE_CURVE ( 'NONE', #257, #474, #361, .T. ) ;
#366 = DIRECTION ( 'NONE',  ( -0.9935222033130314268, 0.000000000000000000, 0.1136381605096602465 ) ) ;
#367 = DIRECTION ( 'NONE',  ( 0.000000000000000000, 1.000000000000000000, 0.000000000000000000 ) ) ;
#368 = LENGTH_MEASURE_WITH_UNIT ( LENGTH_MEASURE( 0.02539999999999999897 ), #570 );
#369 = EDGE_LOOP ( 'NONE', ( #488, #693, #537 ) ) ;
#370 = ORIENTED_EDGE ( 'NONE', *, *, #603, .F. ) ;
#371 = EDGE_CURVE ( 'NONE', #707, #383, #244, .T. ) ;
#372 = PERSON_AND_ORGANIZATION ( #586, #163 ) ;
#373 = VECTOR ( 'NONE', #182, 39.37007874015748143 ) ;
#374 = ORIENTED_EDGE ( 'NONE', *, *, #568, .F. ) ;
#375 = ORIENTED_EDGE ( 'NONE', *, *, #428, .T. ) ;
#376 = CALENDAR_DATE ( 2026, 24, 8 ) ;
#377 = ORIENTED_EDGE ( 'NONE', *, *, #162, .T. ) ;
#378 = EDGE_CURVE ( 'NONE', #21, #383, #470, .T. ) ;
#379 = DIRECTION ( 'NONE',  ( -0.9935222033130314268, 0.000000000000000000, 0.1136381605096602465 ) ) ;
#380 = EDGE_CURVE ( 'NONE', #587, #149, #698, .T. ) ;
#381 = CARTESIAN_POINT ( 'NONE',  ( 0.001186545375970110301, 0.01364381158467950841, -0.01364381158467944943 ) ) ;
#382 = FACE_OUTER_BOUND ( 'NONE', #41, .T. ) ;
#383 = VERTEX_POINT ( 'NONE', #24 ) ;
#384 = DIRECTION ( 'NONE',  ( -1.000000000000000000, 0.000000000000000000, 0.000000000000000000 ) ) ;
#385 = AXIS2_PLACEMENT_3D ( 'NONE', #67, #23, #181 ) ;
#386 = EDGE_CURVE ( 'NONE', #205, #240, #708, .T. ) ;
#387 = DIRECTION ( 'NONE',  ( 0.7956107408175021600, 0.000000000000000000, -0.6058081784656142998 ) ) ;
#388 = CARTESIAN_POINT ( 'NONE',  ( 0.06023622047244094058, -0.006889763779527558960, 0.006889763779527558960 ) ) ;
#389 = CARTESIAN_POINT ( 'NONE',  ( 0.1570024089121033473, -1.102561423331070815E-17, -0.004178264309976283467 ) ) ;
#390 = AXIS2_PLACEMENT_3D ( 'NONE', #404, #464, #690 ) ;
#391 = CARTESIAN_POINT ( 'NONE',  ( 0.7125984251968504601, 0.000000000000000000, 0.000000000000000000 ) ) ;
#392 = LINE ( 'NONE', #270, #675 ) ;
#393 = AXIS2_PLACEMENT_3D ( 'NONE', #291, #186, #503 ) ;
#394 = FACE_OUTER_BOUND ( 'NONE', #369, .T. ) ;
#395 = CARTESIAN_POINT ( 'NONE',  ( 0.000000000000000000, -0.05275590551181102983, -0.01377952755905511792 ) ) ;
#396 = ADVANCED_FACE ( 'NONE', ( #413 ), #302, .F. ) ;
#397 = FACE_OUTER_BOUND ( 'NONE', #191, .T. ) ;
#398 = AXIS2_PLACEMENT_3D ( 'NONE', #588, #197, #20 ) ;
#399 = ORIENTED_EDGE ( 'NONE', *, *, #568, .T. ) ;
#400 = CARTESIAN_POINT ( 'NONE',  ( 0.08267716535433070058, 0.000000000000000000, 0.09842519685039370636 ) ) ;
#401 = FACE_OUTER_BOUND ( 'NONE', #246, .T. ) ;
#402 = ORIENTED_EDGE ( 'NONE', *, *, #386, .F. ) ;
#403 = DIRECTION ( 'NONE',  ( 0.9935222033130314268, -0.1136381605096604824, 0.000000000000000000 ) ) ;
#404 = CARTESIAN_POINT ( 'NONE',  ( 0.06023622047244094058, 0.006889763779527558960, 0.006889763779527558960 ) ) ;
#405 = LINE ( 'NONE', #357, #35 ) ;
#406 = CALENDAR_DATE ( 2026, 24, 8 ) ;
#407 = VECTOR ( 'NONE', #674, 39.37007874015748854 ) ;
#408 = ORIENTED_EDGE ( 'NONE', *, *, #475, .T. ) ;
#409 = CARTESIAN_POINT ( 'NONE',  ( 0.7125984251968504601, 0.04921259842519685318, 0.000000000000000000 ) ) ;
#410 = FACE_OUTER_BOUND ( 'NONE', #94, .T. ) ;
#411 = CALENDAR_DATE ( 2026, 24, 8 ) ;
#412 = ORIENTED_EDGE ( 'NONE', *, *, #365, .F. ) ;
#413 = FACE_OUTER_BOUND ( 'NONE', #454, .T. ) ;
#414 = PLANE ( 'NONE',  #437 ) ;
#415 = CIRCLE ( 'NONE', #10, 0.1574803149606299191 ) ;
#416 = ORIENTED_EDGE ( 'NONE', *, *, #654, .T. ) ;
#417 = ADVANCED_FACE ( 'NONE', ( #188 ), #523, .T. ) ;
#418 = PLANE ( 'NONE',  #179 ) ;
#419 = DIRECTION ( 'NONE',  ( 0.7923367461350614427, -0.6033152348021872946, -0.09062675200891223692 ) ) ;
#420 = APPROVAL_ROLE ( '' ) ;
#421 = AXIS2_PLACEMENT_3D ( 'NONE', #296, #283, #518 ) ;
#422 = VERTEX_POINT ( 'NONE', #135 ) ;
#423 = APPROVAL ( #427, 'UNSPECIFIED' ) ;
#424 = CC_DESIGN_DATE_AND_TIME_ASSIGNMENT ( #692, #294, ( #585 ) ) ;
#425 = ORIENTED_EDGE ( 'NONE', *, *, #432, .T. ) ;
#426 = ORIENTED_EDGE ( 'NONE', *, *, #556, .T. ) ;
#427 = APPROVAL_STATUS ( 'not_yet_approved' ) ;
#428 = EDGE_CURVE ( 'NONE', #681, #96, #81, .T. ) ;
#429 = CIRCLE ( 'NONE', #325, 0.1574241509847328357 ) ;
#430 = ORIENTED_EDGE ( 'NONE', *, *, #273, .F. ) ;
#431 = FACE_OUTER_BOUND ( 'NONE', #540, .T. ) ;
#432 = EDGE_CURVE ( 'NONE', #76, #533, #670, .T. ) ;
#433 = VERTEX_POINT ( 'NONE', #559 ) ;
#434 = ORIENTED_EDGE ( 'NONE', *, *, #529, .F. ) ;
#435 = DIRECTION ( 'NONE',  ( 0.9935222033130314268, 0.000000000000000000, 0.1136381605096604547 ) ) ;
#436 = ORIENTED_EDGE ( 'NONE', *, *, #365, .T. ) ;
#437 = AXIS2_PLACEMENT_3D ( 'NONE', #309, #253, #465 ) ;
#438 = DIRECTION ( 'NONE',  ( 0.000000000000000000, 0.000000000000000000, 1.000000000000000000 ) ) ;
#439 = CARTESIAN_POINT ( 'NONE',  ( 0.08267716535433070058, 0.000000000000000000, 0.000000000000000000 ) ) ;
#440 = CIRCLE ( 'NONE', #209, 0.1574803149606299191 ) ;
#441 = DIRECTION ( 'NONE',  ( 0.000000000000000000, 0.000000000000000000, 1.000000000000000000 ) ) ;
#442 = LINE ( 'NONE', #116, #229 ) ;
#443 = DIRECTION ( 'NONE',  ( 0.000000000000000000, 0.000000000000000000, 1.000000000000000000 ) ) ;
#444 = EDGE_CURVE ( 'NONE', #594, #304, #46, .T. ) ;
#445 = DIRECTION ( 'NONE',  ( -0.1136381605096604547, 1.297944863177000337E-16, -0.9935222033130315378 ) ) ;
#446 = VECTOR ( 'NONE', #87, 39.37007874015748143 ) ;
#447 = FACE_OUTER_BOUND ( 'NONE', #314, .T. ) ;
#448 = ADVANCED_FACE ( 'NONE', ( #552 ), #54, .F. ) ;
#449 = CYLINDRICAL_SURFACE ( 'NONE', #319, 0.04921259842519685318 ) ;
#450 = AXIS2_PLACEMENT_3D ( 'NONE', #439, #278, #605 ) ;
#451 = DIRECTION ( 'NONE',  ( -0.9935222033130314268, 0.1136381605096604269, 0.000000000000000000 ) ) ;
#452 = ORIENTED_EDGE ( 'NONE', *, *, #498, .T. ) ;
#453 = CARTESIAN_POINT ( 'NONE',  ( 0.000000000000000000, -0.01377952755905492190, -0.05275590551181102983 ) ) ;
#454 = EDGE_LOOP ( 'NONE', ( #377, #677, #717, #272, #26 ) ) ;
#455 = CARTESIAN_POINT ( 'NONE',  ( 0.000000000000000000, 0.05275590551181102983, -0.01377952755905511792 ) ) ;
#456 = ORIENTED_EDGE ( 'NONE', *, *, #701, .T. ) ;
#457 = LINE ( 'NONE', #63, #85 ) ;
#458 = VECTOR ( 'NONE', #344, 39.37007874015748143 ) ;
#459 = ADVANCED_FACE ( 'NONE', ( #495 ), #5, .T. ) ;
#460 = CARTESIAN_POINT ( 'NONE',  ( 0.06993717359243366294, 0.005780177638351946014, -0.005780177638351929534 ) ) ;
#461 = CARTESIAN_POINT ( 'NONE',  ( 0.08267716535433070058, 0.04921259842519685318, 0.000000000000000000 ) ) ;
#462 = ORIENTED_EDGE ( 'NONE', *, *, #673, .F. ) ;
#463 = FACE_OUTER_BOUND ( 'NONE', #548, .T. ) ;
#464 = DIRECTION ( 'NONE',  ( 0.6058081784656141888, 0.7956107408175022710, 0.000000000000000000 ) ) ;
#465 = DIRECTION ( 'NONE',  ( 3.166769598145284884E-14, 0.000000000000000000, 1.000000000000000000 ) ) ;
#466 = EDGE_LOOP ( 'NONE', ( #712, #469, #346 ) ) ;
#467 = DIRECTION ( 'NONE',  ( -1.000000000000000000, 0.000000000000000000, 0.000000000000000000 ) ) ;
#468 = CARTESIAN_POINT ( 'NONE',  ( 0.001186545375970110301, -0.01364381158467950841, 0.01364381158467944943 ) ) ;
#469 = ORIENTED_EDGE ( 'NONE', *, *, #378, .T. ) ;
#470 = LINE ( 'NONE', #460, #299 ) ;
#471 = SPHERICAL_SURFACE ( 'NONE', #230, 0.1574803149606299191 ) ;
#472 = AXIS2_PLACEMENT_3D ( 'NONE', #625, #292, #64 ) ;
#473 = PERSON_AND_ORGANIZATION_ROLE ( 'design_supplier' ) ;
#474 = VERTEX_POINT ( 'NONE', #547 ) ;
#475 = EDGE_CURVE ( 'NONE', #96, #202, #58, .T. ) ;
#476 = APPLICATION_PROTOCOL_DEFINITION ( 'international standard', 'config_control_design', 1994, #65 ) ;
#477 = AXIS2_PLACEMENT_3D ( 'NONE', #657, #269, #154 ) ;
#478 = ORIENTED_EDGE ( 'NONE', *, *, #286, .T. ) ;
#479 = DIMENSIONAL_EXPONENTS ( 1.000000000000000000, 0.000000000000000000, 0.000000000000000000, 0.000000000000000000, 0.000000000000000000, 0.000000000000000000, 0.000000000000000000 ) ;
#480 = PRODUCT_DEFINITION_SHAPE ( 'NONE', 'NONE',  #541 ) ;
#481 = ORIENTED_EDGE ( 'NONE', *, *, #428, .F. ) ;
#482 = DATE_TIME_ROLE ( 'creation_date' ) ;
#483 = ORIENTED_EDGE ( 'NONE', *, *, #326, .T. ) ;
#484 = ORIENTED_EDGE ( 'NONE', *, *, #86, .T. ) ;
#485 = PERSON_AND_ORGANIZATION_ROLE ( 'creator' ) ;
#486 = AXIS2_PLACEMENT_3D ( 'NONE', #635, #514, #576 ) ;
#487 = ORIENTED_EDGE ( 'NONE', *, *, #632, .T. ) ;
#488 = ORIENTED_EDGE ( 'NONE', *, *, #705, .T. ) ;
#489 = AXIS2_PLACEMENT_3D ( 'NONE', #233, #122, #17 ) ;
#490 = DIRECTION ( 'NONE',  ( 0.9871686829601515889, 0.1129114506653771666, -0.1129114506653765559 ) ) ;
#491 = PLANE ( 'NONE',  #214 ) ;
#492 = DIRECTION ( 'NONE',  ( 0.7923367461350613317, 0.09062675200891444349, -0.6033152348021871836 ) ) ;
#493 = VECTOR ( 'NONE', #542, 39.37007874015748143 ) ;
#494 = AXIS2_PLACEMENT_3D ( 'NONE', #391, #62, #115 ) ;
#495 = FACE_OUTER_BOUND ( 'NONE', #593, .T. ) ;
#496 = CARTESIAN_POINT ( 'NONE',  ( 0.06023622047244094058, -0.006889763779527558960, 0.006889763779527558960 ) ) ;
#497 = LOCAL_TIME ( 13, 9, 25.00000000000000000, #703 ) ;
#498 = EDGE_CURVE ( 'NONE', #422, #76, #185, .T. ) ;
#499 = DIRECTION ( 'NONE',  ( 0.000000000000000000, -1.000000000000000000, 0.000000000000000000 ) ) ;
#500 = DIRECTION ( 'NONE',  ( 0.000000000000000000, 0.000000000000000000, 1.000000000000000000 ) ) ;
#501 = ADVANCED_FACE ( 'NONE', ( #382 ), #671, .T. ) ;
#502 = DIRECTION ( 'NONE',  ( 0.7923367461350608876, -0.6033152348021878497, 0.09062675200891229244 ) ) ;
#503 = DIRECTION ( 'NONE',  ( 0.000000000000000000, 0.000000000000000000, 1.000000000000000000 ) ) ;
#504 = AXIS2_PLACEMENT_3D ( 'NONE', #3, #669, #221 ) ;
#505 = CARTESIAN_POINT ( 'NONE',  ( 0.001186545375970110301, 0.01364381158467941127, 0.01364381158467944943 ) ) ;
#506 = ORIENTED_EDGE ( 'NONE', *, *, #250, .F. ) ;
#507 = DIRECTION ( 'NONE',  ( 0.7923367461350614427, 0.6033152348021872946, 0.09062675200891223692 ) ) ;
#508 = CIRCLE ( 'NONE', #393, 0.04921259842519685318 ) ;
#509 = DIRECTION ( 'NONE',  ( 0.6058081784656141888, -0.7956107408175022710, -1.232289848067340264E-16 ) ) ;
#510 = PERSON_AND_ORGANIZATION_ROLE ( 'classification_officer' ) ;
#511 = ORIENTED_EDGE ( 'NONE', *, *, #232, .T. ) ;
#512 = DIRECTION ( 'NONE',  ( -0.1136381605096604547, -0.9935222033130315378, -3.468864232593766920E-15 ) ) ;
#513 = CIRCLE ( 'NONE', #108, 0.09363694403064487526 ) ;
#514 = DIRECTION ( 'NONE',  ( -1.000000000000000000, 0.000000000000000000, 0.000000000000000000 ) ) ;
#515 = CYLINDRICAL_SURFACE ( 'NONE', #398, 0.04921259842519685318 ) ;
#516 = COORDINATED_UNIVERSAL_TIME_OFFSET ( 5, 30, .AHEAD. ) ;
#517 = ORIENTED_EDGE ( 'NONE', *, *, #371, .F. ) ;
#518 = DIRECTION ( 'NONE',  ( -0.7956107408175021600, 0.6058081784656141888, 0.000000000000000000 ) ) ;
#519 = TOROIDAL_SURFACE ( 'NONE', #579, 0.08661417322834646937, 0.01181102362204724393 ) ;
#520 = CARTESIAN_POINT ( 'NONE',  ( 0.04035846629414551606, 0.000000000000000000, 0.000000000000000000 ) ) ;
#521 = CARTESIAN_POINT ( 'NONE',  ( 0.08267716535433070058, 0.000000000000000000, 0.000000000000000000 ) ) ;
#522 = ORIENTED_EDGE ( 'NONE', *, *, #232, .F. ) ;
#523 = PLANE ( 'NONE',  #601 ) ;
#524 = FACE_OUTER_BOUND ( 'NONE', #655, .T. ) ;
#525 = APPROVAL_PERSON_ORGANIZATION ( #142, #215, #420 ) ;
#526 = VERTEX_POINT ( 'NONE', #613 ) ;
#527 = CARTESIAN_POINT ( 'NONE',  ( 0.03086210018605220831, 0.09363694403064487526, 0.000000000000000000 ) ) ;
#528 = DIRECTION ( 'NONE',  ( 1.000000000000000000, -0.000000000000000000, 0.000000000000000000 ) ) ;
#529 = EDGE_CURVE ( 'NONE', #257, #633, #106, .T. ) ;
#530 = PERSON_AND_ORGANIZATION ( #586, #163 ) ;
#531 = AXIS2_PLACEMENT_3D ( 'NONE', #581, #83, #303 ) ;
#532 = AXIS2_PLACEMENT_3D ( 'NONE', #160, #264, #709 ) ;
#533 = VERTEX_POINT ( 'NONE', #328 ) ;
#534 = CARTESIAN_POINT ( 'NONE',  ( 0.1574803149606299191, -1.157146581871515875E-17, 0.000000000000000000 ) ) ;
#535 = APPLICATION_PROTOCOL_DEFINITION ( 'international standard', 'config_control_design', 1994, #31 ) ;
#536 = ORIENTED_EDGE ( 'NONE', *, *, #211, .T. ) ;
#537 = ORIENTED_EDGE ( 'NONE', *, *, #654, .F. ) ;
#538 = APPROVAL_STATUS ( 'not_yet_approved' ) ;
#539 = AXIS2_PLACEMENT_3D ( 'NONE', #389, #445, #170 ) ;
#540 = EDGE_LOOP ( 'NONE', ( #634, #242, #80 ) ) ;
#541 = PRODUCT_DEFINITION ( 'UNKNOWN', '', #596, #306 ) ;
#542 = DIRECTION ( 'NONE',  ( 0.000000000000000000, 0.000000000000000000, -1.000000000000000000 ) ) ;
#543 = DATE_AND_TIME ( #321, #172 ) ;
#544 = ORIENTED_EDGE ( 'NONE', *, *, #684, .T. ) ;
#545 = DIRECTION ( 'NONE',  ( -0.9871686829601518109, -0.1129114506653761951, -0.1129114506653767780 ) ) ;
#546 = CIRCLE ( 'NONE', #494, 0.04921259842519685318 ) ;
#547 = CARTESIAN_POINT ( 'NONE',  ( 0.04035846629414551606, 1.205361022782826802E-17, -0.09842519685039370636 ) ) ;
#548 = EDGE_LOOP ( 'NONE', ( #399, #360, #462, #653 ) ) ;
#549 = EDGE_CURVE ( 'NONE', #642, #155, #349, .T. ) ;
#550 = CC_DESIGN_SECURITY_CLASSIFICATION ( #585, ( #596 ) ) ;
#551 = LOCAL_TIME ( 13, 9, 25.00000000000000000, #696 ) ;
#552 = FACE_OUTER_BOUND ( 'NONE', #208, .T. ) ;
#553 = CC_DESIGN_DATE_AND_TIME_ASSIGNMENT ( #261, #482, ( #541 ) ) ;
#554 = DIRECTION ( 'NONE',  ( 0.000000000000000000, 0.000000000000000000, 1.000000000000000000 ) ) ;
#555 = TOROIDAL_SURFACE ( 'NONE', #57, 0.08661417322834646937, 0.01181102362204724393 ) ;
#556 = EDGE_CURVE ( 'NONE', #240, #231, #440, .T. ) ;
#557 = CARTESIAN_POINT ( 'NONE',  ( 0.007698422835822540423, 0.01289898899940238215, -0.04689403452897873692 ) ) ;
#558 = CARTESIAN_POINT ( 'NONE',  ( 0.1251121671308748073, -0.04250924135581582441, 0.000000000000000000 ) ) ;
#559 = CARTESIAN_POINT ( 'NONE',  ( 0.007698422835822540423, 0.04689403452897882713, -0.01289898899940222429 ) ) ;
#560 = ADVANCED_FACE ( 'NONE', ( #602 ), #107, .F. ) ;
#561 = PLANE ( 'NONE',  #682 ) ;
#562 = DIRECTION ( 'NONE',  ( 3.166769598145284884E-14, 0.000000000000000000, 1.000000000000000000 ) ) ;
#563 = PLANE ( 'NONE',  #159 ) ;
#564 = CARTESIAN_POINT ( 'NONE',  ( 0.007698422835822540423, 0.01289898899940206817, 0.04689403452897890345 ) ) ;
#565 = AXIS2_PLACEMENT_3D ( 'NONE', #663, #1, #161 ) ;
#566 = UNCERTAINTY_MEASURE_WITH_UNIT (LENGTH_MEASURE( 1.000000000000000082E-05 ), #256, 'distance_accuracy_value', 'NONE');
#567 = CARTESIAN_POINT ( 'NONE',  ( 0.1570024089121033473, -1.102561423331070815E-17, -0.004178264309976283467 ) ) ;
#568 = EDGE_CURVE ( 'NONE', #129, #104, #51, .T. ) ;
#569 = ORIENTED_EDGE ( 'NONE', *, *, #250, .T. ) ;
#570 =( LENGTH_UNIT ( ) NAMED_UNIT ( * ) SI_UNIT ( $, .METRE. ) );
#571 = CC_DESIGN_APPROVAL ( #215, ( #541 ) ) ;
#572 = CARTESIAN_POINT ( 'NONE',  ( 0.06928457977087637554, 0.005854820722516976966, 2.044199729494011898E-17 ) ) ;
#573 = LINE ( 'NONE', #238, #275 ) ;
#574 = ORIENTED_EDGE ( 'NONE', *, *, #124, .F. ) ;
#575 = DIRECTION ( 'NONE',  ( 0.000000000000000000, 0.000000000000000000, 1.000000000000000000 ) ) ;
#576 = DIRECTION ( 'NONE',  ( 0.000000000000000000, 0.000000000000000000, 1.000000000000000000 ) ) ;
#577 = DIRECTION ( 'NONE',  ( 0.000000000000000000, 0.000000000000000000, 1.000000000000000000 ) ) ;
#578 = VERTEX_POINT ( 'NONE', #332 ) ;
#579 = AXIS2_PLACEMENT_3D ( 'NONE', #520, #467, #196 ) ;
#580 = CARTESIAN_POINT ( 'NONE',  ( 0.1251121671308748073, -1.665757761450228362E-16, 0.04250924135581582441 ) ) ;
#581 = CARTESIAN_POINT ( 'NONE',  ( 0.06023622047244094058, 0.006889763779527558960, -0.006889763779527558960 ) ) ;
#582 = VERTEX_POINT ( 'NONE', #557 ) ;
#583 = CARTESIAN_POINT ( 'NONE',  ( 0.06023622047244094058, -0.006889763779527558960, -0.006889763779527558960 ) ) ;
#584 = SPHERICAL_SURFACE ( 'NONE', #616, 0.1574803149606299191 ) ;
#585 = SECURITY_CLASSIFICATION ( '', '', #75 ) ;
#586 = PERSON ( 'UNSPECIFIED', 'UNSPECIFIED', 'UNSPECIFIED', ('UNSPECIFIED'), ('UNSPECIFIED'), ('UNSPECIFIED') ) ;
#587 = VERTEX_POINT ( 'NONE', #224 ) ;
#588 = CARTESIAN_POINT ( 'NONE',  ( -1.000000000000000000, 0.000000000000000000, 0.000000000000000000 ) ) ;
#589 = AXIS2_PLACEMENT_3D ( 'NONE', #249, #183, #311 ) ;
#590 = ORIENTED_EDGE ( 'NONE', *, *, #556, .F. ) ;
#591 = CIRCLE ( 'NONE', #639, 0.1481395187163887517 ) ;
#592 = EDGE_LOOP ( 'NONE', ( #345, #456, #199, #327, #317 ) ) ;
#593 = EDGE_LOOP ( 'NONE', ( #187, #436, #648, #89 ) ) ;
#594 = VERTEX_POINT ( 'NONE', #222 ) ;
#595 = COORDINATED_UNIVERSAL_TIME_OFFSET ( 5, 30, .AHEAD. ) ;
#596 = PRODUCT_DEFINITION_FORMATION_WITH_SPECIFIED_SOURCE ( 'ANY', '', #359, .NOT_KNOWN. ) ;
#597 = ORIENTED_EDGE ( 'NONE', *, *, #42, .F. ) ;
#598 = LINE ( 'NONE', #600, #620 ) ;
#599 = EDGE_CURVE ( 'NONE', #582, #383, #442, .T. ) ;
#600 = CARTESIAN_POINT ( 'NONE',  ( 0.06993717359243366294, -0.005780177638351906115, -0.005780177638351929534 ) ) ;
#601 = AXIS2_PLACEMENT_3D ( 'NONE', #409, #131, #27 ) ;
#602 = FACE_OUTER_BOUND ( 'NONE', #121, .T. ) ;
#603 = EDGE_CURVE ( 'NONE', #149, #45, #715, .T. ) ;
#604 = ORIENTED_EDGE ( 'NONE', *, *, #318, .T. ) ;
#605 = DIRECTION ( 'NONE',  ( 0.000000000000000000, 0.000000000000000000, 1.000000000000000000 ) ) ;
#606 = EDGE_CURVE ( 'NONE', #97, #202, #392, .T. ) ;
#607 = CARTESIAN_POINT ( 'NONE',  ( -1.000000000000000000, 0.000000000000000000, 0.000000000000000000 ) ) ;
#608 = CARTESIAN_POINT ( 'NONE',  ( 0.04035846629414551606, 0.000000000000000000, 0.000000000000000000 ) ) ;
#609 = VECTOR ( 'NONE', #140, 39.37007874015748143 ) ;
#610 = EDGE_CURVE ( 'NONE', #707, #202, #457, .T. ) ;
#611 = DIRECTION ( 'NONE',  ( 0.000000000000000000, 1.548860246407864815E-16, -1.000000000000000000 ) ) ;
#612 = CARTESIAN_POINT ( 'NONE',  ( 0.06928457977087637554, 0.000000000000000000, -0.005854820722516976966 ) ) ;
#613 = CARTESIAN_POINT ( 'NONE',  ( 0.007698422835822540423, -0.04689403452897882713, 0.01289898899940220521 ) ) ;
#614 = CIRCLE ( 'NONE', #364, 0.1574241509847327802 ) ;
#615 = CC_DESIGN_PERSON_AND_ORGANIZATION_ASSIGNMENT ( #265, #485, ( #596 ) ) ;
#616 = AXIS2_PLACEMENT_3D ( 'NONE', #699, #528, #367 ) ;
#617 = DIRECTION ( 'NONE',  ( -1.000000000000000000, 0.000000000000000000, 0.000000000000000000 ) ) ;
#618 = LINE ( 'NONE', #176, #220 ) ;
#619 = ADVANCED_FACE ( 'NONE', ( #241 ), #628, .T. ) ;
#620 = VECTOR ( 'NONE', #545, 39.37007874015748143 ) ;
#621 = PLANE ( 'NONE',  #148 ) ;
#622 = EDGE_LOOP ( 'NONE', ( #590, #184, #207, #569, #137, #370, #704, #375, #430, #236, #320 ) ) ;
#623 = CARTESIAN_POINT ( 'NONE',  ( 0.1570024089121033473, -0.004178264309976299079, -1.458833186703647850E-17 ) ) ;
#624 = MANIFOLD_SOLID_BREP ( 'NONE', #661 ) ;
#625 = CARTESIAN_POINT ( 'NONE',  ( 0.06023622047244094058, 0.006889763779527558960, -0.006889763779527558960 ) ) ;
#626 = SHAPE_DEFINITION_REPRESENTATION ( #480, #649 ) ;
#627 = EDGE_LOOP ( 'NONE', ( #658, #511, #478, #34, #402 ) ) ;
#628 = PLANE ( 'NONE',  #247 ) ;
#629 = AXIS2_PLACEMENT_3D ( 'NONE', #718, #660, #281 ) ;
#630 = DIRECTION ( 'NONE',  ( -0.1136381605096602604, 1.297944863177000830E-16, -0.9935222033130315378 ) ) ;
#631 = FACE_OUTER_BOUND ( 'NONE', #622, .T. ) ;
#632 = EDGE_CURVE ( 'NONE', #533, #707, #678, .T. ) ;
#633 = VERTEX_POINT ( 'NONE', #400 ) ;
#634 = ORIENTED_EDGE ( 'NONE', *, *, #243, .T. ) ;
#635 = CARTESIAN_POINT ( 'NONE',  ( 0.03086210018605220831, 0.000000000000000000, 0.000000000000000000 ) ) ;
#636 = CARTESIAN_POINT ( 'NONE',  ( 0.7125984251968504601, 6.026805113914134012E-18, -0.04921259842519685318 ) ) ;
#637 = ORIENTED_EDGE ( 'NONE', *, *, #386, .T. ) ;
#638 = EDGE_CURVE ( 'NONE', #578, #45, #200, .T. ) ;
#639 = AXIS2_PLACEMENT_3D ( 'NONE', #580, #127, #352 ) ;
#640 = CARTESIAN_POINT ( 'NONE',  ( -1.000000000000000000, 1.205361022782826802E-17, -0.09842519685039370636 ) ) ;
#641 = DIRECTION ( 'NONE',  ( -1.000000000000000000, 0.000000000000000000, 0.000000000000000000 ) ) ;
#642 = VERTEX_POINT ( 'NONE', #351 ) ;
#643 = LINE ( 'NONE', #82, #446 ) ;
#644 = AXIS2_PLACEMENT_3D ( 'NONE', #607, #384, #500 ) ;
#645 = DIRECTION ( 'NONE',  ( 1.000000000000000000, -0.000000000000000000, 0.000000000000000000 ) ) ;
#646 = APPROVAL_DATE_TIME ( #145, #215 ) ;
#647 = CIRCLE ( 'NONE', #330, 0.09842519685039370636 ) ;
#648 = ORIENTED_EDGE ( 'NONE', *, *, #109, .F. ) ;
#649 = ADVANCED_BREP_SHAPE_REPRESENTATION ( 'M2.5 x 16.STEP_Default_sldprt', ( #624, #477 ), #329 ) ;
#650 = CALENDAR_DATE ( 2026, 24, 8 ) ;
#651 = ORIENTED_EDGE ( 'NONE', *, *, #380, .T. ) ;
#652 = CIRCLE ( 'NONE', #333, 0.09842519685039370636 ) ;
#653 = ORIENTED_EDGE ( 'NONE', *, *, #2, .F. ) ;
#654 = EDGE_CURVE ( 'NONE', #681, #587, #618, .T. ) ;
#655 = EDGE_LOOP ( 'NONE', ( #180, #37, #174, #152 ) ) ;
#656 = CARTESIAN_POINT ( 'NONE',  ( 0.06928457977087637554, 0.000000000000000000, 0.005854820722516976966 ) ) ;
#657 = CARTESIAN_POINT ( 'NONE',  ( 0.000000000000000000, 0.000000000000000000, 0.000000000000000000 ) ) ;
#658 = ORIENTED_EDGE ( 'NONE', *, *, #701, .F. ) ;
#659 = CARTESIAN_POINT ( 'NONE',  ( -1.000000000000000000, 0.000000000000000000, 0.04921259842519685318 ) ) ;
#660 = DIRECTION ( 'NONE',  ( -0.1136381605096604547, 0.9935222033130315378, 3.598658718911462097E-15 ) ) ;
#661 = CLOSED_SHELL ( 'NONE', ( #91, #166, #560, #355, #619, #146, #258, #448, #396, #417, #323, #501, #98, #61, #33, #301, #297, #18, #105, #113, #666, #459, #158 ) ) ;
#662 = ORIENTED_EDGE ( 'NONE', *, *, #177, .T. ) ;
#663 = CARTESIAN_POINT ( 'NONE',  ( -1.000000000000000000, 0.000000000000000000, 0.000000000000000000 ) ) ;
#664 = CIRCLE ( 'NONE', #489, 0.1481395187163887239 ) ;
#665 = DIRECTION ( 'NONE',  ( -4.585378925690980395E-15, -1.000000000000000000, 0.000000000000000000 ) ) ;
#666 = ADVANCED_FACE ( 'NONE', ( #463 ), #449, .T. ) ;
#667 = CARTESIAN_POINT ( 'NONE',  ( 0.04035846629414551606, 0.000000000000000000, 0.08661417322834646937 ) ) ;
#668 = DIRECTION ( 'NONE',  ( 0.7923367461350613317, -0.09062675200891444349, 0.6033152348021871836 ) ) ;
#669 = DIRECTION ( 'NONE',  ( -0.1136381605096604547, 0.9935222033130315378, 3.598658718911462097E-15 ) ) ;
#670 = CIRCLE ( 'NONE', #267, 0.1574241509847327802 ) ;
#671 = CYLINDRICAL_SURFACE ( 'NONE', #644, 0.09842519685039370636 ) ;
#672 = DIRECTION ( 'NONE',  ( 0.7956107408175021600, 0.6058081784656142998, 0.000000000000000000 ) ) ;
#673 = EDGE_CURVE ( 'NONE', #155, #642, #508, .T. ) ;
#674 = DIRECTION ( 'NONE',  ( 0.7923367461350611096, 0.09062675200891000260, 0.6033152348021879607 ) ) ;
#675 = VECTOR ( 'NONE', #490, 39.37007874015748854 ) ;
#676 = CARTESIAN_POINT ( 'NONE',  ( 0.007250774900580414691, -0.04723489063653244641, -5.784605762610473035E-18 ) ) ;
#677 = ORIENTED_EDGE ( 'NONE', *, *, #9, .F. ) ;
#678 = LINE ( 'NONE', #395, #289 ) ;
#679 = CC_DESIGN_PERSON_AND_ORGANIZATION_ASSIGNMENT ( #372, #316, ( #541 ) ) ;
#680 = CARTESIAN_POINT ( 'NONE',  ( 0.03086210018605220831, -0.09363694403064487526, -1.146721837890691087E-17 ) ) ;
#681 = VERTEX_POINT ( 'NONE', #564 ) ;
#682 = AXIS2_PLACEMENT_3D ( 'NONE', #572, #338, #451 ) ;
#683 = CARTESIAN_POINT ( 'NONE',  ( -1.000000000000000000, 0.000000000000000000, 0.000000000000000000 ) ) ;
#684 = EDGE_CURVE ( 'NONE', #21, #582, #702, .T. ) ;
#685 = CARTESIAN_POINT ( 'NONE',  ( 0.06993717359243366294, 0.005780177638351906115, 0.005780177638351929534 ) ) ;
#686 = CARTESIAN_POINT ( 'NONE',  ( 0.000000000000000000, 0.05275590551181102983, 0.01377952755905511792 ) ) ;
#687 = ORIENTED_EDGE ( 'NONE', *, *, #603, .T. ) ;
#688 = CARTESIAN_POINT ( 'NONE',  ( 0.06928457977087637554, -0.005854820722516976966, -2.044199729494011898E-17 ) ) ;
#689 = CC_DESIGN_APPROVAL ( #423, ( #596 ) ) ;
#690 = DIRECTION ( 'NONE',  ( 0.000000000000000000, 0.000000000000000000, -1.000000000000000000 ) ) ;
#691 = CARTESIAN_POINT ( 'NONE',  ( 0.007698422835822540423, -0.01289898899940238215, 0.04689403452897873692 ) ) ;
#692 = DATE_AND_TIME ( #406, #551 ) ;
#693 = ORIENTED_EDGE ( 'NONE', *, *, #380, .F. ) ;
#694 = DIRECTION ( 'NONE',  ( 0.9871686829601515889, -0.1129114506653771666, 0.1129114506653767641 ) ) ;
#695 = PLANE ( 'NONE',  #119 ) ;
#696 = COORDINATED_UNIVERSAL_TIME_OFFSET ( 5, 30, .AHEAD. ) ;
#697 = AXIS2_PLACEMENT_3D ( 'NONE', #276, #274, #611 ) ;
#698 = LINE ( 'NONE', #685, #609 ) ;
#699 = CARTESIAN_POINT ( 'NONE',  ( 0.1574803149606299191, -1.157146581871515875E-17, 0.000000000000000000 ) ) ;
#700 = ORIENTED_EDGE ( 'NONE', *, *, #378, .F. ) ;
#701 = EDGE_CURVE ( 'NONE', #474, #205, #271, .T. ) ;
#702 = CIRCLE ( 'NONE', #4, 0.1574241509847327802 ) ;
#703 = COORDINATED_UNIVERSAL_TIME_OFFSET ( 5, 30, .AHEAD. ) ;
#704 = ORIENTED_EDGE ( 'NONE', *, *, #705, .F. ) ;
#705 = EDGE_CURVE ( 'NONE', #681, #149, #614, .T. ) ;
#706 = ORIENTED_EDGE ( 'NONE', *, *, #219, .T. ) ;
#707 = VERTEX_POINT ( 'NONE', #287 ) ;
#708 = CIRCLE ( 'NONE', #486, 0.09363694403064487526 ) ;
#709 = DIRECTION ( 'NONE',  ( 0.000000000000000000, 1.000000000000000000, 0.000000000000000000 ) ) ;
#710 = PERSON_AND_ORGANIZATION ( #586, #163 ) ;
#711 = EDGE_CURVE ( 'NONE', #526, #231, #664, .T. ) ;
#712 = ORIENTED_EDGE ( 'NONE', *, *, #70, .T. ) ;
#713 = LINE ( 'NONE', #144, #493 ) ;
#714 = EDGE_CURVE ( 'NONE', #422, #707, #227, .T. ) ;
#715 = CIRCLE ( 'NONE', #539, 0.1574241509847328357 ) ;
#716 = CARTESIAN_POINT ( 'NONE',  ( 0.000000000000000000, -0.01377952755905529486, 0.05275590551181102983 ) ) ;
#717 = ORIENTED_EDGE ( 'NONE', *, *, #55, .F. ) ;
#718 = CARTESIAN_POINT ( 'NONE',  ( 0.1570024089121033473, 0.004178264309976283467, 1.513418345244098302E-17 ) ) ;
ENDSEC;
END-ISO-10303-21;
