ISO-10303-21;
HEADER;
FILE_DESCRIPTION (( 'STEP AP203' ),
    '1' );
FILE_NAME ('Base_v2_Default_sldprt.STEP',
    '2026-08-29T13:01:27',
    ( '' ),
    ( '' ),
    'SwSTEP 2.0',
    'SolidWorks 2020',
    '' );
FILE_SCHEMA (( 'CONFIG_CONTROL_DESIGN' ));
ENDSEC;

DATA;
#1 = CARTESIAN_POINT ( 'NONE',  ( -22.58012701892217322, 2.500000000000001776, 1.500000000000000000 ) ) ;
#2 = EDGE_LOOP ( 'NONE', ( #587, #1050 ) ) ;
#3 = EDGE_CURVE ( 'NONE', #300, #824, #967, .T. ) ;
#4 = CARTESIAN_POINT ( 'NONE',  ( 1.750000000000015543, -28.25000000000000711, 13.00100000000000122 ) ) ;
#5 = VERTEX_POINT ( 'NONE', #23 ) ;
#6 = CC_DESIGN_SECURITY_CLASSIFICATION ( #202, ( #306 ) ) ;
#7 = CC_DESIGN_APPROVAL ( #1070, ( #202 ) ) ;
#8 = DIRECTION ( 'NONE',  ( 0.000000000000000000, -0.000000000000000000, 1.000000000000000000 ) ) ;
#9 = FACE_BOUND ( 'NONE', #816, .T. ) ;
#10 = ORIENTED_EDGE ( 'NONE', *, *, #855, .T. ) ;
#11 = DIRECTION ( 'NONE',  ( 1.000000000000000000, -0.000000000000000000, 0.000000000000000000 ) ) ;
#12 = EDGE_CURVE ( 'NONE', #336, #123, #596, .T. ) ;
#13 = EDGE_CURVE ( 'NONE', #158, #461, #294, .T. ) ;
#14 = DIRECTION ( 'NONE',  ( 1.000000000000000000, -2.086885384633752656E-16, -0.000000000000000000 ) ) ;
#15 = DIRECTION ( 'NONE',  ( 1.301042606982605567E-16, -1.000000000000000000, 0.000000000000000000 ) ) ;
#16 = ORIENTED_EDGE ( 'NONE', *, *, #1046, .F. ) ;
#17 = VECTOR ( 'NONE', #186, 1000.000000000000227 ) ;
#18 = ORIENTED_EDGE ( 'NONE', *, *, #897, .F. ) ;
#19 = APPROVAL ( #1033, 'UNSPECIFIED' ) ;
#20 = CARTESIAN_POINT ( 'NONE',  ( -33.25100000000001188, -10.00000000000000888, 8.000000000000000000 ) ) ;
#21 = FACE_OUTER_BOUND ( 'NONE', #30, .T. ) ;
#22 = VERTEX_POINT ( 'NONE', #863 ) ;
#23 = CARTESIAN_POINT ( 'NONE',  ( -22.58012701892217322, 2.500000000000001776, 3.000000000000000000 ) ) ;
#24 = ORIENTED_EDGE ( 'NONE', *, *, #976, .F. ) ;
#25 = FACE_OUTER_BOUND ( 'NONE', #692, .T. ) ;
#26 = LINE ( 'NONE', #136, #875 ) ;
#27 = ORIENTED_EDGE ( 'NONE', *, *, #997, .T. ) ;
#28 = DIRECTION ( 'NONE',  ( 1.301042606982605567E-16, -1.000000000000000000, 0.000000000000000000 ) ) ;
#29 = ORIENTED_EDGE ( 'NONE', *, *, #922, .T. ) ;
#30 = EDGE_LOOP ( 'NONE', ( #894, #117, #707, #366 ) ) ;
#31 = LINE ( 'NONE', #417, #961 ) ;
#32 = CIRCLE ( 'NONE', #358, 1.500000000000001332 ) ;
#33 = DIRECTION ( 'NONE',  ( 1.000000000000000000, 2.086885384633752656E-16, -0.000000000000000000 ) ) ;
#34 = EDGE_LOOP ( 'NONE', ( #665, #972 ) ) ;
#35 = AXIS2_PLACEMENT_3D ( 'NONE', #1138, #761, #388 ) ;
#36 = DIRECTION ( 'NONE',  ( 0.000000000000000000, 1.000000000000000000, 0.000000000000000000 ) ) ;
#37 = ORIENTED_EDGE ( 'NONE', *, *, #174, .T. ) ;
#38 = EDGE_CURVE ( 'NONE', #901, #659, #571, .T. ) ;
#39 = VECTOR ( 'NONE', #1061, 1000.000000000000000 ) ;
#40 = ORIENTED_EDGE ( 'NONE', *, *, #55, .T. ) ;
#41 = DIRECTION ( 'NONE',  ( 0.000000000000000000, 0.000000000000000000, -1.000000000000000000 ) ) ;
#42 = FACE_OUTER_BOUND ( 'NONE', #594, .T. ) ;
#43 = VERTEX_POINT ( 'NONE', #1145 ) ;
#44 = CARTESIAN_POINT ( 'NONE',  ( -18.24999999999998224, -5.000000000000000888, 3.000000000000000000 ) ) ;
#45 = ORIENTED_EDGE ( 'NONE', *, *, #1224, .F. ) ;
#46 = CC_DESIGN_DATE_AND_TIME_ASSIGNMENT ( #289, #472, ( #108 ) ) ;
#47 = VERTEX_POINT ( 'NONE', #489 ) ;
#48 = CARTESIAN_POINT ( 'NONE',  ( 33.25000000000000711, 7.499999999999994671, 8.000000000000000000 ) ) ;
#49 = FACE_OUTER_BOUND ( 'NONE', #389, .T. ) ;
#50 = ORIENTED_EDGE ( 'NONE', *, *, #75, .F. ) ;
#51 = CIRCLE ( 'NONE', #1060, 2.500000000000000444 ) ;
#52 = CARTESIAN_POINT ( 'NONE',  ( 0.000000000000000000, 0.000000000000000000, 13.00000000000000178 ) ) ;
#53 = ORIENTED_EDGE ( 'NONE', *, *, #820, .F. ) ;
#54 = DIRECTION ( 'NONE',  ( 1.000000000000000000, 0.000000000000000000, 0.000000000000000000 ) ) ;
#55 = EDGE_CURVE ( 'NONE', #644, #546, #858, .T. ) ;
#56 = CARTESIAN_POINT ( 'NONE',  ( -13.91987298107778770, -2.499999999999999112, 1.500000000000000000 ) ) ;
#57 = VECTOR ( 'NONE', #635, 1000.000000000000000 ) ;
#58 = AXIS2_PLACEMENT_3D ( 'NONE', #353, #937, #831 ) ;
#59 = DIRECTION ( 'NONE',  ( -0.000000000000000000, -0.000000000000000000, -1.000000000000000000 ) ) ;
#60 = EDGE_LOOP ( 'NONE', ( #1031, #868, #106, #69 ) ) ;
#61 = LINE ( 'NONE', #1195, #529 ) ;
#62 = CC_DESIGN_DATE_AND_TIME_ASSIGNMENT ( #842, #102, ( #202 ) ) ;
#63 = FACE_OUTER_BOUND ( 'NONE', #429, .T. ) ;
#64 = EDGE_LOOP ( 'NONE', ( #45, #857, #806, #699 ) ) ;
#65 = DIRECTION ( 'NONE',  ( -1.301042606982605567E-16, -1.000000000000000000, 0.000000000000000000 ) ) ;
#66 = VERTEX_POINT ( 'NONE', #201 ) ;
#67 = DIRECTION ( 'NONE',  ( 0.4999999999999999445, -0.8660254037844387076, 0.000000000000000000 ) ) ;
#68 = CARTESIAN_POINT ( 'NONE',  ( 4.750000000000015099, -28.25000000000000711, 0.000000000000000000 ) ) ;
#69 = ORIENTED_EDGE ( 'NONE', *, *, #55, .F. ) ;
#70 = DIRECTION ( 'NONE',  ( 0.000000000000000000, 0.000000000000000000, -1.000000000000000000 ) ) ;
#71 = LINE ( 'NONE', #926, #679 ) ;
#72 = CARTESIAN_POINT ( 'NONE',  ( -18.24999999999998224, 6.938893903907228378E-15, 1.499999999999999556 ) ) ;
#73 = ORIENTED_EDGE ( 'NONE', *, *, #772, .T. ) ;
#74 = AXIS2_PLACEMENT_3D ( 'NONE', #1209, #263, #369 ) ;
#75 = EDGE_CURVE ( 'NONE', #405, #284, #390, .T. ) ;
#76 = DIRECTION ( 'NONE',  ( 1.000000000000000000, 2.086885384633752903E-16, 0.000000000000000000 ) ) ;
#77 = LINE ( 'NONE', #917, #775 ) ;
#78 = DIRECTION ( 'NONE',  ( 1.000000000000000000, 0.000000000000000000, -0.000000000000000000 ) ) ;
#79 = ORIENTED_EDGE ( 'NONE', *, *, #1134, .F. ) ;
#80 = CARTESIAN_POINT ( 'NONE',  ( -33.25100000000000477, 28.25000000000000711, 8.000000000000000000 ) ) ;
#81 = DIRECTION ( 'NONE',  ( 0.000000000000000000, -0.000000000000000000, 1.000000000000000000 ) ) ;
#82 = ORGANIZATION ( 'UNSPECIFIED', 'UNSPECIFIED', '' ) ;
#83 = APPROVAL_ROLE ( '' ) ;
#84 = EDGE_CURVE ( 'NONE', #934, #88, #870, .T. ) ;
#85 = DIRECTION ( 'NONE',  ( 0.000000000000000000, -0.000000000000000000, 1.000000000000000000 ) ) ;
#86 = ORIENTED_EDGE ( 'NONE', *, *, #1197, .F. ) ;
#87 = CARTESIAN_POINT ( 'NONE',  ( 4.750000000000015099, 28.25000000000000711, 0.000000000000000000 ) ) ;
#88 = VERTEX_POINT ( 'NONE', #770 ) ;
#89 = DIRECTION ( 'NONE',  ( -0.000000000000000000, -0.000000000000000000, -1.000000000000000000 ) ) ;
#90 = VECTOR ( 'NONE', #1005, 1000.000000000000000 ) ;
#91 = AXIS2_PLACEMENT_3D ( 'NONE', #360, #1018, #557 ) ;
#92 = DIRECTION ( 'NONE',  ( -1.000000000000000000, 0.000000000000000000, 0.000000000000000000 ) ) ;
#93 = EDGE_CURVE ( 'NONE', #1199, #690, #583, .T. ) ;
#94 = DIRECTION ( 'NONE',  ( 1.000000000000000000, 2.086885384633752656E-16, -0.000000000000000000 ) ) ;
#95 = ORIENTED_EDGE ( 'NONE', *, *, #1112, .T. ) ;
#96 = SHAPE_DEFINITION_REPRESENTATION ( #1130, #1170 ) ;
#97 = CARTESIAN_POINT ( 'NONE',  ( -22.58012701892217322, -2.499999999999999556, 1.500000000000000000 ) ) ;
#98 = EDGE_CURVE ( 'NONE', #411, #1002, #406, .T. ) ;
#99 = FACE_BOUND ( 'NONE', #768, .T. ) ;
#100 = CARTESIAN_POINT ( 'NONE',  ( -18.24999999999998224, -5.000000000000000888, 1.500000000000000000 ) ) ;
#101 = EDGE_CURVE ( 'NONE', #411, #113, #788, .T. ) ;
#102 = DATE_TIME_ROLE ( 'classification_date' ) ;
#103 = AXIS2_PLACEMENT_3D ( 'NONE', #204, #307, #120 ) ;
#104 = DIRECTION ( 'NONE',  ( -1.000000000000000000, 2.086885384633752903E-16, -0.000000000000000000 ) ) ;
#105 = DIRECTION ( 'NONE',  ( 0.000000000000000000, -1.000000000000000000, 0.000000000000000000 ) ) ;
#106 = ORIENTED_EDGE ( 'NONE', *, *, #1062, .F. ) ;
#107 = CARTESIAN_POINT ( 'NONE',  ( -18.24999999999998224, 5.000000000000000888, 1.500000000000000000 ) ) ;
#108 = PRODUCT_DEFINITION ( 'UNKNOWN', '', #306, #932 ) ;
#109 = ORIENTED_EDGE ( 'NONE', *, *, #458, .F. ) ;
#110 = VECTOR ( 'NONE', #191, 1000.000000000000000 ) ;
#111 = DIRECTION ( 'NONE',  ( 1.000000000000000000, -2.086885384633752656E-16, -0.000000000000000000 ) ) ;
#112 = FACE_BOUND ( 'NONE', #64, .T. ) ;
#113 = VERTEX_POINT ( 'NONE', #776 ) ;
#114 = CARTESIAN_POINT ( 'NONE',  ( 1.750000000000014211, -18.25000000000001066, 3.000000000000000888 ) ) ;
#115 = CARTESIAN_POINT ( 'NONE',  ( 4.750000000000015099, -18.25000000000001066, 13.00100000000000122 ) ) ;
#116 = DIRECTION ( 'NONE',  ( -0.8660254037844383745, -0.5000000000000003331, 0.000000000000000000 ) ) ;
#117 = ORIENTED_EDGE ( 'NONE', *, *, #1107, .F. ) ;
#118 = CYLINDRICAL_SURFACE ( 'NONE', #1067, 4.000000000000000000 ) ;
#119 = EDGE_LOOP ( 'NONE', ( #510, #558 ) ) ;
#120 = DIRECTION ( 'NONE',  ( 0.000000000000000000, 1.000000000000000000, 0.000000000000000000 ) ) ;
#121 = ADVANCED_FACE ( 'NONE', ( #196 ), #301, .F. ) ;
#122 = CARTESIAN_POINT ( 'NONE',  ( -33.25100000000000477, -25.75000000000001066, 8.000000000000000000 ) ) ;
#123 = VERTEX_POINT ( 'NONE', #687 ) ;
#124 = FACE_OUTER_BOUND ( 'NONE', #436, .T. ) ;
#125 = ORIENTED_EDGE ( 'NONE', *, *, #1025, .F. ) ;
#126 = ORIENTED_EDGE ( 'NONE', *, *, #257, .T. ) ;
#127 = LINE ( 'NONE', #516, #713 ) ;
#128 = AXIS2_PLACEMENT_3D ( 'NONE', #607, #410, #791 ) ;
#129 = DIRECTION ( 'NONE',  ( 0.000000000000000000, 0.000000000000000000, -1.000000000000000000 ) ) ;
#130 = ORIENTED_EDGE ( 'NONE', *, *, #1107, .T. ) ;
#131 = AXIS2_PLACEMENT_3D ( 'NONE', #1007, #1192, #65 ) ;
#132 = EDGE_CURVE ( 'NONE', #243, #723, #1056, .T. ) ;
#133 = CARTESIAN_POINT ( 'NONE',  ( 21.75000000000001421, 7.428752623566170548E-15, 3.000000000000000000 ) ) ;
#134 = EDGE_LOOP ( 'NONE', ( #1193, #215, #982, #608 ) ) ;
#135 = DIRECTION ( 'NONE',  ( 0.000000000000000000, 1.000000000000000000, 0.000000000000000000 ) ) ;
#136 = CARTESIAN_POINT ( 'NONE',  ( 1.750000000000015543, -28.25000000000000711, 3.000000000000000888 ) ) ;
#137 = EDGE_LOOP ( 'NONE', ( #1024, #79, #325, #565 ) ) ;
#138 = LINE ( 'NONE', #413, #968 ) ;
#139 = ORIENTED_EDGE ( 'NONE', *, *, #743, .T. ) ;
#140 = EDGE_CURVE ( 'NONE', #361, #481, #962, .T. ) ;
#141 = CARTESIAN_POINT ( 'NONE',  ( 30.25000000000001421, 30.74999999999999289, 8.000000000000000000 ) ) ;
#142 = CARTESIAN_POINT ( 'NONE',  ( 4.750000000000015099, 28.25000000000000711, 13.00100000000000122 ) ) ;
#143 = VERTEX_POINT ( 'NONE', #114 ) ;
#144 = VECTOR ( 'NONE', #736, 1000.000000000000227 ) ;
#145 = PLANE ( 'NONE',  #680 ) ;
#146 = ORIENTED_EDGE ( 'NONE', *, *, #242, .F. ) ;
#147 = ADVANCED_FACE ( 'NONE', ( #876 ), #401, .F. ) ;
#148 = DIRECTION ( 'NONE',  ( -0.000000000000000000, -0.000000000000000000, -1.000000000000000000 ) ) ;
#149 = FACE_OUTER_BOUND ( 'NONE', #137, .T. ) ;
#150 = AXIS2_PLACEMENT_3D ( 'NONE', #889, #237, #878 ) ;
#151 = AXIS2_PLACEMENT_3D ( 'NONE', #277, #1222, #666 ) ;
#152 = LINE ( 'NONE', #259, #296 ) ;
#153 = ORIENTED_EDGE ( 'NONE', *, *, #322, .T. ) ;
#154 = VECTOR ( 'NONE', #511, 1000.000000000000000 ) ;
#155 = DIRECTION ( 'NONE',  ( 0.000000000000000000, 1.000000000000000000, 0.000000000000000000 ) ) ;
#156 = DIRECTION ( 'NONE',  ( -0.8660254037844384856, 0.5000000000000003331, 0.000000000000000000 ) ) ;
#157 = CARTESIAN_POINT ( 'NONE',  ( -18.24999999999998224, -5.000000000000000888, 1.500000000000000000 ) ) ;
#158 = VERTEX_POINT ( 'NONE', #794 ) ;
#159 = CARTESIAN_POINT ( 'NONE',  ( -33.25000000000000000, 33.25000000000000711, 3.000000000000000000 ) ) ;
#160 = EDGE_CURVE ( 'NONE', #158, #292, #900, .T. ) ;
#161 = CARTESIAN_POINT ( 'NONE',  ( -33.24999999999998579, -33.24999999999999289, 3.000000000000000000 ) ) ;
#162 = ORIENTED_EDGE ( 'NONE', *, *, #174, .F. ) ;
#163 = AXIS2_PLACEMENT_3D ( 'NONE', #1081, #523, #323 ) ;
#164 = LINE ( 'NONE', #744, #946 ) ;
#165 = DIRECTION ( 'NONE',  ( -0.8660254037844384856, 0.5000000000000002220, 0.000000000000000000 ) ) ;
#166 = VERTEX_POINT ( 'NONE', #435 ) ;
#167 = EDGE_CURVE ( 'NONE', #88, #22, #519, .T. ) ;
#168 = VECTOR ( 'NONE', #1152, 1000.000000000000000 ) ;
#169 = PERSON_AND_ORGANIZATION ( #352, #82 ) ;
#170 = FACE_OUTER_BOUND ( 'NONE', #60, .T. ) ;
#171 = ORIENTED_EDGE ( 'NONE', *, *, #1202, .F. ) ;
#172 = CARTESIAN_POINT ( 'NONE',  ( 17.75000000000001421, 6.938893903907228378E-15, 3.000000000000000000 ) ) ;
#173 = ORIENTED_EDGE ( 'NONE', *, *, #997, .F. ) ;
#174 = EDGE_CURVE ( 'NONE', #934, #539, #138, .T. ) ;
#175 = COORDINATED_UNIVERSAL_TIME_OFFSET ( 5, 30, .AHEAD. ) ;
#176 = LINE ( 'NONE', #275, #295 ) ;
#177 = CARTESIAN_POINT ( 'NONE',  ( 0.000000000000000000, 0.000000000000000000, 3.000000000000000000 ) ) ;
#178 = ORIENTED_EDGE ( 'NONE', *, *, #579, .F. ) ;
#179 = DIRECTION ( 'NONE',  ( -0.000000000000000000, -0.000000000000000000, -1.000000000000000000 ) ) ;
#180 = PERSON_AND_ORGANIZATION ( #352, #82 ) ;
#181 = EDGE_CURVE ( 'NONE', #690, #300, #980, .T. ) ;
#182 = CARTESIAN_POINT ( 'NONE',  ( -18.24999999999998224, 6.938893903907228378E-15, 13.00100000000000122 ) ) ;
#183 = FACE_BOUND ( 'NONE', #1163, .T. ) ;
#184 = EDGE_LOOP ( 'NONE', ( #717, #960, #792, #27 ) ) ;
#185 = ORIENTED_EDGE ( 'NONE', *, *, #412, .F. ) ;
#186 = DIRECTION ( 'NONE',  ( -0.8660254037844384856, 0.5000000000000002220, 0.000000000000000000 ) ) ;
#187 = VECTOR ( 'NONE', #1214, 1000.000000000000000 ) ;
#188 = EDGE_CURVE ( 'NONE', #166, #723, #192, .T. ) ;
#189 = CIRCLE ( 'NONE', #737, 1.500000000000001332 ) ;
#190 = CALENDAR_DATE ( 2026, 29, 8 ) ;
#191 = DIRECTION ( 'NONE',  ( 0.000000000000000000, 1.000000000000000000, 0.000000000000000000 ) ) ;
#192 = CIRCLE ( 'NONE', #600, 4.000000000000000000 ) ;
#193 = ADVANCED_FACE ( 'NONE', ( #526 ), #214, .F. ) ;
#194 = LINE ( 'NONE', #943, #273 ) ;
#195 = VERTEX_POINT ( 'NONE', #1079 ) ;
#196 = FACE_OUTER_BOUND ( 'NONE', #500, .T. ) ;
#197 = PERSON_AND_ORGANIZATION ( #352, #82 ) ;
#198 = CARTESIAN_POINT ( 'NONE',  ( -33.25000000000000000, 33.25000000000000711, 0.000000000000000000 ) ) ;
#199 = CARTESIAN_POINT ( 'NONE',  ( 4.750000000000015099, -28.25000000000000711, 3.000000000000000888 ) ) ;
#200 = ADVANCED_FACE ( 'NONE', ( #226 ), #1156, .T. ) ;
#201 = CARTESIAN_POINT ( 'NONE',  ( -13.91987298107778770, 2.500000000000000888, 3.000000000000000000 ) ) ;
#202 = SECURITY_CLASSIFICATION ( '', '', #674 ) ;
#203 = VECTOR ( 'NONE', #983, 1000.000000000000000 ) ;
#204 = CARTESIAN_POINT ( 'NONE',  ( 33.25000000000001421, -28.24999999999999289, 8.000000000000000000 ) ) ;
#205 = DIRECTION ( 'NONE',  ( -1.000000000000000000, -0.000000000000000000, -0.000000000000000000 ) ) ;
#206 = ORIENTED_EDGE ( 'NONE', *, *, #93, .F. ) ;
#207 = CARTESIAN_POINT ( 'NONE',  ( 21.75000000000001421, 7.428752623566170548E-15, 3.000000000000000000 ) ) ;
#208 = VECTOR ( 'NONE', #780, 1000.000000000000000 ) ;
#209 = CIRCLE ( 'NONE', #536, 2.500000000000000444 ) ;
#210 = DIRECTION ( 'NONE',  ( 0.000000000000000000, 0.000000000000000000, -1.000000000000000000 ) ) ;
#211 = CARTESIAN_POINT ( 'NONE',  ( -13.91987298107778770, -2.499999999999999112, 1.500000000000000000 ) ) ;
#212 = ORIENTED_EDGE ( 'NONE', *, *, #1197, .T. ) ;
#213 = AXIS2_PLACEMENT_3D ( 'NONE', #886, #1167, #1068 ) ;
#214 = CYLINDRICAL_SURFACE ( 'NONE', #916, 2.500000000000000444 ) ;
#215 = ORIENTED_EDGE ( 'NONE', *, *, #955, .T. ) ;
#216 = EDGE_CURVE ( 'NONE', #143, #644, #483, .T. ) ;
#217 = LINE ( 'NONE', #497, #1154 ) ;
#218 = PLANE ( 'NONE',  #1064 ) ;
#219 = EDGE_LOOP ( 'NONE', ( #178, #125 ) ) ;
#220 = DIRECTION ( 'NONE',  ( 0.000000000000000000, 1.000000000000000000, 0.000000000000000000 ) ) ;
#221 = EDGE_LOOP ( 'NONE', ( #130, #276, #281, #1035, #173, #890 ) ) ;
#222 = ADVANCED_FACE ( 'NONE', ( #124 ), #973, .F. ) ;
#223 = CARTESIAN_POINT ( 'NONE',  ( -33.24999999999998579, -33.24999999999999289, 3.000000000000000000 ) ) ;
#224 = LINE ( 'NONE', #1083, #438 ) ;
#225 = ORIENTED_EDGE ( 'NONE', *, *, #1016, .F. ) ;
#226 = FACE_OUTER_BOUND ( 'NONE', #921, .T. ) ;
#227 = ORIENTED_EDGE ( 'NONE', *, *, #1062, .T. ) ;
#228 = LINE ( 'NONE', #424, #1020 ) ;
#229 = AXIS2_PLACEMENT_3D ( 'NONE', #766, #1034, #1125 ) ;
#230 = CARTESIAN_POINT ( 'NONE',  ( 30.25000000000001776, -33.24999999999999289, 13.00000000000000178 ) ) ;
#231 = ORIENTED_EDGE ( 'NONE', *, *, #820, .T. ) ;
#232 = ADVANCED_FACE ( 'NONE', ( #1074 ), #118, .F. ) ;
#233 = DIRECTION ( 'NONE',  ( -0.000000000000000000, -0.000000000000000000, -1.000000000000000000 ) ) ;
#234 = VERTEX_POINT ( 'NONE', #617 ) ;
#235 = VECTOR ( 'NONE', #673, 1000.000000000000000 ) ;
#236 = LINE ( 'NONE', #645, #653 ) ;
#237 = DIRECTION ( 'NONE',  ( -1.000000000000000000, -0.000000000000000000, -0.000000000000000000 ) ) ;
#238 = EDGE_LOOP ( 'NONE', ( #304, #612, #563, #278 ) ) ;
#239 = VERTEX_POINT ( 'NONE', #240 ) ;
#240 = CARTESIAN_POINT ( 'NONE',  ( 33.25000000000001421, 25.74999999999999645, 8.000000000000000000 ) ) ;
#241 = ORIENTED_EDGE ( 'NONE', *, *, #624, .F. ) ;
#242 = EDGE_CURVE ( 'NONE', #1153, #712, #836, .T. ) ;
#243 = VERTEX_POINT ( 'NONE', #133 ) ;
#244 = DIRECTION ( 'NONE',  ( 0.000000000000000000, 0.000000000000000000, -1.000000000000000000 ) ) ;
#245 = VECTOR ( 'NONE', #1004, 1000.000000000000000 ) ;
#246 = PLANE ( 'NONE',  #895 ) ;
#247 = EDGE_LOOP ( 'NONE', ( #678, #475, #662, #906 ) ) ;
#248 = CARTESIAN_POINT ( 'NONE',  ( -33.25100000000000477, 25.75000000000001066, 8.000000000000000000 ) ) ;
#249 = CARTESIAN_POINT ( 'NONE',  ( 30.25000000000002132, 9.999999999999994671, 8.000000000000000000 ) ) ;
#250 = ORIENTED_EDGE ( 'NONE', *, *, #1169, .F. ) ;
#251 = AXIS2_PLACEMENT_3D ( 'NONE', #269, #998, #244 ) ;
#252 = AXIS2_PLACEMENT_3D ( 'NONE', #177, #671, #393 ) ;
#253 = CARTESIAN_POINT ( 'NONE',  ( 33.25000000000001421, -33.24999999999999289, 13.00000000000000178 ) ) ;
#254 = EDGE_LOOP ( 'NONE', ( #1008, #153 ) ) ;
#255 = VERTEX_POINT ( 'NONE', #44 ) ;
#256 = CARTESIAN_POINT ( 'NONE',  ( 33.25000000000000711, 9.999999999999994671, 8.000000000000000000 ) ) ;
#257 = EDGE_CURVE ( 'NONE', #284, #575, #189, .T. ) ;
#258 = DIRECTION ( 'NONE',  ( 0.000000000000000000, 0.000000000000000000, -1.000000000000000000 ) ) ;
#259 = CARTESIAN_POINT ( 'NONE',  ( 1.750000000000014211, -18.25000000000001066, 3.000000000000000888 ) ) ;
#260 = ORIENTED_EDGE ( 'NONE', *, *, #132, .T. ) ;
#261 = DIRECTION ( 'NONE',  ( -1.000000000000000000, 2.086885384633752903E-16, -0.000000000000000000 ) ) ;
#262 = ADVANCED_FACE ( 'NONE', ( #320 ), #145, .F. ) ;
#263 = DIRECTION ( 'NONE',  ( -0.000000000000000000, -0.000000000000000000, -1.000000000000000000 ) ) ;
#264 = FACE_OUTER_BOUND ( 'NONE', #371, .T. ) ;
#265 = EDGE_LOOP ( 'NONE', ( #994, #394, #162, #440 ) ) ;
#266 = LOCAL_TIME ( 18, 31, 27.00000000000000000, #865 ) ;
#267 = AXIS2_PLACEMENT_3D ( 'NONE', #804, #798, #1076 ) ;
#268 = PERSON_AND_ORGANIZATION ( #352, #82 ) ;
#269 = CARTESIAN_POINT ( 'NONE',  ( 30.25000000000001421, -28.24999999999999289, 8.000000000000000000 ) ) ;
#270 = DIRECTION ( 'NONE',  ( -1.000000000000000000, 2.086885384633752903E-16, -0.000000000000000000 ) ) ;
#271 = ORIENTED_EDGE ( 'NONE', *, *, #987, .T. ) ;
#272 = EDGE_CURVE ( 'NONE', #461, #705, #718, .T. ) ;
#273 = VECTOR ( 'NONE', #474, 1000.000000000000000 ) ;
#274 = PERSON_AND_ORGANIZATION_ROLE ( 'classification_officer' ) ;
#275 = CARTESIAN_POINT ( 'NONE',  ( 1.750000000000015543, 28.25000000000000711, 0.000000000000000000 ) ) ;
#276 = ORIENTED_EDGE ( 'NONE', *, *, #101, .F. ) ;
#277 = CARTESIAN_POINT ( 'NONE',  ( 33.25000000000000000, 33.25000000000000711, 3.000000000000000000 ) ) ;
#278 = ORIENTED_EDGE ( 'NONE', *, *, #322, .F. ) ;
#279 = CC_DESIGN_PERSON_AND_ORGANIZATION_ASSIGNMENT ( #180, #274, ( #202 ) ) ;
#280 = CARTESIAN_POINT ( 'NONE',  ( 17.75000000000001421, 6.938893903907228378E-15, 3.000000000000000000 ) ) ;
#281 = ORIENTED_EDGE ( 'NONE', *, *, #969, .F. ) ;
#282 = DATE_AND_TIME ( #484, #787 ) ;
#283 = CARTESIAN_POINT ( 'NONE',  ( 30.25000000000001421, -28.24999999999999289, 8.000000000000000000 ) ) ;
#284 = VERTEX_POINT ( 'NONE', #442 ) ;
#285 = LINE ( 'NONE', #774, #914 ) ;
#286 = EDGE_LOOP ( 'NONE', ( #879, #29 ) ) ;
#287 = ADVANCED_FACE ( 'NONE', ( #995 ), #603, .T. ) ;
#288 = DIRECTION ( 'NONE',  ( -1.000000000000000000, 0.000000000000000000, 0.000000000000000000 ) ) ;
#289 = DATE_AND_TIME ( #1044, #1136 ) ;
#290 = LINE ( 'NONE', #773, #619 ) ;
#291 = CARTESIAN_POINT ( 'NONE',  ( 4.750000000000015099, 28.25000000000000711, 3.000000000000000888 ) ) ;
#292 = VERTEX_POINT ( 'NONE', #538 ) ;
#293 = ORIENTED_EDGE ( 'NONE', *, *, #559, .F. ) ;
#294 = LINE ( 'NONE', #1043, #821 ) ;
#295 = VECTOR ( 'NONE', #491, 1000.000000000000000 ) ;
#296 = VECTOR ( 'NONE', #733, 1000.000000000000000 ) ;
#297 = EDGE_CURVE ( 'NONE', #518, #361, #1205, .T. ) ;
#298 = CARTESIAN_POINT ( 'NONE',  ( 1.750000000000014211, -18.25000000000001066, 0.000000000000000000 ) ) ;
#299 = LINE ( 'NONE', #383, #1106 ) ;
#300 = VERTEX_POINT ( 'NONE', #157 ) ;
#301 = CYLINDRICAL_SURFACE ( 'NONE', #1088, 4.000000000000000000 ) ;
#302 = CYLINDRICAL_SURFACE ( 'NONE', #1117, 2.500000000000000444 ) ;
#303 = DIRECTION ( 'NONE',  ( 0.000000000000000000, 1.000000000000000000, 0.000000000000000000 ) ) ;
#304 = ORIENTED_EDGE ( 'NONE', *, *, #833, .F. ) ;
#305 = VERTEX_POINT ( 'NONE', #648 ) ;
#306 = PRODUCT_DEFINITION_FORMATION_WITH_SPECIFIED_SOURCE ( 'ANY', '', #814, .NOT_KNOWN. ) ;
#307 = DIRECTION ( 'NONE',  ( 1.000000000000000000, 2.086885384633752903E-16, 0.000000000000000000 ) ) ;
#308 = FACE_BOUND ( 'NONE', #219, .T. ) ;
#309 = ORIENTED_EDGE ( 'NONE', *, *, #841, .T. ) ;
#310 = DIRECTION ( 'NONE',  ( 0.000000000000000000, 0.000000000000000000, 1.000000000000000000 ) ) ;
#311 = ORIENTED_EDGE ( 'NONE', *, *, #447, .T. ) ;
#312 = ADVANCED_FACE ( 'NONE', ( #1188 ), #661, .T. ) ;
#313 = AXIS2_PLACEMENT_3D ( 'NONE', #249, #1021, #258 ) ;
#314 = ORIENTED_EDGE ( 'NONE', *, *, #1025, .T. ) ;
#315 = VECTOR ( 'NONE', #233, 1000.000000000000000 ) ;
#316 = DIRECTION ( 'NONE',  ( 1.000000000000000000, 2.086885384633752656E-16, -0.000000000000000000 ) ) ;
#317 = CARTESIAN_POINT ( 'NONE',  ( 1.750000000000015543, -28.25000000000000711, 3.000000000000000888 ) ) ;
#318 = EDGE_LOOP ( 'NONE', ( #605, #582, #1176, #1184, #950, #1111 ) ) ;
#319 = VECTOR ( 'NONE', #1149, 1000.000000000000000 ) ;
#320 = FACE_OUTER_BOUND ( 'NONE', #1015, .T. ) ;
#321 = ORIENTED_EDGE ( 'NONE', *, *, #216, .T. ) ;
#322 = EDGE_CURVE ( 'NONE', #965, #305, #209, .T. ) ;
#323 = DIRECTION ( 'NONE',  ( 0.000000000000000000, 1.000000000000000000, 0.000000000000000000 ) ) ;
#324 = FACE_BOUND ( 'NONE', #34, .T. ) ;
#325 = ORIENTED_EDGE ( 'NONE', *, *, #297, .T. ) ;
#326 = DIRECTION ( 'NONE',  ( 1.000000000000000000, 2.086885384633752903E-16, -0.000000000000000000 ) ) ;
#327 = EDGE_LOOP ( 'NONE', ( #567, #545, #751, #845 ) ) ;
#328 = LOCAL_TIME ( 18, 31, 27.00000000000000000, #1226 ) ;
#329 = CARTESIAN_POINT ( 'NONE',  ( 33.25000000000001421, 33.25000000000000711, 13.00000000000000178 ) ) ;
#330 = ADVANCED_FACE ( 'NONE', ( #460 ), #844, .T. ) ;
#331 = CIRCLE ( 'NONE', #490, 2.500000000000000444 ) ;
#332 = PLANE ( 'NONE',  #1124 ) ;
#333 = VERTEX_POINT ( 'NONE', #365 ) ;
#334 = ORIENTED_EDGE ( 'NONE', *, *, #482, .T. ) ;
#335 = CARTESIAN_POINT ( 'NONE',  ( 1.750000000000015543, -28.25000000000000711, 3.000000000000000888 ) ) ;
#336 = VERTEX_POINT ( 'NONE', #1115 ) ;
#337 = DIRECTION ( 'NONE',  ( 1.000000000000000000, 0.000000000000000000, 0.000000000000000000 ) ) ;
#338 = VECTOR ( 'NONE', #732, 1000.000000000000000 ) ;
#339 = EDGE_CURVE ( 'NONE', #405, #1177, #640, .T. ) ;
#340 = FACE_OUTER_BOUND ( 'NONE', #247, .T. ) ;
#341 = ORIENTED_EDGE ( 'NONE', *, *, #976, .T. ) ;
#342 = CARTESIAN_POINT ( 'NONE',  ( 4.750000000000015099, 18.25000000000001066, 13.00100000000000122 ) ) ;
#343 = ORIENTED_EDGE ( 'NONE', *, *, #455, .F. ) ;
#344 = CLOSED_SHELL ( 'NONE', ( #871, #147, #598, #1120, #984, #121, #488, #614, #462, #796, #262, #548, #232, #590, #287, #193, #1022, #1208, #891, #391, #572, #714, #222, #467, #883, #362, #646, #632, #724, #330, #769, #200, #312, #375, #691 ) ) ;
#345 = ORIENTED_EDGE ( 'NONE', *, *, #1147, .F. ) ;
#346 =( LENGTH_UNIT ( ) NAMED_UNIT ( * ) SI_UNIT ( .MILLI., .METRE. ) );
#347 = CARTESIAN_POINT ( 'NONE',  ( -18.24999999999998224, -5.000000000000000888, 1.500000000000000000 ) ) ;
#348 = DIRECTION ( 'NONE',  ( 0.000000000000000000, 0.000000000000000000, -1.000000000000000000 ) ) ;
#349 = ORIENTED_EDGE ( 'NONE', *, *, #181, .T. ) ;
#350 = DIRECTION ( 'NONE',  ( 0.000000000000000000, 0.000000000000000000, 1.000000000000000000 ) ) ;
#351 = CARTESIAN_POINT ( 'NONE',  ( -13.91987298107778770, 2.500000000000000888, 3.000000000000000000 ) ) ;
#352 = PERSON ( 'UNSPECIFIED', 'UNSPECIFIED', 'UNSPECIFIED', ('UNSPECIFIED'), ('UNSPECIFIED'), ('UNSPECIFIED') ) ;
#353 = CARTESIAN_POINT ( 'NONE',  ( -13.91987298107778770, 2.500000000000000888, 1.500000000000000000 ) ) ;
#354 = ORIENTED_EDGE ( 'NONE', *, *, #368, .T. ) ;
#355 = EDGE_CURVE ( 'NONE', #255, #422, #1097, .T. ) ;
#356 = LINE ( 'NONE', #554, #942 ) ;
#357 = DIRECTION ( 'NONE',  ( -0.000000000000000000, -0.000000000000000000, -1.000000000000000000 ) ) ;
#358 = AXIS2_PLACEMENT_3D ( 'NONE', #664, #8, #392 ) ;
#359 = AXIS2_PLACEMENT_3D ( 'NONE', #172, #1121, #643 ) ;
#360 = CARTESIAN_POINT ( 'NONE',  ( -22.58012701892217322, -2.499999999999999556, 1.500000000000000000 ) ) ;
#361 = VERTEX_POINT ( 'NONE', #1030 ) ;
#362 = ADVANCED_FACE ( 'NONE', ( #264 ), #1210, .T. ) ;
#363 = CARTESIAN_POINT ( 'NONE',  ( -16.74999999999997868, 7.122590923779331100E-15, 1.499999999999999556 ) ) ;
#364 = FACE_OUTER_BOUND ( 'NONE', #757, .T. ) ;
#365 = CARTESIAN_POINT ( 'NONE',  ( 30.25000000000001421, 33.25000000000000711, 3.000000000000000000 ) ) ;
#366 = ORIENTED_EDGE ( 'NONE', *, *, #987, .F. ) ;
#367 = APPROVAL_ROLE ( '' ) ;
#368 = EDGE_CURVE ( 'NONE', #243, #234, #1201, .T. ) ;
#369 = DIRECTION ( 'NONE',  ( -1.000000000000000000, 0.000000000000000000, 0.000000000000000000 ) ) ;
#370 = DIRECTION ( 'NONE',  ( -1.000000000000000000, 0.000000000000000000, 0.000000000000000000 ) ) ;
#371 = EDGE_LOOP ( 'NONE', ( #212, #95, #24, #981 ) ) ;
#372 = VECTOR ( 'NONE', #621, 1000.000000000000000 ) ;
#373 = PERSON_AND_ORGANIZATION_ROLE ( 'creator' ) ;
#374 = DIRECTION ( 'NONE',  ( -0.000000000000000000, -0.000000000000000000, -1.000000000000000000 ) ) ;
#375 = ADVANCED_FACE ( 'NONE', ( #1023, #465 ), #246, .F. ) ;
#376 = LINE ( 'NONE', #856, #379 ) ;
#377 = ORIENTED_EDGE ( 'NONE', *, *, #181, .F. ) ;
#378 = AXIS2_PLACEMENT_3D ( 'NONE', #1148, #303, #1058 ) ;
#379 = VECTOR ( 'NONE', #94, 1000.000000000000000 ) ;
#380 = APPROVAL_DATE_TIME ( #1213, #19 ) ;
#381 = VECTOR ( 'NONE', #28, 1000.000000000000000 ) ;
#382 = DIRECTION ( 'NONE',  ( 1.301042606982605567E-16, 1.000000000000000000, 0.000000000000000000 ) ) ;
#383 = CARTESIAN_POINT ( 'NONE',  ( 1.750000000000014211, 18.25000000000001066, 0.000000000000000000 ) ) ;
#384 = VERTEX_POINT ( 'NONE', #161 ) ;
#385 = DIRECTION ( 'NONE',  ( 0.000000000000000000, -1.000000000000000000, 0.000000000000000000 ) ) ;
#386 = CALENDAR_DATE ( 2026, 29, 8 ) ;
#387 = CARTESIAN_POINT ( 'NONE',  ( -22.58012701892217322, -2.499999999999999556, 1.500000000000000000 ) ) ;
#388 = DIRECTION ( 'NONE',  ( 0.000000000000000000, 0.000000000000000000, -1.000000000000000000 ) ) ;
#389 = EDGE_LOOP ( 'NONE', ( #887, #139, #18, #428 ) ) ;
#390 = LINE ( 'NONE', #681, #778 ) ;
#391 = ADVANCED_FACE ( 'NONE', ( #636 ), #918, .F. ) ;
#392 = DIRECTION ( 'NONE',  ( -1.000000000000000000, 0.000000000000000000, 0.000000000000000000 ) ) ;
#393 = DIRECTION ( 'NONE',  ( 1.000000000000000000, 0.000000000000000000, 0.000000000000000000 ) ) ;
#394 = ORIENTED_EDGE ( 'NONE', *, *, #929, .T. ) ;
#395 = DIRECTION ( 'NONE',  ( -0.000000000000000000, -0.000000000000000000, -1.000000000000000000 ) ) ;
#396 = AXIS2_PLACEMENT_3D ( 'NONE', #283, #508, #41 ) ;
#397 = EDGE_CURVE ( 'NONE', #507, #143, #152, .T. ) ;
#398 = CYLINDRICAL_SURFACE ( 'NONE', #930, 2.499999999999998668 ) ;
#399 = VECTOR ( 'NONE', #179, 1000.000000000000000 ) ;
#400 = FACE_OUTER_BOUND ( 'NONE', #221, .T. ) ;
#401 = CYLINDRICAL_SURFACE ( 'NONE', #498, 2.499999999999998668 ) ;
#402 = DIRECTION ( 'NONE',  ( 1.000000000000000000, 0.000000000000000000, 0.000000000000000000 ) ) ;
#403 = EDGE_CURVE ( 'NONE', #552, #712, #1198, .T. ) ;
#404 = FACE_BOUND ( 'NONE', #2, .T. ) ;
#405 = VERTEX_POINT ( 'NONE', #1103 ) ;
#406 = LINE ( 'NONE', #1139, #1029 ) ;
#407 = ORIENTED_EDGE ( 'NONE', *, *, #496, .F. ) ;
#408 = AXIS2_PLACEMENT_3D ( 'NONE', #1185, #1108, #70 ) ;
#409 = LINE ( 'NONE', #115, #693 ) ;
#410 = DIRECTION ( 'NONE',  ( -1.000000000000000000, 2.086885384633752903E-16, -0.000000000000000000 ) ) ;
#411 = VERTEX_POINT ( 'NONE', #253 ) ;
#412 = EDGE_CURVE ( 'NONE', #951, #333, #739, .T. ) ;
#413 = CARTESIAN_POINT ( 'NONE',  ( 1.750000000000015543, 28.25000000000000711, 13.00100000000000122 ) ) ;
#414 = EDGE_LOOP ( 'NONE', ( #990, #522, #171, #16 ) ) ;
#415 = VECTOR ( 'NONE', #936, 1000.000000000000227 ) ;
#416 = CIRCLE ( 'NONE', #35, 2.500000000000000444 ) ;
#417 = CARTESIAN_POINT ( 'NONE',  ( -33.25100000000001188, 12.50000000000000888, 8.000000000000000000 ) ) ;
#418 = PLANE ( 'NONE',  #533 ) ;
#419 = VERTEX_POINT ( 'NONE', #68 ) ;
#420 = VECTOR ( 'NONE', #421, 1000.000000000000000 ) ;
#421 = DIRECTION ( 'NONE',  ( -0.000000000000000000, -0.000000000000000000, -1.000000000000000000 ) ) ;
#422 = VERTEX_POINT ( 'NONE', #1110 ) ;
#423 = EDGE_CURVE ( 'NONE', #333, #43, #453, .T. ) ;
#424 = CARTESIAN_POINT ( 'NONE',  ( -33.24999999999998579, -33.24999999999999289, 0.000000000000000000 ) ) ;
#425 = CARTESIAN_POINT ( 'NONE',  ( -18.24999999999998224, -5.000000000000000888, 1.500000000000000000 ) ) ;
#426 = ORIENTED_EDGE ( 'NONE', *, *, #1178, .F. ) ;
#427 = CARTESIAN_POINT ( 'NONE',  ( 1.750000000000015543, 28.25000000000000711, 13.00100000000000122 ) ) ;
#428 = ORIENTED_EDGE ( 'NONE', *, *, #1112, .F. ) ;
#429 = EDGE_LOOP ( 'NONE', ( #250, #782, #505, #126 ) ) ;
#430 = EDGE_CURVE ( 'NONE', #1002, #512, #574, .T. ) ;
#431 = DIRECTION ( 'NONE',  ( -0.000000000000000000, -0.000000000000000000, -1.000000000000000000 ) ) ;
#432 = VECTOR ( 'NONE', #701, 1000.000000000000000 ) ;
#433 = CARTESIAN_POINT ( 'NONE',  ( 1.750000000000014211, -18.25000000000001066, 13.00100000000000122 ) ) ;
#434 = ORIENTED_EDGE ( 'NONE', *, *, #922, .F. ) ;
#435 = CARTESIAN_POINT ( 'NONE',  ( 13.75000000000001599, 6.938893903907228378E-15, 0.000000000000000000 ) ) ;
#436 = EDGE_LOOP ( 'NONE', ( #37, #840, #1084, #626 ) ) ;
#437 = CARTESIAN_POINT ( 'NONE',  ( -33.25100000000001188, 10.00000000000000888, 8.000000000000000000 ) ) ;
#438 = VECTOR ( 'NONE', #601, 1000.000000000000114 ) ;
#439 = CARTESIAN_POINT ( 'NONE',  ( 30.25000000000001776, -33.24999999999999289, 3.000000000000000000 ) ) ;
#440 = ORIENTED_EDGE ( 'NONE', *, *, #935, .F. ) ;
#441 = UNCERTAINTY_MEASURE_WITH_UNIT (LENGTH_MEASURE( 1.000000000000000082E-05 ), #346, 'distance_accuracy_value', 'NONE');
#442 = CARTESIAN_POINT ( 'NONE',  ( -19.74999999999998224, 6.938893903907228378E-15, 0.000000000000000000 ) ) ;
#443 = ORIENTED_EDGE ( 'NONE', *, *, #496, .T. ) ;
#444 = VECTOR ( 'NONE', #11, 1000.000000000000000 ) ;
#445 = CARTESIAN_POINT ( 'NONE',  ( 30.25000000000001421, 25.74999999999999645, 8.000000000000000000 ) ) ;
#446 = DIRECTION ( 'NONE',  ( -0.000000000000000000, 0.000000000000000000, -1.000000000000000000 ) ) ;
#447 = EDGE_CURVE ( 'NONE', #292, #705, #299, .T. ) ;
#448 = CARTESIAN_POINT ( 'NONE',  ( -33.25100000000001188, -7.500000000000007994, 8.000000000000000000 ) ) ;
#449 = ORIENTED_EDGE ( 'NONE', *, *, #860, .T. ) ;
#450 = CARTESIAN_POINT ( 'NONE',  ( -16.74999999999997868, 7.122590923779331100E-15, 13.00100000000000122 ) ) ;
#451 = DIRECTION ( 'NONE',  ( 0.8660254037844387076, 0.4999999999999999445, 0.000000000000000000 ) ) ;
#452 = ORIENTED_EDGE ( 'NONE', *, *, #1147, .T. ) ;
#453 = LINE ( 'NONE', #551, #1218 ) ;
#454 = EDGE_LOOP ( 'NONE', ( #271, #899, #527, #185, #1166, #1087 ) ) ;
#455 = EDGE_CURVE ( 'NONE', #1199, #66, #285, .T. ) ;
#456 = CARTESIAN_POINT ( 'NONE',  ( 30.25000000000001776, -33.24999999999999289, 13.00000000000000178 ) ) ;
#457 = AXIS2_PLACEMENT_3D ( 'NONE', #524, #785, #1065 ) ;
#458 = EDGE_CURVE ( 'NONE', #1059, #1153, #376, .T. ) ;
#459 = AXIS2_PLACEMENT_3D ( 'NONE', #1086, #1161, #220 ) ;
#460 = FACE_OUTER_BOUND ( 'NONE', #800, .T. ) ;
#461 = VERTEX_POINT ( 'NONE', #756 ) ;
#462 = ADVANCED_FACE ( 'NONE', ( #677, #1041, #183, #9, #1127 ), #480, .F. ) ;
#463 = DIRECTION ( 'NONE',  ( 0.000000000000000000, 1.000000000000000000, 0.000000000000000000 ) ) ;
#464 = DIRECTION ( 'NONE',  ( -0.000000000000000000, -0.000000000000000000, -1.000000000000000000 ) ) ;
#465 = FACE_OUTER_BOUND ( 'NONE', #986, .T. ) ;
#466 = ORIENTED_EDGE ( 'NONE', *, *, #1082, .T. ) ;
#467 = ADVANCED_FACE ( 'NONE', ( #1143 ), #593, .T. ) ;
#468 = LINE ( 'NONE', #298, #1105 ) ;
#469 = CARTESIAN_POINT ( 'NONE',  ( 33.25000000000000000, 33.25000000000000711, 0.000000000000000000 ) ) ;
#470 = VERTEX_POINT ( 'NONE', #199 ) ;
#471 = VECTOR ( 'NONE', #963, 1000.000000000000000 ) ;
#472 = DATE_TIME_ROLE ( 'creation_date' ) ;
#473 = CARTESIAN_POINT ( 'NONE',  ( -18.24999999999998224, 5.000000000000000888, 1.500000000000000000 ) ) ;
#474 = DIRECTION ( 'NONE',  ( 0.000000000000000000, 0.000000000000000000, 1.000000000000000000 ) ) ;
#475 = ORIENTED_EDGE ( 'NONE', *, *, #38, .F. ) ;
#476 = AXIS2_PLACEMENT_3D ( 'NONE', #182, #760, #92 ) ;
#477 = VECTOR ( 'NONE', #827, 1000.000000000000000 ) ;
#478 = ORIENTED_EDGE ( 'NONE', *, *, #13, .T. ) ;
#479 = LINE ( 'NONE', #198, #187 ) ;
#480 = PLANE ( 'NONE',  #151 ) ;
#481 = VERTEX_POINT ( 'NONE', #861 ) ;
#482 = EDGE_CURVE ( 'NONE', #22, #292, #767, .T. ) ;
#483 = LINE ( 'NONE', #335, #381 ) ;
#484 = CALENDAR_DATE ( 2026, 29, 8 ) ;
#485 = CARTESIAN_POINT ( 'NONE',  ( 1.750000000000015543, -28.25000000000000711, 13.00100000000000122 ) ) ;
#486 = FACE_BOUND ( 'NONE', #1091, .T. ) ;
#487 = ORIENTED_EDGE ( 'NONE', *, *, #803, .T. ) ;
#488 = ADVANCED_FACE ( 'NONE', ( #99, #867, #873, #486, #1055 ), #586, .T. ) ;
#489 = CARTESIAN_POINT ( 'NONE',  ( 1.750000000000014211, -18.25000000000001066, 0.000000000000000000 ) ) ;
#490 = AXIS2_PLACEMENT_3D ( 'NONE', #256, #261, #547 ) ;
#491 = DIRECTION ( 'NONE',  ( 1.301042606982605567E-16, 1.000000000000000000, -0.000000000000000000 ) ) ;
#492 = CARTESIAN_POINT ( 'NONE',  ( 1.750000000000015543, -28.25000000000000711, 13.00100000000000122 ) ) ;
#493 = EDGE_LOOP ( 'NONE', ( #1019, #623 ) ) ;
#494 = DIRECTION ( 'NONE',  ( 0.000000000000000000, 0.000000000000000000, 1.000000000000000000 ) ) ;
#495 = AXIS2_PLACEMENT_3D ( 'NONE', #517, #509, #628 ) ;
#496 = EDGE_CURVE ( 'NONE', #88, #158, #1036, .T. ) ;
#497 = CARTESIAN_POINT ( 'NONE',  ( 4.750000000000015099, -28.25000000000000711, 0.000000000000000000 ) ) ;
#498 = AXIS2_PLACEMENT_3D ( 'NONE', #783, #501, #36 ) ;
#499 = CARTESIAN_POINT ( 'NONE',  ( 1.750000000000014211, 18.25000000000001066, 13.00100000000000122 ) ) ;
#500 = EDGE_LOOP ( 'NONE', ( #667, #260, #1054, #1042 ) ) ;
#501 = DIRECTION ( 'NONE',  ( 1.000000000000000000, -2.086885384633752656E-16, -0.000000000000000000 ) ) ;
#502 = CC_DESIGN_PERSON_AND_ORGANIZATION_ASSIGNMENT ( #663, #1135, ( #306 ) ) ;
#503 = CARTESIAN_POINT ( 'NONE',  ( 30.25000000000002132, 7.499999999999994671, 8.000000000000000000 ) ) ;
#504 = DIRECTION ( 'NONE',  ( 0.000000000000000000, -1.000000000000000000, 0.000000000000000000 ) ) ;
#505 = ORIENTED_EDGE ( 'NONE', *, *, #75, .T. ) ;
#506 = DIRECTION ( 'NONE',  ( 0.000000000000000000, -0.000000000000000000, 1.000000000000000000 ) ) ;
#507 = VERTEX_POINT ( 'NONE', #959 ) ;
#508 = DIRECTION ( 'NONE',  ( -1.000000000000000000, -0.000000000000000000, -0.000000000000000000 ) ) ;
#509 = DIRECTION ( 'NONE',  ( 1.000000000000000000, -2.086885384633752656E-16, -0.000000000000000000 ) ) ;
#510 = ORIENTED_EDGE ( 'NONE', *, *, #706, .T. ) ;
#511 = DIRECTION ( 'NONE',  ( -0.000000000000000000, -0.000000000000000000, -1.000000000000000000 ) ) ;
#512 = VERTEX_POINT ( 'NONE', #469 ) ;
#513 = CIRCLE ( 'NONE', #251, 2.500000000000000444 ) ;
#514 = EDGE_LOOP ( 'NONE', ( #1173, #334, #525, #407 ) ) ;
#515 = AXIS2_PLACEMENT_3D ( 'NONE', #655, #370, #750 ) ;
#516 = CARTESIAN_POINT ( 'NONE',  ( 33.25000000000000000, 33.25000000000000711, 0.000000000000000000 ) ) ;
#517 = CARTESIAN_POINT ( 'NONE',  ( -33.25100000000001188, 10.00000000000000888, 8.000000000000000000 ) ) ;
#518 = VERTEX_POINT ( 'NONE', #1 ) ;
#519 = LINE ( 'NONE', #817, #420 ) ;
#520 = EDGE_LOOP ( 'NONE', ( #649, #802, #974, #50 ) ) ;
#521 = EDGE_CURVE ( 'NONE', #47, #546, #964, .T. ) ;
#522 = ORIENTED_EDGE ( 'NONE', *, *, #833, .T. ) ;
#523 = DIRECTION ( 'NONE',  ( 1.000000000000000000, 2.086885384633752656E-16, -0.000000000000000000 ) ) ;
#524 = CARTESIAN_POINT ( 'NONE',  ( 0.000000000000000000, 0.000000000000000000, 0.000000000000000000 ) ) ;
#525 = ORIENTED_EDGE ( 'NONE', *, *, #160, .F. ) ;
#526 = FACE_OUTER_BOUND ( 'NONE', #532, .T. ) ;
#527 = ORIENTED_EDGE ( 'NONE', *, *, #423, .F. ) ;
#528 = DIRECTION ( 'NONE',  ( 0.000000000000000000, 1.000000000000000000, 0.000000000000000000 ) ) ;
#529 = VECTOR ( 'NONE', #350, 1000.000000000000000 ) ;
#530 = DIRECTION ( 'NONE',  ( 1.000000000000000000, 0.000000000000000000, -0.000000000000000000 ) ) ;
#531 = CARTESIAN_POINT ( 'NONE',  ( -18.24999999999998224, 6.938893903907228378E-15, 0.000000000000000000 ) ) ;
#532 = EDGE_LOOP ( 'NONE', ( #109, #314, #740, #309 ) ) ;
#533 = AXIS2_PLACEMENT_3D ( 'NONE', #499, #1072, #1180 ) ;
#534 = CARTESIAN_POINT ( 'NONE',  ( -18.24999999999998224, 5.000000000000000888, 3.000000000000000000 ) ) ;
#535 = EDGE_CURVE ( 'NONE', #1206, #1159, #416, .T. ) ;
#536 = AXIS2_PLACEMENT_3D ( 'NONE', #544, #270, #745 ) ;
#537 = CARTESIAN_POINT ( 'NONE',  ( -33.25100000000000477, 30.75000000000000711, 8.000000000000000000 ) ) ;
#538 = CARTESIAN_POINT ( 'NONE',  ( 4.750000000000015099, 18.25000000000001066, 0.000000000000000000 ) ) ;
#539 = VERTEX_POINT ( 'NONE', #1215 ) ;
#540 = AXIS2_PLACEMENT_3D ( 'NONE', #427, #989, #625 ) ;
#541 = EDGE_CURVE ( 'NONE', #690, #919, #194, .T. ) ;
#542 = DIRECTION ( 'NONE',  ( -1.000000000000000000, 0.000000000000000000, 0.000000000000000000 ) ) ;
#543 = ORIENTED_EDGE ( 'NONE', *, *, #860, .F. ) ;
#544 = CARTESIAN_POINT ( 'NONE',  ( 33.25000000000000711, 9.999999999999994671, 8.000000000000000000 ) ) ;
#545 = ORIENTED_EDGE ( 'NONE', *, *, #1178, .T. ) ;
#546 = VERTEX_POINT ( 'NONE', #689 ) ;
#547 = DIRECTION ( 'NONE',  ( 0.000000000000000000, -1.000000000000000000, 0.000000000000000000 ) ) ;
#548 = ADVANCED_FACE ( 'NONE', ( #400 ), #781, .F. ) ;
#549 = CC_DESIGN_APPROVAL ( #19, ( #108 ) ) ;
#550 = DIRECTION ( 'NONE',  ( 0.000000000000000000, -1.000000000000000000, 0.000000000000000000 ) ) ;
#551 = CARTESIAN_POINT ( 'NONE',  ( -33.25000000000000000, 33.25000000000000711, 3.000000000000000000 ) ) ;
#552 = VERTEX_POINT ( 'NONE', #622 ) ;
#553 = EDGE_CURVE ( 'NONE', #919, #255, #224, .T. ) ;
#554 = CARTESIAN_POINT ( 'NONE',  ( -22.58012701892217322, 2.500000000000001776, 3.000000000000000000 ) ) ;
#555 = LINE ( 'NONE', #351, #338 ) ;
#556 = VECTOR ( 'NONE', #688, 1000.000000000000000 ) ;
#557 = DIRECTION ( 'NONE',  ( 0.000000000000000000, 0.000000000000000000, -1.000000000000000000 ) ) ;
#558 = ORIENTED_EDGE ( 'NONE', *, *, #1194, .T. ) ;
#559 = EDGE_CURVE ( 'NONE', #43, #384, #722, .T. ) ;
#560 = VECTOR ( 'NONE', #494, 1000.000000000000000 ) ;
#561 = ORIENTED_EDGE ( 'NONE', *, *, #521, .T. ) ;
#562 = CYLINDRICAL_SURFACE ( 'NONE', #476, 1.500000000000001332 ) ;
#563 = ORIENTED_EDGE ( 'NONE', *, *, #1046, .T. ) ;
#564 = DIRECTION ( 'NONE',  ( 0.8660254037844387076, 0.4999999999999998890, 0.000000000000000000 ) ) ;
#565 = ORIENTED_EDGE ( 'NONE', *, *, #140, .T. ) ;
#566 = CARTESIAN_POINT ( 'NONE',  ( 1.750000000000015543, 28.25000000000000711, 3.000000000000000888 ) ) ;
#567 = ORIENTED_EDGE ( 'NONE', *, *, #535, .F. ) ;
#568 = DIRECTION ( 'NONE',  ( 0.000000000000000000, -1.000000000000000000, 0.000000000000000000 ) ) ;
#569 = ORIENTED_EDGE ( 'NONE', *, *, #430, .F. ) ;
#570 = LOCAL_TIME ( 18, 31, 27.00000000000000000, #939 ) ;
#571 = LINE ( 'NONE', #945, #1221 ) ;
#572 = ADVANCED_FACE ( 'NONE', ( #815 ), #418, .F. ) ;
#573 = DIRECTION ( 'NONE',  ( 0.000000000000000000, -1.000000000000000000, 0.000000000000000000 ) ) ;
#574 = LINE ( 'NONE', #1132, #991 ) ;
#575 = VERTEX_POINT ( 'NONE', #799 ) ;
#576 = VECTOR ( 'NONE', #15, 1000.000000000000000 ) ;
#577 = CARTESIAN_POINT ( 'NONE',  ( -33.25100000000000477, -30.75000000000000711, 8.000000000000000000 ) ) ;
#578 = LINE ( 'NONE', #473, #415 ) ;
#579 = EDGE_CURVE ( 'NONE', #552, #1059, #1217, .T. ) ;
#580 = MANIFOLD_SOLID_BREP ( 'Cut-Extrude6', #344 ) ;
#581 = DIRECTION ( 'NONE',  ( 1.000000000000000000, 1.301042606982605567E-16, -0.000000000000000000 ) ) ;
#582 = ORIENTED_EDGE ( 'NONE', *, *, #553, .T. ) ;
#583 = LINE ( 'NONE', #1133, #952 ) ;
#584 = CARTESIAN_POINT ( 'NONE',  ( -13.91987298107778770, -2.499999999999999112, 3.000000000000000000 ) ) ;
#585 = EDGE_CURVE ( 'NONE', #686, #1098, #709, .T. ) ;
#586 = PLANE ( 'NONE',  #252 ) ;
#587 = ORIENTED_EDGE ( 'NONE', *, *, #803, .F. ) ;
#588 = APPROVAL_PERSON_ORGANIZATION ( #765, #19, #83 ) ;
#589 = DIRECTION ( 'NONE',  ( -0.000000000000000000, -0.000000000000000000, -1.000000000000000000 ) ) ;
#590 = ADVANCED_FACE ( 'NONE', ( #324, #1158, #404, #308, #340 ), #1077, .F. ) ;
#591 = CIRCLE ( 'NONE', #267, 4.000000000000000000 ) ;
#592 = CARTESIAN_POINT ( 'NONE',  ( 1.750000000000015543, -28.25000000000000711, 0.000000000000000000 ) ) ;
#593 = PLANE ( 'NONE',  #854 ) ;
#594 = EDGE_LOOP ( 'NONE', ( #1093, #1144, #349, #880 ) ) ;
#595 = AXIS2_PLACEMENT_3D ( 'NONE', #159, #550, #837 ) ;
#596 = LINE ( 'NONE', #577, #319 ) ;
#597 = CIRCLE ( 'NONE', #313, 2.500000000000000444 ) ;
#598 = ADVANCED_FACE ( 'NONE', ( #1090 ), #615, .F. ) ;
#599 = DIRECTION ( 'NONE',  ( 1.000000000000000000, 2.086885384633752656E-16, -0.000000000000000000 ) ) ;
#600 = AXIS2_PLACEMENT_3D ( 'NONE', #725, #310, #698 ) ;
#601 = DIRECTION ( 'NONE',  ( -0.8660254037844383745, -0.5000000000000003331, 0.000000000000000000 ) ) ;
#602 = ORIENTED_EDGE ( 'NONE', *, *, #813, .T. ) ;
#603 = PLANE ( 'NONE',  #1160 ) ;
#604 = VERTEX_POINT ( 'NONE', #993 ) ;
#605 = ORIENTED_EDGE ( 'NONE', *, *, #684, .T. ) ;
#606 = CARTESIAN_POINT ( 'NONE',  ( 30.25000000000002132, -9.999999999999994671, 8.000000000000000000 ) ) ;
#607 = CARTESIAN_POINT ( 'NONE',  ( 33.25000000000001421, 28.24999999999999289, 8.000000000000000000 ) ) ;
#608 = ORIENTED_EDGE ( 'NONE', *, *, #1032, .T. ) ;
#609 = CARTESIAN_POINT ( 'NONE',  ( -33.25100000000001188, -10.00000000000000888, 8.000000000000000000 ) ) ;
#610 = ORIENTED_EDGE ( 'NONE', *, *, #272, .F. ) ;
#611 = APPROVAL_PERSON_ORGANIZATION ( #1118, #1053, #367 ) ;
#612 = ORIENTED_EDGE ( 'NONE', *, *, #706, .F. ) ;
#613 = LINE ( 'NONE', #223, #372 ) ;
#614 = ADVANCED_FACE ( 'NONE', ( #695, #805, #21, #112, #1165 ), #716, .F. ) ;
#615 = CYLINDRICAL_SURFACE ( 'NONE', #495, 2.500000000000000444 ) ;
#616 = ORIENTED_EDGE ( 'NONE', *, *, #541, .T. ) ;
#617 = CARTESIAN_POINT ( 'NONE',  ( 13.75000000000001599, 6.938893903907228378E-15, 3.000000000000000000 ) ) ;
#618 = ORIENTED_EDGE ( 'NONE', *, *, #98, .T. ) ;
#619 = VECTOR ( 'NONE', #14, 1000.000000000000000 ) ;
#620 = ORIENTED_EDGE ( 'NONE', *, *, #638, .F. ) ;
#621 = DIRECTION ( 'NONE',  ( 1.000000000000000000, 0.000000000000000000, 0.000000000000000000 ) ) ;
#622 = CARTESIAN_POINT ( 'NONE',  ( 30.25000000000002132, -7.499999999999994671, 8.000000000000000000 ) ) ;
#623 = ORIENTED_EDGE ( 'NONE', *, *, #763, .F. ) ;
#624 = EDGE_CURVE ( 'NONE', #644, #470, #26, .T. ) ;
#625 = DIRECTION ( 'NONE',  ( 0.000000000000000000, -0.000000000000000000, 1.000000000000000000 ) ) ;
#626 = ORIENTED_EDGE ( 'NONE', *, *, #84, .F. ) ;
#627 = DIRECTION ( 'NONE',  ( 0.000000000000000000, 0.000000000000000000, 1.000000000000000000 ) ) ;
#628 = DIRECTION ( 'NONE',  ( 0.000000000000000000, 1.000000000000000000, 0.000000000000000000 ) ) ;
#629 = ORIENTED_EDGE ( 'NONE', *, *, #935, .T. ) ;
#630 = DIRECTION ( 'NONE',  ( 0.000000000000000000, 0.000000000000000000, -1.000000000000000000 ) ) ;
#631 = ORIENTED_EDGE ( 'NONE', *, *, #585, .F. ) ;
#632 = ADVANCED_FACE ( 'NONE', ( #42 ), #218, .T. ) ;
#633 = CARTESIAN_POINT ( 'NONE',  ( -33.25000000000000000, 33.25000000000000711, 0.000000000000000000 ) ) ;
#634 = AXIS2_PLACEMENT_3D ( 'NONE', #877, #402, #784 ) ;
#635 = DIRECTION ( 'NONE',  ( -0.000000000000000000, -1.000000000000000000, -0.000000000000000000 ) ) ;
#636 = FACE_OUTER_BOUND ( 'NONE', #265, .T. ) ;
#637 = ORIENTED_EDGE ( 'NONE', *, *, #455, .T. ) ;
#638 = EDGE_CURVE ( 'NONE', #300, #255, #905, .T. ) ;
#639 = MECHANICAL_CONTEXT ( 'NONE', #771, 'mechanical' ) ;
#640 = CIRCLE ( 'NONE', #755, 1.500000000000001332 ) ;
#641 = CARTESIAN_POINT ( 'NONE',  ( 21.75000000000001421, 7.428752623566170548E-15, 0.000000000000000000 ) ) ;
#642 = EDGE_LOOP ( 'NONE', ( #1225, #10 ) ) ;
#643 = DIRECTION ( 'NONE',  ( 1.000000000000000000, 0.000000000000000000, 0.000000000000000000 ) ) ;
#644 = VERTEX_POINT ( 'NONE', #317 ) ;
#645 = CARTESIAN_POINT ( 'NONE',  ( 1.750000000000015543, 28.25000000000000711, 0.000000000000000000 ) ) ;
#646 = ADVANCED_FACE ( 'NONE', ( #49 ), #332, .T. ) ;
#647 = PLANE ( 'NONE',  #1182 ) ;
#648 = CARTESIAN_POINT ( 'NONE',  ( 33.25000000000000711, 12.49999999999999467, 8.000000000000000000 ) ) ;
#649 = ORIENTED_EDGE ( 'NONE', *, *, #339, .T. ) ;
#650 = CARTESIAN_POINT ( 'NONE',  ( 4.750000000000015099, -28.25000000000000711, 3.000000000000000888 ) ) ;
#651 = AXIS2_PLACEMENT_3D ( 'NONE', #437, #1089, #155 ) ;
#652 = DIRECTION ( 'NONE',  ( 0.000000000000000000, 0.000000000000000000, 1.000000000000000000 ) ) ;
#653 = VECTOR ( 'NONE', #337, 1000.000000000000000 ) ;
#654 = EDGE_CURVE ( 'NONE', #604, #239, #697, .T. ) ;
#655 = CARTESIAN_POINT ( 'NONE',  ( 4.750000000000015099, -28.25000000000000711, 13.00100000000000122 ) ) ;
#656 = ORIENTED_EDGE ( 'NONE', *, *, #731, .T. ) ;
#657 = DATE_AND_TIME ( #190, #266 ) ;
#658 = DIRECTION ( 'NONE',  ( 1.000000000000000000, -2.086885384633752656E-16, -0.000000000000000000 ) ) ;
#659 = VERTEX_POINT ( 'NONE', #978 ) ;
#660 = VECTOR ( 'NONE', #1119, 1000.000000000000000 ) ;
#661 = PLANE ( 'NONE',  #58 ) ;
#662 = ORIENTED_EDGE ( 'NONE', *, *, #731, .F. ) ;
#663 = PERSON_AND_ORGANIZATION ( #352, #82 ) ;
#664 = CARTESIAN_POINT ( 'NONE',  ( -18.24999999999998224, 6.938893903907228378E-15, 1.499999999999999556 ) ) ;
#665 = ORIENTED_EDGE ( 'NONE', *, *, #1100, .T. ) ;
#666 = DIRECTION ( 'NONE',  ( 2.086885384633752903E-16, -1.000000000000000000, 0.000000000000000000 ) ) ;
#667 = ORIENTED_EDGE ( 'NONE', *, *, #1016, .T. ) ;
#668 = EDGE_CURVE ( 'NONE', #824, #422, #77, .T. ) ;
#669 = APPROVAL_DATE_TIME ( #282, #1053 ) ;
#670 = DIRECTION ( 'NONE',  ( 0.000000000000000000, 0.000000000000000000, 1.000000000000000000 ) ) ;
#671 = DIRECTION ( 'NONE',  ( -0.000000000000000000, 0.000000000000000000, 1.000000000000000000 ) ) ;
#672 = ORIENTED_EDGE ( 'NONE', *, *, #521, .F. ) ;
#673 = DIRECTION ( 'NONE',  ( -0.000000000000000000, -0.000000000000000000, -1.000000000000000000 ) ) ;
#674 = SECURITY_CLASSIFICATION_LEVEL ( 'unclassified' ) ;
#675 = EDGE_CURVE ( 'NONE', #1159, #604, #1013, .T. ) ;
#676 = CARTESIAN_POINT ( 'NONE',  ( -33.24999999999998579, -33.24999999999999289, 0.000000000000000000 ) ) ;
#677 = FACE_BOUND ( 'NONE', #286, .T. ) ;
#678 = ORIENTED_EDGE ( 'NONE', *, *, #809, .T. ) ;
#679 = VECTOR ( 'NONE', #464, 1000.000000000000000 ) ;
#680 = AXIS2_PLACEMENT_3D ( 'NONE', #807, #326, #1175 ) ;
#681 = CARTESIAN_POINT ( 'NONE',  ( -19.74999999999998224, 6.938893903907228378E-15, 13.00100000000000122 ) ) ;
#682 = APPROVAL_STATUS ( 'not_yet_approved' ) ;
#683 = FACE_OUTER_BOUND ( 'NONE', #762, .T. ) ;
#684 = EDGE_CURVE ( 'NONE', #66, #919, #555, .T. ) ;
#685 = DIRECTION ( 'NONE',  ( -1.000000000000000000, -0.000000000000000000, -0.000000000000000000 ) ) ;
#686 = VERTEX_POINT ( 'NONE', #1102 ) ;
#687 = CARTESIAN_POINT ( 'NONE',  ( 33.25000000000001421, -30.74999999999999289, 8.000000000000000000 ) ) ;
#688 = DIRECTION ( 'NONE',  ( 1.000000000000000000, -0.000000000000000000, -0.000000000000000000 ) ) ;
#689 = CARTESIAN_POINT ( 'NONE',  ( 1.750000000000015543, -28.25000000000000711, 0.000000000000000000 ) ) ;
#690 = VERTEX_POINT ( 'NONE', #56 ) ;
#691 = ADVANCED_FACE ( 'NONE', ( #63 ), #1017, .F. ) ;
#692 = EDGE_LOOP ( 'NONE', ( #1162, #1094, #862, #975 ) ) ;
#693 = VECTOR ( 'NONE', #431, 1000.000000000000000 ) ;
#694 = CYLINDRICAL_SURFACE ( 'NONE', #908, 2.499999999999998668 ) ;
#695 = FACE_BOUND ( 'NONE', #493, .T. ) ;
#696 = ORIENTED_EDGE ( 'NONE', *, *, #969, .T. ) ;
#697 = CIRCLE ( 'NONE', #128, 2.499999999999998668 ) ;
#698 = DIRECTION ( 'NONE',  ( 1.000000000000000000, 0.000000000000000000, 0.000000000000000000 ) ) ;
#699 = ORIENTED_EDGE ( 'NONE', *, *, #482, .F. ) ;
#700 = VECTOR ( 'NONE', #564, 1000.000000000000114 ) ;
#701 = DIRECTION ( 'NONE',  ( -1.000000000000000000, -0.000000000000000000, -0.000000000000000000 ) ) ;
#702 = DIRECTION ( 'NONE',  ( 1.000000000000000000, 0.000000000000000000, 0.000000000000000000 ) ) ;
#703 = ORIENTED_EDGE ( 'NONE', *, *, #84, .T. ) ;
#704 = DIRECTION ( 'NONE',  ( -1.000000000000000000, 0.000000000000000000, 0.000000000000000000 ) ) ;
#705 = VERTEX_POINT ( 'NONE', #826 ) ;
#706 = EDGE_CURVE ( 'NONE', #195, #1080, #597, .T. ) ;
#707 = ORIENTED_EDGE ( 'NONE', *, *, #909, .F. ) ;
#708 = CARTESIAN_POINT ( 'NONE',  ( 30.25000000000002132, -12.49999999999999467, 8.000000000000000000 ) ) ;
#709 = LINE ( 'NONE', #122, #852 ) ;
#710 = ORIENTED_EDGE ( 'NONE', *, *, #368, .F. ) ;
#711 = DIRECTION ( 'NONE',  ( -0.8660254037844383745, -0.5000000000000003331, 0.000000000000000000 ) ) ;
#712 = VERTEX_POINT ( 'NONE', #1109 ) ;
#713 = VECTOR ( 'NONE', #970, 1000.000000000000000 ) ;
#714 = ADVANCED_FACE ( 'NONE', ( #1191 ), #647, .F. ) ;
#715 = FACE_OUTER_BOUND ( 'NONE', #134, .T. ) ;
#716 = PLANE ( 'NONE',  #457 ) ;
#717 = ORIENTED_EDGE ( 'NONE', *, *, #809, .F. ) ;
#718 = LINE ( 'NONE', #911, #315 ) ;
#719 = ORIENTED_EDGE ( 'NONE', *, *, #339, .F. ) ;
#720 = AXIS2_PLACEMENT_3D ( 'NONE', #1113, #843, #542 ) ;
#721 =( NAMED_UNIT ( * ) SI_UNIT ( $, .STERADIAN. ) SOLID_ANGLE_UNIT ( ) );
#722 = LINE ( 'NONE', #985, #168 ) ;
#723 = VERTEX_POINT ( 'NONE', #641 ) ;
#724 = ADVANCED_FACE ( 'NONE', ( #364 ), #748, .T. ) ;
#725 = CARTESIAN_POINT ( 'NONE',  ( 17.75000000000001421, 6.938893903907228378E-15, 0.000000000000000000 ) ) ;
#726 = ORIENTED_EDGE ( 'NONE', *, *, #855, .F. ) ;
#727 = APPLICATION_PROTOCOL_DEFINITION ( 'international standard', 'config_control_design', 1994, #771 ) ;
#728 = DIRECTION ( 'NONE',  ( 0.5000000000000003331, 0.8660254037844384856, -0.000000000000000000 ) ) ;
#729 = DIRECTION ( 'NONE',  ( -1.000000000000000000, 0.000000000000000000, 0.000000000000000000 ) ) ;
#730 = EDGE_LOOP ( 'NONE', ( #561, #227, #341, #1126 ) ) ;
#731 = EDGE_CURVE ( 'NONE', #951, #901, #1204, .T. ) ;
#732 = DIRECTION ( 'NONE',  ( 0.000000000000000000, -1.000000000000000000, 0.000000000000000000 ) ) ;
#733 = DIRECTION ( 'NONE',  ( -1.000000000000000000, 0.000000000000000000, -0.000000000000000000 ) ) ;
#734 = ORIENTED_EDGE ( 'NONE', *, *, #909, .T. ) ;
#735 = VECTOR ( 'NONE', #374, 1000.000000000000000 ) ;
#736 = DIRECTION ( 'NONE',  ( 0.8660254037844385966, -0.5000000000000000000, 0.000000000000000000 ) ) ;
#737 = AXIS2_PLACEMENT_3D ( 'NONE', #531, #630, #893 ) ;
#738 = PLANE ( 'NONE',  #595 ) ;
#739 = LINE ( 'NONE', #1014, #797 ) ;
#740 = ORIENTED_EDGE ( 'NONE', *, *, #403, .T. ) ;
#741 = VECTOR ( 'NONE', #711, 1000.000000000000114 ) ;
#742 = CARTESIAN_POINT ( 'NONE',  ( -13.91987298107778770, 2.500000000000000888, 1.500000000000000000 ) ) ;
#743 = EDGE_CURVE ( 'NONE', #143, #47, #71, .T. ) ;
#744 = CARTESIAN_POINT ( 'NONE',  ( 4.750000000000015099, -28.25000000000000711, 13.00100000000000122 ) ) ;
#745 = DIRECTION ( 'NONE',  ( 0.000000000000000000, -1.000000000000000000, 0.000000000000000000 ) ) ;
#746 = EDGE_LOOP ( 'NONE', ( #1037, #343, #999, #616 ) ) ;
#747 = CALENDAR_DATE ( 2026, 29, 8 ) ;
#748 = PLANE ( 'NONE',  #1045 ) ;
#749 = CIRCLE ( 'NONE', #103, 2.499999999999998668 ) ;
#750 = DIRECTION ( 'NONE',  ( 0.000000000000000000, 0.000000000000000000, 1.000000000000000000 ) ) ;
#751 = ORIENTED_EDGE ( 'NONE', *, *, #654, .F. ) ;
#752 = APPLICATION_CONTEXT ( 'configuration controlled 3d designs of mechanical parts and assemblies' ) ;
#753 = VECTOR ( 'NONE', #947, 1000.000000000000000 ) ;
#754 = LINE ( 'NONE', #1142, #208 ) ;
#755 = AXIS2_PLACEMENT_3D ( 'NONE', #72, #81, #839 ) ;
#756 = CARTESIAN_POINT ( 'NONE',  ( 1.750000000000014211, 18.25000000000001066, 3.000000000000000888 ) ) ;
#757 = EDGE_LOOP ( 'NONE', ( #1078, #620, #1223, #808 ) ) ;
#758 = EDGE_CURVE ( 'NONE', #470, #419, #164, .T. ) ;
#759 = PERSON_AND_ORGANIZATION_ROLE ( 'design_owner' ) ;
#760 = DIRECTION ( 'NONE',  ( -0.000000000000000000, -0.000000000000000000, -1.000000000000000000 ) ) ;
#761 = DIRECTION ( 'NONE',  ( 1.000000000000000000, 0.000000000000000000, 0.000000000000000000 ) ) ;
#762 = EDGE_LOOP ( 'NONE', ( #426, #979, #786, #434 ) ) ;
#763 = EDGE_CURVE ( 'NONE', #575, #284, #834, .T. ) ;
#764 = DIRECTION ( 'NONE',  ( 0.000000000000000000, 1.000000000000000000, 0.000000000000000000 ) ) ;
#765 = PERSON_AND_ORGANIZATION ( #352, #82 ) ;
#766 = CARTESIAN_POINT ( 'NONE',  ( 33.25000000000000711, -9.999999999999994671, 8.000000000000000000 ) ) ;
#767 = LINE ( 'NONE', #87, #1010 ) ;
#768 = EDGE_LOOP ( 'NONE', ( #629, #703, #443, #478 ) ) ;
#769 = ADVANCED_FACE ( 'NONE', ( #149 ), #920, .T. ) ;
#770 = CARTESIAN_POINT ( 'NONE',  ( 4.750000000000015099, 28.25000000000000711, 3.000000000000000000 ) ) ;
#771 = APPLICATION_CONTEXT ( 'configuration controlled 3d designs of mechanical parts and assemblies' ) ;
#772 = EDGE_CURVE ( 'NONE', #43, #1211, #830, .T. ) ;
#773 = CARTESIAN_POINT ( 'NONE',  ( -33.25100000000001188, 7.500000000000007994, 8.000000000000000000 ) ) ;
#774 = CARTESIAN_POINT ( 'NONE',  ( -13.91987298107778770, 2.500000000000000888, 1.500000000000000000 ) ) ;
#775 = VECTOR ( 'NONE', #652, 1000.000000000000000 ) ;
#776 = CARTESIAN_POINT ( 'NONE',  ( 33.25000000000001421, -33.24999999999999289, 0.000000000000000000 ) ) ;
#777 = ORIENTED_EDGE ( 'NONE', *, *, #864, .F. ) ;
#778 = VECTOR ( 'NONE', #589, 1000.000000000000000 ) ;
#779 = CC_DESIGN_PERSON_AND_ORGANIZATION_ASSIGNMENT ( #169, #759, ( #814 ) ) ;
#780 = DIRECTION ( 'NONE',  ( -0.000000000000000000, -0.000000000000000000, -1.000000000000000000 ) ) ;
#781 = PLANE ( 'NONE',  #378 ) ;
#782 = ORIENTED_EDGE ( 'NONE', *, *, #902, .T. ) ;
#783 = CARTESIAN_POINT ( 'NONE',  ( -33.25100000000000477, 28.25000000000000711, 8.000000000000000000 ) ) ;
#784 = DIRECTION ( 'NONE',  ( 0.000000000000000000, 0.000000000000000000, -1.000000000000000000 ) ) ;
#785 = DIRECTION ( 'NONE',  ( -0.000000000000000000, 0.000000000000000000, 1.000000000000000000 ) ) ;
#786 = ORIENTED_EDGE ( 'NONE', *, *, #675, .T. ) ;
#787 = LOCAL_TIME ( 18, 31, 27.00000000000000000, #175 ) ;
#788 = LINE ( 'NONE', #1051, #39 ) ;
#789 = AXIS2_PLACEMENT_3D ( 'NONE', #819, #76, #463 ) ;
#790 = DIRECTION ( 'NONE',  ( 0.000000000000000000, 1.000000000000000000, 0.000000000000000000 ) ) ;
#791 = DIRECTION ( 'NONE',  ( 0.000000000000000000, -1.000000000000000000, 0.000000000000000000 ) ) ;
#792 = ORIENTED_EDGE ( 'NONE', *, *, #559, .T. ) ;
#793 = AXIS2_PLACEMENT_3D ( 'NONE', #822, #67, #451 ) ;
#794 = CARTESIAN_POINT ( 'NONE',  ( 4.750000000000015099, 18.25000000000001066, 3.000000000000000888 ) ) ;
#795 = ORIENTED_EDGE ( 'NONE', *, *, #132, .F. ) ;
#796 = ADVANCED_FACE ( 'NONE', ( #1096 ), #738, .F. ) ;
#797 = VECTOR ( 'NONE', #923, 1000.000000000000000 ) ;
#798 = DIRECTION ( 'NONE',  ( 0.000000000000000000, 0.000000000000000000, 1.000000000000000000 ) ) ;
#799 = CARTESIAN_POINT ( 'NONE',  ( -16.74999999999997868, 7.122590923779331100E-15, 0.000000000000000000 ) ) ;
#800 = EDGE_LOOP ( 'NONE', ( #928, #1116, #449, #912 ) ) ;
#801 = DIRECTION ( 'NONE',  ( 0.000000000000000000, 1.000000000000000000, 0.000000000000000000 ) ) ;
#802 = ORIENTED_EDGE ( 'NONE', *, *, #1169, .T. ) ;
#803 = EDGE_CURVE ( 'NONE', #686, #336, #513, .T. ) ;
#804 = CARTESIAN_POINT ( 'NONE',  ( 17.75000000000001421, 6.938893903907228378E-15, 3.000000000000000000 ) ) ;
#805 = FACE_BOUND ( 'NONE', #642, .T. ) ;
#806 = ORIENTED_EDGE ( 'NONE', *, *, #447, .F. ) ;
#807 = CARTESIAN_POINT ( 'NONE',  ( -33.25000000000000000, 33.25000000000000711, 3.000000000000000000 ) ) ;
#808 = ORIENTED_EDGE ( 'NONE', *, *, #668, .T. ) ;
#809 = EDGE_CURVE ( 'NONE', #333, #659, #910, .T. ) ;
#810 = CIRCLE ( 'NONE', #634, 2.500000000000000444 ) ;
#811 = PRODUCT_RELATED_PRODUCT_CATEGORY ( 'detail', '', ( #814 ) ) ;
#812 = CARTESIAN_POINT ( 'NONE',  ( 33.25000000000001421, 33.25000000000000711, 13.00000000000000178 ) ) ;
#813 = EDGE_CURVE ( 'NONE', #234, #166, #1186, .T. ) ;
#814 = PRODUCT ( 'Base_v2_Default_sldprt', 'Base_v2_Default_sldprt', '', ( #639 ) ) ;
#815 = FACE_OUTER_BOUND ( 'NONE', #1114, .T. ) ;
#816 = EDGE_LOOP ( 'NONE', ( #1069, #146 ) ) ;
#817 = CARTESIAN_POINT ( 'NONE',  ( 4.750000000000015099, 28.25000000000000711, 13.00100000000000122 ) ) ;
#818 = AXIS2_PLACEMENT_3D ( 'NONE', #953, #670, #1146 ) ;
#819 = CARTESIAN_POINT ( 'NONE',  ( 33.25000000000001421, -28.24999999999999289, 8.000000000000000000 ) ) ;
#820 = EDGE_CURVE ( 'NONE', #361, #1199, #578, .T. ) ;
#821 = VECTOR ( 'NONE', #288, 1000.000000000000000 ) ;
#822 = CARTESIAN_POINT ( 'NONE',  ( -22.58012701892217322, 2.500000000000001776, 1.500000000000000000 ) ) ;
#823 = CARTESIAN_POINT ( 'NONE',  ( 0.000000000000000000, 0.000000000000000000, 1.500000000000000000 ) ) ;
#824 = VERTEX_POINT ( 'NONE', #387 ) ;
#825 = FACE_OUTER_BOUND ( 'NONE', #238, .T. ) ;
#826 = CARTESIAN_POINT ( 'NONE',  ( 1.750000000000014211, 18.25000000000001066, 0.000000000000000000 ) ) ;
#827 = DIRECTION ( 'NONE',  ( 1.000000000000000000, 2.086885384633752656E-16, -0.000000000000000000 ) ) ;
#828 = EDGE_LOOP ( 'NONE', ( #487, #1006, #452, #631 ) ) ;
#829 =( NAMED_UNIT ( * ) PLANE_ANGLE_UNIT ( ) SI_UNIT ( $, .RADIAN. ) );
#830 = LINE ( 'NONE', #1196, #1123 ) ;
#831 = DIRECTION ( 'NONE',  ( 0.000000000000000000, 0.000000000000000000, 1.000000000000000000 ) ) ;
#832 = EDGE_LOOP ( 'NONE', ( #795, #354, #602, #726 ) ) ;
#833 = EDGE_CURVE ( 'NONE', #1080, #965, #290, .T. ) ;
#834 = CIRCLE ( 'NONE', #720, 1.500000000000001332 ) ;
#835 = LINE ( 'NONE', #534, #144 ) ;
#836 = CIRCLE ( 'NONE', #459, 2.500000000000000444 ) ;
#837 = DIRECTION ( 'NONE',  ( 0.000000000000000000, -0.000000000000000000, -1.000000000000000000 ) ) ;
#838 = VERTEX_POINT ( 'NONE', #676 ) ;
#839 = DIRECTION ( 'NONE',  ( -1.000000000000000000, 0.000000000000000000, 0.000000000000000000 ) ) ;
#840 = ORIENTED_EDGE ( 'NONE', *, *, #1224, .T. ) ;
#841 = EDGE_CURVE ( 'NONE', #712, #1153, #1009, .T. ) ;
#842 = DATE_AND_TIME ( #386, #328 ) ;
#843 = DIRECTION ( 'NONE',  ( 0.000000000000000000, 0.000000000000000000, -1.000000000000000000 ) ) ;
#844 = PLANE ( 'NONE',  #91 ) ;
#845 = ORIENTED_EDGE ( 'NONE', *, *, #675, .F. ) ;
#846 = EDGE_CURVE ( 'NONE', #422, #5, #1137, .T. ) ;
#847 = DIRECTION ( 'NONE',  ( -1.000000000000000000, 0.000000000000000000, -0.000000000000000000 ) ) ;
#848 = CIRCLE ( 'NONE', #789, 2.499999999999998668 ) ;
#849 = CARTESIAN_POINT ( 'NONE',  ( 1.750000000000015543, -28.25000000000000711, 0.000000000000000000 ) ) ;
#850 = EDGE_LOOP ( 'NONE', ( #225, #710 ) ) ;
#851 = PERSON_AND_ORGANIZATION ( #352, #82 ) ;
#852 = VECTOR ( 'NONE', #33, 1000.000000000000000 ) ;
#853 = CARTESIAN_POINT ( 'NONE',  ( 30.25000000000001776, 33.25000000000000711, 13.00000000000000178 ) ) ;
#854 = AXIS2_PLACEMENT_3D ( 'NONE', #492, #581, #1049 ) ;
#855 = EDGE_CURVE ( 'NONE', #723, #166, #988, .T. ) ;
#856 = CARTESIAN_POINT ( 'NONE',  ( -33.25100000000001188, -12.50000000000000888, 8.000000000000000000 ) ) ;
#857 = ORIENTED_EDGE ( 'NONE', *, *, #929, .F. ) ;
#858 = LINE ( 'NONE', #4, #235 ) ;
#859 = PLANE ( 'NONE',  #913 ) ;
#860 = EDGE_CURVE ( 'NONE', #824, #518, #1028, .T. ) ;
#861 = CARTESIAN_POINT ( 'NONE',  ( -18.24999999999998224, 5.000000000000000888, 3.000000000000000000 ) ) ;
#862 = ORIENTED_EDGE ( 'NONE', *, *, #242, .T. ) ;
#863 = CARTESIAN_POINT ( 'NONE',  ( 4.750000000000015099, 28.25000000000000711, 0.000000000000000000 ) ) ;
#864 = EDGE_CURVE ( 'NONE', #384, #838, #754, .T. ) ;
#865 = COORDINATED_UNIVERSAL_TIME_OFFSET ( 5, 30, .AHEAD. ) ;
#866 = CARTESIAN_POINT ( 'NONE',  ( 30.25000000000001776, -33.24999999999999289, 13.00000000000000178 ) ) ;
#867 = FACE_OUTER_BOUND ( 'NONE', #184, .T. ) ;
#868 = ORIENTED_EDGE ( 'NONE', *, *, #758, .T. ) ;
#869 = CIRCLE ( 'NONE', #408, 2.500000000000000444 ) ;
#870 = LINE ( 'NONE', #1038, #444 ) ;
#871 = ADVANCED_FACE ( 'NONE', ( #1040 ), #562, .F. ) ;
#872 = CARTESIAN_POINT ( 'NONE',  ( 1.750000000000015543, 28.25000000000000711, 3.000000000000000888 ) ) ;
#873 = FACE_BOUND ( 'NONE', #850, .T. ) ;
#874 = VERTEX_POINT ( 'NONE', #1227 ) ;
#875 = VECTOR ( 'NONE', #898, 1000.000000000000000 ) ;
#876 = FACE_OUTER_BOUND ( 'NONE', #327, .T. ) ;
#877 = CARTESIAN_POINT ( 'NONE',  ( 30.25000000000001421, 28.24999999999999289, 8.000000000000000000 ) ) ;
#878 = DIRECTION ( 'NONE',  ( 0.000000000000000000, 0.000000000000000000, -1.000000000000000000 ) ) ;
#879 = ORIENTED_EDGE ( 'NONE', *, *, #654, .T. ) ;
#880 = ORIENTED_EDGE ( 'NONE', *, *, #638, .T. ) ;
#881 = ORIENTED_EDGE ( 'NONE', *, *, #98, .F. ) ;
#882 = LINE ( 'NONE', #888, #432 ) ;
#883 = ADVANCED_FACE ( 'NONE', ( #170 ), #859, .T. ) ;
#884 = DIRECTION ( 'NONE',  ( 0.000000000000000000, -0.000000000000000000, -1.000000000000000000 ) ) ;
#885 = ORIENTED_EDGE ( 'NONE', *, *, #216, .F. ) ;
#886 = CARTESIAN_POINT ( 'NONE',  ( -18.24999999999998224, 5.000000000000000888, 1.500000000000000000 ) ) ;
#887 = ORIENTED_EDGE ( 'NONE', *, *, #397, .T. ) ;
#888 = CARTESIAN_POINT ( 'NONE',  ( -33.25000000000000000, 33.25000000000000711, 0.000000000000000000 ) ) ;
#889 = CARTESIAN_POINT ( 'NONE',  ( 30.25000000000002132, -9.999999999999994671, 8.000000000000000000 ) ) ;
#890 = ORIENTED_EDGE ( 'NONE', *, *, #864, .T. ) ;
#891 = ADVANCED_FACE ( 'NONE', ( #683 ), #398, .F. ) ;
#892 = CIRCLE ( 'NONE', #1200, 2.499999999999998668 ) ;
#893 = DIRECTION ( 'NONE',  ( -1.000000000000000000, 0.000000000000000000, 0.000000000000000000 ) ) ;
#894 = ORIENTED_EDGE ( 'NONE', *, *, #1082, .F. ) ;
#895 = AXIS2_PLACEMENT_3D ( 'NONE', #823, #348, #729 ) ;
#896 = CARTESIAN_POINT ( 'NONE',  ( 33.25000000000001421, -25.74999999999999645, 8.000000000000000000 ) ) ;
#897 = EDGE_CURVE ( 'NONE', #874, #47, #468, .T. ) ;
#898 = DIRECTION ( 'NONE',  ( 1.000000000000000000, -0.000000000000000000, 0.000000000000000000 ) ) ;
#899 = ORIENTED_EDGE ( 'NONE', *, *, #772, .F. ) ;
#900 = LINE ( 'NONE', #342, #154 ) ;
#901 = VERTEX_POINT ( 'NONE', #866 ) ;
#902 = EDGE_CURVE ( 'NONE', #1177, #405, #32, .T. ) ;
#903 = EDGE_LOOP ( 'NONE', ( #321, #40, #672, #1216 ) ) ;
#904 = LINE ( 'NONE', #329, #471 ) ;
#905 = LINE ( 'NONE', #425, #966 ) ;
#906 = ORIENTED_EDGE ( 'NONE', *, *, #412, .T. ) ;
#907 = DIRECTION ( 'NONE',  ( 1.000000000000000000, 2.086885384633752656E-16, -0.000000000000000000 ) ) ;
#908 = AXIS2_PLACEMENT_3D ( 'NONE', #1063, #599, #790 ) ;
#909 = EDGE_CURVE ( 'NONE', #1211, #838, #479, .T. ) ;
#910 = LINE ( 'NONE', #439, #57 ) ;
#911 = CARTESIAN_POINT ( 'NONE',  ( 1.750000000000014211, 18.25000000000001066, 13.00100000000000122 ) ) ;
#912 = ORIENTED_EDGE ( 'NONE', *, *, #1134, .T. ) ;
#913 = AXIS2_PLACEMENT_3D ( 'NONE', #485, #1131, #85 ) ;
#914 = VECTOR ( 'NONE', #949, 1000.000000000000000 ) ;
#915 = DIRECTION ( 'NONE',  ( 0.8660254037844387076, 0.4999999999999998890, 0.000000000000000000 ) ) ;
#916 = AXIS2_PLACEMENT_3D ( 'NONE', #609, #907, #801 ) ;
#917 = CARTESIAN_POINT ( 'NONE',  ( -22.58012701892217322, -2.499999999999999556, 1.500000000000000000 ) ) ;
#918 = PLANE ( 'NONE',  #131 ) ;
#919 = VERTEX_POINT ( 'NONE', #584 ) ;
#920 = PLANE ( 'NONE',  #793 ) ;
#921 = EDGE_LOOP ( 'NONE', ( #1189, #1122, #231, #637 ) ) ;
#922 = EDGE_CURVE ( 'NONE', #239, #604, #892, .T. ) ;
#923 = DIRECTION ( 'NONE',  ( -0.000000000000000000, -0.000000000000000000, -1.000000000000000000 ) ) ;
#924 = ORIENTED_EDGE ( 'NONE', *, *, #160, .T. ) ;
#925 = LINE ( 'NONE', #450, #1003 ) ;
#926 = CARTESIAN_POINT ( 'NONE',  ( 1.750000000000014211, -18.25000000000001066, 13.00100000000000122 ) ) ;
#927 = CARTESIAN_POINT ( 'NONE',  ( -22.58012701892217322, 2.500000000000001776, 1.500000000000000000 ) ) ;
#928 = ORIENTED_EDGE ( 'NONE', *, *, #846, .F. ) ;
#929 = EDGE_CURVE ( 'NONE', #705, #539, #176, .T. ) ;
#930 = AXIS2_PLACEMENT_3D ( 'NONE', #80, #658, #1220 ) ;
#931 = DIRECTION ( 'NONE',  ( -0.000000000000000000, -0.000000000000000000, -1.000000000000000000 ) ) ;
#932 = DESIGN_CONTEXT ( 'detailed design', #752, 'design' ) ;
#933 = CARTESIAN_POINT ( 'NONE',  ( -18.24999999999998224, -5.000000000000000888, 3.000000000000000000 ) ) ;
#934 = VERTEX_POINT ( 'NONE', #566 ) ;
#935 = EDGE_CURVE ( 'NONE', #461, #934, #941, .T. ) ;
#936 = DIRECTION ( 'NONE',  ( 0.8660254037844385966, -0.5000000000000000000, 0.000000000000000000 ) ) ;
#937 = DIRECTION ( 'NONE',  ( -1.000000000000000000, 0.000000000000000000, 0.000000000000000000 ) ) ;
#938 = ORIENTED_EDGE ( 'NONE', *, *, #902, .F. ) ;
#939 = COORDINATED_UNIVERSAL_TIME_OFFSET ( 5, 30, .AHEAD. ) ;
#940 = CC_DESIGN_PERSON_AND_ORGANIZATION_ASSIGNMENT ( #268, #1039, ( #306 ) ) ;
#941 = LINE ( 'NONE', #872, #1141 ) ;
#942 = VECTOR ( 'NONE', #915, 1000.000000000000114 ) ;
#943 = CARTESIAN_POINT ( 'NONE',  ( -13.91987298107778770, -2.499999999999999112, 1.500000000000000000 ) ) ;
#944 = ORIENTED_EDGE ( 'NONE', *, *, #1032, .F. ) ;
#945 = CARTESIAN_POINT ( 'NONE',  ( 30.25000000000001776, -33.24999999999999289, 13.00000000000000178 ) ) ;
#946 = VECTOR ( 'NONE', #931, 1000.000000000000000 ) ;
#947 = DIRECTION ( 'NONE',  ( 0.000000000000000000, 1.000000000000000000, 0.000000000000000000 ) ) ;
#948 = VECTOR ( 'NONE', #105, 1000.000000000000000 ) ;
#949 = DIRECTION ( 'NONE',  ( 0.000000000000000000, 0.000000000000000000, 1.000000000000000000 ) ) ;
#950 = ORIENTED_EDGE ( 'NONE', *, *, #1187, .T. ) ;
#951 = VERTEX_POINT ( 'NONE', #853 ) ;
#952 = VECTOR ( 'NONE', #385, 1000.000000000000000 ) ;
#953 = CARTESIAN_POINT ( 'NONE',  ( 17.75000000000001421, 6.938893903907228378E-15, 0.000000000000000000 ) ) ;
#954 = DIRECTION ( 'NONE',  ( -0.000000000000000000, -0.000000000000000000, -1.000000000000000000 ) ) ;
#955 = EDGE_CURVE ( 'NONE', #336, #686, #1085, .T. ) ;
#956 = DIRECTION ( 'NONE',  ( -1.000000000000000000, 0.000000000000000000, 0.000000000000000000 ) ) ;
#957 = APPROVAL_STATUS ( 'not_yet_approved' ) ;
#958 = CARTESIAN_POINT ( 'NONE',  ( 33.25000000000001421, 28.24999999999999289, 8.000000000000000000 ) ) ;
#959 = CARTESIAN_POINT ( 'NONE',  ( 4.750000000000015099, -18.25000000000001066, 3.000000000000000000 ) ) ;
#960 = ORIENTED_EDGE ( 'NONE', *, *, #423, .T. ) ;
#961 = VECTOR ( 'NONE', #111, 1000.000000000000000 ) ;
#962 = LINE ( 'NONE', #107, #560 ) ;
#963 = DIRECTION ( 'NONE',  ( -1.000000000000000000, 0.000000000000000000, 0.000000000000000000 ) ) ;
#964 = LINE ( 'NONE', #849, #576 ) ;
#965 = VERTEX_POINT ( 'NONE', #48 ) ;
#966 = VECTOR ( 'NONE', #1172, 1000.000000000000000 ) ;
#967 = LINE ( 'NONE', #100, #17 ) ;
#968 = VECTOR ( 'NONE', #59, 1000.000000000000000 ) ;
#969 = EDGE_CURVE ( 'NONE', #901, #411, #1171, .T. ) ;
#970 = DIRECTION ( 'NONE',  ( -2.086885384633752903E-16, 1.000000000000000000, -0.000000000000000000 ) ) ;
#971 = DIRECTION ( 'NONE',  ( -0.5000000000000004441, 0.8660254037844384856, 0.000000000000000000 ) ) ;
#972 = ORIENTED_EDGE ( 'NONE', *, *, #535, .T. ) ;
#973 = PLANE ( 'NONE',  #540 ) ;
#974 = ORIENTED_EDGE ( 'NONE', *, *, #763, .T. ) ;
#975 = ORIENTED_EDGE ( 'NONE', *, *, #403, .F. ) ;
#976 = EDGE_CURVE ( 'NONE', #419, #874, #217, .T. ) ;
#977 = DIRECTION ( 'NONE',  ( -1.000000000000000000, -0.000000000000000000, -0.000000000000000000 ) ) ;
#978 = CARTESIAN_POINT ( 'NONE',  ( 30.25000000000001776, -33.24999999999999289, 3.000000000000000000 ) ) ;
#979 = ORIENTED_EDGE ( 'NONE', *, *, #1100, .F. ) ;
#980 = LINE ( 'NONE', #1183, #741 ) ;
#981 = ORIENTED_EDGE ( 'NONE', *, *, #758, .F. ) ;
#982 = ORIENTED_EDGE ( 'NONE', *, *, #585, .T. ) ;
#983 = DIRECTION ( 'NONE',  ( 1.000000000000000000, 0.000000000000000000, 0.000000000000000000 ) ) ;
#984 = ADVANCED_FACE ( 'NONE', ( #25 ), #302, .F. ) ;
#985 = CARTESIAN_POINT ( 'NONE',  ( -33.25000000000000000, 33.25000000000000711, 3.000000000000000000 ) ) ;
#986 = EDGE_LOOP ( 'NONE', ( #377, #206, #53, #1104, #543, #1000 ) ) ;
#987 = EDGE_CURVE ( 'NONE', #512, #1211, #882, .T. ) ;
#988 = CIRCLE ( 'NONE', #818, 4.000000000000000000 ) ;
#989 = DIRECTION ( 'NONE',  ( 0.000000000000000000, 1.000000000000000000, 0.000000000000000000 ) ) ;
#990 = ORIENTED_EDGE ( 'NONE', *, *, #1194, .F. ) ;
#991 = VECTOR ( 'NONE', #954, 1000.000000000000000 ) ;
#992 = DIRECTION ( 'NONE',  ( 1.000000000000000000, 0.000000000000000000, 0.000000000000000000 ) ) ;
#993 = CARTESIAN_POINT ( 'NONE',  ( 33.25000000000001421, 30.74999999999999289, 8.000000000000000000 ) ) ;
#994 = ORIENTED_EDGE ( 'NONE', *, *, #272, .T. ) ;
#995 = FACE_OUTER_BOUND ( 'NONE', #1181, .T. ) ;
#996 = ORIENTED_EDGE ( 'NONE', *, *, #101, .T. ) ;
#997 = EDGE_CURVE ( 'NONE', #384, #659, #613, .T. ) ;
#998 = DIRECTION ( 'NONE',  ( -1.000000000000000000, -0.000000000000000000, -0.000000000000000000 ) ) ;
#999 = ORIENTED_EDGE ( 'NONE', *, *, #93, .T. ) ;
#1000 = ORIENTED_EDGE ( 'NONE', *, *, #3, .F. ) ;
#1001 = DIRECTION ( 'NONE',  ( -0.000000000000000000, -0.000000000000000000, -1.000000000000000000 ) ) ;
#1002 = VERTEX_POINT ( 'NONE', #812 ) ;
#1003 = VECTOR ( 'NONE', #148, 1000.000000000000000 ) ;
#1004 = DIRECTION ( 'NONE',  ( 1.000000000000000000, -2.086885384633752656E-16, -0.000000000000000000 ) ) ;
#1005 = DIRECTION ( 'NONE',  ( 1.000000000000000000, -2.086885384633752656E-16, -0.000000000000000000 ) ) ;
#1006 = ORIENTED_EDGE ( 'NONE', *, *, #12, .T. ) ;
#1007 = CARTESIAN_POINT ( 'NONE',  ( 1.750000000000015543, 28.25000000000000711, 13.00100000000000122 ) ) ;
#1008 = ORIENTED_EDGE ( 'NONE', *, *, #1202, .T. ) ;
#1009 = CIRCLE ( 'NONE', #229, 2.500000000000000444 ) ;
#1010 = VECTOR ( 'NONE', #568, 1000.000000000000000 ) ;
#1011 = CARTESIAN_POINT ( 'NONE',  ( 0.000000000000000000, 0.000000000000000000, 0.000000000000000000 ) ) ;
#1012 = EDGE_CURVE ( 'NONE', #1002, #951, #904, .T. ) ;
#1013 = LINE ( 'NONE', #537, #90 ) ;
#1014 = CARTESIAN_POINT ( 'NONE',  ( 30.25000000000001776, 33.25000000000000711, 13.00000000000000178 ) ) ;
#1015 = EDGE_LOOP ( 'NONE', ( #734, #777, #293, #73 ) ) ;
#1016 = EDGE_CURVE ( 'NONE', #234, #243, #591, .T. ) ;
#1017 = CYLINDRICAL_SURFACE ( 'NONE', #74, 1.500000000000001332 ) ;
#1018 = DIRECTION ( 'NONE',  ( 1.000000000000000000, 0.000000000000000000, 0.000000000000000000 ) ) ;
#1019 = ORIENTED_EDGE ( 'NONE', *, *, #257, .F. ) ;
#1020 = VECTOR ( 'NONE', #992, 1000.000000000000000 ) ;
#1021 = DIRECTION ( 'NONE',  ( 1.000000000000000000, 0.000000000000000000, 0.000000000000000000 ) ) ;
#1022 = ADVANCED_FACE ( 'NONE', ( #715 ), #1164, .F. ) ;
#1023 = FACE_BOUND ( 'NONE', #1168, .T. ) ;
#1024 = ORIENTED_EDGE ( 'NONE', *, *, #1187, .F. ) ;
#1025 = EDGE_CURVE ( 'NONE', #1059, #552, #51, .T. ) ;
#1026 = AXIS2_PLACEMENT_3D ( 'NONE', #230, #702, #129 ) ;
#1027 = APPROVAL_DATE_TIME ( #657, #1070 ) ;
#1028 = LINE ( 'NONE', #97, #753 ) ;
#1029 = VECTOR ( 'NONE', #764, 1000.000000000000000 ) ;
#1030 = CARTESIAN_POINT ( 'NONE',  ( -18.24999999999998224, 5.000000000000000888, 1.500000000000000000 ) ) ;
#1031 = ORIENTED_EDGE ( 'NONE', *, *, #624, .T. ) ;
#1032 = EDGE_CURVE ( 'NONE', #1098, #123, #749, .T. ) ;
#1033 = APPROVAL_STATUS ( 'not_yet_approved' ) ;
#1034 = DIRECTION ( 'NONE',  ( 1.000000000000000000, 2.086885384633752903E-16, 0.000000000000000000 ) ) ;
#1035 = ORIENTED_EDGE ( 'NONE', *, *, #38, .T. ) ;
#1036 = LINE ( 'NONE', #291, #948 ) ;
#1037 = ORIENTED_EDGE ( 'NONE', *, *, #684, .F. ) ;
#1038 = CARTESIAN_POINT ( 'NONE',  ( 1.750000000000015543, 28.25000000000000711, 3.000000000000000888 ) ) ;
#1039 = PERSON_AND_ORGANIZATION_ROLE ( 'creator' ) ;
#1040 = FACE_OUTER_BOUND ( 'NONE', #520, .T. ) ;
#1041 = FACE_BOUND ( 'NONE', #254, .T. ) ;
#1042 = ORIENTED_EDGE ( 'NONE', *, *, #813, .F. ) ;
#1043 = CARTESIAN_POINT ( 'NONE',  ( 1.750000000000014211, 18.25000000000001066, 3.000000000000000888 ) ) ;
#1044 = CALENDAR_DATE ( 2026, 29, 8 ) ;
#1045 = AXIS2_PLACEMENT_3D ( 'NONE', #347, #728, #156 ) ;
#1046 = EDGE_CURVE ( 'NONE', #195, #305, #31, .T. ) ;
#1047 = CARTESIAN_POINT ( 'NONE',  ( -22.58012701892217322, -2.499999999999999556, 3.000000000000000000 ) ) ;
#1048 = VECTOR ( 'NONE', #165, 1000.000000000000227 ) ;
#1049 = DIRECTION ( 'NONE',  ( -1.301042606982605567E-16, 1.000000000000000000, 0.000000000000000000 ) ) ;
#1050 = ORIENTED_EDGE ( 'NONE', *, *, #955, .F. ) ;
#1051 = CARTESIAN_POINT ( 'NONE',  ( 33.25000000000001421, -33.24999999999999289, 3.000000000000000000 ) ) ;
#1052 = CARTESIAN_POINT ( 'NONE',  ( 13.75000000000001599, 6.938893903907228378E-15, 3.000000000000000000 ) ) ;
#1053 = APPROVAL ( #957, 'UNSPECIFIED' ) ;
#1054 = ORIENTED_EDGE ( 'NONE', *, *, #188, .F. ) ;
#1055 = FACE_BOUND ( 'NONE', #318, .T. ) ;
#1056 = LINE ( 'NONE', #207, #399 ) ;
#1057 = DIRECTION ( 'NONE',  ( 0.000000000000000000, 1.000000000000000000, 0.000000000000000000 ) ) ;
#1058 = DIRECTION ( 'NONE',  ( 0.000000000000000000, -0.000000000000000000, 1.000000000000000000 ) ) ;
#1059 = VERTEX_POINT ( 'NONE', #708 ) ;
#1060 = AXIS2_PLACEMENT_3D ( 'NONE', #606, #977, #210 ) ;
#1061 = DIRECTION ( 'NONE',  ( -0.000000000000000000, -0.000000000000000000, -1.000000000000000000 ) ) ;
#1062 = EDGE_CURVE ( 'NONE', #546, #419, #1071, .T. ) ;
#1063 = CARTESIAN_POINT ( 'NONE',  ( -33.25100000000000477, -28.25000000000000711, 8.000000000000000000 ) ) ;
#1064 = AXIS2_PLACEMENT_3D ( 'NONE', #211, #971, #116 ) ;
#1065 = DIRECTION ( 'NONE',  ( 1.000000000000000000, 0.000000000000000000, 0.000000000000000000 ) ) ;
#1066 = EDGE_LOOP ( 'NONE', ( #466, #569, #881, #996 ) ) ;
#1067 = AXIS2_PLACEMENT_3D ( 'NONE', #1092, #1001, #704 ) ;
#1068 = DIRECTION ( 'NONE',  ( 0.8660254037844385966, -0.5000000000000000000, 0.000000000000000000 ) ) ;
#1069 = ORIENTED_EDGE ( 'NONE', *, *, #841, .F. ) ;
#1070 = APPROVAL ( #682, 'UNSPECIFIED' ) ;
#1071 = LINE ( 'NONE', #592, #203 ) ;
#1072 = DIRECTION ( 'NONE',  ( 0.000000000000000000, -1.000000000000000000, 0.000000000000000000 ) ) ;
#1073 = ORIENTED_EDGE ( 'NONE', *, *, #13, .F. ) ;
#1074 = FACE_OUTER_BOUND ( 'NONE', #832, .T. ) ;
#1075 = ORIENTED_EDGE ( 'NONE', *, *, #397, .F. ) ;
#1076 = DIRECTION ( 'NONE',  ( 1.000000000000000000, 0.000000000000000000, 0.000000000000000000 ) ) ;
#1077 = PLANE ( 'NONE',  #1026 ) ;
#1078 = ORIENTED_EDGE ( 'NONE', *, *, #355, .F. ) ;
#1079 = CARTESIAN_POINT ( 'NONE',  ( 30.25000000000002132, 12.49999999999999467, 8.000000000000000000 ) ) ;
#1080 = VERTEX_POINT ( 'NONE', #503 ) ;
#1081 = CARTESIAN_POINT ( 'NONE',  ( -33.25100000000000477, -28.25000000000000711, 8.000000000000000000 ) ) ;
#1082 = EDGE_CURVE ( 'NONE', #113, #512, #127, .T. ) ;
#1083 = CARTESIAN_POINT ( 'NONE',  ( -13.91987298107778770, -2.499999999999999112, 3.000000000000000000 ) ) ;
#1084 = ORIENTED_EDGE ( 'NONE', *, *, #167, .F. ) ;
#1085 = CIRCLE ( 'NONE', #396, 2.500000000000000444 ) ;
#1086 = CARTESIAN_POINT ( 'NONE',  ( 33.25000000000000711, -9.999999999999994671, 8.000000000000000000 ) ) ;
#1087 = ORIENTED_EDGE ( 'NONE', *, *, #430, .T. ) ;
#1088 = AXIS2_PLACEMENT_3D ( 'NONE', #280, #395, #956 ) ;
#1089 = DIRECTION ( 'NONE',  ( 1.000000000000000000, -2.086885384633752656E-16, -0.000000000000000000 ) ) ;
#1090 = FACE_OUTER_BOUND ( 'NONE', #414, .T. ) ;
#1091 = EDGE_LOOP ( 'NONE', ( #241, #885, #1075, #86 ) ) ;
#1092 = CARTESIAN_POINT ( 'NONE',  ( 17.75000000000001421, 6.938893903907228378E-15, 3.000000000000000000 ) ) ;
#1093 = ORIENTED_EDGE ( 'NONE', *, *, #553, .F. ) ;
#1094 = ORIENTED_EDGE ( 'NONE', *, *, #458, .T. ) ;
#1095 = LINE ( 'NONE', #650, #1101 ) ;
#1096 = FACE_OUTER_BOUND ( 'NONE', #454, .T. ) ;
#1097 = LINE ( 'NONE', #933, #1048 ) ;
#1098 = VERTEX_POINT ( 'NONE', #896 ) ;
#1099 =( GEOMETRIC_REPRESENTATION_CONTEXT ( 3 ) GLOBAL_UNCERTAINTY_ASSIGNED_CONTEXT ( ( #441 ) ) GLOBAL_UNIT_ASSIGNED_CONTEXT ( ( #346, #829, #721 ) ) REPRESENTATION_CONTEXT ( 'NONE', 'WORKASPACE' ) );
#1100 = EDGE_CURVE ( 'NONE', #1159, #1206, #810, .T. ) ;
#1101 = VECTOR ( 'NONE', #528, 1000.000000000000000 ) ;
#1102 = CARTESIAN_POINT ( 'NONE',  ( 30.25000000000001421, -25.74999999999999645, 8.000000000000000000 ) ) ;
#1103 = CARTESIAN_POINT ( 'NONE',  ( -19.74999999999998224, 6.938893903907228378E-15, 1.499999999999999556 ) ) ;
#1104 = ORIENTED_EDGE ( 'NONE', *, *, #297, .F. ) ;
#1105 = VECTOR ( 'NONE', #847, 1000.000000000000000 ) ;
#1106 = VECTOR ( 'NONE', #685, 1000.000000000000000 ) ;
#1107 = EDGE_CURVE ( 'NONE', #838, #113, #228, .T. ) ;
#1108 = DIRECTION ( 'NONE',  ( 1.000000000000000000, 0.000000000000000000, 0.000000000000000000 ) ) ;
#1109 = CARTESIAN_POINT ( 'NONE',  ( 33.25000000000000711, -7.499999999999994671, 8.000000000000000000 ) ) ;
#1110 = CARTESIAN_POINT ( 'NONE',  ( -22.58012701892217322, -2.499999999999999556, 3.000000000000000000 ) ) ;
#1111 = ORIENTED_EDGE ( 'NONE', *, *, #1140, .T. ) ;
#1112 = EDGE_CURVE ( 'NONE', #507, #874, #409, .T. ) ;
#1113 = CARTESIAN_POINT ( 'NONE',  ( -18.24999999999998224, 6.938893903907228378E-15, 0.000000000000000000 ) ) ;
#1114 = EDGE_LOOP ( 'NONE', ( #924, #311, #610, #1073 ) ) ;
#1115 = CARTESIAN_POINT ( 'NONE',  ( 30.25000000000001421, -30.74999999999999289, 8.000000000000000000 ) ) ;
#1116 = ORIENTED_EDGE ( 'NONE', *, *, #668, .F. ) ;
#1117 = AXIS2_PLACEMENT_3D ( 'NONE', #20, #316, #1057 ) ;
#1118 = PERSON_AND_ORGANIZATION ( #352, #82 ) ;
#1119 = DIRECTION ( 'NONE',  ( -0.000000000000000000, -1.000000000000000000, -0.000000000000000000 ) ) ;
#1120 = ADVANCED_FACE ( 'NONE', ( #1150 ), #694, .F. ) ;
#1121 = DIRECTION ( 'NONE',  ( 0.000000000000000000, 0.000000000000000000, 1.000000000000000000 ) ) ;
#1122 = ORIENTED_EDGE ( 'NONE', *, *, #140, .F. ) ;
#1123 = VECTOR ( 'NONE', #357, 1000.000000000000000 ) ;
#1124 = AXIS2_PLACEMENT_3D ( 'NONE', #433, #504, #884 ) ;
#1125 = DIRECTION ( 'NONE',  ( 0.000000000000000000, 1.000000000000000000, 0.000000000000000000 ) ) ;
#1126 = ORIENTED_EDGE ( 'NONE', *, *, #897, .T. ) ;
#1127 = FACE_OUTER_BOUND ( 'NONE', #1066, .T. ) ;
#1128 = ORIENTED_EDGE ( 'NONE', *, *, #1012, .T. ) ;
#1129 = COORDINATED_UNIVERSAL_TIME_OFFSET ( 5, 30, .AHEAD. ) ;
#1130 = PRODUCT_DEFINITION_SHAPE ( 'NONE', 'NONE',  #108 ) ;
#1131 = DIRECTION ( 'NONE',  ( 0.000000000000000000, 1.000000000000000000, 0.000000000000000000 ) ) ;
#1132 = CARTESIAN_POINT ( 'NONE',  ( 33.25000000000000000, 33.25000000000000711, 3.000000000000000000 ) ) ;
#1133 = CARTESIAN_POINT ( 'NONE',  ( -13.91987298107778770, 2.500000000000000888, 1.500000000000000000 ) ) ;
#1134 = EDGE_CURVE ( 'NONE', #518, #5, #61, .T. ) ;
#1135 = PERSON_AND_ORGANIZATION_ROLE ( 'design_supplier' ) ;
#1136 = LOCAL_TIME ( 18, 31, 27.00000000000000000, #1129 ) ;
#1137 = LINE ( 'NONE', #1047, #110 ) ;
#1138 = CARTESIAN_POINT ( 'NONE',  ( 30.25000000000001421, 28.24999999999999289, 8.000000000000000000 ) ) ;
#1139 = CARTESIAN_POINT ( 'NONE',  ( 33.25000000000001421, -33.24999999999999289, 13.00000000000000178 ) ) ;
#1140 = EDGE_CURVE ( 'NONE', #481, #66, #835, .T. ) ;
#1141 = VECTOR ( 'NONE', #382, 1000.000000000000000 ) ;
#1142 = CARTESIAN_POINT ( 'NONE',  ( -33.24999999999998579, -33.24999999999999289, 3.000000000000000000 ) ) ;
#1143 = FACE_OUTER_BOUND ( 'NONE', #903, .T. ) ;
#1144 = ORIENTED_EDGE ( 'NONE', *, *, #541, .F. ) ;
#1145 = CARTESIAN_POINT ( 'NONE',  ( -33.25000000000000000, 33.25000000000000711, 3.000000000000000000 ) ) ;
#1146 = DIRECTION ( 'NONE',  ( 1.000000000000000000, 0.000000000000000000, 0.000000000000000000 ) ) ;
#1147 = EDGE_CURVE ( 'NONE', #123, #1098, #848, .T. ) ;
#1148 = CARTESIAN_POINT ( 'NONE',  ( -33.24999999999998579, -33.24999999999999289, 3.000000000000000000 ) ) ;
#1149 = DIRECTION ( 'NONE',  ( 1.000000000000000000, 2.086885384633752656E-16, -0.000000000000000000 ) ) ;
#1150 = FACE_OUTER_BOUND ( 'NONE', #828, .T. ) ;
#1151 = APPROVAL_PERSON_ORGANIZATION ( #197, #1070, #1207 ) ;
#1152 = DIRECTION ( 'NONE',  ( 2.086885384633752903E-16, -1.000000000000000000, 0.000000000000000000 ) ) ;
#1153 = VERTEX_POINT ( 'NONE', #1203 ) ;
#1154 = VECTOR ( 'NONE', #135, 1000.000000000000000 ) ;
#1155 = CC_DESIGN_PERSON_AND_ORGANIZATION_ASSIGNMENT ( #851, #373, ( #108 ) ) ;
#1156 = PLANE ( 'NONE',  #213 ) ;
#1157 = CARTESIAN_POINT ( 'NONE',  ( 33.25000000000001421, -33.24999999999999289, 13.00000000000000178 ) ) ;
#1158 = FACE_BOUND ( 'NONE', #119, .T. ) ;
#1159 = VERTEX_POINT ( 'NONE', #141 ) ;
#1160 = AXIS2_PLACEMENT_3D ( 'NONE', #52, #506, #78 ) ;
#1161 = DIRECTION ( 'NONE',  ( 1.000000000000000000, 2.086885384633752903E-16, 0.000000000000000000 ) ) ;
#1162 = ORIENTED_EDGE ( 'NONE', *, *, #579, .T. ) ;
#1163 = EDGE_LOOP ( 'NONE', ( #944, #345 ) ) ;
#1164 = CYLINDRICAL_SURFACE ( 'NONE', #163, 2.499999999999998668 ) ;
#1165 = FACE_BOUND ( 'NONE', #730, .T. ) ;
#1166 = ORIENTED_EDGE ( 'NONE', *, *, #1012, .F. ) ;
#1167 = DIRECTION ( 'NONE',  ( -0.5000000000000001110, -0.8660254037844387076, 0.000000000000000000 ) ) ;
#1168 = EDGE_LOOP ( 'NONE', ( #719, #938 ) ) ;
#1169 = EDGE_CURVE ( 'NONE', #1177, #575, #925, .T. ) ;
#1170 = ADVANCED_BREP_SHAPE_REPRESENTATION ( 'Base_v2_Default_sldprt', ( #580, #1174 ), #1099 ) ;
#1171 = LINE ( 'NONE', #1157, #556 ) ;
#1172 = DIRECTION ( 'NONE',  ( 0.000000000000000000, 0.000000000000000000, 1.000000000000000000 ) ) ;
#1173 = ORIENTED_EDGE ( 'NONE', *, *, #167, .T. ) ;
#1174 = AXIS2_PLACEMENT_3D ( 'NONE', #1011, #627, #54 ) ;
#1175 = DIRECTION ( 'NONE',  ( -2.086885384633752903E-16, 1.000000000000000000, 0.000000000000000000 ) ) ;
#1176 = ORIENTED_EDGE ( 'NONE', *, *, #355, .T. ) ;
#1177 = VERTEX_POINT ( 'NONE', #363 ) ;
#1178 = EDGE_CURVE ( 'NONE', #1206, #239, #1179, .T. ) ;
#1179 = LINE ( 'NONE', #248, #245 ) ;
#1180 = DIRECTION ( 'NONE',  ( 0.000000000000000000, -0.000000000000000000, -1.000000000000000000 ) ) ;
#1181 = EDGE_LOOP ( 'NONE', ( #618, #1128, #656, #696 ) ) ;
#1182 = AXIS2_PLACEMENT_3D ( 'NONE', #142, #530, #446 ) ;
#1183 = CARTESIAN_POINT ( 'NONE',  ( -13.91987298107778770, -2.499999999999999112, 1.500000000000000000 ) ) ;
#1184 = ORIENTED_EDGE ( 'NONE', *, *, #846, .T. ) ;
#1185 = CARTESIAN_POINT ( 'NONE',  ( 30.25000000000002132, 9.999999999999994671, 8.000000000000000000 ) ) ;
#1186 = LINE ( 'NONE', #1052, #735 ) ;
#1187 = EDGE_CURVE ( 'NONE', #5, #481, #356, .T. ) ;
#1188 = FACE_OUTER_BOUND ( 'NONE', #746, .T. ) ;
#1189 = ORIENTED_EDGE ( 'NONE', *, *, #1140, .F. ) ;
#1190 = CYLINDRICAL_SURFACE ( 'NONE', #651, 2.500000000000000444 ) ;
#1191 = FACE_OUTER_BOUND ( 'NONE', #514, .T. ) ;
#1192 = DIRECTION ( 'NONE',  ( -1.000000000000000000, 1.301042606982605567E-16, 0.000000000000000000 ) ) ;
#1193 = ORIENTED_EDGE ( 'NONE', *, *, #12, .F. ) ;
#1194 = EDGE_CURVE ( 'NONE', #1080, #195, #869, .T. ) ;
#1195 = CARTESIAN_POINT ( 'NONE',  ( -22.58012701892217322, 2.500000000000001776, 1.500000000000000000 ) ) ;
#1196 = CARTESIAN_POINT ( 'NONE',  ( -33.25000000000000000, 33.25000000000000711, 3.000000000000000000 ) ) ;
#1197 = EDGE_CURVE ( 'NONE', #470, #507, #1095, .T. ) ;
#1198 = LINE ( 'NONE', #448, #477 ) ;
#1199 = VERTEX_POINT ( 'NONE', #742 ) ;
#1200 = AXIS2_PLACEMENT_3D ( 'NONE', #958, #104, #573 ) ;
#1201 = CIRCLE ( 'NONE', #359, 4.000000000000000000 ) ;
#1202 = EDGE_CURVE ( 'NONE', #305, #965, #331, .T. ) ;
#1203 = CARTESIAN_POINT ( 'NONE',  ( 33.25000000000000711, -12.49999999999999467, 8.000000000000000000 ) ) ;
#1204 = LINE ( 'NONE', #456, #660 ) ;
#1205 = LINE ( 'NONE', #927, #700 ) ;
#1206 = VERTEX_POINT ( 'NONE', #445 ) ;
#1207 = APPROVAL_ROLE ( '' ) ;
#1208 = ADVANCED_FACE ( 'NONE', ( #825 ), #1190, .F. ) ;
#1209 = CARTESIAN_POINT ( 'NONE',  ( -18.24999999999998224, 6.938893903907228378E-15, 13.00100000000000122 ) ) ;
#1210 = PLANE ( 'NONE',  #515 ) ;
#1211 = VERTEX_POINT ( 'NONE', #633 ) ;
#1212 = CC_DESIGN_APPROVAL ( #1053, ( #306 ) ) ;
#1213 = DATE_AND_TIME ( #747, #570 ) ;
#1214 = DIRECTION ( 'NONE',  ( 2.086885384633752903E-16, -1.000000000000000000, 0.000000000000000000 ) ) ;
#1215 = CARTESIAN_POINT ( 'NONE',  ( 1.750000000000015543, 28.25000000000000711, 0.000000000000000000 ) ) ;
#1216 = ORIENTED_EDGE ( 'NONE', *, *, #743, .F. ) ;
#1217 = CIRCLE ( 'NONE', #150, 2.500000000000000444 ) ;
#1218 = VECTOR ( 'NONE', #205, 1000.000000000000000 ) ;
#1219 = APPLICATION_PROTOCOL_DEFINITION ( 'international standard', 'config_control_design', 1994, #752 ) ;
#1220 = DIRECTION ( 'NONE',  ( 0.000000000000000000, 1.000000000000000000, 0.000000000000000000 ) ) ;
#1221 = VECTOR ( 'NONE', #89, 1000.000000000000000 ) ;
#1222 = DIRECTION ( 'NONE',  ( -1.000000000000000000, -2.086885384633752903E-16, 0.000000000000000000 ) ) ;
#1223 = ORIENTED_EDGE ( 'NONE', *, *, #3, .T. ) ;
#1224 = EDGE_CURVE ( 'NONE', #539, #22, #236, .T. ) ;
#1225 = ORIENTED_EDGE ( 'NONE', *, *, #188, .T. ) ;
#1226 = COORDINATED_UNIVERSAL_TIME_OFFSET ( 5, 30, .AHEAD. ) ;
#1227 = CARTESIAN_POINT ( 'NONE',  ( 4.750000000000015099, -18.25000000000001066, 0.000000000000000000 ) ) ;
ENDSEC;
END-ISO-10303-21;
