ISO-10303-21;
HEADER;
FILE_DESCRIPTION (( 'STEP AP203' ),
    '1' );
FILE_NAME ('Coupling_Default_sldprt.STEP',
    '2026-08-29T13:01:27',
    ( '' ),
    ( '' ),
    'SwSTEP 2.0',
    'SolidWorks 2020',
    '' );
FILE_SCHEMA (( 'CONFIG_CONTROL_DESIGN' ));
ENDSEC;

DATA;
#1 = MECHANICAL_CONTEXT ( 'NONE', #424, 'mechanical' ) ;
#2 = DIRECTION ( 'NONE',  ( 1.000000000000000000, -0.000000000000000000, -0.000000000000000000 ) ) ;
#3 = ORIENTED_EDGE ( 'NONE', *, *, #335, .T. ) ;
#4 = CARTESIAN_POINT ( 'NONE',  ( 5.947301735519284094, 0.7988914244718244850, 6.615437108313815706 ) ) ;
#5 = DIRECTION ( 'NONE',  ( -0.000000000000000000, -0.000000000000000000, -1.000000000000000000 ) ) ;
#6 = ORIENTED_EDGE ( 'NONE', *, *, #143, .T. ) ;
#7 = ADVANCED_FACE ( 'NONE', ( #208 ), #25, .F. ) ;
#8 = DIRECTION ( 'NONE',  ( 1.000000000000000000, -0.000000000000000000, -0.000000000000000000 ) ) ;
#9 = EDGE_CURVE ( 'NONE', #320, #374, #577, .T. ) ;
#10 = ORIENTED_EDGE ( 'NONE', *, *, #523, .F. ) ;
#11 = CARTESIAN_POINT ( 'NONE',  ( 0.000000000000000000, 0.000000000000000000, -10.00000000000000000 ) ) ;
#12 = ORIENTED_EDGE ( 'NONE', *, *, #252, .F. ) ;
#13 = CARTESIAN_POINT ( 'NONE',  ( -3.872969183810250904, 1.000054850733511635, -6.130614219986236790 ) ) ;
#14 = ORIENTED_EDGE ( 'NONE', *, *, #560, .T. ) ;
#15 = CARTESIAN_POINT ( 'NONE',  ( -3.920392233738140053, 0.7996175296367108443, -6.614636124423222796 ) ) ;
#16 = FACE_OUTER_BOUND ( 'NONE', #369, .T. ) ;
#17 = CARTESIAN_POINT ( 'NONE',  ( -3.880087007359552587, -0.9734268036074583685, 6.263417269914460128 ) ) ;
#18 = ORIENTED_EDGE ( 'NONE', *, *, #229, .F. ) ;
#19 = CARTESIAN_POINT ( 'NONE',  ( -5.999999999999999112, -4.472210243878960127E-23, -7.000000000000001776 ) ) ;
#20 = PLANE ( 'NONE',  #658 ) ;
#21 = ORIENTED_EDGE ( 'NONE', *, *, #442, .F. ) ;
#22 = CARTESIAN_POINT ( 'NONE',  ( -5.920671847850514702, 0.9737778612005489887, 5.737363758846502293 ) ) ;
#23 = CARTESIAN_POINT ( 'NONE',  ( -4.000000000000000888, 0.1308039184816915945, 4.999999999999997335 ) ) ;
#24 = DIRECTION ( 'NONE',  ( 1.000000000000000000, -0.000000000000000000, -0.000000000000000000 ) ) ;
#25 = CYLINDRICAL_SURFACE ( 'NONE', #118, 1.000000000000001776 ) ;
#26 = CC_DESIGN_APPROVAL ( #572, ( #128 ) ) ;
#27 = CARTESIAN_POINT ( 'NONE',  ( -5.995472630654518298, -0.2624013748573165716, -6.973714403089177338 ) ) ;
#28 = CARTESIAN_POINT ( 'NONE',  ( 3.872993992554537801, -0.9999587668730113288, -5.867770180639414690 ) ) ;
#29 = EDGE_CURVE ( 'NONE', #371, #306, #462, .T. ) ;
#30 = CARTESIAN_POINT ( 'NONE',  ( -5.969051238897253420, 0.6156307853269497032, 6.798705734106810894 ) ) ;
#31 = CARTESIAN_POINT ( 'NONE',  ( 5.999999999999999112, -3.478057330786736548E-17, -7.000000000000001776 ) ) ;
#32 = DIRECTION ( 'NONE',  ( -0.000000000000000000, -0.000000000000000000, -1.000000000000000000 ) ) ;
#33 = AXIS2_PLACEMENT_3D ( 'NONE', #110, #362, #48 ) ;
#34 = CARTESIAN_POINT ( 'NONE',  ( -3.920495757085995070, 0.7990587187661492008, 5.384771028892833655 ) ) ;
#35 = CARTESIAN_POINT ( 'NONE',  ( -4.000000000000000000, 9.891274455076596304E-22, 4.999999999999998224 ) ) ;
#36 = CARTESIAN_POINT ( 'NONE',  ( 5.969096820685153126, 0.6152055445546381618, -6.799049686702675288 ) ) ;
#37 = CARTESIAN_POINT ( 'NONE',  ( 3.993212196359560817, -0.2626148844800766935, 6.973714197286692951 ) ) ;
#38 = EDGE_CURVE ( 'NONE', #299, #450, #396, .T. ) ;
#39 = CARTESIAN_POINT ( 'NONE',  ( -5.947211616899245712, 0.7995298244854598391, 6.614560146198586565 ) ) ;
#40 = CARTESIAN_POINT ( 'NONE',  ( 3.920449918490174213, -0.7992216017350894930, -6.614887144745578595 ) ) ;
#41 = LOCAL_TIME ( 18, 31, 27.00000000000000000, #685 ) ;
#42 = CARTESIAN_POINT ( 'NONE',  ( 3.953463112640606791, -0.6154946931554469147, 5.201225454450264074 ) ) ;
#43 = DIRECTION ( 'NONE',  ( 1.000000000000000000, -0.000000000000000000, -0.000000000000000000 ) ) ;
#44 = PERSON_AND_ORGANIZATION_ROLE ( 'design_owner' ) ;
#45 = CARTESIAN_POINT ( 'NONE',  ( 3.969869395575870819, -0.5048887612555240656, 5.126926490991849050 ) ) ;
#46 = CARTESIAN_POINT ( 'NONE',  ( 3.993201599367474763, 0.2629004868407573414, -6.973680310673294080 ) ) ;
#47 = PERSON_AND_ORGANIZATION ( #785, #76 ) ;
#48 = DIRECTION ( 'NONE',  ( 0.000000000000000000, 0.000000000000000000, -1.000000000000000000 ) ) ;
#49 = B_SPLINE_CURVE_WITH_KNOTS ( 'NONE', 3,
 ( #328, #23, #771, #156, #338, #34, #730, #656, #405, #269, #659, #149, #598, #278, #360, #180, #680, #55 ),
 .UNSPECIFIED., .F., .F.,
 ( 4, 2, 2, 2, 2, 2, 2, 2, 4 ),
 ( 0.003138948259726314152, 0.003531211055919537475, 0.003923473852112760799, 0.004315736648305984122, 0.004707999444499207445, 0.005100262240692430768, 0.005492525036885653224, 0.005884787833078876547, 0.006277050629272099870 ),
 .UNSPECIFIED. ) ;
#50 = DIRECTION ( 'NONE',  ( 0.000000000000000000, 0.000000000000000000, 1.000000000000000000 ) ) ;
#51 = APPLICATION_PROTOCOL_DEFINITION ( 'international standard', 'config_control_design', 1994, #424 ) ;
#52 = CARTESIAN_POINT ( 'NONE',  ( 4.000000000000000888, 0.1326759759031825858, 4.999999999999998224 ) ) ;
#53 = ORIENTED_EDGE ( 'NONE', *, *, #203, .T. ) ;
#54 = EDGE_CURVE ( 'NONE', #57, #780, #591, .T. ) ;
#55 = CARTESIAN_POINT ( 'NONE',  ( -4.000000000000000000, -4.134078698859513570E-18, 7.000000000000001776 ) ) ;
#56 = CARTESIAN_POINT ( 'NONE',  ( -4.000000000000000000, 0.000000000000000000, 10.00000000000000000 ) ) ;
#57 = VERTEX_POINT ( 'NONE', #411 ) ;
#58 = CARTESIAN_POINT ( 'NONE',  ( 5.999999999999999112, -3.478057330786736548E-17, -7.000000000000001776 ) ) ;
#59 =( NAMED_UNIT ( * ) SI_UNIT ( $, .STERADIAN. ) SOLID_ANGLE_UNIT ( ) );
#60 = VERTEX_POINT ( 'NONE', #395 ) ;
#61 = CARTESIAN_POINT ( 'NONE',  ( 5.920620690450685508, -0.9740807849836142784, 6.261498802993307855 ) ) ;
#62 = CYLINDRICAL_SURFACE ( 'NONE', #688, 1.000000000000001776 ) ;
#63 = DIRECTION ( 'NONE',  ( -0.000000000000000000, -0.000000000000000000, -1.000000000000000000 ) ) ;
#64 = ORIENTED_EDGE ( 'NONE', *, *, #229, .T. ) ;
#65 = CARTESIAN_POINT ( 'NONE',  ( -3.872993992554538245, -0.9999587668730113288, -6.132229819360587086 ) ) ;
#66 = VECTOR ( 'NONE', #222, 1000.000000000000000 ) ;
#67 = ORIENTED_EDGE ( 'NONE', *, *, #227, .F. ) ;
#68 = CARTESIAN_POINT ( 'NONE',  ( -6.000000000000000888, 0.1306497350717332750, -7.000000000000002665 ) ) ;
#69 = CARTESIAN_POINT ( 'NONE',  ( -5.920699391845023030, -0.9735856429312850224, 6.262852839067272193 ) ) ;
#70 = CARTESIAN_POINT ( 'NONE',  ( -4.000000000000000888, -0.1308039184816915945, -7.000000000000001776 ) ) ;
#71 = CARTESIAN_POINT ( 'NONE',  ( -3.920392233738140053, -0.7996175296367108443, 5.385363875576777204 ) ) ;
#72 = ORIENTED_EDGE ( 'NONE', *, *, #727, .F. ) ;
#73 = CARTESIAN_POINT ( 'NONE',  ( -4.000000000000000000, -9.891274455076596304E-22, -7.000000000000001776 ) ) ;
#74 = ORIENTED_EDGE ( 'NONE', *, *, #312, .F. ) ;
#75 = CARTESIAN_POINT ( 'NONE',  ( -5.979990686694992341, 0.5044069930203338714, -5.126642567720957722 ) ) ;
#76 = ORGANIZATION ( 'UNSPECIFIED', 'UNSPECIFIED', '' ) ;
#77 = EDGE_CURVE ( 'NONE', #329, #194, #403, .T. ) ;
#78 = VERTEX_POINT ( 'NONE', #805 ) ;
#79 = CARTESIAN_POINT ( 'NONE',  ( -5.980031194523149907, 0.5039079366032431784, -6.873629318901871343 ) ) ;
#80 = VECTOR ( 'NONE', #24, 1000.000000000000000 ) ;
#81 = DIRECTION ( 'NONE',  ( 0.000000000000000000, 0.000000000000000000, 1.000000000000000000 ) ) ;
#82 = ORIENTED_EDGE ( 'NONE', *, *, #791, .T. ) ;
#83 = CARTESIAN_POINT ( 'NONE',  ( -5.999999999999999112, -3.478057330786736548E-17, -4.999999999999998224 ) ) ;
#84 = EDGE_CURVE ( 'NONE', #85, #739, #435, .T. ) ;
#85 = VERTEX_POINT ( 'NONE', #550 ) ;
#86 = CARTESIAN_POINT ( 'NONE',  ( -5.999999999999999112, -0.1306171417088610176, -7.000000000000001776 ) ) ;
#87 = CARTESIAN_POINT ( 'NONE',  ( 3.993101993507429004, -0.2641148760630704917, -6.973263066103405627 ) ) ;
#88 = DIRECTION ( 'NONE',  ( 0.000000000000000000, 0.000000000000000000, 1.000000000000000000 ) ) ;
#89 = AXIS2_PLACEMENT_3D ( 'NONE', #646, #391, #586 ) ;
#90 = CARTESIAN_POINT ( 'NONE',  ( -5.979983180450074265, 0.5042987395407719786, 6.873293041799770187 ) ) ;
#91 = CARTESIAN_POINT ( 'NONE',  ( 0.000000000000000000, 0.000000000000000000, -10.00000000000000000 ) ) ;
#92 = CARTESIAN_POINT ( 'NONE',  ( -5.999999999999999112, -3.478057330786736548E-17, -4.999999999999998224 ) ) ;
#93 = CARTESIAN_POINT ( 'NONE',  ( 5.920671847850517366, 0.9737778612005490997, 6.262636241153495043 ) ) ;
#94 = CARTESIAN_POINT ( 'NONE',  ( -5.995407492418038053, -0.2638277032948922463, -5.026679447184821292 ) ) ;
#95 = CARTESIAN_POINT ( 'NONE',  ( 5.920620690450686396, 0.9740807849836145005, -5.738501197006691257 ) ) ;
#96 = CARTESIAN_POINT ( 'NONE',  ( 5.916066267613697249, 1.000079958708139038, 5.868472611179659459 ) ) ;
#97 = ADVANCED_FACE ( 'NONE', ( #606 ), #117, .F. ) ;
#98 = DIRECTION ( 'NONE',  ( 1.000000000000000000, -0.000000000000000000, -0.000000000000000000 ) ) ;
#99 = CARTESIAN_POINT ( 'NONE',  ( 3.953413208705572224, -0.6157976398963526110, -6.798520279110966236 ) ) ;
#100 = VECTOR ( 'NONE', #744, 1000.000000000000000 ) ;
#101 = CARTESIAN_POINT ( 'NONE',  ( 5.936248257219506108, -0.8737888311110053596, 5.496558148587830317 ) ) ;
#102 = CARTESIAN_POINT ( 'NONE',  ( 5.916093360767513687, -0.9999196734182665969, -5.867259559550686454 ) ) ;
#103 = LINE ( 'NONE', #541, #333 ) ;
#104 = CARTESIAN_POINT ( 'NONE',  ( 3.920495757085995070, 0.7990587187661492008, 6.615228971107168121 ) ) ;
#105 = ORIENTED_EDGE ( 'NONE', *, *, #84, .F. ) ;
#106 = CARTESIAN_POINT ( 'NONE',  ( 5.916088184763879987, -0.9999502950802094947, 5.868918508099886466 ) ) ;
#107 = CARTESIAN_POINT ( 'NONE',  ( -10.00000000000000000, 0.000000000000000000, -6.000000000000000000 ) ) ;
#108 = DIRECTION ( 'NONE',  ( -0.000000000000000000, -0.000000000000000000, -1.000000000000000000 ) ) ;
#109 = PERSON_AND_ORGANIZATION ( #785, #76 ) ;
#110 = CARTESIAN_POINT ( 'NONE',  ( -10.00000000000000000, 0.000000000000000000, 6.000000000000000000 ) ) ;
#111 = ORIENTED_EDGE ( 'NONE', *, *, #203, .F. ) ;
#112 = ADVANCED_FACE ( 'NONE', ( #485 ), #366, .F. ) ;
#113 = CARTESIAN_POINT ( 'NONE',  ( 4.000000000000000888, 0.1308391772901019434, -4.999999999999999112 ) ) ;
#114 = PERSON_AND_ORGANIZATION ( #785, #76 ) ;
#115 = DIRECTION ( 'NONE',  ( 0.000000000000000000, 0.000000000000000000, 1.000000000000000000 ) ) ;
#116 = ORIENTED_EDGE ( 'NONE', *, *, #443, .F. ) ;
#117 = CYLINDRICAL_SURFACE ( 'NONE', #721, 1.000000000000001776 ) ;
#118 = AXIS2_PLACEMENT_3D ( 'NONE', #456, #706, #139 ) ;
#119 =( NAMED_UNIT ( * ) PLANE_ANGLE_UNIT ( ) SI_UNIT ( $, .RADIAN. ) );
#120 = FACE_OUTER_BOUND ( 'NONE', #256, .T. ) ;
#121 = ORIENTED_EDGE ( 'NONE', *, *, #497, .F. ) ;
#122 = FACE_OUTER_BOUND ( 'NONE', #130, .T. ) ;
#123 = CARTESIAN_POINT ( 'NONE',  ( 5.999999999999999112, -3.478057330786736548E-17, -7.000000000000001776 ) ) ;
#124 = ORIENTED_EDGE ( 'NONE', *, *, #647, .F. ) ;
#125 = CARTESIAN_POINT ( 'NONE',  ( -3.880024974703066398, -0.9736797867424589192, -5.737322685224673258 ) ) ;
#126 = ORIENTED_EDGE ( 'NONE', *, *, #585, .F. ) ;
#127 = CARTESIAN_POINT ( 'NONE',  ( -3.969869395575870819, 0.5048887612555239546, -5.126926490991847274 ) ) ;
#128 = PRODUCT_DEFINITION_FORMATION_WITH_SPECIFIED_SOURCE ( 'ANY', '', #459, .NOT_KNOWN. ) ;
#129 = SHAPE_DEFINITION_REPRESENTATION ( #546, #628 ) ;
#130 = EDGE_LOOP ( 'NONE', ( #624, #799, #633, #21, #448, #247, #764, #211, #325, #6, #642, #259 ) ) ;
#131 = CARTESIAN_POINT ( 'NONE',  ( 5.995505046955614148, -0.2619456584322024106, 6.973928060713524779 ) ) ;
#132 = ORIENTED_EDGE ( 'NONE', *, *, #609, .T. ) ;
#133 = CIRCLE ( 'NONE', #636, 4.000000000000000000 ) ;
#134 = DIRECTION ( 'NONE',  ( -0.000000000000000000, -0.000000000000000000, -1.000000000000000000 ) ) ;
#135 = CC_DESIGN_PERSON_AND_ORGANIZATION_ASSIGNMENT ( #547, #491, ( #128 ) ) ;
#136 = ORIENTED_EDGE ( 'NONE', *, *, #647, .T. ) ;
#137 = CARTESIAN_POINT ( 'NONE',  ( -5.936271176698232566, 0.8736516769106875691, -6.503932284213237658 ) ) ;
#138 = CIRCLE ( 'NONE', #627, 5.999999999999999112 ) ;
#139 = DIRECTION ( 'NONE',  ( 0.000000000000000000, 0.000000000000000000, -1.000000000000000000 ) ) ;
#140 = CARTESIAN_POINT ( 'NONE',  ( -5.936248257219507884, 0.8737888311110058037, -5.496558148587832093 ) ) ;
#141 = CARTESIAN_POINT ( 'NONE',  ( -5.979990686694992341, -0.5044069930203338714, 6.873357432279043167 ) ) ;
#142 = EDGE_CURVE ( 'NONE', #253, #78, #169, .T. ) ;
#143 = EDGE_CURVE ( 'NONE', #253, #306, #304, .T. ) ;
#144 = ORIENTED_EDGE ( 'NONE', *, *, #551, .T. ) ;
#145 = EDGE_CURVE ( 'NONE', #306, #329, #615, .T. ) ;
#146 = CARTESIAN_POINT ( 'NONE',  ( -5.969178481556063787, 0.6144377077729902270, 5.200339668577359298 ) ) ;
#147 = CARTESIAN_POINT ( 'NONE',  ( 3.953614380922479743, -0.6145853434051681274, -5.200446137775986521 ) ) ;
#148 = DIRECTION ( 'NONE',  ( 1.000000000000000000, 0.000000000000000000, 0.000000000000000000 ) ) ;
#149 = CARTESIAN_POINT ( 'NONE',  ( -3.903780981627171354, 0.8735789483019649193, 6.503896338438821090 ) ) ;
#150 = DIRECTION ( 'NONE',  ( 1.000000000000000000, 0.000000000000000000, -0.000000000000000000 ) ) ;
#151 = CARTESIAN_POINT ( 'NONE',  ( 3.880024974703065510, -0.9736797867424590303, -6.262677314775328519 ) ) ;
#152 = CARTESIAN_POINT ( 'NONE',  ( 0.000000000000000000, 0.000000000000000000, 10.00000000000000000 ) ) ;
#153 = CARTESIAN_POINT ( 'NONE',  ( -5.999999999999999112, 4.472210243878960127E-23, 4.999999999999998224 ) ) ;
#154 = CARTESIAN_POINT ( 'NONE',  ( 5.969238533166610239, 0.6139908388540981088, -5.199776279120123412 ) ) ;
#155 = CARTESIAN_POINT ( 'NONE',  ( 3.920467691607482763, -0.7991479083213427481, 5.384990152480200187 ) ) ;
#156 = CARTESIAN_POINT ( 'NONE',  ( -3.969995828464051968, 0.5037600891934789216, 5.126369050917082504 ) ) ;
#157 = CARTESIAN_POINT ( 'NONE',  ( -5.999999999999999112, 0.000000000000000000, 10.00000000000000000 ) ) ;
#158 = CARTESIAN_POINT ( 'NONE',  ( 3.879973766560979254, -0.9739130422342940907, -5.737614112020435364 ) ) ;
#159 = LINE ( 'NONE', #421, #668 ) ;
#160 = CARTESIAN_POINT ( 'NONE',  ( 6.000000000000000000, 0.1323602877612179984, 4.999999999999998224 ) ) ;
#161 = CC_DESIGN_PERSON_AND_ORGANIZATION_ASSIGNMENT ( #187, #44, ( #459 ) ) ;
#162 = CARTESIAN_POINT ( 'NONE',  ( -5.916093360767513687, 0.9999196734182665969, 5.867259559550686454 ) ) ;
#163 = CARTESIAN_POINT ( 'NONE',  ( -3.903780981627171354, -0.8735789483019649193, -5.496103661561179798 ) ) ;
#164 = CARTESIAN_POINT ( 'NONE',  ( -5.999999999999999112, 0.000000000000000000, 10.00000000000000000 ) ) ;
#165 = CYLINDRICAL_SURFACE ( 'NONE', #294, 1.000000000000001776 ) ;
#166 = DIRECTION ( 'NONE',  ( 1.000000000000000000, 0.000000000000000000, 0.000000000000000000 ) ) ;
#167 =( GEOMETRIC_REPRESENTATION_CONTEXT ( 3 ) GLOBAL_UNCERTAINTY_ASSIGNED_CONTEXT ( ( #731 ) ) GLOBAL_UNIT_ASSIGNED_CONTEXT ( ( #494, #119, #59 ) ) REPRESENTATION_CONTEXT ( 'NONE', 'WORKASPACE' ) );
#168 = CARTESIAN_POINT ( 'NONE',  ( -4.000000000000000000, 4.134078698859513570E-18, -4.999999999999998224 ) ) ;
#169 = LINE ( 'NONE', #300, #282 ) ;
#170 = DIRECTION ( 'NONE',  ( 0.000000000000000000, 0.000000000000000000, 1.000000000000000000 ) ) ;
#171 = CARTESIAN_POINT ( 'NONE',  ( -3.999999999999999112, -0.1327117393334320550, 7.000000000000000888 ) ) ;
#172 = EDGE_CURVE ( 'NONE', #739, #496, #284, .T. ) ;
#173 = CARTESIAN_POINT ( 'NONE',  ( 3.872997553993024589, 0.9999449734778005361, -6.131452763206869605 ) ) ;
#174 = CARTESIAN_POINT ( 'NONE',  ( -4.000000000000000000, -4.134078698859513570E-18, 7.000000000000001776 ) ) ;
#175 = CARTESIAN_POINT ( 'NONE',  ( -5.999999999999999112, 4.472210243878960127E-23, 4.999999999999998224 ) ) ;
#176 = CARTESIAN_POINT ( 'NONE',  ( 3.953413208705574000, 0.6157976398963520559, 5.201479720889036429 ) ) ;
#177 = ORIENTED_EDGE ( 'NONE', *, *, #637, .T. ) ;
#178 = CARTESIAN_POINT ( 'NONE',  ( -5.999999999999999112, 3.478057330786736548E-17, 7.000000000000001776 ) ) ;
#179 = CARTESIAN_POINT ( 'NONE',  ( 0.000000000000000000, 0.000000000000000000, 10.00000000000000000 ) ) ;
#180 = CARTESIAN_POINT ( 'NONE',  ( -3.993101993507430780, 0.2641148760630696590, 6.973263066103405627 ) ) ;
#181 = SECURITY_CLASSIFICATION_LEVEL ( 'unclassified' ) ;
#182 = CARTESIAN_POINT ( 'NONE',  ( 4.000000000000000000, 4.134078698859513570E-18, -7.000000000000001776 ) ) ;
#183 = EDGE_LOOP ( 'NONE', ( #136, #82, #121, #265 ) ) ;
#184 = ADVANCED_FACE ( 'NONE', ( #797 ), #62, .F. ) ;
#185 = AXIS2_PLACEMENT_3D ( 'NONE', #152, #5, #504 ) ;
#186 = CARTESIAN_POINT ( 'NONE',  ( 5.947211616899244824, -0.7995298244854596170, -6.614560146198584789 ) ) ;
#187 = PERSON_AND_ORGANIZATION ( #785, #76 ) ;
#188 = CARTESIAN_POINT ( 'NONE',  ( 5.999999999999999112, 7.347880347662832066E-16, -4.999999999999998224 ) ) ;
#189 = ORIENTED_EDGE ( 'NONE', *, *, #585, .T. ) ;
#190 = CYLINDRICAL_SURFACE ( 'NONE', #185, 4.000000000000000000 ) ;
#191 = CARTESIAN_POINT ( 'NONE',  ( -3.872972725026414320, -1.000041135659531122, -5.868394576239723825 ) ) ;
#192 = APPROVAL_ROLE ( '' ) ;
#193 = CARTESIAN_POINT ( 'NONE',  ( -4.000000000000000000, 9.891274455076596304E-22, 4.999999999999998224 ) ) ;
#194 = VERTEX_POINT ( 'NONE', #123 ) ;
#195 = DIRECTION ( 'NONE',  ( -0.000000000000000000, -0.000000000000000000, -1.000000000000000000 ) ) ;
#196 = VERTEX_POINT ( 'NONE', #370 ) ;
#197 = FACE_BOUND ( 'NONE', #261, .T. ) ;
#198 = CARTESIAN_POINT ( 'NONE',  ( -5.916088184763879987, -0.9999502950802097168, 6.131081491900115310 ) ) ;
#199 = CARTESIAN_POINT ( 'NONE',  ( -3.969965223322160952, -0.5040697851665454365, 5.126501535645138219 ) ) ;
#200 = EDGE_LOOP ( 'NONE', ( #505, #132 ) ) ;
#201 = CARTESIAN_POINT ( 'NONE',  ( -5.999999999999999112, 0.1323933160975633294, -4.999999999999999112 ) ) ;
#202 = B_SPLINE_CURVE_WITH_KNOTS ( 'NONE', 3,
 ( #266, #86, #27, #270, #401, #334, #528, #712, #413, #262, #521, #778, #600, #773, #660, #94, #217, #279 ),
 .UNSPECIFIED., .F., .F.,
 ( 4, 2, 2, 2, 2, 2, 2, 2, 4 ),
 ( 0.003131923598877003976, 0.003523316383094321751, 0.003914709167311639093, 0.004306101951528956868, 0.004697494735746275511, 0.005088887519963593287, 0.005480280304180910195, 0.005871673088398227970, 0.006263065872615545746 ),
 .UNSPECIFIED. ) ;
#203 = EDGE_CURVE ( 'NONE', #496, #804, #614, .T. ) ;
#204 = DIRECTION ( 'NONE',  ( 1.000000000000000000, 0.000000000000000000, 0.000000000000000000 ) ) ;
#205 = VERTEX_POINT ( 'NONE', #92 ) ;
#206 = DIRECTION ( 'NONE',  ( 1.000000000000000000, -0.000000000000000000, -0.000000000000000000 ) ) ;
#207 = CARTESIAN_POINT ( 'NONE',  ( -3.903862007818517998, -0.8732369880725072697, 5.495287998594875489 ) ) ;
#208 = FACE_OUTER_BOUND ( 'NONE', #392, .T. ) ;
#209 = DIRECTION ( 'NONE',  ( 0.000000000000000000, 0.000000000000000000, 1.000000000000000000 ) ) ;
#210 = AXIS2_PLACEMENT_3D ( 'NONE', #297, #170, #612 ) ;
#211 = ORIENTED_EDGE ( 'NONE', *, *, #609, .F. ) ;
#212 = CARTESIAN_POINT ( 'NONE',  ( -3.993186561566759440, -0.2628729541220258259, -6.973603139195279077 ) ) ;
#213 = CARTESIAN_POINT ( 'NONE',  ( 0.000000000000000000, 0.000000000000000000, 10.00000000000000000 ) ) ;
#214 = CARTESIAN_POINT ( 'NONE',  ( 5.979990686694992341, 0.5044069930203338714, -6.873357432279043167 ) ) ;
#215 = ORIENTED_EDGE ( 'NONE', *, *, #227, .T. ) ;
#216 = CARTESIAN_POINT ( 'NONE',  ( -5.920636045238165224, 0.9739805876847945632, 6.261713868144225259 ) ) ;
#217 = CARTESIAN_POINT ( 'NONE',  ( -6.000000000000000000, -0.1323602877612180262, -4.999999999999999112 ) ) ;
#218 = CARTESIAN_POINT ( 'NONE',  ( 5.936248257219507884, 0.8737888311110051376, -6.503441851412169683 ) ) ;
#219 = CARTESIAN_POINT ( 'NONE',  ( 3.903788882833200802, -0.8735372258408634627, 5.496133832113259565 ) ) ;
#220 = CARTESIAN_POINT ( 'NONE',  ( 5.936362132114462398, -0.8730424326980924521, -5.495006902185634701 ) ) ;
#221 = APPROVAL_PERSON_ORGANIZATION ( #437, #524, #367 ) ;
#222 = DIRECTION ( 'NONE',  ( -0.000000000000000000, -0.000000000000000000, -1.000000000000000000 ) ) ;
#223 = CARTESIAN_POINT ( 'NONE',  ( 3.920495757085995070, -0.7990587187661486457, -5.384771028892830103 ) ) ;
#224 = CARTESIAN_POINT ( 'NONE',  ( 5.936246475285030577, 0.8738118504725673752, 5.496427578257567781 ) ) ;
#225 = CARTESIAN_POINT ( 'NONE',  ( 4.000000000000000000, 4.898587196589412829E-16, 10.00000000000000000 ) ) ;
#226 = CARTESIAN_POINT ( 'NONE',  ( 5.999999999999999112, 3.478057330786736548E-17, 4.999999999999998224 ) ) ;
#227 = EDGE_CURVE ( 'NONE', #194, #329, #702, .T. ) ;
#228 = CARTESIAN_POINT ( 'NONE',  ( 5.969051238897252532, 0.6156307853269485930, 5.201294265893188218 ) ) ;
#229 = EDGE_CURVE ( 'NONE', #496, #450, #713, .T. ) ;
#230 = LINE ( 'NONE', #417, #271 ) ;
#231 = LOCAL_TIME ( 18, 31, 27.00000000000000000, #501 ) ;
#232 = CARTESIAN_POINT ( 'NONE',  ( 5.979983180450074265, -0.5042987395407718676, -6.873293041799770187 ) ) ;
#233 = CALENDAR_DATE ( 2026, 29, 8 ) ;
#234 = CARTESIAN_POINT ( 'NONE',  ( 3.879973766560979254, 0.9739130422342935356, 6.262385887979563748 ) ) ;
#235 = ORIENTED_EDGE ( 'NONE', *, *, #558, .F. ) ;
#236 = COORDINATED_UNIVERSAL_TIME_OFFSET ( 5, 30, .AHEAD. ) ;
#237 = CYLINDRICAL_SURFACE ( 'NONE', #33, 1.000000000000001776 ) ;
#238 = EDGE_LOOP ( 'NONE', ( #582, #760, #587, #509, #579, #753, #310, #295, #316, #242, #429, #502 ) ) ;
#239 = CARTESIAN_POINT ( 'NONE',  ( 3.879948393309026855, 0.9740030178010135042, -5.738093216936199781 ) ) ;
#240 = CARTESIAN_POINT ( 'NONE',  ( -10.00000000000000000, 1.224646799147355179E-16, -4.999999999999998224 ) ) ;
#241 = DIRECTION ( 'NONE',  ( 0.000000000000000000, 0.000000000000000000, -1.000000000000000000 ) ) ;
#242 = ORIENTED_EDGE ( 'NONE', *, *, #319, .F. ) ;
#243 = VECTOR ( 'NONE', #527, 1000.000000000000000 ) ;
#244 = CARTESIAN_POINT ( 'NONE',  ( 5.969238533166609351, -0.6139908388540969986, 6.800223720879874811 ) ) ;
#245 = VECTOR ( 'NONE', #714, 1000.000000000000000 ) ;
#246 = AXIS2_PLACEMENT_3D ( 'NONE', #553, #115, #166 ) ;
#247 = ORIENTED_EDGE ( 'NONE', *, *, #558, .T. ) ;
#248 = LINE ( 'NONE', #503, #400 ) ;
#249 = VECTOR ( 'NONE', #548, 1000.000000000000000 ) ;
#250 = EDGE_LOOP ( 'NONE', ( #12, #742, #554, #556 ) ) ;
#251 = DIRECTION ( 'NONE',  ( 0.000000000000000000, 0.000000000000000000, 1.000000000000000000 ) ) ;
#252 = EDGE_CURVE ( 'NONE', #306, #253, #776, .T. ) ;
#253 = VERTEX_POINT ( 'NONE', #182 ) ;
#254 = CARTESIAN_POINT ( 'NONE',  ( -3.920467691607483651, 0.7991479083213426371, -5.384990152480200187 ) ) ;
#255 = DATE_AND_TIME ( #309, #318 ) ;
#256 = EDGE_LOOP ( 'NONE', ( #111, #64, #376, #445 ) ) ;
#257 = CARTESIAN_POINT ( 'NONE',  ( -5.920699391845023030, 0.9735856429312850224, -5.737147160932726919 ) ) ;
#258 = EDGE_CURVE ( 'NONE', #374, #320, #364, .T. ) ;
#259 = ORIENTED_EDGE ( 'NONE', *, *, #287, .F. ) ;
#260 = CARTESIAN_POINT ( 'NONE',  ( 5.999999999999999112, 3.478057330786736548E-17, 4.999999999999998224 ) ) ;
#261 = EDGE_LOOP ( 'NONE', ( #74, #359 ) ) ;
#262 = CARTESIAN_POINT ( 'NONE',  ( -5.916066267613697249, -1.000079958708139038, -5.868472611179661236 ) ) ;
#263 = DIRECTION ( 'NONE',  ( -1.000000000000000000, 0.000000000000000000, 0.000000000000000000 ) ) ;
#264 = LOCAL_TIME ( 18, 31, 27.00000000000000000, #479 ) ;
#265 = ORIENTED_EDGE ( 'NONE', *, *, #54, .F. ) ;
#266 = CARTESIAN_POINT ( 'NONE',  ( -5.999999999999999112, -4.472210243878960127E-23, -7.000000000000001776 ) ) ;
#267 = CARTESIAN_POINT ( 'NONE',  ( -5.916071405810141570, -1.000049560716555597, 5.869677990115323318 ) ) ;
#268 = CARTESIAN_POINT ( 'NONE',  ( 5.999999999999999112, 7.347880347662832066E-16, -4.999999999999998224 ) ) ;
#269 = CARTESIAN_POINT ( 'NONE',  ( -3.872972725026414320, 1.000041135659531122, 6.131605423760277951 ) ) ;
#270 = CARTESIAN_POINT ( 'NONE',  ( -5.980084330432665851, -0.5031281619707743680, -6.873977272554742335 ) ) ;
#271 = VECTOR ( 'NONE', #798, 1000.000000000000000 ) ;
#272 = B_SPLINE_CURVE_WITH_KNOTS ( 'NONE', 3,
 ( #298, #616, #358, #559, #293, #104, #495, #234, #623, #487, #803, #738, #492, #176, #807, #681, #52, #608 ),
 .UNSPECIFIED., .F., .F.,
 ( 4, 2, 2, 2, 2, 2, 2, 2, 4 ),
 ( 0.003138948259726314586, 0.003531211055919537909, 0.003923473852112760799, 0.004315736648305984122, 0.004707999444499207445, 0.005100262240692430768, 0.005492525036885654091, 0.005884787833078877414, 0.006277050629272099870 ),
 .UNSPECIFIED. ) ;
#273 = CARTESIAN_POINT ( 'NONE',  ( -10.00000000000000000, 0.000000000000000000, -7.000000000000001776 ) ) ;
#274 = APPROVAL ( #759, 'UNSPECIFIED' ) ;
#275 = CARTESIAN_POINT ( 'NONE',  ( -5.999999999999999112, 3.478057330786736548E-17, 7.000000000000001776 ) ) ;
#276 = CARTESIAN_POINT ( 'NONE',  ( 5.980031194523150795, 0.5039079366032440666, -5.126370681098129545 ) ) ;
#277 = CARTESIAN_POINT ( 'NONE',  ( -3.920449918490174657, -0.7992216017350888269, -5.385112855254420516 ) ) ;
#278 = CARTESIAN_POINT ( 'NONE',  ( -3.953413208705572224, 0.6157976398963517228, 6.798520279110967124 ) ) ;
#279 = CARTESIAN_POINT ( 'NONE',  ( -5.999999999999999112, -3.478057330786736548E-17, -4.999999999999998224 ) ) ;
#280 = CARTESIAN_POINT ( 'NONE',  ( 5.936271176698235230, 0.8736516769106876801, -5.496067715786760566 ) ) ;
#281 = CARTESIAN_POINT ( 'NONE',  ( 4.000000000000000000, 4.898587196589412829E-16, 10.00000000000000000 ) ) ;
#282 = VECTOR ( 'NONE', #794, 1000.000000000000000 ) ;
#283 = B_SPLINE_CURVE_WITH_KNOTS ( 'NONE', 3,
 ( #481, #539, #792, #476, #726, #669, #101, #419, #106, #621, #61, #303, #562, #244, #457, #131, #761, #569 ),
 .UNSPECIFIED., .F., .F.,
 ( 4, 2, 2, 2, 2, 2, 2, 2, 4 ),
 ( 3.379126506159063230E-20, 0.0003914904498596257680, 0.0007829808997192512108, 0.001174471349578876545, 0.001565961799438502205, 0.001957452249298127864, 0.002348942699157753090, 0.002740433149017379184, 0.003131923598877004843 ),
 .UNSPECIFIED. ) ;
#284 = LINE ( 'NONE', #164, #710 ) ;
#285 = CALENDAR_DATE ( 2026, 29, 8 ) ;
#286 = ADVANCED_FACE ( 'NONE', ( #678 ), #237, .F. ) ;
#287 = EDGE_CURVE ( 'NONE', #196, #371, #272, .T. ) ;
#288 = CARTESIAN_POINT ( 'NONE',  ( -3.953413208705572224, -0.6157976398963517228, -5.201479720889035541 ) ) ;
#289 = CARTESIAN_POINT ( 'NONE',  ( 3.993212196359559929, 0.2626148844800777482, -5.026285802713309714 ) ) ;
#290 = PERSON_AND_ORGANIZATION_ROLE ( 'creator' ) ;
#291 = DIRECTION ( 'NONE',  ( 0.000000000000000000, 0.000000000000000000, 1.000000000000000000 ) ) ;
#292 = APPROVAL_STATUS ( 'not_yet_approved' ) ;
#293 = CARTESIAN_POINT ( 'NONE',  ( 3.953614380922479743, 0.6145853434051686826, 6.799553862224012590 ) ) ;
#294 = AXIS2_PLACEMENT_3D ( 'NONE', #619, #98, #604 ) ;
#295 = ORIENTED_EDGE ( 'NONE', *, *, #674, .F. ) ;
#296 = CARTESIAN_POINT ( 'NONE',  ( -10.00000000000000000, 1.224646799147355179E-16, -4.999999999999998224 ) ) ;
#297 = CARTESIAN_POINT ( 'NONE',  ( 0.000000000000000000, 0.000000000000000000, 0.000000000000000000 ) ) ;
#298 = CARTESIAN_POINT ( 'NONE',  ( 4.000000000000000000, 4.898597087858433640E-16, 7.000000000000001776 ) ) ;
#299 = VERTEX_POINT ( 'NONE', #56 ) ;
#300 = CARTESIAN_POINT ( 'NONE',  ( 4.000000000000000000, 4.898587196589412829E-16, 10.00000000000000000 ) ) ;
#301 = LINE ( 'NONE', #240, #100 ) ;
#302 = ORIENTED_EDGE ( 'NONE', *, *, #581, .F. ) ;
#303 = CARTESIAN_POINT ( 'NONE',  ( 5.936271176698232566, -0.8736516769106876801, 6.503932284213237658 ) ) ;
#304 = B_SPLINE_CURVE_WITH_KNOTS ( 'NONE', 3,
 ( #557, #728, #46, #670, #349, #356, #735, #420, #173, #478, #239, #665, #345, #425, #809, #289, #113, #603 ),
 .UNSPECIFIED., .F., .F.,
 ( 4, 2, 2, 2, 2, 2, 2, 2, 4 ),
 ( 4.015188034936748514E-21, 0.0003923685324657892148, 0.0007847370649315784296, 0.001177105597397367590, 0.001569474129863156859, 0.001961842662328946128, 0.002354211194794735180, 0.002746579727260524666, 0.003138948259726313719 ),
 .UNSPECIFIED. ) ;
#305 = CARTESIAN_POINT ( 'NONE',  ( -4.000000000000000888, -0.1308391772901015826, 4.999999999999999112 ) ) ;
#306 = VERTEX_POINT ( 'NONE', #351 ) ;
#307 = CC_DESIGN_APPROVAL ( #524, ( #599 ) ) ;
#308 = CARTESIAN_POINT ( 'NONE',  ( 3.953670644936869039, -0.6142897454956629533, 6.799883658869957159 ) ) ;
#309 = CALENDAR_DATE ( 2026, 29, 8 ) ;
#310 = ORIENTED_EDGE ( 'NONE', *, *, #671, .F. ) ;
#311 = CARTESIAN_POINT ( 'NONE',  ( -10.00000000000000000, 0.000000000000000000, 4.999999999999998224 ) ) ;
#312 = EDGE_CURVE ( 'NONE', #299, #518, #133, .T. ) ;
#313 = DATE_TIME_ROLE ( 'classification_date' ) ;
#314 = ORIENTED_EDGE ( 'NONE', *, *, #442, .T. ) ;
#315 = CARTESIAN_POINT ( 'NONE',  ( -3.993201599367474763, 0.2629004868407572859, -5.026319689326707696 ) ) ;
#316 = ORIENTED_EDGE ( 'NONE', *, *, #497, .T. ) ;
#317 = CARTESIAN_POINT ( 'NONE',  ( -10.00000000000000000, 0.000000000000000000, -7.000000000000001776 ) ) ;
#318 = LOCAL_TIME ( 18, 31, 27.00000000000000000, #690 ) ;
#319 = EDGE_CURVE ( 'NONE', #613, #60, #432, .T. ) ;
#320 = VERTEX_POINT ( 'NONE', #686 ) ;
#321 = AXIS2_PLACEMENT_3D ( 'NONE', #767, #88, #148 ) ;
#322 = CARTESIAN_POINT ( 'NONE',  ( -3.999999999999999112, 0.1327117393334320550, -4.999999999999997335 ) ) ;
#323 = FACE_OUTER_BOUND ( 'NONE', #703, .T. ) ;
#324 = CARTESIAN_POINT ( 'NONE',  ( 5.995472630654517410, -0.2624013748573162386, -5.026285596910823550 ) ) ;
#325 = ORIENTED_EDGE ( 'NONE', *, *, #142, .F. ) ;
#326 = DIRECTION ( 'NONE',  ( -1.000000000000000000, 0.000000000000000000, 0.000000000000000000 ) ) ;
#327 = ADVANCED_FACE ( 'NONE', ( #120 ), #691, .F. ) ;
#328 = CARTESIAN_POINT ( 'NONE',  ( -4.000000000000000000, 9.891274455076596304E-22, 4.999999999999998224 ) ) ;
#329 = VERTEX_POINT ( 'NONE', #188 ) ;
#330 = PLANE ( 'NONE',  #534 ) ;
#331 = CARTESIAN_POINT ( 'NONE',  ( -6.000000000000000888, -0.1306497350717332750, 4.999999999999998224 ) ) ;
#332 = DESIGN_CONTEXT ( 'detailed design', #386, 'design' ) ;
#333 = VECTOR ( 'NONE', #350, 1000.000000000000000 ) ;
#334 = CARTESIAN_POINT ( 'NONE',  ( -5.947301735519283206, -0.7988914244718235969, -6.615437108313815706 ) ) ;
#335 = EDGE_CURVE ( 'NONE', #194, #320, #230, .T. ) ;
#336 = DIRECTION ( 'NONE',  ( 0.000000000000000000, 0.000000000000000000, 1.000000000000000000 ) ) ;
#337 = CARTESIAN_POINT ( 'NONE',  ( 3.872969183810251792, -1.000054850733511635, 6.130614219986238567 ) ) ;
#338 = CARTESIAN_POINT ( 'NONE',  ( -3.953614380922479743, 0.6145853434051685715, 5.200446137775988298 ) ) ;
#339 = CARTESIAN_POINT ( 'NONE',  ( -5.999999999999999112, 0.1306171417088610176, 4.999999999999999112 ) ) ;
#340 = CARTESIAN_POINT ( 'NONE',  ( 3.872972725026414764, -1.000041135659531122, -6.131605423760276175 ) ) ;
#341 = DIRECTION ( 'NONE',  ( -0.000000000000000000, -0.000000000000000000, -1.000000000000000000 ) ) ;
#342 = CARTESIAN_POINT ( 'NONE',  ( -4.000000000000000888, -0.1326759759031826968, -4.999999999999997335 ) ) ;
#343 = EDGE_CURVE ( 'NONE', #57, #374, #438, .T. ) ;
#344 = CIRCLE ( 'NONE', #643, 4.000000000000000000 ) ;
#345 = CARTESIAN_POINT ( 'NONE',  ( 3.920392233738140053, 0.7996175296367110663, -5.385363875576777204 ) ) ;
#346 = DATE_AND_TIME ( #285, #264 ) ;
#347 = EDGE_CURVE ( 'NONE', #450, #613, #748, .T. ) ;
#348 = CARTESIAN_POINT ( 'NONE',  ( 5.980084330432666739, 0.5031281619707748121, 6.873977272554743223 ) ) ;
#349 = CARTESIAN_POINT ( 'NONE',  ( 3.953463112640607680, 0.6154946931554466927, -6.798774545549736814 ) ) ;
#350 = DIRECTION ( 'NONE',  ( -0.000000000000000000, -0.000000000000000000, -1.000000000000000000 ) ) ;
#351 = CARTESIAN_POINT ( 'NONE',  ( 4.000000000000000000, 4.898577305309523487E-16, -4.999999999999998224 ) ) ;
#352 = ORIENTED_EDGE ( 'NONE', *, *, #9, .T. ) ;
#353 = CARTESIAN_POINT ( 'NONE',  ( -3.969995828464051968, -0.5037600891934789216, -6.873630949082915720 ) ) ;
#354 = CARTESIAN_POINT ( 'NONE',  ( -3.969858145330399157, -0.5048232406146755391, -5.126987308606508975 ) ) ;
#355 = CARTESIAN_POINT ( 'NONE',  ( -5.999999999999999112, 3.478057330786736548E-17, 7.000000000000001776 ) ) ;
#356 = CARTESIAN_POINT ( 'NONE',  ( 3.920467691607483651, 0.7991479083213427481, -6.615009847519799813 ) ) ;
#357 = FACE_OUTER_BOUND ( 'NONE', #238, .T. ) ;
#358 = CARTESIAN_POINT ( 'NONE',  ( 3.993186561566760329, 0.2628729541220260479, 6.973603139195279965 ) ) ;
#359 = ORIENTED_EDGE ( 'NONE', *, *, #584, .F. ) ;
#360 = CARTESIAN_POINT ( 'NONE',  ( -3.969858145330399157, 0.5048232406146755391, 6.873012691393491913 ) ) ;
#361 = APPROVAL_DATE_TIME ( #607, #572 ) ;
#362 = DIRECTION ( 'NONE',  ( 1.000000000000000000, -0.000000000000000000, -0.000000000000000000 ) ) ;
#363 = ORIENTED_EDGE ( 'NONE', *, *, #287, .T. ) ;
#364 = CIRCLE ( 'NONE', #246, 5.999999999999999112 ) ;
#365 = B_SPLINE_CURVE_WITH_KNOTS ( 'NONE', 3,
 ( #733, #626, #544, #45, #42, #155, #219, #409, #415, #337, #720, #372, #796, #308, #440, #37, #723, #533 ),
 .UNSPECIFIED., .F., .F.,
 ( 4, 2, 2, 2, 2, 2, 2, 2, 4 ),
 ( 4.015188034936748514E-21, 0.0003923685324657891606, 0.0007847370649315784296, 0.001177105597397367807, 0.001569474129863157293, 0.001961842662328946128, 0.002354211194794735614, 0.002746579727260524666, 0.003138948259726314586 ),
 .UNSPECIFIED. ) ;
#366 = CYLINDRICAL_SURFACE ( 'NONE', #537, 1.000000000000001776 ) ;
#367 = APPROVAL_ROLE ( '' ) ;
#368 = CARTESIAN_POINT ( 'NONE',  ( -10.00000000000000000, 0.000000000000000000, 6.000000000000000000 ) ) ;
#369 = EDGE_LOOP ( 'NONE', ( #639, #745 ) ) ;
#370 = CARTESIAN_POINT ( 'NONE',  ( 4.000000000000000000, 4.898597087858433640E-16, 7.000000000000001776 ) ) ;
#371 = VERTEX_POINT ( 'NONE', #444 ) ;
#372 = CARTESIAN_POINT ( 'NONE',  ( 3.903862007818519331, -0.8732369880725069367, 6.504712001405122734 ) ) ;
#373 = EDGE_CURVE ( 'NONE', #739, #85, #138, .T. ) ;
#374 = VERTEX_POINT ( 'NONE', #380 ) ;
#375 = CARTESIAN_POINT ( 'NONE',  ( 0.000000000000000000, 0.000000000000000000, 10.00000000000000000 ) ) ;
#376 = ORIENTED_EDGE ( 'NONE', *, *, #347, .T. ) ;
#377 = CARTESIAN_POINT ( 'NONE',  ( -4.000000000000000000, 4.134078698859513570E-18, -4.999999999999998224 ) ) ;
#378 = ORIENTED_EDGE ( 'NONE', *, *, #515, .F. ) ;
#379 = CARTESIAN_POINT ( 'NONE',  ( -4.000000000000000888, 0.1308391772901015826, -7.000000000000002665 ) ) ;
#380 = CARTESIAN_POINT ( 'NONE',  ( -5.999999999999999112, 0.000000000000000000, -10.00000000000000000 ) ) ;
#381 = MANIFOLD_SOLID_BREP ( 'Mirror1', #472 ) ;
#382 = ORIENTED_EDGE ( 'NONE', *, *, #343, .T. ) ;
#383 = CARTESIAN_POINT ( 'NONE',  ( -5.947135855825865569, 0.8002302970946547633, -6.613982267877006826 ) ) ;
#384 = VECTOR ( 'NONE', #666, 1000.000000000000000 ) ;
#385 = DIRECTION ( 'NONE',  ( 1.000000000000000000, 0.000000000000000000, -0.000000000000000000 ) ) ;
#386 = APPLICATION_CONTEXT ( 'configuration controlled 3d designs of mechanical parts and assemblies' ) ;
#387 = ORIENTED_EDGE ( 'NONE', *, *, #258, .T. ) ;
#388 = VECTOR ( 'NONE', #661, 1000.000000000000000 ) ;
#389 = CARTESIAN_POINT ( 'NONE',  ( 0.000000000000000000, 0.000000000000000000, 10.00000000000000000 ) ) ;
#390 = CARTESIAN_POINT ( 'NONE',  ( -5.969096820685153126, -0.6152055445546381618, 6.799049686702675288 ) ) ;
#391 = DIRECTION ( 'NONE',  ( 1.000000000000000000, -0.000000000000000000, -0.000000000000000000 ) ) ;
#392 = EDGE_LOOP ( 'NONE', ( #520, #14, #649, #235 ) ) ;
#393 = DIRECTION ( 'NONE',  ( 1.000000000000000000, -0.000000000000000000, -0.000000000000000000 ) ) ;
#394 = CARTESIAN_POINT ( 'NONE',  ( 3.969995828464051968, -0.5037600891934788105, -5.126369050917081616 ) ) ;
#395 = CARTESIAN_POINT ( 'NONE',  ( -4.000000000000000000, 4.134078698859513570E-18, -4.999999999999998224 ) ) ;
#396 = LINE ( 'NONE', #516, #788 ) ;
#397 = CARTESIAN_POINT ( 'NONE',  ( 0.000000000000000000, 0.000000000000000000, 10.00000000000000000 ) ) ;
#398 = CARTESIAN_POINT ( 'NONE',  ( -10.00000000000000000, 1.224646799147355179E-16, 7.000000000000001776 ) ) ;
#399 = ADVANCED_FACE ( 'NONE', ( #323 ), #576, .F. ) ;
#400 = VECTOR ( 'NONE', #195, 1000.000000000000000 ) ;
#401 = CARTESIAN_POINT ( 'NONE',  ( -5.969178481556063787, -0.6144377077729902270, -6.799660331422638038 ) ) ;
#402 = CARTESIAN_POINT ( 'NONE',  ( 6.000000000000000888, 0.1306497350717336636, -5.000000000000000000 ) ) ;
#403 = B_SPLINE_CURVE_WITH_KNOTS ( 'NONE', 3,
 ( #268, #775, #324, #597, #530, #525, #220, #469, #102, #483, #618, #611, #186, #490, #232, #743, #540, #58 ),
 .UNSPECIFIED., .F., .F.,
 ( 4, 2, 2, 2, 2, 2, 2, 2, 4 ),
 ( 0.003131923598877003542, 0.003523316383094321318, 0.003914709167311639093, 0.004306101951528956868, 0.004697494735746274644, 0.005088887519963592419, 0.005480280304180910195, 0.005871673088398227970, 0.006263065872615545746 ),
 .UNSPECIFIED. ) ;
#404 = CARTESIAN_POINT ( 'NONE',  ( 5.999999999999999112, 7.347881242104880842E-16, 7.000000000000001776 ) ) ;
#405 = CARTESIAN_POINT ( 'NONE',  ( -3.872993992554538245, 0.9999587668730113288, 5.867770180639415578 ) ) ;
#406 = FACE_OUTER_BOUND ( 'NONE', #183, .T. ) ;
#407 = CARTESIAN_POINT ( 'NONE',  ( 5.999999999999999112, 7.347880347662832066E-16, -4.999999999999998224 ) ) ;
#408 = ADVANCED_FACE ( 'NONE', ( #16, #762 ), #20, .F. ) ;
#409 = CARTESIAN_POINT ( 'NONE',  ( 3.880087007359553475, -0.9734268036074587016, 5.736582730085542536 ) ) ;
#410 = B_SPLINE_CURVE_WITH_KNOTS ( 'NONE', 3,
 ( #153, #339, #461, #583, #146, #463, #535, #22, #162, #717, #216, #657, #39, #30, #90, #470, #663, #275 ),
 .UNSPECIFIED., .F., .F.,
 ( 4, 2, 2, 2, 2, 2, 2, 2, 4 ),
 ( 0.003131923598877003976, 0.003523316383094321751, 0.003914709167311639093, 0.004306101951528956868, 0.004697494735746275511, 0.005088887519963593287, 0.005480280304180910195, 0.005871673088398227970, 0.006263065872615545746 ),
 .UNSPECIFIED. ) ;
#411 = CARTESIAN_POINT ( 'NONE',  ( -5.999999999999999112, -4.472210243878960127E-23, -7.000000000000001776 ) ) ;
#412 = CC_DESIGN_PERSON_AND_ORGANIZATION_ASSIGNMENT ( #47, #290, ( #128 ) ) ;
#413 = CARTESIAN_POINT ( 'NONE',  ( -5.916093360767513687, -0.9999196734182665969, -6.132740440449313546 ) ) ;
#414 = CARTESIAN_POINT ( 'NONE',  ( 5.999999999999999112, 0.1323933160975633294, -7.000000000000000888 ) ) ;
#415 = CARTESIAN_POINT ( 'NONE',  ( 3.872997553993025921, -0.9999449734778007581, 5.868547236793135724 ) ) ;
#416 = DIRECTION ( 'NONE',  ( 0.000000000000000000, 0.000000000000000000, -1.000000000000000000 ) ) ;
#417 = CARTESIAN_POINT ( 'NONE',  ( 5.999999999999999112, 7.347880794884118750E-16, 10.00000000000000000 ) ) ;
#418 = ORIENTED_EDGE ( 'NONE', *, *, #727, .T. ) ;
#419 = CARTESIAN_POINT ( 'NONE',  ( 5.920699391845023030, -0.9735856429312850224, 5.737147160932726919 ) ) ;
#420 = CARTESIAN_POINT ( 'NONE',  ( 3.880087007359552587, 0.9734268036074583685, -6.263417269914460128 ) ) ;
#421 = CARTESIAN_POINT ( 'NONE',  ( -5.999999999999999112, 0.000000000000000000, 10.00000000000000000 ) ) ;
#422 = DATE_AND_TIME ( #677, #41 ) ;
#423 = CARTESIAN_POINT ( 'NONE',  ( -3.969869395575870819, -0.5048887612555239546, 6.873073509008152726 ) ) ;
#424 = APPLICATION_CONTEXT ( 'configuration controlled 3d designs of mechanical parts and assemblies' ) ;
#425 = CARTESIAN_POINT ( 'NONE',  ( 3.953670644936868150, 0.6142897454956636194, -5.200116341130043729 ) ) ;
#426 = CARTESIAN_POINT ( 'NONE',  ( 0.000000000000000000, 0.000000000000000000, 10.00000000000000000 ) ) ;
#427 = PERSON_AND_ORGANIZATION_ROLE ( 'creator' ) ;
#428 = CARTESIAN_POINT ( 'NONE',  ( 0.000000000000000000, 0.000000000000000000, 10.00000000000000000 ) ) ;
#429 = ORIENTED_EDGE ( 'NONE', *, *, #347, .F. ) ;
#430 = CC_DESIGN_PERSON_AND_ORGANIZATION_ASSIGNMENT ( #756, #447, ( #433 ) ) ;
#431 = DIRECTION ( 'NONE',  ( 0.000000000000000000, 0.000000000000000000, -1.000000000000000000 ) ) ;
#432 = LINE ( 'NONE', #480, #249 ) ;
#433 = SECURITY_CLASSIFICATION ( '', '', #181 ) ;
#434 = ORIENTED_EDGE ( 'NONE', *, *, #343, .F. ) ;
#435 = CIRCLE ( 'NONE', #499, 5.999999999999999112 ) ;
#436 = DIRECTION ( 'NONE',  ( 1.000000000000000000, -0.000000000000000000, -0.000000000000000000 ) ) ;
#437 = PERSON_AND_ORGANIZATION ( #785, #76 ) ;
#438 = LINE ( 'NONE', #484, #768 ) ;
#439 = ORIENTED_EDGE ( 'NONE', *, *, #84, .T. ) ;
#440 = CARTESIAN_POINT ( 'NONE',  ( 3.969965223322160952, -0.5040697851665449924, 6.873498464354864446 ) ) ;
#441 = B_SPLINE_CURVE_WITH_KNOTS ( 'NONE', 3,
 ( #377, #322, #315, #127, #519, #254, #650, #511, #571, #13, #514, #758, #15, #701, #635, #630, #379, #73 ),
 .UNSPECIFIED., .F., .F.,
 ( 4, 2, 2, 2, 2, 2, 2, 2, 4 ),
 ( 4.015188034936748514E-21, 0.0003923685324657892690, 0.0007847370649315785381, 0.001177105597397367807, 0.001569474129863157076, 0.001961842662328946128, 0.002354211194794735614, 0.002746579727260525100, 0.003138948259726314152 ),
 .UNSPECIFIED. ) ;
#442 = EDGE_CURVE ( 'NONE', #613, #450, #49, .T. ) ;
#443 = EDGE_CURVE ( 'NONE', #804, #205, #159, .T. ) ;
#444 = CARTESIAN_POINT ( 'NONE',  ( 4.000000000000000000, -4.134078698859513570E-18, 4.999999999999998224 ) ) ;
#445 = ORIENTED_EDGE ( 'NONE', *, *, #705, .F. ) ;
#446 = LINE ( 'NONE', #317, #707 ) ;
#447 = PERSON_AND_ORGANIZATION_ROLE ( 'classification_officer' ) ;
#448 = ORIENTED_EDGE ( 'NONE', *, *, #319, .T. ) ;
#449 = FACE_OUTER_BOUND ( 'NONE', #711, .T. ) ;
#450 = VERTEX_POINT ( 'NONE', #174 ) ;
#451 = CARTESIAN_POINT ( 'NONE',  ( -5.947240459526507372, 0.7993282387951125001, -5.385156417830424758 ) ) ;
#452 = ORIENTED_EDGE ( 'NONE', *, *, #515, .T. ) ;
#453 = CARTESIAN_POINT ( 'NONE',  ( -5.916088184763879987, 0.9999502950802097168, -5.868918508099885578 ) ) ;
#454 = CARTESIAN_POINT ( 'NONE',  ( 0.000000000000000000, 0.000000000000000000, -10.00000000000000000 ) ) ;
#455 = CARTESIAN_POINT ( 'NONE',  ( -3.953670644936868150, -0.6142897454956635084, 5.200116341130044617 ) ) ;
#456 = CARTESIAN_POINT ( 'NONE',  ( -10.00000000000000000, 0.000000000000000000, -6.000000000000000000 ) ) ;
#457 = CARTESIAN_POINT ( 'NONE',  ( 5.980031194523149907, -0.5039079366032428453, 6.873629318901870455 ) ) ;
#458 = AXIS2_PLACEMENT_3D ( 'NONE', #389, #134, #698 ) ;
#459 = PRODUCT ( 'Coupling_Default_sldprt', 'Coupling_Default_sldprt', '', ( #1 ) ) ;
#460 = ORIENTED_EDGE ( 'NONE', *, *, #560, .F. ) ;
#461 = CARTESIAN_POINT ( 'NONE',  ( -5.995472630654518298, 0.2624013748573165716, 5.026285596910825326 ) ) ;
#462 = LINE ( 'NONE', #655, #245 ) ;
#463 = CARTESIAN_POINT ( 'NONE',  ( -5.947301735519283206, 0.7988914244718235969, 5.384562891686183406 ) ) ;
#464 = CARTESIAN_POINT ( 'NONE',  ( 3.903976002541359236, -0.8727396029839827873, -5.494353331437611843 ) ) ;
#465 = CARTESIAN_POINT ( 'NONE',  ( -4.000000000000000000, 0.000000000000000000, -10.00000000000000000 ) ) ;
#466 = CARTESIAN_POINT ( 'NONE',  ( 5.916088184763879987, 0.9999502950802094947, -6.131081491900115310 ) ) ;
#467 = CARTESIAN_POINT ( 'NONE',  ( -3.879973766560979254, -0.9739130422342942017, -6.262385887979563748 ) ) ;
#468 = VECTOR ( 'NONE', #8, 1000.000000000000000 ) ;
#469 = CARTESIAN_POINT ( 'NONE',  ( 5.920671847850517366, -0.9737778612005492107, -5.737363758846504069 ) ) ;
#470 = CARTESIAN_POINT ( 'NONE',  ( -5.995407492418038053, 0.2638277032948922463, 6.973320552815180484 ) ) ;
#471 = CARTESIAN_POINT ( 'NONE',  ( 5.947135855825862905, 0.8002302970946546523, -5.386017732122993174 ) ) ;
#472 = CLOSED_SHELL ( 'NONE', ( #751, #112, #327, #184, #477, #538, #625, #489, #610, #408, #97, #286, #399, #7 ) ) ;
#473 = CARTESIAN_POINT ( 'NONE',  ( 5.947211616899244824, 0.7995298244854587288, 5.385439853801413435 ) ) ;
#474 = LINE ( 'NONE', #769, #522 ) ;
#475 = CARTESIAN_POINT ( 'NONE',  ( 5.920699391845023030, 0.9735856429312844673, -6.262852839067273081 ) ) ;
#476 = CARTESIAN_POINT ( 'NONE',  ( 5.979990686694992341, -0.5044069930203340935, 5.126642567720957722 ) ) ;
#477 = ADVANCED_FACE ( 'NONE', ( #357 ), #736, .F. ) ;
#478 = CARTESIAN_POINT ( 'NONE',  ( 3.872969183810250904, 1.000054850733511635, -5.869385780013764098 ) ) ;
#479 = COORDINATED_UNIVERSAL_TIME_OFFSET ( 5, 30, .AHEAD. ) ;
#480 = CARTESIAN_POINT ( 'NONE',  ( -4.000000000000000000, 0.000000000000000000, 10.00000000000000000 ) ) ;
#481 = CARTESIAN_POINT ( 'NONE',  ( 5.999999999999999112, 3.478057330786736548E-17, 4.999999999999998224 ) ) ;
#482 = AXIS2_PLACEMENT_3D ( 'NONE', #213, #724, #326 ) ;
#483 = CARTESIAN_POINT ( 'NONE',  ( 5.916066267613697249, -1.000079958708139038, -6.131527388820341429 ) ) ;
#484 = CARTESIAN_POINT ( 'NONE',  ( -5.999999999999999112, 0.000000000000000000, 10.00000000000000000 ) ) ;
#485 = FACE_OUTER_BOUND ( 'NONE', #250, .T. ) ;
#486 = APPLICATION_PROTOCOL_DEFINITION ( 'international standard', 'config_control_design', 1994, #386 ) ;
#487 = CARTESIAN_POINT ( 'NONE',  ( 3.872972725026414320, 1.000041135659531122, 5.868394576239722937 ) ) ;
#488 = EDGE_LOOP ( 'NONE', ( #72, #363, #570, #378 ) ) ;
#489 = ADVANCED_FACE ( 'NONE', ( #122 ), #190, .F. ) ;
#490 = CARTESIAN_POINT ( 'NONE',  ( 5.969051238897252532, -0.6156307853269494812, -6.798705734106811782 ) ) ;
#491 = PERSON_AND_ORGANIZATION_ROLE ( 'design_supplier' ) ;
#492 = CARTESIAN_POINT ( 'NONE',  ( 3.920449918490174213, 0.7992216017350888269, 5.385112855254421405 ) ) ;
#493 = ORIENTED_EDGE ( 'NONE', *, *, #752, .F. ) ;
#494 =( LENGTH_UNIT ( ) NAMED_UNIT ( * ) SI_UNIT ( .MILLI., .METRE. ) );
#495 = CARTESIAN_POINT ( 'NONE',  ( 3.903976002541358348, 0.8727396029839832314, 6.505646668562388157 ) ) ;
#496 = VERTEX_POINT ( 'NONE', #178 ) ;
#497 = EDGE_CURVE ( 'NONE', #780, #60, #634, .T. ) ;
#498 = CARTESIAN_POINT ( 'NONE',  ( -3.920495757085995070, -0.7990587187661492008, -6.615228971107168121 ) ) ;
#499 = AXIS2_PLACEMENT_3D ( 'NONE', #179, #50, #684 ) ;
#500 = EDGE_CURVE ( 'NONE', #371, #196, #365, .T. ) ;
#501 = COORDINATED_UNIVERSAL_TIME_OFFSET ( 5, 30, .AHEAD. ) ;
#502 = ORIENTED_EDGE ( 'NONE', *, *, #38, .F. ) ;
#503 = CARTESIAN_POINT ( 'NONE',  ( 5.999999999999999112, 7.347880794884118750E-16, 10.00000000000000000 ) ) ;
#504 = DIRECTION ( 'NONE',  ( -1.000000000000000000, 0.000000000000000000, 0.000000000000000000 ) ) ;
#505 = ORIENTED_EDGE ( 'NONE', *, *, #671, .T. ) ;
#506 = DIRECTION ( 'NONE',  ( 1.000000000000000000, 0.000000000000000000, 0.000000000000000000 ) ) ;
#507 = PERSON_AND_ORGANIZATION ( #785, #76 ) ;
#508 = CARTESIAN_POINT ( 'NONE',  ( -3.953463112640607680, -0.6154946931554466927, 6.798774545549736814 ) ) ;
#509 = ORIENTED_EDGE ( 'NONE', *, *, #29, .T. ) ;
#510 = CC_DESIGN_SECURITY_CLASSIFICATION ( #433, ( #128 ) ) ;
#511 = CARTESIAN_POINT ( 'NONE',  ( -3.880087007359552587, 0.9734268036074583685, -5.736582730085539872 ) ) ;
#512 = CARTESIAN_POINT ( 'NONE',  ( -3.920467691607483651, -0.7991479083213426371, 6.615009847519799813 ) ) ;
#513 = ORIENTED_EDGE ( 'NONE', *, *, #443, .T. ) ;
#514 = CARTESIAN_POINT ( 'NONE',  ( -3.879948393309026855, 0.9740030178010135042, -6.261906783063801107 ) ) ;
#515 = EDGE_CURVE ( 'NONE', #526, #573, #801, .T. ) ;
#516 = CARTESIAN_POINT ( 'NONE',  ( -4.000000000000000000, 0.000000000000000000, 10.00000000000000000 ) ) ;
#517 = CARTESIAN_POINT ( 'NONE',  ( -3.872969183810250904, -1.000054850733511635, 5.869385780013764098 ) ) ;
#518 = VERTEX_POINT ( 'NONE', #281 ) ;
#519 = CARTESIAN_POINT ( 'NONE',  ( -3.953463112640607680, 0.6154946931554466927, -5.201225454450264962 ) ) ;
#520 = ORIENTED_EDGE ( 'NONE', *, *, #791, .F. ) ;
#521 = CARTESIAN_POINT ( 'NONE',  ( -5.920636045238165224, -0.9739805876847945632, -5.738286131855774741 ) ) ;
#522 = VECTOR ( 'NONE', #393, 1000.000000000000000 ) ;
#523 = EDGE_CURVE ( 'NONE', #573, #526, #283, .T. ) ;
#524 = APPROVAL ( #292, 'UNSPECIFIED' ) ;
#525 = CARTESIAN_POINT ( 'NONE',  ( 5.947301735519284094, -0.7988914244718235969, -5.384562891686183406 ) ) ;
#526 = VERTEX_POINT ( 'NONE', #750 ) ;
#527 = DIRECTION ( 'NONE',  ( 1.000000000000000000, -0.000000000000000000, -0.000000000000000000 ) ) ;
#528 = CARTESIAN_POINT ( 'NONE',  ( -5.936362132114462398, -0.8730424326980924521, -6.504993097814366187 ) ) ;
#529 = CARTESIAN_POINT ( 'NONE',  ( -5.995505046955614148, -0.2619456584322029657, 5.026071939286478774 ) ) ;
#530 = CARTESIAN_POINT ( 'NONE',  ( 5.969178481556065563, -0.6144377077729905601, -5.200339668577361074 ) ) ;
#531 = LINE ( 'NONE', #789, #384 ) ;
#532 = CARTESIAN_POINT ( 'NONE',  ( -5.936271176698232566, -0.8736516769106875691, 5.496067715786762342 ) ) ;
#533 = CARTESIAN_POINT ( 'NONE',  ( 4.000000000000000000, 4.898597087858433640E-16, 7.000000000000001776 ) ) ;
#534 = AXIS2_PLACEMENT_3D ( 'NONE', #397, #588, #150 ) ;
#535 = CARTESIAN_POINT ( 'NONE',  ( -5.936362132114462398, 0.8730424326980924521, 5.495006902185635589 ) ) ;
#536 = CARTESIAN_POINT ( 'NONE',  ( -5.980031194523149907, -0.5039079366032431784, 5.126370681098129545 ) ) ;
#537 = AXIS2_PLACEMENT_3D ( 'NONE', #107, #734, #431 ) ;
#538 = ADVANCED_FACE ( 'NONE', ( #449 ), #566, .T. ) ;
#539 = CARTESIAN_POINT ( 'NONE',  ( 6.000000000000000000, -0.1323933160975633572, 4.999999999999998224 ) ) ;
#540 = CARTESIAN_POINT ( 'NONE',  ( 6.000000000000000000, -0.1323602877612180262, -7.000000000000001776 ) ) ;
#541 = CARTESIAN_POINT ( 'NONE',  ( 5.999999999999999112, 7.347880794884118750E-16, 10.00000000000000000 ) ) ;
#542 = CARTESIAN_POINT ( 'NONE',  ( 4.000000000000000000, 4.134078698859513570E-18, -7.000000000000001776 ) ) ;
#543 = CARTESIAN_POINT ( 'NONE',  ( -4.000000000000000000, -9.891274455076596304E-22, -7.000000000000001776 ) ) ;
#544 = CARTESIAN_POINT ( 'NONE',  ( 3.993201599367473875, -0.2629004868407572304, 5.026319689326707696 ) ) ;
#545 = DIRECTION ( 'NONE',  ( -0.000000000000000000, -0.000000000000000000, -1.000000000000000000 ) ) ;
#546 = PRODUCT_DEFINITION_SHAPE ( 'NONE', 'NONE',  #599 ) ;
#547 = PERSON_AND_ORGANIZATION ( #785, #76 ) ;
#548 = DIRECTION ( 'NONE',  ( -0.000000000000000000, -0.000000000000000000, -1.000000000000000000 ) ) ;
#549 = CIRCLE ( 'NONE', #755, 4.000000000000000000 ) ;
#550 = CARTESIAN_POINT ( 'NONE',  ( 5.999999999999999112, 7.347880794884118750E-16, 10.00000000000000000 ) ) ;
#551 = EDGE_CURVE ( 'NONE', #253, #194, #446, .T. ) ;
#552 = APPROVAL_STATUS ( 'not_yet_approved' ) ;
#553 = CARTESIAN_POINT ( 'NONE',  ( 0.000000000000000000, 0.000000000000000000, -10.00000000000000000 ) ) ;
#554 = ORIENTED_EDGE ( 'NONE', *, *, #77, .T. ) ;
#555 = DIRECTION ( 'NONE',  ( 1.000000000000000000, 0.000000000000000000, 0.000000000000000000 ) ) ;
#556 = ORIENTED_EDGE ( 'NONE', *, *, #551, .F. ) ;
#557 = CARTESIAN_POINT ( 'NONE',  ( 4.000000000000000000, 4.134078698859513570E-18, -7.000000000000001776 ) ) ;
#558 = EDGE_CURVE ( 'NONE', #60, #780, #441, .T. ) ;
#559 = CARTESIAN_POINT ( 'NONE',  ( 3.969995828464053744, 0.5037600891934793657, 6.873630949082918384 ) ) ;
#560 = EDGE_CURVE ( 'NONE', #205, #57, #766, .T. ) ;
#561 = ORIENTED_EDGE ( 'NONE', *, *, #637, .F. ) ;
#562 = CARTESIAN_POINT ( 'NONE',  ( 5.947135855825864681, -0.8002302970946538752, 6.613982267877005938 ) ) ;
#563 = CC_DESIGN_DATE_AND_TIME_ASSIGNMENT ( #255, #313, ( #433 ) ) ;
#564 = CARTESIAN_POINT ( 'NONE',  ( -3.879948393309026855, -0.9740030178010135042, 5.738093216936199781 ) ) ;
#565 = EDGE_LOOP ( 'NONE', ( #126, #620, #772, #53, #513, #124, #382, #387, #629, #697, #493, #695 ) ) ;
#566 = CYLINDRICAL_SURFACE ( 'NONE', #458, 5.999999999999999112 ) ;
#567 = DATE_AND_TIME ( #763, #231 ) ;
#568 = EDGE_LOOP ( 'NONE', ( #682, #439 ) ) ;
#569 = CARTESIAN_POINT ( 'NONE',  ( 5.999999999999999112, 7.347881242104880842E-16, 7.000000000000001776 ) ) ;
#570 = ORIENTED_EDGE ( 'NONE', *, *, #581, .T. ) ;
#571 = CARTESIAN_POINT ( 'NONE',  ( -3.872997553993024589, 0.9999449734778005361, -5.868547236793132171 ) ) ;
#572 = APPROVAL ( #552, 'UNSPECIFIED' ) ;
#573 = VERTEX_POINT ( 'NONE', #260 ) ;
#574 = AXIS2_PLACEMENT_3D ( 'NONE', #426, #341, #263 ) ;
#575 = CARTESIAN_POINT ( 'NONE',  ( -5.969096820685153126, 0.6152055445546381618, -5.200950313297326488 ) ) ;
#576 = CYLINDRICAL_SURFACE ( 'NONE', #89, 1.000000000000001776 ) ;
#577 = CIRCLE ( 'NONE', #321, 5.999999999999999112 ) ;
#578 = CARTESIAN_POINT ( 'NONE',  ( -3.872997553993024589, -0.9999449734778005361, 6.131452763206869605 ) ) ;
#579 = ORIENTED_EDGE ( 'NONE', *, *, #252, .T. ) ;
#580 = CARTESIAN_POINT ( 'NONE',  ( -5.995505046955614148, 0.2619456584322029657, -6.973928060713523003 ) ) ;
#581 = EDGE_CURVE ( 'NONE', #371, #573, #765, .T. ) ;
#582 = ORIENTED_EDGE ( 'NONE', *, *, #312, .T. ) ;
#583 = CARTESIAN_POINT ( 'NONE',  ( -5.980084330432665851, 0.5031281619707743680, 5.126022727445253224 ) ) ;
#584 = EDGE_CURVE ( 'NONE', #518, #299, #549, .T. ) ;
#585 = EDGE_CURVE ( 'NONE', #85, #526, #248, .T. ) ;
#586 = DIRECTION ( 'NONE',  ( 0.000000000000000000, 0.000000000000000000, -1.000000000000000000 ) ) ;
#587 = ORIENTED_EDGE ( 'NONE', *, *, #500, .F. ) ;
#588 = DIRECTION ( 'NONE',  ( 0.000000000000000000, 0.000000000000000000, 1.000000000000000000 ) ) ;
#589 = CARTESIAN_POINT ( 'NONE',  ( 3.993186561566759440, -0.2628729541220253818, -5.026396860804724476 ) ) ;
#590 = APPROVAL_PERSON_ORGANIZATION ( #507, #274, #192 ) ;
#591 = LINE ( 'NONE', #273, #80 ) ;
#592 = CYLINDRICAL_SURFACE ( 'NONE', #482, 5.999999999999999112 ) ;
#593 = CARTESIAN_POINT ( 'NONE',  ( -5.969238533166610239, -0.6139908388540981088, 5.199776279120125189 ) ) ;
#594 = DIRECTION ( 'NONE',  ( 1.000000000000000000, 0.000000000000000000, 0.000000000000000000 ) ) ;
#595 = CARTESIAN_POINT ( 'NONE',  ( -5.947135855825865569, -0.8002302970946547633, 5.386017732122991397 ) ) ;
#596 = CARTESIAN_POINT ( 'NONE',  ( 5.916093360767513687, 0.9999196734182668189, 6.132740440449312658 ) ) ;
#597 = CARTESIAN_POINT ( 'NONE',  ( 5.980084330432666739, -0.5031281619707738129, -5.126022727445254112 ) ) ;
#598 = CARTESIAN_POINT ( 'NONE',  ( -3.920449918490174657, 0.7992216017350888269, 6.614887144745580372 ) ) ;
#599 = PRODUCT_DEFINITION ( 'UNKNOWN', '', #128, #332 ) ;
#600 = CARTESIAN_POINT ( 'NONE',  ( -5.947211616899245712, -0.7995298244854598391, -5.385439853801416099 ) ) ;
#601 = CARTESIAN_POINT ( 'NONE',  ( 3.903780981627170910, -0.8735789483019654744, -6.503896338438820202 ) ) ;
#602 = CARTESIAN_POINT ( 'NONE',  ( 5.995407492418038942, 0.2638277032948923018, 5.026679447184820404 ) ) ;
#603 = CARTESIAN_POINT ( 'NONE',  ( 4.000000000000000000, 4.898577305309523487E-16, -4.999999999999998224 ) ) ;
#604 = DIRECTION ( 'NONE',  ( 0.000000000000000000, 0.000000000000000000, -1.000000000000000000 ) ) ;
#605 = CARTESIAN_POINT ( 'NONE',  ( 5.969178481556065563, 0.6144377077729914483, 6.799660331422638038 ) ) ;
#606 = FACE_OUTER_BOUND ( 'NONE', #488, .T. ) ;
#607 = DATE_AND_TIME ( #233, #683 ) ;
#608 = CARTESIAN_POINT ( 'NONE',  ( 4.000000000000000000, -4.134078698859513570E-18, 4.999999999999998224 ) ) ;
#609 = EDGE_CURVE ( 'NONE', #78, #652, #784, .T. ) ;
#610 = ADVANCED_FACE ( 'NONE', ( #754, #197 ), #330, .T. ) ;
#611 = CARTESIAN_POINT ( 'NONE',  ( 5.936246475285030577, -0.8738118504725680413, -6.503572421742431331 ) ) ;
#612 = DIRECTION ( 'NONE',  ( 1.000000000000000000, 0.000000000000000000, 0.000000000000000000 ) ) ;
#613 = VERTEX_POINT ( 'NONE', #35 ) ;
#614 = B_SPLINE_CURVE_WITH_KNOTS ( 'NONE', 3,
 ( #355, #793, #709, #141, #390, #651, #631, #69, #198, #267, #667, #532, #595, #593, #536, #529, #331, #725 ),
 .UNSPECIFIED., .F., .F.,
 ( 4, 2, 2, 2, 2, 2, 2, 2, 4 ),
 ( 3.379126506159063230E-20, 0.0003914904498596255512, 0.0007829808997192509940, 0.001174471349578876545, 0.001565961799438501988, 0.001957452249298127431, 0.002348942699157753090, 0.002740433149017378316, 0.003131923598877003976 ),
 .UNSPECIFIED. ) ;
#615 = LINE ( 'NONE', #296, #747 ) ;
#616 = CARTESIAN_POINT ( 'NONE',  ( 4.000000000000000888, 0.1308039184816920386, 7.000000000000002665 ) ) ;
#617 = ORIENTED_EDGE ( 'NONE', *, *, #143, .F. ) ;
#618 = CARTESIAN_POINT ( 'NONE',  ( 5.920636045238165224, -0.9739805876847945632, -6.261713868144226147 ) ) ;
#619 = CARTESIAN_POINT ( 'NONE',  ( -10.00000000000000000, 0.000000000000000000, -6.000000000000000000 ) ) ;
#620 = ORIENTED_EDGE ( 'NONE', *, *, #373, .F. ) ;
#621 = CARTESIAN_POINT ( 'NONE',  ( 5.916071405810141570, -1.000049560716555153, 6.130322009884675794 ) ) ;
#622 = DIRECTION ( 'NONE',  ( 0.000000000000000000, 0.000000000000000000, -1.000000000000000000 ) ) ;
#623 = CARTESIAN_POINT ( 'NONE',  ( 3.872993992554538245, 0.9999587668730113288, 6.132229819360587086 ) ) ;
#624 = ORIENTED_EDGE ( 'NONE', *, *, #699, .F. ) ;
#625 = ADVANCED_FACE ( 'NONE', ( #715 ), #592, .T. ) ;
#626 = CARTESIAN_POINT ( 'NONE',  ( 4.000000000000000000, -0.1327117393334319995, 4.999999999999999112 ) ) ;
#627 = AXIS2_PLACEMENT_3D ( 'NONE', #641, #716, #204 ) ;
#628 = ADVANCED_BREP_SHAPE_REPRESENTATION ( 'Coupling_Default_sldprt', ( #381, #210 ), #167 ) ;
#629 = ORIENTED_EDGE ( 'NONE', *, *, #335, .F. ) ;
#630 = CARTESIAN_POINT ( 'NONE',  ( -3.993212196359559929, 0.2626148844800768045, -6.973714197286692951 ) ) ;
#631 = CARTESIAN_POINT ( 'NONE',  ( -5.936248257219507884, -0.8737888311110058037, 6.503441851412168795 ) ) ;
#632 = CARTESIAN_POINT ( 'NONE',  ( -3.903788882833201246, -0.8735372258408632407, 6.503866167886741323 ) ) ;
#633 = ORIENTED_EDGE ( 'NONE', *, *, #38, .T. ) ;
#634 = B_SPLINE_CURVE_WITH_KNOTS ( 'NONE', 3,
 ( #543, #70, #212, #353, #694, #498, #781, #467, #65, #191, #125, #163, #277, #288, #354, #693, #342, #168 ),
 .UNSPECIFIED., .F., .F.,
 ( 4, 2, 2, 2, 2, 2, 2, 2, 4 ),
 ( 0.003138948259726314152, 0.003531211055919537475, 0.003923473852112760799, 0.004315736648305984122, 0.004707999444499207445, 0.005100262240692430768, 0.005492525036885653224, 0.005884787833078876547, 0.006277050629272099870 ),
 .UNSPECIFIED. ) ;
#635 = CARTESIAN_POINT ( 'NONE',  ( -3.969965223322160952, 0.5040697851665454365, -6.873498464354864446 ) ) ;
#636 = AXIS2_PLACEMENT_3D ( 'NONE', #428, #291, #555 ) ;
#637 = EDGE_CURVE ( 'NONE', #804, #496, #410, .T. ) ;
#638 = APPROVAL_DATE_TIME ( #567, #274 ) ;
#639 = ORIENTED_EDGE ( 'NONE', *, *, #258, .F. ) ;
#640 = CARTESIAN_POINT ( 'NONE',  ( -5.995491482261826377, 0.2622916576876613837, -5.026150573531862342 ) ) ;
#641 = CARTESIAN_POINT ( 'NONE',  ( 0.000000000000000000, 0.000000000000000000, 10.00000000000000000 ) ) ;
#642 = ORIENTED_EDGE ( 'NONE', *, *, #29, .F. ) ;
#643 = AXIS2_PLACEMENT_3D ( 'NONE', #91, #336, #594 ) ;
#644 = CC_DESIGN_APPROVAL ( #274, ( #433 ) ) ;
#645 = CARTESIAN_POINT ( 'NONE',  ( -5.969238533166610239, 0.6139908388540981088, -6.800223720879874811 ) ) ;
#646 = CARTESIAN_POINT ( 'NONE',  ( -10.00000000000000000, 0.000000000000000000, -6.000000000000000000 ) ) ;
#647 = EDGE_CURVE ( 'NONE', #57, #205, #202, .T. ) ;
#648 = CARTESIAN_POINT ( 'NONE',  ( -3.993212196359559929, -0.2626148844800768045, 5.026285802713307937 ) ) ;
#649 = ORIENTED_EDGE ( 'NONE', *, *, #54, .T. ) ;
#650 = CARTESIAN_POINT ( 'NONE',  ( -3.903788882833201246, 0.8735372258408632407, -5.496133832113258677 ) ) ;
#651 = CARTESIAN_POINT ( 'NONE',  ( -5.947240459526507372, -0.7993282387951125001, 6.614843582169574354 ) ) ;
#652 = VERTEX_POINT ( 'NONE', #465 ) ;
#653 = LINE ( 'NONE', #722, #243 ) ;
#654 = CARTESIAN_POINT ( 'NONE',  ( 3.969858145330398269, -0.5048232406146760942, -6.873012691393491913 ) ) ;
#655 = CARTESIAN_POINT ( 'NONE',  ( 4.000000000000000000, 4.898587196589412829E-16, 10.00000000000000000 ) ) ;
#656 = CARTESIAN_POINT ( 'NONE',  ( -3.879973766560979254, 0.9739130422342942017, 5.737614112020435364 ) ) ;
#657 = CARTESIAN_POINT ( 'NONE',  ( -5.936246475285031465, 0.8738118504725681523, 6.503572421742431331 ) ) ;
#658 = AXIS2_PLACEMENT_3D ( 'NONE', #454, #81, #385 ) ;
#659 = CARTESIAN_POINT ( 'NONE',  ( -3.880024974703066398, 0.9736797867424589192, 6.262677314775329407 ) ) ;
#660 = CARTESIAN_POINT ( 'NONE',  ( -5.979983180450074265, -0.5042987395407719786, -5.126706958200230702 ) ) ;
#661 = DIRECTION ( 'NONE',  ( 1.000000000000000000, -0.000000000000000000, -0.000000000000000000 ) ) ;
#662 = CARTESIAN_POINT ( 'NONE',  ( 5.936362132114462398, 0.8730424326980930072, 6.504993097814365299 ) ) ;
#663 = CARTESIAN_POINT ( 'NONE',  ( -6.000000000000000000, 0.1323602877612180262, 7.000000000000002665 ) ) ;
#664 = CARTESIAN_POINT ( 'NONE',  ( 5.979983180450074265, 0.5042987395407718676, 5.126706958200229813 ) ) ;
#665 = CARTESIAN_POINT ( 'NONE',  ( 3.903862007818517998, 0.8732369880725072697, -5.495287998594875489 ) ) ;
#666 = DIRECTION ( 'NONE',  ( -0.000000000000000000, -0.000000000000000000, -1.000000000000000000 ) ) ;
#667 = CARTESIAN_POINT ( 'NONE',  ( -5.920620690450686396, -0.9740807849836145005, 5.738501197006691257 ) ) ;
#668 = VECTOR ( 'NONE', #108, 1000.000000000000000 ) ;
#669 = CARTESIAN_POINT ( 'NONE',  ( 5.947240459526508261, -0.7993282387951125001, 5.385156417830424758 ) ) ;
#670 = CARTESIAN_POINT ( 'NONE',  ( 3.969869395575870819, 0.5048887612555237325, -6.873073509008152726 ) ) ;
#671 = EDGE_CURVE ( 'NONE', #652, #78, #344, .T. ) ;
#672 = DATE_TIME_ROLE ( 'creation_date' ) ;
#673 = CARTESIAN_POINT ( 'NONE',  ( -4.000000000000000000, -4.134078698859513570E-18, 7.000000000000001776 ) ) ;
#674 = EDGE_CURVE ( 'NONE', #780, #652, #531, .T. ) ;
#675 = CARTESIAN_POINT ( 'NONE',  ( 5.999999999999999112, 0.1306171417088619058, 7.000000000000000000 ) ) ;
#676 = DIRECTION ( 'NONE',  ( 1.000000000000000000, -0.000000000000000000, -0.000000000000000000 ) ) ;
#677 = CALENDAR_DATE ( 2026, 29, 8 ) ;
#678 = FACE_OUTER_BOUND ( 'NONE', #749, .T. ) ;
#679 = ORIENTED_EDGE ( 'NONE', *, *, #145, .F. ) ;
#680 = CARTESIAN_POINT ( 'NONE',  ( -4.000000000000000888, 0.1326759759031826968, 7.000000000000001776 ) ) ;
#681 = CARTESIAN_POINT ( 'NONE',  ( 3.993101993507432557, 0.2641148760630697701, 5.026736933896597925 ) ) ;
#682 = ORIENTED_EDGE ( 'NONE', *, *, #373, .T. ) ;
#683 = LOCAL_TIME ( 18, 31, 27.00000000000000000, #236 ) ;
#684 = DIRECTION ( 'NONE',  ( 1.000000000000000000, 0.000000000000000000, 0.000000000000000000 ) ) ;
#685 = COORDINATED_UNIVERSAL_TIME_OFFSET ( 5, 30, .AHEAD. ) ;
#686 = CARTESIAN_POINT ( 'NONE',  ( 5.999999999999999112, 7.347880794884118750E-16, -10.00000000000000000 ) ) ;
#687 = ORIENTED_EDGE ( 'NONE', *, *, #500, .T. ) ;
#688 = AXIS2_PLACEMENT_3D ( 'NONE', #689, #436, #622 ) ;
#689 = CARTESIAN_POINT ( 'NONE',  ( -10.00000000000000000, 0.000000000000000000, 6.000000000000000000 ) ) ;
#690 = COORDINATED_UNIVERSAL_TIME_OFFSET ( 5, 30, .AHEAD. ) ;
#691 = CYLINDRICAL_SURFACE ( 'NONE', #786, 1.000000000000001776 ) ;
#692 = ORIENTED_EDGE ( 'NONE', *, *, #752, .T. ) ;
#693 = CARTESIAN_POINT ( 'NONE',  ( -3.993101993507430780, -0.2641148760630696590, -5.026736933896597037 ) ) ;
#694 = CARTESIAN_POINT ( 'NONE',  ( -3.953614380922479743, -0.6145853434051685715, -6.799553862224012590 ) ) ;
#695 = ORIENTED_EDGE ( 'NONE', *, *, #523, .T. ) ;
#696 = CARTESIAN_POINT ( 'NONE',  ( -5.920620690450686396, 0.9740807849836145005, -6.261498802993309631 ) ) ;
#697 = ORIENTED_EDGE ( 'NONE', *, *, #77, .F. ) ;
#698 = DIRECTION ( 'NONE',  ( -1.000000000000000000, 0.000000000000000000, 0.000000000000000000 ) ) ;
#699 = EDGE_CURVE ( 'NONE', #518, #196, #782, .T. ) ;
#700 = ORIENTED_EDGE ( 'NONE', *, *, #172, .F. ) ;
#701 = CARTESIAN_POINT ( 'NONE',  ( -3.953670644936868150, 0.6142897454956635084, -6.799883658869955383 ) ) ;
#702 = B_SPLINE_CURVE_WITH_KNOTS ( 'NONE', 3,
 ( #31, #414, #770, #214, #36, #779, #218, #475, #466, #718, #95, #280, #471, #154, #276, #774, #402, #407 ),
 .UNSPECIFIED., .F., .F.,
 ( 4, 2, 2, 2, 2, 2, 2, 2, 4 ),
 ( 3.379126506159063230E-20, 0.0003914904498596254970, 0.0007829808997192508856, 0.001174471349578876328, 0.001565961799438501771, 0.001957452249298127431, 0.002348942699157752657, 0.002740433149017377883, 0.003131923598877003542 ),
 .UNSPECIFIED. ) ;
#703 = EDGE_LOOP ( 'NONE', ( #679, #617, #144, #215 ) ) ;
#704 = CARTESIAN_POINT ( 'NONE',  ( -5.916071405810141570, 1.000049560716555597, -6.130322009884676682 ) ) ;
#705 = EDGE_CURVE ( 'NONE', #804, #613, #474, .T. ) ;
#706 = DIRECTION ( 'NONE',  ( 1.000000000000000000, -0.000000000000000000, -0.000000000000000000 ) ) ;
#707 = VECTOR ( 'NONE', #206, 1000.000000000000000 ) ;
#708 = DIRECTION ( 'NONE',  ( 1.000000000000000000, 0.000000000000000000, 0.000000000000000000 ) ) ;
#709 = CARTESIAN_POINT ( 'NONE',  ( -5.995491482261826377, -0.2622916576876613837, 6.973849426468137658 ) ) ;
#710 = VECTOR ( 'NONE', #545, 1000.000000000000000 ) ;
#711 = EDGE_LOOP ( 'NONE', ( #105, #189, #452, #692, #67, #3, #352, #434, #460, #116, #177, #700 ) ) ;
#712 = CARTESIAN_POINT ( 'NONE',  ( -5.920671847850514702, -0.9737778612005489887, -6.262636241153495043 ) ) ;
#713 = LINE ( 'NONE', #398, #388 ) ;
#714 = DIRECTION ( 'NONE',  ( -0.000000000000000000, -0.000000000000000000, -1.000000000000000000 ) ) ;
#715 = FACE_OUTER_BOUND ( 'NONE', #565, .T. ) ;
#716 = DIRECTION ( 'NONE',  ( 0.000000000000000000, 0.000000000000000000, 1.000000000000000000 ) ) ;
#717 = CARTESIAN_POINT ( 'NONE',  ( -5.916066267613697249, 1.000079958708139038, 6.131527388820342317 ) ) ;
#718 = CARTESIAN_POINT ( 'NONE',  ( 5.916071405810141570, 1.000049560716555597, -5.869677990115323318 ) ) ;
#719 = CC_DESIGN_PERSON_AND_ORGANIZATION_ASSIGNMENT ( #114, #427, ( #599 ) ) ;
#720 = CARTESIAN_POINT ( 'NONE',  ( 3.879948393309026855, -0.9740030178010133932, 6.261906783063801996 ) ) ;
#721 = AXIS2_PLACEMENT_3D ( 'NONE', #740, #676, #416 ) ;
#722 = CARTESIAN_POINT ( 'NONE',  ( -10.00000000000000000, 1.224646799147355179E-16, 7.000000000000001776 ) ) ;
#723 = CARTESIAN_POINT ( 'NONE',  ( 4.000000000000000888, -0.1308391772901010275, 7.000000000000002665 ) ) ;
#724 = DIRECTION ( 'NONE',  ( -0.000000000000000000, -0.000000000000000000, -1.000000000000000000 ) ) ;
#725 = CARTESIAN_POINT ( 'NONE',  ( -5.999999999999999112, 4.472210243878960127E-23, 4.999999999999998224 ) ) ;
#726 = CARTESIAN_POINT ( 'NONE',  ( 5.969096820685153126, -0.6152055445546379397, 5.200950313297326488 ) ) ;
#727 = EDGE_CURVE ( 'NONE', #196, #526, #653, .T. ) ;
#728 = CARTESIAN_POINT ( 'NONE',  ( 3.999999999999999112, 0.1327117393334320550, -7.000000000000000888 ) ) ;
#729 = PRODUCT_RELATED_PRODUCT_CATEGORY ( 'detail', '', ( #459 ) ) ;
#730 = CARTESIAN_POINT ( 'NONE',  ( -3.903976002541358792, 0.8727396029839832314, 5.494353331437611843 ) ) ;
#731 = UNCERTAINTY_MEASURE_WITH_UNIT (LENGTH_MEASURE( 1.000000000000000082E-05 ), #494, 'distance_accuracy_value', 'NONE');
#732 = APPROVAL_PERSON_ORGANIZATION ( #109, #572, #802 ) ;
#733 = CARTESIAN_POINT ( 'NONE',  ( 4.000000000000000000, -4.134078698859513570E-18, 4.999999999999998224 ) ) ;
#734 = DIRECTION ( 'NONE',  ( 1.000000000000000000, -0.000000000000000000, -0.000000000000000000 ) ) ;
#735 = CARTESIAN_POINT ( 'NONE',  ( 3.903788882833201246, 0.8735372258408633517, -6.503866167886741323 ) ) ;
#736 = CYLINDRICAL_SURFACE ( 'NONE', #574, 4.000000000000000000 ) ;
#737 = CARTESIAN_POINT ( 'NONE',  ( -4.000000000000000000, -9.891274455076596304E-22, -7.000000000000001776 ) ) ;
#738 = CARTESIAN_POINT ( 'NONE',  ( 3.903780981627170910, 0.8735789483019650303, 5.496103661561181575 ) ) ;
#739 = VERTEX_POINT ( 'NONE', #157 ) ;
#740 = CARTESIAN_POINT ( 'NONE',  ( -10.00000000000000000, 0.000000000000000000, 6.000000000000000000 ) ) ;
#741 = CARTESIAN_POINT ( 'NONE',  ( 4.000000000000000888, -0.1326759759031827524, -7.000000000000001776 ) ) ;
#742 = ORIENTED_EDGE ( 'NONE', *, *, #145, .T. ) ;
#743 = CARTESIAN_POINT ( 'NONE',  ( 5.995407492418038942, -0.2638277032948923018, -6.973320552815179596 ) ) ;
#744 = DIRECTION ( 'NONE',  ( 1.000000000000000000, -0.000000000000000000, -0.000000000000000000 ) ) ;
#745 = ORIENTED_EDGE ( 'NONE', *, *, #9, .F. ) ;
#746 = CARTESIAN_POINT ( 'NONE',  ( 5.995472630654517410, 0.2624013748573175708, 6.973714403089177338 ) ) ;
#747 = VECTOR ( 'NONE', #43, 1000.000000000000000 ) ;
#748 = B_SPLINE_CURVE_WITH_KNOTS ( 'NONE', 3,
 ( #673, #171, #795, #423, #508, #512, #632, #17, #578, #517, #564, #207, #71, #455, #199, #648, #305, #193 ),
 .UNSPECIFIED., .F., .F.,
 ( 4, 2, 2, 2, 2, 2, 2, 2, 4 ),
 ( 4.015188034936748514E-21, 0.0003923685324657892690, 0.0007847370649315785381, 0.001177105597397367807, 0.001569474129863157076, 0.001961842662328946128, 0.002354211194794735614, 0.002746579727260525100, 0.003138948259726314152 ),
 .UNSPECIFIED. ) ;
#749 = EDGE_LOOP ( 'NONE', ( #18, #561, #808, #314 ) ) ;
#750 = CARTESIAN_POINT ( 'NONE',  ( 5.999999999999999112, 7.347881242104880842E-16, 7.000000000000001776 ) ) ;
#751 = ADVANCED_FACE ( 'NONE', ( #406 ), #165, .F. ) ;
#752 = EDGE_CURVE ( 'NONE', #573, #329, #103, .T. ) ;
#753 = ORIENTED_EDGE ( 'NONE', *, *, #142, .T. ) ;
#754 = FACE_OUTER_BOUND ( 'NONE', #568, .T. ) ;
#755 = AXIS2_PLACEMENT_3D ( 'NONE', #375, #209, #708 ) ;
#756 = PERSON_AND_ORGANIZATION ( #785, #76 ) ;
#757 = EDGE_LOOP ( 'NONE', ( #687, #418, #10, #302 ) ) ;
#758 = CARTESIAN_POINT ( 'NONE',  ( -3.903862007818517998, 0.8732369880725072697, -6.504712001405124511 ) ) ;
#759 = APPROVAL_STATUS ( 'not_yet_approved' ) ;
#760 = ORIENTED_EDGE ( 'NONE', *, *, #699, .T. ) ;
#761 = CARTESIAN_POINT ( 'NONE',  ( 6.000000000000000888, -0.1306497350717323869, 7.000000000000002665 ) ) ;
#762 = FACE_BOUND ( 'NONE', #200, .T. ) ;
#763 = CALENDAR_DATE ( 2026, 29, 8 ) ;
#764 = ORIENTED_EDGE ( 'NONE', *, *, #674, .T. ) ;
#765 = LINE ( 'NONE', #311, #468 ) ;
#766 = B_SPLINE_CURVE_WITH_KNOTS ( 'NONE', 3,
 ( #83, #201, #640, #75, #575, #451, #140, #257, #453, #704, #696, #137, #383, #645, #79, #580, #68, #19 ),
 .UNSPECIFIED., .F., .F.,
 ( 4, 2, 2, 2, 2, 2, 2, 2, 4 ),
 ( 3.379126506159063230E-20, 0.0003914904498596255512, 0.0007829808997192509940, 0.001174471349578876545, 0.001565961799438501988, 0.001957452249298127431, 0.002348942699157753090, 0.002740433149017378316, 0.003131923598877003976 ),
 .UNSPECIFIED. ) ;
#767 = CARTESIAN_POINT ( 'NONE',  ( 0.000000000000000000, 0.000000000000000000, -10.00000000000000000 ) ) ;
#768 = VECTOR ( 'NONE', #63, 1000.000000000000000 ) ;
#769 = CARTESIAN_POINT ( 'NONE',  ( -10.00000000000000000, 0.000000000000000000, 4.999999999999998224 ) ) ;
#770 = CARTESIAN_POINT ( 'NONE',  ( 5.995491482261826377, 0.2622916576876613282, -6.973849426468137658 ) ) ;
#771 = CARTESIAN_POINT ( 'NONE',  ( -3.993186561566759440, 0.2628729541220258259, 5.026396860804724476 ) ) ;
#772 = ORIENTED_EDGE ( 'NONE', *, *, #172, .T. ) ;
#773 = CARTESIAN_POINT ( 'NONE',  ( -5.969051238897253420, -0.6156307853269497032, -5.201294265893190882 ) ) ;
#774 = CARTESIAN_POINT ( 'NONE',  ( 5.995505046955614148, 0.2619456584322036319, -5.026071939286478774 ) ) ;
#775 = CARTESIAN_POINT ( 'NONE',  ( 5.999999999999999112, -0.1306171417088606013, -4.999999999999999112 ) ) ;
#776 = B_SPLINE_CURVE_WITH_KNOTS ( 'NONE', 3,
 ( #783, #790, #589, #394, #147, #223, #464, #158, #28, #340, #151, #601, #40, #99, #654, #87, #741, #542 ),
 .UNSPECIFIED., .F., .F.,
 ( 4, 2, 2, 2, 2, 2, 2, 2, 4 ),
 ( 0.003138948259726313719, 0.003531211055919537042, 0.003923473852112759931, 0.004315736648305983254, 0.004707999444499206577, 0.005100262240692429901, 0.005492525036885653224, 0.005884787833078876547, 0.006277050629272099870 ),
 .UNSPECIFIED. ) ;
#777 = CC_DESIGN_DATE_AND_TIME_ASSIGNMENT ( #422, #672, ( #599 ) ) ;
#778 = CARTESIAN_POINT ( 'NONE',  ( -5.936246475285031465, -0.8738118504725681523, -5.496427578257569557 ) ) ;
#779 = CARTESIAN_POINT ( 'NONE',  ( 5.947240459526507372, 0.7993282387951127221, -6.614843582169574354 ) ) ;
#780 = VERTEX_POINT ( 'NONE', #737 ) ;
#781 = CARTESIAN_POINT ( 'NONE',  ( -3.903976002541358792, -0.8727396029839832314, -6.505646668562387269 ) ) ;
#782 = LINE ( 'NONE', #225, #66 ) ;
#783 = CARTESIAN_POINT ( 'NONE',  ( 4.000000000000000000, 4.898577305309523487E-16, -4.999999999999998224 ) ) ;
#784 = CIRCLE ( 'NONE', #800, 4.000000000000000000 ) ;
#785 = PERSON ( 'UNSPECIFIED', 'UNSPECIFIED', 'UNSPECIFIED', ('UNSPECIFIED'), ('UNSPECIFIED'), ('UNSPECIFIED') ) ;
#786 = AXIS2_PLACEMENT_3D ( 'NONE', #368, #2, #241 ) ;
#787 = CARTESIAN_POINT ( 'NONE',  ( 5.920636045238165224, 0.9739805876847941191, 5.738286131855773853 ) ) ;
#788 = VECTOR ( 'NONE', #32, 1000.000000000000000 ) ;
#789 = CARTESIAN_POINT ( 'NONE',  ( -4.000000000000000000, 0.000000000000000000, 10.00000000000000000 ) ) ;
#790 = CARTESIAN_POINT ( 'NONE',  ( 4.000000000000000888, -0.1308039184816911782, -4.999999999999996447 ) ) ;
#791 = EDGE_CURVE ( 'NONE', #205, #60, #301, .T. ) ;
#792 = CARTESIAN_POINT ( 'NONE',  ( 5.995491482261827265, -0.2622916576876613282, 5.026150573531864119 ) ) ;
#793 = CARTESIAN_POINT ( 'NONE',  ( -5.999999999999999112, -0.1323933160975633294, 7.000000000000000888 ) ) ;
#794 = DIRECTION ( 'NONE',  ( -0.000000000000000000, -0.000000000000000000, -1.000000000000000000 ) ) ;
#795 = CARTESIAN_POINT ( 'NONE',  ( -3.993201599367474763, -0.2629004868407572859, 6.973680310673294080 ) ) ;
#796 = CARTESIAN_POINT ( 'NONE',  ( 3.920392233738140941, -0.7996175296367102892, 6.614636124423223684 ) ) ;
#797 = FACE_OUTER_BOUND ( 'NONE', #757, .T. ) ;
#798 = DIRECTION ( 'NONE',  ( -0.000000000000000000, -0.000000000000000000, -1.000000000000000000 ) ) ;
#799 = ORIENTED_EDGE ( 'NONE', *, *, #584, .T. ) ;
#800 = AXIS2_PLACEMENT_3D ( 'NONE', #11, #251, #506 ) ;
#801 = B_SPLINE_CURVE_WITH_KNOTS ( 'NONE', 3,
 ( #404, #675, #746, #348, #605, #4, #662, #93, #596, #96, #787, #224, #473, #228, #664, #602, #160, #226 ),
 .UNSPECIFIED., .F., .F.,
 ( 4, 2, 2, 2, 2, 2, 2, 2, 4 ),
 ( 0.003131923598877004843, 0.003523316383094322619, 0.003914709167311639960, 0.004306101951528957736, 0.004697494735746275511, 0.005088887519963593287, 0.005480280304180910195, 0.005871673088398227970, 0.006263065872615545746 ),
 .UNSPECIFIED. ) ;
#802 = APPROVAL_ROLE ( '' ) ;
#803 = CARTESIAN_POINT ( 'NONE',  ( 3.880024974703066398, 0.9736797867424588082, 5.737322685224671481 ) ) ;
#804 = VERTEX_POINT ( 'NONE', #175 ) ;
#805 = CARTESIAN_POINT ( 'NONE',  ( 4.000000000000000000, 4.898587196589412829E-16, -10.00000000000000000 ) ) ;
#806 = APPROVAL_DATE_TIME ( #346, #524 ) ;
#807 = CARTESIAN_POINT ( 'NONE',  ( 3.969858145330399157, 0.5048232406146755391, 5.126987308606507199 ) ) ;
#808 = ORIENTED_EDGE ( 'NONE', *, *, #705, .T. ) ;
#809 = CARTESIAN_POINT ( 'NONE',  ( 3.969965223322160952, 0.5040697851665462137, -5.126501535645138219 ) ) ;
ENDSEC;
END-ISO-10303-21;
