ISO-10303-21;
HEADER;
FILE_DESCRIPTION (( 'STEP AP203' ),
    '1' );
FILE_NAME ('GripperFlatSurface_Default_sldprt.STEP',
    '2026-08-29T13:01:28',
    ( '' ),
    ( '' ),
    'SwSTEP 2.0',
    'SolidWorks 2020',
    '' );
FILE_SCHEMA (( 'CONFIG_CONTROL_DESIGN' ));
ENDSEC;

DATA;
#1 = ORIENTED_EDGE ( 'NONE', *, *, #380, .F. ) ;
#2 = ORIENTED_EDGE ( 'NONE', *, *, #351, .F. ) ;
#3 = CC_DESIGN_PERSON_AND_ORGANIZATION_ASSIGNMENT ( #286, #108, ( #180 ) ) ;
#4 = FACE_OUTER_BOUND ( 'NONE', #234, .T. ) ;
#5 = CIRCLE ( 'NONE', #338, 1.500000000000001332 ) ;
#6 = CARTESIAN_POINT ( 'NONE',  ( 25.99999999999999289, 0.000000000000000000, 0.000000000000000000 ) ) ;
#7 = CARTESIAN_POINT ( 'NONE',  ( -26.00000000000000355, 1.836970198721030674E-16, 2.001000000000000334 ) ) ;
#8 = DIRECTION ( 'NONE',  ( 1.000000000000000000, 0.000000000000000000, 0.000000000000000000 ) ) ;
#9 = CIRCLE ( 'NONE', #63, 1.500000000000001332 ) ;
#10 = LINE ( 'NONE', #72, #126 ) ;
#11 = FACE_OUTER_BOUND ( 'NONE', #218, .T. ) ;
#12 = DIRECTION ( 'NONE',  ( -1.000000000000000000, 0.000000000000000000, 0.000000000000000000 ) ) ;
#13 = APPROVAL_STATUS ( 'not_yet_approved' ) ;
#14 = AXIS2_PLACEMENT_3D ( 'NONE', #41, #250, #40 ) ;
#15 = LOCAL_TIME ( 18, 31, 28.00000000000000000, #290 ) ;
#16 = APPROVAL_ROLE ( '' ) ;
#17 = VERTEX_POINT ( 'NONE', #247 ) ;
#18 = CALENDAR_DATE ( 2026, 29, 8 ) ;
#19 = ORIENTED_EDGE ( 'NONE', *, *, #91, .T. ) ;
#20 = ADVANCED_FACE ( 'NONE', ( #98 ), #360, .F. ) ;
#21 = ADVANCED_FACE ( 'NONE', ( #123 ), #244, .F. ) ;
#22 = DATE_AND_TIME ( #18, #329 ) ;
#23 = ORIENTED_EDGE ( 'NONE', *, *, #367, .F. ) ;
#24 = AXIS2_PLACEMENT_3D ( 'NONE', #270, #384, #354 ) ;
#25 = LINE ( 'NONE', #83, #54 ) ;
#26 = VECTOR ( 'NONE', #84, 1000.000000000000000 ) ;
#27 =( LENGTH_UNIT ( ) NAMED_UNIT ( * ) SI_UNIT ( .MILLI., .METRE. ) );
#28 = ORIENTED_EDGE ( 'NONE', *, *, #92, .T. ) ;
#29 = ORIENTED_EDGE ( 'NONE', *, *, #289, .F. ) ;
#30 = CC_DESIGN_SECURITY_CLASSIFICATION ( #276, ( #95 ) ) ;
#31 = FACE_OUTER_BOUND ( 'NONE', #239, .T. ) ;
#32 = VERTEX_POINT ( 'NONE', #62 ) ;
#33 = CARTESIAN_POINT ( 'NONE',  ( -30.00000000000000711, 20.00000000000000000, 0.000000000000000000 ) ) ;
#34 =( NAMED_UNIT ( * ) SI_UNIT ( $, .STERADIAN. ) SOLID_ANGLE_UNIT ( ) );
#35 = CC_DESIGN_PERSON_AND_ORGANIZATION_ASSIGNMENT ( #52, #345, ( #322 ) ) ;
#36 = ORIENTED_EDGE ( 'NONE', *, *, #71, .F. ) ;
#37 = LINE ( 'NONE', #155, #375 ) ;
#38 = CARTESIAN_POINT ( 'NONE',  ( 0.000000000000000000, 0.000000000000000000, 0.000000000000000000 ) ) ;
#39 = AXIS2_PLACEMENT_3D ( 'NONE', #355, #326, #61 ) ;
#40 = DIRECTION ( 'NONE',  ( 1.000000000000000000, 0.000000000000000000, 0.000000000000000000 ) ) ;
#41 = CARTESIAN_POINT ( 'NONE',  ( 27.49999999999999289, 0.000000000000000000, 2.000000000000000000 ) ) ;
#42 = MANIFOLD_SOLID_BREP ( 'Cut-Extrude1', #342 ) ;
#43 = CARTESIAN_POINT ( 'NONE',  ( 28.99999999999999289, 1.836970198721029934E-16, 0.000000000000000000 ) ) ;
#44 = AXIS2_PLACEMENT_3D ( 'NONE', #58, #299, #93 ) ;
#45 = PLANE ( 'NONE',  #181 ) ;
#46 = CARTESIAN_POINT ( 'NONE',  ( 0.000000000000000000, 0.000000000000000000, 0.000000000000000000 ) ) ;
#47 = DATE_AND_TIME ( #230, #15 ) ;
#48 = CARTESIAN_POINT ( 'NONE',  ( 29.99999999999999289, 20.00000000000000000, 0.000000000000000000 ) ) ;
#49 = APPROVAL_PERSON_ORGANIZATION ( #78, #105, #16 ) ;
#50 = SECURITY_CLASSIFICATION_LEVEL ( 'unclassified' ) ;
#51 = VERTEX_POINT ( 'NONE', #182 ) ;
#52 = PERSON_AND_ORGANIZATION ( #216, #166 ) ;
#53 = EDGE_CURVE ( 'NONE', #17, #51, #37, .T. ) ;
#54 = VECTOR ( 'NONE', #323, 1000.000000000000000 ) ;
#55 = VERTEX_POINT ( 'NONE', #6 ) ;
#56 = CYLINDRICAL_SURFACE ( 'NONE', #73, 1.500000000000001332 ) ;
#57 = ORIENTED_EDGE ( 'NONE', *, *, #316, .T. ) ;
#58 = CARTESIAN_POINT ( 'NONE',  ( -30.00000000000000355, -20.00000000000000000, 2.000000000000000000 ) ) ;
#59 = VERTEX_POINT ( 'NONE', #104 ) ;
#60 = EDGE_CURVE ( 'NONE', #59, #325, #10, .T. ) ;
#61 = DIRECTION ( 'NONE',  ( 0.000000000000000000, -0.000000000000000000, -1.000000000000000000 ) ) ;
#62 = CARTESIAN_POINT ( 'NONE',  ( -30.00000000000000711, 20.00000000000000000, 2.000000000000000000 ) ) ;
#63 = AXIS2_PLACEMENT_3D ( 'NONE', #170, #206, #149 ) ;
#64 = EDGE_LOOP ( 'NONE', ( #246, #291, #88, #262 ) ) ;
#65 = VERTEX_POINT ( 'NONE', #163 ) ;
#66 = LINE ( 'NONE', #223, #178 ) ;
#67 = VECTOR ( 'NONE', #210, 1000.000000000000000 ) ;
#68 = DIRECTION ( 'NONE',  ( 1.000000000000000000, 0.000000000000000000, 0.000000000000000000 ) ) ;
#69 = DIRECTION ( 'NONE',  ( -8.673617379884035472E-17, 1.000000000000000000, -0.000000000000000000 ) ) ;
#70 = CARTESIAN_POINT ( 'NONE',  ( -27.50000000000000355, 0.000000000000000000, 2.000000000000000000 ) ) ;
#71 = EDGE_CURVE ( 'NONE', #165, #167, #66, .T. ) ;
#72 = CARTESIAN_POINT ( 'NONE',  ( -30.00000000000000355, -20.00000000000000000, 2.000000000000000000 ) ) ;
#73 = AXIS2_PLACEMENT_3D ( 'NONE', #353, #238, #302 ) ;
#74 = FACE_OUTER_BOUND ( 'NONE', #356, .T. ) ;
#75 = CALENDAR_DATE ( 2026, 29, 8 ) ;
#76 = LINE ( 'NONE', #229, #194 ) ;
#77 = COORDINATED_UNIVERSAL_TIME_OFFSET ( 5, 30, .AHEAD. ) ;
#78 = PERSON_AND_ORGANIZATION ( #216, #166 ) ;
#79 = DATE_AND_TIME ( #164, #150 ) ;
#80 = UNCERTAINTY_MEASURE_WITH_UNIT (LENGTH_MEASURE( 1.000000000000000082E-05 ), #27, 'distance_accuracy_value', 'NONE');
#81 = ORIENTED_EDGE ( 'NONE', *, *, #367, .T. ) ;
#82 = EDGE_CURVE ( 'NONE', #374, #215, #372, .T. ) ;
#83 = CARTESIAN_POINT ( 'NONE',  ( 25.99999999999999289, 0.000000000000000000, 2.001000000000000334 ) ) ;
#84 = DIRECTION ( 'NONE',  ( -8.673617379884035472E-17, 1.000000000000000000, -0.000000000000000000 ) ) ;
#85 = APPROVAL_PERSON_ORGANIZATION ( #314, #336, #236 ) ;
#86 = ORIENTED_EDGE ( 'NONE', *, *, #117, .T. ) ;
#87 = LINE ( 'NONE', #208, #67 ) ;
#88 = ORIENTED_EDGE ( 'NONE', *, *, #316, .F. ) ;
#89 = LINE ( 'NONE', #241, #222 ) ;
#90 = ORIENTED_EDGE ( 'NONE', *, *, #201, .T. ) ;
#91 = EDGE_CURVE ( 'NONE', #51, #231, #122, .T. ) ;
#92 = EDGE_CURVE ( 'NONE', #148, #55, #251, .T. ) ;
#93 = DIRECTION ( 'NONE',  ( 0.000000000000000000, -0.000000000000000000, 1.000000000000000000 ) ) ;
#94 = CARTESIAN_POINT ( 'NONE',  ( -30.00000000000000711, 20.00000000000000000, 2.000000000000000000 ) ) ;
#95 = PRODUCT_DEFINITION_FORMATION_WITH_SPECIFIED_SOURCE ( 'ANY', '', #180, .NOT_KNOWN. ) ;
#96 = EDGE_LOOP ( 'NONE', ( #90, #274 ) ) ;
#97 = PLANE ( 'NONE',  #44 ) ;
#98 = FACE_OUTER_BOUND ( 'NONE', #344, .T. ) ;
#99 = DIRECTION ( 'NONE',  ( 0.000000000000000000, 0.000000000000000000, 1.000000000000000000 ) ) ;
#100 = DIRECTION ( 'NONE',  ( 0.000000000000000000, -0.000000000000000000, -1.000000000000000000 ) ) ;
#101 = CC_DESIGN_APPROVAL ( #105, ( #95 ) ) ;
#102 = CARTESIAN_POINT ( 'NONE',  ( 27.49999999999999289, 0.000000000000000000, 2.000000000000000000 ) ) ;
#103 = EDGE_CURVE ( 'NONE', #59, #141, #225, .T. ) ;
#104 = CARTESIAN_POINT ( 'NONE',  ( -30.00000000000000355, -20.00000000000000000, 2.000000000000000000 ) ) ;
#105 = APPROVAL ( #199, 'UNSPECIFIED' ) ;
#106 = APPROVAL ( #373, 'UNSPECIFIED' ) ;
#107 = FACE_OUTER_BOUND ( 'NONE', #127, .T. ) ;
#108 = PERSON_AND_ORGANIZATION_ROLE ( 'design_owner' ) ;
#109 = APPROVAL_PERSON_ORGANIZATION ( #140, #106, #114 ) ;
#110 = DIRECTION ( 'NONE',  ( -0.000000000000000000, 0.000000000000000000, 1.000000000000000000 ) ) ;
#111 = APPLICATION_CONTEXT ( 'configuration controlled 3d designs of mechanical parts and assemblies' ) ;
#112 = PERSON_AND_ORGANIZATION ( #216, #166 ) ;
#113 = ORIENTED_EDGE ( 'NONE', *, *, #201, .F. ) ;
#114 = APPROVAL_ROLE ( '' ) ;
#115 = ORIENTED_EDGE ( 'NONE', *, *, #309, .T. ) ;
#116 = ADVANCED_FACE ( 'NONE', ( #363, #157, #11 ), #45, .T. ) ;
#117 = EDGE_CURVE ( 'NONE', #17, #219, #120, .T. ) ;
#118 = EDGE_LOOP ( 'NONE', ( #86, #169 ) ) ;
#119 = DIRECTION ( 'NONE',  ( -0.000000000000000000, -0.000000000000000000, -1.000000000000000000 ) ) ;
#120 = CIRCLE ( 'NONE', #156, 1.500000000000001332 ) ;
#121 = VERTEX_POINT ( 'NONE', #252 ) ;
#122 = CIRCLE ( 'NONE', #160, 1.500000000000001332 ) ;
#123 = FACE_OUTER_BOUND ( 'NONE', #185, .T. ) ;
#124 = CARTESIAN_POINT ( 'NONE',  ( 29.99999999999999645, -20.00000000000000000, 2.000000000000000000 ) ) ;
#125 = ORIENTED_EDGE ( 'NONE', *, *, #233, .T. ) ;
#126 = VECTOR ( 'NONE', #159, 1000.000000000000000 ) ;
#127 = EDGE_LOOP ( 'NONE', ( #352, #379, #330, #19 ) ) ;
#128 = CIRCLE ( 'NONE', #240, 1.500000000000001332 ) ;
#129 = ORIENTED_EDGE ( 'NONE', *, *, #221, .T. ) ;
#130 = CARTESIAN_POINT ( 'NONE',  ( 0.000000000000000000, 0.000000000000000000, 2.000000000000000000 ) ) ;
#131 = AXIS2_PLACEMENT_3D ( 'NONE', #368, #281, #12 ) ;
#132 = ADVANCED_FACE ( 'NONE', ( #192 ), #364, .F. ) ;
#133 = DIRECTION ( 'NONE',  ( 0.000000000000000000, 0.000000000000000000, -1.000000000000000000 ) ) ;
#134 = CC_DESIGN_PERSON_AND_ORGANIZATION_ASSIGNMENT ( #370, #196, ( #95 ) ) ;
#135 = DIRECTION ( 'NONE',  ( -0.000000000000000000, 0.000000000000000000, 1.000000000000000000 ) ) ;
#136 = CC_DESIGN_PERSON_AND_ORGANIZATION_ASSIGNMENT ( #369, #142, ( #276 ) ) ;
#137 = DIRECTION ( 'NONE',  ( -1.000000000000000000, -8.673617379884035472E-17, 0.000000000000000000 ) ) ;
#138 = FACE_BOUND ( 'NONE', #346, .T. ) ;
#139 = COORDINATED_UNIVERSAL_TIME_OFFSET ( 5, 30, .AHEAD. ) ;
#140 = PERSON_AND_ORGANIZATION ( #216, #166 ) ;
#141 = VERTEX_POINT ( 'NONE', #335 ) ;
#142 = PERSON_AND_ORGANIZATION_ROLE ( 'classification_officer' ) ;
#143 = VECTOR ( 'NONE', #158, 1000.000000000000000 ) ;
#144 = DIRECTION ( 'NONE',  ( -0.000000000000000000, -0.000000000000000000, -1.000000000000000000 ) ) ;
#145 = CC_DESIGN_DATE_AND_TIME_ASSIGNMENT ( #47, #343, ( #276 ) ) ;
#146 = EDGE_CURVE ( 'NONE', #219, #17, #5, .T. ) ;
#147 = DIRECTION ( 'NONE',  ( -0.000000000000000000, -0.000000000000000000, -1.000000000000000000 ) ) ;
#148 = VERTEX_POINT ( 'NONE', #43 ) ;
#149 = DIRECTION ( 'NONE',  ( -1.000000000000000000, 0.000000000000000000, 0.000000000000000000 ) ) ;
#150 = LOCAL_TIME ( 18, 31, 28.00000000000000000, #232 ) ;
#151 = ORIENTED_EDGE ( 'NONE', *, *, #289, .T. ) ;
#152 = CARTESIAN_POINT ( 'NONE',  ( -30.00000000000000355, -20.00000000000000000, 0.000000000000000000 ) ) ;
#153 = EDGE_LOOP ( 'NONE', ( #173, #36, #288, #81 ) ) ;
#154 = ORIENTED_EDGE ( 'NONE', *, *, #221, .F. ) ;
#155 = CARTESIAN_POINT ( 'NONE',  ( -29.00000000000000355, 0.000000000000000000, 2.001000000000000334 ) ) ;
#156 = AXIS2_PLACEMENT_3D ( 'NONE', #193, #255, #283 ) ;
#157 = FACE_BOUND ( 'NONE', #96, .T. ) ;
#158 = DIRECTION ( 'NONE',  ( -0.000000000000000000, -0.000000000000000000, -1.000000000000000000 ) ) ;
#159 = DIRECTION ( 'NONE',  ( -0.000000000000000000, -0.000000000000000000, -1.000000000000000000 ) ) ;
#160 = AXIS2_PLACEMENT_3D ( 'NONE', #334, #133, #189 ) ;
#161 = AXIS2_PLACEMENT_3D ( 'NONE', #253, #365, #339 ) ;
#162 = DIRECTION ( 'NONE',  ( 8.673617379884035472E-17, -1.000000000000000000, 0.000000000000000000 ) ) ;
#163 = CARTESIAN_POINT ( 'NONE',  ( -30.00000000000000711, 20.00000000000000000, 0.000000000000000000 ) ) ;
#164 = CALENDAR_DATE ( 2026, 29, 8 ) ;
#165 = VERTEX_POINT ( 'NONE', #312 ) ;
#166 = ORGANIZATION ( 'UNSPECIFIED', 'UNSPECIFIED', '' ) ;
#167 = VERTEX_POINT ( 'NONE', #190 ) ;
#168 = APPROVAL_DATE_TIME ( #258, #105 ) ;
#169 = ORIENTED_EDGE ( 'NONE', *, *, #146, .T. ) ;
#170 = CARTESIAN_POINT ( 'NONE',  ( -27.50000000000000355, 0.000000000000000000, 0.000000000000000000 ) ) ;
#171 = VECTOR ( 'NONE', #69, 1000.000000000000000 ) ;
#172 = CARTESIAN_POINT ( 'NONE',  ( 28.99999999999999289, 1.836970198721030674E-16, 2.001000000000000334 ) ) ;
#173 = ORIENTED_EDGE ( 'NONE', *, *, #217, .T. ) ;
#174 = CARTESIAN_POINT ( 'NONE',  ( 27.49999999999999289, 0.000000000000000000, 0.000000000000000000 ) ) ;
#175 = ORIENTED_EDGE ( 'NONE', *, *, #359, .T. ) ;
#176 = ORIENTED_EDGE ( 'NONE', *, *, #146, .F. ) ;
#177 = LINE ( 'NONE', #33, #188 ) ;
#178 = VECTOR ( 'NONE', #337, 1000.000000000000000 ) ;
#179 = PLANE ( 'NONE',  #39 ) ;
#180 = PRODUCT ( 'GripperFlatSurface_Default_sldprt', 'GripperFlatSurface_Default_sldprt', '', ( #200 ) ) ;
#181 = AXIS2_PLACEMENT_3D ( 'NONE', #130, #135, #68 ) ;
#182 = CARTESIAN_POINT ( 'NONE',  ( -29.00000000000000355, 0.000000000000000000, 0.000000000000000000 ) ) ;
#183 = ADVANCED_FACE ( 'NONE', ( #107 ), #361, .F. ) ;
#184 =( NAMED_UNIT ( * ) PLANE_ANGLE_UNIT ( ) SI_UNIT ( $, .RADIAN. ) );
#185 = EDGE_LOOP ( 'NONE', ( #129, #266, #331, #115 ) ) ;
#186 = ADVANCED_FACE ( 'NONE', ( #308, #138, #74 ), #313, .F. ) ;
#187 = DIRECTION ( 'NONE',  ( -8.673617379884035472E-17, 1.000000000000000000, 0.000000000000000000 ) ) ;
#188 = VECTOR ( 'NONE', #275, 1000.000000000000000 ) ;
#189 = DIRECTION ( 'NONE',  ( -1.000000000000000000, 0.000000000000000000, 0.000000000000000000 ) ) ;
#190 = CARTESIAN_POINT ( 'NONE',  ( 29.99999999999999289, 20.00000000000000000, 0.000000000000000000 ) ) ;
#191 = EDGE_CURVE ( 'NONE', #32, #59, #279, .T. ) ;
#192 = FACE_OUTER_BOUND ( 'NONE', #153, .T. ) ;
#193 = CARTESIAN_POINT ( 'NONE',  ( -27.50000000000000355, 0.000000000000000000, 2.000000000000000000 ) ) ;
#194 = VECTOR ( 'NONE', #341, 1000.000000000000000 ) ;
#195 = CARTESIAN_POINT ( 'NONE',  ( -30.00000000000000355, -20.00000000000000000, 2.000000000000000000 ) ) ;
#196 = PERSON_AND_ORGANIZATION_ROLE ( 'creator' ) ;
#197 = CARTESIAN_POINT ( 'NONE',  ( -26.00000000000000355, 1.836970198721029934E-16, 2.000000000000000000 ) ) ;
#198 = CARTESIAN_POINT ( 'NONE',  ( 25.99999999999999289, 0.000000000000000000, 2.000000000000000000 ) ) ;
#199 = APPROVAL_STATUS ( 'not_yet_approved' ) ;
#200 = MECHANICAL_CONTEXT ( 'NONE', #111, 'mechanical' ) ;
#201 = EDGE_CURVE ( 'NONE', #215, #374, #235, .T. ) ;
#202 = DATE_TIME_ROLE ( 'creation_date' ) ;
#203 = APPLICATION_PROTOCOL_DEFINITION ( 'international standard', 'config_control_design', 1994, #214 ) ;
#204 = FACE_OUTER_BOUND ( 'NONE', #64, .T. ) ;
#205 = PRODUCT_DEFINITION_SHAPE ( 'NONE', 'NONE',  #322 ) ;
#206 = DIRECTION ( 'NONE',  ( 0.000000000000000000, 0.000000000000000000, -1.000000000000000000 ) ) ;
#207 = EDGE_CURVE ( 'NONE', #219, #231, #278, .T. ) ;
#208 = CARTESIAN_POINT ( 'NONE',  ( -30.00000000000000711, 20.00000000000000000, 2.000000000000000000 ) ) ;
#209 = ORIENTED_EDGE ( 'NONE', *, *, #91, .F. ) ;
#210 = DIRECTION ( 'NONE',  ( -1.000000000000000000, -0.000000000000000000, -0.000000000000000000 ) ) ;
#211 = ORIENTED_EDGE ( 'NONE', *, *, #53, .F. ) ;
#212 = EDGE_CURVE ( 'NONE', #325, #121, #76, .T. ) ;
#213 =( GEOMETRIC_REPRESENTATION_CONTEXT ( 3 ) GLOBAL_UNCERTAINTY_ASSIGNED_CONTEXT ( ( #80 ) ) GLOBAL_UNIT_ASSIGNED_CONTEXT ( ( #27, #184, #34 ) ) REPRESENTATION_CONTEXT ( 'NONE', 'WORKASPACE' ) );
#214 = APPLICATION_CONTEXT ( 'configuration controlled 3d designs of mechanical parts and assemblies' ) ;
#215 = VERTEX_POINT ( 'NONE', #198 ) ;
#216 = PERSON ( 'UNSPECIFIED', 'UNSPECIFIED', 'UNSPECIFIED', ('UNSPECIFIED'), ('UNSPECIFIED'), ('UNSPECIFIED') ) ;
#217 = EDGE_CURVE ( 'NONE', #121, #167, #315, .T. ) ;
#218 = EDGE_LOOP ( 'NONE', ( #125, #57, #371, #297 ) ) ;
#219 = VERTEX_POINT ( 'NONE', #197 ) ;
#220 = ADVANCED_BREP_SHAPE_REPRESENTATION ( 'GripperFlatSurface_Default_sldprt', ( #42, #257 ), #213 ) ;
#221 = EDGE_CURVE ( 'NONE', #65, #325, #177, .T. ) ;
#222 = VECTOR ( 'NONE', #147, 1000.000000000000000 ) ;
#223 = CARTESIAN_POINT ( 'NONE',  ( 29.99999999999999289, 20.00000000000000000, 2.000000000000000000 ) ) ;
#224 = CARTESIAN_POINT ( 'NONE',  ( 29.99999999999999289, 20.00000000000000000, 2.000000000000000000 ) ) ;
#225 = LINE ( 'NONE', #195, #333 ) ;
#226 = ADVANCED_FACE ( 'NONE', ( #4 ), #97, .F. ) ;
#227 = DIRECTION ( 'NONE',  ( 1.000000000000000000, 0.000000000000000000, 0.000000000000000000 ) ) ;
#228 = AXIS2_PLACEMENT_3D ( 'NONE', #243, #144, #350 ) ;
#229 = CARTESIAN_POINT ( 'NONE',  ( -30.00000000000000355, -20.00000000000000000, 0.000000000000000000 ) ) ;
#230 = CALENDAR_DATE ( 2026, 29, 8 ) ;
#231 = VERTEX_POINT ( 'NONE', #319 ) ;
#232 = COORDINATED_UNIVERSAL_TIME_OFFSET ( 5, 30, .AHEAD. ) ;
#233 = EDGE_CURVE ( 'NONE', #141, #165, #348, .T. ) ;
#234 = EDGE_LOOP ( 'NONE', ( #300, #23, #349, #304 ) ) ;
#235 = CIRCLE ( 'NONE', #14, 1.500000000000001332 ) ;
#236 = APPROVAL_ROLE ( '' ) ;
#237 = LINE ( 'NONE', #271, #287 ) ;
#238 = DIRECTION ( 'NONE',  ( -0.000000000000000000, -0.000000000000000000, -1.000000000000000000 ) ) ;
#239 = EDGE_LOOP ( 'NONE', ( #245, #151, #28, #1 ) ) ;
#240 = AXIS2_PLACEMENT_3D ( 'NONE', #174, #296, #385 ) ;
#241 = CARTESIAN_POINT ( 'NONE',  ( -30.00000000000000711, 20.00000000000000000, 2.000000000000000000 ) ) ;
#242 = ORIENTED_EDGE ( 'NONE', *, *, #359, .F. ) ;
#243 = CARTESIAN_POINT ( 'NONE',  ( -27.50000000000000355, 0.000000000000000000, 2.001000000000000334 ) ) ;
#244 = PLANE ( 'NONE',  #327 ) ;
#245 = ORIENTED_EDGE ( 'NONE', *, *, #82, .F. ) ;
#246 = ORIENTED_EDGE ( 'NONE', *, *, #351, .T. ) ;
#247 = CARTESIAN_POINT ( 'NONE',  ( -29.00000000000000355, 0.000000000000000000, 2.000000000000000000 ) ) ;
#248 = EDGE_CURVE ( 'NONE', #231, #51, #9, .T. ) ;
#249 = DIRECTION ( 'NONE',  ( 8.673617379884035472E-17, -1.000000000000000000, 0.000000000000000000 ) ) ;
#250 = DIRECTION ( 'NONE',  ( 0.000000000000000000, -0.000000000000000000, -1.000000000000000000 ) ) ;
#251 = CIRCLE ( 'NONE', #131, 1.500000000000001332 ) ;
#252 = CARTESIAN_POINT ( 'NONE',  ( 29.99999999999999645, -20.00000000000000000, 0.000000000000000000 ) ) ;
#253 = CARTESIAN_POINT ( 'NONE',  ( -27.50000000000000355, 0.000000000000000000, 2.001000000000000334 ) ) ;
#254 = PRODUCT_RELATED_PRODUCT_CATEGORY ( 'detail', '', ( #180 ) ) ;
#255 = DIRECTION ( 'NONE',  ( 0.000000000000000000, -0.000000000000000000, -1.000000000000000000 ) ) ;
#256 = DESIGN_CONTEXT ( 'detailed design', #214, 'design' ) ;
#257 = AXIS2_PLACEMENT_3D ( 'NONE', #38, #99, #263 ) ;
#258 = DATE_AND_TIME ( #75, #268 ) ;
#259 = ORIENTED_EDGE ( 'NONE', *, *, #248, .F. ) ;
#260 = ADVANCED_FACE ( 'NONE', ( #294 ), #383, .F. ) ;
#261 = APPROVAL_DATE_TIME ( #317, #336 ) ;
#262 = ORIENTED_EDGE ( 'NONE', *, *, #71, .T. ) ;
#263 = DIRECTION ( 'NONE',  ( 1.000000000000000000, 0.000000000000000000, 0.000000000000000000 ) ) ;
#264 = LINE ( 'NONE', #172, #295 ) ;
#265 = DIRECTION ( 'NONE',  ( -0.000000000000000000, -0.000000000000000000, -1.000000000000000000 ) ) ;
#266 = ORIENTED_EDGE ( 'NONE', *, *, #60, .F. ) ;
#267 = ORIENTED_EDGE ( 'NONE', *, *, #380, .T. ) ;
#268 = LOCAL_TIME ( 18, 31, 28.00000000000000000, #139 ) ;
#269 = ADVANCED_FACE ( 'NONE', ( #31 ), #56, .F. ) ;
#270 = CARTESIAN_POINT ( 'NONE',  ( 27.49999999999999289, 0.000000000000000000, 2.001000000000000334 ) ) ;
#271 = CARTESIAN_POINT ( 'NONE',  ( -30.00000000000000711, 20.00000000000000000, 0.000000000000000000 ) ) ;
#272 = CC_DESIGN_PERSON_AND_ORGANIZATION_ASSIGNMENT ( #112, #292, ( #95 ) ) ;
#273 = ORIENTED_EDGE ( 'NONE', *, *, #92, .F. ) ;
#274 = ORIENTED_EDGE ( 'NONE', *, *, #82, .T. ) ;
#275 = DIRECTION ( 'NONE',  ( 8.673617379884035472E-17, -1.000000000000000000, 0.000000000000000000 ) ) ;
#276 = SECURITY_CLASSIFICATION ( '', '', #50 ) ;
#277 = DIRECTION ( 'NONE',  ( -0.000000000000000000, -0.000000000000000000, -1.000000000000000000 ) ) ;
#278 = LINE ( 'NONE', #7, #143 ) ;
#279 = LINE ( 'NONE', #307, #357 ) ;
#280 = VECTOR ( 'NONE', #265, 1000.000000000000000 ) ;
#281 = DIRECTION ( 'NONE',  ( 0.000000000000000000, 0.000000000000000000, -1.000000000000000000 ) ) ;
#282 = CC_DESIGN_DATE_AND_TIME_ASSIGNMENT ( #22, #202, ( #322 ) ) ;
#283 = DIRECTION ( 'NONE',  ( 1.000000000000000000, 0.000000000000000000, 0.000000000000000000 ) ) ;
#284 = DIRECTION ( 'NONE',  ( 0.000000000000000000, -0.000000000000000000, -1.000000000000000000 ) ) ;
#285 = SHAPE_DEFINITION_REPRESENTATION ( #205, #220 ) ;
#286 = PERSON_AND_ORGANIZATION ( #216, #166 ) ;
#287 = VECTOR ( 'NONE', #347, 1000.000000000000000 ) ;
#288 = ORIENTED_EDGE ( 'NONE', *, *, #233, .F. ) ;
#289 = EDGE_CURVE ( 'NONE', #374, #148, #264, .T. ) ;
#290 = COORDINATED_UNIVERSAL_TIME_OFFSET ( 5, 30, .AHEAD. ) ;
#291 = ORIENTED_EDGE ( 'NONE', *, *, #309, .F. ) ;
#292 = PERSON_AND_ORGANIZATION_ROLE ( 'design_supplier' ) ;
#293 = ORIENTED_EDGE ( 'NONE', *, *, #212, .F. ) ;
#294 = FACE_OUTER_BOUND ( 'NONE', #358, .T. ) ;
#295 = VECTOR ( 'NONE', #119, 1000.000000000000000 ) ;
#296 = DIRECTION ( 'NONE',  ( 0.000000000000000000, 0.000000000000000000, -1.000000000000000000 ) ) ;
#297 = ORIENTED_EDGE ( 'NONE', *, *, #103, .T. ) ;
#298 = ORIENTED_EDGE ( 'NONE', *, *, #217, .F. ) ;
#299 = DIRECTION ( 'NONE',  ( 0.000000000000000000, 1.000000000000000000, 0.000000000000000000 ) ) ;
#300 = ORIENTED_EDGE ( 'NONE', *, *, #212, .T. ) ;
#301 = CC_DESIGN_APPROVAL ( #336, ( #322 ) ) ;
#302 = DIRECTION ( 'NONE',  ( -1.000000000000000000, 0.000000000000000000, 0.000000000000000000 ) ) ;
#303 = ORIENTED_EDGE ( 'NONE', *, *, #248, .T. ) ;
#304 = ORIENTED_EDGE ( 'NONE', *, *, #60, .T. ) ;
#305 = DIRECTION ( 'NONE',  ( 1.000000000000000000, 8.673617379884035472E-17, -0.000000000000000000 ) ) ;
#306 = AXIS2_PLACEMENT_3D ( 'NONE', #46, #110, #332 ) ;
#307 = CARTESIAN_POINT ( 'NONE',  ( -30.00000000000000711, 20.00000000000000000, 2.000000000000000000 ) ) ;
#308 = FACE_BOUND ( 'NONE', #381, .T. ) ;
#309 = EDGE_CURVE ( 'NONE', #32, #65, #89, .T. ) ;
#310 = DIRECTION ( 'NONE',  ( 1.000000000000000000, 0.000000000000000000, 0.000000000000000000 ) ) ;
#311 = AXIS2_PLACEMENT_3D ( 'NONE', #224, #137, #162 ) ;
#312 = CARTESIAN_POINT ( 'NONE',  ( 29.99999999999999289, 20.00000000000000000, 2.000000000000000000 ) ) ;
#313 = PLANE ( 'NONE',  #306 ) ;
#314 = PERSON_AND_ORGANIZATION ( #216, #166 ) ;
#315 = LINE ( 'NONE', #48, #171 ) ;
#316 = EDGE_CURVE ( 'NONE', #165, #32, #87, .T. ) ;
#317 = DATE_AND_TIME ( #376, #382 ) ;
#318 = ADVANCED_FACE ( 'NONE', ( #204 ), #179, .F. ) ;
#319 = CARTESIAN_POINT ( 'NONE',  ( -26.00000000000000355, 1.836970198721029934E-16, 0.000000000000000000 ) ) ;
#320 = APPROVAL_DATE_TIME ( #79, #106 ) ;
#321 = AXIS2_PLACEMENT_3D ( 'NONE', #102, #284, #8 ) ;
#322 = PRODUCT_DEFINITION ( 'UNKNOWN', '', #95, #256 ) ;
#323 = DIRECTION ( 'NONE',  ( -0.000000000000000000, -0.000000000000000000, -1.000000000000000000 ) ) ;
#324 = CARTESIAN_POINT ( 'NONE',  ( 28.99999999999999289, 1.836970198721029934E-16, 2.000000000000000000 ) ) ;
#325 = VERTEX_POINT ( 'NONE', #152 ) ;
#326 = DIRECTION ( 'NONE',  ( 0.000000000000000000, -1.000000000000000000, 0.000000000000000000 ) ) ;
#327 = AXIS2_PLACEMENT_3D ( 'NONE', #94, #305, #187 ) ;
#328 = ORIENTED_EDGE ( 'NONE', *, *, #207, .T. ) ;
#329 = LOCAL_TIME ( 18, 31, 28.00000000000000000, #77 ) ;
#330 = ORIENTED_EDGE ( 'NONE', *, *, #53, .T. ) ;
#331 = ORIENTED_EDGE ( 'NONE', *, *, #191, .F. ) ;
#332 = DIRECTION ( 'NONE',  ( 1.000000000000000000, 0.000000000000000000, 0.000000000000000000 ) ) ;
#333 = VECTOR ( 'NONE', #227, 1000.000000000000000 ) ;
#334 = CARTESIAN_POINT ( 'NONE',  ( -27.50000000000000355, 0.000000000000000000, 0.000000000000000000 ) ) ;
#335 = CARTESIAN_POINT ( 'NONE',  ( 29.99999999999999645, -20.00000000000000000, 2.000000000000000000 ) ) ;
#336 = APPROVAL ( #13, 'UNSPECIFIED' ) ;
#337 = DIRECTION ( 'NONE',  ( -0.000000000000000000, -0.000000000000000000, -1.000000000000000000 ) ) ;
#338 = AXIS2_PLACEMENT_3D ( 'NONE', #70, #100, #310 ) ;
#339 = DIRECTION ( 'NONE',  ( -1.000000000000000000, 0.000000000000000000, 0.000000000000000000 ) ) ;
#340 = COORDINATED_UNIVERSAL_TIME_OFFSET ( 5, 30, .AHEAD. ) ;
#341 = DIRECTION ( 'NONE',  ( 1.000000000000000000, 0.000000000000000000, 0.000000000000000000 ) ) ;
#342 = CLOSED_SHELL ( 'NONE', ( #260, #269, #132, #318, #21, #226, #116, #186, #20, #183 ) ) ;
#343 = DATE_TIME_ROLE ( 'classification_date' ) ;
#344 = EDGE_LOOP ( 'NONE', ( #29, #113, #267, #175 ) ) ;
#345 = PERSON_AND_ORGANIZATION_ROLE ( 'creator' ) ;
#346 = EDGE_LOOP ( 'NONE', ( #242, #273 ) ) ;
#347 = DIRECTION ( 'NONE',  ( -1.000000000000000000, -0.000000000000000000, -0.000000000000000000 ) ) ;
#348 = LINE ( 'NONE', #378, #26 ) ;
#349 = ORIENTED_EDGE ( 'NONE', *, *, #103, .F. ) ;
#350 = DIRECTION ( 'NONE',  ( -1.000000000000000000, 0.000000000000000000, 0.000000000000000000 ) ) ;
#351 = EDGE_CURVE ( 'NONE', #167, #65, #237, .T. ) ;
#352 = ORIENTED_EDGE ( 'NONE', *, *, #207, .F. ) ;
#353 = CARTESIAN_POINT ( 'NONE',  ( 27.49999999999999289, 0.000000000000000000, 2.001000000000000334 ) ) ;
#354 = DIRECTION ( 'NONE',  ( -1.000000000000000000, 0.000000000000000000, 0.000000000000000000 ) ) ;
#355 = CARTESIAN_POINT ( 'NONE',  ( -30.00000000000000711, 20.00000000000000000, 2.000000000000000000 ) ) ;
#356 = EDGE_LOOP ( 'NONE', ( #298, #293, #154, #2 ) ) ;
#357 = VECTOR ( 'NONE', #249, 1000.000000000000000 ) ;
#358 = EDGE_LOOP ( 'NONE', ( #176, #328, #303, #211 ) ) ;
#359 = EDGE_CURVE ( 'NONE', #55, #148, #128, .T. ) ;
#360 = CYLINDRICAL_SURFACE ( 'NONE', #24, 1.500000000000001332 ) ;
#361 = CYLINDRICAL_SURFACE ( 'NONE', #161, 1.500000000000001332 ) ;
#362 = CC_DESIGN_APPROVAL ( #106, ( #276 ) ) ;
#363 = FACE_BOUND ( 'NONE', #118, .T. ) ;
#364 = PLANE ( 'NONE',  #311 ) ;
#365 = DIRECTION ( 'NONE',  ( -0.000000000000000000, -0.000000000000000000, -1.000000000000000000 ) ) ;
#366 = APPLICATION_PROTOCOL_DEFINITION ( 'international standard', 'config_control_design', 1994, #111 ) ;
#367 = EDGE_CURVE ( 'NONE', #141, #121, #377, .T. ) ;
#368 = CARTESIAN_POINT ( 'NONE',  ( 27.49999999999999289, 0.000000000000000000, 0.000000000000000000 ) ) ;
#369 = PERSON_AND_ORGANIZATION ( #216, #166 ) ;
#370 = PERSON_AND_ORGANIZATION ( #216, #166 ) ;
#371 = ORIENTED_EDGE ( 'NONE', *, *, #191, .T. ) ;
#372 = CIRCLE ( 'NONE', #321, 1.500000000000001332 ) ;
#373 = APPROVAL_STATUS ( 'not_yet_approved' ) ;
#374 = VERTEX_POINT ( 'NONE', #324 ) ;
#375 = VECTOR ( 'NONE', #277, 1000.000000000000000 ) ;
#376 = CALENDAR_DATE ( 2026, 29, 8 ) ;
#377 = LINE ( 'NONE', #124, #280 ) ;
#378 = CARTESIAN_POINT ( 'NONE',  ( 29.99999999999999289, 20.00000000000000000, 2.000000000000000000 ) ) ;
#379 = ORIENTED_EDGE ( 'NONE', *, *, #117, .F. ) ;
#380 = EDGE_CURVE ( 'NONE', #215, #55, #25, .T. ) ;
#381 = EDGE_LOOP ( 'NONE', ( #209, #259 ) ) ;
#382 = LOCAL_TIME ( 18, 31, 28.00000000000000000, #340 ) ;
#383 = CYLINDRICAL_SURFACE ( 'NONE', #228, 1.500000000000001332 ) ;
#384 = DIRECTION ( 'NONE',  ( -0.000000000000000000, -0.000000000000000000, -1.000000000000000000 ) ) ;
#385 = DIRECTION ( 'NONE',  ( -1.000000000000000000, 0.000000000000000000, 0.000000000000000000 ) ) ;
ENDSEC;
END-ISO-10303-21;
