ISO-10303-21;
HEADER;
FILE_DESCRIPTION (( 'STEP AP203' ),
    '1' );
FILE_NAME ('Lid_Default_sldprt.STEP',
    '2026-08-29T13:01:29',
    ( '' ),
    ( '' ),
    'SwSTEP 2.0',
    'SolidWorks 2020',
    '' );
FILE_SCHEMA (( 'CONFIG_CONTROL_DESIGN' ));
ENDSEC;

DATA;
#1 = ORIENTED_EDGE ( 'NONE', *, *, #244, .T. ) ;
#2 = EDGE_CURVE ( 'NONE', #989, #132, #57, .T. ) ;
#3 = CARTESIAN_POINT ( 'NONE',  ( -18.25000000000001066, 0.2500000000000059397, -0.001000000000000132727 ) ) ;
#4 = CIRCLE ( 'NONE', #714, 6.000000000000000888 ) ;
#5 = PERSON_AND_ORGANIZATION ( #725, #902 ) ;
#6 = CARTESIAN_POINT ( 'NONE',  ( -33.24999999999998579, -34.75000000000000000, 0.000000000000000000 ) ) ;
#7 = ORIENTED_EDGE ( 'NONE', *, *, #919, .T. ) ;
#8 = CARTESIAN_POINT ( 'NONE',  ( 33.25000000000001421, -34.75000000000000000, 0.000000000000000000 ) ) ;
#9 = EDGE_CURVE ( 'NONE', #284, #673, #33, .T. ) ;
#10 = ORIENTED_EDGE ( 'NONE', *, *, #258, .T. ) ;
#11 = EDGE_CURVE ( 'NONE', #694, #528, #39, .T. ) ;
#12 = CARTESIAN_POINT ( 'NONE',  ( -9.000000000000001776, -7.749999999999996447, -0.001000000000000132727 ) ) ;
#13 = ORIENTED_EDGE ( 'NONE', *, *, #919, .F. ) ;
#14 = CARTESIAN_POINT ( 'NONE',  ( -6.000000000000000888, 16.25000000000000355, 0.000000000000000000 ) ) ;
#15 = CC_DESIGN_PERSON_AND_ORGANIZATION_ASSIGNMENT ( #494, #896, ( #303 ) ) ;
#16 = CARTESIAN_POINT ( 'NONE',  ( 9.000000000000001776, 25.25000000000000711, -0.001000000000000132727 ) ) ;
#17 = ORIENTED_EDGE ( 'NONE', *, *, #269, .F. ) ;
#18 = FACE_OUTER_BOUND ( 'NONE', #762, .T. ) ;
#19 = VERTEX_POINT ( 'NONE', #26 ) ;
#20 = AXIS2_PLACEMENT_3D ( 'NONE', #65, #544, #77 ) ;
#21 = LINE ( 'NONE', #175, #632 ) ;
#22 = CIRCLE ( 'NONE', #814, 1.500000000000001332 ) ;
#23 = ORIENTED_EDGE ( 'NONE', *, *, #626, .T. ) ;
#24 = DIRECTION ( 'NONE',  ( 1.000000000000000000, 0.000000000000000000, 0.000000000000000000 ) ) ;
#25 = ORIENTED_EDGE ( 'NONE', *, *, #31, .F. ) ;
#26 = CARTESIAN_POINT ( 'NONE',  ( 10.50000000000000178, 25.25000000000000711, 0.000000000000000000 ) ) ;
#27 = DIRECTION ( 'NONE',  ( -0.000000000000000000, -0.000000000000000000, 1.000000000000000000 ) ) ;
#28 = ORIENTED_EDGE ( 'NONE', *, *, #560, .F. ) ;
#29 = FACE_OUTER_BOUND ( 'NONE', #248, .T. ) ;
#30 = EDGE_LOOP ( 'NONE', ( #428, #453, #104, #555 ) ) ;
#31 = EDGE_CURVE ( 'NONE', #911, #55, #975, .T. ) ;
#32 = COORDINATED_UNIVERSAL_TIME_OFFSET ( 5, 30, .AHEAD. ) ;
#33 = LINE ( 'NONE', #495, #648 ) ;
#34 = DIRECTION ( 'NONE',  ( -0.000000000000000000, -0.000000000000000000, 1.000000000000000000 ) ) ;
#35 = ORIENTED_EDGE ( 'NONE', *, *, #670, .F. ) ;
#36 = DIRECTION ( 'NONE',  ( 1.000000000000000000, 0.000000000000000000, 0.000000000000000000 ) ) ;
#37 = ORIENTED_EDGE ( 'NONE', *, *, #870, .F. ) ;
#38 = PERSON_AND_ORGANIZATION_ROLE ( 'design_owner' ) ;
#39 = LINE ( 'NONE', #810, #783 ) ;
#40 = AXIS2_PLACEMENT_3D ( 'NONE', #403, #565, #641 ) ;
#41 = LINE ( 'NONE', #832, #186 ) ;
#42 = ORIENTED_EDGE ( 'NONE', *, *, #418, .F. ) ;
#43 = AXIS2_PLACEMENT_3D ( 'NONE', #401, #801, #312 ) ;
#44 = CARTESIAN_POINT ( 'NONE',  ( -28.25000000000001066, 3.250000000000007105, -0.001000000000000132727 ) ) ;
#45 = VERTEX_POINT ( 'NONE', #503 ) ;
#46 = APPROVAL_ROLE ( '' ) ;
#47 = EDGE_CURVE ( 'NONE', #191, #709, #818, .T. ) ;
#48 = CARTESIAN_POINT ( 'NONE',  ( -33.25000000000000000, 34.75000000000000000, 3.000000000000000000 ) ) ;
#49 = DIRECTION ( 'NONE',  ( -1.301042606982605321E-16, -1.000000000000000000, 0.000000000000000000 ) ) ;
#50 = ORIENTED_EDGE ( 'NONE', *, *, #9, .T. ) ;
#51 = CYLINDRICAL_SURFACE ( 'NONE', #797, 1.499999999999999556 ) ;
#52 = CC_DESIGN_DATE_AND_TIME_ASSIGNMENT ( #516, #917, ( #851 ) ) ;
#53 = CARTESIAN_POINT ( 'NONE',  ( -27.50000000000000000, -19.74999999999999645, 3.000000000000000000 ) ) ;
#54 = FACE_OUTER_BOUND ( 'NONE', #971, .T. ) ;
#55 = VERTEX_POINT ( 'NONE', #202 ) ;
#56 = CARTESIAN_POINT ( 'NONE',  ( 9.000000000000001776, 25.25000000000000711, 3.000000000000000000 ) ) ;
#57 = CIRCLE ( 'NONE', #567, 1.499999999999999556 ) ;
#58 = CARTESIAN_POINT ( 'NONE',  ( -7.500000000000001776, -7.749999999999996447, 0.000000000000000000 ) ) ;
#59 = CIRCLE ( 'NONE', #113, 1.499999999999999556 ) ;
#60 = VECTOR ( 'NONE', #325, 1000.000000000000000 ) ;
#61 = VERTEX_POINT ( 'NONE', #840 ) ;
#62 = AXIS2_PLACEMENT_3D ( 'NONE', #56, #145, #148 ) ;
#63 = CARTESIAN_POINT ( 'NONE',  ( 10.50000000000000178, -7.749999999999992006, 0.000000000000000000 ) ) ;
#64 = CIRCLE ( 'NONE', #637, 1.500000000000001332 ) ;
#65 = CARTESIAN_POINT ( 'NONE',  ( 0.000000000000000000, 16.25000000000000355, -0.001000000000000132727 ) ) ;
#66 = ORIENTED_EDGE ( 'NONE', *, *, #272, .F. ) ;
#67 = APPROVAL_STATUS ( 'not_yet_approved' ) ;
#68 = EDGE_CURVE ( 'NONE', #673, #336, #834, .T. ) ;
#69 = DIRECTION ( 'NONE',  ( -0.000000000000000000, -0.000000000000000000, 1.000000000000000000 ) ) ;
#70 = FACE_BOUND ( 'NONE', #82, .T. ) ;
#71 = VERTEX_POINT ( 'NONE', #356 ) ;
#72 = LINE ( 'NONE', #387, #365 ) ;
#73 = DIRECTION ( 'NONE',  ( 1.000000000000000000, 0.000000000000000000, 0.000000000000000000 ) ) ;
#74 = EDGE_LOOP ( 'NONE', ( #222, #893 ) ) ;
#75 = DIRECTION ( 'NONE',  ( 1.000000000000000000, 0.000000000000000000, 0.000000000000000000 ) ) ;
#76 = EDGE_CURVE ( 'NONE', #61, #281, #864, .T. ) ;
#77 = DIRECTION ( 'NONE',  ( 1.000000000000000000, 0.000000000000000000, 0.000000000000000000 ) ) ;
#78 = CYLINDRICAL_SURFACE ( 'NONE', #350, 1.500000000000001332 ) ;
#79 = ORIENTED_EDGE ( 'NONE', *, *, #843, .F. ) ;
#80 = DIRECTION ( 'NONE',  ( 0.000000000000000000, 0.000000000000000000, 1.000000000000000000 ) ) ;
#81 = CARTESIAN_POINT ( 'NONE',  ( -33.25000000000000000, 34.75000000000000000, 0.000000000000000000 ) ) ;
#82 = EDGE_LOOP ( 'NONE', ( #926, #680 ) ) ;
#83 = ORIENTED_EDGE ( 'NONE', *, *, #686, .T. ) ;
#84 = CALENDAR_DATE ( 2026, 29, 8 ) ;
#85 = ADVANCED_FACE ( 'NONE', ( #366 ), #214, .F. ) ;
#86 = DIRECTION ( 'NONE',  ( 1.000000000000000000, 0.000000000000000000, 0.000000000000000000 ) ) ;
#87 = ADVANCED_FACE ( 'NONE', ( #235 ), #78, .F. ) ;
#88 = ORIENTED_EDGE ( 'NONE', *, *, #691, .F. ) ;
#89 = CARTESIAN_POINT ( 'NONE',  ( -26.00000000000000000, -19.74999999999999645, 0.000000000000000000 ) ) ;
#90 = ADVANCED_FACE ( 'NONE', ( #150 ), #461, .F. ) ;
#91 = CIRCLE ( 'NONE', #287, 1.499999999999999556 ) ;
#92 = CC_DESIGN_APPROVAL ( #408, ( #321 ) ) ;
#93 = DIRECTION ( 'NONE',  ( 1.000000000000000000, 0.000000000000000000, 0.000000000000000000 ) ) ;
#94 = ORIENTED_EDGE ( 'NONE', *, *, #691, .T. ) ;
#95 = FACE_BOUND ( 'NONE', #953, .T. ) ;
#96 = ADVANCED_FACE ( 'NONE', ( #162 ), #205, .T. ) ;
#97 = CARTESIAN_POINT ( 'NONE',  ( 33.25000000000000000, 34.75000000000000000, 3.000000000000000000 ) ) ;
#98 = CARTESIAN_POINT ( 'NONE',  ( -27.50000000000000000, -19.74999999999999645, 3.000000000000000000 ) ) ;
#99 = ORIENTED_EDGE ( 'NONE', *, *, #454, .F. ) ;
#100 = DIRECTION ( 'NONE',  ( 1.000000000000000000, 0.000000000000000000, 0.000000000000000000 ) ) ;
#101 = DIRECTION ( 'NONE',  ( 1.000000000000000000, 1.301042606982605321E-16, 0.000000000000000000 ) ) ;
#102 = ORIENTED_EDGE ( 'NONE', *, *, #870, .T. ) ;
#103 = CARTESIAN_POINT ( 'NONE',  ( -9.000000000000001776, 25.25000000000000711, 0.000000000000000000 ) ) ;
#104 = ORIENTED_EDGE ( 'NONE', *, *, #11, .T. ) ;
#105 = AXIS2_PLACEMENT_3D ( 'NONE', #721, #335, #884 ) ;
#106 = CARTESIAN_POINT ( 'NONE',  ( 28.25000000000001066, 3.250000000000007105, 3.000000000000000000 ) ) ;
#107 = AXIS2_PLACEMENT_3D ( 'NONE', #98, #249, #172 ) ;
#108 = EDGE_CURVE ( 'NONE', #426, #996, #689, .T. ) ;
#109 = VERTEX_POINT ( 'NONE', #458 ) ;
#110 = CARTESIAN_POINT ( 'NONE',  ( -9.000000000000001776, 25.25000000000000711, 3.000000000000000000 ) ) ;
#111 = ORIENTED_EDGE ( 'NONE', *, *, #1026, .F. ) ;
#112 = PERSON_AND_ORGANIZATION_ROLE ( 'classification_officer' ) ;
#113 = AXIS2_PLACEMENT_3D ( 'NONE', #398, #602, #125 ) ;
#114 = VECTOR ( 'NONE', #131, 1000.000000000000000 ) ;
#115 = MANIFOLD_SOLID_BREP ( 'Mirror2', #156 ) ;
#116 = DIRECTION ( 'NONE',  ( -1.000000000000000000, -1.246832498358329606E-16, 0.000000000000000000 ) ) ;
#117 = DIRECTION ( 'NONE',  ( 0.000000000000000000, -0.000000000000000000, -1.000000000000000000 ) ) ;
#118 = ORIENTED_EDGE ( 'NONE', *, *, #31, .T. ) ;
#119 = FACE_OUTER_BOUND ( 'NONE', #737, .T. ) ;
#120 = ORIENTED_EDGE ( 'NONE', *, *, #290, .F. ) ;
#121 = PERSON_AND_ORGANIZATION ( #725, #902 ) ;
#122 = LINE ( 'NONE', #431, #351 ) ;
#123 = EDGE_CURVE ( 'NONE', #255, #250, #270, .T. ) ;
#124 = ORIENTED_EDGE ( 'NONE', *, *, #194, .T. ) ;
#125 = DIRECTION ( 'NONE',  ( 1.000000000000000000, 0.000000000000000000, 0.000000000000000000 ) ) ;
#126 = ORIENTED_EDGE ( 'NONE', *, *, #393, .F. ) ;
#127 = EDGE_CURVE ( 'NONE', #677, #368, #712, .T. ) ;
#128 = CARTESIAN_POINT ( 'NONE',  ( 0.000000000000000000, 16.25000000000000355, 0.000000000000000000 ) ) ;
#129 = ORIENTED_EDGE ( 'NONE', *, *, #454, .T. ) ;
#130 = AXIS2_PLACEMENT_3D ( 'NONE', #939, #69, #547 ) ;
#131 = DIRECTION ( 'NONE',  ( 1.000000000000000000, 0.000000000000000000, 0.000000000000000000 ) ) ;
#132 = VERTEX_POINT ( 'NONE', #183 ) ;
#133 = LINE ( 'NONE', #997, #271 ) ;
#134 = CARTESIAN_POINT ( 'NONE',  ( 18.25000000000001066, 0.2500000000000059397, -0.001000000000000132727 ) ) ;
#135 = ORIENTED_EDGE ( 'NONE', *, *, #698, .F. ) ;
#136 = FACE_OUTER_BOUND ( 'NONE', #236, .T. ) ;
#137 = CARTESIAN_POINT ( 'NONE',  ( -6.000000000000000888, 16.25000000000000355, 3.000000000000000000 ) ) ;
#138 = EDGE_LOOP ( 'NONE', ( #827, #985, #842, #374 ) ) ;
#139 = CYLINDRICAL_SURFACE ( 'NONE', #144, 1.499999999999999556 ) ;
#140 = DIRECTION ( 'NONE',  ( 1.000000000000000000, 0.000000000000000000, 0.000000000000000000 ) ) ;
#141 = EDGE_CURVE ( 'NONE', #191, #512, #396, .T. ) ;
#142 = AXIS2_PLACEMENT_3D ( 'NONE', #944, #373, #616 ) ;
#143 = ORIENTED_EDGE ( 'NONE', *, *, #344, .F. ) ;
#144 = AXIS2_PLACEMENT_3D ( 'NONE', #304, #449, #229 ) ;
#145 = DIRECTION ( 'NONE',  ( 0.000000000000000000, 0.000000000000000000, 1.000000000000000000 ) ) ;
#146 = DIRECTION ( 'NONE',  ( 1.000000000000000000, 0.000000000000000000, 0.000000000000000000 ) ) ;
#147 = VERTEX_POINT ( 'NONE', #482 ) ;
#148 = DIRECTION ( 'NONE',  ( 1.000000000000000000, 0.000000000000000000, 0.000000000000000000 ) ) ;
#149 = FACE_BOUND ( 'NONE', #169, .T. ) ;
#150 = FACE_OUTER_BOUND ( 'NONE', #994, .T. ) ;
#151 = VERTEX_POINT ( 'NONE', #8 ) ;
#152 = EDGE_CURVE ( 'NONE', #45, #709, #252, .T. ) ;
#153 = PLANE ( 'NONE',  #755 ) ;
#154 = CARTESIAN_POINT ( 'NONE',  ( 29.00000000000000000, -19.74999999999999645, -0.001000000000000132727 ) ) ;
#155 = ORIENTED_EDGE ( 'NONE', *, *, #11, .F. ) ;
#156 = CLOSED_SHELL ( 'NONE', ( #87, #484, #824, #480, #215, #594, #326, #228, #440, #856, #299, #514, #297, #477, #199, #1010, #937, #657, #928, #992, #1011, #90, #85, #163, #583, #404, #96, #819 ) ) ;
#157 = VECTOR ( 'NONE', #261, 1000.000000000000000 ) ;
#158 = APPLICATION_PROTOCOL_DEFINITION ( 'international standard', 'config_control_design', 1994, #573 ) ;
#159 = FACE_BOUND ( 'NONE', #232, .T. ) ;
#160 = VECTOR ( 'NONE', #438, 1000.000000000000000 ) ;
#161 = ORIENTED_EDGE ( 'NONE', *, *, #728, .F. ) ;
#162 = FACE_OUTER_BOUND ( 'NONE', #499, .T. ) ;
#163 = ADVANCED_FACE ( 'NONE', ( #717 ), #174, .F. ) ;
#164 = LINE ( 'NONE', #395, #157 ) ;
#165 = EDGE_CURVE ( 'NONE', #718, #284, #738, .T. ) ;
#166 = ORIENTED_EDGE ( 'NONE', *, *, #698, .T. ) ;
#167 = FACE_OUTER_BOUND ( 'NONE', #568, .T. ) ;
#168 = DIRECTION ( 'NONE',  ( -0.000000000000000000, -0.000000000000000000, 1.000000000000000000 ) ) ;
#169 = EDGE_LOOP ( 'NONE', ( #510, #579 ) ) ;
#170 = FACE_BOUND ( 'NONE', #74, .T. ) ;
#171 = VECTOR ( 'NONE', #927, 1000.000000000000000 ) ;
#172 = DIRECTION ( 'NONE',  ( -1.000000000000000000, 0.000000000000000000, 0.000000000000000000 ) ) ;
#173 = ORIENTED_EDGE ( 'NONE', *, *, #376, .T. ) ;
#174 = PLANE ( 'NONE',  #383 ) ;
#175 = CARTESIAN_POINT ( 'NONE',  ( 10.50000000000000178, -7.749999999999992006, -0.001000000000000132727 ) ) ;
#176 = ORIENTED_EDGE ( 'NONE', *, *, #853, .F. ) ;
#177 = CARTESIAN_POINT ( 'NONE',  ( -33.25000000000000000, 34.75000000000000000, 3.000000000000000000 ) ) ;
#178 = EDGE_LOOP ( 'NONE', ( #872, #434 ) ) ;
#179 = MECHANICAL_CONTEXT ( 'NONE', #523, 'mechanical' ) ;
#180 = EDGE_CURVE ( 'NONE', #71, #743, #964, .T. ) ;
#181 = LINE ( 'NONE', #639, #619 ) ;
#182 = ORIENTED_EDGE ( 'NONE', *, *, #471, .F. ) ;
#183 = CARTESIAN_POINT ( 'NONE',  ( -7.500000000000001776, -7.749999999999996447, 3.000000000000000000 ) ) ;
#184 = PERSON_AND_ORGANIZATION ( #725, #902 ) ;
#185 = AXIS2_PLACEMENT_3D ( 'NONE', #968, #580, #24 ) ;
#186 = VECTOR ( 'NONE', #606, 1000.000000000000000 ) ;
#187 = CARTESIAN_POINT ( 'NONE',  ( -28.25000000000001066, 3.250000000000007105, 0.000000000000000000 ) ) ;
#188 = AXIS2_PLACEMENT_3D ( 'NONE', #1020, #924, #459 ) ;
#189 = ORIENTED_EDGE ( 'NONE', *, *, #47, .F. ) ;
#190 = LINE ( 'NONE', #661, #114 ) ;
#191 = VERTEX_POINT ( 'NONE', #878 ) ;
#192 = CARTESIAN_POINT ( 'NONE',  ( 33.25000000000000000, 34.75000000000000000, 0.000000000000000000 ) ) ;
#193 = VECTOR ( 'NONE', #452, 1000.000000000000000 ) ;
#194 = EDGE_CURVE ( 'NONE', #490, #386, #724, .T. ) ;
#195 = DIRECTION ( 'NONE',  ( -0.000000000000000000, -0.000000000000000000, 1.000000000000000000 ) ) ;
#196 = EDGE_CURVE ( 'NONE', #846, #19, #552, .T. ) ;
#197 = EDGE_LOOP ( 'NONE', ( #129, #37, #348, #600 ) ) ;
#198 = CARTESIAN_POINT ( 'NONE',  ( 18.25000000000001066, 3.250000000000005773, 0.000000000000000000 ) ) ;
#199 = ADVANCED_FACE ( 'NONE', ( #29 ), #569, .F. ) ;
#200 = CARTESIAN_POINT ( 'NONE',  ( -28.25000000000001066, 3.250000000000007105, 3.000000000000000000 ) ) ;
#201 = VERTEX_POINT ( 'NONE', #14 ) ;
#202 = CARTESIAN_POINT ( 'NONE',  ( -18.25000000000001066, 0.2500000000000059397, 3.000000000000000000 ) ) ;
#203 = CARTESIAN_POINT ( 'NONE',  ( -28.25000000000001421, 0.2500000000000071609, -0.001000000000000132727 ) ) ;
#204 = ORIENTED_EDGE ( 'NONE', *, *, #180, .T. ) ;
#205 = PLANE ( 'NONE',  #946 ) ;
#206 = LINE ( 'NONE', #672, #590 ) ;
#207 = CIRCLE ( 'NONE', #681, 1.500000000000001332 ) ;
#208 = CARTESIAN_POINT ( 'NONE',  ( 9.000000000000001776, 25.25000000000000711, 3.000000000000000000 ) ) ;
#209 = ORIENTED_EDGE ( 'NONE', *, *, #853, .T. ) ;
#210 = LINE ( 'NONE', #811, #435 ) ;
#211 = DIRECTION ( 'NONE',  ( -0.000000000000000000, -0.000000000000000000, 1.000000000000000000 ) ) ;
#212 = LINE ( 'NONE', #532, #470 ) ;
#213 = ORIENTED_EDGE ( 'NONE', *, *, #981, .T. ) ;
#214 = PLANE ( 'NONE',  #795 ) ;
#215 = ADVANCED_FACE ( 'NONE', ( #18 ), #324, .F. ) ;
#216 = DIRECTION ( 'NONE',  ( 1.000000000000000000, 0.000000000000000000, 0.000000000000000000 ) ) ;
#217 = CARTESIAN_POINT ( 'NONE',  ( 27.50000000000000000, -19.74999999999999645, 0.000000000000000000 ) ) ;
#218 = ORIENTED_EDGE ( 'NONE', *, *, #76, .F. ) ;
#219 = CARTESIAN_POINT ( 'NONE',  ( 9.000000000000001776, -7.749999999999992006, 3.000000000000000000 ) ) ;
#220 = LINE ( 'NONE', #788, #193 ) ;
#221 = VECTOR ( 'NONE', #195, 1000.000000000000000 ) ;
#222 = ORIENTED_EDGE ( 'NONE', *, *, #180, .F. ) ;
#223 = LOCAL_TIME ( 18, 31, 29.00000000000000000, #423 ) ;
#224 = LINE ( 'NONE', #696, #253 ) ;
#225 = PRODUCT_DEFINITION_SHAPE ( 'NONE', 'NONE',  #321 ) ;
#226 = DIRECTION ( 'NONE',  ( 1.000000000000000000, -1.246832498358329606E-16, 0.000000000000000000 ) ) ;
#227 = ORIENTED_EDGE ( 'NONE', *, *, #2, .F. ) ;
#228 = ADVANCED_FACE ( 'NONE', ( #576, #954, #170, #95, #655, #800, #498, #963, #167, #243 ), #559, .T. ) ;
#229 = DIRECTION ( 'NONE',  ( 1.000000000000000000, 0.000000000000000000, 0.000000000000000000 ) ) ;
#230 = DIRECTION ( 'NONE',  ( -0.000000000000000000, -0.000000000000000000, 1.000000000000000000 ) ) ;
#231 = DIRECTION ( 'NONE',  ( -1.000000000000000000, 0.000000000000000000, 0.000000000000000000 ) ) ;
#232 = EDGE_LOOP ( 'NONE', ( #967, #617, #729, #506 ) ) ;
#233 = DIRECTION ( 'NONE',  ( -0.000000000000000000, 0.000000000000000000, 1.000000000000000000 ) ) ;
#234 = DIRECTION ( 'NONE',  ( -0.000000000000000000, -0.000000000000000000, 1.000000000000000000 ) ) ;
#235 = FACE_OUTER_BOUND ( 'NONE', #406, .T. ) ;
#236 = EDGE_LOOP ( 'NONE', ( #35, #542, #778, #218 ) ) ;
#237 = AXIS2_PLACEMENT_3D ( 'NONE', #391, #409, #245 ) ;
#238 = VECTOR ( 'NONE', #796, 1000.000000000000000 ) ;
#239 = DIRECTION ( 'NONE',  ( 0.000000000000000000, 0.000000000000000000, 1.000000000000000000 ) ) ;
#240 = PLANE ( 'NONE',  #237 ) ;
#241 = ORIENTED_EDGE ( 'NONE', *, *, #794, .F. ) ;
#242 = DIRECTION ( 'NONE',  ( 1.000000000000000000, 1.246832498358329606E-16, 0.000000000000000000 ) ) ;
#243 = FACE_BOUND ( 'NONE', #787, .T. ) ;
#244 = EDGE_CURVE ( 'NONE', #307, #497, #328, .T. ) ;
#245 = DIRECTION ( 'NONE',  ( 1.156482317317871331E-15, 1.000000000000000000, 0.000000000000000000 ) ) ;
#246 = VERTEX_POINT ( 'NONE', #476 ) ;
#247 = DIRECTION ( 'NONE',  ( 0.000000000000000000, 0.000000000000000000, 1.000000000000000000 ) ) ;
#248 = EDGE_LOOP ( 'NONE', ( #79, #597, #863, #330 ) ) ;
#249 = DIRECTION ( 'NONE',  ( -0.000000000000000000, -0.000000000000000000, -1.000000000000000000 ) ) ;
#250 = VERTEX_POINT ( 'NONE', #793 ) ;
#251 = CARTESIAN_POINT ( 'NONE',  ( 0.000000000000000000, 0.000000000000000000, 3.000000000000000000 ) ) ;
#252 = CIRCLE ( 'NONE', #836, 1.499999999999999556 ) ;
#253 = VECTOR ( 'NONE', #852, 1000.000000000000000 ) ;
#254 = LINE ( 'NONE', #653, #816 ) ;
#255 = VERTEX_POINT ( 'NONE', #89 ) ;
#256 = CARTESIAN_POINT ( 'NONE',  ( 27.50000000000000000, -19.74999999999999645, 3.000000000000000000 ) ) ;
#257 = EDGE_LOOP ( 'NONE', ( #28, #83, #327, #654 ) ) ;
#258 = EDGE_CURVE ( 'NONE', #368, #677, #59, .T. ) ;
#259 = CALENDAR_DATE ( 2026, 29, 8 ) ;
#260 = DIRECTION ( 'NONE',  ( 0.000000000000000000, 0.000000000000000000, 1.000000000000000000 ) ) ;
#261 = DIRECTION ( 'NONE',  ( -0.000000000000000000, -0.000000000000000000, 1.000000000000000000 ) ) ;
#262 = EDGE_LOOP ( 'NONE', ( #209, #319, #362, #586 ) ) ;
#263 = DIRECTION ( 'NONE',  ( 1.156482317317871331E-15, -1.000000000000000000, 0.000000000000000000 ) ) ;
#264 = ORIENTED_EDGE ( 'NONE', *, *, #1015, .F. ) ;
#265 = DATE_AND_TIME ( #84, #274 ) ;
#266 = DIRECTION ( 'NONE',  ( 1.996804001124382178E-16, -1.000000000000000000, 0.000000000000000000 ) ) ;
#267 = EDGE_LOOP ( 'NONE', ( #10, #1009, #876, #958 ) ) ;
#268 = DIRECTION ( 'NONE',  ( -0.000000000000000000, -0.000000000000000000, 1.000000000000000000 ) ) ;
#269 = EDGE_CURVE ( 'NONE', #817, #772, #354, .T. ) ;
#270 = CIRCLE ( 'NONE', #479, 1.500000000000001332 ) ;
#271 = VECTOR ( 'NONE', #908, 1000.000000000000000 ) ;
#272 = EDGE_CURVE ( 'NONE', #709, #45, #421, .T. ) ;
#273 = LINE ( 'NONE', #760, #450 ) ;
#274 = LOCAL_TIME ( 18, 31, 29.00000000000000000, #950 ) ;
#275 = ORIENTED_EDGE ( 'NONE', *, *, #748, .T. ) ;
#276 = LINE ( 'NONE', #288, #1006 ) ;
#277 = DIRECTION ( 'NONE',  ( -1.996804001124382178E-16, 1.000000000000000000, -0.000000000000000000 ) ) ;
#278 = DIRECTION ( 'NONE',  ( 0.000000000000000000, -0.000000000000000000, -1.000000000000000000 ) ) ;
#279 = ORIENTED_EDGE ( 'NONE', *, *, #961, .T. ) ;
#280 = DIRECTION ( 'NONE',  ( -0.000000000000000000, -0.000000000000000000, 1.000000000000000000 ) ) ;
#281 = VERTEX_POINT ( 'NONE', #527 ) ;
#282 = CARTESIAN_POINT ( 'NONE',  ( -28.25000000000001421, 0.2500000000000071609, -0.001000000000000132727 ) ) ;
#283 = FACE_OUTER_BOUND ( 'NONE', #592, .T. ) ;
#284 = VERTEX_POINT ( 'NONE', #446 ) ;
#285 = VECTOR ( 'NONE', #584, 1000.000000000000000 ) ;
#286 = DIRECTION ( 'NONE',  ( 1.000000000000000000, 0.000000000000000000, 0.000000000000000000 ) ) ;
#287 = AXIS2_PLACEMENT_3D ( 'NONE', #333, #644, #965 ) ;
#288 = CARTESIAN_POINT ( 'NONE',  ( -18.25000000000001066, 3.250000000000005773, -0.001000000000000132727 ) ) ;
#289 = ORIENTED_EDGE ( 'NONE', *, *, #272, .T. ) ;
#290 = EDGE_CURVE ( 'NONE', #339, #612, #276, .T. ) ;
#291 = DIRECTION ( 'NONE',  ( -0.000000000000000000, -0.000000000000000000, 1.000000000000000000 ) ) ;
#292 = FACE_OUTER_BOUND ( 'NONE', #603, .T. ) ;
#293 = ORIENTED_EDGE ( 'NONE', *, *, #843, .T. ) ;
#294 = FACE_OUTER_BOUND ( 'NONE', #197, .T. ) ;
#295 = CARTESIAN_POINT ( 'NONE',  ( 6.000000000000000888, 16.25000000000000355, -0.001000000000000132727 ) ) ;
#296 = ORIENTED_EDGE ( 'NONE', *, *, #745, .F. ) ;
#297 = ADVANCED_FACE ( 'NONE', ( #828 ), #841, .F. ) ;
#298 = CARTESIAN_POINT ( 'NONE',  ( 27.50000000000000000, -19.74999999999999645, 3.000000000000000000 ) ) ;
#299 = ADVANCED_FACE ( 'NONE', ( #283 ), #744, .F. ) ;
#300 = FACE_BOUND ( 'NONE', #684, .T. ) ;
#301 = AXIS2_PLACEMENT_3D ( 'NONE', #219, #770, #216 ) ;
#302 = ORIENTED_EDGE ( 'NONE', *, *, #999, .F. ) ;
#303 = PRODUCT_DEFINITION_FORMATION_WITH_SPECIFIED_SOURCE ( 'ANY', '', #877, .NOT_KNOWN. ) ;
#304 = CARTESIAN_POINT ( 'NONE',  ( -9.000000000000001776, 25.25000000000000711, -0.001000000000000132727 ) ) ;
#305 = FACE_BOUND ( 'NONE', #533, .T. ) ;
#306 = EDGE_CURVE ( 'NONE', #201, #358, #907, .T. ) ;
#307 = VERTEX_POINT ( 'NONE', #427 ) ;
#308 = DIRECTION ( 'NONE',  ( 1.996804001124382178E-16, -1.000000000000000000, 0.000000000000000000 ) ) ;
#309 = CARTESIAN_POINT ( 'NONE',  ( -33.25000000000000000, 34.75000000000000000, 0.000000000000000000 ) ) ;
#310 = ORIENTED_EDGE ( 'NONE', *, *, #777, .F. ) ;
#311 = CARTESIAN_POINT ( 'NONE',  ( 0.000000000000000000, 0.000000000000000000, 0.000000000000000000 ) ) ;
#312 = DIRECTION ( 'NONE',  ( 1.000000000000000000, 0.000000000000000000, 0.000000000000000000 ) ) ;
#313 = ORIENTED_EDGE ( 'NONE', *, *, #885, .T. ) ;
#314 = AXIS2_PLACEMENT_3D ( 'NONE', #16, #168, #474 ) ;
#315 = VECTOR ( 'NONE', #980, 1000.000000000000000 ) ;
#316 = EDGE_CURVE ( 'NONE', #673, #490, #676, .T. ) ;
#317 = DIRECTION ( 'NONE',  ( -0.000000000000000000, -0.000000000000000000, 1.000000000000000000 ) ) ;
#318 = VECTOR ( 'NONE', #995, 1000.000000000000000 ) ;
#319 = ORIENTED_EDGE ( 'NONE', *, *, #471, .T. ) ;
#320 = DIRECTION ( 'NONE',  ( -1.000000000000000000, -1.301042606982605321E-16, 0.000000000000000000 ) ) ;
#321 = PRODUCT_DEFINITION ( 'UNKNOWN', '', #303, #492 ) ;
#322 = DIRECTION ( 'NONE',  ( -0.000000000000000000, -0.000000000000000000, 1.000000000000000000 ) ) ;
#323 = ORIENTED_EDGE ( 'NONE', *, *, #742, .F. ) ;
#324 = CYLINDRICAL_SURFACE ( 'NONE', #185, 1.499999999999999556 ) ;
#325 = DIRECTION ( 'NONE',  ( -0.000000000000000000, -0.000000000000000000, -1.000000000000000000 ) ) ;
#326 = ADVANCED_FACE ( 'NONE', ( #54 ), #674, .F. ) ;
#327 = ORIENTED_EDGE ( 'NONE', *, *, #599, .T. ) ;
#328 = LINE ( 'NONE', #177, #984 ) ;
#329 = VECTOR ( 'NONE', #700, 1000.000000000000000 ) ;
#330 = ORIENTED_EDGE ( 'NONE', *, *, #999, .T. ) ;
#331 = VECTOR ( 'NONE', #211, 1000.000000000000000 ) ;
#332 = APPROVAL_ROLE ( '' ) ;
#333 = CARTESIAN_POINT ( 'NONE',  ( -9.000000000000001776, 25.25000000000000711, 0.000000000000000000 ) ) ;
#334 = ORIENTED_EDGE ( 'NONE', *, *, #643, .F. ) ;
#335 = DIRECTION ( 'NONE',  ( 0.000000000000000000, -0.000000000000000000, -1.000000000000000000 ) ) ;
#336 = VERTEX_POINT ( 'NONE', #198 ) ;
#337 = DATE_AND_TIME ( #556, #223 ) ;
#338 = DIRECTION ( 'NONE',  ( 1.000000000000000000, 0.000000000000000000, 0.000000000000000000 ) ) ;
#339 = VERTEX_POINT ( 'NONE', #910 ) ;
#340 = DIRECTION ( 'NONE',  ( -0.000000000000000000, -0.000000000000000000, 1.000000000000000000 ) ) ;
#341 = EDGE_CURVE ( 'NONE', #1018, #497, #758, .T. ) ;
#342 = EDGE_LOOP ( 'NONE', ( #302, #792 ) ) ;
#343 = DIRECTION ( 'NONE',  ( -1.156482317317871331E-15, 1.000000000000000000, 0.000000000000000000 ) ) ;
#344 = EDGE_CURVE ( 'NONE', #537, #109, #761, .T. ) ;
#345 = CARTESIAN_POINT ( 'NONE',  ( -26.00000000000000000, -19.74999999999999645, -0.001000000000000132727 ) ) ;
#346 = VERTEX_POINT ( 'NONE', #835 ) ;
#347 = PLANE ( 'NONE',  #371 ) ;
#348 = ORIENTED_EDGE ( 'NONE', *, *, #108, .F. ) ;
#349 = DIRECTION ( 'NONE',  ( 1.246832498358329606E-16, -1.000000000000000000, 0.000000000000000000 ) ) ;
#350 = AXIS2_PLACEMENT_3D ( 'NONE', #862, #466, #545 ) ;
#351 = VECTOR ( 'NONE', #1023, 1000.000000000000000 ) ;
#352 = DIRECTION ( 'NONE',  ( 0.000000000000000000, 1.000000000000000000, 0.000000000000000000 ) ) ;
#353 = ORIENTED_EDGE ( 'NONE', *, *, #638, .F. ) ;
#354 = LINE ( 'NONE', #987, #609 ) ;
#355 = DIRECTION ( 'NONE',  ( 0.000000000000000000, 0.000000000000000000, 1.000000000000000000 ) ) ;
#356 = CARTESIAN_POINT ( 'NONE',  ( 29.00000000000000000, -19.74999999999999645, 3.000000000000000000 ) ) ;
#357 = DIRECTION ( 'NONE',  ( 0.000000000000000000, -0.000000000000000000, -1.000000000000000000 ) ) ;
#358 = VERTEX_POINT ( 'NONE', #137 ) ;
#359 = DIRECTION ( 'NONE',  ( -0.000000000000000000, -0.000000000000000000, 1.000000000000000000 ) ) ;
#360 = DIRECTION ( 'NONE',  ( -0.000000000000000000, -0.000000000000000000, 1.000000000000000000 ) ) ;
#361 = EDGE_CURVE ( 'NONE', #19, #846, #64, .T. ) ;
#362 = ORIENTED_EDGE ( 'NONE', *, *, #742, .T. ) ;
#363 = PERSON_AND_ORGANIZATION ( #725, #902 ) ;
#364 = DIRECTION ( 'NONE',  ( -1.156482317317871331E-15, 1.000000000000000000, 0.000000000000000000 ) ) ;
#365 = VECTOR ( 'NONE', #364, 1000.000000000000000 ) ;
#366 = FACE_OUTER_BOUND ( 'NONE', #942, .T. ) ;
#367 = CARTESIAN_POINT ( 'NONE',  ( 9.000000000000001776, -7.749999999999992006, -0.001000000000000132727 ) ) ;
#368 = VERTEX_POINT ( 'NONE', #58 ) ;
#369 = CALENDAR_DATE ( 2026, 29, 8 ) ;
#370 = AXIS2_PLACEMENT_3D ( 'NONE', #914, #280, #36 ) ;
#371 = AXIS2_PLACEMENT_3D ( 'NONE', #44, #49, #688 ) ;
#372 = CYLINDRICAL_SURFACE ( 'NONE', #699, 1.500000000000001332 ) ;
#373 = DIRECTION ( 'NONE',  ( 1.000000000000000000, 1.996804001124382178E-16, -0.000000000000000000 ) ) ;
#374 = ORIENTED_EDGE ( 'NONE', *, *, #599, .F. ) ;
#375 = APPROVAL_DATE_TIME ( #837, #381 ) ;
#376 = EDGE_CURVE ( 'NONE', #147, #1022, #869, .T. ) ;
#377 = EDGE_CURVE ( 'NONE', #336, #528, #212, .T. ) ;
#378 = DIRECTION ( 'NONE',  ( 0.000000000000000000, 0.000000000000000000, 1.000000000000000000 ) ) ;
#379 = PLANE ( 'NONE',  #508 ) ;
#380 = EDGE_LOOP ( 'NONE', ( #66, #1003 ) ) ;
#381 = APPROVAL ( #67, 'UNSPECIFIED' ) ;
#382 = CARTESIAN_POINT ( 'NONE',  ( 33.25000000000000000, 34.75000000000000000, 3.000000000000000000 ) ) ;
#383 = AXIS2_PLACEMENT_3D ( 'NONE', #972, #407, #320 ) ;
#384 = CARTESIAN_POINT ( 'NONE',  ( -33.24999999999998579, -34.75000000000000000, 0.000000000000000000 ) ) ;
#385 = CIRCLE ( 'NONE', #43, 1.500000000000001332 ) ;
#386 = VERTEX_POINT ( 'NONE', #433 ) ;
#387 = CARTESIAN_POINT ( 'NONE',  ( 28.25000000000001421, 0.2500000000000071609, 3.000000000000000000 ) ) ;
#388 = LINE ( 'NONE', #384, #735 ) ;
#389 = ORIENTED_EDGE ( 'NONE', *, *, #524, .F. ) ;
#390 = APPROVAL_DATE_TIME ( #337, #408 ) ;
#391 = CARTESIAN_POINT ( 'NONE',  ( -28.25000000000001421, 0.2500000000000071609, -0.001000000000000132727 ) ) ;
#392 = ORIENTED_EDGE ( 'NONE', *, *, #306, .T. ) ;
#393 = EDGE_CURVE ( 'NONE', #701, #426, #190, .T. ) ;
#394 = DIRECTION ( 'NONE',  ( 1.000000000000000000, 0.000000000000000000, 0.000000000000000000 ) ) ;
#395 = CARTESIAN_POINT ( 'NONE',  ( 7.500000000000000888, -7.749999999999992006, -0.001000000000000132727 ) ) ;
#396 = CIRCLE ( 'NONE', #464, 1.499999999999999556 ) ;
#397 = VERTEX_POINT ( 'NONE', #823 ) ;
#398 = CARTESIAN_POINT ( 'NONE',  ( -9.000000000000001776, -7.749999999999996447, 0.000000000000000000 ) ) ;
#399 = VECTOR ( 'NONE', #34, 1000.000000000000000 ) ;
#400 = LOCAL_TIME ( 18, 31, 29.00000000000000000, #969 ) ;
#401 = CARTESIAN_POINT ( 'NONE',  ( -27.50000000000000000, -19.74999999999999645, 0.000000000000000000 ) ) ;
#402 = ORIENTED_EDGE ( 'NONE', *, *, #614, .F. ) ;
#403 = CARTESIAN_POINT ( 'NONE',  ( -9.000000000000001776, -7.749999999999996447, 0.000000000000000000 ) ) ;
#404 = ADVANCED_FACE ( 'NONE', ( #119 ), #347, .T. ) ;
#405 = CARTESIAN_POINT ( 'NONE',  ( -10.50000000000000000, -7.749999999999996447, 0.000000000000000000 ) ) ;
#406 = EDGE_LOOP ( 'NONE', ( #334, #447, #1025, #310 ) ) ;
#407 = DIRECTION ( 'NONE',  ( -1.301042606982605321E-16, 1.000000000000000000, 0.000000000000000000 ) ) ;
#408 = APPROVAL ( #865, 'UNSPECIFIED' ) ;
#409 = DIRECTION ( 'NONE',  ( 1.000000000000000000, -1.156482317317871331E-15, 0.000000000000000000 ) ) ;
#410 = ORIENTED_EDGE ( 'NONE', *, *, #76, .T. ) ;
#411 = CARTESIAN_POINT ( 'NONE',  ( 28.25000000000001421, 0.2500000000000071609, 0.000000000000000000 ) ) ;
#412 = VECTOR ( 'NONE', #226, 1000.000000000000000 ) ;
#413 = ORIENTED_EDGE ( 'NONE', *, *, #316, .T. ) ;
#414 = VECTOR ( 'NONE', #815, 1000.000000000000000 ) ;
#415 = APPLICATION_PROTOCOL_DEFINITION ( 'international standard', 'config_control_design', 1994, #523 ) ;
#416 = CIRCLE ( 'NONE', #838, 6.000000000000000888 ) ;
#417 = CARTESIAN_POINT ( 'NONE',  ( 10.50000000000000178, -7.749999999999992006, 3.000000000000000000 ) ) ;
#418 = EDGE_CURVE ( 'NONE', #575, #151, #388, .T. ) ;
#419 = ORIENTED_EDGE ( 'NONE', *, *, #638, .T. ) ;
#420 = DIRECTION ( 'NONE',  ( 1.000000000000000000, 0.000000000000000000, 0.000000000000000000 ) ) ;
#421 = CIRCLE ( 'NONE', #469, 1.499999999999999556 ) ;
#422 = ORIENTED_EDGE ( 'NONE', *, *, #636, .F. ) ;
#423 = COORDINATED_UNIVERSAL_TIME_OFFSET ( 5, 30, .AHEAD. ) ;
#424 = CARTESIAN_POINT ( 'NONE',  ( -7.500000000000001776, 25.25000000000000711, -0.001000000000000132727 ) ) ;
#425 = CARTESIAN_POINT ( 'NONE',  ( 28.25000000000001066, 3.250000000000007105, 0.000000000000000000 ) ) ;
#426 = VERTEX_POINT ( 'NONE', #465 ) ;
#427 = CARTESIAN_POINT ( 'NONE',  ( -33.25000000000000000, 34.75000000000000000, 3.000000000000000000 ) ) ;
#428 = ORIENTED_EDGE ( 'NONE', *, *, #570, .T. ) ;
#429 = EDGE_CURVE ( 'NONE', #284, #386, #220, .T. ) ;
#430 = ORIENTED_EDGE ( 'NONE', *, *, #393, .T. ) ;
#431 = CARTESIAN_POINT ( 'NONE',  ( -28.25000000000001421, 0.2500000000000071609, 0.000000000000000000 ) ) ;
#432 = ORIENTED_EDGE ( 'NONE', *, *, #429, .F. ) ;
#433 = CARTESIAN_POINT ( 'NONE',  ( 28.25000000000001421, 0.2500000000000071609, 3.000000000000000000 ) ) ;
#434 = ORIENTED_EDGE ( 'NONE', *, *, #897, .F. ) ;
#435 = VECTOR ( 'NONE', #266, 1000.000000000000000 ) ;
#436 = LINE ( 'NONE', #345, #850 ) ;
#437 = LOCAL_TIME ( 18, 31, 29.00000000000000000, #831 ) ;
#438 = DIRECTION ( 'NONE',  ( -0.000000000000000000, -0.000000000000000000, 1.000000000000000000 ) ) ;
#439 = ORIENTED_EDGE ( 'NONE', *, *, #152, .T. ) ;
#440 = ADVANCED_FACE ( 'NONE', ( #771, #541, #70, #456, #776, #305, #300, #149, #159, #621 ), #379, .F. ) ;
#441 = LINE ( 'NONE', #504, #949 ) ;
#442 = CARTESIAN_POINT ( 'NONE',  ( -33.24999999999998579, -34.75000000000000000, 3.000000000000000000 ) ) ;
#443 = ORIENTED_EDGE ( 'NONE', *, *, #635, .F. ) ;
#444 = CARTESIAN_POINT ( 'NONE',  ( -27.50000000000000000, -19.74999999999999645, -0.001000000000000132727 ) ) ;
#445 = DIRECTION ( 'NONE',  ( 0.000000000000000000, 1.000000000000000000, 0.000000000000000000 ) ) ;
#446 = CARTESIAN_POINT ( 'NONE',  ( 28.25000000000001421, 0.2500000000000071609, -4.235164736271501695E-19 ) ) ;
#447 = ORIENTED_EDGE ( 'NONE', *, *, #670, .T. ) ;
#448 = CARTESIAN_POINT ( 'NONE',  ( 28.25000000000001421, 0.2500000000000071609, -0.001000000000000132727 ) ) ;
#449 = DIRECTION ( 'NONE',  ( -0.000000000000000000, -0.000000000000000000, 1.000000000000000000 ) ) ;
#450 = VECTOR ( 'NONE', #352, 1000.000000000000000 ) ;
#451 = EDGE_CURVE ( 'NONE', #813, #720, #685, .T. ) ;
#452 = DIRECTION ( 'NONE',  ( -0.000000000000000000, -0.000000000000000000, 1.000000000000000000 ) ) ;
#453 = ORIENTED_EDGE ( 'NONE', *, *, #794, .T. ) ;
#454 = EDGE_CURVE ( 'NONE', #151, #1018, #628, .T. ) ;
#455 = LINE ( 'NONE', #610, #731 ) ;
#456 = FACE_BOUND ( 'NONE', #825, .T. ) ;
#457 = EDGE_LOOP ( 'NONE', ( #887, #923, #739, #806 ) ) ;
#458 = CARTESIAN_POINT ( 'NONE',  ( -28.25000000000001421, 0.2500000000000071609, 3.000000000000000000 ) ) ;
#459 = DIRECTION ( 'NONE',  ( 1.000000000000000000, 0.000000000000000000, 0.000000000000000000 ) ) ;
#460 = LINE ( 'NONE', #295, #697 ) ;
#461 = PLANE ( 'NONE',  #695 ) ;
#462 = ORIENTED_EDGE ( 'NONE', *, *, #535, .T. ) ;
#463 = DIRECTION ( 'NONE',  ( 1.000000000000000000, 0.000000000000000000, 0.000000000000000000 ) ) ;
#464 = AXIS2_PLACEMENT_3D ( 'NONE', #103, #730, #959 ) ;
#465 = CARTESIAN_POINT ( 'NONE',  ( 33.25000000000001421, -34.75000000000000000, 3.000000000000000000 ) ) ;
#466 = DIRECTION ( 'NONE',  ( -0.000000000000000000, -0.000000000000000000, 1.000000000000000000 ) ) ;
#467 = AXIS2_PLACEMENT_3D ( 'NONE', #12, #322, #886 ) ;
#468 = ORIENTED_EDGE ( 'NONE', *, *, #429, .T. ) ;
#469 = AXIS2_PLACEMENT_3D ( 'NONE', #845, #519, #607 ) ;
#470 = VECTOR ( 'NONE', #507, 1000.000000000000000 ) ;
#471 = EDGE_CURVE ( 'NONE', #537, #911, #936, .T. ) ;
#472 = FACE_OUTER_BOUND ( 'NONE', #138, .T. ) ;
#473 = EDGE_LOOP ( 'NONE', ( #706, #293, #173, #799 ) ) ;
#474 = DIRECTION ( 'NONE',  ( 1.000000000000000000, 0.000000000000000000, 0.000000000000000000 ) ) ;
#475 = ORIENTED_EDGE ( 'NONE', *, *, #244, .F. ) ;
#476 = CARTESIAN_POINT ( 'NONE',  ( 6.000000000000000888, 16.25000000000000355, 0.000000000000000000 ) ) ;
#477 = ADVANCED_FACE ( 'NONE', ( #1013 ), #1021, .F. ) ;
#478 = CARTESIAN_POINT ( 'NONE',  ( 18.25000000000001066, 0.2500000000000059397, 3.000000000000000000 ) ) ;
#479 = AXIS2_PLACEMENT_3D ( 'NONE', #875, #803, #894 ) ;
#480 = ADVANCED_FACE ( 'NONE', ( #472 ), #536, .F. ) ;
#481 = ORIENTED_EDGE ( 'NONE', *, *, #981, .F. ) ;
#482 = CARTESIAN_POINT ( 'NONE',  ( 7.500000000000000000, 25.25000000000000711, 3.000000000000000000 ) ) ;
#483 = VECTOR ( 'NONE', #317, 1000.000000000000000 ) ;
#484 = ADVANCED_FACE ( 'NONE', ( #292 ), #624, .F. ) ;
#485 = AXIS2_PLACEMENT_3D ( 'NONE', #311, #239, #668 ) ;
#486 = CARTESIAN_POINT ( 'NONE',  ( 18.25000000000001066, 0.2500000000000059397, -4.235164736271501695E-19 ) ) ;
#487 = ORIENTED_EDGE ( 'NONE', *, *, #269, .T. ) ;
#488 = DIRECTION ( 'NONE',  ( 1.000000000000000000, 0.000000000000000000, 0.000000000000000000 ) ) ;
#489 = LINE ( 'NONE', #578, #60 ) ;
#490 = VERTEX_POINT ( 'NONE', #848 ) ;
#491 = DIRECTION ( 'NONE',  ( -0.000000000000000000, -0.000000000000000000, -1.000000000000000000 ) ) ;
#492 = DESIGN_CONTEXT ( 'detailed design', #573, 'design' ) ;
#493 = ORIENTED_EDGE ( 'NONE', *, *, #728, .T. ) ;
#494 = PERSON_AND_ORGANIZATION ( #725, #902 ) ;
#495 = CARTESIAN_POINT ( 'NONE',  ( 28.25000000000001421, 0.2500000000000071609, 0.000000000000000000 ) ) ;
#496 = CARTESIAN_POINT ( 'NONE',  ( 0.000000000000000000, 16.25000000000000355, 3.000000000000000000 ) ) ;
#497 = VERTEX_POINT ( 'NONE', #309 ) ;
#498 = FACE_BOUND ( 'NONE', #342, .T. ) ;
#499 = EDGE_LOOP ( 'NONE', ( #118, #88, #120, #323 ) ) ;
#500 = PERSON_AND_ORGANIZATION ( #725, #902 ) ;
#501 = VECTOR ( 'NONE', #925, 1000.000000000000000 ) ;
#502 = CIRCLE ( 'NONE', #62, 1.500000000000001332 ) ;
#503 = CARTESIAN_POINT ( 'NONE',  ( -10.50000000000000000, 25.25000000000000711, 3.000000000000000000 ) ) ;
#504 = CARTESIAN_POINT ( 'NONE',  ( -18.25000000000001066, 0.2500000000000059397, 3.000000000000000000 ) ) ;
#505 = EDGE_CURVE ( 'NONE', #246, #564, #460, .T. ) ;
#506 = ORIENTED_EDGE ( 'NONE', *, *, #68, .F. ) ;
#507 = DIRECTION ( 'NONE',  ( -0.000000000000000000, -0.000000000000000000, 1.000000000000000000 ) ) ;
#508 = AXIS2_PLACEMENT_3D ( 'NONE', #861, #940, #693 ) ;
#509 =( NAMED_UNIT ( * ) PLANE_ANGLE_UNIT ( ) SI_UNIT ( $, .RADIAN. ) );
#510 = ORIENTED_EDGE ( 'NONE', *, *, #123, .T. ) ;
#511 = CARTESIAN_POINT ( 'NONE',  ( 9.000000000000001776, -7.749999999999992006, 3.000000000000000000 ) ) ;
#512 = VERTEX_POINT ( 'NONE', #553 ) ;
#513 = DIRECTION ( 'NONE',  ( -1.000000000000000000, -0.000000000000000000, -0.000000000000000000 ) ) ;
#514 = ADVANCED_FACE ( 'NONE', ( #611 ), #1024, .F. ) ;
#515 = EDGE_LOOP ( 'NONE', ( #789, #111, #126, #883 ) ) ;
#516 = DATE_AND_TIME ( #369, #620 ) ;
#517 = DIRECTION ( 'NONE',  ( 1.000000000000000000, 0.000000000000000000, 0.000000000000000000 ) ) ;
#518 = ORIENTED_EDGE ( 'NONE', *, *, #194, .F. ) ;
#519 = DIRECTION ( 'NONE',  ( 0.000000000000000000, 0.000000000000000000, 1.000000000000000000 ) ) ;
#520 = UNCERTAINTY_MEASURE_WITH_UNIT (LENGTH_MEASURE( 1.000000000000000082E-05 ), #589, 'distance_accuracy_value', 'NONE');
#521 = ORIENTED_EDGE ( 'NONE', *, *, #141, .F. ) ;
#522 = AXIS2_PLACEMENT_3D ( 'NONE', #367, #1007, #146 ) ;
#523 = APPLICATION_CONTEXT ( 'configuration controlled 3d designs of mechanical parts and assemblies' ) ;
#524 = EDGE_CURVE ( 'NONE', #201, #246, #4, .T. ) ;
#525 = CIRCLE ( 'NONE', #881, 1.499999999999999556 ) ;
#526 = DIRECTION ( 'NONE',  ( -0.000000000000000000, -0.000000000000000000, 1.000000000000000000 ) ) ;
#527 = CARTESIAN_POINT ( 'NONE',  ( -26.00000000000000000, -19.74999999999999645, 3.000000000000000000 ) ) ;
#528 = VERTEX_POINT ( 'NONE', #867 ) ;
#529 = APPROVAL ( #582, 'UNSPECIFIED' ) ;
#530 = CARTESIAN_POINT ( 'NONE',  ( 27.50000000000000000, -19.74999999999999645, -0.001000000000000132727 ) ) ;
#531 = DIRECTION ( 'NONE',  ( -1.000000000000000000, 0.000000000000000000, 0.000000000000000000 ) ) ;
#532 = CARTESIAN_POINT ( 'NONE',  ( 18.25000000000001066, 3.250000000000005773, -0.001000000000000132727 ) ) ;
#533 = EDGE_LOOP ( 'NONE', ( #833, #751 ) ) ;
#534 = FACE_OUTER_BOUND ( 'NONE', #726, .T. ) ;
#535 = EDGE_CURVE ( 'NONE', #720, #71, #548, .T. ) ;
#536 = CYLINDRICAL_SURFACE ( 'NONE', #522, 1.500000000000001332 ) ;
#537 = VERTEX_POINT ( 'NONE', #566 ) ;
#538 = FACE_OUTER_BOUND ( 'NONE', #257, .T. ) ;
#539 = AXIS2_PLACEMENT_3D ( 'NONE', #282, #1001, #821 ) ;
#540 = APPROVAL_PERSON_ORGANIZATION ( #363, #381, #46 ) ;
#541 = FACE_BOUND ( 'NONE', #622, .T. ) ;
#542 = ORIENTED_EDGE ( 'NONE', *, *, #123, .F. ) ;
#543 = CARTESIAN_POINT ( 'NONE',  ( 33.25000000000000000, 34.75000000000000000, 3.000000000000000000 ) ) ;
#544 = DIRECTION ( 'NONE',  ( -0.000000000000000000, -0.000000000000000000, 1.000000000000000000 ) ) ;
#545 = DIRECTION ( 'NONE',  ( 1.000000000000000000, 0.000000000000000000, 0.000000000000000000 ) ) ;
#546 = ORIENTED_EDGE ( 'NONE', *, *, #635, .T. ) ;
#547 = DIRECTION ( 'NONE',  ( 1.000000000000000000, 0.000000000000000000, 0.000000000000000000 ) ) ;
#548 = LINE ( 'NONE', #154, #501 ) ;
#549 = DIRECTION ( 'NONE',  ( 0.000000000000000000, 0.000000000000000000, 1.000000000000000000 ) ) ;
#550 = ORIENTED_EDGE ( 'NONE', *, *, #748, .F. ) ;
#551 = CARTESIAN_POINT ( 'NONE',  ( 0.000000000000000000, 16.25000000000000355, 3.000000000000000000 ) ) ;
#552 = CIRCLE ( 'NONE', #105, 1.500000000000001332 ) ;
#553 = CARTESIAN_POINT ( 'NONE',  ( -10.50000000000000000, 25.25000000000000711, 0.000000000000000000 ) ) ;
#554 = VECTOR ( 'NONE', #957, 1000.000000000000000 ) ;
#555 = ORIENTED_EDGE ( 'NONE', *, *, #377, .F. ) ;
#556 = CALENDAR_DATE ( 2026, 29, 8 ) ;
#557 = CARTESIAN_POINT ( 'NONE',  ( 28.25000000000001066, 3.250000000000007105, 0.000000000000000000 ) ) ;
#558 = ORIENTED_EDGE ( 'NONE', *, *, #377, .T. ) ;
#559 = PLANE ( 'NONE',  #630 ) ;
#560 = EDGE_CURVE ( 'NONE', #346, #397, #164, .T. ) ;
#561 = EDGE_CURVE ( 'NONE', #962, #346, #22, .T. ) ;
#562 = LINE ( 'NONE', #478, #238 ) ;
#563 = EDGE_CURVE ( 'NONE', #701, #575, #489, .T. ) ;
#564 = VERTEX_POINT ( 'NONE', #871 ) ;
#565 = DIRECTION ( 'NONE',  ( 0.000000000000000000, -0.000000000000000000, -1.000000000000000000 ) ) ;
#566 = CARTESIAN_POINT ( 'NONE',  ( -28.25000000000001421, 0.2500000000000071609, 0.000000000000000000 ) ) ;
#567 = AXIS2_PLACEMENT_3D ( 'NONE', #912, #260, #749 ) ;
#568 = EDGE_LOOP ( 'NONE', ( #625, #822, #588, #430 ) ) ;
#569 = CYLINDRICAL_SURFACE ( 'NONE', #812, 1.500000000000001332 ) ;
#570 = EDGE_CURVE ( 'NONE', #336, #718, #880, .T. ) ;
#571 = AXIS2_PLACEMENT_3D ( 'NONE', #530, #291, #623 ) ;
#572 = CC_DESIGN_SECURITY_CLASSIFICATION ( #851, ( #303 ) ) ;
#573 = APPLICATION_CONTEXT ( 'configuration controlled 3d designs of mechanical parts and assemblies' ) ;
#574 = DIRECTION ( 'NONE',  ( -0.000000000000000000, -0.000000000000000000, 1.000000000000000000 ) ) ;
#575 = VERTEX_POINT ( 'NONE', #6 ) ;
#576 = FACE_BOUND ( 'NONE', #664, .T. ) ;
#577 = DATE_AND_TIME ( #259, #400 ) ;
#578 = CARTESIAN_POINT ( 'NONE',  ( -33.24999999999998579, -34.75000000000000000, 3.000000000000000000 ) ) ;
#579 = ORIENTED_EDGE ( 'NONE', *, *, #643, .T. ) ;
#580 = DIRECTION ( 'NONE',  ( -0.000000000000000000, -0.000000000000000000, 1.000000000000000000 ) ) ;
#581 = ORIENTED_EDGE ( 'NONE', *, *, #344, .T. ) ;
#582 = APPROVAL_STATUS ( 'not_yet_approved' ) ;
#583 = ADVANCED_FACE ( 'NONE', ( #892 ), #240, .T. ) ;
#584 = DIRECTION ( 'NONE',  ( -0.000000000000000000, -0.000000000000000000, 1.000000000000000000 ) ) ;
#585 = DIRECTION ( 'NONE',  ( -1.000000000000000000, -0.000000000000000000, -0.000000000000000000 ) ) ;
#586 = ORIENTED_EDGE ( 'NONE', *, *, #947, .T. ) ;
#587 = CARTESIAN_POINT ( 'NONE',  ( -33.25000000000000000, 34.75000000000000000, 0.000000000000000000 ) ) ;
#588 = ORIENTED_EDGE ( 'NONE', *, *, #745, .T. ) ;
#589 =( LENGTH_UNIT ( ) NAMED_UNIT ( * ) SI_UNIT ( .MILLI., .METRE. ) );
#590 = VECTOR ( 'NONE', #839, 1000.000000000000000 ) ;
#591 = LINE ( 'NONE', #904, #221 ) ;
#592 = EDGE_LOOP ( 'NONE', ( #723, #475, #634, #102 ) ) ;
#593 = DIRECTION ( 'NONE',  ( 0.000000000000000000, -1.000000000000000000, 0.000000000000000000 ) ) ;
#594 = ADVANCED_FACE ( 'NONE', ( #727 ), #874, .F. ) ;
#595 = DIRECTION ( 'NONE',  ( 0.000000000000000000, -1.000000000000000000, -0.000000000000000000 ) ) ;
#596 = ADVANCED_BREP_SHAPE_REPRESENTATION ( 'Lid_Default_sldprt', ( #115, #485 ), #934 ) ;
#597 = ORIENTED_EDGE ( 'NONE', *, *, #196, .T. ) ;
#598 = CARTESIAN_POINT ( 'NONE',  ( -6.000000000000000888, 16.25000000000000355, -0.001000000000000132727 ) ) ;
#599 = EDGE_CURVE ( 'NONE', #962, #767, #21, .T. ) ;
#600 = ORIENTED_EDGE ( 'NONE', *, *, #1026, .T. ) ;
#601 = CARTESIAN_POINT ( 'NONE',  ( -9.000000000000001776, -7.749999999999996447, -0.001000000000000132727 ) ) ;
#602 = DIRECTION ( 'NONE',  ( 0.000000000000000000, -0.000000000000000000, -1.000000000000000000 ) ) ;
#603 = EDGE_LOOP ( 'NONE', ( #1014, #493, #279, #705 ) ) ;
#604 = AXIS2_PLACEMENT_3D ( 'NONE', #256, #247, #650 ) ;
#605 = VECTOR ( 'NONE', #585, 1000.000000000000000 ) ;
#606 = DIRECTION ( 'NONE',  ( -0.000000000000000000, -0.000000000000000000, 1.000000000000000000 ) ) ;
#607 = DIRECTION ( 'NONE',  ( 1.000000000000000000, 0.000000000000000000, 0.000000000000000000 ) ) ;
#608 = EDGE_LOOP ( 'NONE', ( #581, #931, #25, #182 ) ) ;
#609 = VECTOR ( 'NONE', #268, 1000.000000000000000 ) ;
#610 = CARTESIAN_POINT ( 'NONE',  ( -28.25000000000001066, 3.250000000000007105, 0.000000000000000000 ) ) ;
#611 = FACE_OUTER_BOUND ( 'NONE', #977, .T. ) ;
#612 = VERTEX_POINT ( 'NONE', #708 ) ;
#613 = SHAPE_DEFINITION_REPRESENTATION ( #225, #596 ) ;
#614 = EDGE_CURVE ( 'NONE', #677, #989, #791, .T. ) ;
#615 = CARTESIAN_POINT ( 'NONE',  ( -7.500000000000001776, -7.749999999999996447, -0.001000000000000132727 ) ) ;
#616 = DIRECTION ( 'NONE',  ( -1.996804001124382178E-16, 1.000000000000000000, 0.000000000000000000 ) ) ;
#617 = ORIENTED_EDGE ( 'NONE', *, *, #165, .F. ) ;
#618 = DIRECTION ( 'NONE',  ( -0.000000000000000000, -0.000000000000000000, 1.000000000000000000 ) ) ;
#619 = VECTOR ( 'NONE', #970, 1000.000000000000000 ) ;
#620 = LOCAL_TIME ( 18, 31, 29.00000000000000000, #32 ) ;
#621 = FACE_BOUND ( 'NONE', #262, .T. ) ;
#622 = EDGE_LOOP ( 'NONE', ( #855, #389 ) ) ;
#623 = DIRECTION ( 'NONE',  ( 1.000000000000000000, 0.000000000000000000, 0.000000000000000000 ) ) ;
#624 = CYLINDRICAL_SURFACE ( 'NONE', #866, 1.500000000000001332 ) ;
#625 = ORIENTED_EDGE ( 'NONE', *, *, #108, .T. ) ;
#626 = EDGE_CURVE ( 'NONE', #55, #109, #181, .T. ) ;
#627 = CARTESIAN_POINT ( 'NONE',  ( -28.25000000000001066, 3.250000000000007105, 3.000000000000000000 ) ) ;
#628 = LINE ( 'NONE', #786, #329 ) ;
#629 = ORIENTED_EDGE ( 'NONE', *, *, #710, .T. ) ;
#630 = AXIS2_PLACEMENT_3D ( 'NONE', #251, #888, #488 ) ;
#631 = FACE_OUTER_BOUND ( 'NONE', #660, .T. ) ;
#632 = VECTOR ( 'NONE', #574, 1000.000000000000000 ) ;
#633 = CIRCLE ( 'NONE', #882, 6.000000000000000888 ) ;
#634 = ORIENTED_EDGE ( 'NONE', *, *, #779, .F. ) ;
#635 = EDGE_CURVE ( 'NONE', #358, #564, #416, .T. ) ;
#636 = EDGE_CURVE ( 'NONE', #497, #575, #805, .T. ) ;
#637 = AXIS2_PLACEMENT_3D ( 'NONE', #1002, #978, #901 ) ;
#638 = EDGE_CURVE ( 'NONE', #528, #490, #562, .T. ) ;
#639 = CARTESIAN_POINT ( 'NONE',  ( -28.25000000000001421, 0.2500000000000071609, 3.000000000000000000 ) ) ;
#640 = ORIENTED_EDGE ( 'NONE', *, *, #141, .T. ) ;
#641 = DIRECTION ( 'NONE',  ( 1.000000000000000000, 0.000000000000000000, 0.000000000000000000 ) ) ;
#642 = DIRECTION ( 'NONE',  ( -1.000000000000000000, 0.000000000000000000, -0.000000000000000000 ) ) ;
#643 = EDGE_CURVE ( 'NONE', #250, #255, #385, .T. ) ;
#644 = DIRECTION ( 'NONE',  ( 0.000000000000000000, -0.000000000000000000, -1.000000000000000000 ) ) ;
#645 = EDGE_LOOP ( 'NONE', ( #802, #410 ) ) ;
#646 = DIRECTION ( 'NONE',  ( 0.000000000000000000, 0.000000000000000000, 1.000000000000000000 ) ) ;
#647 = CARTESIAN_POINT ( 'NONE',  ( -10.50000000000000000, -7.749999999999996447, -0.001000000000000132727 ) ) ;
#648 = VECTOR ( 'NONE', #116, 1000.000000000000000 ) ;
#649 = ORIENTED_EDGE ( 'NONE', *, *, #290, .T. ) ;
#650 = DIRECTION ( 'NONE',  ( 1.000000000000000000, 0.000000000000000000, 0.000000000000000000 ) ) ;
#651 = CIRCLE ( 'NONE', #986, 1.500000000000001332 ) ;
#652 = APPROVAL_ROLE ( '' ) ;
#653 = CARTESIAN_POINT ( 'NONE',  ( -29.00000000000000000, -19.74999999999999645, -0.001000000000000132727 ) ) ;
#654 = ORIENTED_EDGE ( 'NONE', *, *, #804, .T. ) ;
#655 = FACE_BOUND ( 'NONE', #178, .T. ) ;
#656 = EDGE_LOOP ( 'NONE', ( #759, #468, #213, #241 ) ) ;
#657 = ADVANCED_FACE ( 'NONE', ( #631 ), #719, .F. ) ;
#658 = DATE_TIME_ROLE ( 'creation_date' ) ;
#659 = DIRECTION ( 'NONE',  ( 1.000000000000000000, 0.000000000000000000, 0.000000000000000000 ) ) ;
#660 = EDGE_LOOP ( 'NONE', ( #402, #906, #895, #7 ) ) ;
#661 = CARTESIAN_POINT ( 'NONE',  ( -33.24999999999998579, -34.75000000000000000, 3.000000000000000000 ) ) ;
#662 = CARTESIAN_POINT ( 'NONE',  ( 10.50000000000000178, 25.25000000000000711, 3.000000000000000000 ) ) ;
#663 = CARTESIAN_POINT ( 'NONE',  ( 28.25000000000001066, 3.250000000000007105, -0.001000000000000132727 ) ) ;
#664 = EDGE_LOOP ( 'NONE', ( #481, #518, #353, #155 ) ) ;
#665 = DIRECTION ( 'NONE',  ( 0.000000000000000000, 1.000000000000000000, 0.000000000000000000 ) ) ;
#666 = ORIENTED_EDGE ( 'NONE', *, *, #885, .F. ) ;
#667 = EDGE_CURVE ( 'NONE', #512, #191, #91, .T. ) ;
#668 = DIRECTION ( 'NONE',  ( 1.000000000000000000, 0.000000000000000000, 0.000000000000000000 ) ) ;
#669 = APPROVAL_PERSON_ORGANIZATION ( #711, #529, #332 ) ;
#670 = EDGE_CURVE ( 'NONE', #250, #61, #254, .T. ) ;
#671 = EDGE_CURVE ( 'NONE', #281, #61, #1004, .T. ) ;
#672 = CARTESIAN_POINT ( 'NONE',  ( -28.25000000000001421, 0.2500000000000071609, 3.000000000000000000 ) ) ;
#673 = VERTEX_POINT ( 'NONE', #486 ) ;
#674 = CYLINDRICAL_SURFACE ( 'NONE', #370, 6.000000000000000888 ) ;
#675 = FACE_OUTER_BOUND ( 'NONE', #608, .T. ) ;
#676 = LINE ( 'NONE', #134, #318 ) ;
#677 = VERTEX_POINT ( 'NONE', #405 ) ;
#678 = LINE ( 'NONE', #663, #399 ) ;
#679 = DIRECTION ( 'NONE',  ( 0.000000000000000000, -0.000000000000000000, 1.000000000000000000 ) ) ;
#680 = ORIENTED_EDGE ( 'NONE', *, *, #196, .F. ) ;
#681 = AXIS2_PLACEMENT_3D ( 'NONE', #722, #278, #659 ) ;
#682 = DIRECTION ( 'NONE',  ( 0.000000000000000000, 0.000000000000000000, 1.000000000000000000 ) ) ;
#683 = DIRECTION ( 'NONE',  ( 0.000000000000000000, -0.000000000000000000, -1.000000000000000000 ) ) ;
#684 = EDGE_LOOP ( 'NONE', ( #753, #916 ) ) ;
#685 = CIRCLE ( 'NONE', #955, 1.500000000000001332 ) ;
#686 = EDGE_CURVE ( 'NONE', #346, #962, #207, .T. ) ;
#687 = CARTESIAN_POINT ( 'NONE',  ( 28.25000000000001421, 0.2500000000000071609, -0.001000000000000132727 ) ) ;
#688 = DIRECTION ( 'NONE',  ( 1.000000000000000000, -1.301042606982605321E-16, 0.000000000000000000 ) ) ;
#689 = LINE ( 'NONE', #97, #932 ) ;
#690 = ORIENTED_EDGE ( 'NONE', *, *, #316, .F. ) ;
#691 = EDGE_CURVE ( 'NONE', #612, #55, #441, .T. ) ;
#692 = LINE ( 'NONE', #615, #171 ) ;
#693 = DIRECTION ( 'NONE',  ( 1.000000000000000000, 0.000000000000000000, 0.000000000000000000 ) ) ;
#694 = VERTEX_POINT ( 'NONE', #106 ) ;
#695 = AXIS2_PLACEMENT_3D ( 'NONE', #448, #349, #242 ) ;
#696 = CARTESIAN_POINT ( 'NONE',  ( 33.25000000000000000, 34.75000000000000000, 3.000000000000000000 ) ) ;
#697 = VECTOR ( 'NONE', #230, 1000.000000000000000 ) ;
#698 = EDGE_CURVE ( 'NONE', #512, #45, #41, .T. ) ;
#699 = AXIS2_PLACEMENT_3D ( 'NONE', #444, #618, #463 ) ;
#700 = DIRECTION ( 'NONE',  ( -1.996804001124382178E-16, 1.000000000000000000, -0.000000000000000000 ) ) ;
#701 = VERTEX_POINT ( 'NONE', #976 ) ;
#702 = CARTESIAN_POINT ( 'NONE',  ( -10.50000000000000000, -7.749999999999996447, 3.000000000000000000 ) ) ;
#703 = CARTESIAN_POINT ( 'NONE',  ( 27.50000000000000000, -19.74999999999999645, -0.001000000000000132727 ) ) ;
#704 = CC_DESIGN_PERSON_AND_ORGANIZATION_ASSIGNMENT ( #184, #740, ( #303 ) ) ;
#705 = ORIENTED_EDGE ( 'NONE', *, *, #535, .F. ) ;
#706 = ORIENTED_EDGE ( 'NONE', *, *, #361, .T. ) ;
#707 = PERSON_AND_ORGANIZATION_ROLE ( 'creator' ) ;
#708 = CARTESIAN_POINT ( 'NONE',  ( -18.25000000000001066, 3.250000000000005773, 3.000000000000000000 ) ) ;
#709 = VERTEX_POINT ( 'NONE', #993 ) ;
#710 = EDGE_CURVE ( 'NONE', #246, #201, #900, .T. ) ;
#711 = PERSON_AND_ORGANIZATION ( #725, #902 ) ;
#712 = CIRCLE ( 'NONE', #40, 1.499999999999999556 ) ;
#713 = DIRECTION ( 'NONE',  ( 0.000000000000000000, -0.000000000000000000, -1.000000000000000000 ) ) ;
#714 = AXIS2_PLACEMENT_3D ( 'NONE', #781, #854, #73 ) ;
#715 = APPROVAL_PERSON_ORGANIZATION ( #5, #408, #652 ) ;
#716 = ORIENTED_EDGE ( 'NONE', *, *, #68, .T. ) ;
#717 = FACE_OUTER_BOUND ( 'NONE', #30, .T. ) ;
#718 = VERTEX_POINT ( 'NONE', #425 ) ;
#719 = CYLINDRICAL_SURFACE ( 'NONE', #467, 1.499999999999999556 ) ;
#720 = VERTEX_POINT ( 'NONE', #920 ) ;
#721 = CARTESIAN_POINT ( 'NONE',  ( 9.000000000000001776, 25.25000000000000711, 0.000000000000000000 ) ) ;
#722 = CARTESIAN_POINT ( 'NONE',  ( 9.000000000000001776, -7.749999999999992006, 0.000000000000000000 ) ) ;
#723 = ORIENTED_EDGE ( 'NONE', *, *, #341, .T. ) ;
#724 = LINE ( 'NONE', #873, #414 ) ;
#725 = PERSON ( 'UNSPECIFIED', 'UNSPECIFIED', 'UNSPECIFIED', ('UNSPECIFIED'), ('UNSPECIFIED'), ('UNSPECIFIED') ) ;
#726 = EDGE_LOOP ( 'NONE', ( #161, #746, #462, #204 ) ) ;
#727 = FACE_OUTER_BOUND ( 'NONE', #473, .T. ) ;
#728 = EDGE_CURVE ( 'NONE', #813, #743, #736, .T. ) ;
#729 = ORIENTED_EDGE ( 'NONE', *, *, #570, .F. ) ;
#730 = DIRECTION ( 'NONE',  ( 0.000000000000000000, -0.000000000000000000, -1.000000000000000000 ) ) ;
#731 = VECTOR ( 'NONE', #857, 1000.000000000000000 ) ;
#732 = CARTESIAN_POINT ( 'NONE',  ( 33.25000000000001421, -34.75000000000000000, 3.000000000000000000 ) ) ;
#733 = DIRECTION ( 'NONE',  ( -1.000000000000000000, -1.301042606982605074E-16, 0.000000000000000000 ) ) ;
#734 = VECTOR ( 'NONE', #513, 1000.000000000000000 ) ;
#735 = VECTOR ( 'NONE', #140, 1000.000000000000000 ) ;
#736 = LINE ( 'NONE', #750, #768 ) ;
#737 = EDGE_LOOP ( 'NONE', ( #649, #666, #17, #889 ) ) ;
#738 = LINE ( 'NONE', #411, #982 ) ;
#739 = ORIENTED_EDGE ( 'NONE', *, *, #505, .T. ) ;
#740 = PERSON_AND_ORGANIZATION_ROLE ( 'design_supplier' ) ;
#741 = PLANE ( 'NONE',  #539 ) ;
#742 = EDGE_CURVE ( 'NONE', #911, #339, #273, .T. ) ;
#743 = VERTEX_POINT ( 'NONE', #913 ) ;
#744 = PLANE ( 'NONE',  #773 ) ;
#745 = EDGE_CURVE ( 'NONE', #307, #701, #210, .T. ) ;
#746 = ORIENTED_EDGE ( 'NONE', *, *, #451, .T. ) ;
#747 = LINE ( 'NONE', #732, #315 ) ;
#748 = EDGE_CURVE ( 'NONE', #109, #772, #206, .T. ) ;
#749 = DIRECTION ( 'NONE',  ( 1.000000000000000000, 0.000000000000000000, 0.000000000000000000 ) ) ;
#750 = CARTESIAN_POINT ( 'NONE',  ( 26.00000000000000000, -19.74999999999999645, -0.001000000000000132727 ) ) ;
#751 = ORIENTED_EDGE ( 'NONE', *, *, #127, .F. ) ;
#752 = DIRECTION ( 'NONE',  ( 1.000000000000000000, 0.000000000000000000, 0.000000000000000000 ) ) ;
#753 = ORIENTED_EDGE ( 'NONE', *, *, #1008, .F. ) ;
#754 = CIRCLE ( 'NONE', #301, 1.500000000000001332 ) ;
#755 = AXIS2_PLACEMENT_3D ( 'NONE', #687, #1012, #343 ) ;
#756 = CC_DESIGN_PERSON_AND_ORGANIZATION_ASSIGNMENT ( #790, #707, ( #321 ) ) ;
#757 = LINE ( 'NONE', #48, #605 ) ;
#758 = LINE ( 'NONE', #587, #734 ) ;
#759 = ORIENTED_EDGE ( 'NONE', *, *, #165, .T. ) ;
#760 = CARTESIAN_POINT ( 'NONE',  ( -18.25000000000001066, 0.2500000000000059397, 0.000000000000000000 ) ) ;
#761 = LINE ( 'NONE', #203, #820 ) ;
#762 = EDGE_LOOP ( 'NONE', ( #640, #166, #439, #189 ) ) ;
#763 = LINE ( 'NONE', #627, #785 ) ;
#764 = CARTESIAN_POINT ( 'NONE',  ( 18.25000000000001066, 0.2500000000000059397, 0.000000000000000000 ) ) ;
#765 = DIRECTION ( 'NONE',  ( -0.000000000000000000, -0.000000000000000000, 1.000000000000000000 ) ) ;
#766 = EDGE_CURVE ( 'NONE', #19, #1022, #133, .T. ) ;
#767 = VERTEX_POINT ( 'NONE', #417 ) ;
#768 = VECTOR ( 'NONE', #526, 1000.000000000000000 ) ;
#769 = CIRCLE ( 'NONE', #798, 1.500000000000001332 ) ;
#770 = DIRECTION ( 'NONE',  ( 0.000000000000000000, 0.000000000000000000, 1.000000000000000000 ) ) ;
#771 = FACE_OUTER_BOUND ( 'NONE', #868, .T. ) ;
#772 = VERTEX_POINT ( 'NONE', #200 ) ;
#773 = AXIS2_PLACEMENT_3D ( 'NONE', #998, #593, #357 ) ;
#774 = CC_DESIGN_PERSON_AND_ORGANIZATION_ASSIGNMENT ( #500, #112, ( #851 ) ) ;
#775 = DIRECTION ( 'NONE',  ( 1.000000000000000000, -1.301042606982605074E-16, 0.000000000000000000 ) ) ;
#776 = FACE_BOUND ( 'NONE', #808, .T. ) ;
#777 = EDGE_CURVE ( 'NONE', #255, #281, #436, .T. ) ;
#778 = ORIENTED_EDGE ( 'NONE', *, *, #777, .T. ) ;
#779 = EDGE_CURVE ( 'NONE', #996, #307, #757, .T. ) ;
#780 = FACE_OUTER_BOUND ( 'NONE', #938, .T. ) ;
#781 = CARTESIAN_POINT ( 'NONE',  ( 0.000000000000000000, 16.25000000000000355, 0.000000000000000000 ) ) ;
#782 = ORIENTED_EDGE ( 'NONE', *, *, #667, .F. ) ;
#783 = VECTOR ( 'NONE', #733, 1000.000000000000000 ) ;
#784 = PLANE ( 'NONE',  #933 ) ;
#785 = VECTOR ( 'NONE', #775, 1000.000000000000000 ) ;
#786 = CARTESIAN_POINT ( 'NONE',  ( 33.25000000000000000, 34.75000000000000000, 0.000000000000000000 ) ) ;
#787 = EDGE_LOOP ( 'NONE', ( #23, #275, #313, #94 ) ) ;
#788 = CARTESIAN_POINT ( 'NONE',  ( 28.25000000000001421, 0.2500000000000071609, -0.001000000000000132727 ) ) ;
#789 = ORIENTED_EDGE ( 'NONE', *, *, #418, .T. ) ;
#790 = PERSON_AND_ORGANIZATION ( #725, #902 ) ;
#791 = LINE ( 'NONE', #647, #483 ) ;
#792 = ORIENTED_EDGE ( 'NONE', *, *, #376, .F. ) ;
#793 = CARTESIAN_POINT ( 'NONE',  ( -29.00000000000000000, -19.74999999999999645, 0.000000000000000000 ) ) ;
#794 = EDGE_CURVE ( 'NONE', #718, #694, #678, .T. ) ;
#795 = AXIS2_PLACEMENT_3D ( 'NONE', #941, #231, #549 ) ;
#796 = DIRECTION ( 'NONE',  ( -0.000000000000000000, -1.000000000000000000, -0.000000000000000000 ) ) ;
#797 = AXIS2_PLACEMENT_3D ( 'NONE', #601, #359, #286 ) ;
#798 = AXIS2_PLACEMENT_3D ( 'NONE', #298, #378, #1016 ) ;
#799 = ORIENTED_EDGE ( 'NONE', *, *, #766, .F. ) ;
#800 = FACE_BOUND ( 'NONE', #380, .T. ) ;
#801 = DIRECTION ( 'NONE',  ( -0.000000000000000000, 0.000000000000000000, 1.000000000000000000 ) ) ;
#802 = ORIENTED_EDGE ( 'NONE', *, *, #671, .T. ) ;
#803 = DIRECTION ( 'NONE',  ( -0.000000000000000000, 0.000000000000000000, 1.000000000000000000 ) ) ;
#804 = EDGE_CURVE ( 'NONE', #767, #397, #651, .T. ) ;
#805 = LINE ( 'NONE', #81, #554 ) ;
#806 = ORIENTED_EDGE ( 'NONE', *, *, #1015, .T. ) ;
#807 = CARTESIAN_POINT ( 'NONE',  ( 9.000000000000001776, 25.25000000000000711, -0.001000000000000132727 ) ) ;
#808 = EDGE_LOOP ( 'NONE', ( #899, #1000 ) ) ;
#809 = SECURITY_CLASSIFICATION_LEVEL ( 'unclassified' ) ;
#810 = CARTESIAN_POINT ( 'NONE',  ( 28.25000000000001066, 3.250000000000007105, 3.000000000000000000 ) ) ;
#811 = CARTESIAN_POINT ( 'NONE',  ( -33.25000000000000000, 34.75000000000000000, 3.000000000000000000 ) ) ;
#812 = AXIS2_PLACEMENT_3D ( 'NONE', #807, #340, #420 ) ;
#813 = VERTEX_POINT ( 'NONE', #898 ) ;
#814 = AXIS2_PLACEMENT_3D ( 'NONE', #952, #713, #93 ) ;
#815 = DIRECTION ( 'NONE',  ( 1.000000000000000000, 1.246832498358329360E-16, -0.000000000000000000 ) ) ;
#816 = VECTOR ( 'NONE', #960, 1000.000000000000000 ) ;
#817 = VERTEX_POINT ( 'NONE', #187 ) ;
#818 = LINE ( 'NONE', #424, #331 ) ;
#819 = ADVANCED_FACE ( 'NONE', ( #675 ), #741, .T. ) ;
#820 = VECTOR ( 'NONE', #360, 1000.000000000000000 ) ;
#821 = DIRECTION ( 'NONE',  ( -1.000000000000000000, 1.246832498358329606E-16, 0.000000000000000000 ) ) ;
#822 = ORIENTED_EDGE ( 'NONE', *, *, #779, .T. ) ;
#823 = CARTESIAN_POINT ( 'NONE',  ( 7.500000000000000000, -7.749999999999992006, 3.000000000000000000 ) ) ;
#824 = ADVANCED_FACE ( 'NONE', ( #983 ), #51, .F. ) ;
#825 = EDGE_LOOP ( 'NONE', ( #521, #782 ) ) ;
#826 = CARTESIAN_POINT ( 'NONE',  ( 7.500000000000000000, 25.25000000000000711, 0.000000000000000000 ) ) ;
#827 = ORIENTED_EDGE ( 'NONE', *, *, #561, .T. ) ;
#828 = FACE_OUTER_BOUND ( 'NONE', #515, .T. ) ;
#829 = ORIENTED_EDGE ( 'NONE', *, *, #47, .T. ) ;
#830 = CC_DESIGN_DATE_AND_TIME_ASSIGNMENT ( #265, #658, ( #321 ) ) ;
#831 = COORDINATED_UNIVERSAL_TIME_OFFSET ( 5, 30, .AHEAD. ) ;
#832 = CARTESIAN_POINT ( 'NONE',  ( -10.50000000000000000, 25.25000000000000711, -0.001000000000000132727 ) ) ;
#833 = ORIENTED_EDGE ( 'NONE', *, *, #258, .F. ) ;
#834 = LINE ( 'NONE', #764, #948 ) ;
#835 = CARTESIAN_POINT ( 'NONE',  ( 7.500000000000000000, -7.749999999999992006, 0.000000000000000000 ) ) ;
#836 = AXIS2_PLACEMENT_3D ( 'NONE', #110, #646, #100 ) ;
#837 = DATE_AND_TIME ( #990, #437 ) ;
#838 = AXIS2_PLACEMENT_3D ( 'NONE', #496, #1027, #86 ) ;
#839 = DIRECTION ( 'NONE',  ( 1.156482317317871331E-15, 1.000000000000000000, 0.000000000000000000 ) ) ;
#840 = CARTESIAN_POINT ( 'NONE',  ( -29.00000000000000000, -19.74999999999999645, 3.000000000000000000 ) ) ;
#841 = PLANE ( 'NONE',  #903 ) ;
#842 = ORIENTED_EDGE ( 'NONE', *, *, #897, .T. ) ;
#843 = EDGE_CURVE ( 'NONE', #846, #147, #591, .T. ) ;
#844 = CYLINDRICAL_SURFACE ( 'NONE', #130, 1.500000000000001332 ) ;
#845 = CARTESIAN_POINT ( 'NONE',  ( -9.000000000000001776, 25.25000000000000711, 3.000000000000000000 ) ) ;
#846 = VERTEX_POINT ( 'NONE', #826 ) ;
#847 = CARTESIAN_POINT ( 'NONE',  ( -18.25000000000001066, 0.2500000000000059397, 0.000000000000000000 ) ) ;
#848 = CARTESIAN_POINT ( 'NONE',  ( 18.25000000000001066, 0.2500000000000059397, 3.000000000000000000 ) ) ;
#849 = EDGE_LOOP ( 'NONE', ( #487, #550, #143, #176 ) ) ;
#850 = VECTOR ( 'NONE', #27, 1000.000000000000000 ) ;
#851 = SECURITY_CLASSIFICATION ( '', '', #809 ) ;
#852 = DIRECTION ( 'NONE',  ( -0.000000000000000000, -0.000000000000000000, -1.000000000000000000 ) ) ;
#853 = EDGE_CURVE ( 'NONE', #817, #537, #122, .T. ) ;
#854 = DIRECTION ( 'NONE',  ( 0.000000000000000000, -0.000000000000000000, -1.000000000000000000 ) ) ;
#855 = ORIENTED_EDGE ( 'NONE', *, *, #710, .F. ) ;
#856 = ADVANCED_FACE ( 'NONE', ( #294 ), #784, .F. ) ;
#857 = DIRECTION ( 'NONE',  ( -1.000000000000000000, 1.301042606982605321E-16, 0.000000000000000000 ) ) ;
#858 = DIRECTION ( 'NONE',  ( 1.000000000000000000, 0.000000000000000000, 0.000000000000000000 ) ) ;
#859 = ORIENTED_EDGE ( 'NONE', *, *, #505, .F. ) ;
#860 = FACE_OUTER_BOUND ( 'NONE', #656, .T. ) ;
#861 = CARTESIAN_POINT ( 'NONE',  ( 0.000000000000000000, 0.000000000000000000, 0.000000000000000000 ) ) ;
#862 = CARTESIAN_POINT ( 'NONE',  ( -27.50000000000000000, -19.74999999999999645, -0.001000000000000132727 ) ) ;
#863 = ORIENTED_EDGE ( 'NONE', *, *, #766, .T. ) ;
#864 = CIRCLE ( 'NONE', #915, 1.500000000000001332 ) ;
#865 = APPROVAL_STATUS ( 'not_yet_approved' ) ;
#866 = AXIS2_PLACEMENT_3D ( 'NONE', #703, #234, #858 ) ;
#867 = CARTESIAN_POINT ( 'NONE',  ( 18.25000000000001066, 3.250000000000005773, 3.000000000000000000 ) ) ;
#868 = EDGE_LOOP ( 'NONE', ( #99, #42, #422, #979 ) ) ;
#869 = CIRCLE ( 'NONE', #921, 1.500000000000001332 ) ;
#870 = EDGE_CURVE ( 'NONE', #996, #1018, #224, .T. ) ;
#871 = CARTESIAN_POINT ( 'NONE',  ( 6.000000000000000888, 16.25000000000000355, 3.000000000000000000 ) ) ;
#872 = ORIENTED_EDGE ( 'NONE', *, *, #804, .F. ) ;
#873 = CARTESIAN_POINT ( 'NONE',  ( 28.25000000000001421, 0.2500000000000071609, 3.000000000000000000 ) ) ;
#874 = CYLINDRICAL_SURFACE ( 'NONE', #314, 1.500000000000001332 ) ;
#875 = CARTESIAN_POINT ( 'NONE',  ( -27.50000000000000000, -19.74999999999999645, 0.000000000000000000 ) ) ;
#876 = ORIENTED_EDGE ( 'NONE', *, *, #2, .T. ) ;
#877 = PRODUCT ( 'Lid_Default_sldprt', 'Lid_Default_sldprt', '', ( #179 ) ) ;
#878 = CARTESIAN_POINT ( 'NONE',  ( -7.500000000000001776, 25.25000000000000711, 0.000000000000000000 ) ) ;
#879 = EDGE_LOOP ( 'NONE', ( #264, #443 ) ) ;
#880 = LINE ( 'NONE', #557, #918 ) ;
#881 = AXIS2_PLACEMENT_3D ( 'NONE', #935, #682, #75 ) ;
#882 = AXIS2_PLACEMENT_3D ( 'NONE', #551, #80, #394 ) ;
#883 = ORIENTED_EDGE ( 'NONE', *, *, #563, .T. ) ;
#884 = DIRECTION ( 'NONE',  ( 1.000000000000000000, 0.000000000000000000, 0.000000000000000000 ) ) ;
#885 = EDGE_CURVE ( 'NONE', #772, #612, #763, .T. ) ;
#886 = DIRECTION ( 'NONE',  ( 1.000000000000000000, 0.000000000000000000, 0.000000000000000000 ) ) ;
#887 = ORIENTED_EDGE ( 'NONE', *, *, #306, .F. ) ;
#888 = DIRECTION ( 'NONE',  ( -0.000000000000000000, 0.000000000000000000, 1.000000000000000000 ) ) ;
#889 = ORIENTED_EDGE ( 'NONE', *, *, #947, .F. ) ;
#890 = APPROVAL_DATE_TIME ( #577, #529 ) ;
#891 = EDGE_CURVE ( 'NONE', #368, #132, #692, .T. ) ;
#892 = FACE_OUTER_BOUND ( 'NONE', #849, .T. ) ;
#893 = ORIENTED_EDGE ( 'NONE', *, *, #961, .F. ) ;
#894 = DIRECTION ( 'NONE',  ( 1.000000000000000000, 0.000000000000000000, 0.000000000000000000 ) ) ;
#895 = ORIENTED_EDGE ( 'NONE', *, *, #891, .T. ) ;
#896 = PERSON_AND_ORGANIZATION_ROLE ( 'creator' ) ;
#897 = EDGE_CURVE ( 'NONE', #397, #767, #754, .T. ) ;
#898 = CARTESIAN_POINT ( 'NONE',  ( 26.00000000000000000, -19.74999999999999645, 0.000000000000000000 ) ) ;
#899 = ORIENTED_EDGE ( 'NONE', *, *, #561, .F. ) ;
#900 = CIRCLE ( 'NONE', #966, 6.000000000000000888 ) ;
#901 = DIRECTION ( 'NONE',  ( 1.000000000000000000, 0.000000000000000000, 0.000000000000000000 ) ) ;
#902 = ORGANIZATION ( 'UNSPECIFIED', 'UNSPECIFIED', '' ) ;
#903 = AXIS2_PLACEMENT_3D ( 'NONE', #442, #665, #679 ) ;
#904 = CARTESIAN_POINT ( 'NONE',  ( 7.500000000000000000, 25.25000000000000711, -0.001000000000000132727 ) ) ;
#905 = PRODUCT_RELATED_PRODUCT_CATEGORY ( 'detail', '', ( #877 ) ) ;
#906 = ORIENTED_EDGE ( 'NONE', *, *, #127, .T. ) ;
#907 = LINE ( 'NONE', #598, #160 ) ;
#908 = DIRECTION ( 'NONE',  ( -0.000000000000000000, -0.000000000000000000, 1.000000000000000000 ) ) ;
#909 = ORIENTED_EDGE ( 'NONE', *, *, #563, .F. ) ;
#910 = CARTESIAN_POINT ( 'NONE',  ( -18.25000000000001066, 3.250000000000005773, 0.000000000000000000 ) ) ;
#911 = VERTEX_POINT ( 'NONE', #847 ) ;
#912 = CARTESIAN_POINT ( 'NONE',  ( -9.000000000000001776, -7.749999999999996447, 3.000000000000000000 ) ) ;
#913 = CARTESIAN_POINT ( 'NONE',  ( 26.00000000000000000, -19.74999999999999645, 3.000000000000000000 ) ) ;
#914 = CARTESIAN_POINT ( 'NONE',  ( 0.000000000000000000, 16.25000000000000355, -0.001000000000000132727 ) ) ;
#915 = AXIS2_PLACEMENT_3D ( 'NONE', #53, #929, #531 ) ;
#916 = ORIENTED_EDGE ( 'NONE', *, *, #451, .F. ) ;
#917 = DATE_TIME_ROLE ( 'classification_date' ) ;
#918 = VECTOR ( 'NONE', #101, 1000.000000000000000 ) ;
#919 = EDGE_CURVE ( 'NONE', #132, #989, #525, .T. ) ;
#920 = CARTESIAN_POINT ( 'NONE',  ( 29.00000000000000000, -19.74999999999999645, 0.000000000000000000 ) ) ;
#921 = AXIS2_PLACEMENT_3D ( 'NONE', #208, #922, #752 ) ;
#922 = DIRECTION ( 'NONE',  ( 0.000000000000000000, 0.000000000000000000, 1.000000000000000000 ) ) ;
#923 = ORIENTED_EDGE ( 'NONE', *, *, #524, .T. ) ;
#924 = DIRECTION ( 'NONE',  ( 0.000000000000000000, -0.000000000000000000, -1.000000000000000000 ) ) ;
#925 = DIRECTION ( 'NONE',  ( -0.000000000000000000, -0.000000000000000000, 1.000000000000000000 ) ) ;
#926 = ORIENTED_EDGE ( 'NONE', *, *, #361, .F. ) ;
#927 = DIRECTION ( 'NONE',  ( -0.000000000000000000, -0.000000000000000000, 1.000000000000000000 ) ) ;
#928 = ADVANCED_FACE ( 'NONE', ( #534 ), #943, .F. ) ;
#929 = DIRECTION ( 'NONE',  ( -0.000000000000000000, -0.000000000000000000, -1.000000000000000000 ) ) ;
#930 = DIRECTION ( 'NONE',  ( 1.000000000000000000, 0.000000000000000000, 0.000000000000000000 ) ) ;
#931 = ORIENTED_EDGE ( 'NONE', *, *, #626, .F. ) ;
#932 = VECTOR ( 'NONE', #277, 1000.000000000000000 ) ;
#933 = AXIS2_PLACEMENT_3D ( 'NONE', #543, #1005, #308 ) ;
#934 =( GEOMETRIC_REPRESENTATION_CONTEXT ( 3 ) GLOBAL_UNCERTAINTY_ASSIGNED_CONTEXT ( ( #520 ) ) GLOBAL_UNIT_ASSIGNED_CONTEXT ( ( #589, #509, #974 ) ) REPRESENTATION_CONTEXT ( 'NONE', 'WORKASPACE' ) );
#935 = CARTESIAN_POINT ( 'NONE',  ( -9.000000000000001776, -7.749999999999996447, 3.000000000000000000 ) ) ;
#936 = LINE ( 'NONE', #1017, #412 ) ;
#937 = ADVANCED_FACE ( 'NONE', ( #538 ), #844, .F. ) ;
#938 = EDGE_LOOP ( 'NONE', ( #135, #945, #829, #289 ) ) ;
#939 = CARTESIAN_POINT ( 'NONE',  ( 9.000000000000001776, -7.749999999999992006, -0.001000000000000132727 ) ) ;
#940 = DIRECTION ( 'NONE',  ( -0.000000000000000000, 0.000000000000000000, 1.000000000000000000 ) ) ;
#941 = CARTESIAN_POINT ( 'NONE',  ( 18.25000000000001066, 0.2500000000000059397, -0.001000000000000132727 ) ) ;
#942 = EDGE_LOOP ( 'NONE', ( #716, #558, #419, #690 ) ) ;
#943 = CYLINDRICAL_SURFACE ( 'NONE', #571, 1.500000000000001332 ) ;
#944 = CARTESIAN_POINT ( 'NONE',  ( -33.25000000000000000, 34.75000000000000000, 3.000000000000000000 ) ) ;
#945 = ORIENTED_EDGE ( 'NONE', *, *, #667, .T. ) ;
#946 = AXIS2_PLACEMENT_3D ( 'NONE', #3, #642, #233 ) ;
#947 = EDGE_CURVE ( 'NONE', #339, #817, #455, .T. ) ;
#948 = VECTOR ( 'NONE', #445, 1000.000000000000000 ) ;
#949 = VECTOR ( 'NONE', #595, 1000.000000000000000 ) ;
#950 = COORDINATED_UNIVERSAL_TIME_OFFSET ( 5, 30, .AHEAD. ) ;
#951 = CIRCLE ( 'NONE', #188, 1.500000000000001332 ) ;
#952 = CARTESIAN_POINT ( 'NONE',  ( 9.000000000000001776, -7.749999999999992006, 0.000000000000000000 ) ) ;
#953 = EDGE_LOOP ( 'NONE', ( #13, #227 ) ) ;
#954 = FACE_BOUND ( 'NONE', #645, .T. ) ;
#955 = AXIS2_PLACEMENT_3D ( 'NONE', #217, #683, #930 ) ;
#956 = CC_DESIGN_PERSON_AND_ORGANIZATION_ASSIGNMENT ( #121, #38, ( #877 ) ) ;
#957 = DIRECTION ( 'NONE',  ( 1.996804001124382178E-16, -1.000000000000000000, 0.000000000000000000 ) ) ;
#958 = ORIENTED_EDGE ( 'NONE', *, *, #891, .F. ) ;
#959 = DIRECTION ( 'NONE',  ( 1.000000000000000000, 0.000000000000000000, 0.000000000000000000 ) ) ;
#960 = DIRECTION ( 'NONE',  ( -0.000000000000000000, -0.000000000000000000, 1.000000000000000000 ) ) ;
#961 = EDGE_CURVE ( 'NONE', #743, #71, #769, .T. ) ;
#962 = VERTEX_POINT ( 'NONE', #63 ) ;
#963 = FACE_BOUND ( 'NONE', #879, .T. ) ;
#964 = CIRCLE ( 'NONE', #604, 1.500000000000001332 ) ;
#965 = DIRECTION ( 'NONE',  ( 1.000000000000000000, 0.000000000000000000, 0.000000000000000000 ) ) ;
#966 = AXIS2_PLACEMENT_3D ( 'NONE', #128, #117, #517 ) ;
#967 = ORIENTED_EDGE ( 'NONE', *, *, #9, .F. ) ;
#968 = CARTESIAN_POINT ( 'NONE',  ( -9.000000000000001776, 25.25000000000000711, -0.001000000000000132727 ) ) ;
#969 = COORDINATED_UNIVERSAL_TIME_OFFSET ( 5, 30, .AHEAD. ) ;
#970 = DIRECTION ( 'NONE',  ( -1.000000000000000000, 1.246832498358329360E-16, 0.000000000000000000 ) ) ;
#971 = EDGE_LOOP ( 'NONE', ( #629, #392, #546, #859 ) ) ;
#972 = CARTESIAN_POINT ( 'NONE',  ( 28.25000000000001066, 3.250000000000007105, -0.001000000000000132727 ) ) ;
#973 = ORIENTED_EDGE ( 'NONE', *, *, #636, .T. ) ;
#974 =( NAMED_UNIT ( * ) SI_UNIT ( $, .STERADIAN. ) SOLID_ANGLE_UNIT ( ) );
#975 = LINE ( 'NONE', #991, #285 ) ;
#976 = CARTESIAN_POINT ( 'NONE',  ( -33.24999999999998579, -34.75000000000000000, 3.000000000000000000 ) ) ;
#977 = EDGE_LOOP ( 'NONE', ( #973, #909, #296, #1 ) ) ;
#978 = DIRECTION ( 'NONE',  ( 0.000000000000000000, -0.000000000000000000, -1.000000000000000000 ) ) ;
#979 = ORIENTED_EDGE ( 'NONE', *, *, #341, .F. ) ;
#980 = DIRECTION ( 'NONE',  ( -0.000000000000000000, -0.000000000000000000, -1.000000000000000000 ) ) ;
#981 = EDGE_CURVE ( 'NONE', #386, #694, #72, .T. ) ;
#982 = VECTOR ( 'NONE', #263, 1000.000000000000000 ) ;
#983 = FACE_OUTER_BOUND ( 'NONE', #267, .T. ) ;
#984 = VECTOR ( 'NONE', #491, 1000.000000000000000 ) ;
#985 = ORIENTED_EDGE ( 'NONE', *, *, #560, .T. ) ;
#986 = AXIS2_PLACEMENT_3D ( 'NONE', #511, #355, #338 ) ;
#987 = CARTESIAN_POINT ( 'NONE',  ( -28.25000000000001066, 3.250000000000007105, -0.001000000000000132727 ) ) ;
#988 = CC_DESIGN_APPROVAL ( #529, ( #303 ) ) ;
#989 = VERTEX_POINT ( 'NONE', #702 ) ;
#990 = CALENDAR_DATE ( 2026, 29, 8 ) ;
#991 = CARTESIAN_POINT ( 'NONE',  ( -18.25000000000001066, 0.2500000000000059397, -0.001000000000000132727 ) ) ;
#992 = ADVANCED_FACE ( 'NONE', ( #136 ), #372, .F. ) ;
#993 = CARTESIAN_POINT ( 'NONE',  ( -7.500000000000001776, 25.25000000000000711, 3.000000000000000000 ) ) ;
#994 = EDGE_LOOP ( 'NONE', ( #50, #413, #124, #432 ) ) ;
#995 = DIRECTION ( 'NONE',  ( -0.000000000000000000, -0.000000000000000000, 1.000000000000000000 ) ) ;
#996 = VERTEX_POINT ( 'NONE', #382 ) ;
#997 = CARTESIAN_POINT ( 'NONE',  ( 10.50000000000000178, 25.25000000000000711, -0.001000000000000132727 ) ) ;
#998 = CARTESIAN_POINT ( 'NONE',  ( -33.25000000000000000, 34.75000000000000000, 3.000000000000000000 ) ) ;
#999 = EDGE_CURVE ( 'NONE', #1022, #147, #502, .T. ) ;
#1000 = ORIENTED_EDGE ( 'NONE', *, *, #686, .F. ) ;
#1001 = DIRECTION ( 'NONE',  ( 1.246832498358329606E-16, 1.000000000000000000, 0.000000000000000000 ) ) ;
#1002 = CARTESIAN_POINT ( 'NONE',  ( 9.000000000000001776, 25.25000000000000711, 0.000000000000000000 ) ) ;
#1003 = ORIENTED_EDGE ( 'NONE', *, *, #152, .F. ) ;
#1004 = CIRCLE ( 'NONE', #107, 1.500000000000001332 ) ;
#1005 = DIRECTION ( 'NONE',  ( -1.000000000000000000, -1.996804001124382178E-16, 0.000000000000000000 ) ) ;
#1006 = VECTOR ( 'NONE', #765, 1000.000000000000000 ) ;
#1007 = DIRECTION ( 'NONE',  ( -0.000000000000000000, -0.000000000000000000, 1.000000000000000000 ) ) ;
#1008 = EDGE_CURVE ( 'NONE', #720, #813, #951, .T. ) ;
#1009 = ORIENTED_EDGE ( 'NONE', *, *, #614, .T. ) ;
#1010 = ADVANCED_FACE ( 'NONE', ( #780 ), #139, .F. ) ;
#1011 = ADVANCED_FACE ( 'NONE', ( #860 ), #153, .F. ) ;
#1012 = DIRECTION ( 'NONE',  ( 1.000000000000000000, 1.156482317317871331E-15, 0.000000000000000000 ) ) ;
#1013 = FACE_OUTER_BOUND ( 'NONE', #457, .T. ) ;
#1014 = ORIENTED_EDGE ( 'NONE', *, *, #1008, .T. ) ;
#1015 = EDGE_CURVE ( 'NONE', #564, #358, #633, .T. ) ;
#1016 = DIRECTION ( 'NONE',  ( 1.000000000000000000, 0.000000000000000000, 0.000000000000000000 ) ) ;
#1017 = CARTESIAN_POINT ( 'NONE',  ( -28.25000000000001421, 0.2500000000000071609, 0.000000000000000000 ) ) ;
#1018 = VERTEX_POINT ( 'NONE', #192 ) ;
#1019 = CC_DESIGN_APPROVAL ( #381, ( #851 ) ) ;
#1020 = CARTESIAN_POINT ( 'NONE',  ( 27.50000000000000000, -19.74999999999999645, 0.000000000000000000 ) ) ;
#1021 = CYLINDRICAL_SURFACE ( 'NONE', #20, 6.000000000000000888 ) ;
#1022 = VERTEX_POINT ( 'NONE', #662 ) ;
#1023 = DIRECTION ( 'NONE',  ( -1.156482317317871331E-15, -1.000000000000000000, 0.000000000000000000 ) ) ;
#1024 = PLANE ( 'NONE',  #142 ) ;
#1025 = ORIENTED_EDGE ( 'NONE', *, *, #671, .F. ) ;
#1026 = EDGE_CURVE ( 'NONE', #426, #151, #747, .T. ) ;
#1027 = DIRECTION ( 'NONE',  ( 0.000000000000000000, 0.000000000000000000, 1.000000000000000000 ) ) ;
ENDSEC;
END-ISO-10303-21;
