ISO-10303-21;
HEADER;
FILE_DESCRIPTION (( 'STEP AP203' ),
    '1' );
FILE_NAME ('MechanicalLimit_Default_sldprt.STEP',
    '2026-08-29T13:01:30',
    ( '' ),
    ( '' ),
    'SwSTEP 2.0',
    'SolidWorks 2020',
    '' );
FILE_SCHEMA (( 'CONFIG_CONTROL_DESIGN' ));
ENDSEC;

DATA;
#1 = ORIENTED_EDGE ( 'NONE', *, *, #434, .T. ) ;
#2 = PERSON_AND_ORGANIZATION ( #442, #28 ) ;
#3 = CC_DESIGN_SECURITY_CLASSIFICATION ( #280, ( #72 ) ) ;
#4 = VERTEX_POINT ( 'NONE', #367 ) ;
#5 = ADVANCED_FACE ( 'NONE', ( #321 ), #103, .T. ) ;
#6 = APPROVAL ( #457, 'UNSPECIFIED' ) ;
#7 = ORIENTED_EDGE ( 'NONE', *, *, #172, .T. ) ;
#8 = LINE ( 'NONE', #170, #87 ) ;
#9 = APPROVAL_PERSON_ORGANIZATION ( #2, #417, #336 ) ;
#10 = VERTEX_POINT ( 'NONE', #396 ) ;
#11 = DIRECTION ( 'NONE',  ( 0.000000000000000000, 0.000000000000000000, 1.000000000000000000 ) ) ;
#12 = DIRECTION ( 'NONE',  ( 9.011550524554841969E-17, -1.000000000000000000, 0.000000000000000000 ) ) ;
#13 = FACE_OUTER_BOUND ( 'NONE', #278, .T. ) ;
#14 = CC_DESIGN_PERSON_AND_ORGANIZATION_ASSIGNMENT ( #420, #228, ( #72 ) ) ;
#15 = ORIENTED_EDGE ( 'NONE', *, *, #145, .F. ) ;
#16 = APPROVAL_STATUS ( 'not_yet_approved' ) ;
#17 = LINE ( 'NONE', #180, #29 ) ;
#18 = DIRECTION ( 'NONE',  ( 1.000000000000000000, 0.000000000000000000, 0.000000000000000000 ) ) ;
#19 = DIRECTION ( 'NONE',  ( -0.000000000000000000, -0.000000000000000000, -1.000000000000000000 ) ) ;
#20 = VECTOR ( 'NONE', #115, 1000.000000000000000 ) ;
#21 = LINE ( 'NONE', #260, #481 ) ;
#22 = VECTOR ( 'NONE', #121, 1000.000000000000000 ) ;
#23 = VECTOR ( 'NONE', #252, 1000.000000000000000 ) ;
#24 = COORDINATED_UNIVERSAL_TIME_OFFSET ( 5, 30, .AHEAD. ) ;
#25 = DIRECTION ( 'NONE',  ( -0.000000000000000000, -0.000000000000000000, -1.000000000000000000 ) ) ;
#26 = VECTOR ( 'NONE', #38, 1000.000000000000000 ) ;
#27 = EDGE_CURVE ( 'NONE', #88, #328, #98, .T. ) ;
#28 = ORGANIZATION ( 'UNSPECIFIED', 'UNSPECIFIED', '' ) ;
#29 = VECTOR ( 'NONE', #326, 1000.000000000000000 ) ;
#30 = ADVANCED_FACE ( 'NONE', ( #13 ), #149, .F. ) ;
#31 = VECTOR ( 'NONE', #49, 1000.000000000000000 ) ;
#32 = DIRECTION ( 'NONE',  ( -0.000000000000000000, -0.000000000000000000, -1.000000000000000000 ) ) ;
#33 = APPROVAL_PERSON_ORGANIZATION ( #371, #104, #478 ) ;
#34 = DIRECTION ( 'NONE',  ( 0.000000000000000000, 0.000000000000000000, -1.000000000000000000 ) ) ;
#35 = LINE ( 'NONE', #221, #416 ) ;
#36 = DIRECTION ( 'NONE',  ( 0.000000000000000000, -0.000000000000000000, 1.000000000000000000 ) ) ;
#37 = DIRECTION ( 'NONE',  ( -0.000000000000000000, -0.000000000000000000, -1.000000000000000000 ) ) ;
#38 = DIRECTION ( 'NONE',  ( -0.000000000000000000, -0.000000000000000000, -1.000000000000000000 ) ) ;
#39 = ORIENTED_EDGE ( 'NONE', *, *, #48, .F. ) ;
#40 = EDGE_CURVE ( 'NONE', #473, #429, #8, .T. ) ;
#41 = SECURITY_CLASSIFICATION_LEVEL ( 'unclassified' ) ;
#42 = DIRECTION ( 'NONE',  ( -0.000000000000000000, -0.000000000000000000, -1.000000000000000000 ) ) ;
#43 = ORIENTED_EDGE ( 'NONE', *, *, #218, .F. ) ;
#44 = LINE ( 'NONE', #491, #148 ) ;
#45 = ORIENTED_EDGE ( 'NONE', *, *, #433, .T. ) ;
#46 = FACE_OUTER_BOUND ( 'NONE', #472, .T. ) ;
#47 =( LENGTH_UNIT ( ) NAMED_UNIT ( * ) SI_UNIT ( .MILLI., .METRE. ) );
#48 = EDGE_CURVE ( 'NONE', #473, #80, #107, .T. ) ;
#49 = DIRECTION ( 'NONE',  ( 9.011550524554841969E-17, -1.000000000000000000, 0.000000000000000000 ) ) ;
#50 = EDGE_CURVE ( 'NONE', #58, #308, #288, .T. ) ;
#51 = ORIENTED_EDGE ( 'NONE', *, *, #433, .F. ) ;
#52 = VERTEX_POINT ( 'NONE', #438 ) ;
#53 = COORDINATED_UNIVERSAL_TIME_OFFSET ( 5, 30, .AHEAD. ) ;
#54 = LINE ( 'NONE', #315, #261 ) ;
#55 = DIRECTION ( 'NONE',  ( 0.000000000000000000, -1.000000000000000000, 0.000000000000000000 ) ) ;
#56 = ORIENTED_EDGE ( 'NONE', *, *, #324, .F. ) ;
#57 = CC_DESIGN_APPROVAL ( #6, ( #72 ) ) ;
#58 = VERTEX_POINT ( 'NONE', #346 ) ;
#59 = PERSON_AND_ORGANIZATION_ROLE ( 'design_owner' ) ;
#60 = ORIENTED_EDGE ( 'NONE', *, *, #384, .F. ) ;
#61 = ADVANCED_FACE ( 'NONE', ( #46 ), #113, .F. ) ;
#62 = EDGE_LOOP ( 'NONE', ( #440, #422, #241, #177 ) ) ;
#63 = LINE ( 'NONE', #150, #222 ) ;
#64 = DIRECTION ( 'NONE',  ( -1.000000000000000000, -0.000000000000000000, -0.000000000000000000 ) ) ;
#65 = LOCAL_TIME ( 18, 31, 30.00000000000000000, #53 ) ;
#66 = VECTOR ( 'NONE', #266, 1000.000000000000000 ) ;
#67 = CARTESIAN_POINT ( 'NONE',  ( -10.00000000000000178, -38.49999999999999289, 3.000000000000000000 ) ) ;
#68 = AXIS2_PLACEMENT_3D ( 'NONE', #337, #460, #126 ) ;
#69 = DIRECTION ( 'NONE',  ( 0.000000000000000000, -1.000000000000000000, 0.000000000000000000 ) ) ;
#70 = AXIS2_PLACEMENT_3D ( 'NONE', #142, #139, #395 ) ;
#71 = DIRECTION ( 'NONE',  ( 0.000000000000000000, 1.000000000000000000, 0.000000000000000000 ) ) ;
#72 = PRODUCT_DEFINITION_FORMATION_WITH_SPECIFIED_SOURCE ( 'ANY', '', #352, .NOT_KNOWN. ) ;
#73 = ADVANCED_BREP_SHAPE_REPRESENTATION ( 'MechanicalLimit_Default_sldprt', ( #354, #445 ), #485 ) ;
#74 = VECTOR ( 'NONE', #219, 1000.000000000000000 ) ;
#75 = CARTESIAN_POINT ( 'NONE',  ( -5.000000000000008882, 41.50000000000000711, 0.000000000000000000 ) ) ;
#76 = DIRECTION ( 'NONE',  ( -1.000000000000000000, -1.351732578683226234E-16, 0.000000000000000000 ) ) ;
#77 = PLANE ( 'NONE',  #97 ) ;
#78 = PERSON_AND_ORGANIZATION_ROLE ( 'creator' ) ;
#79 = CARTESIAN_POINT ( 'NONE',  ( 4.999999999999990230, 41.50000000000000711, 3.000000000000000000 ) ) ;
#80 = VERTEX_POINT ( 'NONE', #293 ) ;
#81 = VECTOR ( 'NONE', #83, 1000.000000000000000 ) ;
#82 = LINE ( 'NONE', #387, #159 ) ;
#83 = DIRECTION ( 'NONE',  ( -0.000000000000000000, -0.000000000000000000, -1.000000000000000000 ) ) ;
#84 = ORIENTED_EDGE ( 'NONE', *, *, #40, .F. ) ;
#85 = PLANE ( 'NONE',  #240 ) ;
#86 = CARTESIAN_POINT ( 'NONE',  ( -5.000000000000008882, 41.50000000000000711, 0.000000000000000000 ) ) ;
#87 = VECTOR ( 'NONE', #407, 1000.000000000000000 ) ;
#88 = VERTEX_POINT ( 'NONE', #373 ) ;
#89 = COORDINATED_UNIVERSAL_TIME_OFFSET ( 5, 30, .AHEAD. ) ;
#90 = EDGE_CURVE ( 'NONE', #52, #129, #109, .T. ) ;
#91 = EDGE_CURVE ( 'NONE', #100, #238, #441, .T. ) ;
#92 = DIRECTION ( 'NONE',  ( -1.000000000000000000, 0.000000000000000000, 0.000000000000000000 ) ) ;
#93 = ORIENTED_EDGE ( 'NONE', *, *, #310, .F. ) ;
#94 = EDGE_LOOP ( 'NONE', ( #99, #432, #15, #230 ) ) ;
#95 = LOCAL_TIME ( 18, 31, 30.00000000000000000, #24 ) ;
#96 = ORIENTED_EDGE ( 'NONE', *, *, #257, .T. ) ;
#97 = AXIS2_PLACEMENT_3D ( 'NONE', #190, #34, #454 ) ;
#98 = LINE ( 'NONE', #318, #467 ) ;
#99 = ORIENTED_EDGE ( 'NONE', *, *, #50, .T. ) ;
#100 = VERTEX_POINT ( 'NONE', #375 ) ;
#101 = EDGE_CURVE ( 'NONE', #351, #161, #216, .T. ) ;
#102 = EDGE_CURVE ( 'NONE', #308, #429, #21, .T. ) ;
#103 = PLANE ( 'NONE',  #186 ) ;
#104 = APPROVAL ( #16, 'UNSPECIFIED' ) ;
#105 = CARTESIAN_POINT ( 'NONE',  ( -4.999999999999998224, -41.49999999999999289, 0.000000000000000000 ) ) ;
#106 = VECTOR ( 'NONE', #181, 1000.000000000000000 ) ;
#107 = LINE ( 'NONE', #251, #294 ) ;
#108 = DATE_AND_TIME ( #453, #486 ) ;
#109 = LINE ( 'NONE', #449, #313 ) ;
#110 = DATE_AND_TIME ( #135, #184 ) ;
#111 = LINE ( 'NONE', #254, #182 ) ;
#112 = DATE_AND_TIME ( #215, #95 ) ;
#113 = PLANE ( 'NONE',  #231 ) ;
#114 = APPROVAL_DATE_TIME ( #267, #6 ) ;
#115 = DIRECTION ( 'NONE',  ( 2.891205793294675861E-16, -1.000000000000000000, 0.000000000000000000 ) ) ;
#116 = DIRECTION ( 'NONE',  ( 0.000000000000000000, -1.000000000000000000, 0.000000000000000000 ) ) ;
#117 = VECTOR ( 'NONE', #37, 1000.000000000000000 ) ;
#118 = DIRECTION ( 'NONE',  ( -1.000000000000000000, 0.000000000000000000, 0.000000000000000000 ) ) ;
#119 = CARTESIAN_POINT ( 'NONE',  ( -10.00000000000000888, 38.50000000000000711, 0.000000000000000000 ) ) ;
#120 = VECTOR ( 'NONE', #489, 1000.000000000000000 ) ;
#121 = DIRECTION ( 'NONE',  ( 0.000000000000000000, 1.000000000000000000, 0.000000000000000000 ) ) ;
#122 = APPROVAL_ROLE ( '' ) ;
#123 = CARTESIAN_POINT ( 'NONE',  ( -5.000000000000007994, 38.50000000000000711, 3.000000000000000000 ) ) ;
#124 = ORIENTED_EDGE ( 'NONE', *, *, #275, .T. ) ;
#125 = APPROVAL_STATUS ( 'not_yet_approved' ) ;
#126 = DIRECTION ( 'NONE',  ( 0.000000000000000000, -0.000000000000000000, 1.000000000000000000 ) ) ;
#127 = COORDINATED_UNIVERSAL_TIME_OFFSET ( 5, 30, .AHEAD. ) ;
#128 = LINE ( 'NONE', #421, #26 ) ;
#129 = VERTEX_POINT ( 'NONE', #256 ) ;
#130 = EDGE_CURVE ( 'NONE', #80, #158, #185, .T. ) ;
#131 = EDGE_CURVE ( 'NONE', #146, #58, #406, .T. ) ;
#132 = CARTESIAN_POINT ( 'NONE',  ( -5.000000000000008882, 41.50000000000000711, 3.000000000000000000 ) ) ;
#133 = DIRECTION ( 'NONE',  ( 6.360652745248286106E-15, -1.000000000000000000, 0.000000000000000000 ) ) ;
#134 = EDGE_LOOP ( 'NONE', ( #345, #164, #248, #203, #193, #389, #403, #306, #386, #476, #245, #210 ) ) ;
#135 = CALENDAR_DATE ( 2026, 29, 8 ) ;
#136 = PLANE ( 'NONE',  #435 ) ;
#137 = ORIENTED_EDGE ( 'NONE', *, *, #400, .T. ) ;
#138 = EDGE_LOOP ( 'NONE', ( #322, #84, #51, #239 ) ) ;
#139 = DIRECTION ( 'NONE',  ( 0.000000000000000000, 1.000000000000000000, 0.000000000000000000 ) ) ;
#140 = ORIENTED_EDGE ( 'NONE', *, *, #384, .T. ) ;
#141 = ORIENTED_EDGE ( 'NONE', *, *, #101, .T. ) ;
#142 = CARTESIAN_POINT ( 'NONE',  ( -4.999999999999998224, -41.49999999999999289, 3.000000000000000000 ) ) ;
#143 = EDGE_LOOP ( 'NONE', ( #391, #397, #343, #198 ) ) ;
#144 = EDGE_CURVE ( 'NONE', #158, #161, #380, .T. ) ;
#145 = EDGE_CURVE ( 'NONE', #146, #281, #483, .T. ) ;
#146 = VERTEX_POINT ( 'NONE', #295 ) ;
#147 = CALENDAR_DATE ( 2026, 29, 8 ) ;
#148 = VECTOR ( 'NONE', #390, 1000.000000000000000 ) ;
#149 = PLANE ( 'NONE',  #246 ) ;
#150 = CARTESIAN_POINT ( 'NONE',  ( -5.000000000000008882, 41.50000000000000711, 3.000000000000000000 ) ) ;
#151 = DIRECTION ( 'NONE',  ( -3.180326372624143053E-15, 1.000000000000000000, 0.000000000000000000 ) ) ;
#152 = FACE_OUTER_BOUND ( 'NONE', #279, .T. ) ;
#153 = EDGE_CURVE ( 'NONE', #393, #431, #63, .T. ) ;
#154 = LINE ( 'NONE', #349, #81 ) ;
#155 = LOCAL_TIME ( 18, 31, 30.00000000000000000, #127 ) ;
#156 = DIRECTION ( 'NONE',  ( -1.000000000000000000, -0.000000000000000000, -0.000000000000000000 ) ) ;
#157 = CARTESIAN_POINT ( 'NONE',  ( 9.999999999999991118, 38.50000000000000711, 3.000000000000000000 ) ) ;
#158 = VERTEX_POINT ( 'NONE', #480 ) ;
#159 = VECTOR ( 'NONE', #194, 1000.000000000000000 ) ;
#160 = CARTESIAN_POINT ( 'NONE',  ( -5.000000000000007994, 38.50000000000000711, 3.000000000000000000 ) ) ;
#161 = VERTEX_POINT ( 'NONE', #291 ) ;
#162 = CARTESIAN_POINT ( 'NONE',  ( 4.999999999999990230, 38.50000000000000711, 3.000000000000000000 ) ) ;
#163 = CARTESIAN_POINT ( 'NONE',  ( -5.000000000000007994, -38.49999999999999289, 3.000000000000000000 ) ) ;
#164 = ORIENTED_EDGE ( 'NONE', *, *, #450, .F. ) ;
#165 = VECTOR ( 'NONE', #271, 1000.000000000000000 ) ;
#166 = ORIENTED_EDGE ( 'NONE', *, *, #27, .T. ) ;
#167 = VECTOR ( 'NONE', #412, 1000.000000000000000 ) ;
#168 = ORIENTED_EDGE ( 'NONE', *, *, #130, .T. ) ;
#169 = PRODUCT_DEFINITION ( 'UNKNOWN', '', #72, #191 ) ;
#170 = CARTESIAN_POINT ( 'NONE',  ( 9.999999999999991118, 38.50000000000000711, 3.000000000000000000 ) ) ;
#171 = DIRECTION ( 'NONE',  ( 0.000000000000000000, 0.000000000000000000, -1.000000000000000000 ) ) ;
#172 = EDGE_CURVE ( 'NONE', #88, #100, #111, .T. ) ;
#173 = ORIENTED_EDGE ( 'NONE', *, *, #48, .T. ) ;
#174 = ADVANCED_FACE ( 'NONE', ( #152 ), #410, .F. ) ;
#175 = EDGE_LOOP ( 'NONE', ( #201, #43, #60, #282 ) ) ;
#176 = PERSON_AND_ORGANIZATION_ROLE ( 'classification_officer' ) ;
#177 = ORIENTED_EDGE ( 'NONE', *, *, #188, .T. ) ;
#178 = CARTESIAN_POINT ( 'NONE',  ( -5.000000000000007994, -38.49999999999999289, 3.000000000000000000 ) ) ;
#179 = APPROVAL_DATE_TIME ( #108, #104 ) ;
#180 = CARTESIAN_POINT ( 'NONE',  ( 4.999999999999990230, 41.50000000000000711, 3.000000000000000000 ) ) ;
#181 = DIRECTION ( 'NONE',  ( -0.000000000000000000, -0.000000000000000000, -1.000000000000000000 ) ) ;
#182 = VECTOR ( 'NONE', #25, 1000.000000000000000 ) ;
#183 = COORDINATED_UNIVERSAL_TIME_OFFSET ( 5, 30, .AHEAD. ) ;
#184 = LOCAL_TIME ( 18, 31, 30.00000000000000000, #89 ) ;
#185 = LINE ( 'NONE', #289, #106 ) ;
#186 = AXIS2_PLACEMENT_3D ( 'NONE', #369, #171, #211 ) ;
#187 = LINE ( 'NONE', #496, #202 ) ;
#188 = EDGE_CURVE ( 'NONE', #10, #316, #154, .T. ) ;
#189 = EDGE_CURVE ( 'NONE', #10, #88, #339, .T. ) ;
#190 = CARTESIAN_POINT ( 'NONE',  ( 0.000000000000000000, 0.000000000000000000, 3.000000000000000000 ) ) ;
#191 = DESIGN_CONTEXT ( 'detailed design', #338, 'design' ) ;
#192 = CARTESIAN_POINT ( 'NONE',  ( 5.000000000000009770, -41.49999999999999289, 0.000000000000000000 ) ) ;
#193 = ORIENTED_EDGE ( 'NONE', *, *, #237, .F. ) ;
#194 = DIRECTION ( 'NONE',  ( -1.351732578683226234E-16, 1.000000000000000000, -0.000000000000000000 ) ) ;
#195 = LINE ( 'NONE', #392, #31 ) ;
#196 = ORIENTED_EDGE ( 'NONE', *, *, #130, .F. ) ;
#197 = FACE_OUTER_BOUND ( 'NONE', #175, .T. ) ;
#198 = ORIENTED_EDGE ( 'NONE', *, *, #220, .T. ) ;
#199 = DIRECTION ( 'NONE',  ( -9.011550524554840736E-17, 1.000000000000000000, 0.000000000000000000 ) ) ;
#200 = ORIENTED_EDGE ( 'NONE', *, *, #189, .T. ) ;
#201 = ORIENTED_EDGE ( 'NONE', *, *, #258, .T. ) ;
#202 = VECTOR ( 'NONE', #118, 1000.000000000000000 ) ;
#203 = ORIENTED_EDGE ( 'NONE', *, *, #348, .F. ) ;
#204 = ORIENTED_EDGE ( 'NONE', *, *, #350, .T. ) ;
#205 = ADVANCED_FACE ( 'NONE', ( #229 ), #493, .F. ) ;
#206 = ADVANCED_FACE ( 'NONE', ( #461 ), #300, .F. ) ;
#207 = VERTEX_POINT ( 'NONE', #274 ) ;
#208 = APPLICATION_PROTOCOL_DEFINITION ( 'international standard', 'config_control_design', 1994, #338 ) ;
#209 = CARTESIAN_POINT ( 'NONE',  ( -5.000000000000007994, -38.49999999999999289, 0.000000000000000000 ) ) ;
#210 = ORIENTED_EDGE ( 'NONE', *, *, #102, .F. ) ;
#211 = DIRECTION ( 'NONE',  ( -1.000000000000000000, 0.000000000000000000, -0.000000000000000000 ) ) ;
#212 = CARTESIAN_POINT ( 'NONE',  ( -10.00000000000000888, 38.50000000000000711, 3.000000000000000000 ) ) ;
#213 = VECTOR ( 'NONE', #302, 1000.000000000000000 ) ;
#214 = CC_DESIGN_PERSON_AND_ORGANIZATION_ASSIGNMENT ( #408, #409, ( #169 ) ) ;
#215 = CALENDAR_DATE ( 2026, 29, 8 ) ;
#216 = LINE ( 'NONE', #446, #360 ) ;
#217 = PERSON_AND_ORGANIZATION ( #442, #28 ) ;
#218 = EDGE_CURVE ( 'NONE', #268, #207, #388, .T. ) ;
#219 = DIRECTION ( 'NONE',  ( -1.000000000000000000, -0.000000000000000000, -0.000000000000000000 ) ) ;
#220 = EDGE_CURVE ( 'NONE', #328, #238, #128, .T. ) ;
#221 = CARTESIAN_POINT ( 'NONE',  ( -10.00000000000000178, -38.49999999999999289, 3.000000000000000000 ) ) ;
#222 = VECTOR ( 'NONE', #19, 1000.000000000000000 ) ;
#223 = DATE_AND_TIME ( #147, #65 ) ;
#224 = DIRECTION ( 'NONE',  ( -2.891205793294675861E-16, 1.000000000000000000, 0.000000000000000000 ) ) ;
#225 = CALENDAR_DATE ( 2026, 29, 8 ) ;
#226 = CARTESIAN_POINT ( 'NONE',  ( -10.00000000000000178, -38.49999999999999289, 0.000000000000000000 ) ) ;
#227 = ORIENTED_EDGE ( 'NONE', *, *, #287, .T. ) ;
#228 = PERSON_AND_ORGANIZATION_ROLE ( 'design_supplier' ) ;
#229 = FACE_OUTER_BOUND ( 'NONE', #143, .T. ) ;
#230 = ORIENTED_EDGE ( 'NONE', *, *, #131, .T. ) ;
#231 = AXIS2_PLACEMENT_3D ( 'NONE', #212, #69, #477 ) ;
#232 = DIRECTION ( 'NONE',  ( 1.000000000000000000, 0.000000000000000000, 0.000000000000000000 ) ) ;
#233 = FACE_OUTER_BOUND ( 'NONE', #243, .T. ) ;
#234 = VERTEX_POINT ( 'NONE', #119 ) ;
#235 = ORIENTED_EDGE ( 'NONE', *, *, #257, .F. ) ;
#236 = ADVANCED_FACE ( 'NONE', ( #426 ), #297, .F. ) ;
#237 = EDGE_CURVE ( 'NONE', #129, #316, #419, .T. ) ;
#238 = VERTEX_POINT ( 'NONE', #192 ) ;
#239 = ORIENTED_EDGE ( 'NONE', *, *, #368, .T. ) ;
#240 = AXIS2_PLACEMENT_3D ( 'NONE', #425, #92, #273 ) ;
#241 = ORIENTED_EDGE ( 'NONE', *, *, #189, .F. ) ;
#242 = VECTOR ( 'NONE', #42, 1000.000000000000000 ) ;
#243 = EDGE_LOOP ( 'NONE', ( #471, #459, #436, #7 ) ) ;
#244 = PERSON_AND_ORGANIZATION ( #442, #28 ) ;
#245 = ORIENTED_EDGE ( 'NONE', *, *, #400, .F. ) ;
#246 = AXIS2_PLACEMENT_3D ( 'NONE', #430, #55, #361 ) ;
#247 = DIRECTION ( 'NONE',  ( 1.000000000000000000, 0.000000000000000000, 0.000000000000000000 ) ) ;
#248 = ORIENTED_EDGE ( 'NONE', *, *, #91, .F. ) ;
#249 = DIRECTION ( 'NONE',  ( -0.000000000000000000, -0.000000000000000000, -1.000000000000000000 ) ) ;
#250 = CARTESIAN_POINT ( 'NONE',  ( -5.000000000000007994, -38.49999999999999289, 0.000000000000000000 ) ) ;
#251 = CARTESIAN_POINT ( 'NONE',  ( 4.999999999999990230, 38.50000000000000711, 3.000000000000000000 ) ) ;
#252 = DIRECTION ( 'NONE',  ( 1.000000000000000000, 0.000000000000000000, 0.000000000000000000 ) ) ;
#253 = CC_DESIGN_APPROVAL ( #417, ( #280 ) ) ;
#254 = CARTESIAN_POINT ( 'NONE',  ( -4.999999999999998224, -41.49999999999999289, 3.000000000000000000 ) ) ;
#255 = DATE_TIME_ROLE ( 'creation_date' ) ;
#256 = CARTESIAN_POINT ( 'NONE',  ( -10.00000000000000178, -38.49999999999999289, 0.000000000000000000 ) ) ;
#257 = EDGE_CURVE ( 'NONE', #4, #52, #195, .T. ) ;
#258 = EDGE_CURVE ( 'NONE', #431, #207, #344, .T. ) ;
#259 = LINE ( 'NONE', #209, #66 ) ;
#260 = CARTESIAN_POINT ( 'NONE',  ( 9.999999999999991118, 38.50000000000000711, 0.000000000000000000 ) ) ;
#261 = VECTOR ( 'NONE', #12, 1000.000000000000000 ) ;
#262 = LINE ( 'NONE', #299, #74 ) ;
#263 = CARTESIAN_POINT ( 'NONE',  ( 9.999999999999991118, 38.50000000000000711, 0.000000000000000000 ) ) ;
#264 = PERSON_AND_ORGANIZATION ( #442, #28 ) ;
#265 = DIRECTION ( 'NONE',  ( 0.000000000000000000, -0.000000000000000000, -1.000000000000000000 ) ) ;
#266 = DIRECTION ( 'NONE',  ( 3.180326372624143447E-15, -1.000000000000000000, 0.000000000000000000 ) ) ;
#267 = DATE_AND_TIME ( #225, #155 ) ;
#268 = VERTEX_POINT ( 'NONE', #160 ) ;
#269 = AXIS2_PLACEMENT_3D ( 'NONE', #307, #492, #133 ) ;
#270 = CARTESIAN_POINT ( 'NONE',  ( 9.999999999999991118, 38.50000000000000711, 3.000000000000000000 ) ) ;
#271 = DIRECTION ( 'NONE',  ( -6.360652745248286895E-15, 1.000000000000000000, 0.000000000000000000 ) ) ;
#272 = ORIENTED_EDGE ( 'NONE', *, *, #324, .T. ) ;
#273 = DIRECTION ( 'NONE',  ( 0.000000000000000000, 0.000000000000000000, 1.000000000000000000 ) ) ;
#274 = CARTESIAN_POINT ( 'NONE',  ( -5.000000000000007994, 38.50000000000000711, 0.000000000000000000 ) ) ;
#275 = EDGE_CURVE ( 'NONE', #328, #146, #305, .T. ) ;
#276 = ADVANCED_FACE ( 'NONE', ( #233 ), #490, .F. ) ;
#277 = CARTESIAN_POINT ( 'NONE',  ( -10.00000000000000888, 38.50000000000000711, 3.000000000000000000 ) ) ;
#278 = EDGE_LOOP ( 'NONE', ( #137, #196, #39, #314 ) ) ;
#279 = EDGE_LOOP ( 'NONE', ( #405, #372, #494, #363 ) ) ;
#280 = SECURITY_CLASSIFICATION ( '', '', #41 ) ;
#281 = VERTEX_POINT ( 'NONE', #402 ) ;
#282 = ORIENTED_EDGE ( 'NONE', *, *, #153, .T. ) ;
#283 = DIRECTION ( 'NONE',  ( 1.000000000000000000, 9.011550524554840736E-17, -0.000000000000000000 ) ) ;
#284 = ORIENTED_EDGE ( 'NONE', *, *, #144, .T. ) ;
#285 = ORIENTED_EDGE ( 'NONE', *, *, #145, .T. ) ;
#286 = UNCERTAINTY_MEASURE_WITH_UNIT (LENGTH_MEASURE( 1.000000000000000082E-05 ), #47, 'distance_accuracy_value', 'NONE');
#287 = EDGE_CURVE ( 'NONE', #234, #129, #54, .T. ) ;
#288 = LINE ( 'NONE', #444, #448 ) ;
#289 = CARTESIAN_POINT ( 'NONE',  ( 4.999999999999990230, 38.50000000000000711, 3.000000000000000000 ) ) ;
#290 = AXIS2_PLACEMENT_3D ( 'NONE', #79, #116, #265 ) ;
#291 = CARTESIAN_POINT ( 'NONE',  ( 4.999999999999990230, 41.50000000000000711, 0.000000000000000000 ) ) ;
#292 = CARTESIAN_POINT ( 'NONE',  ( 5.000000000000009770, -41.49999999999999289, 3.000000000000000000 ) ) ;
#293 = CARTESIAN_POINT ( 'NONE',  ( 4.999999999999990230, 38.50000000000000711, 3.000000000000000000 ) ) ;
#294 = VECTOR ( 'NONE', #64, 1000.000000000000000 ) ;
#295 = CARTESIAN_POINT ( 'NONE',  ( 4.999999999999990230, -38.49999999999999289, 3.000000000000000000 ) ) ;
#296 = CARTESIAN_POINT ( 'NONE',  ( 4.999999999999990230, 41.50000000000000711, 3.000000000000000000 ) ) ;
#297 = PLANE ( 'NONE',  #290 ) ;
#298 = SHAPE_DEFINITION_REPRESENTATION ( #495, #73 ) ;
#299 = CARTESIAN_POINT ( 'NONE',  ( 4.999999999999990230, 38.50000000000000711, 0.000000000000000000 ) ) ;
#300 = PLANE ( 'NONE',  #462 ) ;
#301 = LINE ( 'NONE', #411, #117 ) ;
#302 = DIRECTION ( 'NONE',  ( 1.000000000000000000, 0.000000000000000000, 0.000000000000000000 ) ) ;
#303 = EDGE_LOOP ( 'NONE', ( #285, #45, #173, #466, #272, #140, #357, #96, #311, #200, #166, #124 ) ) ;
#304 = FACE_OUTER_BOUND ( 'NONE', #94, .T. ) ;
#305 = LINE ( 'NONE', #335, #165 ) ;
#306 = ORIENTED_EDGE ( 'NONE', *, *, #258, .F. ) ;
#307 = CARTESIAN_POINT ( 'NONE',  ( 5.000000000000009770, -41.49999999999999289, 3.000000000000000000 ) ) ;
#308 = VERTEX_POINT ( 'NONE', #366 ) ;
#309 = ADVANCED_FACE ( 'NONE', ( #317 ), #136, .F. ) ;
#310 = EDGE_CURVE ( 'NONE', #4, #234, #356, .T. ) ;
#311 = ORIENTED_EDGE ( 'NONE', *, *, #370, .T. ) ;
#312 = DATE_TIME_ROLE ( 'classification_date' ) ;
#313 = VECTOR ( 'NONE', #32, 1000.000000000000000 ) ;
#314 = ORIENTED_EDGE ( 'NONE', *, *, #40, .T. ) ;
#315 = CARTESIAN_POINT ( 'NONE',  ( -10.00000000000000888, 38.50000000000000711, 0.000000000000000000 ) ) ;
#316 = VERTEX_POINT ( 'NONE', #250 ) ;
#317 = FACE_OUTER_BOUND ( 'NONE', #498, .T. ) ;
#318 = CARTESIAN_POINT ( 'NONE',  ( -4.999999999999998224, -41.49999999999999289, 3.000000000000000000 ) ) ;
#319 = PRODUCT_RELATED_PRODUCT_CATEGORY ( 'detail', '', ( #352 ) ) ;
#320 = CARTESIAN_POINT ( 'NONE',  ( -10.00000000000000888, 38.50000000000000711, 3.000000000000000000 ) ) ;
#321 = FACE_OUTER_BOUND ( 'NONE', #134, .T. ) ;
#322 = ORIENTED_EDGE ( 'NONE', *, *, #102, .T. ) ;
#323 = VECTOR ( 'NONE', #482, 1000.000000000000000 ) ;
#324 = EDGE_CURVE ( 'NONE', #351, #393, #17, .T. ) ;
#325 = ADVANCED_FACE ( 'NONE', ( #374 ), #377, .F. ) ;
#326 = DIRECTION ( 'NONE',  ( -1.000000000000000000, 0.000000000000000000, 0.000000000000000000 ) ) ;
#327 = VECTOR ( 'NONE', #156, 1000.000000000000000 ) ;
#328 = VERTEX_POINT ( 'NONE', #292 ) ;
#329 = VECTOR ( 'NONE', #71, 1000.000000000000000 ) ;
#330 = DIRECTION ( 'NONE',  ( 1.000000000000000000, 0.000000000000000000, 0.000000000000000000 ) ) ;
#331 = DIRECTION ( 'NONE',  ( 1.000000000000000000, 3.180326372624143053E-15, -0.000000000000000000 ) ) ;
#332 = DIRECTION ( 'NONE',  ( -1.351732578683226234E-16, 1.000000000000000000, -0.000000000000000000 ) ) ;
#333 = CARTESIAN_POINT ( 'NONE',  ( 4.999999999999990230, 38.50000000000000711, 0.000000000000000000 ) ) ;
#334 = CARTESIAN_POINT ( 'NONE',  ( 5.000000000000009770, -41.49999999999999289, 0.000000000000000000 ) ) ;
#335 = CARTESIAN_POINT ( 'NONE',  ( 5.000000000000009770, -41.49999999999999289, 3.000000000000000000 ) ) ;
#336 = APPROVAL_ROLE ( '' ) ;
#337 = CARTESIAN_POINT ( 'NONE',  ( 4.999999999999990230, -38.49999999999999289, 3.000000000000000000 ) ) ;
#338 = APPLICATION_CONTEXT ( 'configuration controlled 3d designs of mechanical parts and assemblies' ) ;
#339 = LINE ( 'NONE', #163, #362 ) ;
#340 = CARTESIAN_POINT ( 'NONE',  ( -10.00000000000000888, 38.50000000000000711, 0.000000000000000000 ) ) ;
#341 = CC_DESIGN_PERSON_AND_ORGANIZATION_ASSIGNMENT ( #217, #176, ( #280 ) ) ;
#342 = DIRECTION ( 'NONE',  ( 3.180326372624143447E-15, -1.000000000000000000, 0.000000000000000000 ) ) ;
#343 = ORIENTED_EDGE ( 'NONE', *, *, #275, .F. ) ;
#344 = LINE ( 'NONE', #86, #381 ) ;
#345 = ORIENTED_EDGE ( 'NONE', *, *, #50, .F. ) ;
#346 = CARTESIAN_POINT ( 'NONE',  ( 4.999999999999990230, -38.49999999999999289, 0.000000000000000000 ) ) ;
#347 = PLANE ( 'NONE',  #456 ) ;
#348 = EDGE_CURVE ( 'NONE', #316, #100, #259, .T. ) ;
#349 = CARTESIAN_POINT ( 'NONE',  ( -5.000000000000007994, -38.49999999999999289, 3.000000000000000000 ) ) ;
#350 = EDGE_CURVE ( 'NONE', #207, #234, #383, .T. ) ;
#351 = VERTEX_POINT ( 'NONE', #296 ) ;
#352 = PRODUCT ( 'MechanicalLimit_Default_sldprt', 'MechanicalLimit_Default_sldprt', '', ( #474 ) ) ;
#353 = CC_DESIGN_PERSON_AND_ORGANIZATION_ASSIGNMENT ( #264, #78, ( #72 ) ) ;
#354 = MANIFOLD_SOLID_BREP ( 'Boss-Extrude1', #439 ) ;
#355 = APPROVAL_PERSON_ORGANIZATION ( #379, #6, #122 ) ;
#356 = LINE ( 'NONE', #277, #323 ) ;
#357 = ORIENTED_EDGE ( 'NONE', *, *, #401, .T. ) ;
#358 = AXIS2_PLACEMENT_3D ( 'NONE', #178, #331, #151 ) ;
#359 = ORIENTED_EDGE ( 'NONE', *, *, #153, .F. ) ;
#360 = VECTOR ( 'NONE', #249, 1000.000000000000000 ) ;
#361 = DIRECTION ( 'NONE',  ( 0.000000000000000000, -0.000000000000000000, -1.000000000000000000 ) ) ;
#362 = VECTOR ( 'NONE', #342, 1000.000000000000000 ) ;
#363 = ORIENTED_EDGE ( 'NONE', *, *, #90, .T. ) ;
#364 = DIRECTION ( 'NONE',  ( 1.000000000000000000, 0.000000000000000000, 0.000000000000000000 ) ) ;
#365 = CARTESIAN_POINT ( 'NONE',  ( 0.000000000000000000, 0.000000000000000000, 0.000000000000000000 ) ) ;
#366 = CARTESIAN_POINT ( 'NONE',  ( 10.00000000000000178, -38.49999999999999289, 0.000000000000000000 ) ) ;
#367 = CARTESIAN_POINT ( 'NONE',  ( -10.00000000000000888, 38.50000000000000711, 3.000000000000000000 ) ) ;
#368 = EDGE_CURVE ( 'NONE', #281, #308, #301, .T. ) ;
#369 = CARTESIAN_POINT ( 'NONE',  ( 0.000000000000000000, 0.000000000000000000, 0.000000000000000000 ) ) ;
#370 = EDGE_CURVE ( 'NONE', #52, #10, #35, .T. ) ;
#371 = PERSON_AND_ORGANIZATION ( #442, #28 ) ;
#372 = ORIENTED_EDGE ( 'NONE', *, *, #188, .F. ) ;
#373 = CARTESIAN_POINT ( 'NONE',  ( -4.999999999999998224, -41.49999999999999289, 3.000000000000000000 ) ) ;
#374 = FACE_OUTER_BOUND ( 'NONE', #62, .T. ) ;
#375 = CARTESIAN_POINT ( 'NONE',  ( -4.999999999999998224, -41.49999999999999289, 0.000000000000000000 ) ) ;
#376 = CARTESIAN_POINT ( 'NONE',  ( 4.999999999999990230, -38.49999999999999289, 3.000000000000000000 ) ) ;
#377 = PLANE ( 'NONE',  #358 ) ;
#378 = AXIS2_PLACEMENT_3D ( 'NONE', #67, #484, #36 ) ;
#379 = PERSON_AND_ORGANIZATION ( #442, #28 ) ;
#380 = LINE ( 'NONE', #333, #329 ) ;
#381 = VECTOR ( 'NONE', #497, 1000.000000000000000 ) ;
#382 = FACE_OUTER_BOUND ( 'NONE', #303, .T. ) ;
#383 = LINE ( 'NONE', #340, #327 ) ;
#384 = EDGE_CURVE ( 'NONE', #393, #268, #455, .T. ) ;
#385 = PLANE ( 'NONE',  #68 ) ;
#386 = ORIENTED_EDGE ( 'NONE', *, *, #434, .F. ) ;
#387 = CARTESIAN_POINT ( 'NONE',  ( 9.999999999999991118, 38.50000000000000711, 3.000000000000000000 ) ) ;
#388 = LINE ( 'NONE', #123, #242 ) ;
#389 = ORIENTED_EDGE ( 'NONE', *, *, #287, .F. ) ;
#390 = DIRECTION ( 'NONE',  ( -1.000000000000000000, -0.000000000000000000, -0.000000000000000000 ) ) ;
#391 = ORIENTED_EDGE ( 'NONE', *, *, #450, .T. ) ;
#392 = CARTESIAN_POINT ( 'NONE',  ( -10.00000000000000888, 38.50000000000000711, 3.000000000000000000 ) ) ;
#393 = VERTEX_POINT ( 'NONE', #132 ) ;
#394 = ORIENTED_EDGE ( 'NONE', *, *, #101, .F. ) ;
#395 = DIRECTION ( 'NONE',  ( 0.000000000000000000, -0.000000000000000000, 1.000000000000000000 ) ) ;
#396 = CARTESIAN_POINT ( 'NONE',  ( -5.000000000000007994, -38.49999999999999289, 3.000000000000000000 ) ) ;
#397 = ORIENTED_EDGE ( 'NONE', *, *, #131, .F. ) ;
#398 = APPLICATION_PROTOCOL_DEFINITION ( 'international standard', 'config_control_design', 1994, #501 ) ;
#399 = EDGE_LOOP ( 'NONE', ( #284, #394, #424, #168 ) ) ;
#400 = EDGE_CURVE ( 'NONE', #429, #158, #262, .T. ) ;
#401 = EDGE_CURVE ( 'NONE', #268, #4, #44, .T. ) ;
#402 = CARTESIAN_POINT ( 'NONE',  ( 10.00000000000000178, -38.49999999999999289, 3.000000000000000000 ) ) ;
#403 = ORIENTED_EDGE ( 'NONE', *, *, #350, .F. ) ;
#404 =( NAMED_UNIT ( * ) SI_UNIT ( $, .STERADIAN. ) SOLID_ANGLE_UNIT ( ) );
#405 = ORIENTED_EDGE ( 'NONE', *, *, #237, .T. ) ;
#406 = LINE ( 'NONE', #376, #167 ) ;
#407 = DIRECTION ( 'NONE',  ( -0.000000000000000000, -0.000000000000000000, -1.000000000000000000 ) ) ;
#408 = PERSON_AND_ORGANIZATION ( #442, #28 ) ;
#409 = PERSON_AND_ORGANIZATION_ROLE ( 'creator' ) ;
#410 = PLANE ( 'NONE',  #378 ) ;
#411 = CARTESIAN_POINT ( 'NONE',  ( 10.00000000000000178, -38.49999999999999289, 3.000000000000000000 ) ) ;
#412 = DIRECTION ( 'NONE',  ( -0.000000000000000000, -0.000000000000000000, -1.000000000000000000 ) ) ;
#413 = EDGE_CURVE ( 'NONE', #80, #351, #414, .T. ) ;
#414 = LINE ( 'NONE', #162, #22 ) ;
#415 = ADVANCED_FACE ( 'NONE', ( #382 ), #77, .F. ) ;
#416 = VECTOR ( 'NONE', #232, 1000.000000000000000 ) ;
#417 = APPROVAL ( #125, 'UNSPECIFIED' ) ;
#418 = LINE ( 'NONE', #334, #120 ) ;
#419 = LINE ( 'NONE', #226, #213 ) ;
#420 = PERSON_AND_ORGANIZATION ( #442, #28 ) ;
#421 = CARTESIAN_POINT ( 'NONE',  ( 5.000000000000009770, -41.49999999999999289, 3.000000000000000000 ) ) ;
#422 = ORIENTED_EDGE ( 'NONE', *, *, #172, .F. ) ;
#423 = DIRECTION ( 'NONE',  ( 1.000000000000000000, 2.891205793294675861E-16, -0.000000000000000000 ) ) ;
#424 = ORIENTED_EDGE ( 'NONE', *, *, #413, .F. ) ;
#425 = CARTESIAN_POINT ( 'NONE',  ( 4.999999999999990230, 38.50000000000000711, 3.000000000000000000 ) ) ;
#426 = FACE_OUTER_BOUND ( 'NONE', #479, .T. ) ;
#427 = ORIENTED_EDGE ( 'NONE', *, *, #310, .T. ) ;
#428 = APPROVAL_DATE_TIME ( #223, #417 ) ;
#429 = VERTEX_POINT ( 'NONE', #263 ) ;
#430 = CARTESIAN_POINT ( 'NONE',  ( 4.999999999999990230, 38.50000000000000711, 3.000000000000000000 ) ) ;
#431 = VERTEX_POINT ( 'NONE', #75 ) ;
#432 = ORIENTED_EDGE ( 'NONE', *, *, #368, .F. ) ;
#433 = EDGE_CURVE ( 'NONE', #281, #473, #82, .T. ) ;
#434 = EDGE_CURVE ( 'NONE', #161, #431, #187, .T. ) ;
#435 = AXIS2_PLACEMENT_3D ( 'NONE', #320, #283, #199 ) ;
#436 = ORIENTED_EDGE ( 'NONE', *, *, #27, .F. ) ;
#437 =( NAMED_UNIT ( * ) PLANE_ANGLE_UNIT ( ) SI_UNIT ( $, .RADIAN. ) );
#438 = CARTESIAN_POINT ( 'NONE',  ( -10.00000000000000178, -38.49999999999999289, 3.000000000000000000 ) ) ;
#439 = CLOSED_SHELL ( 'NONE', ( #470, #206, #30, #499, #236, #488, #61, #309, #174, #325, #276, #205, #415, #5 ) ) ;
#440 = ORIENTED_EDGE ( 'NONE', *, *, #348, .T. ) ;
#441 = LINE ( 'NONE', #105, #23 ) ;
#442 = PERSON ( 'UNSPECIFIED', 'UNSPECIFIED', 'UNSPECIFIED', ('UNSPECIFIED'), ('UNSPECIFIED'), ('UNSPECIFIED') ) ;
#443 = VECTOR ( 'NONE', #330, 1000.000000000000000 ) ;
#444 = CARTESIAN_POINT ( 'NONE',  ( 4.999999999999990230, -38.49999999999999289, 0.000000000000000000 ) ) ;
#445 = AXIS2_PLACEMENT_3D ( 'NONE', #365, #11, #247 ) ;
#446 = CARTESIAN_POINT ( 'NONE',  ( 4.999999999999990230, 41.50000000000000711, 3.000000000000000000 ) ) ;
#447 = CC_DESIGN_PERSON_AND_ORGANIZATION_ASSIGNMENT ( #244, #59, ( #352 ) ) ;
#448 = VECTOR ( 'NONE', #364, 1000.000000000000000 ) ;
#449 = CARTESIAN_POINT ( 'NONE',  ( -10.00000000000000178, -38.49999999999999289, 3.000000000000000000 ) ) ;
#450 = EDGE_CURVE ( 'NONE', #238, #58, #418, .T. ) ;
#451 = CARTESIAN_POINT ( 'NONE',  ( -5.000000000000008882, 41.50000000000000711, 3.000000000000000000 ) ) ;
#452 = CC_DESIGN_DATE_AND_TIME_ASSIGNMENT ( #110, #312, ( #280 ) ) ;
#453 = CALENDAR_DATE ( 2026, 29, 8 ) ;
#454 = DIRECTION ( 'NONE',  ( -1.000000000000000000, 0.000000000000000000, -0.000000000000000000 ) ) ;
#455 = LINE ( 'NONE', #451, #20 ) ;
#456 = AXIS2_PLACEMENT_3D ( 'NONE', #500, #423, #224 ) ;
#457 = APPROVAL_STATUS ( 'not_yet_approved' ) ;
#458 = DIRECTION ( 'NONE',  ( 1.351732578683226234E-16, -1.000000000000000000, 0.000000000000000000 ) ) ;
#459 = ORIENTED_EDGE ( 'NONE', *, *, #220, .F. ) ;
#460 = DIRECTION ( 'NONE',  ( 0.000000000000000000, 1.000000000000000000, 0.000000000000000000 ) ) ;
#461 = FACE_OUTER_BOUND ( 'NONE', #138, .T. ) ;
#462 = AXIS2_PLACEMENT_3D ( 'NONE', #157, #76, #458 ) ;
#463 = ORIENTED_EDGE ( 'NONE', *, *, #90, .F. ) ;
#464 = CC_DESIGN_DATE_AND_TIME_ASSIGNMENT ( #112, #255, ( #169 ) ) ;
#465 = FACE_OUTER_BOUND ( 'NONE', #399, .T. ) ;
#466 = ORIENTED_EDGE ( 'NONE', *, *, #413, .T. ) ;
#467 = VECTOR ( 'NONE', #18, 1000.000000000000000 ) ;
#468 = CC_DESIGN_APPROVAL ( #104, ( #169 ) ) ;
#469 = ORIENTED_EDGE ( 'NONE', *, *, #218, .T. ) ;
#470 = ADVANCED_FACE ( 'NONE', ( #304 ), #385, .F. ) ;
#471 = ORIENTED_EDGE ( 'NONE', *, *, #91, .T. ) ;
#472 = EDGE_LOOP ( 'NONE', ( #204, #93, #475, #469 ) ) ;
#473 = VERTEX_POINT ( 'NONE', #270 ) ;
#474 = MECHANICAL_CONTEXT ( 'NONE', #501, 'mechanical' ) ;
#475 = ORIENTED_EDGE ( 'NONE', *, *, #401, .F. ) ;
#476 = ORIENTED_EDGE ( 'NONE', *, *, #144, .F. ) ;
#477 = DIRECTION ( 'NONE',  ( 0.000000000000000000, -0.000000000000000000, -1.000000000000000000 ) ) ;
#478 = APPROVAL_ROLE ( '' ) ;
#479 = EDGE_LOOP ( 'NONE', ( #1, #359, #56, #141 ) ) ;
#480 = CARTESIAN_POINT ( 'NONE',  ( 4.999999999999990230, 38.50000000000000711, 0.000000000000000000 ) ) ;
#481 = VECTOR ( 'NONE', #332, 1000.000000000000000 ) ;
#482 = DIRECTION ( 'NONE',  ( -0.000000000000000000, -0.000000000000000000, -1.000000000000000000 ) ) ;
#483 = LINE ( 'NONE', #487, #443 ) ;
#484 = DIRECTION ( 'NONE',  ( 0.000000000000000000, 1.000000000000000000, 0.000000000000000000 ) ) ;
#485 =( GEOMETRIC_REPRESENTATION_CONTEXT ( 3 ) GLOBAL_UNCERTAINTY_ASSIGNED_CONTEXT ( ( #286 ) ) GLOBAL_UNIT_ASSIGNED_CONTEXT ( ( #47, #437, #404 ) ) REPRESENTATION_CONTEXT ( 'NONE', 'WORKASPACE' ) );
#486 = LOCAL_TIME ( 18, 31, 30.00000000000000000, #183 ) ;
#487 = CARTESIAN_POINT ( 'NONE',  ( 4.999999999999990230, -38.49999999999999289, 3.000000000000000000 ) ) ;
#488 = ADVANCED_FACE ( 'NONE', ( #197 ), #347, .F. ) ;
#489 = DIRECTION ( 'NONE',  ( -6.360652745248286895E-15, 1.000000000000000000, 0.000000000000000000 ) ) ;
#490 = PLANE ( 'NONE',  #70 ) ;
#491 = CARTESIAN_POINT ( 'NONE',  ( -10.00000000000000888, 38.50000000000000711, 3.000000000000000000 ) ) ;
#492 = DIRECTION ( 'NONE',  ( -1.000000000000000000, -6.360652745248286106E-15, 0.000000000000000000 ) ) ;
#493 = PLANE ( 'NONE',  #269 ) ;
#494 = ORIENTED_EDGE ( 'NONE', *, *, #370, .F. ) ;
#495 = PRODUCT_DEFINITION_SHAPE ( 'NONE', 'NONE',  #169 ) ;
#496 = CARTESIAN_POINT ( 'NONE',  ( 4.999999999999990230, 41.50000000000000711, 0.000000000000000000 ) ) ;
#497 = DIRECTION ( 'NONE',  ( 2.891205793294675861E-16, -1.000000000000000000, 0.000000000000000000 ) ) ;
#498 = EDGE_LOOP ( 'NONE', ( #227, #463, #235, #427 ) ) ;
#499 = ADVANCED_FACE ( 'NONE', ( #465 ), #85, .F. ) ;
#500 = CARTESIAN_POINT ( 'NONE',  ( -5.000000000000008882, 41.50000000000000711, 3.000000000000000000 ) ) ;
#501 = APPLICATION_CONTEXT ( 'configuration controlled 3d designs of mechanical parts and assemblies' ) ;
ENDSEC;
END-ISO-10303-21;
