ISO-10303-21;
HEADER;
FILE_DESCRIPTION (( 'STEP AP203' ),
    '1' );
FILE_NAME ('SlidingSheet_Default_sldprt.STEP',
    '2026-08-29T13:01:32',
    ( '' ),
    ( '' ),
    'SwSTEP 2.0',
    'SolidWorks 2020',
    '' );
FILE_SCHEMA (( 'CONFIG_CONTROL_DESIGN' ));
ENDSEC;

DATA;
#1 = ORIENTED_EDGE ( 'NONE', *, *, #131, .F. ) ;
#2 = EDGE_LOOP ( 'NONE', ( #97, #155, #384, #104 ) ) ;
#3 = EDGE_CURVE ( 'NONE', #125, #295, #112, .T. ) ;
#4 = PRODUCT_DEFINITION_FORMATION_WITH_SPECIFIED_SOURCE ( 'ANY', '', #202, .NOT_KNOWN. ) ;
#5 = ORIENTED_EDGE ( 'NONE', *, *, #333, .F. ) ;
#6 = DIRECTION ( 'NONE',  ( -0.000000000000000000, -0.000000000000000000, 1.000000000000000000 ) ) ;
#7 = LINE ( 'NONE', #329, #115 ) ;
#8 = LINE ( 'NONE', #332, #89 ) ;
#9 = LOCAL_TIME ( 18, 31, 32.00000000000000000, #92 ) ;
#10 = DIRECTION ( 'NONE',  ( 1.000000000000000000, 0.000000000000000000, 0.000000000000000000 ) ) ;
#11 = DIRECTION ( 'NONE',  ( 1.301042606982605567E-16, -1.000000000000000000, 0.000000000000000000 ) ) ;
#12 = CARTESIAN_POINT ( 'NONE',  ( -9.120000000000002771, 45.00000000000000000, 0.000000000000000000 ) ) ;
#13 =( NAMED_UNIT ( * ) PLANE_ANGLE_UNIT ( ) SI_UNIT ( $, .RADIAN. ) );
#14 = CLOSED_SHELL ( 'NONE', ( #51, #119, #60, #215, #137, #199, #32, #300, #310, #71 ) ) ;
#15 = CIRCLE ( 'NONE', #291, 2.500000000000000444 ) ;
#16 = AXIS2_PLACEMENT_3D ( 'NONE', #159, #274, #164 ) ;
#17 = CARTESIAN_POINT ( 'NONE',  ( 6.620000000000002771, 45.00000000000000000, 3.001000000000000334 ) ) ;
#18 = EDGE_CURVE ( 'NONE', #130, #132, #7, .T. ) ;
#19 = CALENDAR_DATE ( 2026, 29, 8 ) ;
#20 = AXIS2_PLACEMENT_3D ( 'NONE', #220, #279, #223 ) ;
#21 = DIRECTION ( 'NONE',  ( 1.000000000000000000, 0.000000000000000000, 0.000000000000000000 ) ) ;
#22 = DIRECTION ( 'NONE',  ( 1.000000000000000000, 0.000000000000000000, 0.000000000000000000 ) ) ;
#23 = DATE_AND_TIME ( #103, #9 ) ;
#24 = PLANE ( 'NONE',  #163 ) ;
#25 = DATE_TIME_ROLE ( 'creation_date' ) ;
#26 = ORIENTED_EDGE ( 'NONE', *, *, #66, .T. ) ;
#27 = EDGE_LOOP ( 'NONE', ( #107, #209 ) ) ;
#28 = AXIS2_PLACEMENT_3D ( 'NONE', #208, #346, #21 ) ;
#29 = FACE_OUTER_BOUND ( 'NONE', #296, .T. ) ;
#30 = ORIENTED_EDGE ( 'NONE', *, *, #232, .F. ) ;
#31 = DIRECTION ( 'NONE',  ( -0.000000000000000000, 1.000000000000000000, 0.000000000000000000 ) ) ;
#32 = ADVANCED_FACE ( 'NONE', ( #275, #116, #250 ), #190, .F. ) ;
#33 = PERSON_AND_ORGANIZATION_ROLE ( 'design_supplier' ) ;
#34 = EDGE_CURVE ( 'NONE', #125, #132, #303, .T. ) ;
#35 = ORIENTED_EDGE ( 'NONE', *, *, #147, .F. ) ;
#36 = ORIENTED_EDGE ( 'NONE', *, *, #3, .T. ) ;
#37 = CARTESIAN_POINT ( 'NONE',  ( -14.11999999999999389, -39.99999999999999289, 0.000000000000000000 ) ) ;
#38 = ORIENTED_EDGE ( 'NONE', *, *, #66, .F. ) ;
#39 = CARTESIAN_POINT ( 'NONE',  ( 14.12000000000000810, -39.99999999999999289, 3.000000000000000000 ) ) ;
#40 = UNCERTAINTY_MEASURE_WITH_UNIT (LENGTH_MEASURE( 1.000000000000000082E-05 ), #372, 'distance_accuracy_value', 'NONE');
#41 = ORIENTED_EDGE ( 'NONE', *, *, #81, .T. ) ;
#42 = AXIS2_PLACEMENT_3D ( 'NONE', #363, #6, #224 ) ;
#43 = CARTESIAN_POINT ( 'NONE',  ( 9.120000000000002771, 45.00000000000000000, 3.001000000000000334 ) ) ;
#44 = CIRCLE ( 'NONE', #222, 2.500000000000000444 ) ;
#45 = ORIENTED_EDGE ( 'NONE', *, *, #225, .T. ) ;
#46 = APPLICATION_PROTOCOL_DEFINITION ( 'international standard', 'config_control_design', 1994, #281 ) ;
#47 = CARTESIAN_POINT ( 'NONE',  ( -14.12000000000000455, 49.99999999999999289, 3.000000000000000000 ) ) ;
#48 = DESIGN_CONTEXT ( 'detailed design', #129, 'design' ) ;
#49 = APPROVAL_PERSON_ORGANIZATION ( #377, #334, #149 ) ;
#50 = VECTOR ( 'NONE', #366, 1000.000000000000000 ) ;
#51 = ADVANCED_FACE ( 'NONE', ( #328 ), #109, .F. ) ;
#52 = APPROVAL_DATE_TIME ( #142, #227 ) ;
#53 = CARTESIAN_POINT ( 'NONE',  ( -14.12000000000000455, 49.99999999999999289, 0.000000000000000000 ) ) ;
#54 = PERSON_AND_ORGANIZATION_ROLE ( 'creator' ) ;
#55 = CARTESIAN_POINT ( 'NONE',  ( -14.12000000000000455, 49.99999999999999289, 0.000000000000000000 ) ) ;
#56 = PERSON_AND_ORGANIZATION ( #134, #105 ) ;
#57 = ORIENTED_EDGE ( 'NONE', *, *, #87, .F. ) ;
#58 = CARTESIAN_POINT ( 'NONE',  ( -6.620000000000002771, 45.00000000000000000, 3.001000000000000334 ) ) ;
#59 = EDGE_LOOP ( 'NONE', ( #45, #57, #299, #36 ) ) ;
#60 = ADVANCED_FACE ( 'NONE', ( #82 ), #189, .F. ) ;
#61 = MANIFOLD_SOLID_BREP ( 'Mirror1', #14 ) ;
#62 = DIRECTION ( 'NONE',  ( -0.000000000000000000, 0.000000000000000000, 1.000000000000000000 ) ) ;
#63 = CALENDAR_DATE ( 2026, 29, 8 ) ;
#64 = VECTOR ( 'NONE', #102, 1000.000000000000000 ) ;
#65 = ORIENTED_EDGE ( 'NONE', *, *, #3, .F. ) ;
#66 = EDGE_CURVE ( 'NONE', #251, #322, #193, .T. ) ;
#67 = VECTOR ( 'NONE', #321, 1000.000000000000000 ) ;
#68 = FACE_OUTER_BOUND ( 'NONE', #262, .T. ) ;
#69 = ORIENTED_EDGE ( 'NONE', *, *, #219, .F. ) ;
#70 = EDGE_LOOP ( 'NONE', ( #35, #1, #246, #286 ) ) ;
#71 = ADVANCED_FACE ( 'NONE', ( #273 ), #135, .F. ) ;
#72 = DIRECTION ( 'NONE',  ( -0.000000000000000000, -0.000000000000000000, -1.000000000000000000 ) ) ;
#73 = LOCAL_TIME ( 18, 31, 32.00000000000000000, #379 ) ;
#74 = VECTOR ( 'NONE', #306, 1000.000000000000000 ) ;
#75 = VECTOR ( 'NONE', #162, 1000.000000000000000 ) ;
#76 = ORIENTED_EDGE ( 'NONE', *, *, #225, .F. ) ;
#77 = CARTESIAN_POINT ( 'NONE',  ( 6.620000000000002771, 45.00000000000000000, 3.000000000000000000 ) ) ;
#78 = FACE_OUTER_BOUND ( 'NONE', #212, .T. ) ;
#79 = LINE ( 'NONE', #191, #382 ) ;
#80 = CC_DESIGN_PERSON_AND_ORGANIZATION_ASSIGNMENT ( #56, #127, ( #144 ) ) ;
#81 = EDGE_CURVE ( 'NONE', #130, #292, #301, .T. ) ;
#82 = FACE_OUTER_BOUND ( 'NONE', #59, .T. ) ;
#83 = DIRECTION ( 'NONE',  ( 0.000000000000000000, 0.000000000000000000, -1.000000000000000000 ) ) ;
#84 = FACE_OUTER_BOUND ( 'NONE', #358, .T. ) ;
#85 = DIRECTION ( 'NONE',  ( -0.000000000000000000, -0.000000000000000000, -1.000000000000000000 ) ) ;
#86 = CIRCLE ( 'NONE', #236, 2.500000000000000444 ) ;
#87 = EDGE_CURVE ( 'NONE', #132, #357, #140, .T. ) ;
#88 = CARTESIAN_POINT ( 'NONE',  ( -14.12000000000000455, 39.99999999999999289, 3.000000000000000000 ) ) ;
#89 = VECTOR ( 'NONE', #10, 1000.000000000000000 ) ;
#90 = CARTESIAN_POINT ( 'NONE',  ( 14.12000000000000810, -39.99999999999999289, 0.000000000000000000 ) ) ;
#91 = PRODUCT_DEFINITION_SHAPE ( 'NONE', 'NONE',  #161 ) ;
#92 = COORDINATED_UNIVERSAL_TIME_OFFSET ( 5, 30, .AHEAD. ) ;
#93 = VERTEX_POINT ( 'NONE', #77 ) ;
#94 = CC_DESIGN_SECURITY_CLASSIFICATION ( #144, ( #4 ) ) ;
#95 = DIRECTION ( 'NONE',  ( -1.000000000000000000, 0.000000000000000000, 0.000000000000000000 ) ) ;
#96 = CALENDAR_DATE ( 2026, 29, 8 ) ;
#97 = ORIENTED_EDGE ( 'NONE', *, *, #315, .F. ) ;
#98 = CARTESIAN_POINT ( 'NONE',  ( 14.11999999999999744, 39.99999999999999289, 0.000000000000000000 ) ) ;
#99 = ORIENTED_EDGE ( 'NONE', *, *, #100, .F. ) ;
#100 = EDGE_CURVE ( 'NONE', #292, #125, #8, .T. ) ;
#101 = EDGE_CURVE ( 'NONE', #157, #207, #213, .T. ) ;
#102 = DIRECTION ( 'NONE',  ( 1.000000000000000000, 0.000000000000000000, 0.000000000000000000 ) ) ;
#103 = CALENDAR_DATE ( 2026, 29, 8 ) ;
#104 = ORIENTED_EDGE ( 'NONE', *, *, #101, .F. ) ;
#105 = ORGANIZATION ( 'UNSPECIFIED', 'UNSPECIFIED', '' ) ;
#106 = ORIENTED_EDGE ( 'NONE', *, *, #101, .T. ) ;
#107 = ORIENTED_EDGE ( 'NONE', *, *, #192, .F. ) ;
#108 = LINE ( 'NONE', #338, #276 ) ;
#109 = CYLINDRICAL_SURFACE ( 'NONE', #186, 2.500000000000000444 ) ;
#110 = CC_DESIGN_APPROVAL ( #334, ( #144 ) ) ;
#111 = AXIS2_PLACEMENT_3D ( 'NONE', #284, #62, #383 ) ;
#112 = LINE ( 'NONE', #39, #74 ) ;
#113 = CARTESIAN_POINT ( 'NONE',  ( 14.11999999999999744, 39.99999999999999289, 3.000000000000000000 ) ) ;
#114 = CARTESIAN_POINT ( 'NONE',  ( -9.120000000000002771, 45.00000000000000000, 3.001000000000000334 ) ) ;
#115 = VECTOR ( 'NONE', #298, 1000.000000000000000 ) ;
#116 = FACE_BOUND ( 'NONE', #185, .T. ) ;
#117 = CARTESIAN_POINT ( 'NONE',  ( -11.62000000000000277, 45.00000000000000000, 0.000000000000000000 ) ) ;
#118 = LOCAL_TIME ( 18, 31, 32.00000000000000000, #349 ) ;
#119 = ADVANCED_FACE ( 'NONE', ( #78 ), #253, .F. ) ;
#120 = CALENDAR_DATE ( 2026, 29, 8 ) ;
#121 = CARTESIAN_POINT ( 'NONE',  ( -14.11999999999999389, -39.99999999999999289, 3.000000000000000000 ) ) ;
#122 = SHAPE_DEFINITION_REPRESENTATION ( #91, #331 ) ;
#123 = ORIENTED_EDGE ( 'NONE', *, *, #356, .T. ) ;
#124 = AXIS2_PLACEMENT_3D ( 'NONE', #180, #293, #375 ) ;
#125 = VERTEX_POINT ( 'NONE', #247 ) ;
#126 = LINE ( 'NONE', #378, #374 ) ;
#127 = PERSON_AND_ORGANIZATION_ROLE ( 'classification_officer' ) ;
#128 = VERTEX_POINT ( 'NONE', #359 ) ;
#129 = APPLICATION_CONTEXT ( 'configuration controlled 3d designs of mechanical parts and assemblies' ) ;
#130 = VERTEX_POINT ( 'NONE', #339 ) ;
#131 = EDGE_CURVE ( 'NONE', #130, #251, #195, .T. ) ;
#132 = VERTEX_POINT ( 'NONE', #228 ) ;
#133 = DIRECTION ( 'NONE',  ( -1.000000000000000000, 0.000000000000000000, 0.000000000000000000 ) ) ;
#134 = PERSON ( 'UNSPECIFIED', 'UNSPECIFIED', 'UNSPECIFIED', ('UNSPECIFIED'), ('UNSPECIFIED'), ('UNSPECIFIED') ) ;
#135 = CYLINDRICAL_SURFACE ( 'NONE', #20, 2.500000000000000444 ) ;
#136 = APPROVAL_PERSON_ORGANIZATION ( #198, #227, #312 ) ;
#137 = ADVANCED_FACE ( 'NONE', ( #84 ), #188, .F. ) ;
#138 = CARTESIAN_POINT ( 'NONE',  ( 0.000000000000000000, 0.000000000000000000, 0.000000000000000000 ) ) ;
#139 = ORIENTED_EDGE ( 'NONE', *, *, #192, .T. ) ;
#140 = LINE ( 'NONE', #278, #365 ) ;
#141 = DIRECTION ( 'NONE',  ( 0.000000000000000000, 0.000000000000000000, 1.000000000000000000 ) ) ;
#142 = DATE_AND_TIME ( #19, #197 ) ;
#143 = DIRECTION ( 'NONE',  ( 0.000000000000000000, 0.000000000000000000, -1.000000000000000000 ) ) ;
#144 = SECURITY_CLASSIFICATION ( '', '', #325 ) ;
#145 = CC_DESIGN_PERSON_AND_ORGANIZATION_ASSIGNMENT ( #267, #33, ( #4 ) ) ;
#146 = CIRCLE ( 'NONE', #324, 2.500000000000000444 ) ;
#147 = EDGE_CURVE ( 'NONE', #251, #357, #148, .T. ) ;
#148 = LINE ( 'NONE', #55, #64 ) ;
#149 = APPROVAL_ROLE ( '' ) ;
#150 = ORIENTED_EDGE ( 'NONE', *, *, #81, .F. ) ;
#151 = PLANE ( 'NONE',  #111 ) ;
#152 = ORIENTED_EDGE ( 'NONE', *, *, #182, .F. ) ;
#153 = VECTOR ( 'NONE', #304, 1000.000000000000000 ) ;
#154 = FACE_BOUND ( 'NONE', #27, .T. ) ;
#155 = ORIENTED_EDGE ( 'NONE', *, *, #277, .T. ) ;
#156 = ORIENTED_EDGE ( 'NONE', *, *, #232, .T. ) ;
#157 = VERTEX_POINT ( 'NONE', #233 ) ;
#158 = AXIS2_PLACEMENT_3D ( 'NONE', #138, #160, #165 ) ;
#159 = CARTESIAN_POINT ( 'NONE',  ( 14.11999999999999744, 39.99999999999999289, 3.000000000000000000 ) ) ;
#160 = DIRECTION ( 'NONE',  ( -0.000000000000000000, 0.000000000000000000, 1.000000000000000000 ) ) ;
#161 = PRODUCT_DEFINITION ( 'UNKNOWN', '', #4, #48 ) ;
#162 = DIRECTION ( 'NONE',  ( 1.301042606982605567E-16, -1.000000000000000000, 0.000000000000000000 ) ) ;
#163 = AXIS2_PLACEMENT_3D ( 'NONE', #88, #376, #170 ) ;
#164 = DIRECTION ( 'NONE',  ( 1.301042606982605567E-16, -1.000000000000000000, 0.000000000000000000 ) ) ;
#165 = DIRECTION ( 'NONE',  ( 1.000000000000000000, 0.000000000000000000, 0.000000000000000000 ) ) ;
#166 = PERSON_AND_ORGANIZATION ( #134, #105 ) ;
#167 = EDGE_CURVE ( 'NONE', #128, #205, #330, .T. ) ;
#168 = PERSON_AND_ORGANIZATION_ROLE ( 'design_owner' ) ;
#169 = DIRECTION ( 'NONE',  ( 0.000000000000000000, -0.000000000000000000, -1.000000000000000000 ) ) ;
#170 = DIRECTION ( 'NONE',  ( -1.301042606982605567E-16, 1.000000000000000000, 0.000000000000000000 ) ) ;
#171 = LINE ( 'NONE', #336, #153 ) ;
#172 = CARTESIAN_POINT ( 'NONE',  ( -9.120000000000002771, 45.00000000000000000, 0.000000000000000000 ) ) ;
#173 = APPROVAL_STATUS ( 'not_yet_approved' ) ;
#174 = EDGE_LOOP ( 'NONE', ( #156, #106 ) ) ;
#175 = EDGE_LOOP ( 'NONE', ( #361, #327 ) ) ;
#176 = VECTOR ( 'NONE', #307, 1000.000000000000000 ) ;
#177 = CARTESIAN_POINT ( 'NONE',  ( 11.62000000000000277, 45.00000000000000000, 3.000000000000000000 ) ) ;
#178 = ORIENTED_EDGE ( 'NONE', *, *, #182, .T. ) ;
#179 = CC_DESIGN_APPROVAL ( #227, ( #161 ) ) ;
#180 = CARTESIAN_POINT ( 'NONE',  ( -9.120000000000002771, 45.00000000000000000, 3.001000000000000334 ) ) ;
#181 = ORIENTED_EDGE ( 'NONE', *, *, #313, .F. ) ;
#182 = EDGE_CURVE ( 'NONE', #128, #218, #287, .T. ) ;
#183 = CC_DESIGN_DATE_AND_TIME_ASSIGNMENT ( #23, #25, ( #161 ) ) ;
#184 = ORIENTED_EDGE ( 'NONE', *, *, #34, .T. ) ;
#185 = EDGE_LOOP ( 'NONE', ( #320, #69 ) ) ;
#186 = AXIS2_PLACEMENT_3D ( 'NONE', #43, #72, #368 ) ;
#187 = EDGE_LOOP ( 'NONE', ( #76, #342, #38, #350 ) ) ;
#188 = PLANE ( 'NONE',  #340 ) ;
#189 = PLANE ( 'NONE',  #16 ) ;
#190 = PLANE ( 'NONE',  #158 ) ;
#191 = CARTESIAN_POINT ( 'NONE',  ( 11.62000000000000277, 45.00000000000000000, 3.001000000000000334 ) ) ;
#192 = EDGE_CURVE ( 'NONE', #93, #264, #305, .T. ) ;
#193 = LINE ( 'NONE', #248, #75 ) ;
#194 =( NAMED_UNIT ( * ) SI_UNIT ( $, .STERADIAN. ) SOLID_ANGLE_UNIT ( ) );
#195 = LINE ( 'NONE', #47, #176 ) ;
#196 = DIRECTION ( 'NONE',  ( -0.000000000000000000, -0.000000000000000000, -1.000000000000000000 ) ) ;
#197 = LOCAL_TIME ( 18, 31, 32.00000000000000000, #282 ) ;
#198 = PERSON_AND_ORGANIZATION ( #134, #105 ) ;
#199 = ADVANCED_FACE ( 'NONE', ( #154, #348, #283 ), #151, .T. ) ;
#200 = PERSON_AND_ORGANIZATION ( #134, #105 ) ;
#201 = CARTESIAN_POINT ( 'NONE',  ( -6.620000000000002771, 45.00000000000000000, 0.000000000000000000 ) ) ;
#202 = PRODUCT ( 'SlidingSheet_Default_sldprt', 'SlidingSheet_Default_sldprt', '', ( #308 ) ) ;
#203 = FACE_OUTER_BOUND ( 'NONE', #70, .T. ) ;
#204 = PERSON_AND_ORGANIZATION ( #134, #105 ) ;
#205 = VERTEX_POINT ( 'NONE', #239 ) ;
#206 = DIRECTION ( 'NONE',  ( 1.000000000000000000, 0.000000000000000000, 0.000000000000000000 ) ) ;
#207 = VERTEX_POINT ( 'NONE', #351 ) ;
#208 = CARTESIAN_POINT ( 'NONE',  ( 9.120000000000002771, 45.00000000000000000, 3.000000000000000000 ) ) ;
#209 = ORIENTED_EDGE ( 'NONE', *, *, #277, .F. ) ;
#210 = DIRECTION ( 'NONE',  ( 0.000000000000000000, -0.000000000000000000, 1.000000000000000000 ) ) ;
#211 = COORDINATED_UNIVERSAL_TIME_OFFSET ( 5, 30, .AHEAD. ) ;
#212 = EDGE_LOOP ( 'NONE', ( #352, #178, #242, #5 ) ) ;
#213 = CIRCLE ( 'NONE', #42, 2.500000000000000444 ) ;
#214 = AXIS2_PLACEMENT_3D ( 'NONE', #235, #31, #210 ) ;
#215 = ADVANCED_FACE ( 'NONE', ( #29 ), #24, .F. ) ;
#216 = PRODUCT_RELATED_PRODUCT_CATEGORY ( 'detail', '', ( #202 ) ) ;
#217 = ORIENTED_EDGE ( 'NONE', *, *, #100, .T. ) ;
#218 = VERTEX_POINT ( 'NONE', #201 ) ;
#219 = EDGE_CURVE ( 'NONE', #218, #381, #230, .T. ) ;
#220 = CARTESIAN_POINT ( 'NONE',  ( 9.120000000000002771, 45.00000000000000000, 3.001000000000000334 ) ) ;
#221 = APPROVAL_PERSON_ORGANIZATION ( #294, #302, #258 ) ;
#222 = AXIS2_PLACEMENT_3D ( 'NONE', #12, #83, #369 ) ;
#223 = DIRECTION ( 'NONE',  ( -1.000000000000000000, 0.000000000000000000, 0.000000000000000000 ) ) ;
#224 = DIRECTION ( 'NONE',  ( 1.000000000000000000, 0.000000000000000000, 0.000000000000000000 ) ) ;
#225 = EDGE_CURVE ( 'NONE', #295, #357, #255, .T. ) ;
#226 = DIRECTION ( 'NONE',  ( -0.000000000000000000, -0.000000000000000000, -1.000000000000000000 ) ) ;
#227 = APPROVAL ( #345, 'UNSPECIFIED' ) ;
#228 = CARTESIAN_POINT ( 'NONE',  ( 14.11999999999999744, 49.99999999999999289, 3.000000000000000000 ) ) ;
#229 = APPLICATION_PROTOCOL_DEFINITION ( 'international standard', 'config_control_design', 1994, #129 ) ;
#230 = CIRCLE ( 'NONE', #263, 2.500000000000000444 ) ;
#231 = DIRECTION ( 'NONE',  ( -0.000000000000000000, -0.000000000000000000, 1.000000000000000000 ) ) ;
#232 = EDGE_CURVE ( 'NONE', #207, #157, #146, .T. ) ;
#233 = CARTESIAN_POINT ( 'NONE',  ( 11.62000000000000277, 45.00000000000000000, 0.000000000000000000 ) ) ;
#234 = DATE_AND_TIME ( #120, #73 ) ;
#235 = CARTESIAN_POINT ( 'NONE',  ( -14.12000000000000455, 49.99999999999999289, 3.000000000000000000 ) ) ;
#236 = AXIS2_PLACEMENT_3D ( 'NONE', #260, #169, #257 ) ;
#237 = APPROVAL_STATUS ( 'not_yet_approved' ) ;
#238 = ORIENTED_EDGE ( 'NONE', *, *, #333, .T. ) ;
#239 = CARTESIAN_POINT ( 'NONE',  ( -11.62000000000000277, 45.00000000000000000, 3.000000000000000000 ) ) ;
#240 = ORIENTED_EDGE ( 'NONE', *, *, #289, .T. ) ;
#241 = DATE_AND_TIME ( #63, #316 ) ;
#242 = ORIENTED_EDGE ( 'NONE', *, *, #219, .T. ) ;
#243 = CC_DESIGN_PERSON_AND_ORGANIZATION_ASSIGNMENT ( #204, #318, ( #4 ) ) ;
#244 = AXIS2_PLACEMENT_3D ( 'NONE', #114, #226, #133 ) ;
#245 = EDGE_LOOP ( 'NONE', ( #184, #259, #41, #217 ) ) ;
#246 = ORIENTED_EDGE ( 'NONE', *, *, #18, .T. ) ;
#247 = CARTESIAN_POINT ( 'NONE',  ( 14.12000000000000810, -39.99999999999999289, 3.000000000000000000 ) ) ;
#248 = CARTESIAN_POINT ( 'NONE',  ( -14.12000000000000455, 39.99999999999999289, 0.000000000000000000 ) ) ;
#249 = AXIS2_PLACEMENT_3D ( 'NONE', #285, #347, #314 ) ;
#250 = FACE_OUTER_BOUND ( 'NONE', #187, .T. ) ;
#251 = VERTEX_POINT ( 'NONE', #53 ) ;
#252 = CC_DESIGN_PERSON_AND_ORGANIZATION_ASSIGNMENT ( #200, #168, ( #202 ) ) ;
#253 = CYLINDRICAL_SURFACE ( 'NONE', #244, 2.500000000000000444 ) ;
#254 = DIRECTION ( 'NONE',  ( 1.000000000000000000, 0.000000000000000000, 0.000000000000000000 ) ) ;
#255 = LINE ( 'NONE', #98, #67 ) ;
#256 = DATE_TIME_ROLE ( 'classification_date' ) ;
#257 = DIRECTION ( 'NONE',  ( 1.000000000000000000, 0.000000000000000000, 0.000000000000000000 ) ) ;
#258 = APPROVAL_ROLE ( '' ) ;
#259 = ORIENTED_EDGE ( 'NONE', *, *, #18, .F. ) ;
#260 = CARTESIAN_POINT ( 'NONE',  ( -9.120000000000002771, 45.00000000000000000, 3.000000000000000000 ) ) ;
#261 = DATE_AND_TIME ( #96, #118 ) ;
#262 = EDGE_LOOP ( 'NONE', ( #152, #270, #238, #123 ) ) ;
#263 = AXIS2_PLACEMENT_3D ( 'NONE', #172, #143, #95 ) ;
#264 = VERTEX_POINT ( 'NONE', #177 ) ;
#265 = CARTESIAN_POINT ( 'NONE',  ( 9.120000000000002771, 45.00000000000000000, 0.000000000000000000 ) ) ;
#266 = EDGE_CURVE ( 'NONE', #205, #128, #86, .T. ) ;
#267 = PERSON_AND_ORGANIZATION ( #134, #105 ) ;
#268 = CC_DESIGN_DATE_AND_TIME_ASSIGNMENT ( #241, #256, ( #144 ) ) ;
#269 = ORIENTED_EDGE ( 'NONE', *, *, #360, .F. ) ;
#270 = ORIENTED_EDGE ( 'NONE', *, *, #266, .F. ) ;
#271 = DIRECTION ( 'NONE',  ( 0.000000000000000000, -0.000000000000000000, 1.000000000000000000 ) ) ;
#272 = ORIENTED_EDGE ( 'NONE', *, *, #313, .T. ) ;
#273 = FACE_OUTER_BOUND ( 'NONE', #2, .T. ) ;
#274 = DIRECTION ( 'NONE',  ( -1.000000000000000000, -1.301042606982605567E-16, 0.000000000000000000 ) ) ;
#275 = FACE_BOUND ( 'NONE', #174, .T. ) ;
#276 = VECTOR ( 'NONE', #196, 1000.000000000000000 ) ;
#277 = EDGE_CURVE ( 'NONE', #264, #93, #15, .T. ) ;
#278 = CARTESIAN_POINT ( 'NONE',  ( 14.11999999999999744, 49.99999999999999289, 3.000000000000000000 ) ) ;
#279 = DIRECTION ( 'NONE',  ( -0.000000000000000000, -0.000000000000000000, -1.000000000000000000 ) ) ;
#280 = VECTOR ( 'NONE', #354, 1000.000000000000000 ) ;
#281 = APPLICATION_CONTEXT ( 'configuration controlled 3d designs of mechanical parts and assemblies' ) ;
#282 = COORDINATED_UNIVERSAL_TIME_OFFSET ( 5, 30, .AHEAD. ) ;
#283 = FACE_OUTER_BOUND ( 'NONE', #245, .T. ) ;
#284 = CARTESIAN_POINT ( 'NONE',  ( 0.000000000000000000, 0.000000000000000000, 3.000000000000000000 ) ) ;
#285 = CARTESIAN_POINT ( 'NONE',  ( -9.120000000000002771, 45.00000000000000000, 3.000000000000000000 ) ) ;
#286 = ORIENTED_EDGE ( 'NONE', *, *, #87, .T. ) ;
#287 = LINE ( 'NONE', #58, #280 ) ;
#288 = ORIENTED_EDGE ( 'NONE', *, *, #131, .T. ) ;
#289 = EDGE_CURVE ( 'NONE', #322, #295, #126, .T. ) ;
#290 = CARTESIAN_POINT ( 'NONE',  ( 9.120000000000002771, 45.00000000000000000, 3.000000000000000000 ) ) ;
#291 = AXIS2_PLACEMENT_3D ( 'NONE', #290, #385, #206 ) ;
#292 = VERTEX_POINT ( 'NONE', #121 ) ;
#293 = DIRECTION ( 'NONE',  ( -0.000000000000000000, -0.000000000000000000, -1.000000000000000000 ) ) ;
#294 = PERSON_AND_ORGANIZATION ( #134, #105 ) ;
#295 = VERTEX_POINT ( 'NONE', #90 ) ;
#296 = EDGE_LOOP ( 'NONE', ( #26, #181, #150, #288 ) ) ;
#297 = DIRECTION ( 'NONE',  ( -0.000000000000000000, -0.000000000000000000, -1.000000000000000000 ) ) ;
#298 = DIRECTION ( 'NONE',  ( 1.000000000000000000, 0.000000000000000000, 0.000000000000000000 ) ) ;
#299 = ORIENTED_EDGE ( 'NONE', *, *, #34, .F. ) ;
#300 = ADVANCED_FACE ( 'NONE', ( #203 ), #317, .T. ) ;
#301 = LINE ( 'NONE', #337, #371 ) ;
#302 = APPROVAL ( #237, 'UNSPECIFIED' ) ;
#303 = LINE ( 'NONE', #113, #50 ) ;
#304 = DIRECTION ( 'NONE',  ( -0.000000000000000000, -0.000000000000000000, -1.000000000000000000 ) ) ;
#305 = CIRCLE ( 'NONE', #28, 2.500000000000000444 ) ;
#306 = DIRECTION ( 'NONE',  ( -0.000000000000000000, -0.000000000000000000, -1.000000000000000000 ) ) ;
#307 = DIRECTION ( 'NONE',  ( 0.000000000000000000, 0.000000000000000000, -1.000000000000000000 ) ) ;
#308 = MECHANICAL_CONTEXT ( 'NONE', #281, 'mechanical' ) ;
#309 = VECTOR ( 'NONE', #85, 1000.000000000000000 ) ;
#310 = ADVANCED_FACE ( 'NONE', ( #68 ), #323, .F. ) ;
#311 = DIRECTION ( 'NONE',  ( 1.000000000000000000, 0.000000000000000000, 0.000000000000000000 ) ) ;
#312 = APPROVAL_ROLE ( '' ) ;
#313 = EDGE_CURVE ( 'NONE', #292, #322, #171, .T. ) ;
#314 = DIRECTION ( 'NONE',  ( 1.000000000000000000, 0.000000000000000000, 0.000000000000000000 ) ) ;
#315 = EDGE_CURVE ( 'NONE', #264, #157, #79, .T. ) ;
#316 = LOCAL_TIME ( 18, 31, 32.00000000000000000, #211 ) ;
#317 = PLANE ( 'NONE',  #214 ) ;
#318 = PERSON_AND_ORGANIZATION_ROLE ( 'creator' ) ;
#319 = APPROVAL_DATE_TIME ( #234, #302 ) ;
#320 = ORIENTED_EDGE ( 'NONE', *, *, #356, .F. ) ;
#321 = DIRECTION ( 'NONE',  ( -1.301042606982605567E-16, 1.000000000000000000, -0.000000000000000000 ) ) ;
#322 = VERTEX_POINT ( 'NONE', #37 ) ;
#323 = CYLINDRICAL_SURFACE ( 'NONE', #124, 2.500000000000000444 ) ;
#324 = AXIS2_PLACEMENT_3D ( 'NONE', #265, #231, #22 ) ;
#325 = SECURITY_CLASSIFICATION_LEVEL ( 'unclassified' ) ;
#326 = EDGE_LOOP ( 'NONE', ( #139, #355, #30, #269 ) ) ;
#327 = ORIENTED_EDGE ( 'NONE', *, *, #167, .T. ) ;
#328 = FACE_OUTER_BOUND ( 'NONE', #326, .T. ) ;
#329 = CARTESIAN_POINT ( 'NONE',  ( -14.12000000000000455, 49.99999999999999289, 3.000000000000000000 ) ) ;
#330 = CIRCLE ( 'NONE', #249, 2.500000000000000444 ) ;
#331 = ADVANCED_BREP_SHAPE_REPRESENTATION ( 'SlidingSheet_Default_sldprt', ( #61, #344 ), #362 ) ;
#332 = CARTESIAN_POINT ( 'NONE',  ( -14.11999999999999389, -39.99999999999999289, 3.000000000000000000 ) ) ;
#333 = EDGE_CURVE ( 'NONE', #205, #381, #108, .T. ) ;
#334 = APPROVAL ( #173, 'UNSPECIFIED' ) ;
#335 = DIRECTION ( 'NONE',  ( 0.000000000000000000, 0.000000000000000000, -1.000000000000000000 ) ) ;
#336 = CARTESIAN_POINT ( 'NONE',  ( -14.11999999999999389, -39.99999999999999289, 3.000000000000000000 ) ) ;
#337 = CARTESIAN_POINT ( 'NONE',  ( -14.12000000000000455, 39.99999999999999289, 3.000000000000000000 ) ) ;
#338 = CARTESIAN_POINT ( 'NONE',  ( -11.62000000000000277, 45.00000000000000000, 3.001000000000000334 ) ) ;
#339 = CARTESIAN_POINT ( 'NONE',  ( -14.12000000000000455, 49.99999999999999289, 3.000000000000000000 ) ) ;
#340 = AXIS2_PLACEMENT_3D ( 'NONE', #364, #353, #271 ) ;
#341 = LINE ( 'NONE', #17, #309 ) ;
#342 = ORIENTED_EDGE ( 'NONE', *, *, #289, .F. ) ;
#343 = CC_DESIGN_APPROVAL ( #302, ( #4 ) ) ;
#344 = AXIS2_PLACEMENT_3D ( 'NONE', #367, #141, #254 ) ;
#345 = APPROVAL_STATUS ( 'not_yet_approved' ) ;
#346 = DIRECTION ( 'NONE',  ( -0.000000000000000000, 0.000000000000000000, 1.000000000000000000 ) ) ;
#347 = DIRECTION ( 'NONE',  ( 0.000000000000000000, -0.000000000000000000, -1.000000000000000000 ) ) ;
#348 = FACE_BOUND ( 'NONE', #175, .T. ) ;
#349 = COORDINATED_UNIVERSAL_TIME_OFFSET ( 5, 30, .AHEAD. ) ;
#350 = ORIENTED_EDGE ( 'NONE', *, *, #147, .T. ) ;
#351 = CARTESIAN_POINT ( 'NONE',  ( 6.620000000000002771, 45.00000000000000000, 0.000000000000000000 ) ) ;
#352 = ORIENTED_EDGE ( 'NONE', *, *, #167, .F. ) ;
#353 = DIRECTION ( 'NONE',  ( 0.000000000000000000, 1.000000000000000000, 0.000000000000000000 ) ) ;
#354 = DIRECTION ( 'NONE',  ( -0.000000000000000000, -0.000000000000000000, -1.000000000000000000 ) ) ;
#355 = ORIENTED_EDGE ( 'NONE', *, *, #315, .T. ) ;
#356 = EDGE_CURVE ( 'NONE', #381, #218, #44, .T. ) ;
#357 = VERTEX_POINT ( 'NONE', #370 ) ;
#358 = EDGE_LOOP ( 'NONE', ( #240, #65, #99, #272 ) ) ;
#359 = CARTESIAN_POINT ( 'NONE',  ( -6.620000000000002771, 45.00000000000000000, 3.000000000000000000 ) ) ;
#360 = EDGE_CURVE ( 'NONE', #93, #207, #341, .T. ) ;
#361 = ORIENTED_EDGE ( 'NONE', *, *, #266, .T. ) ;
#362 =( GEOMETRIC_REPRESENTATION_CONTEXT ( 3 ) GLOBAL_UNCERTAINTY_ASSIGNED_CONTEXT ( ( #40 ) ) GLOBAL_UNIT_ASSIGNED_CONTEXT ( ( #372, #13, #194 ) ) REPRESENTATION_CONTEXT ( 'NONE', 'WORKASPACE' ) );
#363 = CARTESIAN_POINT ( 'NONE',  ( 9.120000000000002771, 45.00000000000000000, 0.000000000000000000 ) ) ;
#364 = CARTESIAN_POINT ( 'NONE',  ( -14.11999999999999389, -39.99999999999999289, 3.000000000000000000 ) ) ;
#365 = VECTOR ( 'NONE', #335, 1000.000000000000000 ) ;
#366 = DIRECTION ( 'NONE',  ( -1.301042606982605567E-16, 1.000000000000000000, -0.000000000000000000 ) ) ;
#367 = CARTESIAN_POINT ( 'NONE',  ( 0.000000000000000000, 0.000000000000000000, 0.000000000000000000 ) ) ;
#368 = DIRECTION ( 'NONE',  ( -1.000000000000000000, 0.000000000000000000, 0.000000000000000000 ) ) ;
#369 = DIRECTION ( 'NONE',  ( -1.000000000000000000, 0.000000000000000000, 0.000000000000000000 ) ) ;
#370 = CARTESIAN_POINT ( 'NONE',  ( 14.11999999999999744, 49.99999999999999289, 0.000000000000000000 ) ) ;
#371 = VECTOR ( 'NONE', #11, 1000.000000000000000 ) ;
#372 =( LENGTH_UNIT ( ) NAMED_UNIT ( * ) SI_UNIT ( .MILLI., .METRE. ) );
#373 = CC_DESIGN_PERSON_AND_ORGANIZATION_ASSIGNMENT ( #166, #54, ( #161 ) ) ;
#374 = VECTOR ( 'NONE', #311, 1000.000000000000000 ) ;
#375 = DIRECTION ( 'NONE',  ( -1.000000000000000000, 0.000000000000000000, 0.000000000000000000 ) ) ;
#376 = DIRECTION ( 'NONE',  ( 1.000000000000000000, 1.301042606982605567E-16, -0.000000000000000000 ) ) ;
#377 = PERSON_AND_ORGANIZATION ( #134, #105 ) ;
#378 = CARTESIAN_POINT ( 'NONE',  ( -14.11999999999999389, -39.99999999999999289, 0.000000000000000000 ) ) ;
#379 = COORDINATED_UNIVERSAL_TIME_OFFSET ( 5, 30, .AHEAD. ) ;
#380 = APPROVAL_DATE_TIME ( #261, #334 ) ;
#381 = VERTEX_POINT ( 'NONE', #117 ) ;
#382 = VECTOR ( 'NONE', #297, 1000.000000000000000 ) ;
#383 = DIRECTION ( 'NONE',  ( 1.000000000000000000, 0.000000000000000000, 0.000000000000000000 ) ) ;
#384 = ORIENTED_EDGE ( 'NONE', *, *, #360, .T. ) ;
#385 = DIRECTION ( 'NONE',  ( -0.000000000000000000, 0.000000000000000000, 1.000000000000000000 ) ) ;
ENDSEC;
END-ISO-10303-21;
