ISO-10303-21;
HEADER;
FILE_DESCRIPTION (( 'STEP AP203' ),
    '1' );
FILE_NAME ('Teeth_Default_sldprt.STEP',
    '2026-08-29T13:01:33',
    ( '' ),
    ( '' ),
    'SwSTEP 2.0',
    'SolidWorks 2020',
    '' );
FILE_SCHEMA (( 'CONFIG_CONTROL_DESIGN' ));
ENDSEC;

DATA;
#1 = AXIS2_PLACEMENT_3D ( 'NONE', #155, #12, #123 ) ;
#2 = EDGE_CURVE ( 'NONE', #16, #124, #38, .T. ) ;
#3 = CALENDAR_DATE ( 2026, 29, 8 ) ;
#4 = CARTESIAN_POINT ( 'NONE',  ( 0.000000000000000000, 15.00000000000000000, 50.00000000000000000 ) ) ;
#5 = CARTESIAN_POINT ( 'NONE',  ( 0.000000000000000000, 0.000000000000000000, 0.000000000000000000 ) ) ;
#6 = LOCAL_TIME ( 18, 31, 33.00000000000000000, #154 ) ;
#7 = VECTOR ( 'NONE', #233, 1000.000000000000000 ) ;
#8 = DATE_AND_TIME ( #225, #99 ) ;
#9 = APPROVAL_ROLE ( '' ) ;
#10 = CALENDAR_DATE ( 2026, 29, 8 ) ;
#11 = ORIENTED_EDGE ( 'NONE', *, *, #23, .T. ) ;
#12 = DIRECTION ( 'NONE',  ( 0.000000000000000000, 0.000000000000000000, 1.000000000000000000 ) ) ;
#13 = EDGE_LOOP ( 'NONE', ( #14, #60, #141, #142 ) ) ;
#14 = ORIENTED_EDGE ( 'NONE', *, *, #161, .F. ) ;
#15 = DIRECTION ( 'NONE',  ( -0.000000000000000000, -0.000000000000000000, -1.000000000000000000 ) ) ;
#16 = VERTEX_POINT ( 'NONE', #186 ) ;
#17 = LINE ( 'NONE', #204, #7 ) ;
#18 = CC_DESIGN_DATE_AND_TIME_ASSIGNMENT ( #8, #217, ( #65 ) ) ;
#19 = APPROVAL ( #49, 'UNSPECIFIED' ) ;
#20 = ORGANIZATION ( 'UNSPECIFIED', 'UNSPECIFIED', '' ) ;
#21 = CARTESIAN_POINT ( 'NONE',  ( 0.000000000000000000, 0.000000000000000000, 0.000000000000000000 ) ) ;
#22 = FACE_OUTER_BOUND ( 'NONE', #216, .T. ) ;
#23 = EDGE_CURVE ( 'NONE', #105, #127, #17, .T. ) ;
#24 = LINE ( 'NONE', #43, #223 ) ;
#25 = FACE_OUTER_BOUND ( 'NONE', #181, .T. ) ;
#26 = UNCERTAINTY_MEASURE_WITH_UNIT (LENGTH_MEASURE( 1.000000000000000082E-05 ), #203, 'distance_accuracy_value', 'NONE');
#27 = CARTESIAN_POINT ( 'NONE',  ( 0.000000000000000000, 0.000000000000000000, 50.00000000000000000 ) ) ;
#28 = PRODUCT ( 'Teeth_Default_sldprt', 'Teeth_Default_sldprt', '', ( #81 ) ) ;
#29 = FACE_OUTER_BOUND ( 'NONE', #236, .T. ) ;
#30 = DATE_AND_TIME ( #10, #6 ) ;
#31 = VERTEX_POINT ( 'NONE', #107 ) ;
#32 = SHAPE_DEFINITION_REPRESENTATION ( #67, #121 ) ;
#33 = CARTESIAN_POINT ( 'NONE',  ( 0.000000000000000000, 0.000000000000000000, 0.000000000000000000 ) ) ;
#34 = ORIENTED_EDGE ( 'NONE', *, *, #23, .F. ) ;
#35 = ADVANCED_FACE ( 'NONE', ( #188 ), #207, .F. ) ;
#36 = VECTOR ( 'NONE', #15, 1000.000000000000000 ) ;
#37 = VERTEX_POINT ( 'NONE', #114 ) ;
#38 = LINE ( 'NONE', #111, #135 ) ;
#39 = EDGE_CURVE ( 'NONE', #127, #158, #192, .T. ) ;
#40 = DIRECTION ( 'NONE',  ( -0.000000000000000000, -0.000000000000000000, -1.000000000000000000 ) ) ;
#41 = VECTOR ( 'NONE', #98, 1000.000000000000227 ) ;
#42 = COORDINATED_UNIVERSAL_TIME_OFFSET ( 5, 30, .AHEAD. ) ;
#43 = CARTESIAN_POINT ( 'NONE',  ( 0.000000000000000000, 0.000000000000000000, 0.000000000000000000 ) ) ;
#44 = DIRECTION ( 'NONE',  ( 0.000000000000000000, 0.000000000000000000, 1.000000000000000000 ) ) ;
#45 = APPROVAL ( #193, 'UNSPECIFIED' ) ;
#46 = DIRECTION ( 'NONE',  ( 1.000000000000000000, 0.000000000000000000, 0.000000000000000000 ) ) ;
#47 = COORDINATED_UNIVERSAL_TIME_OFFSET ( 5, 30, .AHEAD. ) ;
#48 = VECTOR ( 'NONE', #145, 1000.000000000000000 ) ;
#49 = APPROVAL_STATUS ( 'not_yet_approved' ) ;
#50 = PLANE ( 'NONE',  #219 ) ;
#51 = PERSON_AND_ORGANIZATION_ROLE ( 'creator' ) ;
#52 = PLANE ( 'NONE',  #1 ) ;
#53 = EDGE_CURVE ( 'NONE', #124, #105, #63, .T. ) ;
#54 = ORIENTED_EDGE ( 'NONE', *, *, #39, .T. ) ;
#55 = DATE_TIME_ROLE ( 'creation_date' ) ;
#56 = CC_DESIGN_APPROVAL ( #171, ( #191 ) ) ;
#57 = ORIENTED_EDGE ( 'NONE', *, *, #133, .T. ) ;
#58 = PERSON_AND_ORGANIZATION ( #221, #20 ) ;
#59 = ORIENTED_EDGE ( 'NONE', *, *, #110, .T. ) ;
#60 = ORIENTED_EDGE ( 'NONE', *, *, #39, .F. ) ;
#61 = AXIS2_PLACEMENT_3D ( 'NONE', #215, #178, #101 ) ;
#62 = ORIENTED_EDGE ( 'NONE', *, *, #209, .F. ) ;
#63 = LINE ( 'NONE', #27, #202 ) ;
#64 = DIRECTION ( 'NONE',  ( 1.000000000000000000, 0.000000000000000000, -0.000000000000000000 ) ) ;
#65 = SECURITY_CLASSIFICATION ( '', '', #180 ) ;
#66 = ADVANCED_FACE ( 'NONE', ( #25 ), #224, .F. ) ;
#67 = PRODUCT_DEFINITION_SHAPE ( 'NONE', 'NONE',  #108 ) ;
#68 = LINE ( 'NONE', #208, #231 ) ;
#69 = DIRECTION ( 'NONE',  ( 0.000000000000000000, 0.000000000000000000, 1.000000000000000000 ) ) ;
#70 = CARTESIAN_POINT ( 'NONE',  ( 0.000000000000000000, 0.000000000000000000, 50.00000000000000000 ) ) ;
#71 = APPROVAL_DATE_TIME ( #120, #19 ) ;
#72 = CARTESIAN_POINT ( 'NONE',  ( 3.234299287410931534, 15.00000000000000178, 0.000000000000000000 ) ) ;
#73 = DATE_AND_TIME ( #176, #211 ) ;
#74 = EDGE_CURVE ( 'NONE', #31, #184, #153, .T. ) ;
#75 = APPROVAL_DATE_TIME ( #134, #45 ) ;
#76 = ORIENTED_EDGE ( 'NONE', *, *, #183, .F. ) ;
#77 = AXIS2_PLACEMENT_3D ( 'NONE', #4, #113, #190 ) ;
#78 = APPLICATION_PROTOCOL_DEFINITION ( 'international standard', 'config_control_design', 1994, #164 ) ;
#79 = PERSON_AND_ORGANIZATION ( #221, #20 ) ;
#80 = CARTESIAN_POINT ( 'NONE',  ( 0.000000000000000000, 15.00000000000000000, 0.000000000000000000 ) ) ;
#81 = MECHANICAL_CONTEXT ( 'NONE', #194, 'mechanical' ) ;
#82 = COORDINATED_UNIVERSAL_TIME_OFFSET ( 5, 30, .AHEAD. ) ;
#83 = PERSON_AND_ORGANIZATION ( #221, #20 ) ;
#84 = ORIENTED_EDGE ( 'NONE', *, *, #161, .T. ) ;
#85 = CC_DESIGN_PERSON_AND_ORGANIZATION_ASSIGNMENT ( #235, #51, ( #191 ) ) ;
#86 = PERSON_AND_ORGANIZATION ( #221, #20 ) ;
#87 = CC_DESIGN_PERSON_AND_ORGANIZATION_ASSIGNMENT ( #83, #143, ( #65 ) ) ;
#88 = ORIENTED_EDGE ( 'NONE', *, *, #209, .T. ) ;
#89 = LINE ( 'NONE', #72, #185 ) ;
#90 = FACE_OUTER_BOUND ( 'NONE', #179, .T. ) ;
#91 = CC_DESIGN_APPROVAL ( #45, ( #108 ) ) ;
#92 = ORIENTED_EDGE ( 'NONE', *, *, #218, .T. ) ;
#93 = LINE ( 'NONE', #162, #160 ) ;
#94 = AXIS2_PLACEMENT_3D ( 'NONE', #21, #44, #64 ) ;
#95 = CARTESIAN_POINT ( 'NONE',  ( 0.000000000000000000, 0.000000000000000000, 50.00000000000000000 ) ) ;
#96 = LOCAL_TIME ( 18, 31, 33.00000000000000000, #82 ) ;
#97 = CARTESIAN_POINT ( 'NONE',  ( 11.33999999999999986, 0.000000000000000000, 0.000000000000000000 ) ) ;
#98 = DIRECTION ( 'NONE',  ( -0.4754077612449050805, 0.8797655713587041459, 0.000000000000000000 ) ) ;
#99 = LOCAL_TIME ( 18, 31, 33.00000000000000000, #47 ) ;
#100 = PLANE ( 'NONE',  #61 ) ;
#101 = DIRECTION ( 'NONE',  ( 0.4754077612449050250, -0.8797655713587041459, 0.000000000000000000 ) ) ;
#102 = COORDINATED_UNIVERSAL_TIME_OFFSET ( 5, 30, .AHEAD. ) ;
#103 = APPROVAL_PERSON_ORGANIZATION ( #198, #171, #9 ) ;
#104 = DIRECTION ( 'NONE',  ( -0.4754077612449050805, 0.8797655713587041459, 0.000000000000000000 ) ) ;
#105 = VERTEX_POINT ( 'NONE', #150 ) ;
#106 = APPROVAL_STATUS ( 'not_yet_approved' ) ;
#107 = CARTESIAN_POINT ( 'NONE',  ( 0.000000000000000000, 15.00000000000000000, 0.000000000000000000 ) ) ;
#108 = PRODUCT_DEFINITION ( 'UNKNOWN', '', #191, #220 ) ;
#109 = LINE ( 'NONE', #146, #36 ) ;
#110 = EDGE_CURVE ( 'NONE', #184, #127, #24, .T. ) ;
#111 = CARTESIAN_POINT ( 'NONE',  ( 0.000000000000000000, 15.00000000000000000, 50.00000000000000000 ) ) ;
#112 = DIRECTION ( 'NONE',  ( 1.000000000000000000, 0.000000000000000000, 0.000000000000000000 ) ) ;
#113 = DIRECTION ( 'NONE',  ( 1.000000000000000000, 0.000000000000000000, -0.000000000000000000 ) ) ;
#114 = CARTESIAN_POINT ( 'NONE',  ( 3.234299287410931534, 15.00000000000000178, 50.00000000000000000 ) ) ;
#115 =( NAMED_UNIT ( * ) SI_UNIT ( $, .STERADIAN. ) SOLID_ANGLE_UNIT ( ) );
#116 = CC_DESIGN_SECURITY_CLASSIFICATION ( #65, ( #191 ) ) ;
#117 = LINE ( 'NONE', #119, #48 ) ;
#118 = CALENDAR_DATE ( 2026, 29, 8 ) ;
#119 = CARTESIAN_POINT ( 'NONE',  ( 0.000000000000000000, 0.000000000000000000, 50.00000000000000000 ) ) ;
#120 = DATE_AND_TIME ( #118, #96 ) ;
#121 = ADVANCED_BREP_SHAPE_REPRESENTATION ( 'Teeth_Default_sldprt', ( #163, #144 ), #168 ) ;
#122 = ORIENTED_EDGE ( 'NONE', *, *, #138, .T. ) ;
#123 = DIRECTION ( 'NONE',  ( 1.000000000000000000, 0.000000000000000000, -0.000000000000000000 ) ) ;
#124 = VERTEX_POINT ( 'NONE', #95 ) ;
#125 = ADVANCED_FACE ( 'NONE', ( #22 ), #167, .F. ) ;
#126 = DIRECTION ( 'NONE',  ( 5.363521807425124974E-16, -1.000000000000000000, 0.000000000000000000 ) ) ;
#127 = VERTEX_POINT ( 'NONE', #97 ) ;
#128 = ORIENTED_EDGE ( 'NONE', *, *, #2, .F. ) ;
#129 = APPROVAL_PERSON_ORGANIZATION ( #79, #45, #173 ) ;
#130 = DIRECTION ( 'NONE',  ( 0.000000000000000000, -1.000000000000000000, 0.000000000000000000 ) ) ;
#131 = CC_DESIGN_PERSON_AND_ORGANIZATION_ASSIGNMENT ( #86, #157, ( #108 ) ) ;
#132 = CC_DESIGN_DATE_AND_TIME_ASSIGNMENT ( #73, #55, ( #108 ) ) ;
#133 = EDGE_CURVE ( 'NONE', #37, #16, #170, .T. ) ;
#134 = DATE_AND_TIME ( #3, #182 ) ;
#135 = VECTOR ( 'NONE', #130, 1000.000000000000000 ) ;
#136 = APPROVAL_PERSON_ORGANIZATION ( #58, #19, #232 ) ;
#137 = DIRECTION ( 'NONE',  ( 0.000000000000000000, 1.000000000000000000, 0.000000000000000000 ) ) ;
#138 = EDGE_CURVE ( 'NONE', #105, #37, #68, .T. ) ;
#139 = VECTOR ( 'NONE', #222, 1000.000000000000000 ) ;
#140 = PERSON_AND_ORGANIZATION_ROLE ( 'design_supplier' ) ;
#141 = ORIENTED_EDGE ( 'NONE', *, *, #110, .F. ) ;
#142 = ORIENTED_EDGE ( 'NONE', *, *, #74, .F. ) ;
#143 = PERSON_AND_ORGANIZATION_ROLE ( 'classification_officer' ) ;
#144 = AXIS2_PLACEMENT_3D ( 'NONE', #5, #69, #169 ) ;
#145 = DIRECTION ( 'NONE',  ( -0.000000000000000000, -0.000000000000000000, -1.000000000000000000 ) ) ;
#146 = CARTESIAN_POINT ( 'NONE',  ( 0.000000000000000000, 15.00000000000000000, 50.00000000000000000 ) ) ;
#147 = ORIENTED_EDGE ( 'NONE', *, *, #74, .T. ) ;
#148 = CC_DESIGN_PERSON_AND_ORGANIZATION_ASSIGNMENT ( #149, #189, ( #28 ) ) ;
#149 = PERSON_AND_ORGANIZATION ( #221, #20 ) ;
#150 = CARTESIAN_POINT ( 'NONE',  ( 11.33999999999999986, 0.000000000000000000, 50.00000000000000000 ) ) ;
#151 = CARTESIAN_POINT ( 'NONE',  ( 3.234299287410931534, 15.00000000000000178, 50.00000000000000000 ) ) ;
#152 = PRODUCT_RELATED_PRODUCT_CATEGORY ( 'detail', '', ( #28 ) ) ;
#153 = LINE ( 'NONE', #80, #227 ) ;
#154 = COORDINATED_UNIVERSAL_TIME_OFFSET ( 5, 30, .AHEAD. ) ;
#155 = CARTESIAN_POINT ( 'NONE',  ( 0.000000000000000000, 0.000000000000000000, 50.00000000000000000 ) ) ;
#156 = ORIENTED_EDGE ( 'NONE', *, *, #133, .F. ) ;
#157 = PERSON_AND_ORGANIZATION_ROLE ( 'creator' ) ;
#158 = VERTEX_POINT ( 'NONE', #196 ) ;
#159 = ORIENTED_EDGE ( 'NONE', *, *, #183, .T. ) ;
#160 = VECTOR ( 'NONE', #40, 1000.000000000000000 ) ;
#161 = EDGE_CURVE ( 'NONE', #158, #31, #89, .T. ) ;
#162 = CARTESIAN_POINT ( 'NONE',  ( 3.234299287410931534, 15.00000000000000178, 50.00000000000000000 ) ) ;
#163 = MANIFOLD_SOLID_BREP ( 'Boss-Extrude1', #187 ) ;
#164 = APPLICATION_CONTEXT ( 'configuration controlled 3d designs of mechanical parts and assemblies' ) ;
#165 = ORIENTED_EDGE ( 'NONE', *, *, #2, .T. ) ;
#166 = ADVANCED_FACE ( 'NONE', ( #90 ), #50, .F. ) ;
#167 = PLANE ( 'NONE',  #77 ) ;
#168 =( GEOMETRIC_REPRESENTATION_CONTEXT ( 3 ) GLOBAL_UNCERTAINTY_ASSIGNED_CONTEXT ( ( #26 ) ) GLOBAL_UNIT_ASSIGNED_CONTEXT ( ( #203, #206, #115 ) ) REPRESENTATION_CONTEXT ( 'NONE', 'WORKASPACE' ) );
#169 = DIRECTION ( 'NONE',  ( 1.000000000000000000, 0.000000000000000000, 0.000000000000000000 ) ) ;
#170 = LINE ( 'NONE', #151, #139 ) ;
#171 = APPROVAL ( #106, 'UNSPECIFIED' ) ;
#172 = CC_DESIGN_PERSON_AND_ORGANIZATION_ASSIGNMENT ( #200, #140, ( #191 ) ) ;
#173 = APPROVAL_ROLE ( '' ) ;
#174 = CARTESIAN_POINT ( 'NONE',  ( 11.33999999999999986, 0.000000000000000000, 0.000000000000000000 ) ) ;
#175 = DIRECTION ( 'NONE',  ( 0.000000000000000000, -0.000000000000000000, 1.000000000000000000 ) ) ;
#176 = CALENDAR_DATE ( 2026, 29, 8 ) ;
#177 = FACE_OUTER_BOUND ( 'NONE', #201, .T. ) ;
#178 = DIRECTION ( 'NONE',  ( -0.8797655713587042570, -0.4754077612449050805, 0.000000000000000000 ) ) ;
#179 = EDGE_LOOP ( 'NONE', ( #84, #62, #156, #92 ) ) ;
#180 = SECURITY_CLASSIFICATION_LEVEL ( 'unclassified' ) ;
#181 = EDGE_LOOP ( 'NONE', ( #59, #34, #214, #159 ) ) ;
#182 = LOCAL_TIME ( 18, 31, 33.00000000000000000, #42 ) ;
#183 = EDGE_CURVE ( 'NONE', #124, #184, #117, .T. ) ;
#184 = VERTEX_POINT ( 'NONE', #33 ) ;
#185 = VECTOR ( 'NONE', #212, 1000.000000000000000 ) ;
#186 = CARTESIAN_POINT ( 'NONE',  ( 0.000000000000000000, 15.00000000000000000, 50.00000000000000000 ) ) ;
#187 = CLOSED_SHELL ( 'NONE', ( #166, #125, #66, #197, #205, #35 ) ) ;
#188 = FACE_OUTER_BOUND ( 'NONE', #13, .T. ) ;
#189 = PERSON_AND_ORGANIZATION_ROLE ( 'design_owner' ) ;
#190 = DIRECTION ( 'NONE',  ( -0.000000000000000000, 0.000000000000000000, -1.000000000000000000 ) ) ;
#191 = PRODUCT_DEFINITION_FORMATION_WITH_SPECIFIED_SOURCE ( 'ANY', '', #28, .NOT_KNOWN. ) ;
#192 = LINE ( 'NONE', #174, #41 ) ;
#193 = APPROVAL_STATUS ( 'not_yet_approved' ) ;
#194 = APPLICATION_CONTEXT ( 'configuration controlled 3d designs of mechanical parts and assemblies' ) ;
#195 = CARTESIAN_POINT ( 'NONE',  ( 3.234299287410931534, 15.00000000000000178, 50.00000000000000000 ) ) ;
#196 = CARTESIAN_POINT ( 'NONE',  ( 3.234299287410931534, 15.00000000000000178, 0.000000000000000000 ) ) ;
#197 = ADVANCED_FACE ( 'NONE', ( #29 ), #100, .F. ) ;
#198 = PERSON_AND_ORGANIZATION ( #221, #20 ) ;
#199 = ORIENTED_EDGE ( 'NONE', *, *, #53, .T. ) ;
#200 = PERSON_AND_ORGANIZATION ( #221, #20 ) ;
#201 = EDGE_LOOP ( 'NONE', ( #57, #165, #199, #122 ) ) ;
#202 = VECTOR ( 'NONE', #46, 1000.000000000000000 ) ;
#203 =( LENGTH_UNIT ( ) NAMED_UNIT ( * ) SI_UNIT ( .MILLI., .METRE. ) );
#204 = CARTESIAN_POINT ( 'NONE',  ( 11.33999999999999986, 0.000000000000000000, 50.00000000000000000 ) ) ;
#205 = ADVANCED_FACE ( 'NONE', ( #177 ), #52, .T. ) ;
#206 =( NAMED_UNIT ( * ) PLANE_ANGLE_UNIT ( ) SI_UNIT ( $, .RADIAN. ) );
#207 = PLANE ( 'NONE',  #94 ) ;
#208 = CARTESIAN_POINT ( 'NONE',  ( 11.33999999999999986, 0.000000000000000000, 50.00000000000000000 ) ) ;
#209 = EDGE_CURVE ( 'NONE', #16, #31, #109, .T. ) ;
#210 = APPLICATION_PROTOCOL_DEFINITION ( 'international standard', 'config_control_design', 1994, #194 ) ;
#211 = LOCAL_TIME ( 18, 31, 33.00000000000000000, #102 ) ;
#212 = DIRECTION ( 'NONE',  ( -1.000000000000000000, -5.363521807425124974E-16, 0.000000000000000000 ) ) ;
#213 = DIRECTION ( 'NONE',  ( 1.000000000000000000, 5.363521807425124974E-16, 0.000000000000000000 ) ) ;
#214 = ORIENTED_EDGE ( 'NONE', *, *, #53, .F. ) ;
#215 = CARTESIAN_POINT ( 'NONE',  ( 11.33999999999999986, 0.000000000000000000, 50.00000000000000000 ) ) ;
#216 = EDGE_LOOP ( 'NONE', ( #147, #76, #128, #88 ) ) ;
#217 = DATE_TIME_ROLE ( 'classification_date' ) ;
#218 = EDGE_CURVE ( 'NONE', #37, #158, #93, .T. ) ;
#219 = AXIS2_PLACEMENT_3D ( 'NONE', #195, #126, #213 ) ;
#220 = DESIGN_CONTEXT ( 'detailed design', #164, 'design' ) ;
#221 = PERSON ( 'UNSPECIFIED', 'UNSPECIFIED', 'UNSPECIFIED', ('UNSPECIFIED'), ('UNSPECIFIED'), ('UNSPECIFIED') ) ;
#222 = DIRECTION ( 'NONE',  ( -1.000000000000000000, -5.363521807425124974E-16, 0.000000000000000000 ) ) ;
#223 = VECTOR ( 'NONE', #112, 1000.000000000000000 ) ;
#224 = PLANE ( 'NONE',  #229 ) ;
#225 = CALENDAR_DATE ( 2026, 29, 8 ) ;
#226 = DIRECTION ( 'NONE',  ( 0.000000000000000000, -1.000000000000000000, 0.000000000000000000 ) ) ;
#227 = VECTOR ( 'NONE', #226, 1000.000000000000000 ) ;
#228 = APPROVAL_DATE_TIME ( #30, #171 ) ;
#229 = AXIS2_PLACEMENT_3D ( 'NONE', #70, #137, #175 ) ;
#230 = CC_DESIGN_APPROVAL ( #19, ( #65 ) ) ;
#231 = VECTOR ( 'NONE', #104, 1000.000000000000227 ) ;
#232 = APPROVAL_ROLE ( '' ) ;
#233 = DIRECTION ( 'NONE',  ( -0.000000000000000000, -0.000000000000000000, -1.000000000000000000 ) ) ;
#234 = ORIENTED_EDGE ( 'NONE', *, *, #138, .F. ) ;
#235 = PERSON_AND_ORGANIZATION ( #221, #20 ) ;
#236 = EDGE_LOOP ( 'NONE', ( #54, #237, #234, #11 ) ) ;
#237 = ORIENTED_EDGE ( 'NONE', *, *, #218, .F. ) ;
ENDSEC;
END-ISO-10303-21;
