ISO-10303-21;
HEADER;
FILE_DESCRIPTION (( 'STEP AP203' ),
    '1' );
FILE_NAME ('wheel_insert_4mm_shaft_sldprt.STEP',
    '2026-08-29T13:01:35',
    ( '' ),
    ( '' ),
    'SwSTEP 2.0',
    'SolidWorks 2020',
    '' );
FILE_SCHEMA (( 'CONFIG_CONTROL_DESIGN' ));
ENDSEC;

DATA;
#1 = FACE_OUTER_BOUND ( 'NONE', #245, .T. ) ;
#2 = COORDINATED_UNIVERSAL_TIME_OFFSET ( 5, 30, .AHEAD. ) ;
#3 = DIRECTION ( 'NONE',  ( 1.000000000000000000, 0.000000000000000000, 0.000000000000000000 ) ) ;
#4 = EDGE_CURVE ( 'NONE', #304, #260, #52, .T. ) ;
#5 = ADVANCED_FACE ( 'NONE', ( #348 ), #453, .F. ) ;
#6 = VECTOR ( 'NONE', #331, 1000.000000000000227 ) ;
#7 = LINE ( 'NONE', #39, #188 ) ;
#8 = LINE ( 'NONE', #237, #412 ) ;
#9 = EDGE_LOOP ( 'NONE', ( #92, #306, #101, #127 ) ) ;
#10 = DIRECTION ( 'NONE',  ( 0.000000000000000000, -0.000000000000000000, 1.000000000000000000 ) ) ;
#11 = EDGE_LOOP ( 'NONE', ( #165, #136, #251, #413 ) ) ;
#12 = ORIENTED_EDGE ( 'NONE', *, *, #159, .F. ) ;
#13 = LOCAL_TIME ( 18, 31, 35.00000000000000000, #426 ) ;
#14 = AXIS2_PLACEMENT_3D ( 'NONE', #281, #108, #414 ) ;
#15 = DIRECTION ( 'NONE',  ( -1.000000000000000000, 0.000000000000000000, 0.000000000000000000 ) ) ;
#16 = EDGE_LOOP ( 'NONE', ( #425, #87, #436, #143, #43, #66 ) ) ;
#17 = DIRECTION ( 'NONE',  ( 0.000000000000000000, 0.000000000000000000, 1.000000000000000000 ) ) ;
#18 = CARTESIAN_POINT ( 'NONE',  ( 2.000000000000000000, 2.449293598294706414E-16, -12.00000000000000000 ) ) ;
#19 = ORIENTED_EDGE ( 'NONE', *, *, #233, .F. ) ;
#20 = CARTESIAN_POINT ( 'NONE',  ( 0.000000000000000000, 0.000000000000000000, 0.000000000000000000 ) ) ;
#21 = LINE ( 'NONE', #168, #125 ) ;
#22 = CC_DESIGN_PERSON_AND_ORGANIZATION_ASSIGNMENT ( #166, #80, ( #67 ) ) ;
#23 = AXIS2_PLACEMENT_3D ( 'NONE', #176, #182, #146 ) ;
#24 = DIRECTION ( 'NONE',  ( 1.000000000000000000, 0.000000000000000000, 0.000000000000000000 ) ) ;
#25 = AXIS2_PLACEMENT_3D ( 'NONE', #408, #318, #148 ) ;
#26 = PERSON_AND_ORGANIZATION ( #409, #248 ) ;
#27 = CARTESIAN_POINT ( 'NONE',  ( 4.999999999999999112, -2.230358754827323125E-15, 0.000000000000000000 ) ) ;
#28 = EDGE_CURVE ( 'NONE', #110, #68, #230, .T. ) ;
#29 = ADVANCED_FACE ( 'NONE', ( #111 ), #73, .T. ) ;
#30 = LINE ( 'NONE', #254, #115 ) ;
#31 = AXIS2_PLACEMENT_3D ( 'NONE', #114, #343, #24 ) ;
#32 = FACE_OUTER_BOUND ( 'NONE', #278, .T. ) ;
#33 = APPROVAL_PERSON_ORGANIZATION ( #138, #356, #394 ) ;
#34 = AXIS2_PLACEMENT_3D ( 'NONE', #20, #17, #335 ) ;
#35 = ORIENTED_EDGE ( 'NONE', *, *, #382, .F. ) ;
#36 = VECTOR ( 'NONE', #76, 1000.000000000000114 ) ;
#37 = PLANE ( 'NONE',  #25 ) ;
#38 = CALENDAR_DATE ( 2026, 29, 8 ) ;
#39 = CARTESIAN_POINT ( 'NONE',  ( -2.500000000000001332, 4.330127018922192761, 6.000000000000000000 ) ) ;
#40 = ORIENTED_EDGE ( 'NONE', *, *, #308, .F. ) ;
#41 = APPROVAL_PERSON_ORGANIZATION ( #26, #122, #106 ) ;
#42 = CARTESIAN_POINT ( 'NONE',  ( -5.000000000000000888, -3.717264591378874669E-16, 6.000000000000000000 ) ) ;
#43 = ORIENTED_EDGE ( 'NONE', *, *, #266, .T. ) ;
#44 = ADVANCED_FACE ( 'NONE', ( #222 ), #74, .F. ) ;
#45 = CC_DESIGN_DATE_AND_TIME_ASSIGNMENT ( #422, #261, ( #354 ) ) ;
#46 = FACE_BOUND ( 'NONE', #288, .T. ) ;
#47 = EDGE_LOOP ( 'NONE', ( #337, #349, #400, #256 ) ) ;
#48 = CC_DESIGN_PERSON_AND_ORGANIZATION_ASSIGNMENT ( #224, #213, ( #67 ) ) ;
#49 = SHAPE_DEFINITION_REPRESENTATION ( #416, #379 ) ;
#50 = DIRECTION ( 'NONE',  ( 0.5000000000000000000, 0.8660254037844385966, 0.000000000000000000 ) ) ;
#51 = DATE_TIME_ROLE ( 'classification_date' ) ;
#52 = CIRCLE ( 'NONE', #353, 2.000000000000000000 ) ;
#53 = CARTESIAN_POINT ( 'NONE',  ( -5.000000000000000888, -3.717264591378874669E-16, 6.000000000000000000 ) ) ;
#54 = DIRECTION ( 'NONE',  ( -0.000000000000000000, -0.000000000000000000, 1.000000000000000000 ) ) ;
#55 = CARTESIAN_POINT ( 'NONE',  ( 2.499999999999999112, -4.330127018922193649, 0.000000000000000000 ) ) ;
#56 = VERTEX_POINT ( 'NONE', #69 ) ;
#57 = AXIS2_PLACEMENT_3D ( 'NONE', #440, #130, #365 ) ;
#58 = CARTESIAN_POINT ( 'NONE',  ( -2.000000000000000000, 0.000000000000000000, 6.000000000000000000 ) ) ;
#59 = VERTEX_POINT ( 'NONE', #446 ) ;
#60 = CC_DESIGN_PERSON_AND_ORGANIZATION_ASSIGNMENT ( #201, #204, ( #185 ) ) ;
#61 = LINE ( 'NONE', #86, #177 ) ;
#62 = ORIENTED_EDGE ( 'NONE', *, *, #292, .F. ) ;
#63 = MANIFOLD_SOLID_BREP ( 'Cut-Extrude2', #258 ) ;
#64 =( NAMED_UNIT ( * ) PLANE_ANGLE_UNIT ( ) SI_UNIT ( $, .RADIAN. ) );
#65 = ORIENTED_EDGE ( 'NONE', *, *, #82, .F. ) ;
#66 = ORIENTED_EDGE ( 'NONE', *, *, #233, .T. ) ;
#67 = PRODUCT_DEFINITION_FORMATION_WITH_SPECIFIED_SOURCE ( 'ANY', '', #185, .NOT_KNOWN. ) ;
#68 = VERTEX_POINT ( 'NONE', #355 ) ;
#69 = CARTESIAN_POINT ( 'NONE',  ( 4.999999999999999112, -2.230358754827323125E-15, 6.000000000000000000 ) ) ;
#70 = CIRCLE ( 'NONE', #421, 4.000000000000000000 ) ;
#71 = ORIENTED_EDGE ( 'NONE', *, *, #147, .F. ) ;
#72 = DIRECTION ( 'NONE',  ( 0.5000000000000003331, 0.8660254037844384856, 0.000000000000000000 ) ) ;
#73 = CYLINDRICAL_SURFACE ( 'NONE', #139, 4.000000000000000000 ) ;
#74 = PLANE ( 'NONE',  #23 ) ;
#75 = COORDINATED_UNIVERSAL_TIME_OFFSET ( 5, 30, .AHEAD. ) ;
#76 = DIRECTION ( 'NONE',  ( -0.5000000000000002220, 0.8660254037844384856, 0.000000000000000000 ) ) ;
#77 = ORIENTED_EDGE ( 'NONE', *, *, #180, .F. ) ;
#78 = LINE ( 'NONE', #294, #103 ) ;
#79 = DIRECTION ( 'NONE',  ( -0.000000000000000000, -0.000000000000000000, -1.000000000000000000 ) ) ;
#80 = PERSON_AND_ORGANIZATION_ROLE ( 'design_supplier' ) ;
#81 = AXIS2_PLACEMENT_3D ( 'NONE', #194, #96, #305 ) ;
#82 = EDGE_CURVE ( 'NONE', #162, #332, #193, .T. ) ;
#83 = CC_DESIGN_PERSON_AND_ORGANIZATION_ASSIGNMENT ( #347, #171, ( #354 ) ) ;
#84 = FACE_OUTER_BOUND ( 'NONE', #302, .T. ) ;
#85 = CARTESIAN_POINT ( 'NONE',  ( 0.000000000000000000, 0.000000000000000000, -12.00000000000000000 ) ) ;
#86 = CARTESIAN_POINT ( 'NONE',  ( 2.499999999999999112, -4.330127018922193649, 6.000000000000000000 ) ) ;
#87 = ORIENTED_EDGE ( 'NONE', *, *, #232, .T. ) ;
#88 = APPROVAL_PERSON_ORGANIZATION ( #387, #410, #120 ) ;
#89 = AXIS2_PLACEMENT_3D ( 'NONE', #443, #350, #179 ) ;
#90 = VECTOR ( 'NONE', #346, 1000.000000000000000 ) ;
#91 = CARTESIAN_POINT ( 'NONE',  ( 2.499999999999996447, 4.330127018922193649, 6.000000000000000000 ) ) ;
#92 = ORIENTED_EDGE ( 'NONE', *, *, #4, .T. ) ;
#93 = DIRECTION ( 'NONE',  ( -0.000000000000000000, -0.000000000000000000, -1.000000000000000000 ) ) ;
#94 = AXIS2_PLACEMENT_3D ( 'NONE', #390, #267, #126 ) ;
#95 = VERTEX_POINT ( 'NONE', #144 ) ;
#96 = DIRECTION ( 'NONE',  ( 0.000000000000000000, 0.000000000000000000, -1.000000000000000000 ) ) ;
#97 = EDGE_CURVE ( 'NONE', #330, #56, #30, .T. ) ;
#98 = ADVANCED_FACE ( 'NONE', ( #381 ), #314, .F. ) ;
#99 = VECTOR ( 'NONE', #93, 1000.000000000000000 ) ;
#100 = CARTESIAN_POINT ( 'NONE',  ( 4.000000000000000000, 0.000000000000000000, 0.000000000000000000 ) ) ;
#101 = ORIENTED_EDGE ( 'NONE', *, *, #292, .T. ) ;
#102 = CALENDAR_DATE ( 2026, 29, 8 ) ;
#103 = VECTOR ( 'NONE', #79, 1000.000000000000000 ) ;
#104 = PERSON_AND_ORGANIZATION ( #409, #248 ) ;
#105 = LINE ( 'NONE', #285, #447 ) ;
#106 = APPROVAL_ROLE ( '' ) ;
#107 = VECTOR ( 'NONE', #397, 1000.000000000000000 ) ;
#108 = DIRECTION ( 'NONE',  ( 0.000000000000000000, 0.000000000000000000, -1.000000000000000000 ) ) ;
#109 = DATE_AND_TIME ( #38, #158 ) ;
#110 = VERTEX_POINT ( 'NONE', #255 ) ;
#111 = FACE_OUTER_BOUND ( 'NONE', #419, .T. ) ;
#112 = ORIENTED_EDGE ( 'NONE', *, *, #399, .T. ) ;
#113 = DIRECTION ( 'NONE',  ( 0.8660254037844384856, 0.5000000000000003331, -0.000000000000000000 ) ) ;
#114 = CARTESIAN_POINT ( 'NONE',  ( 0.000000000000000000, 0.000000000000000000, 6.000000000000000000 ) ) ;
#115 = VECTOR ( 'NONE', #72, 1000.000000000000114 ) ;
#116 = APPROVAL_DATE_TIME ( #328, #356 ) ;
#117 = CALENDAR_DATE ( 2026, 29, 8 ) ;
#118 = CARTESIAN_POINT ( 'NONE',  ( 2.499999999999996447, 4.330127018922193649, 0.000000000000000000 ) ) ;
#119 = PERSON_AND_ORGANIZATION_ROLE ( 'classification_officer' ) ;
#120 = APPROVAL_ROLE ( '' ) ;
#121 = EDGE_CURVE ( 'NONE', #68, #110, #70, .T. ) ;
#122 = APPROVAL ( #375, 'UNSPECIFIED' ) ;
#123 = PLANE ( 'NONE',  #167 ) ;
#124 = SECURITY_CLASSIFICATION_LEVEL ( 'unclassified' ) ;
#125 = VECTOR ( 'NONE', #310, 1000.000000000000227 ) ;
#126 = DIRECTION ( 'NONE',  ( 1.000000000000000000, 0.000000000000000000, -0.000000000000000000 ) ) ;
#127 = ORIENTED_EDGE ( 'NONE', *, *, #197, .F. ) ;
#128 = CALENDAR_DATE ( 2026, 29, 8 ) ;
#129 = LINE ( 'NONE', #329, #445 ) ;
#130 = DIRECTION ( 'NONE',  ( 0.000000000000000000, 0.000000000000000000, -1.000000000000000000 ) ) ;
#131 = ORIENTED_EDGE ( 'NONE', *, *, #121, .T. ) ;
#132 = CIRCLE ( 'NONE', #57, 2.000000000000000000 ) ;
#133 = CYLINDRICAL_SURFACE ( 'NONE', #274, 2.000000000000000000 ) ;
#134 = CYLINDRICAL_SURFACE ( 'NONE', #243, 2.000000000000000000 ) ;
#135 = ADVANCED_FACE ( 'NONE', ( #259, #32 ), #37, .F. ) ;
#136 = ORIENTED_EDGE ( 'NONE', *, *, #308, .T. ) ;
#137 = FACE_OUTER_BOUND ( 'NONE', #47, .T. ) ;
#138 = PERSON_AND_ORGANIZATION ( #409, #248 ) ;
#139 = AXIS2_PLACEMENT_3D ( 'NONE', #212, #246, #319 ) ;
#140 = DIRECTION ( 'NONE',  ( -0.000000000000000000, -0.000000000000000000, -1.000000000000000000 ) ) ;
#141 = ORIENTED_EDGE ( 'NONE', *, *, #178, .T. ) ;
#142 = CARTESIAN_POINT ( 'NONE',  ( 0.000000000000000000, 0.000000000000000000, 6.000000000000000000 ) ) ;
#143 = ORIENTED_EDGE ( 'NONE', *, *, #451, .T. ) ;
#144 = CARTESIAN_POINT ( 'NONE',  ( -2.499999999999999556, -4.330127018922193649, 6.000000000000000000 ) ) ;
#145 = ORIENTED_EDGE ( 'NONE', *, *, #252, .F. ) ;
#146 = DIRECTION ( 'NONE',  ( 0.5000000000000002220, -0.8660254037844384856, 0.000000000000000000 ) ) ;
#147 = EDGE_CURVE ( 'NONE', #377, #238, #207, .T. ) ;
#148 = DIRECTION ( 'NONE',  ( 1.000000000000000000, 0.000000000000000000, -0.000000000000000000 ) ) ;
#149 = DIRECTION ( 'NONE',  ( 0.000000000000000000, 0.000000000000000000, -1.000000000000000000 ) ) ;
#150 = AXIS2_PLACEMENT_3D ( 'NONE', #219, #113, #279 ) ;
#151 = LINE ( 'NONE', #456, #265 ) ;
#152 = CARTESIAN_POINT ( 'NONE',  ( -2.499999999999999556, -4.330127018922193649, 6.000000000000000000 ) ) ;
#153 = LINE ( 'NONE', #297, #229 ) ;
#154 = CIRCLE ( 'NONE', #81, 4.000000000000000000 ) ;
#155 = DIRECTION ( 'NONE',  ( -1.000000000000000000, 0.000000000000000000, 0.000000000000000000 ) ) ;
#156 = LINE ( 'NONE', #438, #358 ) ;
#157 = ORIENTED_EDGE ( 'NONE', *, *, #266, .F. ) ;
#158 = LOCAL_TIME ( 18, 31, 35.00000000000000000, #75 ) ;
#159 = EDGE_CURVE ( 'NONE', #56, #163, #384, .T. ) ;
#160 = CYLINDRICAL_SURFACE ( 'NONE', #405, 4.000000000000000000 ) ;
#161 = EDGE_CURVE ( 'NONE', #238, #184, #105, .T. ) ;
#162 = VERTEX_POINT ( 'NONE', #420 ) ;
#163 = VERTEX_POINT ( 'NONE', #27 ) ;
#164 = DIRECTION ( 'NONE',  ( -0.000000000000000000, -0.000000000000000000, -1.000000000000000000 ) ) ;
#165 = ORIENTED_EDGE ( 'NONE', *, *, #28, .F. ) ;
#166 = PERSON_AND_ORGANIZATION ( #409, #248 ) ;
#167 = AXIS2_PLACEMENT_3D ( 'NONE', #228, #395, #50 ) ;
#168 = CARTESIAN_POINT ( 'NONE',  ( -2.500000000000001332, 4.330127018922192761, 0.000000000000000000 ) ) ;
#169 = EDGE_CURVE ( 'NONE', #260, #304, #389, .T. ) ;
#170 = EDGE_LOOP ( 'NONE', ( #402, #145, #216, #437 ) ) ;
#171 = PERSON_AND_ORGANIZATION_ROLE ( 'creator' ) ;
#172 = LINE ( 'NONE', #173, #282 ) ;
#173 = CARTESIAN_POINT ( 'NONE',  ( -2.499999999999999556, -4.330127018922193649, 6.000000000000000000 ) ) ;
#174 = COORDINATED_UNIVERSAL_TIME_OFFSET ( 5, 30, .AHEAD. ) ;
#175 = DESIGN_CONTEXT ( 'detailed design', #345, 'design' ) ;
#176 = CARTESIAN_POINT ( 'NONE',  ( 4.999999999999999112, -2.230358754827323125E-15, 6.000000000000000000 ) ) ;
#177 = VECTOR ( 'NONE', #164, 1000.000000000000000 ) ;
#178 = EDGE_CURVE ( 'NONE', #95, #291, #172, .T. ) ;
#179 = DIRECTION ( 'NONE',  ( -1.000000000000000000, 0.000000000000000000, 0.000000000000000000 ) ) ;
#180 = EDGE_CURVE ( 'NONE', #163, #238, #359, .T. ) ;
#181 = CC_DESIGN_DATE_AND_TIME_ASSIGNMENT ( #317, #51, ( #208 ) ) ;
#182 = DIRECTION ( 'NONE',  ( -0.8660254037844385966, -0.5000000000000003331, 0.000000000000000000 ) ) ;
#183 = ORIENTED_EDGE ( 'NONE', *, *, #169, .F. ) ;
#184 = VERTEX_POINT ( 'NONE', #393 ) ;
#185 = PRODUCT ( 'wheel_insert_4mm_shaft_sldprt', 'wheel_insert_4mm_shaft_sldprt', '', ( #439 ) ) ;
#186 = CC_DESIGN_APPROVAL ( #356, ( #208 ) ) ;
#187 = CARTESIAN_POINT ( 'NONE',  ( 0.000000000000000000, 0.000000000000000000, 0.000000000000000000 ) ) ;
#188 = VECTOR ( 'NONE', #234, 1000.000000000000000 ) ;
#189 = ORIENTED_EDGE ( 'NONE', *, *, #253, .T. ) ;
#190 = CARTESIAN_POINT ( 'NONE',  ( 2.000000000000000000, 2.449293598294706414E-16, 6.000000000000000000 ) ) ;
#191 = CARTESIAN_POINT ( 'NONE',  ( 4.999999999999999112, -2.230358754827323125E-15, 0.000000000000000000 ) ) ;
#192 = CARTESIAN_POINT ( 'NONE',  ( -2.499999999999999556, -4.330127018922193649, 6.000000000000000000 ) ) ;
#193 = CIRCLE ( 'NONE', #89, 2.000000000000000000 ) ;
#194 = CARTESIAN_POINT ( 'NONE',  ( 0.000000000000000000, 0.000000000000000000, 0.000000000000000000 ) ) ;
#195 = DIRECTION ( 'NONE',  ( -0.5000000000000000000, -0.8660254037844385966, 0.000000000000000000 ) ) ;
#196 = ORIENTED_EDGE ( 'NONE', *, *, #340, .T. ) ;
#197 = EDGE_CURVE ( 'NONE', #304, #162, #78, .T. ) ;
#198 = EDGE_CURVE ( 'NONE', #68, #372, #129, .T. ) ;
#199 = DIRECTION ( 'NONE',  ( -0.000000000000000000, -0.000000000000000000, -1.000000000000000000 ) ) ;
#200 = ORIENTED_EDGE ( 'NONE', *, *, #382, .T. ) ;
#201 = PERSON_AND_ORGANIZATION ( #409, #248 ) ;
#202 = CARTESIAN_POINT ( 'NONE',  ( -5.000000000000000888, -3.717264591378874669E-16, 0.000000000000000000 ) ) ;
#203 = ORIENTED_EDGE ( 'NONE', *, *, #451, .F. ) ;
#204 = PERSON_AND_ORGANIZATION_ROLE ( 'design_owner' ) ;
#205 = CARTESIAN_POINT ( 'NONE',  ( 0.000000000000000000, 0.000000000000000000, 5.656854249492380582 ) ) ;
#206 = ADVANCED_FACE ( 'NONE', ( #46, #320 ), #263, .T. ) ;
#207 = LINE ( 'NONE', #313, #236 ) ;
#208 = SECURITY_CLASSIFICATION ( '', '', #124 ) ;
#209 = DIRECTION ( 'NONE',  ( 1.000000000000000000, 0.000000000000000000, 0.000000000000000000 ) ) ;
#210 = ORIENTED_EDGE ( 'NONE', *, *, #252, .T. ) ;
#211 = DATE_AND_TIME ( #102, #452 ) ;
#212 = CARTESIAN_POINT ( 'NONE',  ( 0.000000000000000000, 0.000000000000000000, -12.00000000000000000 ) ) ;
#213 = PERSON_AND_ORGANIZATION_ROLE ( 'creator' ) ;
#214 = EDGE_LOOP ( 'NONE', ( #200, #334, #157, #196 ) ) ;
#215 = ADVANCED_FACE ( 'NONE', ( #84 ), #123, .F. ) ;
#216 = ORIENTED_EDGE ( 'NONE', *, *, #325, .F. ) ;
#217 = ADVANCED_FACE ( 'NONE', ( #268, #430 ), #388, .T. ) ;
#218 = UNCERTAINTY_MEASURE_WITH_UNIT (LENGTH_MEASURE( 1.000000000000000082E-05 ), #373, 'distance_accuracy_value', 'NONE');
#219 = CARTESIAN_POINT ( 'NONE',  ( -5.000000000000000888, -3.717264591378874669E-16, 6.000000000000000000 ) ) ;
#220 = EDGE_LOOP ( 'NONE', ( #131, #366 ) ) ;
#221 = AXIS2_PLACEMENT_3D ( 'NONE', #187, #149, #155 ) ;
#222 = FACE_OUTER_BOUND ( 'NONE', #444, .T. ) ;
#223 = APPROVAL_STATUS ( 'not_yet_approved' ) ;
#224 = PERSON_AND_ORGANIZATION ( #409, #248 ) ;
#225 = APPROVAL_STATUS ( 'not_yet_approved' ) ;
#226 = ORIENTED_EDGE ( 'NONE', *, *, #368, .F. ) ;
#227 = CC_DESIGN_APPROVAL ( #410, ( #67 ) ) ;
#228 = CARTESIAN_POINT ( 'NONE',  ( -2.500000000000001332, 4.330127018922192761, 6.000000000000000000 ) ) ;
#229 = VECTOR ( 'NONE', #432, 1000.000000000000227 ) ;
#230 = CIRCLE ( 'NONE', #14, 4.000000000000000000 ) ;
#231 = DIRECTION ( 'NONE',  ( -1.000000000000000000, 0.000000000000000000, -0.000000000000000000 ) ) ;
#232 = EDGE_CURVE ( 'NONE', #56, #377, #151, .T. ) ;
#233 = EDGE_CURVE ( 'NONE', #95, #330, #264, .T. ) ;
#234 = DIRECTION ( 'NONE',  ( -0.000000000000000000, -0.000000000000000000, -1.000000000000000000 ) ) ;
#235 = LINE ( 'NONE', #362, #338 ) ;
#236 = VECTOR ( 'NONE', #418, 1000.000000000000000 ) ;
#237 = CARTESIAN_POINT ( 'NONE',  ( -2.499999999999999556, -4.330127018922193649, 0.000000000000000000 ) ) ;
#238 = VERTEX_POINT ( 'NONE', #118 ) ;
#239 = LINE ( 'NONE', #202, #6 ) ;
#240 = VERTEX_POINT ( 'NONE', #42 ) ;
#241 = APPLICATION_PROTOCOL_DEFINITION ( 'international standard', 'config_control_design', 1994, #321 ) ;
#242 = CARTESIAN_POINT ( 'NONE',  ( 0.000000000000000000, 0.000000000000000000, -12.00000000000000000 ) ) ;
#243 = AXIS2_PLACEMENT_3D ( 'NONE', #205, #341, #433 ) ;
#244 = CARTESIAN_POINT ( 'NONE',  ( 2.000000000000000000, 2.449293598294706414E-16, 5.656854249492380582 ) ) ;
#245 = EDGE_LOOP ( 'NONE', ( #455, #324, #19, #141 ) ) ;
#246 = DIRECTION ( 'NONE',  ( -0.000000000000000000, -0.000000000000000000, 1.000000000000000000 ) ) ;
#247 = ORIENTED_EDGE ( 'NONE', *, *, #97, .F. ) ;
#248 = ORGANIZATION ( 'UNSPECIFIED', 'UNSPECIFIED', '' ) ;
#249 = COORDINATED_UNIVERSAL_TIME_OFFSET ( 5, 30, .AHEAD. ) ;
#250 = DIRECTION ( 'NONE',  ( -1.000000000000000000, -1.734723475976808080E-16, 0.000000000000000000 ) ) ;
#251 = ORIENTED_EDGE ( 'NONE', *, *, #368, .T. ) ;
#252 = EDGE_CURVE ( 'NONE', #276, #184, #7, .T. ) ;
#253 = EDGE_CURVE ( 'NONE', #372, #59, #370, .T. ) ;
#254 = CARTESIAN_POINT ( 'NONE',  ( 2.499999999999999112, -4.330127018922193649, 6.000000000000000000 ) ) ;
#255 = CARTESIAN_POINT ( 'NONE',  ( -4.000000000000000000, 4.898587196589412829E-16, -12.00000000000000000 ) ) ;
#256 = ORIENTED_EDGE ( 'NONE', *, *, #82, .T. ) ;
#257 = APPROVAL_DATE_TIME ( #109, #410 ) ;
#258 = CLOSED_SHELL ( 'NONE', ( #431, #307, #275, #44, #5, #215, #98, #290, #206, #135, #29, #217, #406 ) ) ;
#259 = FACE_BOUND ( 'NONE', #312, .T. ) ;
#260 = VERTEX_POINT ( 'NONE', #190 ) ;
#261 = DATE_TIME_ROLE ( 'creation_date' ) ;
#262 = DIRECTION ( 'NONE',  ( -0.8660254037844384856, 0.5000000000000003331, 0.000000000000000000 ) ) ;
#263 = PLANE ( 'NONE',  #94 ) ;
#264 = LINE ( 'NONE', #192, #301 ) ;
#265 = VECTOR ( 'NONE', #360, 1000.000000000000114 ) ;
#266 = EDGE_CURVE ( 'NONE', #240, #95, #153, .T. ) ;
#267 = DIRECTION ( 'NONE',  ( 0.000000000000000000, -0.000000000000000000, 1.000000000000000000 ) ) ;
#268 = FACE_BOUND ( 'NONE', #309, .T. ) ;
#269 = CARTESIAN_POINT ( 'NONE',  ( -4.000000000000000000, 4.898587196589412829E-16, -12.00000000000000000 ) ) ;
#270 = DIRECTION ( 'NONE',  ( -0.000000000000000000, -0.000000000000000000, 1.000000000000000000 ) ) ;
#271 = ORIENTED_EDGE ( 'NONE', *, *, #399, .F. ) ;
#272 = CARTESIAN_POINT ( 'NONE',  ( 2.499999999999996447, 4.330127018922193649, 6.000000000000000000 ) ) ;
#273 = LINE ( 'NONE', #272, #107 ) ;
#274 = AXIS2_PLACEMENT_3D ( 'NONE', #363, #199, #15 ) ;
#275 = ADVANCED_FACE ( 'NONE', ( #357 ), #423, .F. ) ;
#276 = VERTEX_POINT ( 'NONE', #327 ) ;
#277 = CARTESIAN_POINT ( 'NONE',  ( 0.000000000000000000, 0.000000000000000000, -12.00000000000000000 ) ) ;
#278 = EDGE_LOOP ( 'NONE', ( #271, #380, #35, #415, #339, #77 ) ) ;
#279 = DIRECTION ( 'NONE',  ( -0.5000000000000003331, 0.8660254037844384856, 0.000000000000000000 ) ) ;
#280 = VECTOR ( 'NONE', #270, 1000.000000000000000 ) ;
#281 = CARTESIAN_POINT ( 'NONE',  ( 0.000000000000000000, 0.000000000000000000, -12.00000000000000000 ) ) ;
#282 = VECTOR ( 'NONE', #411, 1000.000000000000000 ) ;
#283 = PRODUCT_RELATED_PRODUCT_CATEGORY ( 'detail', '', ( #185 ) ) ;
#284 = DIRECTION ( 'NONE',  ( -1.000000000000000000, 0.000000000000000000, 0.000000000000000000 ) ) ;
#285 = CARTESIAN_POINT ( 'NONE',  ( 2.499999999999996447, 4.330127018922193649, 0.000000000000000000 ) ) ;
#286 = EDGE_LOOP ( 'NONE', ( #112, #12, #247, #342 ) ) ;
#287 = DIRECTION ( 'NONE',  ( 0.000000000000000000, 0.000000000000000000, -1.000000000000000000 ) ) ;
#288 = EDGE_LOOP ( 'NONE', ( #364, #183 ) ) ;
#289 = DIRECTION ( 'NONE',  ( 0.000000000000000000, 1.000000000000000000, 0.000000000000000000 ) ) ;
#290 = ADVANCED_FACE ( 'NONE', ( #1 ), #457, .F. ) ;
#291 = VERTEX_POINT ( 'NONE', #398 ) ;
#292 = EDGE_CURVE ( 'NONE', #332, #162, #132, .T. ) ;
#293 = AXIS2_PLACEMENT_3D ( 'NONE', #85, #287, #231 ) ;
#294 = CARTESIAN_POINT ( 'NONE',  ( -2.000000000000000000, 0.000000000000000000, 5.656854249492380582 ) ) ;
#295 = CC_DESIGN_APPROVAL ( #122, ( #354 ) ) ;
#296 = CALENDAR_DATE ( 2026, 29, 8 ) ;
#297 = CARTESIAN_POINT ( 'NONE',  ( -5.000000000000000888, -3.717264591378874669E-16, 6.000000000000000000 ) ) ;
#298 = CARTESIAN_POINT ( 'NONE',  ( 2.499999999999999112, -4.330127018922193649, 6.000000000000000000 ) ) ;
#299 = DIRECTION ( 'NONE',  ( 0.5000000000000003331, 0.8660254037844384856, 0.000000000000000000 ) ) ;
#300 = ORIENTED_EDGE ( 'NONE', *, *, #121, .F. ) ;
#301 = VECTOR ( 'NONE', #3, 1000.000000000000000 ) ;
#302 = EDGE_LOOP ( 'NONE', ( #441, #396, #203, #210 ) ) ;
#303 = FACE_OUTER_BOUND ( 'NONE', #9, .T. ) ;
#304 = VERTEX_POINT ( 'NONE', #58 ) ;
#305 = DIRECTION ( 'NONE',  ( -1.000000000000000000, 0.000000000000000000, 0.000000000000000000 ) ) ;
#306 = ORIENTED_EDGE ( 'NONE', *, *, #326, .T. ) ;
#307 = ADVANCED_FACE ( 'NONE', ( #336 ), #160, .T. ) ;
#308 = EDGE_CURVE ( 'NONE', #110, #59, #333, .T. ) ;
#309 = EDGE_LOOP ( 'NONE', ( #65, #62 ) ) ;
#310 = DIRECTION ( 'NONE',  ( -0.5000000000000000000, -0.8660254037844385966, 0.000000000000000000 ) ) ;
#311 = DIRECTION ( 'NONE',  ( 0.000000000000000000, 0.000000000000000000, 1.000000000000000000 ) ) ;
#312 = EDGE_LOOP ( 'NONE', ( #403, #226 ) ) ;
#313 = CARTESIAN_POINT ( 'NONE',  ( 2.499999999999996447, 4.330127018922193649, 6.000000000000000000 ) ) ;
#314 = PLANE ( 'NONE',  #150 ) ;
#315 = ORIENTED_EDGE ( 'NONE', *, *, #159, .T. ) ;
#316 =( GEOMETRIC_REPRESENTATION_CONTEXT ( 3 ) GLOBAL_UNCERTAINTY_ASSIGNED_CONTEXT ( ( #218 ) ) GLOBAL_UNIT_ASSIGNED_CONTEXT ( ( #373, #64, #434 ) ) REPRESENTATION_CONTEXT ( 'NONE', 'WORKASPACE' ) );
#317 = DATE_AND_TIME ( #296, #361 ) ;
#318 = DIRECTION ( 'NONE',  ( 0.000000000000000000, -0.000000000000000000, 1.000000000000000000 ) ) ;
#319 = DIRECTION ( 'NONE',  ( 1.000000000000000000, 0.000000000000000000, 0.000000000000000000 ) ) ;
#320 = FACE_OUTER_BOUND ( 'NONE', #16, .T. ) ;
#321 = APPLICATION_CONTEXT ( 'configuration controlled 3d designs of mechanical parts and assemblies' ) ;
#322 = AXIS2_PLACEMENT_3D ( 'NONE', #378, #376, #449 ) ;
#323 = DIRECTION ( 'NONE',  ( -0.5000000000000003331, -0.8660254037844384856, 0.000000000000000000 ) ) ;
#324 = ORIENTED_EDGE ( 'NONE', *, *, #367, .F. ) ;
#325 = EDGE_CURVE ( 'NONE', #377, #276, #273, .T. ) ;
#326 = EDGE_CURVE ( 'NONE', #260, #332, #371, .T. ) ;
#327 = CARTESIAN_POINT ( 'NONE',  ( -2.500000000000001332, 4.330127018922192761, 6.000000000000000000 ) ) ;
#328 = DATE_AND_TIME ( #128, #13 ) ;
#329 = CARTESIAN_POINT ( 'NONE',  ( 4.000000000000000000, 0.000000000000000000, -12.00000000000000000 ) ) ;
#330 = VERTEX_POINT ( 'NONE', #298 ) ;
#331 = DIRECTION ( 'NONE',  ( 0.5000000000000002220, -0.8660254037844384856, 0.000000000000000000 ) ) ;
#332 = VERTEX_POINT ( 'NONE', #18 ) ;
#333 = LINE ( 'NONE', #269, #280 ) ;
#334 = ORIENTED_EDGE ( 'NONE', *, *, #178, .F. ) ;
#335 = DIRECTION ( 'NONE',  ( 1.000000000000000000, 0.000000000000000000, 0.000000000000000000 ) ) ;
#336 = FACE_OUTER_BOUND ( 'NONE', #11, .T. ) ;
#337 = ORIENTED_EDGE ( 'NONE', *, *, #326, .F. ) ;
#338 = VECTOR ( 'NONE', #195, 1000.000000000000227 ) ;
#339 = ORIENTED_EDGE ( 'NONE', *, *, #161, .F. ) ;
#340 = EDGE_CURVE ( 'NONE', #240, #407, #369, .T. ) ;
#341 = DIRECTION ( 'NONE',  ( -0.000000000000000000, -0.000000000000000000, -1.000000000000000000 ) ) ;
#342 = ORIENTED_EDGE ( 'NONE', *, *, #367, .T. ) ;
#343 = DIRECTION ( 'NONE',  ( 0.000000000000000000, 0.000000000000000000, 1.000000000000000000 ) ) ;
#344 = ORIENTED_EDGE ( 'NONE', *, *, #180, .T. ) ;
#345 = APPLICATION_CONTEXT ( 'configuration controlled 3d designs of mechanical parts and assemblies' ) ;
#346 = DIRECTION ( 'NONE',  ( -0.000000000000000000, -0.000000000000000000, -1.000000000000000000 ) ) ;
#347 = PERSON_AND_ORGANIZATION ( #409, #248 ) ;
#348 = FACE_OUTER_BOUND ( 'NONE', #170, .T. ) ;
#349 = ORIENTED_EDGE ( 'NONE', *, *, #169, .T. ) ;
#350 = DIRECTION ( 'NONE',  ( 0.000000000000000000, 0.000000000000000000, -1.000000000000000000 ) ) ;
#351 = ORIENTED_EDGE ( 'NONE', *, *, #232, .F. ) ;
#352 = VECTOR ( 'NONE', #140, 1000.000000000000000 ) ;
#353 = AXIS2_PLACEMENT_3D ( 'NONE', #142, #311, #209 ) ;
#354 = PRODUCT_DEFINITION ( 'UNKNOWN', '', #67, #175 ) ;
#355 = CARTESIAN_POINT ( 'NONE',  ( 4.000000000000000000, 0.000000000000000000, -12.00000000000000000 ) ) ;
#356 = APPROVAL ( #223, 'UNSPECIFIED' ) ;
#357 = FACE_OUTER_BOUND ( 'NONE', #286, .T. ) ;
#358 = VECTOR ( 'NONE', #299, 1000.000000000000114 ) ;
#359 = LINE ( 'NONE', #191, #36 ) ;
#360 = DIRECTION ( 'NONE',  ( -0.5000000000000002220, 0.8660254037844384856, 0.000000000000000000 ) ) ;
#361 = LOCAL_TIME ( 18, 31, 35.00000000000000000, #2 ) ;
#362 = CARTESIAN_POINT ( 'NONE',  ( -2.500000000000001332, 4.330127018922192761, 6.000000000000000000 ) ) ;
#363 = CARTESIAN_POINT ( 'NONE',  ( 0.000000000000000000, 0.000000000000000000, 5.656854249492380582 ) ) ;
#364 = ORIENTED_EDGE ( 'NONE', *, *, #4, .F. ) ;
#365 = DIRECTION ( 'NONE',  ( -1.000000000000000000, 0.000000000000000000, 0.000000000000000000 ) ) ;
#366 = ORIENTED_EDGE ( 'NONE', *, *, #28, .T. ) ;
#367 = EDGE_CURVE ( 'NONE', #330, #391, #61, .T. ) ;
#368 = EDGE_CURVE ( 'NONE', #59, #372, #154, .T. ) ;
#369 = LINE ( 'NONE', #53, #352 ) ;
#370 = CIRCLE ( 'NONE', #221, 4.000000000000000000 ) ;
#371 = LINE ( 'NONE', #244, #99 ) ;
#372 = VERTEX_POINT ( 'NONE', #100 ) ;
#373 =( LENGTH_UNIT ( ) NAMED_UNIT ( * ) SI_UNIT ( .MILLI., .METRE. ) );
#374 = APPROVAL_DATE_TIME ( #211, #122 ) ;
#375 = APPROVAL_STATUS ( 'not_yet_approved' ) ;
#376 = DIRECTION ( 'NONE',  ( 1.734723475976807834E-16, -1.000000000000000000, 0.000000000000000000 ) ) ;
#377 = VERTEX_POINT ( 'NONE', #91 ) ;
#378 = CARTESIAN_POINT ( 'NONE',  ( 2.499999999999996447, 4.330127018922193649, 6.000000000000000000 ) ) ;
#379 = ADVANCED_BREP_SHAPE_REPRESENTATION ( 'wheel_insert_4mm_shaft_sldprt', ( #63, #34 ), #316 ) ;
#380 = ORIENTED_EDGE ( 'NONE', *, *, #383, .F. ) ;
#381 = FACE_OUTER_BOUND ( 'NONE', #214, .T. ) ;
#382 = EDGE_CURVE ( 'NONE', #407, #291, #239, .T. ) ;
#383 = EDGE_CURVE ( 'NONE', #291, #391, #8, .T. ) ;
#384 = LINE ( 'NONE', #386, #90 ) ;
#385 = CC_DESIGN_SECURITY_CLASSIFICATION ( #208, ( #67 ) ) ;
#386 = CARTESIAN_POINT ( 'NONE',  ( 4.999999999999999112, -2.230358754827323125E-15, 6.000000000000000000 ) ) ;
#387 = PERSON_AND_ORGANIZATION ( #409, #248 ) ;
#388 = PLANE ( 'NONE',  #293 ) ;
#389 = CIRCLE ( 'NONE', #31, 2.000000000000000000 ) ;
#390 = CARTESIAN_POINT ( 'NONE',  ( 0.000000000000000000, 0.000000000000000000, 6.000000000000000000 ) ) ;
#391 = VERTEX_POINT ( 'NONE', #55 ) ;
#392 = AXIS2_PLACEMENT_3D ( 'NONE', #424, #262, #323 ) ;
#393 = CARTESIAN_POINT ( 'NONE',  ( -2.500000000000001332, 4.330127018922192761, 0.000000000000000000 ) ) ;
#394 = APPROVAL_ROLE ( '' ) ;
#395 = DIRECTION ( 'NONE',  ( 0.8660254037844387076, -0.5000000000000001110, 0.000000000000000000 ) ) ;
#396 = ORIENTED_EDGE ( 'NONE', *, *, #340, .F. ) ;
#397 = DIRECTION ( 'NONE',  ( -1.000000000000000000, -1.734723475976808080E-16, 0.000000000000000000 ) ) ;
#398 = CARTESIAN_POINT ( 'NONE',  ( -2.499999999999999556, -4.330127018922193649, 0.000000000000000000 ) ) ;
#399 = EDGE_CURVE ( 'NONE', #391, #163, #156, .T. ) ;
#400 = ORIENTED_EDGE ( 'NONE', *, *, #197, .T. ) ;
#401 = DIRECTION ( 'NONE',  ( 1.000000000000000000, 0.000000000000000000, 0.000000000000000000 ) ) ;
#402 = ORIENTED_EDGE ( 'NONE', *, *, #161, .T. ) ;
#403 = ORIENTED_EDGE ( 'NONE', *, *, #253, .F. ) ;
#404 = DIRECTION ( 'NONE',  ( 1.000000000000000000, 0.000000000000000000, 0.000000000000000000 ) ) ;
#405 = AXIS2_PLACEMENT_3D ( 'NONE', #242, #54, #401 ) ;
#406 = ADVANCED_FACE ( 'NONE', ( #137 ), #133, .F. ) ;
#407 = VERTEX_POINT ( 'NONE', #435 ) ;
#408 = CARTESIAN_POINT ( 'NONE',  ( 0.000000000000000000, 0.000000000000000000, 0.000000000000000000 ) ) ;
#409 = PERSON ( 'UNSPECIFIED', 'UNSPECIFIED', 'UNSPECIFIED', ('UNSPECIFIED'), ('UNSPECIFIED'), ('UNSPECIFIED') ) ;
#410 = APPROVAL ( #225, 'UNSPECIFIED' ) ;
#411 = DIRECTION ( 'NONE',  ( -0.000000000000000000, -0.000000000000000000, -1.000000000000000000 ) ) ;
#412 = VECTOR ( 'NONE', #404, 1000.000000000000000 ) ;
#413 = ORIENTED_EDGE ( 'NONE', *, *, #198, .F. ) ;
#414 = DIRECTION ( 'NONE',  ( -1.000000000000000000, 0.000000000000000000, 0.000000000000000000 ) ) ;
#415 = ORIENTED_EDGE ( 'NONE', *, *, #448, .F. ) ;
#416 = PRODUCT_DEFINITION_SHAPE ( 'NONE', 'NONE',  #354 ) ;
#417 = APPLICATION_PROTOCOL_DEFINITION ( 'international standard', 'config_control_design', 1994, #345 ) ;
#418 = DIRECTION ( 'NONE',  ( -0.000000000000000000, -0.000000000000000000, -1.000000000000000000 ) ) ;
#419 = EDGE_LOOP ( 'NONE', ( #40, #300, #442, #189 ) ) ;
#420 = CARTESIAN_POINT ( 'NONE',  ( -2.000000000000000000, 0.000000000000000000, -12.00000000000000000 ) ) ;
#421 = AXIS2_PLACEMENT_3D ( 'NONE', #277, #454, #284 ) ;
#422 = DATE_AND_TIME ( #117, #450 ) ;
#423 = PLANE ( 'NONE',  #392 ) ;
#424 = CARTESIAN_POINT ( 'NONE',  ( 2.499999999999999112, -4.330127018922193649, 6.000000000000000000 ) ) ;
#425 = ORIENTED_EDGE ( 'NONE', *, *, #97, .T. ) ;
#426 = COORDINATED_UNIVERSAL_TIME_OFFSET ( 5, 30, .AHEAD. ) ;
#427 = CC_DESIGN_PERSON_AND_ORGANIZATION_ASSIGNMENT ( #104, #119, ( #208 ) ) ;
#428 = DIRECTION ( 'NONE',  ( -0.000000000000000000, -0.000000000000000000, 1.000000000000000000 ) ) ;
#429 = AXIS2_PLACEMENT_3D ( 'NONE', #152, #289, #10 ) ;
#430 = FACE_OUTER_BOUND ( 'NONE', #220, .T. ) ;
#431 = ADVANCED_FACE ( 'NONE', ( #303 ), #134, .F. ) ;
#432 = DIRECTION ( 'NONE',  ( 0.5000000000000002220, -0.8660254037844384856, 0.000000000000000000 ) ) ;
#433 = DIRECTION ( 'NONE',  ( -1.000000000000000000, 0.000000000000000000, 0.000000000000000000 ) ) ;
#434 =( NAMED_UNIT ( * ) SI_UNIT ( $, .STERADIAN. ) SOLID_ANGLE_UNIT ( ) );
#435 = CARTESIAN_POINT ( 'NONE',  ( -5.000000000000000888, -3.717264591378874669E-16, 0.000000000000000000 ) ) ;
#436 = ORIENTED_EDGE ( 'NONE', *, *, #325, .T. ) ;
#437 = ORIENTED_EDGE ( 'NONE', *, *, #147, .T. ) ;
#438 = CARTESIAN_POINT ( 'NONE',  ( 2.499999999999999112, -4.330127018922193649, 0.000000000000000000 ) ) ;
#439 = MECHANICAL_CONTEXT ( 'NONE', #321, 'mechanical' ) ;
#440 = CARTESIAN_POINT ( 'NONE',  ( 0.000000000000000000, 0.000000000000000000, -12.00000000000000000 ) ) ;
#441 = ORIENTED_EDGE ( 'NONE', *, *, #448, .T. ) ;
#442 = ORIENTED_EDGE ( 'NONE', *, *, #198, .T. ) ;
#443 = CARTESIAN_POINT ( 'NONE',  ( 0.000000000000000000, 0.000000000000000000, -12.00000000000000000 ) ) ;
#444 = EDGE_LOOP ( 'NONE', ( #344, #71, #351, #315 ) ) ;
#445 = VECTOR ( 'NONE', #428, 1000.000000000000000 ) ;
#446 = CARTESIAN_POINT ( 'NONE',  ( -4.000000000000000000, 4.898587196589412829E-16, 0.000000000000000000 ) ) ;
#447 = VECTOR ( 'NONE', #250, 1000.000000000000000 ) ;
#448 = EDGE_CURVE ( 'NONE', #184, #407, #21, .T. ) ;
#449 = DIRECTION ( 'NONE',  ( 1.000000000000000000, 1.734723475976807834E-16, 0.000000000000000000 ) ) ;
#450 = LOCAL_TIME ( 18, 31, 35.00000000000000000, #174 ) ;
#451 = EDGE_CURVE ( 'NONE', #276, #240, #235, .T. ) ;
#452 = LOCAL_TIME ( 18, 31, 35.00000000000000000, #249 ) ;
#453 = PLANE ( 'NONE',  #322 ) ;
#454 = DIRECTION ( 'NONE',  ( 0.000000000000000000, 0.000000000000000000, -1.000000000000000000 ) ) ;
#455 = ORIENTED_EDGE ( 'NONE', *, *, #383, .T. ) ;
#456 = CARTESIAN_POINT ( 'NONE',  ( 4.999999999999999112, -2.230358754827323125E-15, 6.000000000000000000 ) ) ;
#457 = PLANE ( 'NONE',  #429 ) ;
ENDSEC;
END-ISO-10303-21;
